<?xml version="1.0" encoding="UTF-8" standalone="no"?>
<!DOCTYPE svg PUBLIC "-//W3C//DTD SVG 1.1//EN"
 "http://www.w3.org/Graphics/SVG/1.1/DTD/svg11.dtd">
<!-- Generated by graphviz version 2.26.3 (20100126.1600)
 -->
<!-- Title: /home/Code/Mezzanine/Mezzanine/src/actorbase.h Pages: 1 -->
<svg width="2603pt" height="356pt"
 viewBox="0.00 0.00 2603.00 356.00" xmlns="http://www.w3.org/2000/svg" xmlns:xlink="http://www.w3.org/1999/xlink">
<g id="graph1" class="graph" transform="scale(1 1) rotate(0) translate(4 352)">
<title>/home/Code/Mezzanine/Mezzanine/src/actorbase.h</title>
<polygon fill="white" stroke="white" points="-4,5 -4,-352 2600,-352 2600,5 -4,5"/>
<!-- Node1 -->
<g id="node1" class="node"><title>Node1</title>
<polygon fill="#bfbfbf" stroke="black" points="1461,-313 1461,-347 1609,-347 1609,-313 1461,-313"/>
<text text-anchor="start" x="1469" y="-334" font-family="FreeSans" font-size="10.00">/home/Code/Mezzanine</text>
<text text-anchor="middle" x="1535" y="-321" font-family="FreeSans" font-size="10.00">/Mezzanine/src/actorbase.h</text>
</g>
<!-- Node2 -->
<g id="node3" class="node"><title>Node2</title>
<a xlink:href="actorbase_8cpp.html" target="_top" xlink:title="Code used by all actors is implemented here.">
<polygon fill="white" stroke="black" points="-0.5,-151 -0.5,-185 158.5,-185 158.5,-151 -0.5,-151"/>
<text text-anchor="start" x="7.5" y="-172" font-family="FreeSans" font-size="10.00">/home/Code/Mezzanine</text>
<text text-anchor="middle" x="79" y="-159" font-family="FreeSans" font-size="10.00">/Mezzanine/src/actorbase.cpp</text>
</a>
</g>
<!-- Node1&#45;&gt;Node2 -->
<g id="edge2" class="edge"><title>Node1&#45;&gt;Node2</title>
<path fill="none" stroke="midnightblue" d="M1450.61,-328.2C1232.12,-323.148 651.792,-307.128 462,-276 338.432,-255.733 197.85,-210.027 126.288,-185.063"/>
<polygon fill="midnightblue" stroke="midnightblue" points="1450.66,-331.702 1460.74,-328.432 1450.82,-324.704 1450.66,-331.702"/>
</g>
<!-- Node3 -->
<g id="node5" class="node"><title>Node3</title>
<a xlink:href="actorrigid_8h_source.html" target="_top" xlink:title="/home/Code/Mezzanine\l/Mezzanine/src/actorrigid.h">
<polygon fill="white" stroke="black" points="677,-235 677,-269 821,-269 821,-235 677,-235"/>
<text text-anchor="start" x="685" y="-256" font-family="FreeSans" font-size="10.00">/home/Code/Mezzanine</text>
<text text-anchor="middle" x="749" y="-243" font-family="FreeSans" font-size="10.00">/Mezzanine/src/actorrigid.h</text>
</a>
</g>
<!-- Node1&#45;&gt;Node3 -->
<g id="edge4" class="edge"><title>Node1&#45;&gt;Node3</title>
<path fill="none" stroke="midnightblue" d="M1450.73,-321.637C1295.51,-306.233 966.981,-273.632 821.241,-259.169"/>
<polygon fill="midnightblue" stroke="midnightblue" points="1450.4,-325.122 1460.7,-322.627 1451.1,-318.156 1450.4,-325.122"/>
</g>
<!-- Node4 -->
<g id="node8" class="node"><title>Node4</title>
<a xlink:href="actorphysicssettings_8cpp_source.html" target="_top" xlink:title="/home/Code/Mezzanine\l/Mezzanine/src/actorphysicssettings.cpp">
<polygon fill="white" stroke="black" points="175.5,-151 175.5,-185 384.5,-185 384.5,-151 175.5,-151"/>
<text text-anchor="start" x="183.5" y="-172" font-family="FreeSans" font-size="10.00">/home/Code/Mezzanine</text>
<text text-anchor="middle" x="280" y="-159" font-family="FreeSans" font-size="10.00">/Mezzanine/src/actorphysicssettings.cpp</text>
</a>
</g>
<!-- Node1&#45;&gt;Node4 -->
<g id="edge34" class="edge"><title>Node1&#45;&gt;Node4</title>
<path fill="none" stroke="midnightblue" d="M1450.92,-327.007C1263.64,-319.976 816.952,-301.085 668,-276 543.371,-255.012 401.309,-209.822 328.56,-185.068"/>
<polygon fill="midnightblue" stroke="midnightblue" points="1450.87,-330.507 1460.99,-327.383 1451.13,-323.512 1450.87,-330.507"/>
</g>
<!-- Node8 -->
<g id="node16" class="node"><title>Node8</title>
<a xlink:href="mezzanine_8h.html" target="_top" xlink:title="A single file that includes all of the Mezzanine engine.">
<polygon fill="white" stroke="black" points="1054,-73 1054,-107 1206,-107 1206,-73 1054,-73"/>
<text text-anchor="start" x="1062" y="-94" font-family="FreeSans" font-size="10.00">/home/Code/Mezzanine</text>
<text text-anchor="middle" x="1130" y="-81" font-family="FreeSans" font-size="10.00">/Mezzanine/src/mezzanine.h</text>
</a>
</g>
<!-- Node1&#45;&gt;Node8 -->
<g id="edge48" class="edge"><title>Node1&#45;&gt;Node8</title>
<path fill="none" stroke="midnightblue" d="M1450.66,-324.207C1365.74,-317.002 1241.78,-302.312 1202,-276 1144.09,-237.701 1132.73,-145.3 1130.52,-107.036"/>
<polygon fill="midnightblue" stroke="midnightblue" points="1450.56,-327.711 1460.82,-325.049 1451.14,-320.735 1450.56,-327.711"/>
</g>
<!-- Node12 -->
<g id="node25" class="node"><title>Node12</title>
<a xlink:href="actorcharacter_8h_source.html" target="_top" xlink:title="/home/Code/Mezzanine\l/Mezzanine/src/actorcharacter.h">
<polygon fill="white" stroke="black" points="1210.5,-235 1210.5,-269 1379.5,-269 1379.5,-235 1210.5,-235"/>
<text text-anchor="start" x="1218.5" y="-256" font-family="FreeSans" font-size="10.00">/home/Code/Mezzanine</text>
<text text-anchor="middle" x="1295" y="-243" font-family="FreeSans" font-size="10.00">/Mezzanine/src/actorcharacter.h</text>
</a>
</g>
<!-- Node1&#45;&gt;Node12 -->
<g id="edge26" class="edge"><title>Node1&#45;&gt;Node12</title>
<path fill="none" stroke="midnightblue" d="M1472.99,-309.848C1434.14,-297.222 1384.62,-281.126 1347.67,-269.119"/>
<polygon fill="midnightblue" stroke="midnightblue" points="1472.04,-313.217 1482.63,-312.979 1474.2,-306.559 1472.04,-313.217"/>
</g>
<!-- Node14 -->
<g id="node30" class="node"><title>Node14</title>
<a xlink:href="actormanager_8cpp_source.html" target="_top" xlink:title="/home/Code/Mezzanine\l/Mezzanine/src/actormanager.cpp">
<polygon fill="white" stroke="black" points="1619,-235 1619,-269 1797,-269 1797,-235 1619,-235"/>
<text text-anchor="start" x="1627" y="-256" font-family="FreeSans" font-size="10.00">/home/Code/Mezzanine</text>
<text text-anchor="middle" x="1708" y="-243" font-family="FreeSans" font-size="10.00">/Mezzanine/src/actormanager.cpp</text>
</a>
</g>
<!-- Node1&#45;&gt;Node14 -->
<g id="edge32" class="edge"><title>Node1&#45;&gt;Node14</title>
<path fill="none" stroke="midnightblue" d="M1582.42,-308.619C1610.02,-296.175 1644.34,-280.702 1670.12,-269.078"/>
<polygon fill="midnightblue" stroke="midnightblue" points="1580.64,-305.582 1572.97,-312.883 1583.52,-311.963 1580.64,-305.582"/>
</g>
<!-- Node15 -->
<g id="node33" class="node"><title>Node15</title>
<a xlink:href="vector3wactor_8h_source.html" target="_top" xlink:title="/home/Code/Mezzanine\l/Mezzanine/src/vector3wactor.h">
<polygon fill="white" stroke="black" points="1397,-235 1397,-269 1563,-269 1563,-235 1397,-235"/>
<text text-anchor="start" x="1405" y="-256" font-family="FreeSans" font-size="10.00">/home/Code/Mezzanine</text>
<text text-anchor="middle" x="1480" y="-243" font-family="FreeSans" font-size="10.00">/Mezzanine/src/vector3wactor.h</text>
</a>
</g>
<!-- Node1&#45;&gt;Node15 -->
<g id="edge36" class="edge"><title>Node1&#45;&gt;Node15</title>
<path fill="none" stroke="midnightblue" d="M1516.89,-304.314C1508.78,-292.812 1499.43,-279.553 1492.17,-269.262"/>
<polygon fill="midnightblue" stroke="midnightblue" points="1514.17,-306.534 1522.79,-312.689 1519.89,-302.5 1514.17,-306.534"/>
</g>
<!-- Node17 -->
<g id="node38" class="node"><title>Node17</title>
<a xlink:href="rayquerytool_8cpp_source.html" target="_top" xlink:title="/home/Code/Mezzanine\l/Mezzanine/src/rayquerytool.cpp">
<polygon fill="white" stroke="black" points="1979.5,-151 1979.5,-185 2150.5,-185 2150.5,-151 1979.5,-151"/>
<text text-anchor="start" x="1987.5" y="-172" font-family="FreeSans" font-size="10.00">/home/Code/Mezzanine</text>
<text text-anchor="middle" x="2065" y="-159" font-family="FreeSans" font-size="10.00">/Mezzanine/src/rayquerytool.cpp</text>
</a>
</g>
<!-- Node1&#45;&gt;Node17 -->
<g id="edge50" class="edge"><title>Node1&#45;&gt;Node17</title>
<path fill="none" stroke="midnightblue" d="M1552.92,-304.558C1573.78,-275.113 1605.92,-230.328 1610,-228 1680.04,-188.076 1891.61,-206.012 1971,-192 1981.7,-190.112 1992.97,-187.652 2003.85,-185.028"/>
<polygon fill="midnightblue" stroke="midnightblue" points="1550.03,-302.589 1547.11,-312.774 1555.75,-306.631 1550.03,-302.589"/>
</g>
<!-- Node20 -->
<g id="node46" class="node"><title>Node20</title>
<a xlink:href="resourcemanager_8cpp_source.html" target="_top" xlink:title="/home/Code/Mezzanine\l/Mezzanine/src/resourcemanager.cpp">
<polygon fill="white" stroke="black" points="1814.5,-235 1814.5,-269 2009.5,-269 2009.5,-235 1814.5,-235"/>
<text text-anchor="start" x="1822.5" y="-256" font-family="FreeSans" font-size="10.00">/home/Code/Mezzanine</text>
<text text-anchor="middle" x="1912" y="-243" font-family="FreeSans" font-size="10.00">/Mezzanine/src/resourcemanager.cpp</text>
</a>
</g>
<!-- Node1&#45;&gt;Node20 -->
<g id="edge52" class="edge"><title>Node1&#45;&gt;Node20</title>
<path fill="none" stroke="midnightblue" d="M1619.14,-313.818C1672.71,-303.372 1743.51,-289.297 1806,-276 1816.33,-273.801 1827.22,-271.415 1837.92,-269.03"/>
<polygon fill="midnightblue" stroke="midnightblue" points="1618.15,-310.445 1609.01,-315.791 1619.49,-317.316 1618.15,-310.445"/>
</g>
<!-- Node21 -->
<g id="node48" class="node"><title>Node21</title>
<a xlink:href="worldnode_8cpp.html" target="_top" xlink:title="The implementation of the WorldNode, A class to facilitate navigation in 3d environment.">
<polygon fill="white" stroke="black" points="2027,-235 2027,-269 2187,-269 2187,-235 2027,-235"/>
<text text-anchor="start" x="2035" y="-256" font-family="FreeSans" font-size="10.00">/home/Code/Mezzanine</text>
<text text-anchor="middle" x="2107" y="-243" font-family="FreeSans" font-size="10.00">/Mezzanine/src/worldnode.cpp</text>
</a>
</g>
<!-- Node1&#45;&gt;Node21 -->
<g id="edge54" class="edge"><title>Node1&#45;&gt;Node21</title>
<path fill="none" stroke="midnightblue" d="M1619.19,-324.487C1716.03,-317.246 1879.49,-302.261 2018,-276 2028.06,-274.092 2038.66,-271.638 2048.89,-269.031"/>
<polygon fill="midnightblue" stroke="midnightblue" points="1618.88,-321 1609.17,-325.226 1619.4,-327.981 1618.88,-321"/>
</g>
<!-- Node22 -->
<g id="node50" class="node"><title>Node22</title>
<a xlink:href="worldobjectgraphicssettings_8cpp_source.html" target="_top" xlink:title="/home/Code/Mezzanine\l/Mezzanine/src/worldobjectgraphicssettings.cpp">
<polygon fill="white" stroke="black" points="2205,-235 2205,-269 2449,-269 2449,-235 2205,-235"/>
<text text-anchor="start" x="2213" y="-256" font-family="FreeSans" font-size="10.00">/home/Code/Mezzanine</text>
<text text-anchor="middle" x="2327" y="-243" font-family="FreeSans" font-size="10.00">/Mezzanine/src/worldobjectgraphicssettings.cpp</text>
</a>
</g>
<!-- Node1&#45;&gt;Node22 -->
<g id="edge56" class="edge"><title>Node1&#45;&gt;Node22</title>
<path fill="none" stroke="midnightblue" d="M1619.45,-325.802C1745.4,-318.931 1989.77,-303.246 2196,-276 2210.56,-274.077 2225.95,-271.631 2240.87,-269.041"/>
<polygon fill="midnightblue" stroke="midnightblue" points="1618.91,-322.326 1609.11,-326.361 1619.28,-329.316 1618.91,-322.326"/>
</g>
<!-- Node23 -->
<g id="node52" class="node"><title>Node23</title>
<a xlink:href="collision_8cpp_source.html" target="_top" xlink:title="/home/Code/Mezzanine\l/Mezzanine/src/Physics\l/collision.cpp">
<polygon fill="white" stroke="black" points="2466.5,-228.5 2466.5,-275.5 2595.5,-275.5 2595.5,-228.5 2466.5,-228.5"/>
<text text-anchor="start" x="2474.5" y="-262.5" font-family="FreeSans" font-size="10.00">/home/Code/Mezzanine</text>
<text text-anchor="start" x="2474.5" y="-249.5" font-family="FreeSans" font-size="10.00">/Mezzanine/src/Physics</text>
<text text-anchor="middle" x="2531" y="-236.5" font-family="FreeSans" font-size="10.00">/collision.cpp</text>
</a>
</g>
<!-- Node1&#45;&gt;Node23 -->
<g id="edge58" class="edge"><title>Node1&#45;&gt;Node23</title>
<path fill="none" stroke="midnightblue" d="M1619.59,-327.852C1816.08,-322.408 2298.73,-306.307 2458,-276 2460.75,-275.476 2463.54,-274.877 2466.35,-274.218"/>
<polygon fill="midnightblue" stroke="midnightblue" points="1619.22,-324.36 1609.32,-328.134 1619.41,-331.358 1619.22,-324.36"/>
</g>
<!-- Node3&#45;&gt;Node2 -->
<g id="edge6" class="edge"><title>Node3&#45;&gt;Node2</title>
<path fill="none" stroke="midnightblue" d="M666.791,-247.77C553.513,-240.978 343.409,-224.92 167,-192 157.037,-190.141 146.556,-187.711 136.438,-185.113"/>
<polygon fill="midnightblue" stroke="midnightblue" points="666.59,-251.264 676.779,-248.359 667.003,-244.276 666.59,-251.264"/>
</g>
<!-- Node3&#45;&gt;Node4 -->
<g id="edge8" class="edge"><title>Node3&#45;&gt;Node4</title>
<path fill="none" stroke="midnightblue" d="M666.95,-239.182C594.681,-227.651 486.648,-209.828 393,-192 381.671,-189.843 369.731,-187.445 358.025,-185.022"/>
<polygon fill="midnightblue" stroke="midnightblue" points="666.479,-242.651 676.905,-240.767 667.58,-235.738 666.479,-242.651"/>
</g>
<!-- Node5 -->
<g id="node10" class="node"><title>Node5</title>
<a xlink:href="actorrigid_8cpp_source.html" target="_top" xlink:title="/home/Code/Mezzanine\l/Mezzanine/src/actorrigid.cpp">
<polygon fill="white" stroke="black" points="402,-151 402,-185 558,-185 558,-151 402,-151"/>
<text text-anchor="start" x="410" y="-172" font-family="FreeSans" font-size="10.00">/home/Code/Mezzanine</text>
<text text-anchor="middle" x="480" y="-159" font-family="FreeSans" font-size="10.00">/Mezzanine/src/actorrigid.cpp</text>
</a>
</g>
<!-- Node3&#45;&gt;Node5 -->
<g id="edge10" class="edge"><title>Node3&#45;&gt;Node5</title>
<path fill="none" stroke="midnightblue" d="M684.427,-231.836C638.697,-217.556 578.027,-198.611 534.684,-185.076"/>
<polygon fill="midnightblue" stroke="midnightblue" points="683.651,-235.26 694.24,-234.9 685.737,-228.578 683.651,-235.26"/>
</g>
<!-- Node6 -->
<g id="node12" class="node"><title>Node6</title>
<a xlink:href="actorserializer_8h.html" target="_top" xlink:title="This is where the declarations of any Serializers or DeSerializers for actors will go...">
<polygon fill="white" stroke="black" points="576,-151 576,-185 742,-185 742,-151 576,-151"/>
<text text-anchor="start" x="584" y="-172" font-family="FreeSans" font-size="10.00">/home/Code/Mezzanine</text>
<text text-anchor="middle" x="659" y="-159" font-family="FreeSans" font-size="10.00">/Mezzanine/src/actorserializer.h</text>
</a>
</g>
<!-- Node3&#45;&gt;Node6 -->
<g id="edge12" class="edge"><title>Node3&#45;&gt;Node6</title>
<path fill="none" stroke="midnightblue" d="M722.638,-227.396C708.079,-213.807 690.357,-197.267 677.316,-185.095"/>
<polygon fill="midnightblue" stroke="midnightblue" points="720.653,-230.331 730.352,-234.595 725.429,-225.213 720.653,-230.331"/>
</g>
<!-- Node3&#45;&gt;Node8 -->
<g id="edge22" class="edge"><title>Node3&#45;&gt;Node8</title>
<path fill="none" stroke="midnightblue" d="M831.282,-244.748C914.189,-236.057 1035.12,-219.164 1073,-192 1102.18,-171.074 1118.26,-130.325 1125.4,-107.167"/>
<polygon fill="midnightblue" stroke="midnightblue" points="830.705,-241.289 821.115,-245.793 831.42,-248.252 830.705,-241.289"/>
</g>
<!-- Node10 -->
<g id="node20" class="node"><title>Node10</title>
<a xlink:href="areaeffect_8cpp_source.html" target="_top" xlink:title="/home/Code/Mezzanine\l/Mezzanine/src/areaeffect.cpp">
<polygon fill="white" stroke="black" points="759.5,-151 759.5,-185 918.5,-185 918.5,-151 759.5,-151"/>
<text text-anchor="start" x="767.5" y="-172" font-family="FreeSans" font-size="10.00">/home/Code/Mezzanine</text>
<text text-anchor="middle" x="839" y="-159" font-family="FreeSans" font-size="10.00">/Mezzanine/src/areaeffect.cpp</text>
</a>
</g>
<!-- Node3&#45;&gt;Node10 -->
<g id="edge20" class="edge"><title>Node3&#45;&gt;Node10</title>
<path fill="none" stroke="midnightblue" d="M775.362,-227.396C789.921,-213.807 807.643,-197.267 820.684,-185.095"/>
<polygon fill="midnightblue" stroke="midnightblue" points="772.571,-225.213 767.648,-234.595 777.347,-230.331 772.571,-225.213"/>
</g>
<!-- Node11 -->
<g id="node23" class="node"><title>Node11</title>
<a xlink:href="constraint_8cpp_source.html" target="_top" xlink:title="/home/Code/Mezzanine\l/Mezzanine/src/Physics\l/constraint.cpp">
<polygon fill="white" stroke="black" points="935.5,-144.5 935.5,-191.5 1064.5,-191.5 1064.5,-144.5 935.5,-144.5"/>
<text text-anchor="start" x="943.5" y="-178.5" font-family="FreeSans" font-size="10.00">/home/Code/Mezzanine</text>
<text text-anchor="start" x="943.5" y="-165.5" font-family="FreeSans" font-size="10.00">/Mezzanine/src/Physics</text>
<text text-anchor="middle" x="1000" y="-152.5" font-family="FreeSans" font-size="10.00">/constraint.cpp</text>
</a>
</g>
<!-- Node3&#45;&gt;Node11 -->
<g id="edge24" class="edge"><title>Node3&#45;&gt;Node11</title>
<path fill="none" stroke="midnightblue" d="M809.979,-231.593C847.86,-218.915 896.514,-202.633 935.106,-189.717"/>
<polygon fill="midnightblue" stroke="midnightblue" points="808.468,-228.407 800.096,-234.9 810.69,-235.045 808.468,-228.407"/>
</g>
<!-- Node7 -->
<g id="node14" class="node"><title>Node7</title>
<a xlink:href="actorserializer_8cpp_source.html" target="_top" xlink:title="/home/Code/Mezzanine\l/Mezzanine/src/actorserializer.cpp">
<polygon fill="white" stroke="black" points="570.5,-73 570.5,-107 747.5,-107 747.5,-73 570.5,-73"/>
<text text-anchor="start" x="578.5" y="-94" font-family="FreeSans" font-size="10.00">/home/Code/Mezzanine</text>
<text text-anchor="middle" x="659" y="-81" font-family="FreeSans" font-size="10.00">/Mezzanine/src/actorserializer.cpp</text>
</a>
</g>
<!-- Node6&#45;&gt;Node7 -->
<g id="edge14" class="edge"><title>Node6&#45;&gt;Node7</title>
<path fill="none" stroke="midnightblue" d="M659,-140.61C659,-129.519 659,-117.049 659,-107.262"/>
<polygon fill="midnightblue" stroke="midnightblue" points="655.5,-140.689 659,-150.689 662.5,-140.689 655.5,-140.689"/>
</g>
<!-- Node6&#45;&gt;Node8 -->
<g id="edge16" class="edge"><title>Node6&#45;&gt;Node8</title>
<path fill="none" stroke="midnightblue" d="M730.644,-148.47C737.501,-146.855 744.367,-145.333 751,-144 855.093,-123.078 976.858,-107.239 1053.7,-98.2874"/>
<polygon fill="midnightblue" stroke="midnightblue" points="729.531,-145.138 720.636,-150.892 731.178,-151.942 729.531,-145.138"/>
</g>
<!-- Node9 -->
<g id="node18" class="node"><title>Node9</title>
<a xlink:href="entresol_8cpp_source.html" target="_top" xlink:title="/home/Code/Mezzanine\l/Mezzanine/src/entresol.cpp">
<polygon fill="white" stroke="black" points="1055,-1 1055,-35 1205,-35 1205,-1 1055,-1"/>
<text text-anchor="start" x="1063" y="-22" font-family="FreeSans" font-size="10.00">/home/Code/Mezzanine</text>
<text text-anchor="middle" x="1130" y="-9" font-family="FreeSans" font-size="10.00">/Mezzanine/src/entresol.cpp</text>
</a>
</g>
<!-- Node8&#45;&gt;Node9 -->
<g id="edge18" class="edge"><title>Node8&#45;&gt;Node9</title>
<path fill="none" stroke="midnightblue" d="M1130,-62.7193C1130,-53.572 1130,-43.6255 1130,-35.4407"/>
<polygon fill="midnightblue" stroke="midnightblue" points="1126.5,-62.937 1130,-72.937 1133.5,-62.937 1126.5,-62.937"/>
</g>
<!-- Node12&#45;&gt;Node8 -->
<g id="edge30" class="edge"><title>Node12&#45;&gt;Node8</title>
<path fill="none" stroke="midnightblue" d="M1321.62,-227.29C1343.21,-204.232 1367.03,-169.631 1347,-144 1329.55,-121.671 1261.42,-107.247 1206.1,-98.9745"/>
<polygon fill="midnightblue" stroke="midnightblue" points="1318.93,-225.036 1314.45,-234.637 1323.94,-229.924 1318.93,-225.036"/>
</g>
<!-- Node13 -->
<g id="node27" class="node"><title>Node13</title>
<a xlink:href="actorcharacter_8cpp_source.html" target="_top" xlink:title="/home/Code/Mezzanine\l/Mezzanine/src/actorcharacter.cpp">
<polygon fill="white" stroke="black" points="1158,-151 1158,-185 1338,-185 1338,-151 1158,-151"/>
<text text-anchor="start" x="1166" y="-172" font-family="FreeSans" font-size="10.00">/home/Code/Mezzanine</text>
<text text-anchor="middle" x="1248" y="-159" font-family="FreeSans" font-size="10.00">/Mezzanine/src/actorcharacter.cpp</text>
</a>
</g>
<!-- Node12&#45;&gt;Node13 -->
<g id="edge28" class="edge"><title>Node12&#45;&gt;Node13</title>
<path fill="none" stroke="midnightblue" d="M1280.17,-225.49C1272.78,-212.285 1264.06,-196.703 1257.57,-185.095"/>
<polygon fill="midnightblue" stroke="midnightblue" points="1277.32,-227.577 1285.26,-234.595 1283.43,-224.159 1277.32,-227.577"/>
</g>
<!-- Node15&#45;&gt;Node8 -->
<g id="edge40" class="edge"><title>Node15&#45;&gt;Node8</title>
<path fill="none" stroke="midnightblue" d="M1456.75,-227.341C1429.52,-198.994 1385.54,-154.956 1365,-144 1315.69,-117.702 1253.9,-104.147 1206.06,-97.1957"/>
<polygon fill="midnightblue" stroke="midnightblue" points="1454.51,-230.066 1463.95,-234.88 1459.57,-225.231 1454.51,-230.066"/>
</g>
<!-- Node16 -->
<g id="node35" class="node"><title>Node16</title>
<a xlink:href="cameracontroller_8cpp_source.html" target="_top" xlink:title="/home/Code/Mezzanine\l/Mezzanine/src/cameracontroller.cpp">
<polygon fill="white" stroke="black" points="1431.5,-151 1431.5,-185 1622.5,-185 1622.5,-151 1431.5,-151"/>
<text text-anchor="start" x="1439.5" y="-172" font-family="FreeSans" font-size="10.00">/home/Code/Mezzanine</text>
<text text-anchor="middle" x="1527" y="-159" font-family="FreeSans" font-size="10.00">/Mezzanine/src/cameracontroller.cpp</text>
</a>
</g>
<!-- Node15&#45;&gt;Node16 -->
<g id="edge38" class="edge"><title>Node15&#45;&gt;Node16</title>
<path fill="none" stroke="midnightblue" d="M1494.83,-225.49C1502.22,-212.285 1510.94,-196.703 1517.43,-185.095"/>
<polygon fill="midnightblue" stroke="midnightblue" points="1491.57,-224.159 1489.74,-234.595 1497.68,-227.577 1491.57,-224.159"/>
</g>
<!-- Node15&#45;&gt;Node17 -->
<g id="edge42" class="edge"><title>Node15&#45;&gt;Node17</title>
<path fill="none" stroke="midnightblue" d="M1552.73,-232.746C1560.88,-230.964 1569.09,-229.331 1577,-228 1750.4,-198.8 1797.71,-221.844 1971,-192 1981.79,-190.142 1993.16,-187.68 2004.12,-185.041"/>
<polygon fill="midnightblue" stroke="midnightblue" points="1551.83,-229.362 1542.85,-234.983 1553.37,-236.19 1551.83,-229.362"/>
</g>
<!-- Node18 -->
<g id="node40" class="node"><title>Node18</title>
<a xlink:href="vector3wactor_8cpp_source.html" target="_top" xlink:title="/home/Code/Mezzanine\l/Mezzanine/src/vector3wactor.cpp">
<polygon fill="white" stroke="black" points="1639.5,-151 1639.5,-185 1816.5,-185 1816.5,-151 1639.5,-151"/>
<text text-anchor="start" x="1647.5" y="-172" font-family="FreeSans" font-size="10.00">/home/Code/Mezzanine</text>
<text text-anchor="middle" x="1728" y="-159" font-family="FreeSans" font-size="10.00">/Mezzanine/src/vector3wactor.cpp</text>
</a>
</g>
<!-- Node15&#45;&gt;Node18 -->
<g id="edge44" class="edge"><title>Node15&#45;&gt;Node18</title>
<path fill="none" stroke="midnightblue" d="M1540.06,-231.656C1582.16,-217.397 1637.79,-198.554 1677.59,-185.076"/>
<polygon fill="midnightblue" stroke="midnightblue" points="1538.83,-228.377 1530.49,-234.9 1541.08,-235.007 1538.83,-228.377"/>
</g>
<!-- Node19 -->
<g id="node42" class="node"><title>Node19</title>
<a xlink:href="physicsmanager_8cpp_source.html" target="_top" xlink:title="/home/Code/Mezzanine\l/Mezzanine/src/Physics\l/physicsmanager.cpp">
<polygon fill="white" stroke="black" points="1833.5,-144.5 1833.5,-191.5 1962.5,-191.5 1962.5,-144.5 1833.5,-144.5"/>
<text text-anchor="start" x="1841.5" y="-178.5" font-family="FreeSans" font-size="10.00">/home/Code/Mezzanine</text>
<text text-anchor="start" x="1841.5" y="-165.5" font-family="FreeSans" font-size="10.00">/Mezzanine/src/Physics</text>
<text text-anchor="middle" x="1898" y="-152.5" font-family="FreeSans" font-size="10.00">/physicsmanager.cpp</text>
</a>
</g>
<!-- Node15&#45;&gt;Node19 -->
<g id="edge46" class="edge"><title>Node15&#45;&gt;Node19</title>
<path fill="none" stroke="midnightblue" d="M1554.82,-232.711C1562.29,-231.018 1569.78,-229.414 1577,-228 1686.3,-206.599 1716.58,-217.489 1825,-192 1827.73,-191.359 1830.5,-190.661 1833.29,-189.921"/>
<polygon fill="midnightblue" stroke="midnightblue" points="1553.98,-229.312 1545.03,-234.978 1555.56,-236.131 1553.98,-229.312"/>
</g>
</g>
</svg>
