<?xml version="1.0" encoding="UTF-8" standalone="no"?>
<!DOCTYPE svg PUBLIC "-//W3C//DTD SVG 1.1//EN"
 "http://www.w3.org/Graphics/SVG/1.1/DTD/svg11.dtd">
<!-- Generated by graphviz version 2.26.3 (20100126.1600)
 -->
<!-- Title: /home/sqeaky/Code/Mezzanine/Mezzanine/src/actorbase.h Pages: 1 -->
<!--zoomable 322 -->
<svg id="main" version="1.1" xmlns="http://www.w3.org/2000/svg" xmlns:xlink="http://www.w3.org/1999/xlink" xml:space="preserve" onload="init(evt)">
        <defs>
                <circle id="rim" cx="0" cy="0" r="7"/>
                <circle id="rim2" cx="0" cy="0" r="3.5"/>
                <g id="zoomPlus">
                        <use xlink:href="#rim" fill="#404040">
                                <set attributeName="fill" to="#808080" begin="zoomplus.mouseover" end="zoomplus.mouseout"/>
                        </use>
                        <path d="M-4,0h8M0,-4v8" fill="none" stroke="white" stroke-width="1.5" pointer-events="none"/>
                </g>
                <g id="zoomMin">
                        <use xlink:href="#rim" fill="#404040">
                                <set attributeName="fill" to="#808080" begin="zoomminus.mouseover" end="zoomminus.mouseout"/>
                        </use>
                        <path d="M-4,0h8" fill="none" stroke="white" stroke-width="1.5" pointer-events="none"/>
                </g>
                <g id="dirArrow">
                        <path fill="none" stroke="white" stroke-width="1.5" d="M0,-3.0v7 M-2.5,-0.5L0,-3.0L2.5,-0.5"/>
                </g>
               <g id="resetDef">
                       <use xlink:href="#rim2" fill="#404040">
                               <set attributeName="fill" to="#808080" begin="reset.mouseover" end="reset.mouseout"/>
                       </use>
               </g>
        </defs>

<script type="text/javascript">
var viewWidth = 2749;
var viewHeight = 322;
var sectionId = 'dynsection-1';
</script>
<script xlink:href="svgpan.js"/>
<svg id="graph" class="graph">
<g id="viewport">
<title>/home/sqeaky/Code/Mezzanine/Mezzanine/src/actorbase.h</title>
<polygon fill="white" stroke="white" points="-4,5 -4,-318 2746,-318 2746,5 -4,5"/>
<!-- Node1 -->
<g id="node1" class="node"><title>Node1</title>
<polygon fill="#bfbfbf" stroke="black" points="1587.5,-281 1587.5,-313 1738.5,-313 1738.5,-281 1587.5,-281"/>
<text text-anchor="start" x="1595.5" y="-300" font-family="FreeSans" font-size="10.00">/home/sqeaky/Code/Mezzanine</text>
<text text-anchor="middle" x="1663" y="-288" font-family="FreeSans" font-size="10.00">/Mezzanine/src/actorbase.h</text>
</g>
<!-- Node2 -->
<g id="node3" class="node"><title>Node2</title>
<a xlink:href="actorbase_8cpp.html" target="_top" xlink:title="Code used by all actors is implemented here.">
<polygon fill="white" stroke="black" points="744.5,-141 744.5,-173 895.5,-173 895.5,-141 744.5,-141"/>
<text text-anchor="start" x="752.5" y="-160" font-family="FreeSans" font-size="10.00">/home/sqeaky/Code/Mezzanine</text>
<text text-anchor="middle" x="820" y="-148" font-family="FreeSans" font-size="10.00">/Mezzanine/src/actorbase.cpp</text>
</a>
</g>
<!-- Node1&#45;&gt;Node2 -->
<g id="edge2" class="edge"><title>Node1&#45;&gt;Node2</title>
<path fill="none" stroke="midnightblue" d="M1577.3,-293.512C1426.69,-286.794 1120.68,-270.349 1017,-244 953.949,-227.977 885.599,-193.543 848.281,-173.128"/>
<polygon fill="midnightblue" stroke="midnightblue" points="1577.28,-297.015 1587.43,-293.96 1577.59,-290.022 1577.28,-297.015"/>
</g>
<!-- Node3 -->
<g id="node5" class="node"><title>Node3</title>
<a xlink:href="actorrigid_8h_source.html" target="_top" xlink:title="/home/sqeaky/Code/Mezzanine\l/Mezzanine/src/actorrigid.h">
<polygon fill="white" stroke="black" points="485.5,-211 485.5,-243 636.5,-243 636.5,-211 485.5,-211"/>
<text text-anchor="start" x="493.5" y="-230" font-family="FreeSans" font-size="10.00">/home/sqeaky/Code/Mezzanine</text>
<text text-anchor="middle" x="561" y="-218" font-family="FreeSans" font-size="10.00">/Mezzanine/src/actorrigid.h</text>
</a>
</g>
<!-- Node1&#45;&gt;Node3 -->
<g id="edge4" class="edge"><title>Node1&#45;&gt;Node3</title>
<path fill="none" stroke="midnightblue" d="M1577.24,-291.553C1368.13,-278.27 834.633,-244.381 636.545,-231.799"/>
<polygon fill="midnightblue" stroke="midnightblue" points="1577.05,-295.048 1587.26,-292.189 1577.5,-288.062 1577.05,-295.048"/>
</g>
<!-- Node4 -->
<g id="node8" class="node"><title>Node4</title>
<a xlink:href="actorphysicssettings_8cpp_source.html" target="_top" xlink:title="/home/sqeaky/Code/Mezzanine\l/Mezzanine/src/actorphysicssettings.cpp">
<polygon fill="white" stroke="black" points="913,-141 913,-173 1101,-173 1101,-141 913,-141"/>
<text text-anchor="start" x="921" y="-160" font-family="FreeSans" font-size="10.00">/home/sqeaky/Code/Mezzanine</text>
<text text-anchor="middle" x="1007" y="-148" font-family="FreeSans" font-size="10.00">/Mezzanine/src/actorphysicssettings.cpp</text>
</a>
</g>
<!-- Node1&#45;&gt;Node4 -->
<g id="edge44" class="edge"><title>Node1&#45;&gt;Node4</title>
<path fill="none" stroke="midnightblue" d="M1577.14,-294.464C1417.5,-289.051 1087.25,-274.307 1045,-244 1021.83,-227.38 1012.62,-193.492 1009.09,-173.264"/>
<polygon fill="midnightblue" stroke="midnightblue" points="1577.3,-297.971 1587.41,-294.807 1577.53,-290.975 1577.3,-297.971"/>
</g>
<!-- Node8 -->
<g id="node16" class="node"><title>Node8</title>
<a xlink:href="mezzanine_8h.html" target="_top" xlink:title="A single file that includes all of the Mezzanine engine.">
<polygon fill="white" stroke="black" points="1247.5,-71 1247.5,-103 1398.5,-103 1398.5,-71 1247.5,-71"/>
<text text-anchor="start" x="1255.5" y="-90" font-family="FreeSans" font-size="10.00">/home/sqeaky/Code/Mezzanine</text>
<text text-anchor="middle" x="1323" y="-78" font-family="FreeSans" font-size="10.00">/Mezzanine/src/mezzanine.h</text>
</a>
</g>
<!-- Node1&#45;&gt;Node8 -->
<g id="edge58" class="edge"><title>Node1&#45;&gt;Node8</title>
<path fill="none" stroke="midnightblue" d="M1617.53,-275.834C1602.5,-267.375 1586.44,-256.618 1574,-244 1536.53,-206.007 1556.19,-172.68 1514,-140 1495.67,-125.801 1443.72,-111.866 1398.62,-101.85"/>
<polygon fill="midnightblue" stroke="midnightblue" points="1616.26,-279.126 1626.73,-280.801 1619.59,-272.968 1616.26,-279.126"/>
</g>
<!-- Node12 -->
<g id="node25" class="node"><title>Node12</title>
<a xlink:href="actorsoft_8h_source.html" target="_top" xlink:title="/home/sqeaky/Code/Mezzanine\l/Mezzanine/src/actorsoft.h">
<polygon fill="white" stroke="black" points="1053.5,-211 1053.5,-243 1204.5,-243 1204.5,-211 1053.5,-211"/>
<text text-anchor="start" x="1061.5" y="-230" font-family="FreeSans" font-size="10.00">/home/sqeaky/Code/Mezzanine</text>
<text text-anchor="middle" x="1129" y="-218" font-family="FreeSans" font-size="10.00">/Mezzanine/src/actorsoft.h</text>
</a>
</g>
<!-- Node1&#45;&gt;Node12 -->
<g id="edge26" class="edge"><title>Node1&#45;&gt;Node12</title>
<path fill="none" stroke="midnightblue" d="M1577.28,-285.764C1474.29,-272.263 1303.11,-249.824 1204.77,-236.932"/>
<polygon fill="midnightblue" stroke="midnightblue" points="1576.97,-289.253 1587.34,-287.082 1577.88,-282.312 1576.97,-289.253"/>
</g>
<!-- Node14 -->
<g id="node32" class="node"><title>Node14</title>
<a xlink:href="actorcharacter_8h_source.html" target="_top" xlink:title="/home/sqeaky/Code/Mezzanine\l/Mezzanine/src/actorcharacter.h">
<polygon fill="white" stroke="black" points="1373,-211 1373,-243 1527,-243 1527,-211 1373,-211"/>
<text text-anchor="start" x="1381" y="-230" font-family="FreeSans" font-size="10.00">/home/sqeaky/Code/Mezzanine</text>
<text text-anchor="middle" x="1450" y="-218" font-family="FreeSans" font-size="10.00">/Mezzanine/src/actorcharacter.h</text>
</a>
</g>
<!-- Node1&#45;&gt;Node14 -->
<g id="edge36" class="edge"><title>Node1&#45;&gt;Node14</title>
<path fill="none" stroke="midnightblue" d="M1604.57,-277.797C1571.44,-266.908 1530.45,-253.438 1499.01,-243.106"/>
<polygon fill="midnightblue" stroke="midnightblue" points="1603.54,-281.143 1614.13,-280.941 1605.73,-274.493 1603.54,-281.143"/>
</g>
<!-- Node16 -->
<g id="node37" class="node"><title>Node16</title>
<a xlink:href="actormanager_8cpp_source.html" target="_top" xlink:title="/home/sqeaky/Code/Mezzanine\l/Mezzanine/src/actormanager.cpp">
<polygon fill="white" stroke="black" points="1582.5,-211 1582.5,-243 1743.5,-243 1743.5,-211 1582.5,-211"/>
<text text-anchor="start" x="1590.5" y="-230" font-family="FreeSans" font-size="10.00">/home/sqeaky/Code/Mezzanine</text>
<text text-anchor="middle" x="1663" y="-218" font-family="FreeSans" font-size="10.00">/Mezzanine/src/actormanager.cpp</text>
</a>
</g>
<!-- Node1&#45;&gt;Node16 -->
<g id="edge42" class="edge"><title>Node1&#45;&gt;Node16</title>
<path fill="none" stroke="midnightblue" d="M1663,-270.508C1663,-261.303 1663,-251.262 1663,-243.147"/>
<polygon fill="midnightblue" stroke="midnightblue" points="1659.5,-270.765 1663,-280.765 1666.5,-270.765 1659.5,-270.765"/>
</g>
<!-- Node17 -->
<g id="node40" class="node"><title>Node17</title>
<a xlink:href="vector3wactor_8h_source.html" target="_top" xlink:title="/home/sqeaky/Code/Mezzanine\l/Mezzanine/src/vector3wactor.h">
<polygon fill="white" stroke="black" points="1761,-211 1761,-243 1913,-243 1913,-211 1761,-211"/>
<text text-anchor="start" x="1769" y="-230" font-family="FreeSans" font-size="10.00">/home/sqeaky/Code/Mezzanine</text>
<text text-anchor="middle" x="1837" y="-218" font-family="FreeSans" font-size="10.00">/Mezzanine/src/vector3wactor.h</text>
</a>
</g>
<!-- Node1&#45;&gt;Node17 -->
<g id="edge46" class="edge"><title>Node1&#45;&gt;Node17</title>
<path fill="none" stroke="midnightblue" d="M1712.48,-277.093C1739.23,-266.332 1771.83,-253.217 1796.97,-243.106"/>
<polygon fill="midnightblue" stroke="midnightblue" points="1710.89,-273.961 1702.92,-280.941 1713.5,-280.455 1710.89,-273.961"/>
</g>
<!-- Node19 -->
<g id="node45" class="node"><title>Node19</title>
<a xlink:href="rayquerytool_8cpp_source.html" target="_top" xlink:title="/home/sqeaky/Code/Mezzanine\l/Mezzanine/src/rayquerytool.cpp">
<polygon fill="white" stroke="black" points="2217,-141 2217,-173 2371,-173 2371,-141 2217,-141"/>
<text text-anchor="start" x="2225" y="-160" font-family="FreeSans" font-size="10.00">/home/sqeaky/Code/Mezzanine</text>
<text text-anchor="middle" x="2294" y="-148" font-family="FreeSans" font-size="10.00">/Mezzanine/src/rayquerytool.cpp</text>
</a>
</g>
<!-- Node1&#45;&gt;Node19 -->
<g id="edge60" class="edge"><title>Node1&#45;&gt;Node19</title>
<path fill="none" stroke="midnightblue" d="M1748.95,-290.821C1801.23,-284.352 1868.08,-271.108 1922,-244 1942.25,-233.82 1939.51,-219.692 1960,-210 2054.32,-165.374 2088.98,-190.577 2192,-174 2200.06,-172.702 2208.48,-171.329 2216.88,-169.948"/>
<polygon fill="midnightblue" stroke="midnightblue" points="1748.22,-287.383 1738.69,-292.027 1749.03,-294.335 1748.22,-287.383"/>
</g>
<!-- Node22 -->
<g id="node53" class="node"><title>Node22</title>
<a xlink:href="resourcemanager_8cpp_source.html" target="_top" xlink:title="/home/sqeaky/Code/Mezzanine\l/Mezzanine/src/resourcemanager.cpp">
<polygon fill="white" stroke="black" points="1969,-211 1969,-243 2145,-243 2145,-211 1969,-211"/>
<text text-anchor="start" x="1977" y="-230" font-family="FreeSans" font-size="10.00">/home/sqeaky/Code/Mezzanine</text>
<text text-anchor="middle" x="2057" y="-218" font-family="FreeSans" font-size="10.00">/Mezzanine/src/resourcemanager.cpp</text>
</a>
</g>
<!-- Node1&#45;&gt;Node22 -->
<g id="edge62" class="edge"><title>Node1&#45;&gt;Node22</title>
<path fill="none" stroke="midnightblue" d="M1748.73,-281.769C1813.8,-270.208 1902.98,-254.365 1968.68,-242.692"/>
<polygon fill="midnightblue" stroke="midnightblue" points="1747.73,-278.391 1738.5,-283.586 1748.96,-285.283 1747.73,-278.391"/>
</g>
<!-- Node23 -->
<g id="node55" class="node"><title>Node23</title>
<a xlink:href="worldnode_8cpp.html" target="_top" xlink:title="The implementation of the WorldNode, A class to facilitate navigation in 3d environment.">
<polygon fill="white" stroke="black" points="2162.5,-211 2162.5,-243 2313.5,-243 2313.5,-211 2162.5,-211"/>
<text text-anchor="start" x="2170.5" y="-230" font-family="FreeSans" font-size="10.00">/home/sqeaky/Code/Mezzanine</text>
<text text-anchor="middle" x="2238" y="-218" font-family="FreeSans" font-size="10.00">/Mezzanine/src/worldnode.cpp</text>
</a>
</g>
<!-- Node1&#45;&gt;Node23 -->
<g id="edge64" class="edge"><title>Node1&#45;&gt;Node23</title>
<path fill="none" stroke="midnightblue" d="M1748.74,-290.157C1846.98,-281.757 2012.63,-265.887 2154,-244 2156.65,-243.59 2159.34,-243.154 2162.05,-242.697"/>
<polygon fill="midnightblue" stroke="midnightblue" points="1748.23,-286.687 1738.57,-291.02 1748.83,-293.662 1748.23,-286.687"/>
</g>
<!-- Node24 -->
<g id="node57" class="node"><title>Node24</title>
<a xlink:href="worldobjectgraphicssettings_8cpp_source.html" target="_top" xlink:title="/home/sqeaky/Code/Mezzanine\l/Mezzanine/src/worldobjectgraphicssettings.cpp">
<polygon fill="white" stroke="black" points="2331,-211 2331,-243 2551,-243 2551,-211 2331,-211"/>
<text text-anchor="start" x="2339" y="-230" font-family="FreeSans" font-size="10.00">/home/sqeaky/Code/Mezzanine</text>
<text text-anchor="middle" x="2441" y="-218" font-family="FreeSans" font-size="10.00">/Mezzanine/src/worldobjectgraphicssettings.cpp</text>
</a>
</g>
<!-- Node1&#45;&gt;Node24 -->
<g id="edge66" class="edge"><title>Node1&#45;&gt;Node24</title>
<path fill="none" stroke="midnightblue" d="M1749.1,-291.775C1875.1,-283.743 2117.01,-266.863 2322,-244 2324.9,-243.676 2327.85,-243.337 2330.81,-242.985"/>
<polygon fill="midnightblue" stroke="midnightblue" points="1748.51,-288.305 1738.75,-292.431 1748.95,-295.291 1748.51,-288.305"/>
</g>
<!-- Node25 -->
<g id="node59" class="node"><title>Node25</title>
<a xlink:href="collision_8cpp_source.html" target="_top" xlink:title="/home/sqeaky/Code/Mezzanine\l/Mezzanine/src/Physics/collision.cpp">
<polygon fill="white" stroke="black" points="2568.5,-211 2568.5,-243 2741.5,-243 2741.5,-211 2568.5,-211"/>
<text text-anchor="start" x="2576.5" y="-230" font-family="FreeSans" font-size="10.00">/home/sqeaky/Code/Mezzanine</text>
<text text-anchor="middle" x="2655" y="-218" font-family="FreeSans" font-size="10.00">/Mezzanine/src/Physics/collision.cpp</text>
</a>
</g>
<!-- Node1&#45;&gt;Node25 -->
<g id="edge68" class="edge"><title>Node1&#45;&gt;Node25</title>
<path fill="none" stroke="midnightblue" d="M1748.83,-295.298C1908.86,-291.377 2263.46,-279.169 2560,-244 2562.75,-243.674 2565.53,-243.32 2568.34,-242.942"/>
<polygon fill="midnightblue" stroke="midnightblue" points="1748.49,-291.805 1738.57,-295.544 1748.66,-298.803 1748.49,-291.805"/>
</g>
<!-- Node3&#45;&gt;Node2 -->
<g id="edge6" class="edge"><title>Node3&#45;&gt;Node2</title>
<path fill="none" stroke="midnightblue" d="M630.242,-208.286C670.839,-197.314 721.604,-183.594 760.409,-173.106"/>
<polygon fill="midnightblue" stroke="midnightblue" points="629.16,-204.953 620.42,-210.941 630.987,-211.71 629.16,-204.953"/>
</g>
<!-- Node3&#45;&gt;Node4 -->
<g id="edge8" class="edge"><title>Node3&#45;&gt;Node4</title>
<path fill="none" stroke="midnightblue" d="M646.66,-214.013C716.07,-203.43 816.381,-188 904,-174 906.953,-173.528 909.953,-173.047 912.982,-172.558"/>
<polygon fill="midnightblue" stroke="midnightblue" points="646.007,-210.572 636.649,-215.539 647.062,-217.492 646.007,-210.572"/>
</g>
<!-- Node5 -->
<g id="node10" class="node"><title>Node5</title>
<a xlink:href="actorrigid_8cpp_source.html" target="_top" xlink:title="/home/sqeaky/Code/Mezzanine\l/Mezzanine/src/actorrigid.cpp">
<polygon fill="white" stroke="black" points="576.5,-141 576.5,-173 727.5,-173 727.5,-141 576.5,-141"/>
<text text-anchor="start" x="584.5" y="-160" font-family="FreeSans" font-size="10.00">/home/sqeaky/Code/Mezzanine</text>
<text text-anchor="middle" x="652" y="-148" font-family="FreeSans" font-size="10.00">/Mezzanine/src/actorrigid.cpp</text>
</a>
</g>
<!-- Node3&#45;&gt;Node5 -->
<g id="edge10" class="edge"><title>Node3&#45;&gt;Node5</title>
<path fill="none" stroke="midnightblue" d="M590.065,-204.643C603.376,-194.403 618.855,-182.496 631.009,-173.147"/>
<polygon fill="midnightblue" stroke="midnightblue" points="587.898,-201.893 582.106,-210.765 592.166,-207.442 587.898,-201.893"/>
</g>
<!-- Node6 -->
<g id="node12" class="node"><title>Node6</title>
<a xlink:href="actorserializer_8h.html" target="_top" xlink:title="This is where the declarations of any Serializers or DeSerializers for actors will go...">
<polygon fill="white" stroke="black" points="4.5,-141 4.5,-173 155.5,-173 155.5,-141 4.5,-141"/>
<text text-anchor="start" x="12.5" y="-160" font-family="FreeSans" font-size="10.00">/home/sqeaky/Code/Mezzanine</text>
<text text-anchor="middle" x="80" y="-148" font-family="FreeSans" font-size="10.00">/Mezzanine/src/actorserializer.h</text>
</a>
</g>
<!-- Node3&#45;&gt;Node6 -->
<g id="edge12" class="edge"><title>Node3&#45;&gt;Node6</title>
<path fill="none" stroke="midnightblue" d="M475.31,-217.241C394.737,-207.668 270.867,-191.927 164,-174 161.212,-173.532 158.375,-173.04 155.512,-172.53"/>
<polygon fill="midnightblue" stroke="midnightblue" points="475.064,-220.736 485.406,-218.435 475.886,-213.785 475.064,-220.736"/>
</g>
<!-- Node3&#45;&gt;Node8 -->
<g id="edge22" class="edge"><title>Node3&#45;&gt;Node8</title>
<path fill="none" stroke="midnightblue" d="M475.013,-215.84C407.769,-203.78 331.595,-180.6 370,-140 400.016,-108.268 1027.22,-92.8511 1247.4,-88.4019"/>
<polygon fill="midnightblue" stroke="midnightblue" points="474.832,-219.36 485.281,-217.61 476.021,-212.462 474.832,-219.36"/>
</g>
<!-- Node10 -->
<g id="node20" class="node"><title>Node10</title>
<a xlink:href="areaeffect_8cpp_source.html" target="_top" xlink:title="/home/sqeaky/Code/Mezzanine\l/Mezzanine/src/areaeffect.cpp">
<polygon fill="white" stroke="black" points="172.5,-141 172.5,-173 323.5,-173 323.5,-141 172.5,-141"/>
<text text-anchor="start" x="180.5" y="-160" font-family="FreeSans" font-size="10.00">/home/sqeaky/Code/Mezzanine</text>
<text text-anchor="middle" x="248" y="-148" font-family="FreeSans" font-size="10.00">/Mezzanine/src/areaeffect.cpp</text>
</a>
</g>
<!-- Node3&#45;&gt;Node10 -->
<g id="edge20" class="edge"><title>Node3&#45;&gt;Node10</title>
<path fill="none" stroke="midnightblue" d="M479.164,-208.698C429.71,-197.638 367.263,-183.672 319.745,-173.045"/>
<polygon fill="midnightblue" stroke="midnightblue" points="478.669,-212.174 489.191,-210.941 480.196,-205.342 478.669,-212.174"/>
</g>
<!-- Node11 -->
<g id="node23" class="node"><title>Node11</title>
<a xlink:href="constraint_8cpp_source.html" target="_top" xlink:title="/home/sqeaky/Code/Mezzanine\l/Mezzanine/src/Physics/constraint.cpp">
<polygon fill="white" stroke="black" points="379,-141 379,-173 559,-173 559,-141 379,-141"/>
<text text-anchor="start" x="387" y="-160" font-family="FreeSans" font-size="10.00">/home/sqeaky/Code/Mezzanine</text>
<text text-anchor="middle" x="469" y="-148" font-family="FreeSans" font-size="10.00">/Mezzanine/src/Physics/constraint.cpp</text>
</a>
</g>
<!-- Node3&#45;&gt;Node11 -->
<g id="edge24" class="edge"><title>Node3&#45;&gt;Node11</title>
<path fill="none" stroke="midnightblue" d="M531.616,-204.643C518.159,-194.403 502.509,-182.496 490.222,-173.147"/>
<polygon fill="midnightblue" stroke="midnightblue" points="529.584,-207.495 539.662,-210.765 533.823,-201.924 529.584,-207.495"/>
</g>
<!-- Node7 -->
<g id="node14" class="node"><title>Node7</title>
<a xlink:href="actorserializer_8cpp_source.html" target="_top" xlink:title="/home/sqeaky/Code/Mezzanine\l/Mezzanine/src/actorserializer.cpp">
<polygon fill="white" stroke="black" points="-0.5,-71 -0.5,-103 160.5,-103 160.5,-71 -0.5,-71"/>
<text text-anchor="start" x="7.5" y="-90" font-family="FreeSans" font-size="10.00">/home/sqeaky/Code/Mezzanine</text>
<text text-anchor="middle" x="80" y="-78" font-family="FreeSans" font-size="10.00">/Mezzanine/src/actorserializer.cpp</text>
</a>
</g>
<!-- Node6&#45;&gt;Node7 -->
<g id="edge14" class="edge"><title>Node6&#45;&gt;Node7</title>
<path fill="none" stroke="midnightblue" d="M80,-130.508C80,-121.303 80,-111.262 80,-103.147"/>
<polygon fill="midnightblue" stroke="midnightblue" points="76.5001,-130.765 80,-140.765 83.5001,-130.765 76.5001,-130.765"/>
</g>
<!-- Node6&#45;&gt;Node8 -->
<g id="edge16" class="edge"><title>Node6&#45;&gt;Node8</title>
<path fill="none" stroke="midnightblue" d="M166.152,-139.866C394.36,-113.432 1028.1,-94.7849 1247.31,-88.937"/>
<polygon fill="midnightblue" stroke="midnightblue" points="165.434,-136.427 155.92,-141.09 166.265,-143.377 165.434,-136.427"/>
</g>
<!-- Node9 -->
<g id="node18" class="node"><title>Node9</title>
<a xlink:href="entresol_8cpp_source.html" target="_top" xlink:title="/home/sqeaky/Code/Mezzanine\l/Mezzanine/src/entresol.cpp">
<polygon fill="white" stroke="black" points="1247.5,-1 1247.5,-33 1398.5,-33 1398.5,-1 1247.5,-1"/>
<text text-anchor="start" x="1255.5" y="-20" font-family="FreeSans" font-size="10.00">/home/sqeaky/Code/Mezzanine</text>
<text text-anchor="middle" x="1323" y="-8" font-family="FreeSans" font-size="10.00">/Mezzanine/src/entresol.cpp</text>
</a>
</g>
<!-- Node8&#45;&gt;Node9 -->
<g id="edge18" class="edge"><title>Node8&#45;&gt;Node9</title>
<path fill="none" stroke="midnightblue" d="M1323,-60.5079C1323,-51.3027 1323,-41.2615 1323,-33.1473"/>
<polygon fill="midnightblue" stroke="midnightblue" points="1319.5,-60.7646 1323,-70.7646 1326.5,-60.7647 1319.5,-60.7646"/>
</g>
<!-- Node12&#45;&gt;Node2 -->
<g id="edge28" class="edge"><title>Node12&#45;&gt;Node2</title>
<path fill="none" stroke="midnightblue" d="M1048.21,-208.698C999.388,-197.638 937.739,-183.672 890.828,-173.045"/>
<polygon fill="midnightblue" stroke="midnightblue" points="1047.58,-212.145 1058.11,-210.941 1049.13,-205.318 1047.58,-212.145"/>
</g>
<!-- Node12&#45;&gt;Node4 -->
<g id="edge30" class="edge"><title>Node12&#45;&gt;Node4</title>
<path fill="none" stroke="midnightblue" d="M1091.85,-205.683C1073.66,-195.246 1052.11,-182.883 1035.28,-173.227"/>
<polygon fill="midnightblue" stroke="midnightblue" points="1090.6,-209 1101.01,-210.941 1094.08,-202.928 1090.6,-209"/>
</g>
<!-- Node12&#45;&gt;Node8 -->
<g id="edge34" class="edge"><title>Node12&#45;&gt;Node8</title>
<path fill="none" stroke="midnightblue" d="M1128.07,-200.512C1128.84,-181.402 1133.02,-156.213 1148,-140 1161.95,-124.903 1206.57,-111.517 1247.26,-101.975"/>
<polygon fill="midnightblue" stroke="midnightblue" points="1124.57,-200.637 1127.95,-210.677 1131.57,-200.719 1124.57,-200.637"/>
</g>
<!-- Node13 -->
<g id="node29" class="node"><title>Node13</title>
<a xlink:href="actorsoft_8cpp_source.html" target="_top" xlink:title="/home/sqeaky/Code/Mezzanine\l/Mezzanine/src/actorsoft.cpp">
<polygon fill="white" stroke="black" points="1156.5,-141 1156.5,-173 1307.5,-173 1307.5,-141 1156.5,-141"/>
<text text-anchor="start" x="1164.5" y="-160" font-family="FreeSans" font-size="10.00">/home/sqeaky/Code/Mezzanine</text>
<text text-anchor="middle" x="1232" y="-148" font-family="FreeSans" font-size="10.00">/Mezzanine/src/actorsoft.cpp</text>
</a>
</g>
<!-- Node12&#45;&gt;Node13 -->
<g id="edge32" class="edge"><title>Node12&#45;&gt;Node13</title>
<path fill="none" stroke="midnightblue" d="M1161.21,-205.107C1176.39,-194.793 1194.18,-182.706 1208.12,-173.227"/>
<polygon fill="midnightblue" stroke="midnightblue" points="1158.93,-202.425 1152.63,-210.941 1162.87,-208.214 1158.93,-202.425"/>
</g>
<!-- Node14&#45;&gt;Node8 -->
<g id="edge40" class="edge"><title>Node14&#45;&gt;Node8</title>
<path fill="none" stroke="midnightblue" d="M1477.56,-203.538C1495.47,-185.418 1512.93,-160.122 1498,-140 1485.61,-123.302 1440.08,-109.815 1398.56,-100.625"/>
<polygon fill="midnightblue" stroke="midnightblue" points="1474.75,-201.383 1469.95,-210.829 1479.59,-206.437 1474.75,-201.383"/>
</g>
<!-- Node15 -->
<g id="node34" class="node"><title>Node15</title>
<a xlink:href="actorcharacter_8cpp_source.html" target="_top" xlink:title="/home/sqeaky/Code/Mezzanine\l/Mezzanine/src/actorcharacter.cpp">
<polygon fill="white" stroke="black" points="1325,-141 1325,-173 1489,-173 1489,-141 1325,-141"/>
<text text-anchor="start" x="1333" y="-160" font-family="FreeSans" font-size="10.00">/home/sqeaky/Code/Mezzanine</text>
<text text-anchor="middle" x="1407" y="-148" font-family="FreeSans" font-size="10.00">/Mezzanine/src/actorcharacter.cpp</text>
</a>
</g>
<!-- Node14&#45;&gt;Node15 -->
<g id="edge38" class="edge"><title>Node14&#45;&gt;Node15</title>
<path fill="none" stroke="midnightblue" d="M1434.64,-202.001C1428.75,-192.4 1422.17,-181.703 1416.92,-173.147"/>
<polygon fill="midnightblue" stroke="midnightblue" points="1431.81,-204.076 1440.03,-210.765 1437.77,-200.412 1431.81,-204.076"/>
</g>
<!-- Node17&#45;&gt;Node8 -->
<g id="edge50" class="edge"><title>Node17&#45;&gt;Node8</title>
<path fill="none" stroke="midnightblue" d="M1923.14,-210.656C1924.43,-210.434 1925.72,-210.215 1927,-210 2037.83,-191.331 2246.95,-221.917 2170,-140 2143.79,-112.096 1601.66,-94.5626 1398.76,-88.9565"/>
<polygon fill="midnightblue" stroke="midnightblue" points="1922.32,-207.246 1913.07,-212.412 1923.52,-214.142 1922.32,-207.246"/>
</g>
<!-- Node18 -->
<g id="node42" class="node"><title>Node18</title>
<a xlink:href="cameracontroller_8cpp_source.html" target="_top" xlink:title="/home/sqeaky/Code/Mezzanine\l/Mezzanine/src/cameracontroller.cpp">
<polygon fill="white" stroke="black" points="1583,-141 1583,-173 1757,-173 1757,-141 1583,-141"/>
<text text-anchor="start" x="1591" y="-160" font-family="FreeSans" font-size="10.00">/home/sqeaky/Code/Mezzanine</text>
<text text-anchor="middle" x="1670" y="-148" font-family="FreeSans" font-size="10.00">/Mezzanine/src/cameracontroller.cpp</text>
</a>
</g>
<!-- Node17&#45;&gt;Node18 -->
<g id="edge48" class="edge"><title>Node17&#45;&gt;Node18</title>
<path fill="none" stroke="midnightblue" d="M1789.17,-206.951C1763.56,-196.217 1732.44,-183.172 1708.42,-173.106"/>
<polygon fill="midnightblue" stroke="midnightblue" points="1788.11,-210.303 1798.69,-210.941 1790.82,-203.847 1788.11,-210.303"/>
</g>
<!-- Node17&#45;&gt;Node19 -->
<g id="edge52" class="edge"><title>Node17&#45;&gt;Node19</title>
<path fill="none" stroke="midnightblue" d="M1923.13,-210.625C1924.43,-210.413 1925.72,-210.204 1927,-210 2049.16,-190.512 2080.82,-193.366 2203,-174 2207.44,-173.296 2212.01,-172.542 2216.6,-171.758"/>
<polygon fill="midnightblue" stroke="midnightblue" points="1922.34,-207.209 1913.06,-212.319 1923.5,-214.113 1922.34,-207.209"/>
</g>
<!-- Node20 -->
<g id="node47" class="node"><title>Node20</title>
<a xlink:href="vector3wactor_8cpp_source.html" target="_top" xlink:title="/home/sqeaky/Code/Mezzanine\l/Mezzanine/src/vector3wactor.cpp">
<polygon fill="white" stroke="black" points="1775,-141 1775,-173 1937,-173 1937,-141 1775,-141"/>
<text text-anchor="start" x="1783" y="-160" font-family="FreeSans" font-size="10.00">/home/sqeaky/Code/Mezzanine</text>
<text text-anchor="middle" x="1856" y="-148" font-family="FreeSans" font-size="10.00">/Mezzanine/src/vector3wactor.cpp</text>
</a>
</g>
<!-- Node17&#45;&gt;Node20 -->
<g id="edge54" class="edge"><title>Node17&#45;&gt;Node20</title>
<path fill="none" stroke="midnightblue" d="M1844.03,-201.107C1846.57,-191.74 1849.37,-181.438 1851.62,-173.147"/>
<polygon fill="midnightblue" stroke="midnightblue" points="1840.65,-200.197 1841.41,-210.765 1847.4,-202.031 1840.65,-200.197"/>
</g>
<!-- Node21 -->
<g id="node49" class="node"><title>Node21</title>
<a xlink:href="physicsmanager_8cpp_source.html" target="_top" xlink:title="/home/sqeaky/Code/Mezzanine\l/Mezzanine/src/Physics/physicsmanager.cpp">
<polygon fill="white" stroke="black" points="1954.5,-141 1954.5,-173 2161.5,-173 2161.5,-141 1954.5,-141"/>
<text text-anchor="start" x="1962.5" y="-160" font-family="FreeSans" font-size="10.00">/home/sqeaky/Code/Mezzanine</text>
<text text-anchor="middle" x="2058" y="-148" font-family="FreeSans" font-size="10.00">/Mezzanine/src/Physics/physicsmanager.cpp</text>
</a>
</g>
<!-- Node17&#45;&gt;Node21 -->
<g id="edge56" class="edge"><title>Node17&#45;&gt;Node21</title>
<path fill="none" stroke="midnightblue" d="M1897.63,-207.797C1932,-196.908 1974.53,-183.438 2007.15,-173.106"/>
<polygon fill="midnightblue" stroke="midnightblue" points="1896.18,-204.584 1887.7,-210.941 1898.29,-211.258 1896.18,-204.584"/>
</g>
</g>
</svg>
        <g id="navigator" transform="translate(0 0)" fill="#404254">
                <rect fill="#f2f5e9" fill-opacity="0.5" stroke="#606060" stroke-width=".5" x="0" y="0" width="60" height="60"/>
                <use id="zoomplus" xlink:href="#zoomPlus" x="17" y="9" onmousedown="handleZoom(evt,'in')"/>
                <use id="zoomminus" xlink:href="#zoomMin" x="42" y="9" onmousedown="handleZoom(evt,'out')"/>
                <use id="reset" xlink:href="#resetDef" x="30" y="36" onmousedown="handleReset()"/>
                <g id="arrowUp" xlink:href="#dirArrow" transform="translate(30 24)" onmousedown="handlePan(0,-1)">
                  <use xlink:href="#rim" fill="#404040">
                        <set attributeName="fill" to="#808080" begin="arrowUp.mouseover" end="arrowUp.mouseout"/>
                  </use>
                  <path fill="none" stroke="white" stroke-width="1.5" d="M0,-3.0v7 M-2.5,-0.5L0,-3.0L2.5,-0.5"/>
                </g>
                <g id="arrowRight" xlink:href="#dirArrow" transform="rotate(90) translate(36 -43)" onmousedown="handlePan(1,0)">
                  <use xlink:href="#rim" fill="#404040">
                        <set attributeName="fill" to="#808080" begin="arrowRight.mouseover" end="arrowRight.mouseout"/>
                  </use>
                  <path fill="none" stroke="white" stroke-width="1.5" d="M0,-3.0v7 M-2.5,-0.5L0,-3.0L2.5,-0.5"/>
                </g>
                <g id="arrowDown" xlink:href="#dirArrow" transform="rotate(180) translate(-30 -48)" onmousedown="handlePan(0,1)">
                  <use xlink:href="#rim" fill="#404040">
                        <set attributeName="fill" to="#808080" begin="arrowDown.mouseover" end="arrowDown.mouseout"/>
                  </use>
                  <path fill="none" stroke="white" stroke-width="1.5" d="M0,-3.0v7 M-2.5,-0.5L0,-3.0L2.5,-0.5"/>
                </g>
                <g id="arrowLeft" xlink:href="#dirArrow" transform="rotate(270) translate(-36 17)" onmousedown="handlePan(-1,0)">
                  <use xlink:href="#rim" fill="#404040">
                        <set attributeName="fill" to="#808080" begin="arrowLeft.mouseover" end="arrowLeft.mouseout"/>
                  </use>
                  <path fill="none" stroke="white" stroke-width="1.5" d="M0,-3.0v7 M-2.5,-0.5L0,-3.0L2.5,-0.5"/>
                </g>
        </g>
        <svg viewBox="0 0 15 15" width="100%" height="30px" preserveAspectRatio="xMaxYMin meet">
         <g id="arrow_out" transform="scale(0.3 0.3)">
          <a xlink:href="actorbase_8h__dep__incl_org.svg" target="_base">
           <rect id="button" ry="5" rx="5" y="6" x="6" height="38" width="38"
                fill="#f2f5e9" fill-opacity="0.5" stroke="#606060" stroke-width="1.0"/>
           <path id="arrow"
             d="M 11.500037,31.436501 C 11.940474,20.09759 22.043105,11.32322 32.158766,21.979434 L 37.068811,17.246167 C 37.068811,17.246167 37.088388,32 37.088388,32 L 22.160133,31.978069 C 22.160133,31.978069 26.997745,27.140456 26.997745,27.140456 C 18.528582,18.264221 13.291696,25.230495 11.500037,31.436501 z"
             style="fill:#404040;"/>
          </a>
         </g>
        </svg>
</svg>
