<?xml version="1.0" encoding="UTF-8" standalone="no"?>
<!DOCTYPE svg PUBLIC "-//W3C//DTD SVG 1.1//EN"
 "http://www.w3.org/Graphics/SVG/1.1/DTD/svg11.dtd">
<!-- Generated by graphviz version 2.26.3 (20100126.1600)
 -->
<!-- Title: /home/Code/Mezzanine/Mezzanine/src/actorbase.h Pages: 1 -->
<!--zoomable 356 -->
<svg id="main" version="1.1" xmlns="http://www.w3.org/2000/svg" xmlns:xlink="http://www.w3.org/1999/xlink" xml:space="preserve" onload="init(evt)">
        <defs>
                <circle id="rim" cx="0" cy="0" r="7"/>
                <circle id="rim2" cx="0" cy="0" r="3.5"/>
                <g id="zoomPlus">
                        <use xlink:href="#rim" fill="#404040">
                                <set attributeName="fill" to="#808080" begin="zoomplus.mouseover" end="zoomplus.mouseout"/>
                        </use>
                        <path d="M-4,0h8M0,-4v8" fill="none" stroke="white" stroke-width="1.5" pointer-events="none"/>
                </g>
                <g id="zoomMin">
                        <use xlink:href="#rim" fill="#404040">
                                <set attributeName="fill" to="#808080" begin="zoomminus.mouseover" end="zoomminus.mouseout"/>
                        </use>
                        <path d="M-4,0h8" fill="none" stroke="white" stroke-width="1.5" pointer-events="none"/>
                </g>
                <g id="dirArrow">
                        <path fill="none" stroke="white" stroke-width="1.5" d="M0,-3.0v7 M-2.5,-0.5L0,-3.0L2.5,-0.5"/>
                </g>
               <g id="resetDef">
                       <use xlink:href="#rim2" fill="#404040">
                               <set attributeName="fill" to="#808080" begin="reset.mouseover" end="reset.mouseout"/>
                       </use>
               </g>
        </defs>

<script type="text/javascript">
var viewWidth = 2813;
var viewHeight = 356;
var sectionId = 'dynsection-1';
</script>
<script xlink:href="svgpan.js"/>
<svg id="graph" class="graph">
<g id="viewport">
<title>/home/Code/Mezzanine/Mezzanine/src/actorbase.h</title>
<polygon fill="white" stroke="white" points="-4,5 -4,-352 2810,-352 2810,5 -4,5"/>
<!-- Node1 -->
<g id="node1" class="node"><title>Node1</title>
<polygon fill="#bfbfbf" stroke="black" points="1622,-313 1622,-347 1770,-347 1770,-313 1622,-313"/>
<text text-anchor="start" x="1630" y="-334" font-family="FreeSans" font-size="10.00">/home/Code/Mezzanine</text>
<text text-anchor="middle" x="1696" y="-321" font-family="FreeSans" font-size="10.00">/Mezzanine/src/actorbase.h</text>
</g>
<!-- Node2 -->
<g id="node3" class="node"><title>Node2</title>
<a xlink:href="actorbase_8cpp.html" target="_top" xlink:title="Code used by all actors is implemented here.">
<polygon fill="white" stroke="black" points="722.5,-151 722.5,-185 881.5,-185 881.5,-151 722.5,-151"/>
<text text-anchor="start" x="730.5" y="-172" font-family="FreeSans" font-size="10.00">/home/Code/Mezzanine</text>
<text text-anchor="middle" x="802" y="-159" font-family="FreeSans" font-size="10.00">/Mezzanine/src/actorbase.cpp</text>
</a>
</g>
<!-- Node1&#45;&gt;Node2 -->
<g id="edge2" class="edge"><title>Node1&#45;&gt;Node2</title>
<path fill="none" stroke="midnightblue" d="M1611.68,-327.336C1455.39,-321.73 1126.63,-306.63 1017,-276 944.183,-255.656 866.857,-210.091 827.798,-185.139"/>
<polygon fill="midnightblue" stroke="midnightblue" points="1611.61,-330.835 1621.73,-327.691 1611.86,-323.84 1611.61,-330.835"/>
</g>
<!-- Node3 -->
<g id="node5" class="node"><title>Node3</title>
<a xlink:href="actorrigid_8h_source.html" target="_top" xlink:title="/home/Code/Mezzanine\l/Mezzanine/src/actorrigid.h">
<polygon fill="white" stroke="black" points="475,-235 475,-269 619,-269 619,-235 475,-235"/>
<text text-anchor="start" x="483" y="-256" font-family="FreeSans" font-size="10.00">/home/Code/Mezzanine</text>
<text text-anchor="middle" x="547" y="-243" font-family="FreeSans" font-size="10.00">/Mezzanine/src/actorrigid.h</text>
</a>
</g>
<!-- Node1&#45;&gt;Node3 -->
<g id="edge4" class="edge"><title>Node1&#45;&gt;Node3</title>
<path fill="none" stroke="midnightblue" d="M1611.43,-324.598C1462.97,-315.074 1145.78,-294.546 878,-276 788.908,-269.829 686.359,-262.333 619.309,-257.378"/>
<polygon fill="midnightblue" stroke="midnightblue" points="1611.63,-328.118 1621.83,-325.265 1612.07,-321.132 1611.63,-328.118"/>
</g>
<!-- Node4 -->
<g id="node8" class="node"><title>Node4</title>
<a xlink:href="actorphysicssettings_8cpp_source.html" target="_top" xlink:title="/home/Code/Mezzanine\l/Mezzanine/src/actorphysicssettings.cpp">
<polygon fill="white" stroke="black" points="898.5,-151 898.5,-185 1107.5,-185 1107.5,-151 898.5,-151"/>
<text text-anchor="start" x="906.5" y="-172" font-family="FreeSans" font-size="10.00">/home/Code/Mezzanine</text>
<text text-anchor="middle" x="1003" y="-159" font-family="FreeSans" font-size="10.00">/Mezzanine/src/actorphysicssettings.cpp</text>
</a>
</g>
<!-- Node1&#45;&gt;Node4 -->
<g id="edge44" class="edge"><title>Node1&#45;&gt;Node4</title>
<path fill="none" stroke="midnightblue" d="M1611.9,-327.526C1448.44,-322.054 1099.85,-306.885 1055,-276 1024.15,-254.755 1010.97,-209.992 1005.87,-185.287"/>
<polygon fill="midnightblue" stroke="midnightblue" points="1611.81,-331.025 1621.92,-327.857 1612.04,-324.029 1611.81,-331.025"/>
</g>
<!-- Node8 -->
<g id="node16" class="node"><title>Node8</title>
<a xlink:href="mezzanine_8h.html" target="_top" xlink:title="A single file that includes all of the Mezzanine engine.">
<polygon fill="white" stroke="black" points="1262,-73 1262,-107 1414,-107 1414,-73 1262,-73"/>
<text text-anchor="start" x="1270" y="-94" font-family="FreeSans" font-size="10.00">/home/Code/Mezzanine</text>
<text text-anchor="middle" x="1338" y="-81" font-family="FreeSans" font-size="10.00">/Mezzanine/src/mezzanine.h</text>
</a>
</g>
<!-- Node1&#45;&gt;Node8 -->
<g id="edge58" class="edge"><title>Node1&#45;&gt;Node8</title>
<path fill="none" stroke="midnightblue" d="M1642.17,-308.315C1626.44,-300.009 1610.2,-289.265 1598,-276 1554.49,-228.709 1587.88,-185.714 1539,-144 1519.97,-127.757 1462.7,-113.284 1414.13,-103.42"/>
<polygon fill="midnightblue" stroke="midnightblue" points="1640.84,-311.563 1651.35,-312.926 1643.98,-305.308 1640.84,-311.563"/>
</g>
<!-- Node12 -->
<g id="node25" class="node"><title>Node12</title>
<a xlink:href="actorsoft_8h_source.html" target="_top" xlink:title="/home/Code/Mezzanine\l/Mezzanine/src/actorsoft.h">
<polygon fill="white" stroke="black" points="1064,-235 1064,-269 1206,-269 1206,-235 1064,-235"/>
<text text-anchor="start" x="1072" y="-256" font-family="FreeSans" font-size="10.00">/home/Code/Mezzanine</text>
<text text-anchor="middle" x="1135" y="-243" font-family="FreeSans" font-size="10.00">/Mezzanine/src/actorsoft.h</text>
</a>
</g>
<!-- Node1&#45;&gt;Node12 -->
<g id="edge26" class="edge"><title>Node1&#45;&gt;Node12</title>
<path fill="none" stroke="midnightblue" d="M1611.7,-318.279C1501.35,-302.937 1309.85,-276.311 1206.34,-261.919"/>
<polygon fill="midnightblue" stroke="midnightblue" points="1611.41,-321.772 1621.79,-319.682 1612.37,-314.839 1611.41,-321.772"/>
</g>
<!-- Node14 -->
<g id="node32" class="node"><title>Node14</title>
<a xlink:href="actorcharacter_8h_source.html" target="_top" xlink:title="/home/Code/Mezzanine\l/Mezzanine/src/actorcharacter.h">
<polygon fill="white" stroke="black" points="1382.5,-235 1382.5,-269 1551.5,-269 1551.5,-235 1382.5,-235"/>
<text text-anchor="start" x="1390.5" y="-256" font-family="FreeSans" font-size="10.00">/home/Code/Mezzanine</text>
<text text-anchor="middle" x="1467" y="-243" font-family="FreeSans" font-size="10.00">/Mezzanine/src/actorcharacter.h</text>
</a>
</g>
<!-- Node1&#45;&gt;Node14 -->
<g id="edge36" class="edge"><title>Node1&#45;&gt;Node14</title>
<path fill="none" stroke="midnightblue" d="M1636.36,-309.688C1599.37,-297.086 1552.36,-281.075 1517.26,-269.119"/>
<polygon fill="midnightblue" stroke="midnightblue" points="1635.43,-313.068 1646.03,-312.979 1637.69,-306.442 1635.43,-313.068"/>
</g>
<!-- Node16 -->
<g id="node37" class="node"><title>Node16</title>
<a xlink:href="actormanager_8cpp_source.html" target="_top" xlink:title="/home/Code/Mezzanine\l/Mezzanine/src/actormanager.cpp">
<polygon fill="white" stroke="black" points="1607,-235 1607,-269 1785,-269 1785,-235 1607,-235"/>
<text text-anchor="start" x="1615" y="-256" font-family="FreeSans" font-size="10.00">/home/Code/Mezzanine</text>
<text text-anchor="middle" x="1696" y="-243" font-family="FreeSans" font-size="10.00">/Mezzanine/src/actormanager.cpp</text>
</a>
</g>
<!-- Node1&#45;&gt;Node16 -->
<g id="edge42" class="edge"><title>Node1&#45;&gt;Node16</title>
<path fill="none" stroke="midnightblue" d="M1696,-302.61C1696,-291.519 1696,-279.049 1696,-269.262"/>
<polygon fill="midnightblue" stroke="midnightblue" points="1692.5,-302.689 1696,-312.689 1699.5,-302.689 1692.5,-302.689"/>
</g>
<!-- Node17 -->
<g id="node40" class="node"><title>Node17</title>
<a xlink:href="vector3wactor_8h_source.html" target="_top" xlink:title="/home/Code/Mezzanine\l/Mezzanine/src/vector3wactor.h">
<polygon fill="white" stroke="black" points="1803,-235 1803,-269 1969,-269 1969,-235 1803,-235"/>
<text text-anchor="start" x="1811" y="-256" font-family="FreeSans" font-size="10.00">/home/Code/Mezzanine</text>
<text text-anchor="middle" x="1886" y="-243" font-family="FreeSans" font-size="10.00">/Mezzanine/src/vector3wactor.h</text>
</a>
</g>
<!-- Node1&#45;&gt;Node17 -->
<g id="edge46" class="edge"><title>Node1&#45;&gt;Node17</title>
<path fill="none" stroke="midnightblue" d="M1747.29,-308.944C1777.73,-296.446 1815.84,-280.804 1844.4,-269.078"/>
<polygon fill="midnightblue" stroke="midnightblue" points="1745.62,-305.847 1737.7,-312.883 1748.28,-312.323 1745.62,-305.847"/>
</g>
<!-- Node19 -->
<g id="node45" class="node"><title>Node19</title>
<a xlink:href="rayquerytool_8cpp_source.html" target="_top" xlink:title="/home/Code/Mezzanine\l/Mezzanine/src/rayquerytool.cpp">
<polygon fill="white" stroke="black" points="2192.5,-151 2192.5,-185 2363.5,-185 2363.5,-151 2192.5,-151"/>
<text text-anchor="start" x="2200.5" y="-172" font-family="FreeSans" font-size="10.00">/home/Code/Mezzanine</text>
<text text-anchor="middle" x="2278" y="-159" font-family="FreeSans" font-size="10.00">/Mezzanine/src/rayquerytool.cpp</text>
</a>
</g>
<!-- Node1&#45;&gt;Node19 -->
<g id="edge60" class="edge"><title>Node1&#45;&gt;Node19</title>
<path fill="none" stroke="midnightblue" d="M1780.41,-320.409C1851.06,-311.196 1945.4,-295.772 1978,-276 2001.26,-261.89 1992.99,-242.526 2016,-228 2023.87,-223.033 2123.64,-200.964 2197.73,-185.032"/>
<polygon fill="midnightblue" stroke="midnightblue" points="1779.65,-316.979 1770.17,-321.723 1780.54,-323.922 1779.65,-316.979"/>
</g>
<!-- Node22 -->
<g id="node53" class="node"><title>Node22</title>
<a xlink:href="resourcemanager_8cpp_source.html" target="_top" xlink:title="/home/Code/Mezzanine\l/Mezzanine/src/resourcemanager.cpp">
<polygon fill="white" stroke="black" points="2024.5,-235 2024.5,-269 2219.5,-269 2219.5,-235 2024.5,-235"/>
<text text-anchor="start" x="2032.5" y="-256" font-family="FreeSans" font-size="10.00">/home/Code/Mezzanine</text>
<text text-anchor="middle" x="2122" y="-243" font-family="FreeSans" font-size="10.00">/Mezzanine/src/resourcemanager.cpp</text>
</a>
</g>
<!-- Node1&#45;&gt;Node22 -->
<g id="edge62" class="edge"><title>Node1&#45;&gt;Node22</title>
<path fill="none" stroke="midnightblue" d="M1780.28,-316.566C1843.83,-306.192 1933.05,-291.101 2011,-276 2022.13,-273.844 2033.86,-271.445 2045.36,-269.022"/>
<polygon fill="midnightblue" stroke="midnightblue" points="1779.62,-313.128 1770.31,-318.189 1780.74,-320.037 1779.62,-313.128"/>
</g>
<!-- Node23 -->
<g id="node55" class="node"><title>Node23</title>
<a xlink:href="worldnode_8cpp.html" target="_top" xlink:title="The implementation of the WorldNode, A class to facilitate navigation in 3d environment.">
<polygon fill="white" stroke="black" points="2237,-235 2237,-269 2397,-269 2397,-235 2237,-235"/>
<text text-anchor="start" x="2245" y="-256" font-family="FreeSans" font-size="10.00">/home/Code/Mezzanine</text>
<text text-anchor="middle" x="2317" y="-243" font-family="FreeSans" font-size="10.00">/Mezzanine/src/worldnode.cpp</text>
</a>
</g>
<!-- Node1&#45;&gt;Node23 -->
<g id="edge64" class="edge"><title>Node1&#45;&gt;Node23</title>
<path fill="none" stroke="midnightblue" d="M1780.38,-325.671C1885.79,-319.294 2071.39,-304.867 2228,-276 2238.07,-274.143 2248.67,-271.715 2258.9,-269.117"/>
<polygon fill="midnightblue" stroke="midnightblue" points="1779.89,-322.194 1770.11,-326.282 1780.31,-329.182 1779.89,-322.194"/>
</g>
<!-- Node24 -->
<g id="node57" class="node"><title>Node24</title>
<a xlink:href="worldobjectgraphicssettings_8cpp_source.html" target="_top" xlink:title="/home/Code/Mezzanine\l/Mezzanine/src/worldobjectgraphicssettings.cpp">
<polygon fill="white" stroke="black" points="2415,-235 2415,-269 2659,-269 2659,-235 2415,-235"/>
<text text-anchor="start" x="2423" y="-256" font-family="FreeSans" font-size="10.00">/home/Code/Mezzanine</text>
<text text-anchor="middle" x="2537" y="-243" font-family="FreeSans" font-size="10.00">/Mezzanine/src/worldobjectgraphicssettings.cpp</text>
</a>
</g>
<!-- Node1&#45;&gt;Node24 -->
<g id="edge66" class="edge"><title>Node1&#45;&gt;Node24</title>
<path fill="none" stroke="midnightblue" d="M1780.25,-326.467C1913.51,-320.232 2180.92,-305.096 2406,-276 2420.68,-274.103 2436.2,-271.654 2451.23,-269.049"/>
<polygon fill="midnightblue" stroke="midnightblue" points="1779.94,-322.977 1770.11,-326.936 1780.26,-329.97 1779.94,-322.977"/>
</g>
<!-- Node25 -->
<g id="node59" class="node"><title>Node25</title>
<a xlink:href="collision_8cpp_source.html" target="_top" xlink:title="/home/Code/Mezzanine\l/Mezzanine/src/Physics\l/collision.cpp">
<polygon fill="white" stroke="black" points="2676.5,-228.5 2676.5,-275.5 2805.5,-275.5 2805.5,-228.5 2676.5,-228.5"/>
<text text-anchor="start" x="2684.5" y="-262.5" font-family="FreeSans" font-size="10.00">/home/Code/Mezzanine</text>
<text text-anchor="start" x="2684.5" y="-249.5" font-family="FreeSans" font-size="10.00">/Mezzanine/src/Physics</text>
<text text-anchor="middle" x="2741" y="-236.5" font-family="FreeSans" font-size="10.00">/collision.cpp</text>
</a>
</g>
<!-- Node1&#45;&gt;Node25 -->
<g id="edge68" class="edge"><title>Node1&#45;&gt;Node25</title>
<path fill="none" stroke="midnightblue" d="M1780.36,-328.147C1984.16,-323.215 2498.96,-307.908 2668,-276 2670.75,-275.48 2673.55,-274.884 2676.35,-274.228"/>
<polygon fill="midnightblue" stroke="midnightblue" points="1780.22,-324.65 1770.31,-328.388 1780.39,-331.648 1780.22,-324.65"/>
</g>
<!-- Node3&#45;&gt;Node2 -->
<g id="edge6" class="edge"><title>Node3&#45;&gt;Node2</title>
<path fill="none" stroke="midnightblue" d="M608.485,-231.746C651.803,-217.477 709.161,-198.582 750.162,-185.076"/>
<polygon fill="midnightblue" stroke="midnightblue" points="607.313,-228.447 598.91,-234.9 609.503,-235.096 607.313,-228.447"/>
</g>
<!-- Node3&#45;&gt;Node4 -->
<g id="edge8" class="edge"><title>Node3&#45;&gt;Node4</title>
<path fill="none" stroke="midnightblue" d="M629.099,-238.495C698.681,-226.843 801.046,-209.221 890,-192 901.223,-189.827 913.051,-187.432 924.657,-185.022"/>
<polygon fill="midnightblue" stroke="midnightblue" points="628.363,-235.069 619.076,-240.17 629.516,-241.973 628.363,-235.069"/>
</g>
<!-- Node5 -->
<g id="node10" class="node"><title>Node5</title>
<a xlink:href="actorrigid_8cpp_source.html" target="_top" xlink:title="/home/Code/Mezzanine\l/Mezzanine/src/actorrigid.cpp">
<polygon fill="white" stroke="black" points="549,-151 549,-185 705,-185 705,-151 549,-151"/>
<text text-anchor="start" x="557" y="-172" font-family="FreeSans" font-size="10.00">/home/Code/Mezzanine</text>
<text text-anchor="middle" x="627" y="-159" font-family="FreeSans" font-size="10.00">/Mezzanine/src/actorrigid.cpp</text>
</a>
</g>
<!-- Node3&#45;&gt;Node5 -->
<g id="edge10" class="edge"><title>Node3&#45;&gt;Node5</title>
<path fill="none" stroke="midnightblue" d="M570.793,-227.018C583.666,-213.501 599.234,-197.154 610.719,-185.095"/>
<polygon fill="midnightblue" stroke="midnightblue" points="567.938,-224.94 563.576,-234.595 573.007,-229.768 567.938,-224.94"/>
</g>
<!-- Node6 -->
<g id="node12" class="node"><title>Node6</title>
<a xlink:href="actorserializer_8h.html" target="_top" xlink:title="This is where the declarations of any Serializers or DeSerializers for actors will go...">
<polygon fill="white" stroke="black" points="5,-151 5,-185 171,-185 171,-151 5,-151"/>
<text text-anchor="start" x="13" y="-172" font-family="FreeSans" font-size="10.00">/home/Code/Mezzanine</text>
<text text-anchor="middle" x="88" y="-159" font-family="FreeSans" font-size="10.00">/Mezzanine/src/actorserializer.h</text>
</a>
</g>
<!-- Node3&#45;&gt;Node6 -->
<g id="edge12" class="edge"><title>Node3&#45;&gt;Node6</title>
<path fill="none" stroke="midnightblue" d="M464.628,-240.773C389.979,-230.069 277.122,-212.56 180,-192 170.311,-189.949 160.11,-187.541 150.169,-185.056"/>
<polygon fill="midnightblue" stroke="midnightblue" points="464.508,-244.292 474.902,-242.238 465.496,-237.362 464.508,-244.292"/>
</g>
<!-- Node3&#45;&gt;Node8 -->
<g id="edge22" class="edge"><title>Node3&#45;&gt;Node8</title>
<path fill="none" stroke="midnightblue" d="M473.976,-231.966C439.559,-220.9 403.882,-206.49 394,-192 381.98,-174.375 379.352,-159.51 394,-144 423.658,-112.597 1042.8,-96.3268 1261.95,-91.5351"/>
<polygon fill="midnightblue" stroke="midnightblue" points="473.039,-235.34 483.628,-234.996 475.135,-228.661 473.039,-235.34"/>
</g>
<!-- Node10 -->
<g id="node20" class="node"><title>Node10</title>
<a xlink:href="areaeffect_8cpp_source.html" target="_top" xlink:title="/home/Code/Mezzanine\l/Mezzanine/src/areaeffect.cpp">
<polygon fill="white" stroke="black" points="188.5,-151 188.5,-185 347.5,-185 347.5,-151 188.5,-151"/>
<text text-anchor="start" x="196.5" y="-172" font-family="FreeSans" font-size="10.00">/home/Code/Mezzanine</text>
<text text-anchor="middle" x="268" y="-159" font-family="FreeSans" font-size="10.00">/Mezzanine/src/areaeffect.cpp</text>
</a>
</g>
<!-- Node3&#45;&gt;Node10 -->
<g id="edge20" class="edge"><title>Node3&#45;&gt;Node10</title>
<path fill="none" stroke="midnightblue" d="M480.623,-232.015C433.125,-217.715 369.86,-198.667 324.717,-185.076"/>
<polygon fill="midnightblue" stroke="midnightblue" points="479.619,-235.369 490.204,-234.9 481.638,-228.666 479.619,-235.369"/>
</g>
<!-- Node11 -->
<g id="node23" class="node"><title>Node11</title>
<a xlink:href="constraint_8cpp_source.html" target="_top" xlink:title="/home/Code/Mezzanine\l/Mezzanine/src/Physics\l/constraint.cpp">
<polygon fill="white" stroke="black" points="402.5,-144.5 402.5,-191.5 531.5,-191.5 531.5,-144.5 402.5,-144.5"/>
<text text-anchor="start" x="410.5" y="-178.5" font-family="FreeSans" font-size="10.00">/home/Code/Mezzanine</text>
<text text-anchor="start" x="410.5" y="-165.5" font-family="FreeSans" font-size="10.00">/Mezzanine/src/Physics</text>
<text text-anchor="middle" x="467" y="-152.5" font-family="FreeSans" font-size="10.00">/constraint.cpp</text>
</a>
</g>
<!-- Node3&#45;&gt;Node11 -->
<g id="edge24" class="edge"><title>Node3&#45;&gt;Node11</title>
<path fill="none" stroke="midnightblue" d="M523.386,-227.206C512.718,-216.004 500.17,-202.828 489.622,-191.753"/>
<polygon fill="midnightblue" stroke="midnightblue" points="520.993,-229.768 530.424,-234.595 526.062,-224.94 520.993,-229.768"/>
</g>
<!-- Node7 -->
<g id="node14" class="node"><title>Node7</title>
<a xlink:href="actorserializer_8cpp_source.html" target="_top" xlink:title="/home/Code/Mezzanine\l/Mezzanine/src/actorserializer.cpp">
<polygon fill="white" stroke="black" points="-0.5,-73 -0.5,-107 176.5,-107 176.5,-73 -0.5,-73"/>
<text text-anchor="start" x="7.5" y="-94" font-family="FreeSans" font-size="10.00">/home/Code/Mezzanine</text>
<text text-anchor="middle" x="88" y="-81" font-family="FreeSans" font-size="10.00">/Mezzanine/src/actorserializer.cpp</text>
</a>
</g>
<!-- Node6&#45;&gt;Node7 -->
<g id="edge14" class="edge"><title>Node6&#45;&gt;Node7</title>
<path fill="none" stroke="midnightblue" d="M88,-140.61C88,-129.519 88,-117.049 88,-107.262"/>
<polygon fill="midnightblue" stroke="midnightblue" points="84.5001,-140.689 88,-150.689 91.5001,-140.689 84.5001,-140.689"/>
</g>
<!-- Node6&#45;&gt;Node8 -->
<g id="edge16" class="edge"><title>Node6&#45;&gt;Node8</title>
<path fill="none" stroke="midnightblue" d="M155.824,-148.612C163.92,-146.802 172.111,-145.2 180,-144 389.668,-112.121 1038.93,-96.1329 1261.9,-91.477"/>
<polygon fill="midnightblue" stroke="midnightblue" points="154.958,-145.22 146.021,-150.91 156.556,-152.035 154.958,-145.22"/>
</g>
<!-- Node9 -->
<g id="node18" class="node"><title>Node9</title>
<a xlink:href="entresol_8cpp_source.html" target="_top" xlink:title="/home/Code/Mezzanine\l/Mezzanine/src/entresol.cpp">
<polygon fill="white" stroke="black" points="1263,-1 1263,-35 1413,-35 1413,-1 1263,-1"/>
<text text-anchor="start" x="1271" y="-22" font-family="FreeSans" font-size="10.00">/home/Code/Mezzanine</text>
<text text-anchor="middle" x="1338" y="-9" font-family="FreeSans" font-size="10.00">/Mezzanine/src/entresol.cpp</text>
</a>
</g>
<!-- Node8&#45;&gt;Node9 -->
<g id="edge18" class="edge"><title>Node8&#45;&gt;Node9</title>
<path fill="none" stroke="midnightblue" d="M1338,-62.7193C1338,-53.572 1338,-43.6255 1338,-35.4407"/>
<polygon fill="midnightblue" stroke="midnightblue" points="1334.5,-62.937 1338,-72.937 1341.5,-62.937 1334.5,-62.937"/>
</g>
<!-- Node12&#45;&gt;Node2 -->
<g id="edge28" class="edge"><title>Node12&#45;&gt;Node2</title>
<path fill="none" stroke="midnightblue" d="M1053.87,-232.694C1006.09,-221.183 944.521,-206.108 890,-192 881.568,-189.818 872.697,-187.466 863.966,-185.117"/>
<polygon fill="midnightblue" stroke="midnightblue" points="1053.31,-236.158 1063.85,-235.094 1054.95,-229.352 1053.31,-236.158"/>
</g>
<!-- Node12&#45;&gt;Node4 -->
<g id="edge30" class="edge"><title>Node12&#45;&gt;Node4</title>
<path fill="none" stroke="midnightblue" d="M1099.3,-229.284C1077.48,-215.395 1050.01,-197.913 1029.99,-185.178"/>
<polygon fill="midnightblue" stroke="midnightblue" points="1097.65,-232.383 1107.97,-234.799 1101.41,-226.477 1097.65,-232.383"/>
</g>
<!-- Node12&#45;&gt;Node8 -->
<g id="edge34" class="edge"><title>Node12&#45;&gt;Node8</title>
<path fill="none" stroke="midnightblue" d="M1132.33,-224.395C1131.57,-200.268 1134.52,-165.78 1154,-144 1168.76,-127.499 1217.85,-113.568 1261.61,-103.991"/>
<polygon fill="midnightblue" stroke="midnightblue" points="1128.85,-224.876 1132.89,-234.669 1135.84,-224.492 1128.85,-224.876"/>
</g>
<!-- Node13 -->
<g id="node29" class="node"><title>Node13</title>
<a xlink:href="actorsoft_8cpp_source.html" target="_top" xlink:title="/home/Code/Mezzanine\l/Mezzanine/src/actorsoft.cpp">
<polygon fill="white" stroke="black" points="1162.5,-151 1162.5,-185 1315.5,-185 1315.5,-151 1162.5,-151"/>
<text text-anchor="start" x="1170.5" y="-172" font-family="FreeSans" font-size="10.00">/home/Code/Mezzanine</text>
<text text-anchor="middle" x="1239" y="-159" font-family="FreeSans" font-size="10.00">/Mezzanine/src/actorsoft.cpp</text>
</a>
</g>
<!-- Node12&#45;&gt;Node13 -->
<g id="edge32" class="edge"><title>Node12&#45;&gt;Node13</title>
<path fill="none" stroke="midnightblue" d="M1164.28,-228.353C1181.28,-214.621 1202.32,-197.63 1217.73,-185.178"/>
<polygon fill="midnightblue" stroke="midnightblue" points="1161.88,-225.792 1156.3,-234.799 1166.28,-231.238 1161.88,-225.792"/>
</g>
<!-- Node14&#45;&gt;Node8 -->
<g id="edge40" class="edge"><title>Node14&#45;&gt;Node8</title>
<path fill="none" stroke="midnightblue" d="M1496.86,-227.8C1506.83,-217.878 1516.73,-205.538 1522,-192 1529.73,-172.118 1534.79,-161.077 1522,-144 1508.63,-126.144 1458.84,-112.186 1414.43,-102.937"/>
<polygon fill="midnightblue" stroke="midnightblue" points="1494.2,-225.5 1489.3,-234.895 1498.99,-230.604 1494.2,-225.5"/>
</g>
<!-- Node15 -->
<g id="node34" class="node"><title>Node15</title>
<a xlink:href="actorcharacter_8cpp_source.html" target="_top" xlink:title="/home/Code/Mezzanine\l/Mezzanine/src/actorcharacter.cpp">
<polygon fill="white" stroke="black" points="1333,-151 1333,-185 1513,-185 1513,-151 1333,-151"/>
<text text-anchor="start" x="1341" y="-172" font-family="FreeSans" font-size="10.00">/home/Code/Mezzanine</text>
<text text-anchor="middle" x="1423" y="-159" font-family="FreeSans" font-size="10.00">/Mezzanine/src/actorcharacter.cpp</text>
</a>
</g>
<!-- Node14&#45;&gt;Node15 -->
<g id="edge38" class="edge"><title>Node14&#45;&gt;Node15</title>
<path fill="none" stroke="midnightblue" d="M1453.11,-225.49C1446.2,-212.285 1438.04,-196.703 1431.95,-185.095"/>
<polygon fill="midnightblue" stroke="midnightblue" points="1450.14,-227.361 1457.88,-234.595 1456.34,-224.113 1450.14,-227.361"/>
</g>
<!-- Node17&#45;&gt;Node8 -->
<g id="edge50" class="edge"><title>Node17&#45;&gt;Node8</title>
<path fill="none" stroke="midnightblue" d="M1963.92,-232.54C1970.37,-230.984 1976.79,-229.453 1983,-228 2055.24,-211.089 2099.54,-249.841 2146,-192 2159.36,-175.368 2160.57,-159.58 2146,-144 2121.21,-117.497 1610.67,-98.6148 1414.17,-92.3034"/>
<polygon fill="midnightblue" stroke="midnightblue" points="1962.68,-229.238 1953.79,-234.998 1964.33,-236.041 1962.68,-229.238"/>
</g>
<!-- Node18 -->
<g id="node42" class="node"><title>Node18</title>
<a xlink:href="cameracontroller_8cpp_source.html" target="_top" xlink:title="/home/Code/Mezzanine\l/Mezzanine/src/cameracontroller.cpp">
<polygon fill="white" stroke="black" points="1606.5,-151 1606.5,-185 1797.5,-185 1797.5,-151 1606.5,-151"/>
<text text-anchor="start" x="1614.5" y="-172" font-family="FreeSans" font-size="10.00">/home/Code/Mezzanine</text>
<text text-anchor="middle" x="1702" y="-159" font-family="FreeSans" font-size="10.00">/Mezzanine/src/cameracontroller.cpp</text>
</a>
</g>
<!-- Node17&#45;&gt;Node18 -->
<g id="edge48" class="edge"><title>Node17&#45;&gt;Node18</title>
<path fill="none" stroke="midnightblue" d="M1839.03,-230.556C1808.07,-216.424 1768.09,-198.172 1739.31,-185.035"/>
<polygon fill="midnightblue" stroke="midnightblue" points="1837.77,-233.83 1848.32,-234.799 1840.68,-227.462 1837.77,-233.83"/>
</g>
<!-- Node17&#45;&gt;Node19 -->
<g id="edge52" class="edge"><title>Node17&#45;&gt;Node19</title>
<path fill="none" stroke="midnightblue" d="M1962.69,-232.568C1969.55,-230.969 1976.39,-229.423 1983,-228 2069.58,-209.355 2092.37,-210.441 2179,-192 2189.03,-189.864 2199.6,-187.464 2209.95,-185.03"/>
<polygon fill="midnightblue" stroke="midnightblue" points="1961.59,-229.231 1952.67,-234.939 1963.2,-236.043 1961.59,-229.231"/>
</g>
<!-- Node20 -->
<g id="node47" class="node"><title>Node20</title>
<a xlink:href="vector3wactor_8cpp_source.html" target="_top" xlink:title="/home/Code/Mezzanine\l/Mezzanine/src/vector3wactor.cpp">
<polygon fill="white" stroke="black" points="1814.5,-151 1814.5,-185 1991.5,-185 1991.5,-151 1814.5,-151"/>
<text text-anchor="start" x="1822.5" y="-172" font-family="FreeSans" font-size="10.00">/home/Code/Mezzanine</text>
<text text-anchor="middle" x="1903" y="-159" font-family="FreeSans" font-size="10.00">/Mezzanine/src/vector3wactor.cpp</text>
</a>
</g>
<!-- Node17&#45;&gt;Node20 -->
<g id="edge54" class="edge"><title>Node17&#45;&gt;Node20</title>
<path fill="none" stroke="midnightblue" d="M1891.52,-224.718C1894.16,-211.681 1897.24,-196.478 1899.54,-185.095"/>
<polygon fill="midnightblue" stroke="midnightblue" points="1888.08,-224.1 1889.52,-234.595 1894.94,-225.488 1888.08,-224.1"/>
</g>
<!-- Node21 -->
<g id="node49" class="node"><title>Node21</title>
<a xlink:href="physicsmanager_8cpp_source.html" target="_top" xlink:title="/home/Code/Mezzanine\l/Mezzanine/src/Physics\l/physicsmanager.cpp">
<polygon fill="white" stroke="black" points="2008.5,-144.5 2008.5,-191.5 2137.5,-191.5 2137.5,-144.5 2008.5,-144.5"/>
<text text-anchor="start" x="2016.5" y="-178.5" font-family="FreeSans" font-size="10.00">/home/Code/Mezzanine</text>
<text text-anchor="start" x="2016.5" y="-165.5" font-family="FreeSans" font-size="10.00">/Mezzanine/src/Physics</text>
<text text-anchor="middle" x="2073" y="-152.5" font-family="FreeSans" font-size="10.00">/physicsmanager.cpp</text>
</a>
</g>
<!-- Node17&#45;&gt;Node21 -->
<g id="edge56" class="edge"><title>Node17&#45;&gt;Node21</title>
<path fill="none" stroke="midnightblue" d="M1933.75,-230.551C1960.28,-218.633 1993.33,-203.785 2020.58,-191.547"/>
<polygon fill="midnightblue" stroke="midnightblue" points="1931.98,-227.508 1924.29,-234.799 1934.85,-233.894 1931.98,-227.508"/>
</g>
</g>
</svg>
        <g id="navigator" transform="translate(0 0)" fill="#404254">
                <rect fill="#f2f5e9" fill-opacity="0.5" stroke="#606060" stroke-width=".5" x="0" y="0" width="60" height="60"/>
                <use id="zoomplus" xlink:href="#zoomPlus" x="17" y="9" onmousedown="handleZoom(evt,'in')"/>
                <use id="zoomminus" xlink:href="#zoomMin" x="42" y="9" onmousedown="handleZoom(evt,'out')"/>
                <use id="reset" xlink:href="#resetDef" x="30" y="36" onmousedown="handleReset()"/>
                <g id="arrowUp" xlink:href="#dirArrow" transform="translate(30 24)" onmousedown="handlePan(0,-1)">
                  <use xlink:href="#rim" fill="#404040">
                        <set attributeName="fill" to="#808080" begin="arrowUp.mouseover" end="arrowUp.mouseout"/>
                  </use>
                  <path fill="none" stroke="white" stroke-width="1.5" d="M0,-3.0v7 M-2.5,-0.5L0,-3.0L2.5,-0.5"/>
                </g>
                <g id="arrowRight" xlink:href="#dirArrow" transform="rotate(90) translate(36 -43)" onmousedown="handlePan(1,0)">
                  <use xlink:href="#rim" fill="#404040">
                        <set attributeName="fill" to="#808080" begin="arrowRight.mouseover" end="arrowRight.mouseout"/>
                  </use>
                  <path fill="none" stroke="white" stroke-width="1.5" d="M0,-3.0v7 M-2.5,-0.5L0,-3.0L2.5,-0.5"/>
                </g>
                <g id="arrowDown" xlink:href="#dirArrow" transform="rotate(180) translate(-30 -48)" onmousedown="handlePan(0,1)">
                  <use xlink:href="#rim" fill="#404040">
                        <set attributeName="fill" to="#808080" begin="arrowDown.mouseover" end="arrowDown.mouseout"/>
                  </use>
                  <path fill="none" stroke="white" stroke-width="1.5" d="M0,-3.0v7 M-2.5,-0.5L0,-3.0L2.5,-0.5"/>
                </g>
                <g id="arrowLeft" xlink:href="#dirArrow" transform="rotate(270) translate(-36 17)" onmousedown="handlePan(-1,0)">
                  <use xlink:href="#rim" fill="#404040">
                        <set attributeName="fill" to="#808080" begin="arrowLeft.mouseover" end="arrowLeft.mouseout"/>
                  </use>
                  <path fill="none" stroke="white" stroke-width="1.5" d="M0,-3.0v7 M-2.5,-0.5L0,-3.0L2.5,-0.5"/>
                </g>
        </g>
        <svg viewBox="0 0 15 15" width="100%" height="30px" preserveAspectRatio="xMaxYMin meet">
         <g id="arrow_out" transform="scale(0.3 0.3)">
          <a xlink:href="actorbase_8h__dep__incl_org.svg" target="_base">
           <rect id="button" ry="5" rx="5" y="6" x="6" height="38" width="38"
                fill="#f2f5e9" fill-opacity="0.5" stroke="#606060" stroke-width="1.0"/>
           <path id="arrow"
             d="M 11.500037,31.436501 C 11.940474,20.09759 22.043105,11.32322 32.158766,21.979434 L 37.068811,17.246167 C 37.068811,17.246167 37.088388,32 37.088388,32 L 22.160133,31.978069 C 22.160133,31.978069 26.997745,27.140456 26.997745,27.140456 C 18.528582,18.264221 13.291696,25.230495 11.500037,31.436501 z"
             style="fill:#404040;"/>
          </a>
         </g>
        </svg>
</svg>
