<?xml version="1.0" encoding="UTF-8" standalone="no"?>
<!DOCTYPE svg PUBLIC "-//W3C//DTD SVG 1.1//EN"
 "http://www.w3.org/Graphics/SVG/1.1/DTD/svg11.dtd">
<!-- Generated by graphviz version 2.26.3 (20100126.1600)
 -->
<!-- Title: /home/Code/Mezzanine/Mezzanine/src/actorserializer.h Pages: 1 -->
<svg width="354pt" height="188pt"
 viewBox="0.00 0.00 354.00 188.00" xmlns="http://www.w3.org/2000/svg" xmlns:xlink="http://www.w3.org/1999/xlink">
<g id="graph1" class="graph" transform="scale(1 1) rotate(0) translate(4 184)">
<title>/home/Code/Mezzanine/Mezzanine/src/actorserializer.h</title>
<polygon fill="white" stroke="white" points="-4,5 -4,-184 351,-184 351,5 -4,5"/>
<!-- Node1 -->
<g id="node1" class="node"><title>Node1</title>
<polygon fill="#bfbfbf" stroke="black" points="96,-145 96,-179 262,-179 262,-145 96,-145"/>
<text text-anchor="start" x="104" y="-166" font-family="FreeSans" font-size="10.00">/home/Code/Mezzanine</text>
<text text-anchor="middle" x="179" y="-153" font-family="FreeSans" font-size="10.00">/Mezzanine/src/actorserializer.h</text>
</g>
<!-- Node2 -->
<g id="node3" class="node"><title>Node2</title>
<a xlink:href="actorserializer_8cpp_source.html" target="_top" xlink:title="/home/Code/Mezzanine\l/Mezzanine/src/actorserializer.cpp">
<polygon fill="white" stroke="black" points="-0.5,-73 -0.5,-107 176.5,-107 176.5,-73 -0.5,-73"/>
<text text-anchor="start" x="7.5" y="-94" font-family="FreeSans" font-size="10.00">/home/Code/Mezzanine</text>
<text text-anchor="middle" x="88" y="-81" font-family="FreeSans" font-size="10.00">/Mezzanine/src/actorserializer.cpp</text>
</a>
</g>
<!-- Node1&#45;&gt;Node2 -->
<g id="edge2" class="edge"><title>Node1&#45;&gt;Node2</title>
<path fill="none" stroke="midnightblue" d="M149.29,-138.493C136.394,-128.29 121.567,-116.558 109.726,-107.19"/>
<polygon fill="midnightblue" stroke="midnightblue" points="147.42,-141.477 157.434,-144.937 151.764,-135.987 147.42,-141.477"/>
</g>
<!-- Node3 -->
<g id="node5" class="node"><title>Node3</title>
<a xlink:href="mezzanine_8h.html" target="_top" xlink:title="A single file that includes all of the Mezzanine engine.">
<polygon fill="white" stroke="black" points="194,-73 194,-107 346,-107 346,-73 194,-73"/>
<text text-anchor="start" x="202" y="-94" font-family="FreeSans" font-size="10.00">/home/Code/Mezzanine</text>
<text text-anchor="middle" x="270" y="-81" font-family="FreeSans" font-size="10.00">/Mezzanine/src/mezzanine.h</text>
</a>
</g>
<!-- Node1&#45;&gt;Node3 -->
<g id="edge4" class="edge"><title>Node1&#45;&gt;Node3</title>
<path fill="none" stroke="midnightblue" d="M208.71,-138.493C221.606,-128.29 236.433,-116.558 248.274,-107.19"/>
<polygon fill="midnightblue" stroke="midnightblue" points="206.236,-135.987 200.566,-144.937 210.58,-141.477 206.236,-135.987"/>
</g>
<!-- Node4 -->
<g id="node7" class="node"><title>Node4</title>
<a xlink:href="entresol_8cpp_source.html" target="_top" xlink:title="/home/Code/Mezzanine\l/Mezzanine/src/entresol.cpp">
<polygon fill="white" stroke="black" points="195,-1 195,-35 345,-35 345,-1 195,-1"/>
<text text-anchor="start" x="203" y="-22" font-family="FreeSans" font-size="10.00">/home/Code/Mezzanine</text>
<text text-anchor="middle" x="270" y="-9" font-family="FreeSans" font-size="10.00">/Mezzanine/src/entresol.cpp</text>
</a>
</g>
<!-- Node3&#45;&gt;Node4 -->
<g id="edge6" class="edge"><title>Node3&#45;&gt;Node4</title>
<path fill="none" stroke="midnightblue" d="M270,-62.7193C270,-53.572 270,-43.6255 270,-35.4407"/>
<polygon fill="midnightblue" stroke="midnightblue" points="266.5,-62.937 270,-72.937 273.5,-62.937 266.5,-62.937"/>
</g>
</g>
</svg>
