<?xml version="1.0" encoding="UTF-8" standalone="no"?>
<!DOCTYPE svg PUBLIC "-//W3C//DTD SVG 1.1//EN"
 "http://www.w3.org/Graphics/SVG/1.1/DTD/svg11.dtd">
<!-- Generated by graphviz version 2.26.3 (20100126.1600)
 -->
<!-- Title: /home/sqeaky/Code/Mezzanine/Mezzanine/src/actorbase.h Pages: 1 -->
<svg width="2879pt" height="322pt"
 viewBox="0.00 0.00 2879.00 322.00" xmlns="http://www.w3.org/2000/svg" xmlns:xlink="http://www.w3.org/1999/xlink">
<g id="graph1" class="graph" transform="scale(1 1) rotate(0) translate(4 318)">
<title>/home/sqeaky/Code/Mezzanine/Mezzanine/src/actorbase.h</title>
<!-- Node1 -->
<g id="node1" class="node"><title>Node1</title>
<polygon fill="#bfbfbf" stroke="black" points="1626.5,-281 1626.5,-313 1777.5,-313 1777.5,-281 1626.5,-281"/>
<text text-anchor="start" x="1634.5" y="-300" font-family="FreeSans" font-size="10.00">/home/sqeaky/Code/Mezzanine</text>
<text text-anchor="middle" x="1702" y="-288" font-family="FreeSans" font-size="10.00">/Mezzanine/src/actorbase.h</text>
</g>
<!-- Node2 -->
<g id="node3" class="node"><title>Node2</title>
<a xlink:href="actorbase_8cpp.xhtml" target="_top" xlink:title="Code used by all actors is implemented here.">
<polygon fill="none" stroke="black" points="744.5,-141 744.5,-173 895.5,-173 895.5,-141 744.5,-141"/>
<text text-anchor="start" x="752.5" y="-160" font-family="FreeSans" font-size="10.00">/home/sqeaky/Code/Mezzanine</text>
<text text-anchor="middle" x="820" y="-148" font-family="FreeSans" font-size="10.00">/Mezzanine/src/actorbase.cpp</text>
</a>
</g>
<!-- Node1&#45;&gt;Node2 -->
<g id="edge2" class="edge"><title>Node1&#45;&gt;Node2</title>
<path fill="none" stroke="midnightblue" d="M1616.17,-293.974C1458.37,-287.811 1128.14,-271.969 1017,-244 953.912,-228.123 885.575,-193.637 848.27,-173.173"/>
<polygon fill="midnightblue" stroke="midnightblue" points="1616.19,-297.477 1626.32,-294.366 1616.46,-290.482 1616.19,-297.477"/>
</g>
<!-- Node3 -->
<g id="node5" class="node"><title>Node3</title>
<a xlink:href="actorrigid_8h_source.xhtml" target="_top" xlink:title="/home/sqeaky/Code/Mezzanine\l/Mezzanine/src/actorrigid.h">
<polygon fill="none" stroke="black" points="604.5,-211 604.5,-243 755.5,-243 755.5,-211 604.5,-211"/>
<text text-anchor="start" x="612.5" y="-230" font-family="FreeSans" font-size="10.00">/home/sqeaky/Code/Mezzanine</text>
<text text-anchor="middle" x="680" y="-218" font-family="FreeSans" font-size="10.00">/Mezzanine/src/actorrigid.h</text>
</a>
</g>
<!-- Node1&#45;&gt;Node3 -->
<g id="edge4" class="edge"><title>Node1&#45;&gt;Node3</title>
<path fill="none" stroke="midnightblue" d="M1615.99,-292.9C1461.22,-285.253 1125.57,-267.442 843,-244 814.504,-241.636 783.26,-238.508 755.818,-235.58"/>
<polygon fill="midnightblue" stroke="midnightblue" points="1616.21,-296.415 1626.37,-293.411 1616.56,-289.423 1616.21,-296.415"/>
</g>
<!-- Node4 -->
<g id="node8" class="node"><title>Node4</title>
<a xlink:href="actorphysicssettings_8cpp_source.xhtml" target="_top" xlink:title="/home/sqeaky/Code/Mezzanine\l/Mezzanine/src/actorphysicssettings.cpp">
<polygon fill="none" stroke="black" points="913,-141 913,-173 1101,-173 1101,-141 913,-141"/>
<text text-anchor="start" x="921" y="-160" font-family="FreeSans" font-size="10.00">/home/sqeaky/Code/Mezzanine</text>
<text text-anchor="middle" x="1007" y="-148" font-family="FreeSans" font-size="10.00">/Mezzanine/src/actorphysicssettings.cpp</text>
</a>
</g>
<!-- Node1&#45;&gt;Node4 -->
<g id="edge44" class="edge"><title>Node1&#45;&gt;Node4</title>
<path fill="none" stroke="midnightblue" d="M1616.28,-294.945C1448.8,-290.23 1090.47,-276.445 1045,-244 1021.79,-227.438 1012.6,-193.53 1009.07,-173.283"/>
<polygon fill="midnightblue" stroke="midnightblue" points="1616.2,-298.444 1626.3,-295.222 1616.4,-291.446 1616.2,-298.444"/>
</g>
<!-- Node8 -->
<g id="node16" class="node"><title>Node8</title>
<a xlink:href="mezzanine_8h.xhtml" target="_top" xlink:title="A single file that includes all of the Mezzanine engine.">
<polygon fill="none" stroke="black" points="1156.5,-71 1156.5,-103 1307.5,-103 1307.5,-71 1156.5,-71"/>
<text text-anchor="start" x="1164.5" y="-90" font-family="FreeSans" font-size="10.00">/home/sqeaky/Code/Mezzanine</text>
<text text-anchor="middle" x="1232" y="-78" font-family="FreeSans" font-size="10.00">/Mezzanine/src/mezzanine.h</text>
</a>
</g>
<!-- Node1&#45;&gt;Node8 -->
<g id="edge58" class="edge"><title>Node1&#45;&gt;Node8</title>
<path fill="none" stroke="midnightblue" d="M1615.96,-293.764C1526.14,-288.701 1392.99,-275.91 1354,-244 1315.92,-212.835 1346.91,-178.292 1316,-140 1303.33,-124.301 1284.69,-111.882 1268.19,-103.023"/>
<polygon fill="midnightblue" stroke="midnightblue" points="1615.97,-297.27 1626.15,-294.316 1616.35,-290.28 1615.97,-297.27"/>
</g>
<!-- Node12 -->
<g id="node25" class="node"><title>Node12</title>
<a xlink:href="actorsoft_8h_source.xhtml" target="_top" xlink:title="/home/sqeaky/Code/Mezzanine\l/Mezzanine/src/actorsoft.h">
<polygon fill="none" stroke="black" points="1053.5,-211 1053.5,-243 1204.5,-243 1204.5,-211 1053.5,-211"/>
<text text-anchor="start" x="1061.5" y="-230" font-family="FreeSans" font-size="10.00">/home/sqeaky/Code/Mezzanine</text>
<text text-anchor="middle" x="1129" y="-218" font-family="FreeSans" font-size="10.00">/Mezzanine/src/actorsoft.h</text>
</a>
</g>
<!-- Node1&#45;&gt;Node12 -->
<g id="edge26" class="edge"><title>Node1&#45;&gt;Node12</title>
<path fill="none" stroke="midnightblue" d="M1615.98,-286.492C1504.25,-272.842 1310.94,-249.227 1204.58,-236.233"/>
<polygon fill="midnightblue" stroke="midnightblue" points="1615.86,-290.002 1626.21,-287.741 1616.7,-283.054 1615.86,-290.002"/>
</g>
<!-- Node14 -->
<g id="node32" class="node"><title>Node14</title>
<a xlink:href="actorcharacter_8h_source.xhtml" target="_top" xlink:title="/home/sqeaky/Code/Mezzanine\l/Mezzanine/src/actorcharacter.h">
<polygon fill="none" stroke="black" points="1363,-211 1363,-243 1517,-243 1517,-211 1363,-211"/>
<text text-anchor="start" x="1371" y="-230" font-family="FreeSans" font-size="10.00">/home/sqeaky/Code/Mezzanine</text>
<text text-anchor="middle" x="1440" y="-218" font-family="FreeSans" font-size="10.00">/Mezzanine/src/actorcharacter.h</text>
</a>
</g>
<!-- Node1&#45;&gt;Node14 -->
<g id="edge36" class="edge"><title>Node1&#45;&gt;Node14</title>
<path fill="none" stroke="midnightblue" d="M1632.22,-278.355C1591.11,-267.372 1539.62,-253.616 1500.28,-243.106"/>
<polygon fill="midnightblue" stroke="midnightblue" points="1631.33,-281.741 1641.89,-280.941 1633.13,-274.978 1631.33,-281.741"/>
</g>
<!-- Node16 -->
<g id="node37" class="node"><title>Node16</title>
<a xlink:href="actormanager_8cpp_source.xhtml" target="_top" xlink:title="/home/sqeaky/Code/Mezzanine\l/Mezzanine/src/actormanager.cpp">
<polygon fill="none" stroke="black" points="1534.5,-211 1534.5,-243 1695.5,-243 1695.5,-211 1534.5,-211"/>
<text text-anchor="start" x="1542.5" y="-230" font-family="FreeSans" font-size="10.00">/home/sqeaky/Code/Mezzanine</text>
<text text-anchor="middle" x="1615" y="-218" font-family="FreeSans" font-size="10.00">/Mezzanine/src/actormanager.cpp</text>
</a>
</g>
<!-- Node1&#45;&gt;Node16 -->
<g id="edge42" class="edge"><title>Node1&#45;&gt;Node16</title>
<path fill="none" stroke="midnightblue" d="M1673.85,-274.352C1661.21,-264.179 1646.58,-252.408 1635.07,-243.147"/>
<polygon fill="midnightblue" stroke="midnightblue" points="1671.84,-277.223 1681.82,-280.765 1676.22,-271.769 1671.84,-277.223"/>
</g>
<!-- Node17 -->
<g id="node40" class="node"><title>Node17</title>
<a xlink:href="vector3wactor_8h_source.xhtml" target="_top" xlink:title="/home/sqeaky/Code/Mezzanine\l/Mezzanine/src/vector3wactor.h">
<polygon fill="none" stroke="black" points="1713,-211 1713,-243 1865,-243 1865,-211 1713,-211"/>
<text text-anchor="start" x="1721" y="-230" font-family="FreeSans" font-size="10.00">/home/sqeaky/Code/Mezzanine</text>
<text text-anchor="middle" x="1789" y="-218" font-family="FreeSans" font-size="10.00">/Mezzanine/src/vector3wactor.h</text>
</a>
</g>
<!-- Node1&#45;&gt;Node17 -->
<g id="edge46" class="edge"><title>Node1&#45;&gt;Node17</title>
<path fill="none" stroke="midnightblue" d="M1730.15,-274.352C1742.79,-264.179 1757.42,-252.408 1768.93,-243.147"/>
<polygon fill="midnightblue" stroke="midnightblue" points="1727.78,-271.769 1722.18,-280.765 1732.16,-277.223 1727.78,-271.769"/>
</g>
<!-- Node20 -->
<g id="node47" class="node"><title>Node20</title>
<a xlink:href="rayquerytool_8cpp_source.xhtml" target="_top" xlink:title="/home/sqeaky/Code/Mezzanine\l/Mezzanine/src/rayquerytool.cpp">
<polygon fill="none" stroke="black" points="2181,-141 2181,-173 2335,-173 2335,-141 2181,-141"/>
<text text-anchor="start" x="2189" y="-160" font-family="FreeSans" font-size="10.00">/home/sqeaky/Code/Mezzanine</text>
<text text-anchor="middle" x="2258" y="-148" font-family="FreeSans" font-size="10.00">/Mezzanine/src/rayquerytool.cpp</text>
</a>
</g>
<!-- Node1&#45;&gt;Node20 -->
<g id="edge62" class="edge"><title>Node1&#45;&gt;Node20</title>
<path fill="none" stroke="midnightblue" d="M1787.65,-278.447C1816.21,-270.25 1847.48,-258.99 1874,-244 1893.73,-232.85 1891.44,-219.524 1912,-210 2017.86,-160.972 2056.95,-193.319 2172,-174 2174.85,-173.521 2177.75,-173.02 2180.68,-172.502"/>
<polygon fill="midnightblue" stroke="midnightblue" points="1786.37,-275.169 1777.68,-281.219 1788.25,-281.913 1786.37,-275.169"/>
</g>
<!-- Node22 -->
<g id="node52" class="node"><title>Node22</title>
<a xlink:href="eventcollision_8cpp_source.xhtml" target="_top" xlink:title="/home/sqeaky/Code/Mezzanine\l/Mezzanine/src/eventcollision.cpp">
<polygon fill="none" stroke="black" points="1921,-211 1921,-243 2081,-243 2081,-211 1921,-211"/>
<text text-anchor="start" x="1929" y="-230" font-family="FreeSans" font-size="10.00">/home/sqeaky/Code/Mezzanine</text>
<text text-anchor="middle" x="2001" y="-218" font-family="FreeSans" font-size="10.00">/Mezzanine/src/eventcollision.cpp</text>
</a>
</g>
<!-- Node1&#45;&gt;Node22 -->
<g id="edge60" class="edge"><title>Node1&#45;&gt;Node22</title>
<path fill="none" stroke="midnightblue" d="M1780.47,-278.629C1827.67,-267.58 1887.17,-253.65 1932.46,-243.045"/>
<polygon fill="midnightblue" stroke="midnightblue" points="1779.54,-275.253 1770.6,-280.941 1781.13,-282.069 1779.54,-275.253"/>
</g>
<!-- Node23 -->
<g id="node55" class="node"><title>Node23</title>
<a xlink:href="resourcemanager_8cpp_source.xhtml" target="_top" xlink:title="/home/sqeaky/Code/Mezzanine\l/Mezzanine/src/resourcemanager.cpp">
<polygon fill="none" stroke="black" points="2099,-211 2099,-243 2275,-243 2275,-211 2099,-211"/>
<text text-anchor="start" x="2107" y="-230" font-family="FreeSans" font-size="10.00">/home/sqeaky/Code/Mezzanine</text>
<text text-anchor="middle" x="2187" y="-218" font-family="FreeSans" font-size="10.00">/Mezzanine/src/resourcemanager.cpp</text>
</a>
</g>
<!-- Node1&#45;&gt;Node23 -->
<g id="edge64" class="edge"><title>Node1&#45;&gt;Node23</title>
<path fill="none" stroke="midnightblue" d="M1787.94,-286.206C1866.66,-276.095 1986.33,-260.159 2090,-244 2092.96,-243.539 2095.96,-243.062 2099,-242.573"/>
<polygon fill="midnightblue" stroke="midnightblue" points="1787.07,-282.789 1777.59,-287.532 1787.96,-289.733 1787.07,-282.789"/>
</g>
<!-- Node24 -->
<g id="node57" class="node"><title>Node24</title>
<a xlink:href="worldnode_8cpp.xhtml" target="_top" xlink:title="The implementation of the WorldNode, A class to facilitate navigation in 3d environment.">
<polygon fill="none" stroke="black" points="2292.5,-211 2292.5,-243 2443.5,-243 2443.5,-211 2292.5,-211"/>
<text text-anchor="start" x="2300.5" y="-230" font-family="FreeSans" font-size="10.00">/home/sqeaky/Code/Mezzanine</text>
<text text-anchor="middle" x="2368" y="-218" font-family="FreeSans" font-size="10.00">/Mezzanine/src/worldnode.cpp</text>
</a>
</g>
<!-- Node1&#45;&gt;Node24 -->
<g id="edge66" class="edge"><title>Node1&#45;&gt;Node24</title>
<path fill="none" stroke="midnightblue" d="M1787.69,-292.125C1901.5,-284.982 2108.59,-269.659 2284,-244 2286.65,-243.612 2289.34,-243.195 2292.06,-242.755"/>
<polygon fill="midnightblue" stroke="midnightblue" points="1787.41,-288.635 1777.65,-292.749 1787.85,-295.622 1787.41,-288.635"/>
</g>
<!-- Node25 -->
<g id="node59" class="node"><title>Node25</title>
<a xlink:href="worldobjectgraphicssettings_8cpp_source.xhtml" target="_top" xlink:title="/home/sqeaky/Code/Mezzanine\l/Mezzanine/src/worldobjectgraphicssettings.cpp">
<polygon fill="none" stroke="black" points="2461,-211 2461,-243 2681,-243 2681,-211 2461,-211"/>
<text text-anchor="start" x="2469" y="-230" font-family="FreeSans" font-size="10.00">/home/sqeaky/Code/Mezzanine</text>
<text text-anchor="middle" x="2571" y="-218" font-family="FreeSans" font-size="10.00">/Mezzanine/src/worldobjectgraphicssettings.cpp</text>
</a>
</g>
<!-- Node1&#45;&gt;Node25 -->
<g id="edge68" class="edge"><title>Node1&#45;&gt;Node25</title>
<path fill="none" stroke="midnightblue" d="M1787.94,-292.925C1927.52,-285.858 2212.04,-269.586 2452,-244 2454.91,-243.69 2457.85,-243.363 2460.82,-243.023"/>
<polygon fill="midnightblue" stroke="midnightblue" points="1787.55,-289.44 1777.74,-293.438 1787.9,-296.431 1787.55,-289.44"/>
</g>
<!-- Node26 -->
<g id="node61" class="node"><title>Node26</title>
<a xlink:href="collision_8cpp_source.xhtml" target="_top" xlink:title="/home/sqeaky/Code/Mezzanine\l/Mezzanine/src/Physics/collision.cpp">
<polygon fill="none" stroke="black" points="2698.5,-211 2698.5,-243 2871.5,-243 2871.5,-211 2698.5,-211"/>
<text text-anchor="start" x="2706.5" y="-230" font-family="FreeSans" font-size="10.00">/home/sqeaky/Code/Mezzanine</text>
<text text-anchor="middle" x="2785" y="-218" font-family="FreeSans" font-size="10.00">/Mezzanine/src/Physics/collision.cpp</text>
</a>
</g>
<!-- Node1&#45;&gt;Node26 -->
<g id="edge70" class="edge"><title>Node1&#45;&gt;Node26</title>
<path fill="none" stroke="midnightblue" d="M1787.81,-295.957C1959.62,-293.083 2357.86,-282.477 2690,-244 2692.75,-243.682 2695.53,-243.334 2698.34,-242.962"/>
<polygon fill="midnightblue" stroke="midnightblue" points="1787.51,-292.461 1777.57,-296.123 1787.62,-299.46 1787.51,-292.461"/>
</g>
<!-- Node3&#45;&gt;Node2 -->
<g id="edge6" class="edge"><title>Node3&#45;&gt;Node2</title>
<path fill="none" stroke="midnightblue" d="M721.204,-206.398C742.37,-195.815 767.791,-183.104 787.546,-173.227"/>
<polygon fill="midnightblue" stroke="midnightblue" points="719.498,-203.338 712.119,-210.941 722.628,-209.599 719.498,-203.338"/>
</g>
<!-- Node3&#45;&gt;Node4 -->
<g id="edge8" class="edge"><title>Node3&#45;&gt;Node4</title>
<path fill="none" stroke="midnightblue" d="M764.85,-208.836C816.618,-197.755 882.195,-183.717 932.046,-173.045"/>
<polygon fill="midnightblue" stroke="midnightblue" points="764.066,-205.425 755.02,-210.941 765.532,-212.27 764.066,-205.425"/>
</g>
<!-- Node5 -->
<g id="node10" class="node"><title>Node5</title>
<a xlink:href="actorrigid_8cpp_source.xhtml" target="_top" xlink:title="/home/sqeaky/Code/Mezzanine\l/Mezzanine/src/actorrigid.cpp">
<polygon fill="none" stroke="black" points="538.5,-141 538.5,-173 689.5,-173 689.5,-141 538.5,-141"/>
<text text-anchor="start" x="546.5" y="-160" font-family="FreeSans" font-size="10.00">/home/sqeaky/Code/Mezzanine</text>
<text text-anchor="middle" x="614" y="-148" font-family="FreeSans" font-size="10.00">/Mezzanine/src/actorrigid.cpp</text>
</a>
</g>
<!-- Node3&#45;&gt;Node5 -->
<g id="edge10" class="edge"><title>Node3&#45;&gt;Node5</title>
<path fill="none" stroke="midnightblue" d="M657.821,-203.476C648.422,-193.508 637.707,-182.144 629.225,-173.147"/>
<polygon fill="midnightblue" stroke="midnightblue" points="655.286,-205.89 664.692,-210.765 660.379,-201.088 655.286,-205.89"/>
</g>
<!-- Node6 -->
<g id="node12" class="node"><title>Node6</title>
<a xlink:href="actorserializer_8h.xhtml" target="_top" xlink:title="This is where the declarations of any Serializers or DeSerializers for actors will go...">
<polygon fill="none" stroke="black" points="4.5,-141 4.5,-173 155.5,-173 155.5,-141 4.5,-141"/>
<text text-anchor="start" x="12.5" y="-160" font-family="FreeSans" font-size="10.00">/home/sqeaky/Code/Mezzanine</text>
<text text-anchor="middle" x="80" y="-148" font-family="FreeSans" font-size="10.00">/Mezzanine/src/actorserializer.h</text>
</a>
</g>
<!-- Node3&#45;&gt;Node6 -->
<g id="edge12" class="edge"><title>Node3&#45;&gt;Node6</title>
<path fill="none" stroke="midnightblue" d="M594.069,-220.747C491.39,-212.682 314.566,-196.913 164,-174 161.352,-173.597 158.662,-173.167 155.947,-172.715"/>
<polygon fill="midnightblue" stroke="midnightblue" points="593.834,-224.239 604.076,-221.527 594.378,-217.261 593.834,-224.239"/>
</g>
<!-- Node3&#45;&gt;Node8 -->
<g id="edge22" class="edge"><title>Node3&#45;&gt;Node8</title>
<path fill="none" stroke="midnightblue" d="M689.139,-201.689C697.878,-181.411 713.139,-154.1 736,-140 770.943,-118.448 1026.26,-99.7447 1156.31,-91.4947"/>
<polygon fill="midnightblue" stroke="midnightblue" points="685.882,-200.408 685.368,-210.99 692.369,-203.038 685.882,-200.408"/>
</g>
<!-- Node10 -->
<g id="node20" class="node"><title>Node10</title>
<a xlink:href="areaeffect_8cpp_source.xhtml" target="_top" xlink:title="/home/sqeaky/Code/Mezzanine\l/Mezzanine/src/areaeffect.cpp">
<polygon fill="none" stroke="black" points="172.5,-141 172.5,-173 323.5,-173 323.5,-141 172.5,-141"/>
<text text-anchor="start" x="180.5" y="-160" font-family="FreeSans" font-size="10.00">/home/sqeaky/Code/Mezzanine</text>
<text text-anchor="middle" x="248" y="-148" font-family="FreeSans" font-size="10.00">/Mezzanine/src/areaeffect.cpp</text>
</a>
</g>
<!-- Node3&#45;&gt;Node10 -->
<g id="edge20" class="edge"><title>Node3&#45;&gt;Node10</title>
<path fill="none" stroke="midnightblue" d="M594.303,-215.131C523.748,-205.076 421.187,-189.807 332,-174 329.216,-173.507 326.383,-172.993 323.523,-172.464"/>
<polygon fill="midnightblue" stroke="midnightblue" points="594.082,-218.635 604.475,-216.576 595.067,-211.704 594.082,-218.635"/>
</g>
<!-- Node11 -->
<g id="node23" class="node"><title>Node11</title>
<a xlink:href="constraint_8cpp_source.xhtml" target="_top" xlink:title="/home/sqeaky/Code/Mezzanine\l/Mezzanine/src/Physics/constraint.cpp">
<polygon fill="none" stroke="black" points="341,-141 341,-173 521,-173 521,-141 341,-141"/>
<text text-anchor="start" x="349" y="-160" font-family="FreeSans" font-size="10.00">/home/sqeaky/Code/Mezzanine</text>
<text text-anchor="middle" x="431" y="-148" font-family="FreeSans" font-size="10.00">/Mezzanine/src/Physics/constraint.cpp</text>
</a>
</g>
<!-- Node3&#45;&gt;Node11 -->
<g id="edge24" class="edge"><title>Node3&#45;&gt;Node11</title>
<path fill="none" stroke="midnightblue" d="M613.184,-208.216C574.196,-197.256 525.518,-183.571 488.29,-173.106"/>
<polygon fill="midnightblue" stroke="midnightblue" points="612.3,-211.604 622.874,-210.941 614.195,-204.865 612.3,-211.604"/>
</g>
<!-- Node7 -->
<g id="node14" class="node"><title>Node7</title>
<a xlink:href="actorserializer_8cpp_source.xhtml" target="_top" xlink:title="/home/sqeaky/Code/Mezzanine\l/Mezzanine/src/actorserializer.cpp">
<polygon fill="none" stroke="black" points="-0.5,-71 -0.5,-103 160.5,-103 160.5,-71 -0.5,-71"/>
<text text-anchor="start" x="7.5" y="-90" font-family="FreeSans" font-size="10.00">/home/sqeaky/Code/Mezzanine</text>
<text text-anchor="middle" x="80" y="-78" font-family="FreeSans" font-size="10.00">/Mezzanine/src/actorserializer.cpp</text>
</a>
</g>
<!-- Node6&#45;&gt;Node7 -->
<g id="edge14" class="edge"><title>Node6&#45;&gt;Node7</title>
<path fill="none" stroke="midnightblue" d="M80,-130.508C80,-121.303 80,-111.262 80,-103.147"/>
<polygon fill="midnightblue" stroke="midnightblue" points="76.5001,-130.765 80,-140.765 83.5001,-130.765 76.5001,-130.765"/>
</g>
<!-- Node6&#45;&gt;Node8 -->
<g id="edge16" class="edge"><title>Node6&#45;&gt;Node8</title>
<path fill="none" stroke="midnightblue" d="M165.912,-139.889C375.276,-115.255 949.21,-95.7374 1156.31,-89.2765"/>
<polygon fill="midnightblue" stroke="midnightblue" points="165.426,-136.422 155.922,-141.104 166.271,-143.371 165.426,-136.422"/>
</g>
<!-- Node9 -->
<g id="node18" class="node"><title>Node9</title>
<a xlink:href="entresol_8cpp_source.xhtml" target="_top" xlink:title="/home/sqeaky/Code/Mezzanine\l/Mezzanine/src/entresol.cpp">
<polygon fill="none" stroke="black" points="1156.5,-1 1156.5,-33 1307.5,-33 1307.5,-1 1156.5,-1"/>
<text text-anchor="start" x="1164.5" y="-20" font-family="FreeSans" font-size="10.00">/home/sqeaky/Code/Mezzanine</text>
<text text-anchor="middle" x="1232" y="-8" font-family="FreeSans" font-size="10.00">/Mezzanine/src/entresol.cpp</text>
</a>
</g>
<!-- Node8&#45;&gt;Node9 -->
<g id="edge18" class="edge"><title>Node8&#45;&gt;Node9</title>
<path fill="none" stroke="midnightblue" d="M1232,-60.5079C1232,-51.3027 1232,-41.2615 1232,-33.1473"/>
<polygon fill="midnightblue" stroke="midnightblue" points="1228.5,-60.7646 1232,-70.7646 1235.5,-60.7647 1228.5,-60.7646"/>
</g>
<!-- Node12&#45;&gt;Node2 -->
<g id="edge28" class="edge"><title>Node12&#45;&gt;Node2</title>
<path fill="none" stroke="midnightblue" d="M1048.21,-208.698C999.388,-197.638 937.739,-183.672 890.828,-173.045"/>
<polygon fill="midnightblue" stroke="midnightblue" points="1047.58,-212.145 1058.11,-210.941 1049.13,-205.318 1047.58,-212.145"/>
</g>
<!-- Node12&#45;&gt;Node4 -->
<g id="edge30" class="edge"><title>Node12&#45;&gt;Node4</title>
<path fill="none" stroke="midnightblue" d="M1091.85,-205.683C1073.66,-195.246 1052.11,-182.883 1035.28,-173.227"/>
<polygon fill="midnightblue" stroke="midnightblue" points="1090.6,-209 1101.01,-210.941 1094.08,-202.928 1090.6,-209"/>
</g>
<!-- Node12&#45;&gt;Node8 -->
<g id="edge34" class="edge"><title>Node12&#45;&gt;Node8</title>
<path fill="none" stroke="midnightblue" d="M1129.5,-200.688C1131.03,-182.233 1135.54,-157.778 1148,-140 1159.19,-124.045 1176.86,-111.849 1193.12,-103.202"/>
<polygon fill="midnightblue" stroke="midnightblue" points="1126,-200.577 1128.91,-210.766 1132.99,-200.989 1126,-200.577"/>
</g>
<!-- Node13 -->
<g id="node29" class="node"><title>Node13</title>
<a xlink:href="actorsoft_8cpp_source.xhtml" target="_top" xlink:title="/home/sqeaky/Code/Mezzanine\l/Mezzanine/src/actorsoft.cpp">
<polygon fill="none" stroke="black" points="1156.5,-141 1156.5,-173 1307.5,-173 1307.5,-141 1156.5,-141"/>
<text text-anchor="start" x="1164.5" y="-160" font-family="FreeSans" font-size="10.00">/home/sqeaky/Code/Mezzanine</text>
<text text-anchor="middle" x="1232" y="-148" font-family="FreeSans" font-size="10.00">/Mezzanine/src/actorsoft.cpp</text>
</a>
</g>
<!-- Node12&#45;&gt;Node13 -->
<g id="edge32" class="edge"><title>Node12&#45;&gt;Node13</title>
<path fill="none" stroke="midnightblue" d="M1161.21,-205.107C1176.39,-194.793 1194.18,-182.706 1208.12,-173.227"/>
<polygon fill="midnightblue" stroke="midnightblue" points="1158.93,-202.425 1152.63,-210.941 1162.87,-208.214 1158.93,-202.425"/>
</g>
<!-- Node14&#45;&gt;Node8 -->
<g id="edge40" class="edge"><title>Node14&#45;&gt;Node8</title>
<path fill="none" stroke="midnightblue" d="M1500.12,-206.385C1514.34,-198.534 1527.75,-187.985 1536,-174 1543.68,-160.986 1545.72,-151.566 1536,-140 1507.38,-105.964 1388.06,-93.7837 1307.69,-89.4259"/>
<polygon fill="midnightblue" stroke="midnightblue" points="1498.52,-203.271 1491.2,-210.931 1501.7,-209.507 1498.52,-203.271"/>
</g>
<!-- Node15 -->
<g id="node34" class="node"><title>Node15</title>
<a xlink:href="actorcharacter_8cpp_source.xhtml" target="_top" xlink:title="/home/sqeaky/Code/Mezzanine\l/Mezzanine/src/actorcharacter.cpp">
<polygon fill="none" stroke="black" points="1363,-141 1363,-173 1527,-173 1527,-141 1363,-141"/>
<text text-anchor="start" x="1371" y="-160" font-family="FreeSans" font-size="10.00">/home/sqeaky/Code/Mezzanine</text>
<text text-anchor="middle" x="1445" y="-148" font-family="FreeSans" font-size="10.00">/Mezzanine/src/actorcharacter.cpp</text>
</a>
</g>
<!-- Node14&#45;&gt;Node15 -->
<g id="edge38" class="edge"><title>Node14&#45;&gt;Node15</title>
<path fill="none" stroke="midnightblue" d="M1441.89,-200.508C1442.55,-191.303 1443.27,-181.262 1443.85,-173.147"/>
<polygon fill="midnightblue" stroke="midnightblue" points="1438.38,-200.541 1441.16,-210.765 1445.36,-201.039 1438.38,-200.541"/>
</g>
<!-- Node17&#45;&gt;Node8 -->
<g id="edge50" class="edge"><title>Node17&#45;&gt;Node8</title>
<path fill="none" stroke="midnightblue" d="M1712.48,-208.269C1680.8,-199.445 1644.04,-187.805 1612,-174 1584.21,-162.023 1581.5,-150.184 1553,-140 1472.02,-111.061 1373.82,-97.7976 1307.53,-91.8"/>
<polygon fill="midnightblue" stroke="midnightblue" points="1711.57,-211.649 1722.14,-210.916 1713.42,-204.898 1711.57,-211.649"/>
</g>
<!-- Node18 -->
<g id="node42" class="node"><title>Node18</title>
<a xlink:href="cameracontroller_8cpp_source.xhtml" target="_top" xlink:title="/home/sqeaky/Code/Mezzanine\l/Mezzanine/src/cameracontroller.cpp">
<polygon fill="none" stroke="black" points="1621,-141 1621,-173 1795,-173 1795,-141 1621,-141"/>
<text text-anchor="start" x="1629" y="-160" font-family="FreeSans" font-size="10.00">/home/sqeaky/Code/Mezzanine</text>
<text text-anchor="middle" x="1708" y="-148" font-family="FreeSans" font-size="10.00">/Mezzanine/src/cameracontroller.cpp</text>
</a>
</g>
<!-- Node17&#45;&gt;Node18 -->
<g id="edge48" class="edge"><title>Node17&#45;&gt;Node18</title>
<path fill="none" stroke="midnightblue" d="M1762.46,-204.061C1750.76,-193.955 1737.3,-182.32 1726.68,-173.147"/>
<polygon fill="midnightblue" stroke="midnightblue" points="1760.36,-206.874 1770.21,-210.765 1764.94,-201.578 1760.36,-206.874"/>
</g>
<!-- Node19 -->
<g id="node45" class="node"><title>Node19</title>
<a xlink:href="physicsmanager_8cpp_source.xhtml" target="_top" xlink:title="/home/sqeaky/Code/Mezzanine\l/Mezzanine/src/physicsmanager.cpp">
<polygon fill="none" stroke="black" points="1812.5,-141 1812.5,-173 1983.5,-173 1983.5,-141 1812.5,-141"/>
<text text-anchor="start" x="1820.5" y="-160" font-family="FreeSans" font-size="10.00">/home/sqeaky/Code/Mezzanine</text>
<text text-anchor="middle" x="1898" y="-148" font-family="FreeSans" font-size="10.00">/Mezzanine/src/physicsmanager.cpp</text>
</a>
</g>
<!-- Node17&#45;&gt;Node19 -->
<g id="edge52" class="edge"><title>Node17&#45;&gt;Node19</title>
<path fill="none" stroke="midnightblue" d="M1822.64,-205.395C1838.8,-195.02 1857.83,-182.794 1872.73,-173.227"/>
<polygon fill="midnightblue" stroke="midnightblue" points="1820.53,-202.592 1814.01,-210.941 1824.31,-208.482 1820.53,-202.592"/>
</g>
<!-- Node17&#45;&gt;Node20 -->
<g id="edge54" class="edge"><title>Node17&#45;&gt;Node20</title>
<path fill="none" stroke="midnightblue" d="M1875.13,-210.612C1876.43,-210.404 1877.72,-210.2 1879,-210 2008.64,-189.814 2042.45,-194.735 2172,-174 2174.86,-173.543 2177.76,-173.06 2180.69,-172.558"/>
<polygon fill="midnightblue" stroke="midnightblue" points="1874.34,-207.194 1865.05,-212.279 1875.49,-214.1 1874.34,-207.194"/>
</g>
<!-- Node21 -->
<g id="node49" class="node"><title>Node21</title>
<a xlink:href="vector3wactor_8cpp_source.xhtml" target="_top" xlink:title="/home/sqeaky/Code/Mezzanine\l/Mezzanine/src/vector3wactor.cpp">
<polygon fill="none" stroke="black" points="2001,-141 2001,-173 2163,-173 2163,-141 2001,-141"/>
<text text-anchor="start" x="2009" y="-160" font-family="FreeSans" font-size="10.00">/home/sqeaky/Code/Mezzanine</text>
<text text-anchor="middle" x="2082" y="-148" font-family="FreeSans" font-size="10.00">/Mezzanine/src/vector3wactor.cpp</text>
</a>
</g>
<!-- Node17&#45;&gt;Node21 -->
<g id="edge56" class="edge"><title>Node17&#45;&gt;Node21</title>
<path fill="none" stroke="midnightblue" d="M1866.19,-208.559C1912.39,-197.521 1970.54,-183.628 2014.84,-173.045"/>
<polygon fill="midnightblue" stroke="midnightblue" points="1865.13,-205.213 1856.22,-210.941 1866.76,-212.021 1865.13,-205.213"/>
</g>
</g>
</svg>
