<?xml version="1.0" encoding="UTF-8" standalone="no"?>
<!DOCTYPE svg PUBLIC "-//W3C//DTD SVG 1.1//EN"
 "http://www.w3.org/Graphics/SVG/1.1/DTD/svg11.dtd">
<!-- Generated by graphviz version 2.26.3 (20100126.1600)
 -->
<!-- Title: /home/sqeaky/Projects/MezzanineCurrent/Mezzanine/Mezzanine/src/actorserializer.h Pages: 1 -->
<svg width="158pt" height="136pt"
 viewBox="0.00 0.00 158.00 136.00" xmlns="http://www.w3.org/2000/svg" xmlns:xlink="http://www.w3.org/1999/xlink">
<g id="graph1" class="graph" transform="scale(1 1) rotate(0) translate(4 132)">
<title>/home/sqeaky/Projects/MezzanineCurrent/Mezzanine/Mezzanine/src/actorserializer.h</title>
<polygon fill="white" stroke="white" points="-4,5 -4,-132 155,-132 155,5 -4,5"/>
<!-- Node1 -->
<g id="node1" class="node"><title>Node1</title>
<polygon fill="#bfbfbf" stroke="black" points="-0.5,-83 -0.5,-127 150.5,-127 150.5,-83 -0.5,-83"/>
<text text-anchor="start" x="7.5" y="-114" font-family="FreeSans" font-size="10.00">/home/sqeaky/Projects</text>
<text text-anchor="start" x="7.5" y="-102" font-family="FreeSans" font-size="10.00">/MezzanineCurrent/Mezzanine</text>
<text text-anchor="middle" x="75" y="-90" font-family="FreeSans" font-size="10.00">/Mezzanine/src/actorserializer.h</text>
</g>
<!-- Node2 -->
<g id="node3" class="node"><title>Node2</title>
<a xlink:href="mezzanine_8h.html" target="_top" xlink:title="A single file that includes all of the Mezzanine engine.">
<polygon fill="white" stroke="black" points="2,-1 2,-45 148,-45 148,-1 2,-1"/>
<text text-anchor="start" x="10" y="-32" font-family="FreeSans" font-size="10.00">/home/sqeaky/Projects</text>
<text text-anchor="start" x="10" y="-20" font-family="FreeSans" font-size="10.00">/MezzanineCurrent/Mezzanine</text>
<text text-anchor="middle" x="75" y="-8" font-family="FreeSans" font-size="10.00">/Mezzanine/src/mezzanine.h</text>
</a>
</g>
<!-- Node1&#45;&gt;Node2 -->
<g id="edge2" class="edge"><title>Node1&#45;&gt;Node2</title>
<path fill="none" stroke="midnightblue" d="M75,-72.5577C75,-63.3493 75,-53.5381 75,-45.0959"/>
<polygon fill="midnightblue" stroke="midnightblue" points="71.5001,-72.5931 75,-82.5931 78.5001,-72.5932 71.5001,-72.5931"/>
</g>
</g>
</svg>
