<?xml version="1.0" encoding="UTF-8" standalone="no"?>
<!DOCTYPE svg PUBLIC "-//W3C//DTD SVG 1.1//EN"
 "http://www.w3.org/Graphics/SVG/1.1/DTD/svg11.dtd">
<!-- Generated by graphviz version 2.26.3 (20100126.1600)
 -->
<!-- Title: /home/sqeaky/Code/Mezzanine/Mezzanine/src/attachable.h Pages: 1 -->
<!--zoomable 392 -->
<svg id="main" version="1.1" xmlns="http://www.w3.org/2000/svg" xmlns:xlink="http://www.w3.org/1999/xlink" xml:space="preserve" onload="init(evt)">
        <defs>
                <circle id="rim" cx="0" cy="0" r="7"/>
                <circle id="rim2" cx="0" cy="0" r="3.5"/>
                <g id="zoomPlus">
                        <use xlink:href="#rim" fill="#404040">
                                <set attributeName="fill" to="#808080" begin="zoomplus.mouseover" end="zoomplus.mouseout"/>
                        </use>
                        <path d="M-4,0h8M0,-4v8" fill="none" stroke="white" stroke-width="1.5" pointer-events="none"/>
                </g>
                <g id="zoomMin">
                        <use xlink:href="#rim" fill="#404040">
                                <set attributeName="fill" to="#808080" begin="zoomminus.mouseover" end="zoomminus.mouseout"/>
                        </use>
                        <path d="M-4,0h8" fill="none" stroke="white" stroke-width="1.5" pointer-events="none"/>
                </g>
                <g id="dirArrow">
                        <path fill="none" stroke="white" stroke-width="1.5" d="M0,-3.0v7 M-2.5,-0.5L0,-3.0L2.5,-0.5"/>
                </g>
               <g id="resetDef">
                       <use xlink:href="#rim2" fill="#404040">
                               <set attributeName="fill" to="#808080" begin="reset.mouseover" end="reset.mouseout"/>
                       </use>
               </g>
        </defs>

<script type="text/javascript">
var viewWidth = 1339;
var viewHeight = 392;
var sectionId = 'dynsection-1';
</script>
<script xlink:href="svgpan.js"/>
<svg id="graph" class="graph">
<g id="viewport">
<title>/home/sqeaky/Code/Mezzanine/Mezzanine/src/attachable.h</title>
<!-- Node1 -->
<g id="node1" class="node"><title>Node1</title>
<polygon fill="#bfbfbf" stroke="black" points="737.5,-351 737.5,-383 888.5,-383 888.5,-351 737.5,-351"/>
<text text-anchor="start" x="745.5" y="-370" font-family="FreeSans" font-size="10.00">/home/sqeaky/Code/Mezzanine</text>
<text text-anchor="middle" x="813" y="-358" font-family="FreeSans" font-size="10.00">/Mezzanine/src/attachable.h</text>
</g>
<!-- Node2 -->
<g id="node3" class="node"><title>Node2</title>
<a xlink:href="worldnode_8h.xhtml" target="_top" xlink:title="The declaration of the WorldNode, A class to facilitate navigation in 3d environment.">
<polygon fill="none" stroke="black" points="204.5,-281 204.5,-313 355.5,-313 355.5,-281 204.5,-281"/>
<text text-anchor="start" x="212.5" y="-300" font-family="FreeSans" font-size="10.00">/home/sqeaky/Code/Mezzanine</text>
<text text-anchor="middle" x="280" y="-288" font-family="FreeSans" font-size="10.00">/Mezzanine/src/worldnode.h</text>
</a>
</g>
<!-- Node1&#45;&gt;Node2 -->
<g id="edge2" class="edge"><title>Node1&#45;&gt;Node2</title>
<path fill="none" stroke="midnightblue" d="M727.445,-355.764C624.648,-342.263 453.788,-319.824 355.626,-306.932"/>
<polygon fill="midnightblue" stroke="midnightblue" points="727.112,-359.25 737.483,-357.082 728.023,-352.31 727.112,-359.25"/>
</g>
<!-- Node5 -->
<g id="node9" class="node"><title>Node5</title>
<a xlink:href="mezzanine_8h.xhtml" target="_top" xlink:title="A single file that includes all of the Mezzanine engine.">
<polygon fill="none" stroke="black" points="505.5,-1 505.5,-33 656.5,-33 656.5,-1 505.5,-1"/>
<text text-anchor="start" x="513.5" y="-20" font-family="FreeSans" font-size="10.00">/home/sqeaky/Code/Mezzanine</text>
<text text-anchor="middle" x="581" y="-8" font-family="FreeSans" font-size="10.00">/Mezzanine/src/mezzanine.h</text>
</a>
</g>
<!-- Node1&#45;&gt;Node5 -->
<g id="edge62" class="edge"><title>Node1&#45;&gt;Node5</title>
<path fill="none" stroke="midnightblue" d="M726.808,-364.711C571.632,-359.838 251.491,-346.142 145,-314 73.0514,-292.284 0,-302.154 0,-227 0,-227 0,-227 0,-157 0,-106.238 29.0935,-93.6686 74,-70 147.007,-31.5207 382.723,-20.978 505.329,-18.0897"/>
<polygon fill="midnightblue" stroke="midnightblue" points="727.136,-368.223 737.239,-365.033 727.352,-361.226 727.136,-368.223"/>
</g>
<!-- Node10 -->
<g id="node24" class="node"><title>Node10</title>
<a xlink:href="camera_8h.xhtml" target="_top" xlink:title="Declaration of the Mezzanine::Camera class.">
<polygon fill="none" stroke="black" points="27.5,-211 27.5,-243 178.5,-243 178.5,-211 27.5,-211"/>
<text text-anchor="start" x="35.5" y="-230" font-family="FreeSans" font-size="10.00">/home/sqeaky/Code/Mezzanine</text>
<text text-anchor="middle" x="103" y="-218" font-family="FreeSans" font-size="10.00">/Mezzanine/src/camera.h</text>
</a>
</g>
<!-- Node1&#45;&gt;Node10 -->
<g id="edge52" class="edge"><title>Node1&#45;&gt;Node10</title>
<path fill="none" stroke="midnightblue" d="M727.33,-362.754C569.226,-354.462 243.333,-335.074 196,-314 160.856,-298.353 130.522,-263.784 114.695,-243.244"/>
<polygon fill="midnightblue" stroke="midnightblue" points="727.328,-366.259 737.497,-363.284 727.692,-359.268 727.328,-366.259"/>
</g>
<!-- Node11 -->
<g id="node28" class="node"><title>Node11</title>
<a xlink:href="worldobject_8h_source.xhtml" target="_top" xlink:title="/home/sqeaky/Code/Mezzanine\l/Mezzanine/src/worldobject.h">
<polygon fill="none" stroke="black" points="737.5,-281 737.5,-313 888.5,-313 888.5,-281 737.5,-281"/>
<text text-anchor="start" x="745.5" y="-300" font-family="FreeSans" font-size="10.00">/home/sqeaky/Code/Mezzanine</text>
<text text-anchor="middle" x="813" y="-288" font-family="FreeSans" font-size="10.00">/Mezzanine/src/worldobject.h</text>
</a>
</g>
<!-- Node1&#45;&gt;Node11 -->
<g id="edge34" class="edge"><title>Node1&#45;&gt;Node11</title>
<path fill="none" stroke="midnightblue" d="M813,-340.508C813,-331.303 813,-321.262 813,-313.147"/>
<polygon fill="midnightblue" stroke="midnightblue" points="809.5,-340.765 813,-350.765 816.5,-340.765 809.5,-340.765"/>
</g>
<!-- Node15 -->
<g id="node42" class="node"><title>Node15</title>
<a xlink:href="entity_8h_source.xhtml" target="_top" xlink:title="/home/sqeaky/Code/Mezzanine\l/Mezzanine/src/entity.h">
<polygon fill="none" stroke="black" points="974.5,-211 974.5,-243 1125.5,-243 1125.5,-211 974.5,-211"/>
<text text-anchor="start" x="982.5" y="-230" font-family="FreeSans" font-size="10.00">/home/sqeaky/Code/Mezzanine</text>
<text text-anchor="middle" x="1050" y="-218" font-family="FreeSans" font-size="10.00">/Mezzanine/src/entity.h</text>
</a>
</g>
<!-- Node1&#45;&gt;Node15 -->
<g id="edge54" class="edge"><title>Node1&#45;&gt;Node15</title>
<path fill="none" stroke="midnightblue" d="M848.952,-345.763C896.677,-317.571 979.902,-268.408 1022.77,-243.088"/>
<polygon fill="midnightblue" stroke="midnightblue" points="847.017,-342.841 840.187,-350.94 850.577,-348.868 847.017,-342.841"/>
</g>
<!-- Node16 -->
<g id="node45" class="node"><title>Node16</title>
<a xlink:href="light_8h.xhtml" target="_top" xlink:title="Declaration of Mezzanine::Light.">
<polygon fill="none" stroke="black" points="1077.5,-141 1077.5,-173 1228.5,-173 1228.5,-141 1077.5,-141"/>
<text text-anchor="start" x="1085.5" y="-160" font-family="FreeSans" font-size="10.00">/home/sqeaky/Code/Mezzanine</text>
<text text-anchor="middle" x="1153" y="-148" font-family="FreeSans" font-size="10.00">/Mezzanine/src/light.h</text>
</a>
</g>
<!-- Node1&#45;&gt;Node16 -->
<g id="edge58" class="edge"><title>Node1&#45;&gt;Node16</title>
<path fill="none" stroke="midnightblue" d="M898.786,-356.808C972.023,-343.49 1074.65,-313.057 1134,-244 1151.13,-224.068 1153.89,-192.243 1153.81,-173.11"/>
<polygon fill="midnightblue" stroke="midnightblue" points="897.904,-353.409 888.655,-358.576 899.108,-360.305 897.904,-353.409"/>
</g>
<!-- Node17 -->
<g id="node49" class="node"><title>Node17</title>
<a xlink:href="particleeffect_8h.xhtml" target="_top" xlink:title="Contains the declaration of the ParticleEffect class.">
<polygon fill="none" stroke="black" points="1180.5,-281 1180.5,-313 1331.5,-313 1331.5,-281 1180.5,-281"/>
<text text-anchor="start" x="1188.5" y="-300" font-family="FreeSans" font-size="10.00">/home/sqeaky/Code/Mezzanine</text>
<text text-anchor="middle" x="1256" y="-288" font-family="FreeSans" font-size="10.00">/Mezzanine/src/particleeffect.h</text>
</a>
</g>
<!-- Node1&#45;&gt;Node17 -->
<g id="edge64" class="edge"><title>Node1&#45;&gt;Node17</title>
<path fill="none" stroke="midnightblue" d="M898.66,-355.157C970.45,-344.996 1075.58,-329.568 1167,-314 1171.34,-313.261 1175.8,-312.48 1180.29,-311.675"/>
<polygon fill="midnightblue" stroke="midnightblue" points="898.168,-351.691 888.756,-356.555 899.147,-358.623 898.168,-351.691"/>
</g>
<!-- Node3 -->
<g id="node5" class="node"><title>Node3</title>
<a xlink:href="actorbase_8h.xhtml" target="_top" xlink:title="The base class for all Actors is defined here.">
<polygon fill="none" stroke="black" points="278.5,-211 278.5,-243 429.5,-243 429.5,-211 278.5,-211"/>
<text text-anchor="start" x="286.5" y="-230" font-family="FreeSans" font-size="10.00">/home/sqeaky/Code/Mezzanine</text>
<text text-anchor="middle" x="354" y="-218" font-family="FreeSans" font-size="10.00">/Mezzanine/src/actorbase.h</text>
</a>
</g>
<!-- Node2&#45;&gt;Node3 -->
<g id="edge4" class="edge"><title>Node2&#45;&gt;Node3</title>
<path fill="none" stroke="midnightblue" d="M304.558,-273.769C315.17,-263.731 327.326,-252.232 336.93,-243.147"/>
<polygon fill="midnightblue" stroke="midnightblue" points="302.023,-271.35 297.163,-280.765 306.833,-276.435 302.023,-271.35"/>
</g>
<!-- Node2&#45;&gt;Node5 -->
<g id="edge32" class="edge"><title>Node2&#45;&gt;Node5</title>
<path fill="none" stroke="midnightblue" d="M257.565,-273.429C239.441,-255.046 212.792,-229.455 187,-210 162.173,-191.273 142.322,-201.062 127,-174 103.107,-131.801 120.752,-98.4813 160,-70 187.352,-50.1515 391.801,-31.5264 505.409,-22.569"/>
<polygon fill="midnightblue" stroke="midnightblue" points="255.294,-276.114 264.783,-280.828 260.304,-271.226 255.294,-276.114"/>
</g>
<!-- Node2&#45;&gt;Node10 -->
<g id="edge28" class="edge"><title>Node2&#45;&gt;Node10</title>
<path fill="none" stroke="midnightblue" d="M230.02,-277.234C202.744,-266.447 169.403,-253.261 143.725,-243.106"/>
<polygon fill="midnightblue" stroke="midnightblue" points="228.806,-280.518 239.393,-280.941 231.381,-274.008 228.806,-280.518"/>
</g>
<!-- Node4 -->
<g id="node7" class="node"><title>Node4</title>
<a xlink:href="actorcharacter_8h_source.xhtml" target="_top" xlink:title="/home/sqeaky/Code/Mezzanine\l/Mezzanine/src/actorcharacter.h">
<polygon fill="none" stroke="black" points="212,-71 212,-103 366,-103 366,-71 212,-71"/>
<text text-anchor="start" x="220" y="-90" font-family="FreeSans" font-size="10.00">/home/sqeaky/Code/Mezzanine</text>
<text text-anchor="middle" x="289" y="-78" font-family="FreeSans" font-size="10.00">/Mezzanine/src/actorcharacter.h</text>
</a>
</g>
<!-- Node3&#45;&gt;Node4 -->
<g id="edge6" class="edge"><title>Node3&#45;&gt;Node4</title>
<path fill="none" stroke="midnightblue" d="M349.578,-200.959C345.902,-183.149 339.681,-159.355 330,-140 323.235,-126.474 312.768,-113.018 304.103,-103.049"/>
<polygon fill="midnightblue" stroke="midnightblue" points="346.17,-201.771 351.501,-210.927 353.043,-200.445 346.17,-201.771"/>
</g>
<!-- Node3&#45;&gt;Node5 -->
<g id="edge22" class="edge"><title>Node3&#45;&gt;Node5</title>
<path fill="none" stroke="midnightblue" d="M342.729,-201.552C333.059,-182.31 317.448,-156.477 297,-140 262.165,-111.93 228.353,-140.859 203,-104 194.436,-91.5498 193.084,-81.4029 203,-70 222.513,-47.5601 400.503,-30.5316 505.137,-22.3583"/>
<polygon fill="midnightblue" stroke="midnightblue" points="339.624,-203.172 347.116,-210.663 345.931,-200.134 339.624,-203.172"/>
</g>
<!-- Node6 -->
<g id="node11" class="node"><title>Node6</title>
<a xlink:href="actorrigid_8h_source.xhtml" target="_top" xlink:title="/home/sqeaky/Code/Mezzanine\l/Mezzanine/src/actorrigid.h">
<polygon fill="none" stroke="black" points="381.5,-141 381.5,-173 532.5,-173 532.5,-141 381.5,-141"/>
<text text-anchor="start" x="389.5" y="-160" font-family="FreeSans" font-size="10.00">/home/sqeaky/Code/Mezzanine</text>
<text text-anchor="middle" x="457" y="-148" font-family="FreeSans" font-size="10.00">/Mezzanine/src/actorrigid.h</text>
</a>
</g>
<!-- Node3&#45;&gt;Node6 -->
<g id="edge10" class="edge"><title>Node3&#45;&gt;Node6</title>
<path fill="none" stroke="midnightblue" d="M386.215,-205.107C401.39,-194.793 419.176,-182.706 433.123,-173.227"/>
<polygon fill="midnightblue" stroke="midnightblue" points="383.934,-202.425 377.63,-210.941 387.868,-208.214 383.934,-202.425"/>
</g>
<!-- Node8 -->
<g id="node17" class="node"><title>Node8</title>
<a xlink:href="actorsoft_8h_source.xhtml" target="_top" xlink:title="/home/sqeaky/Code/Mezzanine\l/Mezzanine/src/actorsoft.h">
<polygon fill="none" stroke="black" points="589.5,-71 589.5,-103 740.5,-103 740.5,-71 589.5,-71"/>
<text text-anchor="start" x="597.5" y="-90" font-family="FreeSans" font-size="10.00">/home/sqeaky/Code/Mezzanine</text>
<text text-anchor="middle" x="665" y="-78" font-family="FreeSans" font-size="10.00">/Mezzanine/src/actorsoft.h</text>
</a>
</g>
<!-- Node3&#45;&gt;Node8 -->
<g id="edge18" class="edge"><title>Node3&#45;&gt;Node8</title>
<path fill="none" stroke="midnightblue" d="M439.766,-209.13C472.35,-200.697 509.242,-189.106 541,-174 581.609,-154.683 623.294,-122.355 646.498,-103.016"/>
<polygon fill="midnightblue" stroke="midnightblue" points="438.642,-205.805 429.803,-211.647 440.356,-212.591 438.642,-205.805"/>
</g>
<!-- Node9 -->
<g id="node21" class="node"><title>Node9</title>
<a xlink:href="vector3wactor_8h_source.xhtml" target="_top" xlink:title="/home/sqeaky/Code/Mezzanine\l/Mezzanine/src/vector3wactor.h">
<polygon fill="none" stroke="black" points="136,-141 136,-173 288,-173 288,-141 136,-141"/>
<text text-anchor="start" x="144" y="-160" font-family="FreeSans" font-size="10.00">/home/sqeaky/Code/Mezzanine</text>
<text text-anchor="middle" x="212" y="-148" font-family="FreeSans" font-size="10.00">/Mezzanine/src/vector3wactor.h</text>
</a>
</g>
<!-- Node3&#45;&gt;Node9 -->
<g id="edge24" class="edge"><title>Node3&#45;&gt;Node9</title>
<path fill="none" stroke="midnightblue" d="M312.207,-206.398C290.739,-195.815 264.955,-183.104 244.918,-173.227"/>
<polygon fill="midnightblue" stroke="midnightblue" points="310.905,-209.658 321.422,-210.941 314,-203.38 310.905,-209.658"/>
</g>
<!-- Node4&#45;&gt;Node5 -->
<g id="edge8" class="edge"><title>Node4&#45;&gt;Node5</title>
<path fill="none" stroke="midnightblue" d="M365.924,-68.5594C411.968,-57.5214 469.923,-43.628 514.069,-33.0452"/>
<polygon fill="midnightblue" stroke="midnightblue" points="364.899,-65.2057 355.991,-70.9406 366.531,-72.0129 364.899,-65.2057"/>
</g>
<!-- Node6&#45;&gt;Node5 -->
<g id="edge16" class="edge"><title>Node6&#45;&gt;Node5</title>
<path fill="none" stroke="midnightblue" d="M431.259,-133.373C414.588,-115.163 398.464,-89.8276 413,-70 424.528,-54.2758 466.245,-41.0676 505.221,-31.7698"/>
<polygon fill="midnightblue" stroke="midnightblue" points="428.881,-135.949 438.349,-140.704 433.913,-131.083 428.881,-135.949"/>
</g>
<!-- Node7 -->
<g id="node13" class="node"><title>Node7</title>
<a xlink:href="actorserializer_8h.xhtml" target="_top" xlink:title="This is where the declarations of any Serializers or DeSerializers for actors will go...">
<polygon fill="none" stroke="black" points="421.5,-71 421.5,-103 572.5,-103 572.5,-71 421.5,-71"/>
<text text-anchor="start" x="429.5" y="-90" font-family="FreeSans" font-size="10.00">/home/sqeaky/Code/Mezzanine</text>
<text text-anchor="middle" x="497" y="-78" font-family="FreeSans" font-size="10.00">/Mezzanine/src/actorserializer.h</text>
</a>
</g>
<!-- Node6&#45;&gt;Node7 -->
<g id="edge12" class="edge"><title>Node6&#45;&gt;Node7</title>
<path fill="none" stroke="midnightblue" d="M471.285,-132.001C476.772,-122.4 482.884,-111.703 487.773,-103.147"/>
<polygon fill="midnightblue" stroke="midnightblue" points="468.2,-130.346 466.277,-140.765 474.278,-133.819 468.2,-130.346"/>
</g>
<!-- Node7&#45;&gt;Node5 -->
<g id="edge14" class="edge"><title>Node7&#45;&gt;Node5</title>
<path fill="none" stroke="midnightblue" d="M524.177,-64.3523C536.385,-54.1788 550.51,-42.4081 561.623,-33.1473"/>
<polygon fill="midnightblue" stroke="midnightblue" points="521.924,-61.674 516.482,-70.7646 526.405,-67.0516 521.924,-61.674"/>
</g>
<!-- Node8&#45;&gt;Node5 -->
<g id="edge20" class="edge"><title>Node8&#45;&gt;Node5</title>
<path fill="none" stroke="midnightblue" d="M637.823,-64.3523C625.615,-54.1788 611.49,-42.4081 600.377,-33.1473"/>
<polygon fill="midnightblue" stroke="midnightblue" points="635.595,-67.0516 645.518,-70.7646 640.076,-61.674 635.595,-67.0516"/>
</g>
<!-- Node9&#45;&gt;Node5 -->
<g id="edge26" class="edge"><title>Node9&#45;&gt;Node5</title>
<path fill="none" stroke="midnightblue" d="M186.787,-133.184C169.984,-114.453 153.719,-88.515 170,-70 191.735,-45.2821 392.417,-28.82 505.102,-21.4414"/>
<polygon fill="midnightblue" stroke="midnightblue" points="184.511,-135.871 193.927,-140.728 189.595,-131.059 184.511,-135.871"/>
</g>
<!-- Node10&#45;&gt;Node5 -->
<g id="edge30" class="edge"><title>Node10&#45;&gt;Node5</title>
<path fill="none" stroke="midnightblue" d="M91.6416,-201.4C78.3059,-166.956 61.8095,-105.884 94,-70 120.941,-39.9685 375.499,-25.3385 505.448,-19.7776"/>
<polygon fill="midnightblue" stroke="midnightblue" points="88.4423,-202.824 95.4485,-210.772 94.9276,-200.19 88.4423,-202.824"/>
</g>
<!-- Node11&#45;&gt;Node3 -->
<g id="edge36" class="edge"><title>Node11&#45;&gt;Node3</title>
<path fill="none" stroke="midnightblue" d="M727.514,-283.963C641.936,-270.912 511.526,-251.024 429.614,-238.532"/>
<polygon fill="midnightblue" stroke="midnightblue" points="727.049,-287.432 737.463,-285.48 728.105,-280.512 727.049,-287.432"/>
</g>
<!-- Node11&#45;&gt;Node5 -->
<g id="edge50" class="edge"><title>Node11&#45;&gt;Node5</title>
<path fill="none" stroke="midnightblue" d="M848.322,-275.182C911.792,-233.37 1033.07,-139.908 972,-70 951.607,-46.6558 764.593,-29.8274 656.764,-21.9707"/>
<polygon fill="midnightblue" stroke="midnightblue" points="846.256,-272.35 839.775,-280.731 850.068,-278.221 846.256,-272.35"/>
</g>
<!-- Node12 -->
<g id="node31" class="node"><title>Node12</title>
<a xlink:href="areaeffect_8h_source.xhtml" target="_top" xlink:title="/home/sqeaky/Code/Mezzanine\l/Mezzanine/src/areaeffect.h">
<polygon fill="none" stroke="black" points="692.5,-211 692.5,-243 843.5,-243 843.5,-211 692.5,-211"/>
<text text-anchor="start" x="700.5" y="-230" font-family="FreeSans" font-size="10.00">/home/sqeaky/Code/Mezzanine</text>
<text text-anchor="middle" x="768" y="-218" font-family="FreeSans" font-size="10.00">/Mezzanine/src/areaeffect.h</text>
</a>
</g>
<!-- Node11&#45;&gt;Node12 -->
<g id="edge38" class="edge"><title>Node11&#45;&gt;Node12</title>
<path fill="none" stroke="midnightblue" d="M797.12,-272.298C790.899,-262.621 783.937,-251.791 778.38,-243.147"/>
<polygon fill="midnightblue" stroke="midnightblue" points="794.211,-274.246 802.563,-280.765 800.099,-270.46 794.211,-274.246"/>
</g>
<!-- Node13 -->
<g id="node34" class="node"><title>Node13</title>
<a xlink:href="terrainbase_8h_source.xhtml" target="_top" xlink:title="/home/sqeaky/Code/Mezzanine\l/Mezzanine/src/terrainbase.h">
<polygon fill="none" stroke="black" points="795.5,-141 795.5,-173 946.5,-173 946.5,-141 795.5,-141"/>
<text text-anchor="start" x="803.5" y="-160" font-family="FreeSans" font-size="10.00">/home/sqeaky/Code/Mezzanine</text>
<text text-anchor="middle" x="871" y="-148" font-family="FreeSans" font-size="10.00">/Mezzanine/src/terrainbase.h</text>
</a>
</g>
<!-- Node11&#45;&gt;Node13 -->
<g id="edge42" class="edge"><title>Node11&#45;&gt;Node13</title>
<path fill="none" stroke="midnightblue" d="M833.854,-273.148C840.519,-264.466 847.363,-254.255 852,-244 862.575,-220.616 867.424,-190.977 869.527,-173.027"/>
<polygon fill="midnightblue" stroke="midnightblue" points="831.119,-270.963 827.596,-280.955 836.581,-275.341 831.119,-270.963"/>
</g>
<!-- Node12&#45;&gt;Node5 -->
<g id="edge40" class="edge"><title>Node12&#45;&gt;Node5</title>
<path fill="none" stroke="midnightblue" d="M772.781,-200.399C777.321,-166.183 779.54,-106.791 749,-70 736.596,-55.0568 695.153,-41.8963 656.535,-32.4274"/>
<polygon fill="midnightblue" stroke="midnightblue" points="769.278,-200.156 771.263,-210.563 776.202,-201.189 769.278,-200.156"/>
</g>
<!-- Node13&#45;&gt;Node5 -->
<g id="edge48" class="edge"><title>Node13&#45;&gt;Node5</title>
<path fill="none" stroke="midnightblue" d="M922.332,-135.802C935.3,-127.836 947.625,-117.373 955,-104 962.297,-90.7676 964.907,-81.4102 955,-70 935.76,-47.8407 760.574,-30.7577 656.93,-22.486"/>
<polygon fill="midnightblue" stroke="midnightblue" points="920.276,-132.945 913.305,-140.924 923.73,-139.034 920.276,-132.945"/>
</g>
<!-- Node14 -->
<g id="node36" class="node"><title>Node14</title>
<a xlink:href="meshterrain_8h_source.xhtml" target="_top" xlink:title="/home/sqeaky/Code/Mezzanine\l/Mezzanine/src/meshterrain.h">
<polygon fill="none" stroke="black" points="795.5,-71 795.5,-103 946.5,-103 946.5,-71 795.5,-71"/>
<text text-anchor="start" x="803.5" y="-90" font-family="FreeSans" font-size="10.00">/home/sqeaky/Code/Mezzanine</text>
<text text-anchor="middle" x="871" y="-78" font-family="FreeSans" font-size="10.00">/Mezzanine/src/meshterrain.h</text>
</a>
</g>
<!-- Node13&#45;&gt;Node14 -->
<g id="edge44" class="edge"><title>Node13&#45;&gt;Node14</title>
<path fill="none" stroke="midnightblue" d="M871,-130.508C871,-121.303 871,-111.262 871,-103.147"/>
<polygon fill="midnightblue" stroke="midnightblue" points="867.5,-130.765 871,-140.765 874.5,-130.765 867.5,-130.765"/>
</g>
<!-- Node14&#45;&gt;Node5 -->
<g id="edge46" class="edge"><title>Node14&#45;&gt;Node5</title>
<path fill="none" stroke="midnightblue" d="M794.603,-68.5594C748.874,-57.5214 691.316,-43.628 647.473,-33.0452"/>
<polygon fill="midnightblue" stroke="midnightblue" points="793.926,-71.9964 804.468,-70.9406 795.569,-65.1918 793.926,-71.9964"/>
</g>
<!-- Node15&#45;&gt;Node5 -->
<g id="edge56" class="edge"><title>Node15&#45;&gt;Node5</title>
<path fill="none" stroke="midnightblue" d="M1054.6,-200.901C1059.13,-165.799 1061.02,-103.88 1026,-70 999.998,-44.8455 776.867,-28.2653 656.787,-21.0788"/>
<polygon fill="midnightblue" stroke="midnightblue" points="1051.12,-200.473 1053.14,-210.874 1058.05,-201.483 1051.12,-200.473"/>
</g>
<!-- Node16&#45;&gt;Node5 -->
<g id="edge60" class="edge"><title>Node16&#45;&gt;Node5</title>
<path fill="none" stroke="midnightblue" d="M1135.86,-132.916C1119.82,-112.421 1093.87,-84.1246 1064,-70 993.648,-36.7363 773.825,-23.8902 656.522,-19.3093"/>
<polygon fill="midnightblue" stroke="midnightblue" points="1133.08,-135.04 1141.92,-140.886 1138.66,-130.806 1133.08,-135.04"/>
</g>
<!-- Node17&#45;&gt;Node5 -->
<g id="edge66" class="edge"><title>Node17&#45;&gt;Node5</title>
<path fill="none" stroke="midnightblue" d="M1259.84,-270.631C1263.27,-237.148 1264.17,-179.044 1237,-140 1198.17,-84.1994 1166.17,-89.3389 1101,-70 1019.77,-45.8955 780.329,-28.7547 656.734,-21.245"/>
<polygon fill="midnightblue" stroke="midnightblue" points="1256.37,-270.242 1258.68,-280.582 1263.32,-271.058 1256.37,-270.242"/>
</g>
</g>
</svg>
        <g id="navigator" transform="translate(0 0)" fill="#404254">
                <rect fill="#f2f5e9" fill-opacity="0.5" stroke="#606060" stroke-width=".5" x="0" y="0" width="60" height="60"/>
                <use id="zoomplus" xlink:href="#zoomPlus" x="17" y="9" onmousedown="handleZoom(evt,'in')"/>
                <use id="zoomminus" xlink:href="#zoomMin" x="42" y="9" onmousedown="handleZoom(evt,'out')"/>
                <use id="reset" xlink:href="#resetDef" x="30" y="36" onmousedown="handleReset()"/>
                <g id="arrowUp" xlink:href="#dirArrow" transform="translate(30 24)" onmousedown="handlePan(0,-1)">
                  <use xlink:href="#rim" fill="#404040">
                        <set attributeName="fill" to="#808080" begin="arrowUp.mouseover" end="arrowUp.mouseout"/>
                  </use>
                  <path fill="none" stroke="white" stroke-width="1.5" d="M0,-3.0v7 M-2.5,-0.5L0,-3.0L2.5,-0.5"/>
                </g>
                <g id="arrowRight" xlink:href="#dirArrow" transform="rotate(90) translate(36 -43)" onmousedown="handlePan(1,0)">
                  <use xlink:href="#rim" fill="#404040">
                        <set attributeName="fill" to="#808080" begin="arrowRight.mouseover" end="arrowRight.mouseout"/>
                  </use>
                  <path fill="none" stroke="white" stroke-width="1.5" d="M0,-3.0v7 M-2.5,-0.5L0,-3.0L2.5,-0.5"/>
                </g>
                <g id="arrowDown" xlink:href="#dirArrow" transform="rotate(180) translate(-30 -48)" onmousedown="handlePan(0,1)">
                  <use xlink:href="#rim" fill="#404040">
                        <set attributeName="fill" to="#808080" begin="arrowDown.mouseover" end="arrowDown.mouseout"/>
                  </use>
                  <path fill="none" stroke="white" stroke-width="1.5" d="M0,-3.0v7 M-2.5,-0.5L0,-3.0L2.5,-0.5"/>
                </g>
                <g id="arrowLeft" xlink:href="#dirArrow" transform="rotate(270) translate(-36 17)" onmousedown="handlePan(-1,0)">
                  <use xlink:href="#rim" fill="#404040">
                        <set attributeName="fill" to="#808080" begin="arrowLeft.mouseover" end="arrowLeft.mouseout"/>
                  </use>
                  <path fill="none" stroke="white" stroke-width="1.5" d="M0,-3.0v7 M-2.5,-0.5L0,-3.0L2.5,-0.5"/>
                </g>
        </g>
        <svg viewBox="0 0 15 15" width="100%" height="30px" preserveAspectRatio="xMaxYMin meet">
         <g id="arrow_out" transform="scale(0.3 0.3)">
          <a xlink:href="attachable_8h__dep__incl_org.svg" target="_base">
           <rect id="button" ry="5" rx="5" y="6" x="6" height="38" width="38"
                fill="#f2f5e9" fill-opacity="0.5" stroke="#606060" stroke-width="1.0"/>
           <path id="arrow"
             d="M 11.500037,31.436501 C 11.940474,20.09759 22.043105,11.32322 32.158766,21.979434 L 37.068811,17.246167 C 37.068811,17.246167 37.088388,32 37.088388,32 L 22.160133,31.978069 C 22.160133,31.978069 26.997745,27.140456 26.997745,27.140456 C 18.528582,18.264221 13.291696,25.230495 11.500037,31.436501 z"
             style="fill:#404040;"/>
          </a>
         </g>
        </svg>
</svg>
