<?xml version="1.0" encoding="UTF-8" standalone="no"?>
<!DOCTYPE svg PUBLIC "-//W3C//DTD SVG 1.1//EN"
 "http://www.w3.org/Graphics/SVG/1.1/DTD/svg11.dtd">
<!-- Generated by graphviz version 2.26.3 (20100126.1600)
 -->
<!-- Title: /home/sqeaky/Code/Mezzanine/Mezzanine/src/axisalignedbox.h Pages: 1 -->
<svg width="1332pt" height="252pt"
 viewBox="0.00 0.00 1332.00 252.00" xmlns="http://www.w3.org/2000/svg" xmlns:xlink="http://www.w3.org/1999/xlink">
<g id="graph1" class="graph" transform="scale(1 1) rotate(0) translate(4 248)">
<title>/home/sqeaky/Code/Mezzanine/Mezzanine/src/axisalignedbox.h</title>
<polygon fill="white" stroke="white" points="-4,5 -4,-248 1329,-248 1329,5 -4,5"/>
<!-- Node1 -->
<g id="node1" class="node"><title>Node1</title>
<polygon fill="#bfbfbf" stroke="black" points="432,-211 432,-243 586,-243 586,-211 432,-211"/>
<text text-anchor="start" x="440" y="-230" font-family="FreeSans" font-size="10.00">/home/sqeaky/Code/Mezzanine</text>
<text text-anchor="middle" x="509" y="-218" font-family="FreeSans" font-size="10.00">/Mezzanine/src/axisalignedbox.h</text>
</g>
<!-- Node2 -->
<g id="node3" class="node"><title>Node2</title>
<a xlink:href="axisalignedbox_8cpp.html" target="_top" xlink:title="This file contains the implementation for the AxisAlignedBox class for representing AABB&#39;s of objects...">
<polygon fill="white" stroke="black" points="0,-141 0,-173 164,-173 164,-141 0,-141"/>
<text text-anchor="start" x="8" y="-160" font-family="FreeSans" font-size="10.00">/home/sqeaky/Code/Mezzanine</text>
<text text-anchor="middle" x="82" y="-148" font-family="FreeSans" font-size="10.00">/Mezzanine/src/axisalignedbox.cpp</text>
</a>
</g>
<!-- Node1&#45;&gt;Node2 -->
<g id="edge2" class="edge"><title>Node1&#45;&gt;Node2</title>
<path fill="none" stroke="midnightblue" d="M421.608,-213.907C353.728,-203.569 257.279,-188.516 173,-174 170.149,-173.509 167.249,-173.003 164.321,-172.486"/>
<polygon fill="midnightblue" stroke="midnightblue" points="421.418,-217.418 431.831,-215.461 422.47,-210.497 421.418,-217.418"/>
</g>
<!-- Node3 -->
<g id="node5" class="node"><title>Node3</title>
<a xlink:href="mathtool_8cpp_source.html" target="_top" xlink:title="/home/sqeaky/Code/Mezzanine\l/Mezzanine/src/mathtool.cpp">
<polygon fill="white" stroke="black" points="181.5,-141 181.5,-173 332.5,-173 332.5,-141 181.5,-141"/>
<text text-anchor="start" x="189.5" y="-160" font-family="FreeSans" font-size="10.00">/home/sqeaky/Code/Mezzanine</text>
<text text-anchor="middle" x="257" y="-148" font-family="FreeSans" font-size="10.00">/Mezzanine/src/mathtool.cpp</text>
</a>
</g>
<!-- Node1&#45;&gt;Node3 -->
<g id="edge4" class="edge"><title>Node1&#45;&gt;Node3</title>
<path fill="none" stroke="midnightblue" d="M441.379,-208.216C401.921,-197.256 352.657,-183.571 314.981,-173.106"/>
<polygon fill="midnightblue" stroke="midnightblue" points="440.614,-211.636 451.186,-210.941 442.488,-204.892 440.614,-211.636"/>
</g>
<!-- Node4 -->
<g id="node7" class="node"><title>Node4</title>
<a xlink:href="plane_8cpp_source.html" target="_top" xlink:title="/home/sqeaky/Code/Mezzanine\l/Mezzanine/src/plane.cpp">
<polygon fill="white" stroke="black" points="349.5,-141 349.5,-173 500.5,-173 500.5,-141 349.5,-141"/>
<text text-anchor="start" x="357.5" y="-160" font-family="FreeSans" font-size="10.00">/home/sqeaky/Code/Mezzanine</text>
<text text-anchor="middle" x="425" y="-148" font-family="FreeSans" font-size="10.00">/Mezzanine/src/plane.cpp</text>
</a>
</g>
<!-- Node1&#45;&gt;Node4 -->
<g id="edge6" class="edge"><title>Node1&#45;&gt;Node4</title>
<path fill="none" stroke="midnightblue" d="M481.823,-204.352C469.615,-194.179 455.49,-182.408 444.377,-173.147"/>
<polygon fill="midnightblue" stroke="midnightblue" points="479.595,-207.052 489.518,-210.765 484.076,-201.674 479.595,-207.052"/>
</g>
<!-- Node5 -->
<g id="node9" class="node"><title>Node5</title>
<a xlink:href="ray_8cpp_source.html" target="_top" xlink:title="/home/sqeaky/Code/Mezzanine\l/Mezzanine/src/ray.cpp">
<polygon fill="white" stroke="black" points="517.5,-141 517.5,-173 668.5,-173 668.5,-141 517.5,-141"/>
<text text-anchor="start" x="525.5" y="-160" font-family="FreeSans" font-size="10.00">/home/sqeaky/Code/Mezzanine</text>
<text text-anchor="middle" x="593" y="-148" font-family="FreeSans" font-size="10.00">/Mezzanine/src/ray.cpp</text>
</a>
</g>
<!-- Node1&#45;&gt;Node5 -->
<g id="edge8" class="edge"><title>Node1&#45;&gt;Node5</title>
<path fill="none" stroke="midnightblue" d="M536.177,-204.352C548.385,-194.179 562.51,-182.408 573.623,-173.147"/>
<polygon fill="midnightblue" stroke="midnightblue" points="533.924,-201.674 528.482,-210.765 538.405,-207.052 533.924,-201.674"/>
</g>
<!-- Node6 -->
<g id="node11" class="node"><title>Node6</title>
<a xlink:href="sphere_8cpp.html" target="_top" xlink:title="This file contains the implementation for the generic Sphere class for math and spacial query...">
<polygon fill="white" stroke="black" points="685.5,-141 685.5,-173 836.5,-173 836.5,-141 685.5,-141"/>
<text text-anchor="start" x="693.5" y="-160" font-family="FreeSans" font-size="10.00">/home/sqeaky/Code/Mezzanine</text>
<text text-anchor="middle" x="761" y="-148" font-family="FreeSans" font-size="10.00">/Mezzanine/src/sphere.cpp</text>
</a>
</g>
<!-- Node1&#45;&gt;Node6 -->
<g id="edge10" class="edge"><title>Node1&#45;&gt;Node6</title>
<path fill="none" stroke="midnightblue" d="M576.621,-208.216C616.079,-197.256 665.343,-183.571 703.019,-173.106"/>
<polygon fill="midnightblue" stroke="midnightblue" points="575.512,-204.892 566.814,-210.941 577.386,-211.636 575.512,-204.892"/>
</g>
<!-- Node7 -->
<g id="node13" class="node"><title>Node7</title>
<a xlink:href="physicsproxy_8h_source.html" target="_top" xlink:title="/home/sqeaky/Code/Mezzanine\l/Mezzanine/src/Physics/physicsproxy.h">
<polygon fill="white" stroke="black" points="854,-141 854,-173 1036,-173 1036,-141 854,-141"/>
<text text-anchor="start" x="862" y="-160" font-family="FreeSans" font-size="10.00">/home/sqeaky/Code/Mezzanine</text>
<text text-anchor="middle" x="945" y="-148" font-family="FreeSans" font-size="10.00">/Mezzanine/src/Physics/physicsproxy.h</text>
</a>
</g>
<!-- Node1&#45;&gt;Node7 -->
<g id="edge12" class="edge"><title>Node1&#45;&gt;Node7</title>
<path fill="none" stroke="midnightblue" d="M596.327,-213.518C664.172,-202.973 760.605,-187.829 845,-174 847.954,-173.516 850.957,-173.021 853.989,-172.519"/>
<polygon fill="midnightblue" stroke="midnightblue" points="595.454,-210.111 586.11,-215.105 596.528,-217.028 595.454,-210.111"/>
</g>
<!-- Node8 -->
<g id="node15" class="node"><title>Node8</title>
<a xlink:href="ghostproxy_8h_source.html" target="_top" xlink:title="/home/sqeaky/Code/Mezzanine\l/Mezzanine/src/Physics/ghostproxy.h">
<polygon fill="white" stroke="black" points="559.5,-71 559.5,-103 732.5,-103 732.5,-71 559.5,-71"/>
<text text-anchor="start" x="567.5" y="-90" font-family="FreeSans" font-size="10.00">/home/sqeaky/Code/Mezzanine</text>
<text text-anchor="middle" x="646" y="-78" font-family="FreeSans" font-size="10.00">/Mezzanine/src/Physics/ghostproxy.h</text>
</a>
</g>
<!-- Node7&#45;&gt;Node8 -->
<g id="edge14" class="edge"><title>Node7&#45;&gt;Node8</title>
<path fill="none" stroke="midnightblue" d="M866.529,-138.629C819.333,-127.58 759.834,-113.65 714.536,-103.045"/>
<polygon fill="midnightblue" stroke="midnightblue" points="865.869,-142.069 876.403,-140.941 867.464,-135.253 865.869,-142.069"/>
</g>
<!-- Node10 -->
<g id="node19" class="node"><title>Node10</title>
<a xlink:href="physicsproxy_8cpp_source.html" target="_top" xlink:title="/home/sqeaky/Code/Mezzanine\l/Mezzanine/src/Physics/physicsproxy.cpp">
<polygon fill="white" stroke="black" points="750,-71 750,-103 942,-103 942,-71 750,-71"/>
<text text-anchor="start" x="758" y="-90" font-family="FreeSans" font-size="10.00">/home/sqeaky/Code/Mezzanine</text>
<text text-anchor="middle" x="846" y="-78" font-family="FreeSans" font-size="10.00">/Mezzanine/src/Physics/physicsproxy.cpp</text>
</a>
</g>
<!-- Node7&#45;&gt;Node10 -->
<g id="edge18" class="edge"><title>Node7&#45;&gt;Node10</title>
<path fill="none" stroke="midnightblue" d="M913.789,-134.932C899.217,-124.628 882.184,-112.584 868.837,-103.147"/>
<polygon fill="midnightblue" stroke="midnightblue" points="911.853,-137.849 922.039,-140.765 915.894,-132.134 911.853,-137.849"/>
</g>
<!-- Node11 -->
<g id="node21" class="node"><title>Node11</title>
<a xlink:href="rigidproxy_8h_source.html" target="_top" xlink:title="/home/sqeaky/Code/Mezzanine\l/Mezzanine/src/Physics/rigidproxy.h">
<polygon fill="white" stroke="black" points="960,-71 960,-103 1128,-103 1128,-71 960,-71"/>
<text text-anchor="start" x="968" y="-90" font-family="FreeSans" font-size="10.00">/home/sqeaky/Code/Mezzanine</text>
<text text-anchor="middle" x="1044" y="-78" font-family="FreeSans" font-size="10.00">/Mezzanine/src/Physics/rigidproxy.h</text>
</a>
</g>
<!-- Node7&#45;&gt;Node11 -->
<g id="edge20" class="edge"><title>Node7&#45;&gt;Node11</title>
<path fill="none" stroke="midnightblue" d="M976.211,-134.932C990.783,-124.628 1007.82,-112.584 1021.16,-103.147"/>
<polygon fill="midnightblue" stroke="midnightblue" points="974.106,-132.134 967.961,-140.765 978.147,-137.849 974.106,-132.134"/>
</g>
<!-- Node13 -->
<g id="node25" class="node"><title>Node13</title>
<a xlink:href="softproxy_8h_source.html" target="_top" xlink:title="/home/sqeaky/Code/Mezzanine\l/Mezzanine/src/Physics/softproxy.h">
<polygon fill="white" stroke="black" points="1148,-71 1148,-103 1314,-103 1314,-71 1148,-71"/>
<text text-anchor="start" x="1156" y="-90" font-family="FreeSans" font-size="10.00">/home/sqeaky/Code/Mezzanine</text>
<text text-anchor="middle" x="1231" y="-78" font-family="FreeSans" font-size="10.00">/Mezzanine/src/Physics/softproxy.h</text>
</a>
</g>
<!-- Node7&#45;&gt;Node13 -->
<g id="edge24" class="edge"><title>Node7&#45;&gt;Node13</title>
<path fill="none" stroke="midnightblue" d="M1020.61,-138.494C1065.58,-127.488 1122.07,-113.66 1165.2,-103.106"/>
<polygon fill="midnightblue" stroke="midnightblue" points="1019.5,-135.163 1010.61,-140.941 1021.16,-141.963 1019.5,-135.163"/>
</g>
<!-- Node9 -->
<g id="node17" class="node"><title>Node9</title>
<a xlink:href="ghostproxy_8cpp_source.html" target="_top" xlink:title="/home/sqeaky/Code/Mezzanine\l/Mezzanine/src/Physics/ghostproxy.cpp">
<polygon fill="white" stroke="black" points="554,-1 554,-33 738,-33 738,-1 554,-1"/>
<text text-anchor="start" x="562" y="-20" font-family="FreeSans" font-size="10.00">/home/sqeaky/Code/Mezzanine</text>
<text text-anchor="middle" x="646" y="-8" font-family="FreeSans" font-size="10.00">/Mezzanine/src/Physics/ghostproxy.cpp</text>
</a>
</g>
<!-- Node8&#45;&gt;Node9 -->
<g id="edge16" class="edge"><title>Node8&#45;&gt;Node9</title>
<path fill="none" stroke="midnightblue" d="M646,-60.5079C646,-51.3027 646,-41.2615 646,-33.1473"/>
<polygon fill="midnightblue" stroke="midnightblue" points="642.5,-60.7646 646,-70.7646 649.5,-60.7647 642.5,-60.7646"/>
</g>
<!-- Node12 -->
<g id="node23" class="node"><title>Node12</title>
<a xlink:href="rigidproxy_8cpp_source.html" target="_top" xlink:title="/home/sqeaky/Code/Mezzanine\l/Mezzanine/src/Physics/rigidproxy.cpp">
<polygon fill="white" stroke="black" points="951.5,-1 951.5,-33 1130.5,-33 1130.5,-1 951.5,-1"/>
<text text-anchor="start" x="959.5" y="-20" font-family="FreeSans" font-size="10.00">/home/sqeaky/Code/Mezzanine</text>
<text text-anchor="middle" x="1041" y="-8" font-family="FreeSans" font-size="10.00">/Mezzanine/src/Physics/rigidproxy.cpp</text>
</a>
</g>
<!-- Node11&#45;&gt;Node12 -->
<g id="edge22" class="edge"><title>Node11&#45;&gt;Node12</title>
<path fill="none" stroke="midnightblue" d="M1042.86,-60.5079C1042.47,-51.3027 1042.04,-41.2615 1041.69,-33.1473"/>
<polygon fill="midnightblue" stroke="midnightblue" points="1039.38,-60.9237 1043.3,-70.7646 1046.37,-60.6239 1039.38,-60.9237"/>
</g>
<!-- Node14 -->
<g id="node27" class="node"><title>Node14</title>
<a xlink:href="softproxy_8cpp_source.html" target="_top" xlink:title="/home/sqeaky/Code/Mezzanine\l/Mezzanine/src/Physics/softproxy.cpp">
<polygon fill="white" stroke="black" points="1148,-1 1148,-33 1324,-33 1324,-1 1148,-1"/>
<text text-anchor="start" x="1156" y="-20" font-family="FreeSans" font-size="10.00">/home/sqeaky/Code/Mezzanine</text>
<text text-anchor="middle" x="1236" y="-8" font-family="FreeSans" font-size="10.00">/Mezzanine/src/Physics/softproxy.cpp</text>
</a>
</g>
<!-- Node13&#45;&gt;Node14 -->
<g id="edge26" class="edge"><title>Node13&#45;&gt;Node14</title>
<path fill="none" stroke="midnightblue" d="M1232.89,-60.5079C1233.55,-51.3027 1234.27,-41.2615 1234.85,-33.1473"/>
<polygon fill="midnightblue" stroke="midnightblue" points="1229.38,-60.5407 1232.16,-70.7646 1236.36,-61.0395 1229.38,-60.5407"/>
</g>
</g>
</svg>
