<?xml version="1.0" encoding="UTF-8" standalone="no"?>
<!DOCTYPE svg PUBLIC "-//W3C//DTD SVG 1.1//EN"
 "http://www.w3.org/Graphics/SVG/1.1/DTD/svg11.dtd">
<!-- Generated by graphviz version 2.26.3 (20100126.1600)
 -->
<!-- Title: /home/sqeaky/Code/Mezzanine/Mezzanine/src/binarybuffer.cpp Pages: 1 -->
<svg width="1044pt" height="216pt"
 viewBox="0.00 0.00 1044.00 216.00" xmlns="http://www.w3.org/2000/svg" xmlns:xlink="http://www.w3.org/1999/xlink">
<g id="graph1" class="graph" transform="scale(1 1) rotate(0) translate(4 212)">
<title>/home/sqeaky/Code/Mezzanine/Mezzanine/src/binarybuffer.cpp</title>
<polygon fill="white" stroke="white" points="-4,5 -4,-212 1041,-212 1041,5 -4,5"/>
<!-- Node1 -->
<g id="node1" class="node"><title>Node1</title>
<polygon fill="#bfbfbf" stroke="black" points="416.5,-175 416.5,-207 567.5,-207 567.5,-175 416.5,-175"/>
<text text-anchor="start" x="424.5" y="-194" font-family="FreeSans" font-size="10.00">/home/sqeaky/Code/Mezzanine</text>
<text text-anchor="middle" x="492" y="-182" font-family="FreeSans" font-size="10.00">/Mezzanine/src/binarybuffer.cpp</text>
</g>
<!-- Node2 -->
<g id="node3" class="node"><title>Node2</title>
<a xlink:href="binarybuffer_8h_source.html" target="_top" xlink:title="binarybuffer.h">
<polygon fill="white" stroke="black" points="412.5,-117 412.5,-137 485.5,-137 485.5,-117 412.5,-117"/>
<text text-anchor="middle" x="449" y="-124" font-family="FreeSans" font-size="10.00">binarybuffer.h</text>
</a>
</g>
<!-- Node1&#45;&gt;Node2 -->
<g id="edge2" class="edge"><title>Node1&#45;&gt;Node2</title>
<path fill="none" stroke="midnightblue" d="M481.149,-174.85C475.178,-165.963 467.741,-154.893 461.524,-145.64"/>
<polygon fill="midnightblue" stroke="midnightblue" points="464.296,-143.49 455.813,-137.141 458.485,-147.393 464.296,-143.49"/>
</g>
<!-- Node7 -->
<g id="node13" class="node"><title>Node7</title>
<polygon fill="white" stroke="#bfbfbf" points="0,-1 0,-21 56,-21 56,-1 0,-1"/>
<text text-anchor="middle" x="28" y="-8" font-family="FreeSans" font-size="10.00">algorithm</text>
</g>
<!-- Node1&#45;&gt;Node7 -->
<g id="edge44" class="edge"><title>Node1&#45;&gt;Node7</title>
<path fill="none" stroke="midnightblue" d="M450.415,-174.868C360.12,-139.84 147.482,-57.3508 63.252,-24.6754"/>
<polygon fill="midnightblue" stroke="midnightblue" points="64.4555,-21.3881 53.8665,-21.0344 61.9237,-27.9143 64.4555,-21.3881"/>
</g>
<!-- Node20 -->
<g id="node39" class="node"><title>Node20</title>
<a xlink:href="exception_8h_source.html" target="_top" xlink:title="exception.h">
<polygon fill="white" stroke="black" points="502.5,-117 502.5,-137 567.5,-137 567.5,-117 502.5,-117"/>
<text text-anchor="middle" x="535" y="-124" font-family="FreeSans" font-size="10.00">exception.h</text>
</a>
</g>
<!-- Node1&#45;&gt;Node20 -->
<g id="edge38" class="edge"><title>Node1&#45;&gt;Node20</title>
<path fill="none" stroke="midnightblue" d="M502.851,-174.85C508.822,-165.963 516.259,-154.893 522.476,-145.64"/>
<polygon fill="midnightblue" stroke="midnightblue" points="525.515,-147.393 528.187,-137.141 519.704,-143.49 525.515,-147.393"/>
</g>
<!-- Node21 -->
<g id="node42" class="node"><title>Node21</title>
<polygon fill="white" stroke="#bfbfbf" points="584.5,-117 584.5,-137 631.5,-137 631.5,-117 584.5,-117"/>
<text text-anchor="middle" x="608" y="-124" font-family="FreeSans" font-size="10.00">string.h</text>
</g>
<!-- Node1&#45;&gt;Node21 -->
<g id="edge42" class="edge"><title>Node1&#45;&gt;Node21</title>
<path fill="none" stroke="midnightblue" d="M521.272,-174.85C539.561,-164.759 562.949,-151.855 580.828,-141.991"/>
<polygon fill="midnightblue" stroke="midnightblue" points="582.554,-145.036 589.619,-137.141 579.173,-138.907 582.554,-145.036"/>
</g>
<!-- Node3 -->
<g id="node5" class="node"><title>Node3</title>
<a xlink:href="datatypes_8h.html" target="_top" xlink:title="All the definitions for datatypes as well as some basic conversion functions are defined here...">
<polygon fill="white" stroke="black" points="502.5,-59 502.5,-79 567.5,-79 567.5,-59 502.5,-59"/>
<text text-anchor="middle" x="535" y="-66" font-family="FreeSans" font-size="10.00">datatypes.h</text>
</a>
</g>
<!-- Node2&#45;&gt;Node3 -->
<g id="edge4" class="edge"><title>Node2&#45;&gt;Node3</title>
<path fill="none" stroke="midnightblue" d="M463.98,-116.897C477.095,-108.052 496.368,-95.0539 511.529,-84.829"/>
<polygon fill="midnightblue" stroke="midnightblue" points="513.569,-87.6749 519.903,-79.1817 509.655,-81.8714 513.569,-87.6749"/>
</g>
<!-- Node4 -->
<g id="node7" class="node"><title>Node4</title>
<a xlink:href="crossplatformexport_8h.html" target="_top" xlink:title="This file is used on some platforms to determine what data should be read and written to and from a s...">
<polygon fill="white" stroke="black" points="74,-1 74,-21 182,-21 182,-1 74,-1"/>
<text text-anchor="middle" x="128" y="-8" font-family="FreeSans" font-size="10.00">crossplatformexport.h</text>
</a>
</g>
<!-- Node3&#45;&gt;Node4 -->
<g id="edge6" class="edge"><title>Node3&#45;&gt;Node4</title>
<path fill="none" stroke="midnightblue" d="M502.214,-64.9317C442.643,-57.4511 312.436,-40.6926 192.375,-22.174"/>
<polygon fill="midnightblue" stroke="midnightblue" points="192.693,-18.6816 182.275,-20.6081 191.621,-25.5989 192.693,-18.6816"/>
</g>
<!-- Node5 -->
<g id="node9" class="node"><title>Node5</title>
<polygon fill="white" stroke="#bfbfbf" points="199.5,-1 199.5,-21 246.5,-21 246.5,-1 199.5,-1"/>
<text text-anchor="middle" x="223" y="-8" font-family="FreeSans" font-size="10.00">stdint.h</text>
</g>
<!-- Node3&#45;&gt;Node5 -->
<g id="edge8" class="edge"><title>Node3&#45;&gt;Node5</title>
<path fill="none" stroke="midnightblue" d="M502.303,-65.2876C451.471,-59.1343 350.363,-45.3689 256.563,-22.1148"/>
<polygon fill="midnightblue" stroke="midnightblue" points="257.186,-18.6626 246.634,-19.6102 255.474,-25.45 257.186,-18.6626"/>
</g>
<!-- Node6 -->
<g id="node11" class="node"><title>Node6</title>
<polygon fill="white" stroke="#bfbfbf" points="264,-1 264,-21 312,-21 312,-1 264,-1"/>
<text text-anchor="middle" x="288" y="-8" font-family="FreeSans" font-size="10.00">cstddef</text>
</g>
<!-- Node3&#45;&gt;Node6 -->
<g id="edge10" class="edge"><title>Node3&#45;&gt;Node6</title>
<path fill="none" stroke="midnightblue" d="M502.473,-62.9667C462.197,-55.2547 391.355,-40.9027 321.855,-22.0379"/>
<polygon fill="midnightblue" stroke="midnightblue" points="322.63,-18.6214 312.06,-19.3463 320.775,-25.3711 322.63,-18.6214"/>
</g>
<!-- Node3&#45;&gt;Node7 -->
<g id="edge12" class="edge"><title>Node3&#45;&gt;Node7</title>
<path fill="none" stroke="midnightblue" d="M502.495,-67.8666C427.207,-64.7922 235.032,-54.3657 66.2048,-21.9301"/>
<polygon fill="midnightblue" stroke="midnightblue" points="66.6298,-18.4471 56.1444,-19.9654 65.2881,-25.3173 66.6298,-18.4471"/>
</g>
<!-- Node8 -->
<g id="node15" class="node"><title>Node8</title>
<polygon fill="white" stroke="#bfbfbf" points="330,-1 330,-21 388,-21 388,-1 330,-1"/>
<text text-anchor="middle" x="359" y="-8" font-family="FreeSans" font-size="10.00">exception</text>
</g>
<!-- Node3&#45;&gt;Node8 -->
<g id="edge14" class="edge"><title>Node3&#45;&gt;Node8</title>
<path fill="none" stroke="midnightblue" d="M504.343,-58.8972C474.711,-49.132 429.714,-34.3035 397.644,-23.7348"/>
<polygon fill="midnightblue" stroke="midnightblue" points="398.73,-20.4077 388.137,-20.6019 396.539,-27.056 398.73,-20.4077"/>
</g>
<!-- Node9 -->
<g id="node17" class="node"><title>Node9</title>
<polygon fill="white" stroke="#bfbfbf" points="406,-1 406,-21 454,-21 454,-1 406,-1"/>
<text text-anchor="middle" x="430" y="-8" font-family="FreeSans" font-size="10.00">istream</text>
</g>
<!-- Node3&#45;&gt;Node9 -->
<g id="edge16" class="edge"><title>Node3&#45;&gt;Node9</title>
<path fill="none" stroke="midnightblue" d="M516.71,-58.8972C500.324,-49.8458 476.063,-36.4442 457.367,-26.117"/>
<polygon fill="midnightblue" stroke="midnightblue" points="458.878,-22.9532 448.432,-21.1817 455.493,-29.0806 458.878,-22.9532"/>
</g>
<!-- Node10 -->
<g id="node19" class="node"><title>Node10</title>
<polygon fill="white" stroke="#bfbfbf" points="471.5,-1 471.5,-21 500.5,-21 500.5,-1 471.5,-1"/>
<text text-anchor="middle" x="486" y="-8" font-family="FreeSans" font-size="10.00">list</text>
</g>
<!-- Node3&#45;&gt;Node10 -->
<g id="edge18" class="edge"><title>Node3&#45;&gt;Node10</title>
<path fill="none" stroke="midnightblue" d="M526.465,-58.8972C519.524,-50.6818 509.556,-38.8827 501.25,-29.0513"/>
<polygon fill="midnightblue" stroke="midnightblue" points="503.894,-26.7577 494.767,-21.3776 498.547,-31.2752 503.894,-26.7577"/>
</g>
<!-- Node11 -->
<g id="node21" class="node"><title>Node11</title>
<polygon fill="white" stroke="#bfbfbf" points="517.5,-1 517.5,-21 552.5,-21 552.5,-1 517.5,-1"/>
<text text-anchor="middle" x="535" y="-8" font-family="FreeSans" font-size="10.00">map</text>
</g>
<!-- Node3&#45;&gt;Node11 -->
<g id="edge20" class="edge"><title>Node3&#45;&gt;Node11</title>
<path fill="none" stroke="midnightblue" d="M535,-58.8972C535,-51.339 535,-40.7476 535,-31.4458"/>
<polygon fill="midnightblue" stroke="midnightblue" points="538.5,-31.3776 535,-21.3776 531.5,-31.3776 538.5,-31.3776"/>
</g>
<!-- Node12 -->
<g id="node23" class="node"><title>Node12</title>
<polygon fill="white" stroke="#bfbfbf" points="570,-1 570,-21 610,-21 610,-1 570,-1"/>
<text text-anchor="middle" x="590" y="-8" font-family="FreeSans" font-size="10.00">string</text>
</g>
<!-- Node3&#45;&gt;Node12 -->
<g id="edge22" class="edge"><title>Node3&#45;&gt;Node12</title>
<path fill="none" stroke="midnightblue" d="M544.58,-58.8972C552.449,-50.5996 563.784,-38.6463 573.162,-28.7569"/>
<polygon fill="midnightblue" stroke="midnightblue" points="575.818,-31.0422 580.159,-21.3776 570.739,-26.2255 575.818,-31.0422"/>
</g>
<!-- Node13 -->
<g id="node25" class="node"><title>Node13</title>
<polygon fill="white" stroke="#bfbfbf" points="628,-1 628,-21 678,-21 678,-1 628,-1"/>
<text text-anchor="middle" x="653" y="-8" font-family="FreeSans" font-size="10.00">sstream</text>
</g>
<!-- Node3&#45;&gt;Node13 -->
<g id="edge24" class="edge"><title>Node3&#45;&gt;Node13</title>
<path fill="none" stroke="midnightblue" d="M555.554,-58.8972C574.221,-49.7218 601.983,-36.0762 623.105,-25.6943"/>
<polygon fill="midnightblue" stroke="midnightblue" points="624.855,-28.734 632.286,-21.1817 621.767,-22.4518 624.855,-28.734"/>
</g>
<!-- Node14 -->
<g id="node27" class="node"><title>Node14</title>
<polygon fill="white" stroke="#bfbfbf" points="695.5,-1 695.5,-21 724.5,-21 724.5,-1 695.5,-1"/>
<text text-anchor="middle" x="710" y="-8" font-family="FreeSans" font-size="10.00">set</text>
</g>
<!-- Node3&#45;&gt;Node14 -->
<g id="edge26" class="edge"><title>Node3&#45;&gt;Node14</title>
<path fill="none" stroke="midnightblue" d="M567.793,-60.3579C596.897,-52.361 640.647,-39.5417 685.716,-22.19"/>
<polygon fill="midnightblue" stroke="midnightblue" points="687.008,-25.4427 695.045,-18.5393 684.458,-18.9241 687.008,-25.4427"/>
</g>
<!-- Node15 -->
<g id="node29" class="node"><title>Node15</title>
<polygon fill="white" stroke="#bfbfbf" points="741.5,-1 741.5,-21 784.5,-21 784.5,-1 741.5,-1"/>
<text text-anchor="middle" x="763" y="-8" font-family="FreeSans" font-size="10.00">vector</text>
</g>
<!-- Node3&#45;&gt;Node15 -->
<g id="edge28" class="edge"><title>Node3&#45;&gt;Node15</title>
<path fill="none" stroke="midnightblue" d="M567.55,-62.5099C605.115,-54.7506 668.871,-40.7574 731.793,-22.1426"/>
<polygon fill="midnightblue" stroke="midnightblue" points="732.9,-25.4647 741.473,-19.2395 730.889,-18.7598 732.9,-25.4647"/>
</g>
<!-- Node16 -->
<g id="node31" class="node"><title>Node16</title>
<polygon fill="white" stroke="#bfbfbf" points="801.5,-1 801.5,-21 840.5,-21 840.5,-1 801.5,-1"/>
<text text-anchor="middle" x="821" y="-8" font-family="FreeSans" font-size="10.00">utility</text>
</g>
<!-- Node3&#45;&gt;Node16 -->
<g id="edge30" class="edge"><title>Node3&#45;&gt;Node16</title>
<path fill="none" stroke="midnightblue" d="M567.64,-65.1223C615.221,-59.0251 706.426,-45.6602 791.476,-22.0695"/>
<polygon fill="midnightblue" stroke="midnightblue" points="792.609,-25.3863 801.279,-19.2962 790.704,-18.6506 792.609,-25.3863"/>
</g>
<!-- Node17 -->
<g id="node33" class="node"><title>Node17</title>
<polygon fill="white" stroke="#bfbfbf" points="857.5,-1 857.5,-21 908.5,-21 908.5,-1 857.5,-1"/>
<text text-anchor="middle" x="883" y="-8" font-family="FreeSans" font-size="10.00">memory</text>
</g>
<!-- Node3&#45;&gt;Node17 -->
<g id="edge32" class="edge"><title>Node3&#45;&gt;Node17</title>
<path fill="none" stroke="midnightblue" d="M567.882,-65.8765C623.673,-60.1909 740.497,-46.6177 847.176,-22.1736"/>
<polygon fill="midnightblue" stroke="midnightblue" points="848.191,-25.531 857.135,-19.8524 846.602,-18.7137 848.191,-25.531"/>
</g>
<!-- Node18 -->
<g id="node35" class="node"><title>Node18</title>
<polygon fill="white" stroke="#bfbfbf" points="925.5,-1 925.5,-21 976.5,-21 976.5,-1 925.5,-1"/>
<text text-anchor="middle" x="951" y="-8" font-family="FreeSans" font-size="10.00">ostream</text>
</g>
<!-- Node3&#45;&gt;Node18 -->
<g id="edge34" class="edge"><title>Node3&#45;&gt;Node18</title>
<path fill="none" stroke="midnightblue" d="M567.55,-67.0923C632.312,-62.8498 781.91,-50.8167 915.179,-22.1106"/>
<polygon fill="midnightblue" stroke="midnightblue" points="916.133,-25.4846 925.152,-19.9241 914.634,-18.647 916.133,-25.4846"/>
</g>
<!-- Node19 -->
<g id="node37" class="node"><title>Node19</title>
<a xlink:href="swig_8h.html" target="_top" xlink:title="Used to give commands specifically to the SWIG preprocessor.">
<polygon fill="white" stroke="black" points="993.5,-1 993.5,-21 1036.5,-21 1036.5,-1 993.5,-1"/>
<text text-anchor="middle" x="1015" y="-8" font-family="FreeSans" font-size="10.00">swig.h</text>
</a>
</g>
<!-- Node3&#45;&gt;Node19 -->
<g id="edge36" class="edge"><title>Node3&#45;&gt;Node19</title>
<path fill="none" stroke="midnightblue" d="M567.647,-68.3448C640.909,-66.292 823.865,-57.9142 983.256,-21.9819"/>
<polygon fill="midnightblue" stroke="midnightblue" points="984.273,-25.3394 993.235,-19.6885 982.705,-18.5172 984.273,-25.3394"/>
</g>
<!-- Node20&#45;&gt;Node3 -->
<g id="edge40" class="edge"><title>Node20&#45;&gt;Node3</title>
<path fill="none" stroke="midnightblue" d="M535,-116.897C535,-109.339 535,-98.7476 535,-89.4458"/>
<polygon fill="midnightblue" stroke="midnightblue" points="538.5,-89.3776 535,-79.3776 531.5,-89.3776 538.5,-89.3776"/>
</g>
</g>
</svg>
