<?xml version="1.0" encoding="UTF-8" standalone="no"?>
<!DOCTYPE svg PUBLIC "-//W3C//DTD SVG 1.1//EN"
 "http://www.w3.org/Graphics/SVG/1.1/DTD/svg11.dtd">
<!-- Generated by graphviz version 2.38.0 (20140413.2041)
 -->
<!-- Title: /home/sqeaky/Code/MezzanineFresh/Mezzanine/src/Graphics/cameraproxy.h Pages: 1 -->
<!--zoomable 262 -->
<svg id="main" version="1.1" xmlns="http://www.w3.org/2000/svg" xmlns:xlink="http://www.w3.org/1999/xlink" xml:space="preserve" onload="init(evt)">
<style type="text/css"><![CDATA[
.edge:hover path { stroke: red; }
.edge:hover polygon { stroke: red; fill: red; }
]]></style>
<script type="text/javascript"><![CDATA[
var edges = document.getElementsByTagName('g');
if (edges && edges.length) {
  for (var i=0;i<edges.length;i++) {
    if (edges[i].id.substr(0,4)=='edge') {
      edges[i].setAttribute('class','edge');
    }
  }
}
]]></script>
        <defs>
                <circle id="rim" cx="0" cy="0" r="7"/>
                <circle id="rim2" cx="0" cy="0" r="3.5"/>
                <g id="zoomPlus">
                        <use xlink:href="#rim" target="_top" fill="#404040">
                                <set attributeName="fill" to="#808080" begin="zoomplus.mouseover" end="zoomplus.mouseout"/>
                        </use>
                        <path d="M-4,0h8M0,-4v8" fill="none" stroke="white" stroke-width="1.5" pointer-events="none"/>
                </g>
                <g id="zoomMin">
                        <use xlink:href="#rim" target="_top" fill="#404040">
                                <set attributeName="fill" to="#808080" begin="zoomminus.mouseover" end="zoomminus.mouseout"/>
                        </use>
                        <path d="M-4,0h8" fill="none" stroke="white" stroke-width="1.5" pointer-events="none"/>
                </g>
                <g id="dirArrow">
                        <path fill="none" stroke="white" stroke-width="1.5" d="M0,-3.0v7 M-2.5,-0.5L0,-3.0L2.5,-0.5"/>
                </g>
               <g id="resetDef">
                       <use xlink:href="#rim2" target="_top" fill="#404040">
                               <set attributeName="fill" to="#808080" begin="reset.mouseover" end="reset.mouseout"/>
                       </use>
               </g>
        </defs>

<script type="text/javascript">
var viewWidth = 1641;
var viewHeight = 262;
var sectionId = 'dynsection-1';
</script>
<script xlink:href="svgpan.js" target="_top"/>
<svg id="graph" class="graph">
<g id="viewport">
<title>/home/sqeaky/Code/MezzanineFresh/Mezzanine/src/Graphics/cameraproxy.h</title>
<polygon fill="white" stroke="none" points="-4,4 -4,-258 1636.5,-258 1636.5,4 -4,4"/>
<!-- Node1 -->
<g id="node1" class="node"><title>Node1</title>
<polygon fill="#bfbfbf" stroke="black" points="767.5,-212.5 767.5,-253.5 922.5,-253.5 922.5,-212.5 767.5,-212.5"/>
<text text-anchor="start" x="775.5" y="-241.5" font-family="Helvetica,sans-Serif" font-size="10.00">/home/sqeaky/Code/Mezzanine</text>
<text text-anchor="start" x="775.5" y="-230.5" font-family="Helvetica,sans-Serif" font-size="10.00">Fresh/Mezzanine/src/Graphics</text>
<text text-anchor="middle" x="845" y="-219.5" font-family="Helvetica,sans-Serif" font-size="10.00">/cameraproxy.h</text>
</g>
<!-- Node2 -->
<g id="node2" class="node"><title>Node2</title>
<g id="a_node2"><a xlink:href="cameracontroller_8cpp_source.html" target="_top" target="_top" xlink:title="/home/sqeaky/Code/Mezzanine\lFresh/Mezzanine/src/cameracontroller.cpp">
<polygon fill="white" stroke="black" points="0,-140 0,-170 202,-170 202,-140 0,-140"/>
<text text-anchor="start" x="8" y="-158" font-family="Helvetica,sans-Serif" font-size="10.00">/home/sqeaky/Code/Mezzanine</text>
<text text-anchor="middle" x="101" y="-147" font-family="Helvetica,sans-Serif" font-size="10.00">Fresh/Mezzanine/src/cameracontroller.cpp</text>
</a>
</g>
</g>
<!-- Node1&#45;&gt;Node2 -->
<g id="edge1" class="edge"><title>Node1&#45;&gt;Node2</title>
<path fill="none" stroke="midnightblue" d="M757.209,-226.74C634.742,-218.833 405.836,-201.983 212,-176 199.482,-174.322 186.226,-172.22 173.398,-170.014"/>
<polygon fill="midnightblue" stroke="midnightblue" points="757.079,-230.239 767.283,-227.386 757.527,-223.253 757.079,-230.239"/>
</g>
<!-- Node3 -->
<g id="node3" class="node"><title>Node3</title>
<g id="a_node3"><a xlink:href="graphics_8h_source.html" target="_top" target="_top" xlink:title="/home/sqeaky/Code/Mezzanine\lFresh/Mezzanine/src/Graphics\l/graphics.h">
<polygon fill="white" stroke="black" points="220.5,-134.5 220.5,-175.5 375.5,-175.5 375.5,-134.5 220.5,-134.5"/>
<text text-anchor="start" x="228.5" y="-163.5" font-family="Helvetica,sans-Serif" font-size="10.00">/home/sqeaky/Code/Mezzanine</text>
<text text-anchor="start" x="228.5" y="-152.5" font-family="Helvetica,sans-Serif" font-size="10.00">Fresh/Mezzanine/src/Graphics</text>
<text text-anchor="middle" x="298" y="-141.5" font-family="Helvetica,sans-Serif" font-size="10.00">/graphics.h</text>
</a>
</g>
</g>
<!-- Node1&#45;&gt;Node3 -->
<g id="edge2" class="edge"><title>Node1&#45;&gt;Node3</title>
<path fill="none" stroke="midnightblue" d="M757.117,-224.066C664.244,-215.036 513.698,-198.563 385,-176 381.947,-175.465 378.84,-174.891 375.706,-174.288"/>
<polygon fill="midnightblue" stroke="midnightblue" points="757.024,-227.573 767.314,-225.05 757.696,-220.605 757.024,-227.573"/>
</g>
<!-- Node6 -->
<g id="node6" class="node"><title>Node6</title>
<g id="a_node6"><a xlink:href="rayquerytool_8cpp_source.html" target="_top" target="_top" xlink:title="/home/sqeaky/Code/Mezzanine\lFresh/Mezzanine/src/rayquerytool.cpp">
<polygon fill="white" stroke="black" points="393.5,-140 393.5,-170 576.5,-170 576.5,-140 393.5,-140"/>
<text text-anchor="start" x="401.5" y="-158" font-family="Helvetica,sans-Serif" font-size="10.00">/home/sqeaky/Code/Mezzanine</text>
<text text-anchor="middle" x="485" y="-147" font-family="Helvetica,sans-Serif" font-size="10.00">Fresh/Mezzanine/src/rayquerytool.cpp</text>
</a>
</g>
</g>
<!-- Node1&#45;&gt;Node6 -->
<g id="edge5" class="edge"><title>Node1&#45;&gt;Node6</title>
<path fill="none" stroke="midnightblue" d="M757.325,-213.491C693.822,-200.085 609.297,-182.241 551.356,-170.008"/>
<polygon fill="midnightblue" stroke="midnightblue" points="756.821,-216.962 767.329,-215.603 758.267,-210.113 756.821,-216.962"/>
</g>
<!-- Node7 -->
<g id="node7" class="node"><title>Node7</title>
<g id="a_node7"><a xlink:href="cameraproxy_8cpp.html" target="_top" target="_top" xlink:title="This file contains the implementation for the World proxy wrapping camera functionality. ">
<polygon fill="white" stroke="black" points="594.5,-134.5 594.5,-175.5 749.5,-175.5 749.5,-134.5 594.5,-134.5"/>
<text text-anchor="start" x="602.5" y="-163.5" font-family="Helvetica,sans-Serif" font-size="10.00">/home/sqeaky/Code/Mezzanine</text>
<text text-anchor="start" x="602.5" y="-152.5" font-family="Helvetica,sans-Serif" font-size="10.00">Fresh/Mezzanine/src/Graphics</text>
<text text-anchor="middle" x="672" y="-141.5" font-family="Helvetica,sans-Serif" font-size="10.00">/cameraproxy.cpp</text>
</a>
</g>
</g>
<!-- Node1&#45;&gt;Node7 -->
<g id="edge6" class="edge"><title>Node1&#45;&gt;Node7</title>
<path fill="none" stroke="midnightblue" d="M791.117,-208.329C767.112,-197.783 739.181,-185.513 716.401,-175.506"/>
<polygon fill="midnightblue" stroke="midnightblue" points="789.885,-211.61 800.448,-212.428 792.7,-205.202 789.885,-211.61"/>
</g>
<!-- Node8 -->
<g id="node8" class="node"><title>Node8</title>
<g id="a_node8"><a xlink:href="gamewindow_8cpp_source.html" target="_top" target="_top" xlink:title="/home/sqeaky/Code/Mezzanine\lFresh/Mezzanine/src/Graphics\l/gamewindow.cpp">
<polygon fill="white" stroke="black" points="767.5,-134.5 767.5,-175.5 922.5,-175.5 922.5,-134.5 767.5,-134.5"/>
<text text-anchor="start" x="775.5" y="-163.5" font-family="Helvetica,sans-Serif" font-size="10.00">/home/sqeaky/Code/Mezzanine</text>
<text text-anchor="start" x="775.5" y="-152.5" font-family="Helvetica,sans-Serif" font-size="10.00">Fresh/Mezzanine/src/Graphics</text>
<text text-anchor="middle" x="845" y="-141.5" font-family="Helvetica,sans-Serif" font-size="10.00">/gamewindow.cpp</text>
</a>
</g>
</g>
<!-- Node1&#45;&gt;Node8 -->
<g id="edge7" class="edge"><title>Node1&#45;&gt;Node8</title>
<path fill="none" stroke="midnightblue" d="M845,-202.297C845,-193.301 845,-183.653 845,-175.506"/>
<polygon fill="midnightblue" stroke="midnightblue" points="841.5,-202.428 845,-212.428 848.5,-202.428 841.5,-202.428"/>
</g>
<!-- Node9 -->
<g id="node9" class="node"><title>Node9</title>
<g id="a_node9"><a xlink:href="graphicsmanager_8cpp_source.html" target="_top" target="_top" xlink:title="/home/sqeaky/Code/Mezzanine\lFresh/Mezzanine/src/Graphics\l/graphicsmanager.cpp">
<polygon fill="white" stroke="black" points="940.5,-134.5 940.5,-175.5 1095.5,-175.5 1095.5,-134.5 940.5,-134.5"/>
<text text-anchor="start" x="948.5" y="-163.5" font-family="Helvetica,sans-Serif" font-size="10.00">/home/sqeaky/Code/Mezzanine</text>
<text text-anchor="start" x="948.5" y="-152.5" font-family="Helvetica,sans-Serif" font-size="10.00">Fresh/Mezzanine/src/Graphics</text>
<text text-anchor="middle" x="1018" y="-141.5" font-family="Helvetica,sans-Serif" font-size="10.00">/graphicsmanager.cpp</text>
</a>
</g>
</g>
<!-- Node1&#45;&gt;Node9 -->
<g id="edge8" class="edge"><title>Node1&#45;&gt;Node9</title>
<path fill="none" stroke="midnightblue" d="M898.883,-208.329C922.888,-197.783 950.819,-185.513 973.599,-175.506"/>
<polygon fill="midnightblue" stroke="midnightblue" points="897.3,-205.202 889.552,-212.428 900.115,-211.61 897.3,-205.202"/>
</g>
<!-- Node10 -->
<g id="node10" class="node"><title>Node10</title>
<g id="a_node10"><a xlink:href="scenemanager_8cpp_source.html" target="_top" target="_top" xlink:title="/home/sqeaky/Code/Mezzanine\lFresh/Mezzanine/src/Graphics\l/scenemanager.cpp">
<polygon fill="white" stroke="black" points="1113.5,-134.5 1113.5,-175.5 1268.5,-175.5 1268.5,-134.5 1113.5,-134.5"/>
<text text-anchor="start" x="1121.5" y="-163.5" font-family="Helvetica,sans-Serif" font-size="10.00">/home/sqeaky/Code/Mezzanine</text>
<text text-anchor="start" x="1121.5" y="-152.5" font-family="Helvetica,sans-Serif" font-size="10.00">Fresh/Mezzanine/src/Graphics</text>
<text text-anchor="middle" x="1191" y="-141.5" font-family="Helvetica,sans-Serif" font-size="10.00">/scenemanager.cpp</text>
</a>
</g>
</g>
<!-- Node1&#45;&gt;Node10 -->
<g id="edge9" class="edge"><title>Node1&#45;&gt;Node10</title>
<path fill="none" stroke="midnightblue" d="M932.616,-213.502C983.072,-202.756 1047.66,-188.842 1105,-176 1107.69,-175.397 1110.43,-174.78 1113.2,-174.154"/>
<polygon fill="midnightblue" stroke="midnightblue" points="931.773,-210.103 922.72,-215.607 933.23,-216.949 931.773,-210.103"/>
</g>
<!-- Node11 -->
<g id="node11" class="node"><title>Node11</title>
<g id="a_node11"><a xlink:href="viewport_8cpp_source.html" target="_top" target="_top" xlink:title="/home/sqeaky/Code/Mezzanine\lFresh/Mezzanine/src/Graphics\l/viewport.cpp">
<polygon fill="white" stroke="black" points="1286.5,-134.5 1286.5,-175.5 1441.5,-175.5 1441.5,-134.5 1286.5,-134.5"/>
<text text-anchor="start" x="1294.5" y="-163.5" font-family="Helvetica,sans-Serif" font-size="10.00">/home/sqeaky/Code/Mezzanine</text>
<text text-anchor="start" x="1294.5" y="-152.5" font-family="Helvetica,sans-Serif" font-size="10.00">Fresh/Mezzanine/src/Graphics</text>
<text text-anchor="middle" x="1364" y="-141.5" font-family="Helvetica,sans-Serif" font-size="10.00">/viewport.cpp</text>
</a>
</g>
</g>
<!-- Node1&#45;&gt;Node11 -->
<g id="edge10" class="edge"><title>Node1&#45;&gt;Node11</title>
<path fill="none" stroke="midnightblue" d="M932.977,-223.227C1020.74,-213.865 1159.25,-197.432 1278,-176 1280.72,-175.51 1283.47,-174.99 1286.26,-174.447"/>
<polygon fill="midnightblue" stroke="midnightblue" points="932.371,-219.772 922.795,-224.306 933.108,-226.733 932.371,-219.772"/>
</g>
<!-- Node12 -->
<g id="node12" class="node"><title>Node12</title>
<g id="a_node12"><a xlink:href="screen_8cpp_source.html" target="_top" target="_top" xlink:title="/home/sqeaky/Code/Mezzanine\lFresh/Mezzanine/src/UI/screen.cpp">
<polygon fill="white" stroke="black" points="1459.5,-140 1459.5,-170 1632.5,-170 1632.5,-140 1459.5,-140"/>
<text text-anchor="start" x="1467.5" y="-158" font-family="Helvetica,sans-Serif" font-size="10.00">/home/sqeaky/Code/Mezzanine</text>
<text text-anchor="middle" x="1546" y="-147" font-family="Helvetica,sans-Serif" font-size="10.00">Fresh/Mezzanine/src/UI/screen.cpp</text>
</a>
</g>
</g>
<!-- Node1&#45;&gt;Node12 -->
<g id="edge11" class="edge"><title>Node1&#45;&gt;Node12</title>
<path fill="none" stroke="midnightblue" d="M932.917,-227.067C1051.16,-219.705 1267.77,-203.66 1451,-176 1461.92,-174.352 1473.47,-172.238 1484.61,-170.005"/>
<polygon fill="midnightblue" stroke="midnightblue" points="932.597,-223.58 922.832,-227.688 933.028,-230.566 932.597,-223.58"/>
</g>
<!-- Node4 -->
<g id="node4" class="node"><title>Node4</title>
<g id="a_node4"><a xlink:href="mezzanine_8h.html" target="_top" target="_top" xlink:title="A single file that includes all of the Mezzanine engine. ">
<polygon fill="white" stroke="black" points="214.5,-67.5 214.5,-97.5 381.5,-97.5 381.5,-67.5 214.5,-67.5"/>
<text text-anchor="start" x="222.5" y="-85.5" font-family="Helvetica,sans-Serif" font-size="10.00">/home/sqeaky/Code/Mezzanine</text>
<text text-anchor="middle" x="298" y="-74.5" font-family="Helvetica,sans-Serif" font-size="10.00">Fresh/Mezzanine/src/mezzanine.h</text>
</a>
</g>
</g>
<!-- Node3&#45;&gt;Node4 -->
<g id="edge3" class="edge"><title>Node3&#45;&gt;Node4</title>
<path fill="none" stroke="midnightblue" d="M298,-124.08C298,-115.006 298,-105.45 298,-97.8916"/>
<polygon fill="midnightblue" stroke="midnightblue" points="294.5,-124.362 298,-134.362 301.5,-124.362 294.5,-124.362"/>
</g>
<!-- Node5 -->
<g id="node5" class="node"><title>Node5</title>
<g id="a_node5"><a xlink:href="entresol_8cpp_source.html" target="_top" target="_top" xlink:title="/home/sqeaky/Code/Mezzanine\lFresh/Mezzanine/src/entresol.cpp">
<polygon fill="white" stroke="black" points="216,-0.5 216,-30.5 380,-30.5 380,-0.5 216,-0.5"/>
<text text-anchor="start" x="224" y="-18.5" font-family="Helvetica,sans-Serif" font-size="10.00">/home/sqeaky/Code/Mezzanine</text>
<text text-anchor="middle" x="298" y="-7.5" font-family="Helvetica,sans-Serif" font-size="10.00">Fresh/Mezzanine/src/entresol.cpp</text>
</a>
</g>
</g>
<!-- Node4&#45;&gt;Node5 -->
<g id="edge4" class="edge"><title>Node4&#45;&gt;Node5</title>
<path fill="none" stroke="midnightblue" d="M298,-57.1081C298,-48.1539 298,-38.3227 298,-30.5765"/>
<polygon fill="midnightblue" stroke="midnightblue" points="294.5,-57.3959 298,-67.396 301.5,-57.396 294.5,-57.3959"/>
</g>
</g>
</svg>
        <g id="navigator" transform="translate(0 0)" fill="#404254">
                <rect fill="#f2f5e9" fill-opacity="0.5" stroke="#606060" stroke-width=".5" x="0" y="0" width="60" height="60"/>
                <use id="zoomplus" xlink:href="#zoomPlus" target="_top" x="17" y="9" onmousedown="handleZoom(evt,'in')"/>
                <use id="zoomminus" xlink:href="#zoomMin" target="_top" x="42" y="9" onmousedown="handleZoom(evt,'out')"/>
                <use id="reset" xlink:href="#resetDef" target="_top" x="30" y="36" onmousedown="handleReset()"/>
                <g id="arrowUp" xlink:href="#dirArrow" target="_top" transform="translate(30 24)" onmousedown="handlePan(0,-1)">
                  <use xlink:href="#rim" target="_top" fill="#404040">
                        <set attributeName="fill" to="#808080" begin="arrowUp.mouseover" end="arrowUp.mouseout"/>
                  </use>
                  <path fill="none" stroke="white" stroke-width="1.5" d="M0,-3.0v7 M-2.5,-0.5L0,-3.0L2.5,-0.5"/>
                </g>
                <g id="arrowRight" xlink:href="#dirArrow" target="_top" transform="rotate(90) translate(36 -43)" onmousedown="handlePan(1,0)">
                  <use xlink:href="#rim" target="_top" fill="#404040">
                        <set attributeName="fill" to="#808080" begin="arrowRight.mouseover" end="arrowRight.mouseout"/>
                  </use>
                  <path fill="none" stroke="white" stroke-width="1.5" d="M0,-3.0v7 M-2.5,-0.5L0,-3.0L2.5,-0.5"/>
                </g>
                <g id="arrowDown" xlink:href="#dirArrow" target="_top" transform="rotate(180) translate(-30 -48)" onmousedown="handlePan(0,1)">
                  <use xlink:href="#rim" target="_top" fill="#404040">
                        <set attributeName="fill" to="#808080" begin="arrowDown.mouseover" end="arrowDown.mouseout"/>
                  </use>
                  <path fill="none" stroke="white" stroke-width="1.5" d="M0,-3.0v7 M-2.5,-0.5L0,-3.0L2.5,-0.5"/>
                </g>
                <g id="arrowLeft" xlink:href="#dirArrow" target="_top" transform="rotate(270) translate(-36 17)" onmousedown="handlePan(-1,0)">
                  <use xlink:href="#rim" target="_top" fill="#404040">
                        <set attributeName="fill" to="#808080" begin="arrowLeft.mouseover" end="arrowLeft.mouseout"/>
                  </use>
                  <path fill="none" stroke="white" stroke-width="1.5" d="M0,-3.0v7 M-2.5,-0.5L0,-3.0L2.5,-0.5"/>
                </g>
        </g>
        <svg viewBox="0 0 15 15" width="100%" height="30px" preserveAspectRatio="xMaxYMin meet">
         <g id="arrow_out" transform="scale(0.3 0.3)">
          <a xlink:href="cameraproxy_8h__dep__incl_org.svg" target="_top" target="_base">
           <rect id="button" ry="5" rx="5" y="6" x="6" height="38" width="38"
                fill="#f2f5e9" fill-opacity="0.5" stroke="#606060" stroke-width="1.0"/>
           <path id="arrow"
             d="M 11.500037,31.436501 C 11.940474,20.09759 22.043105,11.32322 32.158766,21.979434 L 37.068811,17.246167 C 37.068811,17.246167 37.088388,32 37.088388,32 L 22.160133,31.978069 C 22.160133,31.978069 26.997745,27.140456 26.997745,27.140456 C 18.528582,18.264221 13.291696,25.230495 11.500037,31.436501 z"
             style="fill:#404040;"/>
          </a>
         </g>
        </svg>
</svg>
