<?xml version="1.0" encoding="UTF-8" standalone="no"?>
<!DOCTYPE svg PUBLIC "-//W3C//DTD SVG 1.1//EN"
 "http://www.w3.org/Graphics/SVG/1.1/DTD/svg11.dtd">
<!-- Generated by graphviz version 2.26.3 (20100126.1600)
 -->
<!-- Title: /home/Code/Mezzanine/Mezzanine/src/camera.h Pages: 1 -->
<svg width="1732pt" height="200pt"
 viewBox="0.00 0.00 1732.00 200.00" xmlns="http://www.w3.org/2000/svg" xmlns:xlink="http://www.w3.org/1999/xlink">
<g id="graph1" class="graph" transform="scale(1 1) rotate(0) translate(4 196)">
<title>/home/Code/Mezzanine/Mezzanine/src/camera.h</title>
<polygon fill="white" stroke="white" points="-4,5 -4,-196 1729,-196 1729,5 -4,5"/>
<!-- Node1 -->
<g id="node1" class="node"><title>Node1</title>
<polygon fill="#bfbfbf" stroke="black" points="860,-157 860,-191 996,-191 996,-157 860,-157"/>
<text text-anchor="start" x="868" y="-178" font-family="FreeSans" font-size="10.00">/home/Code/Mezzanine</text>
<text text-anchor="middle" x="928" y="-165" font-family="FreeSans" font-size="10.00">/Mezzanine/src/camera.h</text>
</g>
<!-- Node2 -->
<g id="node3" class="node"><title>Node2</title>
<a xlink:href="camera_8cpp_source.html" target="_top" xlink:title="/home/Code/Mezzanine\l/Mezzanine/src/camera.cpp">
<polygon fill="white" stroke="black" points="0,-79 0,-113 148,-113 148,-79 0,-79"/>
<text text-anchor="start" x="8" y="-100" font-family="FreeSans" font-size="10.00">/home/Code/Mezzanine</text>
<text text-anchor="middle" x="74" y="-87" font-family="FreeSans" font-size="10.00">/Mezzanine/src/camera.cpp</text>
</a>
</g>
<!-- Node1&#45;&gt;Node2 -->
<g id="edge2" class="edge"><title>Node1&#45;&gt;Node2</title>
<path fill="none" stroke="midnightblue" d="M849.741,-170.624C681.173,-163.01 288.413,-143.33 157,-120 147.105,-118.243 136.704,-115.762 126.74,-113.056"/>
<polygon fill="midnightblue" stroke="midnightblue" points="849.64,-174.123 859.787,-171.076 849.954,-167.13 849.64,-174.123"/>
</g>
<!-- Node3 -->
<g id="node5" class="node"><title>Node3</title>
<a xlink:href="cameracontroller_8cpp_source.html" target="_top" xlink:title="/home/Code/Mezzanine\l/Mezzanine/src/cameracontroller.cpp">
<polygon fill="white" stroke="black" points="165.5,-79 165.5,-113 356.5,-113 356.5,-79 165.5,-79"/>
<text text-anchor="start" x="173.5" y="-100" font-family="FreeSans" font-size="10.00">/home/Code/Mezzanine</text>
<text text-anchor="middle" x="261" y="-87" font-family="FreeSans" font-size="10.00">/Mezzanine/src/cameracontroller.cpp</text>
</a>
</g>
<!-- Node1&#45;&gt;Node3 -->
<g id="edge4" class="edge"><title>Node1&#45;&gt;Node3</title>
<path fill="none" stroke="midnightblue" d="M849.328,-169.721C740.104,-163.039 536.584,-147.903 365,-120 353.295,-118.096 340.942,-115.645 328.997,-113.038"/>
<polygon fill="midnightblue" stroke="midnightblue" points="849.406,-173.232 859.599,-170.341 849.829,-166.245 849.406,-173.232"/>
</g>
<!-- Node4 -->
<g id="node7" class="node"><title>Node4</title>
<a xlink:href="cameramanager_8cpp_source.html" target="_top" xlink:title="/home/Code/Mezzanine\l/Mezzanine/src/cameramanager.cpp">
<polygon fill="white" stroke="black" points="374,-79 374,-113 564,-113 564,-79 374,-79"/>
<text text-anchor="start" x="382" y="-100" font-family="FreeSans" font-size="10.00">/home/Code/Mezzanine</text>
<text text-anchor="middle" x="469" y="-87" font-family="FreeSans" font-size="10.00">/Mezzanine/src/cameramanager.cpp</text>
</a>
</g>
<!-- Node1&#45;&gt;Node4 -->
<g id="edge6" class="edge"><title>Node1&#45;&gt;Node4</title>
<path fill="none" stroke="midnightblue" d="M849.761,-163.836C777.636,-154.054 667.74,-138.11 573,-120 562.171,-117.93 550.757,-115.526 539.616,-113.054"/>
<polygon fill="midnightblue" stroke="midnightblue" points="849.304,-167.306 859.682,-165.175 850.24,-160.368 849.304,-167.306"/>
</g>
<!-- Node5 -->
<g id="node9" class="node"><title>Node5</title>
<a xlink:href="mezzanine_8h.html" target="_top" xlink:title="A single file that includes all of the Mezzanine engine.">
<polygon fill="white" stroke="black" points="582,-79 582,-113 734,-113 734,-79 582,-79"/>
<text text-anchor="start" x="590" y="-100" font-family="FreeSans" font-size="10.00">/home/Code/Mezzanine</text>
<text text-anchor="middle" x="658" y="-87" font-family="FreeSans" font-size="10.00">/Mezzanine/src/mezzanine.h</text>
</a>
</g>
<!-- Node1&#45;&gt;Node5 -->
<g id="edge8" class="edge"><title>Node1&#45;&gt;Node5</title>
<path fill="none" stroke="midnightblue" d="M859.353,-154.169C815.483,-141.495 759.171,-125.227 717.259,-113.119"/>
<polygon fill="midnightblue" stroke="midnightblue" points="858.502,-157.566 869.081,-156.979 860.445,-150.841 858.502,-157.566"/>
</g>
<!-- Node7 -->
<g id="node13" class="node"><title>Node7</title>
<a xlink:href="rayquerytool_8cpp_source.html" target="_top" xlink:title="/home/Code/Mezzanine\l/Mezzanine/src/rayquerytool.cpp">
<polygon fill="white" stroke="black" points="751.5,-79 751.5,-113 922.5,-113 922.5,-79 751.5,-79"/>
<text text-anchor="start" x="759.5" y="-100" font-family="FreeSans" font-size="10.00">/home/Code/Mezzanine</text>
<text text-anchor="middle" x="837" y="-87" font-family="FreeSans" font-size="10.00">/Mezzanine/src/rayquerytool.cpp</text>
</a>
</g>
<!-- Node1&#45;&gt;Node7 -->
<g id="edge12" class="edge"><title>Node1&#45;&gt;Node7</title>
<path fill="none" stroke="midnightblue" d="M899.991,-149.992C886.138,-138.118 869.734,-124.058 857.139,-113.262"/>
<polygon fill="midnightblue" stroke="midnightblue" points="897.934,-152.839 907.804,-156.689 902.489,-147.524 897.934,-152.839"/>
</g>
<!-- Node8 -->
<g id="node15" class="node"><title>Node8</title>
<a xlink:href="worldnode_8cpp.html" target="_top" xlink:title="The implementation of the WorldNode, A class to facilitate navigation in 3d environment.">
<polygon fill="white" stroke="black" points="940,-79 940,-113 1100,-113 1100,-79 940,-79"/>
<text text-anchor="start" x="948" y="-100" font-family="FreeSans" font-size="10.00">/home/Code/Mezzanine</text>
<text text-anchor="middle" x="1020" y="-87" font-family="FreeSans" font-size="10.00">/Mezzanine/src/worldnode.cpp</text>
</a>
</g>
<!-- Node1&#45;&gt;Node8 -->
<g id="edge14" class="edge"><title>Node1&#45;&gt;Node8</title>
<path fill="none" stroke="midnightblue" d="M956.317,-149.992C970.322,-138.118 986.906,-124.058 999.639,-113.262"/>
<polygon fill="midnightblue" stroke="midnightblue" points="953.782,-147.553 948.418,-156.689 958.309,-152.892 953.782,-147.553"/>
</g>
<!-- Node9 -->
<g id="node17" class="node"><title>Node9</title>
<a xlink:href="gamewindow_8cpp_source.html" target="_top" xlink:title="/home/Code/Mezzanine\l/Mezzanine/src/Graphics\l/gamewindow.cpp">
<polygon fill="white" stroke="black" points="1117.5,-72.5 1117.5,-119.5 1250.5,-119.5 1250.5,-72.5 1117.5,-72.5"/>
<text text-anchor="start" x="1125.5" y="-106.5" font-family="FreeSans" font-size="10.00">/home/Code/Mezzanine</text>
<text text-anchor="start" x="1125.5" y="-93.5" font-family="FreeSans" font-size="10.00">/Mezzanine/src/Graphics</text>
<text text-anchor="middle" x="1184" y="-80.5" font-family="FreeSans" font-size="10.00">/gamewindow.cpp</text>
</a>
</g>
<!-- Node1&#45;&gt;Node9 -->
<g id="edge16" class="edge"><title>Node1&#45;&gt;Node9</title>
<path fill="none" stroke="midnightblue" d="M996.19,-154.002C1030.14,-143.957 1071.79,-131.504 1109,-120 1111.74,-119.152 1114.54,-118.282 1117.37,-117.398"/>
<polygon fill="midnightblue" stroke="midnightblue" points="994.97,-150.713 986.371,-156.904 996.953,-157.426 994.97,-150.713"/>
</g>
<!-- Node10 -->
<g id="node19" class="node"><title>Node10</title>
<a xlink:href="graphicsmanager_8cpp_source.html" target="_top" xlink:title="/home/Code/Mezzanine\l/Mezzanine/src/Graphics\l/graphicsmanager.cpp">
<polygon fill="white" stroke="black" points="1267.5,-72.5 1267.5,-119.5 1400.5,-119.5 1400.5,-72.5 1267.5,-72.5"/>
<text text-anchor="start" x="1275.5" y="-106.5" font-family="FreeSans" font-size="10.00">/home/Code/Mezzanine</text>
<text text-anchor="start" x="1275.5" y="-93.5" font-family="FreeSans" font-size="10.00">/Mezzanine/src/Graphics</text>
<text text-anchor="middle" x="1334" y="-80.5" font-family="FreeSans" font-size="10.00">/graphicsmanager.cpp</text>
</a>
</g>
<!-- Node1&#45;&gt;Node10 -->
<g id="edge18" class="edge"><title>Node1&#45;&gt;Node10</title>
<path fill="none" stroke="midnightblue" d="M1006.23,-164.561C1073.71,-155.63 1173.51,-140.532 1259,-120 1261.79,-119.33 1264.63,-118.608 1267.49,-117.847"/>
<polygon fill="midnightblue" stroke="midnightblue" points="1005.56,-161.119 996.099,-165.888 1006.47,-168.06 1005.56,-161.119"/>
</g>
<!-- Node11 -->
<g id="node21" class="node"><title>Node11</title>
<a xlink:href="viewport_8cpp_source.html" target="_top" xlink:title="/home/Code/Mezzanine\l/Mezzanine/src/Graphics\l/viewport.cpp">
<polygon fill="white" stroke="black" points="1417.5,-72.5 1417.5,-119.5 1550.5,-119.5 1550.5,-72.5 1417.5,-72.5"/>
<text text-anchor="start" x="1425.5" y="-106.5" font-family="FreeSans" font-size="10.00">/home/Code/Mezzanine</text>
<text text-anchor="start" x="1425.5" y="-93.5" font-family="FreeSans" font-size="10.00">/Mezzanine/src/Graphics</text>
<text text-anchor="middle" x="1484" y="-80.5" font-family="FreeSans" font-size="10.00">/viewport.cpp</text>
</a>
</g>
<!-- Node1&#45;&gt;Node11 -->
<g id="edge20" class="edge"><title>Node1&#45;&gt;Node11</title>
<path fill="none" stroke="midnightblue" d="M1006.58,-169.961C1102.46,-163.94 1269.06,-149.936 1409,-120 1411.67,-119.428 1414.39,-118.799 1417.12,-118.125"/>
<polygon fill="midnightblue" stroke="midnightblue" points="1006.16,-166.481 996.39,-170.588 1006.59,-173.467 1006.16,-166.481"/>
</g>
<!-- Node12 -->
<g id="node23" class="node"><title>Node12</title>
<a xlink:href="screen_8cpp_source.html" target="_top" xlink:title="/home/Code/Mezzanine\l/Mezzanine/src/UI/screen.cpp">
<polygon fill="white" stroke="black" points="1568,-79 1568,-113 1724,-113 1724,-79 1568,-79"/>
<text text-anchor="start" x="1576" y="-100" font-family="FreeSans" font-size="10.00">/home/Code/Mezzanine</text>
<text text-anchor="middle" x="1646" y="-87" font-family="FreeSans" font-size="10.00">/Mezzanine/src/UI/screen.cpp</text>
</a>
</g>
<!-- Node1&#45;&gt;Node12 -->
<g id="edge22" class="edge"><title>Node1&#45;&gt;Node12</title>
<path fill="none" stroke="midnightblue" d="M1006.42,-171.914C1126.34,-167.687 1362.09,-155.277 1559,-120 1569.18,-118.176 1579.89,-115.698 1590.19,-113.023"/>
<polygon fill="midnightblue" stroke="midnightblue" points="1006.11,-168.423 996.236,-172.263 1006.35,-175.419 1006.11,-168.423"/>
</g>
<!-- Node6 -->
<g id="node11" class="node"><title>Node6</title>
<a xlink:href="entresol_8cpp_source.html" target="_top" xlink:title="/home/Code/Mezzanine\l/Mezzanine/src/entresol.cpp">
<polygon fill="white" stroke="black" points="583,-1 583,-35 733,-35 733,-1 583,-1"/>
<text text-anchor="start" x="591" y="-22" font-family="FreeSans" font-size="10.00">/home/Code/Mezzanine</text>
<text text-anchor="middle" x="658" y="-9" font-family="FreeSans" font-size="10.00">/Mezzanine/src/entresol.cpp</text>
</a>
</g>
<!-- Node5&#45;&gt;Node6 -->
<g id="edge10" class="edge"><title>Node5&#45;&gt;Node6</title>
<path fill="none" stroke="midnightblue" d="M658,-68.6102C658,-57.5188 658,-45.0489 658,-35.2623"/>
<polygon fill="midnightblue" stroke="midnightblue" points="654.5,-68.6892 658,-78.6893 661.5,-68.6893 654.5,-68.6892"/>
</g>
</g>
</svg>
