<?xml version="1.0" encoding="UTF-8" standalone="no"?>
<!DOCTYPE svg PUBLIC "-//W3C//DTD SVG 1.1//EN"
 "http://www.w3.org/Graphics/SVG/1.1/DTD/svg11.dtd">
<!-- Generated by graphviz version 2.38.0 (20140413.2041)
 -->
<!-- Title: Mezzanine::Graphics::Procedural::CycloidModifier Pages: 1 -->
<svg width="396pt" height="116pt"
 viewBox="0.00 0.00 396.00 115.50" xmlns="http://www.w3.org/2000/svg" xmlns:xlink="http://www.w3.org/1999/xlink">
<g id="graph0" class="graph" transform="scale(1 1) rotate(0) translate(4 111.5)">
<title>Mezzanine::Graphics::Procedural::CycloidModifier</title>
<polygon fill="white" stroke="none" points="-4,4 -4,-111.5 392,-111.5 392,4 -4,4"/>
<!-- Node1 -->
<g id="node1" class="node"><title>Node1</title>
<polygon fill="#bfbfbf" stroke="black" points="245,-33 245,-63 388,-63 388,-33 245,-33"/>
<text text-anchor="start" x="253" y="-51" font-family="Helvetica,sans-Serif" font-size="10.00">Mezzanine::Graphics</text>
<text text-anchor="middle" x="316.5" y="-40" font-family="Helvetica,sans-Serif" font-size="10.00">::Procedural::CycloidModifier</text>
</g>
<!-- Node2 -->
<g id="node2" class="node"><title>Node2</title>
<g id="a_node2"><a xlink:href="classMezzanine_1_1Graphics_1_1Procedural_1_1TextureModifier.html" target="_top" xlink:title="A base class for modifying the contents of an already populated texture buffer. ">
<polygon fill="white" stroke="black" points="0,-77 0,-107 143,-107 143,-77 0,-77"/>
<text text-anchor="start" x="8" y="-95" font-family="Helvetica,sans-Serif" font-size="10.00">Mezzanine::Graphics</text>
<text text-anchor="middle" x="71.5" y="-84" font-family="Helvetica,sans-Serif" font-size="10.00">::Procedural::TextureModifier</text>
</a>
</g>
</g>
<!-- Node2&#45;&gt;Node1 -->
<g id="edge1" class="edge"><title>Node2&#45;&gt;Node1</title>
<path fill="none" stroke="midnightblue" d="M153.012,-77.4217C182.656,-72.054 215.988,-66.0186 244.712,-60.8176"/>
<polygon fill="midnightblue" stroke="midnightblue" points="152.328,-73.9885 143.112,-79.2143 153.576,-80.8765 152.328,-73.9885"/>
</g>
<!-- Node3 -->
<g id="node3" class="node"><title>Node3</title>
<g id="a_node3"><a xlink:href="classMezzanine_1_1Vector2.html" target="_top" xlink:title="This is used to represent a point on a 2 dimentional area, such as a screen. ">
<polygon fill="white" stroke="black" points="19.5,-38.5 19.5,-57.5 123.5,-57.5 123.5,-38.5 19.5,-38.5"/>
<text text-anchor="middle" x="71.5" y="-45.5" font-family="Helvetica,sans-Serif" font-size="10.00">Mezzanine::Vector2</text>
</a>
</g>
</g>
<!-- Node3&#45;&gt;Node1 -->
<g id="edge2" class="edge"><title>Node3&#45;&gt;Node1</title>
<path fill="none" stroke="#9a32cd" stroke-dasharray="5,2" d="M133.945,-48C167.749,-48 209.838,-48 244.978,-48"/>
<polygon fill="#9a32cd" stroke="#9a32cd" points="133.737,-44.5001 123.737,-48 133.737,-51.5001 133.737,-44.5001"/>
<text text-anchor="middle" x="194" y="-51" font-family="Helvetica,sans-Serif" font-size="10.00"> CycloidCenter</text>
</g>
<!-- Node4 -->
<g id="node4" class="node"><title>Node4</title>
<g id="a_node4"><a xlink:href="classMezzanine_1_1ColourValue.html" target="_top" xlink:title="This is a simple class for holding 4 reals representing the colour any give object or lightsource can...">
<polygon fill="white" stroke="black" points="10,-0.5 10,-19.5 133,-19.5 133,-0.5 10,-0.5"/>
<text text-anchor="middle" x="71.5" y="-7.5" font-family="Helvetica,sans-Serif" font-size="10.00">Mezzanine::ColourValue</text>
</a>
</g>
</g>
<!-- Node4&#45;&gt;Node1 -->
<g id="edge3" class="edge"><title>Node4&#45;&gt;Node1</title>
<path fill="none" stroke="#9a32cd" stroke-dasharray="5,2" d="M142.986,-20.1881C169.362,-24.0807 199.572,-28.6344 227,-33 232.848,-33.9308 238.91,-34.9158 244.994,-35.9184"/>
<polygon fill="#9a32cd" stroke="#9a32cd" points="143.481,-16.7234 133.078,-18.7303 142.462,-23.6488 143.481,-16.7234"/>
<text text-anchor="middle" x="194" y="-36" font-family="Helvetica,sans-Serif" font-size="10.00"> CycloidColour</text>
</g>
</g>
</svg>
