<?xml version="1.0" encoding="UTF-8" standalone="no"?>
<!DOCTYPE svg PUBLIC "-//W3C//DTD SVG 1.1//EN"
 "http://www.w3.org/Graphics/SVG/1.1/DTD/svg11.dtd">
<!-- Generated by graphviz version 2.26.3 (20100126.1600)
 -->
<!-- Title: Mezzanine::MeshTerrain Pages: 1 -->
<svg width="3186pt" height="592pt"
 viewBox="0.00 0.00 3186.00 592.00" xmlns="http://www.w3.org/2000/svg" xmlns:xlink="http://www.w3.org/1999/xlink">
<g id="graph1" class="graph" transform="scale(1 1) rotate(0) translate(4 588)">
<title>Mezzanine::MeshTerrain</title>
<polygon fill="white" stroke="white" points="-4,5 -4,-588 3183,-588 3183,5 -4,5"/>
<!-- Node1 -->
<g id="node1" class="node"><title>Node1</title>
<polygon fill="#bfbfbf" stroke="black" points="1656,-422.5 1656,-443.5 1780,-443.5 1780,-422.5 1656,-422.5"/>
<text text-anchor="middle" x="1718" y="-430.5" font-family="Helvetica,sans-Serif" font-size="10.00">Mezzanine::MeshTerrain</text>
</g>
<!-- Node2 -->
<g id="node2" class="node"><title>Node2</title>
<a xlink:href="classMezzanine_1_1TerrainBase.html" target="_top" xlink:title="This is the base class from which all the terrains inherit. ">
<polygon fill="white" stroke="black" points="1354,-422.5 1354,-443.5 1476,-443.5 1476,-422.5 1354,-422.5"/>
<text text-anchor="middle" x="1415" y="-430.5" font-family="Helvetica,sans-Serif" font-size="10.00">Mezzanine::TerrainBase</text>
</a>
</g>
<!-- Node2&#45;&gt;Node1 -->
<g id="edge2" class="edge"><title>Node2&#45;&gt;Node1</title>
<path fill="none" stroke="midnightblue" d="M1486.38,-433C1537.9,-433 1606.77,-433 1656,-433"/>
<polygon fill="midnightblue" stroke="midnightblue" points="1486.32,-429.5 1476.32,-433 1486.32,-436.5 1486.32,-429.5"/>
</g>
<!-- Node3 -->
<g id="node4" class="node"><title>Node3</title>
<a xlink:href="classMezzanine_1_1WorldObject.html" target="_top" xlink:title="This is the base class from which classes that are insertable into the physical world. ">
<polygon fill="white" stroke="black" points="1068,-410.5 1068,-431.5 1192,-431.5 1192,-410.5 1068,-410.5"/>
<text text-anchor="middle" x="1130" y="-418.5" font-family="Helvetica,sans-Serif" font-size="10.00">Mezzanine::WorldObject</text>
</a>
</g>
<!-- Node3&#45;&gt;Node2 -->
<g id="edge4" class="edge"><title>Node3&#45;&gt;Node2</title>
<path fill="none" stroke="midnightblue" d="M1202.28,-424.043C1249.12,-426.016 1309.47,-428.557 1353.92,-430.428"/>
<polygon fill="midnightblue" stroke="midnightblue" points="1202.33,-420.542 1192.19,-423.619 1202.04,-427.536 1202.33,-420.542"/>
</g>
<!-- Node18 -->
<g id="node36" class="node"><title>Node18</title>
<a xlink:href="classMezzanine_1_1WorldProxy.html" target="_top" xlink:title="This is the base class for proxy objects belonging to the various 3D subsystems. ">
<polygon fill="white" stroke="black" points="1354.5,-361.5 1354.5,-382.5 1475.5,-382.5 1475.5,-361.5 1354.5,-361.5"/>
<text text-anchor="middle" x="1415" y="-369.5" font-family="Helvetica,sans-Serif" font-size="10.00">Mezzanine::WorldProxy</text>
</a>
</g>
<!-- Node3&#45;&gt;Node18 -->
<g id="edge42" class="edge"><title>Node3&#45;&gt;Node18</title>
<path fill="none" stroke="#9a32cd" stroke-dasharray="5,2" d="M1199.71,-408.784C1203.19,-408.179 1206.63,-407.582 1210,-407 1258.56,-398.605 1313.62,-389.212 1354.44,-382.272"/>
<polygon fill="#9a32cd" stroke="#9a32cd" points="1199.1,-405.337 1189.84,-410.5 1200.3,-412.234 1199.1,-405.337"/>
<text text-anchor="middle" x="1273" y="-411" font-family="Helvetica,sans-Serif" font-size="10.00"> ParentObject</text>
</g>
<!-- Node4 -->
<g id="node6" class="node"><title>Node4</title>
<a xlink:href="classMezzanine_1_1TransformableObject.html" target="_top" xlink:title="This is an interface for all 3D objects that can have their full transforms manipulated. ">
<polygon fill="white" stroke="black" points="842,-362 842,-396 974,-396 974,-362 842,-362"/>
<text text-anchor="start" x="850" y="-383" font-family="Helvetica,sans-Serif" font-size="10.00">Mezzanine::Transformable</text>
<text text-anchor="middle" x="908" y="-370" font-family="Helvetica,sans-Serif" font-size="10.00">Object</text>
</a>
</g>
<!-- Node4&#45;&gt;Node3 -->
<g id="edge6" class="edge"><title>Node4&#45;&gt;Node3</title>
<path fill="none" stroke="midnightblue" d="M983.913,-393.362C1013.59,-398.976 1046.99,-405.296 1074.36,-410.474"/>
<polygon fill="midnightblue" stroke="midnightblue" points="984.483,-389.908 974.006,-391.488 983.181,-396.786 984.483,-389.908"/>
</g>
<!-- Node4&#45;&gt;Node18 -->
<g id="edge40" class="edge"><title>Node4&#45;&gt;Node18</title>
<path fill="none" stroke="midnightblue" d="M984.158,-377.949C1085.19,-376.554 1261.53,-374.119 1354.18,-372.84"/>
<polygon fill="midnightblue" stroke="midnightblue" points="983.972,-374.451 974.021,-378.088 984.069,-381.45 983.972,-374.451"/>
</g>
<!-- Node5 -->
<g id="node8" class="node"><title>Node5</title>
<a xlink:href="classMezzanine_1_1World.html" target="_top" xlink:title="This class represents a world for objects to interact within. ">
<polygon fill="white" stroke="black" points="860.5,-422.5 860.5,-443.5 955.5,-443.5 955.5,-422.5 860.5,-422.5"/>
<text text-anchor="middle" x="908" y="-430.5" font-family="Helvetica,sans-Serif" font-size="10.00">Mezzanine::World</text>
</a>
</g>
<!-- Node5&#45;&gt;Node3 -->
<g id="edge8" class="edge"><title>Node5&#45;&gt;Node3</title>
<path fill="none" stroke="#9a32cd" stroke-dasharray="5,2" d="M965.923,-429.869C997.18,-428.179 1035.78,-426.093 1067.69,-424.368"/>
<polygon fill="#9a32cd" stroke="#9a32cd" points="965.421,-426.391 955.625,-430.426 965.799,-433.381 965.421,-426.391"/>
<text text-anchor="middle" x="1021" y="-432" font-family="Helvetica,sans-Serif" font-size="10.00"> ParentWorld</text>
</g>
<!-- Node7 -->
<g id="node12" class="node"><title>Node7</title>
<a xlink:href="classMezzanine_1_1WorldManager.html" target="_top" xlink:title="This is the base class for all managers that belong to a single world instance. ">
<polygon fill="white" stroke="black" points="368.5,-469.5 368.5,-490.5 501.5,-490.5 501.5,-469.5 368.5,-469.5"/>
<text text-anchor="middle" x="435" y="-477.5" font-family="Helvetica,sans-Serif" font-size="10.00">Mezzanine::WorldManager</text>
</a>
</g>
<!-- Node5&#45;&gt;Node7 -->
<g id="edge22" class="edge"><title>Node5&#45;&gt;Node7</title>
<path fill="none" stroke="#9a32cd" stroke-dasharray="5,2" d="M851.038,-445.508C842.023,-447.204 832.78,-448.778 824,-450 711.459,-465.667 579.378,-473.683 501.689,-477.348"/>
<polygon fill="#9a32cd" stroke="#9a32cd" points="851.934,-448.899 861.082,-443.553 850.597,-442.028 851.934,-448.899"/>
<text text-anchor="middle" x="658" y="-476" font-family="Helvetica,sans-Serif" font-size="10.00"> ParentWorld</text>
</g>
<!-- Node6 -->
<g id="node10" class="node"><title>Node6</title>
<polygon fill="white" stroke="#bfbfbf" points="582.5,-422.5 582.5,-443.5 733.5,-443.5 733.5,-422.5 582.5,-422.5"/>
<text text-anchor="middle" x="658" y="-430.5" font-family="Helvetica,sans-Serif" font-size="10.00">std::vector&lt; WorldManager * &gt;</text>
</g>
<!-- Node6&#45;&gt;Node5 -->
<g id="edge10" class="edge"><title>Node6&#45;&gt;Node5</title>
<path fill="none" stroke="#9a32cd" stroke-dasharray="5,2" d="M743.997,-433C783.005,-433 827.645,-433 860.493,-433"/>
<polygon fill="#9a32cd" stroke="#9a32cd" points="743.687,-429.5 733.687,-433 743.687,-436.5 743.687,-429.5"/>
<text text-anchor="middle" x="788" y="-437" font-family="Helvetica,sans-Serif" font-size="10.00"> WorldManagers</text>
</g>
<!-- Node7&#45;&gt;Node6 -->
<g id="edge12" class="edge"><title>Node7&#45;&gt;Node6</title>
<path fill="none" stroke="#9a32cd" stroke-dasharray="5,2" d="M473.746,-466.22C488.13,-461.497 504.674,-456.52 520,-453 540.055,-448.394 562.006,-444.642 582.383,-441.684"/>
<polygon fill="#9a32cd" stroke="#9a32cd" points="472.544,-462.931 464.175,-469.429 474.769,-469.568 472.544,-462.931"/>
<text text-anchor="middle" x="542" y="-457" font-family="Helvetica,sans-Serif" font-size="10.00"> elements</text>
</g>
<!-- Node19 -->
<g id="node40" class="node"><title>Node19</title>
<a xlink:href="classMezzanine_1_1Physics_1_1PhysicsManager.html" target="_top" xlink:title="This is simply a place for storing all the Physics Related functions. ">
<polygon fill="white" stroke="black" points="2770.5,-195 2770.5,-229 2875.5,-229 2875.5,-195 2770.5,-195"/>
<text text-anchor="start" x="2778.5" y="-216" font-family="Helvetica,sans-Serif" font-size="10.00">Mezzanine::Physics</text>
<text text-anchor="middle" x="2823" y="-203" font-family="Helvetica,sans-Serif" font-size="10.00">::PhysicsManager</text>
</a>
</g>
<!-- Node7&#45;&gt;Node19 -->
<g id="edge46" class="edge"><title>Node7&#45;&gt;Node19</title>
<path fill="none" stroke="midnightblue" d="M479.848,-493.204C524.566,-505.189 595.42,-521 658,-521 658,-521 658,-521 2565,-521 2718.4,-521 2798.42,-293.832 2818.12,-229.053"/>
<polygon fill="midnightblue" stroke="midnightblue" points="480.734,-489.818 470.165,-490.559 478.89,-496.57 480.734,-489.818"/>
</g>
<!-- Node8 -->
<g id="node14" class="node"><title>Node8</title>
<a xlink:href="classMezzanine_1_1ManagerBase.html" target="_top" xlink:title="This is the base class from which all the Entresol and World Managers inherit. ">
<polygon fill="white" stroke="black" points="200,-469.5 200,-490.5 330,-490.5 330,-469.5 200,-469.5"/>
<text text-anchor="middle" x="265" y="-477.5" font-family="Helvetica,sans-Serif" font-size="10.00">Mezzanine::ManagerBase</text>
</a>
</g>
<!-- Node8&#45;&gt;Node7 -->
<g id="edge14" class="edge"><title>Node8&#45;&gt;Node7</title>
<path fill="none" stroke="midnightblue" d="M340.269,-480C349.589,-480 359.066,-480 368.246,-480"/>
<polygon fill="midnightblue" stroke="midnightblue" points="340.24,-476.5 330.24,-480 340.24,-483.5 340.24,-476.5"/>
</g>
<!-- Node9 -->
<g id="node16" class="node"><title>Node9</title>
<a xlink:href="classMezzanine_1_1Entresol.html" target="_top" xlink:title="This is the main entry point for the entire library. ">
<polygon fill="white" stroke="black" points="0,-433.5 0,-454.5 106,-454.5 106,-433.5 0,-433.5"/>
<text text-anchor="middle" x="53" y="-441.5" font-family="Helvetica,sans-Serif" font-size="10.00">Mezzanine::Entresol</text>
</a>
</g>
<!-- Node9&#45;&gt;Node8 -->
<g id="edge16" class="edge"><title>Node9&#45;&gt;Node8</title>
<path fill="none" stroke="#9a32cd" stroke-dasharray="5,2" d="M116.126,-454.72C143.622,-459.389 175.746,-464.844 203.102,-469.489"/>
<polygon fill="#9a32cd" stroke="#9a32cd" points="116.668,-451.261 106.223,-453.038 115.496,-458.163 116.668,-451.261"/>
<text text-anchor="middle" x="153" y="-469" font-family="Helvetica,sans-Serif" font-size="10.00"> TheEntresol</text>
</g>
<!-- Node10 -->
<g id="node18" class="node"><title>Node10</title>
<a xlink:href="classMezzanine_1_1Singleton.html" target="_top" xlink:title="Mezzanine::Singleton\l\&lt; Entresol \&gt;">
<polygon fill="white" stroke="black" points="210,-405 210,-439 320,-439 320,-405 210,-405"/>
<text text-anchor="start" x="218" y="-426" font-family="Helvetica,sans-Serif" font-size="10.00">Mezzanine::Singleton</text>
<text text-anchor="middle" x="265" y="-413" font-family="Helvetica,sans-Serif" font-size="10.00">&lt; Entresol &gt;</text>
</a>
</g>
<!-- Node9&#45;&gt;Node10 -->
<g id="edge20" class="edge"><title>Node9&#45;&gt;Node10</title>
<path fill="none" stroke="#9a32cd" stroke-dasharray="5,2" d="M116.497,-437.411C146.23,-434.325 181.309,-430.685 209.906,-427.717"/>
<polygon fill="#9a32cd" stroke="#9a32cd" points="115.808,-433.963 106.223,-438.477 116.531,-440.926 115.808,-433.963"/>
<text text-anchor="middle" x="153" y="-440" font-family="Helvetica,sans-Serif" font-size="10.00"> SingletonPtr</text>
</g>
<!-- Node10&#45;&gt;Node9 -->
<g id="edge18" class="edge"><title>Node10&#45;&gt;Node9</title>
<path fill="none" stroke="midnightblue" d="M199.804,-420.133C175.863,-420.302 148.604,-421.498 124,-425 111.367,-426.798 97.77,-430.09 85.8895,-433.435"/>
<polygon fill="midnightblue" stroke="midnightblue" points="199.848,-423.633 209.844,-420.12 199.839,-416.633 199.848,-423.633"/>
</g>
<!-- Node11 -->
<g id="node22" class="node"><title>Node11</title>
<a xlink:title="STL class. ">
<polygon fill="white" stroke="#bfbfbf" points="878,-279.5 878,-300.5 938,-300.5 938,-279.5 878,-279.5"/>
<text text-anchor="middle" x="908" y="-287.5" font-family="Helvetica,sans-Serif" font-size="10.00">std::string</text>
</a>
</g>
<!-- Node11&#45;&gt;Node3 -->
<g id="edge24" class="edge"><title>Node11&#45;&gt;Node3</title>
<path fill="none" stroke="#9a32cd" stroke-dasharray="5,2" d="M934.983,-305.922C980.991,-333.071 1073.4,-387.601 1112.2,-410.498"/>
<polygon fill="#9a32cd" stroke="#9a32cd" points="936.558,-302.788 926.167,-300.72 933.001,-308.817 936.558,-302.788"/>
<text text-anchor="middle" x="1021" y="-375" font-family="Helvetica,sans-Serif" font-size="10.00"> ObjectName</text>
</g>
<!-- Node35 -->
<g id="node83" class="node"><title>Node35</title>
<a xlink:href="classMezzanine_1_1WorldTrigger.html" target="_top" xlink:title="This is an abstract class for creating in&#45;game triggers. ">
<polygon fill="white" stroke="black" points="1210.5,-179.5 1210.5,-200.5 1335.5,-200.5 1335.5,-179.5 1210.5,-179.5"/>
<text text-anchor="middle" x="1273" y="-187.5" font-family="Helvetica,sans-Serif" font-size="10.00">Mezzanine::WorldTrigger</text>
</a>
</g>
<!-- Node11&#45;&gt;Node35 -->
<g id="edge100" class="edge"><title>Node11&#45;&gt;Node35</title>
<path fill="none" stroke="#9a32cd" stroke-dasharray="5,2" d="M948.046,-279.029C1018.74,-259.66 1164.76,-219.654 1234.41,-200.572"/>
<polygon fill="#9a32cd" stroke="#9a32cd" points="946.9,-275.713 938.18,-281.732 948.749,-282.465 946.9,-275.713"/>
<text text-anchor="middle" x="1021" y="-271" font-family="Helvetica,sans-Serif" font-size="10.00"> Name</text>
</g>
<!-- Node38 -->
<g id="node90" class="node"><title>Node38</title>
<a xlink:href="classMezzanine_1_1Physics_1_1CollisionShape.html" target="_top" xlink:title="This is the base class for all collision shapes. ">
<polygon fill="white" stroke="black" points="1220.5,-273 1220.5,-307 1325.5,-307 1325.5,-273 1220.5,-273"/>
<text text-anchor="start" x="1228.5" y="-294" font-family="Helvetica,sans-Serif" font-size="10.00">Mezzanine::Physics</text>
<text text-anchor="middle" x="1273" y="-281" font-family="Helvetica,sans-Serif" font-size="10.00">::CollisionShape</text>
</a>
</g>
<!-- Node11&#45;&gt;Node38 -->
<g id="edge108" class="edge"><title>Node11&#45;&gt;Node38</title>
<path fill="none" stroke="#9a32cd" stroke-dasharray="5,2" d="M948.228,-290C1014.47,-290 1146.51,-290 1220.19,-290"/>
<polygon fill="#9a32cd" stroke="#9a32cd" points="948.18,-286.5 938.18,-290 948.18,-293.5 948.18,-286.5"/>
<text text-anchor="middle" x="1021" y="-294" font-family="Helvetica,sans-Serif" font-size="10.00"> Name</text>
</g>
<!-- Node12 -->
<g id="node24" class="node"><title>Node12</title>
<a xlink:title="STL class. ">
<polygon fill="white" stroke="#bfbfbf" points="610.5,-273 610.5,-307 705.5,-307 705.5,-273 610.5,-273"/>
<text text-anchor="start" x="618.5" y="-294" font-family="Helvetica,sans-Serif" font-size="10.00">std::basic_string&lt;</text>
<text text-anchor="middle" x="658" y="-281" font-family="Helvetica,sans-Serif" font-size="10.00"> char &gt;</text>
</a>
</g>
<!-- Node12&#45;&gt;Node11 -->
<g id="edge26" class="edge"><title>Node12&#45;&gt;Node11</title>
<path fill="none" stroke="midnightblue" d="M715.75,-290C766.33,-290 837.828,-290 877.85,-290"/>
<polygon fill="midnightblue" stroke="midnightblue" points="715.612,-286.5 705.612,-290 715.612,-293.5 715.612,-286.5"/>
</g>
<!-- Node13 -->
<g id="node26" class="node"><title>Node13</title>
<polygon fill="white" stroke="#bfbfbf" points="2236,-442 2236,-476 2336,-476 2336,-442 2236,-442"/>
<text text-anchor="start" x="2244" y="-463" font-family="Helvetica,sans-Serif" font-size="10.00">std::set&lt; Physics::</text>
<text text-anchor="middle" x="2286" y="-450" font-family="Helvetica,sans-Serif" font-size="10.00">Collision * &gt;</text>
</g>
<!-- Node13&#45;&gt;Node3 -->
<g id="edge28" class="edge"><title>Node13&#45;&gt;Node3</title>
<path fill="none" stroke="#9a32cd" stroke-dasharray="5,2" d="M2225.67,-465.417C2162.33,-471.592 2059.78,-480 1971,-480 1415,-480 1415,-480 1415,-480 1320.51,-480 1211.99,-448.519 1160.36,-431.548"/>
<polygon fill="#9a32cd" stroke="#9a32cd" points="2226.27,-468.875 2235.88,-464.408 2225.58,-461.909 2226.27,-468.875"/>
<text text-anchor="middle" x="1718" y="-484" font-family="Helvetica,sans-Serif" font-size="10.00"> CurrentCollisions</text>
</g>
<!-- Node14 -->
<g id="node28" class="node"><title>Node14</title>
<a xlink:href="classMezzanine_1_1Physics_1_1Collision.html" target="_top" xlink:title="This is an event class used to track collsions in the physics world. ">
<polygon fill="white" stroke="black" points="1918.5,-399 1918.5,-433 2023.5,-433 2023.5,-399 1918.5,-399"/>
<text text-anchor="start" x="1926.5" y="-420" font-family="Helvetica,sans-Serif" font-size="10.00">Mezzanine::Physics</text>
<text text-anchor="middle" x="1971" y="-407" font-family="Helvetica,sans-Serif" font-size="10.00">::Collision</text>
</a>
</g>
<!-- Node14&#45;&gt;Node13 -->
<g id="edge30" class="edge"><title>Node14&#45;&gt;Node13</title>
<path fill="none" stroke="#9a32cd" stroke-dasharray="5,2" d="M2033.73,-424.564C2093.13,-432.672 2181.15,-444.687 2235.97,-452.17"/>
<polygon fill="#9a32cd" stroke="#9a32cd" points="2034.11,-421.082 2023.72,-423.197 2033.16,-428.018 2034.11,-421.082"/>
<text text-anchor="middle" x="2124" y="-451" font-family="Helvetica,sans-Serif" font-size="10.00"> keys</text>
</g>
<!-- Node28 -->
<g id="node62" class="node"><title>Node28</title>
<polygon fill="white" stroke="#bfbfbf" points="2222.5,-344 2222.5,-378 2349.5,-378 2349.5,-344 2222.5,-344"/>
<text text-anchor="start" x="2230.5" y="-365" font-family="Helvetica,sans-Serif" font-size="10.00">std::map&lt; CollidablePair,</text>
<text text-anchor="middle" x="2286" y="-352" font-family="Helvetica,sans-Serif" font-size="10.00"> Collision * &gt;</text>
</g>
<!-- Node14&#45;&gt;Node28 -->
<g id="edge72" class="edge"><title>Node14&#45;&gt;Node28</title>
<path fill="none" stroke="#9a32cd" stroke-dasharray="5,2" d="M2033.74,-405.773C2080.23,-398.105 2145.13,-387.216 2202,-377 2208.58,-375.819 2215.43,-374.559 2222.27,-373.283"/>
<polygon fill="#9a32cd" stroke="#9a32cd" points="2033.11,-402.33 2023.81,-407.408 2034.24,-409.237 2033.11,-402.33"/>
<text text-anchor="middle" x="2124" y="-407" font-family="Helvetica,sans-Serif" font-size="10.00"> elements</text>
</g>
<!-- Node15 -->
<g id="node30" class="node"><title>Node15</title>
<polygon fill="white" stroke="#bfbfbf" points="1667.5,-382.5 1667.5,-403.5 1768.5,-403.5 1768.5,-382.5 1667.5,-382.5"/>
<text text-anchor="middle" x="1718" y="-390.5" font-family="Helvetica,sans-Serif" font-size="10.00">std::vector&lt; Real &gt;</text>
</g>
<!-- Node15&#45;&gt;Node14 -->
<g id="edge32" class="edge"><title>Node15&#45;&gt;Node14</title>
<path fill="none" stroke="#9a32cd" stroke-dasharray="5,2" d="M1769.05,-407.394C1772.85,-409.087 1776.54,-410.952 1780,-413 1789.47,-418.605 1787.77,-425.935 1798,-430 1836.36,-445.252 1883.21,-440.17 1918.48,-432.15"/>
<polygon fill="#9a32cd" stroke="#9a32cd" points="1770.06,-404.027 1759.47,-403.533 1767.44,-410.519 1770.06,-404.027"/>
<text text-anchor="middle" x="1847" y="-443" font-family="Helvetica,sans-Serif" font-size="10.00"> PenetrationDistances</text>
</g>
<!-- Node16 -->
<g id="node32" class="node"><title>Node16</title>
<a xlink:href="structMezzanine_1_1Physics_1_1CollisionInternalData.html" target="_top" xlink:title="Used to insulate the interface from the implementation details for bullet. ">
<polygon fill="white" stroke="black" points="1661.5,-330 1661.5,-364 1774.5,-364 1774.5,-330 1661.5,-330"/>
<text text-anchor="start" x="1669.5" y="-351" font-family="Helvetica,sans-Serif" font-size="10.00">Mezzanine::Physics</text>
<text text-anchor="middle" x="1718" y="-338" font-family="Helvetica,sans-Serif" font-size="10.00">::CollisionInternalData</text>
</a>
</g>
<!-- Node16&#45;&gt;Node14 -->
<g id="edge34" class="edge"><title>Node16&#45;&gt;Node14</title>
<path fill="none" stroke="#9a32cd" stroke-dasharray="5,2" d="M1774.27,-369.139C1776.24,-370.373 1778.16,-371.66 1780,-373 1789.94,-380.238 1787.18,-388.168 1798,-394 1818.19,-404.881 1875.07,-410.588 1918.15,-413.435"/>
<polygon fill="#9a32cd" stroke="#9a32cd" points="1775.74,-365.95 1765.31,-364.067 1772.29,-372.041 1775.74,-365.95"/>
<text text-anchor="middle" x="1847" y="-415" font-family="Helvetica,sans-Serif" font-size="10.00"> InternalData</text>
</g>
<!-- Node17 -->
<g id="node34" class="node"><title>Node17</title>
<a xlink:href="classMezzanine_1_1Physics_1_1CollidableProxy.html" target="_top" xlink:title="This is a proxy from which physics objects that can collide with each other are handled. ">
<polygon fill="white" stroke="black" points="1665.5,-273 1665.5,-307 1770.5,-307 1770.5,-273 1665.5,-273"/>
<text text-anchor="start" x="1673.5" y="-294" font-family="Helvetica,sans-Serif" font-size="10.00">Mezzanine::Physics</text>
<text text-anchor="middle" x="1718" y="-281" font-family="Helvetica,sans-Serif" font-size="10.00">::CollidableProxy</text>
</a>
</g>
<!-- Node17&#45;&gt;Node14 -->
<g id="edge36" class="edge"><title>Node17&#45;&gt;Node14</title>
<path fill="none" stroke="#9a32cd" stroke-dasharray="5,2" d="M1767.92,-312.304C1772.17,-314.984 1776.27,-317.887 1780,-321 1790.24,-329.543 1786.7,-337.924 1798,-345 1835.6,-368.544 1857.38,-342.158 1896,-364 1906.41,-369.887 1904.66,-376.529 1914,-384 1920.82,-389.459 1928.7,-394.529 1936.38,-398.95"/>
<polygon fill="#9a32cd" stroke="#9a32cd" points="1769.44,-309.136 1759.04,-307.117 1765.91,-315.181 1769.44,-309.136"/>
<text text-anchor="middle" x="1847" y="-381" font-family="Helvetica,sans-Serif" font-size="10.00"> ProxyA</text>
<text text-anchor="middle" x="1847" y="-368" font-family="Helvetica,sans-Serif" font-size="10.00">ProxyB</text>
</g>
<!-- Node26 -->
<g id="node56" class="node"><title>Node26</title>
<a xlink:href="classMezzanine_1_1Physics_1_1RigidProxy.html" target="_top" xlink:title="This is a proxy from which rigid body proxys are handled. ">
<polygon fill="white" stroke="black" points="1918.5,-243 1918.5,-277 2023.5,-277 2023.5,-243 1918.5,-243"/>
<text text-anchor="start" x="1926.5" y="-264" font-family="Helvetica,sans-Serif" font-size="10.00">Mezzanine::Physics</text>
<text text-anchor="middle" x="1971" y="-251" font-family="Helvetica,sans-Serif" font-size="10.00">::RigidProxy</text>
</a>
</g>
<!-- Node17&#45;&gt;Node26 -->
<g id="edge64" class="edge"><title>Node17&#45;&gt;Node26</title>
<path fill="none" stroke="midnightblue" d="M1781.04,-276.68C1786.76,-275.687 1792.48,-274.773 1798,-274 1838.14,-268.382 1883.85,-264.803 1918.21,-262.671"/>
<polygon fill="midnightblue" stroke="midnightblue" points="1780,-273.312 1770.78,-278.539 1781.25,-280.2 1780,-273.312"/>
</g>
<!-- Node27 -->
<g id="node59" class="node"><title>Node27</title>
<polygon fill="white" stroke="#bfbfbf" points="2046,-174.5 2046,-195.5 2202,-195.5 2202,-174.5 2046,-174.5"/>
<text text-anchor="middle" x="2124" y="-182.5" font-family="Helvetica,sans-Serif" font-size="10.00">std::vector&lt; CollidableProxy * &gt;</text>
</g>
<!-- Node17&#45;&gt;Node27 -->
<g id="edge68" class="edge"><title>Node17&#45;&gt;Node27</title>
<path fill="none" stroke="#9a32cd" stroke-dasharray="5,2" d="M1754.45,-267.987C1767.77,-260.724 1783.21,-253.186 1798,-248 1880.14,-219.204 1978.8,-202.46 2045.92,-193.568"/>
<polygon fill="#9a32cd" stroke="#9a32cd" points="1752.62,-265.002 1745.6,-272.939 1756.03,-271.11 1752.62,-265.002"/>
<text text-anchor="middle" x="1847" y="-252" font-family="Helvetica,sans-Serif" font-size="10.00"> elements</text>
</g>
<!-- Node29 -->
<g id="node65" class="node"><title>Node29</title>
<a xlink:href="classMezzanine_1_1Physics_1_1CollidablePair.html" target="_top" xlink:title="This is a helper class for storing pairs of collidable proxies in associative containers. ">
<polygon fill="white" stroke="black" points="1918.5,-341 1918.5,-375 2023.5,-375 2023.5,-341 1918.5,-341"/>
<text text-anchor="start" x="1926.5" y="-362" font-family="Helvetica,sans-Serif" font-size="10.00">Mezzanine::Physics</text>
<text text-anchor="middle" x="1971" y="-349" font-family="Helvetica,sans-Serif" font-size="10.00">::CollidablePair</text>
</a>
</g>
<!-- Node17&#45;&gt;Node29 -->
<g id="edge76" class="edge"><title>Node17&#45;&gt;Node29</title>
<path fill="none" stroke="#9a32cd" stroke-dasharray="5,2" d="M1780.83,-295.309C1815.44,-299.45 1858.81,-306.655 1896,-319 1912.44,-324.456 1929.65,-333.168 1943.44,-340.976"/>
<polygon fill="#9a32cd" stroke="#9a32cd" points="1781.18,-291.826 1770.85,-294.17 1780.38,-298.781 1781.18,-291.826"/>
<text text-anchor="middle" x="1847" y="-336" font-family="Helvetica,sans-Serif" font-size="10.00"> ProxyA</text>
<text text-anchor="middle" x="1847" y="-323" font-family="Helvetica,sans-Serif" font-size="10.00">ProxyB</text>
</g>
<!-- Node18&#45;&gt;Node17 -->
<g id="edge38" class="edge"><title>Node18&#45;&gt;Node17</title>
<path fill="none" stroke="midnightblue" d="M1463.89,-358.769C1519.13,-343.818 1608.72,-319.574 1665.43,-304.226"/>
<polygon fill="midnightblue" stroke="midnightblue" points="1462.73,-355.457 1453.99,-361.448 1464.56,-362.214 1462.73,-355.457"/>
</g>
<!-- Node19&#45;&gt;Node17 -->
<g id="edge44" class="edge"><title>Node19&#45;&gt;Node17</title>
<path fill="none" stroke="#9a32cd" stroke-dasharray="5,2" d="M2801.78,-236.551C2788.8,-249.884 2771.07,-265.366 2752,-274 2702.99,-296.194 2685.69,-286.437 2632,-290 2305.04,-311.701 1910.85,-298.392 1770.63,-292.434"/>
<polygon fill="#9a32cd" stroke="#9a32cd" points="2804.56,-238.706 2808.84,-229.018 2799.45,-233.918 2804.56,-238.706"/>
<text text-anchor="middle" x="2286" y="-305" font-family="Helvetica,sans-Serif" font-size="10.00"> Manager</text>
</g>
<!-- Node19&#45;&gt;Node19 -->
<g id="edge82" class="edge"><title>Node19&#45;&gt;Node19</title>
<path fill="none" stroke="#9a32cd" stroke-dasharray="5,2" d="M2801.75,-239.318C2804.74,-243.864 2811.82,-247 2823,-247 2841.35,-247 2848.66,-238.556 2844.93,-229.288"/>
<polygon fill="#9a32cd" stroke="#9a32cd" points="2805.24,-239.026 2801.07,-229.288 2798.26,-239.503 2805.24,-239.026"/>
<text text-anchor="middle" x="2823" y="-251" font-family="Helvetica,sans-Serif" font-size="10.00"> CallBackWorld</text>
</g>
<!-- Node32 -->
<g id="node73" class="node"><title>Node32</title>
<a xlink:href="classMezzanine_1_1Physics_1_1DebugDrawWorkUnit.html" target="_top" xlink:title="This is a Mezzanine::Threading::iWorkUnit for the updating of the physics debug drawer. ">
<polygon fill="white" stroke="black" points="3044,-56 3044,-90 3160,-90 3160,-56 3044,-56"/>
<text text-anchor="start" x="3052" y="-77" font-family="Helvetica,sans-Serif" font-size="10.00">Mezzanine::Physics</text>
<text text-anchor="middle" x="3102" y="-64" font-family="Helvetica,sans-Serif" font-size="10.00">::DebugDrawWorkUnit</text>
</a>
</g>
<!-- Node19&#45;&gt;Node32 -->
<g id="edge88" class="edge"><title>Node19&#45;&gt;Node32</title>
<path fill="none" stroke="#9a32cd" stroke-dasharray="5,2" d="M2829.77,-184.89C2838.86,-154.766 2858.18,-107.421 2894,-85 2938.46,-57.1701 2999.28,-57.0165 3043.67,-62.1154"/>
<polygon fill="#9a32cd" stroke="#9a32cd" points="2826.33,-184.182 2826.97,-194.758 2833.06,-186.093 2826.33,-184.182"/>
<text text-anchor="middle" x="2951" y="-89" font-family="Helvetica,sans-Serif" font-size="10.00"> TargetManager</text>
</g>
<!-- Node33 -->
<g id="node77" class="node"><title>Node33</title>
<a xlink:href="classMezzanine_1_1Physics_1_1WorldTriggerUpdateWorkUnit.html" target="_top" xlink:title="This is a Mezzanine::Threading::iWorkUnit for the updating of WorldTriggers. ">
<polygon fill="white" stroke="black" points="3026.5,-159 3026.5,-193 3177.5,-193 3177.5,-159 3026.5,-159"/>
<text text-anchor="start" x="3034.5" y="-180" font-family="Helvetica,sans-Serif" font-size="10.00">Mezzanine::Physics</text>
<text text-anchor="middle" x="3102" y="-167" font-family="Helvetica,sans-Serif" font-size="10.00">::WorldTriggerUpdateWorkUnit</text>
</a>
</g>
<!-- Node19&#45;&gt;Node33 -->
<g id="edge94" class="edge"><title>Node19&#45;&gt;Node33</title>
<path fill="none" stroke="#9a32cd" stroke-dasharray="5,2" d="M2885.98,-204.976C2921.79,-200.867 2967.44,-195.431 3008,-190 3013.97,-189.201 3020.15,-188.345 3026.35,-187.465"/>
<polygon fill="#9a32cd" stroke="#9a32cd" points="2885.22,-201.541 2875.68,-206.153 2886.01,-208.495 2885.22,-201.541"/>
<text text-anchor="middle" x="2951" y="-208" font-family="Helvetica,sans-Serif" font-size="10.00"> TargetManager</text>
</g>
<!-- Node20 -->
<g id="node43" class="node"><title>Node20</title>
<a xlink:href="classMezzanine_1_1Threading_1_1DefaultWorkUnit.html" target="_top" xlink:title="Default implementation of WorkUnit. This represents on piece of work through time. ">
<polygon fill="white" stroke="black" points="2508.5,-49 2508.5,-83 2621.5,-83 2621.5,-49 2508.5,-49"/>
<text text-anchor="start" x="2516.5" y="-70" font-family="Helvetica,sans-Serif" font-size="10.00">Mezzanine::Threading</text>
<text text-anchor="middle" x="2565" y="-57" font-family="Helvetica,sans-Serif" font-size="10.00">::DefaultWorkUnit</text>
</a>
</g>
<!-- Node20&#45;&gt;Node19 -->
<g id="edge48" class="edge"><title>Node20&#45;&gt;Node19</title>
<path fill="none" stroke="#9a32cd" stroke-dasharray="5,2" d="M2626.15,-86.1124C2634.14,-88.5384 2642.24,-90.8979 2650,-93 2694.85,-105.157 2713.07,-90.6146 2752,-116 2782.21,-135.703 2804.16,-172.972 2815.11,-194.826"/>
<polygon fill="#9a32cd" stroke="#9a32cd" points="2627.07,-82.7346 2616.48,-83.1329 2625.01,-89.4239 2627.07,-82.7346"/>
<text text-anchor="middle" x="2701" y="-120" font-family="Helvetica,sans-Serif" font-size="10.00"> SimulationWork</text>
</g>
<!-- Node20&#45;&gt;Node32 -->
<g id="edge86" class="edge"><title>Node20&#45;&gt;Node32</title>
<path fill="none" stroke="midnightblue" d="M2631.76,-59.8536C2718.61,-52.9204 2874.97,-44.067 3008,-56 3019.65,-57.0445 3032.01,-58.803 3043.8,-60.8031"/>
<polygon fill="midnightblue" stroke="midnightblue" points="2631.46,-56.3663 2621.78,-60.6666 2632.03,-63.3432 2631.46,-56.3663"/>
</g>
<!-- Node20&#45;&gt;Node33 -->
<g id="edge92" class="edge"><title>Node20&#45;&gt;Node33</title>
<path fill="none" stroke="midnightblue" d="M2631.79,-69.6044C2738.02,-75.9706 2940.38,-90.8611 3008,-115 3035.85,-124.942 3063.77,-144.583 3081.85,-158.9"/>
<polygon fill="midnightblue" stroke="midnightblue" points="2631.69,-66.0928 2621.5,-68.9968 2631.28,-73.0806 2631.69,-66.0928"/>
</g>
<!-- Node21 -->
<g id="node45" class="node"><title>Node21</title>
<a xlink:href="classMezzanine_1_1Threading_1_1iWorkUnit.html" target="_top" xlink:title="Interface of a WorkUnit. This represents on piece of work through time. ">
<polygon fill="white" stroke="black" points="1914.5,-0 1914.5,-34 2027.5,-34 2027.5,-0 1914.5,-0"/>
<text text-anchor="start" x="1922.5" y="-21" font-family="Helvetica,sans-Serif" font-size="10.00">Mezzanine::Threading</text>
<text text-anchor="middle" x="1971" y="-8" font-family="Helvetica,sans-Serif" font-size="10.00">::iWorkUnit</text>
</a>
</g>
<!-- Node21&#45;&gt;Node20 -->
<g id="edge50" class="edge"><title>Node21&#45;&gt;Node20</title>
<path fill="none" stroke="midnightblue" d="M2038.13,-11.5108C2114.45,-6.41933 2242.64,-1.35612 2352,-14 2410.04,-20.7111 2423.27,-30.012 2480,-44 2489.18,-46.2625 2498.89,-48.7195 2508.35,-51.1441"/>
<polygon fill="midnightblue" stroke="midnightblue" points="2037.45,-8.04932 2027.72,-12.2276 2037.93,-15.0328 2037.45,-8.04932"/>
</g>
<!-- Node22 -->
<g id="node47" class="node"><title>Node22</title>
<polygon fill="white" stroke="#bfbfbf" points="2220.5,-23 2220.5,-57 2351.5,-57 2351.5,-23 2220.5,-23"/>
<text text-anchor="start" x="2228.5" y="-44" font-family="Helvetica,sans-Serif" font-size="10.00">std::vector&lt; Mezzanine</text>
<text text-anchor="middle" x="2286" y="-31" font-family="Helvetica,sans-Serif" font-size="10.00">::Threading::iWorkUnit * &gt;</text>
</g>
<!-- Node21&#45;&gt;Node22 -->
<g id="edge54" class="edge"><title>Node21&#45;&gt;Node22</title>
<path fill="none" stroke="#9a32cd" stroke-dasharray="5,2" d="M2037.8,-21.8773C2091.57,-25.8037 2166.75,-31.2926 2220.24,-35.1986"/>
<polygon fill="#9a32cd" stroke="#9a32cd" points="2037.91,-18.3761 2027.68,-21.1385 2037.4,-25.3575 2037.91,-18.3761"/>
<text text-anchor="middle" x="2124" y="-38" font-family="Helvetica,sans-Serif" font-size="10.00"> elements</text>
</g>
<!-- Node22&#45;&gt;Node20 -->
<g id="edge52" class="edge"><title>Node22&#45;&gt;Node20</title>
<path fill="none" stroke="#9a32cd" stroke-dasharray="5,2" d="M2361.96,-46.3359C2397.78,-49.4059 2441.1,-53.2366 2480,-57 2489.16,-57.886 2498.87,-58.8707 2508.32,-59.8544"/>
<polygon fill="#9a32cd" stroke="#9a32cd" points="2361.84,-42.8134 2351.58,-45.4498 2361.25,-49.788 2361.84,-42.8134"/>
<text text-anchor="middle" x="2425" y="-61" font-family="Helvetica,sans-Serif" font-size="10.00"> Dependencies</text>
</g>
<!-- Node23 -->
<g id="node50" class="node"><title>Node23</title>
<a xlink:href="structMezzanine_1_1DefaultRollingAverage.html" target="_top" xlink:title="Mezzanine::DefaultRolling\lAverage\&lt; Whole \&gt;">
<polygon fill="white" stroke="black" points="2220.5,-75 2220.5,-109 2351.5,-109 2351.5,-75 2220.5,-75"/>
<text text-anchor="start" x="2228.5" y="-96" font-family="Helvetica,sans-Serif" font-size="10.00">Mezzanine::DefaultRolling</text>
<text text-anchor="middle" x="2286" y="-83" font-family="Helvetica,sans-Serif" font-size="10.00">Average&lt; Whole &gt;</text>
</a>
</g>
<!-- Node23&#45;&gt;Node20 -->
<g id="edge56" class="edge"><title>Node23&#45;&gt;Node20</title>
<path fill="none" stroke="#9a32cd" stroke-dasharray="5,2" d="M2361.73,-84.9431C2407.89,-80.6407 2465.94,-75.2316 2508.17,-71.2961"/>
<polygon fill="#9a32cd" stroke="#9a32cd" points="2361.4,-81.4584 2351.77,-85.8713 2362.05,-88.4282 2361.4,-81.4584"/>
<text text-anchor="middle" x="2425" y="-88" font-family="Helvetica,sans-Serif" font-size="10.00"> PerformanceLog</text>
</g>
<!-- Node24 -->
<g id="node52" class="node"><title>Node24</title>
<polygon fill="white" stroke="#bfbfbf" points="2498.5,-259.5 2498.5,-280.5 2631.5,-280.5 2631.5,-259.5 2498.5,-259.5"/>
<text text-anchor="middle" x="2565" y="-267.5" font-family="Helvetica,sans-Serif" font-size="10.00">std::vector&lt; Constraint * &gt;</text>
</g>
<!-- Node24&#45;&gt;Node19 -->
<g id="edge58" class="edge"><title>Node24&#45;&gt;Node19</title>
<path fill="none" stroke="#9a32cd" stroke-dasharray="5,2" d="M2641.54,-257.958C2675.58,-252.018 2716.02,-244.155 2752,-235 2758.91,-233.243 2766.12,-231.179 2773.2,-229.021"/>
<polygon fill="#9a32cd" stroke="#9a32cd" points="2640.92,-254.514 2631.66,-259.661 2642.11,-261.413 2640.92,-254.514"/>
<text text-anchor="middle" x="2701" y="-261" font-family="Helvetica,sans-Serif" font-size="10.00"> Constraints</text>
</g>
<!-- Node25 -->
<g id="node54" class="node"><title>Node25</title>
<a xlink:href="classMezzanine_1_1Physics_1_1Constraint.html" target="_top" xlink:title="This is the base class for all constraints supported. ">
<polygon fill="white" stroke="black" points="2233.5,-243 2233.5,-277 2338.5,-277 2338.5,-243 2233.5,-243"/>
<text text-anchor="start" x="2241.5" y="-264" font-family="Helvetica,sans-Serif" font-size="10.00">Mezzanine::Physics</text>
<text text-anchor="middle" x="2286" y="-251" font-family="Helvetica,sans-Serif" font-size="10.00">::Constraint</text>
</a>
</g>
<!-- Node25&#45;&gt;Node24 -->
<g id="edge60" class="edge"><title>Node25&#45;&gt;Node24</title>
<path fill="none" stroke="#9a32cd" stroke-dasharray="5,2" d="M2348.92,-262.255C2393.44,-263.851 2453.03,-265.987 2498.36,-267.611"/>
<polygon fill="#9a32cd" stroke="#9a32cd" points="2348.92,-258.753 2338.81,-261.893 2348.67,-265.749 2348.92,-258.753"/>
<text text-anchor="middle" x="2425" y="-271" font-family="Helvetica,sans-Serif" font-size="10.00"> elements</text>
</g>
<!-- Node26&#45;&gt;Node25 -->
<g id="edge62" class="edge"><title>Node26&#45;&gt;Node25</title>
<path fill="none" stroke="#9a32cd" stroke-dasharray="5,2" d="M2033.94,-260C2092.41,-260 2178.46,-260 2233.37,-260"/>
<polygon fill="#9a32cd" stroke="#9a32cd" points="2033.72,-256.5 2023.72,-260 2033.72,-263.5 2033.72,-256.5"/>
<text text-anchor="middle" x="2124" y="-277" font-family="Helvetica,sans-Serif" font-size="10.00"> ProxA</text>
<text text-anchor="middle" x="2124" y="-264" font-family="Helvetica,sans-Serif" font-size="10.00">ProxB</text>
</g>
<!-- Node27&#45;&gt;Node19 -->
<g id="edge66" class="edge"><title>Node27&#45;&gt;Node19</title>
<path fill="none" stroke="#9a32cd" stroke-dasharray="5,2" d="M2212.59,-184.526C2314.02,-184.457 2485.12,-185.79 2632,-194 2678.89,-196.621 2732.07,-201.815 2770.39,-205.953"/>
<polygon fill="#9a32cd" stroke="#9a32cd" points="2212.39,-181.026 2202.39,-184.538 2212.4,-188.026 2212.39,-181.026"/>
<text text-anchor="middle" x="2425" y="-192" font-family="Helvetica,sans-Serif" font-size="10.00"> Proxies</text>
</g>
<!-- Node28&#45;&gt;Node19 -->
<g id="edge70" class="edge"><title>Node28&#45;&gt;Node19</title>
<path fill="none" stroke="#9a32cd" stroke-dasharray="5,2" d="M2359.89,-375.041C2457.32,-389.472 2630.59,-400.647 2752,-327 2788.71,-304.73 2809.22,-255.534 2817.93,-229.288"/>
<polygon fill="#9a32cd" stroke="#9a32cd" points="2360.25,-371.556 2349.84,-373.5 2359.19,-378.475 2360.25,-371.556"/>
<text text-anchor="middle" x="2565" y="-389" font-family="Helvetica,sans-Serif" font-size="10.00"> Collisions</text>
</g>
<!-- Node29&#45;&gt;Node28 -->
<g id="edge74" class="edge"><title>Node29&#45;&gt;Node28</title>
<path fill="none" stroke="#9a32cd" stroke-dasharray="5,2" d="M2033.98,-358.6C2088.62,-359.12 2167.34,-359.87 2222.22,-360.393"/>
<polygon fill="#9a32cd" stroke="#9a32cd" points="2033.76,-355.098 2023.72,-358.502 2033.69,-362.097 2033.76,-355.098"/>
<text text-anchor="middle" x="2124" y="-364" font-family="Helvetica,sans-Serif" font-size="10.00"> keys</text>
</g>
<!-- Node30 -->
<g id="node68" class="node"><title>Node30</title>
<a xlink:href="classMezzanine_1_1debug_1_1InternalDebugDrawer.html" target="_top" xlink:title="This is used to draw wireframse for the Physics subsystem. ">
<polygon fill="white" stroke="black" points="2498,-549 2498,-583 2632,-583 2632,-549 2498,-549"/>
<text text-anchor="start" x="2506" y="-570" font-family="Helvetica,sans-Serif" font-size="10.00">Mezzanine::debug::Internal</text>
<text text-anchor="middle" x="2565" y="-557" font-family="Helvetica,sans-Serif" font-size="10.00">DebugDrawer</text>
</a>
</g>
<!-- Node30&#45;&gt;Node19 -->
<g id="edge78" class="edge"><title>Node30&#45;&gt;Node19</title>
<path fill="none" stroke="#9a32cd" stroke-dasharray="5,2" d="M2642.82,-572.074C2680.34,-570.726 2723.31,-562.232 2752,-535 2797.18,-492.113 2816.78,-289.85 2821.7,-229.219"/>
<polygon fill="#9a32cd" stroke="#9a32cd" points="2642.33,-568.583 2632.4,-572.275 2642.46,-575.582 2642.33,-568.583"/>
<text text-anchor="middle" x="2701" y="-575" font-family="Helvetica,sans-Serif" font-size="10.00"> BulletDrawer</text>
</g>
<!-- Node31 -->
<g id="node70" class="node"><title>Node31</title>
<polygon fill="white" stroke="#bfbfbf" points="2246,-555.5 2246,-576.5 2326,-576.5 2326,-555.5 2246,-555.5"/>
<text text-anchor="middle" x="2286" y="-563.5" font-family="Helvetica,sans-Serif" font-size="10.00">btIDebugDraw</text>
</g>
<!-- Node31&#45;&gt;Node30 -->
<g id="edge80" class="edge"><title>Node31&#45;&gt;Node30</title>
<path fill="none" stroke="midnightblue" d="M2336.41,-566C2381.56,-566 2448.11,-566 2497.78,-566"/>
<polygon fill="midnightblue" stroke="midnightblue" points="2336.27,-562.5 2326.27,-566 2336.27,-569.5 2336.27,-562.5"/>
</g>
<!-- Node32&#45;&gt;Node19 -->
<g id="edge84" class="edge"><title>Node32&#45;&gt;Node19</title>
<path fill="none" stroke="#9a32cd" stroke-dasharray="5,2" d="M3034.35,-91.7265C2992.29,-104.948 2938.03,-124.946 2894,-151 2873.44,-163.165 2853.08,-181.472 2839.47,-194.857"/>
<polygon fill="#9a32cd" stroke="#9a32cd" points="3035.42,-95.0577 3043.94,-88.7605 3033.35,-88.3699 3035.42,-95.0577"/>
<text text-anchor="middle" x="2951" y="-155" font-family="Helvetica,sans-Serif" font-size="10.00"> DebugDrawWork</text>
</g>
<!-- Node33&#45;&gt;Node19 -->
<g id="edge90" class="edge"><title>Node33&#45;&gt;Node19</title>
<path fill="none" stroke="#9a32cd" stroke-dasharray="5,2" d="M3016.43,-167.806C2978.46,-166.363 2933.53,-167.687 2894,-177 2878.75,-180.593 2863,-187.927 2850.23,-194.957"/>
<polygon fill="#9a32cd" stroke="#9a32cd" points="3016.28,-171.303 3026.43,-168.255 3016.6,-164.31 3016.28,-171.303"/>
<text text-anchor="middle" x="2951" y="-181" font-family="Helvetica,sans-Serif" font-size="10.00"> WorldTriggerUpdateWork</text>
</g>
<!-- Node34 -->
<g id="node81" class="node"><title>Node34</title>
<polygon fill="white" stroke="#bfbfbf" points="1494.5,-153.5 1494.5,-174.5 1637.5,-174.5 1637.5,-153.5 1494.5,-153.5"/>
<text text-anchor="middle" x="1566" y="-161.5" font-family="Helvetica,sans-Serif" font-size="10.00">std::vector&lt; WorldTrigger * &gt;</text>
</g>
<!-- Node34&#45;&gt;Node19 -->
<g id="edge96" class="edge"><title>Node34&#45;&gt;Node19</title>
<path fill="none" stroke="#9a32cd" stroke-dasharray="5,2" d="M1646.49,-152.14C1702.57,-144.89 1779.18,-137 1847,-137 1847,-137 1847,-137 2425,-137 2550.69,-137 2694.89,-173.566 2770.48,-195.634"/>
<polygon fill="#9a32cd" stroke="#9a32cd" points="1645.72,-148.71 1636.26,-153.484 1646.64,-155.65 1645.72,-148.71"/>
<text text-anchor="middle" x="2124" y="-141" font-family="Helvetica,sans-Serif" font-size="10.00"> Triggers</text>
</g>
<!-- Node35&#45;&gt;Node34 -->
<g id="edge98" class="edge"><title>Node35&#45;&gt;Node34</title>
<path fill="none" stroke="#9a32cd" stroke-dasharray="5,2" d="M1345.92,-183.529C1391.29,-179.503 1449.39,-174.348 1494.49,-170.345"/>
<polygon fill="#9a32cd" stroke="#9a32cd" points="1345.51,-180.052 1335.86,-184.422 1346.13,-187.025 1345.51,-180.052"/>
<text text-anchor="middle" x="1415" y="-187" font-family="Helvetica,sans-Serif" font-size="10.00"> elements</text>
</g>
<!-- Node36 -->
<g id="node86" class="node"><title>Node36</title>
<a xlink:href="classMezzanine_1_1Physics_1_1ManagerConstructionInfo.html" target="_top" xlink:title="This is a helper class storing information needed for the construction of a PhysicsManager. ">
<polygon fill="white" stroke="black" points="2499,-203 2499,-237 2631,-237 2631,-203 2499,-203"/>
<text text-anchor="start" x="2507" y="-224" font-family="Helvetica,sans-Serif" font-size="10.00">Mezzanine::Physics</text>
<text text-anchor="middle" x="2565" y="-211" font-family="Helvetica,sans-Serif" font-size="10.00">::ManagerConstructionInfo</text>
</a>
</g>
<!-- Node36&#45;&gt;Node19 -->
<g id="edge102" class="edge"><title>Node36&#45;&gt;Node19</title>
<path fill="none" stroke="#9a32cd" stroke-dasharray="5,2" d="M2641.21,-217.637C2682.82,-216.347 2733.28,-214.782 2770.48,-213.629"/>
<polygon fill="#9a32cd" stroke="#9a32cd" points="2640.99,-214.142 2631.11,-217.95 2641.21,-221.138 2640.99,-214.142"/>
<text text-anchor="middle" x="2701" y="-222" font-family="Helvetica,sans-Serif" font-size="10.00"> WorldConstructionInfo</text>
</g>
<!-- Node37 -->
<g id="node88" class="node"><title>Node37</title>
<a xlink:href="classMezzanine_1_1Vector3.html" target="_top" xlink:title="This is used to represent a point in space, or a vector through space. ">
<polygon fill="white" stroke="black" points="2234,-203.5 2234,-224.5 2338,-224.5 2338,-203.5 2234,-203.5"/>
<text text-anchor="middle" x="2286" y="-211.5" font-family="Helvetica,sans-Serif" font-size="10.00">Mezzanine::Vector3</text>
</a>
</g>
<!-- Node37&#45;&gt;Node36 -->
<g id="edge104" class="edge"><title>Node37&#45;&gt;Node36</title>
<path fill="none" stroke="#9a32cd" stroke-dasharray="5,2" d="M2348.7,-213.472C2386.7,-213.364 2436.15,-213.598 2480,-215 2486.06,-215.194 2492.36,-215.454 2498.66,-215.753"/>
<polygon fill="#9a32cd" stroke="#9a32cd" points="2348.29,-209.974 2338.3,-213.511 2348.31,-216.974 2348.29,-209.974"/>
<text text-anchor="middle" x="2425" y="-245" font-family="Helvetica,sans-Serif" font-size="10.00"> GeographyLowerBounds</text>
<text text-anchor="middle" x="2425" y="-232" font-family="Helvetica,sans-Serif" font-size="10.00">GeographyUpperBounds</text>
<text text-anchor="middle" x="2425" y="-219" font-family="Helvetica,sans-Serif" font-size="10.00">Gravity</text>
</g>
<!-- Node38&#45;&gt;Node17 -->
<g id="edge106" class="edge"><title>Node38&#45;&gt;Node17</title>
<path fill="none" stroke="#9a32cd" stroke-dasharray="5,2" d="M1335.93,-290C1424.13,-290 1582.93,-290 1665.27,-290"/>
<polygon fill="#9a32cd" stroke="#9a32cd" points="1335.79,-286.5 1325.79,-290 1335.79,-293.5 1335.79,-286.5"/>
<text text-anchor="middle" x="1415" y="-294" font-family="Helvetica,sans-Serif" font-size="10.00"> ProxyShape</text>
</g>
</g>
</svg>
