<?xml version="1.0" encoding="UTF-8" standalone="no"?>
<!DOCTYPE svg PUBLIC "-//W3C//DTD SVG 1.1//EN"
 "http://www.w3.org/Graphics/SVG/1.1/DTD/svg11.dtd">
<!-- Generated by graphviz version 2.26.3 (20100126.1600)
 -->
<!-- Title: Mezzanine::Physics::MultiSphereCollisionShape Pages: 1 -->
<svg width="144pt" height="182pt"
 viewBox="0.00 0.00 144.00 182.00" xmlns="http://www.w3.org/2000/svg" xmlns:xlink="http://www.w3.org/1999/xlink">
<g id="graph1" class="graph" transform="scale(1 1) rotate(0) translate(4 178)">
<title>Mezzanine::Physics::MultiSphereCollisionShape</title>
<polygon fill="white" stroke="white" points="-4,5 -4,-178 141,-178 141,5 -4,5"/>
<!-- Node1 -->
<g id="node1" class="node"><title>Node1</title>
<polygon fill="#bfbfbf" stroke="black" points="-0.5,-1 -0.5,-33 136.5,-33 136.5,-1 -0.5,-1"/>
<text text-anchor="start" x="7.5" y="-20" font-family="FreeSans" font-size="10.00">Mezzanine::Physics</text>
<text text-anchor="middle" x="68" y="-8" font-family="FreeSans" font-size="10.00">::MultiSphereCollisionShape</text>
</g>
<!-- Node2 -->
<g id="node2" class="node"><title>Node2</title>
<a xlink:href="classMezzanine_1_1Physics_1_1PrimitiveCollisionShape.html" target="_top" xlink:title="This is the base class for all Primitive shapes. ">
<polygon fill="white" stroke="black" points="7,-71 7,-103 129,-103 129,-71 7,-71"/>
<text text-anchor="start" x="15" y="-90" font-family="FreeSans" font-size="10.00">Mezzanine::Physics</text>
<text text-anchor="middle" x="68" y="-78" font-family="FreeSans" font-size="10.00">::PrimitiveCollisionShape</text>
</a>
</g>
<!-- Node2&#45;&gt;Node1 -->
<g id="edge2" class="edge"><title>Node2&#45;&gt;Node1</title>
<path fill="none" stroke="midnightblue" d="M68,-60.5079C68,-51.3027 68,-41.2615 68,-33.1473"/>
<polygon fill="midnightblue" stroke="midnightblue" points="64.5001,-60.7646 68,-70.7646 71.5001,-60.7647 64.5001,-60.7646"/>
</g>
<!-- Node3 -->
<g id="node4" class="node"><title>Node3</title>
<a xlink:href="classMezzanine_1_1Physics_1_1CollisionShape.html" target="_top" xlink:title="This is the base class for all collision shapes. ">
<polygon fill="white" stroke="black" points="18,-141 18,-173 118,-173 118,-141 18,-141"/>
<text text-anchor="start" x="26" y="-160" font-family="FreeSans" font-size="10.00">Mezzanine::Physics</text>
<text text-anchor="middle" x="68" y="-148" font-family="FreeSans" font-size="10.00">::CollisionShape</text>
</a>
</g>
<!-- Node3&#45;&gt;Node2 -->
<g id="edge4" class="edge"><title>Node3&#45;&gt;Node2</title>
<path fill="none" stroke="midnightblue" d="M68,-130.508C68,-121.303 68,-111.262 68,-103.147"/>
<polygon fill="midnightblue" stroke="midnightblue" points="64.5001,-130.765 68,-140.765 71.5001,-130.765 64.5001,-130.765"/>
</g>
</g>
</svg>
