<?xml version="1.0" encoding="UTF-8" standalone="no"?>
<!DOCTYPE svg PUBLIC "-//W3C//DTD SVG 1.1//EN"
 "http://www.w3.org/Graphics/SVG/1.1/DTD/svg11.dtd">
<!-- Generated by graphviz version 2.38.0 (20140413.2041)
 -->
<!-- Title: Mezzanine::Resource::iStreamBase Pages: 1 -->
<svg width="564pt" height="137pt"
 viewBox="0.00 0.00 564.00 137.00" xmlns="http://www.w3.org/2000/svg" xmlns:xlink="http://www.w3.org/1999/xlink">
<g id="graph0" class="graph" transform="scale(1 1) rotate(0) translate(4 133)">
<title>Mezzanine::Resource::iStreamBase</title>
<polygon fill="white" stroke="none" points="-4,4 -4,-133 560,-133 560,4 -4,4"/>
<!-- Node1 -->
<g id="node1" class="node"><title>Node1</title>
<polygon fill="#bfbfbf" stroke="black" points="0,-48.5 0,-78.5 112,-78.5 112,-48.5 0,-48.5"/>
<text text-anchor="start" x="8" y="-66.5" font-family="Helvetica,sans-Serif" font-size="10.00">Mezzanine::Resource</text>
<text text-anchor="middle" x="56" y="-55.5" font-family="Helvetica,sans-Serif" font-size="10.00">::iStreamBase</text>
</g>
<!-- Node2 -->
<g id="node2" class="node"><title>Node2</title>
<g id="a_node2"><a xlink:href="classMezzanine_1_1Resource_1_1iIStream.html" target="_top" xlink:title="Interface class for input (read) streams. ">
<polygon fill="white" stroke="black" points="148,-73.5 148,-103.5 260,-103.5 260,-73.5 148,-73.5"/>
<text text-anchor="start" x="156" y="-91.5" font-family="Helvetica,sans-Serif" font-size="10.00">Mezzanine::Resource</text>
<text text-anchor="middle" x="204" y="-80.5" font-family="Helvetica,sans-Serif" font-size="10.00">::iIStream</text>
</a>
</g>
</g>
<!-- Node1&#45;&gt;Node2 -->
<g id="edge1" class="edge"><title>Node1&#45;&gt;Node2</title>
<path fill="none" stroke="midnightblue" d="M122.131,-74.6526C130.676,-76.1157 139.366,-77.6037 147.726,-79.0352"/>
<polygon fill="midnightblue" stroke="midnightblue" points="122.644,-71.1895 112.196,-72.9514 121.462,-78.0891 122.644,-71.1895"/>
</g>
<!-- Node7 -->
<g id="node7" class="node"><title>Node7</title>
<g id="a_node7"><a xlink:href="classMezzanine_1_1Resource_1_1iOStream.html" target="_top" xlink:title="Interface class for output (write) streams. ">
<polygon fill="white" stroke="black" points="148,-24.5 148,-54.5 260,-54.5 260,-24.5 148,-24.5"/>
<text text-anchor="start" x="156" y="-42.5" font-family="Helvetica,sans-Serif" font-size="10.00">Mezzanine::Resource</text>
<text text-anchor="middle" x="204" y="-31.5" font-family="Helvetica,sans-Serif" font-size="10.00">::iOStream</text>
</a>
</g>
</g>
<!-- Node1&#45;&gt;Node7 -->
<g id="edge6" class="edge"><title>Node1&#45;&gt;Node7</title>
<path fill="none" stroke="midnightblue" d="M122.131,-52.7935C130.676,-51.3889 139.366,-49.9604 147.726,-48.5862"/>
<polygon fill="midnightblue" stroke="midnightblue" points="121.496,-49.3508 112.196,-54.4266 122.632,-56.2581 121.496,-49.3508"/>
</g>
<!-- Node3 -->
<g id="node3" class="node"><title>Node3</title>
<g id="a_node3"><a xlink:href="classMezzanine_1_1Resource_1_1IOStream.html" target="_top" xlink:title="Base class for streams that support both read and write operations. ">
<polygon fill="white" stroke="black" points="296,-49.5 296,-79.5 408,-79.5 408,-49.5 296,-49.5"/>
<text text-anchor="start" x="304" y="-67.5" font-family="Helvetica,sans-Serif" font-size="10.00">Mezzanine::Resource</text>
<text text-anchor="middle" x="352" y="-56.5" font-family="Helvetica,sans-Serif" font-size="10.00">::IOStream</text>
</a>
</g>
</g>
<!-- Node2&#45;&gt;Node3 -->
<g id="edge2" class="edge"><title>Node2&#45;&gt;Node3</title>
<path fill="none" stroke="midnightblue" d="M270.131,-77.7935C278.676,-76.3889 287.366,-74.9604 295.726,-73.5862"/>
<polygon fill="midnightblue" stroke="midnightblue" points="269.496,-74.3508 260.196,-79.4266 270.632,-81.2581 269.496,-74.3508"/>
</g>
<!-- Node6 -->
<g id="node6" class="node"><title>Node6</title>
<g id="a_node6"><a xlink:href="classMezzanine_1_1Resource_1_1IStream.html" target="_top" xlink:title="Base class for input (read) streams with minimal implementation. ">
<polygon fill="white" stroke="black" points="296,-98.5 296,-128.5 408,-128.5 408,-98.5 296,-98.5"/>
<text text-anchor="start" x="304" y="-116.5" font-family="Helvetica,sans-Serif" font-size="10.00">Mezzanine::Resource</text>
<text text-anchor="middle" x="352" y="-105.5" font-family="Helvetica,sans-Serif" font-size="10.00">::IStream</text>
</a>
</g>
</g>
<!-- Node2&#45;&gt;Node6 -->
<g id="edge5" class="edge"><title>Node2&#45;&gt;Node6</title>
<path fill="none" stroke="midnightblue" d="M270.131,-99.6526C278.676,-101.116 287.366,-102.604 295.726,-104.035"/>
<polygon fill="midnightblue" stroke="midnightblue" points="270.644,-96.1895 260.196,-97.9514 269.462,-103.089 270.644,-96.1895"/>
</g>
<!-- Node4 -->
<g id="node4" class="node"><title>Node4</title>
<g id="a_node4"><a xlink:href="classMezzanine_1_1Resource_1_1FileStream.html" target="_top" xlink:title="This represents a stream to a file on disk using the C++ file stream API. ">
<polygon fill="white" stroke="black" points="444,-73.5 444,-103.5 556,-103.5 556,-73.5 444,-73.5"/>
<text text-anchor="start" x="452" y="-91.5" font-family="Helvetica,sans-Serif" font-size="10.00">Mezzanine::Resource</text>
<text text-anchor="middle" x="500" y="-80.5" font-family="Helvetica,sans-Serif" font-size="10.00">::FileStream</text>
</a>
</g>
</g>
<!-- Node3&#45;&gt;Node4 -->
<g id="edge3" class="edge"><title>Node3&#45;&gt;Node4</title>
<path fill="none" stroke="midnightblue" d="M418.131,-75.2065C426.676,-76.6111 435.366,-78.0396 443.726,-79.4138"/>
<polygon fill="midnightblue" stroke="midnightblue" points="418.632,-71.7419 408.196,-73.5734 417.496,-78.6492 418.632,-71.7419"/>
</g>
<!-- Node5 -->
<g id="node5" class="node"><title>Node5</title>
<g id="a_node5"><a xlink:href="classMezzanine_1_1Resource_1_1MemoryStream.html" target="_top" xlink:title="This represents a stream to a buffer in memory. ">
<polygon fill="white" stroke="black" points="444,-24.5 444,-54.5 556,-54.5 556,-24.5 444,-24.5"/>
<text text-anchor="start" x="452" y="-42.5" font-family="Helvetica,sans-Serif" font-size="10.00">Mezzanine::Resource</text>
<text text-anchor="middle" x="500" y="-31.5" font-family="Helvetica,sans-Serif" font-size="10.00">::MemoryStream</text>
</a>
</g>
</g>
<!-- Node3&#45;&gt;Node5 -->
<g id="edge4" class="edge"><title>Node3&#45;&gt;Node5</title>
<path fill="none" stroke="midnightblue" d="M418.131,-53.3474C426.676,-51.8843 435.366,-50.3963 443.726,-48.9648"/>
<polygon fill="midnightblue" stroke="midnightblue" points="417.462,-49.9109 408.196,-55.0486 418.644,-56.8105 417.462,-49.9109"/>
</g>
<!-- Node7&#45;&gt;Node3 -->
<g id="edge7" class="edge"><title>Node7&#45;&gt;Node3</title>
<path fill="none" stroke="midnightblue" d="M270.131,-50.6526C278.676,-52.1157 287.366,-53.6037 295.726,-55.0352"/>
<polygon fill="midnightblue" stroke="midnightblue" points="270.644,-47.1895 260.196,-48.9514 269.462,-54.0891 270.644,-47.1895"/>
</g>
<!-- Node8 -->
<g id="node8" class="node"><title>Node8</title>
<g id="a_node8"><a xlink:href="classMezzanine_1_1Resource_1_1OStream.html" target="_top" xlink:title="Base class for output (write) streams with minimal implementation. ">
<polygon fill="white" stroke="black" points="296,-0.5 296,-30.5 408,-30.5 408,-0.5 296,-0.5"/>
<text text-anchor="start" x="304" y="-18.5" font-family="Helvetica,sans-Serif" font-size="10.00">Mezzanine::Resource</text>
<text text-anchor="middle" x="352" y="-7.5" font-family="Helvetica,sans-Serif" font-size="10.00">::OStream</text>
</a>
</g>
</g>
<!-- Node7&#45;&gt;Node8 -->
<g id="edge8" class="edge"><title>Node7&#45;&gt;Node8</title>
<path fill="none" stroke="midnightblue" d="M270.131,-28.7935C278.676,-27.3889 287.366,-25.9604 295.726,-24.5862"/>
<polygon fill="midnightblue" stroke="midnightblue" points="269.496,-25.3508 260.196,-30.4266 270.632,-32.2581 269.496,-25.3508"/>
</g>
</g>
</svg>
