<?xml version="1.0" encoding="UTF-8" standalone="no"?>
<!DOCTYPE svg PUBLIC "-//W3C//DTD SVG 1.1//EN"
 "http://www.w3.org/Graphics/SVG/1.1/DTD/svg11.dtd">
<!-- Generated by graphviz version 2.26.3 (20100126.1600)
 -->
<!-- Title: Mezzanine::Input::SequenceContainer Pages: 1 -->
<!--zoomable 116 -->
<svg id="main" version="1.1" xmlns="http://www.w3.org/2000/svg" xmlns:xlink="http://www.w3.org/1999/xlink" xml:space="preserve" onload="init(evt)">
<style type="text/css"><![CDATA[
.edge:hover path { stroke: red; }
.edge:hover polygon { stroke: red; fill: red; }
]]></style>
<script type="text/javascript"><![CDATA[
var edges = document.getElementsByTagName('g');
if (edges && edges.length) {
  for (var i=0;i<edges.length;i++) {
    if (edges[i].id.substr(0,4)=='edge') {
      edges[i].setAttribute('class','edge');
    }
  }
}
]]></script>
        <defs>
                <circle id="rim" cx="0" cy="0" r="7"/>
                <circle id="rim2" cx="0" cy="0" r="3.5"/>
                <g id="zoomPlus">
                        <use xlink:href="#rim" fill="#404040">
                                <set attributeName="fill" to="#808080" begin="zoomplus.mouseover" end="zoomplus.mouseout"/>
                        </use>
                        <path d="M-4,0h8M0,-4v8" fill="none" stroke="white" stroke-width="1.5" pointer-events="none"/>
                </g>
                <g id="zoomMin">
                        <use xlink:href="#rim" fill="#404040">
                                <set attributeName="fill" to="#808080" begin="zoomminus.mouseover" end="zoomminus.mouseout"/>
                        </use>
                        <path d="M-4,0h8" fill="none" stroke="white" stroke-width="1.5" pointer-events="none"/>
                </g>
                <g id="dirArrow">
                        <path fill="none" stroke="white" stroke-width="1.5" d="M0,-3.0v7 M-2.5,-0.5L0,-3.0L2.5,-0.5"/>
                </g>
               <g id="resetDef">
                       <use xlink:href="#rim2" fill="#404040">
                               <set attributeName="fill" to="#808080" begin="reset.mouseover" end="reset.mouseout"/>
                       </use>
               </g>
        </defs>

<script type="text/javascript">
var viewWidth = 734;
var viewHeight = 116;
var sectionId = 'dynsection-0';
</script>
<script xlink:href="svgpan.js"/>
<svg id="graph" class="graph">
<g id="viewport">
<title>Mezzanine::Input::SequenceContainer</title>
<polygon fill="white" stroke="white" points="-4,5 -4,-112 731,-112 731,5 -4,5"/>
<!-- Node1 -->
<g id="node1" class="node"><title>Node1</title>
<polygon fill="#bfbfbf" stroke="black" points="588.5,-32 588.5,-64 725.5,-64 725.5,-32 588.5,-32"/>
<text text-anchor="start" x="596.5" y="-51" font-family="FreeSans" font-size="10.00">Mezzanine::Input::Sequence</text>
<text text-anchor="middle" x="657" y="-39" font-family="FreeSans" font-size="10.00">Container</text>
</g>
<!-- Node2 -->
<g id="node2" class="node"><title>Node2</title>
<a xlink:href="classMezzanine_1_1Trie.html" target="_top" xlink:title="Mezzanine::Trie\&lt; Input\l::MetaCode, Int32 \&gt;">
<polygon fill="white" stroke="black" points="333.5,-76 333.5,-108 446.5,-108 446.5,-76 333.5,-76"/>
<text text-anchor="start" x="341.5" y="-95" font-family="FreeSans" font-size="10.00">Mezzanine::Trie&lt; Input</text>
<text text-anchor="middle" x="390" y="-83" font-family="FreeSans" font-size="10.00">::MetaCode, Int32 &gt;</text>
</a>
</g>
<!-- Node2&#45;&gt;Node1 -->
<g id="edge2" class="edge"><title>Node2&#45;&gt;Node1</title>
<path fill="none" stroke="#9a32cd" stroke-dasharray="5,2" d="M457.066,-82.0167C490.956,-76.8577 532.701,-70.3296 570,-64 575.905,-62.9979 582.03,-61.9298 588.171,-60.8391"/>
<polygon fill="#9a32cd" stroke="#9a32cd" points="456.175,-78.6116 446.813,-83.5721 457.225,-85.5324 456.175,-78.6116"/>
<text text-anchor="middle" x="524" y="-81" font-family="FreeSans" font-size="10.00"> SequencedInputs</text>
</g>
<!-- Node3 -->
<g id="node4" class="node"><title>Node3</title>
<a xlink:href="classMezzanine_1_1StopWatchTimer.html" target="_top" xlink:title="This is a timer class for counting down to a specified time. ">
<polygon fill="white" stroke="black" points="320,-38 320,-58 460,-58 460,-38 320,-38"/>
<text text-anchor="middle" x="390" y="-45" font-family="FreeSans" font-size="10.00">Mezzanine::StopWatchTimer</text>
</a>
</g>
<!-- Node3&#45;&gt;Node1 -->
<g id="edge4" class="edge"><title>Node3&#45;&gt;Node1</title>
<path fill="none" stroke="#9a32cd" stroke-dasharray="5,2" d="M470.55,-48C508.09,-48 552.296,-48 588.241,-48"/>
<polygon fill="#9a32cd" stroke="#9a32cd" points="470.151,-44.5001 460.151,-48 470.151,-51.5001 470.151,-44.5001"/>
<text text-anchor="middle" x="524" y="-51" font-family="FreeSans" font-size="10.00"> SequenceTimer</text>
</g>
<!-- Node4 -->
<g id="node6" class="node"><title>Node4</title>
<a xlink:href="classMezzanine_1_1GoalTimer.html" target="_top" xlink:title="This is the base class for timers intended to run only until they reach a specific goal...">
<polygon fill="white" stroke="black" points="130,-38 130,-58 242,-58 242,-38 130,-38"/>
<text text-anchor="middle" x="186" y="-45" font-family="FreeSans" font-size="10.00">Mezzanine::GoalTimer</text>
</a>
</g>
<!-- Node4&#45;&gt;Node3 -->
<g id="edge6" class="edge"><title>Node4&#45;&gt;Node3</title>
<path fill="none" stroke="midnightblue" d="M252.107,-48C273.782,-48 297.935,-48 319.895,-48"/>
<polygon fill="midnightblue" stroke="midnightblue" points="252.014,-44.5001 242.014,-48 252.014,-51.5001 252.014,-44.5001"/>
</g>
<!-- Node5 -->
<g id="node8" class="node"><title>Node5</title>
<a xlink:href="classMezzanine_1_1Timer.html" target="_top" xlink:title="A base timer class for the different timers. ">
<polygon fill="white" stroke="black" points="0,-38 0,-58 92,-58 92,-38 0,-38"/>
<text text-anchor="middle" x="46" y="-45" font-family="FreeSans" font-size="10.00">Mezzanine::Timer</text>
</a>
</g>
<!-- Node5&#45;&gt;Node4 -->
<g id="edge8" class="edge"><title>Node5&#45;&gt;Node4</title>
<path fill="none" stroke="midnightblue" d="M102.231,-48C111.239,-48 120.563,-48 129.575,-48"/>
<polygon fill="midnightblue" stroke="midnightblue" points="102.229,-44.5001 92.2292,-48 102.229,-51.5001 102.229,-44.5001"/>
</g>
<!-- Node6 -->
<g id="node10" class="node"><title>Node6</title>
<a xlink:title="STL class. ">
<polygon fill="white" stroke="#bfbfbf" points="348.5,-0 348.5,-20 431.5,-20 431.5,-0 348.5,-0"/>
<text text-anchor="middle" x="390" y="-7" font-family="FreeSans" font-size="10.00">std::vector&lt; T &gt;</text>
</a>
</g>
<!-- Node6&#45;&gt;Node1 -->
<g id="edge10" class="edge"><title>Node6&#45;&gt;Node1</title>
<path fill="none" stroke="#9a32cd" stroke-dasharray="5,2" d="M441.832,-15.4974C477.859,-19.5233 526.946,-25.4161 570,-32 575.921,-32.9054 582.056,-33.9063 588.204,-34.9525"/>
<polygon fill="#9a32cd" stroke="#9a32cd" points="441.888,-11.9823 431.563,-14.3609 441.118,-18.9398 441.888,-11.9823"/>
<text text-anchor="middle" x="524" y="-35" font-family="FreeSans" font-size="10.00"> CurrSequenceCache</text>
</g>
<!-- Node7 -->
<g id="node12" class="node"><title>Node7</title>
<polygon fill="white" stroke="#bfbfbf" points="171.5,-0 171.5,-20 200.5,-20 200.5,-0 171.5,-0"/>
<text text-anchor="middle" x="186" y="-7" font-family="FreeSans" font-size="10.00">T</text>
</g>
<!-- Node7&#45;&gt;Node6 -->
<g id="edge12" class="edge"><title>Node7&#45;&gt;Node6</title>
<path fill="none" stroke="#9a32cd" stroke-dasharray="5,2" d="M210.715,-10C244.863,-10 306.936,-10 348.325,-10"/>
<polygon fill="#9a32cd" stroke="#9a32cd" points="210.671,-6.5001 200.671,-10 210.671,-13.5001 210.671,-6.5001"/>
<text text-anchor="middle" x="281" y="-13" font-family="FreeSans" font-size="10.00"> elements</text>
</g>
</g>
</svg>
        <g id="navigator" transform="translate(0 0)" fill="#404254">
                <rect fill="#f2f5e9" fill-opacity="0.5" stroke="#606060" stroke-width=".5" x="0" y="0" width="60" height="60"/>
                <use id="zoomplus" xlink:href="#zoomPlus" x="17" y="9" onmousedown="handleZoom(evt,'in')"/>
                <use id="zoomminus" xlink:href="#zoomMin" x="42" y="9" onmousedown="handleZoom(evt,'out')"/>
                <use id="reset" xlink:href="#resetDef" x="30" y="36" onmousedown="handleReset()"/>
                <g id="arrowUp" xlink:href="#dirArrow" transform="translate(30 24)" onmousedown="handlePan(0,-1)">
                  <use xlink:href="#rim" fill="#404040">
                        <set attributeName="fill" to="#808080" begin="arrowUp.mouseover" end="arrowUp.mouseout"/>
                  </use>
                  <path fill="none" stroke="white" stroke-width="1.5" d="M0,-3.0v7 M-2.5,-0.5L0,-3.0L2.5,-0.5"/>
                </g>
                <g id="arrowRight" xlink:href="#dirArrow" transform="rotate(90) translate(36 -43)" onmousedown="handlePan(1,0)">
                  <use xlink:href="#rim" fill="#404040">
                        <set attributeName="fill" to="#808080" begin="arrowRight.mouseover" end="arrowRight.mouseout"/>
                  </use>
                  <path fill="none" stroke="white" stroke-width="1.5" d="M0,-3.0v7 M-2.5,-0.5L0,-3.0L2.5,-0.5"/>
                </g>
                <g id="arrowDown" xlink:href="#dirArrow" transform="rotate(180) translate(-30 -48)" onmousedown="handlePan(0,1)">
                  <use xlink:href="#rim" fill="#404040">
                        <set attributeName="fill" to="#808080" begin="arrowDown.mouseover" end="arrowDown.mouseout"/>
                  </use>
                  <path fill="none" stroke="white" stroke-width="1.5" d="M0,-3.0v7 M-2.5,-0.5L0,-3.0L2.5,-0.5"/>
                </g>
                <g id="arrowLeft" xlink:href="#dirArrow" transform="rotate(270) translate(-36 17)" onmousedown="handlePan(-1,0)">
                  <use xlink:href="#rim" fill="#404040">
                        <set attributeName="fill" to="#808080" begin="arrowLeft.mouseover" end="arrowLeft.mouseout"/>
                  </use>
                  <path fill="none" stroke="white" stroke-width="1.5" d="M0,-3.0v7 M-2.5,-0.5L0,-3.0L2.5,-0.5"/>
                </g>
        </g>
        <svg viewBox="0 0 15 15" width="100%" height="30px" preserveAspectRatio="xMaxYMin meet">
         <g id="arrow_out" transform="scale(0.3 0.3)">
          <a xlink:href="classMezzanine_1_1Input_1_1SequenceContainer__coll__graph_org.svg" target="_base">
           <rect id="button" ry="5" rx="5" y="6" x="6" height="38" width="38"
                fill="#f2f5e9" fill-opacity="0.5" stroke="#606060" stroke-width="1.0"/>
           <path id="arrow"
             d="M 11.500037,31.436501 C 11.940474,20.09759 22.043105,11.32322 32.158766,21.979434 L 37.068811,17.246167 C 37.068811,17.246167 37.088388,32 37.088388,32 L 22.160133,31.978069 C 22.160133,31.978069 26.997745,27.140456 26.997745,27.140456 C 18.528582,18.264221 13.291696,25.230495 11.500037,31.436501 z"
             style="fill:#404040;"/>
          </a>
         </g>
        </svg>
</svg>
