<?xml version="1.0" encoding="UTF-8" standalone="no"?>
<!DOCTYPE svg PUBLIC "-//W3C//DTD SVG 1.1//EN"
 "http://www.w3.org/Graphics/SVG/1.1/DTD/svg11.dtd">
<!-- Generated by graphviz version 2.26.3 (20100126.1600)
 -->
<!-- Title: Mezzanine::ScriptException Pages: 1 -->
<svg width="766pt" height="140pt"
 viewBox="0.00 0.00 766.00 140.00" xmlns="http://www.w3.org/2000/svg" xmlns:xlink="http://www.w3.org/1999/xlink">
<g id="graph1" class="graph" transform="scale(1 1) rotate(0) translate(4 136)">
<title>Mezzanine::ScriptException</title>
<polygon fill="white" stroke="white" points="-4,5 -4,-136 763,-136 763,5 -4,5"/>
<!-- Node1 -->
<g id="node1" class="node"><title>Node1</title>
<polygon fill="#bfbfbf" stroke="black" points="258,-56 258,-76 392,-76 392,-56 258,-56"/>
<text text-anchor="middle" x="325" y="-63" font-family="FreeSans" font-size="10.00">Mezzanine::ScriptException</text>
</g>
<!-- Node4 -->
<g id="node7" class="node"><title>Node4</title>
<a xlink:href="classMezzanine_1_1ScriptLuaException.xhtml" target="_top" xlink:title="Thrown when an unknown error happens in a Lua script.">
<polygon fill="white" stroke="black" points="428,-56 428,-76 578,-76 578,-56 428,-56"/>
<text text-anchor="middle" x="503" y="-63" font-family="FreeSans" font-size="10.00">Mezzanine::ScriptLuaException</text>
</a>
</g>
<!-- Node1&#45;&gt;Node4 -->
<g id="edge6" class="edge"><title>Node1&#45;&gt;Node4</title>
<path fill="none" stroke="midnightblue" d="M402.045,-66C410.643,-66 419.392,-66 427.965,-66"/>
<polygon fill="midnightblue" stroke="midnightblue" points="402.041,-62.5001 392.041,-66 402.04,-69.5001 402.041,-62.5001"/>
</g>
<!-- Node2 -->
<g id="node2" class="node"><title>Node2</title>
<a xlink:href="classMezzanine_1_1Exception.xhtml" target="_top" xlink:title="This is the exception thrown by most Mezzanine system that can throw exceptions.">
<polygon fill="white" stroke="black" points="112.5,-56 112.5,-76 221.5,-76 221.5,-56 112.5,-56"/>
<text text-anchor="middle" x="167" y="-63" font-family="FreeSans" font-size="10.00">Mezzanine::Exception</text>
</a>
</g>
<!-- Node2&#45;&gt;Node1 -->
<g id="edge2" class="edge"><title>Node2&#45;&gt;Node1</title>
<path fill="none" stroke="midnightblue" d="M232.03,-66C240.516,-66 249.224,-66 257.745,-66"/>
<polygon fill="midnightblue" stroke="midnightblue" points="231.817,-62.5001 221.817,-66 231.817,-69.5001 231.817,-62.5001"/>
</g>
<!-- Node3 -->
<g id="node4" class="node"><title>Node3</title>
<a xlink:title="STL class.">
<polygon fill="white" stroke="#bfbfbf" points="0.5,-56 0.5,-76 75.5,-76 75.5,-56 0.5,-56"/>
<text text-anchor="middle" x="38" y="-63" font-family="FreeSans" font-size="10.00">std::exception</text>
</a>
</g>
<!-- Node3&#45;&gt;Node2 -->
<g id="edge4" class="edge"><title>Node3&#45;&gt;Node2</title>
<path fill="none" stroke="midnightblue" d="M85.8899,-66C94.4861,-66 103.505,-66 112.276,-66"/>
<polygon fill="midnightblue" stroke="midnightblue" points="85.659,-62.5001 75.6589,-66 85.6589,-69.5001 85.659,-62.5001"/>
</g>
<!-- Node5 -->
<g id="node9" class="node"><title>Node5</title>
<a xlink:href="classMezzanine_1_1ScriptLuaErrErrException.xhtml" target="_top" xlink:title="Thrown when Lua has an error handling an error.">
<polygon fill="white" stroke="black" points="620,-100 620,-132 752,-132 752,-100 620,-100"/>
<text text-anchor="start" x="628" y="-119" font-family="FreeSans" font-size="10.00">Mezzanine::ScriptLuaErrErr</text>
<text text-anchor="middle" x="686" y="-107" font-family="FreeSans" font-size="10.00">Exception</text>
</a>
</g>
<!-- Node4&#45;&gt;Node5 -->
<g id="edge8" class="edge"><title>Node4&#45;&gt;Node5</title>
<path fill="none" stroke="midnightblue" d="M549.808,-78.789C573.431,-85.2433 602.321,-93.137 627.406,-99.9906"/>
<polygon fill="midnightblue" stroke="midnightblue" points="550.602,-75.3777 540.033,-76.1182 548.757,-82.1302 550.602,-75.3777"/>
</g>
<!-- Node6 -->
<g id="node11" class="node"><title>Node6</title>
<a xlink:href="classMezzanine_1_1ScriptLuaRuntimeException.xhtml" target="_top" xlink:title="Thrown when a Lua script has a runtime error.">
<polygon fill="white" stroke="black" points="614,-50 614,-82 758,-82 758,-50 614,-50"/>
<text text-anchor="start" x="622" y="-69" font-family="FreeSans" font-size="10.00">Mezzanine::ScriptLuaRuntime</text>
<text text-anchor="middle" x="686" y="-57" font-family="FreeSans" font-size="10.00">Exception</text>
</a>
</g>
<!-- Node4&#45;&gt;Node6 -->
<g id="edge10" class="edge"><title>Node4&#45;&gt;Node6</title>
<path fill="none" stroke="midnightblue" d="M588.472,-66C596.915,-66 605.428,-66 613.72,-66"/>
<polygon fill="midnightblue" stroke="midnightblue" points="588.225,-62.5001 578.225,-66 588.225,-69.5001 588.225,-62.5001"/>
</g>
<!-- Node7 -->
<g id="node13" class="node"><title>Node7</title>
<a xlink:href="classMezzanine_1_1ScriptLuaYieldException.xhtml" target="_top" xlink:title="Thrown when Lua returns a yield and it should not have.">
<polygon fill="white" stroke="black" points="621,-0 621,-32 751,-32 751,-0 621,-0"/>
<text text-anchor="start" x="629" y="-19" font-family="FreeSans" font-size="10.00">Mezzanine::ScriptLuaYield</text>
<text text-anchor="middle" x="686" y="-7" font-family="FreeSans" font-size="10.00">Exception</text>
</a>
</g>
<!-- Node4&#45;&gt;Node7 -->
<g id="edge12" class="edge"><title>Node4&#45;&gt;Node7</title>
<path fill="none" stroke="midnightblue" d="M549.808,-53.211C573.431,-46.7567 602.321,-38.863 627.406,-32.0094"/>
<polygon fill="midnightblue" stroke="midnightblue" points="548.757,-49.8698 540.033,-55.8818 550.602,-56.6223 548.757,-49.8698"/>
</g>
</g>
</svg>
