<?xml version="1.0" encoding="UTF-8" standalone="no"?>
<!DOCTYPE svg PUBLIC "-//W3C//DTD SVG 1.1//EN"
 "http://www.w3.org/Graphics/SVG/1.1/DTD/svg11.dtd">
<!-- Generated by graphviz version 2.26.3 (20100126.1600)
 -->
<!-- Title: Mezzanine::Scripting::Lua::Lua51Script Pages: 1 -->
<svg width="410pt" height="94pt"
 viewBox="0.00 0.00 410.00 94.00" xmlns="http://www.w3.org/2000/svg" xmlns:xlink="http://www.w3.org/1999/xlink">
<g id="graph1" class="graph" transform="scale(1 1) rotate(0) translate(4 90)">
<title>Mezzanine::Scripting::Lua::Lua51Script</title>
<polygon fill="white" stroke="white" points="-4,5 -4,-90 407,-90 407,5 -4,5"/>
<!-- Node1 -->
<g id="node1" class="node"><title>Node1</title>
<polygon fill="#bfbfbf" stroke="black" points="294,-26 294,-60 402,-60 402,-26 294,-26"/>
<text text-anchor="start" x="302" y="-47" font-family="Helvetica,sans-Serif" font-size="10.00">Mezzanine::Scripting</text>
<text text-anchor="middle" x="348" y="-34" font-family="Helvetica,sans-Serif" font-size="10.00">::Lua::Lua51Script</text>
</g>
<!-- Node2 -->
<g id="node2" class="node"><title>Node2</title>
<a xlink:href="classMezzanine_1_1Scripting_1_1iScriptCompilable.html" target="_top" xlink:title="The interface for a script that can be compiled to bytecode. ">
<polygon fill="white" stroke="black" points="147,-52 147,-86 255,-86 255,-52 147,-52"/>
<text text-anchor="start" x="155" y="-73" font-family="Helvetica,sans-Serif" font-size="10.00">Mezzanine::Scripting</text>
<text text-anchor="middle" x="201" y="-60" font-family="Helvetica,sans-Serif" font-size="10.00">::iScriptCompilable</text>
</a>
</g>
<!-- Node2&#45;&gt;Node1 -->
<g id="edge2" class="edge"><title>Node2&#45;&gt;Node1</title>
<path fill="none" stroke="midnightblue" d="M265.195,-57.6459C274.772,-55.952 284.563,-54.2202 293.904,-52.5681"/>
<polygon fill="midnightblue" stroke="midnightblue" points="264.557,-54.2042 255.32,-59.3924 265.777,-61.0972 264.557,-54.2042"/>
</g>
<!-- Node3 -->
<g id="node4" class="node"><title>Node3</title>
<a xlink:href="classMezzanine_1_1Scripting_1_1iScript.html" target="_top" xlink:title="The interface for a script. ">
<polygon fill="white" stroke="black" points="0,-26 0,-60 108,-60 108,-26 0,-26"/>
<text text-anchor="start" x="8" y="-47" font-family="Helvetica,sans-Serif" font-size="10.00">Mezzanine::Scripting</text>
<text text-anchor="middle" x="54" y="-34" font-family="Helvetica,sans-Serif" font-size="10.00">::iScript</text>
</a>
</g>
<!-- Node3&#45;&gt;Node2 -->
<g id="edge4" class="edge"><title>Node3&#45;&gt;Node2</title>
<path fill="none" stroke="midnightblue" d="M118.195,-54.3541C127.772,-56.048 137.563,-57.7798 146.904,-59.4319"/>
<polygon fill="midnightblue" stroke="midnightblue" points="118.777,-50.9028 108.32,-52.6076 117.557,-57.7958 118.777,-50.9028"/>
</g>
<!-- Node4 -->
<g id="node6" class="node"><title>Node4</title>
<a xlink:href="classMezzanine_1_1Scripting_1_1iScriptMultipleReturn.html" target="_top" xlink:title="This script can return simple group of values. ">
<polygon fill="white" stroke="black" points="144.5,-0 144.5,-34 257.5,-34 257.5,-0 144.5,-0"/>
<text text-anchor="start" x="152.5" y="-21" font-family="Helvetica,sans-Serif" font-size="10.00">Mezzanine::Scripting</text>
<text text-anchor="middle" x="201" y="-8" font-family="Helvetica,sans-Serif" font-size="10.00">::iScriptMultipleReturn</text>
</a>
</g>
<!-- Node3&#45;&gt;Node4 -->
<g id="edge8" class="edge"><title>Node3&#45;&gt;Node4</title>
<path fill="none" stroke="midnightblue" d="M118.395,-31.6104C127.07,-30.0761 135.917,-28.5113 144.442,-27.0035"/>
<polygon fill="midnightblue" stroke="midnightblue" points="117.557,-28.2042 108.32,-33.3924 118.777,-35.0972 117.557,-28.2042"/>
</g>
<!-- Node4&#45;&gt;Node1 -->
<g id="edge6" class="edge"><title>Node4&#45;&gt;Node1</title>
<path fill="none" stroke="midnightblue" d="M267.901,-28.8329C276.55,-30.3625 285.321,-31.9139 293.731,-33.4014"/>
<polygon fill="midnightblue" stroke="midnightblue" points="268.291,-25.3475 257.834,-27.0523 267.072,-32.2405 268.291,-25.3475"/>
</g>
</g>
</svg>
