<?xml version="1.0" encoding="UTF-8" standalone="no"?>
<!DOCTYPE svg PUBLIC "-//W3C//DTD SVG 1.1//EN"
 "http://www.w3.org/Graphics/SVG/1.1/DTD/svg11.dtd">
<!-- Generated by graphviz version 2.26.3 (20100126.1600)
 -->
<!-- Title: Mezzanine::MemoryManagementException Pages: 1 -->
<svg width="184pt" height="160pt"
 viewBox="0.00 0.00 184.00 160.00" xmlns="http://www.w3.org/2000/svg" xmlns:xlink="http://www.w3.org/1999/xlink">
<g id="graph1" class="graph" transform="scale(1 1) rotate(0) translate(4 156)">
<title>Mezzanine::MemoryManagementException</title>
<polygon fill="white" stroke="white" points="-4,5 -4,-156 181,-156 181,5 -4,5"/>
<!-- Node1 -->
<g id="node1" class="node"><title>Node1</title>
<polygon fill="#bfbfbf" stroke="black" points="0,-1 0,-35 176,-35 176,-1 0,-1"/>
<text text-anchor="start" x="8" y="-22" font-family="FreeSans" font-size="10.00">Mezzanine::MemoryManagement</text>
<text text-anchor="middle" x="88" y="-9" font-family="FreeSans" font-size="10.00">Exception</text>
</g>
<!-- Node2 -->
<g id="node2" class="node"><title>Node2</title>
<a xlink:href="classMezzanine_1_1Exception.xhtml" target="_top" xlink:title="This is the exception thrown by most Mezzanine system that can throw exceptions.">
<polygon fill="white" stroke="black" points="28,-72.5 28,-93.5 148,-93.5 148,-72.5 28,-72.5"/>
<text text-anchor="middle" x="88" y="-80.5" font-family="FreeSans" font-size="10.00">Mezzanine::Exception</text>
</a>
</g>
<!-- Node2&#45;&gt;Node1 -->
<g id="edge2" class="edge"><title>Node2&#45;&gt;Node1</title>
<path fill="none" stroke="midnightblue" d="M88,-62.1306C88,-53.4049 88,-43.3908 88,-35.1099"/>
<polygon fill="midnightblue" stroke="midnightblue" points="84.5001,-62.2665 88,-72.2666 91.5001,-62.2666 84.5001,-62.2665"/>
</g>
<!-- Node3 -->
<g id="node4" class="node"><title>Node3</title>
<a xlink:title="STL class.">
<polygon fill="white" stroke="#bfbfbf" points="46,-130.5 46,-151.5 130,-151.5 130,-130.5 46,-130.5"/>
<text text-anchor="middle" x="88" y="-138.5" font-family="FreeSans" font-size="10.00">std::exception</text>
</a>
</g>
<!-- Node3&#45;&gt;Node2 -->
<g id="edge4" class="edge"><title>Node3&#45;&gt;Node2</title>
<path fill="none" stroke="midnightblue" d="M88,-120.191C88,-111.168 88,-100.994 88,-93.5707"/>
<polygon fill="midnightblue" stroke="midnightblue" points="84.5001,-120.362 88,-130.362 91.5001,-120.362 84.5001,-120.362"/>
</g>
</g>
</svg>
