<?xml version="1.0" encoding="UTF-8" standalone="no"?>
<!DOCTYPE svg PUBLIC "-//W3C//DTD SVG 1.1//EN"
 "http://www.w3.org/Graphics/SVG/1.1/DTD/svg11.dtd">
<!-- Generated by graphviz version 2.26.3 (20100126.1600)
 -->
<!-- Title: Mezzanine::Resource::AssetGroup Pages: 1 -->
<!--zoomable 129 -->
<svg id="main" version="1.1" xmlns="http://www.w3.org/2000/svg" xmlns:xlink="http://www.w3.org/1999/xlink" xml:space="preserve" onload="init(evt)">
<style type="text/css"><![CDATA[
.edge:hover path { stroke: red; }
.edge:hover polygon { stroke: red; fill: red; }
]]></style>
<script type="text/javascript"><![CDATA[
var edges = document.getElementsByTagName('g');
if (edges && edges.length) {
  for (var i=0;i<edges.length;i++) {
    if (edges[i].id.substr(0,4)=='edge') {
      edges[i].setAttribute('class','edge');
    }
  }
}
]]></script>
        <defs>
                <circle id="rim" cx="0" cy="0" r="7"/>
                <circle id="rim2" cx="0" cy="0" r="3.5"/>
                <g id="zoomPlus">
                        <use xlink:href="#rim" fill="#404040">
                                <set attributeName="fill" to="#808080" begin="zoomplus.mouseover" end="zoomplus.mouseout"/>
                        </use>
                        <path d="M-4,0h8M0,-4v8" fill="none" stroke="white" stroke-width="1.5" pointer-events="none"/>
                </g>
                <g id="zoomMin">
                        <use xlink:href="#rim" fill="#404040">
                                <set attributeName="fill" to="#808080" begin="zoomminus.mouseover" end="zoomminus.mouseout"/>
                        </use>
                        <path d="M-4,0h8" fill="none" stroke="white" stroke-width="1.5" pointer-events="none"/>
                </g>
                <g id="dirArrow">
                        <path fill="none" stroke="white" stroke-width="1.5" d="M0,-3.0v7 M-2.5,-0.5L0,-3.0L2.5,-0.5"/>
                </g>
               <g id="resetDef">
                       <use xlink:href="#rim2" fill="#404040">
                               <set attributeName="fill" to="#808080" begin="reset.mouseover" end="reset.mouseout"/>
                       </use>
               </g>
        </defs>

<script type="text/javascript">
var viewWidth = 874;
var viewHeight = 129;
var sectionId = 'dynsection-0';
</script>
<script xlink:href="svgpan.js"/>
<svg id="graph" class="graph">
<g id="viewport">
<title>Mezzanine::Resource::AssetGroup</title>
<polygon fill="white" stroke="white" points="-4,5 -4,-125 871,-125 871,5 -4,5"/>
<!-- Node1 -->
<g id="node1" class="node"><title>Node1</title>
<polygon fill="#bfbfbf" stroke="black" points="754,-34 754,-68 866,-68 866,-34 754,-34"/>
<text text-anchor="start" x="762" y="-55" font-family="Helvetica,sans-Serif" font-size="10.00">Mezzanine::Resource</text>
<text text-anchor="middle" x="810" y="-42" font-family="Helvetica,sans-Serif" font-size="10.00">::AssetGroup</text>
</g>
<!-- Node2 -->
<g id="node2" class="node"><title>Node2</title>
<polygon fill="white" stroke="#bfbfbf" points="466,-34 466,-68 614,-68 614,-34 466,-34"/>
<text text-anchor="start" x="474" y="-55" font-family="Helvetica,sans-Serif" font-size="10.00">std::map&lt; String, DataStream</text>
<text text-anchor="middle" x="540" y="-42" font-family="Helvetica,sans-Serif" font-size="10.00">Ptr &gt;</text>
</g>
<!-- Node2&#45;&gt;Node1 -->
<g id="edge2" class="edge"><title>Node2&#45;&gt;Node1</title>
<path fill="none" stroke="#9a32cd" stroke-dasharray="5,2" d="M624.375,-51C666.447,-51 716.19,-51 753.588,-51"/>
<polygon fill="#9a32cd" stroke="#9a32cd" points="624.136,-47.5001 614.136,-51 624.136,-54.5001 624.136,-47.5001"/>
<text text-anchor="middle" x="684" y="-55" font-family="Helvetica,sans-Serif" font-size="10.00"> GroupAssets</text>
</g>
<!-- Node3 -->
<g id="node4" class="node"><title>Node3</title>
<a xlink:href="classMezzanine_1_1CountedPtr.html" target="_top" xlink:title="A simple reference counting pointer. ">
<polygon fill="white" stroke="black" points="266.5,-71 266.5,-105 385.5,-105 385.5,-71 266.5,-71"/>
<text text-anchor="start" x="274.5" y="-92" font-family="Helvetica,sans-Serif" font-size="10.00">Mezzanine::CountedPtr</text>
<text text-anchor="middle" x="326" y="-79" font-family="Helvetica,sans-Serif" font-size="10.00">&lt; TypePointedTo &gt;</text>
</a>
</g>
<!-- Node3&#45;&gt;Node2 -->
<g id="edge4" class="edge"><title>Node3&#45;&gt;Node2</title>
<path fill="none" stroke="#9a32cd" stroke-dasharray="5,2" d="M395.725,-75.9448C418.157,-72.0663 443.087,-67.756 465.826,-63.8244"/>
<polygon fill="#9a32cd" stroke="#9a32cd" points="394.868,-72.5408 385.611,-77.6934 396.061,-79.4385 394.868,-72.5408"/>
<text text-anchor="middle" x="426" y="-77" font-family="Helvetica,sans-Serif" font-size="10.00"> elements</text>
</g>
<!-- Node7 -->
<g id="node12" class="node"><title>Node7</title>
<polygon fill="white" stroke="#bfbfbf" points="483,-87 483,-121 597,-121 597,-87 483,-87"/>
<text text-anchor="start" x="491" y="-108" font-family="Helvetica,sans-Serif" font-size="10.00">std::vector&lt; Resource</text>
<text text-anchor="middle" x="540" y="-95" font-family="Helvetica,sans-Serif" font-size="10.00">::DataStreamPtr &gt;</text>
</g>
<!-- Node3&#45;&gt;Node7 -->
<g id="edge14" class="edge"><title>Node3&#45;&gt;Node7</title>
<path fill="none" stroke="#9a32cd" stroke-dasharray="5,2" d="M395.806,-93.2192C424.01,-95.3278 456.151,-97.7309 482.92,-99.7323"/>
<polygon fill="#9a32cd" stroke="#9a32cd" points="395.844,-89.7123 385.611,-92.4569 395.322,-96.6928 395.844,-89.7123"/>
<text text-anchor="middle" x="426" y="-100" font-family="Helvetica,sans-Serif" font-size="10.00"> elements</text>
</g>
<!-- Node4 -->
<g id="node6" class="node"><title>Node4</title>
<a xlink:href="classMezzanine_1_1ReferenceCount.html" target="_top" xlink:title="This exists once per object managed by a group of shared pointer to track items in memory...">
<polygon fill="white" stroke="black" points="0.5,-71 0.5,-105 141.5,-105 141.5,-71 0.5,-71"/>
<text text-anchor="start" x="8.5" y="-92" font-family="Helvetica,sans-Serif" font-size="10.00">Mezzanine::ReferenceCount</text>
<text text-anchor="middle" x="71" y="-79" font-family="Helvetica,sans-Serif" font-size="10.00">&lt; TypePointedTo &gt;</text>
</a>
</g>
<!-- Node4&#45;&gt;Node3 -->
<g id="edge6" class="edge"><title>Node4&#45;&gt;Node3</title>
<path fill="none" stroke="#9a32cd" stroke-dasharray="5,2" d="M151.988,-88C189.106,-88 232.319,-88 266.396,-88"/>
<polygon fill="#9a32cd" stroke="#9a32cd" points="151.693,-84.5001 141.693,-88 151.693,-91.5001 151.693,-84.5001"/>
<text text-anchor="middle" x="204" y="-92" font-family="Helvetica,sans-Serif" font-size="10.00"> _ReferenceCounter</text>
</g>
<!-- Node5 -->
<g id="node8" class="node"><title>Node5</title>
<a xlink:title="STL class. ">
<polygon fill="white" stroke="#bfbfbf" points="296,-6.5 296,-27.5 356,-27.5 356,-6.5 296,-6.5"/>
<text text-anchor="middle" x="326" y="-14.5" font-family="Helvetica,sans-Serif" font-size="10.00">std::string</text>
</a>
</g>
<!-- Node5&#45;&gt;Node1 -->
<g id="edge16" class="edge"><title>Node5&#45;&gt;Node1</title>
<path fill="none" stroke="#9a32cd" stroke-dasharray="5,2" d="M366.225,-15.1825C394.201,-14.0119 432.363,-12.6005 466,-12 531.767,-10.826 548.539,-5.55053 614,-12 661.648,-16.6945 714.881,-27.6607 753.832,-36.7727"/>
<polygon fill="#9a32cd" stroke="#9a32cd" points="365.874,-11.6942 356.032,-15.6172 366.173,-18.6879 365.874,-11.6942"/>
<text text-anchor="middle" x="540" y="-16" font-family="Helvetica,sans-Serif" font-size="10.00"> Name</text>
</g>
<!-- Node5&#45;&gt;Node2 -->
<g id="edge8" class="edge"><title>Node5&#45;&gt;Node2</title>
<path fill="none" stroke="#9a32cd" stroke-dasharray="5,2" d="M366.195,-22.6653C390.003,-26.087 420.748,-30.6206 448,-35 453.762,-35.926 459.723,-36.908 465.713,-37.9119"/>
<polygon fill="#9a32cd" stroke="#9a32cd" points="366.51,-19.1748 356.115,-21.2234 365.519,-26.1043 366.51,-19.1748"/>
<text text-anchor="middle" x="426" y="-39" font-family="Helvetica,sans-Serif" font-size="10.00"> keys</text>
</g>
<!-- Node6 -->
<g id="node10" class="node"><title>Node6</title>
<a xlink:title="STL class. ">
<polygon fill="white" stroke="#bfbfbf" points="23.5,-0 23.5,-34 118.5,-34 118.5,-0 23.5,-0"/>
<text text-anchor="start" x="31.5" y="-21" font-family="Helvetica,sans-Serif" font-size="10.00">std::basic_string&lt;</text>
<text text-anchor="middle" x="71" y="-8" font-family="Helvetica,sans-Serif" font-size="10.00"> char &gt;</text>
</a>
</g>
<!-- Node6&#45;&gt;Node5 -->
<g id="edge10" class="edge"><title>Node6&#45;&gt;Node5</title>
<path fill="none" stroke="midnightblue" d="M128.724,-17C180.59,-17 254.716,-17 295.751,-17"/>
<polygon fill="midnightblue" stroke="midnightblue" points="128.664,-13.5001 118.664,-17 128.664,-20.5001 128.664,-13.5001"/>
</g>
<!-- Node7&#45;&gt;Node1 -->
<g id="edge12" class="edge"><title>Node7&#45;&gt;Node1</title>
<path fill="none" stroke="#9a32cd" stroke-dasharray="5,2" d="M607.071,-92.4366C644.993,-85.7095 693.235,-76.8352 736,-68 741.809,-66.7998 747.863,-65.4963 753.895,-64.1629"/>
<polygon fill="#9a32cd" stroke="#9a32cd" points="606.402,-89.0005 597.164,-94.187 607.62,-95.8938 606.402,-89.0005"/>
<text text-anchor="middle" x="684" y="-91" font-family="Helvetica,sans-Serif" font-size="10.00"> UnnamedGroupAssets</text>
</g>
</g>
</svg>
        <g id="navigator" transform="translate(0 0)" fill="#404254">
                <rect fill="#f2f5e9" fill-opacity="0.5" stroke="#606060" stroke-width=".5" x="0" y="0" width="60" height="60"/>
                <use id="zoomplus" xlink:href="#zoomPlus" x="17" y="9" onmousedown="handleZoom(evt,'in')"/>
                <use id="zoomminus" xlink:href="#zoomMin" x="42" y="9" onmousedown="handleZoom(evt,'out')"/>
                <use id="reset" xlink:href="#resetDef" x="30" y="36" onmousedown="handleReset()"/>
                <g id="arrowUp" xlink:href="#dirArrow" transform="translate(30 24)" onmousedown="handlePan(0,-1)">
                  <use xlink:href="#rim" fill="#404040">
                        <set attributeName="fill" to="#808080" begin="arrowUp.mouseover" end="arrowUp.mouseout"/>
                  </use>
                  <path fill="none" stroke="white" stroke-width="1.5" d="M0,-3.0v7 M-2.5,-0.5L0,-3.0L2.5,-0.5"/>
                </g>
                <g id="arrowRight" xlink:href="#dirArrow" transform="rotate(90) translate(36 -43)" onmousedown="handlePan(1,0)">
                  <use xlink:href="#rim" fill="#404040">
                        <set attributeName="fill" to="#808080" begin="arrowRight.mouseover" end="arrowRight.mouseout"/>
                  </use>
                  <path fill="none" stroke="white" stroke-width="1.5" d="M0,-3.0v7 M-2.5,-0.5L0,-3.0L2.5,-0.5"/>
                </g>
                <g id="arrowDown" xlink:href="#dirArrow" transform="rotate(180) translate(-30 -48)" onmousedown="handlePan(0,1)">
                  <use xlink:href="#rim" fill="#404040">
                        <set attributeName="fill" to="#808080" begin="arrowDown.mouseover" end="arrowDown.mouseout"/>
                  </use>
                  <path fill="none" stroke="white" stroke-width="1.5" d="M0,-3.0v7 M-2.5,-0.5L0,-3.0L2.5,-0.5"/>
                </g>
                <g id="arrowLeft" xlink:href="#dirArrow" transform="rotate(270) translate(-36 17)" onmousedown="handlePan(-1,0)">
                  <use xlink:href="#rim" fill="#404040">
                        <set attributeName="fill" to="#808080" begin="arrowLeft.mouseover" end="arrowLeft.mouseout"/>
                  </use>
                  <path fill="none" stroke="white" stroke-width="1.5" d="M0,-3.0v7 M-2.5,-0.5L0,-3.0L2.5,-0.5"/>
                </g>
        </g>
        <svg viewBox="0 0 15 15" width="100%" height="30px" preserveAspectRatio="xMaxYMin meet">
         <g id="arrow_out" transform="scale(0.3 0.3)">
          <a xlink:href="classMezzanine_1_1Resource_1_1AssetGroup__coll__graph_org.svg" target="_base">
           <rect id="button" ry="5" rx="5" y="6" x="6" height="38" width="38"
                fill="#f2f5e9" fill-opacity="0.5" stroke="#606060" stroke-width="1.0"/>
           <path id="arrow"
             d="M 11.500037,31.436501 C 11.940474,20.09759 22.043105,11.32322 32.158766,21.979434 L 37.068811,17.246167 C 37.068811,17.246167 37.088388,32 37.088388,32 L 22.160133,31.978069 C 22.160133,31.978069 26.997745,27.140456 26.997745,27.140456 C 18.528582,18.264221 13.291696,25.230495 11.500037,31.436501 z"
             style="fill:#404040;"/>
          </a>
         </g>
        </svg>
</svg>
