<?xml version="1.0" encoding="UTF-8" standalone="no"?>
<!DOCTYPE svg PUBLIC "-//W3C//DTD SVG 1.1//EN"
 "http://www.w3.org/Graphics/SVG/1.1/DTD/svg11.dtd">
<!-- Generated by graphviz version 2.38.0 (20140413.2041)
 -->
<!-- Title: Mezzanine::FilePermissionException Pages: 1 -->
<svg width="144pt" height="263pt"
 viewBox="0.00 0.00 144.00 263.00" xmlns="http://www.w3.org/2000/svg" xmlns:xlink="http://www.w3.org/1999/xlink">
<g id="graph0" class="graph" transform="scale(1 1) rotate(0) translate(4 259)">
<title>Mezzanine::FilePermissionException</title>
<polygon fill="white" stroke="none" points="-4,4 -4,-259 140,-259 140,4 -4,4"/>
<!-- Node1 -->
<g id="node1" class="node"><title>Node1</title>
<polygon fill="#bfbfbf" stroke="black" points="1,-0.5 1,-30.5 135,-30.5 135,-0.5 1,-0.5"/>
<text text-anchor="start" x="9" y="-18.5" font-family="Helvetica,sans-Serif" font-size="10.00">Mezzanine::FilePermission</text>
<text text-anchor="middle" x="68" y="-7.5" font-family="Helvetica,sans-Serif" font-size="10.00">Exception</text>
</g>
<!-- Node2 -->
<g id="node2" class="node"><title>Node2</title>
<g id="a_node2"><a xlink:href="classMezzanine_1_1FileException.html" target="_top" xlink:title="Thrown when there is an unknown issue with a file. ">
<polygon fill="white" stroke="black" points="3.5,-67.5 3.5,-86.5 132.5,-86.5 132.5,-67.5 3.5,-67.5"/>
<text text-anchor="middle" x="68" y="-74.5" font-family="Helvetica,sans-Serif" font-size="10.00">Mezzanine::FileException</text>
</a>
</g>
</g>
<!-- Node2&#45;&gt;Node1 -->
<g id="edge1" class="edge"><title>Node2&#45;&gt;Node1</title>
<path fill="none" stroke="midnightblue" d="M68,-57.2349C68,-48.5864 68,-38.4969 68,-30.523"/>
<polygon fill="midnightblue" stroke="midnightblue" points="64.5001,-57.4751 68,-67.4751 71.5001,-57.4751 64.5001,-57.4751"/>
</g>
<!-- Node3 -->
<g id="node3" class="node"><title>Node3</title>
<g id="a_node3"><a xlink:href="classMezzanine_1_1IOException.html" target="_top" xlink:title="Thrown when there was an issue with IO but very little was known about it. ">
<polygon fill="white" stroke="black" points="6,-123.5 6,-142.5 130,-142.5 130,-123.5 6,-123.5"/>
<text text-anchor="middle" x="68" y="-130.5" font-family="Helvetica,sans-Serif" font-size="10.00">Mezzanine::IOException</text>
</a>
</g>
</g>
<!-- Node3&#45;&gt;Node2 -->
<g id="edge2" class="edge"><title>Node3&#45;&gt;Node2</title>
<path fill="none" stroke="midnightblue" d="M68,-112.805C68,-103.91 68,-93.7798 68,-86.7511"/>
<polygon fill="midnightblue" stroke="midnightblue" points="64.5001,-113.083 68,-123.083 71.5001,-113.083 64.5001,-113.083"/>
</g>
<!-- Node4 -->
<g id="node4" class="node"><title>Node4</title>
<g id="a_node4"><a xlink:href="classMezzanine_1_1ExceptionBase.html" target="_top" xlink:title="This is the exception thrown by most Mezzanine systems that can throw exceptions. ...">
<polygon fill="white" stroke="black" points="0,-179.5 0,-198.5 136,-198.5 136,-179.5 0,-179.5"/>
<text text-anchor="middle" x="68" y="-186.5" font-family="Helvetica,sans-Serif" font-size="10.00">Mezzanine::ExceptionBase</text>
</a>
</g>
</g>
<!-- Node4&#45;&gt;Node3 -->
<g id="edge3" class="edge"><title>Node4&#45;&gt;Node3</title>
<path fill="none" stroke="midnightblue" d="M68,-168.805C68,-159.91 68,-149.78 68,-142.751"/>
<polygon fill="midnightblue" stroke="midnightblue" points="64.5001,-169.083 68,-179.083 71.5001,-169.083 64.5001,-169.083"/>
</g>
<!-- Node5 -->
<g id="node5" class="node"><title>Node5</title>
<g id="a_node5"><a xlink:title="STL class. ">
<polygon fill="white" stroke="#bfbfbf" points="29,-235.5 29,-254.5 107,-254.5 107,-235.5 29,-235.5"/>
<text text-anchor="middle" x="68" y="-242.5" font-family="Helvetica,sans-Serif" font-size="10.00">std::exception</text>
</a>
</g>
</g>
<!-- Node5&#45;&gt;Node4 -->
<g id="edge4" class="edge"><title>Node5&#45;&gt;Node4</title>
<path fill="none" stroke="midnightblue" d="M68,-224.805C68,-215.91 68,-205.78 68,-198.751"/>
<polygon fill="midnightblue" stroke="midnightblue" points="64.5001,-225.083 68,-235.083 71.5001,-225.083 64.5001,-225.083"/>
</g>
</g>
</svg>
