<?xml version="1.0" encoding="UTF-8" standalone="no"?>
<!DOCTYPE svg PUBLIC "-//W3C//DTD SVG 1.1//EN"
 "http://www.w3.org/Graphics/SVG/1.1/DTD/svg11.dtd">
<!-- Generated by graphviz version 2.38.0 (20140413.2041)
 -->
<!-- Title: Mezzanine::Graphics::Procedural::Triangulator Pages: 1 -->
<svg width="1335pt" height="207pt"
 viewBox="0.00 0.00 1335.00 207.00" xmlns="http://www.w3.org/2000/svg" xmlns:xlink="http://www.w3.org/1999/xlink">
<g id="graph0" class="graph" transform="scale(1 1) rotate(0) translate(4 203)">
<title>Mezzanine::Graphics::Procedural::Triangulator</title>
<polygon fill="white" stroke="none" points="-4,4 -4,-203 1331,-203 1331,4 -4,4"/>
<!-- Node1 -->
<g id="node1" class="node"><title>Node1</title>
<polygon fill="#bfbfbf" stroke="black" points="1201,-95 1201,-125 1327,-125 1327,-95 1201,-95"/>
<text text-anchor="start" x="1209" y="-113" font-family="Helvetica,sans-Serif" font-size="10.00">Mezzanine::Graphics</text>
<text text-anchor="middle" x="1264" y="-102" font-family="Helvetica,sans-Serif" font-size="10.00">::Procedural::Triangulator</text>
</g>
<!-- Node2 -->
<g id="node2" class="node"><title>Node2</title>
<g id="a_node2"><a xlink:href="classMezzanine_1_1Graphics_1_1Procedural_1_1MeshGenerator.html" target="_top" xlink:title="Mezzanine::Graphics\l::Procedural::MeshGenerator\l\&lt; Triangulator \&gt;">
<polygon fill="white" stroke="black" points="204,-42.5 204,-83.5 346,-83.5 346,-42.5 204,-42.5"/>
<text text-anchor="start" x="212" y="-71.5" font-family="Helvetica,sans-Serif" font-size="10.00">Mezzanine::Graphics</text>
<text text-anchor="start" x="212" y="-60.5" font-family="Helvetica,sans-Serif" font-size="10.00">::Procedural::MeshGenerator</text>
<text text-anchor="middle" x="275" y="-49.5" font-family="Helvetica,sans-Serif" font-size="10.00">&lt; Triangulator &gt;</text>
</a>
</g>
</g>
<!-- Node2&#45;&gt;Node1 -->
<g id="edge1" class="edge"><title>Node2&#45;&gt;Node1</title>
<path fill="none" stroke="midnightblue" d="M356.241,-63.4434C411.43,-63.7108 486.408,-64 552.5,-64 552.5,-64 552.5,-64 986,-64 1063.02,-64 1150.49,-81.5223 1206.16,-94.9379"/>
<polygon fill="midnightblue" stroke="midnightblue" points="356.19,-59.9432 346.173,-63.3938 356.156,-66.9431 356.19,-59.9432"/>
</g>
<!-- Node3 -->
<g id="node3" class="node"><title>Node3</title>
<g id="a_node3"><a xlink:href="classMezzanine_1_1Vector2.html" target="_top" xlink:title="This is used to represent a point on a 2 dimentional area, such as a screen. ">
<polygon fill="white" stroke="black" points="6.5,-117.5 6.5,-136.5 110.5,-136.5 110.5,-117.5 6.5,-117.5"/>
<text text-anchor="middle" x="58.5" y="-124.5" font-family="Helvetica,sans-Serif" font-size="10.00">Mezzanine::Vector2</text>
</a>
</g>
</g>
<!-- Node3&#45;&gt;Node2 -->
<g id="edge2" class="edge"><title>Node3&#45;&gt;Node2</title>
<path fill="none" stroke="#9a32cd" stroke-dasharray="5,2" d="M87.7436,-113.109C101.715,-106.639 118.98,-99.2333 135,-94 156.975,-86.8213 181.44,-80.7512 203.645,-75.9374"/>
<polygon fill="#9a32cd" stroke="#9a32cd" points="86.2019,-109.966 78.6532,-117.401 89.1903,-116.296 86.2019,-109.966"/>
<text text-anchor="middle" x="160.5" y="-97" font-family="Helvetica,sans-Serif" font-size="10.00"> UVOrigin</text>
</g>
<!-- Node7 -->
<g id="node7" class="node"><title>Node7</title>
<polygon fill="white" stroke="#bfbfbf" points="217.5,-173.5 217.5,-192.5 332.5,-192.5 332.5,-173.5 217.5,-173.5"/>
<text text-anchor="middle" x="275" y="-180.5" font-family="Helvetica,sans-Serif" font-size="10.00">std::vector&lt; Vector2 &gt;</text>
</g>
<!-- Node3&#45;&gt;Node7 -->
<g id="edge7" class="edge"><title>Node3&#45;&gt;Node7</title>
<path fill="none" stroke="#9a32cd" stroke-dasharray="5,2" d="M86.4163,-141.232C100.535,-148.149 118.324,-156.023 135,-161 161.572,-168.931 191.905,-174.154 217.441,-177.511"/>
<polygon fill="#9a32cd" stroke="#9a32cd" points="87.7932,-138.007 77.2865,-136.643 84.6496,-144.261 87.7932,-138.007"/>
<text text-anchor="middle" x="160.5" y="-175" font-family="Helvetica,sans-Serif" font-size="10.00"> elements</text>
</g>
<!-- Node10 -->
<g id="node10" class="node"><title>Node10</title>
<g id="a_node10"><a xlink:href="classMezzanine_1_1Triangle2D.html" target="_top" xlink:title="A geometry math class for expressing a triangle in 2D space. ">
<polygon fill="white" stroke="black" points="364,-101.5 364,-120.5 481,-120.5 481,-101.5 364,-101.5"/>
<text text-anchor="middle" x="422.5" y="-108.5" font-family="Helvetica,sans-Serif" font-size="10.00">Mezzanine::Triangle2D</text>
</a>
</g>
</g>
<!-- Node3&#45;&gt;Node10 -->
<g id="edge12" class="edge"><title>Node3&#45;&gt;Node10</title>
<path fill="none" stroke="#9a32cd" stroke-dasharray="5,2" d="M120.721,-124.294C188.622,-121.293 297.331,-116.488 363.786,-113.551"/>
<polygon fill="#9a32cd" stroke="#9a32cd" points="120.434,-120.803 110.598,-124.742 120.743,-127.796 120.434,-120.803"/>
<text text-anchor="middle" x="160.5" y="-149" font-family="Helvetica,sans-Serif" font-size="10.00"> PointA</text>
<text text-anchor="middle" x="160.5" y="-138" font-family="Helvetica,sans-Serif" font-size="10.00">PointB</text>
<text text-anchor="middle" x="160.5" y="-127" font-family="Helvetica,sans-Serif" font-size="10.00">PointC</text>
</g>
<!-- Node4 -->
<g id="node4" class="node"><title>Node4</title>
<g id="a_node4"><a xlink:href="classMezzanine_1_1Vector3.html" target="_top" xlink:title="This is used to represent a point in space, or a vector through space. ">
<polygon fill="white" stroke="black" points="6.5,-38.5 6.5,-57.5 110.5,-57.5 110.5,-38.5 6.5,-38.5"/>
<text text-anchor="middle" x="58.5" y="-45.5" font-family="Helvetica,sans-Serif" font-size="10.00">Mezzanine::Vector3</text>
</a>
</g>
</g>
<!-- Node4&#45;&gt;Node2 -->
<g id="edge3" class="edge"><title>Node4&#45;&gt;Node2</title>
<path fill="none" stroke="#9a32cd" stroke-dasharray="5,2" d="M120.922,-46.6385C141.626,-46.6707 164.842,-47.2433 186,-49 191.858,-49.4864 197.917,-50.1369 203.986,-50.892"/>
<polygon fill="#9a32cd" stroke="#9a32cd" points="120.656,-43.1391 110.666,-46.6653 120.675,-50.139 120.656,-43.1391"/>
<text text-anchor="middle" x="160.5" y="-63" font-family="Helvetica,sans-Serif" font-size="10.00"> Scale</text>
<text text-anchor="middle" x="160.5" y="-52" font-family="Helvetica,sans-Serif" font-size="10.00">Position</text>
</g>
<!-- Node5 -->
<g id="node5" class="node"><title>Node5</title>
<g id="a_node5"><a xlink:href="classMezzanine_1_1Quaternion.html" target="_top" xlink:title="This is used to store information about rotation in 3d space. ">
<polygon fill="white" stroke="black" points="0,-0.5 0,-19.5 117,-19.5 117,-0.5 0,-0.5"/>
<text text-anchor="middle" x="58.5" y="-7.5" font-family="Helvetica,sans-Serif" font-size="10.00">Mezzanine::Quaternion</text>
</a>
</g>
</g>
<!-- Node5&#45;&gt;Node2 -->
<g id="edge4" class="edge"><title>Node5&#45;&gt;Node2</title>
<path fill="none" stroke="#9a32cd" stroke-dasharray="5,2" d="M127.365,-19.6627C146.469,-22.9601 167.169,-27.0823 186,-32 197.127,-34.9059 208.852,-38.5845 219.985,-42.3836"/>
<polygon fill="#9a32cd" stroke="#9a32cd" points="127.68,-16.1668 117.239,-17.9649 126.523,-23.0704 127.68,-16.1668"/>
<text text-anchor="middle" x="160.5" y="-35" font-family="Helvetica,sans-Serif" font-size="10.00"> Orientation</text>
</g>
<!-- Node6 -->
<g id="node6" class="node"><title>Node6</title>
<g id="a_node6"><a xlink:href="classMezzanine_1_1Graphics_1_1Procedural_1_1Shape.html" target="_top" xlink:title="A collection of interconnected 2D points used to express an arbitrary 2D shape. ">
<polygon fill="white" stroke="black" points="499,-168 499,-198 608,-198 608,-168 499,-168"/>
<text text-anchor="start" x="507" y="-186" font-family="Helvetica,sans-Serif" font-size="10.00">Mezzanine::Graphics</text>
<text text-anchor="middle" x="553.5" y="-175" font-family="Helvetica,sans-Serif" font-size="10.00">::Procedural::Shape</text>
</a>
</g>
</g>
<!-- Node6&#45;&gt;Node1 -->
<g id="edge5" class="edge"><title>Node6&#45;&gt;Node1</title>
<path fill="none" stroke="#9a32cd" stroke-dasharray="5,2" d="M618.389,-185.534C712.442,-188.573 893.619,-191.793 1047,-179 1107.95,-173.916 1125.48,-178.789 1183,-158 1204.78,-150.127 1227.19,-136.073 1242.73,-125.199"/>
<polygon fill="#9a32cd" stroke="#9a32cd" points="618.296,-182.029 608.185,-185.194 618.063,-189.025 618.296,-182.029"/>
<text text-anchor="middle" x="859.5" y="-191" font-family="Helvetica,sans-Serif" font-size="10.00"> ShapeToTriangulate</text>
</g>
<!-- Node9 -->
<g id="node9" class="node"><title>Node9</title>
<polygon fill="white" stroke="#bfbfbf" points="687,-147.5 687,-166.5 796,-166.5 796,-147.5 687,-147.5"/>
<text text-anchor="middle" x="741.5" y="-154.5" font-family="Helvetica,sans-Serif" font-size="10.00">std::vector&lt; Shape &gt;</text>
</g>
<!-- Node6&#45;&gt;Node9 -->
<g id="edge10" class="edge"><title>Node6&#45;&gt;Node9</title>
<path fill="none" stroke="#9a32cd" stroke-dasharray="5,2" d="M618.381,-174.065C620.955,-173.705 623.502,-173.349 626,-173 645.878,-170.221 667.698,-167.172 686.909,-164.487"/>
<polygon fill="#9a32cd" stroke="#9a32cd" points="617.796,-170.613 608.377,-175.464 618.765,-177.545 617.796,-170.613"/>
<text text-anchor="middle" x="647.5" y="-176" font-family="Helvetica,sans-Serif" font-size="10.00"> elements</text>
</g>
<!-- Node7&#45;&gt;Node6 -->
<g id="edge6" class="edge"><title>Node7&#45;&gt;Node6</title>
<path fill="none" stroke="#9a32cd" stroke-dasharray="5,2" d="M342.882,-183C390.709,-183 454.236,-183 498.773,-183"/>
<polygon fill="#9a32cd" stroke="#9a32cd" points="342.621,-179.5 332.621,-183 342.621,-186.5 342.621,-179.5"/>
<text text-anchor="middle" x="422.5" y="-186" font-family="Helvetica,sans-Serif" font-size="10.00"> Points</text>
</g>
<!-- Node8 -->
<g id="node8" class="node"><title>Node8</title>
<g id="a_node8"><a xlink:href="classMezzanine_1_1Graphics_1_1Procedural_1_1MultiShape.html" target="_top" xlink:title="A grouping of individual 2D shapes used to express more elaborate shapes. ">
<polygon fill="white" stroke="black" points="923,-139 923,-169 1047,-169 1047,-139 923,-139"/>
<text text-anchor="start" x="931" y="-157" font-family="Helvetica,sans-Serif" font-size="10.00">Mezzanine::Graphics</text>
<text text-anchor="middle" x="985" y="-146" font-family="Helvetica,sans-Serif" font-size="10.00">::Procedural::MultiShape</text>
</a>
</g>
</g>
<!-- Node8&#45;&gt;Node1 -->
<g id="edge8" class="edge"><title>Node8&#45;&gt;Node1</title>
<path fill="none" stroke="#9a32cd" stroke-dasharray="5,2" d="M1057.58,-143.489C1094.98,-137.898 1141.49,-130.791 1183,-124 1188.71,-123.067 1194.63,-122.073 1200.57,-121.062"/>
<polygon fill="#9a32cd" stroke="#9a32cd" points="1056.66,-140.087 1047.28,-145.024 1057.69,-147.011 1056.66,-140.087"/>
<text text-anchor="middle" x="1124" y="-146" font-family="Helvetica,sans-Serif" font-size="10.00"> MultiShapeToTriangulate</text>
</g>
<!-- Node9&#45;&gt;Node8 -->
<g id="edge9" class="edge"><title>Node9&#45;&gt;Node8</title>
<path fill="none" stroke="#9a32cd" stroke-dasharray="5,2" d="M806.499,-156.205C842.547,-155.757 887.329,-155.201 922.894,-154.759"/>
<polygon fill="#9a32cd" stroke="#9a32cd" points="806.052,-152.71 796.097,-156.334 806.139,-159.71 806.052,-152.71"/>
<text text-anchor="middle" x="859.5" y="-159" font-family="Helvetica,sans-Serif" font-size="10.00"> Shapes</text>
</g>
<!-- Node10&#45;&gt;Node1 -->
<g id="edge11" class="edge"><title>Node10&#45;&gt;Node1</title>
<path fill="none" stroke="#9a32cd" stroke-dasharray="5,2" d="M491.304,-110.538C535.497,-110.276 594.419,-110 646.5,-110 646.5,-110 646.5,-110 986,-110 1059.82,-110 1144.7,-110 1200.84,-110"/>
<polygon fill="#9a32cd" stroke="#9a32cd" points="491.234,-107.038 481.255,-110.599 491.276,-114.038 491.234,-107.038"/>
<text text-anchor="middle" x="741.5" y="-113" font-family="Helvetica,sans-Serif" font-size="10.00"> ManualSuperTriangle</text>
</g>
<!-- Node11 -->
<g id="node11" class="node"><title>Node11</title>
<g id="a_node11"><a xlink:title="STL class. ">
<polygon fill="white" stroke="#bfbfbf" points="941.5,-16.5 941.5,-35.5 1028.5,-35.5 1028.5,-16.5 941.5,-16.5"/>
<text text-anchor="middle" x="985" y="-23.5" font-family="Helvetica,sans-Serif" font-size="10.00">std::vector&lt; T &gt;</text>
</a>
</g>
</g>
<!-- Node11&#45;&gt;Node1 -->
<g id="edge13" class="edge"><title>Node11&#45;&gt;Node1</title>
<path fill="none" stroke="#9a32cd" stroke-dasharray="5,2" d="M1038.57,-20.4333C1079.52,-18.1951 1136.94,-19.748 1183,-39 1211.78,-51.0304 1237.24,-77.848 1251.34,-94.8636"/>
<polygon fill="#9a32cd" stroke="#9a32cd" points="1038.29,-16.944 1028.54,-21.0755 1038.74,-23.9297 1038.29,-16.944"/>
<text text-anchor="middle" x="1124" y="-42" font-family="Helvetica,sans-Serif" font-size="10.00"> SegmentListToTriangulate</text>
</g>
<!-- Node12 -->
<g id="node12" class="node"><title>Node12</title>
<polygon fill="white" stroke="#bfbfbf" points="727,-16.5 727,-35.5 756,-35.5 756,-16.5 727,-16.5"/>
<text text-anchor="middle" x="741.5" y="-23.5" font-family="Helvetica,sans-Serif" font-size="10.00">T</text>
</g>
<!-- Node12&#45;&gt;Node11 -->
<g id="edge14" class="edge"><title>Node12&#45;&gt;Node11</title>
<path fill="none" stroke="#9a32cd" stroke-dasharray="5,2" d="M766.224,-26C806.9,-26 890.483,-26 941.45,-26"/>
<polygon fill="#9a32cd" stroke="#9a32cd" points="766.176,-22.5001 756.176,-26 766.176,-29.5001 766.176,-22.5001"/>
<text text-anchor="middle" x="859.5" y="-29" font-family="Helvetica,sans-Serif" font-size="10.00"> elements</text>
</g>
</g>
</svg>
