<?xml version="1.0" encoding="UTF-8" standalone="no"?>
<!DOCTYPE svg PUBLIC "-//W3C//DTD SVG 1.1//EN"
 "http://www.w3.org/Graphics/SVG/1.1/DTD/svg11.dtd">
<!-- Generated by graphviz version 2.26.3 (20100126.1600)
 -->
<!-- Title: Mezzanine::ParametersException Pages: 1 -->
<svg width="166pt" height="146pt"
 viewBox="0.00 0.00 166.00 146.00" xmlns="http://www.w3.org/2000/svg" xmlns:xlink="http://www.w3.org/1999/xlink">
<g id="graph1" class="graph" transform="scale(1 1) rotate(0) translate(4 142)">
<title>Mezzanine::ParametersException</title>
<!-- Node1 -->
<g id="node1" class="node"><title>Node1</title>
<polygon fill="#bfbfbf" stroke="black" points="0,-1 0,-21 158,-21 158,-1 0,-1"/>
<text text-anchor="middle" x="79" y="-8" font-family="FreeSans" font-size="10.00">Mezzanine::ParametersException</text>
</g>
<!-- Node2 -->
<g id="node2" class="node"><title>Node2</title>
<a xlink:href="classMezzanine_1_1Exception.xhtml" target="_top" xlink:title="This is the exception thrown by most Mezzanine system that can throw exceptions.">
<polygon fill="none" stroke="black" points="24.5,-59 24.5,-79 133.5,-79 133.5,-59 24.5,-59"/>
<text text-anchor="middle" x="79" y="-66" font-family="FreeSans" font-size="10.00">Mezzanine::Exception</text>
</a>
</g>
<!-- Node2&#45;&gt;Node1 -->
<g id="edge2" class="edge"><title>Node2&#45;&gt;Node1</title>
<path fill="none" stroke="midnightblue" d="M79,-48.8902C79,-39.6201 79,-29.0083 79,-21.3776"/>
<polygon fill="midnightblue" stroke="midnightblue" points="75.5001,-48.8971 79,-58.8972 82.5001,-48.8972 75.5001,-48.8971"/>
</g>
<!-- Node3 -->
<g id="node4" class="node"><title>Node3</title>
<a xlink:title="STL class.">
<polygon fill="none" stroke="#bfbfbf" points="41.5,-117 41.5,-137 116.5,-137 116.5,-117 41.5,-117"/>
<text text-anchor="middle" x="79" y="-124" font-family="FreeSans" font-size="10.00">std::exception</text>
</a>
</g>
<!-- Node3&#45;&gt;Node2 -->
<g id="edge4" class="edge"><title>Node3&#45;&gt;Node2</title>
<path fill="none" stroke="midnightblue" d="M79,-106.89C79,-97.6201 79,-87.0083 79,-79.3776"/>
<polygon fill="midnightblue" stroke="midnightblue" points="75.5001,-106.897 79,-116.897 82.5001,-106.897 75.5001,-106.897"/>
</g>
</g>
</svg>
