<?xml version="1.0" encoding="UTF-8" standalone="no"?>
<!DOCTYPE svg PUBLIC "-//W3C//DTD SVG 1.1//EN"
 "http://www.w3.org/Graphics/SVG/1.1/DTD/svg11.dtd">
<!-- Generated by graphviz version 2.26.3 (20100126.1600)
 -->
<!-- Title: Mezzanine::ExtendedTimer Pages: 1 -->
<svg width="206pt" height="124pt"
 viewBox="0.00 0.00 206.00 124.00" xmlns="http://www.w3.org/2000/svg" xmlns:xlink="http://www.w3.org/1999/xlink">
<g id="graph1" class="graph" transform="scale(1 1) rotate(0) translate(4 120)">
<title>Mezzanine::ExtendedTimer</title>
<polygon fill="white" stroke="white" points="-4,5 -4,-120 203,-120 203,5 -4,5"/>
<!-- Node1 -->
<g id="node1" class="node"><title>Node1</title>
<polygon fill="#bfbfbf" stroke="black" points="34.5,-1 34.5,-21 165.5,-21 165.5,-1 34.5,-1"/>
<text text-anchor="middle" x="100" y="-8" font-family="FreeSans" font-size="10.00">Mezzanine::ExtendedTimer</text>
</g>
<!-- Node2 -->
<g id="node2" class="node"><title>Node2</title>
<a xlink:href="classMezzanine_1_1Timer.html" target="_top" xlink:title="A base timer class for the different timers. ">
<polygon fill="white" stroke="black" points="0,-95 0,-115 92,-115 92,-95 0,-95"/>
<text text-anchor="middle" x="46" y="-102" font-family="FreeSans" font-size="10.00">Mezzanine::Timer</text>
</a>
</g>
<!-- Node2&#45;&gt;Node1 -->
<g id="edge2" class="edge"><title>Node2&#45;&gt;Node1</title>
<path fill="none" stroke="midnightblue" d="M56.8973,-86.0307C68.1161,-66.5016 85.1792,-36.7992 94.0989,-21.2723"/>
<polygon fill="midnightblue" stroke="midnightblue" points="53.7254,-84.5258 51.7789,-94.9404 59.7951,-88.0127 53.7254,-84.5258"/>
</g>
<!-- Node3 -->
<g id="node4" class="node"><title>Node3</title>
<a xlink:href="structMezzanine_1_1Time.html" target="_top" xlink:title="A container for the metrics of time relevant for the timer class. ">
<polygon fill="white" stroke="black" points="109.5,-95 109.5,-115 198.5,-115 198.5,-95 109.5,-95"/>
<text text-anchor="middle" x="154" y="-102" font-family="FreeSans" font-size="10.00">Mezzanine::Time</text>
</a>
</g>
<!-- Node3&#45;&gt;Node1 -->
<g id="edge4" class="edge"><title>Node3&#45;&gt;Node1</title>
<path fill="none" stroke="#9a32cd" stroke-dasharray="5,2" d="M143.103,-86.0307C131.884,-66.5016 114.821,-36.7992 105.901,-21.2723"/>
<polygon fill="#9a32cd" stroke="#9a32cd" points="140.205,-88.0127 148.221,-94.9404 146.275,-84.5258 140.205,-88.0127"/>
<text text-anchor="middle" x="163" y="-67" font-family="FreeSans" font-size="10.00"> GoalTime</text>
<text text-anchor="middle" x="163" y="-55" font-family="FreeSans" font-size="10.00">CurrentTime</text>
<text text-anchor="middle" x="163" y="-43" font-family="FreeSans" font-size="10.00">InitialTime</text>
</g>
</g>
</svg>
