<?xml version="1.0" encoding="UTF-8" standalone="no"?>
<!DOCTYPE svg PUBLIC "-//W3C//DTD SVG 1.1//EN"
 "http://www.w3.org/Graphics/SVG/1.1/DTD/svg11.dtd">
<!-- Generated by graphviz version 2.26.3 (20100126.1600)
 -->
<!-- Title: Mezzanine::DirectoryException Pages: 1 -->
<svg width="170pt" height="204pt"
 viewBox="0.00 0.00 170.00 204.00" xmlns="http://www.w3.org/2000/svg" xmlns:xlink="http://www.w3.org/1999/xlink">
<g id="graph1" class="graph" transform="scale(1 1) rotate(0) translate(4 200)">
<title>Mezzanine::DirectoryException</title>
<polygon fill="white" stroke="white" points="-4,5 -4,-200 167,-200 167,5 -4,5"/>
<!-- Node1 -->
<g id="node1" class="node"><title>Node1</title>
<polygon fill="#bfbfbf" stroke="black" points="-0.5,-0.5 -0.5,-21.5 162.5,-21.5 162.5,-0.5 -0.5,-0.5"/>
<text text-anchor="middle" x="81" y="-8.5" font-family="FreeSans" font-size="10.00">Mezzanine::DirectoryException</text>
</g>
<!-- Node2 -->
<g id="node2" class="node"><title>Node2</title>
<a xlink:href="classMezzanine_1_1IOException.html" target="_top" xlink:title="Thrown when there was an issue with IO but very little was known about it.">
<polygon fill="white" stroke="black" points="16,-58.5 16,-79.5 146,-79.5 146,-58.5 16,-58.5"/>
<text text-anchor="middle" x="81" y="-66.5" font-family="FreeSans" font-size="10.00">Mezzanine::IOException</text>
</a>
</g>
<!-- Node2&#45;&gt;Node1 -->
<g id="edge2" class="edge"><title>Node2&#45;&gt;Node1</title>
<path fill="none" stroke="midnightblue" d="M81,-48.1906C81,-39.1684 81,-28.9941 81,-21.5707"/>
<polygon fill="midnightblue" stroke="midnightblue" points="77.5001,-48.3619 81,-58.3619 84.5001,-48.3619 77.5001,-48.3619"/>
</g>
<!-- Node3 -->
<g id="node4" class="node"><title>Node3</title>
<a xlink:href="classMezzanine_1_1Exception.html" target="_top" xlink:title="This is the exception thrown by most Mezzanine system that can throw exceptions.">
<polygon fill="white" stroke="black" points="21,-116.5 21,-137.5 141,-137.5 141,-116.5 21,-116.5"/>
<text text-anchor="middle" x="81" y="-124.5" font-family="FreeSans" font-size="10.00">Mezzanine::Exception</text>
</a>
</g>
<!-- Node3&#45;&gt;Node2 -->
<g id="edge4" class="edge"><title>Node3&#45;&gt;Node2</title>
<path fill="none" stroke="midnightblue" d="M81,-106.191C81,-97.1684 81,-86.9941 81,-79.5707"/>
<polygon fill="midnightblue" stroke="midnightblue" points="77.5001,-106.362 81,-116.362 84.5001,-106.362 77.5001,-106.362"/>
</g>
<!-- Node4 -->
<g id="node6" class="node"><title>Node4</title>
<a xlink:title="STL class.">
<polygon fill="white" stroke="#bfbfbf" points="39,-174.5 39,-195.5 123,-195.5 123,-174.5 39,-174.5"/>
<text text-anchor="middle" x="81" y="-182.5" font-family="FreeSans" font-size="10.00">std::exception</text>
</a>
</g>
<!-- Node4&#45;&gt;Node3 -->
<g id="edge6" class="edge"><title>Node4&#45;&gt;Node3</title>
<path fill="none" stroke="midnightblue" d="M81,-164.191C81,-155.168 81,-144.994 81,-137.571"/>
<polygon fill="midnightblue" stroke="midnightblue" points="77.5001,-164.362 81,-174.362 84.5001,-164.362 77.5001,-164.362"/>
</g>
</g>
</svg>
