<?xml version="1.0" encoding="UTF-8" standalone="no"?>
<!DOCTYPE svg PUBLIC "-//W3C//DTD SVG 1.1//EN"
 "http://www.w3.org/Graphics/SVG/1.1/DTD/svg11.dtd">
<!-- Generated by graphviz version 2.26.3 (20100126.1600)
 -->
<!-- Title: Mezzanine::Vector3WActor Pages: 1 -->
<!--zoomable 435 -->
<svg id="main" version="1.1" xmlns="http://www.w3.org/2000/svg" xmlns:xlink="http://www.w3.org/1999/xlink" xml:space="preserve" onload="init(evt)">
        <defs>
                <circle id="rim" cx="0" cy="0" r="7"/>
                <circle id="rim2" cx="0" cy="0" r="3.5"/>
                <g id="zoomPlus">
                        <use xlink:href="#rim" fill="#404040">
                                <set attributeName="fill" to="#808080" begin="zoomplus.mouseover" end="zoomplus.mouseout"/>
                        </use>
                        <path d="M-4,0h8M0,-4v8" fill="none" stroke="white" stroke-width="1.5" pointer-events="none"/>
                </g>
                <g id="zoomMin">
                        <use xlink:href="#rim" fill="#404040">
                                <set attributeName="fill" to="#808080" begin="zoomminus.mouseover" end="zoomminus.mouseout"/>
                        </use>
                        <path d="M-4,0h8" fill="none" stroke="white" stroke-width="1.5" pointer-events="none"/>
                </g>
                <g id="dirArrow">
                        <path fill="none" stroke="white" stroke-width="1.5" d="M0,-3.0v7 M-2.5,-0.5L0,-3.0L2.5,-0.5"/>
                </g>
               <g id="resetDef">
                       <use xlink:href="#rim2" fill="#404040">
                               <set attributeName="fill" to="#808080" begin="reset.mouseover" end="reset.mouseout"/>
                       </use>
               </g>
        </defs>

<script type="text/javascript">
var viewWidth = 1682;
var viewHeight = 435;
var sectionId = 'dynsection-0';
</script>
<script xlink:href="svgpan.js"/>
<svg id="graph" class="graph">
<g id="viewport">
<title>Mezzanine::Vector3WActor</title>
<!-- Node1 -->
<g id="node1" class="node"><title>Node1</title>
<polygon fill="#bfbfbf" stroke="black" points="1542,-336 1542,-356 1674,-356 1674,-336 1542,-336"/>
<text text-anchor="middle" x="1608" y="-343" font-family="FreeSans" font-size="10.00">Mezzanine::Vector3WActor</text>
</g>
<!-- Node2 -->
<g id="node2" class="node"><title>Node2</title>
<a xlink:href="classMezzanine_1_1Vector3.xhtml" target="_top" xlink:title="This is used to represent a point in space, or a vector through space.">
<polygon fill="none" stroke="black" points="7,-269 7,-289 107,-289 107,-269 7,-269"/>
<text text-anchor="middle" x="57" y="-276" font-family="FreeSans" font-size="10.00">Mezzanine::Vector3</text>
</a>
</g>
<!-- Node2&#45;&gt;Node1 -->
<g id="edge2" class="edge"><title>Node2&#45;&gt;Node1</title>
<path fill="none" stroke="#9a32cd" stroke-dasharray="5,2" d="M70.7947,-297.233C100.569,-334.307 174.917,-415 258,-415 258,-415 258,-415 1424,-415 1490.19,-415 1561.73,-375.375 1592.5,-356.181"/>
<polygon fill="#9a32cd" stroke="#9a32cd" points="73.437,-294.931 64.5117,-289.222 67.9288,-299.251 73.437,-294.931"/>
<text text-anchor="middle" x="830" y="-418" font-family="FreeSans" font-size="10.00"> Vector</text>
</g>
<!-- Node22 -->
<g id="node47" class="node"><title>Node22</title>
<a xlink:href="classMezzanine_1_1Transform.xhtml" target="_top" xlink:title="Stores information about relative location and rotation in 3d space.">
<polygon fill="none" stroke="black" points="203,-41 203,-61 313,-61 313,-41 203,-41"/>
<text text-anchor="middle" x="258" y="-48" font-family="FreeSans" font-size="10.00">Mezzanine::Transform</text>
</a>
</g>
<!-- Node2&#45;&gt;Node22 -->
<g id="edge54" class="edge"><title>Node2&#45;&gt;Node22</title>
<path fill="none" stroke="#9a32cd" stroke-dasharray="5,2" d="M65.0446,-259.118C82.1774,-219.133 126.001,-128.423 190,-77 198.572,-70.1126 209.171,-64.9037 219.43,-61.0278"/>
<polygon fill="#9a32cd" stroke="#9a32cd" points="61.7259,-257.982 61.0956,-268.559 68.1837,-260.684 61.7259,-257.982"/>
<text text-anchor="middle" x="152" y="-137" font-family="FreeSans" font-size="10.00"> Location</text>
</g>
<!-- Node3 -->
<g id="node4" class="node"><title>Node3</title>
<a xlink:href="classMezzanine_1_1ActorBase.xhtml" target="_top" xlink:title="This is the base class from which all the actors inherit.">
<polygon fill="none" stroke="black" points="1368,-158 1368,-178 1480,-178 1480,-158 1368,-158"/>
<text text-anchor="middle" x="1424" y="-165" font-family="FreeSans" font-size="10.00">Mezzanine::ActorBase</text>
</a>
</g>
<!-- Node3&#45;&gt;Node1 -->
<g id="edge4" class="edge"><title>Node3&#45;&gt;Node1</title>
<path fill="none" stroke="#9a32cd" stroke-dasharray="5,2" d="M1441.67,-185.095C1479.37,-221.561 1566.71,-306.058 1597.24,-335.587"/>
<polygon fill="#9a32cd" stroke="#9a32cd" points="1444.04,-182.517 1434.42,-178.08 1439.17,-187.549 1444.04,-182.517"/>
<text text-anchor="middle" x="1511" y="-265" font-family="FreeSans" font-size="10.00"> Actor</text>
</g>
<!-- Node4 -->
<g id="node6" class="node"><title>Node4</title>
<a xlink:href="classMezzanine_1_1NonStaticWorldObject.xhtml" target="_top" xlink:title="This is a small extention of the WorldObject class that adds features common to non&#45;static objects...">
<polygon fill="none" stroke="black" points="1164,-84 1164,-116 1298,-116 1298,-84 1164,-84"/>
<text text-anchor="start" x="1172" y="-103" font-family="FreeSans" font-size="10.00">Mezzanine::NonStaticWorld</text>
<text text-anchor="middle" x="1231" y="-91" font-family="FreeSans" font-size="10.00">Object</text>
</a>
</g>
<!-- Node4&#45;&gt;Node3 -->
<g id="edge6" class="edge"><title>Node4&#45;&gt;Node3</title>
<path fill="none" stroke="midnightblue" d="M1286.51,-119.556C1322.07,-132.086 1366.75,-147.831 1395.35,-157.906"/>
<polygon fill="midnightblue" stroke="midnightblue" points="1287.33,-116.137 1276.74,-116.115 1285.01,-122.739 1287.33,-116.137"/>
</g>
<!-- Node5 -->
<g id="node8" class="node"><title>Node5</title>
<a xlink:href="classMezzanine_1_1WorldObject.xhtml" target="_top" xlink:title="This is the base class from which classes that are insertable into the physical world.">
<polygon fill="none" stroke="black" points="891,-228 891,-248 1011,-248 1011,-228 891,-228"/>
<text text-anchor="middle" x="951" y="-235" font-family="FreeSans" font-size="10.00">Mezzanine::WorldObject</text>
</a>
</g>
<!-- Node5&#45;&gt;Node4 -->
<g id="edge8" class="edge"><title>Node5&#45;&gt;Node4</title>
<path fill="none" stroke="midnightblue" d="M971.458,-220.827C986.929,-207.001 1007.85,-186.405 1022,-165 1033.42,-147.715 1023.44,-134.448 1040,-122 1074.95,-95.7286 1124.15,-90.5835 1163.86,-91.8226"/>
<polygon fill="midnightblue" stroke="midnightblue" points="968.732,-218.56 963.501,-227.773 973.336,-223.833 968.732,-218.56"/>
</g>
<!-- Node9 -->
<g id="node16" class="node"><title>Node9</title>
<a xlink:href="classMezzanine_1_1WorldObjectPhysicsSettings.xhtml" target="_top" xlink:title="This is a base helper class for configuring physics settings of a world object.">
<polygon fill="none" stroke="black" points="1154.5,-201 1154.5,-233 1307.5,-233 1307.5,-201 1154.5,-201"/>
<text text-anchor="start" x="1162.5" y="-220" font-family="FreeSans" font-size="10.00">Mezzanine::WorldObjectPhysics</text>
<text text-anchor="middle" x="1231" y="-208" font-family="FreeSans" font-size="10.00">Settings</text>
</a>
</g>
<!-- Node5&#45;&gt;Node9 -->
<g id="edge18" class="edge"><title>Node5&#45;&gt;Node9</title>
<path fill="none" stroke="#9a32cd" stroke-dasharray="5,2" d="M1021.54,-235.108C1055.56,-233.467 1096.93,-231.112 1134,-228 1140.59,-227.447 1147.42,-226.807 1154.27,-226.12"/>
<polygon fill="#9a32cd" stroke="#9a32cd" points="1021.05,-231.626 1011.23,-235.594 1021.38,-238.619 1021.05,-231.626"/>
<text text-anchor="middle" x="1087" y="-236" font-family="FreeSans" font-size="10.00"> Parent</text>
</g>
<!-- Node14 -->
<g id="node28" class="node"><title>Node14</title>
<a xlink:href="classMezzanine_1_1Physics_1_1Collision.xhtml" target="_top" xlink:title="This is an event class used to track collsions in the physics world.">
<polygon fill="none" stroke="black" points="1181,-151 1181,-183 1281,-183 1281,-151 1181,-151"/>
<text text-anchor="start" x="1189" y="-170" font-family="FreeSans" font-size="10.00">Mezzanine::Physics</text>
<text text-anchor="middle" x="1231" y="-158" font-family="FreeSans" font-size="10.00">::Collision</text>
</a>
</g>
<!-- Node5&#45;&gt;Node14 -->
<g id="edge34" class="edge"><title>Node5&#45;&gt;Node14</title>
<path fill="none" stroke="#9a32cd" stroke-dasharray="5,2" d="M971.169,-221.655C988.357,-208.723 1014.29,-191.478 1040,-183 1085.98,-167.836 1141.39,-164.741 1180.66,-164.894"/>
<polygon fill="#9a32cd" stroke="#9a32cd" points="968.793,-219.068 963.025,-227.956 973.076,-224.605 968.793,-219.068"/>
<text text-anchor="middle" x="1087" y="-198" font-family="FreeSans" font-size="10.00"> ObjectA</text>
<text text-anchor="middle" x="1087" y="-186" font-family="FreeSans" font-size="10.00">ObjectB</text>
</g>
<!-- Node16 -->
<g id="node33" class="node"><title>Node16</title>
<a xlink:href="classMezzanine_1_1WorldObjectGraphicsSettings.xhtml" target="_top" xlink:title="This is a helper class for configuring graphics settings of a World Object.">
<polygon fill="none" stroke="black" points="1152,-329 1152,-361 1310,-361 1310,-329 1152,-329"/>
<text text-anchor="start" x="1160" y="-348" font-family="FreeSans" font-size="10.00">Mezzanine::WorldObjectGraphics</text>
<text text-anchor="middle" x="1231" y="-336" font-family="FreeSans" font-size="10.00">Settings</text>
</a>
</g>
<!-- Node5&#45;&gt;Node16 -->
<g id="edge38" class="edge"><title>Node5&#45;&gt;Node16</title>
<path fill="none" stroke="#9a32cd" stroke-dasharray="5,2" d="M964.008,-256.093C979.58,-276.199 1007.65,-307.826 1040,-323 1059.61,-332.195 1108.4,-337.721 1151.76,-340.935"/>
<polygon fill="#9a32cd" stroke="#9a32cd" points="966.746,-253.91 957.942,-248.015 961.148,-258.113 966.746,-253.91"/>
<text text-anchor="middle" x="1087" y="-342" font-family="FreeSans" font-size="10.00"> Parent</text>
</g>
<!-- Node6 -->
<g id="node10" class="node"><title>Node6</title>
<a xlink:href="classMezzanine_1_1Audio_1_1SoundSet.xhtml" target="_top" xlink:title="This is a vector that stores sounds.">
<polygon fill="none" stroke="black" points="634.5,-228 634.5,-248 773.5,-248 773.5,-228 634.5,-228"/>
<text text-anchor="middle" x="704" y="-235" font-family="FreeSans" font-size="10.00">Mezzanine::Audio::SoundSet</text>
</a>
</g>
<!-- Node6&#45;&gt;Node5 -->
<g id="edge10" class="edge"><title>Node6&#45;&gt;Node5</title>
<path fill="none" stroke="#9a32cd" stroke-dasharray="5,2" d="M783.889,-238C818.553,-238 858.477,-238 890.608,-238"/>
<polygon fill="#9a32cd" stroke="#9a32cd" points="783.79,-234.5 773.79,-238 783.79,-241.5 783.79,-234.5"/>
<text text-anchor="middle" x="830" y="-241" font-family="FreeSans" font-size="10.00"> ObjectSounds</text>
</g>
<!-- Node7 -->
<g id="node12" class="node"><title>Node7</title>
<a xlink:title="STL class.">
<polygon fill="none" stroke="#bfbfbf" points="427,-228 427,-248 537,-248 537,-228 427,-228"/>
<text text-anchor="middle" x="482" y="-235" font-family="FreeSans" font-size="10.00">std::vector&lt; Sound * &gt;</text>
</a>
</g>
<!-- Node7&#45;&gt;Node6 -->
<g id="edge12" class="edge"><title>Node7&#45;&gt;Node6</title>
<path fill="none" stroke="midnightblue" d="M547.41,-238C574.767,-238 606.596,-238 634.385,-238"/>
<polygon fill="midnightblue" stroke="midnightblue" points="547.162,-234.5 537.162,-238 547.162,-241.5 547.162,-234.5"/>
</g>
<!-- Node8 -->
<g id="node14" class="node"><title>Node8</title>
<polygon fill="none" stroke="#bfbfbf" points="243.5,-228 243.5,-248 272.5,-248 272.5,-228 243.5,-228"/>
<text text-anchor="middle" x="258" y="-235" font-family="FreeSans" font-size="10.00">T</text>
</g>
<!-- Node8&#45;&gt;Node7 -->
<g id="edge14" class="edge"><title>Node8&#45;&gt;Node7</title>
<path fill="none" stroke="#9a32cd" stroke-dasharray="5,2" d="M282.844,-238C317.413,-238 380.955,-238 426.988,-238"/>
<polygon fill="#9a32cd" stroke="#9a32cd" points="282.697,-234.5 272.697,-238 282.697,-241.5 282.697,-234.5"/>
<text text-anchor="middle" x="370" y="-241" font-family="FreeSans" font-size="10.00"> elements</text>
</g>
<!-- Node9&#45;&gt;Node5 -->
<g id="edge16" class="edge"><title>Node9&#45;&gt;Node5</title>
<path fill="none" stroke="#9a32cd" stroke-dasharray="5,2" d="M1143.65,-211.92C1111.02,-211.235 1073.71,-211.895 1040,-216 1021.04,-218.309 1000.3,-223.287 983.614,-227.925"/>
<polygon fill="#9a32cd" stroke="#9a32cd" points="1143.98,-215.429 1154.07,-212.187 1144.16,-208.432 1143.98,-215.429"/>
<text text-anchor="middle" x="1087" y="-219" font-family="FreeSans" font-size="10.00"> PhysicsSettings</text>
</g>
<!-- Node10 -->
<g id="node19" class="node"><title>Node10</title>
<a xlink:href="classMezzanine_1_1Physics_1_1CollisionShape.xhtml" target="_top" xlink:title="This is the base class for all collision shapes.">
<polygon fill="none" stroke="black" points="901,-124 901,-156 1001,-156 1001,-124 901,-124"/>
<text text-anchor="start" x="909" y="-143" font-family="FreeSans" font-size="10.00">Mezzanine::Physics</text>
<text text-anchor="middle" x="951" y="-131" font-family="FreeSans" font-size="10.00">::CollisionShape</text>
</a>
</g>
<!-- Node10&#45;&gt;Node9 -->
<g id="edge20" class="edge"><title>Node10&#45;&gt;Node9</title>
<path fill="none" stroke="#9a32cd" stroke-dasharray="5,2" d="M1011.07,-128.129C1049.54,-123.941 1098.69,-125.311 1134,-150 1150.64,-161.638 1136.95,-178.363 1152,-192 1155.73,-195.381 1159.92,-198.305 1164.37,-200.833"/>
<polygon fill="#9a32cd" stroke="#9a32cd" points="1010.52,-124.67 1001.03,-129.373 1011.38,-131.617 1010.52,-124.67"/>
<text text-anchor="middle" x="1087" y="-153" font-family="FreeSans" font-size="10.00"> WorldObjectShape</text>
</g>
<!-- Node11 -->
<g id="node21" class="node"><title>Node11</title>
<a xlink:title="STL class.">
<polygon fill="none" stroke="#bfbfbf" points="675.5,-171 675.5,-191 732.5,-191 732.5,-171 675.5,-171"/>
<text text-anchor="middle" x="704" y="-178" font-family="FreeSans" font-size="10.00">std::string</text>
</a>
</g>
<!-- Node11&#45;&gt;Node5 -->
<g id="edge26" class="edge"><title>Node11&#45;&gt;Node5</title>
<path fill="none" stroke="#9a32cd" stroke-dasharray="5,2" d="M742.716,-189.935C787.42,-200.251 860.773,-217.178 907.434,-227.946"/>
<polygon fill="#9a32cd" stroke="#9a32cd" points="743.348,-186.488 732.817,-187.65 741.774,-193.309 743.348,-186.488"/>
<text text-anchor="middle" x="830" y="-219" font-family="FreeSans" font-size="10.00"> Name</text>
</g>
<!-- Node11&#45;&gt;Node10 -->
<g id="edge22" class="edge"><title>Node11&#45;&gt;Node10</title>
<path fill="none" stroke="#9a32cd" stroke-dasharray="5,2" d="M742.795,-172.645C759.709,-169.135 779.794,-165.146 798,-162 832.245,-156.082 870.995,-150.522 900.93,-146.472"/>
<polygon fill="#9a32cd" stroke="#9a32cd" points="741.789,-169.279 732.719,-174.756 743.224,-176.131 741.789,-169.279"/>
<text text-anchor="middle" x="830" y="-165" font-family="FreeSans" font-size="10.00"> Name</text>
</g>
<!-- Node12 -->
<g id="node23" class="node"><title>Node12</title>
<a xlink:title="STL class.">
<polygon fill="none" stroke="#bfbfbf" points="436.5,-165 436.5,-197 527.5,-197 527.5,-165 436.5,-165"/>
<text text-anchor="start" x="444.5" y="-184" font-family="FreeSans" font-size="10.00">std::basic_string&lt;</text>
<text text-anchor="middle" x="482" y="-172" font-family="FreeSans" font-size="10.00"> char &gt;</text>
</a>
</g>
<!-- Node12&#45;&gt;Node11 -->
<g id="edge24" class="edge"><title>Node12&#45;&gt;Node11</title>
<path fill="none" stroke="midnightblue" d="M537.928,-181C581.64,-181 640.613,-181 675.248,-181"/>
<polygon fill="midnightblue" stroke="midnightblue" points="537.729,-177.5 527.729,-181 537.729,-184.5 537.729,-177.5"/>
</g>
<!-- Node13 -->
<g id="node26" class="node"><title>Node13</title>
<polygon fill="none" stroke="#bfbfbf" points="1379,-233 1379,-265 1469,-265 1469,-233 1379,-233"/>
<text text-anchor="start" x="1387" y="-252" font-family="FreeSans" font-size="10.00">std::set&lt; Physics:</text>
<text text-anchor="middle" x="1424" y="-240" font-family="FreeSans" font-size="10.00">:Collision * &gt;</text>
</g>
<!-- Node13&#45;&gt;Node5 -->
<g id="edge28" class="edge"><title>Node13&#45;&gt;Node5</title>
<path fill="none" stroke="#9a32cd" stroke-dasharray="5,2" d="M1368.61,-251.133C1293.91,-253.522 1156.78,-256.189 1040,-249 1030.68,-248.426 1020.83,-247.517 1011.23,-246.461"/>
<polygon fill="#9a32cd" stroke="#9a32cd" points="1368.84,-254.627 1378.72,-250.799 1368.61,-247.631 1368.84,-254.627"/>
<text text-anchor="middle" x="1231" y="-256" font-family="FreeSans" font-size="10.00"> CurrentCollisions</text>
</g>
<!-- Node14&#45;&gt;Node13 -->
<g id="edge30" class="edge"><title>Node14&#45;&gt;Node13</title>
<path fill="none" stroke="#9a32cd" stroke-dasharray="5,2" d="M1290.73,-184.798C1297.29,-187.077 1303.82,-189.495 1310,-192 1339.74,-204.052 1372.36,-220.738 1395.06,-232.942"/>
<polygon fill="#9a32cd" stroke="#9a32cd" points="1291.74,-181.446 1281.15,-181.562 1289.51,-188.078 1291.74,-181.446"/>
<text text-anchor="middle" x="1339" y="-212" font-family="FreeSans" font-size="10.00"> keys</text>
</g>
<!-- Node15 -->
<g id="node30" class="node"><title>Node15</title>
<polygon fill="none" stroke="#bfbfbf" points="903,-65 903,-85 999,-85 999,-65 903,-65"/>
<text text-anchor="middle" x="951" y="-72" font-family="FreeSans" font-size="10.00">std::vector&lt; Real &gt;</text>
</g>
<!-- Node15&#45;&gt;Node14 -->
<g id="edge32" class="edge"><title>Node15&#45;&gt;Node14</title>
<path fill="none" stroke="#9a32cd" stroke-dasharray="5,2" d="M1009.45,-78.6502C1046.58,-82.7561 1094.84,-91.4775 1134,-110 1143.41,-114.453 1143.36,-119.192 1152,-125 1166.18,-134.53 1182.76,-143.625 1197.06,-150.899"/>
<polygon fill="#9a32cd" stroke="#9a32cd" points="1009.59,-75.1467 999.289,-77.6102 1008.88,-82.1103 1009.59,-75.1467"/>
<text text-anchor="middle" x="1087" y="-113" font-family="FreeSans" font-size="10.00"> PenetrationDistances</text>
</g>
<!-- Node16&#45;&gt;Node5 -->
<g id="edge36" class="edge"><title>Node16&#45;&gt;Node5</title>
<path fill="none" stroke="#9a32cd" stroke-dasharray="5,2" d="M1178.19,-325.445C1163.94,-320.453 1148.46,-315.291 1134,-311 1092.77,-298.761 1080.01,-303.79 1040,-288 1012.63,-277.199 983.337,-259.382 966.119,-248.19"/>
<polygon fill="#9a32cd" stroke="#9a32cd" points="1177.24,-328.821 1187.84,-328.86 1179.58,-322.223 1177.24,-328.821"/>
<text text-anchor="middle" x="1087" y="-314" font-family="FreeSans" font-size="10.00"> GraphicsSettings</text>
</g>
<!-- Node17 -->
<g id="node36" class="node"><title>Node17</title>
<a xlink:href="classMezzanine_1_1Graphics_1_1Mesh.xhtml" target="_top" xlink:title="This class is used to check and modify the properties of a graphics mesh.">
<polygon fill="none" stroke="black" points="898.5,-355 898.5,-387 1003.5,-387 1003.5,-355 898.5,-355"/>
<text text-anchor="start" x="906.5" y="-374" font-family="FreeSans" font-size="10.00">Mezzanine::Graphics</text>
<text text-anchor="middle" x="951" y="-362" font-family="FreeSans" font-size="10.00">::Mesh</text>
</a>
</g>
<!-- Node17&#45;&gt;Node16 -->
<g id="edge40" class="edge"><title>Node17&#45;&gt;Node16</title>
<path fill="none" stroke="#9a32cd" stroke-dasharray="5,2" d="M1013.71,-367.514C1049.08,-365.305 1094.06,-362.091 1134,-358 1139.83,-357.403 1145.85,-356.73 1151.91,-356.014"/>
<polygon fill="#9a32cd" stroke="#9a32cd" points="1013.3,-364.033 1003.53,-368.139 1013.73,-371.02 1013.3,-364.033"/>
<text text-anchor="middle" x="1087" y="-368" font-family="FreeSans" font-size="10.00"> WorldObjectMesh</text>
</g>
<!-- Node18 -->
<g id="node38" class="node"><title>Node18</title>
<a xlink:href="classMezzanine_1_1AttachableParent.xhtml" target="_top" xlink:title="Base class for objects that can have attachables attached to them.">
<polygon fill="none" stroke="black" points="880,-27 880,-47 1022,-47 1022,-27 880,-27"/>
<text text-anchor="middle" x="951" y="-34" font-family="FreeSans" font-size="10.00">Mezzanine::AttachableParent</text>
</a>
</g>
<!-- Node18&#45;&gt;Node4 -->
<g id="edge42" class="edge"><title>Node18&#45;&gt;Node4</title>
<path fill="none" stroke="midnightblue" d="M1032.27,-37.7802C1064.42,-39.7183 1101.4,-44.0067 1134,-53 1159.07,-59.918 1185.52,-73.1798 1204.45,-83.8569"/>
<polygon fill="midnightblue" stroke="midnightblue" points="1032.19,-34.2709 1022.01,-37.2306 1031.81,-41.2608 1032.19,-34.2709"/>
</g>
<!-- Node21 -->
<g id="node44" class="node"><title>Node21</title>
<a xlink:href="classMezzanine_1_1AttachableChild.xhtml" target="_top" xlink:title="This class is the base class for objects that can be attached to AttachableParent.">
<polygon fill="none" stroke="black" points="414.5,-43 414.5,-63 549.5,-63 549.5,-43 414.5,-43"/>
<text text-anchor="middle" x="482" y="-50" font-family="FreeSans" font-size="10.00">Mezzanine::AttachableChild</text>
</a>
</g>
<!-- Node18&#45;&gt;Node21 -->
<g id="edge58" class="edge"><title>Node18&#45;&gt;Node21</title>
<path fill="none" stroke="#9a32cd" stroke-dasharray="5,2" d="M869.337,-41.6748C866.864,-41.7885 864.413,-41.8973 862,-42 752.704,-46.6512 625.64,-49.8907 549.633,-51.5968"/>
<polygon fill="#9a32cd" stroke="#9a32cd" points="869.779,-45.1577 879.6,-41.1824 869.444,-38.1657 869.779,-45.1577"/>
<text text-anchor="middle" x="704" y="-53" font-family="FreeSans" font-size="10.00"> Parent</text>
</g>
<!-- Node19 -->
<g id="node40" class="node"><title>Node19</title>
<a xlink:href="classMezzanine_1_1AttachableBase.xhtml" target="_top" xlink:title="This class is the base class for other attachable classes and is responsible for transform updates to...">
<polygon fill="none" stroke="black" points="190.5,-86 190.5,-106 325.5,-106 325.5,-86 190.5,-86"/>
<text text-anchor="middle" x="258" y="-93" font-family="FreeSans" font-size="10.00">Mezzanine::AttachableBase</text>
</a>
</g>
<!-- Node19&#45;&gt;Node18 -->
<g id="edge44" class="edge"><title>Node19&#45;&gt;Node18</title>
<path fill="none" stroke="midnightblue" d="M335.849,-92.4956C437.916,-87.6787 622.503,-78.2037 780,-66 816.508,-63.1712 825.877,-63.9959 862,-58 879.071,-55.1665 897.74,-50.9388 913.551,-47.0179"/>
<polygon fill="midnightblue" stroke="midnightblue" points="335.455,-89.0102 325.63,-92.9753 335.783,-96.0025 335.455,-89.0102"/>
</g>
<!-- Node19&#45;&gt;Node21 -->
<g id="edge50" class="edge"><title>Node19&#45;&gt;Node21</title>
<path fill="none" stroke="midnightblue" d="M320.186,-84.0624C354.625,-77.4514 396.955,-69.3255 429.682,-63.0432"/>
<polygon fill="midnightblue" stroke="midnightblue" points="319.396,-80.6501 310.235,-85.9727 320.716,-87.5246 319.396,-80.6501"/>
</g>
<!-- Node20 -->
<g id="node42" class="node"><title>Node20</title>
<polygon fill="none" stroke="#bfbfbf" points="628.5,-0 628.5,-20 779.5,-20 779.5,-0 628.5,-0"/>
<text text-anchor="middle" x="704" y="-7" font-family="FreeSans" font-size="10.00">std::vector&lt; AttachableChild * &gt;</text>
</g>
<!-- Node20&#45;&gt;Node18 -->
<g id="edge46" class="edge"><title>Node20&#45;&gt;Node18</title>
<path fill="none" stroke="#9a32cd" stroke-dasharray="5,2" d="M790.038,-19.4049C819.422,-22.617 851.931,-26.1706 879.997,-29.2385"/>
<polygon fill="#9a32cd" stroke="#9a32cd" points="790.108,-15.8918 779.787,-18.2844 789.347,-22.8504 790.108,-15.8918"/>
<text text-anchor="middle" x="830" y="-30" font-family="FreeSans" font-size="10.00"> Attached</text>
</g>
<!-- Node21&#45;&gt;Node20 -->
<g id="edge48" class="edge"><title>Node21&#45;&gt;Node20</title>
<path fill="none" stroke="#9a32cd" stroke-dasharray="5,2" d="M526.029,-40.1791C539.429,-36.5604 554.25,-32.8398 568,-30 587.399,-25.9936 608.514,-22.4827 628.195,-19.5672"/>
<polygon fill="#9a32cd" stroke="#9a32cd" points="524.813,-36.8834 516.1,-42.9102 526.67,-43.6327 524.813,-36.8834"/>
<text text-anchor="middle" x="589" y="-33" font-family="FreeSans" font-size="10.00"> elements</text>
</g>
<!-- Node22&#45;&gt;Node21 -->
<g id="edge52" class="edge"><title>Node22&#45;&gt;Node21</title>
<path fill="none" stroke="#9a32cd" stroke-dasharray="5,2" d="M323.078,-48.2275C346.115,-47.6056 372.213,-47.3091 396,-48 401.98,-48.1737 408.19,-48.4152 414.414,-48.699"/>
<polygon fill="#9a32cd" stroke="#9a32cd" points="322.962,-44.7293 313.069,-48.5228 323.168,-51.7262 322.962,-44.7293"/>
<text text-anchor="middle" x="370" y="-51" font-family="FreeSans" font-size="10.00"> LocalXform</text>
</g>
<!-- Node23 -->
<g id="node50" class="node"><title>Node23</title>
<a xlink:href="classMezzanine_1_1Quaternion.xhtml" target="_top" xlink:title="This is used to store information about rotation in 3d space.">
<polygon fill="none" stroke="black" points="0,-41 0,-61 114,-61 114,-41 0,-41"/>
<text text-anchor="middle" x="57" y="-48" font-family="FreeSans" font-size="10.00">Mezzanine::Quaternion</text>
</a>
</g>
<!-- Node23&#45;&gt;Node22 -->
<g id="edge56" class="edge"><title>Node23&#45;&gt;Node22</title>
<path fill="none" stroke="#9a32cd" stroke-dasharray="5,2" d="M124.063,-51C149.657,-51 178.518,-51 202.877,-51"/>
<polygon fill="#9a32cd" stroke="#9a32cd" points="124.061,-47.5001 114.061,-51 124.061,-54.5001 124.061,-47.5001"/>
<text text-anchor="middle" x="152" y="-54" font-family="FreeSans" font-size="10.00"> Rotation</text>
</g>
</g>
</svg>
        <g id="navigator" transform="translate(0 0)" fill="#404254">
                <rect fill="#f2f5e9" fill-opacity="0.5" stroke="#606060" stroke-width=".5" x="0" y="0" width="60" height="60"/>
                <use id="zoomplus" xlink:href="#zoomPlus" x="17" y="9" onmousedown="handleZoom(evt,'in')"/>
                <use id="zoomminus" xlink:href="#zoomMin" x="42" y="9" onmousedown="handleZoom(evt,'out')"/>
                <use id="reset" xlink:href="#resetDef" x="30" y="36" onmousedown="handleReset()"/>
                <g id="arrowUp" xlink:href="#dirArrow" transform="translate(30 24)" onmousedown="handlePan(0,-1)">
                  <use xlink:href="#rim" fill="#404040">
                        <set attributeName="fill" to="#808080" begin="arrowUp.mouseover" end="arrowUp.mouseout"/>
                  </use>
                  <path fill="none" stroke="white" stroke-width="1.5" d="M0,-3.0v7 M-2.5,-0.5L0,-3.0L2.5,-0.5"/>
                </g>
                <g id="arrowRight" xlink:href="#dirArrow" transform="rotate(90) translate(36 -43)" onmousedown="handlePan(1,0)">
                  <use xlink:href="#rim" fill="#404040">
                        <set attributeName="fill" to="#808080" begin="arrowRight.mouseover" end="arrowRight.mouseout"/>
                  </use>
                  <path fill="none" stroke="white" stroke-width="1.5" d="M0,-3.0v7 M-2.5,-0.5L0,-3.0L2.5,-0.5"/>
                </g>
                <g id="arrowDown" xlink:href="#dirArrow" transform="rotate(180) translate(-30 -48)" onmousedown="handlePan(0,1)">
                  <use xlink:href="#rim" fill="#404040">
                        <set attributeName="fill" to="#808080" begin="arrowDown.mouseover" end="arrowDown.mouseout"/>
                  </use>
                  <path fill="none" stroke="white" stroke-width="1.5" d="M0,-3.0v7 M-2.5,-0.5L0,-3.0L2.5,-0.5"/>
                </g>
                <g id="arrowLeft" xlink:href="#dirArrow" transform="rotate(270) translate(-36 17)" onmousedown="handlePan(-1,0)">
                  <use xlink:href="#rim" fill="#404040">
                        <set attributeName="fill" to="#808080" begin="arrowLeft.mouseover" end="arrowLeft.mouseout"/>
                  </use>
                  <path fill="none" stroke="white" stroke-width="1.5" d="M0,-3.0v7 M-2.5,-0.5L0,-3.0L2.5,-0.5"/>
                </g>
        </g>
        <svg viewBox="0 0 15 15" width="100%" height="30px" preserveAspectRatio="xMaxYMin meet">
         <g id="arrow_out" transform="scale(0.3 0.3)">
          <a xlink:href="classMezzanine_1_1Vector3WActor__coll__graph_org.svg" target="_base">
           <rect id="button" ry="5" rx="5" y="6" x="6" height="38" width="38"
                fill="#f2f5e9" fill-opacity="0.5" stroke="#606060" stroke-width="1.0"/>
           <path id="arrow"
             d="M 11.500037,31.436501 C 11.940474,20.09759 22.043105,11.32322 32.158766,21.979434 L 37.068811,17.246167 C 37.068811,17.246167 37.088388,32 37.088388,32 L 22.160133,31.978069 C 22.160133,31.978069 26.997745,27.140456 26.997745,27.140456 C 18.528582,18.264221 13.291696,25.230495 11.500037,31.436501 z"
             style="fill:#404040;"/>
          </a>
         </g>
        </svg>
</svg>
