<?xml version="1.0" encoding="UTF-8" standalone="no"?>
<!DOCTYPE svg PUBLIC "-//W3C//DTD SVG 1.1//EN"
 "http://www.w3.org/Graphics/SVG/1.1/DTD/svg11.dtd">
<!-- Generated by graphviz version 2.38.0 (20140413.2041)
 -->
<!-- Title: Mezzanine::UI::InsertTagToken Pages: 1 -->
<svg width="351pt" height="309pt"
 viewBox="0.00 0.00 350.66 309.00" xmlns="http://www.w3.org/2000/svg" xmlns:xlink="http://www.w3.org/1999/xlink">
<g id="graph0" class="graph" transform="scale(1 1) rotate(0) translate(4 305)">
<title>Mezzanine::UI::InsertTagToken</title>
<polygon fill="white" stroke="none" points="-4,4 -4,-305 346.658,-305 346.658,4 -4,4"/>
<!-- Node1 -->
<g id="node1" class="node"><title>Node1</title>
<polygon fill="#bfbfbf" stroke="black" points="63.6583,-0.5 63.6583,-30.5 191.658,-30.5 191.658,-0.5 63.6583,-0.5"/>
<text text-anchor="start" x="71.6583" y="-18.5" font-family="Helvetica,sans-Serif" font-size="10.00">Mezzanine::UI::InsertTag</text>
<text text-anchor="middle" x="127.658" y="-7.5" font-family="Helvetica,sans-Serif" font-size="10.00">Token</text>
</g>
<!-- Node2 -->
<g id="node2" class="node"><title>Node2</title>
<g id="a_node2"><a xlink:href="classMezzanine_1_1UI_1_1TagToken.html" target="_top" xlink:title="This struct represents a markup tag segment from the source string. ">
<polygon fill="white" stroke="black" points="62.6583,-68.5 62.6583,-87.5 192.658,-87.5 192.658,-68.5 62.6583,-68.5"/>
<text text-anchor="middle" x="127.658" y="-75.5" font-family="Helvetica,sans-Serif" font-size="10.00">Mezzanine::UI::TagToken</text>
</a>
</g>
</g>
<!-- Node2&#45;&gt;Node1 -->
<g id="edge1" class="edge"><title>Node2&#45;&gt;Node1</title>
<path fill="none" stroke="midnightblue" d="M127.658,-58.2154C127.658,-49.3565 127.658,-38.9577 127.658,-30.7587"/>
<polygon fill="midnightblue" stroke="midnightblue" points="124.158,-58.3318 127.658,-68.3318 131.158,-58.3319 124.158,-58.3318"/>
</g>
<!-- Node3 -->
<g id="node3" class="node"><title>Node3</title>
<g id="a_node3"><a xlink:href="classMezzanine_1_1UI_1_1TextToken.html" target="_top" xlink:title="This class represents a normal text segment from the source string. ">
<polygon fill="white" stroke="black" points="61.1583,-135.5 61.1583,-154.5 194.158,-154.5 194.158,-135.5 61.1583,-135.5"/>
<text text-anchor="middle" x="127.658" y="-142.5" font-family="Helvetica,sans-Serif" font-size="10.00">Mezzanine::UI::TextToken</text>
</a>
</g>
</g>
<!-- Node3&#45;&gt;Node2 -->
<g id="edge2" class="edge"><title>Node3&#45;&gt;Node2</title>
<path fill="none" stroke="midnightblue" d="M127.658,-125.037C127.658,-112.67 127.658,-97.1198 127.658,-87.6273"/>
<polygon fill="midnightblue" stroke="midnightblue" points="124.158,-125.234 127.658,-135.234 131.158,-125.234 124.158,-125.234"/>
</g>
<!-- Node4 -->
<g id="node4" class="node"><title>Node4</title>
<g id="a_node4"><a xlink:title="STL class. ">
<polygon fill="white" stroke="#bfbfbf" points="97.6583,-213.5 97.6583,-232.5 157.658,-232.5 157.658,-213.5 97.6583,-213.5"/>
<text text-anchor="middle" x="127.658" y="-220.5" font-family="Helvetica,sans-Serif" font-size="10.00">std::string</text>
</a>
</g>
</g>
<!-- Node4&#45;&gt;Node2 -->
<g id="edge7" class="edge"><title>Node4&#45;&gt;Node2</title>
<path fill="none" stroke="#9a32cd" stroke-dasharray="5,2" d="M87.986,-211.886C43.852,-198.561 -18.2994,-172.358 5.65831,-135 22.2022,-109.203 53.9406,-95.1319 80.8983,-87.5474"/>
<polygon fill="#9a32cd" stroke="#9a32cd" points="87.0662,-215.263 97.6454,-214.688 89.0162,-208.54 87.0662,-215.263"/>
<text text-anchor="middle" x="28.6583" y="-142.5" font-family="Helvetica,sans-Serif" font-size="10.00"> TagName</text>
</g>
<!-- Node4&#45;&gt;Node3 -->
<g id="edge3" class="edge"><title>Node4&#45;&gt;Node3</title>
<path fill="none" stroke="#9a32cd" stroke-dasharray="5,2" d="M127.658,-203.224C127.658,-187.697 127.658,-166.358 127.658,-154.616"/>
<polygon fill="#9a32cd" stroke="#9a32cd" points="124.158,-203.282 127.658,-213.282 131.158,-203.282 124.158,-203.282"/>
<text text-anchor="middle" x="139.158" y="-181.5" font-family="Helvetica,sans-Serif" font-size="10.00"> Text</text>
</g>
<!-- Node6 -->
<g id="node6" class="node"><title>Node6</title>
<polygon fill="white" stroke="#bfbfbf" points="212.658,-135.5 212.658,-154.5 342.658,-154.5 342.658,-135.5 212.658,-135.5"/>
<text text-anchor="middle" x="277.658" y="-142.5" font-family="Helvetica,sans-Serif" font-size="10.00">std::map&lt; String, String &gt;</text>
</g>
<!-- Node4&#45;&gt;Node6 -->
<g id="edge6" class="edge"><title>Node4&#45;&gt;Node6</title>
<path fill="none" stroke="#9a32cd" stroke-dasharray="5,2" d="M153.802,-208.754C184.483,-193.209 234.476,-167.879 260.575,-154.656"/>
<polygon fill="#9a32cd" stroke="#9a32cd" points="151.912,-205.788 144.574,-213.43 155.076,-212.032 151.912,-205.788"/>
<text text-anchor="middle" x="239.658" y="-187" font-family="Helvetica,sans-Serif" font-size="10.00"> keys</text>
<text text-anchor="middle" x="239.658" y="-176" font-family="Helvetica,sans-Serif" font-size="10.00">elements</text>
</g>
<!-- Node5 -->
<g id="node5" class="node"><title>Node5</title>
<g id="a_node5"><a xlink:title="STL class. ">
<polygon fill="white" stroke="#bfbfbf" points="80.1583,-270.5 80.1583,-300.5 175.158,-300.5 175.158,-270.5 80.1583,-270.5"/>
<text text-anchor="start" x="88.1583" y="-288.5" font-family="Helvetica,sans-Serif" font-size="10.00">std::basic_string&lt;</text>
<text text-anchor="middle" x="127.658" y="-277.5" font-family="Helvetica,sans-Serif" font-size="10.00"> char &gt;</text>
</a>
</g>
</g>
<!-- Node5&#45;&gt;Node4 -->
<g id="edge4" class="edge"><title>Node5&#45;&gt;Node4</title>
<path fill="none" stroke="midnightblue" d="M127.658,-260.352C127.658,-250.513 127.658,-239.775 127.658,-232.54"/>
<polygon fill="midnightblue" stroke="midnightblue" points="124.158,-260.468 127.658,-270.468 131.158,-260.468 124.158,-260.468"/>
</g>
<!-- Node6&#45;&gt;Node2 -->
<g id="edge5" class="edge"><title>Node6&#45;&gt;Node2</title>
<path fill="none" stroke="#9a32cd" stroke-dasharray="5,2" d="M248.307,-131.281C218.601,-118.409 173.476,-98.8545 147.66,-87.6672"/>
<polygon fill="#9a32cd" stroke="#9a32cd" points="247.172,-134.604 257.739,-135.369 249.956,-128.181 247.172,-134.604"/>
<text text-anchor="middle" x="229.158" y="-109" font-family="Helvetica,sans-Serif" font-size="10.00"> Params</text>
</g>
</g>
</svg>
