<?xml version="1.0" encoding="UTF-8" standalone="no"?>
<!DOCTYPE svg PUBLIC "-//W3C//DTD SVG 1.1//EN"
 "http://www.w3.org/Graphics/SVG/1.1/DTD/svg11.dtd">
<!-- Generated by graphviz version 2.26.3 (20100126.1600)
 -->
<!-- Title: Mezzanine::Graphics::GraphicsManager Pages: 1 -->
<svg width="1896pt" height="580pt"
 viewBox="0.00 0.00 1896.00 580.00" xmlns="http://www.w3.org/2000/svg" xmlns:xlink="http://www.w3.org/1999/xlink">
<g id="graph1" class="graph" transform="scale(1 1) rotate(0) translate(4 576)">
<title>Mezzanine::Graphics::GraphicsManager</title>
<polygon fill="white" stroke="white" points="-4,5 -4,-576 1893,-576 1893,5 -4,5"/>
<!-- Node1 -->
<g id="node1" class="node"><title>Node1</title>
<polygon fill="#bfbfbf" stroke="black" points="1346.5,-288 1346.5,-320 1451.5,-320 1451.5,-288 1346.5,-288"/>
<text text-anchor="start" x="1354.5" y="-307" font-family="FreeSans" font-size="10.00">Mezzanine::Graphics</text>
<text text-anchor="middle" x="1399" y="-295" font-family="FreeSans" font-size="10.00">::GraphicsManager</text>
</g>
<!-- Node17 -->
<g id="node42" class="node"><title>Node17</title>
<a xlink:href="classMezzanine_1_1Singleton.html" target="_top" xlink:title="Mezzanine::Singleton\l\&lt; GraphicsManager \&gt;">
<polygon fill="white" stroke="black" points="1592.5,-337 1592.5,-369 1701.5,-369 1701.5,-337 1592.5,-337"/>
<text text-anchor="start" x="1600.5" y="-356" font-family="FreeSans" font-size="10.00">Mezzanine::Singleton</text>
<text text-anchor="middle" x="1647" y="-344" font-family="FreeSans" font-size="10.00">&lt; GraphicsManager &gt;</text>
</a>
</g>
<!-- Node1&#45;&gt;Node17 -->
<g id="edge54" class="edge"><title>Node1&#45;&gt;Node17</title>
<path fill="none" stroke="#9a32cd" stroke-dasharray="5,2" d="M1440.51,-324.09C1452.37,-329.069 1465.48,-333.87 1478,-337 1515.45,-346.366 1558.83,-350.336 1592.26,-351.98"/>
<polygon fill="#9a32cd" stroke="#9a32cd" points="1441.87,-320.863 1431.3,-320.087 1439.08,-327.283 1441.87,-320.863"/>
<text text-anchor="middle" x="1526" y="-354" font-family="FreeSans" font-size="10.00"> SingletonPtr</text>
</g>
<!-- Node20 -->
<g id="node49" class="node"><title>Node20</title>
<a xlink:href="classMezzanine_1_1Graphics_1_1GameWindow.html" target="_top" xlink:title="This class is for creating and managing game windows.">
<polygon fill="white" stroke="black" points="1594.5,-223 1594.5,-255 1699.5,-255 1699.5,-223 1594.5,-223"/>
<text text-anchor="start" x="1602.5" y="-242" font-family="FreeSans" font-size="10.00">Mezzanine::Graphics</text>
<text text-anchor="middle" x="1647" y="-230" font-family="FreeSans" font-size="10.00">::GameWindow</text>
</a>
</g>
<!-- Node1&#45;&gt;Node20 -->
<g id="edge64" class="edge"><title>Node1&#45;&gt;Node20</title>
<path fill="none" stroke="#9a32cd" stroke-dasharray="5,2" d="M1419.82,-280.405C1434.44,-265.704 1455.35,-248.097 1478,-240 1515.3,-226.664 1560.26,-227.115 1594.42,-230.521"/>
<polygon fill="#9a32cd" stroke="#9a32cd" points="1417.16,-278.118 1412.78,-287.762 1422.22,-282.959 1417.16,-278.118"/>
<text text-anchor="middle" x="1526" y="-243" font-family="FreeSans" font-size="10.00"> Manager</text>
</g>
<!-- Node2 -->
<g id="node2" class="node"><title>Node2</title>
<a xlink:href="classMezzanine_1_1ManagerBase.html" target="_top" xlink:title="This is the base class from which all the Entresol and World Managers inherit.">
<polygon fill="white" stroke="black" points="1079,-376 1079,-396 1205,-396 1205,-376 1079,-376"/>
<text text-anchor="middle" x="1142" y="-383" font-family="FreeSans" font-size="10.00">Mezzanine::ManagerBase</text>
</a>
</g>
<!-- Node2&#45;&gt;Node1 -->
<g id="edge2" class="edge"><title>Node2&#45;&gt;Node1</title>
<path fill="none" stroke="midnightblue" d="M1215.35,-384.302C1248.31,-381.492 1287.11,-375.275 1320,-362 1343.98,-352.319 1367.34,-333.687 1382.35,-320.146"/>
<polygon fill="midnightblue" stroke="midnightblue" points="1215.02,-380.816 1205.32,-385.068 1215.55,-387.796 1215.02,-380.816"/>
</g>
<!-- Node3 -->
<g id="node4" class="node"><title>Node3</title>
<a xlink:href="classMezzanine_1_1Entresol.html" target="_top" xlink:title="This is the main entry point for the entire library.">
<polygon fill="white" stroke="black" points="859.5,-411 859.5,-431 960.5,-431 960.5,-411 859.5,-411"/>
<text text-anchor="middle" x="910" y="-418" font-family="FreeSans" font-size="10.00">Mezzanine::Entresol</text>
</a>
</g>
<!-- Node3&#45;&gt;Node2 -->
<g id="edge4" class="edge"><title>Node3&#45;&gt;Node2</title>
<path fill="none" stroke="#9a32cd" stroke-dasharray="5,2" d="M958.788,-408.672C969.67,-406.209 981.188,-403.822 992,-402 1020.28,-397.234 1051.81,-393.618 1078.64,-391.04"/>
<polygon fill="#9a32cd" stroke="#9a32cd" points="957.962,-405.27 949.012,-410.941 959.545,-412.089 957.962,-405.27"/>
<text text-anchor="middle" x="1024" y="-405" font-family="FreeSans" font-size="10.00"> TheEntresol</text>
</g>
<!-- Node4 -->
<g id="node6" class="node"><title>Node4</title>
<a xlink:href="classMezzanine_1_1Singleton.html" target="_top" xlink:title="Mezzanine::Singleton\l\&lt; Entresol \&gt;">
<polygon fill="white" stroke="black" points="1088.5,-414 1088.5,-446 1195.5,-446 1195.5,-414 1088.5,-414"/>
<text text-anchor="start" x="1096.5" y="-433" font-family="FreeSans" font-size="10.00">Mezzanine::Singleton</text>
<text text-anchor="middle" x="1142" y="-421" font-family="FreeSans" font-size="10.00">&lt; Entresol &gt;</text>
</a>
</g>
<!-- Node3&#45;&gt;Node4 -->
<g id="edge8" class="edge"><title>Node3&#45;&gt;Node4</title>
<path fill="none" stroke="#9a32cd" stroke-dasharray="5,2" d="M971.028,-419.347C978.099,-419.204 985.207,-419.083 992,-419 1020.44,-418.653 1027.61,-417.192 1056,-419 1066.52,-419.67 1077.71,-420.796 1088.43,-422.078"/>
<polygon fill="#9a32cd" stroke="#9a32cd" points="970.659,-415.854 960.737,-419.569 970.811,-422.852 970.659,-415.854"/>
<text text-anchor="middle" x="1024" y="-422" font-family="FreeSans" font-size="10.00"> SingletonPtr</text>
</g>
<!-- Node4&#45;&gt;Node3 -->
<g id="edge6" class="edge"><title>Node4&#45;&gt;Node3</title>
<path fill="none" stroke="midnightblue" d="M1078.47,-434.646C1051.74,-435.835 1020.33,-436.231 992,-434 981.798,-433.196 970.947,-431.838 960.593,-430.296"/>
<polygon fill="midnightblue" stroke="midnightblue" points="1078.66,-438.141 1088.47,-434.155 1078.31,-431.149 1078.66,-438.141"/>
</g>
<!-- Node5 -->
<g id="node9" class="node"><title>Node5</title>
<a xlink:href="classMezzanine_1_1ObjectSettingsHandler.html" target="_top" xlink:title="An abstract class for other classes that manage groups of settings.">
<polygon fill="white" stroke="black" points="1076.5,-288 1076.5,-320 1207.5,-320 1207.5,-288 1076.5,-288"/>
<text text-anchor="start" x="1084.5" y="-307" font-family="FreeSans" font-size="10.00">Mezzanine::ObjectSettings</text>
<text text-anchor="middle" x="1142" y="-295" font-family="FreeSans" font-size="10.00">Handler</text>
</a>
</g>
<!-- Node5&#45;&gt;Node1 -->
<g id="edge10" class="edge"><title>Node5&#45;&gt;Node1</title>
<path fill="none" stroke="midnightblue" d="M1217.54,-304C1258.86,-304 1309.02,-304 1346.13,-304"/>
<polygon fill="midnightblue" stroke="midnightblue" points="1217.52,-300.5 1207.52,-304 1217.52,-307.5 1217.52,-300.5"/>
</g>
<!-- Node6 -->
<g id="node11" class="node"><title>Node6</title>
<polygon fill="white" stroke="#bfbfbf" points="637,-44 637,-76 757,-76 757,-44 637,-44"/>
<text text-anchor="start" x="645" y="-63" font-family="FreeSans" font-size="10.00">std::map&lt; String, Object</text>
<text text-anchor="middle" x="697" y="-51" font-family="FreeSans" font-size="10.00">SettingFile * &gt;</text>
</g>
<!-- Node6&#45;&gt;Node5 -->
<g id="edge12" class="edge"><title>Node6&#45;&gt;Node5</title>
<path fill="none" stroke="#9a32cd" stroke-dasharray="5,2" d="M767.375,-60.8207C825.953,-64.2463 909.841,-75.6986 974,-111 1019.99,-136.304 1031.27,-149.697 1056,-196 1073.78,-229.296 1049.22,-250.523 1074,-279 1076.97,-282.416 1080.45,-285.366 1084.24,-287.913"/>
<polygon fill="#9a32cd" stroke="#9a32cd" points="767.275,-57.3109 757.107,-60.287 766.912,-64.3014 767.275,-57.3109"/>
<text text-anchor="middle" x="910" y="-114" font-family="FreeSans" font-size="10.00"> SettingFiles</text>
</g>
<!-- Node7 -->
<g id="node13" class="node"><title>Node7</title>
<a xlink:href="classMezzanine_1_1ObjectSettingFile.html" target="_top" xlink:title="This class represents a file to be saved containing one or more OhjectSettingGroup&#39;s.">
<polygon fill="white" stroke="black" points="346,-138 346,-158 488,-158 488,-138 346,-138"/>
<text text-anchor="middle" x="417" y="-145" font-family="FreeSans" font-size="10.00">Mezzanine::ObjectSettingFile</text>
</a>
</g>
<!-- Node7&#45;&gt;Node6 -->
<g id="edge14" class="edge"><title>Node7&#45;&gt;Node6</title>
<path fill="none" stroke="#9a32cd" stroke-dasharray="5,2" d="M444.976,-133.441C462.228,-124.887 484.999,-114.346 506,-107 548.871,-92.0042 598.75,-79.904 636.783,-71.7384"/>
<polygon fill="#9a32cd" stroke="#9a32cd" points="443.365,-130.333 436.006,-137.956 446.512,-136.586 443.365,-130.333"/>
<text text-anchor="middle" x="557" y="-110" font-family="FreeSans" font-size="10.00"> elements</text>
</g>
<!-- Node11 -->
<g id="node21" class="node"><title>Node11</title>
<a xlink:href="classMezzanine_1_1ObjectSettingGroup.html" target="_top" xlink:title="A class that store&#39;s a collection of SettingSets that can be applied together.">
<polygon fill="white" stroke="black" points="634,-94 634,-126 760,-126 760,-94 634,-94"/>
<text text-anchor="start" x="642" y="-113" font-family="FreeSans" font-size="10.00">Mezzanine::ObjectSetting</text>
<text text-anchor="middle" x="697" y="-101" font-family="FreeSans" font-size="10.00">Group</text>
</a>
</g>
<!-- Node7&#45;&gt;Node11 -->
<g id="edge40" class="edge"><title>Node7&#45;&gt;Node11</title>
<path fill="none" stroke="#9a32cd" stroke-dasharray="5,2" d="M497.935,-137.016C541.131,-131.154 593.514,-124.045 633.701,-118.591"/>
<polygon fill="#9a32cd" stroke="#9a32cd" points="497.456,-133.549 488.018,-138.362 498.398,-140.485 497.456,-133.549"/>
<text text-anchor="middle" x="557" y="-139" font-family="FreeSans" font-size="10.00"> OptionalFile</text>
</g>
<!-- Node8 -->
<g id="node15" class="node"><title>Node8</title>
<a xlink:title="STL class.">
<polygon fill="white" stroke="#bfbfbf" points="156.5,-200 156.5,-220 213.5,-220 213.5,-200 156.5,-200"/>
<text text-anchor="middle" x="185" y="-207" font-family="FreeSans" font-size="10.00">std::string</text>
</a>
</g>
<!-- Node8&#45;&gt;Node5 -->
<g id="edge44" class="edge"><title>Node8&#45;&gt;Node5</title>
<path fill="none" stroke="#9a32cd" stroke-dasharray="5,2" d="M223.712,-210C269.77,-210 348.992,-210 417,-210 417,-210 417,-210 910,-210 989.077,-210 1000.43,-250.016 1074,-279 1081.49,-281.951 1089.48,-284.988 1097.26,-287.885"/>
<polygon fill="#9a32cd" stroke="#9a32cd" points="223.573,-206.5 213.573,-210 223.573,-213.5 223.573,-206.5"/>
<text text-anchor="middle" x="697" y="-225" font-family="FreeSans" font-size="10.00"> CurrentSettingsSaveFile</text>
<text text-anchor="middle" x="697" y="-213" font-family="FreeSans" font-size="10.00">SettingsFilePath</text>
</g>
<!-- Node8&#45;&gt;Node6 -->
<g id="edge42" class="edge"><title>Node8&#45;&gt;Node6</title>
<path fill="none" stroke="#9a32cd" stroke-dasharray="5,2" d="M207.345,-193.956C237.411,-173.124 293.227,-137.064 346,-117 443.523,-79.9219 565.253,-66.9575 636.728,-62.4281"/>
<polygon fill="#9a32cd" stroke="#9a32cd" points="205.05,-191.29 198.872,-199.898 209.069,-197.022 205.05,-191.29"/>
<text text-anchor="middle" x="417" y="-120" font-family="FreeSans" font-size="10.00"> keys</text>
</g>
<!-- Node8&#45;&gt;Node7 -->
<g id="edge16" class="edge"><title>Node8&#45;&gt;Node7</title>
<path fill="none" stroke="#9a32cd" stroke-dasharray="5,2" d="M220.332,-196.457C232.204,-192.164 245.584,-187.603 258,-184 293.472,-173.707 334.097,-164.553 365.404,-158.052"/>
<polygon fill="#9a32cd" stroke="#9a32cd" points="218.947,-193.237 210.769,-199.973 221.363,-199.807 218.947,-193.237"/>
<text text-anchor="middle" x="293" y="-187" font-family="FreeSans" font-size="10.00"> File</text>
</g>
<!-- Node12 -->
<g id="node23" class="node"><title>Node12</title>
<a xlink:href="classMezzanine_1_1ObjectSettingSetContainer.html" target="_top" xlink:title="A base class for other classes that store ObjectSettingSet&#39;s.">
<polygon fill="white" stroke="black" points="354,-244 354,-276 480,-276 480,-244 354,-244"/>
<text text-anchor="start" x="362" y="-263" font-family="FreeSans" font-size="10.00">Mezzanine::ObjectSetting</text>
<text text-anchor="middle" x="417" y="-251" font-family="FreeSans" font-size="10.00">SetContainer</text>
</a>
</g>
<!-- Node8&#45;&gt;Node12 -->
<g id="edge38" class="edge"><title>Node8&#45;&gt;Node12</title>
<path fill="none" stroke="#9a32cd" stroke-dasharray="5,2" d="M223.844,-218.372C259.198,-225.991 312.046,-237.381 353.531,-246.321"/>
<polygon fill="#9a32cd" stroke="#9a32cd" points="224.427,-214.917 213.914,-216.231 222.952,-221.76 224.427,-214.917"/>
<text text-anchor="middle" x="293" y="-243" font-family="FreeSans" font-size="10.00"> ContainerName</text>
</g>
<!-- Node15 -->
<g id="node31" class="node"><title>Node15</title>
<polygon fill="white" stroke="#bfbfbf" points="354.5,-322 354.5,-342 479.5,-342 479.5,-322 354.5,-322"/>
<text text-anchor="middle" x="417" y="-329" font-family="FreeSans" font-size="10.00">std::map&lt; String, String &gt;</text>
</g>
<!-- Node8&#45;&gt;Node15 -->
<g id="edge36" class="edge"><title>Node8&#45;&gt;Node15</title>
<path fill="none" stroke="#9a32cd" stroke-dasharray="5,2" d="M208.38,-225.709C222.501,-234.949 241,-246.622 258,-256 305.15,-282.009 362.621,-308.177 393.936,-321.993"/>
<polygon fill="#9a32cd" stroke="#9a32cd" points="210.065,-222.627 199.792,-220.036 206.207,-228.468 210.065,-222.627"/>
<text text-anchor="middle" x="293" y="-307" font-family="FreeSans" font-size="10.00"> keys</text>
<text text-anchor="middle" x="293" y="-295" font-family="FreeSans" font-size="10.00">elements</text>
</g>
<!-- Node16 -->
<g id="node38" class="node"><title>Node16</title>
<polygon fill="white" stroke="#bfbfbf" points="850,-0 850,-32 970,-32 970,-0 850,-0"/>
<text text-anchor="start" x="858" y="-19" font-family="FreeSans" font-size="10.00">std::map&lt; String, Object</text>
<text text-anchor="middle" x="910" y="-7" font-family="FreeSans" font-size="10.00">SettingGroup * &gt;</text>
</g>
<!-- Node8&#45;&gt;Node16 -->
<g id="edge50" class="edge"><title>Node8&#45;&gt;Node16</title>
<path fill="none" stroke="#9a32cd" stroke-dasharray="5,2" d="M197,-191.182C210.137,-171.715 232.726,-141.366 258,-121 292.205,-93.4374 304.301,-89.8156 346,-76 522.196,-17.6232 744.705,-12.6846 849.794,-14.1388"/>
<polygon fill="#9a32cd" stroke="#9a32cd" points="193.919,-189.496 191.34,-199.772 199.765,-193.347 193.919,-189.496"/>
<text text-anchor="middle" x="557" y="-41" font-family="FreeSans" font-size="10.00"> keys</text>
</g>
<!-- Node30 -->
<g id="node73" class="node"><title>Node30</title>
<polygon fill="white" stroke="#bfbfbf" points="506,-370 506,-390 608,-390 608,-370 506,-370"/>
<text text-anchor="middle" x="557" y="-377" font-family="FreeSans" font-size="10.00">std::vector&lt; String &gt;</text>
</g>
<!-- Node8&#45;&gt;Node30 -->
<g id="edge90" class="edge"><title>Node8&#45;&gt;Node30</title>
<path fill="none" stroke="#9a32cd" stroke-dasharray="5,2" d="M193.132,-229.401C204.314,-253.844 226.674,-295.598 258,-320 330.258,-376.288 441.402,-383.9 505.877,-382.919"/>
<polygon fill="#9a32cd" stroke="#9a32cd" points="196.264,-227.828 189.03,-220.086 189.857,-230.649 196.264,-227.828"/>
<text text-anchor="middle" x="293" y="-360" font-family="FreeSans" font-size="10.00"> elements</text>
</g>
<!-- Node9 -->
<g id="node17" class="node"><title>Node9</title>
<a xlink:title="STL class.">
<polygon fill="white" stroke="#bfbfbf" points="0.5,-194 0.5,-226 91.5,-226 91.5,-194 0.5,-194"/>
<text text-anchor="start" x="8.5" y="-213" font-family="FreeSans" font-size="10.00">std::basic_string&lt;</text>
<text text-anchor="middle" x="46" y="-201" font-family="FreeSans" font-size="10.00"> char &gt;</text>
</a>
</g>
<!-- Node9&#45;&gt;Node8 -->
<g id="edge18" class="edge"><title>Node9&#45;&gt;Node8</title>
<path fill="none" stroke="midnightblue" d="M101.751,-210C120.501,-210 140.641,-210 156.415,-210"/>
<polygon fill="midnightblue" stroke="midnightblue" points="101.514,-206.5 91.5138,-210 101.514,-213.5 101.514,-206.5"/>
</g>
<!-- Node10 -->
<g id="node19" class="node"><title>Node10</title>
<polygon fill="white" stroke="#bfbfbf" points="846,-132 846,-164 974,-164 974,-132 846,-132"/>
<text text-anchor="start" x="854" y="-151" font-family="FreeSans" font-size="10.00">std::vector&lt; ObjectSetting</text>
<text text-anchor="middle" x="910" y="-139" font-family="FreeSans" font-size="10.00">Group * &gt;</text>
</g>
<!-- Node10&#45;&gt;Node7 -->
<g id="edge20" class="edge"><title>Node10&#45;&gt;Node7</title>
<path fill="none" stroke="#9a32cd" stroke-dasharray="5,2" d="M835.915,-148C741.878,-148 580.781,-148 488.16,-148"/>
<polygon fill="#9a32cd" stroke="#9a32cd" points="835.92,-151.5 845.92,-148 835.92,-144.5 835.92,-151.5"/>
<text text-anchor="middle" x="697" y="-151" font-family="FreeSans" font-size="10.00"> SaveGroups</text>
</g>
<!-- Node11&#45;&gt;Node10 -->
<g id="edge22" class="edge"><title>Node11&#45;&gt;Node10</title>
<path fill="none" stroke="#9a32cd" stroke-dasharray="5,2" d="M770.029,-123.029C794.591,-127.411 821.798,-132.264 845.644,-136.519"/>
<polygon fill="#9a32cd" stroke="#9a32cd" points="770.502,-119.558 760.042,-121.247 769.272,-126.449 770.502,-119.558"/>
<text text-anchor="middle" x="807" y="-136" font-family="FreeSans" font-size="10.00"> elements</text>
</g>
<!-- Node11&#45;&gt;Node16 -->
<g id="edge48" class="edge"><title>Node11&#45;&gt;Node16</title>
<path fill="none" stroke="#9a32cd" stroke-dasharray="5,2" d="M754.503,-90.4458C759.097,-88.6735 763.643,-86.848 768,-85 803.682,-69.8674 811.117,-62.8932 846,-46 855.498,-41.4003 865.837,-36.5054 875.381,-32.0327"/>
<polygon fill="#9a32cd" stroke="#9a32cd" points="753.181,-87.2037 745.053,-93.9994 755.645,-93.7558 753.181,-87.2037"/>
<text text-anchor="middle" x="807" y="-80" font-family="FreeSans" font-size="10.00"> elements</text>
</g>
<!-- Node12&#45;&gt;Node11 -->
<g id="edge24" class="edge"><title>Node12&#45;&gt;Node11</title>
<path fill="none" stroke="midnightblue" d="M456.09,-238.992C495.041,-217.805 556.329,-183.773 608,-152 616.19,-146.964 617.534,-144.558 626,-140 635.308,-134.989 645.633,-130.213 655.46,-126.005"/>
<polygon fill="midnightblue" stroke="midnightblue" points="454.29,-235.987 447.17,-243.832 457.628,-242.14 454.29,-235.987"/>
</g>
<!-- Node14 -->
<g id="node27" class="node"><title>Node14</title>
<a xlink:href="classMezzanine_1_1ObjectSettingSet.html" target="_top" xlink:title="A class that store&#39;s a named set of settings for an object.">
<polygon fill="white" stroke="black" points="626.5,-300 626.5,-320 767.5,-320 767.5,-300 626.5,-300"/>
<text text-anchor="middle" x="697" y="-307" font-family="FreeSans" font-size="10.00">Mezzanine::ObjectSettingSet</text>
</a>
</g>
<!-- Node12&#45;&gt;Node14 -->
<g id="edge30" class="edge"><title>Node12&#45;&gt;Node14</title>
<path fill="none" stroke="midnightblue" d="M449.312,-281.251C465.602,-290.752 486.088,-300.937 506,-306 544.894,-315.89 589.692,-317.324 626.122,-316.087"/>
<polygon fill="midnightblue" stroke="midnightblue" points="451.096,-278.239 440.724,-276.079 447.485,-284.236 451.096,-278.239"/>
</g>
<!-- Node12&#45;&gt;Node14 -->
<g id="edge32" class="edge"><title>Node12&#45;&gt;Node14</title>
<path fill="none" stroke="#9a32cd" stroke-dasharray="5,2" d="M490.656,-271.084C526.188,-276.653 569.385,-283.749 608,-291 622.441,-293.712 638.136,-296.961 652.267,-299.999"/>
<polygon fill="#9a32cd" stroke="#9a32cd" points="490.789,-267.563 480.369,-269.481 489.71,-274.479 490.789,-267.563"/>
<text text-anchor="middle" x="557" y="-294" font-family="FreeSans" font-size="10.00"> ParentSetOrGroup</text>
</g>
<!-- Node13 -->
<g id="node25" class="node"><title>Node13</title>
<polygon fill="white" stroke="#bfbfbf" points="846,-267 846,-299 974,-299 974,-267 846,-267"/>
<text text-anchor="start" x="854" y="-286" font-family="FreeSans" font-size="10.00">std::vector&lt; ObjectSetting</text>
<text text-anchor="middle" x="910" y="-274" font-family="FreeSans" font-size="10.00">Set * &gt;</text>
</g>
<!-- Node13&#45;&gt;Node12 -->
<g id="edge26" class="edge"><title>Node13&#45;&gt;Node12</title>
<path fill="none" stroke="#9a32cd" stroke-dasharray="5,2" d="M835.945,-279.545C739.155,-275.03 571.283,-267.198 480.191,-262.948"/>
<polygon fill="#9a32cd" stroke="#9a32cd" points="835.795,-283.042 845.947,-280.012 836.121,-276.049 835.795,-283.042"/>
<text text-anchor="middle" x="697" y="-280" font-family="FreeSans" font-size="10.00"> SubSets</text>
</g>
<!-- Node14&#45;&gt;Node13 -->
<g id="edge28" class="edge"><title>Node14&#45;&gt;Node13</title>
<path fill="none" stroke="#9a32cd" stroke-dasharray="5,2" d="M777.811,-299.756C800.251,-296.912 824.309,-293.862 845.669,-291.155"/>
<polygon fill="#9a32cd" stroke="#9a32cd" points="777.111,-296.317 767.63,-301.047 777.991,-303.261 777.111,-296.317"/>
<text text-anchor="middle" x="807" y="-302" font-family="FreeSans" font-size="10.00"> elements</text>
</g>
<!-- Node15&#45;&gt;Node14 -->
<g id="edge34" class="edge"><title>Node15&#45;&gt;Node14</title>
<path fill="none" stroke="#9a32cd" stroke-dasharray="5,2" d="M489.919,-335.476C525.629,-336.197 569.19,-335.62 608,-331 626.287,-328.823 646.275,-324.307 662.668,-320.019"/>
<polygon fill="#9a32cd" stroke="#9a32cd" points="489.667,-331.969 479.585,-335.227 489.498,-338.967 489.667,-331.969"/>
<text text-anchor="middle" x="557" y="-339" font-family="FreeSans" font-size="10.00"> Settings</text>
</g>
<!-- Node16&#45;&gt;Node5 -->
<g id="edge46" class="edge"><title>Node16&#45;&gt;Node5</title>
<path fill="none" stroke="#9a32cd" stroke-dasharray="5,2" d="M980.103,-11.2526C1007.62,-13.3042 1037.08,-21.0809 1056,-42 1091.43,-81.1758 1042.16,-236.861 1074,-279 1076.58,-282.412 1079.67,-285.358 1083.1,-287.903"/>
<polygon fill="#9a32cd" stroke="#9a32cd" points="980.241,-7.75522 970.076,-10.7421 979.885,-14.7462 980.241,-7.75522"/>
<text text-anchor="middle" x="1024" y="-45" font-family="FreeSans" font-size="10.00"> SettingGroups</text>
</g>
<!-- Node17&#45;&gt;Node1 -->
<g id="edge52" class="edge"><title>Node17&#45;&gt;Node1</title>
<path fill="none" stroke="midnightblue" d="M1582.5,-340.257C1541.77,-332.209 1489.82,-321.944 1451.59,-314.392"/>
<polygon fill="midnightblue" stroke="midnightblue" points="1581.85,-343.695 1592.34,-342.199 1583.2,-336.827 1581.85,-343.695"/>
</g>
<!-- Node18 -->
<g id="node45" class="node"><title>Node18</title>
<polygon fill="white" stroke="#bfbfbf" points="1088.5,-238 1088.5,-270 1195.5,-270 1195.5,-238 1088.5,-238"/>
<text text-anchor="start" x="1096.5" y="-257" font-family="FreeSans" font-size="10.00">std::vector&lt; Graphics</text>
<text text-anchor="middle" x="1142" y="-245" font-family="FreeSans" font-size="10.00">::RenderSystem &gt;</text>
</g>
<!-- Node18&#45;&gt;Node1 -->
<g id="edge56" class="edge"><title>Node18&#45;&gt;Node1</title>
<path fill="none" stroke="#9a32cd" stroke-dasharray="5,2" d="M1206.01,-266.049C1239.91,-272.475 1282.23,-280.569 1320,-288 1328.51,-289.675 1337.54,-291.477 1346.32,-293.247"/>
<polygon fill="#9a32cd" stroke="#9a32cd" points="1206.25,-262.533 1195.78,-264.111 1204.95,-269.411 1206.25,-262.533"/>
<text text-anchor="middle" x="1274" y="-291" font-family="FreeSans" font-size="10.00"> RenderSystemTypes</text>
</g>
<!-- Node19 -->
<g id="node47" class="node"><title>Node19</title>
<polygon fill="white" stroke="#bfbfbf" points="1780.5,-263 1780.5,-295 1887.5,-295 1887.5,-263 1780.5,-263"/>
<text text-anchor="start" x="1788.5" y="-282" font-family="FreeSans" font-size="10.00">std::vector&lt; Graphics</text>
<text text-anchor="middle" x="1834" y="-270" font-family="FreeSans" font-size="10.00">::GameWindow * &gt;</text>
</g>
<!-- Node19&#45;&gt;Node1 -->
<g id="edge58" class="edge"><title>Node19&#45;&gt;Node1</title>
<path fill="none" stroke="#9a32cd" stroke-dasharray="5,2" d="M1770.27,-282.662C1684.12,-287.614 1532.08,-296.352 1451.9,-300.96"/>
<polygon fill="#9a32cd" stroke="#9a32cd" points="1770.66,-286.146 1780.44,-282.078 1770.26,-279.158 1770.66,-286.146"/>
<text text-anchor="middle" x="1647" y="-296" font-family="FreeSans" font-size="10.00"> GameWindows</text>
</g>
<!-- Node20&#45;&gt;Node1 -->
<g id="edge86" class="edge"><title>Node20&#45;&gt;Node1</title>
<path fill="none" stroke="#9a32cd" stroke-dasharray="5,2" d="M1584.24,-250.165C1552.19,-256.423 1512.72,-264.984 1478,-275 1465.23,-278.685 1451.55,-283.415 1439.23,-287.981"/>
<polygon fill="#9a32cd" stroke="#9a32cd" points="1585.22,-253.542 1594.38,-248.215 1583.89,-246.668 1585.22,-253.542"/>
<text text-anchor="middle" x="1526" y="-278" font-family="FreeSans" font-size="10.00"> PrimaryGameWindow</text>
</g>
<!-- Node20&#45;&gt;Node19 -->
<g id="edge60" class="edge"><title>Node20&#45;&gt;Node19</title>
<path fill="none" stroke="#9a32cd" stroke-dasharray="5,2" d="M1709.55,-252.379C1732.44,-257.276 1758.12,-262.769 1780.18,-267.488"/>
<polygon fill="#9a32cd" stroke="#9a32cd" points="1710.1,-248.918 1699.59,-250.249 1708.63,-255.763 1710.1,-248.918"/>
<text text-anchor="middle" x="1741" y="-266" font-family="FreeSans" font-size="10.00"> elements</text>
</g>
<!-- Node21 -->
<g id="node51" class="node"><title>Node21</title>
<a xlink:href="structMezzanine_1_1WindowSettings.html" target="_top" xlink:title="This stores all the basic configuration options a game window supports.">
<polygon fill="white" stroke="black" points="1074,-148 1074,-168 1210,-168 1210,-148 1074,-148"/>
<text text-anchor="middle" x="1142" y="-155" font-family="FreeSans" font-size="10.00">Mezzanine::WindowSettings</text>
</a>
</g>
<!-- Node21&#45;&gt;Node1 -->
<g id="edge68" class="edge"><title>Node21&#45;&gt;Node1</title>
<path fill="none" stroke="#9a32cd" stroke-dasharray="5,2" d="M1220.25,-169.875C1252.98,-177.421 1290.23,-189.58 1320,-209 1336.44,-219.725 1369.74,-263.661 1387.4,-287.847"/>
<polygon fill="#9a32cd" stroke="#9a32cd" points="1220.77,-166.406 1210.25,-167.678 1219.27,-173.243 1220.77,-166.406"/>
<text text-anchor="middle" x="1274" y="-212" font-family="FreeSans" font-size="10.00"> DesktopSettings</text>
</g>
<!-- Node21&#45;&gt;Node20 -->
<g id="edge62" class="edge"><title>Node21&#45;&gt;Node20</title>
<path fill="none" stroke="#9a32cd" stroke-dasharray="5,2" d="M1220.09,-151.649C1308.92,-147.303 1456.82,-148.916 1574,-194 1592.62,-201.164 1611.75,-213.157 1625.75,-222.962"/>
<polygon fill="#9a32cd" stroke="#9a32cd" points="1219.89,-148.155 1210.09,-152.176 1220.26,-155.145 1219.89,-148.155"/>
<text text-anchor="middle" x="1399" y="-166" font-family="FreeSans" font-size="10.00"> Settings</text>
</g>
<!-- Node22 -->
<g id="node54" class="node"><title>Node22</title>
<polygon fill="white" stroke="#bfbfbf" points="1338.5,-194 1338.5,-214 1459.5,-214 1459.5,-194 1338.5,-194"/>
<text text-anchor="middle" x="1399" y="-201" font-family="FreeSans" font-size="10.00">std::list&lt; ViewportEntry &gt;</text>
</g>
<!-- Node22&#45;&gt;Node20 -->
<g id="edge66" class="edge"><title>Node22&#45;&gt;Node20</title>
<path fill="none" stroke="#9a32cd" stroke-dasharray="5,2" d="M1469.86,-197.571C1502.01,-196.392 1540.3,-197.435 1574,-205 1589.96,-208.582 1606.58,-215.992 1619.92,-222.982"/>
<polygon fill="#9a32cd" stroke="#9a32cd" points="1469.49,-194.084 1459.65,-198.026 1469.8,-201.077 1469.49,-194.084"/>
<text text-anchor="middle" x="1526" y="-208" font-family="FreeSans" font-size="10.00"> Viewports</text>
</g>
<!-- Node23 -->
<g id="node57" class="node"><title>Node23</title>
<a xlink:href="classMezzanine_1_1Threading_1_1ThreadSpecificStorage.html" target="_top" xlink:title="A thread specific collection of double&#45;buffered and algorithm specific resources.">
<polygon fill="white" stroke="black" points="1082.5,-188 1082.5,-220 1201.5,-220 1201.5,-188 1082.5,-188"/>
<text text-anchor="start" x="1090.5" y="-207" font-family="FreeSans" font-size="10.00">Mezzanine::Threading</text>
<text text-anchor="middle" x="1142" y="-195" font-family="FreeSans" font-size="10.00">::ThreadSpecificStorage</text>
</a>
</g>
<!-- Node23&#45;&gt;Node1 -->
<g id="edge70" class="edge"><title>Node23&#45;&gt;Node1</title>
<path fill="none" stroke="#9a32cd" stroke-dasharray="5,2" d="M1211.61,-219.816C1245.11,-228.557 1285.41,-240.756 1320,-256 1339.83,-264.737 1360.71,-277.608 1376.02,-287.823"/>
<polygon fill="#9a32cd" stroke="#9a32cd" points="1212.45,-216.42 1201.9,-217.329 1210.72,-223.201 1212.45,-216.42"/>
<text text-anchor="middle" x="1274" y="-259" font-family="FreeSans" font-size="10.00"> ThreadResources</text>
</g>
<!-- Node24 -->
<g id="node59" class="node"><title>Node24</title>
<a xlink:href="classMezzanine_1_1Graphics_1_1RenderWorkUnit.html" target="_top" xlink:title="This does the main loop processing for required to make the Graphics Manager function.">
<polygon fill="white" stroke="black" points="1089.5,-514 1089.5,-546 1194.5,-546 1194.5,-514 1089.5,-514"/>
<text text-anchor="start" x="1097.5" y="-533" font-family="FreeSans" font-size="10.00">Mezzanine::Graphics</text>
<text text-anchor="middle" x="1142" y="-521" font-family="FreeSans" font-size="10.00">::RenderWorkUnit</text>
</a>
</g>
<!-- Node24&#45;&gt;Node1 -->
<g id="edge72" class="edge"><title>Node24&#45;&gt;Node1</title>
<path fill="none" stroke="#9a32cd" stroke-dasharray="5,2" d="M1204.37,-517.877C1241.64,-507.931 1287.83,-490.521 1320,-461 1363.61,-420.974 1386.49,-351.45 1395.02,-320.123"/>
<polygon fill="#9a32cd" stroke="#9a32cd" points="1203.44,-514.504 1194.61,-520.368 1205.17,-521.286 1203.44,-514.504"/>
<text text-anchor="middle" x="1274" y="-513" font-family="FreeSans" font-size="10.00"> RenderWork</text>
</g>
<!-- Node25 -->
<g id="node61" class="node"><title>Node25</title>
<a xlink:href="classMezzanine_1_1Threading_1_1MonopolyWorkUnit.html" target="_top" xlink:title="A kind of workunit given exclusive runtime so it can consume time on multiple threads.">
<polygon fill="white" stroke="black" points="855,-514 855,-546 965,-546 965,-514 855,-514"/>
<text text-anchor="start" x="863" y="-533" font-family="FreeSans" font-size="10.00">Mezzanine::Threading</text>
<text text-anchor="middle" x="910" y="-521" font-family="FreeSans" font-size="10.00">::MonopolyWorkUnit</text>
</a>
</g>
<!-- Node25&#45;&gt;Node24 -->
<g id="edge74" class="edge"><title>Node25&#45;&gt;Node24</title>
<path fill="none" stroke="midnightblue" d="M975.658,-530C1011.57,-530 1055.46,-530 1089.14,-530"/>
<polygon fill="midnightblue" stroke="midnightblue" points="975.275,-526.5 965.275,-530 975.275,-533.5 975.275,-526.5"/>
</g>
<!-- Node26 -->
<g id="node63" class="node"><title>Node26</title>
<a xlink:href="classMezzanine_1_1Threading_1_1DefaultWorkUnit.html" target="_top" xlink:title="Default implementation of WorkUnit. This represents on piece of work through time.">
<polygon fill="white" stroke="black" points="642,-514 642,-546 752,-546 752,-514 642,-514"/>
<text text-anchor="start" x="650" y="-533" font-family="FreeSans" font-size="10.00">Mezzanine::Threading</text>
<text text-anchor="middle" x="697" y="-521" font-family="FreeSans" font-size="10.00">::DefaultWorkUnit</text>
</a>
</g>
<!-- Node26&#45;&gt;Node25 -->
<g id="edge76" class="edge"><title>Node26&#45;&gt;Node25</title>
<path fill="none" stroke="midnightblue" d="M762.36,-530C791.923,-530 826.483,-530 854.732,-530"/>
<polygon fill="midnightblue" stroke="midnightblue" points="762.13,-526.5 752.13,-530 762.13,-533.5 762.13,-526.5"/>
</g>
<!-- Node27 -->
<g id="node65" class="node"><title>Node27</title>
<a xlink:href="classMezzanine_1_1Threading_1_1iWorkUnit.html" target="_top" xlink:title="Interface of a WorkUnit. This represents on piece of work through time.">
<polygon fill="white" stroke="black" points="130,-540 130,-572 240,-572 240,-540 130,-540"/>
<text text-anchor="start" x="138" y="-559" font-family="FreeSans" font-size="10.00">Mezzanine::Threading</text>
<text text-anchor="middle" x="185" y="-547" font-family="FreeSans" font-size="10.00">::iWorkUnit</text>
</a>
</g>
<!-- Node27&#45;&gt;Node26 -->
<g id="edge78" class="edge"><title>Node27&#45;&gt;Node26</title>
<path fill="none" stroke="midnightblue" d="M250.386,-559.758C252.957,-559.85 255.502,-559.932 258,-560 413.622,-564.26 453.561,-565.621 608,-546 618.902,-544.615 630.496,-542.791 641.589,-540.872"/>
<polygon fill="midnightblue" stroke="midnightblue" points="250.523,-556.261 240.39,-559.354 250.241,-563.255 250.523,-556.261"/>
</g>
<!-- Node28 -->
<g id="node67" class="node"><title>Node28</title>
<polygon fill="white" stroke="#bfbfbf" points="354.5,-514 354.5,-546 479.5,-546 479.5,-514 354.5,-514"/>
<text text-anchor="start" x="362.5" y="-533" font-family="FreeSans" font-size="10.00">std::vector&lt; Mezzanine</text>
<text text-anchor="middle" x="417" y="-521" font-family="FreeSans" font-size="10.00">::Threading::iWorkUnit * &gt;</text>
</g>
<!-- Node27&#45;&gt;Node28 -->
<g id="edge82" class="edge"><title>Node27&#45;&gt;Node28</title>
<path fill="none" stroke="#9a32cd" stroke-dasharray="5,2" d="M250.592,-548.649C283.133,-545.002 322.244,-540.619 354.37,-537.019"/>
<polygon fill="#9a32cd" stroke="#9a32cd" points="249.823,-545.213 240.275,-549.805 250.603,-552.17 249.823,-545.213"/>
<text text-anchor="middle" x="293" y="-550" font-family="FreeSans" font-size="10.00"> elements</text>
</g>
<!-- Node28&#45;&gt;Node26 -->
<g id="edge80" class="edge"><title>Node28&#45;&gt;Node26</title>
<path fill="none" stroke="#9a32cd" stroke-dasharray="5,2" d="M490.065,-530C537.57,-530 598.522,-530 641.945,-530"/>
<polygon fill="#9a32cd" stroke="#9a32cd" points="489.837,-526.5 479.837,-530 489.837,-533.5 489.837,-526.5"/>
<text text-anchor="middle" x="557" y="-533" font-family="FreeSans" font-size="10.00"> Dependencies</text>
</g>
<!-- Node29 -->
<g id="node70" class="node"><title>Node29</title>
<a xlink:href="structMezzanine_1_1DefaultRollingAverage.html" target="_top" xlink:title="Mezzanine::DefaultRolling\lAverage\&lt; Whole \&gt;">
<polygon fill="white" stroke="black" points="353.5,-464 353.5,-496 480.5,-496 480.5,-464 353.5,-464"/>
<text text-anchor="start" x="361.5" y="-483" font-family="FreeSans" font-size="10.00">Mezzanine::DefaultRolling</text>
<text text-anchor="middle" x="417" y="-471" font-family="FreeSans" font-size="10.00">Average&lt; Whole &gt;</text>
</a>
</g>
<!-- Node29&#45;&gt;Node26 -->
<g id="edge84" class="edge"><title>Node29&#45;&gt;Node26</title>
<path fill="none" stroke="#9a32cd" stroke-dasharray="5,2" d="M490.927,-493.129C526.349,-499.428 569.375,-507.09 608,-514 618.972,-515.963 630.704,-518.068 641.93,-520.085"/>
<polygon fill="#9a32cd" stroke="#9a32cd" points="491.13,-489.611 480.672,-491.306 489.904,-496.503 491.13,-489.611"/>
<text text-anchor="middle" x="557" y="-517" font-family="FreeSans" font-size="10.00"> PerformanceLog</text>
</g>
<!-- Node30&#45;&gt;Node1 -->
<g id="edge88" class="edge"><title>Node30&#45;&gt;Node1</title>
<path fill="none" stroke="#9a32cd" stroke-dasharray="5,2" d="M616.175,-368.113C666.661,-359.009 741.297,-348 807,-348 807,-348 807,-348 1142,-348 1213.52,-348 1294.66,-331.24 1346.29,-318.407"/>
<polygon fill="#9a32cd" stroke="#9a32cd" points="615.299,-364.715 606.095,-369.963 616.563,-371.6 615.299,-364.715"/>
<text text-anchor="middle" x="910" y="-363" font-family="FreeSans" font-size="10.00"> SupportedDevices</text>
<text text-anchor="middle" x="910" y="-351" font-family="FreeSans" font-size="10.00">SupportedResolutions</text>
</g>
<!-- Node31 -->
<g id="node76" class="node"><title>Node31</title>
<polygon fill="white" stroke="#bfbfbf" points="1095,-464 1095,-496 1189,-496 1189,-464 1095,-464"/>
<text text-anchor="start" x="1103" y="-483" font-family="FreeSans" font-size="10.00">std::vector&lt; Ogre::</text>
<text text-anchor="middle" x="1142" y="-471" font-family="FreeSans" font-size="10.00">Plugin * &gt;</text>
</g>
<!-- Node31&#45;&gt;Node1 -->
<g id="edge92" class="edge"><title>Node31&#45;&gt;Node1</title>
<path fill="none" stroke="#9a32cd" stroke-dasharray="5,2" d="M1198.88,-460.104C1202.68,-458.464 1206.42,-456.758 1210,-455 1261.81,-429.572 1275.2,-422.384 1320,-386 1345.17,-365.561 1370.51,-337.657 1385.47,-320.24"/>
<polygon fill="#9a32cd" stroke="#9a32cd" points="1197.26,-456.985 1189.36,-464.037 1199.94,-463.455 1197.26,-456.985"/>
<text text-anchor="middle" x="1274" y="-448" font-family="FreeSans" font-size="10.00"> RenderSystems</text>
</g>
</g>
</svg>
