<?xml version="1.0" encoding="UTF-8" standalone="no"?>
<!DOCTYPE svg PUBLIC "-//W3C//DTD SVG 1.1//EN"
 "http://www.w3.org/Graphics/SVG/1.1/DTD/svg11.dtd">
<!-- Generated by graphviz version 2.38.0 (20140413.2041)
 -->
<!-- Title: NetworkException Pages: 1 -->
<svg width="105pt" height="196pt"
 viewBox="0.00 0.00 105.00 196.00" xmlns="http://www.w3.org/2000/svg" xmlns:xlink="http://www.w3.org/1999/xlink">
<g id="graph0" class="graph" transform="scale(1 1) rotate(0) translate(4 192)">
<title>NetworkException</title>
<polygon fill="white" stroke="none" points="-4,4 -4,-192 101,-192 101,4 -4,4"/>
<!-- Node1 -->
<g id="node1" class="node"><title>Node1</title>
<polygon fill="#bfbfbf" stroke="black" points="-7.10543e-15,-0.5 -7.10543e-15,-19.5 97,-19.5 97,-0.5 -7.10543e-15,-0.5"/>
<text text-anchor="middle" x="48.5" y="-7.5" font-family="Helvetica,sans-Serif" font-size="10.00">NetworkException</text>
</g>
<!-- Node2 -->
<g id="node2" class="node"><title>Node2</title>
<g id="a_node2"><a xlink:href="classIOException.html" target="_top" xlink:title="Thrown when there was an issue with IO but very little was known about it. ">
<polygon fill="white" stroke="black" points="13,-56.5 13,-75.5 84,-75.5 84,-56.5 13,-56.5"/>
<text text-anchor="middle" x="48.5" y="-63.5" font-family="Helvetica,sans-Serif" font-size="10.00">IOException</text>
</a>
</g>
</g>
<!-- Node2&#45;&gt;Node1 -->
<g id="edge1" class="edge"><title>Node2&#45;&gt;Node1</title>
<path fill="none" stroke="midnightblue" d="M48.5,-45.8045C48.5,-36.9102 48.5,-26.7798 48.5,-19.7511"/>
<polygon fill="midnightblue" stroke="midnightblue" points="45.0001,-46.083 48.5,-56.083 52.0001,-46.083 45.0001,-46.083"/>
</g>
<!-- Node3 -->
<g id="node3" class="node"><title>Node3</title>
<g id="a_node3"><a xlink:href="classExceptionBase.html" target="_top" xlink:title="This is the exception thrown by most Mezzanine systems that can throw exceptions. ...">
<polygon fill="white" stroke="black" points="7,-112.5 7,-131.5 90,-131.5 90,-112.5 7,-112.5"/>
<text text-anchor="middle" x="48.5" y="-119.5" font-family="Helvetica,sans-Serif" font-size="10.00">ExceptionBase</text>
</a>
</g>
</g>
<!-- Node3&#45;&gt;Node2 -->
<g id="edge2" class="edge"><title>Node3&#45;&gt;Node2</title>
<path fill="none" stroke="midnightblue" d="M48.5,-101.805C48.5,-92.9102 48.5,-82.7798 48.5,-75.7511"/>
<polygon fill="midnightblue" stroke="midnightblue" points="45.0001,-102.083 48.5,-112.083 52.0001,-102.083 45.0001,-102.083"/>
</g>
<!-- Node4 -->
<g id="node4" class="node"><title>Node4</title>
<g id="a_node4"><a xlink:title="STL class. ">
<polygon fill="white" stroke="#bfbfbf" points="9.5,-168.5 9.5,-187.5 87.5,-187.5 87.5,-168.5 9.5,-168.5"/>
<text text-anchor="middle" x="48.5" y="-175.5" font-family="Helvetica,sans-Serif" font-size="10.00">std::exception</text>
</a>
</g>
</g>
<!-- Node4&#45;&gt;Node3 -->
<g id="edge3" class="edge"><title>Node4&#45;&gt;Node3</title>
<path fill="none" stroke="midnightblue" d="M48.5,-157.805C48.5,-148.91 48.5,-138.78 48.5,-131.751"/>
<polygon fill="midnightblue" stroke="midnightblue" points="45.0001,-158.083 48.5,-168.083 52.0001,-158.083 45.0001,-158.083"/>
</g>
</g>
</svg>
