<?xml version="1.0" encoding="UTF-8" standalone="no"?>
<!DOCTYPE svg PUBLIC "-//W3C//DTD SVG 1.1//EN"
 "http://www.w3.org/Graphics/SVG/1.1/DTD/svg11.dtd">
<!-- Generated by graphviz version 2.26.3 (20100126.1600)
 -->
<!-- Title: Mezzanine::UI::LineList Pages: 1 -->
<svg width="176pt" height="146pt"
 viewBox="0.00 0.00 176.00 146.00" xmlns="http://www.w3.org/2000/svg" xmlns:xlink="http://www.w3.org/1999/xlink">
<g id="graph1" class="graph" transform="scale(1 1) rotate(0) translate(4 142)">
<title>Mezzanine::UI::LineList</title>
<polygon fill="white" stroke="white" points="-4,5 -4,-142 173,-142 173,5 -4,5"/>
<!-- Node1 -->
<g id="node1" class="node"><title>Node1</title>
<polygon fill="#bfbfbf" stroke="black" points="21.5,-0.5 21.5,-21.5 146.5,-21.5 146.5,-0.5 21.5,-0.5"/>
<text text-anchor="middle" x="84" y="-8.5" font-family="FreeSans" font-size="10.00">Mezzanine::UI::LineList</text>
</g>
<!-- Node2 -->
<g id="node2" class="node"><title>Node2</title>
<a xlink:href="classMezzanine_1_1UI_1_1BasicRenderable.xhtml" target="_top" xlink:title="Base class for renderables that generate verticies.">
<polygon fill="white" stroke="black" points="0,-58.5 0,-79.5 168,-79.5 168,-58.5 0,-58.5"/>
<text text-anchor="middle" x="84" y="-66.5" font-family="FreeSans" font-size="10.00">Mezzanine::UI::BasicRenderable</text>
</a>
</g>
<!-- Node2&#45;&gt;Node1 -->
<g id="edge2" class="edge"><title>Node2&#45;&gt;Node1</title>
<path fill="none" stroke="midnightblue" d="M84,-48.1906C84,-39.1684 84,-28.9941 84,-21.5707"/>
<polygon fill="midnightblue" stroke="midnightblue" points="80.5001,-48.3619 84,-58.3619 87.5001,-48.3619 80.5001,-48.3619"/>
</g>
<!-- Node3 -->
<g id="node4" class="node"><title>Node3</title>
<a xlink:href="classMezzanine_1_1UI_1_1Renderable.xhtml" target="_top" xlink:title="Basic class for all structures that get inserted into the rendering hierarchy.">
<polygon fill="white" stroke="black" points="12.5,-116.5 12.5,-137.5 155.5,-137.5 155.5,-116.5 12.5,-116.5"/>
<text text-anchor="middle" x="84" y="-124.5" font-family="FreeSans" font-size="10.00">Mezzanine::UI::Renderable</text>
</a>
</g>
<!-- Node3&#45;&gt;Node2 -->
<g id="edge4" class="edge"><title>Node3&#45;&gt;Node2</title>
<path fill="none" stroke="midnightblue" d="M84,-106.191C84,-97.1684 84,-86.9941 84,-79.5707"/>
<polygon fill="midnightblue" stroke="midnightblue" points="80.5001,-106.362 84,-116.362 87.5001,-106.362 80.5001,-106.362"/>
</g>
</g>
</svg>
