<?xml version="1.0" encoding="UTF-8" standalone="no"?>
<!DOCTYPE svg PUBLIC "-//W3C//DTD SVG 1.1//EN"
 "http://www.w3.org/Graphics/SVG/1.1/DTD/svg11.dtd">
<!-- Generated by graphviz version 2.38.0 (20140413.2041)
 -->
<!-- Title: Mezzanine::Graphics::Procedural::BoxGenerator Pages: 1 -->
<svg width="580pt" height="171pt"
 viewBox="0.00 0.00 580.00 170.50" xmlns="http://www.w3.org/2000/svg" xmlns:xlink="http://www.w3.org/1999/xlink">
<g id="graph0" class="graph" transform="scale(1 1) rotate(0) translate(4 166.5)">
<title>Mezzanine::Graphics::Procedural::BoxGenerator</title>
<polygon fill="white" stroke="none" points="-4,4 -4,-166.5 576,-166.5 576,4 -4,4"/>
<!-- Node1 -->
<g id="node1" class="node"><title>Node1</title>
<polygon fill="#bfbfbf" stroke="black" points="437,-81.5 437,-111.5 572,-111.5 572,-81.5 437,-81.5"/>
<text text-anchor="start" x="445" y="-99.5" font-family="Helvetica,sans-Serif" font-size="10.00">Mezzanine::Graphics</text>
<text text-anchor="middle" x="504.5" y="-88.5" font-family="Helvetica,sans-Serif" font-size="10.00">::Procedural::BoxGenerator</text>
</g>
<!-- Node2 -->
<g id="node2" class="node"><title>Node2</title>
<g id="a_node2"><a xlink:href="classMezzanine_1_1Graphics_1_1Procedural_1_1MeshGenerator.html" target="_top" xlink:title="Mezzanine::Graphics\l::Procedural::MeshGenerator\l\&lt; BoxGenerator \&gt;">
<polygon fill="white" stroke="black" points="204,-76 204,-117 346,-117 346,-76 204,-76"/>
<text text-anchor="start" x="212" y="-105" font-family="Helvetica,sans-Serif" font-size="10.00">Mezzanine::Graphics</text>
<text text-anchor="start" x="212" y="-94" font-family="Helvetica,sans-Serif" font-size="10.00">::Procedural::MeshGenerator</text>
<text text-anchor="middle" x="275" y="-83" font-family="Helvetica,sans-Serif" font-size="10.00">&lt; BoxGenerator &gt;</text>
</a>
</g>
</g>
<!-- Node2&#45;&gt;Node1 -->
<g id="edge1" class="edge"><title>Node2&#45;&gt;Node1</title>
<path fill="none" stroke="midnightblue" d="M356.425,-96.5C382.698,-96.5 411.574,-96.5 436.731,-96.5"/>
<polygon fill="midnightblue" stroke="midnightblue" points="356.114,-93.0001 346.114,-96.5 356.114,-100 356.114,-93.0001"/>
</g>
<!-- Node3 -->
<g id="node3" class="node"><title>Node3</title>
<g id="a_node3"><a xlink:href="classMezzanine_1_1Vector2.html" target="_top" xlink:title="This is used to represent a point on a 2 dimentional area, such as a screen. ">
<polygon fill="white" stroke="black" points="6.5,-88 6.5,-107 110.5,-107 110.5,-88 6.5,-88"/>
<text text-anchor="middle" x="58.5" y="-95" font-family="Helvetica,sans-Serif" font-size="10.00">Mezzanine::Vector2</text>
</a>
</g>
</g>
<!-- Node3&#45;&gt;Node2 -->
<g id="edge2" class="edge"><title>Node3&#45;&gt;Node2</title>
<path fill="none" stroke="#9a32cd" stroke-dasharray="5,2" d="M120.679,-97.2148C146.611,-97.0939 176.98,-96.9523 203.817,-96.8272"/>
<polygon fill="#9a32cd" stroke="#9a32cd" points="120.589,-93.7151 110.606,-97.2617 120.622,-100.715 120.589,-93.7151"/>
<text text-anchor="middle" x="160.5" y="-100.5" font-family="Helvetica,sans-Serif" font-size="10.00"> UVOrigin</text>
</g>
<!-- Node4 -->
<g id="node4" class="node"><title>Node4</title>
<g id="a_node4"><a xlink:href="classMezzanine_1_1Vector3.html" target="_top" xlink:title="This is used to represent a point in space, or a vector through space. ">
<polygon fill="white" stroke="black" points="6.5,-142 6.5,-161 110.5,-161 110.5,-142 6.5,-142"/>
<text text-anchor="middle" x="58.5" y="-149" font-family="Helvetica,sans-Serif" font-size="10.00">Mezzanine::Vector3</text>
</a>
</g>
</g>
<!-- Node4&#45;&gt;Node1 -->
<g id="edge5" class="edge"><title>Node4&#45;&gt;Node1</title>
<path fill="none" stroke="#9a32cd" stroke-dasharray="5,2" d="M120.921,-154.92C141.625,-155.421 164.841,-155.273 186,-153.5 275.013,-146.042 376.357,-125.751 440.112,-111.513"/>
<polygon fill="#9a32cd" stroke="#9a32cd" points="120.765,-151.414 110.665,-154.615 120.556,-158.411 120.765,-151.414"/>
<text text-anchor="middle" x="275" y="-154.5" font-family="Helvetica,sans-Serif" font-size="10.00"> BoxHalf</text>
</g>
<!-- Node4&#45;&gt;Node2 -->
<g id="edge3" class="edge"><title>Node4&#45;&gt;Node2</title>
<path fill="none" stroke="#9a32cd" stroke-dasharray="5,2" d="M104.89,-139.379C114.807,-136.758 125.252,-134.018 135,-131.5 157.408,-125.711 181.879,-119.509 203.957,-113.958"/>
<polygon fill="#9a32cd" stroke="#9a32cd" points="103.964,-136.004 95.1941,-141.948 105.757,-142.77 103.964,-136.004"/>
<text text-anchor="middle" x="160.5" y="-145.5" font-family="Helvetica,sans-Serif" font-size="10.00"> Scale</text>
<text text-anchor="middle" x="160.5" y="-134.5" font-family="Helvetica,sans-Serif" font-size="10.00">Position</text>
</g>
<!-- Node5 -->
<g id="node5" class="node"><title>Node5</title>
<g id="a_node5"><a xlink:href="classMezzanine_1_1Quaternion.html" target="_top" xlink:title="This is used to store information about rotation in 3d space. ">
<polygon fill="white" stroke="black" points="0,-50 0,-69 117,-69 117,-50 0,-50"/>
<text text-anchor="middle" x="58.5" y="-57" font-family="Helvetica,sans-Serif" font-size="10.00">Mezzanine::Quaternion</text>
</a>
</g>
</g>
<!-- Node5&#45;&gt;Node2 -->
<g id="edge4" class="edge"><title>Node5&#45;&gt;Node2</title>
<path fill="none" stroke="#9a32cd" stroke-dasharray="5,2" d="M124.856,-70.7735C149.872,-75.0886 178.495,-80.026 203.934,-84.414"/>
<polygon fill="#9a32cd" stroke="#9a32cd" points="125.189,-67.2793 114.739,-69.0284 123.999,-74.1774 125.189,-67.2793"/>
<text text-anchor="middle" x="160.5" y="-84.5" font-family="Helvetica,sans-Serif" font-size="10.00"> Orientation</text>
</g>
<!-- Node6 -->
<g id="node6" class="node"><title>Node6</title>
<g id="a_node6"><a xlink:title="STL class. ">
<polygon fill="white" stroke="#bfbfbf" points="245,-6 245,-25 305,-25 305,-6 245,-6"/>
<text text-anchor="middle" x="275" y="-13" font-family="Helvetica,sans-Serif" font-size="10.00">std::string</text>
</a>
</g>
</g>
<!-- Node6&#45;&gt;Node1 -->
<g id="edge6" class="edge"><title>Node6&#45;&gt;Node1</title>
<path fill="none" stroke="#9a32cd" stroke-dasharray="5,2" d="M315.453,-12.2427C345.016,-11.2728 385.9,-13.1144 419,-26.5 448.493,-38.4271 475.466,-64.5817 490.656,-81.3258"/>
<polygon fill="#9a32cd" stroke="#9a32cd" points="314.94,-8.7622 305.108,-12.711 315.256,-15.755 314.94,-8.7622"/>
<text text-anchor="middle" x="391.5" y="-84.5" font-family="Helvetica,sans-Serif" font-size="10.00"> TAG_Z</text>
<text text-anchor="middle" x="391.5" y="-73.5" font-family="Helvetica,sans-Serif" font-size="10.00">TAG_NEGX</text>
<text text-anchor="middle" x="391.5" y="-62.5" font-family="Helvetica,sans-Serif" font-size="10.00">TAG_NEGY</text>
<text text-anchor="middle" x="391.5" y="-51.5" font-family="Helvetica,sans-Serif" font-size="10.00">TAG_NEGZ</text>
<text text-anchor="middle" x="391.5" y="-40.5" font-family="Helvetica,sans-Serif" font-size="10.00">TAG_X</text>
<text text-anchor="middle" x="391.5" y="-29.5" font-family="Helvetica,sans-Serif" font-size="10.00">TAG_Y</text>
</g>
<!-- Node7 -->
<g id="node7" class="node"><title>Node7</title>
<g id="a_node7"><a xlink:title="STL class. ">
<polygon fill="white" stroke="#bfbfbf" points="11,-0.5 11,-30.5 106,-30.5 106,-0.5 11,-0.5"/>
<text text-anchor="start" x="19" y="-18.5" font-family="Helvetica,sans-Serif" font-size="10.00">std::basic_string&lt;</text>
<text text-anchor="middle" x="58.5" y="-7.5" font-family="Helvetica,sans-Serif" font-size="10.00"> char &gt;</text>
</a>
</g>
</g>
<!-- Node7&#45;&gt;Node6 -->
<g id="edge7" class="edge"><title>Node7&#45;&gt;Node6</title>
<path fill="none" stroke="midnightblue" d="M116.271,-15.5C157.685,-15.5 212.109,-15.5 244.997,-15.5"/>
<polygon fill="midnightblue" stroke="midnightblue" points="116.043,-12.0001 106.043,-15.5 116.043,-19.0001 116.043,-12.0001"/>
</g>
</g>
</svg>
