<?xml version="1.0" encoding="UTF-8" standalone="no"?>
<!DOCTYPE svg PUBLIC "-//W3C//DTD SVG 1.1//EN"
 "http://www.w3.org/Graphics/SVG/1.1/DTD/svg11.dtd">
<!-- Generated by graphviz version 2.26.3 (20100126.1600)
 -->
<!-- Title: Mezzanine::HashedString32 Pages: 1 -->
<svg width="148pt" height="176pt"
 viewBox="0.00 0.00 148.00 176.00" xmlns="http://www.w3.org/2000/svg" xmlns:xlink="http://www.w3.org/1999/xlink">
<g id="graph1" class="graph" transform="scale(1 1) rotate(0) translate(4 172)">
<title>Mezzanine::HashedString32</title>
<polygon fill="white" stroke="white" points="-4,5 -4,-172 145,-172 145,5 -4,5"/>
<!-- Node1 -->
<g id="node1" class="node"><title>Node1</title>
<polygon fill="#bfbfbf" stroke="black" points="0,-0.5 0,-21.5 140,-21.5 140,-0.5 0,-0.5"/>
<text text-anchor="middle" x="70" y="-8.5" font-family="Helvetica,sans-Serif" font-size="10.00">Mezzanine::HashedString32</text>
</g>
<!-- Node2 -->
<g id="node2" class="node"><title>Node2</title>
<a xlink:title="STL class. ">
<polygon fill="white" stroke="#bfbfbf" points="40,-72.5 40,-93.5 100,-93.5 100,-72.5 40,-72.5"/>
<text text-anchor="middle" x="70" y="-80.5" font-family="Helvetica,sans-Serif" font-size="10.00">std::string</text>
</a>
</g>
<!-- Node2&#45;&gt;Node1 -->
<g id="edge2" class="edge"><title>Node2&#45;&gt;Node1</title>
<path fill="none" stroke="#9a32cd" stroke-dasharray="5,2" d="M70,-62.2348C70,-48.969 70,-32.3188 70,-21.6674"/>
<polygon fill="#9a32cd" stroke="#9a32cd" points="66.5001,-62.3761 70,-72.3762 73.5001,-62.3762 66.5001,-62.3761"/>
<text text-anchor="middle" x="93" y="-44.5" font-family="Helvetica,sans-Serif" font-size="10.00"> TheString</text>
</g>
<!-- Node3 -->
<g id="node4" class="node"><title>Node3</title>
<a xlink:title="STL class. ">
<polygon fill="white" stroke="#bfbfbf" points="22.5,-133 22.5,-167 117.5,-167 117.5,-133 22.5,-133"/>
<text text-anchor="start" x="30.5" y="-154" font-family="Helvetica,sans-Serif" font-size="10.00">std::basic_string&lt;</text>
<text text-anchor="middle" x="70" y="-141" font-family="Helvetica,sans-Serif" font-size="10.00"> char &gt;</text>
</a>
</g>
<!-- Node3&#45;&gt;Node2 -->
<g id="edge4" class="edge"><title>Node3&#45;&gt;Node2</title>
<path fill="none" stroke="midnightblue" d="M70,-122.534C70,-112.306 70,-101.301 70,-93.5056"/>
<polygon fill="midnightblue" stroke="midnightblue" points="66.5001,-122.746 70,-132.746 73.5001,-122.746 66.5001,-122.746"/>
</g>
</g>
</svg>
