<?xml version="1.0" encoding="UTF-8" standalone="no"?>
<!DOCTYPE svg PUBLIC "-//W3C//DTD SVG 1.1//EN"
 "http://www.w3.org/Graphics/SVG/1.1/DTD/svg11.dtd">
<!-- Generated by graphviz version 2.26.3 (20100126.1600)
 -->
<!-- Title: Mezzanine::Scripting::iScriptArgument Pages: 1 -->
<svg width="154pt" height="112pt"
 viewBox="0.00 0.00 154.00 112.00" xmlns="http://www.w3.org/2000/svg" xmlns:xlink="http://www.w3.org/1999/xlink">
<g id="graph1" class="graph" transform="scale(1 1) rotate(0) translate(4 108)">
<title>Mezzanine::Scripting::iScriptArgument</title>
<polygon fill="white" stroke="white" points="-4,5 -4,-108 151,-108 151,5 -4,5"/>
<!-- Node1 -->
<g id="node1" class="node"><title>Node1</title>
<polygon fill="#bfbfbf" stroke="black" points="20.5,-71 20.5,-103 125.5,-103 125.5,-71 20.5,-71"/>
<text text-anchor="start" x="28.5" y="-90" font-family="FreeSans" font-size="10.00">Mezzanine::Scripting</text>
<text text-anchor="middle" x="73" y="-78" font-family="FreeSans" font-size="10.00">::iScriptArgument</text>
</g>
<!-- Node2 -->
<g id="node3" class="node"><title>Node2</title>
<a xlink:href="classMezzanine_1_1Scripting_1_1ScriptArgumentSpecific.xhtml" target="_top" xlink:title="A generic implementation of a ScriptArgument that is suitable for primitive types in most situations...">
<polygon fill="white" stroke="black" points="0,-1 0,-33 146,-33 146,-1 0,-1"/>
<text text-anchor="start" x="8" y="-20" font-family="FreeSans" font-size="10.00">Mezzanine::Scripting</text>
<text text-anchor="middle" x="73" y="-8" font-family="FreeSans" font-size="10.00">::ScriptArgumentSpecific&lt; T &gt;</text>
</a>
</g>
<!-- Node1&#45;&gt;Node2 -->
<g id="edge2" class="edge"><title>Node1&#45;&gt;Node2</title>
<path fill="none" stroke="midnightblue" d="M73,-60.5079C73,-51.3027 73,-41.2615 73,-33.1473"/>
<polygon fill="midnightblue" stroke="midnightblue" points="69.5001,-60.7646 73,-70.7646 76.5001,-60.7647 69.5001,-60.7646"/>
</g>
</g>
</svg>
