<?xml version="1.0" encoding="UTF-8" standalone="no"?>
<!DOCTYPE svg PUBLIC "-//W3C//DTD SVG 1.1//EN"
 "http://www.w3.org/Graphics/SVG/1.1/DTD/svg11.dtd">
<!-- Generated by graphviz version 2.26.3 (20100126.1600)
 -->
<!-- Title: Mezzanine::EventArguments Pages: 1 -->
<svg width="144pt" height="172pt"
 viewBox="0.00 0.00 144.00 172.00" xmlns="http://www.w3.org/2000/svg" xmlns:xlink="http://www.w3.org/1999/xlink">
<g id="graph1" class="graph" transform="scale(1 1) rotate(0) translate(4 168)">
<title>Mezzanine::EventArguments</title>
<polygon fill="white" stroke="white" points="-4,5 -4,-168 141,-168 141,5 -4,5"/>
<!-- Node1 -->
<g id="node1" class="node"><title>Node1</title>
<polygon fill="#bfbfbf" stroke="black" points="-0.5,-1 -0.5,-21 136.5,-21 136.5,-1 -0.5,-1"/>
<text text-anchor="middle" x="68" y="-8" font-family="FreeSans" font-size="10.00">Mezzanine::EventArguments</text>
</g>
<!-- Node2 -->
<g id="node2" class="node"><title>Node2</title>
<a xlink:title="STL class. ">
<polygon fill="white" stroke="#bfbfbf" points="39.5,-71 39.5,-91 96.5,-91 96.5,-71 39.5,-71"/>
<text text-anchor="middle" x="68" y="-78" font-family="FreeSans" font-size="10.00">std::string</text>
</a>
</g>
<!-- Node2&#45;&gt;Node1 -->
<g id="edge2" class="edge"><title>Node2&#45;&gt;Node1</title>
<path fill="none" stroke="#9a32cd" stroke-dasharray="5,2" d="M68,-60.6126C68,-47.5971 68,-31.2956 68,-21.0107"/>
<polygon fill="#9a32cd" stroke="#9a32cd" points="64.5001,-60.9707 68,-70.9707 71.5001,-60.9707 64.5001,-60.9707"/>
<text text-anchor="middle" x="94" y="-43" font-family="FreeSans" font-size="10.00"> EventName</text>
</g>
<!-- Node3 -->
<g id="node4" class="node"><title>Node3</title>
<a xlink:title="STL class. ">
<polygon fill="white" stroke="#bfbfbf" points="22.5,-131 22.5,-163 113.5,-163 113.5,-131 22.5,-131"/>
<text text-anchor="start" x="30.5" y="-150" font-family="FreeSans" font-size="10.00">std::basic_string&lt;</text>
<text text-anchor="middle" x="68" y="-138" font-family="FreeSans" font-size="10.00"> char &gt;</text>
</a>
</g>
<!-- Node3&#45;&gt;Node2 -->
<g id="edge4" class="edge"><title>Node3&#45;&gt;Node2</title>
<path fill="none" stroke="midnightblue" d="M68,-120.45C68,-110.156 68,-98.9909 68,-91.1746"/>
<polygon fill="midnightblue" stroke="midnightblue" points="64.5001,-120.685 68,-130.685 71.5001,-120.685 64.5001,-120.685"/>
</g>
</g>
</svg>
