<?xml version="1.0" encoding="UTF-8" standalone="no"?>
<!DOCTYPE svg PUBLIC "-//W3C//DTD SVG 1.1//EN"
 "http://www.w3.org/Graphics/SVG/1.1/DTD/svg11.dtd">
<!-- Generated by graphviz version 2.26.3 (20100126.1600)
 -->
<!-- Title: Mezzanine::UI::Sprite Pages: 1 -->
<svg width="1716pt" height="342pt"
 viewBox="0.00 0.00 1716.00 342.00" xmlns="http://www.w3.org/2000/svg" xmlns:xlink="http://www.w3.org/1999/xlink">
<g id="graph1" class="graph" transform="scale(1 1) rotate(0) translate(4 338)">
<title>Mezzanine::UI::Sprite</title>
<polygon fill="white" stroke="white" points="-4,5 -4,-338 1713,-338 1713,5 -4,5"/>
<!-- Node1 -->
<g id="node1" class="node"><title>Node1</title>
<polygon fill="#bfbfbf" stroke="black" points="260,-199.5 260,-220.5 372,-220.5 372,-199.5 260,-199.5"/>
<text text-anchor="middle" x="316" y="-207.5" font-family="Helvetica,sans-Serif" font-size="10.00">Mezzanine::UI::Sprite</text>
</g>
<!-- Node12 -->
<g id="node28" class="node"><title>Node12</title>
<polygon fill="white" stroke="#bfbfbf" points="462.5,-271.5 462.5,-292.5 599.5,-292.5 599.5,-271.5 462.5,-271.5"/>
<text text-anchor="middle" x="531" y="-279.5" font-family="Helvetica,sans-Serif" font-size="10.00">std::map&lt; String, Sprite * &gt;</text>
</g>
<!-- Node1&#45;&gt;Node12 -->
<g id="edge36" class="edge"><title>Node1&#45;&gt;Node12</title>
<path fill="none" stroke="#9a32cd" stroke-dasharray="5,2" d="M381.955,-221.908C402.044,-227.194 423.65,-234.642 442,-245 451.583,-250.409 450.427,-256.573 460,-262 466.684,-265.789 474.136,-268.901 481.627,-271.444"/>
<polygon fill="#9a32cd" stroke="#9a32cd" points="382.785,-218.508 372.236,-219.483 381.091,-225.299 382.785,-218.508"/>
<text text-anchor="middle" x="416" y="-249" font-family="Helvetica,sans-Serif" font-size="10.00"> elements</text>
</g>
<!-- Node2 -->
<g id="node2" class="node"><title>Node2</title>
<a xlink:title="STL class. ">
<polygon fill="white" stroke="#bfbfbf" points="134,-199.5 134,-220.5 194,-220.5 194,-199.5 134,-199.5"/>
<text text-anchor="middle" x="164" y="-207.5" font-family="Helvetica,sans-Serif" font-size="10.00">std::string</text>
</a>
</g>
<!-- Node2&#45;&gt;Node1 -->
<g id="edge2" class="edge"><title>Node2&#45;&gt;Node1</title>
<path fill="none" stroke="#9a32cd" stroke-dasharray="5,2" d="M204.199,-210C221.247,-210 241.409,-210 259.885,-210"/>
<polygon fill="#9a32cd" stroke="#9a32cd" points="204.03,-206.5 194.03,-210 204.03,-213.5 204.03,-206.5"/>
<text text-anchor="middle" x="227" y="-214" font-family="Helvetica,sans-Serif" font-size="10.00"> Name</text>
</g>
<!-- Node4 -->
<g id="node6" class="node"><title>Node4</title>
<a xlink:href="classMezzanine_1_1UI_1_1TextureAtlas.html" target="_top" xlink:title="Mezzanine::UI::TextureAtlas">
<polygon fill="white" stroke="black" points="726,-155.5 726,-176.5 868,-176.5 868,-155.5 726,-155.5"/>
<text text-anchor="middle" x="797" y="-163.5" font-family="Helvetica,sans-Serif" font-size="10.00">Mezzanine::UI::TextureAtlas</text>
</a>
</g>
<!-- Node2&#45;&gt;Node4 -->
<g id="edge40" class="edge"><title>Node2&#45;&gt;Node4</title>
<path fill="none" stroke="#9a32cd" stroke-dasharray="5,2" d="M204.279,-200.334C221.37,-196.565 241.565,-192.546 260,-190 425.707,-167.112 622.636,-164.509 725.823,-165.006"/>
<polygon fill="#9a32cd" stroke="#9a32cd" points="203.067,-197.019 194.082,-202.633 204.607,-203.848 203.067,-197.019"/>
<text text-anchor="middle" x="416" y="-179" font-family="Helvetica,sans-Serif" font-size="10.00"> AtlasName</text>
</g>
<!-- Node6 -->
<g id="node10" class="node"><title>Node6</title>
<polygon fill="white" stroke="#bfbfbf" points="1556,-197.5 1556,-218.5 1708,-218.5 1708,-197.5 1556,-197.5"/>
<text text-anchor="middle" x="1632" y="-205.5" font-family="Helvetica,sans-Serif" font-size="10.00">std::map&lt; String, FontData * &gt;</text>
</g>
<!-- Node2&#45;&gt;Node6 -->
<g id="edge32" class="edge"><title>Node2&#45;&gt;Node6</title>
<path fill="none" stroke="#9a32cd" stroke-dasharray="5,2" d="M177.32,-229.131C201.162,-260.88 254.437,-321 316,-321 316,-321 316,-321 1412,-321 1500.88,-321 1589.87,-247.118 1620.67,-218.835"/>
<polygon fill="#9a32cd" stroke="#9a32cd" points="179.856,-226.667 171.14,-220.643 174.197,-230.788 179.856,-226.667"/>
<text text-anchor="middle" x="907" y="-325" font-family="Helvetica,sans-Serif" font-size="10.00"> keys</text>
</g>
<!-- Node7 -->
<g id="node12" class="node"><title>Node7</title>
<a xlink:href="classMezzanine_1_1UI_1_1FontData.html" target="_top" xlink:title="This class represents a collection of Glyphs in a common visual style. ">
<polygon fill="white" stroke="black" points="1348.5,-112.5 1348.5,-133.5 1475.5,-133.5 1475.5,-112.5 1348.5,-112.5"/>
<text text-anchor="middle" x="1412" y="-120.5" font-family="Helvetica,sans-Serif" font-size="10.00">Mezzanine::UI::FontData</text>
</a>
</g>
<!-- Node2&#45;&gt;Node7 -->
<g id="edge14" class="edge"><title>Node2&#45;&gt;Node7</title>
<path fill="none" stroke="#9a32cd" stroke-dasharray="5,2" d="M168.459,-189.347C181.229,-136.408 223.141,-0 316,-0 316,-0 316,-0 1208,-0 1294.43,-0 1375.71,-81.9819 1402.64,-112.085"/>
<polygon fill="#9a32cd" stroke="#9a32cd" points="165.001,-188.767 166.169,-199.297 171.823,-190.337 165.001,-188.767"/>
<text text-anchor="middle" x="797" y="-4" font-family="Helvetica,sans-Serif" font-size="10.00"> FontName</text>
</g>
<!-- Node2&#45;&gt;Node12 -->
<g id="edge38" class="edge"><title>Node2&#45;&gt;Node12</title>
<path fill="none" stroke="#9a32cd" stroke-dasharray="5,2" d="M200.887,-223.762C204.615,-224.942 208.366,-226.047 212,-227 297.076,-249.305 397.351,-264.893 462.447,-273.641"/>
<polygon fill="#9a32cd" stroke="#9a32cd" points="201.76,-220.363 191.167,-220.514 199.542,-227.003 201.76,-220.363"/>
<text text-anchor="middle" x="316" y="-263" font-family="Helvetica,sans-Serif" font-size="10.00"> keys</text>
</g>
<!-- Node3 -->
<g id="node4" class="node"><title>Node3</title>
<a xlink:title="STL class. ">
<polygon fill="white" stroke="#bfbfbf" points="0.5,-193 0.5,-227 95.5,-227 95.5,-193 0.5,-193"/>
<text text-anchor="start" x="8.5" y="-214" font-family="Helvetica,sans-Serif" font-size="10.00">std::basic_string&lt;</text>
<text text-anchor="middle" x="48" y="-201" font-family="Helvetica,sans-Serif" font-size="10.00"> char &gt;</text>
</a>
</g>
<!-- Node3&#45;&gt;Node2 -->
<g id="edge4" class="edge"><title>Node3&#45;&gt;Node2</title>
<path fill="none" stroke="midnightblue" d="M105.582,-210C115.29,-210 125.014,-210 133.666,-210"/>
<polygon fill="midnightblue" stroke="midnightblue" points="105.516,-206.5 95.5163,-210 105.516,-213.5 105.516,-206.5"/>
</g>
<!-- Node4&#45;&gt;Node1 -->
<g id="edge6" class="edge"><title>Node4&#45;&gt;Node1</title>
<path fill="none" stroke="#9a32cd" stroke-dasharray="5,2" d="M715.528,-173.453C617.881,-182.385 456.847,-197.116 372.118,-204.867"/>
<polygon fill="#9a32cd" stroke="#9a32cd" points="716.011,-176.923 725.651,-172.527 715.373,-169.952 716.011,-176.923"/>
<text text-anchor="middle" x="531" y="-200" font-family="Helvetica,sans-Serif" font-size="10.00"> Atlas</text>
</g>
<!-- Node4&#45;&gt;Node7 -->
<g id="edge16" class="edge"><title>Node4&#45;&gt;Node7</title>
<path fill="none" stroke="#9a32cd" stroke-dasharray="5,2" d="M878.504,-162.348C974.183,-158.003 1137.64,-150.404 1278,-143 1301.12,-141.78 1307.05,-143.024 1330,-140 1342.11,-138.404 1355.1,-136.026 1367.09,-133.549"/>
<polygon fill="#9a32cd" stroke="#9a32cd" points="878.15,-158.86 868.319,-162.809 878.467,-165.853 878.15,-158.86"/>
<text text-anchor="middle" x="1098" y="-156" font-family="Helvetica,sans-Serif" font-size="10.00"> Atlas</text>
</g>
<!-- Node9 -->
<g id="node18" class="node"><title>Node9</title>
<a xlink:href="classMezzanine_1_1UI_1_1Glyph.html" target="_top" xlink:title="Class used to describe a single glyph or character available for text operations. ...">
<polygon fill="white" stroke="black" points="946,-78.5 946,-99.5 1058,-99.5 1058,-78.5 946,-78.5"/>
<text text-anchor="middle" x="1002" y="-86.5" font-family="Helvetica,sans-Serif" font-size="10.00">Mezzanine::UI::Glyph</text>
</a>
</g>
<!-- Node4&#45;&gt;Node9 -->
<g id="edge30" class="edge"><title>Node4&#45;&gt;Node9</title>
<path fill="none" stroke="#9a32cd" stroke-dasharray="5,2" d="M834.54,-151.9C874.791,-136.781 937.776,-113.123 973.936,-99.541"/>
<polygon fill="#9a32cd" stroke="#9a32cd" points="833.205,-148.662 825.075,-155.455 835.667,-155.215 833.205,-148.662"/>
<text text-anchor="middle" x="907" y="-136" font-family="Helvetica,sans-Serif" font-size="10.00"> Atlas</text>
</g>
<!-- Node5 -->
<g id="node8" class="node"><title>Node5</title>
<a xlink:href="classMezzanine_1_1Vector2.html" target="_top" xlink:title="This is used to represent a point on a 2 dimentional area, such as a screen. ">
<polygon fill="white" stroke="black" points="479,-85.5 479,-106.5 583,-106.5 583,-85.5 479,-85.5"/>
<text text-anchor="middle" x="531" y="-93.5" font-family="Helvetica,sans-Serif" font-size="10.00">Mezzanine::Vector2</text>
</a>
</g>
<!-- Node5&#45;&gt;Node4 -->
<g id="edge8" class="edge"><title>Node5&#45;&gt;Node4</title>
<path fill="none" stroke="#9a32cd" stroke-dasharray="5,2" d="M593.405,-100.927C627.775,-104.777 670.869,-111.485 708,-123 733.896,-131.031 761.729,-145.529 779.243,-155.451"/>
<polygon fill="#9a32cd" stroke="#9a32cd" points="593.35,-97.4015 583.035,-99.8222 592.608,-104.362 593.35,-97.4015"/>
<text text-anchor="middle" x="664" y="-140" font-family="Helvetica,sans-Serif" font-size="10.00"> InverseTextureSize</text>
<text text-anchor="middle" x="664" y="-127" font-family="Helvetica,sans-Serif" font-size="10.00">WhitePixel</text>
</g>
<!-- Node5&#45;&gt;Node9 -->
<g id="edge22" class="edge"><title>Node5&#45;&gt;Node9</title>
<path fill="none" stroke="#9a32cd" stroke-dasharray="5,2" d="M593.241,-95.075C685.538,-93.7033 857.304,-91.1505 945.913,-89.8336"/>
<polygon fill="#9a32cd" stroke="#9a32cd" points="593.152,-91.5758 583.205,-95.2241 593.256,-98.575 593.152,-91.5758"/>
<text text-anchor="middle" x="797" y="-97" font-family="Helvetica,sans-Serif" font-size="10.00"> AtlasCoords</text>
</g>
<!-- Node6&#45;&gt;Node4 -->
<g id="edge10" class="edge"><title>Node6&#45;&gt;Node4</title>
<path fill="none" stroke="#9a32cd" stroke-dasharray="5,2" d="M1545.76,-208C1505.18,-208 1456.1,-208 1412,-208 1002,-208 1002,-208 1002,-208 939.513,-208 868.453,-189.041 828.547,-176.598"/>
<polygon fill="#9a32cd" stroke="#9a32cd" points="1545.89,-211.5 1555.89,-208 1545.89,-204.5 1545.89,-211.5"/>
<text text-anchor="middle" x="1208" y="-212" font-family="Helvetica,sans-Serif" font-size="10.00"> Fonts</text>
</g>
<!-- Node7&#45;&gt;Node6 -->
<g id="edge12" class="edge"><title>Node7&#45;&gt;Node6</title>
<path fill="none" stroke="#9a32cd" stroke-dasharray="5,2" d="M1448.88,-137.248C1492.84,-154.233 1565.28,-182.223 1604.58,-197.407"/>
<polygon fill="#9a32cd" stroke="#9a32cd" points="1450.01,-133.933 1439.42,-133.593 1447.48,-140.462 1450.01,-133.933"/>
<text text-anchor="middle" x="1516" y="-174" font-family="Helvetica,sans-Serif" font-size="10.00"> elements</text>
</g>
<!-- Node7&#45;&gt;Node9 -->
<g id="edge24" class="edge"><title>Node7&#45;&gt;Node9</title>
<path fill="none" stroke="#9a32cd" stroke-dasharray="5,2" d="M1368.9,-109.615C1342.87,-102.228 1308.86,-93.8006 1278,-90 1202.26,-80.6724 1113.95,-82.5626 1058.01,-85.3237"/>
<polygon fill="#9a32cd" stroke="#9a32cd" points="1368.24,-113.068 1378.82,-112.488 1370.19,-106.344 1368.24,-113.068"/>
<text text-anchor="middle" x="1208" y="-94" font-family="Helvetica,sans-Serif" font-size="10.00"> Font</text>
</g>
<!-- Node8 -->
<g id="node16" class="node"><title>Node8</title>
<polygon fill="white" stroke="#bfbfbf" points="1138,-112.5 1138,-133.5 1278,-133.5 1278,-112.5 1138,-112.5"/>
<text text-anchor="middle" x="1208" y="-120.5" font-family="Helvetica,sans-Serif" font-size="10.00">std::map&lt; UInt32, Glyph * &gt;</text>
</g>
<!-- Node8&#45;&gt;Node7 -->
<g id="edge18" class="edge"><title>Node8&#45;&gt;Node7</title>
<path fill="none" stroke="#9a32cd" stroke-dasharray="5,2" d="M1288.45,-123C1308.28,-123 1329.25,-123 1348.17,-123"/>
<polygon fill="#9a32cd" stroke="#9a32cd" points="1288.21,-119.5 1278.21,-123 1288.21,-126.5 1288.21,-119.5"/>
<text text-anchor="middle" x="1313" y="-127" font-family="Helvetica,sans-Serif" font-size="10.00"> Glyphs</text>
</g>
<!-- Node9&#45;&gt;Node8 -->
<g id="edge20" class="edge"><title>Node9&#45;&gt;Node8</title>
<path fill="none" stroke="#9a32cd" stroke-dasharray="5,2" d="M1067.93,-99.8819C1092.4,-103.921 1120.09,-108.491 1144.35,-112.495"/>
<polygon fill="#9a32cd" stroke="#9a32cd" points="1068.45,-96.421 1058.02,-98.2457 1067.31,-103.328 1068.45,-96.421"/>
<text text-anchor="middle" x="1098" y="-112" font-family="Helvetica,sans-Serif" font-size="10.00"> elements</text>
</g>
<!-- Node10 -->
<g id="node22" class="node"><title>Node10</title>
<polygon fill="white" stroke="#bfbfbf" points="731.5,-31.5 731.5,-52.5 862.5,-52.5 862.5,-31.5 731.5,-31.5"/>
<text text-anchor="middle" x="797" y="-39.5" font-family="Helvetica,sans-Serif" font-size="10.00">std::vector&lt; KerningInfo &gt;</text>
</g>
<!-- Node10&#45;&gt;Node9 -->
<g id="edge26" class="edge"><title>Node10&#45;&gt;Node9</title>
<path fill="none" stroke="#9a32cd" stroke-dasharray="5,2" d="M872.808,-50.9619C891.025,-53.8322 910.323,-57.4736 928,-62 944.693,-66.2744 962.88,-72.8819 977.047,-78.4904"/>
<polygon fill="#9a32cd" stroke="#9a32cd" points="873.227,-47.4855 862.815,-49.4458 872.177,-54.4063 873.227,-47.4855"/>
<text text-anchor="middle" x="907" y="-66" font-family="Helvetica,sans-Serif" font-size="10.00"> Kernings</text>
</g>
<!-- Node11 -->
<g id="node24" class="node"><title>Node11</title>
<a xlink:href="structMezzanine_1_1UI_1_1KerningInfo.html" target="_top" xlink:title="Basic class used to describe Kerning for a given Glyph. ">
<polygon fill="white" stroke="black" points="463,-31.5 463,-52.5 599,-52.5 599,-31.5 463,-31.5"/>
<text text-anchor="middle" x="531" y="-39.5" font-family="Helvetica,sans-Serif" font-size="10.00">Mezzanine::UI::KerningInfo</text>
</a>
</g>
<!-- Node11&#45;&gt;Node10 -->
<g id="edge28" class="edge"><title>Node11&#45;&gt;Node10</title>
<path fill="none" stroke="#9a32cd" stroke-dasharray="5,2" d="M609.361,-42C648.14,-42 694.421,-42 731.317,-42"/>
<polygon fill="#9a32cd" stroke="#9a32cd" points="609.156,-38.5001 599.156,-42 609.156,-45.5001 609.156,-38.5001"/>
<text text-anchor="middle" x="664" y="-46" font-family="Helvetica,sans-Serif" font-size="10.00"> elements</text>
</g>
<!-- Node12&#45;&gt;Node4 -->
<g id="edge34" class="edge"><title>Node12&#45;&gt;Node4</title>
<path fill="none" stroke="#9a32cd" stroke-dasharray="5,2" d="M609.977,-270.673C641.577,-264.162 677.613,-254.155 708,-239 740.548,-222.767 771.8,-192.719 787.148,-176.704"/>
<polygon fill="#9a32cd" stroke="#9a32cd" points="609.018,-267.295 599.885,-272.666 610.374,-274.162 609.018,-267.295"/>
<text text-anchor="middle" x="664" y="-271" font-family="Helvetica,sans-Serif" font-size="10.00"> Sprites</text>
</g>
<!-- Node13 -->
<g id="node33" class="node"><title>Node13</title>
<a xlink:href="structMezzanine_1_1UI_1_1TextureAtlasInternalData.html" target="_top" xlink:title="Mezzanine::UI::TextureAtlas\lInternalData">
<polygon fill="white" stroke="black" points="460,-219 460,-253 602,-253 602,-219 460,-219"/>
<text text-anchor="start" x="468" y="-240" font-family="Helvetica,sans-Serif" font-size="10.00">Mezzanine::UI::TextureAtlas</text>
<text text-anchor="middle" x="531" y="-227" font-family="Helvetica,sans-Serif" font-size="10.00">InternalData</text>
</a>
</g>
<!-- Node13&#45;&gt;Node4 -->
<g id="edge42" class="edge"><title>Node13&#45;&gt;Node4</title>
<path fill="none" stroke="#9a32cd" stroke-dasharray="5,2" d="M612.487,-223.77C642.788,-218.33 677.263,-211.075 708,-202 731.179,-195.157 756.653,-184.516 774.386,-176.576"/>
<polygon fill="#9a32cd" stroke="#9a32cd" points="611.626,-220.368 602.383,-225.545 612.838,-227.262 611.626,-220.368"/>
<text text-anchor="middle" x="664" y="-226" font-family="Helvetica,sans-Serif" font-size="10.00"> TAID</text>
</g>
</g>
</svg>
