<?xml version="1.0" encoding="UTF-8" standalone="no"?>
<!DOCTYPE svg PUBLIC "-//W3C//DTD SVG 1.1//EN"
 "http://www.w3.org/Graphics/SVG/1.1/DTD/svg11.dtd">
<!-- Generated by graphviz version 2.26.3 (20100126.1600)
 -->
<!-- Title: Mezzanine::GravityField Pages: 1 -->
<!--zoomable 605 -->
<svg id="main" version="1.1" xmlns="http://www.w3.org/2000/svg" xmlns:xlink="http://www.w3.org/1999/xlink" xml:space="preserve" onload="init(evt)">
        <defs>
                <circle id="rim" cx="0" cy="0" r="7"/>
                <circle id="rim2" cx="0" cy="0" r="3.5"/>
                <g id="zoomPlus">
                        <use xlink:href="#rim" fill="#404040">
                                <set attributeName="fill" to="#808080" begin="zoomplus.mouseover" end="zoomplus.mouseout"/>
                        </use>
                        <path d="M-4,0h8M0,-4v8" fill="none" stroke="white" stroke-width="1.5" pointer-events="none"/>
                </g>
                <g id="zoomMin">
                        <use xlink:href="#rim" fill="#404040">
                                <set attributeName="fill" to="#808080" begin="zoomminus.mouseover" end="zoomminus.mouseout"/>
                        </use>
                        <path d="M-4,0h8" fill="none" stroke="white" stroke-width="1.5" pointer-events="none"/>
                </g>
                <g id="dirArrow">
                        <path fill="none" stroke="white" stroke-width="1.5" d="M0,-3.0v7 M-2.5,-0.5L0,-3.0L2.5,-0.5"/>
                </g>
               <g id="resetDef">
                       <use xlink:href="#rim2" fill="#404040">
                               <set attributeName="fill" to="#808080" begin="reset.mouseover" end="reset.mouseout"/>
                       </use>
               </g>
        </defs>

<script type="text/javascript">
var viewWidth = 1796;
var viewHeight = 605;
var sectionId = 'dynsection-1';
</script>
<script xlink:href="svgpan.js"/>
<svg id="graph" class="graph">
<g id="viewport">
<title>Mezzanine::GravityField</title>
<!-- Node1 -->
<g id="node1" class="node"><title>Node1</title>
<polygon fill="#bfbfbf" stroke="black" points="1670,-34 1670,-54 1788,-54 1788,-34 1670,-34"/>
<text text-anchor="middle" x="1729" y="-41" font-family="FreeSans" font-size="10.00">Mezzanine::GravityField</text>
</g>
<!-- Node2 -->
<g id="node2" class="node"><title>Node2</title>
<a xlink:href="classMezzanine_1_1AreaEffect.xhtml" target="_top" xlink:title="This class is used to define area&#39;s in the world that have unique effects.">
<polygon fill="none" stroke="black" points="1520.5,-142 1520.5,-162 1631.5,-162 1631.5,-142 1520.5,-142"/>
<text text-anchor="middle" x="1576" y="-149" font-family="FreeSans" font-size="10.00">Mezzanine::AreaEffect</text>
</a>
</g>
<!-- Node2&#45;&gt;Node1 -->
<g id="edge2" class="edge"><title>Node2&#45;&gt;Node1</title>
<path fill="none" stroke="midnightblue" d="M1598.68,-135.993C1630.59,-113.468 1687.82,-73.0665 1714.53,-54.2121"/>
<polygon fill="midnightblue" stroke="midnightblue" points="1596.55,-133.213 1590.39,-141.84 1600.58,-138.932 1596.55,-133.213"/>
</g>
<!-- Node3 -->
<g id="node4" class="node"><title>Node3</title>
<a xlink:href="classMezzanine_1_1NonStaticWorldObject.xhtml" target="_top" xlink:title="This is a small extention of the WorldObject class that adds features common to non&#45;static objects...">
<polygon fill="none" stroke="black" points="820,-224 820,-256 954,-256 954,-224 820,-224"/>
<text text-anchor="start" x="828" y="-243" font-family="FreeSans" font-size="10.00">Mezzanine::NonStaticWorld</text>
<text text-anchor="middle" x="887" y="-231" font-family="FreeSans" font-size="10.00">Object</text>
</a>
</g>
<!-- Node3&#45;&gt;Node2 -->
<g id="edge4" class="edge"><title>Node3&#45;&gt;Node2</title>
<path fill="none" stroke="midnightblue" d="M964.256,-238.31C1065.07,-235.735 1246.93,-229.828 1402,-218 1446.58,-214.6 1460.38,-223.35 1502,-207 1527.92,-196.815 1552.79,-175.067 1566.07,-162.179"/>
<polygon fill="midnightblue" stroke="midnightblue" points="964.069,-234.813 954.16,-238.563 964.245,-241.811 964.069,-234.813"/>
</g>
<!-- Node31 -->
<g id="node68" class="node"><title>Node31</title>
<a xlink:href="classMezzanine_1_1ActorBase.xhtml" target="_top" xlink:title="This is the base class from which all the actors inherit.">
<polygon fill="none" stroke="black" points="1064,-189 1064,-209 1176,-209 1176,-189 1064,-189"/>
<text text-anchor="middle" x="1120" y="-196" font-family="FreeSans" font-size="10.00">Mezzanine::ActorBase</text>
</a>
</g>
<!-- Node3&#45;&gt;Node31 -->
<g id="edge78" class="edge"><title>Node3&#45;&gt;Node31</title>
<path fill="none" stroke="midnightblue" d="M964.012,-226.449C996.537,-220.725 1033.72,-214.183 1063.62,-208.921"/>
<polygon fill="midnightblue" stroke="midnightblue" points="963.323,-223.016 954.081,-228.196 964.536,-229.91 963.323,-223.016"/>
</g>
<!-- Node4 -->
<g id="node6" class="node"><title>Node4</title>
<a xlink:href="classMezzanine_1_1WorldObject.xhtml" target="_top" xlink:title="This is the base class from which classes that are insertable into the physical world.">
<polygon fill="none" stroke="black" points="547,-402 547,-422 667,-422 667,-402 547,-402"/>
<text text-anchor="middle" x="607" y="-409" font-family="FreeSans" font-size="10.00">Mezzanine::WorldObject</text>
</a>
</g>
<!-- Node4&#45;&gt;Node3 -->
<g id="edge6" class="edge"><title>Node4&#45;&gt;Node3</title>
<path fill="none" stroke="midnightblue" d="M624.824,-394.005C640.07,-378.041 662.017,-353.649 678,-330 687.795,-315.507 682.488,-306.108 696,-295 715.125,-279.277 772.824,-263.899 819.842,-253.42"/>
<polygon fill="midnightblue" stroke="midnightblue" points="621.973,-391.918 617.53,-401.536 627.001,-396.788 621.973,-391.918"/>
</g>
<!-- Node8 -->
<g id="node14" class="node"><title>Node8</title>
<a xlink:href="classMezzanine_1_1WorldObjectPhysicsSettings.xhtml" target="_top" xlink:title="This is a base helper class for configuring physics settings of a world object.">
<polygon fill="none" stroke="black" points="810.5,-404 810.5,-436 963.5,-436 963.5,-404 810.5,-404"/>
<text text-anchor="start" x="818.5" y="-423" font-family="FreeSans" font-size="10.00">Mezzanine::WorldObjectPhysics</text>
<text text-anchor="middle" x="887" y="-411" font-family="FreeSans" font-size="10.00">Settings</text>
</a>
</g>
<!-- Node4&#45;&gt;Node8 -->
<g id="edge16" class="edge"><title>Node4&#45;&gt;Node8</title>
<path fill="none" stroke="#9a32cd" stroke-dasharray="5,2" d="M677.705,-408.533C683.891,-408.317 690.056,-408.133 696,-408 737.767,-407.062 748.301,-405.43 790,-408 796.605,-408.407 803.449,-408.969 810.306,-409.628"/>
<polygon fill="#9a32cd" stroke="#9a32cd" points="677.171,-405.05 667.309,-408.923 677.434,-412.045 677.171,-405.05"/>
<text text-anchor="middle" x="743" y="-411" font-family="FreeSans" font-size="10.00"> Parent</text>
</g>
<!-- Node13 -->
<g id="node26" class="node"><title>Node13</title>
<a xlink:href="classMezzanine_1_1Physics_1_1Collision.xhtml" target="_top" xlink:title="This is an event class used to track collsions in the physics world.">
<polygon fill="none" stroke="black" points="837,-524 837,-556 937,-556 937,-524 837,-524"/>
<text text-anchor="start" x="845" y="-543" font-family="FreeSans" font-size="10.00">Mezzanine::Physics</text>
<text text-anchor="middle" x="887" y="-531" font-family="FreeSans" font-size="10.00">::Collision</text>
</a>
</g>
<!-- Node4&#45;&gt;Node13 -->
<g id="edge32" class="edge"><title>Node4&#45;&gt;Node13</title>
<path fill="none" stroke="#9a32cd" stroke-dasharray="5,2" d="M628.845,-428.425C643.097,-439.336 661.962,-454.149 678,-468 686.328,-475.192 686.443,-479.546 696,-485 740.206,-510.229 796.878,-524.644 836.976,-532.331"/>
<polygon fill="#9a32cd" stroke="#9a32cd" points="630.713,-425.448 620.635,-422.18 626.475,-431.02 630.713,-425.448"/>
<text text-anchor="middle" x="743" y="-535" font-family="FreeSans" font-size="10.00"> ObjectA</text>
<text text-anchor="middle" x="743" y="-523" font-family="FreeSans" font-size="10.00">ObjectB</text>
</g>
<!-- Node15 -->
<g id="node31" class="node"><title>Node15</title>
<a xlink:href="classMezzanine_1_1WorldObjectGraphicsSettings.xhtml" target="_top" xlink:title="This is a helper class for configuring graphics settings of a World Object.">
<polygon fill="none" stroke="black" points="808,-324 808,-356 966,-356 966,-324 808,-324"/>
<text text-anchor="start" x="816" y="-343" font-family="FreeSans" font-size="10.00">Mezzanine::WorldObjectGraphics</text>
<text text-anchor="middle" x="887" y="-331" font-family="FreeSans" font-size="10.00">Settings</text>
</a>
</g>
<!-- Node4&#45;&gt;Node15 -->
<g id="edge36" class="edge"><title>Node4&#45;&gt;Node15</title>
<path fill="none" stroke="#9a32cd" stroke-dasharray="5,2" d="M624.495,-394.939C641.292,-379.78 668.157,-358.585 696,-349 731.469,-336.79 772.84,-333.606 807.992,-333.858"/>
<polygon fill="#9a32cd" stroke="#9a32cd" points="622.038,-392.445 617.098,-401.818 626.805,-397.571 622.038,-392.445"/>
<text text-anchor="middle" x="743" y="-352" font-family="FreeSans" font-size="10.00"> Parent</text>
</g>
<!-- Node5 -->
<g id="node8" class="node"><title>Node5</title>
<a xlink:href="classMezzanine_1_1Audio_1_1SoundSet.xhtml" target="_top" xlink:title="This is a vector that stores sounds.">
<polygon fill="none" stroke="black" points="296.5,-402 296.5,-422 435.5,-422 435.5,-402 296.5,-402"/>
<text text-anchor="middle" x="366" y="-409" font-family="FreeSans" font-size="10.00">Mezzanine::Audio::SoundSet</text>
</a>
</g>
<!-- Node5&#45;&gt;Node4 -->
<g id="edge8" class="edge"><title>Node5&#45;&gt;Node4</title>
<path fill="none" stroke="#9a32cd" stroke-dasharray="5,2" d="M445.773,-412C478.723,-412 516.278,-412 546.848,-412"/>
<polygon fill="#9a32cd" stroke="#9a32cd" points="445.707,-408.5 435.707,-412 445.707,-415.5 445.707,-408.5"/>
<text text-anchor="middle" x="486" y="-415" font-family="FreeSans" font-size="10.00"> ObjectSounds</text>
</g>
<!-- Node6 -->
<g id="node10" class="node"><title>Node6</title>
<a xlink:title="STL class.">
<polygon fill="none" stroke="#bfbfbf" points="108,-402 108,-422 218,-422 218,-402 108,-402"/>
<text text-anchor="middle" x="163" y="-409" font-family="FreeSans" font-size="10.00">std::vector&lt; Sound * &gt;</text>
</a>
</g>
<!-- Node6&#45;&gt;Node5 -->
<g id="edge10" class="edge"><title>Node6&#45;&gt;Node5</title>
<path fill="none" stroke="midnightblue" d="M228.303,-412C250.005,-412 274.247,-412 296.27,-412"/>
<polygon fill="midnightblue" stroke="midnightblue" points="228.203,-408.5 218.203,-412 228.202,-415.5 228.203,-408.5"/>
</g>
<!-- Node7 -->
<g id="node12" class="node"><title>Node7</title>
<polygon fill="none" stroke="#bfbfbf" points="0.5,-402 0.5,-422 29.5,-422 29.5,-402 0.5,-402"/>
<text text-anchor="middle" x="15" y="-409" font-family="FreeSans" font-size="10.00">T</text>
</g>
<!-- Node7&#45;&gt;Node6 -->
<g id="edge12" class="edge"><title>Node7&#45;&gt;Node6</title>
<path fill="none" stroke="#9a32cd" stroke-dasharray="5,2" d="M39.9456,-412C58.4506,-412 84.4027,-412 107.706,-412"/>
<polygon fill="#9a32cd" stroke="#9a32cd" points="39.7319,-408.5 29.7319,-412 39.7318,-415.5 39.7319,-408.5"/>
<text text-anchor="middle" x="69" y="-415" font-family="FreeSans" font-size="10.00"> elements</text>
</g>
<!-- Node8&#45;&gt;Node4 -->
<g id="edge14" class="edge"><title>Node8&#45;&gt;Node4</title>
<path fill="none" stroke="#9a32cd" stroke-dasharray="5,2" d="M799.855,-424.197C767.246,-425.024 729.901,-425.087 696,-423 686.676,-422.426 676.834,-421.517 667.229,-420.461"/>
<polygon fill="#9a32cd" stroke="#9a32cd" points="800.367,-427.684 810.265,-423.904 800.17,-420.687 800.367,-427.684"/>
<text text-anchor="middle" x="743" y="-427" font-family="FreeSans" font-size="10.00"> PhysicsSettings</text>
</g>
<!-- Node9 -->
<g id="node17" class="node"><title>Node9</title>
<a xlink:href="classMezzanine_1_1Physics_1_1CollisionShape.xhtml" target="_top" xlink:title="This is the base class for all collision shapes.">
<polygon fill="none" stroke="black" points="557,-477 557,-509 657,-509 657,-477 557,-477"/>
<text text-anchor="start" x="565" y="-496" font-family="FreeSans" font-size="10.00">Mezzanine::Physics</text>
<text text-anchor="middle" x="607" y="-484" font-family="FreeSans" font-size="10.00">::CollisionShape</text>
</a>
</g>
<!-- Node9&#45;&gt;Node8 -->
<g id="edge18" class="edge"><title>Node9&#45;&gt;Node8</title>
<path fill="none" stroke="#9a32cd" stroke-dasharray="5,2" d="M666.743,-477.424C713.468,-465.242 778.203,-448.365 825.397,-436.061"/>
<polygon fill="#9a32cd" stroke="#9a32cd" points="665.852,-474.039 657.058,-479.949 667.618,-480.813 665.852,-474.039"/>
<text text-anchor="middle" x="743" y="-472" font-family="FreeSans" font-size="10.00"> WorldObjectShape</text>
</g>
<!-- Node10 -->
<g id="node19" class="node"><title>Node10</title>
<a xlink:title="STL class.">
<polygon fill="none" stroke="#bfbfbf" points="337.5,-456 337.5,-476 394.5,-476 394.5,-456 337.5,-456"/>
<text text-anchor="middle" x="366" y="-463" font-family="FreeSans" font-size="10.00">std::string</text>
</a>
</g>
<!-- Node10&#45;&gt;Node4 -->
<g id="edge24" class="edge"><title>Node10&#45;&gt;Node4</title>
<path fill="none" stroke="#9a32cd" stroke-dasharray="5,2" d="M404.372,-457.402C447.266,-447.791 516.649,-432.245 562.049,-422.072"/>
<polygon fill="#9a32cd" stroke="#9a32cd" points="403.585,-453.992 394.592,-459.593 405.116,-460.822 403.585,-453.992"/>
<text text-anchor="middle" x="486" y="-448" font-family="FreeSans" font-size="10.00"> Name</text>
</g>
<!-- Node10&#45;&gt;Node9 -->
<g id="edge20" class="edge"><title>Node10&#45;&gt;Node9</title>
<path fill="none" stroke="#9a32cd" stroke-dasharray="5,2" d="M404.785,-470.345C446.029,-474.966 511.423,-482.292 556.625,-487.356"/>
<polygon fill="#9a32cd" stroke="#9a32cd" points="404.92,-466.838 394.592,-469.203 404.14,-473.795 404.92,-466.838"/>
<text text-anchor="middle" x="486" y="-485" font-family="FreeSans" font-size="10.00"> Name</text>
</g>
<!-- Node11 -->
<g id="node21" class="node"><title>Node11</title>
<a xlink:title="STL class.">
<polygon fill="none" stroke="#bfbfbf" points="117.5,-450 117.5,-482 208.5,-482 208.5,-450 117.5,-450"/>
<text text-anchor="start" x="125.5" y="-469" font-family="FreeSans" font-size="10.00">std::basic_string&lt;</text>
<text text-anchor="middle" x="163" y="-457" font-family="FreeSans" font-size="10.00"> char &gt;</text>
</a>
</g>
<!-- Node11&#45;&gt;Node10 -->
<g id="edge22" class="edge"><title>Node11&#45;&gt;Node10</title>
<path fill="none" stroke="midnightblue" d="M218.591,-466C257.098,-466 306.773,-466 337.498,-466"/>
<polygon fill="midnightblue" stroke="midnightblue" points="218.557,-462.5 208.557,-466 218.557,-469.5 218.557,-462.5"/>
</g>
<!-- Node12 -->
<g id="node24" class="node"><title>Node12</title>
<polygon fill="none" stroke="#bfbfbf" points="1075,-472 1075,-504 1165,-504 1165,-472 1075,-472"/>
<text text-anchor="start" x="1083" y="-491" font-family="FreeSans" font-size="10.00">std::set&lt; Physics:</text>
<text text-anchor="middle" x="1120" y="-479" font-family="FreeSans" font-size="10.00">:Collision * &gt;</text>
</g>
<!-- Node12&#45;&gt;Node4 -->
<g id="edge26" class="edge"><title>Node12&#45;&gt;Node4</title>
<path fill="none" stroke="#9a32cd" stroke-dasharray="5,2" d="M1064.96,-485.152C983.578,-480.18 826.661,-467.681 696,-440 674.924,-435.535 651.725,-428.152 634.298,-422.088"/>
<polygon fill="#9a32cd" stroke="#9a32cd" points="1064.79,-488.648 1074.98,-485.749 1065.21,-481.66 1064.79,-488.648"/>
<text text-anchor="middle" x="887" y="-480" font-family="FreeSans" font-size="10.00"> CurrentCollisions</text>
</g>
<!-- Node13&#45;&gt;Node12 -->
<g id="edge28" class="edge"><title>Node13&#45;&gt;Node12</title>
<path fill="none" stroke="#9a32cd" stroke-dasharray="5,2" d="M947.148,-526.576C987.048,-517.672 1038.56,-506.174 1074.94,-498.056"/>
<polygon fill="#9a32cd" stroke="#9a32cd" points="946.268,-523.187 937.271,-528.781 947.793,-530.019 946.268,-523.187"/>
<text text-anchor="middle" x="1005" y="-520" font-family="FreeSans" font-size="10.00"> keys</text>
</g>
<!-- Node14 -->
<g id="node28" class="node"><title>Node14</title>
<polygon fill="none" stroke="#bfbfbf" points="559,-577 559,-597 655,-597 655,-577 559,-577"/>
<text text-anchor="middle" x="607" y="-584" font-family="FreeSans" font-size="10.00">std::vector&lt; Real &gt;</text>
</g>
<!-- Node14&#45;&gt;Node13 -->
<g id="edge30" class="edge"><title>Node14&#45;&gt;Node13</title>
<path fill="none" stroke="#9a32cd" stroke-dasharray="5,2" d="M665.391,-581.972C701.478,-578.373 748.64,-572.78 790,-565 805.382,-562.106 821.937,-558.158 836.94,-554.253"/>
<polygon fill="#9a32cd" stroke="#9a32cd" points="664.658,-578.527 655.044,-582.98 665.336,-585.494 664.658,-578.527"/>
<text text-anchor="middle" x="743" y="-581" font-family="FreeSans" font-size="10.00"> PenetrationDistances</text>
</g>
<!-- Node15&#45;&gt;Node4 -->
<g id="edge34" class="edge"><title>Node15&#45;&gt;Node4</title>
<path fill="none" stroke="#9a32cd" stroke-dasharray="5,2" d="M814.89,-358.543C761.038,-372.39 689.503,-390.785 645.933,-401.989"/>
<polygon fill="#9a32cd" stroke="#9a32cd" points="815.915,-361.893 824.729,-356.013 814.172,-355.113 815.915,-361.893"/>
<text text-anchor="middle" x="743" y="-391" font-family="FreeSans" font-size="10.00"> GraphicsSettings</text>
</g>
<!-- Node16 -->
<g id="node34" class="node"><title>Node16</title>
<a xlink:href="classMezzanine_1_1Graphics_1_1Mesh.xhtml" target="_top" xlink:title="This class is used to check and modify the properties of a graphics mesh.">
<polygon fill="none" stroke="black" points="554.5,-289 554.5,-321 659.5,-321 659.5,-289 554.5,-289"/>
<text text-anchor="start" x="562.5" y="-308" font-family="FreeSans" font-size="10.00">Mezzanine::Graphics</text>
<text text-anchor="middle" x="607" y="-296" font-family="FreeSans" font-size="10.00">::Mesh</text>
</a>
</g>
<!-- Node16&#45;&gt;Node15 -->
<g id="edge38" class="edge"><title>Node16&#45;&gt;Node15</title>
<path fill="none" stroke="#9a32cd" stroke-dasharray="5,2" d="M670.08,-300.234C705.566,-298.827 750.536,-299.173 790,-306 810.573,-309.559 832.602,-316.967 850.459,-323.962"/>
<polygon fill="#9a32cd" stroke="#9a32cd" points="669.694,-296.748 659.863,-300.698 670.012,-303.741 669.694,-296.748"/>
<text text-anchor="middle" x="743" y="-309" font-family="FreeSans" font-size="10.00"> WorldObjectMesh</text>
</g>
<!-- Node17 -->
<g id="node36" class="node"><title>Node17</title>
<a xlink:href="classMezzanine_1_1Graphics_1_1Skeleton.xhtml" target="_top" xlink:title="This class encapsulates the Skeletal animation functionality of a Mesh.">
<polygon fill="none" stroke="black" points="313.5,-204 313.5,-236 418.5,-236 418.5,-204 313.5,-204"/>
<text text-anchor="start" x="321.5" y="-223" font-family="FreeSans" font-size="10.00">Mezzanine::Graphics</text>
<text text-anchor="middle" x="366" y="-211" font-family="FreeSans" font-size="10.00">::Skeleton</text>
</a>
</g>
<!-- Node17&#45;&gt;Node16 -->
<g id="edge40" class="edge"><title>Node17&#45;&gt;Node16</title>
<path fill="none" stroke="#9a32cd" stroke-dasharray="5,2" d="M421.247,-239.485C463.746,-254.475 521.751,-274.933 561.573,-288.978"/>
<polygon fill="#9a32cd" stroke="#9a32cd" points="422.208,-236.113 411.614,-236.088 419.88,-242.715 422.208,-236.113"/>
<text text-anchor="middle" x="486" y="-276" font-family="FreeSans" font-size="10.00"> MeshSkel</text>
</g>
<!-- Node19 -->
<g id="node40" class="node"><title>Node19</title>
<a xlink:href="classMezzanine_1_1Graphics_1_1Bone.xhtml" target="_top" xlink:title="This class encapsulates the bones contained in a skeleton used for animation.">
<polygon fill="none" stroke="black" points="554.5,-217 554.5,-249 659.5,-249 659.5,-217 554.5,-217"/>
<text text-anchor="start" x="562.5" y="-236" font-family="FreeSans" font-size="10.00">Mezzanine::Graphics</text>
<text text-anchor="middle" x="607" y="-224" font-family="FreeSans" font-size="10.00">::Bone</text>
</a>
</g>
<!-- Node17&#45;&gt;Node19 -->
<g id="edge48" class="edge"><title>Node17&#45;&gt;Node19</title>
<path fill="none" stroke="#9a32cd" stroke-dasharray="5,2" d="M429.048,-218.618C456.416,-218.482 488.822,-218.945 518,-221 529.82,-221.832 542.466,-223.228 554.406,-224.779"/>
<polygon fill="#9a32cd" stroke="#9a32cd" points="428.795,-215.12 418.822,-218.697 428.849,-222.12 428.795,-215.12"/>
<text text-anchor="middle" x="486" y="-224" font-family="FreeSans" font-size="10.00"> Host</text>
</g>
<!-- Node18 -->
<g id="node38" class="node"><title>Node18</title>
<polygon fill="none" stroke="#bfbfbf" points="834.5,-182 834.5,-202 939.5,-202 939.5,-182 834.5,-182"/>
<text text-anchor="middle" x="887" y="-189" font-family="FreeSans" font-size="10.00">std::vector&lt; Bone * &gt;</text>
</g>
<!-- Node18&#45;&gt;Node17 -->
<g id="edge42" class="edge"><title>Node18&#45;&gt;Node17</title>
<path fill="none" stroke="#9a32cd" stroke-dasharray="5,2" d="M824.257,-190.284C753.952,-188.927 636.632,-188.355 536,-196 496.471,-199.003 452.13,-205.364 418.646,-210.782"/>
<polygon fill="#9a32cd" stroke="#9a32cd" points="824.212,-193.784 834.281,-190.49 824.355,-186.786 824.212,-193.784"/>
<text text-anchor="middle" x="607" y="-199" font-family="FreeSans" font-size="10.00"> Bones</text>
</g>
<!-- Node19&#45;&gt;Node18 -->
<g id="edge44" class="edge"><title>Node19&#45;&gt;Node18</title>
<path fill="none" stroke="#9a32cd" stroke-dasharray="5,2" d="M669.609,-223.832C719.075,-216.589 787.337,-206.594 834.095,-199.747"/>
<polygon fill="#9a32cd" stroke="#9a32cd" points="669.053,-220.376 659.666,-225.288 670.067,-227.302 669.053,-220.376"/>
<text text-anchor="middle" x="743" y="-223" font-family="FreeSans" font-size="10.00"> elements</text>
</g>
<!-- Node20 -->
<g id="node42" class="node"><title>Node20</title>
<a xlink:href="classMezzanine_1_1TransformableObject.xhtml" target="_top" xlink:title="This is an interface for all 3D objects that can have their full transforms manipulated.">
<polygon fill="none" stroke="black" points="302,-266 302,-298 430,-298 430,-266 302,-266"/>
<text text-anchor="start" x="310" y="-285" font-family="FreeSans" font-size="10.00">Mezzanine::Transformable</text>
<text text-anchor="middle" x="366" y="-273" font-family="FreeSans" font-size="10.00">Object</text>
</a>
</g>
<!-- Node20&#45;&gt;Node19 -->
<g id="edge46" class="edge"><title>Node20&#45;&gt;Node19</title>
<path fill="none" stroke="midnightblue" d="M440.374,-279.363C465.295,-277.368 493.073,-273.922 518,-268 536.577,-263.586 556.423,-256.075 572.65,-249.14"/>
<polygon fill="midnightblue" stroke="midnightblue" points="439.968,-275.884 430.252,-280.108 440.482,-282.865 439.968,-275.884"/>
</g>
<!-- Node21 -->
<g id="node45" class="node"><title>Node21</title>
<polygon fill="none" stroke="#bfbfbf" points="304.5,-316 304.5,-336 427.5,-336 427.5,-316 304.5,-316"/>
<text text-anchor="middle" x="366" y="-323" font-family="FreeSans" font-size="10.00">std::vector&lt; SubMesh * &gt;</text>
</g>
<!-- Node21&#45;&gt;Node16 -->
<g id="edge50" class="edge"><title>Node21&#45;&gt;Node16</title>
<path fill="none" stroke="#9a32cd" stroke-dasharray="5,2" d="M438.082,-319.719C475.467,-316.461 520.309,-312.554 554.394,-309.584"/>
<polygon fill="#9a32cd" stroke="#9a32cd" points="437.409,-316.264 427.751,-320.619 438.017,-323.238 437.409,-316.264"/>
<text text-anchor="middle" x="486" y="-320" font-family="FreeSans" font-size="10.00"> SubMeshes</text>
</g>
<!-- Node22 -->
<g id="node47" class="node"><title>Node22</title>
<a xlink:href="classMezzanine_1_1Graphics_1_1SubMesh.xhtml" target="_top" xlink:title="This class represents a sub&#45;section of an overall mesh.">
<polygon fill="none" stroke="black" points="110.5,-310 110.5,-342 215.5,-342 215.5,-310 110.5,-310"/>
<text text-anchor="start" x="118.5" y="-329" font-family="FreeSans" font-size="10.00">Mezzanine::Graphics</text>
<text text-anchor="middle" x="163" y="-317" font-family="FreeSans" font-size="10.00">::SubMesh</text>
</a>
</g>
<!-- Node22&#45;&gt;Node21 -->
<g id="edge52" class="edge"><title>Node22&#45;&gt;Node21</title>
<path fill="none" stroke="#9a32cd" stroke-dasharray="5,2" d="M225.65,-326C250.666,-326 279.389,-326 304.308,-326"/>
<polygon fill="#9a32cd" stroke="#9a32cd" points="225.542,-322.5 215.542,-326 225.542,-329.5 225.542,-322.5"/>
<text text-anchor="middle" x="257" y="-329" font-family="FreeSans" font-size="10.00"> elements</text>
</g>
<!-- Node23 -->
<g id="node49" class="node"><title>Node23</title>
<a xlink:href="classMezzanine_1_1AttachableParent.xhtml" target="_top" xlink:title="Base class for objects that can have attachables attached to them.">
<polygon fill="none" stroke="black" points="536,-93 536,-113 678,-113 678,-93 536,-93"/>
<text text-anchor="middle" x="607" y="-100" font-family="FreeSans" font-size="10.00">Mezzanine::AttachableParent</text>
</a>
</g>
<!-- Node23&#45;&gt;Node3 -->
<g id="edge54" class="edge"><title>Node23&#45;&gt;Node3</title>
<path fill="none" stroke="midnightblue" d="M631.92,-118.985C647.353,-130.118 666.378,-146.291 678,-165 694.497,-191.556 671.58,-213.48 696,-233 730.084,-260.244 779.549,-261.346 819.6,-255.974"/>
<polygon fill="midnightblue" stroke="midnightblue" points="633.544,-115.852 623.332,-113.031 629.556,-121.605 633.544,-115.852"/>
</g>
<!-- Node26 -->
<g id="node55" class="node"><title>Node26</title>
<a xlink:href="classMezzanine_1_1AttachableChild.xhtml" target="_top" xlink:title="This class is the base class for objects that can be attached to AttachableParent.">
<polygon fill="none" stroke="black" points="819.5,-104 819.5,-124 954.5,-124 954.5,-104 819.5,-104"/>
<text text-anchor="middle" x="887" y="-111" font-family="FreeSans" font-size="10.00">Mezzanine::AttachableChild</text>
</a>
</g>
<!-- Node23&#45;&gt;Node26 -->
<g id="edge70" class="edge"><title>Node23&#45;&gt;Node26</title>
<path fill="none" stroke="#9a32cd" stroke-dasharray="5,2" d="M688.135,-106.187C729.779,-107.823 779.92,-109.793 819.435,-111.346"/>
<polygon fill="#9a32cd" stroke="#9a32cd" points="688.148,-102.685 678.018,-105.79 687.873,-109.68 688.148,-102.685"/>
<text text-anchor="middle" x="743" y="-114" font-family="FreeSans" font-size="10.00"> Parent</text>
</g>
<!-- Node24 -->
<g id="node51" class="node"><title>Node24</title>
<a xlink:href="classMezzanine_1_1AttachableBase.xhtml" target="_top" xlink:title="This class is the base class for other attachable classes and is responsible for transform updates to...">
<polygon fill="none" stroke="black" points="298.5,-119 298.5,-139 433.5,-139 433.5,-119 298.5,-119"/>
<text text-anchor="middle" x="366" y="-126" font-family="FreeSans" font-size="10.00">Mezzanine::AttachableBase</text>
</a>
</g>
<!-- Node24&#45;&gt;Node23 -->
<g id="edge56" class="edge"><title>Node24&#45;&gt;Node23</title>
<path fill="none" stroke="midnightblue" d="M444.052,-120.579C473.61,-117.391 507.076,-113.78 535.956,-110.664"/>
<polygon fill="midnightblue" stroke="midnightblue" points="443.34,-117.136 433.773,-121.688 444.091,-124.095 443.34,-117.136"/>
</g>
<!-- Node24&#45;&gt;Node26 -->
<g id="edge62" class="edge"><title>Node24&#45;&gt;Node26</title>
<path fill="none" stroke="midnightblue" d="M443.759,-131.622C528.879,-133.795 669.328,-135.336 790,-127 800.001,-126.309 810.544,-125.246 820.849,-124.019"/>
<polygon fill="midnightblue" stroke="midnightblue" points="443.747,-128.12 433.658,-131.354 443.562,-135.118 443.747,-128.12"/>
</g>
<!-- Node25 -->
<g id="node53" class="node"><title>Node25</title>
<polygon fill="none" stroke="#bfbfbf" points="1044.5,-53 1044.5,-73 1195.5,-73 1195.5,-53 1044.5,-53"/>
<text text-anchor="middle" x="1120" y="-60" font-family="FreeSans" font-size="10.00">std::vector&lt; AttachableChild * &gt;</text>
</g>
<!-- Node25&#45;&gt;Node23 -->
<g id="edge58" class="edge"><title>Node25&#45;&gt;Node23</title>
<path fill="none" stroke="#9a32cd" stroke-dasharray="5,2" d="M1034.18,-52.1992C947.078,-44.1832 809.305,-39.6734 696,-73 687.005,-75.6456 686.617,-80.3057 678,-84 669.908,-87.4692 661.02,-90.4486 652.353,-92.9502"/>
<polygon fill="#9a32cd" stroke="#9a32cd" points="1033.99,-55.6973 1044.28,-53.1657 1034.66,-48.7292 1033.99,-55.6973"/>
<text text-anchor="middle" x="887" y="-55" font-family="FreeSans" font-size="10.00"> Attached</text>
</g>
<!-- Node26&#45;&gt;Node2 -->
<g id="edge72" class="edge"><title>Node26&#45;&gt;Node2</title>
<path fill="none" stroke="midnightblue" d="M964.606,-117.472C1065.43,-122.086 1246.92,-130.738 1402,-140 1441.6,-142.365 1486.23,-145.452 1520.38,-147.902"/>
<polygon fill="midnightblue" stroke="midnightblue" points="964.657,-113.971 954.508,-117.011 964.338,-120.964 964.657,-113.971"/>
</g>
<!-- Node26&#45;&gt;Node25 -->
<g id="edge60" class="edge"><title>Node26&#45;&gt;Node25</title>
<path fill="none" stroke="#9a32cd" stroke-dasharray="5,2" d="M940.905,-101.644C954.928,-98.4653 970.022,-95.0753 984,-92 1013.24,-85.5676 1046.06,-78.5627 1072.13,-73.049"/>
<polygon fill="#9a32cd" stroke="#9a32cd" points="939.89,-98.2851 930.914,-103.914 941.441,-105.111 939.89,-98.2851"/>
<text text-anchor="middle" x="1005" y="-95" font-family="FreeSans" font-size="10.00"> elements</text>
</g>
<!-- Node27 -->
<g id="node58" class="node"><title>Node27</title>
<a xlink:href="classMezzanine_1_1Transform.xhtml" target="_top" xlink:title="Stores information about relative location and rotation in 3d space.">
<polygon fill="none" stroke="black" points="552,-55 552,-75 662,-75 662,-55 552,-55"/>
<text text-anchor="middle" x="607" y="-62" font-family="FreeSans" font-size="10.00">Mezzanine::Transform</text>
</a>
</g>
<!-- Node27&#45;&gt;Node26 -->
<g id="edge64" class="edge"><title>Node27&#45;&gt;Node26</title>
<path fill="none" stroke="#9a32cd" stroke-dasharray="5,2" d="M672.177,-72.7841C707.225,-77.3409 751.115,-83.6435 790,-91 809.216,-94.6354 830.368,-99.5427 848.002,-103.891"/>
<polygon fill="#9a32cd" stroke="#9a32cd" points="672.434,-69.2884 662.069,-71.4863 671.542,-76.2314 672.434,-69.2884"/>
<text text-anchor="middle" x="743" y="-94" font-family="FreeSans" font-size="10.00"> LocalXform</text>
</g>
<!-- Node28 -->
<g id="node60" class="node"><title>Node28</title>
<a xlink:href="classMezzanine_1_1Vector3.xhtml" target="_top" xlink:title="This is used to represent a point in space, or a vector through space.">
<polygon fill="none" stroke="black" points="316,-5 316,-25 416,-25 416,-5 316,-5"/>
<text text-anchor="middle" x="366" y="-12" font-family="FreeSans" font-size="10.00">Mezzanine::Vector3</text>
</a>
</g>
<!-- Node28&#45;&gt;Node1 -->
<g id="edge84" class="edge"><title>Node28&#45;&gt;Node1</title>
<path fill="none" stroke="#9a32cd" stroke-dasharray="5,2" d="M426.311,-9.16118C475.02,-4.94867 545.359,-0 607,-0 607,-0 607,-0 1576,-0 1624.64,-0 1678.72,-20.7969 1707.77,-33.7949"/>
<polygon fill="#9a32cd" stroke="#9a32cd" points="425.91,-5.68281 416.256,-10.0469 426.525,-12.6558 425.91,-5.68281"/>
<text text-anchor="middle" x="1120" y="-3" font-family="FreeSans" font-size="10.00"> Grav</text>
</g>
<!-- Node28&#45;&gt;Node27 -->
<g id="edge66" class="edge"><title>Node28&#45;&gt;Node27</title>
<path fill="none" stroke="#9a32cd" stroke-dasharray="5,2" d="M424.364,-27.1086C465.482,-35.6394 519.889,-46.9271 558.597,-54.958"/>
<polygon fill="#9a32cd" stroke="#9a32cd" points="424.983,-23.6626 414.48,-25.0581 423.561,-30.5166 424.983,-23.6626"/>
<text text-anchor="middle" x="486" y="-49" font-family="FreeSans" font-size="10.00"> Location</text>
</g>
<!-- Node29 -->
<g id="node62" class="node"><title>Node29</title>
<a xlink:href="classMezzanine_1_1Quaternion.xhtml" target="_top" xlink:title="This is used to store information about rotation in 3d space.">
<polygon fill="none" stroke="black" points="309,-58 309,-78 423,-78 423,-58 309,-58"/>
<text text-anchor="middle" x="366" y="-65" font-family="FreeSans" font-size="10.00">Mezzanine::Quaternion</text>
</a>
</g>
<!-- Node29&#45;&gt;Node27 -->
<g id="edge68" class="edge"><title>Node29&#45;&gt;Node27</title>
<path fill="none" stroke="#9a32cd" stroke-dasharray="5,2" d="M433.42,-67.1608C470.817,-66.6952 516.74,-66.1236 551.955,-65.6852"/>
<polygon fill="#9a32cd" stroke="#9a32cd" points="433.069,-63.6647 423.114,-67.289 433.156,-70.6642 433.069,-63.6647"/>
<text text-anchor="middle" x="486" y="-70" font-family="FreeSans" font-size="10.00"> Rotation</text>
</g>
<!-- Node30 -->
<g id="node66" class="node"><title>Node30</title>
<polygon fill="none" stroke="#bfbfbf" points="1274,-149 1274,-169 1402,-169 1402,-149 1274,-149"/>
<text text-anchor="middle" x="1338" y="-156" font-family="FreeSans" font-size="10.00">std::vector&lt; ActorBase * &gt;</text>
</g>
<!-- Node30&#45;&gt;Node2 -->
<g id="edge74" class="edge"><title>Node30&#45;&gt;Node2</title>
<path fill="none" stroke="#9a32cd" stroke-dasharray="5,2" d="M1412.68,-153.325C1415.15,-153.205 1417.59,-153.096 1420,-153 1453.29,-151.677 1490.6,-151.394 1520.39,-151.458"/>
<polygon fill="#9a32cd" stroke="#9a32cd" points="1412.23,-149.844 1402.43,-153.878 1412.61,-156.834 1412.23,-149.844"/>
<text text-anchor="middle" x="1461" y="-168" font-family="FreeSans" font-size="10.00"> RemovedActors</text>
<text text-anchor="middle" x="1461" y="-156" font-family="FreeSans" font-size="10.00">AddedActors</text>
</g>
<!-- Node31&#45;&gt;Node30 -->
<g id="edge76" class="edge"><title>Node31&#45;&gt;Node30</title>
<path fill="none" stroke="#9a32cd" stroke-dasharray="5,2" d="M1184.69,-187.131C1216.05,-181.376 1253.31,-174.539 1283.25,-169.046"/>
<polygon fill="#9a32cd" stroke="#9a32cd" points="1183.93,-183.711 1174.73,-188.958 1185.2,-190.596 1183.93,-183.711"/>
<text text-anchor="middle" x="1235" y="-185" font-family="FreeSans" font-size="10.00"> elements</text>
</g>
<!-- Node32 -->
<g id="node71" class="node"><title>Node32</title>
<polygon fill="none" stroke="#bfbfbf" points="1281.5,-189 1281.5,-209 1394.5,-209 1394.5,-189 1281.5,-189"/>
<text text-anchor="middle" x="1338" y="-196" font-family="FreeSans" font-size="10.00">std::list&lt; ActorBase * &gt;</text>
</g>
<!-- Node31&#45;&gt;Node32 -->
<g id="edge82" class="edge"><title>Node31&#45;&gt;Node32</title>
<path fill="none" stroke="#9a32cd" stroke-dasharray="5,2" d="M1186.22,-199C1216.57,-199 1252.19,-199 1281.29,-199"/>
<polygon fill="#9a32cd" stroke="#9a32cd" points="1186.14,-195.5 1176.14,-199 1186.14,-202.5 1186.14,-195.5"/>
<text text-anchor="middle" x="1235" y="-202" font-family="FreeSans" font-size="10.00"> elements</text>
</g>
<!-- Node32&#45;&gt;Node2 -->
<g id="edge80" class="edge"><title>Node32&#45;&gt;Node2</title>
<path fill="none" stroke="#9a32cd" stroke-dasharray="5,2" d="M1404.6,-193.009C1434.6,-189.558 1470.33,-184.4 1502,-177 1518.37,-173.173 1536.25,-167.188 1550.33,-162.034"/>
<polygon fill="#9a32cd" stroke="#9a32cd" points="1404.21,-189.531 1394.65,-194.114 1404.98,-196.488 1404.21,-189.531"/>
<text text-anchor="middle" x="1461" y="-194" font-family="FreeSans" font-size="10.00"> OverlappingActors</text>
</g>
</g>
</svg>
        <g id="navigator" transform="translate(0 0)" fill="#404254">
                <rect fill="#f2f5e9" fill-opacity="0.5" stroke="#606060" stroke-width=".5" x="0" y="0" width="60" height="60"/>
                <use id="zoomplus" xlink:href="#zoomPlus" x="17" y="9" onmousedown="handleZoom(evt,'in')"/>
                <use id="zoomminus" xlink:href="#zoomMin" x="42" y="9" onmousedown="handleZoom(evt,'out')"/>
                <use id="reset" xlink:href="#resetDef" x="30" y="36" onmousedown="handleReset()"/>
                <g id="arrowUp" xlink:href="#dirArrow" transform="translate(30 24)" onmousedown="handlePan(0,-1)">
                  <use xlink:href="#rim" fill="#404040">
                        <set attributeName="fill" to="#808080" begin="arrowUp.mouseover" end="arrowUp.mouseout"/>
                  </use>
                  <path fill="none" stroke="white" stroke-width="1.5" d="M0,-3.0v7 M-2.5,-0.5L0,-3.0L2.5,-0.5"/>
                </g>
                <g id="arrowRight" xlink:href="#dirArrow" transform="rotate(90) translate(36 -43)" onmousedown="handlePan(1,0)">
                  <use xlink:href="#rim" fill="#404040">
                        <set attributeName="fill" to="#808080" begin="arrowRight.mouseover" end="arrowRight.mouseout"/>
                  </use>
                  <path fill="none" stroke="white" stroke-width="1.5" d="M0,-3.0v7 M-2.5,-0.5L0,-3.0L2.5,-0.5"/>
                </g>
                <g id="arrowDown" xlink:href="#dirArrow" transform="rotate(180) translate(-30 -48)" onmousedown="handlePan(0,1)">
                  <use xlink:href="#rim" fill="#404040">
                        <set attributeName="fill" to="#808080" begin="arrowDown.mouseover" end="arrowDown.mouseout"/>
                  </use>
                  <path fill="none" stroke="white" stroke-width="1.5" d="M0,-3.0v7 M-2.5,-0.5L0,-3.0L2.5,-0.5"/>
                </g>
                <g id="arrowLeft" xlink:href="#dirArrow" transform="rotate(270) translate(-36 17)" onmousedown="handlePan(-1,0)">
                  <use xlink:href="#rim" fill="#404040">
                        <set attributeName="fill" to="#808080" begin="arrowLeft.mouseover" end="arrowLeft.mouseout"/>
                  </use>
                  <path fill="none" stroke="white" stroke-width="1.5" d="M0,-3.0v7 M-2.5,-0.5L0,-3.0L2.5,-0.5"/>
                </g>
        </g>
        <svg viewBox="0 0 15 15" width="100%" height="30px" preserveAspectRatio="xMaxYMin meet">
         <g id="arrow_out" transform="scale(0.3 0.3)">
          <a xlink:href="classMezzanine_1_1GravityField__coll__graph_org.svg" target="_base">
           <rect id="button" ry="5" rx="5" y="6" x="6" height="38" width="38"
                fill="#f2f5e9" fill-opacity="0.5" stroke="#606060" stroke-width="1.0"/>
           <path id="arrow"
             d="M 11.500037,31.436501 C 11.940474,20.09759 22.043105,11.32322 32.158766,21.979434 L 37.068811,17.246167 C 37.068811,17.246167 37.088388,32 37.088388,32 L 22.160133,31.978069 C 22.160133,31.978069 26.997745,27.140456 26.997745,27.140456 C 18.528582,18.264221 13.291696,25.230495 11.500037,31.436501 z"
             style="fill:#404040;"/>
          </a>
         </g>
        </svg>
</svg>
