<?xml version="1.0" encoding="UTF-8" standalone="no"?>
<!DOCTYPE svg PUBLIC "-//W3C//DTD SVG 1.1//EN"
 "http://www.w3.org/Graphics/SVG/1.1/DTD/svg11.dtd">
<!-- Generated by graphviz version 2.38.0 (20140413.2041)
 -->
<!-- Title: Mezzanine::Physics::Hinge2Constraint Pages: 1 -->
<svg width="158pt" height="307pt"
 viewBox="0.00 0.00 158.00 307.00" xmlns="http://www.w3.org/2000/svg" xmlns:xlink="http://www.w3.org/1999/xlink">
<g id="graph0" class="graph" transform="scale(1 1) rotate(0) translate(4 303)">
<title>Mezzanine::Physics::Hinge2Constraint</title>
<polygon fill="white" stroke="none" points="-4,4 -4,-303 154,-303 154,4 -4,4"/>
<!-- Node1 -->
<g id="node1" class="node"><title>Node1</title>
<polygon fill="#bfbfbf" stroke="black" points="22.5,-0.5 22.5,-30.5 127.5,-30.5 127.5,-0.5 22.5,-0.5"/>
<text text-anchor="start" x="30.5" y="-18.5" font-family="Helvetica,sans-Serif" font-size="10.00">Mezzanine::Physics</text>
<text text-anchor="middle" x="75" y="-7.5" font-family="Helvetica,sans-Serif" font-size="10.00">::Hinge2Constraint</text>
</g>
<!-- Node2 -->
<g id="node2" class="node"><title>Node2</title>
<g id="a_node2"><a xlink:href="classMezzanine_1_1Physics_1_1Generic6DofSpringConstraint.html" target="_top" xlink:title="Creates a constraint as configurable as the 6Dof constraint, but has added support for spring motion...">
<polygon fill="white" stroke="black" points="-1.42109e-14,-67.5 -1.42109e-14,-97.5 150,-97.5 150,-67.5 -1.42109e-14,-67.5"/>
<text text-anchor="start" x="8" y="-85.5" font-family="Helvetica,sans-Serif" font-size="10.00">Mezzanine::Physics</text>
<text text-anchor="middle" x="75" y="-74.5" font-family="Helvetica,sans-Serif" font-size="10.00">::Generic6DofSpringConstraint</text>
</a>
</g>
</g>
<!-- Node2&#45;&gt;Node1 -->
<g id="edge1" class="edge"><title>Node2&#45;&gt;Node1</title>
<path fill="none" stroke="midnightblue" d="M75,-57.1081C75,-48.1539 75,-38.3227 75,-30.5765"/>
<polygon fill="midnightblue" stroke="midnightblue" points="71.5001,-57.3959 75,-67.396 78.5001,-57.396 71.5001,-57.3959"/>
</g>
<!-- Node3 -->
<g id="node3" class="node"><title>Node3</title>
<g id="a_node3"><a xlink:href="classMezzanine_1_1Physics_1_1Generic6DofConstraint.html" target="_top" xlink:title="Create simple but specific limits on any axis of movement or rotation. ">
<polygon fill="white" stroke="black" points="14,-134.5 14,-164.5 136,-164.5 136,-134.5 14,-134.5"/>
<text text-anchor="start" x="22" y="-152.5" font-family="Helvetica,sans-Serif" font-size="10.00">Mezzanine::Physics</text>
<text text-anchor="middle" x="75" y="-141.5" font-family="Helvetica,sans-Serif" font-size="10.00">::Generic6DofConstraint</text>
</a>
</g>
</g>
<!-- Node3&#45;&gt;Node2 -->
<g id="edge2" class="edge"><title>Node3&#45;&gt;Node2</title>
<path fill="none" stroke="midnightblue" d="M75,-124.108C75,-115.154 75,-105.323 75,-97.5765"/>
<polygon fill="midnightblue" stroke="midnightblue" points="71.5001,-124.396 75,-134.396 78.5001,-124.396 71.5001,-124.396"/>
</g>
<!-- Node4 -->
<g id="node4" class="node"><title>Node4</title>
<g id="a_node4"><a xlink:href="classMezzanine_1_1Physics_1_1DualTransformConstraint.html" target="_top" xlink:title="All constraints that track rotation and location of the Pivot relative to each Actor inherit from thi...">
<polygon fill="white" stroke="black" points="9,-201.5 9,-231.5 141,-231.5 141,-201.5 9,-201.5"/>
<text text-anchor="start" x="17" y="-219.5" font-family="Helvetica,sans-Serif" font-size="10.00">Mezzanine::Physics</text>
<text text-anchor="middle" x="75" y="-208.5" font-family="Helvetica,sans-Serif" font-size="10.00">::DualTransformConstraint</text>
</a>
</g>
</g>
<!-- Node4&#45;&gt;Node3 -->
<g id="edge3" class="edge"><title>Node4&#45;&gt;Node3</title>
<path fill="none" stroke="midnightblue" d="M75,-191.108C75,-182.154 75,-172.323 75,-164.577"/>
<polygon fill="midnightblue" stroke="midnightblue" points="71.5001,-191.396 75,-201.396 78.5001,-191.396 71.5001,-191.396"/>
</g>
<!-- Node5 -->
<g id="node5" class="node"><title>Node5</title>
<g id="a_node5"><a xlink:href="classMezzanine_1_1Physics_1_1Constraint.html" target="_top" xlink:title="This is the base class for all constraints supported. ">
<polygon fill="white" stroke="black" points="22.5,-268.5 22.5,-298.5 127.5,-298.5 127.5,-268.5 22.5,-268.5"/>
<text text-anchor="start" x="30.5" y="-286.5" font-family="Helvetica,sans-Serif" font-size="10.00">Mezzanine::Physics</text>
<text text-anchor="middle" x="75" y="-275.5" font-family="Helvetica,sans-Serif" font-size="10.00">::Constraint</text>
</a>
</g>
</g>
<!-- Node5&#45;&gt;Node4 -->
<g id="edge4" class="edge"><title>Node5&#45;&gt;Node4</title>
<path fill="none" stroke="midnightblue" d="M75,-258.108C75,-249.154 75,-239.323 75,-231.577"/>
<polygon fill="midnightblue" stroke="midnightblue" points="71.5001,-258.396 75,-268.396 78.5001,-258.396 71.5001,-258.396"/>
</g>
</g>
</svg>
