<?xml version="1.0" encoding="UTF-8" standalone="no"?>
<!DOCTYPE svg PUBLIC "-//W3C//DTD SVG 1.1//EN"
 "http://www.w3.org/Graphics/SVG/1.1/DTD/svg11.dtd">
<!-- Generated by graphviz version 2.26.3 (20100126.1600)
 -->
<!-- Title: Mezzanine::FunctorSubscriberSlot Pages: 1 -->
<!--zoomable 194 -->
<svg id="main" version="1.1" xmlns="http://www.w3.org/2000/svg" xmlns:xlink="http://www.w3.org/1999/xlink" xml:space="preserve" onload="init(evt)">
<style type="text/css"><![CDATA[
.edge:hover path { stroke: red; }
.edge:hover polygon { stroke: red; fill: red; }
]]></style>
<script type="text/javascript"><![CDATA[
var edges = document.getElementsByTagName('g');
if (edges && edges.length) {
  for (var i=0;i<edges.length;i++) {
    if (edges[i].id.substr(0,4)=='edge') {
      edges[i].setAttribute('class','edge');
    }
  }
}
]]></script>
        <defs>
                <circle id="rim" cx="0" cy="0" r="7"/>
                <circle id="rim2" cx="0" cy="0" r="3.5"/>
                <g id="zoomPlus">
                        <use xlink:href="#rim" fill="#404040">
                                <set attributeName="fill" to="#808080" begin="zoomplus.mouseover" end="zoomplus.mouseout"/>
                        </use>
                        <path d="M-4,0h8M0,-4v8" fill="none" stroke="white" stroke-width="1.5" pointer-events="none"/>
                </g>
                <g id="zoomMin">
                        <use xlink:href="#rim" fill="#404040">
                                <set attributeName="fill" to="#808080" begin="zoomminus.mouseover" end="zoomminus.mouseout"/>
                        </use>
                        <path d="M-4,0h8" fill="none" stroke="white" stroke-width="1.5" pointer-events="none"/>
                </g>
                <g id="dirArrow">
                        <path fill="none" stroke="white" stroke-width="1.5" d="M0,-3.0v7 M-2.5,-0.5L0,-3.0L2.5,-0.5"/>
                </g>
               <g id="resetDef">
                       <use xlink:href="#rim2" fill="#404040">
                               <set attributeName="fill" to="#808080" begin="reset.mouseover" end="reset.mouseout"/>
                       </use>
               </g>
        </defs>

<script type="text/javascript">
var viewWidth = 513;
var viewHeight = 194;
var sectionId = 'dynsection-1';
</script>
<script xlink:href="svgpan.js"/>
<svg id="graph" class="graph">
<g id="viewport">
<title>Mezzanine::FunctorSubscriberSlot</title>
<polygon fill="white" stroke="white" points="-4,5 -4,-190 510.398,-190 510.398,5 -4,5"/>
<!-- Node1 -->
<g id="node1" class="node"><title>Node1</title>
<polygon fill="#bfbfbf" stroke="black" points="230.898,-77 230.898,-97 393.898,-97 393.898,-77 230.898,-77"/>
<text text-anchor="middle" x="312.398" y="-84" font-family="FreeSans" font-size="10.00">Mezzanine::FunctorSubscriberSlot</text>
</g>
<!-- Node2 -->
<g id="node2" class="node"><title>Node2</title>
<a xlink:href="classMezzanine_1_1EventSubscriberSlot.html" target="_top" xlink:title="This class represents a slot in an event that can be subscribed to via subscribers, functors, or methods. ">
<polygon fill="white" stroke="black" points="55.3983,-159 55.3983,-179 209.398,-179 209.398,-159 55.3983,-159"/>
<text text-anchor="middle" x="132.398" y="-166" font-family="FreeSans" font-size="10.00">Mezzanine::EventSubscriberSlot</text>
</a>
</g>
<!-- Node2&#45;&gt;Node1 -->
<g id="edge2" class="edge"><title>Node2&#45;&gt;Node1</title>
<path fill="none" stroke="midnightblue" d="M163.607,-154.783C199.844,-138.275 258.687,-111.469 290.428,-97.0087"/>
<polygon fill="midnightblue" stroke="midnightblue" points="162.119,-151.614 154.47,-158.945 165.021,-157.985 162.119,-151.614"/>
</g>
<!-- Node6 -->
<g id="node10" class="node"><title>Node6</title>
<polygon fill="white" stroke="#bfbfbf" points="75.3983,-71 75.3983,-103 213.398,-103 213.398,-71 75.3983,-71"/>
<text text-anchor="start" x="83.3983" y="-90" font-family="FreeSans" font-size="10.00">std::vector&lt; EventSubscriber</text>
<text text-anchor="middle" x="144.398" y="-78" font-family="FreeSans" font-size="10.00">Slot * &gt;</text>
</g>
<!-- Node2&#45;&gt;Node6 -->
<g id="edge12" class="edge"><title>Node2&#45;&gt;Node6</title>
<path fill="none" stroke="#9a32cd" stroke-dasharray="5,2" d="M135.356,-148.789C137.418,-134.697 140.132,-116.15 142.047,-103.066"/>
<polygon fill="#9a32cd" stroke="#9a32cd" points="131.855,-148.544 133.87,-158.945 138.781,-149.557 131.855,-148.544"/>
<text text-anchor="middle" x="160.398" y="-125" font-family="FreeSans" font-size="10.00"> elements</text>
</g>
<!-- Node3 -->
<g id="node4" class="node"><title>Node3</title>
<a xlink:href="classMezzanine_1_1Event.html" target="_top" xlink:title="This class represents a given event that can be subscribed to and/or fired. ">
<polygon fill="white" stroke="black" points="98.8983,-1 98.8983,-21 189.898,-21 189.898,-1 98.8983,-1"/>
<text text-anchor="middle" x="144.398" y="-8" font-family="FreeSans" font-size="10.00">Mezzanine::Event</text>
</a>
</g>
<!-- Node3&#45;&gt;Node2 -->
<g id="edge4" class="edge"><title>Node3&#45;&gt;Node2</title>
<path fill="none" stroke="#9a32cd" stroke-dasharray="5,2" d="M88.8815,-19.7007C59.0432,-27.5119 24.7098,-42.2563 6.39833,-70 -21.1092,-111.677 51.9051,-143.581 97.999,-158.927"/>
<polygon fill="#9a32cd" stroke="#9a32cd" points="89.8981,-23.0559 98.7987,-17.3087 88.2568,-16.2511 89.8981,-23.0559"/>
<text text-anchor="middle" x="36.3983" y="-84" font-family="FreeSans" font-size="10.00"> SubbedEvent</text>
</g>
<!-- Node4 -->
<g id="node6" class="node"><title>Node4</title>
<a xlink:title="STL class. ">
<polygon fill="white" stroke="#bfbfbf" points="420.898,-77 420.898,-97 477.898,-97 477.898,-77 420.898,-77"/>
<text text-anchor="middle" x="449.398" y="-84" font-family="FreeSans" font-size="10.00">std::string</text>
</a>
</g>
<!-- Node4&#45;&gt;Node3 -->
<g id="edge6" class="edge"><title>Node4&#45;&gt;Node3</title>
<path fill="none" stroke="#9a32cd" stroke-dasharray="5,2" d="M413.51,-73.5118C409.778,-72.2617 406.025,-71.0662 402.398,-70 329.001,-48.4216 241.942,-29.9545 190.039,-19.6794"/>
<polygon fill="#9a32cd" stroke="#9a32cd" points="412.642,-76.9155 423.236,-76.8966 414.942,-70.3044 412.642,-76.9155"/>
<text text-anchor="middle" x="357.398" y="-43" font-family="FreeSans" font-size="10.00"> EventName</text>
</g>
<!-- Node5 -->
<g id="node8" class="node"><title>Node5</title>
<a xlink:title="STL class. ">
<polygon fill="white" stroke="#bfbfbf" points="414.898,-153 414.898,-185 505.898,-185 505.898,-153 414.898,-153"/>
<text text-anchor="start" x="422.898" y="-172" font-family="FreeSans" font-size="10.00">std::basic_string&lt;</text>
<text text-anchor="middle" x="460.398" y="-160" font-family="FreeSans" font-size="10.00"> char &gt;</text>
</a>
</g>
<!-- Node5&#45;&gt;Node4 -->
<g id="edge8" class="edge"><title>Node5&#45;&gt;Node4</title>
<path fill="none" stroke="midnightblue" d="M456.882,-142.789C454.818,-127.403 452.324,-108.809 450.8,-97.4478"/>
<polygon fill="midnightblue" stroke="midnightblue" points="453.427,-143.354 458.225,-152.799 460.364,-142.423 453.427,-143.354"/>
</g>
<!-- Node6&#45;&gt;Node3 -->
<g id="edge10" class="edge"><title>Node6&#45;&gt;Node3</title>
<path fill="none" stroke="#9a32cd" stroke-dasharray="5,2" d="M144.398,-60.6278C144.398,-47.0695 144.398,-31.3257 144.398,-21.2694"/>
<polygon fill="#9a32cd" stroke="#9a32cd" points="140.898,-60.8823 144.398,-70.8824 147.898,-60.8824 140.898,-60.8823"/>
<text text-anchor="middle" x="156.898" y="-43" font-family="FreeSans" font-size="10.00"> Slots</text>
</g>
<!-- Node7 -->
<g id="node13" class="node"><title>Node7</title>
<a xlink:href="classMezzanine_1_1FunctorEventSubscriber.html" target="_top" xlink:title="Basic class definition for functors used by a FunctorSubscriberSlot. ">
<polygon fill="white" stroke="black" points="227.398,-159 227.398,-179 397.398,-179 397.398,-159 227.398,-159"/>
<text text-anchor="middle" x="312.398" y="-166" font-family="FreeSans" font-size="10.00">Mezzanine::FunctorEventSubscriber</text>
</a>
</g>
<!-- Node7&#45;&gt;Node1 -->
<g id="edge14" class="edge"><title>Node7&#45;&gt;Node1</title>
<path fill="none" stroke="#9a32cd" stroke-dasharray="5,2" d="M312.398,-148.75C312.398,-132.361 312.398,-109.965 312.398,-97.1371"/>
<polygon fill="#9a32cd" stroke="#9a32cd" points="308.898,-148.945 312.398,-158.945 315.898,-148.945 308.898,-148.945"/>
<text text-anchor="middle" x="330.398" y="-125" font-family="FreeSans" font-size="10.00"> Functor</text>
</g>
</g>
</svg>
        <g id="navigator" transform="translate(0 0)" fill="#404254">
                <rect fill="#f2f5e9" fill-opacity="0.5" stroke="#606060" stroke-width=".5" x="0" y="0" width="60" height="60"/>
                <use id="zoomplus" xlink:href="#zoomPlus" x="17" y="9" onmousedown="handleZoom(evt,'in')"/>
                <use id="zoomminus" xlink:href="#zoomMin" x="42" y="9" onmousedown="handleZoom(evt,'out')"/>
                <use id="reset" xlink:href="#resetDef" x="30" y="36" onmousedown="handleReset()"/>
                <g id="arrowUp" xlink:href="#dirArrow" transform="translate(30 24)" onmousedown="handlePan(0,-1)">
                  <use xlink:href="#rim" fill="#404040">
                        <set attributeName="fill" to="#808080" begin="arrowUp.mouseover" end="arrowUp.mouseout"/>
                  </use>
                  <path fill="none" stroke="white" stroke-width="1.5" d="M0,-3.0v7 M-2.5,-0.5L0,-3.0L2.5,-0.5"/>
                </g>
                <g id="arrowRight" xlink:href="#dirArrow" transform="rotate(90) translate(36 -43)" onmousedown="handlePan(1,0)">
                  <use xlink:href="#rim" fill="#404040">
                        <set attributeName="fill" to="#808080" begin="arrowRight.mouseover" end="arrowRight.mouseout"/>
                  </use>
                  <path fill="none" stroke="white" stroke-width="1.5" d="M0,-3.0v7 M-2.5,-0.5L0,-3.0L2.5,-0.5"/>
                </g>
                <g id="arrowDown" xlink:href="#dirArrow" transform="rotate(180) translate(-30 -48)" onmousedown="handlePan(0,1)">
                  <use xlink:href="#rim" fill="#404040">
                        <set attributeName="fill" to="#808080" begin="arrowDown.mouseover" end="arrowDown.mouseout"/>
                  </use>
                  <path fill="none" stroke="white" stroke-width="1.5" d="M0,-3.0v7 M-2.5,-0.5L0,-3.0L2.5,-0.5"/>
                </g>
                <g id="arrowLeft" xlink:href="#dirArrow" transform="rotate(270) translate(-36 17)" onmousedown="handlePan(-1,0)">
                  <use xlink:href="#rim" fill="#404040">
                        <set attributeName="fill" to="#808080" begin="arrowLeft.mouseover" end="arrowLeft.mouseout"/>
                  </use>
                  <path fill="none" stroke="white" stroke-width="1.5" d="M0,-3.0v7 M-2.5,-0.5L0,-3.0L2.5,-0.5"/>
                </g>
        </g>
        <svg viewBox="0 0 15 15" width="100%" height="30px" preserveAspectRatio="xMaxYMin meet">
         <g id="arrow_out" transform="scale(0.3 0.3)">
          <a xlink:href="classMezzanine_1_1FunctorSubscriberSlot__coll__graph_org.svg" target="_base">
           <rect id="button" ry="5" rx="5" y="6" x="6" height="38" width="38"
                fill="#f2f5e9" fill-opacity="0.5" stroke="#606060" stroke-width="1.0"/>
           <path id="arrow"
             d="M 11.500037,31.436501 C 11.940474,20.09759 22.043105,11.32322 32.158766,21.979434 L 37.068811,17.246167 C 37.068811,17.246167 37.088388,32 37.088388,32 L 22.160133,31.978069 C 22.160133,31.978069 26.997745,27.140456 26.997745,27.140456 C 18.528582,18.264221 13.291696,25.230495 11.500037,31.436501 z"
             style="fill:#404040;"/>
          </a>
         </g>
        </svg>
</svg>
