<?xml version="1.0" encoding="UTF-8" standalone="no"?>
<!DOCTYPE svg PUBLIC "-//W3C//DTD SVG 1.1//EN"
 "http://www.w3.org/Graphics/SVG/1.1/DTD/svg11.dtd">
<!-- Generated by graphviz version 2.26.3 (20100126.1600)
 -->
<!-- Title: Mezzanine::NonStaticWorldObject Pages: 1 -->
<!--zoomable 589 -->
<svg id="main" version="1.1" xmlns="http://www.w3.org/2000/svg" xmlns:xlink="http://www.w3.org/1999/xlink" xml:space="preserve" onload="init(evt)">
        <defs>
                <circle id="rim" cx="0" cy="0" r="7"/>
                <circle id="rim2" cx="0" cy="0" r="3.5"/>
                <g id="zoomPlus">
                        <use xlink:href="#rim" fill="#404040">
                                <set attributeName="fill" to="#808080" begin="zoomplus.mouseover" end="zoomplus.mouseout"/>
                        </use>
                        <path d="M-4,0h8M0,-4v8" fill="none" stroke="white" stroke-width="1.5" pointer-events="none"/>
                </g>
                <g id="zoomMin">
                        <use xlink:href="#rim" fill="#404040">
                                <set attributeName="fill" to="#808080" begin="zoomminus.mouseover" end="zoomminus.mouseout"/>
                        </use>
                        <path d="M-4,0h8" fill="none" stroke="white" stroke-width="1.5" pointer-events="none"/>
                </g>
                <g id="dirArrow">
                        <path fill="none" stroke="white" stroke-width="1.5" d="M0,-3.0v7 M-2.5,-0.5L0,-3.0L2.5,-0.5"/>
                </g>
               <g id="resetDef">
                       <use xlink:href="#rim2" fill="#404040">
                               <set attributeName="fill" to="#808080" begin="reset.mouseover" end="reset.mouseout"/>
                       </use>
               </g>
        </defs>

<script type="text/javascript">
var viewWidth = 1204;
var viewHeight = 589;
var sectionId = 'dynsection-1';
</script>
<script xlink:href="svgpan.js"/>
<svg id="graph" class="graph">
<g id="viewport">
<title>Mezzanine::NonStaticWorldObject</title>
<!-- Node1 -->
<g id="node1" class="node"><title>Node1</title>
<polygon fill="#bfbfbf" stroke="black" points="820,-273 820,-305 954,-305 954,-273 820,-273"/>
<text text-anchor="start" x="828" y="-292" font-family="FreeSans" font-size="10.00">Mezzanine::NonStaticWorld</text>
<text text-anchor="middle" x="887" y="-280" font-family="FreeSans" font-size="10.00">Object</text>
</g>
<!-- Node2 -->
<g id="node2" class="node"><title>Node2</title>
<a xlink:href="classMezzanine_1_1WorldObject.xhtml" target="_top" xlink:title="This is the base class from which classes that are insertable into the physical world.">
<polygon fill="none" stroke="black" points="547,-438 547,-458 667,-458 667,-438 547,-438"/>
<text text-anchor="middle" x="607" y="-445" font-family="FreeSans" font-size="10.00">Mezzanine::WorldObject</text>
</a>
</g>
<!-- Node2&#45;&gt;Node1 -->
<g id="edge2" class="edge"><title>Node2&#45;&gt;Node1</title>
<path fill="none" stroke="midnightblue" d="M618.965,-429.21C634.218,-406.731 662.648,-369.452 696,-348 717.089,-334.436 775.225,-317.386 821.866,-305.108"/>
<polygon fill="midnightblue" stroke="midnightblue" points="615.85,-427.575 613.259,-437.848 621.691,-431.433 615.85,-427.575"/>
</g>
<!-- Node6 -->
<g id="node10" class="node"><title>Node6</title>
<a xlink:href="classMezzanine_1_1WorldObjectPhysicsSettings.xhtml" target="_top" xlink:title="This is a base helper class for configuring physics settings of a world object.">
<polygon fill="none" stroke="black" points="810.5,-471 810.5,-503 963.5,-503 963.5,-471 810.5,-471"/>
<text text-anchor="start" x="818.5" y="-490" font-family="FreeSans" font-size="10.00">Mezzanine::WorldObjectPhysics</text>
<text text-anchor="middle" x="887" y="-478" font-family="FreeSans" font-size="10.00">Settings</text>
</a>
</g>
<!-- Node2&#45;&gt;Node6 -->
<g id="edge12" class="edge"><title>Node2&#45;&gt;Node6</title>
<path fill="none" stroke="#9a32cd" stroke-dasharray="5,2" d="M632.175,-463.171C649.455,-472.669 673.286,-484.02 696,-489 733.089,-497.132 775.209,-497.59 810.441,-495.611"/>
<polygon fill="#9a32cd" stroke="#9a32cd" points="633.723,-460.025 623.298,-458.137 630.27,-466.114 633.723,-460.025"/>
<text text-anchor="middle" x="743" y="-499" font-family="FreeSans" font-size="10.00"> Parent</text>
</g>
<!-- Node11 -->
<g id="node22" class="node"><title>Node11</title>
<a xlink:href="classMezzanine_1_1Physics_1_1Collision.xhtml" target="_top" xlink:title="This is an event class used to track collsions in the physics world.">
<polygon fill="none" stroke="black" points="837,-342 837,-374 937,-374 937,-342 837,-342"/>
<text text-anchor="start" x="845" y="-361" font-family="FreeSans" font-size="10.00">Mezzanine::Physics</text>
<text text-anchor="middle" x="887" y="-349" font-family="FreeSans" font-size="10.00">::Collision</text>
</a>
</g>
<!-- Node2&#45;&gt;Node11 -->
<g id="edge28" class="edge"><title>Node2&#45;&gt;Node11</title>
<path fill="none" stroke="#9a32cd" stroke-dasharray="5,2" d="M621.182,-429.962C637.12,-411.21 664.87,-382.839 696,-370 740.998,-351.441 797.044,-350.194 836.758,-352.522"/>
<polygon fill="#9a32cd" stroke="#9a32cd" points="618.375,-427.866 614.721,-437.811 623.779,-432.315 618.375,-427.866"/>
<text text-anchor="middle" x="743" y="-385" font-family="FreeSans" font-size="10.00"> ObjectA</text>
<text text-anchor="middle" x="743" y="-373" font-family="FreeSans" font-size="10.00">ObjectB</text>
</g>
<!-- Node13 -->
<g id="node27" class="node"><title>Node13</title>
<a xlink:href="classMezzanine_1_1WorldObjectGraphicsSettings.xhtml" target="_top" xlink:title="This is a helper class for configuring graphics settings of a World Object.">
<polygon fill="none" stroke="black" points="808,-392 808,-424 966,-424 966,-392 808,-392"/>
<text text-anchor="start" x="816" y="-411" font-family="FreeSans" font-size="10.00">Mezzanine::WorldObjectGraphics</text>
<text text-anchor="middle" x="887" y="-399" font-family="FreeSans" font-size="10.00">Settings</text>
</a>
</g>
<!-- Node2&#45;&gt;Node13 -->
<g id="edge32" class="edge"><title>Node2&#45;&gt;Node13</title>
<path fill="none" stroke="#9a32cd" stroke-dasharray="5,2" d="M631.49,-432.822C648.797,-423.022 672.93,-411.17 696,-406 732.08,-397.914 772.964,-397.251 807.623,-399.079"/>
<polygon fill="#9a32cd" stroke="#9a32cd" points="629.497,-429.933 622.628,-438 633.028,-435.977 629.497,-429.933"/>
<text text-anchor="middle" x="743" y="-409" font-family="FreeSans" font-size="10.00"> Parent</text>
</g>
<!-- Node3 -->
<g id="node4" class="node"><title>Node3</title>
<a xlink:href="classMezzanine_1_1Audio_1_1SoundSet.xhtml" target="_top" xlink:title="This is a vector that stores sounds.">
<polygon fill="none" stroke="black" points="296.5,-438 296.5,-458 435.5,-458 435.5,-438 296.5,-438"/>
<text text-anchor="middle" x="366" y="-445" font-family="FreeSans" font-size="10.00">Mezzanine::Audio::SoundSet</text>
</a>
</g>
<!-- Node3&#45;&gt;Node2 -->
<g id="edge4" class="edge"><title>Node3&#45;&gt;Node2</title>
<path fill="none" stroke="#9a32cd" stroke-dasharray="5,2" d="M445.773,-448C478.723,-448 516.278,-448 546.848,-448"/>
<polygon fill="#9a32cd" stroke="#9a32cd" points="445.707,-444.5 435.707,-448 445.707,-451.5 445.707,-444.5"/>
<text text-anchor="middle" x="486" y="-451" font-family="FreeSans" font-size="10.00"> ObjectSounds</text>
</g>
<!-- Node4 -->
<g id="node6" class="node"><title>Node4</title>
<a xlink:title="STL class.">
<polygon fill="none" stroke="#bfbfbf" points="108,-438 108,-458 218,-458 218,-438 108,-438"/>
<text text-anchor="middle" x="163" y="-445" font-family="FreeSans" font-size="10.00">std::vector&lt; Sound * &gt;</text>
</a>
</g>
<!-- Node4&#45;&gt;Node3 -->
<g id="edge6" class="edge"><title>Node4&#45;&gt;Node3</title>
<path fill="none" stroke="midnightblue" d="M228.303,-448C250.005,-448 274.247,-448 296.27,-448"/>
<polygon fill="midnightblue" stroke="midnightblue" points="228.203,-444.5 218.203,-448 228.202,-451.5 228.203,-444.5"/>
</g>
<!-- Node5 -->
<g id="node8" class="node"><title>Node5</title>
<polygon fill="none" stroke="#bfbfbf" points="0.5,-438 0.5,-458 29.5,-458 29.5,-438 0.5,-438"/>
<text text-anchor="middle" x="15" y="-445" font-family="FreeSans" font-size="10.00">T</text>
</g>
<!-- Node5&#45;&gt;Node4 -->
<g id="edge8" class="edge"><title>Node5&#45;&gt;Node4</title>
<path fill="none" stroke="#9a32cd" stroke-dasharray="5,2" d="M39.9456,-448C58.4506,-448 84.4027,-448 107.706,-448"/>
<polygon fill="#9a32cd" stroke="#9a32cd" points="39.7319,-444.5 29.7319,-448 39.7318,-451.5 39.7319,-444.5"/>
<text text-anchor="middle" x="69" y="-451" font-family="FreeSans" font-size="10.00"> elements</text>
</g>
<!-- Node6&#45;&gt;Node2 -->
<g id="edge10" class="edge"><title>Node6&#45;&gt;Node2</title>
<path fill="none" stroke="#9a32cd" stroke-dasharray="5,2" d="M800.539,-474.957C757.273,-468.931 705.976,-461.786 667.067,-456.366"/>
<polygon fill="#9a32cd" stroke="#9a32cd" points="800.106,-478.431 810.493,-476.344 801.072,-471.498 800.106,-478.431"/>
<text text-anchor="middle" x="743" y="-476" font-family="FreeSans" font-size="10.00"> PhysicsSettings</text>
</g>
<!-- Node7 -->
<g id="node13" class="node"><title>Node7</title>
<a xlink:href="classMezzanine_1_1Physics_1_1CollisionShape.xhtml" target="_top" xlink:title="This is the base class for all collision shapes.">
<polygon fill="none" stroke="black" points="557,-549 557,-581 657,-581 657,-549 557,-549"/>
<text text-anchor="start" x="565" y="-568" font-family="FreeSans" font-size="10.00">Mezzanine::Physics</text>
<text text-anchor="middle" x="607" y="-556" font-family="FreeSans" font-size="10.00">::CollisionShape</text>
</a>
</g>
<!-- Node7&#45;&gt;Node6 -->
<g id="edge14" class="edge"><title>Node7&#45;&gt;Node6</title>
<path fill="none" stroke="#9a32cd" stroke-dasharray="5,2" d="M666.692,-548.372C714.674,-535.005 781.672,-516.341 829.156,-503.114"/>
<polygon fill="#9a32cd" stroke="#9a32cd" points="665.752,-545 657.058,-551.055 667.631,-551.743 665.752,-545"/>
<text text-anchor="middle" x="743" y="-542" font-family="FreeSans" font-size="10.00"> WorldObjectShape</text>
</g>
<!-- Node8 -->
<g id="node15" class="node"><title>Node8</title>
<a xlink:title="STL class.">
<polygon fill="none" stroke="#bfbfbf" points="337.5,-495 337.5,-515 394.5,-515 394.5,-495 337.5,-495"/>
<text text-anchor="middle" x="366" y="-502" font-family="FreeSans" font-size="10.00">std::string</text>
</a>
</g>
<!-- Node8&#45;&gt;Node2 -->
<g id="edge20" class="edge"><title>Node8&#45;&gt;Node2</title>
<path fill="none" stroke="#9a32cd" stroke-dasharray="5,2" d="M404.559,-495.88C448.306,-485.533 519.433,-468.711 564.68,-458.009"/>
<polygon fill="#9a32cd" stroke="#9a32cd" points="403.518,-492.53 394.592,-498.238 405.129,-499.342 403.518,-492.53"/>
<text text-anchor="middle" x="486" y="-486" font-family="FreeSans" font-size="10.00"> Name</text>
</g>
<!-- Node8&#45;&gt;Node7 -->
<g id="edge16" class="edge"><title>Node8&#45;&gt;Node7</title>
<path fill="none" stroke="#9a32cd" stroke-dasharray="5,2" d="M404.522,-514.591C445.751,-524.855 511.327,-541.181 556.625,-552.459"/>
<polygon fill="#9a32cd" stroke="#9a32cd" points="405.142,-511.138 394.592,-512.118 403.45,-517.931 405.142,-511.138"/>
<text text-anchor="middle" x="486" y="-545" font-family="FreeSans" font-size="10.00"> Name</text>
</g>
<!-- Node9 -->
<g id="node17" class="node"><title>Node9</title>
<a xlink:title="STL class.">
<polygon fill="none" stroke="#bfbfbf" points="117.5,-489 117.5,-521 208.5,-521 208.5,-489 117.5,-489"/>
<text text-anchor="start" x="125.5" y="-508" font-family="FreeSans" font-size="10.00">std::basic_string&lt;</text>
<text text-anchor="middle" x="163" y="-496" font-family="FreeSans" font-size="10.00"> char &gt;</text>
</a>
</g>
<!-- Node9&#45;&gt;Node8 -->
<g id="edge18" class="edge"><title>Node9&#45;&gt;Node8</title>
<path fill="none" stroke="midnightblue" d="M218.591,-505C257.098,-505 306.773,-505 337.498,-505"/>
<polygon fill="midnightblue" stroke="midnightblue" points="218.557,-501.5 208.557,-505 218.557,-508.5 218.557,-501.5"/>
</g>
<!-- Node10 -->
<g id="node20" class="node"><title>Node10</title>
<polygon fill="none" stroke="#bfbfbf" points="1074,-471 1074,-503 1166,-503 1166,-471 1074,-471"/>
<text text-anchor="start" x="1082" y="-490" font-family="FreeSans" font-size="10.00">std::set&lt; Physics::</text>
<text text-anchor="middle" x="1120" y="-478" font-family="FreeSans" font-size="10.00">Collision * &gt;</text>
</g>
<!-- Node10&#45;&gt;Node2 -->
<g id="edge22" class="edge"><title>Node10&#45;&gt;Node2</title>
<path fill="none" stroke="#9a32cd" stroke-dasharray="5,2" d="M1064.06,-502.921C981.362,-523.676 822.626,-552.801 696,-512 662.851,-501.319 631.615,-473.204 616.497,-458.039"/>
<polygon fill="#9a32cd" stroke="#9a32cd" points="1064.94,-506.309 1073.76,-500.437 1063.2,-499.527 1064.94,-506.309"/>
<text text-anchor="middle" x="887" y="-535" font-family="FreeSans" font-size="10.00"> CurrentCollisions</text>
</g>
<!-- Node11&#45;&gt;Node10 -->
<g id="edge24" class="edge"><title>Node11&#45;&gt;Node10</title>
<path fill="none" stroke="#9a32cd" stroke-dasharray="5,2" d="M946.804,-374.893C953.389,-377.35 959.908,-380.056 966,-383 1017.7,-407.99 1071.96,-448.508 1100.22,-470.879"/>
<polygon fill="#9a32cd" stroke="#9a32cd" points="947.747,-371.514 937.152,-371.475 945.41,-378.112 947.747,-371.514"/>
<text text-anchor="middle" x="1005" y="-418" font-family="FreeSans" font-size="10.00"> keys</text>
</g>
<!-- Node12 -->
<g id="node24" class="node"><title>Node12</title>
<polygon fill="none" stroke="#bfbfbf" points="559,-255 559,-275 655,-275 655,-255 559,-255"/>
<text text-anchor="middle" x="607" y="-262" font-family="FreeSans" font-size="10.00">std::vector&lt; Real &gt;</text>
</g>
<!-- Node12&#45;&gt;Node11 -->
<g id="edge26" class="edge"><title>Node12&#45;&gt;Node11</title>
<path fill="none" stroke="#9a32cd" stroke-dasharray="5,2" d="M649.343,-252.588C689.289,-243.586 748.999,-237.42 790,-266 808.691,-279.029 793.137,-296.732 808,-314 818.139,-325.779 832.251,-335.029 845.746,-341.943"/>
<polygon fill="#9a32cd" stroke="#9a32cd" points="648.291,-249.241 639.386,-254.982 649.928,-256.047 648.291,-249.241"/>
<text text-anchor="middle" x="743" y="-269" font-family="FreeSans" font-size="10.00"> PenetrationDistances</text>
</g>
<!-- Node13&#45;&gt;Node2 -->
<g id="edge30" class="edge"><title>Node13&#45;&gt;Node2</title>
<path fill="none" stroke="#9a32cd" stroke-dasharray="5,2" d="M797.773,-420.747C755.102,-426.843 705.151,-433.978 667.067,-439.419"/>
<polygon fill="#9a32cd" stroke="#9a32cd" points="798.481,-424.181 807.886,-419.302 797.491,-417.251 798.481,-424.181"/>
<text text-anchor="middle" x="743" y="-438" font-family="FreeSans" font-size="10.00"> GraphicsSettings</text>
</g>
<!-- Node14 -->
<g id="node30" class="node"><title>Node14</title>
<a xlink:href="classMezzanine_1_1Graphics_1_1Mesh.xhtml" target="_top" xlink:title="This class is used to check and modify the properties of a graphics mesh.">
<polygon fill="none" stroke="black" points="554.5,-293 554.5,-325 659.5,-325 659.5,-293 554.5,-293"/>
<text text-anchor="start" x="562.5" y="-312" font-family="FreeSans" font-size="10.00">Mezzanine::Graphics</text>
<text text-anchor="middle" x="607" y="-300" font-family="FreeSans" font-size="10.00">::Mesh</text>
</a>
</g>
<!-- Node14&#45;&gt;Node13 -->
<g id="edge34" class="edge"><title>Node14&#45;&gt;Node13</title>
<path fill="none" stroke="#9a32cd" stroke-dasharray="5,2" d="M669.97,-303.207C708.506,-303.03 756.648,-309.262 790,-336 807.452,-349.991 791.721,-367.659 808,-383 811.664,-386.453 815.803,-389.43 820.218,-391.995"/>
<polygon fill="#9a32cd" stroke="#9a32cd" points="669.819,-299.709 659.887,-303.398 669.951,-306.708 669.819,-299.709"/>
<text text-anchor="middle" x="743" y="-339" font-family="FreeSans" font-size="10.00"> WorldObjectMesh</text>
</g>
<!-- Node15 -->
<g id="node32" class="node"><title>Node15</title>
<a xlink:href="classMezzanine_1_1Graphics_1_1Skeleton.xhtml" target="_top" xlink:title="This class encapsulates the Skeletal animation functionality of a Mesh.">
<polygon fill="none" stroke="black" points="313.5,-209 313.5,-241 418.5,-241 418.5,-209 313.5,-209"/>
<text text-anchor="start" x="321.5" y="-228" font-family="FreeSans" font-size="10.00">Mezzanine::Graphics</text>
<text text-anchor="middle" x="366" y="-216" font-family="FreeSans" font-size="10.00">::Skeleton</text>
</a>
</g>
<!-- Node15&#45;&gt;Node14 -->
<g id="edge36" class="edge"><title>Node15&#45;&gt;Node14</title>
<path fill="none" stroke="#9a32cd" stroke-dasharray="5,2" d="M421.762,-244.436C464.001,-259.158 521.332,-279.141 560.974,-292.958"/>
<polygon fill="#9a32cd" stroke="#9a32cd" points="422.777,-241.083 412.182,-241.097 420.473,-247.693 422.777,-241.083"/>
<text text-anchor="middle" x="486" y="-279" font-family="FreeSans" font-size="10.00"> MeshSkel</text>
</g>
<!-- Node17 -->
<g id="node36" class="node"><title>Node17</title>
<a xlink:href="classMezzanine_1_1Graphics_1_1Bone.xhtml" target="_top" xlink:title="This class encapsulates the bones contained in a skeleton used for animation.">
<polygon fill="none" stroke="black" points="554.5,-157 554.5,-189 659.5,-189 659.5,-157 554.5,-157"/>
<text text-anchor="start" x="562.5" y="-176" font-family="FreeSans" font-size="10.00">Mezzanine::Graphics</text>
<text text-anchor="middle" x="607" y="-164" font-family="FreeSans" font-size="10.00">::Bone</text>
</a>
</g>
<!-- Node15&#45;&gt;Node17 -->
<g id="edge44" class="edge"><title>Node15&#45;&gt;Node17</title>
<path fill="none" stroke="#9a32cd" stroke-dasharray="5,2" d="M426.335,-206.146C435.554,-203.564 444.997,-201.087 454,-199 487.071,-191.333 524.652,-184.915 554.292,-180.373"/>
<polygon fill="#9a32cd" stroke="#9a32cd" points="425.099,-202.859 416.449,-208.976 427.026,-209.589 425.099,-202.859"/>
<text text-anchor="middle" x="486" y="-202" font-family="FreeSans" font-size="10.00"> Host</text>
</g>
<!-- Node16 -->
<g id="node34" class="node"><title>Node16</title>
<polygon fill="none" stroke="#bfbfbf" points="834.5,-202 834.5,-222 939.5,-222 939.5,-202 834.5,-202"/>
<text text-anchor="middle" x="887" y="-209" font-family="FreeSans" font-size="10.00">std::vector&lt; Bone * &gt;</text>
</g>
<!-- Node16&#45;&gt;Node15 -->
<g id="edge38" class="edge"><title>Node16&#45;&gt;Node15</title>
<path fill="none" stroke="#9a32cd" stroke-dasharray="5,2" d="M824.423,-213.561C720.84,-216.146 515.588,-221.267 418.823,-223.682"/>
<polygon fill="#9a32cd" stroke="#9a32cd" points="824.515,-217.06 834.425,-213.312 824.34,-210.062 824.515,-217.06"/>
<text text-anchor="middle" x="607" y="-224" font-family="FreeSans" font-size="10.00"> Bones</text>
</g>
<!-- Node17&#45;&gt;Node16 -->
<g id="edge40" class="edge"><title>Node17&#45;&gt;Node16</title>
<path fill="none" stroke="#9a32cd" stroke-dasharray="5,2" d="M669.609,-181.72C719.075,-188.61 787.337,-198.118 834.095,-204.631"/>
<polygon fill="#9a32cd" stroke="#9a32cd" points="670.053,-178.249 659.666,-180.336 669.087,-185.182 670.053,-178.249"/>
<text text-anchor="middle" x="743" y="-202" font-family="FreeSans" font-size="10.00"> elements</text>
</g>
<!-- Node18 -->
<g id="node38" class="node"><title>Node18</title>
<a xlink:href="classMezzanine_1_1TransformableObject.xhtml" target="_top" xlink:title="This is an interface for all 3D objects that can have their full transforms manipulated.">
<polygon fill="none" stroke="black" points="302,-149 302,-181 430,-181 430,-149 302,-149"/>
<text text-anchor="start" x="310" y="-168" font-family="FreeSans" font-size="10.00">Mezzanine::Transformable</text>
<text text-anchor="middle" x="366" y="-156" font-family="FreeSans" font-size="10.00">Object</text>
</a>
</g>
<!-- Node18&#45;&gt;Node17 -->
<g id="edge42" class="edge"><title>Node18&#45;&gt;Node17</title>
<path fill="none" stroke="midnightblue" d="M440.468,-167.472C477.323,-168.695 520.939,-170.143 554.287,-171.25"/>
<polygon fill="midnightblue" stroke="midnightblue" points="440.378,-163.967 430.267,-167.133 440.145,-170.963 440.378,-163.967"/>
</g>
<!-- Node19 -->
<g id="node41" class="node"><title>Node19</title>
<polygon fill="none" stroke="#bfbfbf" points="304.5,-299 304.5,-319 427.5,-319 427.5,-299 304.5,-299"/>
<text text-anchor="middle" x="366" y="-306" font-family="FreeSans" font-size="10.00">std::vector&lt; SubMesh * &gt;</text>
</g>
<!-- Node19&#45;&gt;Node14 -->
<g id="edge46" class="edge"><title>Node19&#45;&gt;Node14</title>
<path fill="none" stroke="#9a32cd" stroke-dasharray="5,2" d="M438.082,-309C475.467,-309 520.309,-309 554.394,-309"/>
<polygon fill="#9a32cd" stroke="#9a32cd" points="437.751,-305.5 427.751,-309 437.75,-312.5 437.751,-305.5"/>
<text text-anchor="middle" x="486" y="-312" font-family="FreeSans" font-size="10.00"> SubMeshes</text>
</g>
<!-- Node20 -->
<g id="node43" class="node"><title>Node20</title>
<a xlink:href="classMezzanine_1_1Graphics_1_1SubMesh.xhtml" target="_top" xlink:title="This class represents a sub&#45;section of an overall mesh.">
<polygon fill="none" stroke="black" points="110.5,-293 110.5,-325 215.5,-325 215.5,-293 110.5,-293"/>
<text text-anchor="start" x="118.5" y="-312" font-family="FreeSans" font-size="10.00">Mezzanine::Graphics</text>
<text text-anchor="middle" x="163" y="-300" font-family="FreeSans" font-size="10.00">::SubMesh</text>
</a>
</g>
<!-- Node20&#45;&gt;Node19 -->
<g id="edge48" class="edge"><title>Node20&#45;&gt;Node19</title>
<path fill="none" stroke="#9a32cd" stroke-dasharray="5,2" d="M225.65,-309C250.666,-309 279.389,-309 304.308,-309"/>
<polygon fill="#9a32cd" stroke="#9a32cd" points="225.542,-305.5 215.542,-309 225.542,-312.5 225.542,-305.5"/>
<text text-anchor="middle" x="257" y="-312" font-family="FreeSans" font-size="10.00"> elements</text>
</g>
<!-- Node21 -->
<g id="node45" class="node"><title>Node21</title>
<a xlink:href="classMezzanine_1_1AttachableParent.xhtml" target="_top" xlink:title="Base class for objects that can have attachables attached to them.">
<polygon fill="none" stroke="black" points="536,-114 536,-134 678,-134 678,-114 536,-114"/>
<text text-anchor="middle" x="607" y="-121" font-family="FreeSans" font-size="10.00">Mezzanine::AttachableParent</text>
</a>
</g>
<!-- Node21&#45;&gt;Node1 -->
<g id="edge50" class="edge"><title>Node21&#45;&gt;Node1</title>
<path fill="none" stroke="midnightblue" d="M649.816,-137.062C703.069,-153.381 787.369,-179.485 790,-182 806.771,-198.031 794.056,-212.457 808,-231 820.987,-248.271 840.531,-262.68 856.93,-272.816"/>
<polygon fill="midnightblue" stroke="midnightblue" points="650.523,-133.618 639.937,-134.038 648.474,-140.312 650.523,-133.618"/>
</g>
<!-- Node24 -->
<g id="node51" class="node"><title>Node24</title>
<a xlink:href="classMezzanine_1_1AttachableChild.xhtml" target="_top" xlink:title="This class is the base class for objects that can be attached to AttachableParent.">
<polygon fill="none" stroke="black" points="819.5,-77 819.5,-97 954.5,-97 954.5,-77 819.5,-77"/>
<text text-anchor="middle" x="887" y="-84" font-family="FreeSans" font-size="10.00">Mezzanine::AttachableChild</text>
</a>
</g>
<!-- Node21&#45;&gt;Node24 -->
<g id="edge66" class="edge"><title>Node21&#45;&gt;Node24</title>
<path fill="none" stroke="#9a32cd" stroke-dasharray="5,2" d="M688.135,-113.279C729.779,-107.776 779.92,-101.15 819.435,-95.9283"/>
<polygon fill="#9a32cd" stroke="#9a32cd" points="687.473,-109.836 678.018,-114.616 688.39,-116.775 687.473,-109.836"/>
<text text-anchor="middle" x="743" y="-116" font-family="FreeSans" font-size="10.00"> Parent</text>
</g>
<!-- Node22 -->
<g id="node47" class="node"><title>Node22</title>
<a xlink:href="classMezzanine_1_1AttachableBase.xhtml" target="_top" xlink:title="This class is the base class for other attachable classes and is responsible for transform updates to...">
<polygon fill="none" stroke="black" points="298.5,-90 298.5,-110 433.5,-110 433.5,-90 298.5,-90"/>
<text text-anchor="middle" x="366" y="-97" font-family="FreeSans" font-size="10.00">Mezzanine::AttachableBase</text>
</a>
</g>
<!-- Node22&#45;&gt;Node21 -->
<g id="edge52" class="edge"><title>Node22&#45;&gt;Node21</title>
<path fill="none" stroke="midnightblue" d="M444.052,-107.773C473.61,-110.716 507.076,-114.049 535.956,-116.925"/>
<polygon fill="midnightblue" stroke="midnightblue" points="444.071,-104.257 433.773,-106.749 443.377,-111.223 444.071,-104.257"/>
</g>
<!-- Node22&#45;&gt;Node24 -->
<g id="edge58" class="edge"><title>Node22&#45;&gt;Node24</title>
<path fill="none" stroke="midnightblue" d="M443.797,-98.0588C545.627,-95.5179 722.473,-91.1053 819.129,-88.6935"/>
<polygon fill="midnightblue" stroke="midnightblue" points="443.487,-94.5654 433.578,-98.3138 443.662,-101.563 443.487,-94.5654"/>
</g>
<!-- Node23 -->
<g id="node49" class="node"><title>Node23</title>
<polygon fill="none" stroke="#bfbfbf" points="1044.5,-110 1044.5,-130 1195.5,-130 1195.5,-110 1044.5,-110"/>
<text text-anchor="middle" x="1120" y="-117" font-family="FreeSans" font-size="10.00">std::vector&lt; AttachableChild * &gt;</text>
</g>
<!-- Node23&#45;&gt;Node21 -->
<g id="edge54" class="edge"><title>Node23&#45;&gt;Node21</title>
<path fill="none" stroke="#9a32cd" stroke-dasharray="5,2" d="M1034.21,-122.806C1031.44,-122.875 1028.7,-122.94 1026,-123 879.364,-126.272 842.663,-127.648 696,-126 690.282,-125.936 684.358,-125.848 678.406,-125.746"/>
<polygon fill="#9a32cd" stroke="#9a32cd" points="1034.42,-126.302 1044.33,-122.541 1034.24,-119.304 1034.42,-126.302"/>
<text text-anchor="middle" x="887" y="-130" font-family="FreeSans" font-size="10.00"> Attached</text>
</g>
<!-- Node24&#45;&gt;Node23 -->
<g id="edge56" class="edge"><title>Node24&#45;&gt;Node23</title>
<path fill="none" stroke="#9a32cd" stroke-dasharray="5,2" d="M964.622,-97.9937C991.968,-101.867 1022.54,-106.197 1049.29,-109.985"/>
<polygon fill="#9a32cd" stroke="#9a32cd" points="965.098,-94.5263 954.706,-96.5893 964.117,-101.457 965.098,-94.5263"/>
<text text-anchor="middle" x="1005" y="-110" font-family="FreeSans" font-size="10.00"> elements</text>
</g>
<!-- Node25 -->
<g id="node54" class="node"><title>Node25</title>
<a xlink:href="classMezzanine_1_1Transform.xhtml" target="_top" xlink:title="Stores information about relative location and rotation in 3d space.">
<polygon fill="none" stroke="black" points="552,-32 552,-52 662,-52 662,-32 552,-32"/>
<text text-anchor="middle" x="607" y="-39" font-family="FreeSans" font-size="10.00">Mezzanine::Transform</text>
</a>
</g>
<!-- Node25&#45;&gt;Node24 -->
<g id="edge60" class="edge"><title>Node25&#45;&gt;Node24</title>
<path fill="none" stroke="#9a32cd" stroke-dasharray="5,2" d="M672.48,-42.145C707.615,-43.2609 751.491,-46.326 790,-54 815.644,-59.1104 843.821,-69.2328 863.167,-76.9262"/>
<polygon fill="#9a32cd" stroke="#9a32cd" points="672.436,-38.6426 662.344,-41.869 672.245,-45.64 672.436,-38.6426"/>
<text text-anchor="middle" x="743" y="-57" font-family="FreeSans" font-size="10.00"> LocalXform</text>
</g>
<!-- Node26 -->
<g id="node56" class="node"><title>Node26</title>
<a xlink:href="classMezzanine_1_1Vector3.xhtml" target="_top" xlink:title="This is used to represent a point in space, or a vector through space.">
<polygon fill="none" stroke="black" points="316,-38 316,-58 416,-58 416,-38 316,-38"/>
<text text-anchor="middle" x="366" y="-45" font-family="FreeSans" font-size="10.00">Mezzanine::Vector3</text>
</a>
</g>
<!-- Node26&#45;&gt;Node25 -->
<g id="edge62" class="edge"><title>Node26&#45;&gt;Node25</title>
<path fill="none" stroke="#9a32cd" stroke-dasharray="5,2" d="M426.269,-46.4995C464.771,-45.541 514.317,-44.3075 551.793,-43.3744"/>
<polygon fill="#9a32cd" stroke="#9a32cd" points="426.138,-43.0016 416.228,-46.7495 426.312,-49.9994 426.138,-43.0016"/>
<text text-anchor="middle" x="486" y="-49" font-family="FreeSans" font-size="10.00"> Location</text>
</g>
<!-- Node27 -->
<g id="node58" class="node"><title>Node27</title>
<a xlink:href="classMezzanine_1_1Quaternion.xhtml" target="_top" xlink:title="This is used to store information about rotation in 3d space.">
<polygon fill="none" stroke="black" points="309,-0 309,-20 423,-20 423,-0 309,-0"/>
<text text-anchor="middle" x="366" y="-7" font-family="FreeSans" font-size="10.00">Mezzanine::Quaternion</text>
</a>
</g>
<!-- Node27&#45;&gt;Node25 -->
<g id="edge64" class="edge"><title>Node27&#45;&gt;Node25</title>
<path fill="none" stroke="#9a32cd" stroke-dasharray="5,2" d="M432.991,-18.0706C459.484,-21.3416 490.192,-25.2315 518,-29 528.986,-30.4889 540.725,-32.1518 551.953,-33.7778"/>
<polygon fill="#9a32cd" stroke="#9a32cd" points="433.411,-14.596 423.058,-16.8489 432.556,-21.5436 433.411,-14.596"/>
<text text-anchor="middle" x="486" y="-32" font-family="FreeSans" font-size="10.00"> Rotation</text>
</g>
</g>
</svg>
        <g id="navigator" transform="translate(0 0)" fill="#404254">
                <rect fill="#f2f5e9" fill-opacity="0.5" stroke="#606060" stroke-width=".5" x="0" y="0" width="60" height="60"/>
                <use id="zoomplus" xlink:href="#zoomPlus" x="17" y="9" onmousedown="handleZoom(evt,'in')"/>
                <use id="zoomminus" xlink:href="#zoomMin" x="42" y="9" onmousedown="handleZoom(evt,'out')"/>
                <use id="reset" xlink:href="#resetDef" x="30" y="36" onmousedown="handleReset()"/>
                <g id="arrowUp" xlink:href="#dirArrow" transform="translate(30 24)" onmousedown="handlePan(0,-1)">
                  <use xlink:href="#rim" fill="#404040">
                        <set attributeName="fill" to="#808080" begin="arrowUp.mouseover" end="arrowUp.mouseout"/>
                  </use>
                  <path fill="none" stroke="white" stroke-width="1.5" d="M0,-3.0v7 M-2.5,-0.5L0,-3.0L2.5,-0.5"/>
                </g>
                <g id="arrowRight" xlink:href="#dirArrow" transform="rotate(90) translate(36 -43)" onmousedown="handlePan(1,0)">
                  <use xlink:href="#rim" fill="#404040">
                        <set attributeName="fill" to="#808080" begin="arrowRight.mouseover" end="arrowRight.mouseout"/>
                  </use>
                  <path fill="none" stroke="white" stroke-width="1.5" d="M0,-3.0v7 M-2.5,-0.5L0,-3.0L2.5,-0.5"/>
                </g>
                <g id="arrowDown" xlink:href="#dirArrow" transform="rotate(180) translate(-30 -48)" onmousedown="handlePan(0,1)">
                  <use xlink:href="#rim" fill="#404040">
                        <set attributeName="fill" to="#808080" begin="arrowDown.mouseover" end="arrowDown.mouseout"/>
                  </use>
                  <path fill="none" stroke="white" stroke-width="1.5" d="M0,-3.0v7 M-2.5,-0.5L0,-3.0L2.5,-0.5"/>
                </g>
                <g id="arrowLeft" xlink:href="#dirArrow" transform="rotate(270) translate(-36 17)" onmousedown="handlePan(-1,0)">
                  <use xlink:href="#rim" fill="#404040">
                        <set attributeName="fill" to="#808080" begin="arrowLeft.mouseover" end="arrowLeft.mouseout"/>
                  </use>
                  <path fill="none" stroke="white" stroke-width="1.5" d="M0,-3.0v7 M-2.5,-0.5L0,-3.0L2.5,-0.5"/>
                </g>
        </g>
        <svg viewBox="0 0 15 15" width="100%" height="30px" preserveAspectRatio="xMaxYMin meet">
         <g id="arrow_out" transform="scale(0.3 0.3)">
          <a xlink:href="classMezzanine_1_1NonStaticWorldObject__coll__graph_org.svg" target="_base">
           <rect id="button" ry="5" rx="5" y="6" x="6" height="38" width="38"
                fill="#f2f5e9" fill-opacity="0.5" stroke="#606060" stroke-width="1.0"/>
           <path id="arrow"
             d="M 11.500037,31.436501 C 11.940474,20.09759 22.043105,11.32322 32.158766,21.979434 L 37.068811,17.246167 C 37.068811,17.246167 37.088388,32 37.088388,32 L 22.160133,31.978069 C 22.160133,31.978069 26.997745,27.140456 26.997745,27.140456 C 18.528582,18.264221 13.291696,25.230495 11.500037,31.436501 z"
             style="fill:#404040;"/>
          </a>
         </g>
        </svg>
</svg>
