<?xml version="1.0" encoding="UTF-8" standalone="no"?>
<!DOCTYPE svg PUBLIC "-//W3C//DTD SVG 1.1//EN"
 "http://www.w3.org/Graphics/SVG/1.1/DTD/svg11.dtd">
<!-- Generated by graphviz version 2.38.0 (20140413.2041)
 -->
<!-- Title: Mezzanine::Entresol Pages: 1 -->
<svg width="118pt" height="106pt"
 viewBox="0.00 0.00 118.00 106.00" xmlns="http://www.w3.org/2000/svg" xmlns:xlink="http://www.w3.org/1999/xlink">
<g id="graph0" class="graph" transform="scale(1 1) rotate(0) translate(4 102)">
<title>Mezzanine::Entresol</title>
<polygon fill="white" stroke="none" points="-4,4 -4,-102 114,-102 114,4 -4,4"/>
<!-- Node1 -->
<g id="node1" class="node"><title>Node1</title>
<polygon fill="#bfbfbf" stroke="black" points="2,-78.5 2,-97.5 108,-97.5 108,-78.5 2,-78.5"/>
<text text-anchor="middle" x="55" y="-85.5" font-family="Helvetica,sans-Serif" font-size="10.00">Mezzanine::Entresol</text>
</g>
<!-- Node2 -->
<g id="node2" class="node"><title>Node2</title>
<g id="a_node2"><a xlink:href="classMezzanine_1_1Singleton.html" target="_top" xlink:title="Mezzanine::Singleton\l\&lt; Entresol \&gt;">
<polygon fill="white" stroke="black" points="0,-0.5 0,-30.5 110,-30.5 110,-0.5 0,-0.5"/>
<text text-anchor="start" x="8" y="-18.5" font-family="Helvetica,sans-Serif" font-size="10.00">Mezzanine::Singleton</text>
<text text-anchor="middle" x="55" y="-7.5" font-family="Helvetica,sans-Serif" font-size="10.00">&lt; Entresol &gt;</text>
</a>
</g>
</g>
<!-- Node1&#45;&gt;Node2 -->
<g id="edge2" class="edge"><title>Node1&#45;&gt;Node2</title>
<path fill="none" stroke="#9a32cd" stroke-dasharray="5,2" d="M26.5722,-72.3847C22.3149,-68.9175 18.5153,-64.8007 16,-60 10.2099,-48.9492 18.9869,-38.4756 29.6696,-30.5755"/>
<polygon fill="#9a32cd" stroke="#9a32cd" points="24.8845,-75.4721 35.1057,-78.2609 28.8545,-69.7068 24.8845,-75.4721"/>
<text text-anchor="middle" x="44.5" y="-52" font-family="Helvetica,sans-Serif" font-size="10.00"> SingletonPtr</text>
</g>
<!-- Node2&#45;&gt;Node1 -->
<g id="edge1" class="edge"><title>Node2&#45;&gt;Node1</title>
<path fill="none" stroke="midnightblue" d="M72.87,-39.4379C74.5534,-42.5184 76.0013,-45.7429 77,-49 78.4332,-53.6741 78.6389,-55.394 77,-60 74.5676,-66.836 69.5816,-73.1959 64.9704,-78.0239"/>
<polygon fill="midnightblue" stroke="midnightblue" points="75.6527,-37.2919 67.3266,-30.7401 69.7497,-41.0541 75.6527,-37.2919"/>
</g>
</g>
</svg>
