<?xml version="1.0" encoding="UTF-8" standalone="no"?>
<!DOCTYPE svg PUBLIC "-//W3C//DTD SVG 1.1//EN"
 "http://www.w3.org/Graphics/SVG/1.1/DTD/svg11.dtd">
<!-- Generated by graphviz version 2.26.3 (20100126.1600)
 -->
<!-- Title: Mezzanine::Scripting::Lua::LuaArgument Pages: 1 -->
<svg width="296pt" height="302pt"
 viewBox="0.00 0.00 296.00 302.00" xmlns="http://www.w3.org/2000/svg" xmlns:xlink="http://www.w3.org/1999/xlink">
<g id="graph1" class="graph" transform="scale(1 1) rotate(0) translate(4 298)">
<title>Mezzanine::Scripting::Lua::LuaArgument</title>
<polygon fill="white" stroke="white" points="-4,5 -4,-298 293,-298 293,5 -4,5"/>
<!-- Node1 -->
<g id="node1" class="node"><title>Node1</title>
<polygon fill="#bfbfbf" stroke="black" points="0,-130 0,-164 108,-164 108,-130 0,-130"/>
<text text-anchor="start" x="8" y="-151" font-family="Helvetica,sans-Serif" font-size="10.00">Mezzanine::Scripting</text>
<text text-anchor="middle" x="54" y="-138" font-family="Helvetica,sans-Serif" font-size="10.00">::Lua::LuaArgument</text>
</g>
<!-- Node2 -->
<g id="node3" class="node"><title>Node2</title>
<a xlink:href="classMezzanine_1_1Scripting_1_1Lua_1_1Lua51BoolArgument.html" target="_top" xlink:title="No special care is required for Bool Lua Arguments, so a simple typedef is used. ">
<polygon fill="white" stroke="black" points="150,-260 150,-294 282,-294 282,-260 150,-260"/>
<text text-anchor="start" x="158" y="-281" font-family="Helvetica,sans-Serif" font-size="10.00">Mezzanine::Scripting</text>
<text text-anchor="middle" x="216" y="-268" font-family="Helvetica,sans-Serif" font-size="10.00">::Lua::Lua51BoolArgument</text>
</a>
</g>
<!-- Node1&#45;&gt;Node2 -->
<g id="edge2" class="edge"><title>Node1&#45;&gt;Node2</title>
<path fill="none" stroke="midnightblue" d="M70.3966,-172.526C86.5729,-195.874 113.287,-229.898 144,-251 148.82,-254.311 154.11,-257.253 159.566,-259.853"/>
<polygon fill="midnightblue" stroke="midnightblue" points="73.2304,-170.468 64.7264,-164.149 67.4336,-174.392 73.2304,-170.468"/>
</g>
<!-- Node3 -->
<g id="node5" class="node"><title>Node3</title>
<a xlink:href="classMezzanine_1_1Scripting_1_1Lua_1_1Lua51IntegerArgument.html" target="_top" xlink:title="The implementations in the ScriptArgumentGeneric&lt;Integer&gt; will cover most of what this needs...">
<polygon fill="white" stroke="black" points="144.5,-208 144.5,-242 287.5,-242 287.5,-208 144.5,-208"/>
<text text-anchor="start" x="152.5" y="-229" font-family="Helvetica,sans-Serif" font-size="10.00">Mezzanine::Scripting</text>
<text text-anchor="middle" x="216" y="-216" font-family="Helvetica,sans-Serif" font-size="10.00">::Lua::Lua51IntegerArgument</text>
</a>
</g>
<!-- Node1&#45;&gt;Node3 -->
<g id="edge4" class="edge"><title>Node1&#45;&gt;Node3</title>
<path fill="none" stroke="midnightblue" d="M89.5385,-169.485C105.785,-179.251 125.499,-190.398 144,-199 150.749,-202.138 157.99,-205.147 165.186,-207.934"/>
<polygon fill="midnightblue" stroke="midnightblue" points="91.2607,-166.436 80.8988,-164.227 87.6213,-172.416 91.2607,-166.436"/>
</g>
<!-- Node4 -->
<g id="node7" class="node"><title>Node4</title>
<a xlink:href="classMezzanine_1_1Scripting_1_1Lua_1_1Lua51NilArgument.html" target="_top" xlink:title="Represents not much of anything but will insert and retrieves Nils from Lua51. ">
<polygon fill="white" stroke="black" points="153.5,-156 153.5,-190 278.5,-190 278.5,-156 153.5,-156"/>
<text text-anchor="start" x="161.5" y="-177" font-family="Helvetica,sans-Serif" font-size="10.00">Mezzanine::Scripting</text>
<text text-anchor="middle" x="216" y="-164" font-family="Helvetica,sans-Serif" font-size="10.00">::Lua::Lua51NilArgument</text>
</a>
</g>
<!-- Node1&#45;&gt;Node4 -->
<g id="edge6" class="edge"><title>Node1&#45;&gt;Node4</title>
<path fill="none" stroke="midnightblue" d="M118.373,-157.332C129.895,-159.181 141.885,-161.105 153.357,-162.946"/>
<polygon fill="midnightblue" stroke="midnightblue" points="118.823,-153.859 108.394,-155.73 117.713,-160.77 118.823,-153.859"/>
</g>
<!-- Node5 -->
<g id="node9" class="node"><title>Node5</title>
<a xlink:href="classMezzanine_1_1Scripting_1_1Lua_1_1Lua51RealArgument.html" target="_top" xlink:title="A Real that can readily be passed into lua scripts. ">
<polygon fill="white" stroke="black" points="149.5,-104 149.5,-138 282.5,-138 282.5,-104 149.5,-104"/>
<text text-anchor="start" x="157.5" y="-125" font-family="Helvetica,sans-Serif" font-size="10.00">Mezzanine::Scripting</text>
<text text-anchor="middle" x="216" y="-112" font-family="Helvetica,sans-Serif" font-size="10.00">::Lua::Lua51RealArgument</text>
</a>
</g>
<!-- Node1&#45;&gt;Node5 -->
<g id="edge8" class="edge"><title>Node1&#45;&gt;Node5</title>
<path fill="none" stroke="midnightblue" d="M118.425,-136.66C128.602,-135.027 139.144,-133.335 149.37,-131.694"/>
<polygon fill="midnightblue" stroke="midnightblue" points="117.713,-133.23 108.394,-138.27 118.823,-140.141 117.713,-133.23"/>
</g>
<!-- Node6 -->
<g id="node11" class="node"><title>Node6</title>
<a xlink:href="classMezzanine_1_1Scripting_1_1Lua_1_1Lua51StringArgument.html" target="_top" xlink:title="No special care is required for String Lua Arguments, so a simple typedef is used. ">
<polygon fill="white" stroke="black" points="147,-52 147,-86 285,-86 285,-52 147,-52"/>
<text text-anchor="start" x="155" y="-73" font-family="Helvetica,sans-Serif" font-size="10.00">Mezzanine::Scripting</text>
<text text-anchor="middle" x="216" y="-60" font-family="Helvetica,sans-Serif" font-size="10.00">::Lua::Lua51StringArgument</text>
</a>
</g>
<!-- Node1&#45;&gt;Node6 -->
<g id="edge10" class="edge"><title>Node1&#45;&gt;Node6</title>
<path fill="none" stroke="midnightblue" d="M89.5385,-124.515C105.785,-114.749 125.499,-103.602 144,-95 150.749,-91.8621 157.99,-88.853 165.186,-86.0663"/>
<polygon fill="midnightblue" stroke="midnightblue" points="87.6213,-121.584 80.8988,-129.773 91.2607,-127.564 87.6213,-121.584"/>
</g>
<!-- Node7 -->
<g id="node13" class="node"><title>Node7</title>
<a xlink:href="classMezzanine_1_1Scripting_1_1Lua_1_1Lua51WholeArgument.html" target="_top" xlink:title="No special care is required for Whole number Lua Arguments, so a simple typedef is used...">
<polygon fill="white" stroke="black" points="146,-0 146,-34 286,-34 286,-0 146,-0"/>
<text text-anchor="start" x="154" y="-21" font-family="Helvetica,sans-Serif" font-size="10.00">Mezzanine::Scripting</text>
<text text-anchor="middle" x="216" y="-8" font-family="Helvetica,sans-Serif" font-size="10.00">::Lua::Lua51WholeArgument</text>
</a>
</g>
<!-- Node1&#45;&gt;Node7 -->
<g id="edge12" class="edge"><title>Node1&#45;&gt;Node7</title>
<path fill="none" stroke="midnightblue" d="M70.3966,-121.474C86.5729,-98.1257 113.287,-64.102 144,-43 148.82,-39.6886 154.11,-36.7474 159.566,-34.147"/>
<polygon fill="midnightblue" stroke="midnightblue" points="67.4336,-119.608 64.7264,-129.851 73.2304,-123.532 67.4336,-119.608"/>
</g>
</g>
</svg>
