<?xml version="1.0" encoding="UTF-8" standalone="no"?>
<!DOCTYPE svg PUBLIC "-//W3C//DTD SVG 1.1//EN"
 "http://www.w3.org/Graphics/SVG/1.1/DTD/svg11.dtd">
<!-- Generated by graphviz version 2.26.3 (20100126.1600)
 -->
<!-- Title: Mezzanine::FieldOfForce Pages: 1 -->
<svg width="3220pt" height="594pt"
 viewBox="0.00 0.00 3220.00 594.00" xmlns="http://www.w3.org/2000/svg" xmlns:xlink="http://www.w3.org/1999/xlink">
<g id="graph1" class="graph" transform="scale(1 1) rotate(0) translate(4 590)">
<title>Mezzanine::FieldOfForce</title>
<polygon fill="white" stroke="white" points="-4,5 -4,-590 3217,-590 3217,5 -4,5"/>
<!-- Node1 -->
<g id="node1" class="node"><title>Node1</title>
<polygon fill="#bfbfbf" stroke="black" points="2536,-483.5 2536,-504.5 2662,-504.5 2662,-483.5 2536,-483.5"/>
<text text-anchor="middle" x="2599" y="-491.5" font-family="Helvetica,sans-Serif" font-size="10.00">Mezzanine::FieldOfForce</text>
</g>
<!-- Node2 -->
<g id="node2" class="node"><title>Node2</title>
<a xlink:href="classMezzanine_1_1AreaEffect.html" target="_top" xlink:title="This class is used to define area&#39;s in the world that have unique effects. ">
<polygon fill="white" stroke="black" points="2262,-474.5 2262,-495.5 2378,-495.5 2378,-474.5 2262,-474.5"/>
<text text-anchor="middle" x="2320" y="-482.5" font-family="Helvetica,sans-Serif" font-size="10.00">Mezzanine::AreaEffect</text>
</a>
</g>
<!-- Node2&#45;&gt;Node1 -->
<g id="edge2" class="edge"><title>Node2&#45;&gt;Node1</title>
<path fill="none" stroke="midnightblue" d="M2363.92,-498.132C2376.72,-501.372 2390.81,-504.377 2404,-506 2447.76,-511.388 2497.36,-508.209 2535.59,-503.775"/>
<polygon fill="midnightblue" stroke="midnightblue" points="2364.53,-494.674 2353.97,-495.506 2362.75,-501.443 2364.53,-494.674"/>
</g>
<!-- Node3 -->
<g id="node4" class="node"><title>Node3</title>
<a xlink:href="classMezzanine_1_1WorldObject.html" target="_top" xlink:title="This is the base class from which classes that are insertable into the physical world. ">
<polygon fill="white" stroke="black" points="1068,-398.5 1068,-419.5 1192,-419.5 1192,-398.5 1068,-398.5"/>
<text text-anchor="middle" x="1130" y="-406.5" font-family="Helvetica,sans-Serif" font-size="10.00">Mezzanine::WorldObject</text>
</a>
</g>
<!-- Node3&#45;&gt;Node2 -->
<g id="edge4" class="edge"><title>Node3&#45;&gt;Node2</title>
<path fill="none" stroke="midnightblue" d="M1162.59,-423.686C1205.45,-442.15 1283.6,-472.895 1354,-485 1693.86,-543.439 2110.99,-507.999 2261.99,-491.788"/>
<polygon fill="midnightblue" stroke="midnightblue" points="1163.8,-420.396 1153.23,-419.61 1161,-426.813 1163.8,-420.396"/>
</g>
<!-- Node18 -->
<g id="node36" class="node"><title>Node18</title>
<a xlink:href="classMezzanine_1_1WorldProxy.html" target="_top" xlink:title="This is the base class for proxy objects belonging to the various 3D subsystems. ">
<polygon fill="white" stroke="black" points="1354.5,-306.5 1354.5,-327.5 1475.5,-327.5 1475.5,-306.5 1354.5,-306.5"/>
<text text-anchor="middle" x="1415" y="-314.5" font-family="Helvetica,sans-Serif" font-size="10.00">Mezzanine::WorldProxy</text>
</a>
</g>
<!-- Node3&#45;&gt;Node18 -->
<g id="edge42" class="edge"><title>Node3&#45;&gt;Node18</title>
<path fill="none" stroke="#9a32cd" stroke-dasharray="5,2" d="M1170.52,-395.164C1183.15,-390.894 1197.14,-386.209 1210,-382 1270.15,-362.317 1340.52,-340.203 1381.2,-327.506"/>
<polygon fill="#9a32cd" stroke="#9a32cd" points="1169.07,-391.957 1160.73,-398.482 1171.32,-398.587 1169.07,-391.957"/>
<text text-anchor="middle" x="1273" y="-386" font-family="Helvetica,sans-Serif" font-size="10.00"> ParentObject</text>
</g>
<!-- Node39 -->
<g id="node93" class="node"><title>Node39</title>
<polygon fill="white" stroke="#bfbfbf" points="1788,-414.5 1788,-435.5 1930,-435.5 1930,-414.5 1788,-414.5"/>
<text text-anchor="middle" x="1859" y="-422.5" font-family="Helvetica,sans-Serif" font-size="10.00">std::vector&lt; WorldObject * &gt;</text>
</g>
<!-- Node3&#45;&gt;Node39 -->
<g id="edge112" class="edge"><title>Node3&#45;&gt;Node39</title>
<path fill="none" stroke="#9a32cd" stroke-dasharray="5,2" d="M1202.24,-408.123C1272.24,-407.48 1381.41,-407.025 1476,-409 1584.79,-411.271 1710.84,-417.168 1787.73,-421.132"/>
<polygon fill="#9a32cd" stroke="#9a32cd" points="1202.17,-404.623 1192.2,-408.219 1202.23,-411.623 1202.17,-404.623"/>
<text text-anchor="middle" x="1415" y="-413" font-family="Helvetica,sans-Serif" font-size="10.00"> elements</text>
</g>
<!-- Node4 -->
<g id="node6" class="node"><title>Node4</title>
<a xlink:href="classMezzanine_1_1TransformableObject.html" target="_top" xlink:title="This is an interface for all 3D objects that can have their full transforms manipulated. ">
<polygon fill="white" stroke="black" points="842,-236 842,-270 974,-270 974,-236 842,-236"/>
<text text-anchor="start" x="850" y="-257" font-family="Helvetica,sans-Serif" font-size="10.00">Mezzanine::Transformable</text>
<text text-anchor="middle" x="908" y="-244" font-family="Helvetica,sans-Serif" font-size="10.00">Object</text>
</a>
</g>
<!-- Node4&#45;&gt;Node3 -->
<g id="edge6" class="edge"><title>Node4&#45;&gt;Node3</title>
<path fill="none" stroke="midnightblue" d="M940.934,-276.143C989.727,-310.43 1079.28,-373.36 1114.85,-398.357"/>
<polygon fill="midnightblue" stroke="midnightblue" points="942.8,-273.177 932.606,-270.291 938.776,-278.904 942.8,-273.177"/>
</g>
<!-- Node4&#45;&gt;Node18 -->
<g id="edge40" class="edge"><title>Node4&#45;&gt;Node18</title>
<path fill="none" stroke="midnightblue" d="M984.158,-262.614C1085.19,-275.367 1261.53,-297.627 1354.18,-309.322"/>
<polygon fill="midnightblue" stroke="midnightblue" points="984.381,-259.114 974.021,-261.334 983.504,-266.059 984.381,-259.114"/>
</g>
<!-- Node5 -->
<g id="node8" class="node"><title>Node5</title>
<a xlink:href="classMezzanine_1_1World.html" target="_top" xlink:title="This class represents a world for objects to interact within. ">
<polygon fill="white" stroke="black" points="860.5,-407.5 860.5,-428.5 955.5,-428.5 955.5,-407.5 860.5,-407.5"/>
<text text-anchor="middle" x="908" y="-415.5" font-family="Helvetica,sans-Serif" font-size="10.00">Mezzanine::World</text>
</a>
</g>
<!-- Node5&#45;&gt;Node3 -->
<g id="edge8" class="edge"><title>Node5&#45;&gt;Node3</title>
<path fill="none" stroke="#9a32cd" stroke-dasharray="5,2" d="M965.923,-415.652C997.18,-414.385 1035.78,-412.82 1067.69,-411.526"/>
<polygon fill="#9a32cd" stroke="#9a32cd" points="965.475,-412.167 955.625,-416.069 965.758,-419.161 965.475,-412.167"/>
<text text-anchor="middle" x="1021" y="-418" font-family="Helvetica,sans-Serif" font-size="10.00"> ParentWorld</text>
</g>
<!-- Node7 -->
<g id="node12" class="node"><title>Node7</title>
<a xlink:href="classMezzanine_1_1WorldManager.html" target="_top" xlink:title="This is the base class for all managers that belong to a single world instance. ">
<polygon fill="white" stroke="black" points="368.5,-449.5 368.5,-470.5 501.5,-470.5 501.5,-449.5 368.5,-449.5"/>
<text text-anchor="middle" x="435" y="-457.5" font-family="Helvetica,sans-Serif" font-size="10.00">Mezzanine::WorldManager</text>
</a>
</g>
<!-- Node5&#45;&gt;Node7 -->
<g id="edge22" class="edge"><title>Node5&#45;&gt;Node7</title>
<path fill="none" stroke="#9a32cd" stroke-dasharray="5,2" d="M850.168,-416.24C784.798,-415.028 675.327,-415.347 582,-427 544.236,-431.715 501.913,-441.731 472.413,-449.498"/>
<polygon fill="#9a32cd" stroke="#9a32cd" points="850.202,-419.741 860.272,-416.446 850.345,-412.743 850.202,-419.741"/>
<text text-anchor="middle" x="658" y="-431" font-family="Helvetica,sans-Serif" font-size="10.00"> ParentWorld</text>
</g>
<!-- Node6 -->
<g id="node10" class="node"><title>Node6</title>
<polygon fill="white" stroke="#bfbfbf" points="582.5,-449.5 582.5,-470.5 733.5,-470.5 733.5,-449.5 582.5,-449.5"/>
<text text-anchor="middle" x="658" y="-457.5" font-family="Helvetica,sans-Serif" font-size="10.00">std::vector&lt; WorldManager * &gt;</text>
</g>
<!-- Node6&#45;&gt;Node5 -->
<g id="edge10" class="edge"><title>Node6&#45;&gt;Node5</title>
<path fill="none" stroke="#9a32cd" stroke-dasharray="5,2" d="M730.864,-447.759C772.532,-440.759 823.617,-432.176 860.201,-426.03"/>
<polygon fill="#9a32cd" stroke="#9a32cd" points="730.045,-444.347 720.763,-449.456 731.205,-451.251 730.045,-444.347"/>
<text text-anchor="middle" x="788" y="-447" font-family="Helvetica,sans-Serif" font-size="10.00"> WorldManagers</text>
</g>
<!-- Node7&#45;&gt;Node6 -->
<g id="edge12" class="edge"><title>Node7&#45;&gt;Node6</title>
<path fill="none" stroke="#9a32cd" stroke-dasharray="5,2" d="M511.912,-460C534.707,-460 559.642,-460 582.355,-460"/>
<polygon fill="#9a32cd" stroke="#9a32cd" points="511.605,-456.5 501.605,-460 511.605,-463.5 511.605,-456.5"/>
<text text-anchor="middle" x="542" y="-464" font-family="Helvetica,sans-Serif" font-size="10.00"> elements</text>
</g>
<!-- Node19 -->
<g id="node40" class="node"><title>Node19</title>
<a xlink:href="classMezzanine_1_1Physics_1_1PhysicsManager.html" target="_top" xlink:title="This is simply a place for storing all the Physics Related functions. ">
<polygon fill="white" stroke="black" points="2804.5,-232 2804.5,-266 2909.5,-266 2909.5,-232 2804.5,-232"/>
<text text-anchor="start" x="2812.5" y="-253" font-family="Helvetica,sans-Serif" font-size="10.00">Mezzanine::Physics</text>
<text text-anchor="middle" x="2857" y="-240" font-family="Helvetica,sans-Serif" font-size="10.00">::PhysicsManager</text>
</a>
</g>
<!-- Node7&#45;&gt;Node19 -->
<g id="edge46" class="edge"><title>Node7&#45;&gt;Node19</title>
<path fill="none" stroke="midnightblue" d="M452.054,-477.927C487.086,-512.717 571.184,-586 658,-586 658,-586 658,-586 2599,-586 2637.99,-586 2776.28,-508.868 2786,-497 2815.87,-460.537 2844.62,-316.361 2853.9,-266.262"/>
<polygon fill="midnightblue" stroke="midnightblue" points="454.482,-475.404 444.968,-470.743 449.498,-480.32 454.482,-475.404"/>
</g>
<!-- Node8 -->
<g id="node14" class="node"><title>Node8</title>
<a xlink:href="classMezzanine_1_1ManagerBase.html" target="_top" xlink:title="This is the base class from which all the Entresol and World Managers inherit. ">
<polygon fill="white" stroke="black" points="200,-449.5 200,-470.5 330,-470.5 330,-449.5 200,-449.5"/>
<text text-anchor="middle" x="265" y="-457.5" font-family="Helvetica,sans-Serif" font-size="10.00">Mezzanine::ManagerBase</text>
</a>
</g>
<!-- Node8&#45;&gt;Node7 -->
<g id="edge14" class="edge"><title>Node8&#45;&gt;Node7</title>
<path fill="none" stroke="midnightblue" d="M340.269,-460C349.589,-460 359.066,-460 368.246,-460"/>
<polygon fill="midnightblue" stroke="midnightblue" points="340.24,-456.5 330.24,-460 340.24,-463.5 340.24,-456.5"/>
</g>
<!-- Node9 -->
<g id="node16" class="node"><title>Node9</title>
<a xlink:href="classMezzanine_1_1Entresol.html" target="_top" xlink:title="This is the main entry point for the entire library. ">
<polygon fill="white" stroke="black" points="0,-416.5 0,-437.5 106,-437.5 106,-416.5 0,-416.5"/>
<text text-anchor="middle" x="53" y="-424.5" font-family="Helvetica,sans-Serif" font-size="10.00">Mezzanine::Entresol</text>
</a>
</g>
<!-- Node9&#45;&gt;Node8 -->
<g id="edge16" class="edge"><title>Node9&#45;&gt;Node8</title>
<path fill="none" stroke="#9a32cd" stroke-dasharray="5,2" d="M116.443,-436.876C142.709,-440.964 173.156,-445.704 199.622,-449.823"/>
<polygon fill="#9a32cd" stroke="#9a32cd" points="116.642,-433.365 106.223,-435.285 115.566,-440.281 116.642,-433.365"/>
<text text-anchor="middle" x="153" y="-450" font-family="Helvetica,sans-Serif" font-size="10.00"> TheEntresol</text>
</g>
<!-- Node10 -->
<g id="node18" class="node"><title>Node10</title>
<a xlink:href="classMezzanine_1_1Singleton.html" target="_top" xlink:title="Mezzanine::Singleton\l\&lt; Entresol \&gt;">
<polygon fill="white" stroke="black" points="210,-389 210,-423 320,-423 320,-389 210,-389"/>
<text text-anchor="start" x="218" y="-410" font-family="Helvetica,sans-Serif" font-size="10.00">Mezzanine::Singleton</text>
<text text-anchor="middle" x="265" y="-397" font-family="Helvetica,sans-Serif" font-size="10.00">&lt; Entresol &gt;</text>
</a>
</g>
<!-- Node9&#45;&gt;Node10 -->
<g id="edge20" class="edge"><title>Node9&#45;&gt;Node10</title>
<path fill="none" stroke="#9a32cd" stroke-dasharray="5,2" d="M81.3276,-411.957C94.0056,-406.042 109.368,-399.964 124,-397 152.007,-391.326 183.724,-392.68 209.974,-395.841"/>
<polygon fill="#9a32cd" stroke="#9a32cd" points="79.6719,-408.871 72.2126,-416.395 82.7358,-415.165 79.6719,-408.871"/>
<text text-anchor="middle" x="153" y="-401" font-family="Helvetica,sans-Serif" font-size="10.00"> SingletonPtr</text>
</g>
<!-- Node10&#45;&gt;Node9 -->
<g id="edge18" class="edge"><title>Node10&#45;&gt;Node9</title>
<path fill="none" stroke="midnightblue" d="M199.932,-412.445C169.885,-415.422 134.654,-418.912 106.223,-421.728"/>
<polygon fill="midnightblue" stroke="midnightblue" points="200.3,-415.926 209.906,-411.457 199.609,-408.96 200.3,-415.926"/>
</g>
<!-- Node11 -->
<g id="node22" class="node"><title>Node11</title>
<a xlink:title="STL class. ">
<polygon fill="white" stroke="#bfbfbf" points="878,-498.5 878,-519.5 938,-519.5 938,-498.5 878,-498.5"/>
<text text-anchor="middle" x="908" y="-506.5" font-family="Helvetica,sans-Serif" font-size="10.00">std::string</text>
</a>
</g>
<!-- Node11&#45;&gt;Node3 -->
<g id="edge24" class="edge"><title>Node11&#45;&gt;Node3</title>
<path fill="none" stroke="#9a32cd" stroke-dasharray="5,2" d="M940.716,-494.263C986.06,-473.838 1066.9,-437.421 1106.64,-419.522"/>
<polygon fill="#9a32cd" stroke="#9a32cd" points="939.018,-491.189 931.338,-498.487 941.893,-497.571 939.018,-491.189"/>
<text text-anchor="middle" x="1021" y="-474" font-family="Helvetica,sans-Serif" font-size="10.00"> ObjectName</text>
</g>
<!-- Node35 -->
<g id="node83" class="node"><title>Node35</title>
<a xlink:href="classMezzanine_1_1WorldTrigger.html" target="_top" xlink:title="This is an abstract class for creating in&#45;game triggers. ">
<polygon fill="white" stroke="black" points="1210.5,-536.5 1210.5,-557.5 1335.5,-557.5 1335.5,-536.5 1210.5,-536.5"/>
<text text-anchor="middle" x="1273" y="-544.5" font-family="Helvetica,sans-Serif" font-size="10.00">Mezzanine::WorldTrigger</text>
</a>
</g>
<!-- Node11&#45;&gt;Node35 -->
<g id="edge100" class="edge"><title>Node11&#45;&gt;Node35</title>
<path fill="none" stroke="#9a32cd" stroke-dasharray="5,2" d="M948.349,-517.618C962.141,-520.315 977.695,-523.084 992,-525 1066.69,-535.006 1153.21,-540.935 1210.29,-544.071"/>
<polygon fill="#9a32cd" stroke="#9a32cd" points="948.688,-514.117 938.196,-515.585 947.314,-520.981 948.688,-514.117"/>
<text text-anchor="middle" x="1021" y="-535" font-family="Helvetica,sans-Serif" font-size="10.00"> Name</text>
</g>
<!-- Node38 -->
<g id="node90" class="node"><title>Node38</title>
<a xlink:href="classMezzanine_1_1Physics_1_1CollisionShape.html" target="_top" xlink:title="This is the base class for all collision shapes. ">
<polygon fill="white" stroke="black" points="1220.5,-497 1220.5,-531 1325.5,-531 1325.5,-497 1220.5,-497"/>
<text text-anchor="start" x="1228.5" y="-518" font-family="Helvetica,sans-Serif" font-size="10.00">Mezzanine::Physics</text>
<text text-anchor="middle" x="1273" y="-505" font-family="Helvetica,sans-Serif" font-size="10.00">::CollisionShape</text>
</a>
</g>
<!-- Node11&#45;&gt;Node38 -->
<g id="edge108" class="edge"><title>Node11&#45;&gt;Node38</title>
<path fill="none" stroke="#9a32cd" stroke-dasharray="5,2" d="M948.228,-509.551C1014.47,-510.459 1146.51,-512.267 1220.19,-513.277"/>
<polygon fill="#9a32cd" stroke="#9a32cd" points="948.227,-506.051 938.18,-509.413 948.131,-513.05 948.227,-506.051"/>
<text text-anchor="middle" x="1021" y="-514" font-family="Helvetica,sans-Serif" font-size="10.00"> Name</text>
</g>
<!-- Node12 -->
<g id="node24" class="node"><title>Node12</title>
<a xlink:title="STL class. ">
<polygon fill="white" stroke="#bfbfbf" points="610.5,-492 610.5,-526 705.5,-526 705.5,-492 610.5,-492"/>
<text text-anchor="start" x="618.5" y="-513" font-family="Helvetica,sans-Serif" font-size="10.00">std::basic_string&lt;</text>
<text text-anchor="middle" x="658" y="-500" font-family="Helvetica,sans-Serif" font-size="10.00"> char &gt;</text>
</a>
</g>
<!-- Node12&#45;&gt;Node11 -->
<g id="edge26" class="edge"><title>Node12&#45;&gt;Node11</title>
<path fill="none" stroke="midnightblue" d="M715.75,-509C766.33,-509 837.828,-509 877.85,-509"/>
<polygon fill="midnightblue" stroke="midnightblue" points="715.612,-505.5 705.612,-509 715.612,-512.5 715.612,-505.5"/>
</g>
<!-- Node13 -->
<g id="node26" class="node"><title>Node13</title>
<polygon fill="white" stroke="#bfbfbf" points="2270,-130 2270,-164 2370,-164 2370,-130 2270,-130"/>
<text text-anchor="start" x="2278" y="-151" font-family="Helvetica,sans-Serif" font-size="10.00">std::set&lt; Physics::</text>
<text text-anchor="middle" x="2320" y="-138" font-family="Helvetica,sans-Serif" font-size="10.00">Collision * &gt;</text>
</g>
<!-- Node13&#45;&gt;Node3 -->
<g id="edge28" class="edge"><title>Node13&#45;&gt;Node3</title>
<path fill="none" stroke="#9a32cd" stroke-dasharray="5,2" d="M2259.58,-145.282C2160.4,-143.479 1957.17,-144.058 1788,-172 1589.95,-204.712 1546.8,-241.12 1354,-297 1289.97,-315.559 1268.46,-306.962 1210,-339 1180.87,-354.964 1153.15,-383.086 1139.26,-398.376"/>
<polygon fill="#9a32cd" stroke="#9a32cd" points="2259.65,-148.784 2269.72,-145.482 2259.79,-141.786 2259.65,-148.784"/>
<text text-anchor="middle" x="1713" y="-203" font-family="Helvetica,sans-Serif" font-size="10.00"> CurrentCollisions</text>
</g>
<!-- Node14 -->
<g id="node28" class="node"><title>Node14</title>
<a xlink:href="classMezzanine_1_1Physics_1_1Collision.html" target="_top" xlink:title="This is an event class used to track collsions in the physics world. ">
<polygon fill="white" stroke="black" points="1952.5,-92 1952.5,-126 2057.5,-126 2057.5,-92 1952.5,-92"/>
<text text-anchor="start" x="1960.5" y="-113" font-family="Helvetica,sans-Serif" font-size="10.00">Mezzanine::Physics</text>
<text text-anchor="middle" x="2005" y="-100" font-family="Helvetica,sans-Serif" font-size="10.00">::Collision</text>
</a>
</g>
<!-- Node14&#45;&gt;Node13 -->
<g id="edge30" class="edge"><title>Node14&#45;&gt;Node13</title>
<path fill="none" stroke="#9a32cd" stroke-dasharray="5,2" d="M2063.86,-89.321C2112.78,-76.6038 2182.73,-67.0881 2236,-95 2248.45,-101.523 2242.99,-112.269 2254,-121 2258.83,-124.825 2264.28,-128.148 2269.94,-131.019"/>
<polygon fill="#9a32cd" stroke="#9a32cd" points="2062.8,-85.9835 2054.07,-91.9837 2064.64,-92.7384 2062.8,-85.9835"/>
<text text-anchor="middle" x="2158" y="-99" font-family="Helvetica,sans-Serif" font-size="10.00"> keys</text>
</g>
<!-- Node28 -->
<g id="node62" class="node"><title>Node28</title>
<polygon fill="white" stroke="#bfbfbf" points="2256.5,-182 2256.5,-216 2383.5,-216 2383.5,-182 2256.5,-182"/>
<text text-anchor="start" x="2264.5" y="-203" font-family="Helvetica,sans-Serif" font-size="10.00">std::map&lt; CollidablePair,</text>
<text text-anchor="middle" x="2320" y="-190" font-family="Helvetica,sans-Serif" font-size="10.00"> Collision * &gt;</text>
</g>
<!-- Node14&#45;&gt;Node28 -->
<g id="edge72" class="edge"><title>Node14&#45;&gt;Node28</title>
<path fill="none" stroke="#9a32cd" stroke-dasharray="5,2" d="M2067.53,-126.866C2123.58,-142.881 2205.24,-166.213 2260.38,-181.967"/>
<polygon fill="#9a32cd" stroke="#9a32cd" points="2068.3,-123.446 2057.72,-124.064 2066.38,-130.177 2068.3,-123.446"/>
<text text-anchor="middle" x="2158" y="-178" font-family="Helvetica,sans-Serif" font-size="10.00"> elements</text>
</g>
<!-- Node15 -->
<g id="node30" class="node"><title>Node15</title>
<polygon fill="white" stroke="#bfbfbf" points="1662.5,-52.5 1662.5,-73.5 1763.5,-73.5 1763.5,-52.5 1662.5,-52.5"/>
<text text-anchor="middle" x="1713" y="-60.5" font-family="Helvetica,sans-Serif" font-size="10.00">std::vector&lt; Real &gt;</text>
</g>
<!-- Node15&#45;&gt;Node14 -->
<g id="edge32" class="edge"><title>Node15&#45;&gt;Node14</title>
<path fill="none" stroke="#9a32cd" stroke-dasharray="5,2" d="M1773.79,-69.6393C1817.42,-74.7658 1877.53,-82.5675 1930,-92 1937.23,-93.2993 1944.81,-94.825 1952.26,-96.4198"/>
<polygon fill="#9a32cd" stroke="#9a32cd" points="1773.96,-66.136 1763.62,-68.4585 1773.15,-73.0892 1773.96,-66.136"/>
<text text-anchor="middle" x="1859" y="-96" font-family="Helvetica,sans-Serif" font-size="10.00"> PenetrationDistances</text>
</g>
<!-- Node16 -->
<g id="node32" class="node"><title>Node16</title>
<a xlink:href="structMezzanine_1_1Physics_1_1CollisionInternalData.html" target="_top" xlink:title="Used to insulate the interface from the implementation details for bullet. ">
<polygon fill="white" stroke="black" points="1656.5,-92 1656.5,-126 1769.5,-126 1769.5,-92 1656.5,-92"/>
<text text-anchor="start" x="1664.5" y="-113" font-family="Helvetica,sans-Serif" font-size="10.00">Mezzanine::Physics</text>
<text text-anchor="middle" x="1713" y="-100" font-family="Helvetica,sans-Serif" font-size="10.00">::CollisionInternalData</text>
</a>
</g>
<!-- Node16&#45;&gt;Node14 -->
<g id="edge34" class="edge"><title>Node16&#45;&gt;Node14</title>
<path fill="none" stroke="#9a32cd" stroke-dasharray="5,2" d="M1779.85,-109C1832.24,-109 1904.12,-109 1952.44,-109"/>
<polygon fill="#9a32cd" stroke="#9a32cd" points="1779.65,-105.5 1769.65,-109 1779.65,-112.5 1779.65,-105.5"/>
<text text-anchor="middle" x="1859" y="-113" font-family="Helvetica,sans-Serif" font-size="10.00"> InternalData</text>
</g>
<!-- Node17 -->
<g id="node34" class="node"><title>Node17</title>
<a xlink:href="classMezzanine_1_1Physics_1_1CollidableProxy.html" target="_top" xlink:title="This is a proxy from which physics objects that can collide with each other are handled. ">
<polygon fill="white" stroke="black" points="1660.5,-300 1660.5,-334 1765.5,-334 1765.5,-300 1660.5,-300"/>
<text text-anchor="start" x="1668.5" y="-321" font-family="Helvetica,sans-Serif" font-size="10.00">Mezzanine::Physics</text>
<text text-anchor="middle" x="1713" y="-308" font-family="Helvetica,sans-Serif" font-size="10.00">::CollidableProxy</text>
</a>
</g>
<!-- Node17&#45;&gt;Node14 -->
<g id="edge36" class="edge"><title>Node17&#45;&gt;Node14</title>
<path fill="none" stroke="#9a32cd" stroke-dasharray="5,2" d="M1722.17,-290.342C1733.41,-261.359 1755.12,-215.509 1788,-188 1813.45,-166.712 1896.68,-139.931 1952.36,-123.657"/>
<polygon fill="#9a32cd" stroke="#9a32cd" points="1718.84,-289.24 1718.62,-299.832 1725.4,-291.687 1718.84,-289.24"/>
<text text-anchor="middle" x="1859" y="-205" font-family="Helvetica,sans-Serif" font-size="10.00"> ProxyA</text>
<text text-anchor="middle" x="1859" y="-192" font-family="Helvetica,sans-Serif" font-size="10.00">ProxyB</text>
</g>
<!-- Node26 -->
<g id="node56" class="node"><title>Node26</title>
<a xlink:href="classMezzanine_1_1Physics_1_1RigidProxy.html" target="_top" xlink:title="This is a proxy from which rigid body proxys are handled. ">
<polygon fill="white" stroke="black" points="1952.5,-280 1952.5,-314 2057.5,-314 2057.5,-280 1952.5,-280"/>
<text text-anchor="start" x="1960.5" y="-301" font-family="Helvetica,sans-Serif" font-size="10.00">Mezzanine::Physics</text>
<text text-anchor="middle" x="2005" y="-288" font-family="Helvetica,sans-Serif" font-size="10.00">::RigidProxy</text>
</a>
</g>
<!-- Node17&#45;&gt;Node26 -->
<g id="edge64" class="edge"><title>Node17&#45;&gt;Node26</title>
<path fill="none" stroke="midnightblue" d="M1775.75,-313.208C1819.09,-310.526 1878.06,-306.753 1930,-303 1937.17,-302.482 1944.71,-301.91 1952.15,-301.331"/>
<polygon fill="midnightblue" stroke="midnightblue" points="1775.4,-309.723 1765.63,-313.832 1775.83,-316.71 1775.4,-309.723"/>
</g>
<!-- Node27 -->
<g id="node59" class="node"><title>Node27</title>
<polygon fill="white" stroke="#bfbfbf" points="2080,-237.5 2080,-258.5 2236,-258.5 2236,-237.5 2080,-237.5"/>
<text text-anchor="middle" x="2158" y="-245.5" font-family="Helvetica,sans-Serif" font-size="10.00">std::vector&lt; CollidableProxy * &gt;</text>
</g>
<!-- Node17&#45;&gt;Node27 -->
<g id="edge68" class="edge"><title>Node17&#45;&gt;Node27</title>
<path fill="none" stroke="#9a32cd" stroke-dasharray="5,2" d="M1757.99,-295.942C1767.71,-292.093 1778.06,-288.508 1788,-286 1815.51,-279.059 1979.63,-263.738 2079.83,-254.815"/>
<polygon fill="#9a32cd" stroke="#9a32cd" points="1756.43,-292.801 1748.52,-299.848 1759.1,-299.272 1756.43,-292.801"/>
<text text-anchor="middle" x="1859" y="-290" font-family="Helvetica,sans-Serif" font-size="10.00"> elements</text>
</g>
<!-- Node29 -->
<g id="node65" class="node"><title>Node29</title>
<a xlink:href="classMezzanine_1_1Physics_1_1CollidablePair.html" target="_top" xlink:title="This is a helper class for storing pairs of collidable proxies in associative containers. ">
<polygon fill="white" stroke="black" points="1952.5,-188 1952.5,-222 2057.5,-222 2057.5,-188 1952.5,-188"/>
<text text-anchor="start" x="1960.5" y="-209" font-family="Helvetica,sans-Serif" font-size="10.00">Mezzanine::Physics</text>
<text text-anchor="middle" x="2005" y="-196" font-family="Helvetica,sans-Serif" font-size="10.00">::CollidablePair</text>
</a>
</g>
<!-- Node17&#45;&gt;Node29 -->
<g id="edge76" class="edge"><title>Node17&#45;&gt;Node29</title>
<path fill="none" stroke="#9a32cd" stroke-dasharray="5,2" d="M1731.01,-291.686C1744.65,-274.537 1764.92,-252.906 1788,-241 1844.82,-211.687 1866.95,-228.571 1930,-218 1937.17,-216.798 1944.72,-215.513 1952.15,-214.235"/>
<polygon fill="#9a32cd" stroke="#9a32cd" points="1728.19,-289.62 1724.87,-299.682 1733.74,-293.884 1728.19,-289.62"/>
<text text-anchor="middle" x="1859" y="-258" font-family="Helvetica,sans-Serif" font-size="10.00"> ProxyA</text>
<text text-anchor="middle" x="1859" y="-245" font-family="Helvetica,sans-Serif" font-size="10.00">ProxyB</text>
</g>
<!-- Node40 -->
<g id="node96" class="node"><title>Node40</title>
<a xlink:href="classMezzanine_1_1Physics_1_1GhostProxy.html" target="_top" xlink:title="This is the proxy object for ghost objects with no contact response. ">
<polygon fill="white" stroke="black" points="1952.5,-370 1952.5,-404 2057.5,-404 2057.5,-370 1952.5,-370"/>
<text text-anchor="start" x="1960.5" y="-391" font-family="Helvetica,sans-Serif" font-size="10.00">Mezzanine::Physics</text>
<text text-anchor="middle" x="2005" y="-378" font-family="Helvetica,sans-Serif" font-size="10.00">::GhostProxy</text>
</a>
</g>
<!-- Node17&#45;&gt;Node40 -->
<g id="edge116" class="edge"><title>Node17&#45;&gt;Node40</title>
<path fill="none" stroke="midnightblue" d="M1749.3,-339.013C1761.26,-345.399 1774.86,-351.781 1788,-356 1842.35,-373.453 1907.51,-381.096 1952.15,-384.433"/>
<polygon fill="midnightblue" stroke="midnightblue" points="1750.96,-335.932 1740.51,-334.165 1747.58,-342.061 1750.96,-335.932"/>
</g>
<!-- Node18&#45;&gt;Node17 -->
<g id="edge38" class="edge"><title>Node18&#45;&gt;Node17</title>
<path fill="none" stroke="midnightblue" d="M1485.78,-317C1539.39,-317 1611.85,-317 1660.39,-317"/>
<polygon fill="midnightblue" stroke="midnightblue" points="1485.66,-313.5 1475.66,-317 1485.66,-320.5 1485.66,-313.5"/>
</g>
<!-- Node19&#45;&gt;Node17 -->
<g id="edge44" class="edge"><title>Node19&#45;&gt;Node17</title>
<path fill="none" stroke="#9a32cd" stroke-dasharray="5,2" d="M2824.36,-271.497C2812.73,-278.507 2799.23,-285.558 2786,-290 2735.05,-307.112 2719.55,-300.415 2666,-305 2406.35,-327.232 2340.59,-326.785 2080,-325 1950.21,-324.111 1917.72,-325.346 1788,-321 1780.83,-320.76 1773.28,-320.438 1765.85,-320.081"/>
<polygon fill="#9a32cd" stroke="#9a32cd" points="2826.24,-274.455 2832.86,-266.187 2822.53,-268.519 2826.24,-274.455"/>
<text text-anchor="middle" x="2320" y="-329" font-family="Helvetica,sans-Serif" font-size="10.00"> Manager</text>
</g>
<!-- Node19&#45;&gt;Node19 -->
<g id="edge82" class="edge"><title>Node19&#45;&gt;Node19</title>
<path fill="none" stroke="#9a32cd" stroke-dasharray="5,2" d="M2835.75,-276.318C2838.74,-280.864 2845.82,-284 2857,-284 2875.35,-284 2882.66,-275.556 2878.93,-266.288"/>
<polygon fill="#9a32cd" stroke="#9a32cd" points="2839.24,-276.026 2835.07,-266.288 2832.26,-276.503 2839.24,-276.026"/>
<text text-anchor="middle" x="2857" y="-288" font-family="Helvetica,sans-Serif" font-size="10.00"> CallBackWorld</text>
</g>
<!-- Node32 -->
<g id="node73" class="node"><title>Node32</title>
<a xlink:href="classMezzanine_1_1Physics_1_1DebugDrawWorkUnit.html" target="_top" xlink:title="This is a Mezzanine::Threading::iWorkUnit for the updating of the physics debug drawer. ">
<polygon fill="white" stroke="black" points="3078,-91 3078,-125 3194,-125 3194,-91 3078,-91"/>
<text text-anchor="start" x="3086" y="-112" font-family="Helvetica,sans-Serif" font-size="10.00">Mezzanine::Physics</text>
<text text-anchor="middle" x="3136" y="-99" font-family="Helvetica,sans-Serif" font-size="10.00">::DebugDrawWorkUnit</text>
</a>
</g>
<!-- Node19&#45;&gt;Node32 -->
<g id="edge88" class="edge"><title>Node19&#45;&gt;Node32</title>
<path fill="none" stroke="#9a32cd" stroke-dasharray="5,2" d="M2878.99,-224.109C2892.12,-210.472 2909.74,-194.131 2928,-183 2974.87,-154.425 3034.28,-134.372 3077.59,-122.236"/>
<polygon fill="#9a32cd" stroke="#9a32cd" points="2876.1,-222.076 2871.82,-231.766 2881.21,-226.863 2876.1,-222.076"/>
<text text-anchor="middle" x="2985" y="-187" font-family="Helvetica,sans-Serif" font-size="10.00"> TargetManager</text>
</g>
<!-- Node33 -->
<g id="node77" class="node"><title>Node33</title>
<a xlink:href="classMezzanine_1_1Physics_1_1WorldTriggerUpdateWorkUnit.html" target="_top" xlink:title="This is a Mezzanine::Threading::iWorkUnit for the updating of WorldTriggers. ">
<polygon fill="white" stroke="black" points="3060.5,-196 3060.5,-230 3211.5,-230 3211.5,-196 3060.5,-196"/>
<text text-anchor="start" x="3068.5" y="-217" font-family="Helvetica,sans-Serif" font-size="10.00">Mezzanine::Physics</text>
<text text-anchor="middle" x="3136" y="-204" font-family="Helvetica,sans-Serif" font-size="10.00">::WorldTriggerUpdateWorkUnit</text>
</a>
</g>
<!-- Node19&#45;&gt;Node33 -->
<g id="edge94" class="edge"><title>Node19&#45;&gt;Node33</title>
<path fill="none" stroke="#9a32cd" stroke-dasharray="5,2" d="M2889.83,-226.489C2901.38,-219.818 2914.78,-213.392 2928,-210 2970.85,-199.005 3020.32,-199.22 3060.26,-202.434"/>
<polygon fill="#9a32cd" stroke="#9a32cd" points="2887.75,-223.661 2881.01,-231.839 2891.38,-229.646 2887.75,-223.661"/>
<text text-anchor="middle" x="2985" y="-214" font-family="Helvetica,sans-Serif" font-size="10.00"> TargetManager</text>
</g>
<!-- Node20 -->
<g id="node43" class="node"><title>Node20</title>
<a xlink:href="classMezzanine_1_1Threading_1_1DefaultWorkUnit.html" target="_top" xlink:title="Default implementation of WorkUnit. This represents on piece of work through time. ">
<polygon fill="white" stroke="black" points="2542.5,-66 2542.5,-100 2655.5,-100 2655.5,-66 2542.5,-66"/>
<text text-anchor="start" x="2550.5" y="-87" font-family="Helvetica,sans-Serif" font-size="10.00">Mezzanine::Threading</text>
<text text-anchor="middle" x="2599" y="-74" font-family="Helvetica,sans-Serif" font-size="10.00">::DefaultWorkUnit</text>
</a>
</g>
<!-- Node20&#45;&gt;Node19 -->
<g id="edge48" class="edge"><title>Node20&#45;&gt;Node19</title>
<path fill="none" stroke="#9a32cd" stroke-dasharray="5,2" d="M2619.43,-108.025C2635.24,-125.738 2658.66,-148.635 2684,-162 2725.11,-183.678 2744.73,-163.636 2786,-185 2808.55,-196.673 2829.51,-217.253 2842.72,-231.925"/>
<polygon fill="#9a32cd" stroke="#9a32cd" points="2621.92,-105.557 2612.72,-100.304 2616.64,-110.148 2621.92,-105.557"/>
<text text-anchor="middle" x="2735" y="-189" font-family="Helvetica,sans-Serif" font-size="10.00"> SimulationWork</text>
</g>
<!-- Node20&#45;&gt;Node32 -->
<g id="edge86" class="edge"><title>Node20&#45;&gt;Node32</title>
<path fill="none" stroke="midnightblue" d="M2666.1,-80.0458C2753.09,-77.1003 2909.34,-74.8196 3042,-89 3053.67,-90.2476 3066.04,-92.249 3077.84,-94.4945"/>
<polygon fill="midnightblue" stroke="midnightblue" points="2665.72,-76.5571 2655.85,-80.4072 2665.96,-83.5528 2665.72,-76.5571"/>
</g>
<!-- Node20&#45;&gt;Node33 -->
<g id="edge92" class="edge"><title>Node20&#45;&gt;Node33</title>
<path fill="none" stroke="midnightblue" d="M2665.58,-99.1178C2767.53,-123.799 2961.44,-170.741 3065.62,-195.962"/>
<polygon fill="midnightblue" stroke="midnightblue" points="2666.25,-95.6791 2655.71,-96.7278 2664.6,-102.483 2666.25,-95.6791"/>
</g>
<!-- Node21 -->
<g id="node45" class="node"><title>Node21</title>
<a xlink:href="classMezzanine_1_1Threading_1_1iWorkUnit.html" target="_top" xlink:title="Interface of a WorkUnit. This represents on piece of work through time. ">
<polygon fill="white" stroke="black" points="1948.5,-0 1948.5,-34 2061.5,-34 2061.5,-0 1948.5,-0"/>
<text text-anchor="start" x="1956.5" y="-21" font-family="Helvetica,sans-Serif" font-size="10.00">Mezzanine::Threading</text>
<text text-anchor="middle" x="2005" y="-8" font-family="Helvetica,sans-Serif" font-size="10.00">::iWorkUnit</text>
</a>
</g>
<!-- Node21&#45;&gt;Node20 -->
<g id="edge50" class="edge"><title>Node21&#45;&gt;Node20</title>
<path fill="none" stroke="midnightblue" d="M2072.23,-11.6197C2148.63,-6.7493 2276.9,-2.35249 2386,-17 2444.45,-24.8476 2457.8,-34.1032 2514,-52 2527.17,-56.1946 2541.33,-61.1685 2554.24,-65.8902"/>
<polygon fill="midnightblue" stroke="midnightblue" points="2071.54,-8.15702 2061.8,-12.3082 2072.01,-15.1418 2071.54,-8.15702"/>
</g>
<!-- Node22 -->
<g id="node47" class="node"><title>Node22</title>
<polygon fill="white" stroke="#bfbfbf" points="2254.5,-26 2254.5,-60 2385.5,-60 2385.5,-26 2254.5,-26"/>
<text text-anchor="start" x="2262.5" y="-47" font-family="Helvetica,sans-Serif" font-size="10.00">std::vector&lt; Mezzanine</text>
<text text-anchor="middle" x="2320" y="-34" font-family="Helvetica,sans-Serif" font-size="10.00">::Threading::iWorkUnit * &gt;</text>
</g>
<!-- Node21&#45;&gt;Node22 -->
<g id="edge54" class="edge"><title>Node21&#45;&gt;Node22</title>
<path fill="none" stroke="#9a32cd" stroke-dasharray="5,2" d="M2071.8,-22.5135C2125.57,-26.952 2200.75,-33.1568 2254.24,-37.5723"/>
<polygon fill="#9a32cd" stroke="#9a32cd" points="2071.93,-19.0129 2061.68,-21.6783 2071.36,-25.9891 2071.93,-19.0129"/>
<text text-anchor="middle" x="2158" y="-41" font-family="Helvetica,sans-Serif" font-size="10.00"> elements</text>
</g>
<!-- Node22&#45;&gt;Node20 -->
<g id="edge52" class="edge"><title>Node22&#45;&gt;Node20</title>
<path fill="none" stroke="#9a32cd" stroke-dasharray="5,2" d="M2395.5,-53.2672C2431.41,-58.2122 2474.94,-64.2951 2514,-70 2523.16,-71.3376 2532.87,-72.7898 2542.32,-74.2227"/>
<polygon fill="#9a32cd" stroke="#9a32cd" points="2395.97,-49.7985 2385.58,-51.9038 2395.01,-56.7333 2395.97,-49.7985"/>
<text text-anchor="middle" x="2459" y="-74" font-family="Helvetica,sans-Serif" font-size="10.00"> Dependencies</text>
</g>
<!-- Node23 -->
<g id="node50" class="node"><title>Node23</title>
<a xlink:href="structMezzanine_1_1DefaultRollingAverage.html" target="_top" xlink:title="Mezzanine::DefaultRolling\lAverage\&lt; Whole \&gt;">
<polygon fill="white" stroke="black" points="2254.5,-78 2254.5,-112 2385.5,-112 2385.5,-78 2254.5,-78"/>
<text text-anchor="start" x="2262.5" y="-99" font-family="Helvetica,sans-Serif" font-size="10.00">Mezzanine::DefaultRolling</text>
<text text-anchor="middle" x="2320" y="-86" font-family="Helvetica,sans-Serif" font-size="10.00">Average&lt; Whole &gt;</text>
</a>
</g>
<!-- Node23&#45;&gt;Node20 -->
<g id="edge56" class="edge"><title>Node23&#45;&gt;Node20</title>
<path fill="none" stroke="#9a32cd" stroke-dasharray="5,2" d="M2396.02,-91.7305C2442.14,-89.7468 2500.03,-87.2569 2542.17,-85.4443"/>
<polygon fill="#9a32cd" stroke="#9a32cd" points="2395.61,-88.2448 2385.77,-92.1714 2395.91,-95.2383 2395.61,-88.2448"/>
<text text-anchor="middle" x="2459" y="-96" font-family="Helvetica,sans-Serif" font-size="10.00"> PerformanceLog</text>
</g>
<!-- Node24 -->
<g id="node52" class="node"><title>Node24</title>
<polygon fill="white" stroke="#bfbfbf" points="2532.5,-274.5 2532.5,-295.5 2665.5,-295.5 2665.5,-274.5 2532.5,-274.5"/>
<text text-anchor="middle" x="2599" y="-282.5" font-family="Helvetica,sans-Serif" font-size="10.00">std::vector&lt; Constraint * &gt;</text>
</g>
<!-- Node24&#45;&gt;Node19 -->
<g id="edge58" class="edge"><title>Node24&#45;&gt;Node19</title>
<path fill="none" stroke="#9a32cd" stroke-dasharray="5,2" d="M2675.91,-274.338C2709.69,-269.647 2749.82,-264.064 2786,-259 2791.92,-258.172 2798.11,-257.303 2804.27,-256.437"/>
<polygon fill="#9a32cd" stroke="#9a32cd" points="2675.07,-270.921 2665.65,-275.763 2676.03,-277.855 2675.07,-270.921"/>
<text text-anchor="middle" x="2735" y="-277" font-family="Helvetica,sans-Serif" font-size="10.00"> Constraints</text>
</g>
<!-- Node25 -->
<g id="node54" class="node"><title>Node25</title>
<a xlink:href="classMezzanine_1_1Physics_1_1Constraint.html" target="_top" xlink:title="This is the base class for all constraints supported. ">
<polygon fill="white" stroke="black" points="2267.5,-272 2267.5,-306 2372.5,-306 2372.5,-272 2267.5,-272"/>
<text text-anchor="start" x="2275.5" y="-293" font-family="Helvetica,sans-Serif" font-size="10.00">Mezzanine::Physics</text>
<text text-anchor="middle" x="2320" y="-280" font-family="Helvetica,sans-Serif" font-size="10.00">::Constraint</text>
</a>
</g>
<!-- Node25&#45;&gt;Node24 -->
<g id="edge60" class="edge"><title>Node25&#45;&gt;Node24</title>
<path fill="none" stroke="#9a32cd" stroke-dasharray="5,2" d="M2382.92,-288.098C2427.44,-287.46 2487.03,-286.605 2532.36,-285.955"/>
<polygon fill="#9a32cd" stroke="#9a32cd" points="2382.75,-284.6 2372.81,-288.243 2382.85,-291.599 2382.75,-284.6"/>
<text text-anchor="middle" x="2459" y="-291" font-family="Helvetica,sans-Serif" font-size="10.00"> elements</text>
</g>
<!-- Node26&#45;&gt;Node25 -->
<g id="edge62" class="edge"><title>Node26&#45;&gt;Node25</title>
<path fill="none" stroke="#9a32cd" stroke-dasharray="5,2" d="M2067.94,-295.401C2126.41,-293.917 2212.46,-291.731 2267.37,-290.337"/>
<polygon fill="#9a32cd" stroke="#9a32cd" points="2067.63,-291.908 2057.72,-295.661 2067.81,-298.906 2067.63,-291.908"/>
<text text-anchor="middle" x="2158" y="-312" font-family="Helvetica,sans-Serif" font-size="10.00"> ProxA</text>
<text text-anchor="middle" x="2158" y="-299" font-family="Helvetica,sans-Serif" font-size="10.00">ProxB</text>
</g>
<!-- Node27&#45;&gt;Node19 -->
<g id="edge66" class="edge"><title>Node27&#45;&gt;Node19</title>
<path fill="none" stroke="#9a32cd" stroke-dasharray="5,2" d="M2246.5,-248.127C2393.79,-248.337 2684.78,-248.754 2804.09,-248.924"/>
<polygon fill="#9a32cd" stroke="#9a32cd" points="2246.15,-244.626 2236.15,-248.112 2246.14,-251.626 2246.15,-244.626"/>
<text text-anchor="middle" x="2459" y="-252" font-family="Helvetica,sans-Serif" font-size="10.00"> Proxies</text>
</g>
<!-- Node28&#45;&gt;Node19 -->
<g id="edge70" class="edge"><title>Node28&#45;&gt;Node19</title>
<path fill="none" stroke="#9a32cd" stroke-dasharray="5,2" d="M2393.95,-199.103C2486.37,-200.368 2649.07,-206.351 2786,-231 2792.01,-232.081 2798.26,-233.39 2804.45,-234.803"/>
<polygon fill="#9a32cd" stroke="#9a32cd" points="2393.9,-195.602 2383.86,-198.98 2393.81,-202.602 2393.9,-195.602"/>
<text text-anchor="middle" x="2599" y="-217" font-family="Helvetica,sans-Serif" font-size="10.00"> Collisions</text>
</g>
<!-- Node29&#45;&gt;Node28 -->
<g id="edge74" class="edge"><title>Node29&#45;&gt;Node28</title>
<path fill="none" stroke="#9a32cd" stroke-dasharray="5,2" d="M2067.98,-203.8C2122.62,-202.76 2201.34,-201.26 2256.22,-200.215"/>
<polygon fill="#9a32cd" stroke="#9a32cd" points="2067.66,-200.306 2057.72,-203.996 2067.79,-207.305 2067.66,-200.306"/>
<text text-anchor="middle" x="2158" y="-207" font-family="Helvetica,sans-Serif" font-size="10.00"> keys</text>
</g>
<!-- Node30 -->
<g id="node68" class="node"><title>Node30</title>
<a xlink:href="classMezzanine_1_1debug_1_1InternalDebugDrawer.html" target="_top" xlink:title="This is used to draw wireframse for the Physics subsystem. ">
<polygon fill="white" stroke="black" points="2532,-367 2532,-401 2666,-401 2666,-367 2532,-367"/>
<text text-anchor="start" x="2540" y="-388" font-family="Helvetica,sans-Serif" font-size="10.00">Mezzanine::debug::Internal</text>
<text text-anchor="middle" x="2599" y="-375" font-family="Helvetica,sans-Serif" font-size="10.00">DebugDrawer</text>
</a>
</g>
<!-- Node30&#45;&gt;Node19 -->
<g id="edge78" class="edge"><title>Node30&#45;&gt;Node19</title>
<path fill="none" stroke="#9a32cd" stroke-dasharray="5,2" d="M2676.7,-384.756C2712.38,-381.833 2753.81,-373.544 2786,-353 2818.8,-332.065 2840.32,-289.963 2850.38,-266.251"/>
<polygon fill="#9a32cd" stroke="#9a32cd" points="2676.05,-381.292 2666.31,-385.471 2676.53,-388.275 2676.05,-381.292"/>
<text text-anchor="middle" x="2735" y="-388" font-family="Helvetica,sans-Serif" font-size="10.00"> BulletDrawer</text>
</g>
<!-- Node31 -->
<g id="node70" class="node"><title>Node31</title>
<polygon fill="white" stroke="#bfbfbf" points="2280,-373.5 2280,-394.5 2360,-394.5 2360,-373.5 2280,-373.5"/>
<text text-anchor="middle" x="2320" y="-381.5" font-family="Helvetica,sans-Serif" font-size="10.00">btIDebugDraw</text>
</g>
<!-- Node31&#45;&gt;Node30 -->
<g id="edge80" class="edge"><title>Node31&#45;&gt;Node30</title>
<path fill="none" stroke="midnightblue" d="M2370.41,-384C2415.56,-384 2482.11,-384 2531.78,-384"/>
<polygon fill="midnightblue" stroke="midnightblue" points="2370.27,-380.5 2360.27,-384 2370.27,-387.5 2370.27,-380.5"/>
</g>
<!-- Node32&#45;&gt;Node19 -->
<g id="edge84" class="edge"><title>Node32&#45;&gt;Node19</title>
<path fill="none" stroke="#9a32cd" stroke-dasharray="5,2" d="M3067.86,-91.2222C3024.66,-84.5037 2969.33,-83.4796 2928,-109 2883.71,-136.346 2865.99,-200.818 2859.84,-231.795"/>
<polygon fill="#9a32cd" stroke="#9a32cd" points="3067.28,-94.6736 3077.73,-92.886 3068.45,-87.7711 3067.28,-94.6736"/>
<text text-anchor="middle" x="2985" y="-113" font-family="Helvetica,sans-Serif" font-size="10.00"> DebugDrawWork</text>
</g>
<!-- Node33&#45;&gt;Node19 -->
<g id="edge90" class="edge"><title>Node33&#45;&gt;Node19</title>
<path fill="none" stroke="#9a32cd" stroke-dasharray="5,2" d="M3050.23,-225.882C3047.45,-226.264 3044.7,-226.638 3042,-227 2997.44,-232.967 2946.73,-238.94 2909.68,-243.153"/>
<polygon fill="#9a32cd" stroke="#9a32cd" points="3050.93,-229.317 3060.35,-224.465 3049.96,-222.384 3050.93,-229.317"/>
<text text-anchor="middle" x="2985" y="-244" font-family="Helvetica,sans-Serif" font-size="10.00"> WorldTriggerUpdateWork</text>
</g>
<!-- Node34 -->
<g id="node81" class="node"><title>Node34</title>
<polygon fill="white" stroke="#bfbfbf" points="1494.5,-534.5 1494.5,-555.5 1637.5,-555.5 1637.5,-534.5 1494.5,-534.5"/>
<text text-anchor="middle" x="1566" y="-542.5" font-family="Helvetica,sans-Serif" font-size="10.00">std::vector&lt; WorldTrigger * &gt;</text>
</g>
<!-- Node34&#45;&gt;Node19 -->
<g id="edge96" class="edge"><title>Node34&#45;&gt;Node19</title>
<path fill="none" stroke="#9a32cd" stroke-dasharray="5,2" d="M1647.98,-545C1706.73,-545 1787.74,-545 1859,-545 1859,-545 1859,-545 2599,-545 2626.89,-545 2764.19,-477.978 2786,-453 2835.2,-396.642 2850.84,-304.233 2855.34,-266.189"/>
<polygon fill="#9a32cd" stroke="#9a32cd" points="1647.65,-541.5 1637.65,-545 1647.65,-548.5 1647.65,-541.5"/>
<text text-anchor="middle" x="2158" y="-549" font-family="Helvetica,sans-Serif" font-size="10.00"> Triggers</text>
</g>
<!-- Node35&#45;&gt;Node34 -->
<g id="edge98" class="edge"><title>Node35&#45;&gt;Node34</title>
<path fill="none" stroke="#9a32cd" stroke-dasharray="5,2" d="M1345.92,-546.502C1391.29,-546.193 1449.39,-545.796 1494.49,-545.488"/>
<polygon fill="#9a32cd" stroke="#9a32cd" points="1345.83,-543.003 1335.86,-546.571 1345.88,-550.003 1345.83,-543.003"/>
<text text-anchor="middle" x="1415" y="-550" font-family="Helvetica,sans-Serif" font-size="10.00"> elements</text>
</g>
<!-- Node36 -->
<g id="node86" class="node"><title>Node36</title>
<a xlink:href="classMezzanine_1_1Physics_1_1ManagerConstructionInfo.html" target="_top" xlink:title="This is a helper class storing information needed for the construction of a PhysicsManager. ">
<polygon fill="white" stroke="black" points="2533,-419 2533,-453 2665,-453 2665,-419 2533,-419"/>
<text text-anchor="start" x="2541" y="-440" font-family="Helvetica,sans-Serif" font-size="10.00">Mezzanine::Physics</text>
<text text-anchor="middle" x="2599" y="-427" font-family="Helvetica,sans-Serif" font-size="10.00">::ManagerConstructionInfo</text>
</a>
</g>
<!-- Node36&#45;&gt;Node19 -->
<g id="edge102" class="edge"><title>Node36&#45;&gt;Node19</title>
<path fill="none" stroke="#9a32cd" stroke-dasharray="5,2" d="M2675.39,-437.368C2712.14,-434.38 2754.86,-425.138 2786,-401 2830.2,-366.739 2848.04,-298.37 2854.19,-266.326"/>
<polygon fill="#9a32cd" stroke="#9a32cd" points="2674.94,-433.89 2665.2,-438.052 2675.41,-440.874 2674.94,-433.89"/>
<text text-anchor="middle" x="2735" y="-440" font-family="Helvetica,sans-Serif" font-size="10.00"> WorldConstructionInfo</text>
</g>
<!-- Node37 -->
<g id="node88" class="node"><title>Node37</title>
<a xlink:href="classMezzanine_1_1Vector3.html" target="_top" xlink:title="This is used to represent a point in space, or a vector through space. ">
<polygon fill="white" stroke="black" points="2268,-424.5 2268,-445.5 2372,-445.5 2372,-424.5 2268,-424.5"/>
<text text-anchor="middle" x="2320" y="-432.5" font-family="Helvetica,sans-Serif" font-size="10.00">Mezzanine::Vector3</text>
</a>
</g>
<!-- Node37&#45;&gt;Node1 -->
<g id="edge118" class="edge"><title>Node37&#45;&gt;Node1</title>
<path fill="none" stroke="#9a32cd" stroke-dasharray="5,2" d="M2367.25,-448.129C2379.2,-451.239 2392.03,-454.404 2404,-457 2452.49,-467.517 2465.28,-466.637 2514,-476 2526,-478.306 2538.91,-480.955 2550.96,-483.498"/>
<polygon fill="#9a32cd" stroke="#9a32cd" points="2368.03,-444.714 2357.47,-445.543 2366.24,-451.482 2368.03,-444.714"/>
<text text-anchor="middle" x="2459" y="-493" font-family="Helvetica,sans-Serif" font-size="10.00"> Direction</text>
<text text-anchor="middle" x="2459" y="-480" font-family="Helvetica,sans-Serif" font-size="10.00">AttenSource</text>
</g>
<!-- Node37&#45;&gt;Node36 -->
<g id="edge104" class="edge"><title>Node37&#45;&gt;Node36</title>
<path fill="none" stroke="#9a32cd" stroke-dasharray="5,2" d="M2373.64,-422.488C2383.68,-420.619 2394.12,-418.99 2404,-418 2452.65,-413.127 2465.38,-412.908 2514,-418 2520.15,-418.644 2526.51,-419.544 2532.86,-420.6"/>
<polygon fill="#9a32cd" stroke="#9a32cd" points="2372.92,-419.063 2363.78,-424.421 2374.27,-425.932 2372.92,-419.063"/>
<text text-anchor="middle" x="2459" y="-448" font-family="Helvetica,sans-Serif" font-size="10.00"> GeographyLowerBounds</text>
<text text-anchor="middle" x="2459" y="-435" font-family="Helvetica,sans-Serif" font-size="10.00">GeographyUpperBounds</text>
<text text-anchor="middle" x="2459" y="-422" font-family="Helvetica,sans-Serif" font-size="10.00">Gravity</text>
</g>
<!-- Node38&#45;&gt;Node17 -->
<g id="edge106" class="edge"><title>Node38&#45;&gt;Node17</title>
<path fill="none" stroke="#9a32cd" stroke-dasharray="5,2" d="M1322.44,-492.929C1363.63,-475.288 1423.78,-449.325 1476,-426 1547.33,-394.14 1630.14,-355.726 1676.57,-334.056"/>
<polygon fill="#9a32cd" stroke="#9a32cd" points="1320.99,-489.742 1313.17,-496.894 1323.74,-496.178 1320.99,-489.742"/>
<text text-anchor="middle" x="1415" y="-483" font-family="Helvetica,sans-Serif" font-size="10.00"> ProxyShape</text>
</g>
<!-- Node39&#45;&gt;Node2 -->
<g id="edge110" class="edge"><title>Node39&#45;&gt;Node2</title>
<path fill="none" stroke="#9a32cd" stroke-dasharray="5,2" d="M1940.14,-435.56C2032.26,-447.551 2180.29,-466.817 2261.69,-477.411"/>
<polygon fill="#9a32cd" stroke="#9a32cd" points="1940.39,-432.063 1930.02,-434.244 1939.49,-439.005 1940.39,-432.063"/>
<text text-anchor="middle" x="2005" y="-481" font-family="Helvetica,sans-Serif" font-size="10.00"> OverlappingObjects</text>
<text text-anchor="middle" x="2005" y="-468" font-family="Helvetica,sans-Serif" font-size="10.00">RemovedObjects</text>
<text text-anchor="middle" x="2005" y="-455" font-family="Helvetica,sans-Serif" font-size="10.00">AddedObjects</text>
</g>
<!-- Node40&#45;&gt;Node2 -->
<g id="edge114" class="edge"><title>Node40&#45;&gt;Node2</title>
<path fill="none" stroke="#9a32cd" stroke-dasharray="5,2" d="M2067.76,-377.98C2118.07,-374.242 2187.96,-377.31 2236,-413 2252.3,-425.112 2239.8,-440.484 2254,-455 2262.36,-463.546 2273.61,-469.881 2284.44,-474.469"/>
<polygon fill="#9a32cd" stroke="#9a32cd" points="2067.32,-374.504 2057.66,-378.841 2067.92,-381.479 2067.32,-374.504"/>
<text text-anchor="middle" x="2158" y="-417" font-family="Helvetica,sans-Serif" font-size="10.00"> Ghost</text>
</g>
</g>
</svg>
