<?xml version="1.0" encoding="UTF-8" standalone="no"?>
<!DOCTYPE svg PUBLIC "-//W3C//DTD SVG 1.1//EN"
 "http://www.w3.org/Graphics/SVG/1.1/DTD/svg11.dtd">
<!-- Generated by graphviz version 2.26.3 (20100126.1600)
 -->
<!-- Title: Mezzanine::ActorUpdateWorkUnit Pages: 1 -->
<svg width="2238pt" height="861pt"
 viewBox="0.00 0.00 2238.00 861.00" xmlns="http://www.w3.org/2000/svg" xmlns:xlink="http://www.w3.org/1999/xlink">
<g id="graph1" class="graph" transform="scale(1 1) rotate(0) translate(4 857)">
<title>Mezzanine::ActorUpdateWorkUnit</title>
<polygon fill="white" stroke="white" points="-4,5 -4,-857 2235,-857 2235,5 -4,5"/>
<!-- Node1 -->
<g id="node1" class="node"><title>Node1</title>
<polygon fill="#bfbfbf" stroke="black" points="1824.5,-56 1824.5,-76 1985.5,-76 1985.5,-56 1824.5,-56"/>
<text text-anchor="middle" x="1905" y="-63" font-family="FreeSans" font-size="10.00">Mezzanine::ActorUpdateWorkUnit</text>
</g>
<!-- Node6 -->
<g id="node11" class="node"><title>Node6</title>
<a xlink:href="classMezzanine_1_1ActorManager.html" target="_top" xlink:title="A manager responsible for the storage and management of all actors that exist in a world...">
<polygon fill="white" stroke="black" points="2102,-113 2102,-133 2230,-133 2230,-113 2102,-113"/>
<text text-anchor="middle" x="2166" y="-120" font-family="FreeSans" font-size="10.00">Mezzanine::ActorManager</text>
</a>
</g>
<!-- Node1&#45;&gt;Node6 -->
<g id="edge112" class="edge"><title>Node1&#45;&gt;Node6</title>
<path fill="none" stroke="#9a32cd" stroke-dasharray="5,2" d="M1995.87,-56.9837C2024.6,-56.773 2056.12,-59.3459 2084,-68 2112.81,-76.9443 2140.77,-99.5863 2155.42,-112.864"/>
<polygon fill="#9a32cd" stroke="#9a32cd" points="1995.77,-53.4849 1985.83,-57.169 1995.9,-60.4838 1995.77,-53.4849"/>
<text text-anchor="middle" x="2044" y="-71" font-family="FreeSans" font-size="10.00"> ActorUpdateWork</text>
</g>
<!-- Node2 -->
<g id="node2" class="node"><title>Node2</title>
<a xlink:href="classMezzanine_1_1Threading_1_1DefaultWorkUnit.html" target="_top" xlink:title="Default implementation of WorkUnit. This represents on piece of work through time.">
<polygon fill="white" stroke="black" points="1615,-50 1615,-82 1725,-82 1725,-50 1615,-50"/>
<text text-anchor="start" x="1623" y="-69" font-family="FreeSans" font-size="10.00">Mezzanine::Threading</text>
<text text-anchor="middle" x="1670" y="-57" font-family="FreeSans" font-size="10.00">::DefaultWorkUnit</text>
</a>
</g>
<!-- Node2&#45;&gt;Node1 -->
<g id="edge2" class="edge"><title>Node2&#45;&gt;Node1</title>
<path fill="none" stroke="midnightblue" d="M1735.42,-66C1763,-66 1795.39,-66 1824.42,-66"/>
<polygon fill="midnightblue" stroke="midnightblue" points="1735.1,-62.5001 1725.1,-66 1735.1,-69.5001 1735.1,-62.5001"/>
</g>
<!-- Node3 -->
<g id="node4" class="node"><title>Node3</title>
<a xlink:href="classMezzanine_1_1Threading_1_1iWorkUnit.html" target="_top" xlink:title="Interface of a WorkUnit. This represents on piece of work through time.">
<polygon fill="white" stroke="black" points="1068,-81 1068,-113 1178,-113 1178,-81 1068,-81"/>
<text text-anchor="start" x="1076" y="-100" font-family="FreeSans" font-size="10.00">Mezzanine::Threading</text>
<text text-anchor="middle" x="1123" y="-88" font-family="FreeSans" font-size="10.00">::iWorkUnit</text>
</a>
</g>
<!-- Node3&#45;&gt;Node2 -->
<g id="edge4" class="edge"><title>Node3&#45;&gt;Node2</title>
<path fill="none" stroke="midnightblue" d="M1188.17,-98.9097C1276.48,-100.572 1438.9,-100.351 1576,-82 1588.63,-80.309 1602.17,-78.1877 1614.93,-76.048"/>
<polygon fill="midnightblue" stroke="midnightblue" points="1188.1,-95.4077 1178.03,-98.7043 1187.96,-102.406 1188.1,-95.4077"/>
</g>
<!-- Node4 -->
<g id="node6" class="node"><title>Node4</title>
<polygon fill="white" stroke="#bfbfbf" points="1342.5,-50 1342.5,-82 1467.5,-82 1467.5,-50 1342.5,-50"/>
<text text-anchor="start" x="1350.5" y="-69" font-family="FreeSans" font-size="10.00">std::vector&lt; Mezzanine</text>
<text text-anchor="middle" x="1405" y="-57" font-family="FreeSans" font-size="10.00">::Threading::iWorkUnit * &gt;</text>
</g>
<!-- Node3&#45;&gt;Node4 -->
<g id="edge8" class="edge"><title>Node3&#45;&gt;Node4</title>
<path fill="none" stroke="#9a32cd" stroke-dasharray="5,2" d="M1188.33,-87.2826C1196.96,-86.1126 1205.68,-84.9852 1214,-84 1256.67,-78.9448 1304.83,-74.4137 1342.12,-71.1621"/>
<polygon fill="#9a32cd" stroke="#9a32cd" points="1187.71,-83.8347 1178.29,-88.6697 1188.67,-90.7689 1187.71,-83.8347"/>
<text text-anchor="middle" x="1261" y="-87" font-family="FreeSans" font-size="10.00"> elements</text>
</g>
<!-- Node4&#45;&gt;Node2 -->
<g id="edge6" class="edge"><title>Node4&#45;&gt;Node2</title>
<path fill="none" stroke="#9a32cd" stroke-dasharray="5,2" d="M1477.98,-66C1521.23,-66 1575.16,-66 1614.84,-66"/>
<polygon fill="#9a32cd" stroke="#9a32cd" points="1477.8,-62.5001 1467.8,-66 1477.8,-69.5001 1477.8,-62.5001"/>
<text text-anchor="middle" x="1539" y="-69" font-family="FreeSans" font-size="10.00"> Dependencies</text>
</g>
<!-- Node5 -->
<g id="node9" class="node"><title>Node5</title>
<a xlink:href="structMezzanine_1_1DefaultRollingAverage.html" target="_top" xlink:title="Mezzanine::DefaultRolling\lAverage\&lt; Whole \&gt;">
<polygon fill="white" stroke="black" points="1341.5,-0 1341.5,-32 1468.5,-32 1468.5,-0 1341.5,-0"/>
<text text-anchor="start" x="1349.5" y="-19" font-family="FreeSans" font-size="10.00">Mezzanine::DefaultRolling</text>
<text text-anchor="middle" x="1405" y="-7" font-family="FreeSans" font-size="10.00">Average&lt; Whole &gt;</text>
</a>
</g>
<!-- Node5&#45;&gt;Node2 -->
<g id="edge10" class="edge"><title>Node5&#45;&gt;Node2</title>
<path fill="none" stroke="#9a32cd" stroke-dasharray="5,2" d="M1478.69,-29.9031C1521.81,-38.0387 1575.35,-48.1415 1614.82,-55.5881"/>
<polygon fill="#9a32cd" stroke="#9a32cd" points="1479.29,-26.4547 1468.81,-28.0399 1477.99,-33.3333 1479.29,-26.4547"/>
<text text-anchor="middle" x="1539" y="-49" font-family="FreeSans" font-size="10.00"> PerformanceLog</text>
</g>
<!-- Node6&#45;&gt;Node1 -->
<g id="edge12" class="edge"><title>Node6&#45;&gt;Node1</title>
<path fill="none" stroke="#9a32cd" stroke-dasharray="5,2" d="M2120.85,-110.288C2108.91,-107.091 2096,-103.78 2084,-101 2043.28,-91.5685 1996.96,-82.5578 1961.65,-76.0415"/>
<polygon fill="#9a32cd" stroke="#9a32cd" points="2120.05,-113.696 2130.62,-112.934 2121.88,-106.94 2120.05,-113.696"/>
<text text-anchor="middle" x="2044" y="-104" font-family="FreeSans" font-size="10.00"> TargetManager</text>
</g>
<!-- Node7 -->
<g id="node13" class="node"><title>Node7</title>
<a xlink:href="classMezzanine_1_1WorldManager.html" target="_top" xlink:title="This is the base class for all managers that belong to a single world instance.">
<polygon fill="white" stroke="black" points="358.5,-358 358.5,-378 487.5,-378 487.5,-358 358.5,-358"/>
<text text-anchor="middle" x="423" y="-365" font-family="FreeSans" font-size="10.00">Mezzanine::WorldManager</text>
</a>
</g>
<!-- Node7&#45;&gt;Node6 -->
<g id="edge14" class="edge"><title>Node7&#45;&gt;Node6</title>
<path fill="none" stroke="midnightblue" d="M431.416,-348.714C455.521,-296.799 530.147,-158 639,-158 639,-158 639,-158 1905,-158 1980.66,-158 2067.58,-143.372 2119.58,-133.03"/>
<polygon fill="midnightblue" stroke="midnightblue" points="428.207,-347.318 427.274,-357.871 434.584,-350.203 428.207,-347.318"/>
</g>
<!-- Node12 -->
<g id="node24" class="node"><title>Node12</title>
<polygon fill="white" stroke="#bfbfbf" points="566.5,-398 566.5,-418 711.5,-418 711.5,-398 566.5,-398"/>
<text text-anchor="middle" x="639" y="-405" font-family="FreeSans" font-size="10.00">std::vector&lt; WorldManager * &gt;</text>
</g>
<!-- Node7&#45;&gt;Node12 -->
<g id="edge28" class="edge"><title>Node7&#45;&gt;Node12</title>
<path fill="none" stroke="#9a32cd" stroke-dasharray="5,2" d="M487.095,-379.869C518.17,-385.624 555.09,-392.461 584.751,-397.954"/>
<polygon fill="#9a32cd" stroke="#9a32cd" points="487.697,-376.422 477.227,-378.042 486.423,-383.305 487.697,-376.422"/>
<text text-anchor="middle" x="527" y="-393" font-family="FreeSans" font-size="10.00"> elements</text>
</g>
<!-- Node8 -->
<g id="node15" class="node"><title>Node8</title>
<a xlink:href="classMezzanine_1_1ManagerBase.html" target="_top" xlink:title="This is the base class from which all the Entresol and World Managers inherit.">
<polygon fill="white" stroke="black" points="194,-358 194,-378 320,-378 320,-358 194,-358"/>
<text text-anchor="middle" x="257" y="-365" font-family="FreeSans" font-size="10.00">Mezzanine::ManagerBase</text>
</a>
</g>
<!-- Node8&#45;&gt;Node7 -->
<g id="edge16" class="edge"><title>Node8&#45;&gt;Node7</title>
<path fill="none" stroke="midnightblue" d="M330.272,-368C339.606,-368 349.107,-368 358.293,-368"/>
<polygon fill="midnightblue" stroke="midnightblue" points="330.231,-364.5 320.231,-368 330.231,-371.5 330.231,-364.5"/>
</g>
<!-- Node9 -->
<g id="node17" class="node"><title>Node9</title>
<a xlink:href="classMezzanine_1_1Entresol.html" target="_top" xlink:title="This is the main entry point for the entire library.">
<polygon fill="white" stroke="black" points="0.5,-325 0.5,-345 101.5,-345 101.5,-325 0.5,-325"/>
<text text-anchor="middle" x="51" y="-332" font-family="FreeSans" font-size="10.00">Mezzanine::Entresol</text>
</a>
</g>
<!-- Node9&#45;&gt;Node8 -->
<g id="edge18" class="edge"><title>Node9&#45;&gt;Node8</title>
<path fill="none" stroke="#9a32cd" stroke-dasharray="5,2" d="M111.769,-344.735C137.788,-348.903 168.155,-353.768 194.376,-357.968"/>
<polygon fill="#9a32cd" stroke="#9a32cd" points="112.085,-341.241 101.657,-343.115 110.978,-348.153 112.085,-341.241"/>
<text text-anchor="middle" x="148" y="-357" font-family="FreeSans" font-size="10.00"> TheEntresol</text>
</g>
<!-- Node10 -->
<g id="node19" class="node"><title>Node10</title>
<a xlink:href="classMezzanine_1_1Singleton.html" target="_top" xlink:title="Mezzanine::Singleton\l\&lt; Entresol \&gt;">
<polygon fill="white" stroke="black" points="203.5,-300 203.5,-332 310.5,-332 310.5,-300 203.5,-300"/>
<text text-anchor="start" x="211.5" y="-319" font-family="FreeSans" font-size="10.00">Mezzanine::Singleton</text>
<text text-anchor="middle" x="257" y="-307" font-family="FreeSans" font-size="10.00">&lt; Entresol &gt;</text>
</a>
</g>
<!-- Node9&#45;&gt;Node10 -->
<g id="edge22" class="edge"><title>Node9&#45;&gt;Node10</title>
<path fill="none" stroke="#9a32cd" stroke-dasharray="5,2" d="M79.2171,-320.677C91.4259,-315.244 106.083,-309.716 120,-307 147.138,-301.704 177.811,-303.055 203.244,-306.117"/>
<polygon fill="#9a32cd" stroke="#9a32cd" points="77.6036,-317.567 70.0117,-324.957 80.5551,-323.914 77.6036,-317.567"/>
<text text-anchor="middle" x="148" y="-310" font-family="FreeSans" font-size="10.00"> SingletonPtr</text>
</g>
<!-- Node10&#45;&gt;Node9 -->
<g id="edge20" class="edge"><title>Node10&#45;&gt;Node9</title>
<path fill="none" stroke="midnightblue" d="M193.115,-321.892C163.688,-324.606 129.258,-327.782 101.657,-330.328"/>
<polygon fill="midnightblue" stroke="midnightblue" points="193.659,-325.357 203.296,-320.953 193.016,-318.387 193.659,-325.357"/>
</g>
<!-- Node11 -->
<g id="node22" class="node"><title>Node11</title>
<a xlink:href="classMezzanine_1_1World.html" target="_top" xlink:title="This class represents a world for objects to interact within.">
<polygon fill="white" stroke="black" points="842,-390 842,-410 934,-410 934,-390 842,-390"/>
<text text-anchor="middle" x="888" y="-397" font-family="FreeSans" font-size="10.00">Mezzanine::World</text>
</a>
</g>
<!-- Node11&#45;&gt;Node7 -->
<g id="edge24" class="edge"><title>Node11&#45;&gt;Node7</title>
<path fill="none" stroke="#9a32cd" stroke-dasharray="5,2" d="M831.478,-391.169C797.036,-386.149 752.084,-380.235 712,-377 635.071,-370.791 546.304,-368.794 487.666,-368.189"/>
<polygon fill="#9a32cd" stroke="#9a32cd" points="831.408,-394.697 841.812,-392.695 832.43,-387.772 831.408,-394.697"/>
<text text-anchor="middle" x="639" y="-380" font-family="FreeSans" font-size="10.00"> ParentWorld</text>
</g>
<!-- Node16 -->
<g id="node33" class="node"><title>Node16</title>
<a xlink:href="classMezzanine_1_1WorldObject.html" target="_top" xlink:title="This is the base class from which classes that are insertable into the physical world.">
<polygon fill="white" stroke="black" points="1063,-390 1063,-410 1183,-410 1183,-390 1063,-390"/>
<text text-anchor="middle" x="1123" y="-397" font-family="FreeSans" font-size="10.00">Mezzanine::WorldObject</text>
</a>
</g>
<!-- Node11&#45;&gt;Node16 -->
<g id="edge38" class="edge"><title>Node11&#45;&gt;Node16</title>
<path fill="none" stroke="#9a32cd" stroke-dasharray="5,2" d="M944.399,-400C980.112,-400 1026.26,-400 1062.7,-400"/>
<polygon fill="#9a32cd" stroke="#9a32cd" points="944.148,-396.5 934.148,-400 944.148,-403.5 944.148,-396.5"/>
<text text-anchor="middle" x="1004" y="-403" font-family="FreeSans" font-size="10.00"> ParentWorld</text>
</g>
<!-- Node12&#45;&gt;Node11 -->
<g id="edge26" class="edge"><title>Node12&#45;&gt;Node11</title>
<path fill="none" stroke="#9a32cd" stroke-dasharray="5,2" d="M721.712,-405.343C761.729,-404.057 808.261,-402.562 841.909,-401.481"/>
<polygon fill="#9a32cd" stroke="#9a32cd" points="721.573,-401.845 711.69,-405.665 721.798,-408.842 721.573,-401.845"/>
<text text-anchor="middle" x="765" y="-407" font-family="FreeSans" font-size="10.00"> WorldManagers</text>
</g>
<!-- Node13 -->
<g id="node27" class="node"><title>Node13</title>
<polygon fill="white" stroke="#bfbfbf" points="1841,-247 1841,-267 1969,-267 1969,-247 1841,-247"/>
<text text-anchor="middle" x="1905" y="-254" font-family="FreeSans" font-size="10.00">std::vector&lt; ActorBase * &gt;</text>
</g>
<!-- Node13&#45;&gt;Node6 -->
<g id="edge30" class="edge"><title>Node13&#45;&gt;Node6</title>
<path fill="none" stroke="#9a32cd" stroke-dasharray="5,2" d="M1937.51,-242.691C1973.73,-226.487 2033.81,-198.836 2084,-172 2107.55,-159.411 2133.91,-143.276 2150.23,-133.034"/>
<polygon fill="#9a32cd" stroke="#9a32cd" points="1935.66,-239.681 1927.95,-246.948 1938.51,-246.076 1935.66,-239.681"/>
<text text-anchor="middle" x="2044" y="-213" font-family="FreeSans" font-size="10.00"> Actors</text>
</g>
<!-- Node14 -->
<g id="node29" class="node"><title>Node14</title>
<a xlink:href="classMezzanine_1_1ActorBase.html" target="_top" xlink:title="This is the base class from which all the actors inherit.">
<polygon fill="white" stroke="black" points="1614,-429 1614,-449 1726,-449 1726,-429 1614,-429"/>
<text text-anchor="middle" x="1670" y="-436" font-family="FreeSans" font-size="10.00">Mezzanine::ActorBase</text>
</a>
</g>
<!-- Node14&#45;&gt;Node13 -->
<g id="edge32" class="edge"><title>Node14&#45;&gt;Node13</title>
<path fill="none" stroke="#9a32cd" stroke-dasharray="5,2" d="M1692.4,-422.809C1707.62,-411.734 1728.15,-396.644 1746,-383 1801.13,-340.867 1865.57,-288.965 1892.34,-267.279"/>
<polygon fill="#9a32cd" stroke="#9a32cd" points="1690.15,-420.118 1684.12,-428.825 1694.27,-425.782 1690.15,-420.118"/>
<text text-anchor="middle" x="1785" y="-369" font-family="FreeSans" font-size="10.00"> elements</text>
</g>
<!-- Node15 -->
<g id="node31" class="node"><title>Node15</title>
<a xlink:href="classMezzanine_1_1NonStaticWorldObject.html" target="_top" xlink:title="This is a small extention of the WorldObject class that adds features common to non&#45;static objects...">
<polygon fill="white" stroke="black" points="1338,-565 1338,-597 1472,-597 1472,-565 1338,-565"/>
<text text-anchor="start" x="1346" y="-584" font-family="FreeSans" font-size="10.00">Mezzanine::NonStaticWorld</text>
<text text-anchor="middle" x="1405" y="-572" font-family="FreeSans" font-size="10.00">Object</text>
</a>
</g>
<!-- Node15&#45;&gt;Node14 -->
<g id="edge34" class="edge"><title>Node15&#45;&gt;Node14</title>
<path fill="none" stroke="midnightblue" d="M1443.71,-560.258C1501.4,-529.342 1607.79,-472.334 1651.01,-449.178"/>
<polygon fill="midnightblue" stroke="midnightblue" points="1442.04,-557.179 1434.88,-564.987 1445.35,-563.349 1442.04,-557.179"/>
</g>
<!-- Node16&#45;&gt;Node15 -->
<g id="edge36" class="edge"><title>Node16&#45;&gt;Node15</title>
<path fill="none" stroke="midnightblue" d="M1141.81,-417.527C1158.5,-434.12 1182.3,-460.521 1196,-488 1211.49,-519.065 1187.76,-541.281 1214,-564 1247.35,-592.87 1297.34,-596.409 1337.82,-593.105"/>
<polygon fill="midnightblue" stroke="midnightblue" points="1143.88,-414.658 1134.27,-410.208 1139.01,-419.682 1143.88,-414.658"/>
</g>
<!-- Node17 -->
<g id="node36" class="node"><title>Node17</title>
<a xlink:href="classMezzanine_1_1WorldObjectPhysicsSettings.html" target="_top" xlink:title="This is a base helper class for configuring physics settings of a world object.">
<polygon fill="white" stroke="black" points="1328.5,-338 1328.5,-370 1481.5,-370 1481.5,-338 1328.5,-338"/>
<text text-anchor="start" x="1336.5" y="-357" font-family="FreeSans" font-size="10.00">Mezzanine::WorldObjectPhysics</text>
<text text-anchor="middle" x="1405" y="-345" font-family="FreeSans" font-size="10.00">Settings</text>
</a>
</g>
<!-- Node16&#45;&gt;Node17 -->
<g id="edge42" class="edge"><title>Node16&#45;&gt;Node17</title>
<path fill="none" stroke="#9a32cd" stroke-dasharray="5,2" d="M1193.08,-388.569C1234.16,-381.867 1286.11,-373.394 1328.29,-366.513"/>
<polygon fill="#9a32cd" stroke="#9a32cd" points="1192.46,-385.124 1183.15,-390.188 1193.58,-392.033 1192.46,-385.124"/>
<text text-anchor="middle" x="1261" y="-388" font-family="FreeSans" font-size="10.00"> Parent</text>
</g>
<!-- Node22 -->
<g id="node48" class="node"><title>Node22</title>
<a xlink:href="classMezzanine_1_1Physics_1_1Collision.html" target="_top" xlink:title="This is an event class used to track collsions in the physics world.">
<polygon fill="white" stroke="black" points="1355,-238 1355,-270 1455,-270 1455,-238 1355,-238"/>
<text text-anchor="start" x="1363" y="-257" font-family="FreeSans" font-size="10.00">Mezzanine::Physics</text>
<text text-anchor="middle" x="1405" y="-245" font-family="FreeSans" font-size="10.00">::Collision</text>
</a>
</g>
<!-- Node16&#45;&gt;Node22 -->
<g id="edge58" class="edge"><title>Node16&#45;&gt;Node22</title>
<path fill="none" stroke="#9a32cd" stroke-dasharray="5,2" d="M1150.8,-384.578C1166.13,-374.78 1184.36,-360.788 1196,-344 1211.62,-321.471 1193.35,-303.032 1214,-285 1234.5,-267.103 1305.54,-259.443 1354.95,-256.23"/>
<polygon fill="#9a32cd" stroke="#9a32cd" points="1148.88,-381.647 1142.18,-389.852 1152.54,-387.618 1148.88,-381.647"/>
<text text-anchor="middle" x="1261" y="-300" font-family="FreeSans" font-size="10.00"> ObjectA</text>
<text text-anchor="middle" x="1261" y="-288" font-family="FreeSans" font-size="10.00">ObjectB</text>
</g>
<!-- Node25 -->
<g id="node55" class="node"><title>Node25</title>
<a xlink:href="classMezzanine_1_1WorldObjectGraphicsSettings.html" target="_top" xlink:title="This is a helper class for configuring graphics settings of a World Object.">
<polygon fill="white" stroke="black" points="1326,-485 1326,-517 1484,-517 1484,-485 1326,-485"/>
<text text-anchor="start" x="1334" y="-504" font-family="FreeSans" font-size="10.00">Mezzanine::WorldObjectGraphics</text>
<text text-anchor="middle" x="1405" y="-492" font-family="FreeSans" font-size="10.00">Settings</text>
</a>
</g>
<!-- Node16&#45;&gt;Node25 -->
<g id="edge64" class="edge"><title>Node16&#45;&gt;Node25</title>
<path fill="none" stroke="#9a32cd" stroke-dasharray="5,2" d="M1142.27,-416.514C1159.83,-430.702 1187.06,-450.619 1214,-462 1249.23,-476.884 1290.57,-486.227 1325.77,-492.021"/>
<polygon fill="#9a32cd" stroke="#9a32cd" points="1144.4,-413.741 1134.47,-410.072 1139.95,-419.138 1144.4,-413.741"/>
<text text-anchor="middle" x="1261" y="-491" font-family="FreeSans" font-size="10.00"> Parent</text>
</g>
<!-- Node17&#45;&gt;Node16 -->
<g id="edge40" class="edge"><title>Node17&#45;&gt;Node16</title>
<path fill="none" stroke="#9a32cd" stroke-dasharray="5,2" d="M1318.23,-346.239C1285.21,-345.417 1247.49,-347.081 1214,-355 1185.36,-361.774 1155.36,-378.86 1137.96,-389.921"/>
<polygon fill="#9a32cd" stroke="#9a32cd" points="1318.2,-349.74 1328.31,-346.569 1318.43,-342.744 1318.2,-349.74"/>
<text text-anchor="middle" x="1261" y="-358" font-family="FreeSans" font-size="10.00"> PhysicsSettings</text>
</g>
<!-- Node18 -->
<g id="node39" class="node"><title>Node18</title>
<a xlink:href="classMezzanine_1_1Physics_1_1CollisionShape.html" target="_top" xlink:title="This is the base class for all collision shapes.">
<polygon fill="white" stroke="black" points="1073,-303 1073,-335 1173,-335 1173,-303 1073,-303"/>
<text text-anchor="start" x="1081" y="-322" font-family="FreeSans" font-size="10.00">Mezzanine::Physics</text>
<text text-anchor="middle" x="1123" y="-310" font-family="FreeSans" font-size="10.00">::CollisionShape</text>
</a>
</g>
<!-- Node18&#45;&gt;Node17 -->
<g id="edge44" class="edge"><title>Node18&#45;&gt;Node17</title>
<path fill="none" stroke="#9a32cd" stroke-dasharray="5,2" d="M1183.69,-314.306C1220.01,-312.738 1266.95,-312.9 1308,-320 1328.57,-323.558 1350.6,-330.966 1368.46,-337.961"/>
<polygon fill="#9a32cd" stroke="#9a32cd" points="1183.07,-310.831 1173.25,-314.815 1183.41,-317.823 1183.07,-310.831"/>
<text text-anchor="middle" x="1261" y="-323" font-family="FreeSans" font-size="10.00"> WorldObjectShape</text>
</g>
<!-- Node19 -->
<g id="node41" class="node"><title>Node19</title>
<a xlink:title="STL class.">
<polygon fill="white" stroke="#bfbfbf" points="859.5,-309 859.5,-329 916.5,-329 916.5,-309 859.5,-309"/>
<text text-anchor="middle" x="888" y="-316" font-family="FreeSans" font-size="10.00">std::string</text>
</a>
</g>
<!-- Node19&#45;&gt;Node16 -->
<g id="edge50" class="edge"><title>Node19&#45;&gt;Node16</title>
<path fill="none" stroke="#9a32cd" stroke-dasharray="5,2" d="M926.328,-332.211C973.261,-348.388 1051.71,-375.426 1093.95,-389.987"/>
<polygon fill="#9a32cd" stroke="#9a32cd" points="927.41,-328.882 916.816,-328.932 925.129,-335.5 927.41,-328.882"/>
<text text-anchor="middle" x="1004" y="-369" font-family="FreeSans" font-size="10.00"> Name</text>
</g>
<!-- Node19&#45;&gt;Node18 -->
<g id="edge46" class="edge"><title>Node19&#45;&gt;Node18</title>
<path fill="none" stroke="#9a32cd" stroke-dasharray="5,2" d="M926.972,-319C966.966,-319 1029.35,-319 1072.96,-319"/>
<polygon fill="#9a32cd" stroke="#9a32cd" points="926.816,-315.5 916.816,-319 926.816,-322.5 926.816,-315.5"/>
<text text-anchor="middle" x="1004" y="-322" font-family="FreeSans" font-size="10.00"> Name</text>
</g>
<!-- Node20 -->
<g id="node43" class="node"><title>Node20</title>
<a xlink:title="STL class.">
<polygon fill="white" stroke="#bfbfbf" points="593.5,-300 593.5,-332 684.5,-332 684.5,-300 593.5,-300"/>
<text text-anchor="start" x="601.5" y="-319" font-family="FreeSans" font-size="10.00">std::basic_string&lt;</text>
<text text-anchor="middle" x="639" y="-307" font-family="FreeSans" font-size="10.00"> char &gt;</text>
</a>
</g>
<!-- Node20&#45;&gt;Node19 -->
<g id="edge48" class="edge"><title>Node20&#45;&gt;Node19</title>
<path fill="none" stroke="midnightblue" d="M694.88,-316.673C745.906,-317.288 819.296,-318.172 859.311,-318.654"/>
<polygon fill="midnightblue" stroke="midnightblue" points="694.712,-313.171 684.67,-316.55 694.628,-320.171 694.712,-313.171"/>
</g>
<!-- Node21 -->
<g id="node46" class="node"><title>Node21</title>
<polygon fill="white" stroke="#bfbfbf" points="1624,-342 1624,-374 1716,-374 1716,-342 1624,-342"/>
<text text-anchor="start" x="1632" y="-361" font-family="FreeSans" font-size="10.00">std::set&lt; Physics::</text>
<text text-anchor="middle" x="1670" y="-349" font-family="FreeSans" font-size="10.00">Collision * &gt;</text>
</g>
<!-- Node21&#45;&gt;Node16 -->
<g id="edge52" class="edge"><title>Node21&#45;&gt;Node16</title>
<path fill="none" stroke="#9a32cd" stroke-dasharray="5,2" d="M1613.8,-366.766C1542.78,-377.361 1416.69,-394.567 1308,-401 1266.3,-403.468 1255.78,-401.23 1214,-401 1204.05,-400.945 1193.48,-400.857 1183.21,-400.755"/>
<polygon fill="#9a32cd" stroke="#9a32cd" points="1614.5,-370.2 1623.87,-365.253 1613.46,-363.278 1614.5,-370.2"/>
<text text-anchor="middle" x="1405" y="-402" font-family="FreeSans" font-size="10.00"> CurrentCollisions</text>
</g>
<!-- Node22&#45;&gt;Node21 -->
<g id="edge54" class="edge"><title>Node22&#45;&gt;Node21</title>
<path fill="none" stroke="#9a32cd" stroke-dasharray="5,2" d="M1455.23,-273.712C1505.63,-293.494 1582.33,-323.592 1629.13,-341.96"/>
<polygon fill="#9a32cd" stroke="#9a32cd" points="1456.41,-270.417 1445.83,-270.022 1453.86,-276.933 1456.41,-270.417"/>
<text text-anchor="middle" x="1539" y="-321" font-family="FreeSans" font-size="10.00"> keys</text>
</g>
<!-- Node23 -->
<g id="node50" class="node"><title>Node23</title>
<polygon fill="white" stroke="#bfbfbf" points="1075,-236 1075,-256 1171,-256 1171,-236 1075,-236"/>
<text text-anchor="middle" x="1123" y="-243" font-family="FreeSans" font-size="10.00">std::vector&lt; Real &gt;</text>
</g>
<!-- Node23&#45;&gt;Node22 -->
<g id="edge56" class="edge"><title>Node23&#45;&gt;Node22</title>
<path fill="none" stroke="#9a32cd" stroke-dasharray="5,2" d="M1181.36,-240.106C1192.2,-239.228 1203.43,-238.464 1214,-238 1255.74,-236.169 1266.36,-234.589 1308,-238 1323.31,-239.254 1339.84,-241.604 1354.85,-244.124"/>
<polygon fill="#9a32cd" stroke="#9a32cd" points="1180.79,-236.642 1171.12,-240.976 1181.38,-243.617 1180.79,-236.642"/>
<text text-anchor="middle" x="1261" y="-241" font-family="FreeSans" font-size="10.00"> PenetrationDistances</text>
</g>
<!-- Node24 -->
<g id="node53" class="node"><title>Node24</title>
<a xlink:href="structMezzanine_1_1Physics_1_1CollisionInternalData.html" target="_top" xlink:title="Used to insulate the interface from the implementation details for bullet.">
<polygon fill="white" stroke="black" points="1068,-186 1068,-218 1178,-218 1178,-186 1068,-186"/>
<text text-anchor="start" x="1076" y="-205" font-family="FreeSans" font-size="10.00">Mezzanine::Physics</text>
<text text-anchor="middle" x="1123" y="-193" font-family="FreeSans" font-size="10.00">::CollisionInternalData</text>
</a>
</g>
<!-- Node24&#45;&gt;Node22 -->
<g id="edge60" class="edge"><title>Node24&#45;&gt;Node22</title>
<path fill="none" stroke="#9a32cd" stroke-dasharray="5,2" d="M1188.49,-203.957C1224.17,-206.036 1268.89,-210.296 1308,-219 1328.1,-223.472 1349.71,-230.989 1367.43,-237.913"/>
<polygon fill="#9a32cd" stroke="#9a32cd" points="1188.38,-200.446 1178.21,-203.403 1188,-207.436 1188.38,-200.446"/>
<text text-anchor="middle" x="1261" y="-222" font-family="FreeSans" font-size="10.00"> InternalData</text>
</g>
<!-- Node25&#45;&gt;Node16 -->
<g id="edge62" class="edge"><title>Node25&#45;&gt;Node16</title>
<path fill="none" stroke="#9a32cd" stroke-dasharray="5,2" d="M1369.68,-479.76C1351.7,-469.645 1329.21,-458.033 1308,-450 1267.78,-434.768 1255.52,-438.231 1214,-427 1194.43,-421.707 1172.66,-415.267 1155.32,-410.005"/>
<polygon fill="#9a32cd" stroke="#9a32cd" points="1368.23,-482.958 1378.64,-484.886 1371.7,-476.882 1368.23,-482.958"/>
<text text-anchor="middle" x="1261" y="-453" font-family="FreeSans" font-size="10.00"> GraphicsSettings</text>
</g>
<!-- Node26 -->
<g id="node58" class="node"><title>Node26</title>
<a xlink:href="classMezzanine_1_1Graphics_1_1Mesh.html" target="_top" xlink:title="This class is used to check and modify the properties of a graphics mesh.">
<polygon fill="white" stroke="black" points="1070.5,-497 1070.5,-529 1175.5,-529 1175.5,-497 1070.5,-497"/>
<text text-anchor="start" x="1078.5" y="-516" font-family="FreeSans" font-size="10.00">Mezzanine::Graphics</text>
<text text-anchor="middle" x="1123" y="-504" font-family="FreeSans" font-size="10.00">::Mesh</text>
</a>
</g>
<!-- Node26&#45;&gt;Node25 -->
<g id="edge66" class="edge"><title>Node26&#45;&gt;Node25</title>
<path fill="none" stroke="#9a32cd" stroke-dasharray="5,2" d="M1185.92,-510.322C1227.25,-508.564 1281.64,-506.249 1325.89,-504.366"/>
<polygon fill="#9a32cd" stroke="#9a32cd" points="1185.55,-506.835 1175.71,-510.757 1185.85,-513.829 1185.55,-506.835"/>
<text text-anchor="middle" x="1261" y="-512" font-family="FreeSans" font-size="10.00"> WorldObjectMesh</text>
</g>
<!-- Node27 -->
<g id="node60" class="node"><title>Node27</title>
<a xlink:href="classMezzanine_1_1Graphics_1_1InternalMeshData.html" target="_top" xlink:title="This class is used to store the internal structures needed by the Mesh class.">
<polygon fill="white" stroke="black" points="835.5,-455 835.5,-487 940.5,-487 940.5,-455 835.5,-455"/>
<text text-anchor="start" x="843.5" y="-474" font-family="FreeSans" font-size="10.00">Mezzanine::Graphics</text>
<text text-anchor="middle" x="888" y="-462" font-family="FreeSans" font-size="10.00">::InternalMeshData</text>
</a>
</g>
<!-- Node27&#45;&gt;Node26 -->
<g id="edge68" class="edge"><title>Node27&#45;&gt;Node26</title>
<path fill="none" stroke="#9a32cd" stroke-dasharray="5,2" d="M950.949,-480.391C976.192,-484.33 1005.52,-489.124 1032,-494 1044.38,-496.28 1057.66,-498.934 1070.15,-501.523"/>
<polygon fill="#9a32cd" stroke="#9a32cd" points="951.184,-476.886 940.766,-478.814 950.113,-483.804 951.184,-476.886"/>
<text text-anchor="middle" x="1004" y="-497" font-family="FreeSans" font-size="10.00"> IMD</text>
</g>
<!-- Node28 -->
<g id="node62" class="node"><title>Node28</title>
<a xlink:href="classMezzanine_1_1Graphics_1_1Skeleton.html" target="_top" xlink:title="This class encapsulates the Skeletal animation functionality of a Mesh.">
<polygon fill="white" stroke="black" points="835.5,-615 835.5,-647 940.5,-647 940.5,-615 835.5,-615"/>
<text text-anchor="start" x="843.5" y="-634" font-family="FreeSans" font-size="10.00">Mezzanine::Graphics</text>
<text text-anchor="middle" x="888" y="-622" font-family="FreeSans" font-size="10.00">::Skeleton</text>
</a>
</g>
<!-- Node28&#45;&gt;Node26 -->
<g id="edge70" class="edge"><title>Node28&#45;&gt;Node26</title>
<path fill="none" stroke="#9a32cd" stroke-dasharray="5,2" d="M949.308,-612.095C952.427,-609.973 955.357,-607.616 958,-605 973.897,-589.263 959.649,-573.264 976,-558 1001.56,-534.14 1039.45,-522.916 1070.36,-517.643"/>
<polygon fill="#9a32cd" stroke="#9a32cd" points="947.515,-609.089 940.677,-617.182 951.07,-615.12 947.515,-609.089"/>
<text text-anchor="middle" x="1004" y="-561" font-family="FreeSans" font-size="10.00"> MeshSkel</text>
</g>
<!-- Node30 -->
<g id="node66" class="node"><title>Node30</title>
<a xlink:href="classMezzanine_1_1Graphics_1_1Bone.html" target="_top" xlink:title="This class encapsulates the bones contained in a skeleton used for animation.">
<polygon fill="white" stroke="black" points="1070.5,-661 1070.5,-693 1175.5,-693 1175.5,-661 1070.5,-661"/>
<text text-anchor="start" x="1078.5" y="-680" font-family="FreeSans" font-size="10.00">Mezzanine::Graphics</text>
<text text-anchor="middle" x="1123" y="-668" font-family="FreeSans" font-size="10.00">::Bone</text>
</a>
</g>
<!-- Node28&#45;&gt;Node30 -->
<g id="edge78" class="edge"><title>Node28&#45;&gt;Node30</title>
<path fill="none" stroke="#9a32cd" stroke-dasharray="5,2" d="M951.001,-643.332C988.335,-650.64 1035.1,-659.794 1070.44,-666.711"/>
<polygon fill="#9a32cd" stroke="#9a32cd" points="951.225,-639.81 940.739,-641.323 949.88,-646.679 951.225,-639.81"/>
<text text-anchor="middle" x="1004" y="-661" font-family="FreeSans" font-size="10.00"> Host</text>
</g>
<!-- Node29 -->
<g id="node64" class="node"><title>Node29</title>
<polygon fill="white" stroke="#bfbfbf" points="1352.5,-644 1352.5,-664 1457.5,-664 1457.5,-644 1352.5,-644"/>
<text text-anchor="middle" x="1405" y="-651" font-family="FreeSans" font-size="10.00">std::vector&lt; Bone * &gt;</text>
</g>
<!-- Node29&#45;&gt;Node28 -->
<g id="edge72" class="edge"><title>Node29&#45;&gt;Node28</title>
<path fill="none" stroke="#9a32cd" stroke-dasharray="5,2" d="M1341.98,-649.158C1300.52,-646.125 1245.06,-642.359 1196,-640 1106.37,-635.69 1001.95,-633.164 940.614,-631.935"/>
<polygon fill="#9a32cd" stroke="#9a32cd" points="1341.98,-652.667 1352.21,-649.912 1342.49,-645.686 1341.98,-652.667"/>
<text text-anchor="middle" x="1123" y="-643" font-family="FreeSans" font-size="10.00"> Bones</text>
</g>
<!-- Node30&#45;&gt;Node29 -->
<g id="edge74" class="edge"><title>Node30&#45;&gt;Node29</title>
<path fill="none" stroke="#9a32cd" stroke-dasharray="5,2" d="M1185.75,-671.882C1235.72,-667.807 1304.87,-662.166 1352.07,-658.317"/>
<polygon fill="#9a32cd" stroke="#9a32cd" points="1185.39,-668.399 1175.71,-672.701 1185.96,-675.376 1185.39,-668.399"/>
<text text-anchor="middle" x="1261" y="-672" font-family="FreeSans" font-size="10.00"> elements</text>
</g>
<!-- Node31 -->
<g id="node68" class="node"><title>Node31</title>
<a xlink:href="classMezzanine_1_1TransformableChildObject.html" target="_top" xlink:title="This is an interface for all child 3D objects that can have their full transforms manipulated...">
<polygon fill="white" stroke="black" points="824,-675 824,-707 952,-707 952,-675 824,-675"/>
<text text-anchor="start" x="832" y="-694" font-family="FreeSans" font-size="10.00">Mezzanine::Transformable</text>
<text text-anchor="middle" x="888" y="-682" font-family="FreeSans" font-size="10.00">ChildObject</text>
</a>
</g>
<!-- Node31&#45;&gt;Node30 -->
<g id="edge76" class="edge"><title>Node31&#45;&gt;Node30</title>
<path fill="none" stroke="midnightblue" d="M962.417,-686.567C997.507,-684.476 1038.55,-682.031 1070.35,-680.136"/>
<polygon fill="midnightblue" stroke="midnightblue" points="961.989,-683.086 952.215,-687.174 962.405,-690.073 961.989,-683.086"/>
</g>
<!-- Node32 -->
<g id="node71" class="node"><title>Node32</title>
<a xlink:href="classMezzanine_1_1Graphics_1_1InternalSkeletonData.html" target="_top" xlink:title="This class is used to store the internal structures needed by the Skeleton class.">
<polygon fill="white" stroke="black" points="583,-615 583,-647 695,-647 695,-615 583,-615"/>
<text text-anchor="start" x="591" y="-634" font-family="FreeSans" font-size="10.00">Mezzanine::Graphics</text>
<text text-anchor="middle" x="639" y="-622" font-family="FreeSans" font-size="10.00">::InternalSkeletonData</text>
</a>
</g>
<!-- Node32&#45;&gt;Node28 -->
<g id="edge80" class="edge"><title>Node32&#45;&gt;Node28</title>
<path fill="none" stroke="#9a32cd" stroke-dasharray="5,2" d="M705.302,-631C746.038,-631 797.5,-631 835.418,-631"/>
<polygon fill="#9a32cd" stroke="#9a32cd" points="705.191,-627.5 695.191,-631 705.191,-634.5 705.191,-627.5"/>
<text text-anchor="middle" x="765" y="-634" font-family="FreeSans" font-size="10.00"> ISD</text>
</g>
<!-- Node33 -->
<g id="node73" class="node"><title>Node33</title>
<polygon fill="white" stroke="#bfbfbf" points="826.5,-505 826.5,-525 949.5,-525 949.5,-505 826.5,-505"/>
<text text-anchor="middle" x="888" y="-512" font-family="FreeSans" font-size="10.00">std::vector&lt; SubMesh * &gt;</text>
</g>
<!-- Node33&#45;&gt;Node26 -->
<g id="edge82" class="edge"><title>Node33&#45;&gt;Node26</title>
<path fill="none" stroke="#9a32cd" stroke-dasharray="5,2" d="M959.551,-511.476C965.116,-511.285 970.649,-511.122 976,-511 1007.26,-510.29 1042.26,-510.717 1070.27,-511.356"/>
<polygon fill="#9a32cd" stroke="#9a32cd" points="959.395,-507.979 949.532,-511.847 959.654,-514.974 959.395,-507.979"/>
<text text-anchor="middle" x="1004" y="-514" font-family="FreeSans" font-size="10.00"> SubMeshes</text>
</g>
<!-- Node34 -->
<g id="node75" class="node"><title>Node34</title>
<a xlink:href="classMezzanine_1_1Graphics_1_1SubMesh.html" target="_top" xlink:title="This class represents a sub&#45;section of an overall mesh.">
<polygon fill="white" stroke="black" points="586.5,-499 586.5,-531 691.5,-531 691.5,-499 586.5,-499"/>
<text text-anchor="start" x="594.5" y="-518" font-family="FreeSans" font-size="10.00">Mezzanine::Graphics</text>
<text text-anchor="middle" x="639" y="-506" font-family="FreeSans" font-size="10.00">::SubMesh</text>
</a>
</g>
<!-- Node34&#45;&gt;Node33 -->
<g id="edge84" class="edge"><title>Node34&#45;&gt;Node33</title>
<path fill="none" stroke="#9a32cd" stroke-dasharray="5,2" d="M701.962,-515C740.075,-515 788.467,-515 826.342,-515"/>
<polygon fill="#9a32cd" stroke="#9a32cd" points="701.502,-511.5 691.502,-515 701.502,-518.5 701.502,-511.5"/>
<text text-anchor="middle" x="765" y="-518" font-family="FreeSans" font-size="10.00"> elements</text>
</g>
<!-- Node35 -->
<g id="node77" class="node"><title>Node35</title>
<a xlink:href="classMezzanine_1_1Internal_1_1InternalWorldObjectGraphicsSettings.html" target="_top" xlink:title="Used to store internal data about an world objects.">
<polygon fill="white" stroke="black" points="1050.5,-549 1050.5,-593 1195.5,-593 1195.5,-549 1050.5,-549"/>
<text text-anchor="start" x="1058.5" y="-580" font-family="FreeSans" font-size="10.00">Mezzanine::Internal</text>
<text text-anchor="start" x="1058.5" y="-568" font-family="FreeSans" font-size="10.00">::InternalWorldObjectGraphics</text>
<text text-anchor="middle" x="1123" y="-556" font-family="FreeSans" font-size="10.00">Settings</text>
</a>
</g>
<!-- Node35&#45;&gt;Node25 -->
<g id="edge86" class="edge"><title>Node35&#45;&gt;Node25</title>
<path fill="none" stroke="#9a32cd" stroke-dasharray="5,2" d="M1205.5,-550.522C1248.48,-539.853 1300.28,-526.995 1340.32,-517.055"/>
<polygon fill="#9a32cd" stroke="#9a32cd" points="1204.48,-547.167 1195.62,-552.973 1206.17,-553.961 1204.48,-547.167"/>
<text text-anchor="middle" x="1261" y="-551" font-family="FreeSans" font-size="10.00"> IWOGS</text>
</g>
<!-- Node36 -->
<g id="node79" class="node"><title>Node36</title>
<polygon fill="white" stroke="#bfbfbf" points="818.5,-564 818.5,-596 957.5,-596 957.5,-564 818.5,-564"/>
<text text-anchor="start" x="826.5" y="-583" font-family="FreeSans" font-size="10.00">std::map&lt; Whole, Mezzanine</text>
<text text-anchor="middle" x="888" y="-571" font-family="FreeSans" font-size="10.00">::ColourValue &gt;</text>
</g>
<!-- Node36&#45;&gt;Node35 -->
<g id="edge88" class="edge"><title>Node36&#45;&gt;Node35</title>
<path fill="none" stroke="#9a32cd" stroke-dasharray="5,2" d="M967.66,-576.949C994.437,-575.924 1024.15,-574.786 1050.36,-573.782"/>
<polygon fill="#9a32cd" stroke="#9a32cd" points="967.413,-573.456 957.554,-577.336 967.681,-580.451 967.413,-573.456"/>
<text text-anchor="middle" x="1004" y="-603" font-family="FreeSans" font-size="10.00"> Specular</text>
<text text-anchor="middle" x="1004" y="-591" font-family="FreeSans" font-size="10.00">Ambient</text>
<text text-anchor="middle" x="1004" y="-579" font-family="FreeSans" font-size="10.00">Diffuse</text>
</g>
<!-- Node37 -->
<g id="node81" class="node"><title>Node37</title>
<a xlink:href="classMezzanine_1_1ColourValue.html" target="_top" xlink:title="This is a simple class for holding 4 reals representing the colour any give object or lightsource can...">
<polygon fill="white" stroke="black" points="579.5,-570 579.5,-590 698.5,-590 698.5,-570 579.5,-570"/>
<text text-anchor="middle" x="639" y="-577" font-family="FreeSans" font-size="10.00">Mezzanine::ColourValue</text>
</a>
</g>
<!-- Node37&#45;&gt;Node36 -->
<g id="edge90" class="edge"><title>Node37&#45;&gt;Node36</title>
<path fill="none" stroke="#9a32cd" stroke-dasharray="5,2" d="M709.007,-580C743.16,-580 784.13,-580 818.249,-580"/>
<polygon fill="#9a32cd" stroke="#9a32cd" points="708.642,-576.5 698.642,-580 708.642,-583.5 708.642,-576.5"/>
<text text-anchor="middle" x="765" y="-583" font-family="FreeSans" font-size="10.00"> elements</text>
</g>
<!-- Node38 -->
<g id="node83" class="node"><title>Node38</title>
<a xlink:href="classMezzanine_1_1AttachableParent.html" target="_top" xlink:title="Base class for objects that can have attachables attached to them.">
<polygon fill="white" stroke="black" points="1052,-749 1052,-769 1194,-769 1194,-749 1052,-749"/>
<text text-anchor="middle" x="1123" y="-756" font-family="FreeSans" font-size="10.00">Mezzanine::AttachableParent</text>
</a>
</g>
<!-- Node38&#45;&gt;Node15 -->
<g id="edge92" class="edge"><title>Node38&#45;&gt;Node15</title>
<path fill="none" stroke="midnightblue" d="M1149.33,-743.374C1164.64,-733.194 1183.34,-718.717 1196,-702 1208.75,-685.155 1199.02,-672.902 1214,-658 1247.58,-624.588 1297.57,-605.135 1337.98,-594.143"/>
<polygon fill="midnightblue" stroke="midnightblue" points="1147.31,-740.512 1140.78,-748.857 1151.09,-746.404 1147.31,-740.512"/>
</g>
<!-- Node41 -->
<g id="node89" class="node"><title>Node41</title>
<a xlink:href="classMezzanine_1_1AttachableChild.html" target="_top" xlink:title="This class is the base class for objects that can be attached to AttachableParent.">
<polygon fill="white" stroke="black" points="1337.5,-754 1337.5,-774 1472.5,-774 1472.5,-754 1337.5,-754"/>
<text text-anchor="middle" x="1405" y="-761" font-family="FreeSans" font-size="10.00">Mezzanine::AttachableChild</text>
</a>
</g>
<!-- Node38&#45;&gt;Node41 -->
<g id="edge108" class="edge"><title>Node38&#45;&gt;Node41</title>
<path fill="none" stroke="#9a32cd" stroke-dasharray="5,2" d="M1204.12,-757.127C1207.46,-757.078 1210.76,-757.036 1214,-757 1255.78,-756.541 1266.25,-755.495 1308,-757 1317.53,-757.344 1327.58,-757.876 1337.46,-758.498"/>
<polygon fill="#9a32cd" stroke="#9a32cd" points="1203.98,-753.628 1194.04,-757.288 1204.09,-760.628 1203.98,-753.628"/>
<text text-anchor="middle" x="1261" y="-760" font-family="FreeSans" font-size="10.00"> Parent</text>
</g>
<!-- Node39 -->
<g id="node85" class="node"><title>Node39</title>
<a xlink:href="classMezzanine_1_1AttachableBase.html" target="_top" xlink:title="This class is the base class for other attachable classes and is responsible for transform updates to...">
<polygon fill="white" stroke="black" points="820.5,-732 820.5,-752 955.5,-752 955.5,-732 820.5,-732"/>
<text text-anchor="middle" x="888" y="-739" font-family="FreeSans" font-size="10.00">Mezzanine::AttachableBase</text>
</a>
</g>
<!-- Node39&#45;&gt;Node38 -->
<g id="edge94" class="edge"><title>Node39&#45;&gt;Node38</title>
<path fill="none" stroke="midnightblue" d="M965.712,-747.622C993.456,-749.629 1024.55,-751.878 1051.73,-753.844"/>
<polygon fill="midnightblue" stroke="midnightblue" points="965.883,-744.125 955.656,-746.894 965.378,-751.107 965.883,-744.125"/>
</g>
<!-- Node39&#45;&gt;Node41 -->
<g id="edge100" class="edge"><title>Node39&#45;&gt;Node41</title>
<path fill="none" stroke="midnightblue" d="M965.834,-740.844C992.519,-740.5 1022.57,-740.169 1050,-740 1114.89,-739.599 1131.2,-736.539 1196,-740 1245.99,-742.67 1258.27,-746.26 1308,-752 1317.52,-753.099 1327.57,-754.298 1337.44,-755.498"/>
<polygon fill="midnightblue" stroke="midnightblue" points="965.737,-737.345 955.784,-740.977 965.829,-744.345 965.737,-737.345"/>
</g>
<!-- Node40 -->
<g id="node87" class="node"><title>Node40</title>
<polygon fill="white" stroke="#bfbfbf" points="1594.5,-787 1594.5,-807 1745.5,-807 1745.5,-787 1594.5,-787"/>
<text text-anchor="middle" x="1670" y="-794" font-family="FreeSans" font-size="10.00">std::vector&lt; AttachableChild * &gt;</text>
</g>
<!-- Node40&#45;&gt;Node38 -->
<g id="edge96" class="edge"><title>Node40&#45;&gt;Node38</title>
<path fill="none" stroke="#9a32cd" stroke-dasharray="5,2" d="M1627.34,-809.703C1543.1,-832.261 1351.62,-870.812 1214,-802 1202.07,-796.037 1207.07,-785.429 1196,-778 1190.56,-774.352 1184.46,-771.404 1178.17,-769.022"/>
<polygon fill="#9a32cd" stroke="#9a32cd" points="1628.35,-813.055 1637.08,-807.039 1626.51,-806.303 1628.35,-813.055"/>
<text text-anchor="middle" x="1405" y="-844" font-family="FreeSans" font-size="10.00"> Attached</text>
</g>
<!-- Node41&#45;&gt;Node40 -->
<g id="edge98" class="edge"><title>Node41&#45;&gt;Node40</title>
<path fill="none" stroke="#9a32cd" stroke-dasharray="5,2" d="M1482.77,-773.684C1517.89,-778.058 1559.25,-783.208 1594.15,-787.554"/>
<polygon fill="#9a32cd" stroke="#9a32cd" points="1482.91,-770.175 1472.56,-772.413 1482.05,-777.122 1482.91,-770.175"/>
<text text-anchor="middle" x="1539" y="-787" font-family="FreeSans" font-size="10.00"> elements</text>
</g>
<!-- Node42 -->
<g id="node92" class="node"><title>Node42</title>
<a xlink:href="classMezzanine_1_1Transform.html" target="_top" xlink:title="Stores information about relative location and rotation in 3d space.">
<polygon fill="white" stroke="black" points="1068,-787 1068,-807 1178,-807 1178,-787 1068,-787"/>
<text text-anchor="middle" x="1123" y="-794" font-family="FreeSans" font-size="10.00">Mezzanine::Transform</text>
</a>
</g>
<!-- Node42&#45;&gt;Node41 -->
<g id="edge102" class="edge"><title>Node42&#45;&gt;Node41</title>
<path fill="none" stroke="#9a32cd" stroke-dasharray="5,2" d="M1188.22,-789.368C1232.95,-784.133 1292.17,-777.204 1337.4,-771.91"/>
<polygon fill="#9a32cd" stroke="#9a32cd" points="1187.57,-785.92 1178.04,-790.559 1188.38,-792.873 1187.57,-785.92"/>
<text text-anchor="middle" x="1261" y="-789" font-family="FreeSans" font-size="10.00"> LocalXform</text>
</g>
<!-- Node43 -->
<g id="node94" class="node"><title>Node43</title>
<a xlink:href="classMezzanine_1_1Vector3.html" target="_top" xlink:title="This is used to represent a point in space, or a vector through space.">
<polygon fill="white" stroke="black" points="838,-777 838,-797 938,-797 938,-777 838,-777"/>
<text text-anchor="middle" x="888" y="-784" font-family="FreeSans" font-size="10.00">Mezzanine::Vector3</text>
</a>
</g>
<!-- Node43&#45;&gt;Node42 -->
<g id="edge104" class="edge"><title>Node43&#45;&gt;Node42</title>
<path fill="none" stroke="#9a32cd" stroke-dasharray="5,2" d="M948.336,-788.165C974.118,-788.795 1004.54,-789.714 1032,-791 1043.55,-791.541 1055.91,-792.261 1067.68,-793.014"/>
<polygon fill="#9a32cd" stroke="#9a32cd" points="948.412,-784.666 938.332,-787.929 948.247,-791.664 948.412,-784.666"/>
<text text-anchor="middle" x="1004" y="-794" font-family="FreeSans" font-size="10.00"> Location</text>
</g>
<!-- Node44 -->
<g id="node96" class="node"><title>Node44</title>
<a xlink:href="classMezzanine_1_1Quaternion.html" target="_top" xlink:title="This is used to store information about rotation in 3d space.">
<polygon fill="white" stroke="black" points="831,-815 831,-835 945,-835 945,-815 831,-815"/>
<text text-anchor="middle" x="888" y="-822" font-family="FreeSans" font-size="10.00">Mezzanine::Quaternion</text>
</a>
</g>
<!-- Node44&#45;&gt;Node42 -->
<g id="edge106" class="edge"><title>Node44&#45;&gt;Node42</title>
<path fill="none" stroke="#9a32cd" stroke-dasharray="5,2" d="M955.511,-816.956C991.174,-812.707 1034.39,-807.558 1067.99,-803.554"/>
<polygon fill="#9a32cd" stroke="#9a32cd" points="954.703,-813.528 945.187,-818.186 955.531,-820.478 954.703,-813.528"/>
<text text-anchor="middle" x="1004" y="-817" font-family="FreeSans" font-size="10.00"> Rotation</text>
</g>
<!-- Node45 -->
<g id="node99" class="node"><title>Node45</title>
<a xlink:href="classMezzanine_1_1Threading_1_1ThreadSpecificStorage.html" target="_top" xlink:title="A thread specific collection of double&#45;buffered and algorithm specific resources.">
<polygon fill="white" stroke="black" points="1845.5,-98 1845.5,-130 1964.5,-130 1964.5,-98 1845.5,-98"/>
<text text-anchor="start" x="1853.5" y="-117" font-family="FreeSans" font-size="10.00">Mezzanine::Threading</text>
<text text-anchor="middle" x="1905" y="-105" font-family="FreeSans" font-size="10.00">::ThreadSpecificStorage</text>
</a>
</g>
<!-- Node45&#45;&gt;Node6 -->
<g id="edge110" class="edge"><title>Node45&#45;&gt;Node6</title>
<path fill="none" stroke="#9a32cd" stroke-dasharray="5,2" d="M1974.63,-116.401C2014.09,-117.762 2063.13,-119.453 2101.68,-120.782"/>
<polygon fill="#9a32cd" stroke="#9a32cd" points="1974.67,-112.9 1964.55,-116.054 1974.42,-119.896 1974.67,-112.9"/>
<text text-anchor="middle" x="2044" y="-123" font-family="FreeSans" font-size="10.00"> ThreadResources</text>
</g>
</g>
</svg>
