<?xml version="1.0" encoding="UTF-8" standalone="no"?>
<!DOCTYPE svg PUBLIC "-//W3C//DTD SVG 1.1//EN"
 "http://www.w3.org/Graphics/SVG/1.1/DTD/svg11.dtd">
<!-- Generated by graphviz version 2.38.0 (20140413.2041)
 -->
<!-- Title: Mezzanine::Graphics::Procedural::MeshLoader Pages: 1 -->
<!--zoomable 319 -->
<svg id="main" version="1.1" xmlns="http://www.w3.org/2000/svg" xmlns:xlink="http://www.w3.org/1999/xlink" xml:space="preserve" onload="init(evt)">
<style type="text/css"><![CDATA[
.edge:hover path { stroke: red; }
.edge:hover polygon { stroke: red; fill: red; }
]]></style>
<script type="text/javascript"><![CDATA[
var edges = document.getElementsByTagName('g');
if (edges && edges.length) {
  for (var i=0;i<edges.length;i++) {
    if (edges[i].id.substr(0,4)=='edge') {
      edges[i].setAttribute('class','edge');
    }
  }
}
]]></script>
        <defs>
                <circle id="rim" cx="0" cy="0" r="7"/>
                <circle id="rim2" cx="0" cy="0" r="3.5"/>
                <g id="zoomPlus">
                        <use xlink:href="#rim" fill="#404040">
                                <set attributeName="fill" to="#808080" begin="zoomplus.mouseover" end="zoomplus.mouseout"/>
                        </use>
                        <path d="M-4,0h8M0,-4v8" fill="none" stroke="white" stroke-width="1.5" pointer-events="none"/>
                </g>
                <g id="zoomMin">
                        <use xlink:href="#rim" fill="#404040">
                                <set attributeName="fill" to="#808080" begin="zoomminus.mouseover" end="zoomminus.mouseout"/>
                        </use>
                        <path d="M-4,0h8" fill="none" stroke="white" stroke-width="1.5" pointer-events="none"/>
                </g>
                <g id="dirArrow">
                        <path fill="none" stroke="white" stroke-width="1.5" d="M0,-3.0v7 M-2.5,-0.5L0,-3.0L2.5,-0.5"/>
                </g>
               <g id="resetDef">
                       <use xlink:href="#rim2" fill="#404040">
                               <set attributeName="fill" to="#808080" begin="reset.mouseover" end="reset.mouseout"/>
                       </use>
               </g>
        </defs>

<script type="text/javascript">
var viewWidth = 776;
var viewHeight = 319;
var sectionId = 'dynsection-1';
</script>
<script xlink:href="svgpan.js"/>
<svg id="graph" class="graph">
<g id="viewport">
<title>Mezzanine::Graphics::Procedural::MeshLoader</title>
<polygon fill="white" stroke="none" points="-4,4 -4,-314.5 772,-314.5 772,4 -4,4"/>
<!-- Node1 -->
<g id="node1" class="node"><title>Node1</title>
<polygon fill="#bfbfbf" stroke="black" points="640,-182.5 640,-212.5 768,-212.5 768,-182.5 640,-182.5"/>
<text text-anchor="start" x="648" y="-200.5" font-family="Helvetica,sans-Serif" font-size="10.00">Mezzanine::Graphics</text>
<text text-anchor="middle" x="704" y="-189.5" font-family="Helvetica,sans-Serif" font-size="10.00">::Procedural::MeshLoader</text>
</g>
<!-- Node2 -->
<g id="node2" class="node"><title>Node2</title>
<g id="a_node2"><a xlink:href="classMezzanine_1_1Graphics_1_1Procedural_1_1MeshGenerator.html" target="_top" xlink:title="Mezzanine::Graphics\l::Procedural::MeshGenerator\l\&lt; MeshLoader \&gt;">
<polygon fill="white" stroke="black" points="416,-217 416,-258 558,-258 558,-217 416,-217"/>
<text text-anchor="start" x="424" y="-246" font-family="Helvetica,sans-Serif" font-size="10.00">Mezzanine::Graphics</text>
<text text-anchor="start" x="424" y="-235" font-family="Helvetica,sans-Serif" font-size="10.00">::Procedural::MeshGenerator</text>
<text text-anchor="middle" x="487" y="-224" font-family="Helvetica,sans-Serif" font-size="10.00">&lt; MeshLoader &gt;</text>
</a>
</g>
</g>
<!-- Node2&#45;&gt;Node1 -->
<g id="edge1" class="edge"><title>Node2&#45;&gt;Node1</title>
<path fill="none" stroke="midnightblue" d="M568.127,-222.593C591.826,-218.183 617.427,-213.421 639.891,-209.241"/>
<polygon fill="midnightblue" stroke="midnightblue" points="567.293,-219.188 558.102,-224.458 568.573,-226.07 567.293,-219.188"/>
</g>
<!-- Node3 -->
<g id="node3" class="node"><title>Node3</title>
<g id="a_node3"><a xlink:href="classMezzanine_1_1Vector2.html" target="_top" xlink:title="This is used to represent a point on a 2 dimentional area, such as a screen. ">
<polygon fill="white" stroke="black" points="207,-291 207,-310 311,-310 311,-291 207,-291"/>
<text text-anchor="middle" x="259" y="-298" font-family="Helvetica,sans-Serif" font-size="10.00">Mezzanine::Vector2</text>
</a>
</g>
</g>
<!-- Node3&#45;&gt;Node2 -->
<g id="edge2" class="edge"><title>Node3&#45;&gt;Node2</title>
<path fill="none" stroke="#9a32cd" stroke-dasharray="5,2" d="M321.295,-293.134C345.501,-289.375 373.363,-283.978 398,-276.5 413.831,-271.695 430.578,-264.774 445.165,-258.092"/>
<polygon fill="#9a32cd" stroke="#9a32cd" points="320.538,-289.708 311.164,-294.646 321.572,-296.632 320.538,-289.708"/>
<text text-anchor="middle" x="370.5" y="-292.5" font-family="Helvetica,sans-Serif" font-size="10.00"> UVOrigin</text>
</g>
<!-- Node4 -->
<g id="node4" class="node"><title>Node4</title>
<g id="a_node4"><a xlink:href="classMezzanine_1_1Vector3.html" target="_top" xlink:title="This is used to represent a point in space, or a vector through space. ">
<polygon fill="white" stroke="black" points="207,-248 207,-267 311,-267 311,-248 207,-248"/>
<text text-anchor="middle" x="259" y="-255" font-family="Helvetica,sans-Serif" font-size="10.00">Mezzanine::Vector3</text>
</a>
</g>
</g>
<!-- Node4&#45;&gt;Node2 -->
<g id="edge3" class="edge"><title>Node4&#45;&gt;Node2</title>
<path fill="none" stroke="#9a32cd" stroke-dasharray="5,2" d="M321.087,-252.094C350.354,-249.504 385.556,-246.389 415.908,-243.703"/>
<polygon fill="#9a32cd" stroke="#9a32cd" points="320.653,-248.619 311.001,-252.987 321.27,-255.591 320.653,-248.619"/>
<text text-anchor="middle" x="370.5" y="-264.5" font-family="Helvetica,sans-Serif" font-size="10.00"> Scale</text>
<text text-anchor="middle" x="370.5" y="-253.5" font-family="Helvetica,sans-Serif" font-size="10.00">Position</text>
</g>
<!-- Node5 -->
<g id="node5" class="node"><title>Node5</title>
<g id="a_node5"><a xlink:href="classMezzanine_1_1Quaternion.html" target="_top" xlink:title="This is used to store information about rotation in 3d space. ">
<polygon fill="white" stroke="black" points="200.5,-210 200.5,-229 317.5,-229 317.5,-210 200.5,-210"/>
<text text-anchor="middle" x="259" y="-217" font-family="Helvetica,sans-Serif" font-size="10.00">Mezzanine::Quaternion</text>
</a>
</g>
</g>
<!-- Node5&#45;&gt;Node2 -->
<g id="edge4" class="edge"><title>Node5&#45;&gt;Node2</title>
<path fill="none" stroke="#9a32cd" stroke-dasharray="5,2" d="M327.622,-218.988C350.059,-219.346 375.141,-220.315 398,-222.5 403.863,-223.06 409.924,-223.785 415.995,-224.612"/>
<polygon fill="#9a32cd" stroke="#9a32cd" points="327.559,-215.487 317.517,-218.864 327.473,-222.486 327.559,-215.487"/>
<text text-anchor="middle" x="370.5" y="-225.5" font-family="Helvetica,sans-Serif" font-size="10.00"> Orientation</text>
</g>
<!-- Node6 -->
<g id="node6" class="node"><title>Node6</title>
<g id="a_node6"><a xlink:href="classMezzanine_1_1Graphics_1_1Mesh.html" target="_top" xlink:title="This class is used to check and modify the properties of a graphics mesh. ">
<polygon fill="white" stroke="black" points="432.5,-143.5 432.5,-173.5 541.5,-173.5 541.5,-143.5 432.5,-143.5"/>
<text text-anchor="start" x="440.5" y="-161.5" font-family="Helvetica,sans-Serif" font-size="10.00">Mezzanine::Graphics</text>
<text text-anchor="middle" x="487" y="-150.5" font-family="Helvetica,sans-Serif" font-size="10.00">::Mesh</text>
</a>
</g>
</g>
<!-- Node6&#45;&gt;Node1 -->
<g id="edge5" class="edge"><title>Node6&#45;&gt;Node1</title>
<path fill="none" stroke="#9a32cd" stroke-dasharray="5,2" d="M551.701,-170.055C579.474,-175.093 611.952,-180.984 639.682,-186.014"/>
<polygon fill="#9a32cd" stroke="#9a32cd" points="552.163,-166.582 541.699,-168.241 550.914,-173.469 552.163,-166.582"/>
<text text-anchor="middle" x="599" y="-186.5" font-family="Helvetica,sans-Serif" font-size="10.00"> GenMesh</text>
</g>
<!-- Node7 -->
<g id="node7" class="node"><title>Node7</title>
<g id="a_node7"><a xlink:href="classMezzanine_1_1Graphics_1_1InternalMeshData.html" target="_top" xlink:title="This class is used to store the internal structures needed by the Mesh class. ">
<polygon fill="white" stroke="black" points="204.5,-160.5 204.5,-190.5 313.5,-190.5 313.5,-160.5 204.5,-160.5"/>
<text text-anchor="start" x="212.5" y="-178.5" font-family="Helvetica,sans-Serif" font-size="10.00">Mezzanine::Graphics</text>
<text text-anchor="middle" x="259" y="-167.5" font-family="Helvetica,sans-Serif" font-size="10.00">::InternalMeshData</text>
</a>
</g>
</g>
<!-- Node7&#45;&gt;Node6 -->
<g id="edge6" class="edge"><title>Node7&#45;&gt;Node6</title>
<path fill="none" stroke="#9a32cd" stroke-dasharray="5,2" d="M323.931,-170.691C358.184,-168.114 399.903,-164.976 432.434,-162.529"/>
<polygon fill="#9a32cd" stroke="#9a32cd" points="323.268,-167.231 313.559,-171.471 323.793,-174.211 323.268,-167.231"/>
<text text-anchor="middle" x="370.5" y="-172.5" font-family="Helvetica,sans-Serif" font-size="10.00"> IMD</text>
</g>
<!-- Node8 -->
<g id="node8" class="node"><title>Node8</title>
<g id="a_node8"><a xlink:href="classMezzanine_1_1Graphics_1_1Skeleton.html" target="_top" xlink:title="This class encapsulates the Skeletal animation functionality of a Mesh. ">
<polygon fill="white" stroke="black" points="204.5,-59.5 204.5,-89.5 313.5,-89.5 313.5,-59.5 204.5,-59.5"/>
<text text-anchor="start" x="212.5" y="-77.5" font-family="Helvetica,sans-Serif" font-size="10.00">Mezzanine::Graphics</text>
<text text-anchor="middle" x="259" y="-66.5" font-family="Helvetica,sans-Serif" font-size="10.00">::Skeleton</text>
</a>
</g>
</g>
<!-- Node8&#45;&gt;Node6 -->
<g id="edge7" class="edge"><title>Node8&#45;&gt;Node6</title>
<path fill="none" stroke="#9a32cd" stroke-dasharray="5,2" d="M309.883,-93.0405C350.663,-108.198 407.589,-129.356 445.565,-143.471"/>
<polygon fill="#9a32cd" stroke="#9a32cd" points="310.997,-89.7208 300.404,-89.5175 308.558,-96.2822 310.997,-89.7208"/>
<text text-anchor="middle" x="370.5" y="-127.5" font-family="Helvetica,sans-Serif" font-size="10.00"> MeshSkel</text>
</g>
<!-- Node10 -->
<g id="node10" class="node"><title>Node10</title>
<g id="a_node10"><a xlink:href="classMezzanine_1_1Graphics_1_1Bone.html" target="_top" xlink:title="This class encapsulates the bones contained in a skeleton used for animation. ">
<polygon fill="white" stroke="black" points="432.5,-7.5 432.5,-37.5 541.5,-37.5 541.5,-7.5 432.5,-7.5"/>
<text text-anchor="start" x="440.5" y="-25.5" font-family="Helvetica,sans-Serif" font-size="10.00">Mezzanine::Graphics</text>
<text text-anchor="middle" x="487" y="-14.5" font-family="Helvetica,sans-Serif" font-size="10.00">::Bone</text>
</a>
</g>
</g>
<!-- Node8&#45;&gt;Node10 -->
<g id="edge11" class="edge"><title>Node8&#45;&gt;Node10</title>
<path fill="none" stroke="#9a32cd" stroke-dasharray="5,2" d="M316.55,-56.5956C325.362,-54.0583 334.396,-51.6017 343,-49.5 372.329,-42.3354 405.437,-35.9764 432.404,-31.232"/>
<polygon fill="#9a32cd" stroke="#9a32cd" points="315.338,-53.3036 306.729,-59.4799 317.31,-60.0199 315.338,-53.3036"/>
<text text-anchor="middle" x="370.5" y="-52.5" font-family="Helvetica,sans-Serif" font-size="10.00"> Host</text>
</g>
<!-- Node9 -->
<g id="node9" class="node"><title>Node9</title>
<polygon fill="white" stroke="#bfbfbf" points="649,-46 649,-65 759,-65 759,-46 649,-46"/>
<text text-anchor="middle" x="704" y="-53" font-family="Helvetica,sans-Serif" font-size="10.00">std::vector&lt; Bone * &gt;</text>
</g>
<!-- Node9&#45;&gt;Node8 -->
<g id="edge8" class="edge"><title>Node9&#45;&gt;Node8</title>
<path fill="none" stroke="#9a32cd" stroke-dasharray="5,2" d="M638.725,-58.2567C551.102,-62.0148 395.723,-68.6789 313.878,-72.1892"/>
<polygon fill="#9a32cd" stroke="#9a32cd" points="638.964,-61.7498 648.805,-57.8244 638.664,-54.7562 638.964,-61.7498"/>
<text text-anchor="middle" x="487" y="-71.5" font-family="Helvetica,sans-Serif" font-size="10.00"> Bones</text>
</g>
<!-- Node10&#45;&gt;Node9 -->
<g id="edge9" class="edge"><title>Node10&#45;&gt;Node9</title>
<path fill="none" stroke="#9a32cd" stroke-dasharray="5,2" d="M551.924,-32.3116C582.782,-37.048 619.407,-42.6694 648.867,-47.1912"/>
<polygon fill="#9a32cd" stroke="#9a32cd" points="552.114,-28.7999 541.699,-30.7422 551.052,-35.7189 552.114,-28.7999"/>
<text text-anchor="middle" x="599" y="-46.5" font-family="Helvetica,sans-Serif" font-size="10.00"> elements</text>
</g>
<!-- Node11 -->
<g id="node11" class="node"><title>Node11</title>
<g id="a_node11"><a xlink:href="classMezzanine_1_1TransformableChildObject.html" target="_top" xlink:title="This is an interface for all child 3D objects that can have their full transforms manipulated...">
<polygon fill="white" stroke="black" points="193,-0.5 193,-30.5 325,-30.5 325,-0.5 193,-0.5"/>
<text text-anchor="start" x="201" y="-18.5" font-family="Helvetica,sans-Serif" font-size="10.00">Mezzanine::Transformable</text>
<text text-anchor="middle" x="259" y="-7.5" font-family="Helvetica,sans-Serif" font-size="10.00">ChildObject</text>
</a>
</g>
</g>
<!-- Node11&#45;&gt;Node10 -->
<g id="edge10" class="edge"><title>Node11&#45;&gt;Node10</title>
<path fill="none" stroke="midnightblue" d="M335.225,-17.83C367.052,-18.8158 403.398,-19.9415 432.428,-20.8407"/>
<polygon fill="midnightblue" stroke="midnightblue" points="335.169,-14.3267 325.065,-17.5153 334.952,-21.3233 335.169,-14.3267"/>
</g>
<!-- Node12 -->
<g id="node12" class="node"><title>Node12</title>
<g id="a_node12"><a xlink:href="classMezzanine_1_1Graphics_1_1InternalSkeletonData.html" target="_top" xlink:title="This class is used to store the internal structures needed by the Skeleton class. ...">
<polygon fill="white" stroke="black" points="0,-59.5 0,-89.5 114,-89.5 114,-59.5 0,-59.5"/>
<text text-anchor="start" x="8" y="-77.5" font-family="Helvetica,sans-Serif" font-size="10.00">Mezzanine::Graphics</text>
<text text-anchor="middle" x="57" y="-66.5" font-family="Helvetica,sans-Serif" font-size="10.00">::InternalSkeletonData</text>
</a>
</g>
</g>
<!-- Node12&#45;&gt;Node8 -->
<g id="edge12" class="edge"><title>Node12&#45;&gt;Node8</title>
<path fill="none" stroke="#9a32cd" stroke-dasharray="5,2" d="M124.373,-74.5C150.312,-74.5 179.667,-74.5 204.243,-74.5"/>
<polygon fill="#9a32cd" stroke="#9a32cd" points="124.243,-71.0001 114.243,-74.5 124.243,-78.0001 124.243,-71.0001"/>
<text text-anchor="middle" x="153.5" y="-77.5" font-family="Helvetica,sans-Serif" font-size="10.00"> ISD</text>
</g>
<!-- Node13 -->
<g id="node13" class="node"><title>Node13</title>
<polygon fill="white" stroke="#bfbfbf" points="194.5,-122 194.5,-141 323.5,-141 323.5,-122 194.5,-122"/>
<text text-anchor="middle" x="259" y="-129" font-family="Helvetica,sans-Serif" font-size="10.00">std::vector&lt; SubMesh * &gt;</text>
</g>
<!-- Node13&#45;&gt;Node6 -->
<g id="edge13" class="edge"><title>Node13&#45;&gt;Node6</title>
<path fill="none" stroke="#9a32cd" stroke-dasharray="5,2" d="M333.816,-140.319C365.991,-144.163 403.004,-148.585 432.471,-152.105"/>
<polygon fill="#9a32cd" stroke="#9a32cd" points="333.9,-136.804 323.555,-139.093 333.069,-143.754 333.9,-136.804"/>
<text text-anchor="middle" x="370.5" y="-150.5" font-family="Helvetica,sans-Serif" font-size="10.00"> SubMeshes</text>
</g>
<!-- Node14 -->
<g id="node14" class="node"><title>Node14</title>
<g id="a_node14"><a xlink:href="classMezzanine_1_1Graphics_1_1SubMesh.html" target="_top" xlink:title="This class represents a sub&#45;section of an overall mesh. ">
<polygon fill="white" stroke="black" points="2.5,-116.5 2.5,-146.5 111.5,-146.5 111.5,-116.5 2.5,-116.5"/>
<text text-anchor="start" x="10.5" y="-134.5" font-family="Helvetica,sans-Serif" font-size="10.00">Mezzanine::Graphics</text>
<text text-anchor="middle" x="57" y="-123.5" font-family="Helvetica,sans-Serif" font-size="10.00">::SubMesh</text>
</a>
</g>
</g>
<!-- Node14&#45;&gt;Node13 -->
<g id="edge14" class="edge"><title>Node14&#45;&gt;Node13</title>
<path fill="none" stroke="#9a32cd" stroke-dasharray="5,2" d="M121.678,-131.5C144.878,-131.5 171.096,-131.5 194.298,-131.5"/>
<polygon fill="#9a32cd" stroke="#9a32cd" points="121.596,-128 111.596,-131.5 121.596,-135 121.596,-128"/>
<text text-anchor="middle" x="153.5" y="-134.5" font-family="Helvetica,sans-Serif" font-size="10.00"> elements</text>
</g>
</g>
</svg>
        <g id="navigator" transform="translate(0 0)" fill="#404254">
                <rect fill="#f2f5e9" fill-opacity="0.5" stroke="#606060" stroke-width=".5" x="0" y="0" width="60" height="60"/>
                <use id="zoomplus" xlink:href="#zoomPlus" x="17" y="9" onmousedown="handleZoom(evt,'in')"/>
                <use id="zoomminus" xlink:href="#zoomMin" x="42" y="9" onmousedown="handleZoom(evt,'out')"/>
                <use id="reset" xlink:href="#resetDef" x="30" y="36" onmousedown="handleReset()"/>
                <g id="arrowUp" xlink:href="#dirArrow" transform="translate(30 24)" onmousedown="handlePan(0,-1)">
                  <use xlink:href="#rim" fill="#404040">
                        <set attributeName="fill" to="#808080" begin="arrowUp.mouseover" end="arrowUp.mouseout"/>
                  </use>
                  <path fill="none" stroke="white" stroke-width="1.5" d="M0,-3.0v7 M-2.5,-0.5L0,-3.0L2.5,-0.5"/>
                </g>
                <g id="arrowRight" xlink:href="#dirArrow" transform="rotate(90) translate(36 -43)" onmousedown="handlePan(1,0)">
                  <use xlink:href="#rim" fill="#404040">
                        <set attributeName="fill" to="#808080" begin="arrowRight.mouseover" end="arrowRight.mouseout"/>
                  </use>
                  <path fill="none" stroke="white" stroke-width="1.5" d="M0,-3.0v7 M-2.5,-0.5L0,-3.0L2.5,-0.5"/>
                </g>
                <g id="arrowDown" xlink:href="#dirArrow" transform="rotate(180) translate(-30 -48)" onmousedown="handlePan(0,1)">
                  <use xlink:href="#rim" fill="#404040">
                        <set attributeName="fill" to="#808080" begin="arrowDown.mouseover" end="arrowDown.mouseout"/>
                  </use>
                  <path fill="none" stroke="white" stroke-width="1.5" d="M0,-3.0v7 M-2.5,-0.5L0,-3.0L2.5,-0.5"/>
                </g>
                <g id="arrowLeft" xlink:href="#dirArrow" transform="rotate(270) translate(-36 17)" onmousedown="handlePan(-1,0)">
                  <use xlink:href="#rim" fill="#404040">
                        <set attributeName="fill" to="#808080" begin="arrowLeft.mouseover" end="arrowLeft.mouseout"/>
                  </use>
                  <path fill="none" stroke="white" stroke-width="1.5" d="M0,-3.0v7 M-2.5,-0.5L0,-3.0L2.5,-0.5"/>
                </g>
        </g>
        <svg viewBox="0 0 15 15" width="100%" height="30px" preserveAspectRatio="xMaxYMin meet">
         <g id="arrow_out" transform="scale(0.3 0.3)">
          <a xlink:href="classMezzanine_1_1Graphics_1_1Procedural_1_1MeshLoader__coll__graph_org.svg" target="_base">
           <rect id="button" ry="5" rx="5" y="6" x="6" height="38" width="38"
                fill="#f2f5e9" fill-opacity="0.5" stroke="#606060" stroke-width="1.0"/>
           <path id="arrow"
             d="M 11.500037,31.436501 C 11.940474,20.09759 22.043105,11.32322 32.158766,21.979434 L 37.068811,17.246167 C 37.068811,17.246167 37.088388,32 37.088388,32 L 22.160133,31.978069 C 22.160133,31.978069 26.997745,27.140456 26.997745,27.140456 C 18.528582,18.264221 13.291696,25.230495 11.500037,31.436501 z"
             style="fill:#404040;"/>
          </a>
         </g>
        </svg>
</svg>
