<?xml version="1.0" encoding="UTF-8" standalone="no"?>
<!DOCTYPE svg PUBLIC "-//W3C//DTD SVG 1.1//EN"
 "http://www.w3.org/Graphics/SVG/1.1/DTD/svg11.dtd">
<!-- Generated by graphviz version 2.26.3 (20100126.1600)
 -->
<!-- Title: Mezzanine::Physics::CollisionShape Pages: 1 -->
<!--zoomable 590 -->
<svg id="main" version="1.1" xmlns="http://www.w3.org/2000/svg" xmlns:xlink="http://www.w3.org/1999/xlink" xml:space="preserve" onload="init(evt)">
        <defs>
                <circle id="rim" cx="0" cy="0" r="7"/>
                <circle id="rim2" cx="0" cy="0" r="3.5"/>
                <g id="zoomPlus">
                        <use xlink:href="#rim" fill="#404040">
                                <set attributeName="fill" to="#808080" begin="zoomplus.mouseover" end="zoomplus.mouseout"/>
                        </use>
                        <path d="M-4,0h8M0,-4v8" fill="none" stroke="white" stroke-width="1.5" pointer-events="none"/>
                </g>
                <g id="zoomMin">
                        <use xlink:href="#rim" fill="#404040">
                                <set attributeName="fill" to="#808080" begin="zoomminus.mouseover" end="zoomminus.mouseout"/>
                        </use>
                        <path d="M-4,0h8" fill="none" stroke="white" stroke-width="1.5" pointer-events="none"/>
                </g>
                <g id="dirArrow">
                        <path fill="none" stroke="white" stroke-width="1.5" d="M0,-3.0v7 M-2.5,-0.5L0,-3.0L2.5,-0.5"/>
                </g>
               <g id="resetDef">
                       <use xlink:href="#rim2" fill="#404040">
                               <set attributeName="fill" to="#808080" begin="reset.mouseover" end="reset.mouseout"/>
                       </use>
               </g>
        </defs>

<script type="text/javascript">
var viewWidth = 458;
var viewHeight = 590;
var sectionId = 'dynsection-0';
</script>
<script xlink:href="svgpan.js"/>
<svg id="graph" class="graph">
<g id="viewport">
<title>Mezzanine::Physics::CollisionShape</title>
<polygon fill="white" stroke="white" points="-4,5 -4,-586 455,-586 455,5 -4,5"/>
<!-- Node1 -->
<g id="node1" class="node"><title>Node1</title>
<polygon fill="#bfbfbf" stroke="black" points="0,-449 0,-481 100,-481 100,-449 0,-449"/>
<text text-anchor="start" x="8" y="-468" font-family="FreeSans" font-size="10.00">Mezzanine::Physics</text>
<text text-anchor="middle" x="50" y="-456" font-family="FreeSans" font-size="10.00">::CollisionShape</text>
</g>
<!-- Node2 -->
<g id="node3" class="node"><title>Node2</title>
<a xlink:href="classMezzanine_1_1Physics_1_1CompoundCollisionShape.html" target="_top" xlink:title="A collision shape composed of many other collision shapes placed and oriented in local space...">
<polygon fill="white" stroke="black" points="136.5,-537 136.5,-569 267.5,-569 267.5,-537 136.5,-537"/>
<text text-anchor="start" x="144.5" y="-556" font-family="FreeSans" font-size="10.00">Mezzanine::Physics</text>
<text text-anchor="middle" x="202" y="-544" font-family="FreeSans" font-size="10.00">::CompoundCollisionShape</text>
</a>
</g>
<!-- Node1&#45;&gt;Node2 -->
<g id="edge2" class="edge"><title>Node1&#45;&gt;Node2</title>
<path fill="none" stroke="midnightblue" d="M76.8362,-487.591C93.1946,-500.597 114.944,-516.574 136,-528 141.923,-531.214 148.348,-534.201 154.785,-536.91"/>
<polygon fill="midnightblue" stroke="midnightblue" points="78.783,-484.665 68.8054,-481.101 74.3831,-490.109 78.783,-484.665"/>
</g>
<!-- Node3 -->
<g id="node5" class="node"><title>Node3</title>
<a xlink:href="classMezzanine_1_1Physics_1_1FieldCollisionShape.html" target="_top" xlink:title="This is the base class for all Field shapes.">
<polygon fill="white" stroke="black" points="149,-487 149,-519 255,-519 255,-487 149,-487"/>
<text text-anchor="start" x="157" y="-506" font-family="FreeSans" font-size="10.00">Mezzanine::Physics</text>
<text text-anchor="middle" x="202" y="-494" font-family="FreeSans" font-size="10.00">::FieldCollisionShape</text>
</a>
</g>
<!-- Node1&#45;&gt;Node3 -->
<g id="edge4" class="edge"><title>Node1&#45;&gt;Node3</title>
<path fill="none" stroke="midnightblue" d="M109.908,-479.977C122.814,-483.204 136.369,-486.592 148.99,-489.748"/>
<polygon fill="midnightblue" stroke="midnightblue" points="110.742,-476.578 100.192,-477.548 109.044,-483.369 110.742,-476.578"/>
</g>
<!-- Node6 -->
<g id="node11" class="node"><title>Node6</title>
<a xlink:href="classMezzanine_1_1Physics_1_1MeshCollisionShape.html" target="_top" xlink:title="This is the base class for all Mesh shapes.">
<polygon fill="white" stroke="black" points="148,-412 148,-444 256,-444 256,-412 148,-412"/>
<text text-anchor="start" x="156" y="-431" font-family="FreeSans" font-size="10.00">Mezzanine::Physics</text>
<text text-anchor="middle" x="202" y="-419" font-family="FreeSans" font-size="10.00">::MeshCollisionShape</text>
</a>
</g>
<!-- Node1&#45;&gt;Node6 -->
<g id="edge10" class="edge"><title>Node1&#45;&gt;Node6</title>
<path fill="none" stroke="midnightblue" d="M110.061,-450.38C122.563,-447.337 135.668,-444.147 147.938,-441.16"/>
<polygon fill="midnightblue" stroke="midnightblue" points="109.08,-447.016 100.192,-452.782 110.736,-453.818 109.08,-447.016"/>
</g>
<!-- Node10 -->
<g id="node19" class="node"><title>Node10</title>
<a xlink:href="classMezzanine_1_1Physics_1_1PrimitiveCollisionShape.html" target="_top" xlink:title="This is the base class for all Primitive shapes.">
<polygon fill="white" stroke="black" points="141,-175 141,-207 263,-207 263,-175 141,-175"/>
<text text-anchor="start" x="149" y="-194" font-family="FreeSans" font-size="10.00">Mezzanine::Physics</text>
<text text-anchor="middle" x="202" y="-182" font-family="FreeSans" font-size="10.00">::PrimitiveCollisionShape</text>
</a>
</g>
<!-- Node1&#45;&gt;Node10 -->
<g id="edge18" class="edge"><title>Node1&#45;&gt;Node10</title>
<path fill="none" stroke="midnightblue" d="M63.9458,-439.861C94.6721,-384.473 167.497,-253.197 192.994,-207.234"/>
<polygon fill="midnightblue" stroke="midnightblue" points="60.8435,-438.238 59.0531,-448.681 66.9648,-441.634 60.8435,-438.238"/>
</g>
<!-- Node4 -->
<g id="node7" class="node"><title>Node4</title>
<a xlink:href="classMezzanine_1_1Physics_1_1HeightfieldCollisionShape.html" target="_top" xlink:title="A series of values that store hieght in a grid like fashion.">
<polygon fill="white" stroke="black" points="312,-550 312,-582 442,-582 442,-550 312,-550"/>
<text text-anchor="start" x="320" y="-569" font-family="FreeSans" font-size="10.00">Mezzanine::Physics</text>
<text text-anchor="middle" x="377" y="-557" font-family="FreeSans" font-size="10.00">::HeightfieldCollisionShape</text>
</a>
</g>
<!-- Node3&#45;&gt;Node4 -->
<g id="edge6" class="edge"><title>Node3&#45;&gt;Node4</title>
<path fill="none" stroke="midnightblue" d="M254.267,-522.777C270.201,-528.724 287.79,-535.206 304,-541 312.199,-543.931 320.941,-546.985 329.422,-549.911"/>
<polygon fill="midnightblue" stroke="midnightblue" points="255.179,-519.381 244.587,-519.154 252.726,-525.937 255.179,-519.381"/>
</g>
<!-- Node5 -->
<g id="node9" class="node"><title>Node5</title>
<a xlink:href="classMezzanine_1_1Physics_1_1PlaneCollisionShape.html" target="_top" xlink:title="A Flat wall/floor of limitless size.">
<polygon fill="white" stroke="black" points="322,-500 322,-532 432,-532 432,-500 322,-500"/>
<text text-anchor="start" x="330" y="-519" font-family="FreeSans" font-size="10.00">Mezzanine::Physics</text>
<text text-anchor="middle" x="377" y="-507" font-family="FreeSans" font-size="10.00">::PlaneCollisionShape</text>
</a>
</g>
<!-- Node3&#45;&gt;Node5 -->
<g id="edge8" class="edge"><title>Node3&#45;&gt;Node5</title>
<path fill="none" stroke="midnightblue" d="M265.508,-507.718C283.927,-509.086 303.883,-510.568 321.753,-511.896"/>
<polygon fill="midnightblue" stroke="midnightblue" points="265.689,-504.222 255.457,-506.971 265.17,-511.202 265.689,-504.222"/>
</g>
<!-- Node7 -->
<g id="node13" class="node"><title>Node7</title>
<a xlink:href="classMezzanine_1_1Physics_1_1ActorSoftCollisionShape.html" target="_top" xlink:title="A collision shape for soft actors.">
<polygon fill="white" stroke="black" points="314,-450 314,-482 440,-482 440,-450 314,-450"/>
<text text-anchor="start" x="322" y="-469" font-family="FreeSans" font-size="10.00">Mezzanine::Physics</text>
<text text-anchor="middle" x="377" y="-457" font-family="FreeSans" font-size="10.00">::ActorSoftCollisionShape</text>
</a>
</g>
<!-- Node6&#45;&gt;Node7 -->
<g id="edge12" class="edge"><title>Node6&#45;&gt;Node7</title>
<path fill="none" stroke="midnightblue" d="M266.395,-441.983C281.848,-445.338 298.337,-448.919 313.738,-452.263"/>
<polygon fill="midnightblue" stroke="midnightblue" points="266.927,-438.517 256.412,-439.815 265.441,-445.357 266.927,-438.517"/>
</g>
<!-- Node8 -->
<g id="node15" class="node"><title>Node8</title>
<a xlink:href="classMezzanine_1_1Physics_1_1DynamicMeshCollisionShape.html" target="_top" xlink:title="A triangle mesh collsion shape based on a graphics mesh.">
<polygon fill="white" stroke="black" points="304,-400 304,-432 450,-432 450,-400 304,-400"/>
<text text-anchor="start" x="312" y="-419" font-family="FreeSans" font-size="10.00">Mezzanine::Physics</text>
<text text-anchor="middle" x="377" y="-407" font-family="FreeSans" font-size="10.00">::DynamicMeshCollisionShape</text>
</a>
</g>
<!-- Node6&#45;&gt;Node8 -->
<g id="edge14" class="edge"><title>Node6&#45;&gt;Node8</title>
<path fill="none" stroke="midnightblue" d="M266.486,-423.578C278.685,-422.742 291.527,-421.861 303.968,-421.008"/>
<polygon fill="midnightblue" stroke="midnightblue" points="266.149,-420.093 256.412,-424.269 266.628,-427.077 266.149,-420.093"/>
</g>
<!-- Node9 -->
<g id="node17" class="node"><title>Node9</title>
<a xlink:href="classMezzanine_1_1Physics_1_1StaticMeshCollisionShape.html" target="_top" xlink:title="A triangle mesh collsion shape based on a graphics mesh.">
<polygon fill="white" stroke="black" points="310,-350 310,-382 444,-382 444,-350 310,-350"/>
<text text-anchor="start" x="318" y="-369" font-family="FreeSans" font-size="10.00">Mezzanine::Physics</text>
<text text-anchor="middle" x="377" y="-357" font-family="FreeSans" font-size="10.00">::StaticMeshCollisionShape</text>
</a>
</g>
<!-- Node6&#45;&gt;Node9 -->
<g id="edge16" class="edge"><title>Node6&#45;&gt;Node9</title>
<path fill="none" stroke="midnightblue" d="M255.171,-408.507C270.874,-402.806 288.111,-396.602 304,-391 312.338,-388.06 321.229,-384.974 329.834,-382.013"/>
<polygon fill="midnightblue" stroke="midnightblue" points="253.819,-405.275 245.618,-411.982 256.212,-411.853 253.819,-405.275"/>
</g>
<!-- Node11 -->
<g id="node21" class="node"><title>Node11</title>
<a xlink:href="classMezzanine_1_1Physics_1_1BoxCollisionShape.html" target="_top" xlink:title="A box physics shape.">
<polygon fill="white" stroke="black" points="326.5,-300 326.5,-332 427.5,-332 427.5,-300 326.5,-300"/>
<text text-anchor="start" x="334.5" y="-319" font-family="FreeSans" font-size="10.00">Mezzanine::Physics</text>
<text text-anchor="middle" x="377" y="-307" font-family="FreeSans" font-size="10.00">::BoxCollisionShape</text>
</a>
</g>
<!-- Node10&#45;&gt;Node11 -->
<g id="edge20" class="edge"><title>Node10&#45;&gt;Node11</title>
<path fill="none" stroke="midnightblue" d="M220.867,-214.853C239.755,-237.31 270.728,-270.476 304,-291 310.841,-295.22 318.485,-298.835 326.18,-301.897"/>
<polygon fill="midnightblue" stroke="midnightblue" points="223.538,-212.591 214.472,-207.108 218.14,-217.048 223.538,-212.591"/>
</g>
<!-- Node12 -->
<g id="node23" class="node"><title>Node12</title>
<a xlink:href="classMezzanine_1_1Physics_1_1CapsuleCollisionShape.html" target="_top" xlink:title="A capsule physics shape.">
<polygon fill="white" stroke="black" points="317.5,-250 317.5,-282 436.5,-282 436.5,-250 317.5,-250"/>
<text text-anchor="start" x="325.5" y="-269" font-family="FreeSans" font-size="10.00">Mezzanine::Physics</text>
<text text-anchor="middle" x="377" y="-257" font-family="FreeSans" font-size="10.00">::CapsuleCollisionShape</text>
</a>
</g>
<!-- Node10&#45;&gt;Node12 -->
<g id="edge22" class="edge"><title>Node10&#45;&gt;Node12</title>
<path fill="none" stroke="midnightblue" d="M241.437,-211.773C260.144,-221.253 282.959,-232.281 304,-241 311.425,-244.077 319.38,-247.085 327.208,-249.887"/>
<polygon fill="midnightblue" stroke="midnightblue" points="242.833,-208.556 232.336,-207.12 239.647,-214.789 242.833,-208.556"/>
</g>
<!-- Node13 -->
<g id="node25" class="node"><title>Node13</title>
<a xlink:href="classMezzanine_1_1Physics_1_1ConeCollisionShape.html" target="_top" xlink:title="A cone physics shape.">
<polygon fill="white" stroke="black" points="323.5,-200 323.5,-232 430.5,-232 430.5,-200 323.5,-200"/>
<text text-anchor="start" x="331.5" y="-219" font-family="FreeSans" font-size="10.00">Mezzanine::Physics</text>
<text text-anchor="middle" x="377" y="-207" font-family="FreeSans" font-size="10.00">::ConeCollisionShape</text>
</a>
</g>
<!-- Node10&#45;&gt;Node13 -->
<g id="edge24" class="edge"><title>Node10&#45;&gt;Node13</title>
<path fill="none" stroke="midnightblue" d="M273.47,-201.21C290.156,-203.594 307.649,-206.093 323.406,-208.344"/>
<polygon fill="midnightblue" stroke="midnightblue" points="273.601,-197.693 263.207,-199.744 272.611,-204.623 273.601,-197.693"/>
</g>
<!-- Node14 -->
<g id="node27" class="node"><title>Node14</title>
<a xlink:href="classMezzanine_1_1Physics_1_1ConvexHullCollisionShape.html" target="_top" xlink:title="A simple convex shape built from a low number of points in local space.">
<polygon fill="white" stroke="black" points="310.5,-150 310.5,-182 443.5,-182 443.5,-150 310.5,-150"/>
<text text-anchor="start" x="318.5" y="-169" font-family="FreeSans" font-size="10.00">Mezzanine::Physics</text>
<text text-anchor="middle" x="377" y="-157" font-family="FreeSans" font-size="10.00">::ConvexHullCollisionShape</text>
</a>
</g>
<!-- Node10&#45;&gt;Node14 -->
<g id="edge26" class="edge"><title>Node10&#45;&gt;Node14</title>
<path fill="none" stroke="midnightblue" d="M273.379,-180.803C285.639,-179.052 298.336,-177.238 310.462,-175.505"/>
<polygon fill="midnightblue" stroke="midnightblue" points="272.611,-177.377 263.207,-182.256 273.601,-184.307 272.611,-177.377"/>
</g>
<!-- Node15 -->
<g id="node29" class="node"><title>Node15</title>
<a xlink:href="classMezzanine_1_1Physics_1_1CylinderCollisionShape.html" target="_top" xlink:title="A cylinder physics shape.">
<polygon fill="white" stroke="black" points="317.5,-100 317.5,-132 436.5,-132 436.5,-100 317.5,-100"/>
<text text-anchor="start" x="325.5" y="-119" font-family="FreeSans" font-size="10.00">Mezzanine::Physics</text>
<text text-anchor="middle" x="377" y="-107" font-family="FreeSans" font-size="10.00">::CylinderCollisionShape</text>
</a>
</g>
<!-- Node10&#45;&gt;Node15 -->
<g id="edge28" class="edge"><title>Node10&#45;&gt;Node15</title>
<path fill="none" stroke="midnightblue" d="M241.437,-170.227C260.144,-160.747 282.959,-149.719 304,-141 311.425,-137.923 319.38,-134.915 327.208,-132.113"/>
<polygon fill="midnightblue" stroke="midnightblue" points="239.647,-167.211 232.336,-174.88 242.833,-173.444 239.647,-167.211"/>
</g>
<!-- Node16 -->
<g id="node31" class="node"><title>Node16</title>
<a xlink:href="classMezzanine_1_1Physics_1_1MultiSphereCollisionShape.html" target="_top" xlink:title="A physics shape comprised of multiple sphere&#39;s placed in local space.">
<polygon fill="white" stroke="black" points="308.5,-50 308.5,-82 445.5,-82 445.5,-50 308.5,-50"/>
<text text-anchor="start" x="316.5" y="-69" font-family="FreeSans" font-size="10.00">Mezzanine::Physics</text>
<text text-anchor="middle" x="377" y="-57" font-family="FreeSans" font-size="10.00">::MultiSphereCollisionShape</text>
</a>
</g>
<!-- Node10&#45;&gt;Node16 -->
<g id="edge30" class="edge"><title>Node10&#45;&gt;Node16</title>
<path fill="none" stroke="midnightblue" d="M220.867,-167.147C239.755,-144.69 270.728,-111.524 304,-91 309.473,-87.6241 315.46,-84.6353 321.575,-82.007"/>
<polygon fill="midnightblue" stroke="midnightblue" points="218.14,-164.952 214.472,-174.892 223.538,-169.409 218.14,-164.952"/>
</g>
<!-- Node17 -->
<g id="node33" class="node"><title>Node17</title>
<a xlink:href="classMezzanine_1_1Physics_1_1SphereCollisionShape.html" target="_top" xlink:title="A sphere physics shape.">
<polygon fill="white" stroke="black" points="319,-0 319,-32 435,-32 435,-0 319,-0"/>
<text text-anchor="start" x="327" y="-19" font-family="FreeSans" font-size="10.00">Mezzanine::Physics</text>
<text text-anchor="middle" x="377" y="-7" font-family="FreeSans" font-size="10.00">::SphereCollisionShape</text>
</a>
</g>
<!-- Node10&#45;&gt;Node17 -->
<g id="edge32" class="edge"><title>Node10&#45;&gt;Node17</title>
<path fill="none" stroke="midnightblue" d="M213.039,-165.439C228.643,-132.189 260.21,-74.4128 304,-41 308.58,-37.5057 313.68,-34.48 318.998,-31.8639"/>
<polygon fill="midnightblue" stroke="midnightblue" points="209.681,-164.366 208.712,-174.917 216.049,-167.273 209.681,-164.366"/>
</g>
</g>
</svg>
        <g id="navigator" transform="translate(0 0)" fill="#404254">
                <rect fill="#f2f5e9" fill-opacity="0.5" stroke="#606060" stroke-width=".5" x="0" y="0" width="60" height="60"/>
                <use id="zoomplus" xlink:href="#zoomPlus" x="17" y="9" onmousedown="handleZoom(evt,'in')"/>
                <use id="zoomminus" xlink:href="#zoomMin" x="42" y="9" onmousedown="handleZoom(evt,'out')"/>
                <use id="reset" xlink:href="#resetDef" x="30" y="36" onmousedown="handleReset()"/>
                <g id="arrowUp" xlink:href="#dirArrow" transform="translate(30 24)" onmousedown="handlePan(0,-1)">
                  <use xlink:href="#rim" fill="#404040">
                        <set attributeName="fill" to="#808080" begin="arrowUp.mouseover" end="arrowUp.mouseout"/>
                  </use>
                  <path fill="none" stroke="white" stroke-width="1.5" d="M0,-3.0v7 M-2.5,-0.5L0,-3.0L2.5,-0.5"/>
                </g>
                <g id="arrowRight" xlink:href="#dirArrow" transform="rotate(90) translate(36 -43)" onmousedown="handlePan(1,0)">
                  <use xlink:href="#rim" fill="#404040">
                        <set attributeName="fill" to="#808080" begin="arrowRight.mouseover" end="arrowRight.mouseout"/>
                  </use>
                  <path fill="none" stroke="white" stroke-width="1.5" d="M0,-3.0v7 M-2.5,-0.5L0,-3.0L2.5,-0.5"/>
                </g>
                <g id="arrowDown" xlink:href="#dirArrow" transform="rotate(180) translate(-30 -48)" onmousedown="handlePan(0,1)">
                  <use xlink:href="#rim" fill="#404040">
                        <set attributeName="fill" to="#808080" begin="arrowDown.mouseover" end="arrowDown.mouseout"/>
                  </use>
                  <path fill="none" stroke="white" stroke-width="1.5" d="M0,-3.0v7 M-2.5,-0.5L0,-3.0L2.5,-0.5"/>
                </g>
                <g id="arrowLeft" xlink:href="#dirArrow" transform="rotate(270) translate(-36 17)" onmousedown="handlePan(-1,0)">
                  <use xlink:href="#rim" fill="#404040">
                        <set attributeName="fill" to="#808080" begin="arrowLeft.mouseover" end="arrowLeft.mouseout"/>
                  </use>
                  <path fill="none" stroke="white" stroke-width="1.5" d="M0,-3.0v7 M-2.5,-0.5L0,-3.0L2.5,-0.5"/>
                </g>
        </g>
        <svg viewBox="0 0 15 15" width="100%" height="30px" preserveAspectRatio="xMaxYMin meet">
         <g id="arrow_out" transform="scale(0.3 0.3)">
          <a xlink:href="classMezzanine_1_1Physics_1_1CollisionShape__inherit__graph_org.svg" target="_base">
           <rect id="button" ry="5" rx="5" y="6" x="6" height="38" width="38"
                fill="#f2f5e9" fill-opacity="0.5" stroke="#606060" stroke-width="1.0"/>
           <path id="arrow"
             d="M 11.500037,31.436501 C 11.940474,20.09759 22.043105,11.32322 32.158766,21.979434 L 37.068811,17.246167 C 37.068811,17.246167 37.088388,32 37.088388,32 L 22.160133,31.978069 C 22.160133,31.978069 26.997745,27.140456 26.997745,27.140456 C 18.528582,18.264221 13.291696,25.230495 11.500037,31.436501 z"
             style="fill:#404040;"/>
          </a>
         </g>
        </svg>
</svg>
