<?xml version="1.0" encoding="UTF-8" standalone="no"?>
<!DOCTYPE svg PUBLIC "-//W3C//DTD SVG 1.1//EN"
 "http://www.w3.org/Graphics/SVG/1.1/DTD/svg11.dtd">
<!-- Generated by graphviz version 2.26.3 (20100126.1600)
 -->
<!-- Title: Mezzanine::Internal::SceneManagerData Pages: 1 -->
<svg width="2070pt" height="672pt"
 viewBox="0.00 0.00 2070.00 672.00" xmlns="http://www.w3.org/2000/svg" xmlns:xlink="http://www.w3.org/1999/xlink">
<g id="graph1" class="graph" transform="scale(1 1) rotate(0) translate(4 668)">
<title>Mezzanine::Internal::SceneManagerData</title>
<polygon fill="white" stroke="white" points="-4,5 -4,-668 2067,-668 2067,5 -4,5"/>
<!-- Node1 -->
<g id="node1" class="node"><title>Node1</title>
<polygon fill="#bfbfbf" stroke="black" points="999.5,-218 999.5,-250 1106.5,-250 1106.5,-218 999.5,-218"/>
<text text-anchor="start" x="1007.5" y="-237" font-family="FreeSans" font-size="10.00">Mezzanine::Internal</text>
<text text-anchor="middle" x="1053" y="-225" font-family="FreeSans" font-size="10.00">::SceneManagerData</text>
</g>
<!-- Node7 -->
<g id="node12" class="node"><title>Node7</title>
<a xlink:href="classMezzanine_1_1SceneManager.xhtml" target="_top" xlink:title="This class contains utilities and functions to allow the manipulation of the Graphical scene...">
<polygon fill="white" stroke="black" points="1219,-273 1219,-293 1351,-293 1351,-273 1219,-273"/>
<text text-anchor="middle" x="1285" y="-280" font-family="FreeSans" font-size="10.00">Mezzanine::SceneManager</text>
</a>
</g>
<!-- Node1&#45;&gt;Node7 -->
<g id="edge30" class="edge"><title>Node1&#45;&gt;Node7</title>
<path fill="none" stroke="#9a32cd" stroke-dasharray="5,2" d="M1116.84,-231.375C1141.28,-231.754 1169.23,-233.887 1194,-240 1221.82,-246.867 1251.34,-262.583 1268.97,-272.992"/>
<polygon fill="#9a32cd" stroke="#9a32cd" points="1116.62,-227.873 1106.6,-231.313 1116.58,-234.873 1116.62,-227.873"/>
<text text-anchor="middle" x="1168" y="-243" font-family="FreeSans" font-size="10.00"> SMD</text>
</g>
<!-- Node2 -->
<g id="node2" class="node"><title>Node2</title>
<a xlink:href="classMezzanine_1_1Plane.xhtml" target="_top" xlink:title="This is used to represent a flat infinite slice of the game world.">
<polygon fill="white" stroke="black" points="344,-128 344,-148 436,-148 436,-128 344,-128"/>
<text text-anchor="middle" x="390" y="-135" font-family="FreeSans" font-size="10.00">Mezzanine::Plane</text>
</a>
</g>
<!-- Node2&#45;&gt;Node1 -->
<g id="edge2" class="edge"><title>Node2&#45;&gt;Node1</title>
<path fill="none" stroke="#9a32cd" stroke-dasharray="5,2" d="M446.437,-130.399C490.374,-124.882 552.937,-117.897 608,-115 768.306,-106.567 815.591,-114.81 964,-176 989.576,-186.545 1015.74,-204.645 1033.01,-217.827"/>
<polygon fill="#9a32cd" stroke="#9a32cd" points="445.721,-126.962 436.242,-131.695 446.604,-133.906 445.721,-126.962"/>
<text text-anchor="middle" x="639" y="-118" font-family="FreeSans" font-size="10.00"> SkyThePlane</text>
</g>
<!-- Node3 -->
<g id="node4" class="node"><title>Node3</title>
<a xlink:href="classMezzanine_1_1Vector3.xhtml" target="_top" xlink:title="This is used to represent a point in space, or a vector through space.">
<polygon fill="white" stroke="black" points="7,-270 7,-290 107,-290 107,-270 7,-270"/>
<text text-anchor="middle" x="57" y="-277" font-family="FreeSans" font-size="10.00">Mezzanine::Vector3</text>
</a>
</g>
<!-- Node3&#45;&gt;Node2 -->
<g id="edge4" class="edge"><title>Node3&#45;&gt;Node2</title>
<path fill="none" stroke="#9a32cd" stroke-dasharray="5,2" d="M89.9403,-265.953C156.956,-237.376 307.76,-173.069 366.216,-148.142"/>
<polygon fill="#9a32cd" stroke="#9a32cd" points="88.5073,-262.759 80.6816,-269.902 91.2531,-269.198 88.5073,-262.759"/>
<text text-anchor="middle" x="152" y="-249" font-family="FreeSans" font-size="10.00"> Normal</text>
</g>
<!-- Node17 -->
<g id="node36" class="node"><title>Node17</title>
<a xlink:href="classMezzanine_1_1WorldNode.xhtml" target="_top" xlink:title="This is a helper class which non&#45;physics objects, such as lights, cameras, ribbon trails...">
<polygon fill="white" stroke="black" points="1532,-455 1532,-475 1646,-475 1646,-455 1532,-455"/>
<text text-anchor="middle" x="1589" y="-462" font-family="FreeSans" font-size="10.00">Mezzanine::WorldNode</text>
</a>
</g>
<!-- Node3&#45;&gt;Node17 -->
<g id="edge62" class="edge"><title>Node3&#45;&gt;Node17</title>
<path fill="none" stroke="#9a32cd" stroke-dasharray="5,2" d="M117.488,-280C157.39,-280 210.811,-280 258,-280 258,-280 258,-280 639,-280 728.423,-280 752.683,-269.706 840,-289 898.187,-301.857 909.758,-315.325 964,-340 972.141,-343.704 973.67,-345.744 982,-349 1151.78,-415.37 1195.63,-436.566 1376,-463 1428.32,-470.668 1488.65,-470.394 1531.72,-468.657"/>
<polygon fill="#9a32cd" stroke="#9a32cd" points="117.389,-276.5 107.389,-280 117.389,-283.5 117.389,-276.5"/>
<text text-anchor="middle" x="764" y="-340" font-family="FreeSans" font-size="10.00"> AutoTrackDirection</text>
<text text-anchor="middle" x="764" y="-328" font-family="FreeSans" font-size="10.00">NodeLoc</text>
<text text-anchor="middle" x="764" y="-316" font-family="FreeSans" font-size="10.00">AutoTrackOffset</text>
<text text-anchor="middle" x="764" y="-304" font-family="FreeSans" font-size="10.00">FixedYawAxis</text>
<text text-anchor="middle" x="764" y="-292" font-family="FreeSans" font-size="10.00">NodeScale</text>
</g>
<!-- Node22 -->
<g id="node47" class="node"><title>Node22</title>
<a xlink:href="classMezzanine_1_1Transform.xhtml" target="_top" xlink:title="Stores information about relative location and rotation in 3d space.">
<polygon fill="white" stroke="black" points="203,-400 203,-420 313,-420 313,-400 203,-400"/>
<text text-anchor="middle" x="258" y="-407" font-family="FreeSans" font-size="10.00">Mezzanine::Transform</text>
</a>
</g>
<!-- Node3&#45;&gt;Node22 -->
<g id="edge54" class="edge"><title>Node3&#45;&gt;Node22</title>
<path fill="none" stroke="#9a32cd" stroke-dasharray="5,2" d="M81.2388,-295.677C122.994,-322.682 207.365,-377.251 242.301,-399.847"/>
<polygon fill="#9a32cd" stroke="#9a32cd" points="83.0698,-292.693 72.7721,-290.201 79.2682,-298.571 83.0698,-292.693"/>
<text text-anchor="middle" x="152" y="-355" font-family="FreeSans" font-size="10.00"> Location</text>
</g>
<!-- Node4 -->
<g id="node6" class="node"><title>Node4</title>
<a xlink:href="classMezzanine_1_1Quaternion.xhtml" target="_top" xlink:title="This is used to store information about rotation in 3d space.">
<polygon fill="white" stroke="black" points="0,-400 0,-420 114,-420 114,-400 0,-400"/>
<text text-anchor="middle" x="57" y="-407" font-family="FreeSans" font-size="10.00">Mezzanine::Quaternion</text>
</a>
</g>
<!-- Node4&#45;&gt;Node1 -->
<g id="edge6" class="edge"><title>Node4&#45;&gt;Node1</title>
<path fill="none" stroke="#9a32cd" stroke-dasharray="5,2" d="M70.8973,-391.659C84.787,-374.362 107.546,-348.671 132,-332 259.938,-244.782 302.122,-229.132 454,-199 652.227,-159.673 894.01,-200.051 999.496,-221.915"/>
<polygon fill="#9a32cd" stroke="#9a32cd" points="67.8943,-389.816 64.4804,-399.846 73.4038,-394.135 67.8943,-389.816"/>
<text text-anchor="middle" x="522" y="-202" font-family="FreeSans" font-size="10.00"> SkyOrientation</text>
</g>
<!-- Node4&#45;&gt;Node17 -->
<g id="edge66" class="edge"><title>Node4&#45;&gt;Node17</title>
<path fill="none" stroke="#9a32cd" stroke-dasharray="5,2" d="M62.7903,-429.88C80.9939,-487.745 142.811,-652 258,-652 258,-652 258,-652 1285,-652 1381.43,-652 1412.5,-641.58 1492,-587 1536.84,-556.215 1571.06,-498.563 1583.7,-475.211"/>
<polygon fill="#9a32cd" stroke="#9a32cd" points="66.071,-428.638 59.8116,-420.09 59.3741,-430.676 66.071,-428.638"/>
<text text-anchor="middle" x="764" y="-655" font-family="FreeSans" font-size="10.00"> NodeOri</text>
</g>
<!-- Node4&#45;&gt;Node22 -->
<g id="edge56" class="edge"><title>Node4&#45;&gt;Node22</title>
<path fill="none" stroke="#9a32cd" stroke-dasharray="5,2" d="M124.063,-410C149.657,-410 178.518,-410 202.877,-410"/>
<polygon fill="#9a32cd" stroke="#9a32cd" points="124.061,-406.5 114.061,-410 124.061,-413.5 124.061,-406.5"/>
<text text-anchor="middle" x="152" y="-413" font-family="FreeSans" font-size="10.00"> Rotation</text>
</g>
<!-- Node5 -->
<g id="node8" class="node"><title>Node5</title>
<a xlink:title="STL class.">
<polygon fill="white" stroke="#bfbfbf" points="735.5,-224 735.5,-244 792.5,-244 792.5,-224 735.5,-224"/>
<text text-anchor="middle" x="764" y="-231" font-family="FreeSans" font-size="10.00">std::string</text>
</a>
</g>
<!-- Node5&#45;&gt;Node1 -->
<g id="edge8" class="edge"><title>Node5&#45;&gt;Node1</title>
<path fill="none" stroke="#9a32cd" stroke-dasharray="5,2" d="M802.694,-234C853.302,-234 942.225,-234 999.325,-234"/>
<polygon fill="#9a32cd" stroke="#9a32cd" points="802.501,-230.5 792.501,-234 802.501,-237.5 802.501,-230.5"/>
<text text-anchor="middle" x="911" y="-249" font-family="FreeSans" font-size="10.00"> SkyMaterialGroupName</text>
<text text-anchor="middle" x="911" y="-237" font-family="FreeSans" font-size="10.00">SkyMaterialName</text>
</g>
<!-- Node5&#45;&gt;Node17 -->
<g id="edge68" class="edge"><title>Node5&#45;&gt;Node17</title>
<path fill="none" stroke="#9a32cd" stroke-dasharray="5,2" d="M802.158,-246.379C819.141,-251.626 839.454,-257.543 858,-262 974.884,-290.088 1015.16,-259.966 1124,-311 1133.43,-315.421 1133.24,-320.368 1142,-326 1163.57,-339.869 1170.9,-339.863 1194,-351 1274.93,-390.021 1289.8,-413.659 1376,-439 1427.47,-454.13 1488.43,-460.465 1531.92,-463.113"/>
<polygon fill="#9a32cd" stroke="#9a32cd" points="803.171,-243.029 792.582,-243.384 801.081,-249.71 803.171,-243.029"/>
<text text-anchor="middle" x="1168" y="-354" font-family="FreeSans" font-size="10.00"> NodeName</text>
</g>
<!-- Node6 -->
<g id="node10" class="node"><title>Node6</title>
<a xlink:title="STL class.">
<polygon fill="white" stroke="#bfbfbf" points="476.5,-220 476.5,-252 567.5,-252 567.5,-220 476.5,-220"/>
<text text-anchor="start" x="484.5" y="-239" font-family="FreeSans" font-size="10.00">std::basic_string&lt;</text>
<text text-anchor="middle" x="522" y="-227" font-family="FreeSans" font-size="10.00"> char &gt;</text>
</a>
</g>
<!-- Node6&#45;&gt;Node5 -->
<g id="edge10" class="edge"><title>Node6&#45;&gt;Node5</title>
<path fill="none" stroke="midnightblue" d="M577.687,-235.54C626.893,-235.133 696.674,-234.556 735.364,-234.237"/>
<polygon fill="midnightblue" stroke="midnightblue" points="577.489,-232.041 567.518,-235.624 577.547,-239.041 577.489,-232.041"/>
</g>
<!-- Node7&#45;&gt;Node1 -->
<g id="edge12" class="edge"><title>Node7&#45;&gt;Node1</title>
<path fill="none" stroke="#9a32cd" stroke-dasharray="5,2" d="M1217.73,-271.098C1193.77,-266.647 1166.62,-261.364 1142,-256 1130.49,-253.493 1118.2,-250.597 1106.54,-247.747"/>
<polygon fill="#9a32cd" stroke="#9a32cd" points="1217.32,-274.581 1227.79,-272.952 1218.59,-267.697 1217.32,-274.581"/>
<text text-anchor="middle" x="1168" y="-269" font-family="FreeSans" font-size="10.00"> SM</text>
</g>
<!-- Node14 -->
<g id="node29" class="node"><title>Node14</title>
<a xlink:href="classMezzanine_1_1TrackingNodeUpdateWorkUnit.xhtml" target="_top" xlink:title="This is a Mezzanine::Threading::iWorkUnit for the updating of tracking world nodes in the world...">
<polygon fill="white" stroke="black" points="1510,-206 1510,-238 1668,-238 1668,-206 1510,-206"/>
<text text-anchor="start" x="1518" y="-225" font-family="FreeSans" font-size="10.00">Mezzanine::TrackingNodeUpdate</text>
<text text-anchor="middle" x="1589" y="-213" font-family="FreeSans" font-size="10.00">WorkUnit</text>
</a>
</g>
<!-- Node7&#45;&gt;Node14 -->
<g id="edge36" class="edge"><title>Node7&#45;&gt;Node14</title>
<path fill="none" stroke="#9a32cd" stroke-dasharray="5,2" d="M1302.24,-265.873C1319.32,-250.222 1347.04,-228.164 1376,-219 1418.84,-205.444 1469,-205.431 1509.87,-209.16"/>
<polygon fill="#9a32cd" stroke="#9a32cd" points="1299.62,-263.541 1294.76,-272.957 1304.43,-268.626 1299.62,-263.541"/>
<text text-anchor="middle" x="1434" y="-222" font-family="FreeSans" font-size="10.00"> TargetManager</text>
</g>
<!-- Node7&#45;&gt;Node17 -->
<g id="edge70" class="edge"><title>Node7&#45;&gt;Node17</title>
<path fill="none" stroke="#9a32cd" stroke-dasharray="5,2" d="M1310.23,-298.908C1325.6,-309.603 1344.77,-324.849 1358,-342 1369.91,-357.437 1361.86,-368.584 1376,-382 1416.12,-420.057 1440.48,-406.915 1492,-427 1516.27,-436.46 1543.92,-447.301 1563.48,-454.976"/>
<polygon fill="#9a32cd" stroke="#9a32cd" points="1311.93,-295.838 1301.68,-293.156 1308.02,-301.645 1311.93,-295.838"/>
<text text-anchor="middle" x="1434" y="-430" font-family="FreeSans" font-size="10.00"> Manager</text>
</g>
<!-- Node27 -->
<g id="node68" class="node"><title>Node27</title>
<a xlink:href="classMezzanine_1_1Light.xhtml" target="_top" xlink:title="This class is the class used for dynamic lighting within the scene.">
<polygon fill="white" stroke="black" points="1545,-305 1545,-325 1633,-325 1633,-305 1545,-305"/>
<text text-anchor="middle" x="1589" y="-312" font-family="FreeSans" font-size="10.00">Mezzanine::Light</text>
</a>
</g>
<!-- Node7&#45;&gt;Node27 -->
<g id="edge88" class="edge"><title>Node7&#45;&gt;Node27</title>
<path fill="none" stroke="#9a32cd" stroke-dasharray="5,2" d="M1361.31,-292.349C1366.28,-292.919 1371.21,-293.474 1376,-294 1434.36,-300.403 1501.82,-306.902 1544.91,-310.939"/>
<polygon fill="#9a32cd" stroke="#9a32cd" points="1361.42,-288.838 1351.08,-291.161 1360.61,-295.792 1361.42,-288.838"/>
<text text-anchor="middle" x="1434" y="-308" font-family="FreeSans" font-size="10.00"> Manager</text>
</g>
<!-- Node30 -->
<g id="node77" class="node"><title>Node30</title>
<a xlink:href="structMezzanine_1_1Internal_1_1EntityInternalData.xhtml" target="_top" xlink:title="This class stores the internal data of an Entity.">
<polygon fill="white" stroke="black" points="1539.5,-156 1539.5,-188 1638.5,-188 1638.5,-156 1539.5,-156"/>
<text text-anchor="start" x="1547.5" y="-175" font-family="FreeSans" font-size="10.00">Mezzanine::Internal</text>
<text text-anchor="middle" x="1589" y="-163" font-family="FreeSans" font-size="10.00">::EntityInternalData</text>
</a>
</g>
<!-- Node7&#45;&gt;Node30 -->
<g id="edge98" class="edge"><title>Node7&#45;&gt;Node30</title>
<path fill="none" stroke="#9a32cd" stroke-dasharray="5,2" d="M1301.82,-265.384C1326.82,-239.292 1371.35,-193.189 1376,-191 1427.73,-166.652 1494.3,-164.722 1539.14,-167.049"/>
<polygon fill="#9a32cd" stroke="#9a32cd" points="1299.14,-263.124 1294.75,-272.769 1304.2,-267.963 1299.14,-263.124"/>
<text text-anchor="middle" x="1434" y="-194" font-family="FreeSans" font-size="10.00"> Manager</text>
</g>
<!-- Node8 -->
<g id="node14" class="node"><title>Node8</title>
<a xlink:href="classMezzanine_1_1WorldManager.xhtml" target="_top" xlink:title="This is the base class for all managers that belong to a single world instance.">
<polygon fill="white" stroke="black" points="988.5,-70 988.5,-90 1117.5,-90 1117.5,-70 988.5,-70"/>
<text text-anchor="middle" x="1053" y="-77" font-family="FreeSans" font-size="10.00">Mezzanine::WorldManager</text>
</a>
</g>
<!-- Node8&#45;&gt;Node7 -->
<g id="edge14" class="edge"><title>Node8&#45;&gt;Node7</title>
<path fill="none" stroke="midnightblue" d="M1072.05,-96.6714C1118.42,-137.242 1236.06,-240.182 1273.43,-272.872"/>
<polygon fill="midnightblue" stroke="midnightblue" points="1074.34,-94.0179 1064.5,-90.0668 1069.73,-99.2859 1074.34,-94.0179"/>
</g>
<!-- Node13 -->
<g id="node25" class="node"><title>Node13</title>
<polygon fill="white" stroke="#bfbfbf" points="1212.5,-90 1212.5,-110 1357.5,-110 1357.5,-90 1212.5,-90"/>
<text text-anchor="middle" x="1285" y="-97" font-family="FreeSans" font-size="10.00">std::vector&lt; WorldManager * &gt;</text>
</g>
<!-- Node8&#45;&gt;Node13 -->
<g id="edge28" class="edge"><title>Node8&#45;&gt;Node13</title>
<path fill="none" stroke="#9a32cd" stroke-dasharray="5,2" d="M1127.8,-86.4484C1154.83,-88.7783 1185.29,-91.4039 1212.14,-93.7193"/>
<polygon fill="#9a32cd" stroke="#9a32cd" points="1127.89,-82.943 1117.62,-85.5711 1127.29,-89.9172 1127.89,-82.943"/>
<text text-anchor="middle" x="1168" y="-94" font-family="FreeSans" font-size="10.00"> elements</text>
</g>
<!-- Node9 -->
<g id="node16" class="node"><title>Node9</title>
<a xlink:href="classMezzanine_1_1ManagerBase.xhtml" target="_top" xlink:title="This is the base class from which all the Entresol and World Managers inherit.">
<polygon fill="white" stroke="black" points="701,-0 701,-20 827,-20 827,-0 701,-0"/>
<text text-anchor="middle" x="764" y="-7" font-family="FreeSans" font-size="10.00">Mezzanine::ManagerBase</text>
</a>
</g>
<!-- Node9&#45;&gt;Node8 -->
<g id="edge16" class="edge"><title>Node9&#45;&gt;Node8</title>
<path fill="none" stroke="midnightblue" d="M815.126,-22.3835C871.135,-35.9497 959.88,-57.4449 1011.67,-69.9893"/>
<polygon fill="midnightblue" stroke="midnightblue" points="815.95,-18.9818 805.407,-20.0293 814.302,-25.7851 815.95,-18.9818"/>
</g>
<!-- Node10 -->
<g id="node18" class="node"><title>Node10</title>
<a xlink:href="classMezzanine_1_1Entresol.xhtml" target="_top" xlink:title="This is the main entry point for the entire library.">
<polygon fill="white" stroke="black" points="471.5,-25 471.5,-45 572.5,-45 572.5,-25 471.5,-25"/>
<text text-anchor="middle" x="522" y="-32" font-family="FreeSans" font-size="10.00">Mezzanine::Entresol</text>
</a>
</g>
<!-- Node10&#45;&gt;Node9 -->
<g id="edge18" class="edge"><title>Node10&#45;&gt;Node9</title>
<path fill="none" stroke="#9a32cd" stroke-dasharray="5,2" d="M583.092,-28.6888C619.072,-24.9719 664.504,-20.2785 700.838,-16.525"/>
<polygon fill="#9a32cd" stroke="#9a32cd" points="582.319,-25.25 572.731,-29.7592 583.038,-32.213 582.319,-25.25"/>
<text text-anchor="middle" x="639" y="-29" font-family="FreeSans" font-size="10.00"> TheEntresol</text>
</g>
<!-- Node11 -->
<g id="node20" class="node"><title>Node11</title>
<a xlink:href="classMezzanine_1_1Singleton.xhtml" target="_top" xlink:title="Mezzanine::Singleton\l\&lt; Entresol \&gt;">
<polygon fill="white" stroke="black" points="710.5,-41 710.5,-73 817.5,-73 817.5,-41 710.5,-41"/>
<text text-anchor="start" x="718.5" y="-60" font-family="FreeSans" font-size="10.00">Mezzanine::Singleton</text>
<text text-anchor="middle" x="764" y="-48" font-family="FreeSans" font-size="10.00">&lt; Entresol &gt;</text>
</a>
</g>
<!-- Node10&#45;&gt;Node11 -->
<g id="edge22" class="edge"><title>Node10&#45;&gt;Node11</title>
<path fill="none" stroke="#9a32cd" stroke-dasharray="5,2" d="M583.012,-43.2387C591.399,-44.2441 599.907,-45.1977 608,-46 641.908,-49.3612 680.061,-52.0705 710.149,-53.9593"/>
<polygon fill="#9a32cd" stroke="#9a32cd" points="583.23,-39.7393 572.878,-41.9935 582.376,-46.687 583.23,-39.7393"/>
<text text-anchor="middle" x="639" y="-54" font-family="FreeSans" font-size="10.00"> SingletonPtr</text>
</g>
<!-- Node11&#45;&gt;Node10 -->
<g id="edge20" class="edge"><title>Node11&#45;&gt;Node10</title>
<path fill="none" stroke="midnightblue" d="M700.258,-51.2052C660.425,-47.5841 609.833,-42.9849 572.731,-39.6119"/>
<polygon fill="midnightblue" stroke="midnightblue" points="700.123,-54.7074 710.399,-52.1272 700.757,-47.7361 700.123,-54.7074"/>
</g>
<!-- Node12 -->
<g id="node23" class="node"><title>Node12</title>
<a xlink:href="classMezzanine_1_1World.xhtml" target="_top" xlink:title="This class represents a world for objects to interact within.">
<polygon fill="white" stroke="black" points="1543,-65 1543,-85 1635,-85 1635,-65 1543,-65"/>
<text text-anchor="middle" x="1589" y="-72" font-family="FreeSans" font-size="10.00">Mezzanine::World</text>
</a>
</g>
<!-- Node12&#45;&gt;Node8 -->
<g id="edge24" class="edge"><title>Node12&#45;&gt;Node8</title>
<path fill="none" stroke="#9a32cd" stroke-dasharray="5,2" d="M1532.86,-72.3404C1459.18,-69.2554 1325.87,-65.0657 1212,-69 1180.89,-70.0749 1146.42,-72.3293 1117.54,-74.5191"/>
<polygon fill="#9a32cd" stroke="#9a32cd" points="1532.71,-75.8371 1542.85,-72.7674 1533.01,-68.8435 1532.71,-75.8371"/>
<text text-anchor="middle" x="1285" y="-72" font-family="FreeSans" font-size="10.00"> ParentWorld</text>
</g>
<!-- Node13&#45;&gt;Node12 -->
<g id="edge26" class="edge"><title>Node13&#45;&gt;Node12</title>
<path fill="none" stroke="#9a32cd" stroke-dasharray="5,2" d="M1368.12,-93.1647C1424.34,-88.5412 1496.5,-82.6066 1542.76,-78.8026"/>
<polygon fill="#9a32cd" stroke="#9a32cd" points="1367.5,-89.704 1357.82,-94.0119 1368.07,-96.6804 1367.5,-89.704"/>
<text text-anchor="middle" x="1434" y="-94" font-family="FreeSans" font-size="10.00"> WorldManagers</text>
</g>
<!-- Node14&#45;&gt;Node7 -->
<g id="edge32" class="edge"><title>Node14&#45;&gt;Node7</title>
<path fill="none" stroke="#9a32cd" stroke-dasharray="5,2" d="M1499.83,-234.304C1461.52,-240.196 1416.36,-247.949 1376,-257 1356.12,-261.458 1334.15,-267.697 1316.78,-272.946"/>
<polygon fill="#9a32cd" stroke="#9a32cd" points="1500.57,-237.733 1509.93,-232.77 1499.52,-230.812 1500.57,-237.733"/>
<text text-anchor="middle" x="1434" y="-260" font-family="FreeSans" font-size="10.00"> TrackingNodeUpdateWork</text>
</g>
<!-- Node15 -->
<g id="node31" class="node"><title>Node15</title>
<polygon fill="white" stroke="#bfbfbf" points="1241.5,-178 1241.5,-198 1328.5,-198 1328.5,-178 1241.5,-178"/>
<text text-anchor="middle" x="1285" y="-185" font-family="FreeSans" font-size="10.00">DefaultWorkUnit</text>
</g>
<!-- Node15&#45;&gt;Node14 -->
<g id="edge34" class="edge"><title>Node15&#45;&gt;Node14</title>
<path fill="none" stroke="midnightblue" d="M1339.04,-189.646C1380.93,-191.406 1440.34,-194.961 1492,-202 1500.01,-203.091 1508.34,-204.456 1516.62,-205.957"/>
<polygon fill="midnightblue" stroke="midnightblue" points="1338.92,-186.138 1328.79,-189.236 1338.64,-193.133 1338.92,-186.138"/>
</g>
<!-- Node16 -->
<g id="node34" class="node"><title>Node16</title>
<polygon fill="white" stroke="#bfbfbf" points="1760.5,-424 1760.5,-456 1861.5,-456 1861.5,-424 1760.5,-424"/>
<text text-anchor="start" x="1768.5" y="-443" font-family="FreeSans" font-size="10.00">std::set&lt; Mezzanine</text>
<text text-anchor="middle" x="1811" y="-431" font-family="FreeSans" font-size="10.00">::WorldNode * &gt;</text>
</g>
<!-- Node16&#45;&gt;Node7 -->
<g id="edge38" class="edge"><title>Node16&#45;&gt;Node7</title>
<path fill="none" stroke="#9a32cd" stroke-dasharray="5,2" d="M1750.33,-430.505C1647.08,-413.774 1442,-377.886 1376,-347 1344.86,-332.428 1313.03,-307.179 1296.52,-293.145"/>
<polygon fill="#9a32cd" stroke="#9a32cd" points="1749.86,-433.975 1760.29,-432.112 1750.98,-427.064 1749.86,-433.975"/>
<text text-anchor="middle" x="1589" y="-419" font-family="FreeSans" font-size="10.00"> TrackingNodes</text>
</g>
<!-- Node17&#45;&gt;Node16 -->
<g id="edge40" class="edge"><title>Node17&#45;&gt;Node16</title>
<path fill="none" stroke="#9a32cd" stroke-dasharray="5,2" d="M1656.34,-457.416C1689.83,-453.645 1729.62,-449.165 1760.45,-445.692"/>
<polygon fill="#9a32cd" stroke="#9a32cd" points="1655.72,-453.965 1646.17,-458.562 1656.5,-460.921 1655.72,-453.965"/>
<text text-anchor="middle" x="1707" y="-456" font-family="FreeSans" font-size="10.00"> keys</text>
</g>
<!-- Node25 -->
<g id="node63" class="node"><title>Node25</title>
<polygon fill="white" stroke="#bfbfbf" points="1746,-367 1746,-387 1876,-387 1876,-367 1746,-367"/>
<text text-anchor="middle" x="1811" y="-374" font-family="FreeSans" font-size="10.00">std::vector&lt; WorldNode * &gt;</text>
</g>
<!-- Node17&#45;&gt;Node25 -->
<g id="edge80" class="edge"><title>Node17&#45;&gt;Node25</title>
<path fill="none" stroke="#9a32cd" stroke-dasharray="5,2" d="M1623.8,-451.206C1668.68,-433.417 1745.67,-402.895 1785.49,-387.112"/>
<polygon fill="#9a32cd" stroke="#9a32cd" points="1622.47,-447.967 1614.47,-454.905 1625.05,-454.474 1622.47,-447.967"/>
<text text-anchor="middle" x="1707" y="-429" font-family="FreeSans" font-size="10.00"> elements</text>
</g>
<!-- Node18 -->
<g id="node38" class="node"><title>Node18</title>
<a xlink:href="classMezzanine_1_1AttachableParent.xhtml" target="_top" xlink:title="Base class for objects that can have attachables attached to them.">
<polygon fill="white" stroke="black" points="982,-500 982,-520 1124,-520 1124,-500 982,-500"/>
<text text-anchor="middle" x="1053" y="-507" font-family="FreeSans" font-size="10.00">Mezzanine::AttachableParent</text>
</a>
</g>
<!-- Node18&#45;&gt;Node17 -->
<g id="edge42" class="edge"><title>Node18&#45;&gt;Node17</title>
<path fill="none" stroke="midnightblue" d="M1134.45,-512.238C1223,-513.377 1368.42,-511.465 1492,-492 1515.14,-488.355 1540.63,-481.129 1559.67,-475.068"/>
<polygon fill="midnightblue" stroke="midnightblue" points="1134.25,-508.735 1124.2,-512.089 1134.15,-515.734 1134.25,-508.735"/>
</g>
<!-- Node21 -->
<g id="node44" class="node"><title>Node21</title>
<a xlink:href="classMezzanine_1_1AttachableChild.xhtml" target="_top" xlink:title="This class is the base class for objects that can be attached to AttachableParent.">
<polygon fill="white" stroke="black" points="454.5,-414 454.5,-434 589.5,-434 589.5,-414 454.5,-414"/>
<text text-anchor="middle" x="522" y="-421" font-family="FreeSans" font-size="10.00">Mezzanine::AttachableChild</text>
</a>
</g>
<!-- Node18&#45;&gt;Node21 -->
<g id="edge58" class="edge"><title>Node18&#45;&gt;Node21</title>
<path fill="none" stroke="#9a32cd" stroke-dasharray="5,2" d="M971.615,-503.869C881.756,-496.023 733.224,-479.865 608,-451 588.481,-446.501 566.981,-439.751 550.361,-434.126"/>
<polygon fill="#9a32cd" stroke="#9a32cd" points="971.476,-507.369 981.739,-504.739 972.075,-500.395 971.476,-507.369"/>
<text text-anchor="middle" x="764" y="-492" font-family="FreeSans" font-size="10.00"> Parent</text>
</g>
<!-- Node19 -->
<g id="node40" class="node"><title>Node19</title>
<a xlink:href="classMezzanine_1_1AttachableBase.xhtml" target="_top" xlink:title="This class is the base class for other attachable classes and is responsible for transform updates to...">
<polygon fill="white" stroke="black" points="190.5,-520 190.5,-540 325.5,-540 325.5,-520 190.5,-520"/>
<text text-anchor="middle" x="258" y="-527" font-family="FreeSans" font-size="10.00">Mezzanine::AttachableBase</text>
</a>
</g>
<!-- Node19&#45;&gt;Node17 -->
<g id="edge64" class="edge"><title>Node19&#45;&gt;Node17</title>
<path fill="none" stroke="#9a32cd" stroke-dasharray="5,2" d="M287.474,-544.377C335.432,-566.409 433.874,-606 522,-606 522,-606 522,-606 1285,-606 1380.42,-606 1407.86,-594.01 1492,-549 1529.13,-529.14 1564.3,-492.82 1580.17,-475.168"/>
<polygon fill="#9a32cd" stroke="#9a32cd" points="288.842,-541.153 278.3,-540.092 285.88,-547.495 288.842,-541.153"/>
<text text-anchor="middle" x="911" y="-609" font-family="FreeSans" font-size="10.00"> AutoTrackTarget</text>
</g>
<!-- Node19&#45;&gt;Node18 -->
<g id="edge44" class="edge"><title>Node19&#45;&gt;Node18</title>
<path fill="none" stroke="midnightblue" d="M336.133,-528.034C490.703,-524.146 833.387,-515.525 981.979,-511.787"/>
<polygon fill="midnightblue" stroke="midnightblue" points="335.69,-524.544 325.781,-528.295 335.866,-531.542 335.69,-524.544"/>
</g>
<!-- Node19&#45;&gt;Node21 -->
<g id="edge50" class="edge"><title>Node19&#45;&gt;Node21</title>
<path fill="none" stroke="midnightblue" d="M292.798,-516.028C346.755,-494.363 449.318,-453.183 496.763,-434.133"/>
<polygon fill="midnightblue" stroke="midnightblue" points="291.289,-512.862 283.313,-519.836 293.897,-519.358 291.289,-512.862"/>
</g>
<!-- Node20 -->
<g id="node42" class="node"><title>Node20</title>
<polygon fill="white" stroke="#bfbfbf" points="688.5,-434 688.5,-454 839.5,-454 839.5,-434 688.5,-434"/>
<text text-anchor="middle" x="764" y="-441" font-family="FreeSans" font-size="10.00">std::vector&lt; AttachableChild * &gt;</text>
</g>
<!-- Node20&#45;&gt;Node18 -->
<g id="edge46" class="edge"><title>Node20&#45;&gt;Node18</title>
<path fill="none" stroke="#9a32cd" stroke-dasharray="5,2" d="M850.264,-445.527C886.044,-447.975 927.613,-453.207 964,-464 991.681,-472.211 1020.88,-489.115 1038,-499.986"/>
<polygon fill="#9a32cd" stroke="#9a32cd" points="850.046,-442.006 839.848,-444.88 849.612,-448.993 850.046,-442.006"/>
<text text-anchor="middle" x="911" y="-467" font-family="FreeSans" font-size="10.00"> Attached</text>
</g>
<!-- Node21&#45;&gt;Node17 -->
<g id="edge60" class="edge"><title>Node21&#45;&gt;Node17</title>
<path fill="none" stroke="midnightblue" d="M537.751,-441.779C573.712,-480.295 666.324,-568 764,-568 764,-568 764,-568 1285,-568 1400.07,-568 1527.3,-500.981 1572.2,-475.064"/>
<polygon fill="midnightblue" stroke="midnightblue" points="540.29,-439.369 530.956,-434.356 535.127,-444.096 540.29,-439.369"/>
</g>
<!-- Node21&#45;&gt;Node20 -->
<g id="edge48" class="edge"><title>Node21&#45;&gt;Node20</title>
<path fill="none" stroke="#9a32cd" stroke-dasharray="5,2" d="M599.971,-430.444C628.24,-432.78 660.113,-435.414 688.193,-437.735"/>
<polygon fill="#9a32cd" stroke="#9a32cd" points="599.987,-426.933 589.732,-429.598 599.41,-433.91 599.987,-426.933"/>
<text text-anchor="middle" x="639" y="-438" font-family="FreeSans" font-size="10.00"> elements</text>
</g>
<!-- Node24 -->
<g id="node60" class="node"><title>Node24</title>
<a xlink:href="classMezzanine_1_1ParticleEffect.xhtml" target="_top" xlink:title="This class is responsible for creating visual particle effects, such as rain, smoke, sparks, and explosions.">
<polygon fill="white" stroke="black" points="702,-358 702,-378 826,-378 826,-358 702,-358"/>
<text text-anchor="middle" x="764" y="-365" font-family="FreeSans" font-size="10.00">Mezzanine::ParticleEffect</text>
</a>
</g>
<!-- Node21&#45;&gt;Node24 -->
<g id="edge76" class="edge"><title>Node21&#45;&gt;Node24</title>
<path fill="none" stroke="midnightblue" d="M554.67,-410.054C570.526,-403.75 589.997,-396.682 608,-392 638.498,-384.068 673.076,-378.42 701.913,-374.603"/>
<polygon fill="midnightblue" stroke="midnightblue" points="553.261,-406.848 545.311,-413.852 555.893,-413.335 553.261,-406.848"/>
</g>
<!-- Node21&#45;&gt;Node27 -->
<g id="edge86" class="edge"><title>Node21&#45;&gt;Node27</title>
<path fill="none" stroke="midnightblue" d="M600.09,-418.555C725.486,-409.546 979.441,-390.21 1194,-367 1321.73,-353.182 1472.06,-332.04 1544.95,-321.477"/>
<polygon fill="midnightblue" stroke="midnightblue" points="599.547,-415.085 589.823,-419.29 600.047,-422.067 599.547,-415.085"/>
</g>
<!-- Node29 -->
<g id="node74" class="node"><title>Node29</title>
<a xlink:href="classMezzanine_1_1Entity.xhtml" target="_top" xlink:title="This class is useful for representing graphical bodies without a physics representation.">
<polygon fill="white" stroke="black" points="1765.5,-162 1765.5,-182 1856.5,-182 1856.5,-162 1765.5,-162"/>
<text text-anchor="middle" x="1811" y="-169" font-family="FreeSans" font-size="10.00">Mezzanine::Entity</text>
</a>
</g>
<!-- Node21&#45;&gt;Node29 -->
<g id="edge94" class="edge"><title>Node21&#45;&gt;Node29</title>
<path fill="none" stroke="midnightblue" d="M530.892,-404.592C551.574,-361.938 607.358,-260.239 688,-215 756.841,-176.381 752.599,-174.264 1510,-147 1580.18,-144.474 1598.04,-140.931 1668,-147 1700.89,-149.854 1737.57,-156.333 1765.54,-161.98"/>
<polygon fill="midnightblue" stroke="midnightblue" points="527.614,-403.338 526.498,-413.874 533.941,-406.333 527.614,-403.338"/>
</g>
<!-- Node22&#45;&gt;Node21 -->
<g id="edge52" class="edge"><title>Node22&#45;&gt;Node21</title>
<path fill="none" stroke="#9a32cd" stroke-dasharray="5,2" d="M323.176,-413.456C363.079,-415.572 414.047,-418.275 454.388,-420.415"/>
<polygon fill="#9a32cd" stroke="#9a32cd" points="323.193,-409.952 313.022,-412.918 322.822,-416.943 323.193,-409.952"/>
<text text-anchor="middle" x="390" y="-422" font-family="FreeSans" font-size="10.00"> LocalXform</text>
</g>
<!-- Node23 -->
<g id="node58" class="node"><title>Node23</title>
<polygon fill="white" stroke="#bfbfbf" points="983,-320 983,-340 1123,-340 1123,-320 983,-320"/>
<text text-anchor="middle" x="1053" y="-327" font-family="FreeSans" font-size="10.00">std::vector&lt; ParticleEffect * &gt;</text>
</g>
<!-- Node23&#45;&gt;Node7 -->
<g id="edge72" class="edge"><title>Node23&#45;&gt;Node7</title>
<path fill="none" stroke="#9a32cd" stroke-dasharray="5,2" d="M1112.44,-317.958C1150.6,-310.228 1199.57,-300.307 1235.59,-293.01"/>
<polygon fill="#9a32cd" stroke="#9a32cd" points="1111.59,-314.559 1102.49,-319.975 1112.98,-321.42 1111.59,-314.559"/>
<text text-anchor="middle" x="1168" y="-313" font-family="FreeSans" font-size="10.00"> Particles</text>
</g>
<!-- Node24&#45;&gt;Node23 -->
<g id="edge74" class="edge"><title>Node24&#45;&gt;Node23</title>
<path fill="none" stroke="#9a32cd" stroke-dasharray="5,2" d="M836.302,-358.493C881.145,-352.597 938.471,-345.059 982.897,-339.218"/>
<polygon fill="#9a32cd" stroke="#9a32cd" points="835.811,-355.027 826.353,-359.801 836.724,-361.968 835.811,-355.027"/>
<text text-anchor="middle" x="911" y="-357" font-family="FreeSans" font-size="10.00"> elements</text>
</g>
<!-- Node25&#45;&gt;Node7 -->
<g id="edge78" class="edge"><title>Node25&#45;&gt;Node7</title>
<path fill="none" stroke="#9a32cd" stroke-dasharray="5,2" d="M1735.71,-373.42C1648.03,-367.856 1499.46,-354.08 1376,-321 1350.53,-314.176 1322.77,-301.811 1304.7,-293.041"/>
<polygon fill="#9a32cd" stroke="#9a32cd" points="1735.63,-376.922 1745.83,-374.043 1736.06,-369.935 1735.63,-376.922"/>
<text text-anchor="middle" x="1589" y="-370" font-family="FreeSans" font-size="10.00"> WorldNodes</text>
</g>
<!-- Node26 -->
<g id="node66" class="node"><title>Node26</title>
<polygon fill="white" stroke="#bfbfbf" points="1759,-285 1759,-305 1863,-305 1863,-285 1759,-285"/>
<text text-anchor="middle" x="1811" y="-292" font-family="FreeSans" font-size="10.00">std::vector&lt; Light * &gt;</text>
</g>
<!-- Node26&#45;&gt;Node7 -->
<g id="edge82" class="edge"><title>Node26&#45;&gt;Node7</title>
<path fill="none" stroke="#9a32cd" stroke-dasharray="5,2" d="M1748.66,-289.195C1723.61,-287.127 1694.46,-285.051 1668,-284 1556.88,-279.587 1427.48,-280.513 1351.11,-281.686"/>
<polygon fill="#9a32cd" stroke="#9a32cd" points="1748.5,-292.694 1758.76,-290.047 1749.09,-285.719 1748.5,-292.694"/>
<text text-anchor="middle" x="1589" y="-287" font-family="FreeSans" font-size="10.00"> Lights</text>
</g>
<!-- Node27&#45;&gt;Node26 -->
<g id="edge84" class="edge"><title>Node27&#45;&gt;Node26</title>
<path fill="none" stroke="#9a32cd" stroke-dasharray="5,2" d="M1643.22,-310.115C1678.4,-306.946 1723.99,-302.839 1758.76,-299.706"/>
<polygon fill="#9a32cd" stroke="#9a32cd" points="1642.77,-306.641 1633.13,-311.025 1643.4,-313.613 1642.77,-306.641"/>
<text text-anchor="middle" x="1707" y="-309" font-family="FreeSans" font-size="10.00"> elements</text>
</g>
<!-- Node28 -->
<g id="node72" class="node"><title>Node28</title>
<polygon fill="white" stroke="#bfbfbf" points="1954.5,-403 1954.5,-423 2061.5,-423 2061.5,-403 1954.5,-403"/>
<text text-anchor="middle" x="2008" y="-410" font-family="FreeSans" font-size="10.00">std::vector&lt; Entity * &gt;</text>
</g>
<!-- Node28&#45;&gt;Node7 -->
<g id="edge90" class="edge"><title>Node28&#45;&gt;Node7</title>
<path fill="none" stroke="#9a32cd" stroke-dasharray="5,2" d="M1978.19,-427.579C1951.94,-439.72 1912.34,-456.37 1876,-465 1717.52,-502.639 1671.09,-508.094 1510,-484 1448.4,-474.788 1424.61,-481.934 1376,-443 1324.12,-401.448 1296.47,-321.793 1287.93,-293.383"/>
<polygon fill="#9a32cd" stroke="#9a32cd" points="1980,-430.595 1987.56,-423.172 1977.02,-424.26 1980,-430.595"/>
<text text-anchor="middle" x="1707" y="-501" font-family="FreeSans" font-size="10.00"> Entities</text>
</g>
<!-- Node29&#45;&gt;Node28 -->
<g id="edge92" class="edge"><title>Node29&#45;&gt;Node28</title>
<path fill="none" stroke="#9a32cd" stroke-dasharray="5,2" d="M1825.68,-189.96C1864.61,-237.578 1969.53,-365.937 1999.75,-402.908"/>
<polygon fill="#9a32cd" stroke="#9a32cd" points="1828.25,-187.576 1819.21,-182.049 1822.83,-192.006 1828.25,-187.576"/>
<text text-anchor="middle" x="1915" y="-324" font-family="FreeSans" font-size="10.00"> elements</text>
</g>
<!-- Node30&#45;&gt;Node29 -->
<g id="edge96" class="edge"><title>Node30&#45;&gt;Node29</title>
<path fill="none" stroke="#9a32cd" stroke-dasharray="5,2" d="M1648.62,-172C1685.32,-172 1731.62,-172 1765.39,-172"/>
<polygon fill="#9a32cd" stroke="#9a32cd" points="1648.54,-168.5 1638.54,-172 1648.54,-175.5 1648.54,-168.5"/>
<text text-anchor="middle" x="1707" y="-175" font-family="FreeSans" font-size="10.00"> EID</text>
</g>
</g>
</svg>
