<?xml version="1.0" encoding="UTF-8" standalone="no"?>
<!DOCTYPE svg PUBLIC "-//W3C//DTD SVG 1.1//EN"
 "http://www.w3.org/Graphics/SVG/1.1/DTD/svg11.dtd">
<!-- Generated by graphviz version 2.38.0 (20140413.2041)
 -->
<!-- Title: Mezzanine::InternalException Pages: 1 -->
<svg width="276pt" height="140pt"
 viewBox="0.00 0.00 275.50 140.00" xmlns="http://www.w3.org/2000/svg" xmlns:xlink="http://www.w3.org/1999/xlink">
<g id="graph0" class="graph" transform="scale(1 1) rotate(0) translate(4 136)">
<title>Mezzanine::InternalException</title>
<polygon fill="white" stroke="none" points="-4,4 -4,-136 271.5,-136 271.5,4 -4,4"/>
<!-- Node1 -->
<g id="node1" class="node"><title>Node1</title>
<polygon fill="#bfbfbf" stroke="black" points="54.5,-0.5 54.5,-19.5 200.5,-19.5 200.5,-0.5 54.5,-0.5"/>
<text text-anchor="middle" x="127.5" y="-7.5" font-family="Helvetica,sans-Serif" font-size="10.00">Mezzanine::InternalException</text>
</g>
<!-- Node2 -->
<g id="node2" class="node"><title>Node2</title>
<g id="a_node2"><a xlink:href="classMezzanine_1_1Exception.html" target="_top" xlink:title="This is the exception thrown by most Mezzanine system that can throw exceptions. ">
<polygon fill="white" stroke="black" points="0,-56.5 0,-75.5 113,-75.5 113,-56.5 0,-56.5"/>
<text text-anchor="middle" x="56.5" y="-63.5" font-family="Helvetica,sans-Serif" font-size="10.00">Mezzanine::Exception</text>
</a>
</g>
</g>
<!-- Node2&#45;&gt;Node1 -->
<g id="edge1" class="edge"><title>Node2&#45;&gt;Node1</title>
<path fill="none" stroke="midnightblue" d="M76.0897,-50.1008C88.8676,-40.3824 105.113,-28.0269 115.885,-19.8339"/>
<polygon fill="midnightblue" stroke="midnightblue" points="73.7481,-47.4844 67.9074,-56.324 77.9857,-53.0561 73.7481,-47.4844"/>
</g>
<!-- Node3 -->
<g id="node3" class="node"><title>Node3</title>
<g id="a_node3"><a xlink:title="STL class. ">
<polygon fill="white" stroke="#bfbfbf" points="88.5,-112.5 88.5,-131.5 166.5,-131.5 166.5,-112.5 88.5,-112.5"/>
<text text-anchor="middle" x="127.5" y="-119.5" font-family="Helvetica,sans-Serif" font-size="10.00">std::exception</text>
</a>
</g>
</g>
<!-- Node3&#45;&gt;Node2 -->
<g id="edge2" class="edge"><title>Node3&#45;&gt;Node2</title>
<path fill="none" stroke="midnightblue" d="M107.91,-106.101C95.1324,-96.3824 78.8873,-84.0269 68.1149,-75.8339"/>
<polygon fill="midnightblue" stroke="midnightblue" points="106.014,-109.056 116.093,-112.324 110.252,-103.484 106.014,-109.056"/>
</g>
<!-- Node4 -->
<g id="node4" class="node"><title>Node4</title>
<g id="a_node4"><a xlink:href="classMezzanine_1_1ExceptionBase.html" target="_top" xlink:title="This is the exception thrown by most Mezzanine systems that can throw exceptions. ...">
<polygon fill="white" stroke="black" points="131.5,-56.5 131.5,-75.5 267.5,-75.5 267.5,-56.5 131.5,-56.5"/>
<text text-anchor="middle" x="199.5" y="-63.5" font-family="Helvetica,sans-Serif" font-size="10.00">Mezzanine::ExceptionBase</text>
</a>
</g>
</g>
<!-- Node3&#45;&gt;Node4 -->
<g id="edge4" class="edge"><title>Node3&#45;&gt;Node4</title>
<path fill="none" stroke="midnightblue" d="M147.366,-106.101C160.323,-96.3824 176.797,-84.0269 187.721,-75.8339"/>
<polygon fill="midnightblue" stroke="midnightblue" points="144.968,-103.524 139.068,-112.324 149.168,-109.124 144.968,-103.524"/>
</g>
<!-- Node4&#45;&gt;Node1 -->
<g id="edge3" class="edge"><title>Node4&#45;&gt;Node1</title>
<path fill="none" stroke="midnightblue" d="M179.634,-50.1008C166.677,-40.3824 150.203,-28.0269 139.279,-19.8339"/>
<polygon fill="midnightblue" stroke="midnightblue" points="177.832,-53.1239 187.932,-56.324 182.032,-47.5239 177.832,-53.1239"/>
</g>
</g>
</svg>
