<?xml version="1.0" encoding="UTF-8" standalone="no"?>
<!DOCTYPE svg PUBLIC "-//W3C//DTD SVG 1.1//EN"
 "http://www.w3.org/Graphics/SVG/1.1/DTD/svg11.dtd">
<!-- Generated by graphviz version 2.26.3 (20100126.1600)
 -->
<!-- Title: Mezzanine::TerrainBase Pages: 1 -->
<svg width="1100pt" height="470pt"
 viewBox="0.00 0.00 1100.00 470.00" xmlns="http://www.w3.org/2000/svg" xmlns:xlink="http://www.w3.org/1999/xlink">
<g id="graph1" class="graph" transform="scale(1 1) rotate(0) translate(4 466)">
<title>Mezzanine::TerrainBase</title>
<!-- Node1 -->
<g id="node1" class="node"><title>Node1</title>
<polygon fill="#bfbfbf" stroke="black" points="805.5,-149 805.5,-169 924.5,-169 924.5,-149 805.5,-149"/>
<text text-anchor="middle" x="865" y="-156" font-family="FreeSans" font-size="10.00">Mezzanine::TerrainBase</text>
</g>
<!-- Node2 -->
<g id="node2" class="node"><title>Node2</title>
<a xlink:href="classMezzanine_1_1WorldObject.xhtml" target="_top" xlink:title="This is the base class from which classes that are insertable into the physical world.">
<polygon fill="none" stroke="black" points="536,-261 536,-281 656,-281 656,-261 536,-261"/>
<text text-anchor="middle" x="596" y="-268" font-family="FreeSans" font-size="10.00">Mezzanine::WorldObject</text>
</a>
</g>
<!-- Node2&#45;&gt;Node1 -->
<g id="edge2" class="edge"><title>Node2&#45;&gt;Node1</title>
<path fill="none" stroke="midnightblue" d="M605.8,-252.178C618.36,-230.197 642.35,-194.72 674,-178 714.219,-156.753 765.851,-152.762 805.29,-153.666"/>
<polygon fill="midnightblue" stroke="midnightblue" points="602.731,-250.495 600.987,-260.945 608.867,-253.863 602.731,-250.495"/>
</g>
<!-- Node6 -->
<g id="node10" class="node"><title>Node6</title>
<a xlink:href="classMezzanine_1_1WorldObjectPhysicsSettings.xhtml" target="_top" xlink:title="This is a base helper class for configuring physics settings of a world object.">
<polygon fill="none" stroke="black" points="788.5,-354 788.5,-386 941.5,-386 941.5,-354 788.5,-354"/>
<text text-anchor="start" x="796.5" y="-373" font-family="FreeSans" font-size="10.00">Mezzanine::WorldObjectPhysics</text>
<text text-anchor="middle" x="865" y="-361" font-family="FreeSans" font-size="10.00">Settings</text>
</a>
</g>
<!-- Node2&#45;&gt;Node6 -->
<g id="edge12" class="edge"><title>Node2&#45;&gt;Node6</title>
<path fill="none" stroke="#9a32cd" stroke-dasharray="5,2" d="M608.694,-289.281C622.478,-307.531 646.275,-334.716 674,-348 693.943,-357.555 744.408,-363.113 788.458,-366.251"/>
<polygon fill="#9a32cd" stroke="#9a32cd" points="611.477,-287.159 602.758,-281.14 605.821,-291.283 611.477,-287.159"/>
<text text-anchor="middle" x="721" y="-367" font-family="FreeSans" font-size="10.00"> Parent</text>
</g>
<!-- Node11 -->
<g id="node22" class="node"><title>Node11</title>
<a xlink:href="classMezzanine_1_1Physics_1_1Collision.xhtml" target="_top" xlink:title="This is an event class used to track collsions in the physics world.">
<polygon fill="none" stroke="black" points="815,-285 815,-317 915,-317 915,-285 815,-285"/>
<text text-anchor="start" x="823" y="-304" font-family="FreeSans" font-size="10.00">Mezzanine::Physics</text>
<text text-anchor="middle" x="865" y="-292" font-family="FreeSans" font-size="10.00">::Collision</text>
</a>
</g>
<!-- Node2&#45;&gt;Node11 -->
<g id="edge28" class="edge"><title>Node2&#45;&gt;Node11</title>
<path fill="none" stroke="#9a32cd" stroke-dasharray="5,2" d="M666.448,-278.07C697.588,-281.274 734.633,-285.19 768,-289 783.173,-290.732 799.667,-292.73 814.677,-294.592"/>
<polygon fill="#9a32cd" stroke="#9a32cd" points="666.433,-274.551 656.128,-277.013 665.719,-281.514 666.433,-274.551"/>
<text text-anchor="middle" x="721" y="-304" font-family="FreeSans" font-size="10.00"> ObjectA</text>
<text text-anchor="middle" x="721" y="-292" font-family="FreeSans" font-size="10.00">ObjectB</text>
</g>
<!-- Node13 -->
<g id="node27" class="node"><title>Node13</title>
<a xlink:href="classMezzanine_1_1WorldObjectGraphicsSettings.xhtml" target="_top" xlink:title="This is a helper class for configuring graphics settings of a World Object.">
<polygon fill="none" stroke="black" points="786,-187 786,-219 944,-219 944,-187 786,-187"/>
<text text-anchor="start" x="794" y="-206" font-family="FreeSans" font-size="10.00">Mezzanine::WorldObjectGraphics</text>
<text text-anchor="middle" x="865" y="-194" font-family="FreeSans" font-size="10.00">Settings</text>
</a>
</g>
<!-- Node2&#45;&gt;Node13 -->
<g id="edge32" class="edge"><title>Node2&#45;&gt;Node13</title>
<path fill="none" stroke="#9a32cd" stroke-dasharray="5,2" d="M619.414,-255.51C634.408,-246.336 654.622,-235.306 674,-229 709.801,-217.349 751.022,-210.918 785.985,-207.368"/>
<polygon fill="#9a32cd" stroke="#9a32cd" points="617.409,-252.637 610.808,-260.924 621.136,-258.562 617.409,-252.637"/>
<text text-anchor="middle" x="721" y="-232" font-family="FreeSans" font-size="10.00"> Parent</text>
</g>
<!-- Node3 -->
<g id="node4" class="node"><title>Node3</title>
<a xlink:href="classMezzanine_1_1Audio_1_1SoundSet.xhtml" target="_top" xlink:title="This is a vector that stores sounds.">
<polygon fill="none" stroke="black" points="296.5,-261 296.5,-281 435.5,-281 435.5,-261 296.5,-261"/>
<text text-anchor="middle" x="366" y="-268" font-family="FreeSans" font-size="10.00">Mezzanine::Audio::SoundSet</text>
</a>
</g>
<!-- Node3&#45;&gt;Node2 -->
<g id="edge4" class="edge"><title>Node3&#45;&gt;Node2</title>
<path fill="none" stroke="#9a32cd" stroke-dasharray="5,2" d="M445.927,-271C475.478,-271 508.446,-271 535.939,-271"/>
<polygon fill="#9a32cd" stroke="#9a32cd" points="445.632,-267.5 435.632,-271 445.632,-274.5 445.632,-267.5"/>
<text text-anchor="middle" x="486" y="-274" font-family="FreeSans" font-size="10.00"> ObjectSounds</text>
</g>
<!-- Node4 -->
<g id="node6" class="node"><title>Node4</title>
<a xlink:title="STL class.">
<polygon fill="none" stroke="#bfbfbf" points="108,-261 108,-281 218,-281 218,-261 108,-261"/>
<text text-anchor="middle" x="163" y="-268" font-family="FreeSans" font-size="10.00">std::vector&lt; Sound * &gt;</text>
</a>
</g>
<!-- Node4&#45;&gt;Node3 -->
<g id="edge6" class="edge"><title>Node4&#45;&gt;Node3</title>
<path fill="none" stroke="midnightblue" d="M228.303,-271C250.005,-271 274.247,-271 296.27,-271"/>
<polygon fill="midnightblue" stroke="midnightblue" points="228.203,-267.5 218.203,-271 228.202,-274.5 228.203,-267.5"/>
</g>
<!-- Node5 -->
<g id="node8" class="node"><title>Node5</title>
<polygon fill="none" stroke="#bfbfbf" points="0.5,-261 0.5,-281 29.5,-281 29.5,-261 0.5,-261"/>
<text text-anchor="middle" x="15" y="-268" font-family="FreeSans" font-size="10.00">T</text>
</g>
<!-- Node5&#45;&gt;Node4 -->
<g id="edge8" class="edge"><title>Node5&#45;&gt;Node4</title>
<path fill="none" stroke="#9a32cd" stroke-dasharray="5,2" d="M39.9456,-271C58.4506,-271 84.4027,-271 107.706,-271"/>
<polygon fill="#9a32cd" stroke="#9a32cd" points="39.7319,-267.5 29.7319,-271 39.7318,-274.5 39.7319,-267.5"/>
<text text-anchor="middle" x="69" y="-274" font-family="FreeSans" font-size="10.00"> elements</text>
</g>
<!-- Node6&#45;&gt;Node2 -->
<g id="edge10" class="edge"><title>Node6&#45;&gt;Node2</title>
<path fill="none" stroke="#9a32cd" stroke-dasharray="5,2" d="M812.191,-350.445C797.936,-345.453 782.455,-340.291 768,-336 726.768,-323.761 714.147,-328.431 674,-313 651.461,-304.337 627.231,-290.503 611.861,-281.099"/>
<polygon fill="#9a32cd" stroke="#9a32cd" points="811.241,-353.821 821.836,-353.86 813.578,-347.223 811.241,-353.821"/>
<text text-anchor="middle" x="721" y="-339" font-family="FreeSans" font-size="10.00"> PhysicsSettings</text>
</g>
<!-- Node7 -->
<g id="node13" class="node"><title>Node7</title>
<a xlink:href="classMezzanine_1_1Physics_1_1CollisionShape.xhtml" target="_top" xlink:title="This is the base class for all collision shapes.">
<polygon fill="none" stroke="black" points="546,-430 546,-462 646,-462 646,-430 546,-430"/>
<text text-anchor="start" x="554" y="-449" font-family="FreeSans" font-size="10.00">Mezzanine::Physics</text>
<text text-anchor="middle" x="596" y="-437" font-family="FreeSans" font-size="10.00">::CollisionShape</text>
</a>
</g>
<!-- Node7&#45;&gt;Node6 -->
<g id="edge14" class="edge"><title>Node7&#45;&gt;Node6</title>
<path fill="none" stroke="#9a32cd" stroke-dasharray="5,2" d="M656.395,-441.718C689.888,-438.148 731.935,-431.671 768,-420 793.416,-411.775 820.261,-397.442 839.25,-386.225"/>
<polygon fill="#9a32cd" stroke="#9a32cd" points="655.89,-438.251 646.291,-442.735 656.591,-445.216 655.89,-438.251"/>
<text text-anchor="middle" x="721" y="-442" font-family="FreeSans" font-size="10.00"> WorldObjectShape</text>
</g>
<!-- Node8 -->
<g id="node15" class="node"><title>Node8</title>
<a xlink:title="STL class.">
<polygon fill="none" stroke="#bfbfbf" points="337.5,-375 337.5,-395 394.5,-395 394.5,-375 337.5,-375"/>
<text text-anchor="middle" x="366" y="-382" font-family="FreeSans" font-size="10.00">std::string</text>
</a>
</g>
<!-- Node8&#45;&gt;Node2 -->
<g id="edge20" class="edge"><title>Node8&#45;&gt;Node2</title>
<path fill="none" stroke="#9a32cd" stroke-dasharray="5,2" d="M395.546,-370.355C442.96,-346.855 534.84,-301.314 575.635,-281.094"/>
<polygon fill="#9a32cd" stroke="#9a32cd" points="393.816,-367.306 386.411,-374.883 396.925,-373.578 393.816,-367.306"/>
<text text-anchor="middle" x="486" y="-341" font-family="FreeSans" font-size="10.00"> Name</text>
</g>
<!-- Node8&#45;&gt;Node7 -->
<g id="edge16" class="edge"><title>Node8&#45;&gt;Node7</title>
<path fill="none" stroke="#9a32cd" stroke-dasharray="5,2" d="M404.535,-395.22C443.355,-405.516 503.432,-421.449 545.923,-432.719"/>
<polygon fill="#9a32cd" stroke="#9a32cd" points="405.228,-391.783 394.665,-392.602 403.433,-398.549 405.228,-391.783"/>
<text text-anchor="middle" x="486" y="-427" font-family="FreeSans" font-size="10.00"> Name</text>
</g>
<!-- Node9 -->
<g id="node17" class="node"><title>Node9</title>
<a xlink:title="STL class.">
<polygon fill="none" stroke="#bfbfbf" points="117.5,-369 117.5,-401 208.5,-401 208.5,-369 117.5,-369"/>
<text text-anchor="start" x="125.5" y="-388" font-family="FreeSans" font-size="10.00">std::basic_string&lt;</text>
<text text-anchor="middle" x="163" y="-376" font-family="FreeSans" font-size="10.00"> char &gt;</text>
</a>
</g>
<!-- Node9&#45;&gt;Node8 -->
<g id="edge18" class="edge"><title>Node9&#45;&gt;Node8</title>
<path fill="none" stroke="midnightblue" d="M218.591,-385C257.098,-385 306.773,-385 337.498,-385"/>
<polygon fill="midnightblue" stroke="midnightblue" points="218.557,-381.5 208.557,-385 218.557,-388.5 218.557,-381.5"/>
</g>
<!-- Node10 -->
<g id="node20" class="node"><title>Node10</title>
<polygon fill="none" stroke="#bfbfbf" points="1002,-258 1002,-290 1092,-290 1092,-258 1002,-258"/>
<text text-anchor="start" x="1010" y="-277" font-family="FreeSans" font-size="10.00">std::set&lt; Physics:</text>
<text text-anchor="middle" x="1047" y="-265" font-family="FreeSans" font-size="10.00">:Collision * &gt;</text>
</g>
<!-- Node10&#45;&gt;Node2 -->
<g id="edge22" class="edge"><title>Node10&#45;&gt;Node2</title>
<path fill="none" stroke="#9a32cd" stroke-dasharray="5,2" d="M991.989,-267.666C976.491,-266.152 959.604,-264.756 944,-264 843.051,-259.111 725.47,-263.598 656.077,-267.297"/>
<polygon fill="#9a32cd" stroke="#9a32cd" points="991.644,-271.149 1001.95,-268.672 992.348,-264.184 991.644,-271.149"/>
<text text-anchor="middle" x="865" y="-267" font-family="FreeSans" font-size="10.00"> CurrentCollisions</text>
</g>
<!-- Node11&#45;&gt;Node10 -->
<g id="edge24" class="edge"><title>Node11&#45;&gt;Node10</title>
<path fill="none" stroke="#9a32cd" stroke-dasharray="5,2" d="M925.321,-292.051C950.311,-288.344 978.797,-284.118 1001.92,-280.687"/>
<polygon fill="#9a32cd" stroke="#9a32cd" points="924.592,-288.621 915.214,-293.551 925.619,-295.545 924.592,-288.621"/>
<text text-anchor="middle" x="973" y="-288" font-family="FreeSans" font-size="10.00"> keys</text>
</g>
<!-- Node12 -->
<g id="node24" class="node"><title>Node12</title>
<polygon fill="none" stroke="#bfbfbf" points="548,-392 548,-412 644,-412 644,-392 548,-392"/>
<text text-anchor="middle" x="596" y="-399" font-family="FreeSans" font-size="10.00">std::vector&lt; Real &gt;</text>
</g>
<!-- Node12&#45;&gt;Node11 -->
<g id="edge26" class="edge"><title>Node12&#45;&gt;Node11</title>
<path fill="none" stroke="#9a32cd" stroke-dasharray="5,2" d="M654.178,-400.284C696.731,-397.984 750.03,-392.6 768,-380 782.322,-369.958 773.838,-357.572 786,-345 797.134,-333.491 811.937,-324.168 825.717,-317.116"/>
<polygon fill="#9a32cd" stroke="#9a32cd" points="653.989,-396.789 644.175,-400.78 654.336,-403.781 653.989,-396.789"/>
<text text-anchor="middle" x="721" y="-401" font-family="FreeSans" font-size="10.00"> PenetrationDistances</text>
</g>
<!-- Node13&#45;&gt;Node2 -->
<g id="edge30" class="edge"><title>Node13&#45;&gt;Node2</title>
<path fill="none" stroke="#9a32cd" stroke-dasharray="5,2" d="M792.361,-185.36C755.608,-179.918 711.054,-178.792 674,-194 640.73,-207.655 614.07,-243.117 602.395,-260.744"/>
<polygon fill="#9a32cd" stroke="#9a32cd" points="792.078,-188.86 802.508,-187 793.194,-181.95 792.078,-188.86"/>
<text text-anchor="middle" x="721" y="-197" font-family="FreeSans" font-size="10.00"> GraphicsSettings</text>
</g>
<!-- Node14 -->
<g id="node30" class="node"><title>Node14</title>
<a xlink:href="classMezzanine_1_1Graphics_1_1Mesh.xhtml" target="_top" xlink:title="This class is used to check and modify the properties of a graphics mesh.">
<polygon fill="none" stroke="black" points="543.5,-117 543.5,-149 648.5,-149 648.5,-117 543.5,-117"/>
<text text-anchor="start" x="551.5" y="-136" font-family="FreeSans" font-size="10.00">Mezzanine::Graphics</text>
<text text-anchor="middle" x="596" y="-124" font-family="FreeSans" font-size="10.00">::Mesh</text>
</a>
</g>
<!-- Node14&#45;&gt;Node13 -->
<g id="edge34" class="edge"><title>Node14&#45;&gt;Node13</title>
<path fill="none" stroke="#9a32cd" stroke-dasharray="5,2" d="M658.81,-138.959C692.167,-143.619 733.322,-151.795 768,-166 776.897,-169.645 777.331,-173.842 786,-178 792.874,-181.297 800.289,-184.301 807.724,-186.991"/>
<polygon fill="#9a32cd" stroke="#9a32cd" points="659.097,-135.466 648.724,-137.623 658.178,-142.406 659.097,-135.466"/>
<text text-anchor="middle" x="721" y="-169" font-family="FreeSans" font-size="10.00"> WorldObjectMesh</text>
</g>
<!-- Node15 -->
<g id="node32" class="node"><title>Node15</title>
<a xlink:href="classMezzanine_1_1Graphics_1_1Skeleton.xhtml" target="_top" xlink:title="This class encapsulates the Skeletal animation functionality of a Mesh.">
<polygon fill="none" stroke="black" points="313.5,-60 313.5,-92 418.5,-92 418.5,-60 313.5,-60"/>
<text text-anchor="start" x="321.5" y="-79" font-family="FreeSans" font-size="10.00">Mezzanine::Graphics</text>
<text text-anchor="middle" x="366" y="-67" font-family="FreeSans" font-size="10.00">::Skeleton</text>
</a>
</g>
<!-- Node15&#45;&gt;Node14 -->
<g id="edge36" class="edge"><title>Node15&#45;&gt;Node14</title>
<path fill="none" stroke="#9a32cd" stroke-dasharray="5,2" d="M428.671,-91.5316C464.662,-100.451 509.343,-111.524 543.479,-119.984"/>
<polygon fill="#9a32cd" stroke="#9a32cd" points="429.315,-88.0853 418.767,-89.077 427.631,-94.8797 429.315,-88.0853"/>
<text text-anchor="middle" x="486" y="-116" font-family="FreeSans" font-size="10.00"> MeshSkel</text>
</g>
<!-- Node17 -->
<g id="node36" class="node"><title>Node17</title>
<a xlink:href="classMezzanine_1_1Graphics_1_1Bone.xhtml" target="_top" xlink:title="This class encapsulates the bones contained in a skeleton used for animation.">
<polygon fill="none" stroke="black" points="543.5,-8 543.5,-40 648.5,-40 648.5,-8 543.5,-8"/>
<text text-anchor="start" x="551.5" y="-27" font-family="FreeSans" font-size="10.00">Mezzanine::Graphics</text>
<text text-anchor="middle" x="596" y="-15" font-family="FreeSans" font-size="10.00">::Bone</text>
</a>
</g>
<!-- Node15&#45;&gt;Node17 -->
<g id="edge44" class="edge"><title>Node15&#45;&gt;Node17</title>
<path fill="none" stroke="#9a32cd" stroke-dasharray="5,2" d="M426.709,-57.1504C435.814,-54.5892 445.124,-52.1175 454,-50 483.376,-42.9919 516.559,-36.8207 543.456,-32.2512"/>
<polygon fill="#9a32cd" stroke="#9a32cd" points="425.587,-53.831 416.94,-59.9524 427.517,-60.5597 425.587,-53.831"/>
<text text-anchor="middle" x="486" y="-53" font-family="FreeSans" font-size="10.00"> Host</text>
</g>
<!-- Node16 -->
<g id="node34" class="node"><title>Node16</title>
<polygon fill="none" stroke="#bfbfbf" points="812.5,-47 812.5,-67 917.5,-67 917.5,-47 812.5,-47"/>
<text text-anchor="middle" x="865" y="-54" font-family="FreeSans" font-size="10.00">std::vector&lt; Bone * &gt;</text>
</g>
<!-- Node16&#45;&gt;Node15 -->
<g id="edge38" class="edge"><title>Node16&#45;&gt;Node15</title>
<path fill="none" stroke="#9a32cd" stroke-dasharray="5,2" d="M802.106,-59.6295C790.754,-60.0939 779.025,-60.567 768,-61 642.733,-65.9199 495.494,-71.315 418.681,-74.1001"/>
<polygon fill="#9a32cd" stroke="#9a32cd" points="802.546,-63.1145 812.394,-59.2069 802.259,-56.1204 802.546,-63.1145"/>
<text text-anchor="middle" x="596" y="-73" font-family="FreeSans" font-size="10.00"> Bones</text>
</g>
<!-- Node17&#45;&gt;Node16 -->
<g id="edge40" class="edge"><title>Node17&#45;&gt;Node16</title>
<path fill="none" stroke="#9a32cd" stroke-dasharray="5,2" d="M658.486,-31.6655C705.092,-37.383 768.06,-45.1077 812.169,-50.5189"/>
<polygon fill="#9a32cd" stroke="#9a32cd" points="658.856,-28.1848 648.504,-30.4411 658.004,-35.1328 658.856,-28.1848"/>
<text text-anchor="middle" x="721" y="-48" font-family="FreeSans" font-size="10.00"> elements</text>
</g>
<!-- Node18 -->
<g id="node38" class="node"><title>Node18</title>
<a xlink:href="classMezzanine_1_1TransformableObject.xhtml" target="_top" xlink:title="This is an interface for all 3D objects that can have their full transforms manipulated.">
<polygon fill="none" stroke="black" points="302,-0 302,-32 430,-32 430,-0 302,-0"/>
<text text-anchor="start" x="310" y="-19" font-family="FreeSans" font-size="10.00">Mezzanine::Transformable</text>
<text text-anchor="middle" x="366" y="-7" font-family="FreeSans" font-size="10.00">Object</text>
</a>
</g>
<!-- Node18&#45;&gt;Node17 -->
<g id="edge42" class="edge"><title>Node18&#45;&gt;Node17</title>
<path fill="none" stroke="midnightblue" d="M440.287,-18.5839C473.813,-19.75 512.639,-21.1005 543.134,-22.1612"/>
<polygon fill="midnightblue" stroke="midnightblue" points="440.183,-15.0783 430.068,-18.2284 439.94,-22.074 440.183,-15.0783"/>
</g>
<!-- Node19 -->
<g id="node41" class="node"><title>Node19</title>
<polygon fill="none" stroke="#bfbfbf" points="304.5,-134 304.5,-154 427.5,-154 427.5,-134 304.5,-134"/>
<text text-anchor="middle" x="366" y="-141" font-family="FreeSans" font-size="10.00">std::vector&lt; SubMesh * &gt;</text>
</g>
<!-- Node19&#45;&gt;Node14 -->
<g id="edge46" class="edge"><title>Node19&#45;&gt;Node14</title>
<path fill="none" stroke="#9a32cd" stroke-dasharray="5,2" d="M437.999,-140.557C472.051,-138.928 511.979,-137.018 543.177,-135.526"/>
<polygon fill="#9a32cd" stroke="#9a32cd" points="437.457,-137.078 427.636,-141.052 437.792,-144.07 437.457,-137.078"/>
<text text-anchor="middle" x="486" y="-143" font-family="FreeSans" font-size="10.00"> SubMeshes</text>
</g>
<!-- Node20 -->
<g id="node43" class="node"><title>Node20</title>
<a xlink:href="classMezzanine_1_1Graphics_1_1SubMesh.xhtml" target="_top" xlink:title="This class represents a sub&#45;section of an overall mesh.">
<polygon fill="none" stroke="black" points="110.5,-128 110.5,-160 215.5,-160 215.5,-128 110.5,-128"/>
<text text-anchor="start" x="118.5" y="-147" font-family="FreeSans" font-size="10.00">Mezzanine::Graphics</text>
<text text-anchor="middle" x="163" y="-135" font-family="FreeSans" font-size="10.00">::SubMesh</text>
</a>
</g>
<!-- Node20&#45;&gt;Node19 -->
<g id="edge48" class="edge"><title>Node20&#45;&gt;Node19</title>
<path fill="none" stroke="#9a32cd" stroke-dasharray="5,2" d="M225.65,-144C250.666,-144 279.389,-144 304.308,-144"/>
<polygon fill="#9a32cd" stroke="#9a32cd" points="225.542,-140.5 215.542,-144 225.542,-147.5 225.542,-140.5"/>
<text text-anchor="middle" x="257" y="-147" font-family="FreeSans" font-size="10.00"> elements</text>
</g>
</g>
</svg>
