<?xml version="1.0" encoding="UTF-8" standalone="no"?>
<!DOCTYPE svg PUBLIC "-//W3C//DTD SVG 1.1//EN"
 "http://www.w3.org/Graphics/SVG/1.1/DTD/svg11.dtd">
<!-- Generated by graphviz version 2.26.3 (20100126.1600)
 -->
<!-- Title: Mezzanine::Physics::Constraint Pages: 1 -->
<svg width="2254pt" height="631pt"
 viewBox="0.00 0.00 2254.00 631.00" xmlns="http://www.w3.org/2000/svg" xmlns:xlink="http://www.w3.org/1999/xlink">
<g id="graph1" class="graph" transform="scale(1 1) rotate(0) translate(4 627)">
<title>Mezzanine::Physics::Constraint</title>
<polygon fill="white" stroke="white" points="-4,5 -4,-627 2251,-627 2251,5 -4,5"/>
<!-- Node1 -->
<g id="node1" class="node"><title>Node1</title>
<polygon fill="#bfbfbf" stroke="black" points="346,-566 346,-598 446,-598 446,-566 346,-566"/>
<text text-anchor="start" x="354" y="-585" font-family="FreeSans" font-size="10.00">Mezzanine::Physics</text>
<text text-anchor="middle" x="396" y="-573" font-family="FreeSans" font-size="10.00">::Constraint</text>
</g>
<!-- Node25 -->
<g id="node54" class="node"><title>Node25</title>
<polygon fill="white" stroke="#bfbfbf" points="610,-551 610,-571 736,-571 736,-551 610,-551"/>
<text text-anchor="middle" x="673" y="-558" font-family="FreeSans" font-size="10.00">std::vector&lt; Constraint * &gt;</text>
</g>
<!-- Node1&#45;&gt;Node25 -->
<g id="edge62" class="edge"><title>Node1&#45;&gt;Node25</title>
<path fill="none" stroke="#9a32cd" stroke-dasharray="5,2" d="M456.451,-575.034C463.707,-574.296 471.017,-573.598 478,-573 521.933,-569.239 571.532,-566.204 609.713,-564.126"/>
<polygon fill="#9a32cd" stroke="#9a32cd" points="455.849,-571.578 446.267,-576.098 456.577,-578.54 455.849,-571.578"/>
<text text-anchor="middle" x="532" y="-576" font-family="FreeSans" font-size="10.00"> elements</text>
</g>
<!-- Node2 -->
<g id="node2" class="node"><title>Node2</title>
<a xlink:href="classMezzanine_1_1Physics_1_1RigidProxy.html" target="_top" xlink:title="This is a proxy from which rigid body proxys are handled.">
<polygon fill="white" stroke="black" points="1471,-570 1471,-602 1571,-602 1571,-570 1471,-570"/>
<text text-anchor="start" x="1479" y="-589" font-family="FreeSans" font-size="10.00">Mezzanine::Physics</text>
<text text-anchor="middle" x="1521" y="-577" font-family="FreeSans" font-size="10.00">::RigidProxy</text>
</a>
</g>
<!-- Node2&#45;&gt;Node1 -->
<g id="edge2" class="edge"><title>Node2&#45;&gt;Node1</title>
<path fill="none" stroke="#9a32cd" stroke-dasharray="5,2" d="M1460.66,-590.45C1404.38,-594.214 1318.05,-599 1243,-599 673,-599 673,-599 673,-599 593.622,-599 501.689,-591.959 446.236,-586.94"/>
<polygon fill="#9a32cd" stroke="#9a32cd" points="1461.07,-593.93 1470.81,-589.76 1460.6,-586.946 1461.07,-593.93"/>
<text text-anchor="middle" x="949" y="-614" font-family="FreeSans" font-size="10.00"> ProxA</text>
<text text-anchor="middle" x="949" y="-602" font-family="FreeSans" font-size="10.00">ProxB</text>
</g>
<!-- Node3 -->
<g id="node4" class="node"><title>Node3</title>
<a xlink:href="classMezzanine_1_1Physics_1_1CollidableProxy.html" target="_top" xlink:title="This is a proxy from which physics objects that can collide with each other are handled.">
<polygon fill="white" stroke="black" points="1193,-464 1193,-496 1293,-496 1293,-464 1193,-464"/>
<text text-anchor="start" x="1201" y="-483" font-family="FreeSans" font-size="10.00">Mezzanine::Physics</text>
<text text-anchor="middle" x="1243" y="-471" font-family="FreeSans" font-size="10.00">::CollidableProxy</text>
</a>
</g>
<!-- Node3&#45;&gt;Node2 -->
<g id="edge4" class="edge"><title>Node3&#45;&gt;Node2</title>
<path fill="none" stroke="midnightblue" d="M1280.24,-501.066C1296.45,-509.755 1315.86,-519.519 1334,-527 1379.32,-545.691 1432.82,-562.023 1470.96,-572.735"/>
<polygon fill="midnightblue" stroke="midnightblue" points="1281.55,-497.797 1271.1,-496.1 1278.21,-503.948 1281.55,-497.797"/>
</g>
<!-- Node16 -->
<g id="node33" class="node"><title>Node16</title>
<a xlink:href="classMezzanine_1_1Physics_1_1Collision.html" target="_top" xlink:title="This is an event class used to track collsions in the physics world.">
<polygon fill="white" stroke="black" points="1471,-315 1471,-347 1571,-347 1571,-315 1471,-315"/>
<text text-anchor="start" x="1479" y="-334" font-family="FreeSans" font-size="10.00">Mezzanine::Physics</text>
<text text-anchor="middle" x="1521" y="-322" font-family="FreeSans" font-size="10.00">::Collision</text>
</a>
</g>
<!-- Node3&#45;&gt;Node16 -->
<g id="edge42" class="edge"><title>Node3&#45;&gt;Node16</title>
<path fill="none" stroke="#9a32cd" stroke-dasharray="5,2" d="M1302.2,-461.536C1307.31,-458.28 1312.04,-454.466 1316,-450 1335.89,-427.573 1312.92,-406.312 1334,-385 1353.13,-365.66 1422.16,-349.288 1470.76,-339.8"/>
<polygon fill="#9a32cd" stroke="#9a32cd" points="1300.31,-458.578 1293.28,-466.504 1303.72,-464.693 1300.31,-458.578"/>
<text text-anchor="middle" x="1381" y="-400" font-family="FreeSans" font-size="10.00"> ProxyA</text>
<text text-anchor="middle" x="1381" y="-388" font-family="FreeSans" font-size="10.00">ProxyB</text>
</g>
<!-- Node26 -->
<g id="node57" class="node"><title>Node26</title>
<polygon fill="white" stroke="#bfbfbf" points="1446.5,-519 1446.5,-539 1595.5,-539 1595.5,-519 1446.5,-519"/>
<text text-anchor="middle" x="1521" y="-526" font-family="FreeSans" font-size="10.00">std::vector&lt; CollidableProxy * &gt;</text>
</g>
<!-- Node3&#45;&gt;Node26 -->
<g id="edge66" class="edge"><title>Node3&#45;&gt;Node26</title>
<path fill="none" stroke="#9a32cd" stroke-dasharray="5,2" d="M1302.93,-490.562C1350.73,-498.988 1417.23,-510.71 1464.2,-518.988"/>
<polygon fill="#9a32cd" stroke="#9a32cd" points="1303.48,-487.106 1293.02,-488.817 1302.26,-494 1303.48,-487.106"/>
<text text-anchor="middle" x="1381" y="-514" font-family="FreeSans" font-size="10.00"> elements</text>
</g>
<!-- Node28 -->
<g id="node63" class="node"><title>Node28</title>
<a xlink:href="classMezzanine_1_1Physics_1_1CollidablePair.html" target="_top" xlink:title="This is a helper class for storing pairs of collidable proxies in associative containers.">
<polygon fill="white" stroke="black" points="1471,-390 1471,-422 1571,-422 1571,-390 1471,-390"/>
<text text-anchor="start" x="1479" y="-409" font-family="FreeSans" font-size="10.00">Mezzanine::Physics</text>
<text text-anchor="middle" x="1521" y="-397" font-family="FreeSans" font-size="10.00">::CollidablePair</text>
</a>
</g>
<!-- Node3&#45;&gt;Node28 -->
<g id="edge74" class="edge"><title>Node3&#45;&gt;Node28</title>
<path fill="none" stroke="#9a32cd" stroke-dasharray="5,2" d="M1296.23,-459.854C1303,-456.79 1309.74,-453.481 1316,-450 1324.62,-445.202 1324.89,-440.796 1334,-437 1378.04,-418.643 1432.19,-411.136 1470.86,-408.077"/>
<polygon fill="#9a32cd" stroke="#9a32cd" points="1294.79,-456.664 1287.02,-463.871 1297.59,-463.08 1294.79,-456.664"/>
<text text-anchor="middle" x="1381" y="-452" font-family="FreeSans" font-size="10.00"> ProxyA</text>
<text text-anchor="middle" x="1381" y="-440" font-family="FreeSans" font-size="10.00">ProxyB</text>
</g>
<!-- Node4 -->
<g id="node6" class="node"><title>Node4</title>
<a xlink:href="classMezzanine_1_1WorldProxy.html" target="_top" xlink:title="This is the base class for proxy objects belonging to the various 3D subsystems.">
<polygon fill="white" stroke="black" points="2130,-290 2130,-310 2246,-310 2246,-290 2130,-290"/>
<text text-anchor="middle" x="2188" y="-297" font-family="FreeSans" font-size="10.00">Mezzanine::WorldProxy</text>
</a>
</g>
<!-- Node4&#45;&gt;Node3 -->
<g id="edge6" class="edge"><title>Node4&#45;&gt;Node3</title>
<path fill="none" stroke="midnightblue" d="M2177.04,-319.019C2149.33,-364.348 2071.7,-475 1974,-475 1521,-475 1521,-475 1521,-475 1441.35,-475 1348.89,-477.077 1293.22,-478.554"/>
<polygon fill="midnightblue" stroke="midnightblue" points="2180.2,-320.546 2182.32,-310.165 2174.19,-316.961 2180.2,-320.546"/>
</g>
<!-- Node5 -->
<g id="node8" class="node"><title>Node5</title>
<a xlink:href="classMezzanine_1_1TransformableObject.html" target="_top" xlink:title="This is an interface for all 3D objects that can have their full transforms manipulated.">
<polygon fill="white" stroke="black" points="1674,-233 1674,-265 1802,-265 1802,-233 1674,-233"/>
<text text-anchor="start" x="1682" y="-252" font-family="FreeSans" font-size="10.00">Mezzanine::Transformable</text>
<text text-anchor="middle" x="1738" y="-240" font-family="FreeSans" font-size="10.00">Object</text>
</a>
</g>
<!-- Node5&#45;&gt;Node4 -->
<g id="edge8" class="edge"><title>Node5&#45;&gt;Node4</title>
<path fill="none" stroke="midnightblue" d="M1792.35,-269.28C1795.65,-270.803 1798.89,-272.38 1802,-274 1810.53,-278.442 1810.85,-283.039 1820,-286 1925.08,-320.01 2055.92,-314.495 2129.9,-307.311"/>
<polygon fill="midnightblue" stroke="midnightblue" points="1793.52,-265.971 1782.96,-265.14 1790.7,-272.376 1793.52,-265.971"/>
</g>
<!-- Node6 -->
<g id="node10" class="node"><title>Node6</title>
<a xlink:href="classMezzanine_1_1WorldObject.html" target="_top" xlink:title="This is the base class from which classes that are insertable into the physical world.">
<polygon fill="white" stroke="black" points="1914,-230 1914,-250 2034,-250 2034,-230 1914,-230"/>
<text text-anchor="middle" x="1974" y="-237" font-family="FreeSans" font-size="10.00">Mezzanine::WorldObject</text>
</a>
</g>
<!-- Node5&#45;&gt;Node6 -->
<g id="edge12" class="edge"><title>Node5&#45;&gt;Node6</title>
<path fill="none" stroke="midnightblue" d="M1812.59,-246.156C1845.25,-244.91 1883.07,-243.468 1913.89,-242.292"/>
<polygon fill="midnightblue" stroke="midnightblue" points="1812.04,-242.674 1802.18,-246.553 1812.3,-249.669 1812.04,-242.674"/>
</g>
<!-- Node6&#45;&gt;Node4 -->
<g id="edge10" class="edge"><title>Node6&#45;&gt;Node4</title>
<path fill="none" stroke="#9a32cd" stroke-dasharray="5,2" d="M2028.85,-252.342C2054.28,-258.364 2084.83,-266.022 2112,-274 2128.19,-278.754 2146.05,-284.822 2160.39,-289.901"/>
<polygon fill="#9a32cd" stroke="#9a32cd" points="2029.55,-248.911 2019.02,-250.034 2027.95,-255.726 2029.55,-248.911"/>
<text text-anchor="middle" x="2082" y="-277" font-family="FreeSans" font-size="10.00"> ParentObject</text>
</g>
<!-- Node7 -->
<g id="node13" class="node"><title>Node7</title>
<a xlink:href="classMezzanine_1_1World.html" target="_top" xlink:title="This class represents a world for objects to interact within.">
<polygon fill="white" stroke="black" points="350,-50 350,-70 442,-70 442,-50 350,-50"/>
<text text-anchor="middle" x="396" y="-57" font-family="FreeSans" font-size="10.00">Mezzanine::World</text>
</a>
</g>
<!-- Node7&#45;&gt;Node6 -->
<g id="edge14" class="edge"><title>Node7&#45;&gt;Node6</title>
<path fill="none" stroke="#9a32cd" stroke-dasharray="5,2" d="M440.181,-47.2565C494.498,-32.738 589.728,-11 673,-11 673,-11 673,-11 1738,-11 1865.6,-11 1950.28,-185.546 1969.72,-229.865"/>
<polygon fill="#9a32cd" stroke="#9a32cd" points="438.936,-43.9676 430.203,-49.9659 440.771,-50.723 438.936,-43.9676"/>
<text text-anchor="middle" x="1243" y="-14" font-family="FreeSans" font-size="10.00"> ParentWorld</text>
</g>
<!-- Node9 -->
<g id="node17" class="node"><title>Node9</title>
<a xlink:href="classMezzanine_1_1WorldManager.html" target="_top" xlink:title="This is the base class for all managers that belong to a single world instance.">
<polygon fill="white" stroke="black" points="608.5,-97 608.5,-117 737.5,-117 737.5,-97 608.5,-97"/>
<text text-anchor="middle" x="673" y="-104" font-family="FreeSans" font-size="10.00">Mezzanine::WorldManager</text>
</a>
</g>
<!-- Node7&#45;&gt;Node9 -->
<g id="edge28" class="edge"><title>Node7&#45;&gt;Node9</title>
<path fill="none" stroke="#9a32cd" stroke-dasharray="5,2" d="M452.538,-67.2962C490.411,-72.4378 541.328,-79.8404 586,-88 600.296,-90.6113 615.823,-93.8666 629.75,-96.9409"/>
<polygon fill="#9a32cd" stroke="#9a32cd" points="452.595,-63.7724 442.218,-65.9072 451.661,-70.7098 452.595,-63.7724"/>
<text text-anchor="middle" x="532" y="-91" font-family="FreeSans" font-size="10.00"> ParentWorld</text>
</g>
<!-- Node8 -->
<g id="node15" class="node"><title>Node8</title>
<polygon fill="white" stroke="#bfbfbf" points="876.5,-72 876.5,-92 1021.5,-92 1021.5,-72 876.5,-72"/>
<text text-anchor="middle" x="949" y="-79" font-family="FreeSans" font-size="10.00">std::vector&lt; WorldManager * &gt;</text>
</g>
<!-- Node8&#45;&gt;Node7 -->
<g id="edge16" class="edge"><title>Node8&#45;&gt;Node7</title>
<path fill="none" stroke="#9a32cd" stroke-dasharray="5,2" d="M866.236,-78.7074C748.248,-74.0135 535.65,-65.5557 442.197,-61.8379"/>
<polygon fill="#9a32cd" stroke="#9a32cd" points="866.175,-82.2077 876.306,-79.108 866.453,-75.2132 866.175,-82.2077"/>
<text text-anchor="middle" x="673" y="-77" font-family="FreeSans" font-size="10.00"> WorldManagers</text>
</g>
<!-- Node9&#45;&gt;Node8 -->
<g id="edge18" class="edge"><title>Node9&#45;&gt;Node8</title>
<path fill="none" stroke="#9a32cd" stroke-dasharray="5,2" d="M747.674,-100.236C787.68,-96.6123 836.752,-92.1674 876.432,-88.5732"/>
<polygon fill="#9a32cd" stroke="#9a32cd" points="747.353,-96.7507 737.71,-101.139 747.985,-103.722 747.353,-96.7507"/>
<text text-anchor="middle" x="809" y="-102" font-family="FreeSans" font-size="10.00"> elements</text>
</g>
<!-- Node19 -->
<g id="node40" class="node"><title>Node19</title>
<a xlink:href="classMezzanine_1_1Physics_1_1PhysicsManager.html" target="_top" xlink:title="This is simply a place for storing all the Physics Related functions.">
<polygon fill="white" stroke="black" points="899,-380 899,-412 999,-412 999,-380 899,-380"/>
<text text-anchor="start" x="907" y="-399" font-family="FreeSans" font-size="10.00">Mezzanine::Physics</text>
<text text-anchor="middle" x="949" y="-387" font-family="FreeSans" font-size="10.00">::PhysicsManager</text>
</a>
</g>
<!-- Node9&#45;&gt;Node19 -->
<g id="edge46" class="edge"><title>Node9&#45;&gt;Node19</title>
<path fill="none" stroke="midnightblue" d="M691.626,-123.92C725.701,-155.131 799.911,-224.315 858,-287 887.323,-318.643 919.08,-357.96 936.241,-379.672"/>
<polygon fill="midnightblue" stroke="midnightblue" points="693.978,-121.328 684.234,-117.168 689.258,-126.497 693.978,-121.328"/>
</g>
<!-- Node10 -->
<g id="node19" class="node"><title>Node10</title>
<a xlink:href="classMezzanine_1_1ManagerBase.html" target="_top" xlink:title="This is the base class from which all the Entresol and World Managers inherit.">
<polygon fill="white" stroke="black" points="333,-90 333,-110 459,-110 459,-90 333,-90"/>
<text text-anchor="middle" x="396" y="-97" font-family="FreeSans" font-size="10.00">Mezzanine::ManagerBase</text>
</a>
</g>
<!-- Node10&#45;&gt;Node9 -->
<g id="edge20" class="edge"><title>Node10&#45;&gt;Node9</title>
<path fill="none" stroke="midnightblue" d="M469.247,-102.739C472.203,-102.83 475.13,-102.918 478,-103 521.494,-104.242 570.456,-105.245 608.437,-105.936"/>
<polygon fill="midnightblue" stroke="midnightblue" points="469.228,-99.2362 459.12,-102.411 469.002,-106.233 469.228,-99.2362"/>
</g>
<!-- Node11 -->
<g id="node21" class="node"><title>Node11</title>
<a xlink:href="classMezzanine_1_1Entresol.html" target="_top" xlink:title="This is the main entry point for the entire library.">
<polygon fill="white" stroke="black" points="134.5,-39 134.5,-59 235.5,-59 235.5,-39 134.5,-39"/>
<text text-anchor="middle" x="185" y="-46" font-family="FreeSans" font-size="10.00">Mezzanine::Entresol</text>
</a>
</g>
<!-- Node11&#45;&gt;Node10 -->
<g id="edge22" class="edge"><title>Node11&#45;&gt;Node10</title>
<path fill="none" stroke="#9a32cd" stroke-dasharray="5,2" d="M236.318,-61.4039C272.532,-70.1571 320.437,-81.736 354.299,-89.9207"/>
<polygon fill="#9a32cd" stroke="#9a32cd" points="236.977,-57.9626 226.435,-59.0151 235.333,-64.7666 236.977,-57.9626"/>
<text text-anchor="middle" x="286" y="-83" font-family="FreeSans" font-size="10.00"> TheEntresol</text>
</g>
<!-- Node12 -->
<g id="node23" class="node"><title>Node12</title>
<a xlink:href="classMezzanine_1_1Singleton.html" target="_top" xlink:title="Mezzanine::Singleton\l\&lt; Entresol \&gt;">
<polygon fill="white" stroke="black" points="342.5,-0 342.5,-32 449.5,-32 449.5,-0 342.5,-0"/>
<text text-anchor="start" x="350.5" y="-19" font-family="FreeSans" font-size="10.00">Mezzanine::Singleton</text>
<text text-anchor="middle" x="396" y="-7" font-family="FreeSans" font-size="10.00">&lt; Entresol &gt;</text>
</a>
</g>
<!-- Node11&#45;&gt;Node12 -->
<g id="edge26" class="edge"><title>Node11&#45;&gt;Node12</title>
<path fill="none" stroke="#9a32cd" stroke-dasharray="5,2" d="M245.62,-39.5191C276.096,-34.7527 312.713,-29.0259 342.184,-24.4167"/>
<polygon fill="#9a32cd" stroke="#9a32cd" points="244.879,-36.0924 235.54,-41.0957 245.961,-43.0084 244.879,-36.0924"/>
<text text-anchor="middle" x="286" y="-41" font-family="FreeSans" font-size="10.00"> SingletonPtr</text>
</g>
<!-- Node12&#45;&gt;Node11 -->
<g id="edge24" class="edge"><title>Node12&#45;&gt;Node11</title>
<path fill="none" stroke="midnightblue" d="M332.153,-20.4185C308.722,-22.5804 282.053,-25.6762 258,-30 245.24,-32.2938 231.431,-35.655 219.294,-38.915"/>
<polygon fill="midnightblue" stroke="midnightblue" points="332.671,-23.8864 342.324,-19.5191 332.054,-16.9137 332.671,-23.8864"/>
</g>
<!-- Node13 -->
<g id="node27" class="node"><title>Node13</title>
<a xlink:title="STL class.">
<polygon fill="white" stroke="#bfbfbf" points="156.5,-452 156.5,-472 213.5,-472 213.5,-452 156.5,-452"/>
<text text-anchor="middle" x="185" y="-459" font-family="FreeSans" font-size="10.00">std::string</text>
</a>
</g>
<!-- Node13&#45;&gt;Node6 -->
<g id="edge30" class="edge"><title>Node13&#45;&gt;Node6</title>
<path fill="none" stroke="#9a32cd" stroke-dasharray="5,2" d="M192.472,-442.407C209.839,-399.702 257.232,-298.135 332,-249 387.287,-212.667 412.273,-227.523 478,-220 686.081,-196.184 739.561,-205 949,-205 949,-205 949,-205 1738,-205 1806.55,-205 1885.1,-219.628 1932.07,-229.97"/>
<polygon fill="#9a32cd" stroke="#9a32cd" points="189.129,-441.342 188.705,-451.928 195.638,-443.917 189.129,-441.342"/>
<text text-anchor="middle" x="1096" y="-208" font-family="FreeSans" font-size="10.00"> ObjectName</text>
</g>
<!-- Node34 -->
<g id="node80" class="node"><title>Node34</title>
<a xlink:href="classMezzanine_1_1WorldTrigger.html" target="_top" xlink:title="This is an abstract class for creating in&#45;game triggers.">
<polygon fill="white" stroke="black" points="335,-452 335,-472 457,-472 457,-452 335,-452"/>
<text text-anchor="middle" x="396" y="-459" font-family="FreeSans" font-size="10.00">Mezzanine::WorldTrigger</text>
</a>
</g>
<!-- Node13&#45;&gt;Node34 -->
<g id="edge96" class="edge"><title>Node13&#45;&gt;Node34</title>
<path fill="none" stroke="#9a32cd" stroke-dasharray="5,2" d="M224.283,-462C255.251,-462 298.996,-462 334.582,-462"/>
<polygon fill="#9a32cd" stroke="#9a32cd" points="223.896,-458.5 213.896,-462 223.896,-465.5 223.896,-458.5"/>
<text text-anchor="middle" x="286" y="-465" font-family="FreeSans" font-size="10.00"> Name</text>
</g>
<!-- Node37 -->
<g id="node87" class="node"><title>Node37</title>
<a xlink:href="classMezzanine_1_1Physics_1_1CollisionShape.html" target="_top" xlink:title="This is the base class for all collision shapes.">
<polygon fill="white" stroke="black" points="482,-501 482,-533 582,-533 582,-501 482,-501"/>
<text text-anchor="start" x="490" y="-520" font-family="FreeSans" font-size="10.00">Mezzanine::Physics</text>
<text text-anchor="middle" x="532" y="-508" font-family="FreeSans" font-size="10.00">::CollisionShape</text>
</a>
</g>
<!-- Node13&#45;&gt;Node37 -->
<g id="edge104" class="edge"><title>Node13&#45;&gt;Node37</title>
<path fill="none" stroke="#9a32cd" stroke-dasharray="5,2" d="M223.518,-471.004C234.614,-473.445 246.758,-475.971 258,-478 335.783,-492.04 426.739,-504.14 481.822,-510.996"/>
<polygon fill="#9a32cd" stroke="#9a32cd" points="224.201,-467.57 213.678,-468.803 222.673,-474.401 224.201,-467.57"/>
<text text-anchor="middle" x="286" y="-490" font-family="FreeSans" font-size="10.00"> Name</text>
</g>
<!-- Node14 -->
<g id="node29" class="node"><title>Node14</title>
<a xlink:title="STL class.">
<polygon fill="white" stroke="#bfbfbf" points="0.5,-446 0.5,-478 91.5,-478 91.5,-446 0.5,-446"/>
<text text-anchor="start" x="8.5" y="-465" font-family="FreeSans" font-size="10.00">std::basic_string&lt;</text>
<text text-anchor="middle" x="46" y="-453" font-family="FreeSans" font-size="10.00"> char &gt;</text>
</a>
</g>
<!-- Node14&#45;&gt;Node13 -->
<g id="edge32" class="edge"><title>Node14&#45;&gt;Node13</title>
<path fill="none" stroke="midnightblue" d="M101.751,-462C120.501,-462 140.641,-462 156.415,-462"/>
<polygon fill="midnightblue" stroke="midnightblue" points="101.514,-458.5 91.5138,-462 101.514,-465.5 101.514,-458.5"/>
</g>
<!-- Node15 -->
<g id="node31" class="node"><title>Node15</title>
<polygon fill="white" stroke="#bfbfbf" points="1692,-338 1692,-370 1784,-370 1784,-338 1692,-338"/>
<text text-anchor="start" x="1700" y="-357" font-family="FreeSans" font-size="10.00">std::set&lt; Physics::</text>
<text text-anchor="middle" x="1738" y="-345" font-family="FreeSans" font-size="10.00">Collision * &gt;</text>
</g>
<!-- Node15&#45;&gt;Node6 -->
<g id="edge34" class="edge"><title>Node15&#45;&gt;Node6</title>
<path fill="none" stroke="#9a32cd" stroke-dasharray="5,2" d="M1781.72,-333.618C1788.52,-330.417 1795.46,-327.132 1802,-324 1857.01,-297.678 1921.53,-265.932 1953.66,-250.062"/>
<polygon fill="#9a32cd" stroke="#9a32cd" points="1780.15,-330.489 1772.59,-337.909 1783.13,-336.824 1780.15,-330.489"/>
<text text-anchor="middle" x="1858" y="-318" font-family="FreeSans" font-size="10.00"> CurrentCollisions</text>
</g>
<!-- Node16&#45;&gt;Node15 -->
<g id="edge36" class="edge"><title>Node16&#45;&gt;Node15</title>
<path fill="none" stroke="#9a32cd" stroke-dasharray="5,2" d="M1581.43,-338.336C1592.27,-339.598 1603.46,-340.867 1614,-342 1639.7,-344.763 1668.42,-347.561 1691.75,-349.76"/>
<polygon fill="#9a32cd" stroke="#9a32cd" points="1581.51,-334.823 1571.17,-337.133 1580.7,-341.775 1581.51,-334.823"/>
<text text-anchor="middle" x="1635" y="-349" font-family="FreeSans" font-size="10.00"> keys</text>
</g>
<!-- Node27 -->
<g id="node60" class="node"><title>Node27</title>
<polygon fill="white" stroke="#bfbfbf" points="1676.5,-283 1676.5,-315 1799.5,-315 1799.5,-283 1676.5,-283"/>
<text text-anchor="start" x="1684.5" y="-302" font-family="FreeSans" font-size="10.00">std::map&lt; CollidablePair,</text>
<text text-anchor="middle" x="1738" y="-290" font-family="FreeSans" font-size="10.00"> Collision * &gt;</text>
</g>
<!-- Node16&#45;&gt;Node27 -->
<g id="edge70" class="edge"><title>Node16&#45;&gt;Node27</title>
<path fill="none" stroke="#9a32cd" stroke-dasharray="5,2" d="M1563.08,-310.926C1578.7,-304.496 1596.81,-298.212 1614,-295 1634.11,-291.243 1656.38,-290.825 1676.42,-291.785"/>
<polygon fill="#9a32cd" stroke="#9a32cd" points="1561.53,-307.782 1553.7,-314.923 1564.27,-314.221 1561.53,-307.782"/>
<text text-anchor="middle" x="1635" y="-298" font-family="FreeSans" font-size="10.00"> elements</text>
</g>
<!-- Node17 -->
<g id="node35" class="node"><title>Node17</title>
<polygon fill="white" stroke="#bfbfbf" points="1195,-321 1195,-341 1291,-341 1291,-321 1195,-321"/>
<text text-anchor="middle" x="1243" y="-328" font-family="FreeSans" font-size="10.00">std::vector&lt; Real &gt;</text>
</g>
<!-- Node17&#45;&gt;Node16 -->
<g id="edge38" class="edge"><title>Node17&#45;&gt;Node16</title>
<path fill="none" stroke="#9a32cd" stroke-dasharray="5,2" d="M1301.15,-331C1351.29,-331 1422.95,-331 1470.67,-331"/>
<polygon fill="#9a32cd" stroke="#9a32cd" points="1301.11,-327.5 1291.11,-331 1301.11,-334.5 1301.11,-327.5"/>
<text text-anchor="middle" x="1381" y="-334" font-family="FreeSans" font-size="10.00"> PenetrationDistances</text>
</g>
<!-- Node18 -->
<g id="node37" class="node"><title>Node18</title>
<a xlink:href="structMezzanine_1_1Physics_1_1CollisionInternalData.html" target="_top" xlink:title="Used to insulate the interface from the implementation details for bullet.">
<polygon fill="white" stroke="black" points="1188,-271 1188,-303 1298,-303 1298,-271 1188,-271"/>
<text text-anchor="start" x="1196" y="-290" font-family="FreeSans" font-size="10.00">Mezzanine::Physics</text>
<text text-anchor="middle" x="1243" y="-278" font-family="FreeSans" font-size="10.00">::CollisionInternalData</text>
</a>
</g>
<!-- Node18&#45;&gt;Node16 -->
<g id="edge40" class="edge"><title>Node18&#45;&gt;Node16</title>
<path fill="none" stroke="#9a32cd" stroke-dasharray="5,2" d="M1308.31,-296.556C1343.75,-301.825 1388.31,-308.582 1428,-315 1441.91,-317.249 1456.97,-319.792 1470.84,-322.179"/>
<polygon fill="#9a32cd" stroke="#9a32cd" points="1308.5,-293.046 1298.09,-295.041 1307.47,-299.97 1308.5,-293.046"/>
<text text-anchor="middle" x="1381" y="-318" font-family="FreeSans" font-size="10.00"> InternalData</text>
</g>
<!-- Node19&#45;&gt;Node3 -->
<g id="edge44" class="edge"><title>Node19&#45;&gt;Node3</title>
<path fill="none" stroke="#9a32cd" stroke-dasharray="5,2" d="M982.32,-417.312C999.043,-427.119 1019.96,-438.085 1040,-445 1090.37,-462.385 1150.88,-471.389 1192.65,-475.879"/>
<polygon fill="#9a32cd" stroke="#9a32cd" points="983.869,-414.16 973.493,-412.016 980.268,-420.163 983.869,-414.16"/>
<text text-anchor="middle" x="1096" y="-473" font-family="FreeSans" font-size="10.00"> Manager</text>
</g>
<!-- Node31 -->
<g id="node70" class="node"><title>Node31</title>
<a xlink:href="classMezzanine_1_1Physics_1_1DebugDrawWorkUnit.html" target="_top" xlink:title="This is a Mezzanine::Threading::iWorkUnit for the updating of the physics debug drawer.">
<polygon fill="white" stroke="black" points="1188,-359 1188,-391 1298,-391 1298,-359 1188,-359"/>
<text text-anchor="start" x="1196" y="-378" font-family="FreeSans" font-size="10.00">Mezzanine::Physics</text>
<text text-anchor="middle" x="1243" y="-366" font-family="FreeSans" font-size="10.00">::DebugDrawWorkUnit</text>
</a>
</g>
<!-- Node19&#45;&gt;Node31 -->
<g id="edge84" class="edge"><title>Node19&#45;&gt;Node31</title>
<path fill="none" stroke="#9a32cd" stroke-dasharray="5,2" d="M1009.28,-380.883C1019.47,-378.865 1029.99,-377.112 1040,-376 1089.74,-370.475 1146.76,-370.771 1187.68,-372.131"/>
<polygon fill="#9a32cd" stroke="#9a32cd" points="1008.3,-377.511 999.224,-382.975 1009.73,-384.364 1008.3,-377.511"/>
<text text-anchor="middle" x="1096" y="-379" font-family="FreeSans" font-size="10.00"> TargetManager</text>
</g>
<!-- Node32 -->
<g id="node74" class="node"><title>Node32</title>
<a xlink:href="classMezzanine_1_1Physics_1_1WorldTriggerUpdateWorkUnit.html" target="_top" xlink:title="This is a Mezzanine::Threading::iWorkUnit for the updating of WorldTriggers.">
<polygon fill="white" stroke="black" points="1170,-409 1170,-441 1316,-441 1316,-409 1170,-409"/>
<text text-anchor="start" x="1178" y="-428" font-family="FreeSans" font-size="10.00">Mezzanine::Physics</text>
<text text-anchor="middle" x="1243" y="-416" font-family="FreeSans" font-size="10.00">::WorldTriggerUpdateWorkUnit</text>
</a>
</g>
<!-- Node19&#45;&gt;Node32 -->
<g id="edge90" class="edge"><title>Node19&#45;&gt;Node32</title>
<path fill="none" stroke="#9a32cd" stroke-dasharray="5,2" d="M1009.45,-397.586C1049.91,-399.135 1104.29,-402.157 1152,-408 1157.74,-408.703 1163.67,-409.545 1169.62,-410.472"/>
<polygon fill="#9a32cd" stroke="#9a32cd" points="1009.33,-394.079 999.213,-397.214 1009.08,-401.075 1009.33,-394.079"/>
<text text-anchor="middle" x="1096" y="-411" font-family="FreeSans" font-size="10.00"> TargetManager</text>
</g>
<!-- Node20 -->
<g id="node43" class="node"><title>Node20</title>
<a xlink:href="classMezzanine_1_1Threading_1_1ThreadSpecificStorage.html" target="_top" xlink:title="A thread specific collection of double&#45;buffered and algorithm specific resources.">
<polygon fill="white" stroke="black" points="613.5,-402 613.5,-434 732.5,-434 732.5,-402 613.5,-402"/>
<text text-anchor="start" x="621.5" y="-421" font-family="FreeSans" font-size="10.00">Mezzanine::Threading</text>
<text text-anchor="middle" x="673" y="-409" font-family="FreeSans" font-size="10.00">::ThreadSpecificStorage</text>
</a>
</g>
<!-- Node20&#45;&gt;Node19 -->
<g id="edge48" class="edge"><title>Node20&#45;&gt;Node19</title>
<path fill="none" stroke="#9a32cd" stroke-dasharray="5,2" d="M742.685,-412.445C791.324,-408.568 855.106,-403.484 898.802,-400.001"/>
<polygon fill="#9a32cd" stroke="#9a32cd" points="742.238,-408.97 732.548,-413.253 742.795,-415.948 742.238,-408.97"/>
<text text-anchor="middle" x="809" y="-413" font-family="FreeSans" font-size="10.00"> ThreadResources</text>
</g>
<!-- Node21 -->
<g id="node45" class="node"><title>Node21</title>
<a xlink:href="classMezzanine_1_1Threading_1_1DefaultWorkUnit.html" target="_top" xlink:title="Default implementation of WorkUnit. This represents on piece of work through time.">
<polygon fill="white" stroke="black" points="618,-245 618,-277 728,-277 728,-245 618,-245"/>
<text text-anchor="start" x="626" y="-264" font-family="FreeSans" font-size="10.00">Mezzanine::Threading</text>
<text text-anchor="middle" x="673" y="-252" font-family="FreeSans" font-size="10.00">::DefaultWorkUnit</text>
</a>
</g>
<!-- Node21&#45;&gt;Node19 -->
<g id="edge50" class="edge"><title>Node21&#45;&gt;Node19</title>
<path fill="none" stroke="#9a32cd" stroke-dasharray="5,2" d="M728.04,-280.392C738.619,-284.002 749.632,-287.68 760,-291 803.259,-304.852 817.96,-298.552 858,-320 887.757,-335.94 916.734,-362.647 933.719,-379.784"/>
<polygon fill="#9a32cd" stroke="#9a32cd" points="729.072,-277.046 718.477,-277.107 726.798,-283.666 729.072,-277.046"/>
<text text-anchor="middle" x="809" y="-323" font-family="FreeSans" font-size="10.00"> SimulationWork</text>
</g>
<!-- Node21&#45;&gt;Node31 -->
<g id="edge82" class="edge"><title>Node21&#45;&gt;Node31</title>
<path fill="none" stroke="midnightblue" d="M738.455,-254.69C854.56,-244.952 1090.18,-232.199 1152,-282 1176.35,-301.612 1148.69,-327.121 1170,-350 1175.02,-355.392 1181.25,-359.621 1187.95,-362.938"/>
<polygon fill="midnightblue" stroke="midnightblue" points="737.942,-251.221 728.277,-255.562 738.539,-258.195 737.942,-251.221"/>
</g>
<!-- Node21&#45;&gt;Node32 -->
<g id="edge88" class="edge"><title>Node21&#45;&gt;Node32</title>
<path fill="none" stroke="midnightblue" d="M738.268,-265.938C862.144,-275.892 1121.74,-299.753 1152,-327 1176.83,-349.358 1147.44,-375.353 1170,-400 1173.08,-403.36 1176.62,-406.268 1180.46,-408.785"/>
<polygon fill="midnightblue" stroke="midnightblue" points="738.397,-262.437 728.15,-265.132 737.841,-269.415 738.397,-262.437"/>
</g>
<!-- Node22 -->
<g id="node47" class="node"><title>Node22</title>
<a xlink:href="classMezzanine_1_1Threading_1_1iWorkUnit.html" target="_top" xlink:title="Interface of a WorkUnit. This represents on piece of work through time.">
<polygon fill="white" stroke="black" points="130,-145 130,-177 240,-177 240,-145 130,-145"/>
<text text-anchor="start" x="138" y="-164" font-family="FreeSans" font-size="10.00">Mezzanine::Threading</text>
<text text-anchor="middle" x="185" y="-152" font-family="FreeSans" font-size="10.00">::iWorkUnit</text>
</a>
</g>
<!-- Node22&#45;&gt;Node21 -->
<g id="edge52" class="edge"><title>Node22&#45;&gt;Node21</title>
<path fill="none" stroke="midnightblue" d="M250.407,-154.761C306.465,-150.896 389.142,-148.726 460,-161 518.592,-171.149 532.543,-179.954 586,-206 608.971,-217.193 633.426,-233.042 650.539,-244.854"/>
<polygon fill="midnightblue" stroke="midnightblue" points="249.978,-151.283 240.258,-155.5 250.486,-158.265 249.978,-151.283"/>
</g>
<!-- Node23 -->
<g id="node49" class="node"><title>Node23</title>
<polygon fill="white" stroke="#bfbfbf" points="333.5,-170 333.5,-202 458.5,-202 458.5,-170 333.5,-170"/>
<text text-anchor="start" x="341.5" y="-189" font-family="FreeSans" font-size="10.00">std::vector&lt; Mezzanine</text>
<text text-anchor="middle" x="396" y="-177" font-family="FreeSans" font-size="10.00">::Threading::iWorkUnit * &gt;</text>
</g>
<!-- Node22&#45;&gt;Node23 -->
<g id="edge56" class="edge"><title>Node22&#45;&gt;Node23</title>
<path fill="none" stroke="#9a32cd" stroke-dasharray="5,2" d="M250.103,-168.714C276.596,-171.853 307.093,-175.466 333.332,-178.575"/>
<polygon fill="#9a32cd" stroke="#9a32cd" points="250.505,-165.237 240.162,-167.536 249.681,-172.188 250.505,-165.237"/>
<text text-anchor="middle" x="286" y="-179" font-family="FreeSans" font-size="10.00"> elements</text>
</g>
<!-- Node23&#45;&gt;Node21 -->
<g id="edge54" class="edge"><title>Node23&#45;&gt;Node21</title>
<path fill="none" stroke="#9a32cd" stroke-dasharray="5,2" d="M465.262,-204.753C512.447,-217.529 574.067,-234.213 617.913,-246.085"/>
<polygon fill="#9a32cd" stroke="#9a32cd" points="465.991,-201.325 455.423,-202.089 464.161,-208.081 465.991,-201.325"/>
<text text-anchor="middle" x="532" y="-239" font-family="FreeSans" font-size="10.00"> Dependencies</text>
</g>
<!-- Node24 -->
<g id="node52" class="node"><title>Node24</title>
<a xlink:href="structMezzanine_1_1DefaultRollingAverage.html" target="_top" xlink:title="Mezzanine::DefaultRolling\lAverage\&lt; Whole \&gt;">
<polygon fill="white" stroke="black" points="332.5,-258 332.5,-290 459.5,-290 459.5,-258 332.5,-258"/>
<text text-anchor="start" x="340.5" y="-277" font-family="FreeSans" font-size="10.00">Mezzanine::DefaultRolling</text>
<text text-anchor="middle" x="396" y="-265" font-family="FreeSans" font-size="10.00">Average&lt; Whole &gt;</text>
</a>
</g>
<!-- Node24&#45;&gt;Node21 -->
<g id="edge58" class="edge"><title>Node24&#45;&gt;Node21</title>
<path fill="none" stroke="#9a32cd" stroke-dasharray="5,2" d="M469.571,-270.547C516.074,-268.365 575.199,-265.59 617.708,-263.595"/>
<polygon fill="#9a32cd" stroke="#9a32cd" points="469.374,-267.052 459.549,-271.018 469.703,-274.045 469.374,-267.052"/>
<text text-anchor="middle" x="532" y="-272" font-family="FreeSans" font-size="10.00"> PerformanceLog</text>
</g>
<!-- Node25&#45;&gt;Node19 -->
<g id="edge60" class="edge"><title>Node25&#45;&gt;Node19</title>
<path fill="none" stroke="#9a32cd" stroke-dasharray="5,2" d="M689.638,-543.486C706.072,-527.157 732.652,-503.241 760,-489 800.071,-468.134 817.283,-481.576 858,-462 885.615,-448.723 913.585,-426.908 931.088,-412.02"/>
<polygon fill="#9a32cd" stroke="#9a32cd" points="686.943,-541.234 682.426,-550.817 691.933,-546.143 686.943,-541.234"/>
<text text-anchor="middle" x="809" y="-492" font-family="FreeSans" font-size="10.00"> Constraints</text>
</g>
<!-- Node26&#45;&gt;Node19 -->
<g id="edge64" class="edge"><title>Node26&#45;&gt;Node19</title>
<path fill="none" stroke="#9a32cd" stroke-dasharray="5,2" d="M1436.37,-539.353C1336.19,-547.706 1166.95,-549.291 1040,-486 1005.2,-468.65 975.454,-432.964 960.114,-412.118"/>
<polygon fill="#9a32cd" stroke="#9a32cd" points="1436.79,-542.83 1446.45,-538.471 1436.18,-535.857 1436.79,-542.83"/>
<text text-anchor="middle" x="1243" y="-546" font-family="FreeSans" font-size="10.00"> Proxies</text>
</g>
<!-- Node27&#45;&gt;Node19 -->
<g id="edge68" class="edge"><title>Node27&#45;&gt;Node19</title>
<path fill="none" stroke="#9a32cd" stroke-dasharray="5,2" d="M1666.62,-281.084C1557.87,-256.742 1344.87,-220.718 1170,-262 1085.06,-282.051 1001.62,-348.985 966.429,-379.987"/>
<polygon fill="#9a32cd" stroke="#9a32cd" points="1665.97,-284.525 1676.49,-283.326 1667.52,-277.699 1665.97,-284.525"/>
<text text-anchor="middle" x="1381" y="-248" font-family="FreeSans" font-size="10.00"> Collisions</text>
</g>
<!-- Node28&#45;&gt;Node27 -->
<g id="edge72" class="edge"><title>Node28&#45;&gt;Node27</title>
<path fill="none" stroke="#9a32cd" stroke-dasharray="5,2" d="M1560.12,-384.41C1572.46,-376.475 1585.58,-366.767 1596,-356 1606.55,-345.1 1601.64,-335.798 1614,-327 1632.07,-314.136 1655.06,-307.057 1676.33,-303.204"/>
<polygon fill="#9a32cd" stroke="#9a32cd" points="1557.98,-381.62 1551.32,-389.864 1561.66,-387.57 1557.98,-381.62"/>
<text text-anchor="middle" x="1635" y="-330" font-family="FreeSans" font-size="10.00"> keys</text>
</g>
<!-- Node29 -->
<g id="node66" class="node"><title>Node29</title>
<a xlink:href="classMezzanine_1_1debug_1_1InternalDebugDrawer.html" target="_top" xlink:title="This is used to draw wireframse for the Physics subsystem.">
<polygon fill="white" stroke="black" points="608,-302 608,-334 738,-334 738,-302 608,-302"/>
<text text-anchor="start" x="616" y="-321" font-family="FreeSans" font-size="10.00">Mezzanine::debug::Internal</text>
<text text-anchor="middle" x="673" y="-309" font-family="FreeSans" font-size="10.00">DebugDrawer</text>
</a>
</g>
<!-- Node29&#45;&gt;Node19 -->
<g id="edge76" class="edge"><title>Node29&#45;&gt;Node19</title>
<path fill="none" stroke="#9a32cd" stroke-dasharray="5,2" d="M748.059,-332.967C781.935,-340.355 822.28,-350.037 858,-361 875.638,-366.413 894.754,-373.562 910.891,-379.987"/>
<polygon fill="#9a32cd" stroke="#9a32cd" points="748.74,-329.533 738.227,-330.847 747.264,-336.376 748.74,-329.533"/>
<text text-anchor="middle" x="809" y="-364" font-family="FreeSans" font-size="10.00"> BulletDrawer</text>
</g>
<!-- Node30 -->
<g id="node68" class="node"><title>Node30</title>
<polygon fill="white" stroke="#bfbfbf" points="357.5,-308 357.5,-328 434.5,-328 434.5,-308 357.5,-308"/>
<text text-anchor="middle" x="396" y="-315" font-family="FreeSans" font-size="10.00">btIDebugDraw</text>
</g>
<!-- Node30&#45;&gt;Node29 -->
<g id="edge78" class="edge"><title>Node30&#45;&gt;Node29</title>
<path fill="none" stroke="midnightblue" d="M444.682,-318C490.028,-318 557.961,-318 607.941,-318"/>
<polygon fill="midnightblue" stroke="midnightblue" points="444.516,-314.5 434.516,-318 444.516,-321.5 444.516,-314.5"/>
</g>
<!-- Node31&#45;&gt;Node19 -->
<g id="edge80" class="edge"><title>Node31&#45;&gt;Node19</title>
<path fill="none" stroke="#9a32cd" stroke-dasharray="5,2" d="M1183.63,-355.418C1178.99,-353.66 1174.4,-351.844 1170,-350 1161.75,-346.543 1160.71,-343.055 1152,-341 1103.55,-329.563 1087.95,-327.635 1040,-341 1012.97,-348.534 985.958,-366.511 968.471,-379.874"/>
<polygon fill="#9a32cd" stroke="#9a32cd" points="1182.59,-358.765 1193.19,-358.939 1185.01,-352.197 1182.59,-358.765"/>
<text text-anchor="middle" x="1096" y="-344" font-family="FreeSans" font-size="10.00"> DebugDrawWork</text>
</g>
<!-- Node32&#45;&gt;Node19 -->
<g id="edge86" class="edge"><title>Node32&#45;&gt;Node19</title>
<path fill="none" stroke="#9a32cd" stroke-dasharray="5,2" d="M1159.59,-429.381C1122.75,-429.981 1079.03,-428.864 1040,-423 1024.84,-420.723 1008.69,-416.537 994.264,-412.129"/>
<polygon fill="#9a32cd" stroke="#9a32cd" points="1159.87,-432.877 1169.79,-429.169 1159.72,-425.878 1159.87,-432.877"/>
<text text-anchor="middle" x="1096" y="-432" font-family="FreeSans" font-size="10.00"> WorldTriggerUpdateWork</text>
</g>
<!-- Node33 -->
<g id="node78" class="node"><title>Node33</title>
<polygon fill="white" stroke="#bfbfbf" points="604.5,-452 604.5,-472 741.5,-472 741.5,-452 604.5,-452"/>
<text text-anchor="middle" x="673" y="-459" font-family="FreeSans" font-size="10.00">std::vector&lt; WorldTrigger * &gt;</text>
</g>
<!-- Node33&#45;&gt;Node19 -->
<g id="edge92" class="edge"><title>Node33&#45;&gt;Node19</title>
<path fill="none" stroke="#9a32cd" stroke-dasharray="5,2" d="M745.076,-450.157C779.49,-443.948 821.116,-435.627 858,-426 873.13,-422.051 889.418,-416.957 903.974,-412.092"/>
<polygon fill="#9a32cd" stroke="#9a32cd" points="744.338,-446.733 735.107,-451.933 745.566,-453.625 744.338,-446.733"/>
<text text-anchor="middle" x="809" y="-449" font-family="FreeSans" font-size="10.00"> Triggers</text>
</g>
<!-- Node34&#45;&gt;Node33 -->
<g id="edge94" class="edge"><title>Node34&#45;&gt;Node33</title>
<path fill="none" stroke="#9a32cd" stroke-dasharray="5,2" d="M467.319,-462C509.459,-462 562.548,-462 604.234,-462"/>
<polygon fill="#9a32cd" stroke="#9a32cd" points="467.132,-458.5 457.132,-462 467.132,-465.5 467.132,-458.5"/>
<text text-anchor="middle" x="532" y="-465" font-family="FreeSans" font-size="10.00"> elements</text>
</g>
<!-- Node35 -->
<g id="node83" class="node"><title>Node35</title>
<a xlink:href="classMezzanine_1_1Physics_1_1ManagerConstructionInfo.html" target="_top" xlink:title="This is a helper class storing information needed for the construction of a PhysicsManager.">
<polygon fill="white" stroke="black" points="608.5,-352 608.5,-384 737.5,-384 737.5,-352 608.5,-352"/>
<text text-anchor="start" x="616.5" y="-371" font-family="FreeSans" font-size="10.00">Mezzanine::Physics</text>
<text text-anchor="middle" x="673" y="-359" font-family="FreeSans" font-size="10.00">::ManagerConstructionInfo</text>
</a>
</g>
<!-- Node35&#45;&gt;Node19 -->
<g id="edge98" class="edge"><title>Node35&#45;&gt;Node19</title>
<path fill="none" stroke="#9a32cd" stroke-dasharray="5,2" d="M747.738,-375.582C795.715,-380.449 856.71,-386.637 898.912,-390.919"/>
<polygon fill="#9a32cd" stroke="#9a32cd" points="748.012,-372.092 737.71,-374.565 747.305,-379.056 748.012,-372.092"/>
<text text-anchor="middle" x="809" y="-389" font-family="FreeSans" font-size="10.00"> WorldConstructionInfo</text>
</g>
<!-- Node36 -->
<g id="node85" class="node"><title>Node36</title>
<a xlink:href="classMezzanine_1_1Vector3.html" target="_top" xlink:title="This is used to represent a point in space, or a vector through space.">
<polygon fill="white" stroke="black" points="346,-358 346,-378 446,-378 446,-358 346,-358"/>
<text text-anchor="middle" x="396" y="-365" font-family="FreeSans" font-size="10.00">Mezzanine::Vector3</text>
</a>
</g>
<!-- Node36&#45;&gt;Node35 -->
<g id="edge100" class="edge"><title>Node36&#45;&gt;Node35</title>
<path fill="none" stroke="#9a32cd" stroke-dasharray="5,2" d="M456.342,-368C501.233,-368 562.41,-368 608.309,-368"/>
<polygon fill="#9a32cd" stroke="#9a32cd" points="456.163,-364.5 446.163,-368 456.163,-371.5 456.163,-364.5"/>
<text text-anchor="middle" x="532" y="-395" font-family="FreeSans" font-size="10.00"> GeographyLowerBounds</text>
<text text-anchor="middle" x="532" y="-383" font-family="FreeSans" font-size="10.00">GeographyUpperBounds</text>
<text text-anchor="middle" x="532" y="-371" font-family="FreeSans" font-size="10.00">Gravity</text>
</g>
<!-- Node37&#45;&gt;Node3 -->
<g id="edge102" class="edge"><title>Node37&#45;&gt;Node3</title>
<path fill="none" stroke="#9a32cd" stroke-dasharray="5,2" d="M592.564,-514.312C703.538,-509.311 946.933,-497.991 1152,-486 1165.28,-485.224 1179.64,-484.311 1192.94,-483.435"/>
<polygon fill="#9a32cd" stroke="#9a32cd" points="592.076,-510.83 582.244,-514.776 592.391,-517.823 592.076,-510.83"/>
<text text-anchor="middle" x="809" y="-509" font-family="FreeSans" font-size="10.00"> ProxyShape</text>
</g>
</g>
</svg>
