<?xml version="1.0" encoding="UTF-8" standalone="no"?>
<!DOCTYPE svg PUBLIC "-//W3C//DTD SVG 1.1//EN"
 "http://www.w3.org/Graphics/SVG/1.1/DTD/svg11.dtd">
<!-- Generated by graphviz version 2.26.3 (20100126.1600)
 -->
<!-- Title: Mezzanine::Physics::DefaultCollisionShapeManagerFactory Pages: 1 -->
<svg width="160pt" height="112pt"
 viewBox="0.00 0.00 160.00 112.00" xmlns="http://www.w3.org/2000/svg" xmlns:xlink="http://www.w3.org/1999/xlink">
<g id="graph1" class="graph" transform="scale(1 1) rotate(0) translate(4 108)">
<title>Mezzanine::Physics::DefaultCollisionShapeManagerFactory</title>
<polygon fill="white" stroke="white" points="-4,5 -4,-108 157,-108 157,5 -4,5"/>
<!-- Node1 -->
<g id="node1" class="node"><title>Node1</title>
<polygon fill="#bfbfbf" stroke="black" points="-0.5,-1 -0.5,-45 152.5,-45 152.5,-1 -0.5,-1"/>
<text text-anchor="start" x="7.5" y="-32" font-family="FreeSans" font-size="10.00">Mezzanine::Physics</text>
<text text-anchor="start" x="7.5" y="-20" font-family="FreeSans" font-size="10.00">::DefaultCollisionShapeManager</text>
<text text-anchor="middle" x="76" y="-8" font-family="FreeSans" font-size="10.00">Factory</text>
</g>
<!-- Node2 -->
<g id="node2" class="node"><title>Node2</title>
<a xlink:href="classMezzanine_1_1ManagerFactory.html" target="_top" xlink:title="This is a base class for factories that construct the managers the engine uses.">
<polygon fill="white" stroke="black" points="7.5,-83 7.5,-103 144.5,-103 144.5,-83 7.5,-83"/>
<text text-anchor="middle" x="76" y="-90" font-family="FreeSans" font-size="10.00">Mezzanine::ManagerFactory</text>
</a>
</g>
<!-- Node2&#45;&gt;Node1 -->
<g id="edge2" class="edge"><title>Node2&#45;&gt;Node1</title>
<path fill="none" stroke="midnightblue" d="M76,-72.6887C76,-64.0546 76,-53.9636 76,-45.1394"/>
<polygon fill="midnightblue" stroke="midnightblue" points="72.5001,-72.9707 76,-82.9707 79.5001,-72.9707 72.5001,-72.9707"/>
</g>
</g>
</svg>
