<?xml version="1.0" encoding="UTF-8" standalone="no"?>
<!DOCTYPE svg PUBLIC "-//W3C//DTD SVG 1.1//EN"
 "http://www.w3.org/Graphics/SVG/1.1/DTD/svg11.dtd">
<!-- Generated by graphviz version 2.26.3 (20100126.1600)
 -->
<!-- Title: Mezzanine::ObjectSettingGroup Pages: 1 -->
<svg width="454pt" height="430pt"
 viewBox="0.00 0.00 454.00 430.00" xmlns="http://www.w3.org/2000/svg" xmlns:xlink="http://www.w3.org/1999/xlink">
<g id="graph1" class="graph" transform="scale(1 1) rotate(0) translate(4 426)">
<title>Mezzanine::ObjectSettingGroup</title>
<polygon fill="white" stroke="white" points="-4,5 -4,-426 451,-426 451,5 -4,5"/>
<!-- Node1 -->
<g id="node1" class="node"><title>Node1</title>
<polygon fill="#bfbfbf" stroke="black" points="64,-153 64,-185 190,-185 190,-153 64,-153"/>
<text text-anchor="start" x="72" y="-172" font-family="FreeSans" font-size="10.00">Mezzanine::ObjectSetting</text>
<text text-anchor="middle" x="127" y="-160" font-family="FreeSans" font-size="10.00">Group</text>
</g>
<!-- Node9 -->
<g id="node20" class="node"><title>Node9</title>
<polygon fill="white" stroke="#bfbfbf" points="144,-71 144,-103 272,-103 272,-71 144,-71"/>
<text text-anchor="start" x="152" y="-90" font-family="FreeSans" font-size="10.00">std::vector&lt; ObjectSetting</text>
<text text-anchor="middle" x="208" y="-78" font-family="FreeSans" font-size="10.00">Group * &gt;</text>
</g>
<!-- Node1&#45;&gt;Node9 -->
<g id="edge26" class="edge"><title>Node1&#45;&gt;Node9</title>
<path fill="none" stroke="#9a32cd" stroke-dasharray="5,2" d="M148.371,-144.849C155.156,-137.397 162.776,-129.248 170,-122 176.332,-115.647 183.515,-108.917 189.918,-103.074"/>
<polygon fill="#9a32cd" stroke="#9a32cd" points="145.492,-142.815 141.394,-152.585 150.69,-147.503 145.492,-142.815"/>
<text text-anchor="middle" x="191" y="-125" font-family="FreeSans" font-size="10.00"> elements</text>
</g>
<!-- Node2 -->
<g id="node2" class="node"><title>Node2</title>
<a xlink:href="classMezzanine_1_1ObjectSettingSetContainer.html" target="_top" xlink:title="A base class for other classes that store ObjectSettingSet&#39;s.">
<polygon fill="white" stroke="black" points="173,-235 173,-267 299,-267 299,-235 173,-235"/>
<text text-anchor="start" x="181" y="-254" font-family="FreeSans" font-size="10.00">Mezzanine::ObjectSetting</text>
<text text-anchor="middle" x="236" y="-242" font-family="FreeSans" font-size="10.00">SetContainer</text>
</a>
</g>
<!-- Node2&#45;&gt;Node1 -->
<g id="edge2" class="edge"><title>Node2&#45;&gt;Node1</title>
<path fill="none" stroke="midnightblue" d="M206.698,-228.956C188.393,-215.186 165.226,-197.757 148.594,-185.245"/>
<polygon fill="midnightblue" stroke="midnightblue" points="204.63,-231.78 214.725,-234.995 208.838,-226.186 204.63,-231.78"/>
</g>
<!-- Node4 -->
<g id="node6" class="node"><title>Node4</title>
<a xlink:href="classMezzanine_1_1ObjectSettingSet.html" target="_top" xlink:title="A class that store&#39;s a named set of settings for an object.">
<polygon fill="white" stroke="black" points="283.5,-159 283.5,-179 424.5,-179 424.5,-159 283.5,-159"/>
<text text-anchor="middle" x="354" y="-166" font-family="FreeSans" font-size="10.00">Mezzanine::ObjectSettingSet</text>
</a>
</g>
<!-- Node2&#45;&gt;Node4 -->
<g id="edge8" class="edge"><title>Node2&#45;&gt;Node4</title>
<path fill="none" stroke="midnightblue" d="M247.504,-225.866C252.057,-218.042 257.915,-209.923 265,-204 278.757,-192.499 296.747,-184.472 312.949,-179.036"/>
<polygon fill="midnightblue" stroke="midnightblue" points="244.376,-224.294 242.765,-234.766 250.555,-227.584 244.376,-224.294"/>
</g>
<!-- Node2&#45;&gt;Node4 -->
<g id="edge10" class="edge"><title>Node2&#45;&gt;Node4</title>
<path fill="none" stroke="#9a32cd" stroke-dasharray="5,2" d="M255.798,-227.055C263.163,-219.078 271.944,-210.563 281,-204 295.226,-193.691 312.964,-185.104 327.392,-179.016"/>
<polygon fill="#9a32cd" stroke="#9a32cd" points="252.976,-224.961 248.947,-234.76 258.207,-229.613 252.976,-224.961"/>
<text text-anchor="middle" x="322.5" y="-207" font-family="FreeSans" font-size="10.00"> ParentSetOrGroup</text>
</g>
<!-- Node3 -->
<g id="node4" class="node"><title>Node3</title>
<polygon fill="white" stroke="#bfbfbf" points="290,-71 290,-103 418,-103 418,-71 290,-71"/>
<text text-anchor="start" x="298" y="-90" font-family="FreeSans" font-size="10.00">std::vector&lt; ObjectSetting</text>
<text text-anchor="middle" x="354" y="-78" font-family="FreeSans" font-size="10.00">Set * &gt;</text>
</g>
<!-- Node3&#45;&gt;Node2 -->
<g id="edge4" class="edge"><title>Node3&#45;&gt;Node2</title>
<path fill="none" stroke="#9a32cd" stroke-dasharray="5,2" d="M289.051,-107.257C268.051,-117.231 247.084,-131.63 235,-152 219.741,-177.722 225.686,-214.214 231.061,-234.952"/>
<polygon fill="#9a32cd" stroke="#9a32cd" points="290.638,-110.382 298.348,-103.115 287.789,-103.988 290.638,-110.382"/>
<text text-anchor="middle" x="255" y="-166" font-family="FreeSans" font-size="10.00"> SubSets</text>
</g>
<!-- Node4&#45;&gt;Node3 -->
<g id="edge6" class="edge"><title>Node4&#45;&gt;Node3</title>
<path fill="none" stroke="#9a32cd" stroke-dasharray="5,2" d="M354,-148.789C354,-134.697 354,-116.15 354,-103.066"/>
<polygon fill="#9a32cd" stroke="#9a32cd" points="350.5,-148.945 354,-158.945 357.5,-148.945 350.5,-148.945"/>
<text text-anchor="middle" x="375" y="-125" font-family="FreeSans" font-size="10.00"> elements</text>
</g>
<!-- Node5 -->
<g id="node10" class="node"><title>Node5</title>
<polygon fill="white" stroke="#bfbfbf" points="321.5,-241 321.5,-261 446.5,-261 446.5,-241 321.5,-241"/>
<text text-anchor="middle" x="384" y="-248" font-family="FreeSans" font-size="10.00">std::map&lt; String, String &gt;</text>
</g>
<!-- Node5&#45;&gt;Node4 -->
<g id="edge12" class="edge"><title>Node5&#45;&gt;Node4</title>
<path fill="none" stroke="#9a32cd" stroke-dasharray="5,2" d="M377.509,-231.181C374.687,-222.764 371.28,-212.867 368,-204 364.867,-195.53 361.043,-186.021 358.184,-179.054"/>
<polygon fill="#9a32cd" stroke="#9a32cd" points="374.25,-232.47 380.719,-240.861 380.894,-230.268 374.25,-232.47"/>
<text text-anchor="middle" x="391" y="-207" font-family="FreeSans" font-size="10.00"> Settings</text>
</g>
<!-- Node6 -->
<g id="node12" class="node"><title>Node6</title>
<a xlink:title="STL class.">
<polygon fill="white" stroke="#bfbfbf" points="207.5,-329 207.5,-349 264.5,-349 264.5,-329 207.5,-329"/>
<text text-anchor="middle" x="236" y="-336" font-family="FreeSans" font-size="10.00">std::string</text>
</a>
</g>
<!-- Node6&#45;&gt;Node2 -->
<g id="edge18" class="edge"><title>Node6&#45;&gt;Node2</title>
<path fill="none" stroke="#9a32cd" stroke-dasharray="5,2" d="M236,-318.706C236,-303.072 236,-281.746 236,-267.233"/>
<polygon fill="#9a32cd" stroke="#9a32cd" points="232.5,-318.905 236,-328.905 239.5,-318.905 232.5,-318.905"/>
<text text-anchor="middle" x="271" y="-295" font-family="FreeSans" font-size="10.00"> ContainerName</text>
</g>
<!-- Node6&#45;&gt;Node5 -->
<g id="edge14" class="edge"><title>Node6&#45;&gt;Node5</title>
<path fill="none" stroke="#9a32cd" stroke-dasharray="5,2" d="M274.291,-326.496C286.088,-321.99 298.888,-316.411 310,-310 334.479,-295.877 359.469,-274.098 373.233,-261.326"/>
<polygon fill="#9a32cd" stroke="#9a32cd" points="272.859,-323.293 264.676,-330.023 275.27,-329.865 272.859,-323.293"/>
<text text-anchor="middle" x="364" y="-301" font-family="FreeSans" font-size="10.00"> keys</text>
<text text-anchor="middle" x="364" y="-289" font-family="FreeSans" font-size="10.00">elements</text>
</g>
<!-- Node8 -->
<g id="node17" class="node"><title>Node8</title>
<a xlink:href="classMezzanine_1_1ObjectSettingFile.html" target="_top" xlink:title="This class represents a file to be saved containing one or more OhjectSettingGroup&#39;s.">
<polygon fill="white" stroke="black" points="0,-1 0,-21 142,-21 142,-1 0,-1"/>
<text text-anchor="middle" x="71" y="-8" font-family="FreeSans" font-size="10.00">Mezzanine::ObjectSettingFile</text>
</a>
</g>
<!-- Node6&#45;&gt;Node8 -->
<g id="edge22" class="edge"><title>Node6&#45;&gt;Node8</title>
<path fill="none" stroke="#9a32cd" stroke-dasharray="5,2" d="M197.057,-331.085C136.091,-317.562 25,-287.863 25,-251 25,-251 25,-251 25,-87 25,-60.1638 46.2509,-34.698 59.8647,-21.1373"/>
<polygon fill="#9a32cd" stroke="#9a32cd" points="196.589,-334.565 207.104,-333.268 198.075,-327.725 196.589,-334.565"/>
<text text-anchor="middle" x="34.5" y="-166" font-family="FreeSans" font-size="10.00"> File</text>
</g>
<!-- Node7 -->
<g id="node14" class="node"><title>Node7</title>
<a xlink:title="STL class.">
<polygon fill="white" stroke="#bfbfbf" points="190.5,-389 190.5,-421 281.5,-421 281.5,-389 190.5,-389"/>
<text text-anchor="start" x="198.5" y="-408" font-family="FreeSans" font-size="10.00">std::basic_string&lt;</text>
<text text-anchor="middle" x="236" y="-396" font-family="FreeSans" font-size="10.00"> char &gt;</text>
</a>
</g>
<!-- Node7&#45;&gt;Node6 -->
<g id="edge16" class="edge"><title>Node7&#45;&gt;Node6</title>
<path fill="none" stroke="midnightblue" d="M236,-378.45C236,-368.156 236,-356.991 236,-349.175"/>
<polygon fill="midnightblue" stroke="midnightblue" points="232.5,-378.685 236,-388.685 239.5,-378.685 232.5,-378.685"/>
</g>
<!-- Node8&#45;&gt;Node1 -->
<g id="edge20" class="edge"><title>Node8&#45;&gt;Node1</title>
<path fill="none" stroke="#9a32cd" stroke-dasharray="5,2" d="M69.9592,-31.2215C69.6502,-50.5365 70.9895,-80.1528 80,-104 86.9894,-122.498 100.686,-140.474 111.498,-152.815"/>
<polygon fill="#9a32cd" stroke="#9a32cd" points="73.4594,-31.2694 70.2861,-21.1609 66.4631,-31.042 73.4594,-31.2694"/>
<text text-anchor="middle" x="107.5" y="-84" font-family="FreeSans" font-size="10.00"> OptionalFile</text>
</g>
<!-- Node9&#45;&gt;Node8 -->
<g id="edge24" class="edge"><title>Node9&#45;&gt;Node8</title>
<path fill="none" stroke="#9a32cd" stroke-dasharray="5,2" d="M169.962,-65.8987C143.573,-51.2596 109.61,-32.4187 89.113,-21.0481"/>
<polygon fill="#9a32cd" stroke="#9a32cd" points="168.503,-69.0919 178.946,-70.8824 171.899,-62.9707 168.503,-69.0919"/>
<text text-anchor="middle" x="170.5" y="-43" font-family="FreeSans" font-size="10.00"> SaveGroups</text>
</g>
</g>
</svg>
