<?xml version="1.0" encoding="UTF-8" standalone="no"?>
<!DOCTYPE svg PUBLIC "-//W3C//DTD SVG 1.1//EN"
 "http://www.w3.org/Graphics/SVG/1.1/DTD/svg11.dtd">
<!-- Generated by graphviz version 2.26.3 (20100126.1600)
 -->
<!-- Title: Mezzanine::Graphics::RenderableProxy Pages: 1 -->
<!--zoomable 240 -->
<svg id="main" version="1.1" xmlns="http://www.w3.org/2000/svg" xmlns:xlink="http://www.w3.org/1999/xlink" xml:space="preserve" onload="init(evt)">
        <defs>
                <circle id="rim" cx="0" cy="0" r="7"/>
                <circle id="rim2" cx="0" cy="0" r="3.5"/>
                <g id="zoomPlus">
                        <use xlink:href="#rim" fill="#404040">
                                <set attributeName="fill" to="#808080" begin="zoomplus.mouseover" end="zoomplus.mouseout"/>
                        </use>
                        <path d="M-4,0h8M0,-4v8" fill="none" stroke="white" stroke-width="1.5" pointer-events="none"/>
                </g>
                <g id="zoomMin">
                        <use xlink:href="#rim" fill="#404040">
                                <set attributeName="fill" to="#808080" begin="zoomminus.mouseover" end="zoomminus.mouseout"/>
                        </use>
                        <path d="M-4,0h8" fill="none" stroke="white" stroke-width="1.5" pointer-events="none"/>
                </g>
                <g id="dirArrow">
                        <path fill="none" stroke="white" stroke-width="1.5" d="M0,-3.0v7 M-2.5,-0.5L0,-3.0L2.5,-0.5"/>
                </g>
               <g id="resetDef">
                       <use xlink:href="#rim2" fill="#404040">
                               <set attributeName="fill" to="#808080" begin="reset.mouseover" end="reset.mouseout"/>
                       </use>
               </g>
        </defs>

<script type="text/javascript">
var viewWidth = 576;
var viewHeight = 240;
var sectionId = 'dynsection-0';
</script>
<script xlink:href="svgpan.js"/>
<svg id="graph" class="graph">
<g id="viewport">
<title>Mezzanine::Graphics::RenderableProxy</title>
<polygon fill="white" stroke="white" points="-4,5 -4,-236 573,-236 573,5 -4,5"/>
<!-- Node1 -->
<g id="node1" class="node"><title>Node1</title>
<polygon fill="#bfbfbf" stroke="black" points="316.5,-100 316.5,-132 421.5,-132 421.5,-100 316.5,-100"/>
<text text-anchor="start" x="324.5" y="-119" font-family="FreeSans" font-size="10.00">Mezzanine::Graphics</text>
<text text-anchor="middle" x="369" y="-107" font-family="FreeSans" font-size="10.00">::RenderableProxy</text>
</g>
<!-- Node4 -->
<g id="node7" class="node"><title>Node4</title>
<a xlink:href="classMezzanine_1_1Graphics_1_1BillboardSetProxy.html" target="_top" xlink:title="This is the proxy class for placing and manipulating a set of 2D billboards in the scene...">
<polygon fill="white" stroke="black" points="460.5,-200 460.5,-232 565.5,-232 565.5,-200 460.5,-200"/>
<text text-anchor="start" x="468.5" y="-219" font-family="FreeSans" font-size="10.00">Mezzanine::Graphics</text>
<text text-anchor="middle" x="513" y="-207" font-family="FreeSans" font-size="10.00">::BillboardSetProxy</text>
</a>
</g>
<!-- Node1&#45;&gt;Node4 -->
<g id="edge6" class="edge"><title>Node1&#45;&gt;Node4</title>
<path fill="none" stroke="midnightblue" d="M392.67,-139.066C409.842,-154.992 434.149,-175.933 458,-191 463.054,-194.193 468.585,-197.204 474.128,-199.955"/>
<polygon fill="midnightblue" stroke="midnightblue" points="394.991,-136.445 385.31,-132.141 390.195,-141.543 394.991,-136.445"/>
</g>
<!-- Node5 -->
<g id="node9" class="node"><title>Node5</title>
<a xlink:href="classMezzanine_1_1Graphics_1_1CameraProxy.html" target="_top" xlink:title="This is the proxy class for placing and manipulating a camera in the scene.">
<polygon fill="white" stroke="black" points="460.5,-150 460.5,-182 565.5,-182 565.5,-150 460.5,-150"/>
<text text-anchor="start" x="468.5" y="-169" font-family="FreeSans" font-size="10.00">Mezzanine::Graphics</text>
<text text-anchor="middle" x="513" y="-157" font-family="FreeSans" font-size="10.00">::CameraProxy</text>
</a>
</g>
<!-- Node1&#45;&gt;Node5 -->
<g id="edge8" class="edge"><title>Node1&#45;&gt;Node5</title>
<path fill="none" stroke="midnightblue" d="M425.194,-135.512C438.945,-140.287 453.506,-145.342 466.732,-149.935"/>
<polygon fill="midnightblue" stroke="midnightblue" points="425.95,-132.069 415.355,-132.096 423.654,-138.682 425.95,-132.069"/>
</g>
<!-- Node6 -->
<g id="node11" class="node"><title>Node6</title>
<a xlink:href="classMezzanine_1_1Graphics_1_1EntityProxy.html" target="_top" xlink:title="This is the proxy class for placing and manipulating a mesh in the scene.">
<polygon fill="white" stroke="black" points="460.5,-100 460.5,-132 565.5,-132 565.5,-100 460.5,-100"/>
<text text-anchor="start" x="468.5" y="-119" font-family="FreeSans" font-size="10.00">Mezzanine::Graphics</text>
<text text-anchor="middle" x="513" y="-107" font-family="FreeSans" font-size="10.00">::EntityProxy</text>
</a>
</g>
<!-- Node1&#45;&gt;Node6 -->
<g id="edge10" class="edge"><title>Node1&#45;&gt;Node6</title>
<path fill="none" stroke="midnightblue" d="M431.927,-116C441.362,-116 451.008,-116 460.204,-116"/>
<polygon fill="midnightblue" stroke="midnightblue" points="431.803,-112.5 421.803,-116 431.803,-119.5 431.803,-112.5"/>
</g>
<!-- Node7 -->
<g id="node13" class="node"><title>Node7</title>
<a xlink:href="classMezzanine_1_1Graphics_1_1LightProxy.html" target="_top" xlink:title="This is the proxy class for placing and manipulating lighting in the scene.">
<polygon fill="white" stroke="black" points="460.5,-50 460.5,-82 565.5,-82 565.5,-50 460.5,-50"/>
<text text-anchor="start" x="468.5" y="-69" font-family="FreeSans" font-size="10.00">Mezzanine::Graphics</text>
<text text-anchor="middle" x="513" y="-57" font-family="FreeSans" font-size="10.00">::LightProxy</text>
</a>
</g>
<!-- Node1&#45;&gt;Node7 -->
<g id="edge12" class="edge"><title>Node1&#45;&gt;Node7</title>
<path fill="none" stroke="midnightblue" d="M425.194,-96.4881C438.945,-91.7134 453.506,-86.6578 466.732,-82.0654"/>
<polygon fill="midnightblue" stroke="midnightblue" points="423.654,-93.3179 415.355,-99.9045 425.95,-99.9306 423.654,-93.3179"/>
</g>
<!-- Node8 -->
<g id="node15" class="node"><title>Node8</title>
<a xlink:href="classMezzanine_1_1Graphics_1_1ParticleSystemProxy.html" target="_top" xlink:title="This is the proxy class for placing and manipulating particles in the scene.">
<polygon fill="white" stroke="black" points="458,-0 458,-32 568,-32 568,-0 458,-0"/>
<text text-anchor="start" x="466" y="-19" font-family="FreeSans" font-size="10.00">Mezzanine::Graphics</text>
<text text-anchor="middle" x="513" y="-7" font-family="FreeSans" font-size="10.00">::ParticleSystemProxy</text>
</a>
</g>
<!-- Node1&#45;&gt;Node8 -->
<g id="edge14" class="edge"><title>Node1&#45;&gt;Node8</title>
<path fill="none" stroke="midnightblue" d="M392.67,-92.9336C409.842,-77.0078 434.149,-56.0674 458,-41 463.054,-37.8069 468.585,-34.7963 474.128,-32.0453"/>
<polygon fill="midnightblue" stroke="midnightblue" points="390.195,-90.4572 385.31,-99.8588 394.991,-95.5554 390.195,-90.4572"/>
</g>
<!-- Node2 -->
<g id="node2" class="node"><title>Node2</title>
<a xlink:href="classMezzanine_1_1WorldProxy.html" target="_top" xlink:title="This is the base class for proxy objects belonging to the various 3D subsystems.">
<polygon fill="white" stroke="black" points="164,-106 164,-126 280,-126 280,-106 164,-106"/>
<text text-anchor="middle" x="222" y="-113" font-family="FreeSans" font-size="10.00">Mezzanine::WorldProxy</text>
</a>
</g>
<!-- Node2&#45;&gt;Node1 -->
<g id="edge2" class="edge"><title>Node2&#45;&gt;Node1</title>
<path fill="none" stroke="midnightblue" d="M290.224,-116C298.913,-116 307.701,-116 316.098,-116"/>
<polygon fill="midnightblue" stroke="midnightblue" points="290.098,-112.5 280.098,-116 290.098,-119.5 290.098,-112.5"/>
</g>
<!-- Node3 -->
<g id="node4" class="node"><title>Node3</title>
<a xlink:href="classMezzanine_1_1TransformableObject.html" target="_top" xlink:title="This is an interface for all 3D objects that can have their full transforms manipulated.">
<polygon fill="white" stroke="black" points="0,-100 0,-132 128,-132 128,-100 0,-100"/>
<text text-anchor="start" x="8" y="-119" font-family="FreeSans" font-size="10.00">Mezzanine::Transformable</text>
<text text-anchor="middle" x="64" y="-107" font-family="FreeSans" font-size="10.00">Object</text>
</a>
</g>
<!-- Node3&#45;&gt;Node2 -->
<g id="edge4" class="edge"><title>Node3&#45;&gt;Node2</title>
<path fill="none" stroke="midnightblue" d="M138.296,-116C146.891,-116 155.561,-116 163.896,-116"/>
<polygon fill="midnightblue" stroke="midnightblue" points="138.265,-112.5 128.265,-116 138.265,-119.5 138.265,-112.5"/>
</g>
</g>
</svg>
        <g id="navigator" transform="translate(0 0)" fill="#404254">
                <rect fill="#f2f5e9" fill-opacity="0.5" stroke="#606060" stroke-width=".5" x="0" y="0" width="60" height="60"/>
                <use id="zoomplus" xlink:href="#zoomPlus" x="17" y="9" onmousedown="handleZoom(evt,'in')"/>
                <use id="zoomminus" xlink:href="#zoomMin" x="42" y="9" onmousedown="handleZoom(evt,'out')"/>
                <use id="reset" xlink:href="#resetDef" x="30" y="36" onmousedown="handleReset()"/>
                <g id="arrowUp" xlink:href="#dirArrow" transform="translate(30 24)" onmousedown="handlePan(0,-1)">
                  <use xlink:href="#rim" fill="#404040">
                        <set attributeName="fill" to="#808080" begin="arrowUp.mouseover" end="arrowUp.mouseout"/>
                  </use>
                  <path fill="none" stroke="white" stroke-width="1.5" d="M0,-3.0v7 M-2.5,-0.5L0,-3.0L2.5,-0.5"/>
                </g>
                <g id="arrowRight" xlink:href="#dirArrow" transform="rotate(90) translate(36 -43)" onmousedown="handlePan(1,0)">
                  <use xlink:href="#rim" fill="#404040">
                        <set attributeName="fill" to="#808080" begin="arrowRight.mouseover" end="arrowRight.mouseout"/>
                  </use>
                  <path fill="none" stroke="white" stroke-width="1.5" d="M0,-3.0v7 M-2.5,-0.5L0,-3.0L2.5,-0.5"/>
                </g>
                <g id="arrowDown" xlink:href="#dirArrow" transform="rotate(180) translate(-30 -48)" onmousedown="handlePan(0,1)">
                  <use xlink:href="#rim" fill="#404040">
                        <set attributeName="fill" to="#808080" begin="arrowDown.mouseover" end="arrowDown.mouseout"/>
                  </use>
                  <path fill="none" stroke="white" stroke-width="1.5" d="M0,-3.0v7 M-2.5,-0.5L0,-3.0L2.5,-0.5"/>
                </g>
                <g id="arrowLeft" xlink:href="#dirArrow" transform="rotate(270) translate(-36 17)" onmousedown="handlePan(-1,0)">
                  <use xlink:href="#rim" fill="#404040">
                        <set attributeName="fill" to="#808080" begin="arrowLeft.mouseover" end="arrowLeft.mouseout"/>
                  </use>
                  <path fill="none" stroke="white" stroke-width="1.5" d="M0,-3.0v7 M-2.5,-0.5L0,-3.0L2.5,-0.5"/>
                </g>
        </g>
        <svg viewBox="0 0 15 15" width="100%" height="30px" preserveAspectRatio="xMaxYMin meet">
         <g id="arrow_out" transform="scale(0.3 0.3)">
          <a xlink:href="classMezzanine_1_1Graphics_1_1RenderableProxy__inherit__graph_org.svg" target="_base">
           <rect id="button" ry="5" rx="5" y="6" x="6" height="38" width="38"
                fill="#f2f5e9" fill-opacity="0.5" stroke="#606060" stroke-width="1.0"/>
           <path id="arrow"
             d="M 11.500037,31.436501 C 11.940474,20.09759 22.043105,11.32322 32.158766,21.979434 L 37.068811,17.246167 C 37.068811,17.246167 37.088388,32 37.088388,32 L 22.160133,31.978069 C 22.160133,31.978069 26.997745,27.140456 26.997745,27.140456 C 18.528582,18.264221 13.291696,25.230495 11.500037,31.436501 z"
             style="fill:#404040;"/>
          </a>
         </g>
        </svg>
</svg>
