<?xml version="1.0" encoding="UTF-8" standalone="no"?>
<!DOCTYPE svg PUBLIC "-//W3C//DTD SVG 1.1//EN"
 "http://www.w3.org/Graphics/SVG/1.1/DTD/svg11.dtd">
<!-- Generated by graphviz version 2.38.0 (20140413.2041)
 -->
<!-- Title: Mezzanine::Graphics::Procedural::PlaneGenerator Pages: 1 -->
<svg width="534pt" height="139pt"
 viewBox="0.00 0.00 534.00 139.00" xmlns="http://www.w3.org/2000/svg" xmlns:xlink="http://www.w3.org/1999/xlink">
<g id="graph0" class="graph" transform="scale(1 1) rotate(0) translate(4 135)">
<title>Mezzanine::Graphics::Procedural::PlaneGenerator</title>
<polygon fill="white" stroke="none" points="-4,4 -4,-135 530,-135 530,4 -4,4"/>
<!-- Node1 -->
<g id="node1" class="node"><title>Node1</title>
<polygon fill="#bfbfbf" stroke="black" points="383,-57 383,-87 526,-87 526,-57 383,-57"/>
<text text-anchor="start" x="391" y="-75" font-family="Helvetica,sans-Serif" font-size="10.00">Mezzanine::Graphics</text>
<text text-anchor="middle" x="454.5" y="-64" font-family="Helvetica,sans-Serif" font-size="10.00">::Procedural::PlaneGenerator</text>
</g>
<!-- Node2 -->
<g id="node2" class="node"><title>Node2</title>
<g id="a_node2"><a xlink:href="classMezzanine_1_1Graphics_1_1Procedural_1_1MeshGenerator.html" target="_top" xlink:title="Mezzanine::Graphics\l::Procedural::MeshGenerator\l\&lt; PlaneGenerator \&gt;">
<polygon fill="white" stroke="black" points="204,-51.5 204,-92.5 346,-92.5 346,-51.5 204,-51.5"/>
<text text-anchor="start" x="212" y="-80.5" font-family="Helvetica,sans-Serif" font-size="10.00">Mezzanine::Graphics</text>
<text text-anchor="start" x="212" y="-69.5" font-family="Helvetica,sans-Serif" font-size="10.00">::Procedural::MeshGenerator</text>
<text text-anchor="middle" x="275" y="-58.5" font-family="Helvetica,sans-Serif" font-size="10.00">&lt; PlaneGenerator &gt;</text>
</a>
</g>
</g>
<!-- Node2&#45;&gt;Node1 -->
<g id="edge1" class="edge"><title>Node2&#45;&gt;Node1</title>
<path fill="none" stroke="midnightblue" d="M356.178,-72C365.119,-72 374.177,-72 382.985,-72"/>
<polygon fill="midnightblue" stroke="midnightblue" points="356.153,-68.5001 346.153,-72 356.153,-75.5001 356.153,-68.5001"/>
</g>
<!-- Node3 -->
<g id="node3" class="node"><title>Node3</title>
<g id="a_node3"><a xlink:href="classMezzanine_1_1Vector2.html" target="_top" xlink:title="This is used to represent a point on a 2 dimentional area, such as a screen. ">
<polygon fill="white" stroke="black" points="6.5,-111.5 6.5,-130.5 110.5,-130.5 110.5,-111.5 6.5,-111.5"/>
<text text-anchor="middle" x="58.5" y="-118.5" font-family="Helvetica,sans-Serif" font-size="10.00">Mezzanine::Vector2</text>
</a>
</g>
</g>
<!-- Node3&#45;&gt;Node1 -->
<g id="edge5" class="edge"><title>Node3&#45;&gt;Node1</title>
<path fill="none" stroke="#9a32cd" stroke-dasharray="5,2" d="M120.842,-121.157C179.218,-120.315 269.283,-116.429 346,-102 365.995,-98.2394 387.672,-92.5169 406.288,-87.0744"/>
<polygon fill="#9a32cd" stroke="#9a32cd" points="120.637,-117.659 110.679,-121.277 120.72,-124.659 120.637,-117.659"/>
<text text-anchor="middle" x="275" y="-120" font-family="Helvetica,sans-Serif" font-size="10.00"> PlaneSize</text>
</g>
<!-- Node3&#45;&gt;Node2 -->
<g id="edge2" class="edge"><title>Node3&#45;&gt;Node2</title>
<path fill="none" stroke="#9a32cd" stroke-dasharray="5,2" d="M111.022,-109.23C138.826,-102.879 173.55,-94.9467 203.793,-88.0379"/>
<polygon fill="#9a32cd" stroke="#9a32cd" points="110.081,-105.855 101.112,-111.494 111.64,-112.679 110.081,-105.855"/>
<text text-anchor="middle" x="160.5" y="-106" font-family="Helvetica,sans-Serif" font-size="10.00"> UVOrigin</text>
</g>
<!-- Node4 -->
<g id="node4" class="node"><title>Node4</title>
<g id="a_node4"><a xlink:href="classMezzanine_1_1Vector3.html" target="_top" xlink:title="This is used to represent a point in space, or a vector through space. ">
<polygon fill="white" stroke="black" points="6.5,-0.5 6.5,-19.5 110.5,-19.5 110.5,-0.5 6.5,-0.5"/>
<text text-anchor="middle" x="58.5" y="-7.5" font-family="Helvetica,sans-Serif" font-size="10.00">Mezzanine::Vector3</text>
</a>
</g>
</g>
<!-- Node4&#45;&gt;Node1 -->
<g id="edge6" class="edge"><title>Node4&#45;&gt;Node1</title>
<path fill="none" stroke="#9a32cd" stroke-dasharray="5,2" d="M120.794,-9.37049C179.318,-9.96698 269.647,-14.0248 346,-31 372.128,-36.8089 400.357,-47.7701 421.328,-56.8981"/>
<polygon fill="#9a32cd" stroke="#9a32cd" points="120.631,-5.86934 110.606,-9.29843 120.581,-12.8692 120.631,-5.86934"/>
<text text-anchor="middle" x="275" y="-34" font-family="Helvetica,sans-Serif" font-size="10.00"> PlaneNormal</text>
</g>
<!-- Node4&#45;&gt;Node2 -->
<g id="edge3" class="edge"><title>Node4&#45;&gt;Node2</title>
<path fill="none" stroke="#9a32cd" stroke-dasharray="5,2" d="M103.04,-22.2745C127.448,-29.1846 158.437,-38.0065 186,-46 192.12,-47.7749 198.476,-49.6299 204.845,-51.4967"/>
<polygon fill="#9a32cd" stroke="#9a32cd" points="103.927,-18.8883 93.3521,-19.5343 102.022,-25.624 103.927,-18.8883"/>
<text text-anchor="middle" x="160.5" y="-60" font-family="Helvetica,sans-Serif" font-size="10.00"> Scale</text>
<text text-anchor="middle" x="160.5" y="-49" font-family="Helvetica,sans-Serif" font-size="10.00">Position</text>
</g>
<!-- Node5 -->
<g id="node5" class="node"><title>Node5</title>
<g id="a_node5"><a xlink:href="classMezzanine_1_1Quaternion.html" target="_top" xlink:title="This is used to store information about rotation in 3d space. ">
<polygon fill="white" stroke="black" points="0,-62.5 0,-81.5 117,-81.5 117,-62.5 0,-62.5"/>
<text text-anchor="middle" x="58.5" y="-69.5" font-family="Helvetica,sans-Serif" font-size="10.00">Mezzanine::Quaternion</text>
</a>
</g>
</g>
<!-- Node5&#45;&gt;Node2 -->
<g id="edge4" class="edge"><title>Node5&#45;&gt;Node2</title>
<path fill="none" stroke="#9a32cd" stroke-dasharray="5,2" d="M127.496,-72C151.86,-72 179.359,-72 203.897,-72"/>
<polygon fill="#9a32cd" stroke="#9a32cd" points="127.264,-68.5001 117.264,-72 127.264,-75.5001 127.264,-68.5001"/>
<text text-anchor="middle" x="160.5" y="-75" font-family="Helvetica,sans-Serif" font-size="10.00"> Orientation</text>
</g>
</g>
</svg>
