<?xml version="1.0" encoding="UTF-8" standalone="no"?>
<!DOCTYPE svg PUBLIC "-//W3C//DTD SVG 1.1//EN"
 "http://www.w3.org/Graphics/SVG/1.1/DTD/svg11.dtd">
<!-- Generated by graphviz version 2.38.0 (20140413.2041)
 -->
<!-- Title: Mezzanine::UI::PositioningInfo Pages: 1 -->
<svg width="159pt" height="173pt"
 viewBox="0.00 0.00 159.00 173.00" xmlns="http://www.w3.org/2000/svg" xmlns:xlink="http://www.w3.org/1999/xlink">
<g id="graph0" class="graph" transform="scale(1 1) rotate(0) translate(4 169)">
<title>Mezzanine::UI::PositioningInfo</title>
<polygon fill="white" stroke="none" points="-4,4 -4,-169 155,-169 155,4 -4,4"/>
<!-- Node1 -->
<g id="node1" class="node"><title>Node1</title>
<polygon fill="#bfbfbf" stroke="black" points="0,-0.5 0,-19.5 151,-19.5 151,-0.5 0,-0.5"/>
<text text-anchor="middle" x="75.5" y="-7.5" font-family="Helvetica,sans-Serif" font-size="10.00">Mezzanine::UI::PositioningInfo</text>
</g>
<!-- Node2 -->
<g id="node2" class="node"><title>Node2</title>
<g id="a_node2"><a xlink:href="classMezzanine_1_1UI_1_1UnifiedVec2.html" target="_top" xlink:title="This class represents a point in 2D space using UnifiedDim&#39;s. ">
<polygon fill="white" stroke="black" points="5.5,-67.5 5.5,-86.5 145.5,-86.5 145.5,-67.5 5.5,-67.5"/>
<text text-anchor="middle" x="75.5" y="-74.5" font-family="Helvetica,sans-Serif" font-size="10.00">Mezzanine::UI::UnifiedVec2</text>
</a>
</g>
</g>
<!-- Node2&#45;&gt;Node1 -->
<g id="edge1" class="edge"><title>Node2&#45;&gt;Node1</title>
<path fill="none" stroke="#9a32cd" stroke-dasharray="5,2" d="M75.5,-57.037C75.5,-44.6703 75.5,-29.1198 75.5,-19.6273"/>
<polygon fill="#9a32cd" stroke="#9a32cd" points="72.0001,-57.2338 75.5,-67.2338 79.0001,-57.2338 72.0001,-57.2338"/>
<text text-anchor="middle" x="98.5" y="-41" font-family="Helvetica,sans-Serif" font-size="10.00"> UPosition</text>
</g>
<!-- Node3 -->
<g id="node3" class="node"><title>Node3</title>
<g id="a_node3"><a xlink:href="classMezzanine_1_1UI_1_1UnifiedDim.html" target="_top" xlink:title="This class represents both the relative and absolute values that can be expressed for the values on o...">
<polygon fill="white" stroke="black" points="8,-145.5 8,-164.5 143,-164.5 143,-145.5 8,-145.5"/>
<text text-anchor="middle" x="75.5" y="-152.5" font-family="Helvetica,sans-Serif" font-size="10.00">Mezzanine::UI::UnifiedDim</text>
</a>
</g>
</g>
<!-- Node3&#45;&gt;Node2 -->
<g id="edge2" class="edge"><title>Node3&#45;&gt;Node2</title>
<path fill="none" stroke="#9a32cd" stroke-dasharray="5,2" d="M75.5,-135.224C75.5,-119.697 75.5,-98.3582 75.5,-86.6165"/>
<polygon fill="#9a32cd" stroke="#9a32cd" points="72.0001,-135.282 75.5,-145.282 79.0001,-135.282 72.0001,-135.282"/>
<text text-anchor="middle" x="80.5" y="-119" font-family="Helvetica,sans-Serif" font-size="10.00"> X</text>
<text text-anchor="middle" x="80.5" y="-108" font-family="Helvetica,sans-Serif" font-size="10.00">Y</text>
</g>
</g>
</svg>
