<?xml version="1.0" encoding="UTF-8" standalone="no"?>
<!DOCTYPE svg PUBLIC "-//W3C//DTD SVG 1.1//EN"
 "http://www.w3.org/Graphics/SVG/1.1/DTD/svg11.dtd">
<!-- Generated by graphviz version 2.26.3 (20100126.1600)
 -->
<!-- Title: Mezzanine::Physics::DebugDrawWorkUnit Pages: 1 -->
<!--zoomable 596 -->
<svg id="main" version="1.1" xmlns="http://www.w3.org/2000/svg" xmlns:xlink="http://www.w3.org/1999/xlink" xml:space="preserve" onload="init(evt)">
        <defs>
                <circle id="rim" cx="0" cy="0" r="7"/>
                <circle id="rim2" cx="0" cy="0" r="3.5"/>
                <g id="zoomPlus">
                        <use xlink:href="#rim" fill="#404040">
                                <set attributeName="fill" to="#808080" begin="zoomplus.mouseover" end="zoomplus.mouseout"/>
                        </use>
                        <path d="M-4,0h8M0,-4v8" fill="none" stroke="white" stroke-width="1.5" pointer-events="none"/>
                </g>
                <g id="zoomMin">
                        <use xlink:href="#rim" fill="#404040">
                                <set attributeName="fill" to="#808080" begin="zoomminus.mouseover" end="zoomminus.mouseout"/>
                        </use>
                        <path d="M-4,0h8" fill="none" stroke="white" stroke-width="1.5" pointer-events="none"/>
                </g>
                <g id="dirArrow">
                        <path fill="none" stroke="white" stroke-width="1.5" d="M0,-3.0v7 M-2.5,-0.5L0,-3.0L2.5,-0.5"/>
                </g>
               <g id="resetDef">
                       <use xlink:href="#rim2" fill="#404040">
                               <set attributeName="fill" to="#808080" begin="reset.mouseover" end="reset.mouseout"/>
                       </use>
               </g>
        </defs>

<script type="text/javascript">
var viewWidth = 2352;
var viewHeight = 596;
var sectionId = 'dynsection-1';
</script>
<script xlink:href="svgpan.js"/>
<svg id="graph" class="graph">
<g id="viewport">
<title>Mezzanine::Physics::DebugDrawWorkUnit</title>
<polygon fill="white" stroke="white" points="-4,5 -4,-592 2349,-592 2349,5 -4,5"/>
<!-- Node1 -->
<g id="node1" class="node"><title>Node1</title>
<polygon fill="#bfbfbf" stroke="black" points="710,-506 710,-538 820,-538 820,-506 710,-506"/>
<text text-anchor="start" x="718" y="-525" font-family="FreeSans" font-size="10.00">Mezzanine::Physics</text>
<text text-anchor="middle" x="765" y="-513" font-family="FreeSans" font-size="10.00">::DebugDrawWorkUnit</text>
</g>
<!-- Node6 -->
<g id="node11" class="node"><title>Node6</title>
<a xlink:href="classMezzanine_1_1Physics_1_1PhysicsManager.html" target="_top" xlink:title="This is simply a place for storing all the Physics Related functions.">
<polygon fill="white" stroke="black" points="991,-415 991,-447 1091,-447 1091,-415 991,-415"/>
<text text-anchor="start" x="999" y="-434" font-family="FreeSans" font-size="10.00">Mezzanine::Physics</text>
<text text-anchor="middle" x="1041" y="-422" font-family="FreeSans" font-size="10.00">::PhysicsManager</text>
</a>
</g>
<!-- Node1&#45;&gt;Node6 -->
<g id="edge88" class="edge"><title>Node1&#45;&gt;Node6</title>
<path fill="none" stroke="#9a32cd" stroke-dasharray="5,2" d="M817.702,-502.593C828.937,-498.803 840.795,-495.061 852,-492 894.882,-480.285 907.697,-485.659 950,-472 970.447,-465.398 992.437,-455.572 1009.68,-447.195"/>
<polygon fill="#9a32cd" stroke="#9a32cd" points="816.34,-499.359 808.02,-505.919 818.615,-505.98 816.34,-499.359"/>
<text text-anchor="middle" x="901" y="-495" font-family="FreeSans" font-size="10.00"> DebugDrawWork</text>
</g>
<!-- Node2 -->
<g id="node2" class="node"><title>Node2</title>
<a xlink:href="classMezzanine_1_1Threading_1_1DefaultWorkUnit.html" target="_top" xlink:title="Default implementation of WorkUnit. This represents on piece of work through time.">
<polygon fill="white" stroke="black" points="434,-506 434,-538 544,-538 544,-506 434,-506"/>
<text text-anchor="start" x="442" y="-525" font-family="FreeSans" font-size="10.00">Mezzanine::Threading</text>
<text text-anchor="middle" x="489" y="-513" font-family="FreeSans" font-size="10.00">::DefaultWorkUnit</text>
</a>
</g>
<!-- Node2&#45;&gt;Node1 -->
<g id="edge2" class="edge"><title>Node2&#45;&gt;Node1</title>
<path fill="none" stroke="midnightblue" d="M554.347,-522C601.725,-522 665.086,-522 709.906,-522"/>
<polygon fill="midnightblue" stroke="midnightblue" points="554.189,-518.5 544.189,-522 554.189,-525.5 554.189,-518.5"/>
</g>
<!-- Node2&#45;&gt;Node6 -->
<g id="edge32" class="edge"><title>Node2&#45;&gt;Node6</title>
<path fill="none" stroke="#9a32cd" stroke-dasharray="5,2" d="M526.266,-501.122C566.646,-479.766 633.678,-447.941 696,-435 799.075,-413.597 923.227,-419.696 990.935,-425.623"/>
<polygon fill="#9a32cd" stroke="#9a32cd" points="524.493,-498.102 517.33,-505.908 527.797,-504.272 524.493,-498.102"/>
<text text-anchor="middle" x="765" y="-438" font-family="FreeSans" font-size="10.00"> SimulationWork</text>
</g>
<!-- Node33 -->
<g id="node77" class="node"><title>Node33</title>
<a xlink:href="classMezzanine_1_1Physics_1_1WorldTriggerUpdateWorkUnit.html" target="_top" xlink:title="This is a Mezzanine::Threading::iWorkUnit for the updating of WorldTriggers.">
<polygon fill="white" stroke="black" points="1262,-471 1262,-503 1408,-503 1408,-471 1262,-471"/>
<text text-anchor="start" x="1270" y="-490" font-family="FreeSans" font-size="10.00">Mezzanine::Physics</text>
<text text-anchor="middle" x="1335" y="-478" font-family="FreeSans" font-size="10.00">::WorldTriggerUpdateWorkUnit</text>
</a>
</g>
<!-- Node2&#45;&gt;Node33 -->
<g id="edge92" class="edge"><title>Node2&#45;&gt;Node33</title>
<path fill="none" stroke="midnightblue" d="M554.378,-533.785C559.655,-534.588 564.912,-535.339 570,-536 625.745,-543.238 639.84,-544.553 696,-547 939.879,-557.625 1003.67,-552.816 1244,-510 1254.59,-508.114 1265.77,-505.671 1276.52,-503.085"/>
<polygon fill="midnightblue" stroke="midnightblue" points="554.666,-530.287 544.242,-532.186 553.575,-537.202 554.666,-530.287"/>
</g>
<!-- Node3 -->
<g id="node4" class="node"><title>Node3</title>
<a xlink:href="classMezzanine_1_1Threading_1_1iWorkUnit.html" target="_top" xlink:title="Interface of a WorkUnit. This represents on piece of work through time.">
<polygon fill="white" stroke="black" points="0,-478 0,-510 110,-510 110,-478 0,-478"/>
<text text-anchor="start" x="8" y="-497" font-family="FreeSans" font-size="10.00">Mezzanine::Threading</text>
<text text-anchor="middle" x="55" y="-485" font-family="FreeSans" font-size="10.00">::iWorkUnit</text>
</a>
</g>
<!-- Node3&#45;&gt;Node2 -->
<g id="edge4" class="edge"><title>Node3&#45;&gt;Node2</title>
<path fill="none" stroke="midnightblue" d="M120.334,-492.366C173.191,-491.618 249.501,-491.836 316,-497 355.635,-500.078 400.007,-506.552 433.89,-512.141"/>
<polygon fill="midnightblue" stroke="midnightblue" points="120.029,-488.87 110.085,-492.528 120.139,-495.87 120.029,-488.87"/>
</g>
<!-- Node4 -->
<g id="node6" class="node"><title>Node4</title>
<polygon fill="white" stroke="#bfbfbf" points="189.5,-556 189.5,-588 314.5,-588 314.5,-556 189.5,-556"/>
<text text-anchor="start" x="197.5" y="-575" font-family="FreeSans" font-size="10.00">std::vector&lt; Mezzanine</text>
<text text-anchor="middle" x="252" y="-563" font-family="FreeSans" font-size="10.00">::Threading::iWorkUnit * &gt;</text>
</g>
<!-- Node3&#45;&gt;Node4 -->
<g id="edge8" class="edge"><title>Node3&#45;&gt;Node4</title>
<path fill="none" stroke="#9a32cd" stroke-dasharray="5,2" d="M104.418,-513.786C129.448,-523.783 160.322,-536.079 188,-547 195.324,-549.89 203.125,-552.951 210.671,-555.903"/>
<polygon fill="#9a32cd" stroke="#9a32cd" points="105.715,-510.535 95.1304,-510.074 103.118,-517.035 105.715,-510.535"/>
<text text-anchor="middle" x="149" y="-542" font-family="FreeSans" font-size="10.00"> elements</text>
</g>
<!-- Node4&#45;&gt;Node2 -->
<g id="edge6" class="edge"><title>Node4&#45;&gt;Node2</title>
<path fill="none" stroke="#9a32cd" stroke-dasharray="5,2" d="M324.773,-556.647C359.872,-549.242 401.291,-540.504 433.753,-533.655"/>
<polygon fill="#9a32cd" stroke="#9a32cd" points="323.641,-553.309 314.579,-558.798 325.086,-560.158 323.641,-553.309"/>
<text text-anchor="middle" x="371" y="-557" font-family="FreeSans" font-size="10.00"> Dependencies</text>
</g>
<!-- Node5 -->
<g id="node9" class="node"><title>Node5</title>
<a xlink:href="structMezzanine_1_1DefaultRollingAverage.html" target="_top" xlink:title="Mezzanine::DefaultRolling\lAverage\&lt; Whole \&gt;">
<polygon fill="white" stroke="black" points="188.5,-506 188.5,-538 315.5,-538 315.5,-506 188.5,-506"/>
<text text-anchor="start" x="196.5" y="-525" font-family="FreeSans" font-size="10.00">Mezzanine::DefaultRolling</text>
<text text-anchor="middle" x="252" y="-513" font-family="FreeSans" font-size="10.00">Average&lt; Whole &gt;</text>
</a>
</g>
<!-- Node5&#45;&gt;Node2 -->
<g id="edge10" class="edge"><title>Node5&#45;&gt;Node2</title>
<path fill="none" stroke="#9a32cd" stroke-dasharray="5,2" d="M325.66,-522C360.578,-522 401.589,-522 433.782,-522"/>
<polygon fill="#9a32cd" stroke="#9a32cd" points="325.512,-518.5 315.512,-522 325.512,-525.5 325.512,-518.5"/>
<text text-anchor="middle" x="371" y="-525" font-family="FreeSans" font-size="10.00"> PerformanceLog</text>
</g>
<!-- Node6&#45;&gt;Node1 -->
<g id="edge12" class="edge"><title>Node6&#45;&gt;Node1</title>
<path fill="none" stroke="#9a32cd" stroke-dasharray="5,2" d="M1020.33,-454.848C1003.39,-472.6 977.755,-495.644 950,-507 908.694,-523.9 857.933,-526.904 820.038,-526.102"/>
<polygon fill="#9a32cd" stroke="#9a32cd" points="1023.26,-456.842 1027.48,-447.125 1018.12,-452.087 1023.26,-456.842"/>
<text text-anchor="middle" x="901" y="-528" font-family="FreeSans" font-size="10.00"> TargetManager</text>
</g>
<!-- Node17 -->
<g id="node36" class="node"><title>Node17</title>
<a xlink:href="classMezzanine_1_1Physics_1_1CollidableProxy.html" target="_top" xlink:title="This is a proxy from which physics objects that can collide with each other are handled.">
<polygon fill="white" stroke="black" points="1285,-355 1285,-387 1385,-387 1385,-355 1285,-355"/>
<text text-anchor="start" x="1293" y="-374" font-family="FreeSans" font-size="10.00">Mezzanine::Physics</text>
<text text-anchor="middle" x="1335" y="-362" font-family="FreeSans" font-size="10.00">::CollidableProxy</text>
</a>
</g>
<!-- Node6&#45;&gt;Node17 -->
<g id="edge66" class="edge"><title>Node6&#45;&gt;Node17</title>
<path fill="none" stroke="#9a32cd" stroke-dasharray="5,2" d="M1101.51,-416.708C1111.67,-414.401 1122.13,-412.087 1132,-410 1183.97,-399.016 1243.69,-387.697 1284.84,-380.102"/>
<polygon fill="#9a32cd" stroke="#9a32cd" points="1100.43,-413.362 1091.47,-419.004 1102,-420.186 1100.43,-413.362"/>
<text text-anchor="middle" x="1188" y="-413" font-family="FreeSans" font-size="10.00"> Manager</text>
</g>
<!-- Node6&#45;&gt;Node33 -->
<g id="edge94" class="edge"><title>Node6&#45;&gt;Node33</title>
<path fill="none" stroke="#9a32cd" stroke-dasharray="5,2" d="M1070.88,-452.644C1087.9,-463.676 1110.14,-476.003 1132,-482 1173.99,-493.518 1222.71,-495.086 1261.89,-493.624"/>
<polygon fill="#9a32cd" stroke="#9a32cd" points="1072.74,-449.68 1062.48,-447.034 1068.85,-455.5 1072.74,-449.68"/>
<text text-anchor="middle" x="1188" y="-497" font-family="FreeSans" font-size="10.00"> TargetManager</text>
</g>
<!-- Node7 -->
<g id="node13" class="node"><title>Node7</title>
<a xlink:href="classMezzanine_1_1WorldManager.html" target="_top" xlink:title="This is the base class for all managers that belong to a single world instance.">
<polygon fill="white" stroke="black" points="700.5,-91 700.5,-111 829.5,-111 829.5,-91 700.5,-91"/>
<text text-anchor="middle" x="765" y="-98" font-family="FreeSans" font-size="10.00">Mezzanine::WorldManager</text>
</a>
</g>
<!-- Node7&#45;&gt;Node6 -->
<g id="edge14" class="edge"><title>Node7&#45;&gt;Node6</title>
<path fill="none" stroke="midnightblue" d="M771.123,-120.967C782.094,-153.481 808.146,-217.858 852,-254 887.466,-283.229 913.863,-258.604 950,-287 994.414,-321.9 1023.21,-384.881 1034.97,-414.614"/>
<polygon fill="midnightblue" stroke="midnightblue" points="774.387,-119.685 767.977,-111.249 767.727,-121.841 774.387,-119.685"/>
</g>
<!-- Node12 -->
<g id="node24" class="node"><title>Node12</title>
<polygon fill="white" stroke="#bfbfbf" points="968.5,-67 968.5,-87 1113.5,-87 1113.5,-67 968.5,-67"/>
<text text-anchor="middle" x="1041" y="-74" font-family="FreeSans" font-size="10.00">std::vector&lt; WorldManager * &gt;</text>
</g>
<!-- Node7&#45;&gt;Node12 -->
<g id="edge28" class="edge"><title>Node7&#45;&gt;Node12</title>
<path fill="none" stroke="#9a32cd" stroke-dasharray="5,2" d="M839.674,-94.5066C879.68,-91.0278 928.752,-86.7607 968.432,-83.3103"/>
<polygon fill="#9a32cd" stroke="#9a32cd" points="839.369,-91.0198 829.71,-95.3731 839.975,-97.9935 839.369,-91.0198"/>
<text text-anchor="middle" x="901" y="-97" font-family="FreeSans" font-size="10.00"> elements</text>
</g>
<!-- Node8 -->
<g id="node15" class="node"><title>Node8</title>
<a xlink:href="classMezzanine_1_1ManagerBase.html" target="_top" xlink:title="This is the base class from which all the Entresol and World Managers inherit.">
<polygon fill="white" stroke="black" points="426,-90 426,-110 552,-110 552,-90 426,-90"/>
<text text-anchor="middle" x="489" y="-97" font-family="FreeSans" font-size="10.00">Mezzanine::ManagerBase</text>
</a>
</g>
<!-- Node8&#45;&gt;Node7 -->
<g id="edge16" class="edge"><title>Node8&#45;&gt;Node7</title>
<path fill="none" stroke="midnightblue" d="M562.315,-102.837C564.908,-102.898 567.476,-102.953 570,-103 617.992,-103.888 630.003,-103.552 678,-103 685.251,-102.917 692.842,-102.794 700.39,-102.65"/>
<polygon fill="midnightblue" stroke="midnightblue" points="562.316,-99.3355 552.226,-102.568 562.129,-106.333 562.316,-99.3355"/>
</g>
<!-- Node9 -->
<g id="node17" class="node"><title>Node9</title>
<a xlink:href="classMezzanine_1_1Entresol.html" target="_top" xlink:title="This is the main entry point for the entire library.">
<polygon fill="white" stroke="black" points="201.5,-33 201.5,-53 302.5,-53 302.5,-33 201.5,-33"/>
<text text-anchor="middle" x="252" y="-40" font-family="FreeSans" font-size="10.00">Mezzanine::Entresol</text>
</a>
</g>
<!-- Node9&#45;&gt;Node8 -->
<g id="edge18" class="edge"><title>Node9&#45;&gt;Node8</title>
<path fill="none" stroke="#9a32cd" stroke-dasharray="5,2" d="M303.815,-55.4619C346.828,-65.8067 407.219,-80.3311 447.195,-89.9456"/>
<polygon fill="#9a32cd" stroke="#9a32cd" points="304.367,-51.9947 293.825,-53.0592 302.73,-58.8007 304.367,-51.9947"/>
<text text-anchor="middle" x="371" y="-83" font-family="FreeSans" font-size="10.00"> TheEntresol</text>
</g>
<!-- Node10 -->
<g id="node19" class="node"><title>Node10</title>
<a xlink:href="classMezzanine_1_1Singleton.html" target="_top" xlink:title="Mezzanine::Singleton\l\&lt; Entresol \&gt;">
<polygon fill="white" stroke="black" points="435.5,-0 435.5,-32 542.5,-32 542.5,-0 435.5,-0"/>
<text text-anchor="start" x="443.5" y="-19" font-family="FreeSans" font-size="10.00">Mezzanine::Singleton</text>
<text text-anchor="middle" x="489" y="-7" font-family="FreeSans" font-size="10.00">&lt; Entresol &gt;</text>
</a>
</g>
<!-- Node9&#45;&gt;Node10 -->
<g id="edge22" class="edge"><title>Node9&#45;&gt;Node10</title>
<path fill="none" stroke="#9a32cd" stroke-dasharray="5,2" d="M283.39,-29.0737C298.388,-23.1589 316.786,-16.9543 334,-14 367.288,-8.28711 405.189,-8.65619 435.18,-10.517"/>
<polygon fill="#9a32cd" stroke="#9a32cd" points="282.004,-25.8588 274.072,-32.8816 284.652,-32.3387 282.004,-25.8588"/>
<text text-anchor="middle" x="371" y="-17" font-family="FreeSans" font-size="10.00"> SingletonPtr</text>
</g>
<!-- Node10&#45;&gt;Node9 -->
<g id="edge20" class="edge"><title>Node10&#45;&gt;Node9</title>
<path fill="none" stroke="midnightblue" d="M425.546,-26.6153C419.622,-27.4761 413.704,-28.2872 408,-29 372.923,-33.3834 333.243,-36.9251 302.68,-39.3497"/>
<polygon fill="midnightblue" stroke="midnightblue" points="426.112,-30.0697 435.484,-25.1284 425.076,-23.1468 426.112,-30.0697"/>
</g>
<!-- Node11 -->
<g id="node22" class="node"><title>Node11</title>
<a xlink:href="classMezzanine_1_1World.html" target="_top" xlink:title="This class represents a world for objects to interact within.">
<polygon fill="white" stroke="black" points="443,-50 443,-70 535,-70 535,-50 443,-50"/>
<text text-anchor="middle" x="489" y="-57" font-family="FreeSans" font-size="10.00">Mezzanine::World</text>
</a>
</g>
<!-- Node11&#45;&gt;Node7 -->
<g id="edge24" class="edge"><title>Node11&#45;&gt;Node7</title>
<path fill="none" stroke="#9a32cd" stroke-dasharray="5,2" d="M545.456,-68.345C583.022,-73.9024 633.465,-81.3738 678,-88 685.251,-89.0788 692.841,-90.2101 700.389,-91.3362"/>
<polygon fill="#9a32cd" stroke="#9a32cd" points="545.622,-64.8316 535.218,-66.8306 544.598,-71.7563 545.622,-64.8316"/>
<text text-anchor="middle" x="624" y="-91" font-family="FreeSans" font-size="10.00"> ParentWorld</text>
</g>
<!-- Node20 -->
<g id="node42" class="node"><title>Node20</title>
<a xlink:href="classMezzanine_1_1WorldObject.html" target="_top" xlink:title="This is the base class from which classes that are insertable into the physical world.">
<polygon fill="white" stroke="black" points="2009,-175 2009,-195 2129,-195 2129,-175 2009,-175"/>
<text text-anchor="middle" x="2069" y="-182" font-family="FreeSans" font-size="10.00">Mezzanine::WorldObject</text>
</a>
</g>
<!-- Node11&#45;&gt;Node20 -->
<g id="edge50" class="edge"><title>Node11&#45;&gt;Node20</title>
<path fill="none" stroke="#9a32cd" stroke-dasharray="5,2" d="M533.018,-47.2565C587.136,-32.738 682.019,-11 765,-11 765,-11 765,-11 1830,-11 1942.14,-11 2036.96,-137.757 2062.34,-174.893"/>
<polygon fill="#9a32cd" stroke="#9a32cd" points="531.805,-43.9595 523.077,-49.9659 533.645,-50.7132 531.805,-43.9595"/>
<text text-anchor="middle" x="1335" y="-14" font-family="FreeSans" font-size="10.00"> ParentWorld</text>
</g>
<!-- Node12&#45;&gt;Node11 -->
<g id="edge26" class="edge"><title>Node12&#45;&gt;Node11</title>
<path fill="none" stroke="#9a32cd" stroke-dasharray="5,2" d="M957.75,-74.0931C919.978,-72.7978 874.736,-71.2791 834,-70 726.944,-66.6384 601.188,-63.0958 535.041,-61.2639"/>
<polygon fill="#9a32cd" stroke="#9a32cd" points="958.082,-77.6065 968.196,-74.4522 958.322,-70.6106 958.082,-77.6065"/>
<text text-anchor="middle" x="765" y="-73" font-family="FreeSans" font-size="10.00"> WorldManagers</text>
</g>
<!-- Node13 -->
<g id="node27" class="node"><title>Node13</title>
<a xlink:href="classMezzanine_1_1Threading_1_1ThreadSpecificStorage.html" target="_top" xlink:title="A thread specific collection of double&#45;buffered and algorithm specific resources.">
<polygon fill="white" stroke="black" points="705.5,-456 705.5,-488 824.5,-488 824.5,-456 705.5,-456"/>
<text text-anchor="start" x="713.5" y="-475" font-family="FreeSans" font-size="10.00">Mezzanine::Threading</text>
<text text-anchor="middle" x="765" y="-463" font-family="FreeSans" font-size="10.00">::ThreadSpecificStorage</text>
</a>
</g>
<!-- Node13&#45;&gt;Node6 -->
<g id="edge30" class="edge"><title>Node13&#45;&gt;Node6</title>
<path fill="none" stroke="#9a32cd" stroke-dasharray="5,2" d="M834.685,-461.648C883.324,-454.423 947.106,-444.948 990.802,-438.457"/>
<polygon fill="#9a32cd" stroke="#9a32cd" points="833.925,-458.223 824.548,-463.154 834.954,-465.147 833.925,-458.223"/>
<text text-anchor="middle" x="901" y="-461" font-family="FreeSans" font-size="10.00"> ThreadResources</text>
</g>
<!-- Node14 -->
<g id="node30" class="node"><title>Node14</title>
<polygon fill="white" stroke="#bfbfbf" points="2006,-498 2006,-518 2132,-518 2132,-498 2006,-498"/>
<text text-anchor="middle" x="2069" y="-505" font-family="FreeSans" font-size="10.00">std::vector&lt; Constraint * &gt;</text>
</g>
<!-- Node14&#45;&gt;Node6 -->
<g id="edge34" class="edge"><title>Node14&#45;&gt;Node6</title>
<path fill="none" stroke="#9a32cd" stroke-dasharray="5,2" d="M1995.63,-518.734C1948.43,-524.727 1885.73,-531 1830,-531 1335,-531 1335,-531 1335,-531 1244.3,-531 1215.22,-546.072 1132,-510 1099.56,-495.939 1070.29,-466.014 1054.15,-447.299"/>
<polygon fill="#9a32cd" stroke="#9a32cd" points="1996.29,-522.177 2005.76,-517.421 1995.39,-515.235 1996.29,-522.177"/>
<text text-anchor="middle" x="1613" y="-534" font-family="FreeSans" font-size="10.00"> Constraints</text>
</g>
<!-- Node15 -->
<g id="node32" class="node"><title>Node15</title>
<a xlink:href="classMezzanine_1_1Physics_1_1Constraint.html" target="_top" xlink:title="This is the base class for all constraints supported.">
<polygon fill="white" stroke="black" points="1780,-453 1780,-485 1880,-485 1880,-453 1780,-453"/>
<text text-anchor="start" x="1788" y="-472" font-family="FreeSans" font-size="10.00">Mezzanine::Physics</text>
<text text-anchor="middle" x="1830" y="-460" font-family="FreeSans" font-size="10.00">::Constraint</text>
</a>
</g>
<!-- Node15&#45;&gt;Node14 -->
<g id="edge36" class="edge"><title>Node15&#45;&gt;Node14</title>
<path fill="none" stroke="#9a32cd" stroke-dasharray="5,2" d="M1890.41,-478.858C1926.22,-484.702 1971.5,-492.09 2007.5,-497.964"/>
<polygon fill="#9a32cd" stroke="#9a32cd" points="1890.54,-475.332 1880.1,-477.176 1889.41,-482.241 1890.54,-475.332"/>
<text text-anchor="middle" x="1950" y="-497" font-family="FreeSans" font-size="10.00"> elements</text>
</g>
<!-- Node16 -->
<g id="node34" class="node"><title>Node16</title>
<a xlink:href="classMezzanine_1_1Physics_1_1RigidProxy.html" target="_top" xlink:title="This is a proxy from which rigid body proxys are handled.">
<polygon fill="white" stroke="black" points="1563,-399 1563,-431 1663,-431 1663,-399 1563,-399"/>
<text text-anchor="start" x="1571" y="-418" font-family="FreeSans" font-size="10.00">Mezzanine::Physics</text>
<text text-anchor="middle" x="1613" y="-406" font-family="FreeSans" font-size="10.00">::RigidProxy</text>
</a>
</g>
<!-- Node16&#45;&gt;Node15 -->
<g id="edge38" class="edge"><title>Node16&#45;&gt;Node15</title>
<path fill="none" stroke="#9a32cd" stroke-dasharray="5,2" d="M1672.77,-429.873C1706.39,-438.24 1747.9,-448.569 1779.82,-456.513"/>
<polygon fill="#9a32cd" stroke="#9a32cd" points="1673.61,-426.475 1663.06,-427.456 1671.92,-433.268 1673.61,-426.475"/>
<text text-anchor="middle" x="1727" y="-463" font-family="FreeSans" font-size="10.00"> ProxA</text>
<text text-anchor="middle" x="1727" y="-451" font-family="FreeSans" font-size="10.00">ProxB</text>
</g>
<!-- Node17&#45;&gt;Node16 -->
<g id="edge40" class="edge"><title>Node17&#45;&gt;Node16</title>
<path fill="none" stroke="midnightblue" d="M1395.08,-380.508C1445.2,-388.441 1515.8,-399.615 1562.91,-407.072"/>
<polygon fill="midnightblue" stroke="midnightblue" points="1395.45,-377.024 1385.02,-378.917 1394.35,-383.937 1395.45,-377.024"/>
</g>
<!-- Node24 -->
<g id="node52" class="node"><title>Node24</title>
<a xlink:href="classMezzanine_1_1Physics_1_1Collision.html" target="_top" xlink:title="This is an event class used to track collsions in the physics world.">
<polygon fill="white" stroke="black" points="1563,-199 1563,-231 1663,-231 1663,-199 1563,-199"/>
<text text-anchor="start" x="1571" y="-218" font-family="FreeSans" font-size="10.00">Mezzanine::Physics</text>
<text text-anchor="middle" x="1613" y="-206" font-family="FreeSans" font-size="10.00">::Collision</text>
</a>
</g>
<!-- Node17&#45;&gt;Node24 -->
<g id="edge64" class="edge"><title>Node17&#45;&gt;Node24</title>
<path fill="none" stroke="#9a32cd" stroke-dasharray="5,2" d="M1347.06,-345.621C1361.69,-317.767 1389.05,-273.964 1426,-251 1437.55,-243.823 1511.47,-231.005 1562.83,-222.759"/>
<polygon fill="#9a32cd" stroke="#9a32cd" points="1343.84,-344.248 1342.43,-354.748 1350.08,-347.419 1343.84,-344.248"/>
<text text-anchor="middle" x="1473" y="-266" font-family="FreeSans" font-size="10.00"> ProxyA</text>
<text text-anchor="middle" x="1473" y="-254" font-family="FreeSans" font-size="10.00">ProxyB</text>
</g>
<!-- Node28 -->
<g id="node63" class="node"><title>Node28</title>
<polygon fill="white" stroke="#bfbfbf" points="1538.5,-449 1538.5,-469 1687.5,-469 1687.5,-449 1538.5,-449"/>
<text text-anchor="middle" x="1613" y="-456" font-family="FreeSans" font-size="10.00">std::vector&lt; CollidableProxy * &gt;</text>
</g>
<!-- Node17&#45;&gt;Node28 -->
<g id="edge74" class="edge"><title>Node17&#45;&gt;Node28</title>
<path fill="none" stroke="#9a32cd" stroke-dasharray="5,2" d="M1381.7,-390.892C1395.79,-396.508 1411.4,-402.35 1426,-407 1466.98,-420.053 1479.96,-414.305 1520,-430 1528.52,-433.34 1529.49,-436.626 1538,-440 1546.74,-443.467 1556.31,-446.458 1565.6,-448.975"/>
<polygon fill="#9a32cd" stroke="#9a32cd" points="1382.8,-387.561 1372.22,-387.057 1380.18,-394.05 1382.8,-387.561"/>
<text text-anchor="middle" x="1473" y="-433" font-family="FreeSans" font-size="10.00"> elements</text>
</g>
<!-- Node30 -->
<g id="node69" class="node"><title>Node30</title>
<a xlink:href="classMezzanine_1_1Physics_1_1CollidablePair.html" target="_top" xlink:title="This is a helper class for storing pairs of collidable proxies in associative containers.">
<polygon fill="white" stroke="black" points="1563,-311 1563,-343 1663,-343 1663,-311 1563,-311"/>
<text text-anchor="start" x="1571" y="-330" font-family="FreeSans" font-size="10.00">Mezzanine::Physics</text>
<text text-anchor="middle" x="1613" y="-318" font-family="FreeSans" font-size="10.00">::CollidablePair</text>
</a>
</g>
<!-- Node17&#45;&gt;Node30 -->
<g id="edge82" class="edge"><title>Node17&#45;&gt;Node30</title>
<path fill="none" stroke="#9a32cd" stroke-dasharray="5,2" d="M1374.96,-350.618C1390.49,-343.693 1408.68,-336.761 1426,-333 1471.55,-323.109 1524.79,-322.422 1562.79,-323.727"/>
<polygon fill="#9a32cd" stroke="#9a32cd" points="1373.29,-347.536 1365.67,-354.9 1376.22,-353.893 1373.29,-347.536"/>
<text text-anchor="middle" x="1473" y="-348" font-family="FreeSans" font-size="10.00"> ProxyA</text>
<text text-anchor="middle" x="1473" y="-336" font-family="FreeSans" font-size="10.00">ProxyB</text>
</g>
<!-- Node18 -->
<g id="node38" class="node"><title>Node18</title>
<a xlink:href="classMezzanine_1_1WorldProxy.html" target="_top" xlink:title="This is the base class for proxy objects belonging to the various 3D subsystems.">
<polygon fill="white" stroke="black" points="2228,-227 2228,-247 2344,-247 2344,-227 2228,-227"/>
<text text-anchor="middle" x="2286" y="-234" font-family="FreeSans" font-size="10.00">Mezzanine::WorldProxy</text>
</a>
</g>
<!-- Node18&#45;&gt;Node17 -->
<g id="edge42" class="edge"><title>Node18&#45;&gt;Node17</title>
<path fill="none" stroke="midnightblue" d="M2270.73,-254.965C2237.87,-291.494 2156.31,-371 2069,-371 1613,-371 1613,-371 1613,-371 1533.36,-371 1440.9,-371 1385.22,-371"/>
<polygon fill="midnightblue" stroke="midnightblue" points="2273.7,-256.892 2277.67,-247.072 2268.44,-252.269 2273.7,-256.892"/>
</g>
<!-- Node19 -->
<g id="node40" class="node"><title>Node19</title>
<a xlink:href="classMezzanine_1_1TransformableObject.html" target="_top" xlink:title="This is an interface for all 3D objects that can have their full transforms manipulated.">
<polygon fill="white" stroke="black" points="1766,-220 1766,-252 1894,-252 1894,-220 1766,-220"/>
<text text-anchor="start" x="1774" y="-239" font-family="FreeSans" font-size="10.00">Mezzanine::Transformable</text>
<text text-anchor="middle" x="1830" y="-227" font-family="FreeSans" font-size="10.00">Object</text>
</a>
</g>
<!-- Node19&#45;&gt;Node18 -->
<g id="edge44" class="edge"><title>Node19&#45;&gt;Node18</title>
<path fill="none" stroke="midnightblue" d="M1904.54,-236.163C1994.94,-236.362 2145.39,-236.692 2227.74,-236.872"/>
<polygon fill="midnightblue" stroke="midnightblue" points="1904.37,-232.663 1894.37,-236.141 1904.36,-239.663 1904.37,-232.663"/>
</g>
<!-- Node19&#45;&gt;Node20 -->
<g id="edge48" class="edge"><title>Node19&#45;&gt;Node20</title>
<path fill="none" stroke="midnightblue" d="M1904.15,-220.176C1942.56,-211.982 1988.3,-202.221 2021.84,-195.063"/>
<polygon fill="midnightblue" stroke="midnightblue" points="1903.1,-216.823 1894.05,-222.333 1904.56,-223.669 1903.1,-216.823"/>
</g>
<!-- Node20&#45;&gt;Node18 -->
<g id="edge46" class="edge"><title>Node20&#45;&gt;Node18</title>
<path fill="none" stroke="#9a32cd" stroke-dasharray="5,2" d="M2139.05,-195.818C2161.84,-199.894 2187.14,-205.016 2210,-211 2226.73,-215.378 2245.08,-221.615 2259.56,-226.883"/>
<polygon fill="#9a32cd" stroke="#9a32cd" points="2139.57,-192.356 2129.12,-194.078 2138.36,-199.251 2139.57,-192.356"/>
<text text-anchor="middle" x="2180" y="-214" font-family="FreeSans" font-size="10.00"> ParentObject</text>
</g>
<!-- Node21 -->
<g id="node46" class="node"><title>Node21</title>
<a xlink:title="STL class.">
<polygon fill="white" stroke="#bfbfbf" points="223.5,-224 223.5,-244 280.5,-244 280.5,-224 223.5,-224"/>
<text text-anchor="middle" x="252" y="-231" font-family="FreeSans" font-size="10.00">std::string</text>
</a>
</g>
<!-- Node21&#45;&gt;Node20 -->
<g id="edge52" class="edge"><title>Node21&#45;&gt;Node20</title>
<path fill="none" stroke="#9a32cd" stroke-dasharray="5,2" d="M274.937,-218.473C315.975,-192.247 405.496,-142 489,-142 489,-142 489,-142 1830,-142 1903.99,-142 1988.86,-162.209 2034.91,-174.918"/>
<polygon fill="#9a32cd" stroke="#9a32cd" points="272.952,-215.589 266.482,-223.979 276.772,-221.455 272.952,-215.589"/>
<text text-anchor="middle" x="1188" y="-145" font-family="FreeSans" font-size="10.00"> ObjectName</text>
</g>
<!-- Node27 -->
<g id="node60" class="node"><title>Node27</title>
<a xlink:href="classMezzanine_1_1Physics_1_1CollisionShape.html" target="_top" xlink:title="This is the base class for all collision shapes.">
<polygon fill="white" stroke="black" points="574,-218 574,-250 674,-250 674,-218 574,-218"/>
<text text-anchor="start" x="582" y="-237" font-family="FreeSans" font-size="10.00">Mezzanine::Physics</text>
<text text-anchor="middle" x="624" y="-225" font-family="FreeSans" font-size="10.00">::CollisionShape</text>
</a>
</g>
<!-- Node21&#45;&gt;Node27 -->
<g id="edge70" class="edge"><title>Node21&#45;&gt;Node27</title>
<path fill="none" stroke="#9a32cd" stroke-dasharray="5,2" d="M290.825,-234C358.704,-234 498.855,-234 573.93,-234"/>
<polygon fill="#9a32cd" stroke="#9a32cd" points="290.573,-230.5 280.573,-234 290.572,-237.5 290.573,-230.5"/>
<text text-anchor="middle" x="371" y="-237" font-family="FreeSans" font-size="10.00"> Name</text>
</g>
<!-- Node35 -->
<g id="node83" class="node"><title>Node35</title>
<a xlink:href="classMezzanine_1_1WorldTrigger.html" target="_top" xlink:title="This is an abstract class for creating in&#45;game triggers.">
<polygon fill="white" stroke="black" points="428,-318 428,-338 550,-338 550,-318 428,-318"/>
<text text-anchor="middle" x="489" y="-325" font-family="FreeSans" font-size="10.00">Mezzanine::WorldTrigger</text>
</a>
</g>
<!-- Node21&#45;&gt;Node35 -->
<g id="edge100" class="edge"><title>Node21&#45;&gt;Node35</title>
<path fill="none" stroke="#9a32cd" stroke-dasharray="5,2" d="M286.751,-247.783C334.898,-266.879 420.778,-300.941 463.461,-317.871"/>
<polygon fill="#9a32cd" stroke="#9a32cd" points="287.949,-244.493 277.363,-244.06 285.368,-251 287.949,-244.493"/>
<text text-anchor="middle" x="371" y="-297" font-family="FreeSans" font-size="10.00"> Name</text>
</g>
<!-- Node22 -->
<g id="node48" class="node"><title>Node22</title>
<a xlink:title="STL class.">
<polygon fill="white" stroke="#bfbfbf" points="9.5,-218 9.5,-250 100.5,-250 100.5,-218 9.5,-218"/>
<text text-anchor="start" x="17.5" y="-237" font-family="FreeSans" font-size="10.00">std::basic_string&lt;</text>
<text text-anchor="middle" x="55" y="-225" font-family="FreeSans" font-size="10.00"> char &gt;</text>
</a>
</g>
<!-- Node22&#45;&gt;Node21 -->
<g id="edge54" class="edge"><title>Node22&#45;&gt;Node21</title>
<path fill="none" stroke="midnightblue" d="M110.754,-234C147.434,-234 193.926,-234 223.328,-234"/>
<polygon fill="midnightblue" stroke="midnightblue" points="110.691,-230.5 100.691,-234 110.691,-237.5 110.691,-230.5"/>
</g>
<!-- Node23 -->
<g id="node50" class="node"><title>Node23</title>
<polygon fill="white" stroke="#bfbfbf" points="1784,-170 1784,-202 1876,-202 1876,-170 1784,-170"/>
<text text-anchor="start" x="1792" y="-189" font-family="FreeSans" font-size="10.00">std::set&lt; Physics::</text>
<text text-anchor="middle" x="1830" y="-177" font-family="FreeSans" font-size="10.00">Collision * &gt;</text>
</g>
<!-- Node23&#45;&gt;Node20 -->
<g id="edge56" class="edge"><title>Node23&#45;&gt;Node20</title>
<path fill="none" stroke="#9a32cd" stroke-dasharray="5,2" d="M1886.14,-185.765C1922.92,-185.611 1970.96,-185.41 2008.57,-185.253"/>
<polygon fill="#9a32cd" stroke="#9a32cd" points="1886.07,-182.265 1876.08,-185.807 1886.1,-189.265 1886.07,-182.265"/>
<text text-anchor="middle" x="1950" y="-188" font-family="FreeSans" font-size="10.00"> CurrentCollisions</text>
</g>
<!-- Node24&#45;&gt;Node23 -->
<g id="edge58" class="edge"><title>Node24&#45;&gt;Node23</title>
<path fill="none" stroke="#9a32cd" stroke-dasharray="5,2" d="M1673.16,-206.96C1708.17,-202.282 1751.62,-196.475 1783.9,-192.161"/>
<polygon fill="#9a32cd" stroke="#9a32cd" points="1672.5,-203.517 1663.06,-208.31 1673.43,-210.455 1672.5,-203.517"/>
<text text-anchor="middle" x="1727" y="-205" font-family="FreeSans" font-size="10.00"> keys</text>
</g>
<!-- Node29 -->
<g id="node66" class="node"><title>Node29</title>
<polygon fill="white" stroke="#bfbfbf" points="1768.5,-270 1768.5,-302 1891.5,-302 1891.5,-270 1768.5,-270"/>
<text text-anchor="start" x="1776.5" y="-289" font-family="FreeSans" font-size="10.00">std::map&lt; CollidablePair,</text>
<text text-anchor="middle" x="1830" y="-277" font-family="FreeSans" font-size="10.00"> Collision * &gt;</text>
</g>
<!-- Node24&#45;&gt;Node29 -->
<g id="edge78" class="edge"><title>Node24&#45;&gt;Node29</title>
<path fill="none" stroke="#9a32cd" stroke-dasharray="5,2" d="M1672.97,-233.118C1696.44,-240.348 1723.54,-248.874 1748,-257 1760.18,-261.047 1773.31,-265.604 1785.42,-269.885"/>
<polygon fill="#9a32cd" stroke="#9a32cd" points="1673.74,-229.693 1663.15,-230.103 1671.69,-236.385 1673.74,-229.693"/>
<text text-anchor="middle" x="1727" y="-260" font-family="FreeSans" font-size="10.00"> elements</text>
</g>
<!-- Node25 -->
<g id="node54" class="node"><title>Node25</title>
<polygon fill="white" stroke="#bfbfbf" points="1287,-170 1287,-190 1383,-190 1383,-170 1287,-170"/>
<text text-anchor="middle" x="1335" y="-177" font-family="FreeSans" font-size="10.00">std::vector&lt; Real &gt;</text>
</g>
<!-- Node25&#45;&gt;Node24 -->
<g id="edge60" class="edge"><title>Node25&#45;&gt;Node24</title>
<path fill="none" stroke="#9a32cd" stroke-dasharray="5,2" d="M1393.05,-183.844C1429.59,-186.632 1477.68,-190.975 1520,-197 1534,-198.993 1549.09,-201.679 1562.96,-204.366"/>
<polygon fill="#9a32cd" stroke="#9a32cd" points="1393.3,-180.353 1383.07,-183.099 1392.78,-187.334 1393.3,-180.353"/>
<text text-anchor="middle" x="1473" y="-200" font-family="FreeSans" font-size="10.00"> PenetrationDistances</text>
</g>
<!-- Node26 -->
<g id="node56" class="node"><title>Node26</title>
<a xlink:href="structMezzanine_1_1Physics_1_1CollisionInternalData.html" target="_top" xlink:title="Used to insulate the interface from the implementation details for bullet.">
<polygon fill="white" stroke="black" points="1280,-208 1280,-240 1390,-240 1390,-208 1280,-208"/>
<text text-anchor="start" x="1288" y="-227" font-family="FreeSans" font-size="10.00">Mezzanine::Physics</text>
<text text-anchor="middle" x="1335" y="-215" font-family="FreeSans" font-size="10.00">::CollisionInternalData</text>
</a>
</g>
<!-- Node26&#45;&gt;Node24 -->
<g id="edge62" class="edge"><title>Node26&#45;&gt;Node24</title>
<path fill="none" stroke="#9a32cd" stroke-dasharray="5,2" d="M1400.34,-217.604C1408.96,-216.951 1417.69,-216.387 1426,-216 1472.38,-213.841 1525.29,-213.782 1562.97,-214.151"/>
<polygon fill="#9a32cd" stroke="#9a32cd" points="1399.98,-214.121 1390.29,-218.406 1400.54,-221.099 1399.98,-214.121"/>
<text text-anchor="middle" x="1473" y="-219" font-family="FreeSans" font-size="10.00"> InternalData</text>
</g>
<!-- Node27&#45;&gt;Node17 -->
<g id="edge68" class="edge"><title>Node27&#45;&gt;Node17</title>
<path fill="none" stroke="#9a32cd" stroke-dasharray="5,2" d="M684.14,-241.358C726.135,-246.518 783.495,-253.608 834,-260 885.573,-266.527 898.916,-265.362 950,-275 1071.51,-297.925 1211.9,-335.899 1284.96,-356.547"/>
<polygon fill="#9a32cd" stroke="#9a32cd" points="684.43,-237.868 674.078,-240.123 683.577,-244.815 684.43,-237.868"/>
<text text-anchor="middle" x="901" y="-278" font-family="FreeSans" font-size="10.00"> ProxyShape</text>
</g>
<!-- Node28&#45;&gt;Node6 -->
<g id="edge72" class="edge"><title>Node28&#45;&gt;Node6</title>
<path fill="none" stroke="#9a32cd" stroke-dasharray="5,2" d="M1527.82,-454.83C1406.89,-448.911 1189.27,-438.258 1091.26,-433.46"/>
<polygon fill="#9a32cd" stroke="#9a32cd" points="1527.98,-458.342 1538.14,-455.336 1528.32,-451.351 1527.98,-458.342"/>
<text text-anchor="middle" x="1335" y="-451" font-family="FreeSans" font-size="10.00"> Proxies</text>
</g>
<!-- Node29&#45;&gt;Node6 -->
<g id="edge76" class="edge"><title>Node29&#45;&gt;Node6</title>
<path fill="none" stroke="#9a32cd" stroke-dasharray="5,2" d="M1758.31,-285.812C1677.25,-286.505 1541.5,-290.405 1426,-307 1351.84,-317.655 1334.42,-326.817 1262,-346 1203.81,-361.413 1187.89,-361.641 1132,-384 1110.04,-392.784 1086.34,-405.127 1068.63,-414.96"/>
<polygon fill="#9a32cd" stroke="#9a32cd" points="1758.43,-289.311 1768.41,-285.74 1758.38,-282.311 1758.43,-289.311"/>
<text text-anchor="middle" x="1473" y="-310" font-family="FreeSans" font-size="10.00"> Collisions</text>
</g>
<!-- Node30&#45;&gt;Node29 -->
<g id="edge80" class="edge"><title>Node30&#45;&gt;Node29</title>
<path fill="none" stroke="#9a32cd" stroke-dasharray="5,2" d="M1673.25,-315.617C1702.82,-310.03 1738.4,-303.308 1768.18,-297.681"/>
<polygon fill="#9a32cd" stroke="#9a32cd" points="1672.23,-312.247 1663.06,-317.542 1673.53,-319.125 1672.23,-312.247"/>
<text text-anchor="middle" x="1727" y="-311" font-family="FreeSans" font-size="10.00"> keys</text>
</g>
<!-- Node31 -->
<g id="node72" class="node"><title>Node31</title>
<a xlink:href="classMezzanine_1_1debug_1_1InternalDebugDrawer.html" target="_top" xlink:title="This is used to draw wireframse for the Physics subsystem.">
<polygon fill="white" stroke="black" points="700,-358 700,-390 830,-390 830,-358 700,-358"/>
<text text-anchor="start" x="708" y="-377" font-family="FreeSans" font-size="10.00">Mezzanine::debug::Internal</text>
<text text-anchor="middle" x="765" y="-365" font-family="FreeSans" font-size="10.00">DebugDrawer</text>
</a>
</g>
<!-- Node31&#45;&gt;Node6 -->
<g id="edge84" class="edge"><title>Node31&#45;&gt;Node6</title>
<path fill="none" stroke="#9a32cd" stroke-dasharray="5,2" d="M840.467,-381.339C874.248,-385.46 914.403,-391.516 950,-400 966.398,-403.908 984.021,-409.558 999.351,-414.967"/>
<polygon fill="#9a32cd" stroke="#9a32cd" points="840.543,-377.824 830.2,-380.122 839.719,-384.775 840.543,-377.824"/>
<text text-anchor="middle" x="901" y="-403" font-family="FreeSans" font-size="10.00"> BulletDrawer</text>
</g>
<!-- Node32 -->
<g id="node74" class="node"><title>Node32</title>
<polygon fill="white" stroke="#bfbfbf" points="450.5,-364 450.5,-384 527.5,-384 527.5,-364 450.5,-364"/>
<text text-anchor="middle" x="489" y="-371" font-family="FreeSans" font-size="10.00">btIDebugDraw</text>
</g>
<!-- Node32&#45;&gt;Node31 -->
<g id="edge86" class="edge"><title>Node32&#45;&gt;Node31</title>
<path fill="none" stroke="midnightblue" d="M537.774,-374C582.838,-374 650.121,-374 699.785,-374"/>
<polygon fill="midnightblue" stroke="midnightblue" points="537.667,-370.5 527.667,-374 537.667,-377.5 537.667,-370.5"/>
</g>
<!-- Node33&#45;&gt;Node6 -->
<g id="edge90" class="edge"><title>Node33&#45;&gt;Node6</title>
<path fill="none" stroke="#9a32cd" stroke-dasharray="5,2" d="M1252.01,-471.192C1200.23,-461.329 1135.27,-448.956 1091.21,-440.563"/>
<polygon fill="#9a32cd" stroke="#9a32cd" points="1251.37,-474.633 1261.85,-473.067 1252.68,-467.757 1251.37,-474.633"/>
<text text-anchor="middle" x="1188" y="-471" font-family="FreeSans" font-size="10.00"> WorldTriggerUpdateWork</text>
</g>
<!-- Node34 -->
<g id="node81" class="node"><title>Node34</title>
<polygon fill="white" stroke="#bfbfbf" points="696.5,-320 696.5,-340 833.5,-340 833.5,-320 696.5,-320"/>
<text text-anchor="middle" x="765" y="-327" font-family="FreeSans" font-size="10.00">std::vector&lt; WorldTrigger * &gt;</text>
</g>
<!-- Node34&#45;&gt;Node6 -->
<g id="edge96" class="edge"><title>Node34&#45;&gt;Node6</title>
<path fill="none" stroke="#9a32cd" stroke-dasharray="5,2" d="M844.059,-338.436C877.677,-343.88 916.718,-352.726 950,-367 977.691,-378.877 1005.43,-400.044 1022.87,-414.769"/>
<polygon fill="#9a32cd" stroke="#9a32cd" points="844.23,-334.921 833.813,-336.853 843.161,-341.838 844.23,-334.921"/>
<text text-anchor="middle" x="901" y="-370" font-family="FreeSans" font-size="10.00"> Triggers</text>
</g>
<!-- Node35&#45;&gt;Node34 -->
<g id="edge98" class="edge"><title>Node35&#45;&gt;Node34</title>
<path fill="none" stroke="#9a32cd" stroke-dasharray="5,2" d="M560.368,-328.517C602.196,-328.82 654.77,-329.201 696.154,-329.501"/>
<polygon fill="#9a32cd" stroke="#9a32cd" points="560.278,-325.017 550.253,-328.444 560.228,-332.016 560.278,-325.017"/>
<text text-anchor="middle" x="624" y="-332" font-family="FreeSans" font-size="10.00"> elements</text>
</g>
<!-- Node36 -->
<g id="node86" class="node"><title>Node36</title>
<a xlink:href="classMezzanine_1_1Physics_1_1ManagerConstructionInfo.html" target="_top" xlink:title="This is a helper class storing information needed for the construction of a PhysicsManager.">
<polygon fill="white" stroke="black" points="700.5,-269 700.5,-301 829.5,-301 829.5,-269 700.5,-269"/>
<text text-anchor="start" x="708.5" y="-288" font-family="FreeSans" font-size="10.00">Mezzanine::Physics</text>
<text text-anchor="middle" x="765" y="-276" font-family="FreeSans" font-size="10.00">::ManagerConstructionInfo</text>
</a>
</g>
<!-- Node36&#45;&gt;Node6 -->
<g id="edge102" class="edge"><title>Node36&#45;&gt;Node6</title>
<path fill="none" stroke="#9a32cd" stroke-dasharray="5,2" d="M839.836,-289.583C875.23,-294.454 916.884,-304.288 950,-324 987.928,-346.576 1017.71,-390.717 1031.91,-414.643"/>
<polygon fill="#9a32cd" stroke="#9a32cd" points="839.912,-286.065 829.552,-288.281 839.033,-293.01 839.912,-286.065"/>
<text text-anchor="middle" x="901" y="-327" font-family="FreeSans" font-size="10.00"> WorldConstructionInfo</text>
</g>
<!-- Node37 -->
<g id="node88" class="node"><title>Node37</title>
<a xlink:href="classMezzanine_1_1Vector3.html" target="_top" xlink:title="This is used to represent a point in space, or a vector through space.">
<polygon fill="white" stroke="black" points="439,-263 439,-283 539,-283 539,-263 439,-263"/>
<text text-anchor="middle" x="489" y="-270" font-family="FreeSans" font-size="10.00">Mezzanine::Vector3</text>
</a>
</g>
<!-- Node37&#45;&gt;Node36 -->
<g id="edge104" class="edge"><title>Node37&#45;&gt;Node36</title>
<path fill="none" stroke="#9a32cd" stroke-dasharray="5,2" d="M549.433,-275.628C594.099,-277.57 654.823,-280.21 700.439,-282.193"/>
<polygon fill="#9a32cd" stroke="#9a32cd" points="549.444,-272.125 539.302,-275.187 549.14,-279.118 549.444,-272.125"/>
<text text-anchor="middle" x="624" y="-308" font-family="FreeSans" font-size="10.00"> GeographyLowerBounds</text>
<text text-anchor="middle" x="624" y="-296" font-family="FreeSans" font-size="10.00">GeographyUpperBounds</text>
<text text-anchor="middle" x="624" y="-284" font-family="FreeSans" font-size="10.00">Gravity</text>
</g>
</g>
</svg>
        <g id="navigator" transform="translate(0 0)" fill="#404254">
                <rect fill="#f2f5e9" fill-opacity="0.5" stroke="#606060" stroke-width=".5" x="0" y="0" width="60" height="60"/>
                <use id="zoomplus" xlink:href="#zoomPlus" x="17" y="9" onmousedown="handleZoom(evt,'in')"/>
                <use id="zoomminus" xlink:href="#zoomMin" x="42" y="9" onmousedown="handleZoom(evt,'out')"/>
                <use id="reset" xlink:href="#resetDef" x="30" y="36" onmousedown="handleReset()"/>
                <g id="arrowUp" xlink:href="#dirArrow" transform="translate(30 24)" onmousedown="handlePan(0,-1)">
                  <use xlink:href="#rim" fill="#404040">
                        <set attributeName="fill" to="#808080" begin="arrowUp.mouseover" end="arrowUp.mouseout"/>
                  </use>
                  <path fill="none" stroke="white" stroke-width="1.5" d="M0,-3.0v7 M-2.5,-0.5L0,-3.0L2.5,-0.5"/>
                </g>
                <g id="arrowRight" xlink:href="#dirArrow" transform="rotate(90) translate(36 -43)" onmousedown="handlePan(1,0)">
                  <use xlink:href="#rim" fill="#404040">
                        <set attributeName="fill" to="#808080" begin="arrowRight.mouseover" end="arrowRight.mouseout"/>
                  </use>
                  <path fill="none" stroke="white" stroke-width="1.5" d="M0,-3.0v7 M-2.5,-0.5L0,-3.0L2.5,-0.5"/>
                </g>
                <g id="arrowDown" xlink:href="#dirArrow" transform="rotate(180) translate(-30 -48)" onmousedown="handlePan(0,1)">
                  <use xlink:href="#rim" fill="#404040">
                        <set attributeName="fill" to="#808080" begin="arrowDown.mouseover" end="arrowDown.mouseout"/>
                  </use>
                  <path fill="none" stroke="white" stroke-width="1.5" d="M0,-3.0v7 M-2.5,-0.5L0,-3.0L2.5,-0.5"/>
                </g>
                <g id="arrowLeft" xlink:href="#dirArrow" transform="rotate(270) translate(-36 17)" onmousedown="handlePan(-1,0)">
                  <use xlink:href="#rim" fill="#404040">
                        <set attributeName="fill" to="#808080" begin="arrowLeft.mouseover" end="arrowLeft.mouseout"/>
                  </use>
                  <path fill="none" stroke="white" stroke-width="1.5" d="M0,-3.0v7 M-2.5,-0.5L0,-3.0L2.5,-0.5"/>
                </g>
        </g>
        <svg viewBox="0 0 15 15" width="100%" height="30px" preserveAspectRatio="xMaxYMin meet">
         <g id="arrow_out" transform="scale(0.3 0.3)">
          <a xlink:href="classMezzanine_1_1Physics_1_1DebugDrawWorkUnit__coll__graph_org.svg" target="_base">
           <rect id="button" ry="5" rx="5" y="6" x="6" height="38" width="38"
                fill="#f2f5e9" fill-opacity="0.5" stroke="#606060" stroke-width="1.0"/>
           <path id="arrow"
             d="M 11.500037,31.436501 C 11.940474,20.09759 22.043105,11.32322 32.158766,21.979434 L 37.068811,17.246167 C 37.068811,17.246167 37.088388,32 37.088388,32 L 22.160133,31.978069 C 22.160133,31.978069 26.997745,27.140456 26.997745,27.140456 C 18.528582,18.264221 13.291696,25.230495 11.500037,31.436501 z"
             style="fill:#404040;"/>
          </a>
         </g>
        </svg>
</svg>
