<?xml version="1.0" encoding="UTF-8" standalone="no"?>
<!DOCTYPE svg PUBLIC "-//W3C//DTD SVG 1.1//EN"
 "http://www.w3.org/Graphics/SVG/1.1/DTD/svg11.dtd">
<!-- Generated by graphviz version 2.26.3 (20100126.1600)
 -->
<!-- Title: Mezzanine::UI::RenderableRect Pages: 1 -->
<svg width="170pt" height="114pt"
 viewBox="0.00 0.00 170.00 114.00" xmlns="http://www.w3.org/2000/svg" xmlns:xlink="http://www.w3.org/1999/xlink">
<g id="graph1" class="graph" transform="scale(1 1) rotate(0) translate(4 110)">
<title>Mezzanine::UI::RenderableRect</title>
<polygon fill="white" stroke="white" points="-4,5 -4,-110 167,-110 167,5 -4,5"/>
<!-- Node1 -->
<g id="node1" class="node"><title>Node1</title>
<polygon fill="#bfbfbf" stroke="black" points="-0.5,-0.5 -0.5,-21.5 162.5,-21.5 162.5,-0.5 -0.5,-0.5"/>
<text text-anchor="middle" x="81" y="-8.5" font-family="FreeSans" font-size="10.00">Mezzanine::UI::RenderableRect</text>
</g>
<!-- Node2 -->
<g id="node2" class="node"><title>Node2</title>
<a xlink:href="classMezzanine_1_1Vector2.html" target="_top" xlink:title="This is used to represent a point on a 2 dimentional area, such as a screen.">
<polygon fill="white" stroke="black" points="26,-84.5 26,-105.5 136,-105.5 136,-84.5 26,-84.5"/>
<text text-anchor="middle" x="81" y="-92.5" font-family="FreeSans" font-size="10.00">Mezzanine::Vector2</text>
</a>
</g>
<!-- Node2&#45;&gt;Node1 -->
<g id="edge2" class="edge"><title>Node2&#45;&gt;Node1</title>
<path fill="none" stroke="#9a32cd" stroke-dasharray="5,2" d="M81,-73.9452C81,-57.2568 81,-34.6387 81,-21.5523"/>
<polygon fill="#9a32cd" stroke="#9a32cd" points="77.5001,-74.3613 81,-84.3613 84.5001,-74.3614 77.5001,-74.3613"/>
<text text-anchor="middle" x="100" y="-57" font-family="FreeSans" font-size="10.00"> Size</text>
<text text-anchor="middle" x="100" y="-44" font-family="FreeSans" font-size="10.00">Position</text>
</g>
</g>
</svg>
