<?xml version="1.0" encoding="UTF-8" standalone="no"?>
<!DOCTYPE svg PUBLIC "-//W3C//DTD SVG 1.1//EN"
 "http://www.w3.org/Graphics/SVG/1.1/DTD/svg11.dtd">
<!-- Generated by graphviz version 2.26.3 (20100126.1600)
 -->
<!-- Title: Mezzanine::ManagerFactory Pages: 1 -->
<svg width="352pt" height="798pt"
 viewBox="0.00 0.00 352.00 798.00" xmlns="http://www.w3.org/2000/svg" xmlns:xlink="http://www.w3.org/1999/xlink">
<g id="graph1" class="graph" transform="scale(1 1) rotate(0) translate(4 794)">
<title>Mezzanine::ManagerFactory</title>
<polygon fill="white" stroke="white" points="-4,5 -4,-794 349,-794 349,5 -4,5"/>
<!-- Node1 -->
<g id="node1" class="node"><title>Node1</title>
<polygon fill="#bfbfbf" stroke="black" points="0,-398.5 0,-419.5 140,-419.5 140,-398.5 0,-398.5"/>
<text text-anchor="middle" x="70" y="-406.5" font-family="Helvetica,sans-Serif" font-size="10.00">Mezzanine::ManagerFactory</text>
</g>
<!-- Node2 -->
<g id="node3" class="node"><title>Node2</title>
<a xlink:href="classMezzanine_1_1DefaultActorManagerFactory.html" target="_top" xlink:title="A factory responsible for the creation and destruction of the default actormanager. ">
<polygon fill="white" stroke="black" points="179,-756 179,-790 341,-790 341,-756 179,-756"/>
<text text-anchor="start" x="187" y="-777" font-family="Helvetica,sans-Serif" font-size="10.00">Mezzanine::DefaultActorManager</text>
<text text-anchor="middle" x="260" y="-764" font-family="Helvetica,sans-Serif" font-size="10.00">Factory</text>
</a>
</g>
<!-- Node1&#45;&gt;Node2 -->
<g id="edge2" class="edge"><title>Node1&#45;&gt;Node2</title>
<path fill="none" stroke="midnightblue" d="M73.9236,-429.892C86.7756,-496.257 129.462,-700.635 176,-747 179.353,-750.34 183.125,-753.253 187.166,-755.792"/>
<polygon fill="midnightblue" stroke="midnightblue" points="77.3131,-428.982 71.9976,-419.817 70.4376,-430.296 77.3131,-428.982"/>
</g>
<!-- Node3 -->
<g id="node5" class="node"><title>Node3</title>
<a xlink:href="classMezzanine_1_1DefaultAreaEffectManagerFactory.html" target="_top" xlink:title="A factory responsible for the creation and destruction of the default areaeffectmanager. ">
<polygon fill="white" stroke="black" points="186,-704 186,-738 334,-738 334,-704 186,-704"/>
<text text-anchor="start" x="194" y="-725" font-family="Helvetica,sans-Serif" font-size="10.00">Mezzanine::DefaultAreaEffect</text>
<text text-anchor="middle" x="260" y="-712" font-family="Helvetica,sans-Serif" font-size="10.00">ManagerFactory</text>
</a>
</g>
<!-- Node1&#45;&gt;Node3 -->
<g id="edge4" class="edge"><title>Node1&#45;&gt;Node3</title>
<path fill="none" stroke="midnightblue" d="M71.5614,-429.674C76.6255,-481.92 97.1827,-620.385 176,-695 179.548,-698.358 183.521,-701.283 187.758,-703.831"/>
<polygon fill="midnightblue" stroke="midnightblue" points="75.0405,-429.281 70.68,-419.625 68.0672,-429.893 75.0405,-429.281"/>
</g>
<!-- Node4 -->
<g id="node7" class="node"><title>Node4</title>
<a xlink:href="classMezzanine_1_1DefaultDebrisManagerFactory.html" target="_top" xlink:title="A factory responsible for the creation and destruction of the default DebrisManager. ">
<polygon fill="white" stroke="black" points="195,-652 195,-686 325,-686 325,-652 195,-652"/>
<text text-anchor="start" x="203" y="-673" font-family="Helvetica,sans-Serif" font-size="10.00">Mezzanine::DefaultDebris</text>
<text text-anchor="middle" x="260" y="-660" font-family="Helvetica,sans-Serif" font-size="10.00">ManagerFactory</text>
</a>
</g>
<!-- Node1&#45;&gt;Node4 -->
<g id="edge6" class="edge"><title>Node1&#45;&gt;Node4</title>
<path fill="none" stroke="midnightblue" d="M73.4538,-429.53C82.1597,-474.86 109.258,-584.13 176,-643 181.495,-647.847 187.883,-651.791 194.635,-654.999"/>
<polygon fill="midnightblue" stroke="midnightblue" points="76.8964,-428.898 71.6636,-419.686 70.0093,-430.151 76.8964,-428.898"/>
</g>
<!-- Node5 -->
<g id="node9" class="node"><title>Node5</title>
<a xlink:href="classMezzanine_1_1DefaultEventManagerFactory.html" target="_top" xlink:title="A factory responsible for the creation and destruction of the default eventmanager. ">
<polygon fill="white" stroke="black" points="178,-600 178,-634 342,-634 342,-600 178,-600"/>
<text text-anchor="start" x="186" y="-621" font-family="Helvetica,sans-Serif" font-size="10.00">Mezzanine::DefaultEventManager</text>
<text text-anchor="middle" x="260" y="-608" font-family="Helvetica,sans-Serif" font-size="10.00">Factory</text>
</a>
</g>
<!-- Node1&#45;&gt;Node5 -->
<g id="edge8" class="edge"><title>Node1&#45;&gt;Node5</title>
<path fill="none" stroke="midnightblue" d="M76.4317,-429.756C89.1904,-467.504 121.297,-547.502 176,-591 180.302,-594.42 185.054,-597.393 190.047,-599.976"/>
<polygon fill="midnightblue" stroke="midnightblue" points="79.6422,-428.311 73.2158,-419.888 72.9867,-430.48 79.6422,-428.311"/>
</g>
<!-- Node6 -->
<g id="node11" class="node"><title>Node6</title>
<a xlink:href="classMezzanine_1_1DefaultTerrainManagerFactory.html" target="_top" xlink:title="A factory responsible for the creation and destruction of the default terrainmanager. ">
<polygon fill="white" stroke="black" points="194.5,-548 194.5,-582 325.5,-582 325.5,-548 194.5,-548"/>
<text text-anchor="start" x="202.5" y="-569" font-family="Helvetica,sans-Serif" font-size="10.00">Mezzanine::DefaultTerrain</text>
<text text-anchor="middle" x="260" y="-556" font-family="Helvetica,sans-Serif" font-size="10.00">ManagerFactory</text>
</a>
</g>
<!-- Node1&#45;&gt;Node6 -->
<g id="edge10" class="edge"><title>Node1&#45;&gt;Node6</title>
<path fill="none" stroke="midnightblue" d="M80.7962,-428.49C97.5253,-456.92 132.377,-509.573 176,-539 181.695,-542.842 187.983,-546.136 194.481,-548.957"/>
<polygon fill="midnightblue" stroke="midnightblue" points="83.6628,-426.453 75.65,-419.521 77.5914,-429.937 83.6628,-426.453"/>
</g>
<!-- Node7 -->
<g id="node13" class="node"><title>Node7</title>
<a xlink:href="classMezzanine_1_1Graphics_1_1DefaultCameraManagerFactory.html" target="_top" xlink:title="A factory responsible for the creation and destruction of the default cameramanager. ">
<polygon fill="white" stroke="black" points="180.5,-496 180.5,-530 339.5,-530 339.5,-496 180.5,-496"/>
<text text-anchor="start" x="188.5" y="-517" font-family="Helvetica,sans-Serif" font-size="10.00">Mezzanine::Graphics</text>
<text text-anchor="middle" x="260" y="-504" font-family="Helvetica,sans-Serif" font-size="10.00">::DefaultCameraManagerFactory</text>
</a>
</g>
<!-- Node1&#45;&gt;Node7 -->
<g id="edge12" class="edge"><title>Node1&#45;&gt;Node7</title>
<path fill="none" stroke="midnightblue" d="M89.1187,-426.173C109.401,-443.613 143.011,-470.356 176,-487 182.542,-490.301 189.584,-493.278 196.708,-495.937"/>
<polygon fill="midnightblue" stroke="midnightblue" points="91.3648,-423.488 81.5309,-419.545 86.7597,-428.76 91.3648,-423.488"/>
</g>
<!-- Node8 -->
<g id="node15" class="node"><title>Node8</title>
<a xlink:href="classMezzanine_1_1Graphics_1_1DefaultGraphicsManagerFactory.html" target="_top" xlink:title="A factory responsible for the creation and destruction of the default graphicsmanager. ">
<polygon fill="white" stroke="black" points="178,-444 178,-478 342,-478 342,-444 178,-444"/>
<text text-anchor="start" x="186" y="-465" font-family="Helvetica,sans-Serif" font-size="10.00">Mezzanine::Graphics</text>
<text text-anchor="middle" x="260" y="-452" font-family="Helvetica,sans-Serif" font-size="10.00">::DefaultGraphicsManagerFactory</text>
</a>
</g>
<!-- Node1&#45;&gt;Node8 -->
<g id="edge14" class="edge"><title>Node1&#45;&gt;Node8</title>
<path fill="none" stroke="midnightblue" d="M118.101,-422.164C142.252,-428.774 171.802,-436.862 197.672,-443.942"/>
<polygon fill="midnightblue" stroke="midnightblue" points="119.019,-418.787 108.449,-419.523 117.171,-425.539 119.019,-418.787"/>
</g>
<!-- Node9 -->
<g id="node17" class="node"><title>Node9</title>
<a xlink:href="classMezzanine_1_1Graphics_1_1DefaultMeshManagerFactory.html" target="_top" xlink:title="A factory responsible for the creation and destruction of the default meshmanager. ">
<polygon fill="white" stroke="black" points="185.5,-392 185.5,-426 334.5,-426 334.5,-392 185.5,-392"/>
<text text-anchor="start" x="193.5" y="-413" font-family="Helvetica,sans-Serif" font-size="10.00">Mezzanine::Graphics</text>
<text text-anchor="middle" x="260" y="-400" font-family="Helvetica,sans-Serif" font-size="10.00">::DefaultMeshManagerFactory</text>
</a>
</g>
<!-- Node1&#45;&gt;Node9 -->
<g id="edge16" class="edge"><title>Node1&#45;&gt;Node9</title>
<path fill="none" stroke="midnightblue" d="M150.309,-409C161.911,-409 173.812,-409 185.298,-409"/>
<polygon fill="midnightblue" stroke="midnightblue" points="150.209,-405.5 140.209,-409 150.209,-412.5 150.209,-405.5"/>
</g>
<!-- Node10 -->
<g id="node19" class="node"><title>Node10</title>
<a xlink:href="classMezzanine_1_1Graphics_1_1DefaultSceneManagerFactory.html" target="_top" xlink:title="A factory responsible for the creation and destruction of the default scenemanager. ">
<polygon fill="white" stroke="black" points="184,-340 184,-374 336,-374 336,-340 184,-340"/>
<text text-anchor="start" x="192" y="-361" font-family="Helvetica,sans-Serif" font-size="10.00">Mezzanine::Graphics</text>
<text text-anchor="middle" x="260" y="-348" font-family="Helvetica,sans-Serif" font-size="10.00">::DefaultSceneManagerFactory</text>
</a>
</g>
<!-- Node1&#45;&gt;Node10 -->
<g id="edge18" class="edge"><title>Node1&#45;&gt;Node10</title>
<path fill="none" stroke="midnightblue" d="M118.101,-395.836C142.252,-389.226 171.802,-381.138 197.672,-374.058"/>
<polygon fill="midnightblue" stroke="midnightblue" points="117.171,-392.461 108.449,-398.477 119.019,-399.213 117.171,-392.461"/>
</g>
<!-- Node11 -->
<g id="node21" class="node"><title>Node11</title>
<a xlink:href="classMezzanine_1_1Input_1_1DefaultInputManagerFactory.html" target="_top" xlink:title="A factory responsible for the creation and destruction of the default inputmanager. ">
<polygon fill="white" stroke="black" points="195.5,-288 195.5,-322 324.5,-322 324.5,-288 195.5,-288"/>
<text text-anchor="start" x="203.5" y="-309" font-family="Helvetica,sans-Serif" font-size="10.00">Mezzanine::Input::Default</text>
<text text-anchor="middle" x="260" y="-296" font-family="Helvetica,sans-Serif" font-size="10.00">InputManagerFactory</text>
</a>
</g>
<!-- Node1&#45;&gt;Node11 -->
<g id="edge20" class="edge"><title>Node1&#45;&gt;Node11</title>
<path fill="none" stroke="midnightblue" d="M89.1187,-391.827C109.401,-374.387 143.011,-347.644 176,-331 182.542,-327.699 189.584,-324.722 196.708,-322.063"/>
<polygon fill="midnightblue" stroke="midnightblue" points="86.7597,-389.24 81.5309,-398.455 91.3648,-394.512 86.7597,-389.24"/>
</g>
<!-- Node12 -->
<g id="node23" class="node"><title>Node12</title>
<a xlink:href="classMezzanine_1_1Physics_1_1DefaultCollisionShapeManagerFactory.html" target="_top" xlink:title="A factory responsible for the creation and destruction of the default collisionshapemanager. ">
<polygon fill="white" stroke="black" points="181.5,-222.5 181.5,-269.5 338.5,-269.5 338.5,-222.5 181.5,-222.5"/>
<text text-anchor="start" x="189.5" y="-256.5" font-family="Helvetica,sans-Serif" font-size="10.00">Mezzanine::Physics</text>
<text text-anchor="start" x="189.5" y="-243.5" font-family="Helvetica,sans-Serif" font-size="10.00">::DefaultCollisionShapeManager</text>
<text text-anchor="middle" x="260" y="-230.5" font-family="Helvetica,sans-Serif" font-size="10.00">Factory</text>
</a>
</g>
<!-- Node1&#45;&gt;Node12 -->
<g id="edge22" class="edge"><title>Node1&#45;&gt;Node12</title>
<path fill="none" stroke="midnightblue" d="M81.3424,-389.509C98.5346,-361.505 133.708,-309.87 176,-279 180.683,-275.582 185.766,-272.463 191.037,-269.627"/>
<polygon fill="midnightblue" stroke="midnightblue" points="78.1774,-387.981 76.0291,-398.356 84.1783,-391.585 78.1774,-387.981"/>
</g>
<!-- Node13 -->
<g id="node25" class="node"><title>Node13</title>
<a xlink:href="classMezzanine_1_1Physics_1_1DefaultPhysicsManagerFactory.html" target="_top" xlink:title="A factory responsible for the creation and destruction of the default physicsmanager. ">
<polygon fill="white" stroke="black" points="180,-170 180,-204 340,-204 340,-170 180,-170"/>
<text text-anchor="start" x="188" y="-191" font-family="Helvetica,sans-Serif" font-size="10.00">Mezzanine::Physics</text>
<text text-anchor="middle" x="260" y="-178" font-family="Helvetica,sans-Serif" font-size="10.00">::DefaultPhysicsManagerFactory</text>
</a>
</g>
<!-- Node1&#45;&gt;Node13 -->
<g id="edge24" class="edge"><title>Node1&#45;&gt;Node13</title>
<path fill="none" stroke="midnightblue" d="M75.4005,-388.581C86.9722,-348.808 117.946,-260.681 176,-213 180.129,-209.609 184.699,-206.659 189.512,-204.093"/>
<polygon fill="midnightblue" stroke="midnightblue" points="72.0239,-387.66 72.701,-398.233 78.7652,-389.546 72.0239,-387.66"/>
</g>
<!-- Node14 -->
<g id="node27" class="node"><title>Node14</title>
<a xlink:href="classMezzanine_1_1Resource_1_1DefaultResourceManagerFactory.html" target="_top" xlink:title="A factory responsible for the creation and destruction of the default resourcemanager. ">
<polygon fill="white" stroke="black" points="176.5,-118 176.5,-152 343.5,-152 343.5,-118 176.5,-118"/>
<text text-anchor="start" x="184.5" y="-139" font-family="Helvetica,sans-Serif" font-size="10.00">Mezzanine::Resource</text>
<text text-anchor="middle" x="260" y="-126" font-family="Helvetica,sans-Serif" font-size="10.00">::DefaultResourceManagerFactory</text>
</a>
</g>
<!-- Node1&#45;&gt;Node14 -->
<g id="edge26" class="edge"><title>Node1&#45;&gt;Node14</title>
<path fill="none" stroke="midnightblue" d="M72.8541,-388.554C80.5239,-341.375 105.965,-224.121 176,-161 179.742,-157.627 183.915,-154.692 188.346,-152.138"/>
<polygon fill="midnightblue" stroke="midnightblue" points="69.3872,-388.072 71.3382,-398.486 76.307,-389.129 69.3872,-388.072"/>
</g>
<!-- Node15 -->
<g id="node29" class="node"><title>Node15</title>
<a xlink:href="classMezzanine_1_1Scripting_1_1Lua_1_1Lua51ScriptingEngineFactory.html" target="_top" xlink:title="Mezzanine::Scripting\l::Lua::Lua51ScriptingEngine\lFactory">
<polygon fill="white" stroke="black" points="190.5,-52.5 190.5,-99.5 329.5,-99.5 329.5,-52.5 190.5,-52.5"/>
<text text-anchor="start" x="198.5" y="-86.5" font-family="Helvetica,sans-Serif" font-size="10.00">Mezzanine::Scripting</text>
<text text-anchor="start" x="198.5" y="-73.5" font-family="Helvetica,sans-Serif" font-size="10.00">::Lua::Lua51ScriptingEngine</text>
<text text-anchor="middle" x="260" y="-60.5" font-family="Helvetica,sans-Serif" font-size="10.00">Factory</text>
</a>
</g>
<!-- Node1&#45;&gt;Node15 -->
<g id="edge28" class="edge"><title>Node1&#45;&gt;Node15</title>
<path fill="none" stroke="midnightblue" d="M71.546,-388.058C76.596,-334.425 97.1646,-190.619 176,-109 180.245,-104.605 185.147,-100.783 190.406,-97.4616"/>
<polygon fill="midnightblue" stroke="midnightblue" points="68.0309,-388.086 70.6681,-398.347 75.0056,-388.681 68.0309,-388.086"/>
</g>
<!-- Node16 -->
<g id="node31" class="node"><title>Node16</title>
<a xlink:href="classMezzanine_1_1UI_1_1DefaultUIManagerFactory.html" target="_top" xlink:title="A factory responsible for the creation and destruction of the default uimanager. ">
<polygon fill="white" stroke="black" points="177,-0 177,-34 343,-34 343,-0 177,-0"/>
<text text-anchor="start" x="185" y="-21" font-family="Helvetica,sans-Serif" font-size="10.00">Mezzanine::UI::DefaultUIManager</text>
<text text-anchor="middle" x="260" y="-8" font-family="Helvetica,sans-Serif" font-size="10.00">Factory</text>
</a>
</g>
<!-- Node1&#45;&gt;Node16 -->
<g id="edge30" class="edge"><title>Node1&#45;&gt;Node16</title>
<path fill="none" stroke="midnightblue" d="M73.3693,-388.239C85.0836,-318.454 126.059,-93.8613 176,-43 179.316,-39.6232 183.06,-36.683 187.081,-34.1232"/>
<polygon fill="midnightblue" stroke="midnightblue" points="69.8679,-387.961 71.6885,-398.398 76.774,-389.103 69.8679,-387.961"/>
</g>
</g>
</svg>
