<?xml version="1.0" encoding="UTF-8" standalone="no"?>
<!DOCTYPE svg PUBLIC "-//W3C//DTD SVG 1.1//EN"
 "http://www.w3.org/Graphics/SVG/1.1/DTD/svg11.dtd">
<!-- Generated by graphviz version 2.26.3 (20100126.1600)
 -->
<!-- Title: Mezzanine::RuntimeAssertionException Pages: 1 -->
<svg width="150pt" height="158pt"
 viewBox="0.00 0.00 150.00 158.00" xmlns="http://www.w3.org/2000/svg" xmlns:xlink="http://www.w3.org/1999/xlink">
<g id="graph1" class="graph" transform="scale(1 1) rotate(0) translate(4 154)">
<title>Mezzanine::RuntimeAssertionException</title>
<!-- Node1 -->
<g id="node1" class="node"><title>Node1</title>
<polygon fill="#bfbfbf" stroke="black" points="-0.5,-1 -0.5,-33 142.5,-33 142.5,-1 -0.5,-1"/>
<text text-anchor="start" x="7.5" y="-20" font-family="FreeSans" font-size="10.00">Mezzanine::RuntimeAssertion</text>
<text text-anchor="middle" x="71" y="-8" font-family="FreeSans" font-size="10.00">Exception</text>
</g>
<!-- Node2 -->
<g id="node2" class="node"><title>Node2</title>
<a xlink:href="classMezzanine_1_1Exception.xhtml" target="_top" xlink:title="This is the exception thrown by most Mezzanine system that can throw exceptions.">
<polygon fill="none" stroke="black" points="16.5,-71 16.5,-91 125.5,-91 125.5,-71 16.5,-71"/>
<text text-anchor="middle" x="71" y="-78" font-family="FreeSans" font-size="10.00">Mezzanine::Exception</text>
</a>
</g>
<!-- Node2&#45;&gt;Node1 -->
<g id="edge2" class="edge"><title>Node2&#45;&gt;Node1</title>
<path fill="none" stroke="midnightblue" d="M71,-60.4346C71,-51.5494 71,-41.3101 71,-33.0054"/>
<polygon fill="midnightblue" stroke="midnightblue" points="67.5001,-60.7173 71,-70.7173 74.5001,-60.7173 67.5001,-60.7173"/>
</g>
<!-- Node3 -->
<g id="node4" class="node"><title>Node3</title>
<a xlink:title="STL class.">
<polygon fill="none" stroke="#bfbfbf" points="33.5,-129 33.5,-149 108.5,-149 108.5,-129 33.5,-129"/>
<text text-anchor="middle" x="71" y="-136" font-family="FreeSans" font-size="10.00">std::exception</text>
</a>
</g>
<!-- Node3&#45;&gt;Node2 -->
<g id="edge4" class="edge"><title>Node3&#45;&gt;Node2</title>
<path fill="none" stroke="midnightblue" d="M71,-118.89C71,-109.62 71,-99.0083 71,-91.3776"/>
<polygon fill="midnightblue" stroke="midnightblue" points="67.5001,-118.897 71,-128.897 74.5001,-118.897 67.5001,-118.897"/>
</g>
</g>
</svg>
