<?xml version="1.0" encoding="UTF-8" standalone="no"?>
<!DOCTYPE svg PUBLIC "-//W3C//DTD SVG 1.1//EN"
 "http://www.w3.org/Graphics/SVG/1.1/DTD/svg11.dtd">
<!-- Generated by graphviz version 2.38.0 (20140413.2041)
 -->
<!-- Title: Mezzanine::Network::HTTPRequest Pages: 1 -->
<svg width="399pt" height="473pt"
 viewBox="0.00 0.00 398.50 473.00" xmlns="http://www.w3.org/2000/svg" xmlns:xlink="http://www.w3.org/1999/xlink">
<g id="graph0" class="graph" transform="scale(1 1) rotate(0) translate(4 469)">
<title>Mezzanine::Network::HTTPRequest</title>
<polygon fill="white" stroke="none" points="-4,4 -4,-469 394.5,-469 394.5,4 -4,4"/>
<!-- Node1 -->
<g id="node1" class="node"><title>Node1</title>
<polygon fill="#bfbfbf" stroke="black" points="244.5,-0.5 244.5,-30.5 351.5,-30.5 351.5,-0.5 244.5,-0.5"/>
<text text-anchor="start" x="252.5" y="-18.5" font-family="Helvetica,sans-Serif" font-size="10.00">Mezzanine::Network</text>
<text text-anchor="middle" x="298" y="-7.5" font-family="Helvetica,sans-Serif" font-size="10.00">::HTTPRequest</text>
</g>
<!-- Node2 -->
<g id="node2" class="node"><title>Node2</title>
<g id="a_node2"><a xlink:href="classMezzanine_1_1Network_1_1HTTPMessage.html" target="_top" xlink:title="A base class for HTTP text parsing classes. ">
<polygon fill="white" stroke="black" points="149.5,-68.5 149.5,-98.5 256.5,-98.5 256.5,-68.5 149.5,-68.5"/>
<text text-anchor="start" x="157.5" y="-86.5" font-family="Helvetica,sans-Serif" font-size="10.00">Mezzanine::Network</text>
<text text-anchor="middle" x="203" y="-75.5" font-family="Helvetica,sans-Serif" font-size="10.00">::HTTPMessage</text>
</a>
</g>
</g>
<!-- Node2&#45;&gt;Node1 -->
<g id="edge1" class="edge"><title>Node2&#45;&gt;Node1</title>
<path fill="none" stroke="midnightblue" d="M231.949,-62.3884C246.757,-52.1003 264.42,-39.8293 277.753,-30.5663"/>
<polygon fill="midnightblue" stroke="midnightblue" points="229.829,-59.599 223.614,-68.179 233.823,-65.3478 229.829,-59.599"/>
</g>
<!-- Node3 -->
<g id="node3" class="node"><title>Node3</title>
<polygon fill="white" stroke="#bfbfbf" points="0,-146.5 0,-165.5 134,-165.5 134,-146.5 0,-146.5"/>
<text text-anchor="middle" x="67" y="-153.5" font-family="Helvetica,sans-Serif" font-size="10.00">std::vector&lt; HeaderField &gt;</text>
</g>
<!-- Node3&#45;&gt;Node2 -->
<g id="edge2" class="edge"><title>Node3&#45;&gt;Node2</title>
<path fill="none" stroke="#9a32cd" stroke-dasharray="5,2" d="M68.5717,-136.183C70.0521,-129.325 72.8313,-122.029 78,-117 96.8836,-98.6269 124.766,-90.2731 149.408,-86.6117"/>
<polygon fill="#9a32cd" stroke="#9a32cd" points="65.0885,-135.819 67.1578,-146.209 72.0199,-136.796 65.0885,-135.819"/>
<text text-anchor="middle" x="113" y="-120" font-family="Helvetica,sans-Serif" font-size="10.00"> MessageFields</text>
</g>
<!-- Node4 -->
<g id="node4" class="node"><title>Node4</title>
<g id="a_node4"><a xlink:href="structMezzanine_1_1Network_1_1HeaderField.html" target="_top" xlink:title="Convenience class for storing Header fields in internet messaging protocols. ">
<polygon fill="white" stroke="black" points="23.5,-222.5 23.5,-252.5 130.5,-252.5 130.5,-222.5 23.5,-222.5"/>
<text text-anchor="start" x="31.5" y="-240.5" font-family="Helvetica,sans-Serif" font-size="10.00">Mezzanine::Network</text>
<text text-anchor="middle" x="77" y="-229.5" font-family="Helvetica,sans-Serif" font-size="10.00">::HeaderField</text>
</a>
</g>
</g>
<!-- Node4&#45;&gt;Node3 -->
<g id="edge3" class="edge"><title>Node4&#45;&gt;Node3</title>
<path fill="none" stroke="#9a32cd" stroke-dasharray="5,2" d="M73.9344,-212.128C71.9502,-196.354 69.4855,-176.76 68.0928,-165.688"/>
<polygon fill="#9a32cd" stroke="#9a32cd" points="70.4915,-212.802 75.2122,-222.287 77.4367,-211.928 70.4915,-212.802"/>
<text text-anchor="middle" x="94.5" y="-191.5" font-family="Helvetica,sans-Serif" font-size="10.00"> elements</text>
</g>
<!-- Node5 -->
<g id="node5" class="node"><title>Node5</title>
<g id="a_node5"><a xlink:title="STL class. ">
<polygon fill="white" stroke="#bfbfbf" points="132,-377.5 132,-396.5 192,-396.5 192,-377.5 132,-377.5"/>
<text text-anchor="middle" x="162" y="-384.5" font-family="Helvetica,sans-Serif" font-size="10.00">std::string</text>
</a>
</g>
</g>
<!-- Node5&#45;&gt;Node2 -->
<g id="edge6" class="edge"><title>Node5&#45;&gt;Node2</title>
<path fill="none" stroke="#9a32cd" stroke-dasharray="5,2" d="M161.811,-367.04C161.772,-326.163 163.652,-226.888 181,-146 184.567,-129.369 191.507,-111.113 196.643,-98.8461"/>
<polygon fill="#9a32cd" stroke="#9a32cd" points="158.312,-367.18 161.864,-377.162 165.312,-367.143 158.312,-367.18"/>
<text text-anchor="middle" x="207" y="-191.5" font-family="Helvetica,sans-Serif" font-size="10.00"> MessageBody</text>
</g>
<!-- Node5&#45;&gt;Node4 -->
<g id="edge4" class="edge"><title>Node5&#45;&gt;Node4</title>
<path fill="none" stroke="#9a32cd" stroke-dasharray="5,2" d="M121.93,-380.423C108.813,-376.559 95.4535,-370.028 87,-359 62.9902,-327.679 68.8517,-277.374 73.6597,-252.86"/>
<polygon fill="#9a32cd" stroke="#9a32cd" points="121.278,-383.868 131.828,-382.89 122.971,-377.076 121.278,-383.868"/>
<text text-anchor="middle" x="117.5" y="-318" font-family="Helvetica,sans-Serif" font-size="10.00"> HeaderName</text>
<text text-anchor="middle" x="117.5" y="-307" font-family="Helvetica,sans-Serif" font-size="10.00">HeaderValue</text>
</g>
<!-- Node8 -->
<g id="node8" class="node"><title>Node8</title>
<g id="a_node8"><a xlink:href="classMezzanine_1_1Network_1_1URI.html" target="_top" xlink:title="A helper class for the reading and using of Uniform Resource Identifiers. ">
<polygon fill="white" stroke="black" points="259.5,-184.5 259.5,-203.5 390.5,-203.5 390.5,-184.5 259.5,-184.5"/>
<text text-anchor="middle" x="325" y="-191.5" font-family="Helvetica,sans-Serif" font-size="10.00">Mezzanine::Network::URI</text>
</a>
</g>
</g>
<!-- Node5&#45;&gt;Node8 -->
<g id="edge9" class="edge"><title>Node5&#45;&gt;Node8</title>
<path fill="none" stroke="#9a32cd" stroke-dasharray="5,2" d="M176.096,-369.482C209.432,-330.42 292.218,-233.413 317.529,-203.754"/>
<polygon fill="#9a32cd" stroke="#9a32cd" points="173.257,-367.418 169.427,-377.297 178.581,-371.962 173.257,-367.418"/>
<text text-anchor="middle" x="288" y="-351" font-family="Helvetica,sans-Serif" font-size="10.00"> URIQuery</text>
<text text-anchor="middle" x="288" y="-340" font-family="Helvetica,sans-Serif" font-size="10.00">URIScheme</text>
<text text-anchor="middle" x="288" y="-329" font-family="Helvetica,sans-Serif" font-size="10.00">URIUserInfo</text>
<text text-anchor="middle" x="288" y="-318" font-family="Helvetica,sans-Serif" font-size="10.00">URIFragment</text>
<text text-anchor="middle" x="288" y="-307" font-family="Helvetica,sans-Serif" font-size="10.00">SubDelims</text>
<text text-anchor="middle" x="288" y="-296" font-family="Helvetica,sans-Serif" font-size="10.00">URIPath</text>
<text text-anchor="middle" x="288" y="-285" font-family="Helvetica,sans-Serif" font-size="10.00">GenDelims</text>
<text text-anchor="middle" x="288" y="-274" font-family="Helvetica,sans-Serif" font-size="10.00">URIHost</text>
</g>
<!-- Node6 -->
<g id="node6" class="node"><title>Node6</title>
<g id="a_node6"><a xlink:title="STL class. ">
<polygon fill="white" stroke="#bfbfbf" points="114.5,-434.5 114.5,-464.5 209.5,-464.5 209.5,-434.5 114.5,-434.5"/>
<text text-anchor="start" x="122.5" y="-452.5" font-family="Helvetica,sans-Serif" font-size="10.00">std::basic_string&lt;</text>
<text text-anchor="middle" x="162" y="-441.5" font-family="Helvetica,sans-Serif" font-size="10.00"> char &gt;</text>
</a>
</g>
</g>
<!-- Node6&#45;&gt;Node5 -->
<g id="edge5" class="edge"><title>Node6&#45;&gt;Node5</title>
<path fill="none" stroke="midnightblue" d="M162,-424.352C162,-414.513 162,-403.775 162,-396.54"/>
<polygon fill="midnightblue" stroke="midnightblue" points="158.5,-424.468 162,-434.468 165.5,-424.468 158.5,-424.468"/>
</g>
<!-- Node7 -->
<g id="node7" class="node"><title>Node7</title>
<g id="a_node7"><a xlink:href="classMezzanine_1_1SimpleVersion.html" target="_top" xlink:title="A very basic class for expressing an API or syntax version. ">
<polygon fill="white" stroke="black" points="190.5,-146.5 190.5,-165.5 323.5,-165.5 323.5,-146.5 190.5,-146.5"/>
<text text-anchor="middle" x="257" y="-153.5" font-family="Helvetica,sans-Serif" font-size="10.00">Mezzanine::SimpleVersion</text>
</a>
</g>
</g>
<!-- Node7&#45;&gt;Node2 -->
<g id="edge7" class="edge"><title>Node7&#45;&gt;Node2</title>
<path fill="none" stroke="#9a32cd" stroke-dasharray="5,2" d="M244.28,-138.393C235.004,-126.283 222.571,-110.051 213.782,-98.5762"/>
<polygon fill="#9a32cd" stroke="#9a32cd" points="241.519,-140.545 250.379,-146.355 247.076,-136.288 241.519,-140.545"/>
<text text-anchor="middle" x="273" y="-120" font-family="Helvetica,sans-Serif" font-size="10.00"> MessageVersion</text>
</g>
<!-- Node8&#45;&gt;Node1 -->
<g id="edge8" class="edge"><title>Node8&#45;&gt;Node1</title>
<path fill="none" stroke="#9a32cd" stroke-dasharray="5,2" d="M330.514,-174.236C331.129,-171.495 331.657,-168.69 332,-166 333.124,-157.183 333.138,-154.816 332,-146 326.465,-103.121 311.025,-54.1883 302.995,-30.6343"/>
<polygon fill="#9a32cd" stroke="#9a32cd" points="327.075,-173.55 327.912,-184.111 333.844,-175.333 327.075,-173.55"/>
<text text-anchor="middle" x="358" y="-120" font-family="Helvetica,sans-Serif" font-size="10.00"> RequestURI</text>
</g>
</g>
</svg>
