<?xml version="1.0" encoding="UTF-8" standalone="no"?>
<!DOCTYPE svg PUBLIC "-//W3C//DTD SVG 1.1//EN"
 "http://www.w3.org/Graphics/SVG/1.1/DTD/svg11.dtd">
<!-- Generated by graphviz version 2.26.3 (20100126.1600)
 -->
<!-- Title: Mezzanine::FileReadException Pages: 1 -->
<svg width="154pt" height="262pt"
 viewBox="0.00 0.00 154.00 262.00" xmlns="http://www.w3.org/2000/svg" xmlns:xlink="http://www.w3.org/1999/xlink">
<g id="graph1" class="graph" transform="scale(1 1) rotate(0) translate(4 258)">
<title>Mezzanine::FileReadException</title>
<polygon fill="white" stroke="white" points="-4,5 -4,-258 151,-258 151,5 -4,5"/>
<!-- Node1 -->
<g id="node1" class="node"><title>Node1</title>
<polygon fill="#bfbfbf" stroke="black" points="-0.5,-1 -0.5,-21 146.5,-21 146.5,-1 -0.5,-1"/>
<text text-anchor="middle" x="73" y="-8" font-family="FreeSans" font-size="10.00">Mezzanine::FileReadException</text>
</g>
<!-- Node2 -->
<g id="node2" class="node"><title>Node2</title>
<a xlink:href="classMezzanine_1_1FileException.html" target="_top" xlink:title="Thrown when there is an unknown issue with a file. ">
<polygon fill="white" stroke="black" points="10.5,-59 10.5,-79 135.5,-79 135.5,-59 10.5,-59"/>
<text text-anchor="middle" x="73" y="-66" font-family="FreeSans" font-size="10.00">Mezzanine::FileException</text>
</a>
</g>
<!-- Node2&#45;&gt;Node1 -->
<g id="edge2" class="edge"><title>Node2&#45;&gt;Node1</title>
<path fill="none" stroke="midnightblue" d="M73,-48.8902C73,-39.6201 73,-29.0083 73,-21.3776"/>
<polygon fill="midnightblue" stroke="midnightblue" points="69.5001,-48.8971 73,-58.8972 76.5001,-48.8972 69.5001,-48.8971"/>
</g>
<!-- Node3 -->
<g id="node4" class="node"><title>Node3</title>
<a xlink:href="classMezzanine_1_1IOException.html" target="_top" xlink:title="Thrown when there was an issue with IO but very little was known about it. ">
<polygon fill="white" stroke="black" points="13.5,-117 13.5,-137 132.5,-137 132.5,-117 13.5,-117"/>
<text text-anchor="middle" x="73" y="-124" font-family="FreeSans" font-size="10.00">Mezzanine::IOException</text>
</a>
</g>
<!-- Node3&#45;&gt;Node2 -->
<g id="edge4" class="edge"><title>Node3&#45;&gt;Node2</title>
<path fill="none" stroke="midnightblue" d="M73,-106.89C73,-97.6201 73,-87.0083 73,-79.3776"/>
<polygon fill="midnightblue" stroke="midnightblue" points="69.5001,-106.897 73,-116.897 76.5001,-106.897 69.5001,-106.897"/>
</g>
<!-- Node4 -->
<g id="node6" class="node"><title>Node4</title>
<a xlink:href="classMezzanine_1_1Exception.html" target="_top" xlink:title="This is the exception thrown by most Mezzanine system that can throw exceptions. ">
<polygon fill="white" stroke="black" points="18.5,-175 18.5,-195 127.5,-195 127.5,-175 18.5,-175"/>
<text text-anchor="middle" x="73" y="-182" font-family="FreeSans" font-size="10.00">Mezzanine::Exception</text>
</a>
</g>
<!-- Node4&#45;&gt;Node3 -->
<g id="edge6" class="edge"><title>Node4&#45;&gt;Node3</title>
<path fill="none" stroke="midnightblue" d="M73,-164.89C73,-155.62 73,-145.008 73,-137.378"/>
<polygon fill="midnightblue" stroke="midnightblue" points="69.5001,-164.897 73,-174.897 76.5001,-164.897 69.5001,-164.897"/>
</g>
<!-- Node5 -->
<g id="node8" class="node"><title>Node5</title>
<a xlink:title="STL class. ">
<polygon fill="white" stroke="#bfbfbf" points="35.5,-233 35.5,-253 110.5,-253 110.5,-233 35.5,-233"/>
<text text-anchor="middle" x="73" y="-240" font-family="FreeSans" font-size="10.00">std::exception</text>
</a>
</g>
<!-- Node5&#45;&gt;Node4 -->
<g id="edge8" class="edge"><title>Node5&#45;&gt;Node4</title>
<path fill="none" stroke="midnightblue" d="M73,-222.89C73,-213.62 73,-203.008 73,-195.378"/>
<polygon fill="midnightblue" stroke="midnightblue" points="69.5001,-222.897 73,-232.897 76.5001,-222.897 69.5001,-222.897"/>
</g>
</g>
</svg>
