<?xml version="1.0" encoding="UTF-8" standalone="no"?>
<!DOCTYPE svg PUBLIC "-//W3C//DTD SVG 1.1//EN"
 "http://www.w3.org/Graphics/SVG/1.1/DTD/svg11.dtd">
<!-- Generated by graphviz version 2.26.3 (20100126.1600)
 -->
<!-- Title: Mezzanine::ObjectSettingsHandler Pages: 1 -->
<!--zoomable 374 -->
<svg id="main" version="1.1" xmlns="http://www.w3.org/2000/svg" xmlns:xlink="http://www.w3.org/1999/xlink" xml:space="preserve" onload="init(evt)">
        <defs>
                <circle id="rim" cx="0" cy="0" r="7"/>
                <circle id="rim2" cx="0" cy="0" r="3.5"/>
                <g id="zoomPlus">
                        <use xlink:href="#rim" fill="#404040">
                                <set attributeName="fill" to="#808080" begin="zoomplus.mouseover" end="zoomplus.mouseout"/>
                        </use>
                        <path d="M-4,0h8M0,-4v8" fill="none" stroke="white" stroke-width="1.5" pointer-events="none"/>
                </g>
                <g id="zoomMin">
                        <use xlink:href="#rim" fill="#404040">
                                <set attributeName="fill" to="#808080" begin="zoomminus.mouseover" end="zoomminus.mouseout"/>
                        </use>
                        <path d="M-4,0h8" fill="none" stroke="white" stroke-width="1.5" pointer-events="none"/>
                </g>
                <g id="dirArrow">
                        <path fill="none" stroke="white" stroke-width="1.5" d="M0,-3.0v7 M-2.5,-0.5L0,-3.0L2.5,-0.5"/>
                </g>
               <g id="resetDef">
                       <use xlink:href="#rim2" fill="#404040">
                               <set attributeName="fill" to="#808080" begin="reset.mouseover" end="reset.mouseout"/>
                       </use>
               </g>
        </defs>

<script type="text/javascript">
var viewWidth = 1252;
var viewHeight = 374;
var sectionId = 'dynsection-1';
</script>
<script xlink:href="svgpan.js"/>
<svg id="graph" class="graph">
<g id="viewport">
<title>Mezzanine::ObjectSettingsHandler</title>
<polygon fill="white" stroke="white" points="-4,5 -4,-369.554 1249,-369.554 1249,5 -4,5"/>
<!-- Node1 -->
<g id="node1" class="node"><title>Node1</title>
<polygon fill="#bfbfbf" stroke="black" points="1100,-269.554 1100,-303.554 1244,-303.554 1244,-269.554 1100,-269.554"/>
<text text-anchor="start" x="1108" y="-290.554" font-family="FreeSans" font-size="10.00">Mezzanine::ObjectSettings</text>
<text text-anchor="middle" x="1172" y="-277.554" font-family="FreeSans" font-size="10.00">Handler</text>
</g>
<!-- Node2 -->
<g id="node2" class="node"><title>Node2</title>
<polygon fill="white" stroke="#bfbfbf" points="616,-269.554 616,-303.554 752,-303.554 752,-269.554 616,-269.554"/>
<text text-anchor="start" x="624" y="-290.554" font-family="FreeSans" font-size="10.00">std::map&lt; String, Object</text>
<text text-anchor="middle" x="684" y="-277.554" font-family="FreeSans" font-size="10.00">SettingFile * &gt;</text>
</g>
<!-- Node2&#45;&gt;Node1 -->
<g id="edge2" class="edge"><title>Node2&#45;&gt;Node1</title>
<path fill="none" stroke="#9a32cd" stroke-dasharray="5,2" d="M762.311,-286.554C855.348,-286.554 1009.3,-286.554 1099.64,-286.554"/>
<polygon fill="#9a32cd" stroke="#9a32cd" points="762.111,-283.055 752.111,-286.554 762.111,-290.055 762.111,-283.055"/>
<text text-anchor="middle" x="920" y="-290.554" font-family="FreeSans" font-size="10.00"> SettingFiles</text>
</g>
<!-- Node3 -->
<g id="node4" class="node"><title>Node3</title>
<a xlink:href="classMezzanine_1_1ObjectSettingFile.html" target="_top" xlink:title="This class represents a file to be saved containing one or more OhjectSettingGroup&#39;s.">
<polygon fill="white" stroke="black" points="324,-215.054 324,-236.054 478,-236.054 478,-215.054 324,-215.054"/>
<text text-anchor="middle" x="401" y="-223.054" font-family="FreeSans" font-size="10.00">Mezzanine::ObjectSettingFile</text>
</a>
</g>
<!-- Node3&#45;&gt;Node2 -->
<g id="edge4" class="edge"><title>Node3&#45;&gt;Node2</title>
<path fill="none" stroke="#9a32cd" stroke-dasharray="5,2" d="M452.938,-238.507C466.897,-241.885 482.003,-245.447 496,-248.554 535.659,-257.36 580.215,-266.403 615.994,-273.457"/>
<polygon fill="#9a32cd" stroke="#9a32cd" points="453.554,-235.055 443.01,-236.09 451.898,-241.856 453.554,-235.055"/>
<text text-anchor="middle" x="542" y="-270.554" font-family="FreeSans" font-size="10.00"> elements</text>
</g>
<!-- Node7 -->
<g id="node12" class="node"><title>Node7</title>
<a xlink:href="classMezzanine_1_1ObjectSettingGroup.html" target="_top" xlink:title="A class that store&#39;s a collection of SettingSets that can be applied together.">
<polygon fill="white" stroke="black" points="614.5,-168.554 614.5,-202.554 753.5,-202.554 753.5,-168.554 614.5,-168.554"/>
<text text-anchor="start" x="622.5" y="-189.554" font-family="FreeSans" font-size="10.00">Mezzanine::ObjectSetting</text>
<text text-anchor="middle" x="684" y="-176.554" font-family="FreeSans" font-size="10.00">Group</text>
</a>
</g>
<!-- Node3&#45;&gt;Node7 -->
<g id="edge30" class="edge"><title>Node3&#45;&gt;Node7</title>
<path fill="none" stroke="#9a32cd" stroke-dasharray="5,2" d="M476.65,-213.439C483.192,-212.443 489.711,-211.469 496,-210.554 535.1,-204.869 578.853,-199.02 614.304,-194.411"/>
<polygon fill="#9a32cd" stroke="#9a32cd" points="475.734,-210.039 466.381,-215.016 476.797,-216.957 475.734,-210.039"/>
<text text-anchor="middle" x="542" y="-214.554" font-family="FreeSans" font-size="10.00"> OptionalFile</text>
</g>
<!-- Node4 -->
<g id="node6" class="node"><title>Node4</title>
<a xlink:title="STL class.">
<polygon fill="white" stroke="#bfbfbf" points="142.5,-165.054 142.5,-186.054 207.5,-186.054 207.5,-165.054 142.5,-165.054"/>
<text text-anchor="middle" x="175" y="-173.054" font-family="FreeSans" font-size="10.00">std::string</text>
</a>
</g>
<!-- Node4&#45;&gt;Node1 -->
<g id="edge34" class="edge"><title>Node4&#45;&gt;Node1</title>
<path fill="none" stroke="#9a32cd" stroke-dasharray="5,2" d="M186.377,-195.42C195.627,-210.301 209.772,-230.441 226,-244.554 292.778,-302.63 312.501,-339.554 401,-339.554 401,-339.554 401,-339.554 920,-339.554 991.084,-339.554 1071.08,-319.109 1121.5,-303.616"/>
<polygon fill="#9a32cd" stroke="#9a32cd" points="189.181,-193.29 181.033,-186.517 183.179,-196.893 189.181,-193.29"/>
<text text-anchor="middle" x="684" y="-356.554" font-family="FreeSans" font-size="10.00"> CurrentSettingsSaveFile</text>
<text text-anchor="middle" x="684" y="-343.554" font-family="FreeSans" font-size="10.00">SettingsFilePath</text>
</g>
<!-- Node4&#45;&gt;Node2 -->
<g id="edge32" class="edge"><title>Node4&#45;&gt;Node2</title>
<path fill="none" stroke="#9a32cd" stroke-dasharray="5,2" d="M191.146,-193.425C200.486,-202.765 212.952,-213.655 226,-220.554 265.738,-241.565 280.27,-235.149 324,-245.554 400.161,-263.677 418.245,-274.439 496,-283.554 535.554,-288.191 580.105,-289.09 615.907,-288.76"/>
<polygon fill="#9a32cd" stroke="#9a32cd" points="193.538,-190.863 184.091,-186.067 188.485,-195.708 193.538,-190.863"/>
<text text-anchor="middle" x="401" y="-284.554" font-family="FreeSans" font-size="10.00"> keys</text>
</g>
<!-- Node4&#45;&gt;Node3 -->
<g id="edge6" class="edge"><title>Node4&#45;&gt;Node3</title>
<path fill="none" stroke="#9a32cd" stroke-dasharray="5,2" d="M217.779,-185.019C256.489,-193.583 313.412,-206.177 353.516,-215.049"/>
<polygon fill="#9a32cd" stroke="#9a32cd" points="218.382,-181.568 207.862,-182.825 216.87,-188.402 218.382,-181.568"/>
<text text-anchor="middle" x="266" y="-207.554" font-family="FreeSans" font-size="10.00"> File</text>
</g>
<!-- Node8 -->
<g id="node14" class="node"><title>Node8</title>
<a xlink:href="classMezzanine_1_1ObjectSettingSetContainer.html" target="_top" xlink:title="A base class for other classes that store ObjectSettingSet&#39;s.">
<polygon fill="white" stroke="black" points="331.5,-74.5544 331.5,-108.554 470.5,-108.554 470.5,-74.5544 331.5,-74.5544"/>
<text text-anchor="start" x="339.5" y="-95.5544" font-family="FreeSans" font-size="10.00">Mezzanine::ObjectSetting</text>
<text text-anchor="middle" x="401" y="-82.5544" font-family="FreeSans" font-size="10.00">SetContainer</text>
</a>
</g>
<!-- Node4&#45;&gt;Node8 -->
<g id="edge28" class="edge"><title>Node4&#45;&gt;Node8</title>
<path fill="none" stroke="#9a32cd" stroke-dasharray="5,2" d="M188.447,-156.37C197.661,-144.724 210.916,-130.6 226,-122.554 258.125,-105.42 297.816,-97.4953 331.273,-93.9302"/>
<polygon fill="#9a32cd" stroke="#9a32cd" points="185.435,-154.554 182.226,-164.651 191.031,-158.758 185.435,-154.554"/>
<text text-anchor="middle" x="266" y="-126.554" font-family="FreeSans" font-size="10.00"> ContainerName</text>
</g>
<!-- Node11 -->
<g id="node22" class="node"><title>Node11</title>
<polygon fill="white" stroke="#bfbfbf" points="328.5,-14.0544 328.5,-35.0544 473.5,-35.0544 473.5,-14.0544 328.5,-14.0544"/>
<text text-anchor="middle" x="401" y="-22.0544" font-family="FreeSans" font-size="10.00">std::map&lt; String, String &gt;</text>
</g>
<!-- Node4&#45;&gt;Node11 -->
<g id="edge26" class="edge"><title>Node4&#45;&gt;Node11</title>
<path fill="none" stroke="#9a32cd" stroke-dasharray="5,2" d="M179.239,-154.932C185.33,-130.616 198.939,-90.7152 226,-68.5544 254.6,-45.1333 294.016,-33.9551 328.2,-28.7096"/>
<polygon fill="#9a32cd" stroke="#9a32cd" points="175.78,-154.358 176.949,-164.888 182.602,-155.927 175.78,-154.358"/>
<text text-anchor="middle" x="266" y="-85.5544" font-family="FreeSans" font-size="10.00"> keys</text>
<text text-anchor="middle" x="266" y="-72.5544" font-family="FreeSans" font-size="10.00">elements</text>
</g>
<!-- Node12 -->
<g id="node29" class="node"><title>Node12</title>
<polygon fill="white" stroke="#bfbfbf" points="852,-157.554 852,-191.554 988,-191.554 988,-157.554 852,-157.554"/>
<text text-anchor="start" x="860" y="-178.554" font-family="FreeSans" font-size="10.00">std::map&lt; String, Object</text>
<text text-anchor="middle" x="920" y="-165.554" font-family="FreeSans" font-size="10.00">SettingGroup * &gt;</text>
</g>
<!-- Node4&#45;&gt;Node12 -->
<g id="edge40" class="edge"><title>Node4&#45;&gt;Node12</title>
<path fill="none" stroke="#9a32cd" stroke-dasharray="5,2" d="M217.793,-172.204C314.707,-165.094 558.37,-149.91 762,-159.554 791.45,-160.949 823.884,-163.799 851.662,-166.643"/>
<polygon fill="#9a32cd" stroke="#9a32cd" points="217.506,-168.716 207.793,-172.947 218.025,-175.696 217.506,-168.716"/>
<text text-anchor="middle" x="542" y="-162.554" font-family="FreeSans" font-size="10.00"> keys</text>
</g>
<!-- Node5 -->
<g id="node8" class="node"><title>Node5</title>
<a xlink:title="STL class.">
<polygon fill="white" stroke="#bfbfbf" points="0.5,-158.554 0.5,-192.554 103.5,-192.554 103.5,-158.554 0.5,-158.554"/>
<text text-anchor="start" x="8.5" y="-179.554" font-family="FreeSans" font-size="10.00">std::basic_string&lt;</text>
<text text-anchor="middle" x="52" y="-166.554" font-family="FreeSans" font-size="10.00"> char &gt;</text>
</a>
</g>
<!-- Node5&#45;&gt;Node4 -->
<g id="edge8" class="edge"><title>Node5&#45;&gt;Node4</title>
<path fill="none" stroke="midnightblue" d="M113.938,-175.554C123.694,-175.554 133.436,-175.554 142.181,-175.554"/>
<polygon fill="midnightblue" stroke="midnightblue" points="113.807,-172.055 103.807,-175.554 113.807,-179.055 113.807,-172.055"/>
</g>
<!-- Node6 -->
<g id="node10" class="node"><title>Node6</title>
<polygon fill="white" stroke="#bfbfbf" points="848,-213.554 848,-247.554 992,-247.554 992,-213.554 848,-213.554"/>
<text text-anchor="start" x="856" y="-234.554" font-family="FreeSans" font-size="10.00">std::vector&lt; ObjectSetting</text>
<text text-anchor="middle" x="920" y="-221.554" font-family="FreeSans" font-size="10.00">Group * &gt;</text>
</g>
<!-- Node6&#45;&gt;Node3 -->
<g id="edge10" class="edge"><title>Node6&#45;&gt;Node3</title>
<path fill="none" stroke="#9a32cd" stroke-dasharray="5,2" d="M837.645,-229.761C738.859,-228.809 574.548,-227.226 478.139,-226.298"/>
<polygon fill="#9a32cd" stroke="#9a32cd" points="837.847,-233.263 847.881,-229.86 837.915,-226.263 837.847,-233.263"/>
<text text-anchor="middle" x="684" y="-232.554" font-family="FreeSans" font-size="10.00"> SaveGroups</text>
</g>
<!-- Node7&#45;&gt;Node6 -->
<g id="edge12" class="edge"><title>Node7&#45;&gt;Node6</title>
<path fill="none" stroke="#9a32cd" stroke-dasharray="5,2" d="M763.622,-199.26C785.188,-203.102 808.51,-207.374 830,-211.554 835.8,-212.683 841.803,-213.882 847.83,-215.108"/>
<polygon fill="#9a32cd" stroke="#9a32cd" points="763.98,-195.769 753.522,-197.47 762.758,-202.662 763.98,-195.769"/>
<text text-anchor="middle" x="805" y="-215.554" font-family="FreeSans" font-size="10.00"> elements</text>
</g>
<!-- Node7&#45;&gt;Node12 -->
<g id="edge38" class="edge"><title>Node7&#45;&gt;Node12</title>
<path fill="none" stroke="#9a32cd" stroke-dasharray="5,2" d="M763.643,-176.662C769.174,-176.228 774.667,-175.851 780,-175.554 803.419,-174.254 829.076,-173.792 851.955,-173.721"/>
<polygon fill="#9a32cd" stroke="#9a32cd" points="763.345,-173.174 753.673,-177.498 763.93,-180.15 763.345,-173.174"/>
<text text-anchor="middle" x="805" y="-179.554" font-family="FreeSans" font-size="10.00"> elements</text>
</g>
<!-- Node8&#45;&gt;Node7 -->
<g id="edge14" class="edge"><title>Node8&#45;&gt;Node7</title>
<path fill="none" stroke="midnightblue" d="M481.132,-102.56C514.82,-108.638 554.003,-117.644 588,-130.554 613.499,-140.238 640.247,-156.101 659.013,-168.309"/>
<polygon fill="midnightblue" stroke="midnightblue" points="481.318,-99.0398 470.865,-100.767 480.114,-105.935 481.318,-99.0398"/>
</g>
<!-- Node10 -->
<g id="node18" class="node"><title>Node10</title>
<a xlink:href="classMezzanine_1_1ObjectSettingSet.html" target="_top" xlink:title="A class that store&#39;s a named set of settings for an object.">
<polygon fill="white" stroke="black" points="606.5,-27.0544 606.5,-48.0544 761.5,-48.0544 761.5,-27.0544 606.5,-27.0544"/>
<text text-anchor="middle" x="684" y="-35.0544" font-family="FreeSans" font-size="10.00">Mezzanine::ObjectSettingSet</text>
</a>
</g>
<!-- Node8&#45;&gt;Node10 -->
<g id="edge22" class="edge"><title>Node8&#45;&gt;Node10</title>
<path fill="none" stroke="#9a32cd" stroke-dasharray="5,2" d="M466.06,-71.8179C476.033,-69.1546 486.252,-66.6298 496,-64.5544 531.96,-56.8983 572.259,-50.7895 606.296,-46.3324"/>
<polygon fill="#9a32cd" stroke="#9a32cd" points="464.918,-68.5017 456.195,-74.5157 466.764,-75.2538 464.918,-68.5017"/>
<text text-anchor="middle" x="542" y="-68.5544" font-family="FreeSans" font-size="10.00"> ParentSetOrGroup</text>
</g>
<!-- Node8&#45;&gt;Node10 -->
<g id="edge20" class="edge"><title>Node8&#45;&gt;Node10</title>
<path fill="none" stroke="midnightblue" d="M436.778,-69.3663C454.014,-59.8716 475.382,-49.7823 496,-44.5544 531.459,-35.5636 571.876,-33.0999 606.125,-33.173"/>
<polygon fill="midnightblue" stroke="midnightblue" points="434.625,-66.5636 427.658,-74.5453 438.082,-72.6506 434.625,-66.5636"/>
</g>
<!-- Node9 -->
<g id="node16" class="node"><title>Node9</title>
<polygon fill="white" stroke="#bfbfbf" points="848,-52.5544 848,-86.5544 992,-86.5544 992,-52.5544 848,-52.5544"/>
<text text-anchor="start" x="856" y="-73.5544" font-family="FreeSans" font-size="10.00">std::vector&lt; ObjectSetting</text>
<text text-anchor="middle" x="920" y="-60.5544" font-family="FreeSans" font-size="10.00">Set * &gt;</text>
</g>
<!-- Node9&#45;&gt;Node8 -->
<g id="edge16" class="edge"><title>Node9&#45;&gt;Node8</title>
<path fill="none" stroke="#9a32cd" stroke-dasharray="5,2" d="M837.693,-73.2208C835.099,-73.3337 832.529,-73.4451 830,-73.5544 703.392,-79.024 555.755,-85.1669 470.85,-88.6769"/>
<polygon fill="#9a32cd" stroke="#9a32cd" points="837.952,-76.7129 847.79,-72.7795 837.647,-69.7196 837.952,-76.7129"/>
<text text-anchor="middle" x="684" y="-87.5544" font-family="FreeSans" font-size="10.00"> SubSets</text>
</g>
<!-- Node10&#45;&gt;Node9 -->
<g id="edge18" class="edge"><title>Node10&#45;&gt;Node9</title>
<path fill="none" stroke="#9a32cd" stroke-dasharray="5,2" d="M771.842,-49.4651C796.914,-52.8648 823.934,-56.5285 847.946,-59.7843"/>
<polygon fill="#9a32cd" stroke="#9a32cd" points="771.982,-45.9522 761.602,-48.0767 771.041,-52.8887 771.982,-45.9522"/>
<text text-anchor="middle" x="805" y="-60.5544" font-family="FreeSans" font-size="10.00"> elements</text>
</g>
<!-- Node11&#45;&gt;Node10 -->
<g id="edge24" class="edge"><title>Node11&#45;&gt;Node10</title>
<path fill="none" stroke="#9a32cd" stroke-dasharray="5,2" d="M448.903,-11.7727C486.811,-3.43764 541.006,4.52172 588,-3.55441 613.964,-8.01645 642.225,-18.8022 661.314,-27.039"/>
<polygon fill="#9a32cd" stroke="#9a32cd" points="448.115,-8.3625 439.148,-14.005 449.676,-15.1861 448.115,-8.3625"/>
<text text-anchor="middle" x="542" y="-7.55441" font-family="FreeSans" font-size="10.00"> Settings</text>
</g>
<!-- Node12&#45;&gt;Node1 -->
<g id="edge36" class="edge"><title>Node12&#45;&gt;Node1</title>
<path fill="none" stroke="#9a32cd" stroke-dasharray="5,2" d="M971.099,-195.603C978.136,-198.573 985.258,-201.615 992,-204.554 1041.89,-226.307 1099,-252.557 1135.27,-269.397"/>
<polygon fill="#9a32cd" stroke="#9a32cd" points="972.174,-192.259 961.598,-191.616 969.464,-198.713 972.174,-192.259"/>
<text text-anchor="middle" x="1046" y="-247.554" font-family="FreeSans" font-size="10.00"> SettingGroups</text>
</g>
</g>
</svg>
        <g id="navigator" transform="translate(0 0)" fill="#404254">
                <rect fill="#f2f5e9" fill-opacity="0.5" stroke="#606060" stroke-width=".5" x="0" y="0" width="60" height="60"/>
                <use id="zoomplus" xlink:href="#zoomPlus" x="17" y="9" onmousedown="handleZoom(evt,'in')"/>
                <use id="zoomminus" xlink:href="#zoomMin" x="42" y="9" onmousedown="handleZoom(evt,'out')"/>
                <use id="reset" xlink:href="#resetDef" x="30" y="36" onmousedown="handleReset()"/>
                <g id="arrowUp" xlink:href="#dirArrow" transform="translate(30 24)" onmousedown="handlePan(0,-1)">
                  <use xlink:href="#rim" fill="#404040">
                        <set attributeName="fill" to="#808080" begin="arrowUp.mouseover" end="arrowUp.mouseout"/>
                  </use>
                  <path fill="none" stroke="white" stroke-width="1.5" d="M0,-3.0v7 M-2.5,-0.5L0,-3.0L2.5,-0.5"/>
                </g>
                <g id="arrowRight" xlink:href="#dirArrow" transform="rotate(90) translate(36 -43)" onmousedown="handlePan(1,0)">
                  <use xlink:href="#rim" fill="#404040">
                        <set attributeName="fill" to="#808080" begin="arrowRight.mouseover" end="arrowRight.mouseout"/>
                  </use>
                  <path fill="none" stroke="white" stroke-width="1.5" d="M0,-3.0v7 M-2.5,-0.5L0,-3.0L2.5,-0.5"/>
                </g>
                <g id="arrowDown" xlink:href="#dirArrow" transform="rotate(180) translate(-30 -48)" onmousedown="handlePan(0,1)">
                  <use xlink:href="#rim" fill="#404040">
                        <set attributeName="fill" to="#808080" begin="arrowDown.mouseover" end="arrowDown.mouseout"/>
                  </use>
                  <path fill="none" stroke="white" stroke-width="1.5" d="M0,-3.0v7 M-2.5,-0.5L0,-3.0L2.5,-0.5"/>
                </g>
                <g id="arrowLeft" xlink:href="#dirArrow" transform="rotate(270) translate(-36 17)" onmousedown="handlePan(-1,0)">
                  <use xlink:href="#rim" fill="#404040">
                        <set attributeName="fill" to="#808080" begin="arrowLeft.mouseover" end="arrowLeft.mouseout"/>
                  </use>
                  <path fill="none" stroke="white" stroke-width="1.5" d="M0,-3.0v7 M-2.5,-0.5L0,-3.0L2.5,-0.5"/>
                </g>
        </g>
        <svg viewBox="0 0 15 15" width="100%" height="30px" preserveAspectRatio="xMaxYMin meet">
         <g id="arrow_out" transform="scale(0.3 0.3)">
          <a xlink:href="classMezzanine_1_1ObjectSettingsHandler__coll__graph_org.svg" target="_base">
           <rect id="button" ry="5" rx="5" y="6" x="6" height="38" width="38"
                fill="#f2f5e9" fill-opacity="0.5" stroke="#606060" stroke-width="1.0"/>
           <path id="arrow"
             d="M 11.500037,31.436501 C 11.940474,20.09759 22.043105,11.32322 32.158766,21.979434 L 37.068811,17.246167 C 37.068811,17.246167 37.088388,32 37.088388,32 L 22.160133,31.978069 C 22.160133,31.978069 26.997745,27.140456 26.997745,27.140456 C 18.528582,18.264221 13.291696,25.230495 11.500037,31.436501 z"
             style="fill:#404040;"/>
          </a>
         </g>
        </svg>
</svg>
