<?xml version="1.0" encoding="UTF-8" standalone="no"?>
<!DOCTYPE svg PUBLIC "-//W3C//DTD SVG 1.1//EN"
 "http://www.w3.org/Graphics/SVG/1.1/DTD/svg11.dtd">
<!-- Generated by graphviz version 2.26.3 (20100126.1600)
 -->
<!-- Title: Mezzanine::UI::TextLine Pages: 1 -->
<svg width="298pt" height="102pt"
 viewBox="0.00 0.00 298.00 102.00" xmlns="http://www.w3.org/2000/svg" xmlns:xlink="http://www.w3.org/1999/xlink">
<g id="graph1" class="graph" transform="scale(1 1) rotate(0) translate(4 98)">
<title>Mezzanine::UI::TextLine</title>
<polygon fill="white" stroke="white" points="-4,5 -4,-98 295,-98 295,5 -4,5"/>
<!-- Node1 -->
<g id="node1" class="node"><title>Node1</title>
<polygon fill="#bfbfbf" stroke="black" points="83,-72.5 83,-93.5 207,-93.5 207,-72.5 83,-72.5"/>
<text text-anchor="middle" x="145" y="-80.5" font-family="Helvetica,sans-Serif" font-size="10.00">Mezzanine::UI::TextLine</text>
</g>
<!-- Node2 -->
<g id="node3" class="node"><title>Node2</title>
<a xlink:href="classMezzanine_1_1UI_1_1LeftToRightTextLine.html" target="_top" xlink:title="This is a TextLine specialization class for text read from the left to the right. ...">
<polygon fill="white" stroke="black" points="-0.5,-1 -0.5,-35 136.5,-35 136.5,-1 -0.5,-1"/>
<text text-anchor="start" x="7.5" y="-22" font-family="Helvetica,sans-Serif" font-size="10.00">Mezzanine::UI::LeftToRight</text>
<text text-anchor="middle" x="68" y="-9" font-family="Helvetica,sans-Serif" font-size="10.00">TextLine</text>
</a>
</g>
<!-- Node1&#45;&gt;Node2 -->
<g id="edge2" class="edge"><title>Node1&#45;&gt;Node2</title>
<path fill="none" stroke="midnightblue" d="M124.323,-65.545C113.141,-56.1062 99.3863,-44.4949 88.2686,-35.1099"/>
<polygon fill="midnightblue" stroke="midnightblue" points="122.386,-68.4905 132.285,-72.2666 126.901,-63.1415 122.386,-68.4905"/>
</g>
<!-- Node3 -->
<g id="node5" class="node"><title>Node3</title>
<a xlink:href="classMezzanine_1_1UI_1_1RightToLeftTextLine.html" target="_top" xlink:title="This is a TextLine specialization class for text read from the right to the left. ...">
<polygon fill="white" stroke="black" points="153.5,-1 153.5,-35 290.5,-35 290.5,-1 153.5,-1"/>
<text text-anchor="start" x="161.5" y="-22" font-family="Helvetica,sans-Serif" font-size="10.00">Mezzanine::UI::RightToLeft</text>
<text text-anchor="middle" x="222" y="-9" font-family="Helvetica,sans-Serif" font-size="10.00">TextLine</text>
</a>
</g>
<!-- Node1&#45;&gt;Node3 -->
<g id="edge4" class="edge"><title>Node1&#45;&gt;Node3</title>
<path fill="none" stroke="midnightblue" d="M165.677,-65.545C176.859,-56.1062 190.614,-44.4949 201.731,-35.1099"/>
<polygon fill="midnightblue" stroke="midnightblue" points="163.099,-63.1415 157.715,-72.2666 167.614,-68.4905 163.099,-63.1415"/>
</g>
</g>
</svg>
