<?xml version="1.0" encoding="UTF-8" standalone="no"?>
<!DOCTYPE svg PUBLIC "-//W3C//DTD SVG 1.1//EN"
 "http://www.w3.org/Graphics/SVG/1.1/DTD/svg11.dtd">
<!-- Generated by graphviz version 2.26.3 (20100126.1600)
 -->
<!-- Title: Mezzanine::Audio::AudioManager Pages: 1 -->
<svg width="334pt" height="128pt"
 viewBox="0.00 0.00 334.00 128.00" xmlns="http://www.w3.org/2000/svg" xmlns:xlink="http://www.w3.org/1999/xlink">
<g id="graph1" class="graph" transform="scale(1 1) rotate(0) translate(4 124)">
<title>Mezzanine::Audio::AudioManager</title>
<polygon fill="white" stroke="white" points="-4,5 -4,-124 331,-124 331,5 -4,5"/>
<!-- Node1 -->
<g id="node1" class="node"><title>Node1</title>
<polygon fill="#bfbfbf" stroke="black" points="168,-56 168,-76 326,-76 326,-56 168,-56"/>
<text text-anchor="middle" x="247" y="-63" font-family="FreeSans" font-size="10.00">Mezzanine::Audio::AudioManager</text>
</g>
<!-- Node2 -->
<g id="node2" class="node"><title>Node2</title>
<a xlink:href="classMezzanine_1_1ManagerBase.xhtml" target="_top" xlink:title="This is the base class from which all the Entresol and World Managers inherit.">
<polygon fill="white" stroke="black" points="3,-100 3,-120 129,-120 129,-100 3,-100"/>
<text text-anchor="middle" x="66" y="-107" font-family="FreeSans" font-size="10.00">Mezzanine::ManagerBase</text>
</a>
</g>
<!-- Node2&#45;&gt;Node1 -->
<g id="edge2" class="edge"><title>Node2&#45;&gt;Node1</title>
<path fill="none" stroke="midnightblue" d="M117.512,-97.4779C145.44,-90.6886 179.494,-82.4104 205.668,-76.0475"/>
<polygon fill="midnightblue" stroke="midnightblue" points="116.415,-94.1423 107.525,-99.9055 118.069,-100.944 116.415,-94.1423"/>
</g>
<!-- Node3 -->
<g id="node4" class="node"><title>Node3</title>
<a xlink:href="classMezzanine_1_1ObjectSettingsHandler.xhtml" target="_top" xlink:title="An abstract class for other classes that manage groups of settings.">
<polygon fill="white" stroke="black" points="0.5,-50 0.5,-82 131.5,-82 131.5,-50 0.5,-50"/>
<text text-anchor="start" x="8.5" y="-69" font-family="FreeSans" font-size="10.00">Mezzanine::ObjectSettings</text>
<text text-anchor="middle" x="66" y="-57" font-family="FreeSans" font-size="10.00">Handler</text>
</a>
</g>
<!-- Node3&#45;&gt;Node1 -->
<g id="edge4" class="edge"><title>Node3&#45;&gt;Node1</title>
<path fill="none" stroke="midnightblue" d="M141.627,-66C150.257,-66 159.073,-66 167.749,-66"/>
<polygon fill="midnightblue" stroke="midnightblue" points="141.601,-62.5001 131.601,-66 141.601,-69.5001 141.601,-62.5001"/>
</g>
<!-- Node4 -->
<g id="node6" class="node"><title>Node4</title>
<a xlink:href="classMezzanine_1_1Singleton.xhtml" target="_top" xlink:title="Mezzanine::Singleton\l\&lt; AudioManager \&gt;">
<polygon fill="white" stroke="black" points="12.5,-0 12.5,-32 119.5,-32 119.5,-0 12.5,-0"/>
<text text-anchor="start" x="20.5" y="-19" font-family="FreeSans" font-size="10.00">Mezzanine::Singleton</text>
<text text-anchor="middle" x="66" y="-7" font-family="FreeSans" font-size="10.00">&lt; AudioManager &gt;</text>
</a>
</g>
<!-- Node4&#45;&gt;Node1 -->
<g id="edge6" class="edge"><title>Node4&#45;&gt;Node1</title>
<path fill="none" stroke="midnightblue" d="M129.625,-33.576C156.74,-41.0663 187.395,-49.5344 210.575,-55.9379"/>
<polygon fill="midnightblue" stroke="midnightblue" points="130.387,-30.1554 119.816,-30.8663 128.523,-36.9027 130.387,-30.1554"/>
</g>
</g>
</svg>
