<?xml version="1.0" encoding="UTF-8" standalone="no"?>
<!DOCTYPE svg PUBLIC "-//W3C//DTD SVG 1.1//EN"
 "http://www.w3.org/Graphics/SVG/1.1/DTD/svg11.dtd">
<!-- Generated by graphviz version 2.26.3 (20100126.1600)
 -->
<!-- Title: Mezzanine::Physics::Collision Pages: 1 -->
<!--zoomable 554 -->
<svg id="main" version="1.1" xmlns="http://www.w3.org/2000/svg" xmlns:xlink="http://www.w3.org/1999/xlink" xml:space="preserve" onload="init(evt)">
        <defs>
                <circle id="rim" cx="0" cy="0" r="7"/>
                <circle id="rim2" cx="0" cy="0" r="3.5"/>
                <g id="zoomPlus">
                        <use xlink:href="#rim" fill="#404040">
                                <set attributeName="fill" to="#808080" begin="zoomplus.mouseover" end="zoomplus.mouseout"/>
                        </use>
                        <path d="M-4,0h8M0,-4v8" fill="none" stroke="white" stroke-width="1.5" pointer-events="none"/>
                </g>
                <g id="zoomMin">
                        <use xlink:href="#rim" fill="#404040">
                                <set attributeName="fill" to="#808080" begin="zoomminus.mouseover" end="zoomminus.mouseout"/>
                        </use>
                        <path d="M-4,0h8" fill="none" stroke="white" stroke-width="1.5" pointer-events="none"/>
                </g>
                <g id="dirArrow">
                        <path fill="none" stroke="white" stroke-width="1.5" d="M0,-3.0v7 M-2.5,-0.5L0,-3.0L2.5,-0.5"/>
                </g>
               <g id="resetDef">
                       <use xlink:href="#rim2" fill="#404040">
                               <set attributeName="fill" to="#808080" begin="reset.mouseover" end="reset.mouseout"/>
                       </use>
               </g>
        </defs>

<script type="text/javascript">
var viewWidth = 1234;
var viewHeight = 554;
var sectionId = 'dynsection-0';
</script>
<script xlink:href="svgpan.js"/>
<svg id="graph" class="graph">
<g id="viewport">
<title>Mezzanine::Physics::Collision</title>
<polygon fill="white" stroke="white" points="-4,5 -4,-550 1231,-550 1231,5 -4,5"/>
<!-- Node1 -->
<g id="node1" class="node"><title>Node1</title>
<polygon fill="#bfbfbf" stroke="black" points="274.5,-428 274.5,-462 383.5,-462 383.5,-428 274.5,-428"/>
<text text-anchor="start" x="282.5" y="-449" font-family="FreeSans" font-size="10.00">Mezzanine::Physics</text>
<text text-anchor="middle" x="329" y="-436" font-family="FreeSans" font-size="10.00">::Collision</text>
</g>
<!-- Node14 -->
<g id="node30" class="node"><title>Node14</title>
<polygon fill="white" stroke="#bfbfbf" points="517.5,-466 517.5,-500 622.5,-500 622.5,-466 517.5,-466"/>
<text text-anchor="start" x="525.5" y="-487" font-family="FreeSans" font-size="10.00">std::set&lt; Physics::</text>
<text text-anchor="middle" x="570" y="-474" font-family="FreeSans" font-size="10.00">Collision * &gt;</text>
</g>
<!-- Node1&#45;&gt;Node14 -->
<g id="edge36" class="edge"><title>Node1&#45;&gt;Node14</title>
<path fill="none" stroke="#9a32cd" stroke-dasharray="5,2" d="M393.796,-455.217C432.438,-461.31 480.879,-468.948 517.186,-474.672"/>
<polygon fill="#9a32cd" stroke="#9a32cd" points="394.11,-451.723 383.687,-453.623 393.019,-458.638 394.11,-451.723"/>
<text text-anchor="middle" x="443" y="-471" font-family="FreeSans" font-size="10.00"> keys</text>
</g>
<!-- Node2 -->
<g id="node2" class="node"><title>Node2</title>
<polygon fill="white" stroke="#bfbfbf" points="6,-457.5 6,-478.5 116,-478.5 116,-457.5 6,-457.5"/>
<text text-anchor="middle" x="61" y="-465.5" font-family="FreeSans" font-size="10.00">std::vector&lt; Real &gt;</text>
</g>
<!-- Node2&#45;&gt;Node1 -->
<g id="edge2" class="edge"><title>Node2&#45;&gt;Node1</title>
<path fill="none" stroke="#9a32cd" stroke-dasharray="5,2" d="M126.241,-462.401C171.625,-458.506 231.443,-453.372 274.326,-449.692"/>
<polygon fill="#9a32cd" stroke="#9a32cd" points="125.869,-458.92 116.205,-463.262 126.468,-465.894 125.869,-458.92"/>
<text text-anchor="middle" x="193" y="-465" font-family="FreeSans" font-size="10.00"> PenetrationDistances</text>
</g>
<!-- Node3 -->
<g id="node4" class="node"><title>Node3</title>
<a xlink:href="classMezzanine_1_1WorldObject.xhtml" target="_top" xlink:title="This is the base class from which classes that are insertable into the physical world.">
<polygon fill="white" stroke="black" points="782,-429.5 782,-450.5 912,-450.5 912,-429.5 782,-429.5"/>
<text text-anchor="middle" x="847" y="-437.5" font-family="FreeSans" font-size="10.00">Mezzanine::WorldObject</text>
</a>
</g>
<!-- Node3&#45;&gt;Node1 -->
<g id="edge4" class="edge"><title>Node3&#45;&gt;Node1</title>
<path fill="none" stroke="#9a32cd" stroke-dasharray="5,2" d="M771.559,-435.109C699.677,-431.154 588.428,-426.867 492,-431 455.82,-432.551 415.246,-436.03 383.63,-439.131"/>
<polygon fill="#9a32cd" stroke="#9a32cd" points="771.692,-438.622 781.873,-435.689 772.085,-431.633 771.692,-438.622"/>
<text text-anchor="middle" x="570" y="-448" font-family="FreeSans" font-size="10.00"> ObjectA</text>
<text text-anchor="middle" x="570" y="-435" font-family="FreeSans" font-size="10.00">ObjectB</text>
</g>
<!-- Node10 -->
<g id="node20" class="node"><title>Node10</title>
<a xlink:href="classMezzanine_1_1WorldObjectPhysicsSettings.xhtml" target="_top" xlink:title="This is a base helper class for configuring physics settings of a world object.">
<polygon fill="white" stroke="black" points="1057.5,-476 1057.5,-510 1222.5,-510 1222.5,-476 1057.5,-476"/>
<text text-anchor="start" x="1065.5" y="-497" font-family="FreeSans" font-size="10.00">Mezzanine::WorldObjectPhysics</text>
<text text-anchor="middle" x="1140" y="-484" font-family="FreeSans" font-size="10.00">Settings</text>
</a>
</g>
<!-- Node3&#45;&gt;Node10 -->
<g id="edge24" class="edge"><title>Node3&#45;&gt;Node10</title>
<path fill="none" stroke="#9a32cd" stroke-dasharray="5,2" d="M884.494,-453.892C902.301,-459.994 924.015,-466.729 944,-471 980.834,-478.872 1022.2,-484.041 1057.41,-487.376"/>
<polygon fill="#9a32cd" stroke="#9a32cd" points="885.634,-450.583 875.039,-450.586 883.324,-457.191 885.634,-450.583"/>
<text text-anchor="middle" x="990" y="-489" font-family="FreeSans" font-size="10.00"> Parent</text>
</g>
<!-- Node15 -->
<g id="node33" class="node"><title>Node15</title>
<a xlink:href="classMezzanine_1_1WorldObjectGraphicsSettings.xhtml" target="_top" xlink:title="This is a helper class for configuring graphics settings of a World Object.">
<polygon fill="white" stroke="black" points="1054,-350 1054,-384 1226,-384 1226,-350 1054,-350"/>
<text text-anchor="start" x="1062" y="-371" font-family="FreeSans" font-size="10.00">Mezzanine::WorldObjectGraphics</text>
<text text-anchor="middle" x="1140" y="-358" font-family="FreeSans" font-size="10.00">Settings</text>
</a>
</g>
<!-- Node3&#45;&gt;Node15 -->
<g id="edge40" class="edge"><title>Node3&#45;&gt;Node15</title>
<path fill="none" stroke="#9a32cd" stroke-dasharray="5,2" d="M911.533,-427.415C948.209,-419.91 994.88,-409.766 1036,-399 1052.9,-394.574 1071.17,-389.169 1087.61,-384.07"/>
<polygon fill="#9a32cd" stroke="#9a32cd" points="910.57,-424.039 901.467,-429.46 911.964,-430.899 910.57,-424.039"/>
<text text-anchor="middle" x="990" y="-423" font-family="FreeSans" font-size="10.00"> Parent</text>
</g>
<!-- Node4 -->
<g id="node6" class="node"><title>Node4</title>
<a xlink:href="classMezzanine_1_1World.xhtml" target="_top" xlink:title="This class represents a world for objects to interact within.">
<polygon fill="white" stroke="black" points="520.5,-52.5 520.5,-73.5 619.5,-73.5 619.5,-52.5 520.5,-52.5"/>
<text text-anchor="middle" x="570" y="-60.5" font-family="FreeSans" font-size="10.00">Mezzanine::World</text>
</a>
</g>
<!-- Node4&#45;&gt;Node3 -->
<g id="edge6" class="edge"><title>Node4&#45;&gt;Node3</title>
<path fill="none" stroke="#9a32cd" stroke-dasharray="5,2" d="M629.188,-75.1952C635.755,-77.6288 642.168,-80.5345 648,-84 704.482,-117.562 722.846,-131.173 750,-191 786.52,-271.463 722.259,-313.397 768,-389 779.493,-407.996 801.07,-421.202 818.774,-429.409"/>
<polygon fill="#9a32cd" stroke="#9a32cd" points="630.102,-71.8102 619.508,-71.9571 627.881,-78.4486 630.102,-71.8102"/>
<text text-anchor="middle" x="708" y="-195" font-family="FreeSans" font-size="10.00"> ParentWorld</text>
</g>
<!-- Node6 -->
<g id="node10" class="node"><title>Node6</title>
<a xlink:href="classMezzanine_1_1WorldManager.xhtml" target="_top" xlink:title="This is the base class for all managers that belong to a single world instance.">
<polygon fill="white" stroke="black" points="776.5,-60.5 776.5,-81.5 917.5,-81.5 917.5,-60.5 776.5,-60.5"/>
<text text-anchor="middle" x="847" y="-68.5" font-family="FreeSans" font-size="10.00">Mezzanine::WorldManager</text>
</a>
</g>
<!-- Node4&#45;&gt;Node6 -->
<g id="edge20" class="edge"><title>Node4&#45;&gt;Node6</title>
<path fill="none" stroke="#9a32cd" stroke-dasharray="5,2" d="M629.753,-61.7692C664.8,-61.3547 709.93,-61.3504 750,-63 758.526,-63.351 767.463,-63.8748 776.317,-64.4896"/>
<polygon fill="#9a32cd" stroke="#9a32cd" points="629.636,-58.2704 619.684,-61.9028 629.729,-65.2698 629.636,-58.2704"/>
<text text-anchor="middle" x="708" y="-67" font-family="FreeSans" font-size="10.00"> ParentWorld</text>
</g>
<!-- Node5 -->
<g id="node8" class="node"><title>Node5</title>
<polygon fill="white" stroke="#bfbfbf" points="1057,-37.5 1057,-58.5 1223,-58.5 1223,-37.5 1057,-37.5"/>
<text text-anchor="middle" x="1140" y="-45.5" font-family="FreeSans" font-size="10.00">std::vector&lt; WorldManager * &gt;</text>
</g>
<!-- Node5&#45;&gt;Node4 -->
<g id="edge8" class="edge"><title>Node5&#45;&gt;Node4</title>
<path fill="none" stroke="#9a32cd" stroke-dasharray="5,2" d="M1046.42,-40.8487C971.142,-36.2129 862.684,-32.0461 768,-38 717.341,-41.1855 659.82,-48.9123 619.881,-54.9395"/>
<polygon fill="#9a32cd" stroke="#9a32cd" points="1046.62,-44.3679 1056.82,-41.5049 1047.06,-37.3818 1046.62,-44.3679"/>
<text text-anchor="middle" x="847" y="-42" font-family="FreeSans" font-size="10.00"> WorldManagers</text>
</g>
<!-- Node6&#45;&gt;Node5 -->
<g id="edge10" class="edge"><title>Node6&#45;&gt;Node5</title>
<path fill="none" stroke="#9a32cd" stroke-dasharray="5,2" d="M927.576,-64.6749C967.745,-61.5217 1016.27,-57.7126 1056.79,-54.5315"/>
<polygon fill="#9a32cd" stroke="#9a32cd" points="927.249,-61.1897 917.554,-65.4617 927.797,-68.1683 927.249,-61.1897"/>
<text text-anchor="middle" x="990" y="-67" font-family="FreeSans" font-size="10.00"> elements</text>
</g>
<!-- Node7 -->
<g id="node12" class="node"><title>Node7</title>
<a xlink:href="classMezzanine_1_1ManagerBase.xhtml" target="_top" xlink:title="This is the base class from which all the Entresol and World Managers inherit.">
<polygon fill="white" stroke="black" points="500,-93.5 500,-114.5 640,-114.5 640,-93.5 500,-93.5"/>
<text text-anchor="middle" x="570" y="-101.5" font-family="FreeSans" font-size="10.00">Mezzanine::ManagerBase</text>
</a>
</g>
<!-- Node7&#45;&gt;Node6 -->
<g id="edge12" class="edge"><title>Node7&#45;&gt;Node6</title>
<path fill="none" stroke="midnightblue" d="M645.877,-115.5C678.241,-118.318 716.25,-118.84 750,-112 778.67,-106.19 809.393,-91.6267 828.404,-81.5215"/>
<polygon fill="midnightblue" stroke="midnightblue" points="645.869,-111.984 635.58,-114.511 645.2,-118.952 645.869,-111.984"/>
</g>
<!-- Node8 -->
<g id="node14" class="node"><title>Node8</title>
<a xlink:href="classMezzanine_1_1Entresol.xhtml" target="_top" xlink:title="This is the main entry point for the entire library.">
<polygon fill="white" stroke="black" points="273,-39.5 273,-60.5 385,-60.5 385,-39.5 273,-39.5"/>
<text text-anchor="middle" x="329" y="-47.5" font-family="FreeSans" font-size="10.00">Mezzanine::Entresol</text>
</a>
</g>
<!-- Node8&#45;&gt;Node7 -->
<g id="edge14" class="edge"><title>Node8&#45;&gt;Node7</title>
<path fill="none" stroke="#9a32cd" stroke-dasharray="5,2" d="M385.804,-62.7278C427.62,-72.0975 483.8,-84.6855 523.079,-93.4866"/>
<polygon fill="#9a32cd" stroke="#9a32cd" points="386.563,-59.3111 376.039,-60.5399 385.032,-66.1418 386.563,-59.3111"/>
<text text-anchor="middle" x="443" y="-86" font-family="FreeSans" font-size="10.00"> TheEntresol</text>
</g>
<!-- Node9 -->
<g id="node16" class="node"><title>Node9</title>
<a xlink:href="classMezzanine_1_1Singleton.xhtml" target="_top" xlink:title="Mezzanine::Singleton\l\&lt; Entresol \&gt;">
<polygon fill="white" stroke="black" points="510.5,-0 510.5,-34 629.5,-34 629.5,-0 510.5,-0"/>
<text text-anchor="start" x="518.5" y="-21" font-family="FreeSans" font-size="10.00">Mezzanine::Singleton</text>
<text text-anchor="middle" x="570" y="-8" font-family="FreeSans" font-size="10.00">&lt; Entresol &gt;</text>
</a>
</g>
<!-- Node8&#45;&gt;Node9 -->
<g id="edge18" class="edge"><title>Node8&#45;&gt;Node9</title>
<path fill="none" stroke="#9a32cd" stroke-dasharray="5,2" d="M395.128,-40.9451C431.152,-36.0124 475.378,-29.9565 510.341,-25.1691"/>
<polygon fill="#9a32cd" stroke="#9a32cd" points="394.632,-37.4802 385.2,-42.3046 395.582,-44.4155 394.632,-37.4802"/>
<text text-anchor="middle" x="443" y="-43" font-family="FreeSans" font-size="10.00"> SingletonPtr</text>
</g>
<!-- Node9&#45;&gt;Node8 -->
<g id="edge16" class="edge"><title>Node9&#45;&gt;Node8</title>
<path fill="none" stroke="midnightblue" d="M500.518,-21.0957C472.868,-23.262 440.828,-26.445 412,-31 398.275,-33.1686 383.438,-36.3064 370.157,-39.4092"/>
<polygon fill="midnightblue" stroke="midnightblue" points="500.784,-24.5857 510.492,-20.3429 500.257,-17.6055 500.784,-24.5857"/>
</g>
<!-- Node10&#45;&gt;Node3 -->
<g id="edge22" class="edge"><title>Node10&#45;&gt;Node3</title>
<path fill="none" stroke="#9a32cd" stroke-dasharray="5,2" d="M1086.82,-472.489C1070.71,-466.988 1052.82,-461.581 1036,-458 995.38,-449.351 948.96,-444.855 912.29,-442.52"/>
<polygon fill="#9a32cd" stroke="#9a32cd" points="1086,-475.911 1096.6,-475.91 1088.31,-469.303 1086,-475.911"/>
<text text-anchor="middle" x="990" y="-462" font-family="FreeSans" font-size="10.00"> PhysicsSettings</text>
</g>
<!-- Node11 -->
<g id="node23" class="node"><title>Node11</title>
<a xlink:href="classMezzanine_1_1Physics_1_1CollisionShape.xhtml" target="_top" xlink:title="This is the base class for all collision shapes.">
<polygon fill="white" stroke="black" points="792.5,-512 792.5,-546 901.5,-546 901.5,-512 792.5,-512"/>
<text text-anchor="start" x="800.5" y="-533" font-family="FreeSans" font-size="10.00">Mezzanine::Physics</text>
<text text-anchor="middle" x="847" y="-520" font-family="FreeSans" font-size="10.00">::CollisionShape</text>
</a>
</g>
<!-- Node11&#45;&gt;Node10 -->
<g id="edge26" class="edge"><title>Node11&#45;&gt;Node10</title>
<path fill="none" stroke="#9a32cd" stroke-dasharray="5,2" d="M911.643,-521.766C948.167,-517.605 994.655,-512.189 1036,-507 1042.96,-506.127 1050.18,-505.199 1057.42,-504.254"/>
<polygon fill="#9a32cd" stroke="#9a32cd" points="911.159,-518.298 901.618,-522.905 911.949,-525.253 911.159,-518.298"/>
<text text-anchor="middle" x="990" y="-521" font-family="FreeSans" font-size="10.00"> WorldObjectShape</text>
</g>
<!-- Node12 -->
<g id="node25" class="node"><title>Node12</title>
<a xlink:title="STL class.">
<polygon fill="white" stroke="#bfbfbf" points="537.5,-518.5 537.5,-539.5 602.5,-539.5 602.5,-518.5 537.5,-518.5"/>
<text text-anchor="middle" x="570" y="-526.5" font-family="FreeSans" font-size="10.00">std::string</text>
</a>
</g>
<!-- Node12&#45;&gt;Node3 -->
<g id="edge32" class="edge"><title>Node12&#45;&gt;Node3</title>
<path fill="none" stroke="#9a32cd" stroke-dasharray="5,2" d="M612.651,-518.743C624.177,-515.787 636.611,-512.428 648,-509 709.626,-490.45 780.575,-464.793 818.9,-450.569"/>
<polygon fill="#9a32cd" stroke="#9a32cd" points="611.643,-515.388 602.804,-521.23 613.357,-522.175 611.643,-515.388"/>
<text text-anchor="middle" x="708" y="-506" font-family="FreeSans" font-size="10.00"> Name</text>
</g>
<!-- Node12&#45;&gt;Node11 -->
<g id="edge28" class="edge"><title>Node12&#45;&gt;Node11</title>
<path fill="none" stroke="#9a32cd" stroke-dasharray="5,2" d="M612.702,-529C660.974,-529 739.683,-529 792.388,-529"/>
<polygon fill="#9a32cd" stroke="#9a32cd" points="612.59,-525.5 602.59,-529 612.59,-532.5 612.59,-525.5"/>
<text text-anchor="middle" x="708" y="-533" font-family="FreeSans" font-size="10.00"> Name</text>
</g>
<!-- Node13 -->
<g id="node27" class="node"><title>Node13</title>
<a xlink:title="STL class.">
<polygon fill="white" stroke="#bfbfbf" points="277.5,-512 277.5,-546 380.5,-546 380.5,-512 277.5,-512"/>
<text text-anchor="start" x="285.5" y="-533" font-family="FreeSans" font-size="10.00">std::basic_string&lt;</text>
<text text-anchor="middle" x="329" y="-520" font-family="FreeSans" font-size="10.00"> char &gt;</text>
</a>
</g>
<!-- Node13&#45;&gt;Node12 -->
<g id="edge30" class="edge"><title>Node13&#45;&gt;Node12</title>
<path fill="none" stroke="midnightblue" d="M390.713,-529C437.418,-529 499.728,-529 537.248,-529"/>
<polygon fill="midnightblue" stroke="midnightblue" points="390.701,-525.5 380.701,-529 390.701,-532.5 390.701,-525.5"/>
</g>
<!-- Node14&#45;&gt;Node3 -->
<g id="edge34" class="edge"><title>Node14&#45;&gt;Node3</title>
<path fill="none" stroke="#9a32cd" stroke-dasharray="5,2" d="M632.726,-465.171C643.75,-462.467 655.162,-459.938 666,-458 704.08,-451.191 747.161,-446.777 781.738,-444.025"/>
<polygon fill="#9a32cd" stroke="#9a32cd" points="631.579,-461.851 622.74,-467.692 633.293,-468.638 631.579,-461.851"/>
<text text-anchor="middle" x="708" y="-462" font-family="FreeSans" font-size="10.00"> CurrentCollisions</text>
</g>
<!-- Node15&#45;&gt;Node3 -->
<g id="edge38" class="edge"><title>Node15&#45;&gt;Node3</title>
<path fill="none" stroke="#9a32cd" stroke-dasharray="5,2" d="M1043.28,-368.494C1011.13,-371.056 975.511,-376.173 944,-386 912.536,-395.812 879.826,-416.61 861.574,-429.339"/>
<polygon fill="#9a32cd" stroke="#9a32cd" points="1043.87,-371.961 1053.59,-367.749 1043.36,-364.979 1043.87,-371.961"/>
<text text-anchor="middle" x="990" y="-390" font-family="FreeSans" font-size="10.00"> GraphicsSettings</text>
</g>
<!-- Node16 -->
<g id="node36" class="node"><title>Node16</title>
<a xlink:href="classMezzanine_1_1Graphics_1_1Mesh.xhtml" target="_top" xlink:title="This class is used to check and modify the properties of a graphics mesh.">
<polygon fill="white" stroke="black" points="789,-270 789,-304 905,-304 905,-270 789,-270"/>
<text text-anchor="start" x="797" y="-291" font-family="FreeSans" font-size="10.00">Mezzanine::Graphics</text>
<text text-anchor="middle" x="847" y="-278" font-family="FreeSans" font-size="10.00">::Mesh</text>
</a>
</g>
<!-- Node16&#45;&gt;Node15 -->
<g id="edge42" class="edge"><title>Node16&#45;&gt;Node15</title>
<path fill="none" stroke="#9a32cd" stroke-dasharray="5,2" d="M915.252,-301.083C951.379,-308.992 996.353,-319.557 1036,-331 1055.18,-336.537 1076.03,-343.552 1094,-349.916"/>
<polygon fill="#9a32cd" stroke="#9a32cd" points="915.823,-297.626 905.308,-298.925 914.338,-304.467 915.823,-297.626"/>
<text text-anchor="middle" x="990" y="-335" font-family="FreeSans" font-size="10.00"> WorldObjectMesh</text>
</g>
<!-- Node17 -->
<g id="node38" class="node"><title>Node17</title>
<a xlink:href="classMezzanine_1_1Graphics_1_1InternalMeshData.xhtml" target="_top" xlink:title="This class is used to store the internal structures needed by the Mesh class.">
<polygon fill="white" stroke="black" points="512,-300 512,-334 628,-334 628,-300 512,-300"/>
<text text-anchor="start" x="520" y="-321" font-family="FreeSans" font-size="10.00">Mezzanine::Graphics</text>
<text text-anchor="middle" x="570" y="-308" font-family="FreeSans" font-size="10.00">::InternalMeshData</text>
</a>
</g>
<!-- Node17&#45;&gt;Node16 -->
<g id="edge44" class="edge"><title>Node17&#45;&gt;Node16</title>
<path fill="none" stroke="#9a32cd" stroke-dasharray="5,2" d="M638.276,-309.606C684.39,-304.611 744.628,-298.087 788.532,-293.332"/>
<polygon fill="#9a32cd" stroke="#9a32cd" points="637.633,-306.155 628.068,-310.711 638.387,-313.114 637.633,-306.155"/>
<text text-anchor="middle" x="708" y="-310" font-family="FreeSans" font-size="10.00"> IMD</text>
</g>
<!-- Node18 -->
<g id="node40" class="node"><title>Node18</title>
<a xlink:href="classMezzanine_1_1Graphics_1_1Skeleton.xhtml" target="_top" xlink:title="This class encapsulates the Skeletal animation functionality of a Mesh.">
<polygon fill="white" stroke="black" points="512,-192 512,-226 628,-226 628,-192 512,-192"/>
<text text-anchor="start" x="520" y="-213" font-family="FreeSans" font-size="10.00">Mezzanine::Graphics</text>
<text text-anchor="middle" x="570" y="-200" font-family="FreeSans" font-size="10.00">::Skeleton</text>
</a>
</g>
<!-- Node18&#45;&gt;Node16 -->
<g id="edge46" class="edge"><title>Node18&#45;&gt;Node16</title>
<path fill="none" stroke="#9a32cd" stroke-dasharray="5,2" d="M637.762,-227.649C671.516,-236.983 712.935,-248.503 750,-259 762.564,-262.558 776.03,-266.417 788.81,-270.1"/>
<polygon fill="#9a32cd" stroke="#9a32cd" points="638.573,-224.242 628.002,-224.952 636.709,-230.989 638.573,-224.242"/>
<text text-anchor="middle" x="708" y="-263" font-family="FreeSans" font-size="10.00"> MeshSkel</text>
</g>
<!-- Node20 -->
<g id="node44" class="node"><title>Node20</title>
<a xlink:href="classMezzanine_1_1Graphics_1_1Bone.xhtml" target="_top" xlink:title="This class encapsulates the bones contained in a skeleton used for animation.">
<polygon fill="white" stroke="black" points="789,-207 789,-241 905,-241 905,-207 789,-207"/>
<text text-anchor="start" x="797" y="-228" font-family="FreeSans" font-size="10.00">Mezzanine::Graphics</text>
<text text-anchor="middle" x="847" y="-215" font-family="FreeSans" font-size="10.00">::Bone</text>
</a>
</g>
<!-- Node18&#45;&gt;Node20 -->
<g id="edge54" class="edge"><title>Node18&#45;&gt;Node20</title>
<path fill="none" stroke="#9a32cd" stroke-dasharray="5,2" d="M638.241,-207.17C671.925,-206.829 713.144,-207.251 750,-210 762.641,-210.943 776.139,-212.523 788.926,-214.289"/>
<polygon fill="#9a32cd" stroke="#9a32cd" points="637.997,-203.672 628.042,-207.298 638.085,-210.672 637.997,-203.672"/>
<text text-anchor="middle" x="708" y="-214" font-family="FreeSans" font-size="10.00"> Host</text>
</g>
<!-- Node19 -->
<g id="node42" class="node"><title>Node19</title>
<polygon fill="white" stroke="#bfbfbf" points="1078.5,-185.5 1078.5,-206.5 1201.5,-206.5 1201.5,-185.5 1078.5,-185.5"/>
<text text-anchor="middle" x="1140" y="-193.5" font-family="FreeSans" font-size="10.00">std::vector&lt; Bone * &gt;</text>
</g>
<!-- Node19&#45;&gt;Node18 -->
<g id="edge48" class="edge"><title>Node19&#45;&gt;Node18</title>
<path fill="none" stroke="#9a32cd" stroke-dasharray="5,2" d="M1068.14,-190.053C993.168,-184.745 872.253,-178.705 768,-185 720.821,-187.849 667.661,-194.483 628.312,-200.056"/>
<polygon fill="#9a32cd" stroke="#9a32cd" points="1068.18,-193.565 1078.4,-190.796 1068.68,-186.583 1068.18,-193.565"/>
<text text-anchor="middle" x="847" y="-189" font-family="FreeSans" font-size="10.00"> Bones</text>
</g>
<!-- Node20&#45;&gt;Node19 -->
<g id="edge50" class="edge"><title>Node20&#45;&gt;Node19</title>
<path fill="none" stroke="#9a32cd" stroke-dasharray="5,2" d="M915.489,-217.455C964.774,-212.745 1030.69,-206.446 1078.33,-201.893"/>
<polygon fill="#9a32cd" stroke="#9a32cd" points="914.859,-213.999 905.238,-218.435 915.525,-220.967 914.859,-213.999"/>
<text text-anchor="middle" x="990" y="-219" font-family="FreeSans" font-size="10.00"> elements</text>
</g>
<!-- Node21 -->
<g id="node46" class="node"><title>Node21</title>
<a xlink:href="classMezzanine_1_1TransformableChildObject.xhtml" target="_top" xlink:title="This is an interface for all child 3D objects that can have their full transforms manipulated...">
<polygon fill="white" stroke="black" points="499.5,-134 499.5,-168 640.5,-168 640.5,-134 499.5,-134"/>
<text text-anchor="start" x="507.5" y="-155" font-family="FreeSans" font-size="10.00">Mezzanine::Transformable</text>
<text text-anchor="middle" x="570" y="-142" font-family="FreeSans" font-size="10.00">ChildObject</text>
</a>
</g>
<!-- Node21&#45;&gt;Node20 -->
<g id="edge52" class="edge"><title>Node21&#45;&gt;Node20</title>
<path fill="none" stroke="midnightblue" d="M644.379,-170.602C689.742,-182.557 746.881,-197.615 788.908,-208.691"/>
<polygon fill="midnightblue" stroke="midnightblue" points="645.156,-167.187 634.595,-168.023 643.372,-173.956 645.156,-167.187"/>
</g>
<!-- Node22 -->
<g id="node49" class="node"><title>Node22</title>
<a xlink:href="classMezzanine_1_1Graphics_1_1InternalSkeletonData.xhtml" target="_top" xlink:title="This class is used to store the internal structures needed by the Skeleton class.">
<polygon fill="white" stroke="black" points="267.5,-192 267.5,-226 390.5,-226 390.5,-192 267.5,-192"/>
<text text-anchor="start" x="275.5" y="-213" font-family="FreeSans" font-size="10.00">Mezzanine::Graphics</text>
<text text-anchor="middle" x="329" y="-200" font-family="FreeSans" font-size="10.00">::InternalSkeletonData</text>
</a>
</g>
<!-- Node22&#45;&gt;Node18 -->
<g id="edge56" class="edge"><title>Node22&#45;&gt;Node18</title>
<path fill="none" stroke="#9a32cd" stroke-dasharray="5,2" d="M401.012,-209C436.373,-209 478.421,-209 511.727,-209"/>
<polygon fill="#9a32cd" stroke="#9a32cd" points="400.751,-205.5 390.751,-209 400.75,-212.5 400.751,-205.5"/>
<text text-anchor="middle" x="443" y="-213" font-family="FreeSans" font-size="10.00"> ISD</text>
</g>
<!-- Node23 -->
<g id="node51" class="node"><title>Node23</title>
<polygon fill="white" stroke="#bfbfbf" points="498.5,-260.5 498.5,-281.5 641.5,-281.5 641.5,-260.5 498.5,-260.5"/>
<text text-anchor="middle" x="570" y="-268.5" font-family="FreeSans" font-size="10.00">std::vector&lt; SubMesh * &gt;</text>
</g>
<!-- Node23&#45;&gt;Node16 -->
<g id="edge58" class="edge"><title>Node23&#45;&gt;Node16</title>
<path fill="none" stroke="#9a32cd" stroke-dasharray="5,2" d="M651.788,-275.724C695.745,-278.263 748.914,-281.334 788.657,-283.63"/>
<polygon fill="#9a32cd" stroke="#9a32cd" points="651.88,-272.224 641.695,-275.141 651.476,-279.212 651.88,-272.224"/>
<text text-anchor="middle" x="708" y="-285" font-family="FreeSans" font-size="10.00"> SubMeshes</text>
</g>
<!-- Node24 -->
<g id="node53" class="node"><title>Node24</title>
<a xlink:href="classMezzanine_1_1Graphics_1_1SubMesh.xhtml" target="_top" xlink:title="This class represents a sub&#45;section of an overall mesh.">
<polygon fill="white" stroke="black" points="271,-254 271,-288 387,-288 387,-254 271,-254"/>
<text text-anchor="start" x="279" y="-275" font-family="FreeSans" font-size="10.00">Mezzanine::Graphics</text>
<text text-anchor="middle" x="329" y="-262" font-family="FreeSans" font-size="10.00">::SubMesh</text>
</a>
</g>
<!-- Node24&#45;&gt;Node23 -->
<g id="edge60" class="edge"><title>Node24&#45;&gt;Node23</title>
<path fill="none" stroke="#9a32cd" stroke-dasharray="5,2" d="M397.064,-271C428.655,-271 466.219,-271 498.253,-271"/>
<polygon fill="#9a32cd" stroke="#9a32cd" points="397.032,-267.5 387.032,-271 397.032,-274.5 397.032,-267.5"/>
<text text-anchor="middle" x="443" y="-275" font-family="FreeSans" font-size="10.00"> elements</text>
</g>
<!-- Node25 -->
<g id="node55" class="node"><title>Node25</title>
<a xlink:href="classMezzanine_1_1Internal_1_1InternalWorldObjectGraphicsSettings.xhtml" target="_top" xlink:title="Used to store internal data about an world objects.">
<polygon fill="white" stroke="black" points="768.5,-332.5 768.5,-379.5 925.5,-379.5 925.5,-332.5 768.5,-332.5"/>
<text text-anchor="start" x="776.5" y="-366.5" font-family="FreeSans" font-size="10.00">Mezzanine::Internal</text>
<text text-anchor="start" x="776.5" y="-353.5" font-family="FreeSans" font-size="10.00">::InternalWorldObjectGraphics</text>
<text text-anchor="middle" x="847" y="-340.5" font-family="FreeSans" font-size="10.00">Settings</text>
</a>
</g>
<!-- Node25&#45;&gt;Node15 -->
<g id="edge62" class="edge"><title>Node25&#45;&gt;Node15</title>
<path fill="none" stroke="#9a32cd" stroke-dasharray="5,2" d="M935.751,-350.289C938.532,-350.181 941.287,-350.084 944,-350 984.869,-348.737 995.245,-346.691 1036,-350 1041.84,-350.474 1047.84,-351.095 1053.87,-351.819"/>
<polygon fill="#9a32cd" stroke="#9a32cd" points="935.437,-346.799 925.597,-350.726 935.738,-353.793 935.437,-346.799"/>
<text text-anchor="middle" x="990" y="-354" font-family="FreeSans" font-size="10.00"> IWOGS</text>
</g>
<!-- Node26 -->
<g id="node57" class="node"><title>Node26</title>
<polygon fill="white" stroke="#bfbfbf" points="492,-352 492,-386 648,-386 648,-352 492,-352"/>
<text text-anchor="start" x="500" y="-373" font-family="FreeSans" font-size="10.00">std::map&lt; Whole, Mezzanine</text>
<text text-anchor="middle" x="570" y="-360" font-family="FreeSans" font-size="10.00">::ColourValue &gt;</text>
</g>
<!-- Node26&#45;&gt;Node25 -->
<g id="edge64" class="edge"><title>Node26&#45;&gt;Node25</title>
<path fill="none" stroke="#9a32cd" stroke-dasharray="5,2" d="M658.567,-364.843C693.881,-363.186 734.194,-361.294 768.447,-359.687"/>
<polygon fill="#9a32cd" stroke="#9a32cd" points="658.091,-361.362 648.266,-365.327 658.419,-368.354 658.091,-361.362"/>
<text text-anchor="middle" x="708" y="-394" font-family="FreeSans" font-size="10.00"> Specular</text>
<text text-anchor="middle" x="708" y="-381" font-family="FreeSans" font-size="10.00">Ambient</text>
<text text-anchor="middle" x="708" y="-368" font-family="FreeSans" font-size="10.00">Diffuse</text>
</g>
<!-- Node27 -->
<g id="node59" class="node"><title>Node27</title>
<a xlink:href="classMezzanine_1_1ColourValue.xhtml" target="_top" xlink:title="This is a simple class for holding 4 reals representing the colour any give object or lightsource can...">
<polygon fill="white" stroke="black" points="264,-358.5 264,-379.5 394,-379.5 394,-358.5 264,-358.5"/>
<text text-anchor="middle" x="329" y="-366.5" font-family="FreeSans" font-size="10.00">Mezzanine::ColourValue</text>
</a>
</g>
<!-- Node27&#45;&gt;Node26 -->
<g id="edge66" class="edge"><title>Node27&#45;&gt;Node26</title>
<path fill="none" stroke="#9a32cd" stroke-dasharray="5,2" d="M404.296,-369C432.148,-369 463.77,-369 491.869,-369"/>
<polygon fill="#9a32cd" stroke="#9a32cd" points="404.218,-365.5 394.218,-369 404.218,-372.5 404.218,-365.5"/>
<text text-anchor="middle" x="443" y="-373" font-family="FreeSans" font-size="10.00"> elements</text>
</g>
<!-- Node28 -->
<g id="node61" class="node"><title>Node28</title>
<a xlink:href="structMezzanine_1_1Physics_1_1CollisionInternalData.xhtml" target="_top" xlink:title="Used to insulate the interface from the implementation details for bullet.">
<polygon fill="white" stroke="black" points="0.5,-405 0.5,-439 121.5,-439 121.5,-405 0.5,-405"/>
<text text-anchor="start" x="8.5" y="-426" font-family="FreeSans" font-size="10.00">Mezzanine::Physics</text>
<text text-anchor="middle" x="61" y="-413" font-family="FreeSans" font-size="10.00">::CollisionInternalData</text>
</a>
</g>
<!-- Node28&#45;&gt;Node1 -->
<g id="edge68" class="edge"><title>Node28&#45;&gt;Node1</title>
<path fill="none" stroke="#9a32cd" stroke-dasharray="5,2" d="M132.31,-426.18C166.701,-428.408 208.529,-431.428 246,-435 255.103,-435.868 264.752,-436.914 274.127,-437.998"/>
<polygon fill="#9a32cd" stroke="#9a32cd" points="132.091,-422.659 121.888,-425.514 131.645,-429.645 132.091,-422.659"/>
<text text-anchor="middle" x="193" y="-439" font-family="FreeSans" font-size="10.00"> InternalData</text>
</g>
</g>
</svg>
        <g id="navigator" transform="translate(0 0)" fill="#404254">
                <rect fill="#f2f5e9" fill-opacity="0.5" stroke="#606060" stroke-width=".5" x="0" y="0" width="60" height="60"/>
                <use id="zoomplus" xlink:href="#zoomPlus" x="17" y="9" onmousedown="handleZoom(evt,'in')"/>
                <use id="zoomminus" xlink:href="#zoomMin" x="42" y="9" onmousedown="handleZoom(evt,'out')"/>
                <use id="reset" xlink:href="#resetDef" x="30" y="36" onmousedown="handleReset()"/>
                <g id="arrowUp" xlink:href="#dirArrow" transform="translate(30 24)" onmousedown="handlePan(0,-1)">
                  <use xlink:href="#rim" fill="#404040">
                        <set attributeName="fill" to="#808080" begin="arrowUp.mouseover" end="arrowUp.mouseout"/>
                  </use>
                  <path fill="none" stroke="white" stroke-width="1.5" d="M0,-3.0v7 M-2.5,-0.5L0,-3.0L2.5,-0.5"/>
                </g>
                <g id="arrowRight" xlink:href="#dirArrow" transform="rotate(90) translate(36 -43)" onmousedown="handlePan(1,0)">
                  <use xlink:href="#rim" fill="#404040">
                        <set attributeName="fill" to="#808080" begin="arrowRight.mouseover" end="arrowRight.mouseout"/>
                  </use>
                  <path fill="none" stroke="white" stroke-width="1.5" d="M0,-3.0v7 M-2.5,-0.5L0,-3.0L2.5,-0.5"/>
                </g>
                <g id="arrowDown" xlink:href="#dirArrow" transform="rotate(180) translate(-30 -48)" onmousedown="handlePan(0,1)">
                  <use xlink:href="#rim" fill="#404040">
                        <set attributeName="fill" to="#808080" begin="arrowDown.mouseover" end="arrowDown.mouseout"/>
                  </use>
                  <path fill="none" stroke="white" stroke-width="1.5" d="M0,-3.0v7 M-2.5,-0.5L0,-3.0L2.5,-0.5"/>
                </g>
                <g id="arrowLeft" xlink:href="#dirArrow" transform="rotate(270) translate(-36 17)" onmousedown="handlePan(-1,0)">
                  <use xlink:href="#rim" fill="#404040">
                        <set attributeName="fill" to="#808080" begin="arrowLeft.mouseover" end="arrowLeft.mouseout"/>
                  </use>
                  <path fill="none" stroke="white" stroke-width="1.5" d="M0,-3.0v7 M-2.5,-0.5L0,-3.0L2.5,-0.5"/>
                </g>
        </g>
        <svg viewBox="0 0 15 15" width="100%" height="30px" preserveAspectRatio="xMaxYMin meet">
         <g id="arrow_out" transform="scale(0.3 0.3)">
          <a xlink:href="classMezzanine_1_1Physics_1_1Collision__coll__graph_org.svg" target="_base">
           <rect id="button" ry="5" rx="5" y="6" x="6" height="38" width="38"
                fill="#f2f5e9" fill-opacity="0.5" stroke="#606060" stroke-width="1.0"/>
           <path id="arrow"
             d="M 11.500037,31.436501 C 11.940474,20.09759 22.043105,11.32322 32.158766,21.979434 L 37.068811,17.246167 C 37.068811,17.246167 37.088388,32 37.088388,32 L 22.160133,31.978069 C 22.160133,31.978069 26.997745,27.140456 26.997745,27.140456 C 18.528582,18.264221 13.291696,25.230495 11.500037,31.436501 z"
             style="fill:#404040;"/>
          </a>
         </g>
        </svg>
</svg>
