<?xml version="1.0" encoding="UTF-8" standalone="no"?>
<!DOCTYPE svg PUBLIC "-//W3C//DTD SVG 1.1//EN"
 "http://www.w3.org/Graphics/SVG/1.1/DTD/svg11.dtd">
<!-- Generated by graphviz version 2.26.3 (20100126.1600)
 -->
<!-- Title: Mezzanine::Resource::FileStreamDataStream Pages: 1 -->
<!--zoomable 470 -->
<svg id="main" version="1.1" xmlns="http://www.w3.org/2000/svg" xmlns:xlink="http://www.w3.org/1999/xlink" xml:space="preserve" onload="init(evt)">
        <defs>
                <circle id="rim" cx="0" cy="0" r="7"/>
                <circle id="rim2" cx="0" cy="0" r="3.5"/>
                <g id="zoomPlus">
                        <use xlink:href="#rim" fill="#404040">
                                <set attributeName="fill" to="#808080" begin="zoomplus.mouseover" end="zoomplus.mouseout"/>
                        </use>
                        <path d="M-4,0h8M0,-4v8" fill="none" stroke="white" stroke-width="1.5" pointer-events="none"/>
                </g>
                <g id="zoomMin">
                        <use xlink:href="#rim" fill="#404040">
                                <set attributeName="fill" to="#808080" begin="zoomminus.mouseover" end="zoomminus.mouseout"/>
                        </use>
                        <path d="M-4,0h8" fill="none" stroke="white" stroke-width="1.5" pointer-events="none"/>
                </g>
                <g id="dirArrow">
                        <path fill="none" stroke="white" stroke-width="1.5" d="M0,-3.0v7 M-2.5,-0.5L0,-3.0L2.5,-0.5"/>
                </g>
               <g id="resetDef">
                       <use xlink:href="#rim2" fill="#404040">
                               <set attributeName="fill" to="#808080" begin="reset.mouseover" end="reset.mouseout"/>
                       </use>
               </g>
        </defs>

<script type="text/javascript">
var viewWidth = 263;
var viewHeight = 470;
var sectionId = 'dynsection-1';
</script>
<script xlink:href="svgpan.js"/>
<svg id="graph" class="graph">
<g id="viewport">
<title>Mezzanine::Resource::FileStreamDataStream</title>
<!-- Node1 -->
<g id="node1" class="node"><title>Node1</title>
<polygon fill="#bfbfbf" stroke="black" points="53,-1 53,-33 173,-33 173,-1 53,-1"/>
<text text-anchor="start" x="61" y="-20" font-family="FreeSans" font-size="10.00">Mezzanine::Resource</text>
<text text-anchor="middle" x="113" y="-8" font-family="FreeSans" font-size="10.00">::FileStreamDataStream</text>
</g>
<!-- Node2 -->
<g id="node2" class="node"><title>Node2</title>
<a xlink:href="classMezzanine_1_1Resource_1_1DataStream.xhtml" target="_top" xlink:title="This represents a stream to a piece of data, usually a file.">
<polygon fill="none" stroke="black" points="-0.5,-83 -0.5,-115 106.5,-115 106.5,-83 -0.5,-83"/>
<text text-anchor="start" x="7.5" y="-102" font-family="FreeSans" font-size="10.00">Mezzanine::Resource</text>
<text text-anchor="middle" x="53" y="-90" font-family="FreeSans" font-size="10.00">::DataStream</text>
</a>
</g>
<!-- Node2&#45;&gt;Node1 -->
<g id="edge2" class="edge"><title>Node2&#45;&gt;Node1</title>
<path fill="none" stroke="midnightblue" d="M70.9308,-74.4946C80.7122,-61.1266 92.5479,-44.9511 101.171,-33.1669"/>
<polygon fill="midnightblue" stroke="midnightblue" points="67.9346,-72.6623 64.8541,-82.7994 73.5838,-76.7959 67.9346,-72.6623"/>
</g>
<!-- Node3 -->
<g id="node4" class="node"><title>Node3</title>
<a xlink:title="STL class.">
<polygon fill="none" stroke="#bfbfbf" points="23.5,-171 23.5,-191 80.5,-191 80.5,-171 23.5,-171"/>
<text text-anchor="middle" x="52" y="-178" font-family="FreeSans" font-size="10.00">std::string</text>
</a>
</g>
<!-- Node3&#45;&gt;Node2 -->
<g id="edge4" class="edge"><title>Node3&#45;&gt;Node2</title>
<path fill="none" stroke="#9a32cd" stroke-dasharray="5,2" d="M52.2465,-160.789C52.4183,-146.697 52.6445,-128.15 52.8041,-115.066"/>
<polygon fill="#9a32cd" stroke="#9a32cd" points="48.7449,-160.903 52.1226,-170.945 55.7444,-160.989 48.7449,-160.903"/>
<text text-anchor="middle" x="86.5" y="-137" font-family="FreeSans" font-size="10.00"> ResourceName</text>
</g>
<!-- Node4 -->
<g id="node6" class="node"><title>Node4</title>
<a xlink:title="STL class.">
<polygon fill="none" stroke="#bfbfbf" points="4.5,-237 4.5,-269 95.5,-269 95.5,-237 4.5,-237"/>
<text text-anchor="start" x="12.5" y="-256" font-family="FreeSans" font-size="10.00">std::basic_string&lt;</text>
<text text-anchor="middle" x="50" y="-244" font-family="FreeSans" font-size="10.00"> char &gt;</text>
</a>
</g>
<!-- Node4&#45;&gt;Node3 -->
<g id="edge6" class="edge"><title>Node4&#45;&gt;Node3</title>
<path fill="none" stroke="midnightblue" d="M50.737,-226.469C51.0769,-214.232 51.4604,-200.424 51.7148,-191.268"/>
<polygon fill="midnightblue" stroke="midnightblue" points="47.2329,-226.569 50.4538,-236.662 54.2302,-226.763 47.2329,-226.569"/>
</g>
<!-- Node5 -->
<g id="node8" class="node"><title>Node5</title>
<a xlink:title="STL class.">
<polygon fill="none" stroke="#bfbfbf" points="124,-89 124,-109 190,-109 190,-89 124,-89"/>
<text text-anchor="middle" x="157" y="-96" font-family="FreeSans" font-size="10.00">std::fstream</text>
</a>
</g>
<!-- Node5&#45;&gt;Node1 -->
<g id="edge8" class="edge"><title>Node5&#45;&gt;Node1</title>
<path fill="none" stroke="#9a32cd" stroke-dasharray="5,2" d="M146.822,-80.0322C139.187,-65.8036 128.85,-46.5391 121.621,-33.0661"/>
<polygon fill="#9a32cd" stroke="#9a32cd" points="143.792,-81.7885 151.605,-88.9452 149.961,-78.4787 143.792,-81.7885"/>
<text text-anchor="middle" x="162" y="-55" font-family="FreeSans" font-size="10.00"> FileStream</text>
</g>
<!-- Node6 -->
<g id="node10" class="node"><title>Node6</title>
<a xlink:title="STL class.">
<polygon fill="none" stroke="#bfbfbf" points="110,-165 110,-197 204,-197 204,-165 110,-165"/>
<text text-anchor="start" x="118" y="-184" font-family="FreeSans" font-size="10.00">std::basic_fstream</text>
<text text-anchor="middle" x="157" y="-172" font-family="FreeSans" font-size="10.00">&lt; char &gt;</text>
</a>
</g>
<!-- Node6&#45;&gt;Node5 -->
<g id="edge10" class="edge"><title>Node6&#45;&gt;Node5</title>
<path fill="none" stroke="midnightblue" d="M157,-154.789C157,-139.403 157,-120.809 157,-109.448"/>
<polygon fill="midnightblue" stroke="midnightblue" points="153.5,-154.799 157,-164.799 160.5,-154.799 153.5,-154.799"/>
</g>
<!-- Node7 -->
<g id="node12" class="node"><title>Node7</title>
<a xlink:title="STL class.">
<polygon fill="none" stroke="#bfbfbf" points="113,-237 113,-269 211,-269 211,-237 113,-237"/>
<text text-anchor="start" x="121" y="-256" font-family="FreeSans" font-size="10.00">std::basic_iostream</text>
<text text-anchor="middle" x="162" y="-244" font-family="FreeSans" font-size="10.00">&lt; Char &gt;</text>
</a>
</g>
<!-- Node7&#45;&gt;Node6 -->
<g id="edge12" class="edge"><title>Node7&#45;&gt;Node6</title>
<path fill="none" stroke="midnightblue" d="M160.164,-226.566C159.483,-216.752 158.73,-205.916 158.13,-197.273"/>
<polygon fill="midnightblue" stroke="midnightblue" points="156.681,-226.929 160.865,-236.662 163.664,-226.444 156.681,-226.929"/>
</g>
<!-- Node8 -->
<g id="node14" class="node"><title>Node8</title>
<a xlink:title="STL class.">
<polygon fill="none" stroke="#bfbfbf" points="48.5,-309 48.5,-341 141.5,-341 141.5,-309 48.5,-309"/>
<text text-anchor="start" x="56.5" y="-328" font-family="FreeSans" font-size="10.00">std::basic_istream</text>
<text text-anchor="middle" x="95" y="-316" font-family="FreeSans" font-size="10.00">&lt; Char &gt;</text>
</a>
</g>
<!-- Node8&#45;&gt;Node7 -->
<g id="edge14" class="edge"><title>Node8&#45;&gt;Node7</title>
<path fill="none" stroke="midnightblue" d="M117.289,-301.048C126.999,-290.613 138.13,-278.651 146.857,-269.273"/>
<polygon fill="midnightblue" stroke="midnightblue" points="114.453,-298.957 110.203,-308.662 119.578,-303.726 114.453,-298.957"/>
</g>
<!-- Node9 -->
<g id="node16" class="node"><title>Node9</title>
<a xlink:title="STL class.">
<polygon fill="none" stroke="#bfbfbf" points="74,-381 74,-401 184,-401 184,-381 74,-381"/>
<text text-anchor="middle" x="129" y="-388" font-family="FreeSans" font-size="10.00">std::basic_ios&lt; Char &gt;</text>
</a>
</g>
<!-- Node9&#45;&gt;Node8 -->
<g id="edge16" class="edge"><title>Node9&#45;&gt;Node8</title>
<path fill="none" stroke="midnightblue" d="M119.219,-372.014C114.168,-362.209 108.073,-350.377 103.261,-341.036"/>
<polygon fill="midnightblue" stroke="midnightblue" points="116.145,-373.689 123.836,-380.976 122.368,-370.483 116.145,-373.689"/>
</g>
<!-- Node11 -->
<g id="node20" class="node"><title>Node11</title>
<a xlink:title="STL class.">
<polygon fill="none" stroke="#bfbfbf" points="159,-309 159,-341 255,-341 255,-309 159,-309"/>
<text text-anchor="start" x="167" y="-328" font-family="FreeSans" font-size="10.00">std::basic_ostream</text>
<text text-anchor="middle" x="207" y="-316" font-family="FreeSans" font-size="10.00">&lt; Char &gt;</text>
</a>
</g>
<!-- Node9&#45;&gt;Node11 -->
<g id="edge22" class="edge"><title>Node9&#45;&gt;Node11</title>
<path fill="none" stroke="midnightblue" d="M148.594,-374.421C160.674,-364.199 176.089,-351.156 188.048,-341.036"/>
<polygon fill="midnightblue" stroke="midnightblue" points="146.22,-371.845 140.847,-380.976 150.741,-377.188 146.22,-371.845"/>
</g>
<!-- Node10 -->
<g id="node18" class="node"><title>Node10</title>
<a xlink:title="STL class.">
<polygon fill="none" stroke="#bfbfbf" points="93.5,-441 93.5,-461 164.5,-461 164.5,-441 93.5,-441"/>
<text text-anchor="middle" x="129" y="-448" font-family="FreeSans" font-size="10.00">std::ios_base</text>
</a>
</g>
<!-- Node10&#45;&gt;Node9 -->
<g id="edge18" class="edge"><title>Node10&#45;&gt;Node9</title>
<path fill="none" stroke="midnightblue" d="M129,-430.516C129,-420.562 129,-409.05 129,-401.028"/>
<polygon fill="midnightblue" stroke="midnightblue" points="125.5,-430.822 129,-440.822 132.5,-430.822 125.5,-430.822"/>
</g>
<!-- Node11&#45;&gt;Node7 -->
<g id="edge20" class="edge"><title>Node11&#45;&gt;Node7</title>
<path fill="none" stroke="midnightblue" d="M191.452,-300.123C185.07,-289.911 177.86,-278.375 172.171,-269.273"/>
<polygon fill="midnightblue" stroke="midnightblue" points="188.521,-302.037 196.789,-308.662 194.457,-298.327 188.521,-302.037"/>
</g>
</g>
</svg>
        <g id="navigator" transform="translate(0 0)" fill="#404254">
                <rect fill="#f2f5e9" fill-opacity="0.5" stroke="#606060" stroke-width=".5" x="0" y="0" width="60" height="60"/>
                <use id="zoomplus" xlink:href="#zoomPlus" x="17" y="9" onmousedown="handleZoom(evt,'in')"/>
                <use id="zoomminus" xlink:href="#zoomMin" x="42" y="9" onmousedown="handleZoom(evt,'out')"/>
                <use id="reset" xlink:href="#resetDef" x="30" y="36" onmousedown="handleReset()"/>
                <g id="arrowUp" xlink:href="#dirArrow" transform="translate(30 24)" onmousedown="handlePan(0,-1)">
                  <use xlink:href="#rim" fill="#404040">
                        <set attributeName="fill" to="#808080" begin="arrowUp.mouseover" end="arrowUp.mouseout"/>
                  </use>
                  <path fill="none" stroke="white" stroke-width="1.5" d="M0,-3.0v7 M-2.5,-0.5L0,-3.0L2.5,-0.5"/>
                </g>
                <g id="arrowRight" xlink:href="#dirArrow" transform="rotate(90) translate(36 -43)" onmousedown="handlePan(1,0)">
                  <use xlink:href="#rim" fill="#404040">
                        <set attributeName="fill" to="#808080" begin="arrowRight.mouseover" end="arrowRight.mouseout"/>
                  </use>
                  <path fill="none" stroke="white" stroke-width="1.5" d="M0,-3.0v7 M-2.5,-0.5L0,-3.0L2.5,-0.5"/>
                </g>
                <g id="arrowDown" xlink:href="#dirArrow" transform="rotate(180) translate(-30 -48)" onmousedown="handlePan(0,1)">
                  <use xlink:href="#rim" fill="#404040">
                        <set attributeName="fill" to="#808080" begin="arrowDown.mouseover" end="arrowDown.mouseout"/>
                  </use>
                  <path fill="none" stroke="white" stroke-width="1.5" d="M0,-3.0v7 M-2.5,-0.5L0,-3.0L2.5,-0.5"/>
                </g>
                <g id="arrowLeft" xlink:href="#dirArrow" transform="rotate(270) translate(-36 17)" onmousedown="handlePan(-1,0)">
                  <use xlink:href="#rim" fill="#404040">
                        <set attributeName="fill" to="#808080" begin="arrowLeft.mouseover" end="arrowLeft.mouseout"/>
                  </use>
                  <path fill="none" stroke="white" stroke-width="1.5" d="M0,-3.0v7 M-2.5,-0.5L0,-3.0L2.5,-0.5"/>
                </g>
        </g>
        <svg viewBox="0 0 15 15" width="100%" height="30px" preserveAspectRatio="xMaxYMin meet">
         <g id="arrow_out" transform="scale(0.3 0.3)">
          <a xlink:href="classMezzanine_1_1Resource_1_1FileStreamDataStream__coll__graph_org.svg" target="_base">
           <rect id="button" ry="5" rx="5" y="6" x="6" height="38" width="38"
                fill="#f2f5e9" fill-opacity="0.5" stroke="#606060" stroke-width="1.0"/>
           <path id="arrow"
             d="M 11.500037,31.436501 C 11.940474,20.09759 22.043105,11.32322 32.158766,21.979434 L 37.068811,17.246167 C 37.068811,17.246167 37.088388,32 37.088388,32 L 22.160133,31.978069 C 22.160133,31.978069 26.997745,27.140456 26.997745,27.140456 C 18.528582,18.264221 13.291696,25.230495 11.500037,31.436501 z"
             style="fill:#404040;"/>
          </a>
         </g>
        </svg>
</svg>
