<?xml version="1.0" encoding="UTF-8" standalone="no"?>
<!DOCTYPE svg PUBLIC "-//W3C//DTD SVG 1.1//EN"
 "http://www.w3.org/Graphics/SVG/1.1/DTD/svg11.dtd">
<!-- Generated by graphviz version 2.26.3 (20100126.1600)
 -->
<!-- Title: Mezzanine::ManagerFactory Pages: 1 -->
<svg width="346pt" height="652pt"
 viewBox="0.00 0.00 346.00 652.00" xmlns="http://www.w3.org/2000/svg" xmlns:xlink="http://www.w3.org/1999/xlink">
<g id="graph1" class="graph" transform="scale(1 1) rotate(0) translate(4 648)">
<title>Mezzanine::ManagerFactory</title>
<polygon fill="white" stroke="white" points="-4,5 -4,-648 343,-648 343,5 -4,5"/>
<!-- Node1 -->
<g id="node1" class="node"><title>Node1</title>
<polygon fill="#bfbfbf" stroke="black" points="0.5,-318 0.5,-338 137.5,-338 137.5,-318 0.5,-318"/>
<text text-anchor="middle" x="69" y="-325" font-family="FreeSans" font-size="10.00">Mezzanine::ManagerFactory</text>
</g>
<!-- Node2 -->
<g id="node3" class="node"><title>Node2</title>
<a xlink:href="classMezzanine_1_1DefaultActorManagerFactory.xhtml" target="_top" xlink:title="A factory responsible for the creation and destruction of the default actormanager.">
<polygon fill="white" stroke="black" points="177,-612 177,-644 335,-644 335,-612 177,-612"/>
<text text-anchor="start" x="185" y="-631" font-family="FreeSans" font-size="10.00">Mezzanine::DefaultActorManager</text>
<text text-anchor="middle" x="256" y="-619" font-family="FreeSans" font-size="10.00">Factory</text>
</a>
</g>
<!-- Node1&#45;&gt;Node2 -->
<g id="edge2" class="edge"><title>Node1&#45;&gt;Node2</title>
<path fill="none" stroke="midnightblue" d="M70.7604,-348.229C76.2522,-398.782 97.5908,-531.676 174,-603 177.699,-606.453 181.862,-609.43 186.3,-611.996"/>
<polygon fill="midnightblue" stroke="midnightblue" points="74.2391,-347.84 69.7694,-338.234 67.2733,-348.53 74.2391,-347.84"/>
</g>
<!-- Node3 -->
<g id="node5" class="node"><title>Node3</title>
<a xlink:href="classMezzanine_1_1DefaultAreaEffectManagerFactory.xhtml" target="_top" xlink:title="A factory responsible for the creation and destruction of the default areaeffectmanager.">
<polygon fill="white" stroke="black" points="185,-562 185,-594 327,-594 327,-562 185,-562"/>
<text text-anchor="start" x="193" y="-581" font-family="FreeSans" font-size="10.00">Mezzanine::DefaultAreaEffect</text>
<text text-anchor="middle" x="256" y="-569" font-family="FreeSans" font-size="10.00">ManagerFactory</text>
</a>
</g>
<!-- Node1&#45;&gt;Node3 -->
<g id="edge4" class="edge"><title>Node1&#45;&gt;Node3</title>
<path fill="none" stroke="midnightblue" d="M72.7057,-348.328C81.7913,-392.307 109.326,-496.841 174,-553 177.933,-556.415 182.324,-559.364 186.973,-561.91"/>
<polygon fill="midnightblue" stroke="midnightblue" points="76.0969,-347.432 70.7401,-338.292 69.2274,-348.778 76.0969,-347.432"/>
</g>
<!-- Node4 -->
<g id="node7" class="node"><title>Node4</title>
<a xlink:href="classMezzanine_1_1DefaultCameraManagerFactory.xhtml" target="_top" xlink:title="A factory responsible for the creation and destruction of the default cameramanager.">
<polygon fill="white" stroke="black" points="190.5,-512 190.5,-544 321.5,-544 321.5,-512 190.5,-512"/>
<text text-anchor="start" x="198.5" y="-531" font-family="FreeSans" font-size="10.00">Mezzanine::DefaultCamera</text>
<text text-anchor="middle" x="256" y="-519" font-family="FreeSans" font-size="10.00">ManagerFactory</text>
</a>
</g>
<!-- Node1&#45;&gt;Node4 -->
<g id="edge6" class="edge"><title>Node1&#45;&gt;Node4</title>
<path fill="none" stroke="midnightblue" d="M75.5114,-347.935C88.3955,-384.254 120.608,-461.292 174,-503 178.926,-506.848 184.443,-510.106 190.224,-512.865"/>
<polygon fill="midnightblue" stroke="midnightblue" points="78.6799,-346.384 72.1314,-338.055 72.0568,-348.649 78.6799,-346.384"/>
</g>
<!-- Node5 -->
<g id="node9" class="node"><title>Node5</title>
<a xlink:href="classMezzanine_1_1DefaultEventManagerFactory.xhtml" target="_top" xlink:title="A factory responsible for the creation and destruction of the default eventmanager.">
<polygon fill="white" stroke="black" points="176.5,-462 176.5,-494 335.5,-494 335.5,-462 176.5,-462"/>
<text text-anchor="start" x="184.5" y="-481" font-family="FreeSans" font-size="10.00">Mezzanine::DefaultEventManager</text>
<text text-anchor="middle" x="256" y="-469" font-family="FreeSans" font-size="10.00">Factory</text>
</a>
</g>
<!-- Node1&#45;&gt;Node5 -->
<g id="edge8" class="edge"><title>Node1&#45;&gt;Node5</title>
<path fill="none" stroke="midnightblue" d="M79.821,-346.755C96.5527,-374.111 131.276,-424.762 174,-453 179.091,-456.365 184.654,-459.293 190.408,-461.838"/>
<polygon fill="midnightblue" stroke="midnightblue" points="82.8006,-344.918 74.6695,-338.125 76.7901,-348.506 82.8006,-344.918"/>
</g>
<!-- Node6 -->
<g id="node11" class="node"><title>Node6</title>
<a xlink:href="classMezzanine_1_1DefaultMeshManagerFactory.xhtml" target="_top" xlink:title="A factory responsible for the creation and destruction of the default meshmanager.">
<polygon fill="white" stroke="black" points="177,-412 177,-444 335,-444 335,-412 177,-412"/>
<text text-anchor="start" x="185" y="-431" font-family="FreeSans" font-size="10.00">Mezzanine::DefaultMeshManager</text>
<text text-anchor="middle" x="256" y="-419" font-family="FreeSans" font-size="10.00">Factory</text>
</a>
</g>
<!-- Node1&#45;&gt;Node6 -->
<g id="edge10" class="edge"><title>Node1&#45;&gt;Node6</title>
<path fill="none" stroke="midnightblue" d="M88.2829,-344.73C108.461,-361.498 141.651,-387.05 174,-403 180.674,-406.291 187.869,-409.25 195.128,-411.881"/>
<polygon fill="midnightblue" stroke="midnightblue" points="90.3707,-341.912 80.472,-338.135 85.8548,-347.261 90.3707,-341.912"/>
</g>
<!-- Node7 -->
<g id="node13" class="node"><title>Node7</title>
<a xlink:href="classMezzanine_1_1DefaultResourceManagerFactory.xhtml" target="_top" xlink:title="A factory responsible for the creation and destruction of the default resourcemanager.">
<polygon fill="white" stroke="black" points="187,-362 187,-394 325,-394 325,-362 187,-362"/>
<text text-anchor="start" x="195" y="-381" font-family="FreeSans" font-size="10.00">Mezzanine::DefaultResource</text>
<text text-anchor="middle" x="256" y="-369" font-family="FreeSans" font-size="10.00">ManagerFactory</text>
</a>
</g>
<!-- Node1&#45;&gt;Node7 -->
<g id="edge12" class="edge"><title>Node1&#45;&gt;Node7</title>
<path fill="none" stroke="midnightblue" d="M116.508,-340.703C140.706,-347.173 170.378,-355.106 196.125,-361.991"/>
<polygon fill="midnightblue" stroke="midnightblue" points="117.407,-337.32 106.842,-338.118 115.599,-344.083 117.407,-337.32"/>
</g>
<!-- Node8 -->
<g id="node15" class="node"><title>Node8</title>
<a xlink:href="classMezzanine_1_1DefaultSceneManagerFactory.xhtml" target="_top" xlink:title="A factory responsible for the creation and destruction of the default scenemanager.">
<polygon fill="white" stroke="black" points="174.5,-312 174.5,-344 337.5,-344 337.5,-312 174.5,-312"/>
<text text-anchor="start" x="182.5" y="-331" font-family="FreeSans" font-size="10.00">Mezzanine::DefaultSceneManager</text>
<text text-anchor="middle" x="256" y="-319" font-family="FreeSans" font-size="10.00">Factory</text>
</a>
</g>
<!-- Node1&#45;&gt;Node8 -->
<g id="edge14" class="edge"><title>Node1&#45;&gt;Node8</title>
<path fill="none" stroke="midnightblue" d="M147.805,-328C156.61,-328 165.593,-328 174.432,-328"/>
<polygon fill="midnightblue" stroke="midnightblue" points="147.57,-324.5 137.57,-328 147.57,-331.5 147.57,-324.5"/>
</g>
<!-- Node9 -->
<g id="node17" class="node"><title>Node9</title>
<a xlink:href="classMezzanine_1_1DefaultTerrainManagerFactory.xhtml" target="_top" xlink:title="A factory responsible for the creation and destruction of the default terrainmanager.">
<polygon fill="white" stroke="black" points="192,-262 192,-294 320,-294 320,-262 192,-262"/>
<text text-anchor="start" x="200" y="-281" font-family="FreeSans" font-size="10.00">Mezzanine::DefaultTerrain</text>
<text text-anchor="middle" x="256" y="-269" font-family="FreeSans" font-size="10.00">ManagerFactory</text>
</a>
</g>
<!-- Node1&#45;&gt;Node9 -->
<g id="edge16" class="edge"><title>Node1&#45;&gt;Node9</title>
<path fill="none" stroke="midnightblue" d="M116.508,-315.297C140.706,-308.827 170.378,-300.894 196.125,-294.009"/>
<polygon fill="midnightblue" stroke="midnightblue" points="115.599,-311.917 106.842,-317.882 117.407,-318.68 115.599,-311.917"/>
</g>
<!-- Node10 -->
<g id="node19" class="node"><title>Node10</title>
<a xlink:href="classMezzanine_1_1Graphics_1_1DefaultGraphicsManagerFactory.xhtml" target="_top" xlink:title="A factory responsible for the creation and destruction of the default graphicsmanager.">
<polygon fill="white" stroke="black" points="176,-212 176,-244 336,-244 336,-212 176,-212"/>
<text text-anchor="start" x="184" y="-231" font-family="FreeSans" font-size="10.00">Mezzanine::Graphics</text>
<text text-anchor="middle" x="256" y="-219" font-family="FreeSans" font-size="10.00">::DefaultGraphicsManagerFactory</text>
</a>
</g>
<!-- Node1&#45;&gt;Node10 -->
<g id="edge18" class="edge"><title>Node1&#45;&gt;Node10</title>
<path fill="none" stroke="midnightblue" d="M88.2829,-311.27C108.461,-294.502 141.651,-268.95 174,-253 180.674,-249.709 187.869,-246.75 195.128,-244.119"/>
<polygon fill="midnightblue" stroke="midnightblue" points="85.8548,-308.739 80.472,-317.865 90.3707,-314.088 85.8548,-308.739"/>
</g>
<!-- Node11 -->
<g id="node21" class="node"><title>Node11</title>
<a xlink:href="classMezzanine_1_1Input_1_1DefaultInputManagerFactory.xhtml" target="_top" xlink:title="A factory responsible for the creation and destruction of the default inputmanager.">
<polygon fill="white" stroke="black" points="194,-162 194,-194 318,-194 318,-162 194,-162"/>
<text text-anchor="start" x="202" y="-181" font-family="FreeSans" font-size="10.00">Mezzanine::Input::Default</text>
<text text-anchor="middle" x="256" y="-169" font-family="FreeSans" font-size="10.00">InputManagerFactory</text>
</a>
</g>
<!-- Node1&#45;&gt;Node11 -->
<g id="edge20" class="edge"><title>Node1&#45;&gt;Node11</title>
<path fill="none" stroke="midnightblue" d="M79.821,-309.245C96.5527,-281.889 131.276,-231.238 174,-203 180.084,-198.979 186.843,-195.581 193.796,-192.716"/>
<polygon fill="midnightblue" stroke="midnightblue" points="76.7901,-307.494 74.6695,-317.875 82.8006,-311.082 76.7901,-307.494"/>
</g>
<!-- Node12 -->
<g id="node23" class="node"><title>Node12</title>
<a xlink:href="classMezzanine_1_1Physics_1_1DefaultCollisionShapeManagerFactory.xhtml" target="_top" xlink:title="A factory responsible for the creation and destruction of the default collisionshapemanager.">
<polygon fill="white" stroke="black" points="179.5,-100 179.5,-144 332.5,-144 332.5,-100 179.5,-100"/>
<text text-anchor="start" x="187.5" y="-131" font-family="FreeSans" font-size="10.00">Mezzanine::Physics</text>
<text text-anchor="start" x="187.5" y="-119" font-family="FreeSans" font-size="10.00">::DefaultCollisionShapeManager</text>
<text text-anchor="middle" x="256" y="-107" font-family="FreeSans" font-size="10.00">Factory</text>
</a>
</g>
<!-- Node1&#45;&gt;Node12 -->
<g id="edge22" class="edge"><title>Node1&#45;&gt;Node12</title>
<path fill="none" stroke="midnightblue" d="M75.97,-307.886C89.4136,-271.899 122.25,-196.228 174,-153 177.971,-149.683 182.334,-146.7 186.915,-144.021"/>
<polygon fill="midnightblue" stroke="midnightblue" points="72.5303,-307.106 72.421,-317.7 79.1131,-309.486 72.5303,-307.106"/>
</g>
<!-- Node13 -->
<g id="node25" class="node"><title>Node13</title>
<a xlink:href="classMezzanine_1_1Physics_1_1DefaultPhysicsManagerFactory.xhtml" target="_top" xlink:title="A factory responsible for the creation and destruction of the default physicsmanager.">
<polygon fill="white" stroke="black" points="178.5,-50 178.5,-82 333.5,-82 333.5,-50 178.5,-50"/>
<text text-anchor="start" x="186.5" y="-69" font-family="FreeSans" font-size="10.00">Mezzanine::Physics</text>
<text text-anchor="middle" x="256" y="-57" font-family="FreeSans" font-size="10.00">::DefaultPhysicsManagerFactory</text>
</a>
</g>
<!-- Node1&#45;&gt;Node13 -->
<g id="edge24" class="edge"><title>Node1&#45;&gt;Node13</title>
<path fill="none" stroke="midnightblue" d="M72.1401,-307.853C80.3019,-262.326 106.45,-150.827 174,-91 177.9,-87.5463 182.266,-84.5697 186.898,-82.0043"/>
<polygon fill="midnightblue" stroke="midnightblue" points="68.6516,-307.492 70.4383,-317.935 75.554,-308.657 68.6516,-307.492"/>
</g>
<!-- Node14 -->
<g id="node27" class="node"><title>Node14</title>
<a xlink:href="classMezzanine_1_1UI_1_1DefaultUIManagerFactory.xhtml" target="_top" xlink:title="A factory responsible for the creation and destruction of the default uimanager.">
<polygon fill="white" stroke="black" points="176.5,-0 176.5,-32 335.5,-32 335.5,-0 176.5,-0"/>
<text text-anchor="start" x="184.5" y="-19" font-family="FreeSans" font-size="10.00">Mezzanine::UI::DefaultUIManager</text>
<text text-anchor="middle" x="256" y="-7" font-family="FreeSans" font-size="10.00">Factory</text>
</a>
</g>
<!-- Node1&#45;&gt;Node14 -->
<g id="edge26" class="edge"><title>Node1&#45;&gt;Node14</title>
<path fill="none" stroke="midnightblue" d="M70.4049,-307.622C75.1085,-255.457 94.8354,-115.941 174,-41 177.567,-37.6236 181.576,-34.7022 185.856,-32.1747"/>
<polygon fill="midnightblue" stroke="midnightblue" points="66.8919,-307.644 69.5763,-317.893 73.8692,-308.207 66.8919,-307.644"/>
</g>
</g>
</svg>
