<?xml version="1.0" encoding="UTF-8" standalone="no"?>
<!DOCTYPE svg PUBLIC "-//W3C//DTD SVG 1.1//EN"
 "http://www.w3.org/Graphics/SVG/1.1/DTD/svg11.dtd">
<!-- Generated by graphviz version 2.26.3 (20100126.1600)
 -->
<!-- Title: Mezzanine::Physics::ConvexHullCollisionShape Pages: 1 -->
<svg width="152pt" height="188pt"
 viewBox="0.00 0.00 152.00 188.00" xmlns="http://www.w3.org/2000/svg" xmlns:xlink="http://www.w3.org/1999/xlink">
<g id="graph1" class="graph" transform="scale(1 1) rotate(0) translate(4 184)">
<title>Mezzanine::Physics::ConvexHullCollisionShape</title>
<polygon fill="white" stroke="white" points="-4,5 -4,-184 149,-184 149,5 -4,5"/>
<!-- Node1 -->
<g id="node1" class="node"><title>Node1</title>
<polygon fill="#bfbfbf" stroke="black" points="-0.5,-1 -0.5,-35 144.5,-35 144.5,-1 -0.5,-1"/>
<text text-anchor="start" x="7.5" y="-22" font-family="FreeSans" font-size="10.00">Mezzanine::Physics</text>
<text text-anchor="middle" x="72" y="-9" font-family="FreeSans" font-size="10.00">::ConvexHullCollisionShape</text>
</g>
<!-- Node2 -->
<g id="node2" class="node"><title>Node2</title>
<a xlink:href="classMezzanine_1_1Physics_1_1PrimitiveCollisionShape.xhtml" target="_top" xlink:title="This is the base class for all Primitive shapes.">
<polygon fill="white" stroke="black" points="5.5,-73 5.5,-107 138.5,-107 138.5,-73 5.5,-73"/>
<text text-anchor="start" x="13.5" y="-94" font-family="FreeSans" font-size="10.00">Mezzanine::Physics</text>
<text text-anchor="middle" x="72" y="-81" font-family="FreeSans" font-size="10.00">::PrimitiveCollisionShape</text>
</a>
</g>
<!-- Node2&#45;&gt;Node1 -->
<g id="edge2" class="edge"><title>Node2&#45;&gt;Node1</title>
<path fill="none" stroke="midnightblue" d="M72,-62.7193C72,-53.572 72,-43.6255 72,-35.4407"/>
<polygon fill="midnightblue" stroke="midnightblue" points="68.5001,-62.937 72,-72.937 75.5001,-62.937 68.5001,-62.937"/>
</g>
<!-- Node3 -->
<g id="node4" class="node"><title>Node3</title>
<a xlink:href="classMezzanine_1_1Physics_1_1CollisionShape.xhtml" target="_top" xlink:title="This is the base class for all collision shapes.">
<polygon fill="white" stroke="black" points="17.5,-145 17.5,-179 126.5,-179 126.5,-145 17.5,-145"/>
<text text-anchor="start" x="25.5" y="-166" font-family="FreeSans" font-size="10.00">Mezzanine::Physics</text>
<text text-anchor="middle" x="72" y="-153" font-family="FreeSans" font-size="10.00">::CollisionShape</text>
</a>
</g>
<!-- Node3&#45;&gt;Node2 -->
<g id="edge4" class="edge"><title>Node3&#45;&gt;Node2</title>
<path fill="none" stroke="midnightblue" d="M72,-134.719C72,-125.572 72,-115.625 72,-107.441"/>
<polygon fill="midnightblue" stroke="midnightblue" points="68.5001,-134.937 72,-144.937 75.5001,-134.937 68.5001,-134.937"/>
</g>
</g>
</svg>
