<?xml version="1.0" encoding="UTF-8" standalone="no"?>
<!DOCTYPE svg PUBLIC "-//W3C//DTD SVG 1.1//EN"
 "http://www.w3.org/Graphics/SVG/1.1/DTD/svg11.dtd">
<!-- Generated by graphviz version 2.26.3 (20100126.1600)
 -->
<!-- Title: Mezzanine::Physics::CollidablePair Pages: 1 -->
<svg width="2248pt" height="605pt"
 viewBox="0.00 0.00 2248.00 605.00" xmlns="http://www.w3.org/2000/svg" xmlns:xlink="http://www.w3.org/1999/xlink">
<g id="graph1" class="graph" transform="scale(1 1) rotate(0) translate(4 601)">
<title>Mezzanine::Physics::CollidablePair</title>
<polygon fill="white" stroke="white" points="-4,5 -4,-601 2245,-601 2245,5 -4,5"/>
<!-- Node1 -->
<g id="node1" class="node"><title>Node1</title>
<polygon fill="#bfbfbf" stroke="black" points="346,-442 346,-474 446,-474 446,-442 346,-442"/>
<text text-anchor="start" x="354" y="-461" font-family="FreeSans" font-size="10.00">Mezzanine::Physics</text>
<text text-anchor="middle" x="396" y="-449" font-family="FreeSans" font-size="10.00">::CollidablePair</text>
</g>
<!-- Node27 -->
<g id="node60" class="node"><title>Node27</title>
<polygon fill="white" stroke="#bfbfbf" points="611.5,-419 611.5,-451 734.5,-451 734.5,-419 611.5,-419"/>
<text text-anchor="start" x="619.5" y="-438" font-family="FreeSans" font-size="10.00">std::map&lt; CollidablePair,</text>
<text text-anchor="middle" x="673" y="-426" font-family="FreeSans" font-size="10.00"> Collision * &gt;</text>
</g>
<!-- Node1&#45;&gt;Node27 -->
<g id="edge72" class="edge"><title>Node1&#45;&gt;Node27</title>
<path fill="none" stroke="#9a32cd" stroke-dasharray="5,2" d="M456.268,-452.996C502.162,-449.185 565.108,-443.959 611.341,-440.12"/>
<polygon fill="#9a32cd" stroke="#9a32cd" points="455.839,-449.519 446.163,-453.835 456.418,-456.495 455.839,-449.519"/>
<text text-anchor="middle" x="532" y="-453" font-family="FreeSans" font-size="10.00"> keys</text>
</g>
<!-- Node2 -->
<g id="node2" class="node"><title>Node2</title>
<a xlink:href="classMezzanine_1_1Physics_1_1CollidableProxy.html" target="_top" xlink:title="This is a proxy from which physics objects that can collide with each other are handled. ">
<polygon fill="white" stroke="black" points="1193,-491 1193,-523 1293,-523 1293,-491 1193,-491"/>
<text text-anchor="start" x="1201" y="-510" font-family="FreeSans" font-size="10.00">Mezzanine::Physics</text>
<text text-anchor="middle" x="1243" y="-498" font-family="FreeSans" font-size="10.00">::CollidableProxy</text>
</a>
</g>
<!-- Node2&#45;&gt;Node1 -->
<g id="edge2" class="edge"><title>Node2&#45;&gt;Node1</title>
<path fill="none" stroke="#9a32cd" stroke-dasharray="5,2" d="M1182.74,-504.667C1053.5,-499.466 740.13,-485.802 478,-466 467.731,-465.224 456.751,-464.252 446.274,-463.255"/>
<polygon fill="#9a32cd" stroke="#9a32cd" points="1182.7,-508.168 1192.83,-505.071 1182.98,-501.174 1182.7,-508.168"/>
<text text-anchor="middle" x="809" y="-504" font-family="FreeSans" font-size="10.00"> ProxyA</text>
<text text-anchor="middle" x="809" y="-492" font-family="FreeSans" font-size="10.00">ProxyB</text>
</g>
<!-- Node15 -->
<g id="node31" class="node"><title>Node15</title>
<a xlink:href="classMezzanine_1_1Physics_1_1Collision.html" target="_top" xlink:title="This is an event class used to track collsions in the physics world. ">
<polygon fill="white" stroke="black" points="1471,-273 1471,-305 1571,-305 1571,-273 1471,-273"/>
<text text-anchor="start" x="1479" y="-292" font-family="FreeSans" font-size="10.00">Mezzanine::Physics</text>
<text text-anchor="middle" x="1521" y="-280" font-family="FreeSans" font-size="10.00">::Collision</text>
</a>
</g>
<!-- Node2&#45;&gt;Node15 -->
<g id="edge40" class="edge"><title>Node2&#45;&gt;Node15</title>
<path fill="none" stroke="#9a32cd" stroke-dasharray="5,2" d="M1300.3,-486.414C1305.79,-483.576 1311.12,-480.439 1316,-477 1325.77,-470.111 1324.39,-464.121 1334,-457 1371.06,-429.531 1397.69,-447.772 1428,-413 1445.74,-392.654 1431.32,-377.65 1446,-355 1459.11,-334.768 1480.1,-317.049 1496.54,-305.079"/>
<polygon fill="#9a32cd" stroke="#9a32cd" points="1298.45,-483.418 1290.96,-490.91 1301.49,-489.725 1298.45,-483.418"/>
<text text-anchor="middle" x="1381" y="-472" font-family="FreeSans" font-size="10.00"> ProxyA</text>
<text text-anchor="middle" x="1381" y="-460" font-family="FreeSans" font-size="10.00">ProxyB</text>
</g>
<!-- Node25 -->
<g id="node54" class="node"><title>Node25</title>
<a xlink:href="classMezzanine_1_1Physics_1_1RigidProxy.html" target="_top" xlink:title="This is a proxy from which rigid body proxys are handled. ">
<polygon fill="white" stroke="black" points="1471,-500 1471,-532 1571,-532 1571,-500 1471,-500"/>
<text text-anchor="start" x="1479" y="-519" font-family="FreeSans" font-size="10.00">Mezzanine::Physics</text>
<text text-anchor="middle" x="1521" y="-507" font-family="FreeSans" font-size="10.00">::RigidProxy</text>
</a>
</g>
<!-- Node2&#45;&gt;Node25 -->
<g id="edge62" class="edge"><title>Node2&#45;&gt;Node25</title>
<path fill="none" stroke="midnightblue" d="M1303.45,-516.858C1313.62,-518.165 1324.09,-519.296 1334,-520 1380.32,-523.292 1433.24,-521.658 1470.93,-519.574"/>
<polygon fill="midnightblue" stroke="midnightblue" points="1303.78,-513.371 1293.4,-515.5 1302.84,-520.308 1303.78,-513.371"/>
</g>
<!-- Node26 -->
<g id="node57" class="node"><title>Node26</title>
<polygon fill="white" stroke="#bfbfbf" points="1446.5,-462 1446.5,-482 1595.5,-482 1595.5,-462 1446.5,-462"/>
<text text-anchor="middle" x="1521" y="-469" font-family="FreeSans" font-size="10.00">std::vector&lt; CollidableProxy * &gt;</text>
</g>
<!-- Node2&#45;&gt;Node26 -->
<g id="edge66" class="edge"><title>Node2&#45;&gt;Node26</title>
<path fill="none" stroke="#9a32cd" stroke-dasharray="5,2" d="M1303.66,-500.104C1339.79,-495.917 1386.54,-490.362 1428,-485 1435.28,-484.059 1442.87,-483.047 1450.44,-482.018"/>
<polygon fill="#9a32cd" stroke="#9a32cd" points="1302.82,-496.678 1293.29,-501.302 1303.62,-503.632 1302.82,-496.678"/>
<text text-anchor="middle" x="1381" y="-499" font-family="FreeSans" font-size="10.00"> elements</text>
</g>
<!-- Node3 -->
<g id="node4" class="node"><title>Node3</title>
<a xlink:href="classMezzanine_1_1WorldProxy.html" target="_top" xlink:title="This is the base class for proxy objects belonging to the various 3D subsystems. ">
<polygon fill="white" stroke="black" points="2124,-280 2124,-300 2240,-300 2240,-280 2124,-280"/>
<text text-anchor="middle" x="2182" y="-287" font-family="FreeSans" font-size="10.00">Mezzanine::WorldProxy</text>
</a>
</g>
<!-- Node3&#45;&gt;Node2 -->
<g id="edge4" class="edge"><title>Node3&#45;&gt;Node2</title>
<path fill="none" stroke="midnightblue" d="M2176.58,-310.118C2158.38,-372.736 2093.21,-560 1965,-560 1521,-560 1521,-560 1521,-560 1437.09,-560 1416.01,-551.762 1334,-534 1320.31,-531.035 1305.68,-527.062 1292.24,-523.078"/>
<polygon fill="midnightblue" stroke="midnightblue" points="2180.02,-310.829 2179.36,-300.255 2173.28,-308.933 2180.02,-310.829"/>
</g>
<!-- Node4 -->
<g id="node6" class="node"><title>Node4</title>
<a xlink:href="classMezzanine_1_1TransformableObject.html" target="_top" xlink:title="This is an interface for all 3D objects that can have their full transforms manipulated. ">
<polygon fill="white" stroke="black" points="1662,-273 1662,-305 1790,-305 1790,-273 1662,-273"/>
<text text-anchor="start" x="1670" y="-292" font-family="FreeSans" font-size="10.00">Mezzanine::Transformable</text>
<text text-anchor="middle" x="1726" y="-280" font-family="FreeSans" font-size="10.00">Object</text>
</a>
</g>
<!-- Node4&#45;&gt;Node3 -->
<g id="edge6" class="edge"><title>Node4&#45;&gt;Node3</title>
<path fill="none" stroke="midnightblue" d="M1800.54,-289.163C1890.94,-289.362 2041.39,-289.692 2123.74,-289.872"/>
<polygon fill="midnightblue" stroke="midnightblue" points="1800.37,-285.663 1790.37,-289.141 1800.36,-292.663 1800.37,-285.663"/>
</g>
<!-- Node5 -->
<g id="node8" class="node"><title>Node5</title>
<a xlink:href="classMezzanine_1_1WorldObject.html" target="_top" xlink:title="This is the base class from which classes that are insertable into the physical world. ">
<polygon fill="white" stroke="black" points="1905,-228 1905,-248 2025,-248 2025,-228 1905,-228"/>
<text text-anchor="middle" x="1965" y="-235" font-family="FreeSans" font-size="10.00">Mezzanine::WorldObject</text>
</a>
</g>
<!-- Node4&#45;&gt;Node5 -->
<g id="edge10" class="edge"><title>Node4&#45;&gt;Node5</title>
<path fill="none" stroke="midnightblue" d="M1800.15,-273.176C1838.56,-264.982 1884.3,-255.221 1917.84,-248.063"/>
<polygon fill="midnightblue" stroke="midnightblue" points="1799.1,-269.823 1790.05,-275.333 1800.56,-276.669 1799.1,-269.823"/>
</g>
<!-- Node5&#45;&gt;Node3 -->
<g id="edge8" class="edge"><title>Node5&#45;&gt;Node3</title>
<path fill="none" stroke="#9a32cd" stroke-dasharray="5,2" d="M2035.05,-248.818C2057.84,-252.894 2083.14,-258.016 2106,-264 2122.73,-268.378 2141.08,-274.615 2155.56,-279.883"/>
<polygon fill="#9a32cd" stroke="#9a32cd" points="2035.57,-245.356 2025.12,-247.078 2034.36,-252.251 2035.57,-245.356"/>
<text text-anchor="middle" x="2076" y="-267" font-family="FreeSans" font-size="10.00"> ParentObject</text>
</g>
<!-- Node6 -->
<g id="node11" class="node"><title>Node6</title>
<a xlink:href="classMezzanine_1_1World.html" target="_top" xlink:title="This class represents a world for objects to interact within. ">
<polygon fill="white" stroke="black" points="350,-50 350,-70 442,-70 442,-50 350,-50"/>
<text text-anchor="middle" x="396" y="-57" font-family="FreeSans" font-size="10.00">Mezzanine::World</text>
</a>
</g>
<!-- Node6&#45;&gt;Node5 -->
<g id="edge12" class="edge"><title>Node6&#45;&gt;Node5</title>
<path fill="none" stroke="#9a32cd" stroke-dasharray="5,2" d="M440.181,-47.2565C494.498,-32.738 589.728,-11 673,-11 673,-11 673,-11 1726,-11 1853.9,-11 1940.64,-184.022 1960.61,-227.953"/>
<polygon fill="#9a32cd" stroke="#9a32cd" points="438.936,-43.9676 430.203,-49.9659 440.771,-50.723 438.936,-43.9676"/>
<text text-anchor="middle" x="1243" y="-14" font-family="FreeSans" font-size="10.00"> ParentWorld</text>
</g>
<!-- Node8 -->
<g id="node15" class="node"><title>Node8</title>
<a xlink:href="classMezzanine_1_1WorldManager.html" target="_top" xlink:title="This is the base class for all managers that belong to a single world instance. ">
<polygon fill="white" stroke="black" points="608.5,-106 608.5,-126 737.5,-126 737.5,-106 608.5,-106"/>
<text text-anchor="middle" x="673" y="-113" font-family="FreeSans" font-size="10.00">Mezzanine::WorldManager</text>
</a>
</g>
<!-- Node6&#45;&gt;Node8 -->
<g id="edge26" class="edge"><title>Node6&#45;&gt;Node8</title>
<path fill="none" stroke="#9a32cd" stroke-dasharray="5,2" d="M452.367,-66.8863C490.37,-72.0208 541.5,-79.8853 586,-90 605.215,-94.3676 626.408,-100.669 643.066,-105.974"/>
<polygon fill="#9a32cd" stroke="#9a32cd" points="452.387,-63.3582 442.013,-65.5109 451.465,-70.2973 452.387,-63.3582"/>
<text text-anchor="middle" x="532" y="-93" font-family="FreeSans" font-size="10.00"> ParentWorld</text>
</g>
<!-- Node7 -->
<g id="node13" class="node"><title>Node7</title>
<polygon fill="white" stroke="#bfbfbf" points="876.5,-65 876.5,-85 1021.5,-85 1021.5,-65 876.5,-65"/>
<text text-anchor="middle" x="949" y="-72" font-family="FreeSans" font-size="10.00">std::vector&lt; WorldManager * &gt;</text>
</g>
<!-- Node7&#45;&gt;Node6 -->
<g id="edge14" class="edge"><title>Node7&#45;&gt;Node6</title>
<path fill="none" stroke="#9a32cd" stroke-dasharray="5,2" d="M866.236,-72.7551C748.248,-69.5546 535.65,-63.788 442.197,-61.2531"/>
<polygon fill="#9a32cd" stroke="#9a32cd" points="866.215,-76.2557 876.306,-73.0282 866.405,-69.2582 866.215,-76.2557"/>
<text text-anchor="middle" x="673" y="-73" font-family="FreeSans" font-size="10.00"> WorldManagers</text>
</g>
<!-- Node8&#45;&gt;Node7 -->
<g id="edge16" class="edge"><title>Node8&#45;&gt;Node7</title>
<path fill="none" stroke="#9a32cd" stroke-dasharray="5,2" d="M747.8,-104.888C789.446,-98.7019 840.887,-91.0603 881.33,-85.0525"/>
<polygon fill="#9a32cd" stroke="#9a32cd" points="747.087,-101.456 737.71,-106.387 748.116,-108.38 747.087,-101.456"/>
<text text-anchor="middle" x="809" y="-106" font-family="FreeSans" font-size="10.00"> elements</text>
</g>
<!-- Node18 -->
<g id="node38" class="node"><title>Node18</title>
<a xlink:href="classMezzanine_1_1Physics_1_1PhysicsManager.html" target="_top" xlink:title="This is simply a place for storing all the Physics Related functions. ">
<polygon fill="white" stroke="black" points="899,-334 899,-366 999,-366 999,-334 899,-334"/>
<text text-anchor="start" x="907" y="-353" font-family="FreeSans" font-size="10.00">Mezzanine::Physics</text>
<text text-anchor="middle" x="949" y="-341" font-family="FreeSans" font-size="10.00">::PhysicsManager</text>
</a>
</g>
<!-- Node8&#45;&gt;Node18 -->
<g id="edge44" class="edge"><title>Node8&#45;&gt;Node18</title>
<path fill="none" stroke="midnightblue" d="M697.7,-131.753C734.31,-155.592 804.414,-203.148 858,-251 887.95,-277.746 918.734,-313.242 935.711,-333.657"/>
<polygon fill="midnightblue" stroke="midnightblue" points="699.442,-128.711 689.144,-126.217 695.639,-134.588 699.442,-128.711"/>
</g>
<!-- Node9 -->
<g id="node17" class="node"><title>Node9</title>
<a xlink:href="classMezzanine_1_1ManagerBase.html" target="_top" xlink:title="This is the base class from which all the Entresol and World Managers inherit. ">
<polygon fill="white" stroke="black" points="333,-91 333,-111 459,-111 459,-91 333,-91"/>
<text text-anchor="middle" x="396" y="-98" font-family="FreeSans" font-size="10.00">Mezzanine::ManagerBase</text>
</a>
</g>
<!-- Node9&#45;&gt;Node8 -->
<g id="edge18" class="edge"><title>Node9&#45;&gt;Node8</title>
<path fill="none" stroke="midnightblue" d="M469.356,-104.972C512.501,-107.309 566.568,-110.237 608.147,-112.488"/>
<polygon fill="midnightblue" stroke="midnightblue" points="469.377,-101.468 459.202,-104.423 468.998,-108.458 469.377,-101.468"/>
</g>
<!-- Node10 -->
<g id="node19" class="node"><title>Node10</title>
<a xlink:href="classMezzanine_1_1Entresol.html" target="_top" xlink:title="This is the main entry point for the entire library. ">
<polygon fill="white" stroke="black" points="134.5,-33 134.5,-53 235.5,-53 235.5,-33 134.5,-33"/>
<text text-anchor="middle" x="185" y="-40" font-family="FreeSans" font-size="10.00">Mezzanine::Entresol</text>
</a>
</g>
<!-- Node10&#45;&gt;Node9 -->
<g id="edge20" class="edge"><title>Node10&#45;&gt;Node9</title>
<path fill="none" stroke="#9a32cd" stroke-dasharray="5,2" d="M231.67,-55.8288C270.12,-66.398 323.895,-81.1798 359.314,-90.9158"/>
<polygon fill="#9a32cd" stroke="#9a32cd" points="232.323,-52.3786 221.753,-53.1028 230.468,-59.1282 232.323,-52.3786"/>
<text text-anchor="middle" x="286" y="-81" font-family="FreeSans" font-size="10.00"> TheEntresol</text>
</g>
<!-- Node11 -->
<g id="node21" class="node"><title>Node11</title>
<a xlink:href="classMezzanine_1_1Singleton.html" target="_top" xlink:title="Mezzanine::Singleton\l\&lt; Entresol \&gt;">
<polygon fill="white" stroke="black" points="342.5,-0 342.5,-32 449.5,-32 449.5,-0 342.5,-0"/>
<text text-anchor="start" x="350.5" y="-19" font-family="FreeSans" font-size="10.00">Mezzanine::Singleton</text>
<text text-anchor="middle" x="396" y="-7" font-family="FreeSans" font-size="10.00">&lt; Entresol &gt;</text>
</a>
</g>
<!-- Node10&#45;&gt;Node11 -->
<g id="edge24" class="edge"><title>Node10&#45;&gt;Node11</title>
<path fill="none" stroke="#9a32cd" stroke-dasharray="5,2" d="M213.943,-28.5755C227.049,-22.8182 242.951,-16.8798 258,-14 285.535,-8.73107 316.726,-8.69602 342.48,-10.2113"/>
<polygon fill="#9a32cd" stroke="#9a32cd" points="212.159,-25.5426 204.525,-32.8892 215.075,-31.9067 212.159,-25.5426"/>
<text text-anchor="middle" x="286" y="-17" font-family="FreeSans" font-size="10.00"> SingletonPtr</text>
</g>
<!-- Node11&#45;&gt;Node10 -->
<g id="edge22" class="edge"><title>Node11&#45;&gt;Node10</title>
<path fill="none" stroke="midnightblue" d="M332.031,-26.4523C325.943,-27.3535 319.858,-28.2183 314,-29 288.21,-32.4417 259.432,-35.6276 235.613,-38.0879"/>
<polygon fill="midnightblue" stroke="midnightblue" points="332.878,-29.8642 342.243,-24.9096 331.832,-22.9428 332.878,-29.8642"/>
</g>
<!-- Node12 -->
<g id="node25" class="node"><title>Node12</title>
<a xlink:title="STL class. ">
<polygon fill="white" stroke="#bfbfbf" points="156.5,-357 156.5,-377 213.5,-377 213.5,-357 156.5,-357"/>
<text text-anchor="middle" x="185" y="-364" font-family="FreeSans" font-size="10.00">std::string</text>
</a>
</g>
<!-- Node12&#45;&gt;Node5 -->
<g id="edge28" class="edge"><title>Node12&#45;&gt;Node5</title>
<path fill="none" stroke="#9a32cd" stroke-dasharray="5,2" d="M201.729,-349.702C227.373,-324.21 279.021,-276.792 332,-251 456.952,-190.17 810.028,-149 949,-149 949,-149 949,-149 1726,-149 1815.66,-149 1913.02,-204.688 1949.8,-227.964"/>
<polygon fill="#9a32cd" stroke="#9a32cd" points="199.187,-347.296 194.633,-356.862 204.158,-352.223 199.187,-347.296"/>
<text text-anchor="middle" x="1096" y="-152" font-family="FreeSans" font-size="10.00"> ObjectName</text>
</g>
<!-- Node33 -->
<g id="node79" class="node"><title>Node33</title>
<a xlink:href="classMezzanine_1_1WorldTrigger.html" target="_top" xlink:title="This is an abstract class for creating in&#45;game triggers. ">
<polygon fill="white" stroke="black" points="335,-357 335,-377 457,-377 457,-357 335,-357"/>
<text text-anchor="middle" x="396" y="-364" font-family="FreeSans" font-size="10.00">Mezzanine::WorldTrigger</text>
</a>
</g>
<!-- Node12&#45;&gt;Node33 -->
<g id="edge96" class="edge"><title>Node12&#45;&gt;Node33</title>
<path fill="none" stroke="#9a32cd" stroke-dasharray="5,2" d="M224.283,-367C255.251,-367 298.996,-367 334.582,-367"/>
<polygon fill="#9a32cd" stroke="#9a32cd" points="223.896,-363.5 213.896,-367 223.896,-370.5 223.896,-363.5"/>
<text text-anchor="middle" x="286" y="-370" font-family="FreeSans" font-size="10.00"> Name</text>
</g>
<!-- Node36 -->
<g id="node86" class="node"><title>Node36</title>
<a xlink:href="classMezzanine_1_1Physics_1_1CollisionShape.html" target="_top" xlink:title="This is the base class for all collision shapes. ">
<polygon fill="white" stroke="black" points="482,-565 482,-597 582,-597 582,-565 482,-565"/>
<text text-anchor="start" x="490" y="-584" font-family="FreeSans" font-size="10.00">Mezzanine::Physics</text>
<text text-anchor="middle" x="532" y="-572" font-family="FreeSans" font-size="10.00">::CollisionShape</text>
</a>
</g>
<!-- Node12&#45;&gt;Node36 -->
<g id="edge104" class="edge"><title>Node12&#45;&gt;Node36</title>
<path fill="none" stroke="#9a32cd" stroke-dasharray="5,2" d="M195.043,-386.208C215.442,-423.153 265.49,-503.91 332,-543 378.01,-570.042 439.326,-578.404 481.884,-580.714"/>
<polygon fill="#9a32cd" stroke="#9a32cd" points="197.915,-384.16 190.086,-377.02 191.754,-387.483 197.915,-384.16"/>
<text text-anchor="middle" x="286" y="-533" font-family="FreeSans" font-size="10.00"> Name</text>
</g>
<!-- Node13 -->
<g id="node27" class="node"><title>Node13</title>
<a xlink:title="STL class. ">
<polygon fill="white" stroke="#bfbfbf" points="0.5,-351 0.5,-383 91.5,-383 91.5,-351 0.5,-351"/>
<text text-anchor="start" x="8.5" y="-370" font-family="FreeSans" font-size="10.00">std::basic_string&lt;</text>
<text text-anchor="middle" x="46" y="-358" font-family="FreeSans" font-size="10.00"> char &gt;</text>
</a>
</g>
<!-- Node13&#45;&gt;Node12 -->
<g id="edge30" class="edge"><title>Node13&#45;&gt;Node12</title>
<path fill="none" stroke="midnightblue" d="M101.751,-367C120.501,-367 140.641,-367 156.415,-367"/>
<polygon fill="midnightblue" stroke="midnightblue" points="101.514,-363.5 91.5138,-367 101.514,-370.5 101.514,-363.5"/>
</g>
<!-- Node14 -->
<g id="node29" class="node"><title>Node14</title>
<polygon fill="white" stroke="#bfbfbf" points="1680,-222 1680,-254 1772,-254 1772,-222 1680,-222"/>
<text text-anchor="start" x="1688" y="-241" font-family="FreeSans" font-size="10.00">std::set&lt; Physics::</text>
<text text-anchor="middle" x="1726" y="-229" font-family="FreeSans" font-size="10.00">Collision * &gt;</text>
</g>
<!-- Node14&#45;&gt;Node5 -->
<g id="edge32" class="edge"><title>Node14&#45;&gt;Node5</title>
<path fill="none" stroke="#9a32cd" stroke-dasharray="5,2" d="M1782.14,-238C1818.92,-238 1866.96,-238 1904.57,-238"/>
<polygon fill="#9a32cd" stroke="#9a32cd" points="1782.08,-234.5 1772.08,-238 1782.08,-241.5 1782.08,-234.5"/>
<text text-anchor="middle" x="1846" y="-241" font-family="FreeSans" font-size="10.00"> CurrentCollisions</text>
</g>
<!-- Node15&#45;&gt;Node14 -->
<g id="edge34" class="edge"><title>Node15&#45;&gt;Node14</title>
<path fill="none" stroke="#9a32cd" stroke-dasharray="5,2" d="M1581.14,-274.039C1612.67,-266.194 1650.7,-256.734 1679.87,-249.475"/>
<polygon fill="#9a32cd" stroke="#9a32cd" points="1580.01,-270.713 1571.15,-276.524 1581.7,-277.506 1580.01,-270.713"/>
<text text-anchor="middle" x="1629" y="-268" font-family="FreeSans" font-size="10.00"> keys</text>
</g>
<!-- Node15&#45;&gt;Node27 -->
<g id="edge70" class="edge"><title>Node15&#45;&gt;Node27</title>
<path fill="none" stroke="#9a32cd" stroke-dasharray="5,2" d="M1468.76,-308.617C1427.66,-323.553 1368.72,-343.883 1316,-358 1107.75,-413.76 850.723,-429.189 734.824,-433.421"/>
<polygon fill="#9a32cd" stroke="#9a32cd" points="1470.1,-311.855 1478.29,-305.134 1467.7,-305.28 1470.1,-311.855"/>
<text text-anchor="middle" x="1096" y="-412" font-family="FreeSans" font-size="10.00"> elements</text>
</g>
<!-- Node16 -->
<g id="node33" class="node"><title>Node16</title>
<polygon fill="white" stroke="#bfbfbf" points="1195,-279 1195,-299 1291,-299 1291,-279 1195,-279"/>
<text text-anchor="middle" x="1243" y="-286" font-family="FreeSans" font-size="10.00">std::vector&lt; Real &gt;</text>
</g>
<!-- Node16&#45;&gt;Node15 -->
<g id="edge36" class="edge"><title>Node16&#45;&gt;Node15</title>
<path fill="none" stroke="#9a32cd" stroke-dasharray="5,2" d="M1301.15,-289C1351.29,-289 1422.95,-289 1470.67,-289"/>
<polygon fill="#9a32cd" stroke="#9a32cd" points="1301.11,-285.5 1291.11,-289 1301.11,-292.5 1301.11,-285.5"/>
<text text-anchor="middle" x="1381" y="-292" font-family="FreeSans" font-size="10.00"> PenetrationDistances</text>
</g>
<!-- Node17 -->
<g id="node35" class="node"><title>Node17</title>
<a xlink:href="structMezzanine_1_1Physics_1_1CollisionInternalData.html" target="_top" xlink:title="Used to insulate the interface from the implementation details for bullet. ">
<polygon fill="white" stroke="black" points="1188,-179 1188,-211 1298,-211 1298,-179 1188,-179"/>
<text text-anchor="start" x="1196" y="-198" font-family="FreeSans" font-size="10.00">Mezzanine::Physics</text>
<text text-anchor="middle" x="1243" y="-186" font-family="FreeSans" font-size="10.00">::CollisionInternalData</text>
</a>
</g>
<!-- Node17&#45;&gt;Node15 -->
<g id="edge38" class="edge"><title>Node17&#45;&gt;Node15</title>
<path fill="none" stroke="#9a32cd" stroke-dasharray="5,2" d="M1300.05,-214.292C1351.15,-231.569 1425.23,-256.616 1473.26,-272.856"/>
<polygon fill="#9a32cd" stroke="#9a32cd" points="1301.07,-210.94 1290.47,-211.052 1298.83,-217.571 1301.07,-210.94"/>
<text text-anchor="middle" x="1381" y="-258" font-family="FreeSans" font-size="10.00"> InternalData</text>
</g>
<!-- Node18&#45;&gt;Node2 -->
<g id="edge42" class="edge"><title>Node18&#45;&gt;Node2</title>
<path fill="none" stroke="#9a32cd" stroke-dasharray="5,2" d="M964.455,-374.425C980.494,-397.714 1007.73,-431.972 1040,-451 1084.02,-476.955 1102.79,-463.208 1152,-477 1166.74,-481.13 1182.63,-486.167 1196.95,-490.924"/>
<polygon fill="#9a32cd" stroke="#9a32cd" points="967.344,-372.449 958.868,-366.091 961.529,-376.347 967.344,-372.449"/>
<text text-anchor="middle" x="1096" y="-480" font-family="FreeSans" font-size="10.00"> Manager</text>
</g>
<!-- Node18&#45;&gt;Node18 -->
<g id="edge78" class="edge"><title>Node18&#45;&gt;Node18</title>
<path fill="none" stroke="#9a32cd" stroke-dasharray="5,2" d="M924.362,-376.19C927.624,-380.794 935.837,-384 949,-384 970.602,-384 978.871,-375.366 973.808,-366.091"/>
<polygon fill="#9a32cd" stroke="#9a32cd" points="927.86,-376.03 924.192,-366.091 920.861,-376.148 927.86,-376.03"/>
<text text-anchor="middle" x="949" y="-387" font-family="FreeSans" font-size="10.00"> CallBackWorld</text>
</g>
<!-- Node30 -->
<g id="node69" class="node"><title>Node30</title>
<a xlink:href="classMezzanine_1_1Physics_1_1DebugDrawWorkUnit.html" target="_top" xlink:title="This is a Mezzanine::Threading::iWorkUnit for the updating of the physics debug drawer. ">
<polygon fill="white" stroke="black" points="1188,-317 1188,-349 1298,-349 1298,-317 1188,-317"/>
<text text-anchor="start" x="1196" y="-336" font-family="FreeSans" font-size="10.00">Mezzanine::Physics</text>
<text text-anchor="middle" x="1243" y="-324" font-family="FreeSans" font-size="10.00">::DebugDrawWorkUnit</text>
</a>
</g>
<!-- Node18&#45;&gt;Node30 -->
<g id="edge84" class="edge"><title>Node18&#45;&gt;Node30</title>
<path fill="none" stroke="#9a32cd" stroke-dasharray="5,2" d="M1001.64,-330.898C1014.05,-327.208 1027.36,-323.901 1040,-322 1089.56,-314.548 1146.6,-318.747 1187.57,-323.965"/>
<polygon fill="#9a32cd" stroke="#9a32cd" points="1000.41,-327.614 991.897,-333.921 1002.49,-334.299 1000.41,-327.614"/>
<text text-anchor="middle" x="1096" y="-325" font-family="FreeSans" font-size="10.00"> TargetManager</text>
</g>
<!-- Node31 -->
<g id="node73" class="node"><title>Node31</title>
<a xlink:href="classMezzanine_1_1Physics_1_1WorldTriggerUpdateWorkUnit.html" target="_top" xlink:title="This is a Mezzanine::Threading::iWorkUnit for the updating of WorldTriggers. ">
<polygon fill="white" stroke="black" points="1170,-229 1170,-261 1316,-261 1316,-229 1170,-229"/>
<text text-anchor="start" x="1178" y="-248" font-family="FreeSans" font-size="10.00">Mezzanine::Physics</text>
<text text-anchor="middle" x="1243" y="-236" font-family="FreeSans" font-size="10.00">::WorldTriggerUpdateWorkUnit</text>
</a>
</g>
<!-- Node18&#45;&gt;Node31 -->
<g id="edge90" class="edge"><title>Node18&#45;&gt;Node31</title>
<path fill="none" stroke="#9a32cd" stroke-dasharray="5,2" d="M963.238,-325.168C978.665,-300.986 1005.73,-265.656 1040,-250 1080.24,-231.614 1129.82,-230.054 1169.9,-233.24"/>
<polygon fill="#9a32cd" stroke="#9a32cd" points="960.169,-323.476 957.905,-333.826 966.129,-327.148 960.169,-323.476"/>
<text text-anchor="middle" x="1096" y="-253" font-family="FreeSans" font-size="10.00"> TargetManager</text>
</g>
<!-- Node19 -->
<g id="node41" class="node"><title>Node19</title>
<a xlink:href="classMezzanine_1_1Threading_1_1DefaultWorkUnit.html" target="_top" xlink:title="Default implementation of WorkUnit. This represents on piece of work through time. ">
<polygon fill="white" stroke="black" points="618,-194 618,-226 728,-226 728,-194 618,-194"/>
<text text-anchor="start" x="626" y="-213" font-family="FreeSans" font-size="10.00">Mezzanine::Threading</text>
<text text-anchor="middle" x="673" y="-201" font-family="FreeSans" font-size="10.00">::DefaultWorkUnit</text>
</a>
</g>
<!-- Node19&#45;&gt;Node18 -->
<g id="edge46" class="edge"><title>Node19&#45;&gt;Node18</title>
<path fill="none" stroke="#9a32cd" stroke-dasharray="5,2" d="M713.833,-230.712C769.236,-258.815 867.056,-308.434 917.285,-333.912"/>
<polygon fill="#9a32cd" stroke="#9a32cd" points="715.162,-227.462 704.661,-226.06 711.996,-233.705 715.162,-227.462"/>
<text text-anchor="middle" x="809" y="-303" font-family="FreeSans" font-size="10.00"> SimulationWork</text>
</g>
<!-- Node19&#45;&gt;Node30 -->
<g id="edge82" class="edge"><title>Node19&#45;&gt;Node30</title>
<path fill="none" stroke="midnightblue" d="M738.132,-207.969C861.771,-204.738 1120.96,-201.187 1152,-227 1180.35,-250.582 1145.41,-280.513 1170,-308 1174.91,-313.492 1181.08,-317.777 1187.75,-321.122"/>
<polygon fill="midnightblue" stroke="midnightblue" points="737.937,-204.473 728.035,-208.241 738.125,-211.471 737.937,-204.473"/>
</g>
<!-- Node19&#45;&gt;Node31 -->
<g id="edge88" class="edge"><title>Node19&#45;&gt;Node31</title>
<path fill="none" stroke="midnightblue" d="M738.021,-192.496C833.278,-170.365 1014.37,-141.802 1152,-201 1162.69,-205.596 1160.21,-213.711 1170,-220 1175.18,-223.331 1180.86,-226.273 1186.69,-228.857"/>
<polygon fill="midnightblue" stroke="midnightblue" points="737.158,-189.104 728.236,-194.818 738.773,-195.915 737.158,-189.104"/>
</g>
<!-- Node20 -->
<g id="node43" class="node"><title>Node20</title>
<a xlink:href="classMezzanine_1_1Threading_1_1iWorkUnit.html" target="_top" xlink:title="Interface of a WorkUnit. This represents on piece of work through time. ">
<polygon fill="white" stroke="black" points="130,-160 130,-192 240,-192 240,-160 130,-160"/>
<text text-anchor="start" x="138" y="-179" font-family="FreeSans" font-size="10.00">Mezzanine::Threading</text>
<text text-anchor="middle" x="185" y="-167" font-family="FreeSans" font-size="10.00">::iWorkUnit</text>
</a>
</g>
<!-- Node20&#45;&gt;Node19 -->
<g id="edge48" class="edge"><title>Node20&#45;&gt;Node19</title>
<path fill="none" stroke="midnightblue" d="M250.277,-180.548C347.117,-187.295 527.133,-199.837 617.796,-206.154"/>
<polygon fill="midnightblue" stroke="midnightblue" points="250.25,-177.038 240.031,-179.834 249.764,-184.021 250.25,-177.038"/>
</g>
<!-- Node21 -->
<g id="node45" class="node"><title>Node21</title>
<polygon fill="white" stroke="#bfbfbf" points="333.5,-134 333.5,-166 458.5,-166 458.5,-134 333.5,-134"/>
<text text-anchor="start" x="341.5" y="-153" font-family="FreeSans" font-size="10.00">std::vector&lt; Mezzanine</text>
<text text-anchor="middle" x="396" y="-141" font-family="FreeSans" font-size="10.00">::Threading::iWorkUnit * &gt;</text>
</g>
<!-- Node20&#45;&gt;Node21 -->
<g id="edge52" class="edge"><title>Node20&#45;&gt;Node21</title>
<path fill="none" stroke="#9a32cd" stroke-dasharray="5,2" d="M250.103,-167.978C276.596,-164.713 307.093,-160.955 333.332,-157.722"/>
<polygon fill="#9a32cd" stroke="#9a32cd" points="249.659,-164.506 240.162,-169.203 250.515,-171.453 249.659,-164.506"/>
<text text-anchor="middle" x="286" y="-170" font-family="FreeSans" font-size="10.00"> elements</text>
</g>
<!-- Node21&#45;&gt;Node19 -->
<g id="edge50" class="edge"><title>Node21&#45;&gt;Node19</title>
<path fill="none" stroke="#9a32cd" stroke-dasharray="5,2" d="M469.085,-155.919C504.737,-159.836 548.02,-166.129 586,-176 603.422,-180.528 622.092,-187.521 637.652,-193.991"/>
<polygon fill="#9a32cd" stroke="#9a32cd" points="469.075,-152.398 458.763,-154.827 468.339,-159.359 469.075,-152.398"/>
<text text-anchor="middle" x="532" y="-179" font-family="FreeSans" font-size="10.00"> Dependencies</text>
</g>
<!-- Node22 -->
<g id="node48" class="node"><title>Node22</title>
<a xlink:href="structMezzanine_1_1DefaultRollingAverage.html" target="_top" xlink:title="Mezzanine::DefaultRolling\lAverage\&lt; Whole \&gt;">
<polygon fill="white" stroke="black" points="332.5,-260 332.5,-292 459.5,-292 459.5,-260 332.5,-260"/>
<text text-anchor="start" x="340.5" y="-279" font-family="FreeSans" font-size="10.00">Mezzanine::DefaultRolling</text>
<text text-anchor="middle" x="396" y="-267" font-family="FreeSans" font-size="10.00">Average&lt; Whole &gt;</text>
</a>
</g>
<!-- Node22&#45;&gt;Node19 -->
<g id="edge54" class="edge"><title>Node22&#45;&gt;Node19</title>
<path fill="none" stroke="#9a32cd" stroke-dasharray="5,2" d="M469.278,-258.54C515.826,-247.449 575.11,-233.324 617.708,-223.174"/>
<polygon fill="#9a32cd" stroke="#9a32cd" points="468.466,-255.136 459.549,-260.858 470.088,-261.945 468.466,-255.136"/>
<text text-anchor="middle" x="532" y="-257" font-family="FreeSans" font-size="10.00"> PerformanceLog</text>
</g>
<!-- Node23 -->
<g id="node50" class="node"><title>Node23</title>
<polygon fill="white" stroke="#bfbfbf" points="1902,-398 1902,-418 2028,-418 2028,-398 1902,-398"/>
<text text-anchor="middle" x="1965" y="-405" font-family="FreeSans" font-size="10.00">std::vector&lt; Constraint * &gt;</text>
</g>
<!-- Node23&#45;&gt;Node18 -->
<g id="edge56" class="edge"><title>Node23&#45;&gt;Node18</title>
<path fill="none" stroke="#9a32cd" stroke-dasharray="5,2" d="M1906.32,-396.099C1858.11,-387.358 1787.91,-377 1726,-377 1243,-377 1243,-377 1243,-377 1157.02,-377 1057.48,-365.407 999.072,-357.414"/>
<polygon fill="#9a32cd" stroke="#9a32cd" points="1905.79,-399.561 1916.26,-397.935 1907.06,-392.677 1905.79,-399.561"/>
<text text-anchor="middle" x="1521" y="-380" font-family="FreeSans" font-size="10.00"> Constraints</text>
</g>
<!-- Node24 -->
<g id="node52" class="node"><title>Node24</title>
<a xlink:href="classMezzanine_1_1Physics_1_1Constraint.html" target="_top" xlink:title="This is the base class for all constraints supported. ">
<polygon fill="white" stroke="black" points="1676,-453 1676,-485 1776,-485 1776,-453 1676,-453"/>
<text text-anchor="start" x="1684" y="-472" font-family="FreeSans" font-size="10.00">Mezzanine::Physics</text>
<text text-anchor="middle" x="1726" y="-460" font-family="FreeSans" font-size="10.00">::Constraint</text>
</a>
</g>
<!-- Node24&#45;&gt;Node23 -->
<g id="edge58" class="edge"><title>Node24&#45;&gt;Node23</title>
<path fill="none" stroke="#9a32cd" stroke-dasharray="5,2" d="M1786.04,-453.676C1829.73,-442.524 1887.67,-427.738 1925.61,-418.052"/>
<polygon fill="#9a32cd" stroke="#9a32cd" points="1784.93,-450.348 1776.1,-456.212 1786.66,-457.131 1784.93,-450.348"/>
<text text-anchor="middle" x="1846" y="-450" font-family="FreeSans" font-size="10.00"> elements</text>
</g>
<!-- Node25&#45;&gt;Node24 -->
<g id="edge60" class="edge"><title>Node25&#45;&gt;Node24</title>
<path fill="none" stroke="#9a32cd" stroke-dasharray="5,2" d="M1581.09,-502.223C1611.14,-495.334 1647.08,-487.093 1675.66,-480.542"/>
<polygon fill="#9a32cd" stroke="#9a32cd" points="1580.11,-498.856 1571.15,-504.503 1581.68,-505.679 1580.11,-498.856"/>
<text text-anchor="middle" x="1629" y="-508" font-family="FreeSans" font-size="10.00"> ProxA</text>
<text text-anchor="middle" x="1629" y="-496" font-family="FreeSans" font-size="10.00">ProxB</text>
</g>
<!-- Node26&#45;&gt;Node18 -->
<g id="edge64" class="edge"><title>Node26&#45;&gt;Node18</title>
<path fill="none" stroke="#9a32cd" stroke-dasharray="5,2" d="M1435.82,-469.699C1403.77,-468.005 1367.08,-465.071 1334,-460 1325.69,-458.726 1047.99,-390.628 1040,-388 1021.13,-381.793 1000.68,-373.409 983.954,-366.095"/>
<polygon fill="#9a32cd" stroke="#9a32cd" points="1435.9,-473.207 1446.06,-470.207 1436.24,-466.216 1435.9,-473.207"/>
<text text-anchor="middle" x="1243" y="-458" font-family="FreeSans" font-size="10.00"> Proxies</text>
</g>
<!-- Node27&#45;&gt;Node18 -->
<g id="edge68" class="edge"><title>Node27&#45;&gt;Node18</title>
<path fill="none" stroke="#9a32cd" stroke-dasharray="5,2" d="M734.863,-415.948C784.316,-400.718 852.756,-379.64 898.837,-365.449"/>
<polygon fill="#9a32cd" stroke="#9a32cd" points="733.765,-412.624 725.238,-418.912 735.825,-419.314 733.765,-412.624"/>
<text text-anchor="middle" x="809" y="-410" font-family="FreeSans" font-size="10.00"> Collisions</text>
</g>
<!-- Node28 -->
<g id="node64" class="node"><title>Node28</title>
<a xlink:href="classMezzanine_1_1debug_1_1InternalDebugDrawer.html" target="_top" xlink:title="This is used to draw wireframse for the Physics subsystem. ">
<polygon fill="white" stroke="black" points="608,-307 608,-339 738,-339 738,-307 608,-307"/>
<text text-anchor="start" x="616" y="-326" font-family="FreeSans" font-size="10.00">Mezzanine::debug::Internal</text>
<text text-anchor="middle" x="673" y="-314" font-family="FreeSans" font-size="10.00">DebugDrawer</text>
</a>
</g>
<!-- Node28&#45;&gt;Node18 -->
<g id="edge74" class="edge"><title>Node28&#45;&gt;Node18</title>
<path fill="none" stroke="#9a32cd" stroke-dasharray="5,2" d="M748.327,-328.931C781.919,-331.726 821.966,-335.265 858,-339 871.296,-340.378 885.664,-342.036 898.969,-343.642"/>
<polygon fill="#9a32cd" stroke="#9a32cd" points="748.374,-325.423 738.12,-328.088 747.798,-332.399 748.374,-325.423"/>
<text text-anchor="middle" x="809" y="-342" font-family="FreeSans" font-size="10.00"> BulletDrawer</text>
</g>
<!-- Node29 -->
<g id="node66" class="node"><title>Node29</title>
<polygon fill="white" stroke="#bfbfbf" points="357.5,-313 357.5,-333 434.5,-333 434.5,-313 357.5,-313"/>
<text text-anchor="middle" x="396" y="-320" font-family="FreeSans" font-size="10.00">btIDebugDraw</text>
</g>
<!-- Node29&#45;&gt;Node28 -->
<g id="edge76" class="edge"><title>Node29&#45;&gt;Node28</title>
<path fill="none" stroke="midnightblue" d="M444.682,-323C490.028,-323 557.961,-323 607.941,-323"/>
<polygon fill="midnightblue" stroke="midnightblue" points="444.516,-319.5 434.516,-323 444.516,-326.5 444.516,-319.5"/>
</g>
<!-- Node30&#45;&gt;Node18 -->
<g id="edge80" class="edge"><title>Node30&#45;&gt;Node18</title>
<path fill="none" stroke="#9a32cd" stroke-dasharray="5,2" d="M1177.61,-336.781C1123.73,-339.897 1048.43,-344.25 999.206,-347.097"/>
<polygon fill="#9a32cd" stroke="#9a32cd" points="1177.97,-340.266 1187.75,-336.195 1177.56,-333.278 1177.97,-340.266"/>
<text text-anchor="middle" x="1096" y="-347" font-family="FreeSans" font-size="10.00"> DebugDrawWork</text>
</g>
<!-- Node31&#45;&gt;Node18 -->
<g id="edge86" class="edge"><title>Node31&#45;&gt;Node18</title>
<path fill="none" stroke="#9a32cd" stroke-dasharray="5,2" d="M1160,-263.407C1122.67,-272.82 1078.47,-285.567 1040,-301 1017.35,-310.087 993.085,-323.348 975.311,-333.784"/>
<polygon fill="#9a32cd" stroke="#9a32cd" points="1160.97,-266.773 1169.83,-260.964 1159.28,-259.979 1160.97,-266.773"/>
<text text-anchor="middle" x="1096" y="-304" font-family="FreeSans" font-size="10.00"> WorldTriggerUpdateWork</text>
</g>
<!-- Node32 -->
<g id="node77" class="node"><title>Node32</title>
<polygon fill="white" stroke="#bfbfbf" points="604.5,-357 604.5,-377 741.5,-377 741.5,-357 604.5,-357"/>
<text text-anchor="middle" x="673" y="-364" font-family="FreeSans" font-size="10.00">std::vector&lt; WorldTrigger * &gt;</text>
</g>
<!-- Node32&#45;&gt;Node18 -->
<g id="edge92" class="edge"><title>Node32&#45;&gt;Node18</title>
<path fill="none" stroke="#9a32cd" stroke-dasharray="5,2" d="M751.772,-362.148C798.967,-359.241 857.568,-355.632 898.58,-353.106"/>
<polygon fill="#9a32cd" stroke="#9a32cd" points="751.345,-358.668 741.579,-362.776 751.776,-365.654 751.345,-358.668"/>
<text text-anchor="middle" x="809" y="-364" font-family="FreeSans" font-size="10.00"> Triggers</text>
</g>
<!-- Node33&#45;&gt;Node32 -->
<g id="edge94" class="edge"><title>Node33&#45;&gt;Node32</title>
<path fill="none" stroke="#9a32cd" stroke-dasharray="5,2" d="M467.319,-367C509.459,-367 562.548,-367 604.234,-367"/>
<polygon fill="#9a32cd" stroke="#9a32cd" points="467.132,-363.5 457.132,-367 467.132,-370.5 467.132,-363.5"/>
<text text-anchor="middle" x="532" y="-370" font-family="FreeSans" font-size="10.00"> elements</text>
</g>
<!-- Node34 -->
<g id="node82" class="node"><title>Node34</title>
<a xlink:href="classMezzanine_1_1Physics_1_1ManagerConstructionInfo.html" target="_top" xlink:title="This is a helper class storing information needed for the construction of a PhysicsManager. ">
<polygon fill="white" stroke="black" points="608.5,-519 608.5,-551 737.5,-551 737.5,-519 608.5,-519"/>
<text text-anchor="start" x="616.5" y="-538" font-family="FreeSans" font-size="10.00">Mezzanine::Physics</text>
<text text-anchor="middle" x="673" y="-526" font-family="FreeSans" font-size="10.00">::ManagerConstructionInfo</text>
</a>
</g>
<!-- Node34&#45;&gt;Node18 -->
<g id="edge98" class="edge"><title>Node34&#45;&gt;Node18</title>
<path fill="none" stroke="#9a32cd" stroke-dasharray="5,2" d="M700.043,-512.132C716.707,-498.65 738.864,-481.783 760,-469 801.171,-444.1 817.17,-448.455 858,-423 885.328,-405.963 913.813,-381.929 931.476,-366.161"/>
<polygon fill="#9a32cd" stroke="#9a32cd" points="697.38,-509.789 691.864,-518.835 701.817,-515.204 697.38,-509.789"/>
<text text-anchor="middle" x="809" y="-472" font-family="FreeSans" font-size="10.00"> WorldConstructionInfo</text>
</g>
<!-- Node35 -->
<g id="node84" class="node"><title>Node35</title>
<a xlink:href="classMezzanine_1_1Vector3.html" target="_top" xlink:title="This is used to represent a point in space, or a vector through space. ">
<polygon fill="white" stroke="black" points="346,-514 346,-534 446,-534 446,-514 346,-514"/>
<text text-anchor="middle" x="396" y="-521" font-family="FreeSans" font-size="10.00">Mezzanine::Vector3</text>
</a>
</g>
<!-- Node35&#45;&gt;Node34 -->
<g id="edge100" class="edge"><title>Node35&#45;&gt;Node34</title>
<path fill="none" stroke="#9a32cd" stroke-dasharray="5,2" d="M456.47,-520.716C463.723,-520.421 471.027,-520.17 478,-520 525.986,-518.83 538.175,-515.907 586,-520 593.177,-520.614 600.652,-521.508 608.072,-522.559"/>
<polygon fill="#9a32cd" stroke="#9a32cd" points="456.128,-517.228 446.29,-521.159 456.433,-524.221 456.128,-517.228"/>
<text text-anchor="middle" x="532" y="-547" font-family="FreeSans" font-size="10.00"> GeographyLowerBounds</text>
<text text-anchor="middle" x="532" y="-535" font-family="FreeSans" font-size="10.00">GeographyUpperBounds</text>
<text text-anchor="middle" x="532" y="-523" font-family="FreeSans" font-size="10.00">Gravity</text>
</g>
<!-- Node36&#45;&gt;Node2 -->
<g id="edge102" class="edge"><title>Node36&#45;&gt;Node2</title>
<path fill="none" stroke="#9a32cd" stroke-dasharray="5,2" d="M592.137,-575.064C634.131,-570.9 691.49,-565.174 742,-560 924.268,-541.329 969.826,-536.562 1152,-517 1165.27,-515.575 1179.64,-514.008 1192.94,-512.546"/>
<polygon fill="#9a32cd" stroke="#9a32cd" points="591.681,-571.592 582.075,-576.061 592.371,-578.558 591.681,-571.592"/>
<text text-anchor="middle" x="809" y="-561" font-family="FreeSans" font-size="10.00"> ProxyShape</text>
</g>
</g>
</svg>
