<?xml version="1.0" encoding="UTF-8" standalone="no"?>
<!DOCTYPE svg PUBLIC "-//W3C//DTD SVG 1.1//EN"
 "http://www.w3.org/Graphics/SVG/1.1/DTD/svg11.dtd">
<!-- Generated by graphviz version 2.26.3 (20100126.1600)
 -->
<!-- Title: Mezzanine::NonTriggerPhysicsSettings Pages: 1 -->
<svg width="1348pt" height="613pt"
 viewBox="0.00 0.00 1348.00 613.00" xmlns="http://www.w3.org/2000/svg" xmlns:xlink="http://www.w3.org/1999/xlink">
<g id="graph1" class="graph" transform="scale(1 1) rotate(0) translate(4 609)">
<title>Mezzanine::NonTriggerPhysicsSettings</title>
<!-- Node1 -->
<g id="node1" class="node"><title>Node1</title>
<polygon fill="#bfbfbf" stroke="black" points="754.5,-573 754.5,-605 901.5,-605 901.5,-573 754.5,-573"/>
<text text-anchor="start" x="762.5" y="-592" font-family="FreeSans" font-size="10.00">Mezzanine::NonTriggerPhysics</text>
<text text-anchor="middle" x="828" y="-580" font-family="FreeSans" font-size="10.00">Settings</text>
</g>
<!-- Node2 -->
<g id="node2" class="node"><title>Node2</title>
<a xlink:href="classMezzanine_1_1WorldObjectPhysicsSettings.xhtml" target="_top" xlink:title="This is a base helper class for configuring physics settings of a world object.">
<polygon fill="none" stroke="black" points="492.5,-475 492.5,-507 645.5,-507 645.5,-475 492.5,-475"/>
<text text-anchor="start" x="500.5" y="-494" font-family="FreeSans" font-size="10.00">Mezzanine::WorldObjectPhysics</text>
<text text-anchor="middle" x="569" y="-482" font-family="FreeSans" font-size="10.00">Settings</text>
</a>
</g>
<!-- Node2&#45;&gt;Node1 -->
<g id="edge2" class="edge"><title>Node2&#45;&gt;Node1</title>
<path fill="none" stroke="midnightblue" d="M617.697,-510.986C654.857,-526.049 707.417,-546.953 754,-564 762.15,-566.983 770.85,-570.036 779.316,-572.939"/>
<polygon fill="midnightblue" stroke="midnightblue" points="618.701,-507.616 608.119,-507.095 616.066,-514.102 618.701,-507.616"/>
</g>
<!-- Node3 -->
<g id="node4" class="node"><title>Node3</title>
<a xlink:href="classMezzanine_1_1WorldObject.xhtml" target="_top" xlink:title="This is the base class from which classes that are insertable into the physical world.">
<polygon fill="none" stroke="black" points="768,-416 768,-436 888,-436 888,-416 768,-416"/>
<text text-anchor="middle" x="828" y="-423" font-family="FreeSans" font-size="10.00">Mezzanine::WorldObject</text>
</a>
</g>
<!-- Node2&#45;&gt;Node3 -->
<g id="edge22" class="edge"><title>Node2&#45;&gt;Node3</title>
<path fill="none" stroke="#9a32cd" stroke-dasharray="5,2" d="M619.344,-471.324C633.632,-466.194 649.303,-460.992 664,-457 697.975,-447.77 736.642,-440.319 767.894,-435.037"/>
<polygon fill="#9a32cd" stroke="#9a32cd" points="617.893,-468.128 609.702,-474.848 620.296,-474.702 617.893,-468.128"/>
<text text-anchor="middle" x="700" y="-460" font-family="FreeSans" font-size="10.00"> PhysicsSettings</text>
</g>
<!-- Node3&#45;&gt;Node2 -->
<g id="edge4" class="edge"><title>Node3&#45;&gt;Node2</title>
<path fill="none" stroke="#9a32cd" stroke-dasharray="5,2" d="M803.408,-441.281C785.419,-451.702 760.054,-464.862 736,-472 707.186,-480.55 674.525,-485.296 645.776,-487.914"/>
<polygon fill="#9a32cd" stroke="#9a32cd" points="805.282,-444.239 812.098,-436.128 801.711,-438.218 805.282,-444.239"/>
<text text-anchor="middle" x="700" y="-488" font-family="FreeSans" font-size="10.00"> Parent</text>
</g>
<!-- Node13 -->
<g id="node27" class="node"><title>Node13</title>
<a xlink:href="classMezzanine_1_1Physics_1_1Collision.xhtml" target="_top" xlink:title="This is an event class used to track collsions in the physics world.">
<polygon fill="none" stroke="black" points="1061,-473 1061,-505 1161,-505 1161,-473 1061,-473"/>
<text text-anchor="start" x="1069" y="-492" font-family="FreeSans" font-size="10.00">Mezzanine::Physics</text>
<text text-anchor="middle" x="1111" y="-480" font-family="FreeSans" font-size="10.00">::Collision</text>
</a>
</g>
<!-- Node3&#45;&gt;Node13 -->
<g id="edge34" class="edge"><title>Node3&#45;&gt;Node13</title>
<path fill="none" stroke="#9a32cd" stroke-dasharray="5,2" d="M888.219,-438.056C924.689,-445.5 972.104,-455.428 1014,-465 1029.22,-468.478 1045.73,-472.476 1060.74,-476.2"/>
<polygon fill="#9a32cd" stroke="#9a32cd" points="888.733,-434.589 878.236,-436.025 887.337,-441.449 888.733,-434.589"/>
<text text-anchor="middle" x="967" y="-480" font-family="FreeSans" font-size="10.00"> ObjectA</text>
<text text-anchor="middle" x="967" y="-468" font-family="FreeSans" font-size="10.00">ObjectB</text>
</g>
<!-- Node16 -->
<g id="node34" class="node"><title>Node16</title>
<a xlink:href="classMezzanine_1_1WorldObjectGraphicsSettings.xhtml" target="_top" xlink:title="This is a helper class for configuring graphics settings of a World Object.">
<polygon fill="none" stroke="black" points="1032,-330 1032,-362 1190,-362 1190,-330 1032,-330"/>
<text text-anchor="start" x="1040" y="-349" font-family="FreeSans" font-size="10.00">Mezzanine::WorldObjectGraphics</text>
<text text-anchor="middle" x="1111" y="-337" font-family="FreeSans" font-size="10.00">Settings</text>
</a>
</g>
<!-- Node3&#45;&gt;Node16 -->
<g id="edge40" class="edge"><title>Node3&#45;&gt;Node16</title>
<path fill="none" stroke="#9a32cd" stroke-dasharray="5,2" d="M872.08,-413.2C887.237,-408.89 904.333,-404.129 920,-400 961.59,-389.039 972.602,-388.665 1014,-377 1030,-372.493 1047.32,-367.116 1062.85,-362.116"/>
<polygon fill="#9a32cd" stroke="#9a32cd" points="871.088,-409.843 862.434,-415.956 873.011,-416.574 871.088,-409.843"/>
<text text-anchor="middle" x="967" y="-403" font-family="FreeSans" font-size="10.00"> Parent</text>
</g>
<!-- Node4 -->
<g id="node6" class="node"><title>Node4</title>
<a xlink:href="classMezzanine_1_1World.xhtml" target="_top" xlink:title="This class represents a world for objects to interact within.">
<polygon fill="none" stroke="black" points="523,-88 523,-108 615,-108 615,-88 523,-88"/>
<text text-anchor="middle" x="569" y="-95" font-family="FreeSans" font-size="10.00">Mezzanine::World</text>
</a>
</g>
<!-- Node4&#45;&gt;Node3 -->
<g id="edge6" class="edge"><title>Node4&#45;&gt;Node3</title>
<path fill="none" stroke="#9a32cd" stroke-dasharray="5,2" d="M624.909,-102.911C632.979,-105.95 640.425,-110.439 646,-117 678.48,-155.223 632.078,-303.309 664,-342 685.136,-367.618 705.943,-347.873 736,-362 767.344,-376.732 799.578,-401.919 816.312,-415.899"/>
<polygon fill="#9a32cd" stroke="#9a32cd" points="625.809,-99.5268 615.224,-99.9737 623.778,-106.225 625.809,-99.5268"/>
<text text-anchor="middle" x="700" y="-365" font-family="FreeSans" font-size="10.00"> ParentWorld</text>
</g>
<!-- Node6 -->
<g id="node10" class="node"><title>Node6</title>
<a xlink:href="classMezzanine_1_1WorldManager.xhtml" target="_top" xlink:title="This is the base class for all managers that belong to a single world instance.">
<polygon fill="none" stroke="black" points="763.5,-42 763.5,-62 892.5,-62 892.5,-42 763.5,-42"/>
<text text-anchor="middle" x="828" y="-49" font-family="FreeSans" font-size="10.00">Mezzanine::WorldManager</text>
</a>
</g>
<!-- Node4&#45;&gt;Node6 -->
<g id="edge20" class="edge"><title>Node4&#45;&gt;Node6</title>
<path fill="none" stroke="#9a32cd" stroke-dasharray="5,2" d="M623.829,-85.3945C631.321,-83.4033 638.88,-81.2525 646,-79 654.184,-76.4109 655.675,-74.0914 664,-72 696.27,-63.8934 732.968,-59.0269 763.456,-56.1287"/>
<polygon fill="#9a32cd" stroke="#9a32cd" points="622.868,-82.0276 614.06,-87.9152 624.617,-88.8056 622.868,-82.0276"/>
<text text-anchor="middle" x="700" y="-75" font-family="FreeSans" font-size="10.00"> ParentWorld</text>
</g>
<!-- Node5 -->
<g id="node8" class="node"><title>Node5</title>
<polygon fill="none" stroke="#bfbfbf" points="1038.5,-70 1038.5,-90 1183.5,-90 1183.5,-70 1038.5,-70"/>
<text text-anchor="middle" x="1111" y="-77" font-family="FreeSans" font-size="10.00">std::vector&lt; WorldManager * &gt;</text>
</g>
<!-- Node5&#45;&gt;Node4 -->
<g id="edge8" class="edge"><title>Node5&#45;&gt;Node4</title>
<path fill="none" stroke="#9a32cd" stroke-dasharray="5,2" d="M1028.4,-83.4609C1023.53,-83.648 1018.7,-83.8292 1014,-84 868.395,-89.2925 695.946,-94.3815 615.13,-96.6972"/>
<polygon fill="#9a32cd" stroke="#9a32cd" points="1028.58,-86.9566 1038.44,-83.0697 1028.31,-79.9619 1028.58,-86.9566"/>
<text text-anchor="middle" x="828" y="-96" font-family="FreeSans" font-size="10.00"> WorldManagers</text>
</g>
<!-- Node6&#45;&gt;Node5 -->
<g id="edge10" class="edge"><title>Node6&#45;&gt;Node5</title>
<path fill="none" stroke="#9a32cd" stroke-dasharray="5,2" d="M902.737,-59.3944C944.719,-63.5481 996.873,-68.7083 1038.49,-72.8256"/>
<polygon fill="#9a32cd" stroke="#9a32cd" points="902.867,-55.8904 892.571,-58.3887 902.178,-62.8563 902.867,-55.8904"/>
<text text-anchor="middle" x="967" y="-74" font-family="FreeSans" font-size="10.00"> elements</text>
</g>
<!-- Node7 -->
<g id="node12" class="node"><title>Node7</title>
<a xlink:href="classMezzanine_1_1ManagerBase.xhtml" target="_top" xlink:title="This is the base class from which all the Entresol and World Managers inherit.">
<polygon fill="none" stroke="black" points="506,-0 506,-20 632,-20 632,-0 506,-0"/>
<text text-anchor="middle" x="569" y="-7" font-family="FreeSans" font-size="10.00">Mezzanine::ManagerBase</text>
</a>
</g>
<!-- Node7&#45;&gt;Node6 -->
<g id="edge12" class="edge"><title>Node7&#45;&gt;Node6</title>
<path fill="none" stroke="midnightblue" d="M640.787,-21.6411C680.211,-28.0342 728.607,-35.8823 766.317,-41.9973"/>
<polygon fill="midnightblue" stroke="midnightblue" points="641.139,-18.1526 630.708,-20.0067 640.019,-25.0623 641.139,-18.1526"/>
</g>
<!-- Node8 -->
<g id="node14" class="node"><title>Node8</title>
<a xlink:href="classMezzanine_1_1Entresol.xhtml" target="_top" xlink:title="This is the main entry point for the entire library.">
<polygon fill="none" stroke="black" points="261.5,-27 261.5,-47 362.5,-47 362.5,-27 261.5,-27"/>
<text text-anchor="middle" x="312" y="-34" font-family="FreeSans" font-size="10.00">Mezzanine::Entresol</text>
</a>
</g>
<!-- Node8&#45;&gt;Node7 -->
<g id="edge14" class="edge"><title>Node8&#45;&gt;Node7</title>
<path fill="none" stroke="#9a32cd" stroke-dasharray="5,2" d="M373.026,-28.9813C378.761,-28.2865 384.488,-27.6149 390,-27 428.469,-22.7084 471.668,-18.5858 505.99,-15.4753"/>
<polygon fill="#9a32cd" stroke="#9a32cd" points="372.236,-25.5521 362.74,-30.2497 373.093,-32.4995 372.236,-25.5521"/>
<text text-anchor="middle" x="432" y="-30" font-family="FreeSans" font-size="10.00"> TheEntresol</text>
</g>
<!-- Node9 -->
<g id="node16" class="node"><title>Node9</title>
<a xlink:href="classMezzanine_1_1Singleton.xhtml" target="_top" xlink:title="Mezzanine::Singleton\l\&lt; Entresol \&gt;">
<polygon fill="none" stroke="black" points="515.5,-38 515.5,-70 622.5,-70 622.5,-38 515.5,-38"/>
<text text-anchor="start" x="523.5" y="-57" font-family="FreeSans" font-size="10.00">Mezzanine::Singleton</text>
<text text-anchor="middle" x="569" y="-45" font-family="FreeSans" font-size="10.00">&lt; Entresol &gt;</text>
</a>
</g>
<!-- Node8&#45;&gt;Node9 -->
<g id="edge18" class="edge"><title>Node8&#45;&gt;Node9</title>
<path fill="none" stroke="#9a32cd" stroke-dasharray="5,2" d="M372.978,-46.2341C378.723,-46.9125 384.465,-47.5183 390,-48 431.974,-51.6527 479.662,-53.1196 515.256,-53.6912"/>
<polygon fill="#9a32cd" stroke="#9a32cd" points="373.036,-42.7142 362.679,-44.9457 372.167,-49.6601 373.036,-42.7142"/>
<text text-anchor="middle" x="432" y="-56" font-family="FreeSans" font-size="10.00"> SingletonPtr</text>
</g>
<!-- Node9&#45;&gt;Node8 -->
<g id="edge16" class="edge"><title>Node9&#45;&gt;Node8</title>
<path fill="none" stroke="midnightblue" d="M505.22,-49.7811C461.26,-46.8732 403.625,-43.0608 362.775,-40.3587"/>
<polygon fill="midnightblue" stroke="midnightblue" points="505.02,-53.2754 515.23,-50.4432 505.482,-46.2907 505.02,-53.2754"/>
</g>
<!-- Node10 -->
<g id="node21" class="node"><title>Node10</title>
<a xlink:title="STL class.">
<polygon fill="none" stroke="#bfbfbf" points="130.5,-432 130.5,-452 187.5,-452 187.5,-432 130.5,-432"/>
<text text-anchor="middle" x="159" y="-439" font-family="FreeSans" font-size="10.00">std::string</text>
</a>
</g>
<!-- Node10&#45;&gt;Node3 -->
<g id="edge24" class="edge"><title>Node10&#45;&gt;Node3</title>
<path fill="none" stroke="#9a32cd" stroke-dasharray="5,2" d="M197.899,-441.07C309.769,-438.394 632.936,-430.665 767.784,-427.44"/>
<polygon fill="#9a32cd" stroke="#9a32cd" points="197.66,-437.574 187.746,-441.312 197.827,-444.572 197.66,-437.574"/>
<text text-anchor="middle" x="432" y="-439" font-family="FreeSans" font-size="10.00"> Name</text>
</g>
<!-- Node29 -->
<g id="node62" class="node"><title>Node29</title>
<a xlink:href="classMezzanine_1_1Physics_1_1CollisionShape.xhtml" target="_top" xlink:title="This is the base class for all collision shapes.">
<polygon fill="none" stroke="black" points="262,-466 262,-498 362,-498 362,-466 262,-466"/>
<text text-anchor="start" x="270" y="-485" font-family="FreeSans" font-size="10.00">Mezzanine::Physics</text>
<text text-anchor="middle" x="312" y="-473" font-family="FreeSans" font-size="10.00">::CollisionShape</text>
</a>
</g>
<!-- Node10&#45;&gt;Node29 -->
<g id="edge70" class="edge"><title>Node10&#45;&gt;Node29</title>
<path fill="none" stroke="#9a32cd" stroke-dasharray="5,2" d="M197.55,-452.078C217.082,-457.185 241.034,-463.447 261.97,-468.92"/>
<polygon fill="#9a32cd" stroke="#9a32cd" points="198.338,-448.667 187.778,-449.524 196.568,-455.439 198.338,-448.667"/>
<text text-anchor="middle" x="220" y="-463" font-family="FreeSans" font-size="10.00"> Name</text>
</g>
<!-- Node11 -->
<g id="node23" class="node"><title>Node11</title>
<a xlink:title="STL class.">
<polygon fill="none" stroke="#bfbfbf" points="0.5,-426 0.5,-458 91.5,-458 91.5,-426 0.5,-426"/>
<text text-anchor="start" x="8.5" y="-445" font-family="FreeSans" font-size="10.00">std::basic_string&lt;</text>
<text text-anchor="middle" x="46" y="-433" font-family="FreeSans" font-size="10.00"> char &gt;</text>
</a>
</g>
<!-- Node11&#45;&gt;Node10 -->
<g id="edge26" class="edge"><title>Node11&#45;&gt;Node10</title>
<path fill="none" stroke="midnightblue" d="M101.885,-442C111.778,-442 121.695,-442 130.425,-442"/>
<polygon fill="midnightblue" stroke="midnightblue" points="101.636,-438.5 91.6357,-442 101.636,-445.5 101.636,-438.5"/>
</g>
<!-- Node12 -->
<g id="node25" class="node"><title>Node12</title>
<polygon fill="none" stroke="#bfbfbf" points="1248,-434 1248,-466 1340,-466 1340,-434 1248,-434"/>
<text text-anchor="start" x="1256" y="-453" font-family="FreeSans" font-size="10.00">std::set&lt; Physics::</text>
<text text-anchor="middle" x="1294" y="-441" font-family="FreeSans" font-size="10.00">Collision * &gt;</text>
</g>
<!-- Node12&#45;&gt;Node3 -->
<g id="edge28" class="edge"><title>Node12&#45;&gt;Node3</title>
<path fill="none" stroke="#9a32cd" stroke-dasharray="5,2" d="M1237.61,-447.096C1149.31,-442.548 979.171,-433.786 888.444,-429.113"/>
<polygon fill="#9a32cd" stroke="#9a32cd" points="1237.53,-450.596 1247.7,-447.615 1237.89,-443.606 1237.53,-450.596"/>
<text text-anchor="middle" x="1111" y="-447" font-family="FreeSans" font-size="10.00"> CurrentCollisions</text>
</g>
<!-- Node13&#45;&gt;Node12 -->
<g id="edge30" class="edge"><title>Node13&#45;&gt;Node12</title>
<path fill="none" stroke="#9a32cd" stroke-dasharray="5,2" d="M1171.1,-476.193C1196.05,-470.875 1224.55,-464.8 1247.82,-459.841"/>
<polygon fill="#9a32cd" stroke="#9a32cd" points="1170.06,-472.836 1161.01,-478.343 1171.52,-479.682 1170.06,-472.836"/>
<text text-anchor="middle" x="1219" y="-470" font-family="FreeSans" font-size="10.00"> keys</text>
</g>
<!-- Node14 -->
<g id="node29" class="node"><title>Node14</title>
<polygon fill="none" stroke="#bfbfbf" points="780,-535 780,-555 876,-555 876,-535 780,-535"/>
<text text-anchor="middle" x="828" y="-542" font-family="FreeSans" font-size="10.00">std::vector&lt; Real &gt;</text>
</g>
<!-- Node14&#45;&gt;Node13 -->
<g id="edge32" class="edge"><title>Node14&#45;&gt;Node13</title>
<path fill="none" stroke="#9a32cd" stroke-dasharray="5,2" d="M886.356,-535.528C923.089,-529.348 971.436,-520.815 1014,-512 1029.25,-508.841 1045.77,-505.061 1060.78,-501.486"/>
<polygon fill="#9a32cd" stroke="#9a32cd" points="885.603,-532.105 876.318,-537.207 886.758,-539.009 885.603,-532.105"/>
<text text-anchor="middle" x="967" y="-532" font-family="FreeSans" font-size="10.00"> PenetrationDistances</text>
</g>
<!-- Node15 -->
<g id="node32" class="node"><title>Node15</title>
<a xlink:href="structMezzanine_1_1Physics_1_1CollisionInternalData.xhtml" target="_top" xlink:title="Used to insulate the interface from the implementation details for bullet.">
<polygon fill="none" stroke="black" points="773,-485 773,-517 883,-517 883,-485 773,-485"/>
<text text-anchor="start" x="781" y="-504" font-family="FreeSans" font-size="10.00">Mezzanine::Physics</text>
<text text-anchor="middle" x="828" y="-492" font-family="FreeSans" font-size="10.00">::CollisionInternalData</text>
</a>
</g>
<!-- Node15&#45;&gt;Node13 -->
<g id="edge36" class="edge"><title>Node15&#45;&gt;Node13</title>
<path fill="none" stroke="#9a32cd" stroke-dasharray="5,2" d="M893.483,-498.223C944.412,-496.064 1014.02,-493.112 1060.65,-491.135"/>
<polygon fill="#9a32cd" stroke="#9a32cd" points="893.08,-494.737 883.237,-498.658 893.376,-501.731 893.08,-494.737"/>
<text text-anchor="middle" x="967" y="-499" font-family="FreeSans" font-size="10.00"> InternalData</text>
</g>
<!-- Node16&#45;&gt;Node3 -->
<g id="edge38" class="edge"><title>Node16&#45;&gt;Node3</title>
<path fill="none" stroke="#9a32cd" stroke-dasharray="5,2" d="M1021.95,-345.941C989.136,-348.214 952.145,-353.545 920,-365 887.686,-376.515 855.582,-401.75 839.192,-415.889"/>
<polygon fill="#9a32cd" stroke="#9a32cd" points="1022.22,-349.431 1031.99,-345.33 1021.8,-342.444 1022.22,-349.431"/>
<text text-anchor="middle" x="967" y="-368" font-family="FreeSans" font-size="10.00"> GraphicsSettings</text>
</g>
<!-- Node17 -->
<g id="node37" class="node"><title>Node17</title>
<a xlink:href="classMezzanine_1_1Graphics_1_1Mesh.xhtml" target="_top" xlink:title="This class is used to check and modify the properties of a graphics mesh.">
<polygon fill="none" stroke="black" points="775.5,-313 775.5,-345 880.5,-345 880.5,-313 775.5,-313"/>
<text text-anchor="start" x="783.5" y="-332" font-family="FreeSans" font-size="10.00">Mezzanine::Graphics</text>
<text text-anchor="middle" x="828" y="-320" font-family="FreeSans" font-size="10.00">::Mesh</text>
</a>
</g>
<!-- Node17&#45;&gt;Node16 -->
<g id="edge42" class="edge"><title>Node17&#45;&gt;Node16</title>
<path fill="none" stroke="#9a32cd" stroke-dasharray="5,2" d="M890.989,-326.871C927.064,-326.269 973.146,-326.543 1014,-330 1019.87,-330.497 1025.92,-331.15 1031.99,-331.909"/>
<polygon fill="#9a32cd" stroke="#9a32cd" points="890.543,-323.379 880.613,-327.073 890.679,-330.378 890.543,-323.379"/>
<text text-anchor="middle" x="967" y="-333" font-family="FreeSans" font-size="10.00"> WorldObjectMesh</text>
</g>
<!-- Node18 -->
<g id="node39" class="node"><title>Node18</title>
<a xlink:href="classMezzanine_1_1Graphics_1_1InternalMeshData.xhtml" target="_top" xlink:title="This class is used to store the internal structures needed by the Mesh class.">
<polygon fill="none" stroke="black" points="516.5,-313 516.5,-345 621.5,-345 621.5,-313 516.5,-313"/>
<text text-anchor="start" x="524.5" y="-332" font-family="FreeSans" font-size="10.00">Mezzanine::Graphics</text>
<text text-anchor="middle" x="569" y="-320" font-family="FreeSans" font-size="10.00">::InternalMeshData</text>
</a>
</g>
<!-- Node18&#45;&gt;Node17 -->
<g id="edge44" class="edge"><title>Node18&#45;&gt;Node17</title>
<path fill="none" stroke="#9a32cd" stroke-dasharray="5,2" d="M631.727,-329C675.692,-329 733.792,-329 775.349,-329"/>
<polygon fill="#9a32cd" stroke="#9a32cd" points="631.725,-325.5 621.725,-329 631.725,-332.5 631.725,-325.5"/>
<text text-anchor="middle" x="700" y="-332" font-family="FreeSans" font-size="10.00"> IMD</text>
</g>
<!-- Node19 -->
<g id="node41" class="node"><title>Node19</title>
<a xlink:href="classMezzanine_1_1Graphics_1_1Skeleton.xhtml" target="_top" xlink:title="This class encapsulates the Skeletal animation functionality of a Mesh.">
<polygon fill="none" stroke="black" points="516.5,-184 516.5,-216 621.5,-216 621.5,-184 516.5,-184"/>
<text text-anchor="start" x="524.5" y="-203" font-family="FreeSans" font-size="10.00">Mezzanine::Graphics</text>
<text text-anchor="middle" x="569" y="-191" font-family="FreeSans" font-size="10.00">::Skeleton</text>
</a>
</g>
<!-- Node19&#45;&gt;Node17 -->
<g id="edge46" class="edge"><title>Node19&#45;&gt;Node17</title>
<path fill="none" stroke="#9a32cd" stroke-dasharray="5,2" d="M631.833,-207.299C666.443,-214.313 707.944,-228.061 736,-255 752.435,-270.78 737.722,-287.058 754,-303 760.032,-308.907 767.483,-313.478 775.311,-317.013"/>
<polygon fill="#9a32cd" stroke="#9a32cd" points="632.279,-203.822 621.805,-205.413 630.985,-210.701 632.279,-203.822"/>
<text text-anchor="middle" x="700" y="-258" font-family="FreeSans" font-size="10.00"> MeshSkel</text>
</g>
<!-- Node21 -->
<g id="node45" class="node"><title>Node21</title>
<a xlink:href="classMezzanine_1_1Graphics_1_1Bone.xhtml" target="_top" xlink:title="This class encapsulates the bones contained in a skeleton used for animation.">
<polygon fill="none" stroke="black" points="775.5,-197 775.5,-229 880.5,-229 880.5,-197 775.5,-197"/>
<text text-anchor="start" x="783.5" y="-216" font-family="FreeSans" font-size="10.00">Mezzanine::Graphics</text>
<text text-anchor="middle" x="828" y="-204" font-family="FreeSans" font-size="10.00">::Bone</text>
</a>
</g>
<!-- Node19&#45;&gt;Node21 -->
<g id="edge54" class="edge"><title>Node19&#45;&gt;Node21</title>
<path fill="none" stroke="#9a32cd" stroke-dasharray="5,2" d="M632.038,-198.54C663.334,-198.283 701.695,-198.669 736,-201 748.696,-201.863 762.317,-203.336 775.083,-204.96"/>
<polygon fill="#9a32cd" stroke="#9a32cd" points="631.674,-195.044 621.711,-198.65 631.748,-202.044 631.674,-195.044"/>
<text text-anchor="middle" x="700" y="-204" font-family="FreeSans" font-size="10.00"> Host</text>
</g>
<!-- Node20 -->
<g id="node43" class="node"><title>Node20</title>
<polygon fill="none" stroke="#bfbfbf" points="1058.5,-177 1058.5,-197 1163.5,-197 1163.5,-177 1058.5,-177"/>
<text text-anchor="middle" x="1111" y="-184" font-family="FreeSans" font-size="10.00">std::vector&lt; Bone * &gt;</text>
</g>
<!-- Node20&#45;&gt;Node19 -->
<g id="edge48" class="edge"><title>Node20&#45;&gt;Node19</title>
<path fill="none" stroke="#9a32cd" stroke-dasharray="5,2" d="M1048.15,-181.449C976.795,-175.985 856.918,-169.352 754,-176 709.237,-178.891 658.76,-185.679 621.853,-191.301"/>
<polygon fill="#9a32cd" stroke="#9a32cd" points="1048.08,-184.953 1058.32,-182.244 1048.63,-177.975 1048.08,-184.953"/>
<text text-anchor="middle" x="828" y="-179" font-family="FreeSans" font-size="10.00"> Bones</text>
</g>
<!-- Node21&#45;&gt;Node20 -->
<g id="edge50" class="edge"><title>Node21&#45;&gt;Node20</title>
<path fill="none" stroke="#9a32cd" stroke-dasharray="5,2" d="M890.67,-207.242C940.963,-202.622 1010.77,-196.209 1058.24,-191.848"/>
<polygon fill="#9a32cd" stroke="#9a32cd" points="890.205,-203.77 880.567,-208.171 890.845,-210.741 890.205,-203.77"/>
<text text-anchor="middle" x="967" y="-207" font-family="FreeSans" font-size="10.00"> elements</text>
</g>
<!-- Node22 -->
<g id="node47" class="node"><title>Node22</title>
<a xlink:href="classMezzanine_1_1TransformableChildObject.xhtml" target="_top" xlink:title="This is an interface for all child 3D objects that can have their full transforms manipulated...">
<polygon fill="none" stroke="black" points="505,-126 505,-158 633,-158 633,-126 505,-126"/>
<text text-anchor="start" x="513" y="-145" font-family="FreeSans" font-size="10.00">Mezzanine::Transformable</text>
<text text-anchor="middle" x="569" y="-133" font-family="FreeSans" font-size="10.00">ChildObject</text>
</a>
</g>
<!-- Node22&#45;&gt;Node21 -->
<g id="edge52" class="edge"><title>Node22&#45;&gt;Node21</title>
<path fill="none" stroke="midnightblue" d="M637.327,-160.731C680.581,-172.588 735.656,-187.686 775.481,-198.603"/>
<polygon fill="midnightblue" stroke="midnightblue" points="638.017,-157.291 627.448,-158.022 636.166,-164.042 638.017,-157.291"/>
</g>
<!-- Node23 -->
<g id="node50" class="node"><title>Node23</title>
<a xlink:href="classMezzanine_1_1Graphics_1_1InternalSkeletonData.xhtml" target="_top" xlink:title="This class is used to store the internal structures needed by the Skeleton class.">
<polygon fill="none" stroke="black" points="256,-184 256,-216 368,-216 368,-184 256,-184"/>
<text text-anchor="start" x="264" y="-203" font-family="FreeSans" font-size="10.00">Mezzanine::Graphics</text>
<text text-anchor="middle" x="312" y="-191" font-family="FreeSans" font-size="10.00">::InternalSkeletonData</text>
</a>
</g>
<!-- Node23&#45;&gt;Node19 -->
<g id="edge56" class="edge"><title>Node23&#45;&gt;Node19</title>
<path fill="none" stroke="#9a32cd" stroke-dasharray="5,2" d="M378.146,-200C421.029,-200 476.141,-200 516.108,-200"/>
<polygon fill="#9a32cd" stroke="#9a32cd" points="378.082,-196.5 368.082,-200 378.082,-203.5 378.082,-196.5"/>
<text text-anchor="middle" x="432" y="-203" font-family="FreeSans" font-size="10.00"> ISD</text>
</g>
<!-- Node24 -->
<g id="node52" class="node"><title>Node24</title>
<polygon fill="none" stroke="#bfbfbf" points="507.5,-375 507.5,-395 630.5,-395 630.5,-375 507.5,-375"/>
<text text-anchor="middle" x="569" y="-382" font-family="FreeSans" font-size="10.00">std::vector&lt; SubMesh * &gt;</text>
</g>
<!-- Node24&#45;&gt;Node17 -->
<g id="edge58" class="edge"><title>Node24&#45;&gt;Node17</title>
<path fill="none" stroke="#9a32cd" stroke-dasharray="5,2" d="M641.005,-388.291C670.853,-387.929 705.549,-385.244 736,-377 760.693,-370.315 786.299,-356.278 804.207,-345.101"/>
<polygon fill="#9a32cd" stroke="#9a32cd" points="640.652,-384.792 630.665,-388.327 640.677,-391.792 640.652,-384.792"/>
<text text-anchor="middle" x="700" y="-391" font-family="FreeSans" font-size="10.00"> SubMeshes</text>
</g>
<!-- Node25 -->
<g id="node54" class="node"><title>Node25</title>
<a xlink:href="classMezzanine_1_1Graphics_1_1SubMesh.xhtml" target="_top" xlink:title="This class represents a sub&#45;section of an overall mesh.">
<polygon fill="none" stroke="black" points="259.5,-366 259.5,-398 364.5,-398 364.5,-366 259.5,-366"/>
<text text-anchor="start" x="267.5" y="-385" font-family="FreeSans" font-size="10.00">Mezzanine::Graphics</text>
<text text-anchor="middle" x="312" y="-373" font-family="FreeSans" font-size="10.00">::SubMesh</text>
</a>
</g>
<!-- Node25&#45;&gt;Node24 -->
<g id="edge60" class="edge"><title>Node25&#45;&gt;Node24</title>
<path fill="none" stroke="#9a32cd" stroke-dasharray="5,2" d="M374.876,-382.734C415.205,-383.205 467.322,-383.813 507.399,-384.281"/>
<polygon fill="#9a32cd" stroke="#9a32cd" points="374.668,-379.231 364.628,-382.614 374.586,-386.231 374.668,-379.231"/>
<text text-anchor="middle" x="432" y="-387" font-family="FreeSans" font-size="10.00"> elements</text>
</g>
<!-- Node26 -->
<g id="node56" class="node"><title>Node26</title>
<a xlink:href="classMezzanine_1_1Internal_1_1InternalWorldObjectGraphicsSettings.xhtml" target="_top" xlink:title="Used to store internal data about an world objects.">
<polygon fill="none" stroke="black" points="755.5,-250 755.5,-294 900.5,-294 900.5,-250 755.5,-250"/>
<text text-anchor="start" x="763.5" y="-281" font-family="FreeSans" font-size="10.00">Mezzanine::Internal</text>
<text text-anchor="start" x="763.5" y="-269" font-family="FreeSans" font-size="10.00">::InternalWorldObjectGraphics</text>
<text text-anchor="middle" x="828" y="-257" font-family="FreeSans" font-size="10.00">Settings</text>
</a>
</g>
<!-- Node26&#45;&gt;Node16 -->
<g id="edge62" class="edge"><title>Node26&#45;&gt;Node16</title>
<path fill="none" stroke="#9a32cd" stroke-dasharray="5,2" d="M910.476,-286.722C942.982,-293.192 980.489,-301.491 1014,-311 1032.77,-316.327 1053.14,-323.463 1070.35,-329.901"/>
<polygon fill="#9a32cd" stroke="#9a32cd" points="911.046,-283.267 900.559,-284.774 909.696,-290.136 911.046,-283.267"/>
<text text-anchor="middle" x="967" y="-314" font-family="FreeSans" font-size="10.00"> IWOGS</text>
</g>
<!-- Node27 -->
<g id="node58" class="node"><title>Node27</title>
<polygon fill="none" stroke="#bfbfbf" points="499.5,-254 499.5,-286 638.5,-286 638.5,-254 499.5,-254"/>
<text text-anchor="start" x="507.5" y="-273" font-family="FreeSans" font-size="10.00">std::map&lt; Whole, Mezzanine</text>
<text text-anchor="middle" x="569" y="-261" font-family="FreeSans" font-size="10.00">::ColourValue &gt;</text>
</g>
<!-- Node27&#45;&gt;Node26 -->
<g id="edge64" class="edge"><title>Node27&#45;&gt;Node26</title>
<path fill="none" stroke="#9a32cd" stroke-dasharray="5,2" d="M649.1,-270.619C683.049,-270.881 722.326,-271.184 755.415,-271.439"/>
<polygon fill="#9a32cd" stroke="#9a32cd" points="648.775,-267.116 638.748,-270.539 648.721,-274.116 648.775,-267.116"/>
<text text-anchor="middle" x="700" y="-299" font-family="FreeSans" font-size="10.00"> Specular</text>
<text text-anchor="middle" x="700" y="-287" font-family="FreeSans" font-size="10.00">Ambient</text>
<text text-anchor="middle" x="700" y="-275" font-family="FreeSans" font-size="10.00">Diffuse</text>
</g>
<!-- Node28 -->
<g id="node60" class="node"><title>Node28</title>
<a xlink:href="classMezzanine_1_1ColourValue.xhtml" target="_top" xlink:title="This is a simple class for holding 4 reals representing the colour any give object or lightsource can...">
<polygon fill="none" stroke="black" points="252.5,-260 252.5,-280 371.5,-280 371.5,-260 252.5,-260"/>
<text text-anchor="middle" x="312" y="-267" font-family="FreeSans" font-size="10.00">Mezzanine::ColourValue</text>
</a>
</g>
<!-- Node28&#45;&gt;Node27 -->
<g id="edge66" class="edge"><title>Node28&#45;&gt;Node27</title>
<path fill="none" stroke="#9a32cd" stroke-dasharray="5,2" d="M381.673,-270C418.167,-270 462.733,-270 499.24,-270"/>
<polygon fill="#9a32cd" stroke="#9a32cd" points="381.607,-266.5 371.607,-270 381.607,-273.5 381.607,-266.5"/>
<text text-anchor="middle" x="432" y="-273" font-family="FreeSans" font-size="10.00"> elements</text>
</g>
<!-- Node29&#45;&gt;Node2 -->
<g id="edge68" class="edge"><title>Node29&#45;&gt;Node2</title>
<path fill="none" stroke="#9a32cd" stroke-dasharray="5,2" d="M372.445,-484.117C408.201,-485.369 453.838,-486.967 492.135,-488.308"/>
<polygon fill="#9a32cd" stroke="#9a32cd" points="372.279,-480.609 362.162,-483.757 372.034,-487.605 372.279,-480.609"/>
<text text-anchor="middle" x="432" y="-490" font-family="FreeSans" font-size="10.00"> WorldObjectShape</text>
</g>
</g>
</svg>
