<?xml version="1.0" encoding="UTF-8" standalone="no"?>
<!DOCTYPE svg PUBLIC "-//W3C//DTD SVG 1.1//EN"
 "http://www.w3.org/Graphics/SVG/1.1/DTD/svg11.dtd">
<!-- Generated by graphviz version 2.26.3 (20100126.1600)
 -->
<!-- Title: Mezzanine::UI::TextureAtlas Pages: 1 -->
<svg width="1186pt" height="377pt"
 viewBox="0.00 0.00 1186.00 376.51" xmlns="http://www.w3.org/2000/svg" xmlns:xlink="http://www.w3.org/1999/xlink">
<g id="graph1" class="graph" transform="scale(1 1) rotate(0) translate(4 372.51)">
<title>Mezzanine::UI::TextureAtlas</title>
<polygon fill="white" stroke="white" points="-4,5 -4,-372.51 1183,-372.51 1183,5 -4,5"/>
<!-- Node1 -->
<g id="node1" class="node"><title>Node1</title>
<polygon fill="#bfbfbf" stroke="black" points="388.5,-153.51 388.5,-173.51 523.5,-173.51 523.5,-153.51 388.5,-153.51"/>
<text text-anchor="middle" x="456" y="-160.51" font-family="FreeSans" font-size="10.00">Mezzanine::UI::TextureAtlas</text>
</g>
<!-- Node4 -->
<g id="node6" class="node"><title>Node4</title>
<a xlink:href="classMezzanine_1_1UI_1_1FontData.html" target="_top" xlink:title="This class represents a collection of Glyphs in a common visual style. ">
<polygon fill="white" stroke="black" points="618.5,-208.51 618.5,-228.51 739.5,-228.51 739.5,-208.51 618.5,-208.51"/>
<text text-anchor="middle" x="679" y="-215.51" font-family="FreeSans" font-size="10.00">Mezzanine::UI::FontData</text>
</a>
</g>
<!-- Node1&#45;&gt;Node4 -->
<g id="edge12" class="edge"><title>Node1&#45;&gt;Node4</title>
<path fill="none" stroke="#9a32cd" stroke-dasharray="5,2" d="M522.362,-175.505C546.329,-180.247 573.506,-186.098 598,-192.51 615.574,-197.11 634.959,-203.292 650.358,-208.474"/>
<polygon fill="#9a32cd" stroke="#9a32cd" points="522.789,-172.023 512.304,-173.543 521.448,-178.893 522.789,-172.023"/>
<text text-anchor="middle" x="570" y="-195.51" font-family="FreeSans" font-size="10.00"> Atlas</text>
</g>
<!-- Node8 -->
<g id="node15" class="node"><title>Node8</title>
<a xlink:href="classMezzanine_1_1UI_1_1Glyph.html" target="_top" xlink:title="Class used to describe a single glyph or character available for text operations. ...">
<polygon fill="white" stroke="black" points="840,-268.51 840,-288.51 946,-288.51 946,-268.51 840,-268.51"/>
<text text-anchor="middle" x="893" y="-275.51" font-family="FreeSans" font-size="10.00">Mezzanine::UI::Glyph</text>
</a>
</g>
<!-- Node1&#45;&gt;Node8 -->
<g id="edge26" class="edge"><title>Node1&#45;&gt;Node8</title>
<path fill="none" stroke="#9a32cd" stroke-dasharray="5,2" d="M492.665,-177.455C503.095,-182.01 514.261,-187.47 524,-193.51 532.85,-198.998 533.037,-203.209 542,-208.51 636.397,-264.342 767.476,-276.461 839.784,-278.604"/>
<polygon fill="#9a32cd" stroke="#9a32cd" points="493.929,-174.19 483.354,-173.535 491.213,-180.641 493.929,-174.19"/>
<text text-anchor="middle" x="679" y="-273.51" font-family="FreeSans" font-size="10.00"> Atlas</text>
</g>
<!-- Node12 -->
<g id="node27" class="node"><title>Node12</title>
<a xlink:href="classMezzanine_1_1UI_1_1Sprite.html" target="_top" xlink:title="Basic class used to describe a portion of a texture to be applied to a Quad. ">
<polygon fill="white" stroke="black" points="625.5,-16.51 625.5,-36.51 732.5,-36.51 732.5,-16.51 625.5,-16.51"/>
<text text-anchor="middle" x="679" y="-23.51" font-family="FreeSans" font-size="10.00">Mezzanine::UI::Sprite</text>
</a>
</g>
<!-- Node1&#45;&gt;Node12 -->
<g id="edge36" class="edge"><title>Node1&#45;&gt;Node12</title>
<path fill="none" stroke="#9a32cd" stroke-dasharray="5,2" d="M475.898,-146.767C492.751,-133.131 517.942,-113.998 542,-100.51 565.47,-87.3521 574.082,-89.8348 598,-77.51 622.226,-65.0264 648.655,-47.607 664.522,-36.6991"/>
<polygon fill="#9a32cd" stroke="#9a32cd" points="473.403,-144.286 467.896,-153.337 477.845,-149.697 473.403,-144.286"/>
<text text-anchor="middle" x="570" y="-103.51" font-family="FreeSans" font-size="10.00"> Atlas</text>
</g>
<!-- Node2 -->
<g id="node2" class="node"><title>Node2</title>
<a xlink:href="classMezzanine_1_1Vector2.html" target="_top" xlink:title="This is used to represent a point on a 2 dimentional area, such as a screen. ">
<polygon fill="white" stroke="black" points="148,-293.51 148,-313.51 248,-313.51 248,-293.51 148,-293.51"/>
<text text-anchor="middle" x="198" y="-300.51" font-family="FreeSans" font-size="10.00">Mezzanine::Vector2</text>
</a>
</g>
<!-- Node2&#45;&gt;Node1 -->
<g id="edge2" class="edge"><title>Node2&#45;&gt;Node1</title>
<path fill="none" stroke="#9a32cd" stroke-dasharray="5,2" d="M239.697,-290.225C284.119,-275.404 350.662,-251.072 370,-232.51 383.772,-219.29 374.387,-206.894 388,-193.51 397.017,-184.644 409.095,-178.17 420.57,-173.556"/>
<polygon fill="#9a32cd" stroke="#9a32cd" points="238.425,-286.959 230.027,-293.418 240.62,-293.606 238.425,-286.959"/>
<text text-anchor="middle" x="327" y="-288.51" font-family="FreeSans" font-size="10.00"> InverseTextureSize</text>
<text text-anchor="middle" x="327" y="-276.51" font-family="FreeSans" font-size="10.00">WhitePixel</text>
</g>
<!-- Node2&#45;&gt;Node8 -->
<g id="edge18" class="edge"><title>Node2&#45;&gt;Node8</title>
<path fill="none" stroke="#9a32cd" stroke-dasharray="5,2" d="M258.442,-303.046C291.417,-302.732 332.955,-302.24 370,-301.51 562.037,-297.727 610.452,-303.717 802,-289.51 814.22,-288.604 827.322,-287.247 839.669,-285.794"/>
<polygon fill="#9a32cd" stroke="#9a32cd" points="258.021,-299.549 248.054,-303.141 258.086,-306.549 258.021,-299.549"/>
<text text-anchor="middle" x="570" y="-302.51" font-family="FreeSans" font-size="10.00"> AtlasCoords</text>
</g>
<!-- Node3 -->
<g id="node4" class="node"><title>Node3</title>
<polygon fill="white" stroke="#bfbfbf" points="820,-148.51 820,-168.51 966,-168.51 966,-148.51 820,-148.51"/>
<text text-anchor="middle" x="893" y="-155.51" font-family="FreeSans" font-size="10.00">std::map&lt; String, FontData * &gt;</text>
</g>
<!-- Node3&#45;&gt;Node1 -->
<g id="edge4" class="edge"><title>Node3&#45;&gt;Node1</title>
<path fill="none" stroke="#9a32cd" stroke-dasharray="5,2" d="M809.779,-159.462C726.798,-160.412 600.898,-161.852 523.802,-162.734"/>
<polygon fill="#9a32cd" stroke="#9a32cd" points="809.973,-162.96 819.932,-159.346 809.893,-155.961 809.973,-162.96"/>
<text text-anchor="middle" x="679" y="-165.51" font-family="FreeSans" font-size="10.00"> Fonts</text>
</g>
<!-- Node4&#45;&gt;Node3 -->
<g id="edge6" class="edge"><title>Node4&#45;&gt;Node3</title>
<path fill="none" stroke="#9a32cd" stroke-dasharray="5,2" d="M718.559,-205.285C731.694,-201.035 746.429,-196.419 760,-192.51 790.345,-183.77 824.907,-174.969 851.192,-168.512"/>
<polygon fill="#9a32cd" stroke="#9a32cd" points="717.293,-202.017 708.872,-208.446 719.465,-208.671 717.293,-202.017"/>
<text text-anchor="middle" x="781" y="-195.51" font-family="FreeSans" font-size="10.00"> elements</text>
</g>
<!-- Node4&#45;&gt;Node8 -->
<g id="edge20" class="edge"><title>Node4&#45;&gt;Node8</title>
<path fill="none" stroke="#9a32cd" stroke-dasharray="5,2" d="M725.478,-231.256C748.51,-237.598 776.732,-245.408 802,-252.51 820.507,-257.712 841.105,-263.589 858.018,-268.439"/>
<polygon fill="#9a32cd" stroke="#9a32cd" points="726.191,-227.822 715.621,-228.544 724.334,-234.572 726.191,-227.822"/>
<text text-anchor="middle" x="781" y="-255.51" font-family="FreeSans" font-size="10.00"> Font</text>
</g>
<!-- Node5 -->
<g id="node8" class="node"><title>Node5</title>
<a xlink:title="STL class. ">
<polygon fill="white" stroke="#bfbfbf" points="169.5,-55.51 169.5,-75.51 226.5,-75.51 226.5,-55.51 169.5,-55.51"/>
<text text-anchor="middle" x="198" y="-62.51" font-family="FreeSans" font-size="10.00">std::string</text>
</a>
</g>
<!-- Node5&#45;&gt;Node1 -->
<g id="edge40" class="edge"><title>Node5&#45;&gt;Node1</title>
<path fill="none" stroke="#9a32cd" stroke-dasharray="5,2" d="M234.236,-79.2742C286.817,-99.2466 383.043,-135.798 429.506,-153.446"/>
<polygon fill="#9a32cd" stroke="#9a32cd" points="235.23,-75.9077 224.639,-75.6287 232.744,-82.4515 235.23,-75.9077"/>
<text text-anchor="middle" x="327" y="-132.51" font-family="FreeSans" font-size="10.00"> AtlasName</text>
</g>
<!-- Node5&#45;&gt;Node3 -->
<g id="edge28" class="edge"><title>Node5&#45;&gt;Node3</title>
<path fill="none" stroke="#9a32cd" stroke-dasharray="5,2" d="M236.676,-63.7263C344.658,-59.1735 647.638,-49.431 742,-78.51 795.584,-95.0228 852.352,-130.758 878.396,-148.332"/>
<polygon fill="#9a32cd" stroke="#9a32cd" points="236.392,-60.2352 226.552,-64.1623 236.693,-67.2287 236.392,-60.2352"/>
<text text-anchor="middle" x="570" y="-64.51" font-family="FreeSans" font-size="10.00"> keys</text>
</g>
<!-- Node5&#45;&gt;Node4 -->
<g id="edge8" class="edge"><title>Node5&#45;&gt;Node4</title>
<path fill="none" stroke="#9a32cd" stroke-dasharray="5,2" d="M213.491,-83.7329C229.54,-101.616 256.136,-128.597 284,-145.51 389.072,-209.287 536.695,-219.848 618.474,-220.239"/>
<polygon fill="#9a32cd" stroke="#9a32cd" points="215.728,-80.9756 206.501,-75.7689 210.467,-85.5933 215.728,-80.9756"/>
<text text-anchor="middle" x="456" y="-218.51" font-family="FreeSans" font-size="10.00"> FontName</text>
</g>
<!-- Node11 -->
<g id="node25" class="node"><title>Node11</title>
<polygon fill="white" stroke="#bfbfbf" points="827.5,-16.51 827.5,-36.51 958.5,-36.51 958.5,-16.51 827.5,-16.51"/>
<text text-anchor="middle" x="893" y="-23.51" font-family="FreeSans" font-size="10.00">std::map&lt; String, Sprite * &gt;</text>
</g>
<!-- Node5&#45;&gt;Node11 -->
<g id="edge38" class="edge"><title>Node5&#45;&gt;Node11</title>
<path fill="none" stroke="#9a32cd" stroke-dasharray="5,2" d="M233.538,-51.9754C248.854,-46.6582 267.097,-41.0026 284,-37.51 483.772,3.76769 538.408,5.24844 742,-7.51005 770.216,-9.27827 801.225,-12.8876 827.762,-16.4901"/>
<polygon fill="#9a32cd" stroke="#9a32cd" points="232.185,-48.7418 223.94,-55.3945 234.534,-55.3359 232.185,-48.7418"/>
<text text-anchor="middle" x="570" y="-4.51005" font-family="FreeSans" font-size="10.00"> keys</text>
</g>
<!-- Node5&#45;&gt;Node12 -->
<g id="edge34" class="edge"><title>Node5&#45;&gt;Node12</title>
<path fill="none" stroke="#9a32cd" stroke-dasharray="5,2" d="M236.9,-58.7842C251.632,-56.3407 268.567,-53.6553 284,-51.51 330.086,-45.1036 341.619,-43.2173 388,-39.51 470.673,-32.902 566.848,-29.4253 625.296,-27.7799"/>
<polygon fill="#9a32cd" stroke="#9a32cd" points="235.899,-55.4031 226.616,-60.5095 237.058,-62.3066 235.899,-55.4031"/>
<text text-anchor="middle" x="456" y="-42.51" font-family="FreeSans" font-size="10.00"> Name</text>
</g>
<!-- Node6 -->
<g id="node10" class="node"><title>Node6</title>
<a xlink:title="STL class. ">
<polygon fill="white" stroke="#bfbfbf" points="0.5,-49.51 0.5,-81.51 91.5,-81.51 91.5,-49.51 0.5,-49.51"/>
<text text-anchor="start" x="8.5" y="-68.51" font-family="FreeSans" font-size="10.00">std::basic_string&lt;</text>
<text text-anchor="middle" x="46" y="-56.51" font-family="FreeSans" font-size="10.00"> char &gt;</text>
</a>
</g>
<!-- Node6&#45;&gt;Node5 -->
<g id="edge10" class="edge"><title>Node6&#45;&gt;Node5</title>
<path fill="none" stroke="midnightblue" d="M101.889,-65.51C124.743,-65.51 150.212,-65.51 169.187,-65.51"/>
<polygon fill="midnightblue" stroke="midnightblue" points="101.605,-62.0101 91.605,-65.51 101.605,-69.0101 101.605,-62.0101"/>
</g>
<!-- Node7 -->
<g id="node13" class="node"><title>Node7</title>
<polygon fill="white" stroke="#bfbfbf" points="1044,-231.51 1044,-251.51 1178,-251.51 1178,-231.51 1044,-231.51"/>
<text text-anchor="middle" x="1111" y="-238.51" font-family="FreeSans" font-size="10.00">std::map&lt; UInt32, Glyph * &gt;</text>
</g>
<!-- Node7&#45;&gt;Node4 -->
<g id="edge14" class="edge"><title>Node7&#45;&gt;Node4</title>
<path fill="none" stroke="#9a32cd" stroke-dasharray="5,2" d="M1033.77,-237.398C949.543,-232.914 816.506,-225.831 739.523,-221.732"/>
<polygon fill="#9a32cd" stroke="#9a32cd" points="1033.62,-240.895 1043.79,-237.932 1033.99,-233.905 1033.62,-240.895"/>
<text text-anchor="middle" x="893" y="-237.51" font-family="FreeSans" font-size="10.00"> Glyphs</text>
</g>
<!-- Node8&#45;&gt;Node7 -->
<g id="edge16" class="edge"><title>Node8&#45;&gt;Node7</title>
<path fill="none" stroke="#9a32cd" stroke-dasharray="5,2" d="M956.06,-267.807C986.279,-262.678 1022.26,-256.571 1051.94,-251.533"/>
<polygon fill="#9a32cd" stroke="#9a32cd" points="955.323,-264.382 946.05,-269.506 956.495,-271.283 955.323,-264.382"/>
<text text-anchor="middle" x="1005" y="-265.51" font-family="FreeSans" font-size="10.00"> elements</text>
</g>
<!-- Node9 -->
<g id="node19" class="node"><title>Node9</title>
<polygon fill="white" stroke="#bfbfbf" points="616,-346.51 616,-366.51 742,-366.51 742,-346.51 616,-346.51"/>
<text text-anchor="middle" x="679" y="-353.51" font-family="FreeSans" font-size="10.00">std::vector&lt; KerningInfo &gt;</text>
</g>
<!-- Node9&#45;&gt;Node8 -->
<g id="edge22" class="edge"><title>Node9&#45;&gt;Node8</title>
<path fill="none" stroke="#9a32cd" stroke-dasharray="5,2" d="M752.303,-345.697C768.938,-342.126 786.317,-337.484 802,-331.51 831.045,-320.446 861.644,-300.705 878.924,-288.689"/>
<polygon fill="#9a32cd" stroke="#9a32cd" points="751.162,-342.358 742.063,-347.785 752.561,-349.217 751.162,-342.358"/>
<text text-anchor="middle" x="781" y="-345.51" font-family="FreeSans" font-size="10.00"> Kernings</text>
</g>
<!-- Node10 -->
<g id="node21" class="node"><title>Node10</title>
<a xlink:href="structMezzanine_1_1UI_1_1KerningInfo.html" target="_top" xlink:title="Basic class used to describe Kerning for a given Glyph. ">
<polygon fill="white" stroke="black" points="390.5,-346.51 390.5,-366.51 521.5,-366.51 521.5,-346.51 390.5,-346.51"/>
<text text-anchor="middle" x="456" y="-353.51" font-family="FreeSans" font-size="10.00">Mezzanine::UI::KerningInfo</text>
</a>
</g>
<!-- Node10&#45;&gt;Node9 -->
<g id="edge24" class="edge"><title>Node10&#45;&gt;Node9</title>
<path fill="none" stroke="#9a32cd" stroke-dasharray="5,2" d="M531.973,-356.51C559.219,-356.51 589.626,-356.51 615.684,-356.51"/>
<polygon fill="#9a32cd" stroke="#9a32cd" points="531.701,-353.01 521.701,-356.51 531.701,-360.01 531.701,-353.01"/>
<text text-anchor="middle" x="570" y="-359.51" font-family="FreeSans" font-size="10.00"> elements</text>
</g>
<!-- Node11&#45;&gt;Node1 -->
<g id="edge30" class="edge"><title>Node11&#45;&gt;Node1</title>
<path fill="none" stroke="#9a32cd" stroke-dasharray="5,2" d="M851.028,-39.6684C764.07,-66.9297 565.87,-129.066 488.134,-153.436"/>
<polygon fill="#9a32cd" stroke="#9a32cd" points="852.324,-42.93 860.819,-36.5988 850.23,-36.2505 852.324,-42.93"/>
<text text-anchor="middle" x="679" y="-116.51" font-family="FreeSans" font-size="10.00"> Sprites</text>
</g>
<!-- Node12&#45;&gt;Node11 -->
<g id="edge32" class="edge"><title>Node12&#45;&gt;Node11</title>
<path fill="none" stroke="#9a32cd" stroke-dasharray="5,2" d="M742.734,-26.51C769.447,-26.51 800.488,-26.51 827.398,-26.51"/>
<polygon fill="#9a32cd" stroke="#9a32cd" points="742.725,-23.0101 732.725,-26.51 742.725,-30.0101 742.725,-23.0101"/>
<text text-anchor="middle" x="781" y="-29.51" font-family="FreeSans" font-size="10.00"> elements</text>
</g>
<!-- Node13 -->
<g id="node33" class="node"><title>Node13</title>
<a xlink:href="structMezzanine_1_1UI_1_1TextureAtlasInternalData.html" target="_top" xlink:title="Mezzanine::UI::TextureAtlas\lInternalData">
<polygon fill="white" stroke="black" points="130.5,-228.51 130.5,-260.51 265.5,-260.51 265.5,-228.51 130.5,-228.51"/>
<text text-anchor="start" x="138.5" y="-247.51" font-family="FreeSans" font-size="10.00">Mezzanine::UI::TextureAtlas</text>
<text text-anchor="middle" x="198" y="-235.51" font-family="FreeSans" font-size="10.00">InternalData</text>
</a>
</g>
<!-- Node13&#45;&gt;Node1 -->
<g id="edge42" class="edge"><title>Node13&#45;&gt;Node1</title>
<path fill="none" stroke="#9a32cd" stroke-dasharray="5,2" d="M258.699,-225.453C310.404,-209.22 382.681,-186.529 423.874,-173.596"/>
<polygon fill="#9a32cd" stroke="#9a32cd" points="257.465,-222.172 248.972,-228.507 259.562,-228.851 257.465,-222.172"/>
<text text-anchor="middle" x="327" y="-219.51" font-family="FreeSans" font-size="10.00"> TAID</text>
</g>
</g>
</svg>
