<?xml version="1.0" encoding="UTF-8" standalone="no"?>
<!DOCTYPE svg PUBLIC "-//W3C//DTD SVG 1.1//EN"
 "http://www.w3.org/Graphics/SVG/1.1/DTD/svg11.dtd">
<!-- Generated by graphviz version 2.26.3 (20100126.1600)
 -->
<!-- Title: Mezzanine::Physics::ConeTwistConstraint Pages: 1 -->
<svg width="118pt" height="112pt"
 viewBox="0.00 0.00 118.00 112.00" xmlns="http://www.w3.org/2000/svg" xmlns:xlink="http://www.w3.org/1999/xlink">
<g id="graph1" class="graph" transform="scale(1 1) rotate(0) translate(4 108)">
<title>Mezzanine::Physics::ConeTwistConstraint</title>
<polygon fill="white" stroke="white" points="-4,5 -4,-108 115,-108 115,5 -4,5"/>
<!-- Node1 -->
<g id="node1" class="node"><title>Node1</title>
<polygon fill="#bfbfbf" stroke="black" points="0,-1 0,-33 110,-33 110,-1 0,-1"/>
<text text-anchor="start" x="8" y="-20" font-family="FreeSans" font-size="10.00">Mezzanine::Physics</text>
<text text-anchor="middle" x="55" y="-8" font-family="FreeSans" font-size="10.00">::ConeTwistConstraint</text>
</g>
<!-- Node2 -->
<g id="node2" class="node"><title>Node2</title>
<a xlink:href="classMezzanine_1_1Physics_1_1Constraint.html" target="_top" xlink:title="This is the base class for all constraints supported. ">
<polygon fill="white" stroke="black" points="5,-71 5,-103 105,-103 105,-71 5,-71"/>
<text text-anchor="start" x="13" y="-90" font-family="FreeSans" font-size="10.00">Mezzanine::Physics</text>
<text text-anchor="middle" x="55" y="-78" font-family="FreeSans" font-size="10.00">::Constraint</text>
</a>
</g>
<!-- Node2&#45;&gt;Node1 -->
<g id="edge2" class="edge"><title>Node2&#45;&gt;Node1</title>
<path fill="none" stroke="midnightblue" d="M55,-60.5079C55,-51.3027 55,-41.2615 55,-33.1473"/>
<polygon fill="midnightblue" stroke="midnightblue" points="51.5001,-60.7646 55,-70.7646 58.5001,-60.7647 51.5001,-60.7646"/>
</g>
</g>
</svg>
