<?xml version="1.0" encoding="UTF-8" standalone="no"?>
<!DOCTYPE svg PUBLIC "-//W3C//DTD SVG 1.1//EN"
 "http://www.w3.org/Graphics/SVG/1.1/DTD/svg11.dtd">
<!-- Generated by graphviz version 2.26.3 (20100126.1600)
 -->
<!-- Title: Mezzanine::Physics::Generic6DofSpringConstraint Pages: 1 -->
<svg width="154pt" height="322pt"
 viewBox="0.00 0.00 154.00 322.00" xmlns="http://www.w3.org/2000/svg" xmlns:xlink="http://www.w3.org/1999/xlink">
<g id="graph1" class="graph" transform="scale(1 1) rotate(0) translate(4 318)">
<title>Mezzanine::Physics::Generic6DofSpringConstraint</title>
<!-- Node1 -->
<g id="node1" class="node"><title>Node1</title>
<polygon fill="#bfbfbf" stroke="black" points="0,-71 0,-103 146,-103 146,-71 0,-71"/>
<text text-anchor="start" x="8" y="-90" font-family="FreeSans" font-size="10.00">Mezzanine::Physics</text>
<text text-anchor="middle" x="73" y="-78" font-family="FreeSans" font-size="10.00">::Generic6DofSpringConstraint</text>
</g>
<!-- Node5 -->
<g id="node9" class="node"><title>Node5</title>
<a xlink:href="classMezzanine_1_1Physics_1_1Hinge2Constraint.xhtml" target="_top" xlink:title="Mezzanine::Physics\l::Hinge2Constraint">
<polygon fill="none" stroke="black" points="23,-1 23,-33 123,-33 123,-1 23,-1"/>
<text text-anchor="start" x="31" y="-20" font-family="FreeSans" font-size="10.00">Mezzanine::Physics</text>
<text text-anchor="middle" x="73" y="-8" font-family="FreeSans" font-size="10.00">::Hinge2Constraint</text>
</a>
</g>
<!-- Node1&#45;&gt;Node5 -->
<g id="edge8" class="edge"><title>Node1&#45;&gt;Node5</title>
<path fill="none" stroke="midnightblue" d="M73,-60.5079C73,-51.3027 73,-41.2615 73,-33.1473"/>
<polygon fill="midnightblue" stroke="midnightblue" points="69.5001,-60.7646 73,-70.7646 76.5001,-60.7647 69.5001,-60.7646"/>
</g>
<!-- Node2 -->
<g id="node2" class="node"><title>Node2</title>
<a xlink:href="classMezzanine_1_1Physics_1_1Generic6DofConstraint.xhtml" target="_top" xlink:title="Create simple but specific limits on any axis of movement or rotation.">
<polygon fill="none" stroke="black" points="13.5,-141 13.5,-173 132.5,-173 132.5,-141 13.5,-141"/>
<text text-anchor="start" x="21.5" y="-160" font-family="FreeSans" font-size="10.00">Mezzanine::Physics</text>
<text text-anchor="middle" x="73" y="-148" font-family="FreeSans" font-size="10.00">::Generic6DofConstraint</text>
</a>
</g>
<!-- Node2&#45;&gt;Node1 -->
<g id="edge2" class="edge"><title>Node2&#45;&gt;Node1</title>
<path fill="none" stroke="midnightblue" d="M73,-130.508C73,-121.303 73,-111.262 73,-103.147"/>
<polygon fill="midnightblue" stroke="midnightblue" points="69.5001,-130.765 73,-140.765 76.5001,-130.765 69.5001,-130.765"/>
</g>
<!-- Node3 -->
<g id="node4" class="node"><title>Node3</title>
<a xlink:href="classMezzanine_1_1Physics_1_1DualTransformConstraint.xhtml" target="_top" xlink:title="All constraints that track rotation and location of the Pivot relative to each Actor inherit from thi...">
<polygon fill="none" stroke="black" points="9,-211 9,-243 137,-243 137,-211 9,-211"/>
<text text-anchor="start" x="17" y="-230" font-family="FreeSans" font-size="10.00">Mezzanine::Physics</text>
<text text-anchor="middle" x="73" y="-218" font-family="FreeSans" font-size="10.00">::DualTransformConstraint</text>
</a>
</g>
<!-- Node3&#45;&gt;Node2 -->
<g id="edge4" class="edge"><title>Node3&#45;&gt;Node2</title>
<path fill="none" stroke="midnightblue" d="M73,-200.508C73,-191.303 73,-181.262 73,-173.147"/>
<polygon fill="midnightblue" stroke="midnightblue" points="69.5001,-200.765 73,-210.765 76.5001,-200.765 69.5001,-200.765"/>
</g>
<!-- Node4 -->
<g id="node6" class="node"><title>Node4</title>
<a xlink:href="classMezzanine_1_1Physics_1_1Constraint.xhtml" target="_top" xlink:title="This is the base class for all constraints supported.">
<polygon fill="none" stroke="black" points="23,-281 23,-313 123,-313 123,-281 23,-281"/>
<text text-anchor="start" x="31" y="-300" font-family="FreeSans" font-size="10.00">Mezzanine::Physics</text>
<text text-anchor="middle" x="73" y="-288" font-family="FreeSans" font-size="10.00">::Constraint</text>
</a>
</g>
<!-- Node4&#45;&gt;Node3 -->
<g id="edge6" class="edge"><title>Node4&#45;&gt;Node3</title>
<path fill="none" stroke="midnightblue" d="M73,-270.508C73,-261.303 73,-251.262 73,-243.147"/>
<polygon fill="midnightblue" stroke="midnightblue" points="69.5001,-270.765 73,-280.765 76.5001,-270.765 69.5001,-270.765"/>
</g>
</g>
</svg>
