<?xml version="1.0" encoding="UTF-8" standalone="no"?>
<!DOCTYPE svg PUBLIC "-//W3C//DTD SVG 1.1//EN"
 "http://www.w3.org/Graphics/SVG/1.1/DTD/svg11.dtd">
<!-- Generated by graphviz version 2.26.3 (20100126.1600)
 -->
<!-- Title: Mezzanine::Audio::iListener Pages: 1 -->
<!--zoomable 630 -->
<svg id="main" version="1.1" xmlns="http://www.w3.org/2000/svg" xmlns:xlink="http://www.w3.org/1999/xlink" xml:space="preserve" onload="init(evt)">
        <defs>
                <circle id="rim" cx="0" cy="0" r="7"/>
                <circle id="rim2" cx="0" cy="0" r="3.5"/>
                <g id="zoomPlus">
                        <use xlink:href="#rim" fill="#404040">
                                <set attributeName="fill" to="#808080" begin="zoomplus.mouseover" end="zoomplus.mouseout"/>
                        </use>
                        <path d="M-4,0h8M0,-4v8" fill="none" stroke="white" stroke-width="1.5" pointer-events="none"/>
                </g>
                <g id="zoomMin">
                        <use xlink:href="#rim" fill="#404040">
                                <set attributeName="fill" to="#808080" begin="zoomminus.mouseover" end="zoomminus.mouseout"/>
                        </use>
                        <path d="M-4,0h8" fill="none" stroke="white" stroke-width="1.5" pointer-events="none"/>
                </g>
                <g id="dirArrow">
                        <path fill="none" stroke="white" stroke-width="1.5" d="M0,-3.0v7 M-2.5,-0.5L0,-3.0L2.5,-0.5"/>
                </g>
               <g id="resetDef">
                       <use xlink:href="#rim2" fill="#404040">
                               <set attributeName="fill" to="#808080" begin="reset.mouseover" end="reset.mouseout"/>
                       </use>
               </g>
        </defs>

<script type="text/javascript">
var viewWidth = 1178;
var viewHeight = 630;
var sectionId = 'dynsection-1';
</script>
<script xlink:href="svgpan.js"/>
<svg id="graph" class="graph">
<g id="viewport">
<title>Mezzanine::Audio::iListener</title>
<!-- Node1 -->
<g id="node1" class="node"><title>Node1</title>
<polygon fill="#bfbfbf" stroke="black" points="1038,-515 1038,-535 1170,-535 1170,-515 1038,-515"/>
<text text-anchor="middle" x="1104" y="-522" font-family="FreeSans" font-size="10.00">Mezzanine::Audio::iListener</text>
</g>
<!-- Node2 -->
<g id="node2" class="node"><title>Node2</title>
<a xlink:href="classMezzanine_1_1WorldProxy.xhtml" target="_top" xlink:title="This is the base class for proxy objects belonging to the various 3D subsystems.">
<polygon fill="none" stroke="black" points="843,-515 843,-535 959,-535 959,-515 843,-515"/>
<text text-anchor="middle" x="901" y="-522" font-family="FreeSans" font-size="10.00">Mezzanine::WorldProxy</text>
</a>
</g>
<!-- Node2&#45;&gt;Node1 -->
<g id="edge2" class="edge"><title>Node2&#45;&gt;Node1</title>
<path fill="none" stroke="midnightblue" d="M969.178,-525C991.362,-525 1015.93,-525 1037.96,-525"/>
<polygon fill="midnightblue" stroke="midnightblue" points="969.172,-521.5 959.172,-525 969.172,-528.5 969.172,-521.5"/>
</g>
<!-- Node3 -->
<g id="node4" class="node"><title>Node3</title>
<a xlink:href="classMezzanine_1_1TransformableObject.xhtml" target="_top" xlink:title="This is an interface for all 3D objects that can have their full transforms manipulated.">
<polygon fill="none" stroke="black" points="555,-590 555,-622 683,-622 683,-590 555,-590"/>
<text text-anchor="start" x="563" y="-609" font-family="FreeSans" font-size="10.00">Mezzanine::Transformable</text>
<text text-anchor="middle" x="619" y="-597" font-family="FreeSans" font-size="10.00">Object</text>
</a>
</g>
<!-- Node3&#45;&gt;Node2 -->
<g id="edge4" class="edge"><title>Node3&#45;&gt;Node2</title>
<path fill="none" stroke="midnightblue" d="M693.124,-599.528C727.477,-595.131 768.468,-587.87 804,-576 834.497,-565.812 867.002,-546.849 885.573,-535.137"/>
<polygon fill="midnightblue" stroke="midnightblue" points="692.657,-596.059 683.156,-600.748 693.507,-603.007 692.657,-596.059"/>
</g>
<!-- Node4 -->
<g id="node6" class="node"><title>Node4</title>
<a xlink:href="classMezzanine_1_1WorldObject.xhtml" target="_top" xlink:title="This is the base class from which classes that are insertable into the physical world.">
<polygon fill="none" stroke="black" points="559,-327 559,-347 679,-347 679,-327 559,-327"/>
<text text-anchor="middle" x="619" y="-334" font-family="FreeSans" font-size="10.00">Mezzanine::WorldObject</text>
</a>
</g>
<!-- Node4&#45;&gt;Node2 -->
<g id="edge6" class="edge"><title>Node4&#45;&gt;Node2</title>
<path fill="none" stroke="#9a32cd" stroke-dasharray="5,2" d="M641.421,-353.42C657.995,-366.787 679.732,-387.137 692,-410 711.081,-445.561 680.562,-471.395 710,-499 719.643,-508.042 790.138,-515.827 842.699,-520.462"/>
<polygon fill="#9a32cd" stroke="#9a32cd" points="643.341,-350.479 633.302,-347.09 639.037,-355.999 643.341,-350.479"/>
<text text-anchor="middle" x="757" y="-519" font-family="FreeSans" font-size="10.00"> ParentObject</text>
</g>
<!-- Node8 -->
<g id="node14" class="node"><title>Node8</title>
<a xlink:href="classMezzanine_1_1WorldObjectPhysicsSettings.xhtml" target="_top" xlink:title="This is a base helper class for configuring physics settings of a world object.">
<polygon fill="none" stroke="black" points="824.5,-353 824.5,-385 977.5,-385 977.5,-353 824.5,-353"/>
<text text-anchor="start" x="832.5" y="-372" font-family="FreeSans" font-size="10.00">Mezzanine::WorldObjectPhysics</text>
<text text-anchor="middle" x="901" y="-360" font-family="FreeSans" font-size="10.00">Settings</text>
</a>
</g>
<!-- Node4&#45;&gt;Node8 -->
<g id="edge16" class="edge"><title>Node4&#45;&gt;Node8</title>
<path fill="none" stroke="#9a32cd" stroke-dasharray="5,2" d="M689.34,-344.982C730.383,-349.639 782.197,-355.519 824.287,-360.295"/>
<polygon fill="#9a32cd" stroke="#9a32cd" points="689.481,-341.475 679.15,-343.826 688.692,-348.431 689.481,-341.475"/>
<text text-anchor="middle" x="757" y="-360" font-family="FreeSans" font-size="10.00"> Parent</text>
</g>
<!-- Node13 -->
<g id="node26" class="node"><title>Node13</title>
<a xlink:href="classMezzanine_1_1Physics_1_1Collision.xhtml" target="_top" xlink:title="This is an event class used to track collsions in the physics world.">
<polygon fill="none" stroke="black" points="851,-465 851,-497 951,-497 951,-465 851,-465"/>
<text text-anchor="start" x="859" y="-484" font-family="FreeSans" font-size="10.00">Mezzanine::Physics</text>
<text text-anchor="middle" x="901" y="-472" font-family="FreeSans" font-size="10.00">::Collision</text>
</a>
</g>
<!-- Node4&#45;&gt;Node13 -->
<g id="edge32" class="edge"><title>Node4&#45;&gt;Node13</title>
<path fill="none" stroke="#9a32cd" stroke-dasharray="5,2" d="M652.287,-350.976C669.401,-357.955 690.673,-366.313 710,-373 751.196,-387.254 765.529,-380.501 804,-401 836.172,-418.143 867.648,-446.964 885.645,-464.931"/>
<polygon fill="#9a32cd" stroke="#9a32cd" points="653.317,-347.615 642.737,-347.049 650.655,-354.089 653.317,-347.615"/>
<text text-anchor="middle" x="757" y="-416" font-family="FreeSans" font-size="10.00"> ObjectA</text>
<text text-anchor="middle" x="757" y="-404" font-family="FreeSans" font-size="10.00">ObjectB</text>
</g>
<!-- Node16 -->
<g id="node33" class="node"><title>Node16</title>
<a xlink:href="classMezzanine_1_1WorldObjectGraphicsSettings.xhtml" target="_top" xlink:title="This is a helper class for configuring graphics settings of a World Object.">
<polygon fill="none" stroke="black" points="822,-206 822,-238 980,-238 980,-206 822,-206"/>
<text text-anchor="start" x="830" y="-225" font-family="FreeSans" font-size="10.00">Mezzanine::WorldObjectGraphics</text>
<text text-anchor="middle" x="901" y="-213" font-family="FreeSans" font-size="10.00">Settings</text>
</a>
</g>
<!-- Node4&#45;&gt;Node16 -->
<g id="edge38" class="edge"><title>Node4&#45;&gt;Node16</title>
<path fill="none" stroke="#9a32cd" stroke-dasharray="5,2" d="M629.956,-317.973C644.746,-294.316 673.5,-254.877 710,-237 729.416,-227.49 778.367,-223.771 821.849,-222.413"/>
<polygon fill="#9a32cd" stroke="#9a32cd" points="626.827,-316.385 624.655,-326.755 632.82,-320.002 626.827,-316.385"/>
<text text-anchor="middle" x="757" y="-240" font-family="FreeSans" font-size="10.00"> Parent</text>
</g>
<!-- Node5 -->
<g id="node8" class="node"><title>Node5</title>
<a xlink:href="classMezzanine_1_1Audio_1_1SoundSet.xhtml" target="_top" xlink:title="This is a vector that stores sounds.">
<polygon fill="none" stroke="black" points="306.5,-327 306.5,-347 445.5,-347 445.5,-327 306.5,-327"/>
<text text-anchor="middle" x="376" y="-334" font-family="FreeSans" font-size="10.00">Mezzanine::Audio::SoundSet</text>
</a>
</g>
<!-- Node5&#45;&gt;Node4 -->
<g id="edge8" class="edge"><title>Node5&#45;&gt;Node4</title>
<path fill="none" stroke="#9a32cd" stroke-dasharray="5,2" d="M455.874,-337C489.408,-337 527.756,-337 558.841,-337"/>
<polygon fill="#9a32cd" stroke="#9a32cd" points="455.634,-333.5 445.634,-337 455.634,-340.5 455.634,-333.5"/>
<text text-anchor="middle" x="496" y="-340" font-family="FreeSans" font-size="10.00"> ObjectSounds</text>
</g>
<!-- Node6 -->
<g id="node10" class="node"><title>Node6</title>
<a xlink:title="STL class.">
<polygon fill="none" stroke="#bfbfbf" points="111.5,-327 111.5,-347 224.5,-347 224.5,-327 111.5,-327"/>
<text text-anchor="middle" x="168" y="-334" font-family="FreeSans" font-size="10.00">std::vector&lt; iSound * &gt;</text>
</a>
</g>
<!-- Node6&#45;&gt;Node5 -->
<g id="edge10" class="edge"><title>Node6&#45;&gt;Node5</title>
<path fill="none" stroke="midnightblue" d="M234.86,-337C257.738,-337 283.376,-337 306.46,-337"/>
<polygon fill="midnightblue" stroke="midnightblue" points="234.562,-333.5 224.562,-337 234.562,-340.5 234.562,-333.5"/>
</g>
<!-- Node7 -->
<g id="node12" class="node"><title>Node7</title>
<polygon fill="none" stroke="#bfbfbf" points="0.5,-327 0.5,-347 29.5,-347 29.5,-327 0.5,-327"/>
<text text-anchor="middle" x="15" y="-334" font-family="FreeSans" font-size="10.00">T</text>
</g>
<!-- Node7&#45;&gt;Node6 -->
<g id="edge12" class="edge"><title>Node7&#45;&gt;Node6</title>
<path fill="none" stroke="#9a32cd" stroke-dasharray="5,2" d="M39.7538,-337C59.1015,-337 86.762,-337 111.444,-337"/>
<polygon fill="#9a32cd" stroke="#9a32cd" points="39.6703,-333.5 29.6703,-337 39.6702,-340.5 39.6703,-333.5"/>
<text text-anchor="middle" x="69" y="-340" font-family="FreeSans" font-size="10.00"> elements</text>
</g>
<!-- Node8&#45;&gt;Node4 -->
<g id="edge14" class="edge"><title>Node8&#45;&gt;Node4</title>
<path fill="none" stroke="#9a32cd" stroke-dasharray="5,2" d="M854.92,-349.286C839.082,-343.476 821.045,-337.901 804,-335 762.836,-327.995 715.773,-328.62 679.416,-330.932"/>
<polygon fill="#9a32cd" stroke="#9a32cd" points="853.876,-352.634 864.468,-352.912 856.362,-346.09 853.876,-352.634"/>
<text text-anchor="middle" x="757" y="-338" font-family="FreeSans" font-size="10.00"> PhysicsSettings</text>
</g>
<!-- Node9 -->
<g id="node17" class="node"><title>Node9</title>
<a xlink:href="classMezzanine_1_1Physics_1_1CollisionShape.xhtml" target="_top" xlink:title="This is the base class for all collision shapes.">
<polygon fill="none" stroke="black" points="569,-419 569,-451 669,-451 669,-419 569,-419"/>
<text text-anchor="start" x="577" y="-438" font-family="FreeSans" font-size="10.00">Mezzanine::Physics</text>
<text text-anchor="middle" x="619" y="-426" font-family="FreeSans" font-size="10.00">::CollisionShape</text>
</a>
</g>
<!-- Node9&#45;&gt;Node8 -->
<g id="edge18" class="edge"><title>Node9&#45;&gt;Node8</title>
<path fill="none" stroke="#9a32cd" stroke-dasharray="5,2" d="M679.282,-440.801C716.079,-442.455 763.648,-441.182 804,-429 833.572,-420.073 863.123,-399.745 881.697,-385.227"/>
<polygon fill="#9a32cd" stroke="#9a32cd" points="679.376,-437.301 669.204,-440.263 679.003,-444.291 679.376,-437.301"/>
<text text-anchor="middle" x="757" y="-444" font-family="FreeSans" font-size="10.00"> WorldObjectShape</text>
</g>
<!-- Node10 -->
<g id="node19" class="node"><title>Node10</title>
<a xlink:title="STL class.">
<polygon fill="none" stroke="#bfbfbf" points="347.5,-384 347.5,-404 404.5,-404 404.5,-384 347.5,-384"/>
<text text-anchor="middle" x="376" y="-391" font-family="FreeSans" font-size="10.00">std::string</text>
</a>
</g>
<!-- Node10&#45;&gt;Node4 -->
<g id="edge24" class="edge"><title>Node10&#45;&gt;Node4</title>
<path fill="none" stroke="#9a32cd" stroke-dasharray="5,2" d="M414.6,-384.946C458.686,-374.604 530.61,-357.734 576.329,-347.009"/>
<polygon fill="#9a32cd" stroke="#9a32cd" points="413.766,-381.546 404.83,-387.238 415.365,-388.361 413.766,-381.546"/>
<text text-anchor="middle" x="496" y="-375" font-family="FreeSans" font-size="10.00"> Name</text>
</g>
<!-- Node10&#45;&gt;Node9 -->
<g id="edge20" class="edge"><title>Node10&#45;&gt;Node9</title>
<path fill="none" stroke="#9a32cd" stroke-dasharray="5,2" d="M414.875,-400.559C456.589,-407.597 522.994,-418.801 568.671,-426.508"/>
<polygon fill="#9a32cd" stroke="#9a32cd" points="415.272,-397.077 404.83,-398.864 414.108,-403.979 415.272,-397.077"/>
<text text-anchor="middle" x="496" y="-422" font-family="FreeSans" font-size="10.00"> Name</text>
</g>
<!-- Node11 -->
<g id="node21" class="node"><title>Node11</title>
<a xlink:title="STL class.">
<polygon fill="none" stroke="#bfbfbf" points="122.5,-378 122.5,-410 213.5,-410 213.5,-378 122.5,-378"/>
<text text-anchor="start" x="130.5" y="-397" font-family="FreeSans" font-size="10.00">std::basic_string&lt;</text>
<text text-anchor="middle" x="168" y="-385" font-family="FreeSans" font-size="10.00"> char &gt;</text>
</a>
</g>
<!-- Node11&#45;&gt;Node10 -->
<g id="edge22" class="edge"><title>Node11&#45;&gt;Node10</title>
<path fill="none" stroke="midnightblue" d="M223.762,-394C263.637,-394 315.665,-394 347.413,-394"/>
<polygon fill="midnightblue" stroke="midnightblue" points="223.647,-390.5 213.646,-394 223.646,-397.5 223.647,-390.5"/>
</g>
<!-- Node12 -->
<g id="node24" class="node"><title>Node12</title>
<polygon fill="none" stroke="#bfbfbf" points="1058,-375 1058,-407 1150,-407 1150,-375 1058,-375"/>
<text text-anchor="start" x="1066" y="-394" font-family="FreeSans" font-size="10.00">std::set&lt; Physics::</text>
<text text-anchor="middle" x="1104" y="-382" font-family="FreeSans" font-size="10.00">Collision * &gt;</text>
</g>
<!-- Node12&#45;&gt;Node4 -->
<g id="edge26" class="edge"><title>Node12&#45;&gt;Node4</title>
<path fill="none" stroke="#9a32cd" stroke-dasharray="5,2" d="M1069.32,-369.809C1045.21,-356.277 1011.81,-339.85 980,-332 876.7,-306.509 751.668,-317.022 679.144,-326.999"/>
<polygon fill="#9a32cd" stroke="#9a32cd" points="1067.66,-372.895 1078.08,-374.83 1071.14,-366.821 1067.66,-372.895"/>
<text text-anchor="middle" x="901" y="-335" font-family="FreeSans" font-size="10.00"> CurrentCollisions</text>
</g>
<!-- Node13&#45;&gt;Node12 -->
<g id="edge28" class="edge"><title>Node13&#45;&gt;Node12</title>
<path fill="none" stroke="#9a32cd" stroke-dasharray="5,2" d="M946.737,-460.723C983.298,-444.513 1033.86,-422.098 1067.68,-407.102"/>
<polygon fill="#9a32cd" stroke="#9a32cd" points="945.016,-457.657 937.292,-464.91 947.853,-464.056 945.016,-457.657"/>
<text text-anchor="middle" x="1009" y="-439" font-family="FreeSans" font-size="10.00"> keys</text>
</g>
<!-- Node14 -->
<g id="node28" class="node"><title>Node14</title>
<polygon fill="none" stroke="#bfbfbf" points="571,-476 571,-496 667,-496 667,-476 571,-476"/>
<text text-anchor="middle" x="619" y="-483" font-family="FreeSans" font-size="10.00">std::vector&lt; Real &gt;</text>
</g>
<!-- Node14&#45;&gt;Node13 -->
<g id="edge30" class="edge"><title>Node14&#45;&gt;Node13</title>
<path fill="none" stroke="#9a32cd" stroke-dasharray="5,2" d="M677.393,-484.965C728.534,-484.058 802.072,-482.754 850.665,-481.892"/>
<polygon fill="#9a32cd" stroke="#9a32cd" points="677.093,-481.469 667.157,-485.146 677.218,-488.468 677.093,-481.469"/>
<text text-anchor="middle" x="757" y="-487" font-family="FreeSans" font-size="10.00"> PenetrationDistances</text>
</g>
<!-- Node15 -->
<g id="node31" class="node"><title>Node15</title>
<a xlink:href="structMezzanine_1_1Physics_1_1CollisionInternalData.xhtml" target="_top" xlink:title="Used to insulate the interface from the implementation details for bullet.">
<polygon fill="none" stroke="black" points="564,-540 564,-572 674,-572 674,-540 564,-540"/>
<text text-anchor="start" x="572" y="-559" font-family="FreeSans" font-size="10.00">Mezzanine::Physics</text>
<text text-anchor="middle" x="619" y="-547" font-family="FreeSans" font-size="10.00">::CollisionInternalData</text>
</a>
</g>
<!-- Node15&#45;&gt;Node13 -->
<g id="edge34" class="edge"><title>Node15&#45;&gt;Node13</title>
<path fill="none" stroke="#9a32cd" stroke-dasharray="5,2" d="M684.4,-561.464C722.011,-561.528 768.657,-556.105 804,-534 816.543,-526.155 810.249,-514.988 822,-506 830.455,-499.532 840.624,-494.715 850.808,-491.134"/>
<polygon fill="#9a32cd" stroke="#9a32cd" points="684.1,-557.96 674.049,-561.31 683.995,-564.959 684.1,-557.96"/>
<text text-anchor="middle" x="757" y="-563" font-family="FreeSans" font-size="10.00"> InternalData</text>
</g>
<!-- Node16&#45;&gt;Node4 -->
<g id="edge36" class="edge"><title>Node16&#45;&gt;Node4</title>
<path fill="none" stroke="#9a32cd" stroke-dasharray="5,2" d="M841.151,-241.126C828.9,-244.867 816.065,-248.662 804,-252 762.548,-263.47 749.289,-257.501 710,-275 679.09,-288.767 647.421,-313.136 630.819,-326.864"/>
<polygon fill="#9a32cd" stroke="#9a32cd" points="842.297,-244.435 850.824,-238.147 840.237,-237.745 842.297,-244.435"/>
<text text-anchor="middle" x="757" y="-278" font-family="FreeSans" font-size="10.00"> GraphicsSettings</text>
</g>
<!-- Node17 -->
<g id="node36" class="node"><title>Node17</title>
<a xlink:href="classMezzanine_1_1Graphics_1_1Mesh.xhtml" target="_top" xlink:title="This class is used to check and modify the properties of a graphics mesh.">
<polygon fill="none" stroke="black" points="566.5,-133 566.5,-165 671.5,-165 671.5,-133 566.5,-133"/>
<text text-anchor="start" x="574.5" y="-152" font-family="FreeSans" font-size="10.00">Mezzanine::Graphics</text>
<text text-anchor="middle" x="619" y="-140" font-family="FreeSans" font-size="10.00">::Mesh</text>
</a>
</g>
<!-- Node17&#45;&gt;Node16 -->
<g id="edge40" class="edge"><title>Node17&#45;&gt;Node16</title>
<path fill="none" stroke="#9a32cd" stroke-dasharray="5,2" d="M681.565,-160.1C717.638,-167.019 763.689,-176.737 804,-188 822.218,-193.09 841.979,-199.794 858.883,-205.903"/>
<polygon fill="#9a32cd" stroke="#9a32cd" points="682.146,-156.648 671.669,-158.224 680.842,-163.525 682.146,-156.648"/>
<text text-anchor="middle" x="757" y="-191" font-family="FreeSans" font-size="10.00"> WorldObjectMesh</text>
</g>
<!-- Node18 -->
<g id="node38" class="node"><title>Node18</title>
<a xlink:href="classMezzanine_1_1Graphics_1_1InternalMeshData.xhtml" target="_top" xlink:title="This class is used to store the internal structures needed by the Mesh class.">
<polygon fill="none" stroke="black" points="323.5,-163 323.5,-195 428.5,-195 428.5,-163 323.5,-163"/>
<text text-anchor="start" x="331.5" y="-182" font-family="FreeSans" font-size="10.00">Mezzanine::Graphics</text>
<text text-anchor="middle" x="376" y="-170" font-family="FreeSans" font-size="10.00">::InternalMeshData</text>
</a>
</g>
<!-- Node18&#45;&gt;Node17 -->
<g id="edge42" class="edge"><title>Node18&#45;&gt;Node17</title>
<path fill="none" stroke="#9a32cd" stroke-dasharray="5,2" d="M438.8,-171.247C478.381,-166.36 528.904,-160.123 566.376,-155.497"/>
<polygon fill="#9a32cd" stroke="#9a32cd" points="438.223,-167.791 428.727,-172.49 439.081,-174.739 438.223,-167.791"/>
<text text-anchor="middle" x="496" y="-171" font-family="FreeSans" font-size="10.00"> IMD</text>
</g>
<!-- Node19 -->
<g id="node40" class="node"><title>Node19</title>
<a xlink:href="classMezzanine_1_1Graphics_1_1Skeleton.xhtml" target="_top" xlink:title="This class encapsulates the Skeletal animation functionality of a Mesh.">
<polygon fill="none" stroke="black" points="323.5,-60 323.5,-92 428.5,-92 428.5,-60 323.5,-60"/>
<text text-anchor="start" x="331.5" y="-79" font-family="FreeSans" font-size="10.00">Mezzanine::Graphics</text>
<text text-anchor="middle" x="376" y="-67" font-family="FreeSans" font-size="10.00">::Skeleton</text>
</a>
</g>
<!-- Node19&#45;&gt;Node17 -->
<g id="edge44" class="edge"><title>Node19&#45;&gt;Node17</title>
<path fill="none" stroke="#9a32cd" stroke-dasharray="5,2" d="M438.548,-94.79C478.167,-106.692 528.825,-121.91 566.376,-133.191"/>
<polygon fill="#9a32cd" stroke="#9a32cd" points="439.312,-91.3651 428.727,-91.8399 437.298,-98.0691 439.312,-91.3651"/>
<text text-anchor="middle" x="496" y="-125" font-family="FreeSans" font-size="10.00"> MeshSkel</text>
</g>
<!-- Node21 -->
<g id="node44" class="node"><title>Node21</title>
<a xlink:href="classMezzanine_1_1Graphics_1_1Bone.xhtml" target="_top" xlink:title="This class encapsulates the bones contained in a skeleton used for animation.">
<polygon fill="none" stroke="black" points="566.5,-8 566.5,-40 671.5,-40 671.5,-8 566.5,-8"/>
<text text-anchor="start" x="574.5" y="-27" font-family="FreeSans" font-size="10.00">Mezzanine::Graphics</text>
<text text-anchor="middle" x="619" y="-15" font-family="FreeSans" font-size="10.00">::Bone</text>
</a>
</g>
<!-- Node19&#45;&gt;Node21 -->
<g id="edge52" class="edge"><title>Node19&#45;&gt;Node21</title>
<path fill="none" stroke="#9a32cd" stroke-dasharray="5,2" d="M436.331,-57.1287C445.551,-54.5489 454.994,-52.0777 464,-50 497.766,-42.21 536.177,-35.7503 566.313,-31.2182"/>
<polygon fill="#9a32cd" stroke="#9a32cd" points="435.096,-53.8414 426.445,-59.9572 437.022,-60.5714 435.096,-53.8414"/>
<text text-anchor="middle" x="496" y="-53" font-family="FreeSans" font-size="10.00"> Host</text>
</g>
<!-- Node20 -->
<g id="node42" class="node"><title>Node20</title>
<polygon fill="none" stroke="#bfbfbf" points="848.5,-47 848.5,-67 953.5,-67 953.5,-47 848.5,-47"/>
<text text-anchor="middle" x="901" y="-54" font-family="FreeSans" font-size="10.00">std::vector&lt; Bone * &gt;</text>
</g>
<!-- Node20&#45;&gt;Node19 -->
<g id="edge46" class="edge"><title>Node20&#45;&gt;Node19</title>
<path fill="none" stroke="#9a32cd" stroke-dasharray="5,2" d="M838.112,-60.4143C826.76,-60.9815 815.029,-61.5354 804,-62 668.811,-67.6948 509.519,-72.3683 428.724,-74.5944"/>
<polygon fill="#9a32cd" stroke="#9a32cd" points="838.592,-63.8946 848.401,-59.8919 838.237,-56.9036 838.592,-63.8946"/>
<text text-anchor="middle" x="619" y="-75" font-family="FreeSans" font-size="10.00"> Bones</text>
</g>
<!-- Node21&#45;&gt;Node20 -->
<g id="edge48" class="edge"><title>Node21&#45;&gt;Node20</title>
<path fill="none" stroke="#9a32cd" stroke-dasharray="5,2" d="M681.752,-31.3433C731.719,-37.1906 800.872,-45.2829 848.069,-50.806"/>
<polygon fill="#9a32cd" stroke="#9a32cd" points="682.05,-27.8544 671.711,-30.1683 681.237,-34.807 682.05,-27.8544"/>
<text text-anchor="middle" x="757" y="-49" font-family="FreeSans" font-size="10.00"> elements</text>
</g>
<!-- Node22 -->
<g id="node46" class="node"><title>Node22</title>
<a xlink:href="classMezzanine_1_1TransformableChildObject.xhtml" target="_top" xlink:title="This is an interface for all child 3D objects that can have their full transforms manipulated...">
<polygon fill="none" stroke="black" points="312,-0 312,-32 440,-32 440,-0 312,-0"/>
<text text-anchor="start" x="320" y="-19" font-family="FreeSans" font-size="10.00">Mezzanine::Transformable</text>
<text text-anchor="middle" x="376" y="-7" font-family="FreeSans" font-size="10.00">ChildObject</text>
</a>
</g>
<!-- Node22&#45;&gt;Node21 -->
<g id="edge50" class="edge"><title>Node22&#45;&gt;Node21</title>
<path fill="none" stroke="midnightblue" d="M450.53,-18.4537C487.999,-19.6872 532.512,-21.1527 566.371,-22.2674"/>
<polygon fill="midnightblue" stroke="midnightblue" points="450.273,-14.9434 440.163,-18.1124 450.043,-21.9396 450.273,-14.9434"/>
</g>
<!-- Node23 -->
<g id="node49" class="node"><title>Node23</title>
<a xlink:href="classMezzanine_1_1Graphics_1_1InternalSkeletonData.xhtml" target="_top" xlink:title="This class is used to store the internal structures needed by the Skeleton class.">
<polygon fill="none" stroke="black" points="112,-60 112,-92 224,-92 224,-60 112,-60"/>
<text text-anchor="start" x="120" y="-79" font-family="FreeSans" font-size="10.00">Mezzanine::Graphics</text>
<text text-anchor="middle" x="168" y="-67" font-family="FreeSans" font-size="10.00">::InternalSkeletonData</text>
</a>
</g>
<!-- Node23&#45;&gt;Node19 -->
<g id="edge54" class="edge"><title>Node23&#45;&gt;Node19</title>
<path fill="none" stroke="#9a32cd" stroke-dasharray="5,2" d="M234.022,-76C262.903,-76 296.312,-76 323.464,-76"/>
<polygon fill="#9a32cd" stroke="#9a32cd" points="234.014,-72.5001 224.014,-76 234.014,-79.5001 234.014,-72.5001"/>
<text text-anchor="middle" x="267" y="-79" font-family="FreeSans" font-size="10.00"> ISD</text>
</g>
<!-- Node24 -->
<g id="node51" class="node"><title>Node24</title>
<polygon fill="none" stroke="#bfbfbf" points="314.5,-125 314.5,-145 437.5,-145 437.5,-125 314.5,-125"/>
<text text-anchor="middle" x="376" y="-132" font-family="FreeSans" font-size="10.00">std::vector&lt; SubMesh * &gt;</text>
</g>
<!-- Node24&#45;&gt;Node17 -->
<g id="edge56" class="edge"><title>Node24&#45;&gt;Node17</title>
<path fill="none" stroke="#9a32cd" stroke-dasharray="5,2" d="M447.643,-139.128C485.738,-141.322 531.744,-143.973 566.491,-145.975"/>
<polygon fill="#9a32cd" stroke="#9a32cd" points="447.818,-135.632 437.633,-138.551 447.415,-142.62 447.818,-135.632"/>
<text text-anchor="middle" x="496" y="-147" font-family="FreeSans" font-size="10.00"> SubMeshes</text>
</g>
<!-- Node25 -->
<g id="node53" class="node"><title>Node25</title>
<a xlink:href="classMezzanine_1_1Graphics_1_1SubMesh.xhtml" target="_top" xlink:title="This class represents a sub&#45;section of an overall mesh.">
<polygon fill="none" stroke="black" points="115.5,-119 115.5,-151 220.5,-151 220.5,-119 115.5,-119"/>
<text text-anchor="start" x="123.5" y="-138" font-family="FreeSans" font-size="10.00">Mezzanine::Graphics</text>
<text text-anchor="middle" x="168" y="-126" font-family="FreeSans" font-size="10.00">::SubMesh</text>
</a>
</g>
<!-- Node25&#45;&gt;Node24 -->
<g id="edge58" class="edge"><title>Node25&#45;&gt;Node24</title>
<path fill="none" stroke="#9a32cd" stroke-dasharray="5,2" d="M231.047,-135C257.496,-135 288.151,-135 314.439,-135"/>
<polygon fill="#9a32cd" stroke="#9a32cd" points="230.756,-131.5 220.756,-135 230.756,-138.5 230.756,-131.5"/>
<text text-anchor="middle" x="267" y="-138" font-family="FreeSans" font-size="10.00"> elements</text>
</g>
<!-- Node26 -->
<g id="node55" class="node"><title>Node26</title>
<a xlink:href="classMezzanine_1_1Internal_1_1InternalWorldObjectGraphicsSettings.xhtml" target="_top" xlink:title="Used to store internal data about an world objects.">
<polygon fill="none" stroke="black" points="546.5,-189 546.5,-233 691.5,-233 691.5,-189 546.5,-189"/>
<text text-anchor="start" x="554.5" y="-220" font-family="FreeSans" font-size="10.00">Mezzanine::Internal</text>
<text text-anchor="start" x="554.5" y="-208" font-family="FreeSans" font-size="10.00">::InternalWorldObjectGraphics</text>
<text text-anchor="middle" x="619" y="-196" font-family="FreeSans" font-size="10.00">Settings</text>
</a>
</g>
<!-- Node26&#45;&gt;Node16 -->
<g id="edge60" class="edge"><title>Node26&#45;&gt;Node16</title>
<path fill="none" stroke="#9a32cd" stroke-dasharray="5,2" d="M702.211,-205.291C704.837,-205.182 707.438,-205.084 710,-205 751.755,-203.625 762.379,-201.38 804,-205 809.791,-205.504 815.755,-206.173 821.743,-206.956"/>
<polygon fill="#9a32cd" stroke="#9a32cd" points="701.82,-201.805 691.992,-205.763 702.143,-208.798 701.82,-201.805"/>
<text text-anchor="middle" x="757" y="-208" font-family="FreeSans" font-size="10.00"> IWOGS</text>
</g>
<!-- Node27 -->
<g id="node57" class="node"><title>Node27</title>
<polygon fill="none" stroke="#bfbfbf" points="306.5,-213 306.5,-245 445.5,-245 445.5,-213 306.5,-213"/>
<text text-anchor="start" x="314.5" y="-232" font-family="FreeSans" font-size="10.00">std::map&lt; Whole, Mezzanine</text>
<text text-anchor="middle" x="376" y="-220" font-family="FreeSans" font-size="10.00">::ColourValue &gt;</text>
</g>
<!-- Node27&#45;&gt;Node26 -->
<g id="edge62" class="edge"><title>Node27&#45;&gt;Node26</title>
<path fill="none" stroke="#9a32cd" stroke-dasharray="5,2" d="M455.797,-223.089C484.998,-220.926 517.856,-218.492 546.394,-216.378"/>
<polygon fill="#9a32cd" stroke="#9a32cd" points="455.348,-219.613 445.634,-223.842 455.865,-226.594 455.348,-219.613"/>
<text text-anchor="middle" x="496" y="-250" font-family="FreeSans" font-size="10.00"> Specular</text>
<text text-anchor="middle" x="496" y="-238" font-family="FreeSans" font-size="10.00">Ambient</text>
<text text-anchor="middle" x="496" y="-226" font-family="FreeSans" font-size="10.00">Diffuse</text>
</g>
<!-- Node28 -->
<g id="node59" class="node"><title>Node28</title>
<a xlink:href="classMezzanine_1_1ColourValue.xhtml" target="_top" xlink:title="This is a simple class for holding 4 reals representing the colour any give object or lightsource can...">
<polygon fill="none" stroke="black" points="108.5,-219 108.5,-239 227.5,-239 227.5,-219 108.5,-219"/>
<text text-anchor="middle" x="168" y="-226" font-family="FreeSans" font-size="10.00">Mezzanine::ColourValue</text>
</a>
</g>
<!-- Node28&#45;&gt;Node27 -->
<g id="edge64" class="edge"><title>Node28&#45;&gt;Node27</title>
<path fill="none" stroke="#9a32cd" stroke-dasharray="5,2" d="M237.609,-229C259.78,-229 284.301,-229 306.467,-229"/>
<polygon fill="#9a32cd" stroke="#9a32cd" points="237.604,-225.5 227.604,-229 237.604,-232.5 237.604,-225.5"/>
<text text-anchor="middle" x="267" y="-232" font-family="FreeSans" font-size="10.00"> elements</text>
</g>
</g>
</svg>
        <g id="navigator" transform="translate(0 0)" fill="#404254">
                <rect fill="#f2f5e9" fill-opacity="0.5" stroke="#606060" stroke-width=".5" x="0" y="0" width="60" height="60"/>
                <use id="zoomplus" xlink:href="#zoomPlus" x="17" y="9" onmousedown="handleZoom(evt,'in')"/>
                <use id="zoomminus" xlink:href="#zoomMin" x="42" y="9" onmousedown="handleZoom(evt,'out')"/>
                <use id="reset" xlink:href="#resetDef" x="30" y="36" onmousedown="handleReset()"/>
                <g id="arrowUp" xlink:href="#dirArrow" transform="translate(30 24)" onmousedown="handlePan(0,-1)">
                  <use xlink:href="#rim" fill="#404040">
                        <set attributeName="fill" to="#808080" begin="arrowUp.mouseover" end="arrowUp.mouseout"/>
                  </use>
                  <path fill="none" stroke="white" stroke-width="1.5" d="M0,-3.0v7 M-2.5,-0.5L0,-3.0L2.5,-0.5"/>
                </g>
                <g id="arrowRight" xlink:href="#dirArrow" transform="rotate(90) translate(36 -43)" onmousedown="handlePan(1,0)">
                  <use xlink:href="#rim" fill="#404040">
                        <set attributeName="fill" to="#808080" begin="arrowRight.mouseover" end="arrowRight.mouseout"/>
                  </use>
                  <path fill="none" stroke="white" stroke-width="1.5" d="M0,-3.0v7 M-2.5,-0.5L0,-3.0L2.5,-0.5"/>
                </g>
                <g id="arrowDown" xlink:href="#dirArrow" transform="rotate(180) translate(-30 -48)" onmousedown="handlePan(0,1)">
                  <use xlink:href="#rim" fill="#404040">
                        <set attributeName="fill" to="#808080" begin="arrowDown.mouseover" end="arrowDown.mouseout"/>
                  </use>
                  <path fill="none" stroke="white" stroke-width="1.5" d="M0,-3.0v7 M-2.5,-0.5L0,-3.0L2.5,-0.5"/>
                </g>
                <g id="arrowLeft" xlink:href="#dirArrow" transform="rotate(270) translate(-36 17)" onmousedown="handlePan(-1,0)">
                  <use xlink:href="#rim" fill="#404040">
                        <set attributeName="fill" to="#808080" begin="arrowLeft.mouseover" end="arrowLeft.mouseout"/>
                  </use>
                  <path fill="none" stroke="white" stroke-width="1.5" d="M0,-3.0v7 M-2.5,-0.5L0,-3.0L2.5,-0.5"/>
                </g>
        </g>
        <svg viewBox="0 0 15 15" width="100%" height="30px" preserveAspectRatio="xMaxYMin meet">
         <g id="arrow_out" transform="scale(0.3 0.3)">
          <a xlink:href="classMezzanine_1_1Audio_1_1iListener__coll__graph_org.svg" target="_base">
           <rect id="button" ry="5" rx="5" y="6" x="6" height="38" width="38"
                fill="#f2f5e9" fill-opacity="0.5" stroke="#606060" stroke-width="1.0"/>
           <path id="arrow"
             d="M 11.500037,31.436501 C 11.940474,20.09759 22.043105,11.32322 32.158766,21.979434 L 37.068811,17.246167 C 37.068811,17.246167 37.088388,32 37.088388,32 L 22.160133,31.978069 C 22.160133,31.978069 26.997745,27.140456 26.997745,27.140456 C 18.528582,18.264221 13.291696,25.230495 11.500037,31.436501 z"
             style="fill:#404040;"/>
          </a>
         </g>
        </svg>
</svg>
