<?xml version="1.0" encoding="UTF-8" standalone="no"?>
<!DOCTYPE svg PUBLIC "-//W3C//DTD SVG 1.1//EN"
 "http://www.w3.org/Graphics/SVG/1.1/DTD/svg11.dtd">
<!-- Generated by graphviz version 2.26.3 (20100126.1600)
 -->
<!-- Title: Mezzanine::UI::PagedCellGrid Pages: 1 -->
<svg width="164pt" height="204pt"
 viewBox="0.00 0.00 164.00 204.00" xmlns="http://www.w3.org/2000/svg" xmlns:xlink="http://www.w3.org/1999/xlink">
<g id="graph1" class="graph" transform="scale(1 1) rotate(0) translate(4 200)">
<title>Mezzanine::UI::PagedCellGrid</title>
<polygon fill="white" stroke="white" points="-4,5 -4,-200 161,-200 161,5 -4,5"/>
<!-- Node1 -->
<g id="node1" class="node"><title>Node1</title>
<polygon fill="#bfbfbf" stroke="black" points="0,-0.5 0,-21.5 156,-21.5 156,-0.5 0,-0.5"/>
<text text-anchor="middle" x="78" y="-8.5" font-family="FreeSans" font-size="10.00">Mezzanine::UI::PagedCellGrid</text>
</g>
<!-- Node2 -->
<g id="node2" class="node"><title>Node2</title>
<a xlink:href="classMezzanine_1_1UI_1_1CellGrid.html" target="_top" xlink:title="This is a widget used to determine spacing and ordering of other widgets(Cells) on a grid like surfac...">
<polygon fill="white" stroke="black" points="15,-58.5 15,-79.5 141,-79.5 141,-58.5 15,-58.5"/>
<text text-anchor="middle" x="78" y="-66.5" font-family="FreeSans" font-size="10.00">Mezzanine::UI::CellGrid</text>
</a>
</g>
<!-- Node2&#45;&gt;Node1 -->
<g id="edge2" class="edge"><title>Node2&#45;&gt;Node1</title>
<path fill="none" stroke="midnightblue" d="M78,-48.1906C78,-39.1684 78,-28.9941 78,-21.5707"/>
<polygon fill="midnightblue" stroke="midnightblue" points="74.5001,-48.3619 78,-58.3619 81.5001,-48.3619 74.5001,-48.3619"/>
</g>
<!-- Node3 -->
<g id="node4" class="node"><title>Node3</title>
<a xlink:href="classMezzanine_1_1UI_1_1Widget.html" target="_top" xlink:title="This class is the base class for all widgets.">
<polygon fill="white" stroke="black" points="17.5,-116.5 17.5,-137.5 138.5,-137.5 138.5,-116.5 17.5,-116.5"/>
<text text-anchor="middle" x="78" y="-124.5" font-family="FreeSans" font-size="10.00">Mezzanine::UI::Widget</text>
</a>
</g>
<!-- Node3&#45;&gt;Node2 -->
<g id="edge4" class="edge"><title>Node3&#45;&gt;Node2</title>
<path fill="none" stroke="midnightblue" d="M78,-106.191C78,-97.1684 78,-86.9941 78,-79.5707"/>
<polygon fill="midnightblue" stroke="midnightblue" points="74.5001,-106.362 78,-116.362 81.5001,-106.362 74.5001,-106.362"/>
</g>
<!-- Node4 -->
<g id="node6" class="node"><title>Node4</title>
<a xlink:href="classMezzanine_1_1UI_1_1Renderable.html" target="_top" xlink:title="Basic class for all structures that get inserted into the rendering hierarchy.">
<polygon fill="white" stroke="black" points="6.5,-174.5 6.5,-195.5 149.5,-195.5 149.5,-174.5 6.5,-174.5"/>
<text text-anchor="middle" x="78" y="-182.5" font-family="FreeSans" font-size="10.00">Mezzanine::UI::Renderable</text>
</a>
</g>
<!-- Node4&#45;&gt;Node3 -->
<g id="edge6" class="edge"><title>Node4&#45;&gt;Node3</title>
<path fill="none" stroke="midnightblue" d="M78,-164.191C78,-155.168 78,-144.994 78,-137.571"/>
<polygon fill="midnightblue" stroke="midnightblue" points="74.5001,-164.362 78,-174.362 81.5001,-164.362 74.5001,-164.362"/>
</g>
</g>
</svg>
