<?xml version="1.0" encoding="UTF-8" standalone="no"?>
<!DOCTYPE svg PUBLIC "-//W3C//DTD SVG 1.1//EN"
 "http://www.w3.org/Graphics/SVG/1.1/DTD/svg11.dtd">
<!-- Generated by graphviz version 2.26.3 (20100126.1600)
 -->
<!-- Title: Mezzanine::Timer Pages: 1 -->
<svg width="278pt" height="88pt"
 viewBox="0.00 0.00 278.00 88.00" xmlns="http://www.w3.org/2000/svg" xmlns:xlink="http://www.w3.org/1999/xlink">
<g id="graph1" class="graph" transform="scale(1 1) rotate(0) translate(4 84)">
<title>Mezzanine::Timer</title>
<polygon fill="white" stroke="white" points="-4,5 -4,-84 275,-84 275,5 -4,5"/>
<!-- Node1 -->
<g id="node1" class="node"><title>Node1</title>
<polygon fill="#bfbfbf" stroke="black" points="91,-59 91,-79 183,-79 183,-59 91,-59"/>
<text text-anchor="middle" x="137" y="-66" font-family="FreeSans" font-size="10.00">Mezzanine::Timer</text>
</g>
<!-- Node2 -->
<g id="node3" class="node"><title>Node2</title>
<a xlink:href="classMezzanine_1_1ExtendedTimer.html" target="_top" xlink:title="An enhanced timer class that can store and track many units of time.">
<polygon fill="white" stroke="black" points="-0.5,-1 -0.5,-21 130.5,-21 130.5,-1 -0.5,-1"/>
<text text-anchor="middle" x="65" y="-8" font-family="FreeSans" font-size="10.00">Mezzanine::ExtendedTimer</text>
</a>
</g>
<!-- Node1&#45;&gt;Node2 -->
<g id="edge2" class="edge"><title>Node1&#45;&gt;Node2</title>
<path fill="none" stroke="midnightblue" d="M116.442,-52.4396C104.028,-42.4391 88.5907,-30.0036 77.8825,-21.3776"/>
<polygon fill="midnightblue" stroke="midnightblue" points="114.475,-55.3495 124.459,-58.8972 118.867,-49.8982 114.475,-55.3495"/>
</g>
<!-- Node3 -->
<g id="node5" class="node"><title>Node3</title>
<a xlink:href="classMezzanine_1_1SimpleTimer.html" target="_top" xlink:title="A basic timer class that can be used to track short intervals of time.">
<polygon fill="white" stroke="black" points="148,-1 148,-21 270,-21 270,-1 148,-1"/>
<text text-anchor="middle" x="209" y="-8" font-family="FreeSans" font-size="10.00">Mezzanine::SimpleTimer</text>
</a>
</g>
<!-- Node1&#45;&gt;Node3 -->
<g id="edge4" class="edge"><title>Node1&#45;&gt;Node3</title>
<path fill="none" stroke="midnightblue" d="M157.558,-52.4396C169.972,-42.4391 185.409,-30.0036 196.117,-21.3776"/>
<polygon fill="midnightblue" stroke="midnightblue" points="155.133,-49.8982 149.541,-58.8972 159.525,-55.3495 155.133,-49.8982"/>
</g>
</g>
</svg>
