<?xml version="1.0" encoding="UTF-8" standalone="no"?>
<!DOCTYPE svg PUBLIC "-//W3C//DTD SVG 1.1//EN"
 "http://www.w3.org/Graphics/SVG/1.1/DTD/svg11.dtd">
<!-- Generated by graphviz version 2.26.3 (20100126.1600)
 -->
<!-- Title: Mezzanine::Scripting::iScriptCompilationManager Pages: 1 -->
<svg width="277pt" height="264pt"
 viewBox="0.00 0.00 277.00 264.00" xmlns="http://www.w3.org/2000/svg" xmlns:xlink="http://www.w3.org/1999/xlink">
<g id="graph1" class="graph" transform="scale(1 1) rotate(0) translate(4 260)">
<title>Mezzanine::Scripting::iScriptCompilationManager</title>
<polygon fill="white" stroke="white" points="-4,5 -4,-260 274,-260 274,5 -4,5"/>
<!-- Node1 -->
<g id="node1" class="node"><title>Node1</title>
<polygon fill="#bfbfbf" stroke="black" points="0,-1 0,-35 140,-35 140,-1 0,-1"/>
<text text-anchor="start" x="8" y="-22" font-family="Helvetica,sans-Serif" font-size="10.00">Mezzanine::Scripting</text>
<text text-anchor="middle" x="70" y="-9" font-family="Helvetica,sans-Serif" font-size="10.00">::iScriptCompilationManager</text>
</g>
<!-- Node2 -->
<g id="node2" class="node"><title>Node2</title>
<a xlink:href="classMezzanine_1_1Scripting_1_1iScriptingManager.html" target="_top" xlink:title="What a scripting manager should look like. ">
<polygon fill="white" stroke="black" points="16,-75 16,-109 124,-109 124,-75 16,-75"/>
<text text-anchor="start" x="24" y="-96" font-family="Helvetica,sans-Serif" font-size="10.00">Mezzanine::Scripting</text>
<text text-anchor="middle" x="70" y="-83" font-family="Helvetica,sans-Serif" font-size="10.00">::iScriptingManager</text>
</a>
</g>
<!-- Node2&#45;&gt;Node1 -->
<g id="edge2" class="edge"><title>Node2&#45;&gt;Node1</title>
<path fill="none" stroke="midnightblue" d="M70,-64.6275C70,-54.7253 70,-43.8344 70,-35.07"/>
<polygon fill="midnightblue" stroke="midnightblue" points="66.5001,-64.8369 70,-74.8369 73.5001,-64.8369 66.5001,-64.8369"/>
</g>
<!-- Node3 -->
<g id="node4" class="node"><title>Node3</title>
<a xlink:href="classMezzanine_1_1ManagerBase.html" target="_top" xlink:title="This is the base class from which all the Entresol and World Managers inherit. ">
<polygon fill="white" stroke="black" points="5,-155.5 5,-176.5 135,-176.5 135,-155.5 5,-155.5"/>
<text text-anchor="middle" x="70" y="-163.5" font-family="Helvetica,sans-Serif" font-size="10.00">Mezzanine::ManagerBase</text>
</a>
</g>
<!-- Node3&#45;&gt;Node2 -->
<g id="edge4" class="edge"><title>Node3&#45;&gt;Node2</title>
<path fill="none" stroke="midnightblue" d="M70,-145.089C70,-133.735 70,-119.869 70,-109.156"/>
<polygon fill="midnightblue" stroke="midnightblue" points="66.5001,-145.398 70,-155.398 73.5001,-145.398 66.5001,-145.398"/>
</g>
<!-- Node4 -->
<g id="node6" class="node"><title>Node4</title>
<a xlink:href="classMezzanine_1_1Entresol.html" target="_top" xlink:title="This is the main entry point for the entire library. ">
<polygon fill="white" stroke="black" points="96,-234.5 96,-255.5 202,-255.5 202,-234.5 96,-234.5"/>
<text text-anchor="middle" x="149" y="-242.5" font-family="Helvetica,sans-Serif" font-size="10.00">Mezzanine::Entresol</text>
</a>
</g>
<!-- Node4&#45;&gt;Node3 -->
<g id="edge6" class="edge"><title>Node4&#45;&gt;Node3</title>
<path fill="none" stroke="#9a32cd" stroke-dasharray="5,2" d="M99.1634,-229.843C92.7037,-226.155 86.7095,-221.603 82,-216 72.6953,-204.929 70.3615,-187.847 69.902,-176.795"/>
<polygon fill="#9a32cd" stroke="#9a32cd" points="97.6745,-233.012 108.184,-234.356 100.806,-226.751 97.6745,-233.012"/>
<text text-anchor="middle" x="110" y="-206.5" font-family="Helvetica,sans-Serif" font-size="10.00"> TheEntresol</text>
</g>
<!-- Node5 -->
<g id="node8" class="node"><title>Node5</title>
<a xlink:href="classMezzanine_1_1Singleton.html" target="_top" xlink:title="Mezzanine::Singleton\l\&lt; Entresol \&gt;">
<polygon fill="white" stroke="black" points="159,-149 159,-183 269,-183 269,-149 159,-149"/>
<text text-anchor="start" x="167" y="-170" font-family="Helvetica,sans-Serif" font-size="10.00">Mezzanine::Singleton</text>
<text text-anchor="middle" x="214" y="-157" font-family="Helvetica,sans-Serif" font-size="10.00">&lt; Entresol &gt;</text>
</a>
</g>
<!-- Node4&#45;&gt;Node5 -->
<g id="edge10" class="edge"><title>Node4&#45;&gt;Node5</title>
<path fill="none" stroke="#9a32cd" stroke-dasharray="5,2" d="M142.816,-224.426C141.732,-216.904 142.012,-208.623 146,-202 150.685,-194.218 157.679,-188.03 165.425,-183.139"/>
<polygon fill="#9a32cd" stroke="#9a32cd" points="139.424,-225.299 145.012,-234.301 146.257,-223.779 139.424,-225.299"/>
<text text-anchor="middle" x="174.5" y="-206.5" font-family="Helvetica,sans-Serif" font-size="10.00"> SingletonPtr</text>
</g>
<!-- Node5&#45;&gt;Node4 -->
<g id="edge8" class="edge"><title>Node5&#45;&gt;Node4</title>
<path fill="none" stroke="midnightblue" d="M214.85,-193.263C213.923,-201.192 211.695,-209.467 207,-216 201.153,-224.137 192.361,-230.121 183.379,-234.466"/>
<polygon fill="midnightblue" stroke="midnightblue" points="218.348,-193.397 215.416,-183.215 211.359,-193.002 218.348,-193.397"/>
</g>
</g>
</svg>
