<?xml version="1.0" encoding="UTF-8" standalone="no"?>
<!DOCTYPE svg PUBLIC "-//W3C//DTD SVG 1.1//EN"
 "http://www.w3.org/Graphics/SVG/1.1/DTD/svg11.dtd">
<!-- Generated by graphviz version 2.26.3 (20100126.1600)
 -->
<!-- Title: Mezzanine::SimpleTimer Pages: 1 -->
<svg width="136pt" height="160pt"
 viewBox="0.00 0.00 136.00 160.00" xmlns="http://www.w3.org/2000/svg" xmlns:xlink="http://www.w3.org/1999/xlink">
<g id="graph1" class="graph" transform="scale(1 1) rotate(0) translate(4 156)">
<title>Mezzanine::SimpleTimer</title>
<polygon fill="white" stroke="white" points="-4,5 -4,-156 133,-156 133,5 -4,5"/>
<!-- Node1 -->
<g id="node1" class="node"><title>Node1</title>
<polygon fill="#bfbfbf" stroke="black" points="3,-1 3,-21 125,-21 125,-1 3,-1"/>
<text text-anchor="middle" x="64" y="-8" font-family="FreeSans" font-size="10.00">Mezzanine::SimpleTimer</text>
</g>
<!-- Node2 -->
<g id="node2" class="node"><title>Node2</title>
<a xlink:href="classMezzanine_1_1Timer.html" target="_top" xlink:title="A base timer class for the different timers.">
<polygon fill="white" stroke="black" points="18,-61 18,-81 110,-81 110,-61 18,-61"/>
<text text-anchor="middle" x="64" y="-68" font-family="FreeSans" font-size="10.00">Mezzanine::Timer</text>
</a>
</g>
<!-- Node2&#45;&gt;Node1 -->
<g id="edge2" class="edge"><title>Node2&#45;&gt;Node1</title>
<path fill="none" stroke="midnightblue" d="M64,-50.5155C64,-40.562 64,-29.0495 64,-21.0279"/>
<polygon fill="midnightblue" stroke="midnightblue" points="60.5001,-50.8218 64,-60.8218 67.5001,-50.8219 60.5001,-50.8218"/>
</g>
<!-- Node3 -->
<g id="node4" class="node"><title>Node3</title>
<a xlink:href="classMezzanine_1_1TimerCallback.html" target="_top" xlink:title="A callback class for use automated and timed&#45;event based timers.">
<polygon fill="white" stroke="black" points="-0.5,-131 -0.5,-151 128.5,-151 128.5,-131 -0.5,-131"/>
<text text-anchor="middle" x="64" y="-138" font-family="FreeSans" font-size="10.00">Mezzanine::TimerCallback</text>
</a>
</g>
<!-- Node3&#45;&gt;Node2 -->
<g id="edge4" class="edge"><title>Node3&#45;&gt;Node2</title>
<path fill="none" stroke="#9a32cd" stroke-dasharray="5,2" d="M64,-120.613C64,-107.597 64,-91.2956 64,-81.0107"/>
<polygon fill="#9a32cd" stroke="#9a32cd" points="60.5001,-120.971 64,-130.971 67.5001,-120.971 60.5001,-120.971"/>
<text text-anchor="middle" x="84" y="-103" font-family="FreeSans" font-size="10.00"> Callback</text>
</g>
</g>
</svg>
