<?xml version="1.0" encoding="UTF-8" standalone="no"?>
<!DOCTYPE svg PUBLIC "-//W3C//DTD SVG 1.1//EN"
 "http://www.w3.org/Graphics/SVG/1.1/DTD/svg11.dtd">
<!-- Generated by graphviz version 2.38.0 (20140413.2041)
 -->
<!-- Title: Mezzanine::UI::DefaultFontTag Pages: 1 -->
<svg width="239pt" height="163pt"
 viewBox="0.00 0.00 239.00 163.00" xmlns="http://www.w3.org/2000/svg" xmlns:xlink="http://www.w3.org/1999/xlink">
<g id="graph0" class="graph" transform="scale(1 1) rotate(0) translate(4 159)">
<title>Mezzanine::UI::DefaultFontTag</title>
<polygon fill="white" stroke="none" points="-4,4 -4,-159 235,-159 235,4 -4,4"/>
<!-- Node1 -->
<g id="node1" class="node"><title>Node1</title>
<polygon fill="#bfbfbf" stroke="black" points="27.5,-0.5 27.5,-19.5 181.5,-19.5 181.5,-0.5 27.5,-0.5"/>
<text text-anchor="middle" x="104.5" y="-7.5" font-family="Helvetica,sans-Serif" font-size="10.00">Mezzanine::UI::DefaultFontTag</text>
</g>
<!-- Node2 -->
<g id="node2" class="node"><title>Node2</title>
<g id="a_node2"><a xlink:href="classMezzanine_1_1UI_1_1MarkupTag.html" target="_top" xlink:title="This is a base class for tags that implement the functionality of a markup language. ">
<polygon fill="white" stroke="black" points="0,-67.5 0,-86.5 135,-86.5 135,-67.5 0,-67.5"/>
<text text-anchor="middle" x="67.5" y="-74.5" font-family="Helvetica,sans-Serif" font-size="10.00">Mezzanine::UI::MarkupTag</text>
</a>
</g>
</g>
<!-- Node2&#45;&gt;Node1 -->
<g id="edge1" class="edge"><title>Node2&#45;&gt;Node1</title>
<path fill="none" stroke="midnightblue" d="M77.4418,-58.5347C84.6055,-45.9499 93.9651,-29.5072 99.5891,-19.6273"/>
<polygon fill="midnightblue" stroke="midnightblue" points="74.3953,-56.8117 72.49,-67.2338 80.4788,-60.2746 74.3953,-56.8117"/>
</g>
<!-- Node3 -->
<g id="node3" class="node"><title>Node3</title>
<g id="a_node3"><a xlink:title="STL class. ">
<polygon fill="white" stroke="#bfbfbf" points="153.5,-67.5 153.5,-86.5 213.5,-86.5 213.5,-67.5 153.5,-67.5"/>
<text text-anchor="middle" x="183.5" y="-74.5" font-family="Helvetica,sans-Serif" font-size="10.00">std::string</text>
</a>
</g>
</g>
<!-- Node3&#45;&gt;Node1 -->
<g id="edge2" class="edge"><title>Node3&#45;&gt;Node1</title>
<path fill="none" stroke="#9a32cd" stroke-dasharray="5,2" d="M164.921,-60.7134C149.356,-47.907 127.7,-30.0884 114.985,-19.6273"/>
<polygon fill="#9a32cd" stroke="#9a32cd" points="162.9,-63.5829 172.846,-67.2338 167.347,-58.1774 162.9,-63.5829"/>
<text text-anchor="middle" x="171.5" y="-41" font-family="Helvetica,sans-Serif" font-size="10.00"> TagName</text>
</g>
<!-- Node4 -->
<g id="node4" class="node"><title>Node4</title>
<g id="a_node4"><a xlink:title="STL class. ">
<polygon fill="white" stroke="#bfbfbf" points="136,-124.5 136,-154.5 231,-154.5 231,-124.5 136,-124.5"/>
<text text-anchor="start" x="144" y="-142.5" font-family="Helvetica,sans-Serif" font-size="10.00">std::basic_string&lt;</text>
<text text-anchor="middle" x="183.5" y="-131.5" font-family="Helvetica,sans-Serif" font-size="10.00"> char &gt;</text>
</a>
</g>
</g>
<!-- Node4&#45;&gt;Node3 -->
<g id="edge3" class="edge"><title>Node4&#45;&gt;Node3</title>
<path fill="none" stroke="midnightblue" d="M183.5,-114.352C183.5,-104.513 183.5,-93.7753 183.5,-86.5399"/>
<polygon fill="midnightblue" stroke="midnightblue" points="180,-114.468 183.5,-124.468 187,-114.468 180,-114.468"/>
</g>
</g>
</svg>
