<?xml version="1.0" encoding="UTF-8" standalone="no"?>
<!DOCTYPE svg PUBLIC "-//W3C//DTD SVG 1.1//EN"
 "http://www.w3.org/Graphics/SVG/1.1/DTD/svg11.dtd">
<!-- Generated by graphviz version 2.26.3 (20100126.1600)
 -->
<!-- Title: Mezzanine::Input::Device Pages: 1 -->
<svg width="1056pt" height="134pt"
 viewBox="0.00 0.00 1056.00 134.00" xmlns="http://www.w3.org/2000/svg" xmlns:xlink="http://www.w3.org/1999/xlink">
<g id="graph1" class="graph" transform="scale(1 1) rotate(0) translate(4 130)">
<title>Mezzanine::Input::Device</title>
<polygon fill="white" stroke="white" points="-4,5 -4,-130 1053,-130 1053,5 -4,5"/>
<!-- Node1 -->
<g id="node1" class="node"><title>Node1</title>
<polygon fill="#bfbfbf" stroke="black" points="912,-52.5 912,-73.5 1048,-73.5 1048,-52.5 912,-52.5"/>
<text text-anchor="middle" x="980" y="-60.5" font-family="FreeSans" font-size="10.00">Mezzanine::Input::Device</text>
</g>
<!-- Node2 -->
<g id="node2" class="node"><title>Node2</title>
<a xlink:href="classMezzanine_1_1Input_1_1SequenceContainer.html" target="_top" xlink:title="This class stores and provides utilities for sequenced inputs and their operations.">
<polygon fill="white" stroke="black" points="666,-46 666,-80 818,-80 818,-46 666,-46"/>
<text text-anchor="start" x="674" y="-67" font-family="FreeSans" font-size="10.00">Mezzanine::Input::Sequence</text>
<text text-anchor="middle" x="742" y="-54" font-family="FreeSans" font-size="10.00">Container</text>
</a>
</g>
<!-- Node2&#45;&gt;Node1 -->
<g id="edge2" class="edge"><title>Node2&#45;&gt;Node1</title>
<path fill="none" stroke="#9a32cd" stroke-dasharray="5,2" d="M828.646,-63C856.027,-63 885.882,-63 911.784,-63"/>
<polygon fill="#9a32cd" stroke="#9a32cd" points="828.287,-59.5001 818.287,-63 828.287,-66.5001 828.287,-59.5001"/>
<text text-anchor="middle" x="865" y="-67" font-family="FreeSans" font-size="10.00"> Sequences</text>
</g>
<!-- Node3 -->
<g id="node4" class="node"><title>Node3</title>
<a xlink:href="classMezzanine_1_1Trie.html" target="_top" xlink:title="Mezzanine::Trie\&lt; Input\l::MetaCode, Int32 \&gt;">
<polygon fill="white" stroke="black" points="389.5,-92 389.5,-126 514.5,-126 514.5,-92 389.5,-92"/>
<text text-anchor="start" x="397.5" y="-113" font-family="FreeSans" font-size="10.00">Mezzanine::Trie&lt; Input</text>
<text text-anchor="middle" x="452" y="-100" font-family="FreeSans" font-size="10.00">::MetaCode, Int32 &gt;</text>
</a>
</g>
<!-- Node3&#45;&gt;Node2 -->
<g id="edge4" class="edge"><title>Node3&#45;&gt;Node2</title>
<path fill="none" stroke="#9a32cd" stroke-dasharray="5,2" d="M524.928,-98.7763C561.852,-93.456 607.356,-86.6803 648,-80 653.809,-79.0452 659.815,-78.0282 665.851,-76.9848"/>
<polygon fill="#9a32cd" stroke="#9a32cd" points="524.153,-95.3516 514.751,-100.237 525.147,-102.281 524.153,-95.3516"/>
<text text-anchor="middle" x="597" y="-99" font-family="FreeSans" font-size="10.00"> SequencedInputs</text>
</g>
<!-- Node4 -->
<g id="node6" class="node"><title>Node4</title>
<a xlink:href="classMezzanine_1_1StopWatchTimer.html" target="_top" xlink:title="This is a timer class for counting down to a specified time.">
<polygon fill="white" stroke="black" points="376.5,-52.5 376.5,-73.5 527.5,-73.5 527.5,-52.5 376.5,-52.5"/>
<text text-anchor="middle" x="452" y="-60.5" font-family="FreeSans" font-size="10.00">Mezzanine::StopWatchTimer</text>
</a>
</g>
<!-- Node4&#45;&gt;Node2 -->
<g id="edge6" class="edge"><title>Node4&#45;&gt;Node2</title>
<path fill="none" stroke="#9a32cd" stroke-dasharray="5,2" d="M537.966,-63C578.564,-63 626.606,-63 665.872,-63"/>
<polygon fill="#9a32cd" stroke="#9a32cd" points="537.815,-59.5001 527.815,-63 537.815,-66.5001 537.815,-59.5001"/>
<text text-anchor="middle" x="597" y="-67" font-family="FreeSans" font-size="10.00"> SequenceTimer</text>
</g>
<!-- Node5 -->
<g id="node8" class="node"><title>Node5</title>
<a xlink:href="classMezzanine_1_1GoalTimer.html" target="_top" xlink:title="This is the base class for timers intended to run only until they reach a specific goal...">
<polygon fill="white" stroke="black" points="153,-52.5 153,-73.5 275,-73.5 275,-52.5 153,-52.5"/>
<text text-anchor="middle" x="214" y="-60.5" font-family="FreeSans" font-size="10.00">Mezzanine::GoalTimer</text>
</a>
</g>
<!-- Node5&#45;&gt;Node4 -->
<g id="edge8" class="edge"><title>Node5&#45;&gt;Node4</title>
<path fill="none" stroke="midnightblue" d="M285.644,-63C314.324,-63 347.391,-63 376.45,-63"/>
<polygon fill="midnightblue" stroke="midnightblue" points="285.291,-59.5001 275.291,-63 285.291,-66.5001 285.291,-59.5001"/>
</g>
<!-- Node6 -->
<g id="node10" class="node"><title>Node6</title>
<a xlink:href="classMezzanine_1_1Timer.html" target="_top" xlink:title="A base timer class for the different timers.">
<polygon fill="white" stroke="black" points="0,-52.5 0,-73.5 100,-73.5 100,-52.5 0,-52.5"/>
<text text-anchor="middle" x="50" y="-60.5" font-family="FreeSans" font-size="10.00">Mezzanine::Timer</text>
</a>
</g>
<!-- Node6&#45;&gt;Node5 -->
<g id="edge10" class="edge"><title>Node6&#45;&gt;Node5</title>
<path fill="none" stroke="midnightblue" d="M110.486,-63C124.334,-63 139.064,-63 152.936,-63"/>
<polygon fill="midnightblue" stroke="midnightblue" points="110.097,-59.5001 100.097,-63 110.096,-66.5001 110.097,-59.5001"/>
</g>
<!-- Node7 -->
<g id="node12" class="node"><title>Node7</title>
<polygon fill="white" stroke="#bfbfbf" points="400.5,-0 400.5,-34 503.5,-34 503.5,-0 400.5,-0"/>
<text text-anchor="start" x="408.5" y="-21" font-family="FreeSans" font-size="10.00">std::vector&lt; Input</text>
<text text-anchor="middle" x="452" y="-8" font-family="FreeSans" font-size="10.00">::MetaCode &gt;</text>
</g>
<!-- Node7&#45;&gt;Node2 -->
<g id="edge12" class="edge"><title>Node7&#45;&gt;Node2</title>
<path fill="none" stroke="#9a32cd" stroke-dasharray="5,2" d="M513.707,-25.6137C552.341,-31.1345 603.132,-38.6254 648,-46 653.809,-46.9548 659.815,-47.9718 665.851,-49.0152"/>
<polygon fill="#9a32cd" stroke="#9a32cd" points="514.048,-22.127 503.654,-24.1824 513.061,-29.0571 514.048,-22.127"/>
<text text-anchor="middle" x="597" y="-50" font-family="FreeSans" font-size="10.00"> CurrSequenceCache</text>
</g>
<!-- Node8 -->
<g id="node14" class="node"><title>Node8</title>
<a xlink:href="classMezzanine_1_1Input_1_1MetaCode.html" target="_top" xlink:title="This Determines the kind of user input.">
<polygon fill="white" stroke="black" points="138,-6.5 138,-27.5 290,-27.5 290,-6.5 138,-6.5"/>
<text text-anchor="middle" x="214" y="-14.5" font-family="FreeSans" font-size="10.00">Mezzanine::Input::MetaCode</text>
</a>
</g>
<!-- Node8&#45;&gt;Node7 -->
<g id="edge14" class="edge"><title>Node8&#45;&gt;Node7</title>
<path fill="none" stroke="#9a32cd" stroke-dasharray="5,2" d="M300.527,-17C333.947,-17 371.068,-17 400.197,-17"/>
<polygon fill="#9a32cd" stroke="#9a32cd" points="300.287,-13.5001 290.287,-17 300.287,-20.5001 300.287,-13.5001"/>
<text text-anchor="middle" x="333" y="-21" font-family="FreeSans" font-size="10.00"> elements</text>
</g>
</g>
</svg>
