<?xml version="1.0" encoding="UTF-8" standalone="no"?>
<!DOCTYPE svg PUBLIC "-//W3C//DTD SVG 1.1//EN"
 "http://www.w3.org/Graphics/SVG/1.1/DTD/svg11.dtd">
<!-- Generated by graphviz version 2.38.0 (20140413.2041)
 -->
<!-- Title: ScriptLuaYieldException Pages: 1 -->
<svg width="131pt" height="196pt"
 viewBox="0.00 0.00 131.00 196.00" xmlns="http://www.w3.org/2000/svg" xmlns:xlink="http://www.w3.org/1999/xlink">
<g id="graph0" class="graph" transform="scale(1 1) rotate(0) translate(4 192)">
<title>ScriptLuaYieldException</title>
<polygon fill="white" stroke="none" points="-4,4 -4,-192 127,-192 127,4 -4,4"/>
<!-- Node1 -->
<g id="node1" class="node"><title>Node1</title>
<polygon fill="#bfbfbf" stroke="black" points="0,-0.5 0,-19.5 123,-19.5 123,-0.5 0,-0.5"/>
<text text-anchor="middle" x="61.5" y="-7.5" font-family="Helvetica,sans-Serif" font-size="10.00">ScriptLuaYieldException</text>
</g>
<!-- Node2 -->
<g id="node2" class="node"><title>Node2</title>
<g id="a_node2"><a xlink:href="classScriptLuaException.html" target="_top" xlink:title="Thrown when an unknown error happens in a Lua script. ">
<polygon fill="white" stroke="black" points="11,-56.5 11,-75.5 112,-75.5 112,-56.5 11,-56.5"/>
<text text-anchor="middle" x="61.5" y="-63.5" font-family="Helvetica,sans-Serif" font-size="10.00">ScriptLuaException</text>
</a>
</g>
</g>
<!-- Node2&#45;&gt;Node1 -->
<g id="edge1" class="edge"><title>Node2&#45;&gt;Node1</title>
<path fill="none" stroke="midnightblue" d="M61.5,-45.8045C61.5,-36.9102 61.5,-26.7798 61.5,-19.7511"/>
<polygon fill="midnightblue" stroke="midnightblue" points="58.0001,-46.083 61.5,-56.083 65.0001,-46.083 58.0001,-46.083"/>
</g>
<!-- Node3 -->
<g id="node3" class="node"><title>Node3</title>
<g id="a_node3"><a xlink:href="classScriptException.html" target="_top" xlink:title="Thrown when an unknown error happens with a script. ">
<polygon fill="white" stroke="black" points="18.5,-112.5 18.5,-131.5 104.5,-131.5 104.5,-112.5 18.5,-112.5"/>
<text text-anchor="middle" x="61.5" y="-119.5" font-family="Helvetica,sans-Serif" font-size="10.00">ScriptException</text>
</a>
</g>
</g>
<!-- Node3&#45;&gt;Node2 -->
<g id="edge2" class="edge"><title>Node3&#45;&gt;Node2</title>
<path fill="none" stroke="midnightblue" d="M61.5,-101.805C61.5,-92.9102 61.5,-82.7798 61.5,-75.7511"/>
<polygon fill="midnightblue" stroke="midnightblue" points="58.0001,-102.083 61.5,-112.083 65.0001,-102.083 58.0001,-102.083"/>
</g>
<!-- Node4 -->
<g id="node4" class="node"><title>Node4</title>
<polygon fill="white" stroke="#bfbfbf" points="31.5,-168.5 31.5,-187.5 91.5,-187.5 91.5,-168.5 31.5,-168.5"/>
<text text-anchor="middle" x="61.5" y="-175.5" font-family="Helvetica,sans-Serif" font-size="10.00">Exception</text>
</g>
<!-- Node4&#45;&gt;Node3 -->
<g id="edge3" class="edge"><title>Node4&#45;&gt;Node3</title>
<path fill="none" stroke="midnightblue" d="M61.5,-157.805C61.5,-148.91 61.5,-138.78 61.5,-131.751"/>
<polygon fill="midnightblue" stroke="midnightblue" points="58.0001,-158.083 61.5,-168.083 65.0001,-158.083 58.0001,-158.083"/>
</g>
</g>
</svg>
