<?xml version="1.0" encoding="UTF-8" standalone="no"?>
<!DOCTYPE svg PUBLIC "-//W3C//DTD SVG 1.1//EN"
 "http://www.w3.org/Graphics/SVG/1.1/DTD/svg11.dtd">
<!-- Generated by graphviz version 2.26.3 (20100126.1600)
 -->
<!-- Title: Mezzanine::AudioManagerInternalData Pages: 1 -->
<!--zoomable 777 -->
<svg id="main" version="1.1" xmlns="http://www.w3.org/2000/svg" xmlns:xlink="http://www.w3.org/1999/xlink" xml:space="preserve" onload="init(evt)">
        <defs>
                <circle id="rim" cx="0" cy="0" r="7"/>
                <circle id="rim2" cx="0" cy="0" r="3.5"/>
                <g id="zoomPlus">
                        <use xlink:href="#rim" fill="#404040">
                                <set attributeName="fill" to="#808080" begin="zoomplus.mouseover" end="zoomplus.mouseout"/>
                        </use>
                        <path d="M-4,0h8M0,-4v8" fill="none" stroke="white" stroke-width="1.5" pointer-events="none"/>
                </g>
                <g id="zoomMin">
                        <use xlink:href="#rim" fill="#404040">
                                <set attributeName="fill" to="#808080" begin="zoomminus.mouseover" end="zoomminus.mouseout"/>
                        </use>
                        <path d="M-4,0h8" fill="none" stroke="white" stroke-width="1.5" pointer-events="none"/>
                </g>
                <g id="dirArrow">
                        <path fill="none" stroke="white" stroke-width="1.5" d="M0,-3.0v7 M-2.5,-0.5L0,-3.0L2.5,-0.5"/>
                </g>
               <g id="resetDef">
                       <use xlink:href="#rim2" fill="#404040">
                               <set attributeName="fill" to="#808080" begin="reset.mouseover" end="reset.mouseout"/>
                       </use>
               </g>
        </defs>

<script type="text/javascript">
var viewWidth = 2312;
var viewHeight = 777;
var sectionId = 'dynsection-0';
</script>
<script xlink:href="svgpan.js"/>
<svg id="graph" class="graph">
<g id="viewport">
<title>Mezzanine::AudioManagerInternalData</title>
<!-- Node1 -->
<g id="node1" class="node"><title>Node1</title>
<polygon fill="#bfbfbf" stroke="black" points="600,-631 600,-651 782,-651 782,-631 600,-631"/>
<text text-anchor="middle" x="691" y="-638" font-family="FreeSans" font-size="10.00">Mezzanine::AudioManagerInternalData</text>
</g>
<!-- Node4 -->
<g id="node6" class="node"><title>Node4</title>
<a xlink:href="classMezzanine_1_1AudioManager.xhtml" target="_top" xlink:title="This is simply a place for storing all the Sound utilities and functions.">
<polygon fill="none" stroke="black" points="1728.5,-583 1728.5,-603 1857.5,-603 1857.5,-583 1728.5,-583"/>
<text text-anchor="middle" x="1793" y="-590" font-family="FreeSans" font-size="10.00">Mezzanine::AudioManager</text>
</a>
</g>
<!-- Node1&#45;&gt;Node4 -->
<g id="edge106" class="edge"><title>Node1&#45;&gt;Node4</title>
<path fill="none" stroke="#9a32cd" stroke-dasharray="5,2" d="M768.858,-652.181C779.308,-653.335 789.901,-654.329 800,-655 1173.4,-679.805 1270.12,-696.801 1642,-655 1672.76,-651.543 1681.1,-651.081 1710,-640 1735.36,-630.276 1762.29,-613.722 1778.37,-603.08"/>
<polygon fill="#9a32cd" stroke="#9a32cd" points="769.239,-648.702 758.904,-651.03 768.436,-655.655 769.239,-648.702"/>
<text text-anchor="middle" x="1276" y="-683" font-family="FreeSans" font-size="10.00"> AMID</text>
</g>
<!-- Node2 -->
<g id="node2" class="node"><title>Node2</title>
<a xlink:title="STL class.">
<polygon fill="none" stroke="#bfbfbf" points="412.5,-388 412.5,-408 469.5,-408 469.5,-388 412.5,-388"/>
<text text-anchor="middle" x="441" y="-395" font-family="FreeSans" font-size="10.00">std::string</text>
</a>
</g>
<!-- Node2&#45;&gt;Node1 -->
<g id="edge2" class="edge"><title>Node2&#45;&gt;Node1</title>
<path fill="none" stroke="#9a32cd" stroke-dasharray="5,2" d="M444.429,-418.252C453.111,-467.034 477.457,-588.947 508,-615 533.147,-636.45 567.683,-644.848 599.981,-647.225"/>
<polygon fill="#9a32cd" stroke="#9a32cd" points="447.853,-417.515 442.69,-408.263 440.957,-418.716 447.853,-417.515"/>
<text text-anchor="middle" x="545" y="-647" font-family="FreeSans" font-size="10.00"> InitializedDevice</text>
</g>
<!-- Node15 -->
<g id="node30" class="node"><title>Node15</title>
<a xlink:href="classMezzanine_1_1ObjectSettingsHandler.xhtml" target="_top" xlink:title="An abstract class for other classes that manage groups of settings.">
<polygon fill="none" stroke="black" points="1510.5,-367 1510.5,-399 1641.5,-399 1641.5,-367 1510.5,-367"/>
<text text-anchor="start" x="1518.5" y="-386" font-family="FreeSans" font-size="10.00">Mezzanine::ObjectSettings</text>
<text text-anchor="middle" x="1576" y="-374" font-family="FreeSans" font-size="10.00">Handler</text>
</a>
</g>
<!-- Node2&#45;&gt;Node15 -->
<g id="edge64" class="edge"><title>Node2&#45;&gt;Node15</title>
<path fill="none" stroke="#9a32cd" stroke-dasharray="5,2" d="M461.22,-414.653C489.998,-437.263 545.362,-476.819 600,-494 949.769,-603.984 1400.44,-450.937 1535.83,-399.093"/>
<polygon fill="#9a32cd" stroke="#9a32cd" points="463.17,-411.732 453.173,-408.224 458.801,-417.201 463.17,-411.732"/>
<text text-anchor="middle" x="973" y="-547" font-family="FreeSans" font-size="10.00"> CurrentSettingsSaveFile</text>
<text text-anchor="middle" x="973" y="-535" font-family="FreeSans" font-size="10.00">SettingsFilePath</text>
</g>
<!-- Node16 -->
<g id="node32" class="node"><title>Node16</title>
<polygon fill="none" stroke="#bfbfbf" points="913,-261 913,-293 1033,-293 1033,-261 913,-261"/>
<text text-anchor="start" x="921" y="-280" font-family="FreeSans" font-size="10.00">std::map&lt; String, Object</text>
<text text-anchor="middle" x="973" y="-268" font-family="FreeSans" font-size="10.00">SettingFile * &gt;</text>
</g>
<!-- Node2&#45;&gt;Node16 -->
<g id="edge62" class="edge"><title>Node2&#45;&gt;Node16</title>
<path fill="none" stroke="#9a32cd" stroke-dasharray="5,2" d="M470.969,-383.783C502.458,-369.361 553.744,-347.32 600,-334 707.803,-302.956 838.29,-287.939 912.872,-281.398"/>
<polygon fill="#9a32cd" stroke="#9a32cd" points="469.467,-380.622 461.86,-387.996 472.405,-386.975 469.467,-380.622"/>
<text text-anchor="middle" x="691" y="-337" font-family="FreeSans" font-size="10.00"> keys</text>
</g>
<!-- Node17 -->
<g id="node34" class="node"><title>Node17</title>
<a xlink:href="classMezzanine_1_1ObjectSettingFile.xhtml" target="_top" xlink:title="This class represents a file to be saved containing one or more OhjectSettingGroup&#39;s.">
<polygon fill="none" stroke="black" points="620,-355 620,-375 762,-375 762,-355 620,-355"/>
<text text-anchor="middle" x="691" y="-362" font-family="FreeSans" font-size="10.00">Mezzanine::ObjectSettingFile</text>
</a>
</g>
<!-- Node2&#45;&gt;Node17 -->
<g id="edge38" class="edge"><title>Node2&#45;&gt;Node17</title>
<path fill="none" stroke="#9a32cd" stroke-dasharray="5,2" d="M479.637,-392.9C516.926,-387.978 574.272,-380.408 619.828,-374.395"/>
<polygon fill="#9a32cd" stroke="#9a32cd" points="479.134,-389.436 469.678,-394.214 480.05,-396.376 479.134,-389.436"/>
<text text-anchor="middle" x="545" y="-393" font-family="FreeSans" font-size="10.00"> File</text>
</g>
<!-- Node20 -->
<g id="node41" class="node"><title>Node20</title>
<a xlink:href="classMezzanine_1_1ObjectSettingSetContainer.xhtml" target="_top" xlink:title="A base class for other classes that store ObjectSettingSet&#39;s.">
<polygon fill="none" stroke="black" points="628,-172 628,-204 754,-204 754,-172 628,-172"/>
<text text-anchor="start" x="636" y="-191" font-family="FreeSans" font-size="10.00">Mezzanine::ObjectSetting</text>
<text text-anchor="middle" x="691" y="-179" font-family="FreeSans" font-size="10.00">SetContainer</text>
</a>
</g>
<!-- Node2&#45;&gt;Node20 -->
<g id="edge58" class="edge"><title>Node2&#45;&gt;Node20</title>
<path fill="none" stroke="#9a32cd" stroke-dasharray="5,2" d="M445.434,-378.037C455.506,-334.559 481.313,-233.481 508,-212 541.199,-185.278 589.296,-179.844 627.85,-180.791"/>
<polygon fill="#9a32cd" stroke="#9a32cd" points="441.975,-377.464 443.171,-387.991 448.801,-379.015 441.975,-377.464"/>
<text text-anchor="middle" x="545" y="-215" font-family="FreeSans" font-size="10.00"> ContainerName</text>
</g>
<!-- Node23 -->
<g id="node49" class="node"><title>Node23</title>
<polygon fill="none" stroke="#bfbfbf" points="628.5,-125 628.5,-145 753.5,-145 753.5,-125 628.5,-125"/>
<text text-anchor="middle" x="691" y="-132" font-family="FreeSans" font-size="10.00">std::map&lt; String, String &gt;</text>
</g>
<!-- Node2&#45;&gt;Node23 -->
<g id="edge56" class="edge"><title>Node2&#45;&gt;Node23</title>
<path fill="none" stroke="#9a32cd" stroke-dasharray="5,2" d="M443.674,-377.885C451.105,-325.213 473.738,-185.3 508,-156 540.568,-128.149 589.181,-123.701 628.119,-125.787"/>
<polygon fill="#9a32cd" stroke="#9a32cd" points="440.179,-377.609 442.285,-387.992 447.114,-378.562 440.179,-377.609"/>
<text text-anchor="middle" x="545" y="-171" font-family="FreeSans" font-size="10.00"> keys</text>
<text text-anchor="middle" x="545" y="-159" font-family="FreeSans" font-size="10.00">elements</text>
</g>
<!-- Node24 -->
<g id="node56" class="node"><title>Node24</title>
<polygon fill="none" stroke="#bfbfbf" points="1216,-367 1216,-399 1336,-399 1336,-367 1216,-367"/>
<text text-anchor="start" x="1224" y="-386" font-family="FreeSans" font-size="10.00">std::map&lt; String, Object</text>
<text text-anchor="middle" x="1276" y="-374" font-family="FreeSans" font-size="10.00">SettingGroup * &gt;</text>
</g>
<!-- Node2&#45;&gt;Node24 -->
<g id="edge70" class="edge"><title>Node2&#45;&gt;Node24</title>
<path fill="none" stroke="#9a32cd" stroke-dasharray="5,2" d="M479.752,-402.741C488.994,-403.68 498.835,-404.523 508,-405 540.844,-406.711 549.112,-405.178 582,-405 787.342,-403.889 838.836,-408.619 1044,-400 1102.51,-397.542 1169.17,-392.415 1215.97,-388.43"/>
<polygon fill="#9a32cd" stroke="#9a32cd" points="479.957,-399.243 469.64,-401.655 479.209,-406.203 479.957,-399.243"/>
<text text-anchor="middle" x="842" y="-409" font-family="FreeSans" font-size="10.00"> keys</text>
</g>
<!-- Node27 -->
<g id="node65" class="node"><title>Node27</title>
<polygon fill="none" stroke="#bfbfbf" points="1518,-577 1518,-609 1634,-609 1634,-577 1518,-577"/>
<text text-anchor="start" x="1526" y="-596" font-family="FreeSans" font-size="10.00">std::map&lt; String, Audio</text>
<text text-anchor="middle" x="1576" y="-584" font-family="FreeSans" font-size="10.00">::SoundSet * &gt;</text>
</g>
<!-- Node2&#45;&gt;Node27 -->
<g id="edge86" class="edge"><title>Node2&#45;&gt;Node27</title>
<path fill="none" stroke="#9a32cd" stroke-dasharray="5,2" d="M452.041,-416.769C463.886,-435.574 484.234,-464.334 508,-483 543.349,-510.763 556.702,-512.932 600,-525 937.464,-619.058 1364.68,-605.696 1517.98,-596.951"/>
<polygon fill="#9a32cd" stroke="#9a32cd" points="454.995,-414.891 446.79,-408.187 449.024,-418.544 454.995,-414.891"/>
<text text-anchor="middle" x="973" y="-597" font-family="FreeSans" font-size="10.00"> keys</text>
</g>
<!-- Node32 -->
<g id="node76" class="node"><title>Node32</title>
<a xlink:href="classMezzanine_1_1Audio_1_1Sound.xhtml" target="_top" xlink:title="This is an instance of a sound that can be played and manipulated.">
<polygon fill="none" stroke="black" points="1950,-512 1950,-532 2074,-532 2074,-512 1950,-512"/>
<text text-anchor="middle" x="2012" y="-519" font-family="FreeSans" font-size="10.00">Mezzanine::Audio::Sound</text>
</a>
</g>
<!-- Node2&#45;&gt;Node32 -->
<g id="edge92" class="edge"><title>Node2&#45;&gt;Node32</title>
<path fill="none" stroke="#9a32cd" stroke-dasharray="5,2" d="M457.435,-380.476C470.332,-367.39 489.195,-349.655 508,-337 545.603,-311.695 556.575,-305.983 600,-293 917.936,-197.943 1014.67,-243.651 1346,-262 1477.75,-269.296 1526.74,-220.757 1642,-285 1686.73,-309.929 1687.69,-331.91 1710,-378 1723.06,-404.982 1706.92,-421.692 1728,-443 1786.59,-502.205 1885.46,-518.061 1949.73,-521.757"/>
<polygon fill="#9a32cd" stroke="#9a32cd" points="454.659,-378.313 450.229,-387.937 459.694,-383.176 454.659,-378.313"/>
<text text-anchor="middle" x="1276" y="-265" font-family="FreeSans" font-size="10.00"> Name</text>
</g>
<!-- Node36 -->
<g id="node89" class="node"><title>Node36</title>
<polygon fill="none" stroke="#bfbfbf" points="2171,-686 2171,-718 2287,-718 2287,-686 2171,-686"/>
<text text-anchor="start" x="2179" y="-705" font-family="FreeSans" font-size="10.00">std::map&lt; String, Audio</text>
<text text-anchor="middle" x="2229" y="-693" font-family="FreeSans" font-size="10.00">::Sound * &gt;</text>
</g>
<!-- Node2&#45;&gt;Node36 -->
<g id="edge112" class="edge"><title>Node2&#45;&gt;Node36</title>
<path fill="none" stroke="#9a32cd" stroke-dasharray="5,2" d="M444.031,-418.349C452.511,-473.046 477.838,-621.684 508,-660 564.938,-732.331 598.947,-757 691,-757 691,-757 691,-757 2012,-757 2075.93,-757 2147.3,-734.29 2190.15,-718.056"/>
<polygon fill="#9a32cd" stroke="#9a32cd" points="447.448,-417.536 442.482,-408.177 440.528,-418.59 447.448,-417.536"/>
<text text-anchor="middle" x="1428" y="-760" font-family="FreeSans" font-size="10.00"> keys</text>
</g>
<!-- Node3 -->
<g id="node4" class="node"><title>Node3</title>
<a xlink:title="STL class.">
<polygon fill="none" stroke="#bfbfbf" points="260.5,-382 260.5,-414 351.5,-414 351.5,-382 260.5,-382"/>
<text text-anchor="start" x="268.5" y="-401" font-family="FreeSans" font-size="10.00">std::basic_string&lt;</text>
<text text-anchor="middle" x="306" y="-389" font-family="FreeSans" font-size="10.00"> char &gt;</text>
</a>
</g>
<!-- Node3&#45;&gt;Node2 -->
<g id="edge4" class="edge"><title>Node3&#45;&gt;Node2</title>
<path fill="none" stroke="midnightblue" d="M361.765,-398C379.121,-398 397.546,-398 412.256,-398"/>
<polygon fill="midnightblue" stroke="midnightblue" points="361.705,-394.5 351.705,-398 361.705,-401.5 361.705,-394.5"/>
</g>
<!-- Node4&#45;&gt;Node1 -->
<g id="edge6" class="edge"><title>Node4&#45;&gt;Node1</title>
<path fill="none" stroke="#9a32cd" stroke-dasharray="5,2" d="M1756,-606.344C1713.24,-620.548 1640.48,-641 1576,-641 973,-641 973,-641 973,-641 909.232,-641 837.352,-641 782.123,-641"/>
<polygon fill="#9a32cd" stroke="#9a32cd" points="1757.33,-609.587 1765.68,-603.062 1755.09,-602.957 1757.33,-609.587"/>
<text text-anchor="middle" x="1276" y="-644" font-family="FreeSans" font-size="10.00"> AudioMan</text>
</g>
<!-- Node25 -->
<g id="node60" class="node"><title>Node25</title>
<a xlink:href="classMezzanine_1_1Singleton.xhtml" target="_top" xlink:title="Mezzanine::Singleton\l\&lt; AudioManager \&gt;">
<polygon fill="none" stroke="black" points="1958.5,-550 1958.5,-582 2065.5,-582 2065.5,-550 1958.5,-550"/>
<text text-anchor="start" x="1966.5" y="-569" font-family="FreeSans" font-size="10.00">Mezzanine::Singleton</text>
<text text-anchor="middle" x="2012" y="-557" font-family="FreeSans" font-size="10.00">&lt; AudioManager &gt;</text>
</a>
</g>
<!-- Node4&#45;&gt;Node25 -->
<g id="edge74" class="edge"><title>Node4&#45;&gt;Node25</title>
<path fill="none" stroke="#9a32cd" stroke-dasharray="5,2" d="M1824.79,-579.073C1839.97,-573.158 1858.59,-566.953 1876,-564 1902.89,-559.438 1933.2,-559.399 1958.37,-560.731"/>
<polygon fill="#9a32cd" stroke="#9a32cd" points="1823.32,-575.892 1815.35,-582.881 1825.94,-582.384 1823.32,-575.892"/>
<text text-anchor="middle" x="1904" y="-567" font-family="FreeSans" font-size="10.00"> SingletonPtr</text>
</g>
<!-- Node4&#45;&gt;Node32 -->
<g id="edge94" class="edge"><title>Node4&#45;&gt;Node32</title>
<path fill="none" stroke="#9a32cd" stroke-dasharray="5,2" d="M1814.16,-577.069C1830.27,-565.754 1853.45,-551.173 1876,-543 1899.36,-534.534 1926.19,-529.481 1949.8,-526.465"/>
<polygon fill="#9a32cd" stroke="#9a32cd" points="1812.05,-574.273 1805.98,-582.957 1816.14,-579.952 1812.05,-574.273"/>
<text text-anchor="middle" x="1904" y="-546" font-family="FreeSans" font-size="10.00"> Manager</text>
</g>
<!-- Node5 -->
<g id="node8" class="node"><title>Node5</title>
<a xlink:href="classMezzanine_1_1ManagerBase.xhtml" target="_top" xlink:title="This is the base class from which all the World Managers inherit.">
<polygon fill="none" stroke="black" points="1513,-294 1513,-314 1639,-314 1639,-294 1513,-294"/>
<text text-anchor="middle" x="1576" y="-301" font-family="FreeSans" font-size="10.00">Mezzanine::ManagerBase</text>
</a>
</g>
<!-- Node5&#45;&gt;Node4 -->
<g id="edge8" class="edge"><title>Node5&#45;&gt;Node4</title>
<path fill="none" stroke="midnightblue" d="M1599.37,-320.142C1612.78,-330.101 1629.41,-343.68 1642,-358 1689.72,-412.275 1688.77,-435.307 1728,-496 1748.69,-528.006 1774.05,-565.316 1786.06,-582.879"/>
<polygon fill="midnightblue" stroke="midnightblue" points="1601.24,-317.179 1591.09,-314.149 1597.14,-322.849 1601.24,-317.179"/>
</g>
<!-- Node6 -->
<g id="node10" class="node"><title>Node6</title>
<a xlink:href="classMezzanine_1_1Entresol.xhtml" target="_top" xlink:title="This is the main entry point for the entire library.">
<polygon fill="none" stroke="black" points="1225.5,-47 1225.5,-67 1326.5,-67 1326.5,-47 1225.5,-47"/>
<text text-anchor="middle" x="1276" y="-54" font-family="FreeSans" font-size="10.00">Mezzanine::Entresol</text>
</a>
</g>
<!-- Node6&#45;&gt;Node5 -->
<g id="edge10" class="edge"><title>Node6&#45;&gt;Node5</title>
<path fill="none" stroke="#9a32cd" stroke-dasharray="5,2" d="M1308.62,-71.5183C1320.77,-77.4994 1334.41,-84.9231 1346,-93 1440.69,-158.995 1537.03,-261.241 1566.73,-293.727"/>
<polygon fill="#9a32cd" stroke="#9a32cd" points="1309.8,-68.2015 1299.26,-67.0459 1306.78,-74.5169 1309.8,-68.2015"/>
<text text-anchor="middle" x="1428" y="-216" font-family="FreeSans" font-size="10.00"> TheEntresol</text>
</g>
<!-- Node7 -->
<g id="node12" class="node"><title>Node7</title>
<a xlink:href="classMezzanine_1_1Singleton.xhtml" target="_top" xlink:title="Mezzanine::Singleton\l\&lt; Entresol \&gt;">
<polygon fill="none" stroke="black" points="1522.5,-41 1522.5,-73 1629.5,-73 1629.5,-41 1522.5,-41"/>
<text text-anchor="start" x="1530.5" y="-60" font-family="FreeSans" font-size="10.00">Mezzanine::Singleton</text>
<text text-anchor="middle" x="1576" y="-48" font-family="FreeSans" font-size="10.00">&lt; Entresol &gt;</text>
</a>
</g>
<!-- Node6&#45;&gt;Node7 -->
<g id="edge14" class="edge"><title>Node6&#45;&gt;Node7</title>
<path fill="none" stroke="#9a32cd" stroke-dasharray="5,2" d="M1336.76,-57C1391.22,-57 1470.33,-57 1522.45,-57"/>
<polygon fill="#9a32cd" stroke="#9a32cd" points="1336.55,-53.5001 1326.55,-57 1336.55,-60.5001 1336.55,-53.5001"/>
<text text-anchor="middle" x="1428" y="-60" font-family="FreeSans" font-size="10.00"> SingletonPtr</text>
</g>
<!-- Node7&#45;&gt;Node6 -->
<g id="edge12" class="edge"><title>Node7&#45;&gt;Node6</title>
<path fill="none" stroke="midnightblue" d="M1511.78,-55.3138C1505.1,-55.1855 1498.41,-55.0763 1492,-55 1435.12,-54.3229 1420.89,-54.3537 1364,-55 1351.93,-55.1372 1338.93,-55.3801 1326.72,-55.6505"/>
<polygon fill="midnightblue" stroke="midnightblue" points="1512.16,-58.8223 1522.23,-55.5295 1512.3,-51.8238 1512.16,-58.8223"/>
</g>
<!-- Node8 -->
<g id="node15" class="node"><title>Node8</title>
<a xlink:title="STL class.">
<polygon fill="none" stroke="#bfbfbf" points="930,-37 930,-57 1016,-57 1016,-37 930,-37"/>
<text text-anchor="middle" x="973" y="-44" font-family="FreeSans" font-size="10.00">std::stringstream</text>
</a>
</g>
<!-- Node8&#45;&gt;Node6 -->
<g id="edge16" class="edge"><title>Node8&#45;&gt;Node6</title>
<path fill="none" stroke="#9a32cd" stroke-dasharray="5,2" d="M1026.2,-48.7557C1082.39,-50.6102 1170.33,-53.5125 1225.48,-55.3328"/>
<polygon fill="#9a32cd" stroke="#9a32cd" points="1026.2,-45.254 1016.09,-48.4221 1025.97,-52.2502 1026.2,-45.254"/>
<text text-anchor="middle" x="1125" y="-58" font-family="FreeSans" font-size="10.00"> LogStream</text>
</g>
<!-- Node9 -->
<g id="node17" class="node"><title>Node9</title>
<a xlink:title="STL class.">
<polygon fill="none" stroke="#bfbfbf" points="634,-31 634,-63 748,-63 748,-31 634,-31"/>
<text text-anchor="start" x="642" y="-50" font-family="FreeSans" font-size="10.00">std::basic_stringstream</text>
<text text-anchor="middle" x="691" y="-38" font-family="FreeSans" font-size="10.00">&lt; char &gt;</text>
</a>
</g>
<!-- Node9&#45;&gt;Node8 -->
<g id="edge18" class="edge"><title>Node9&#45;&gt;Node8</title>
<path fill="none" stroke="midnightblue" d="M758.1,-47C811.316,-47 884.11,-47 929.834,-47"/>
<polygon fill="midnightblue" stroke="midnightblue" points="758.067,-43.5001 748.067,-47 758.067,-50.5001 758.067,-43.5001"/>
</g>
<!-- Node10 -->
<g id="node19" class="node"><title>Node10</title>
<a xlink:title="STL class.">
<polygon fill="none" stroke="#bfbfbf" points="392,-31 392,-63 490,-63 490,-31 392,-31"/>
<text text-anchor="start" x="400" y="-50" font-family="FreeSans" font-size="10.00">std::basic_iostream</text>
<text text-anchor="middle" x="441" y="-38" font-family="FreeSans" font-size="10.00">&lt; Char &gt;</text>
</a>
</g>
<!-- Node10&#45;&gt;Node9 -->
<g id="edge20" class="edge"><title>Node10&#45;&gt;Node9</title>
<path fill="none" stroke="midnightblue" d="M500.325,-47C540.677,-47 593.784,-47 633.7,-47"/>
<polygon fill="midnightblue" stroke="midnightblue" points="500.094,-43.5001 490.094,-47 500.094,-50.5001 500.094,-43.5001"/>
</g>
<!-- Node11 -->
<g id="node21" class="node"><title>Node11</title>
<a xlink:title="STL class.">
<polygon fill="none" stroke="#bfbfbf" points="259.5,-0 259.5,-32 352.5,-32 352.5,-0 259.5,-0"/>
<text text-anchor="start" x="267.5" y="-19" font-family="FreeSans" font-size="10.00">std::basic_istream</text>
<text text-anchor="middle" x="306" y="-7" font-family="FreeSans" font-size="10.00">&lt; Char &gt;</text>
</a>
</g>
<!-- Node11&#45;&gt;Node10 -->
<g id="edge22" class="edge"><title>Node11&#45;&gt;Node10</title>
<path fill="none" stroke="midnightblue" d="M362.794,-29.0415C372.486,-31.2672 382.481,-33.5622 391.95,-35.7367"/>
<polygon fill="midnightblue" stroke="midnightblue" points="363.367,-25.5822 352.838,-26.7553 361.801,-32.4046 363.367,-25.5822"/>
</g>
<!-- Node12 -->
<g id="node23" class="node"><title>Node12</title>
<a xlink:title="STL class.">
<polygon fill="none" stroke="#bfbfbf" points="110,-33 110,-53 220,-53 220,-33 110,-33"/>
<text text-anchor="middle" x="165" y="-40" font-family="FreeSans" font-size="10.00">std::basic_ios&lt; Char &gt;</text>
</a>
</g>
<!-- Node12&#45;&gt;Node11 -->
<g id="edge24" class="edge"><title>Node12&#45;&gt;Node11</title>
<path fill="none" stroke="midnightblue" d="M227.325,-31.0655C238.131,-28.9961 249.198,-26.8771 259.489,-24.9063"/>
<polygon fill="midnightblue" stroke="midnightblue" points="226.666,-27.6278 217.503,-32.9462 227.983,-34.5029 226.666,-27.6278"/>
</g>
<!-- Node14 -->
<g id="node27" class="node"><title>Node14</title>
<a xlink:title="STL class.">
<polygon fill="none" stroke="#bfbfbf" points="258,-50 258,-82 354,-82 354,-50 258,-50"/>
<text text-anchor="start" x="266" y="-69" font-family="FreeSans" font-size="10.00">std::basic_ostream</text>
<text text-anchor="middle" x="306" y="-57" font-family="FreeSans" font-size="10.00">&lt; Char &gt;</text>
</a>
</g>
<!-- Node12&#45;&gt;Node14 -->
<g id="edge30" class="edge"><title>Node12&#45;&gt;Node14</title>
<path fill="none" stroke="midnightblue" d="M230.267,-53.6464C239.503,-55.153 248.86,-56.6792 257.698,-58.1209"/>
<polygon fill="midnightblue" stroke="midnightblue" points="230.755,-50.1799 220.322,-52.0242 229.628,-57.0886 230.755,-50.1799"/>
</g>
<!-- Node13 -->
<g id="node25" class="node"><title>Node13</title>
<a xlink:title="STL class.">
<polygon fill="none" stroke="#bfbfbf" points="0.5,-33 0.5,-53 71.5,-53 71.5,-33 0.5,-33"/>
<text text-anchor="middle" x="36" y="-40" font-family="FreeSans" font-size="10.00">std::ios_base</text>
</a>
</g>
<!-- Node13&#45;&gt;Node12 -->
<g id="edge26" class="edge"><title>Node13&#45;&gt;Node12</title>
<path fill="none" stroke="midnightblue" d="M81.8712,-43C90.8757,-43 100.41,-43 109.686,-43"/>
<polygon fill="midnightblue" stroke="midnightblue" points="81.5913,-39.5001 71.5913,-43 81.5913,-46.5001 81.5913,-39.5001"/>
</g>
<!-- Node14&#45;&gt;Node10 -->
<g id="edge28" class="edge"><title>Node14&#45;&gt;Node10</title>
<path fill="none" stroke="midnightblue" d="M364.452,-57.7734C373.509,-56.4988 382.786,-55.1931 391.617,-53.9502"/>
<polygon fill="midnightblue" stroke="midnightblue" points="363.771,-54.3346 354.357,-59.1942 364.747,-61.2663 363.771,-54.3346"/>
</g>
<!-- Node15&#45;&gt;Node4 -->
<g id="edge32" class="edge"><title>Node15&#45;&gt;Node4</title>
<path fill="none" stroke="midnightblue" d="M1593.15,-407.167C1609.24,-429.082 1634.56,-461.728 1660,-487 1699.38,-526.124 1752.65,-564.951 1778.17,-582.818"/>
<polygon fill="midnightblue" stroke="midnightblue" points="1595.96,-405.083 1587.25,-399.049 1590.3,-409.197 1595.96,-405.083"/>
</g>
<!-- Node16&#45;&gt;Node15 -->
<g id="edge34" class="edge"><title>Node16&#45;&gt;Node15</title>
<path fill="none" stroke="#9a32cd" stroke-dasharray="5,2" d="M1043.52,-273.82C1119.16,-271.93 1242.37,-273.257 1346,-295 1419.43,-310.408 1500.28,-346.048 1543.86,-366.939"/>
<polygon fill="#9a32cd" stroke="#9a32cd" points="1043.07,-270.331 1033.17,-274.106 1043.26,-277.328 1043.07,-270.331"/>
<text text-anchor="middle" x="1276" y="-298" font-family="FreeSans" font-size="10.00"> SettingFiles</text>
</g>
<!-- Node17&#45;&gt;Node16 -->
<g id="edge36" class="edge"><title>Node17&#45;&gt;Node16</title>
<path fill="none" stroke="#9a32cd" stroke-dasharray="5,2" d="M725.451,-351.087C746.752,-342.724 774.755,-332.157 800,-324 837.168,-311.991 879.471,-300.461 912.942,-291.826"/>
<polygon fill="#9a32cd" stroke="#9a32cd" points="723.884,-347.943 715.873,-354.876 726.459,-354.452 723.884,-347.943"/>
<text text-anchor="middle" x="842" y="-327" font-family="FreeSans" font-size="10.00"> elements</text>
</g>
<!-- Node19 -->
<g id="node39" class="node"><title>Node19</title>
<a xlink:href="classMezzanine_1_1ObjectSettingGroup.xhtml" target="_top" xlink:title="A class that store&#39;s a collection of SettingSets that can be applied together.">
<polygon fill="none" stroke="black" points="910,-311 910,-343 1036,-343 1036,-311 910,-311"/>
<text text-anchor="start" x="918" y="-330" font-family="FreeSans" font-size="10.00">Mezzanine::ObjectSetting</text>
<text text-anchor="middle" x="973" y="-318" font-family="FreeSans" font-size="10.00">Group</text>
</a>
</g>
<!-- Node17&#45;&gt;Node19 -->
<g id="edge60" class="edge"><title>Node17&#45;&gt;Node19</title>
<path fill="none" stroke="#9a32cd" stroke-dasharray="5,2" d="M772.186,-354.06C815.865,-348.174 868.945,-341.022 909.56,-335.549"/>
<polygon fill="#9a32cd" stroke="#9a32cd" points="771.603,-350.607 762.161,-355.411 772.538,-357.544 771.603,-350.607"/>
<text text-anchor="middle" x="842" y="-353" font-family="FreeSans" font-size="10.00"> OptionalFile</text>
</g>
<!-- Node18 -->
<g id="node37" class="node"><title>Node18</title>
<polygon fill="none" stroke="#bfbfbf" points="1212,-316 1212,-348 1340,-348 1340,-316 1212,-316"/>
<text text-anchor="start" x="1220" y="-335" font-family="FreeSans" font-size="10.00">std::vector&lt; ObjectSetting</text>
<text text-anchor="middle" x="1276" y="-323" font-family="FreeSans" font-size="10.00">Group * &gt;</text>
</g>
<!-- Node18&#45;&gt;Node17 -->
<g id="edge40" class="edge"><title>Node18&#45;&gt;Node17</title>
<path fill="none" stroke="#9a32cd" stroke-dasharray="5,2" d="M1222.78,-351.67C1217.11,-353.794 1211.43,-355.934 1206,-358 1197.98,-361.05 1196.44,-363.417 1188,-365 1038.53,-393.041 859.296,-382.471 762.129,-373.164"/>
<polygon fill="#9a32cd" stroke="#9a32cd" points="1224.13,-354.903 1232.27,-348.125 1221.68,-348.346 1224.13,-354.903"/>
<text text-anchor="middle" x="973" y="-387" font-family="FreeSans" font-size="10.00"> SaveGroups</text>
</g>
<!-- Node19&#45;&gt;Node18 -->
<g id="edge42" class="edge"><title>Node19&#45;&gt;Node18</title>
<path fill="none" stroke="#9a32cd" stroke-dasharray="5,2" d="M1046.34,-318.994C1051.63,-318.597 1056.9,-318.257 1062,-318 1117.93,-315.179 1132.17,-313.587 1188,-318 1195.71,-318.61 1203.77,-319.515 1211.74,-320.578"/>
<polygon fill="#9a32cd" stroke="#9a32cd" points="1045.83,-315.524 1036.15,-319.821 1046.4,-322.501 1045.83,-315.524"/>
<text text-anchor="middle" x="1125" y="-321" font-family="FreeSans" font-size="10.00"> elements</text>
</g>
<!-- Node19&#45;&gt;Node24 -->
<g id="edge68" class="edge"><title>Node19&#45;&gt;Node24</title>
<path fill="none" stroke="#9a32cd" stroke-dasharray="5,2" d="M1046.3,-340.547C1098.23,-350.144 1167.04,-362.862 1215.77,-371.868"/>
<polygon fill="#9a32cd" stroke="#9a32cd" points="1046.62,-337.047 1036.15,-338.671 1045.35,-343.93 1046.62,-337.047"/>
<text text-anchor="middle" x="1125" y="-370" font-family="FreeSans" font-size="10.00"> elements</text>
</g>
<!-- Node20&#45;&gt;Node19 -->
<g id="edge44" class="edge"><title>Node20&#45;&gt;Node19</title>
<path fill="none" stroke="midnightblue" d="M726.468,-209.395C767.713,-233.743 838.293,-273.783 902,-302 909.05,-305.122 916.621,-308.134 924.099,-310.919"/>
<polygon fill="midnightblue" stroke="midnightblue" points="728.016,-206.243 717.629,-204.151 724.444,-212.264 728.016,-206.243"/>
</g>
<!-- Node22 -->
<g id="node45" class="node"><title>Node22</title>
<a xlink:href="classMezzanine_1_1ObjectSettingSet.xhtml" target="_top" xlink:title="A class that store&#39;s a named set of settings for an object.">
<polygon fill="none" stroke="black" points="902.5,-142 902.5,-162 1043.5,-162 1043.5,-142 902.5,-142"/>
<text text-anchor="middle" x="973" y="-149" font-family="FreeSans" font-size="10.00">Mezzanine::ObjectSettingSet</text>
</a>
</g>
<!-- Node20&#45;&gt;Node22 -->
<g id="edge50" class="edge"><title>Node20&#45;&gt;Node22</title>
<path fill="none" stroke="midnightblue" d="M764.778,-185.591C800.884,-183.665 844.893,-180.206 884,-174 902.078,-171.131 921.874,-166.4 938.196,-162.059"/>
<polygon fill="midnightblue" stroke="midnightblue" points="764.14,-182.119 754.329,-186.118 764.492,-189.11 764.14,-182.119"/>
</g>
<!-- Node20&#45;&gt;Node22 -->
<g id="edge52" class="edge"><title>Node20&#45;&gt;Node22</title>
<path fill="none" stroke="#9a32cd" stroke-dasharray="5,2" d="M752.062,-169.232C767.56,-165.169 784.276,-161.38 800,-159 833.436,-153.939 870.894,-151.974 902.383,-151.362"/>
<polygon fill="#9a32cd" stroke="#9a32cd" points="750.818,-165.943 742.077,-171.931 752.644,-172.701 750.818,-165.943"/>
<text text-anchor="middle" x="842" y="-162" font-family="FreeSans" font-size="10.00"> ParentSetOrGroup</text>
</g>
<!-- Node21 -->
<g id="node43" class="node"><title>Node21</title>
<polygon fill="none" stroke="#bfbfbf" points="1212,-102 1212,-134 1340,-134 1340,-102 1212,-102"/>
<text text-anchor="start" x="1220" y="-121" font-family="FreeSans" font-size="10.00">std::vector&lt; ObjectSetting</text>
<text text-anchor="middle" x="1276" y="-109" font-family="FreeSans" font-size="10.00">Set * &gt;</text>
</g>
<!-- Node21&#45;&gt;Node20 -->
<g id="edge46" class="edge"><title>Node21&#45;&gt;Node20</title>
<path fill="none" stroke="#9a32cd" stroke-dasharray="5,2" d="M1213.56,-99.3093C1117.08,-74.3435 929.412,-41.7125 800,-120 785.371,-128.85 794.846,-142.716 782,-154 773.51,-161.457 763.231,-167.34 752.681,-171.961"/>
<polygon fill="#9a32cd" stroke="#9a32cd" points="1212.89,-102.753 1223.45,-101.926 1214.68,-95.9854 1212.89,-102.753"/>
<text text-anchor="middle" x="973" y="-84" font-family="FreeSans" font-size="10.00"> SubSets</text>
</g>
<!-- Node22&#45;&gt;Node21 -->
<g id="edge48" class="edge"><title>Node22&#45;&gt;Node21</title>
<path fill="none" stroke="#9a32cd" stroke-dasharray="5,2" d="M1053.7,-142.944C1103.25,-137.385 1165.82,-130.363 1211.95,-125.187"/>
<polygon fill="#9a32cd" stroke="#9a32cd" points="1053.2,-139.478 1043.66,-144.071 1053.99,-146.434 1053.2,-139.478"/>
<text text-anchor="middle" x="1125" y="-145" font-family="FreeSans" font-size="10.00"> elements</text>
</g>
<!-- Node23&#45;&gt;Node22 -->
<g id="edge54" class="edge"><title>Node23&#45;&gt;Node22</title>
<path fill="none" stroke="#9a32cd" stroke-dasharray="5,2" d="M763.852,-125.886C800.111,-122.895 844.523,-121.561 884,-127 904.828,-129.87 927.645,-136.349 944.961,-141.992"/>
<polygon fill="#9a32cd" stroke="#9a32cd" points="763.505,-122.403 753.851,-126.769 764.121,-129.376 763.505,-122.403"/>
<text text-anchor="middle" x="842" y="-130" font-family="FreeSans" font-size="10.00"> Settings</text>
</g>
<!-- Node24&#45;&gt;Node15 -->
<g id="edge66" class="edge"><title>Node24&#45;&gt;Node15</title>
<path fill="none" stroke="#9a32cd" stroke-dasharray="5,2" d="M1346.66,-383C1396.17,-383 1461.89,-383 1510.28,-383"/>
<polygon fill="#9a32cd" stroke="#9a32cd" points="1346.35,-379.5 1336.35,-383 1346.35,-386.5 1346.35,-379.5"/>
<text text-anchor="middle" x="1428" y="-386" font-family="FreeSans" font-size="10.00"> SettingGroups</text>
</g>
<!-- Node25&#45;&gt;Node4 -->
<g id="edge72" class="edge"><title>Node25&#45;&gt;Node4</title>
<path fill="none" stroke="midnightblue" d="M1948.35,-576.701C1942.83,-577.521 1937.32,-578.301 1932,-579 1907.83,-582.178 1881.22,-585.018 1857.8,-587.296"/>
<polygon fill="midnightblue" stroke="midnightblue" points="1948.92,-580.156 1958.28,-575.19 1947.86,-573.236 1948.92,-580.156"/>
</g>
<!-- Node26 -->
<g id="node63" class="node"><title>Node26</title>
<a xlink:href="classMezzanine_1_1Audio_1_1Listener.xhtml" target="_top" xlink:title="This is the listener class used for 3D sound.">
<polygon fill="none" stroke="black" points="1511,-709 1511,-729 1641,-729 1641,-709 1511,-709"/>
<text text-anchor="middle" x="1576" y="-716" font-family="FreeSans" font-size="10.00">Mezzanine::Audio::Listener</text>
</a>
</g>
<!-- Node26&#45;&gt;Node4 -->
<g id="edge76" class="edge"><title>Node26&#45;&gt;Node4</title>
<path fill="none" stroke="#9a32cd" stroke-dasharray="5,2" d="M1651.35,-715.006C1671.43,-711.47 1692.41,-705.367 1710,-695 1748.75,-672.167 1777.01,-624.073 1787.98,-603.118"/>
<polygon fill="#9a32cd" stroke="#9a32cd" points="1650.6,-711.58 1641.27,-716.587 1651.69,-718.495 1650.6,-711.58"/>
<text text-anchor="middle" x="1685" y="-715" font-family="FreeSans" font-size="10.00"> Listener</text>
</g>
<!-- Node27&#45;&gt;Node4 -->
<g id="edge78" class="edge"><title>Node27&#45;&gt;Node4</title>
<path fill="none" stroke="#9a32cd" stroke-dasharray="5,2" d="M1644.23,-593C1671.05,-593 1701.7,-593 1728.18,-593"/>
<polygon fill="#9a32cd" stroke="#9a32cd" points="1644.15,-589.5 1634.15,-593 1644.15,-596.5 1644.15,-589.5"/>
<text text-anchor="middle" x="1685" y="-596" font-family="FreeSans" font-size="10.00"> SoundSets</text>
</g>
<!-- Node28 -->
<g id="node67" class="node"><title>Node28</title>
<a xlink:href="classMezzanine_1_1Audio_1_1SoundSet.xhtml" target="_top" xlink:title="This is a vector that stores sounds.">
<polygon fill="none" stroke="black" points="1206.5,-547 1206.5,-567 1345.5,-567 1345.5,-547 1206.5,-547"/>
<text text-anchor="middle" x="1276" y="-554" font-family="FreeSans" font-size="10.00">Mezzanine::Audio::SoundSet</text>
</a>
</g>
<!-- Node28&#45;&gt;Node27 -->
<g id="edge80" class="edge"><title>Node28&#45;&gt;Node27</title>
<path fill="none" stroke="#9a32cd" stroke-dasharray="5,2" d="M1355.7,-557.2C1396.68,-558.369 1447.27,-561.465 1492,-569 1503.37,-570.915 1515.39,-573.808 1526.67,-576.93"/>
<polygon fill="#9a32cd" stroke="#9a32cd" points="1355.59,-553.696 1345.5,-556.943 1355.41,-560.694 1355.59,-553.696"/>
<text text-anchor="middle" x="1428" y="-572" font-family="FreeSans" font-size="10.00"> elements</text>
</g>
<!-- Node29 -->
<g id="node69" class="node"><title>Node29</title>
<a xlink:title="STL class.">
<polygon fill="none" stroke="#bfbfbf" points="918,-485 918,-505 1028,-505 1028,-485 918,-485"/>
<text text-anchor="middle" x="973" y="-492" font-family="FreeSans" font-size="10.00">std::vector&lt; Sound * &gt;</text>
</a>
</g>
<!-- Node29&#45;&gt;Node28 -->
<g id="edge82" class="edge"><title>Node29&#45;&gt;Node28</title>
<path fill="none" stroke="midnightblue" d="M1031.94,-507.061C1088.79,-518.693 1173.83,-536.094 1227.05,-546.984"/>
<polygon fill="midnightblue" stroke="midnightblue" points="1032.52,-503.606 1022.02,-505.03 1031.11,-510.464 1032.52,-503.606"/>
</g>
<!-- Node30 -->
<g id="node71" class="node"><title>Node30</title>
<polygon fill="none" stroke="#bfbfbf" points="676.5,-465 676.5,-485 705.5,-485 705.5,-465 676.5,-465"/>
<text text-anchor="middle" x="691" y="-472" font-family="FreeSans" font-size="10.00">T</text>
</g>
<!-- Node30&#45;&gt;Node29 -->
<g id="edge84" class="edge"><title>Node30&#45;&gt;Node29</title>
<path fill="none" stroke="#9a32cd" stroke-dasharray="5,2" d="M715.797,-476.759C760.753,-479.947 856.713,-486.753 917.868,-491.09"/>
<polygon fill="#9a32cd" stroke="#9a32cd" points="715.987,-473.263 705.764,-476.047 715.492,-480.246 715.987,-473.263"/>
<text text-anchor="middle" x="842" y="-492" font-family="FreeSans" font-size="10.00"> elements</text>
</g>
<!-- Node35 -->
<g id="node85" class="node"><title>Node35</title>
<a xlink:title="STL class.">
<polygon fill="none" stroke="#bfbfbf" points="1062.5,-453 1062.5,-473 1187.5,-473 1187.5,-453 1062.5,-453"/>
<text text-anchor="middle" x="1125" y="-460" font-family="FreeSans" font-size="10.00">std::list&lt; Audio::Sound * &gt;</text>
</a>
</g>
<!-- Node30&#45;&gt;Node35 -->
<g id="edge104" class="edge"><title>Node30&#45;&gt;Node35</title>
<path fill="none" stroke="#9a32cd" stroke-dasharray="5,2" d="M715.973,-473.049C738.054,-471.407 771.148,-469.148 800,-468 891.204,-464.372 996.901,-463.333 1062.37,-463.059"/>
<polygon fill="#9a32cd" stroke="#9a32cd" points="715.504,-469.574 705.798,-473.82 716.034,-476.554 715.504,-469.574"/>
<text text-anchor="middle" x="842" y="-471" font-family="FreeSans" font-size="10.00"> elements</text>
</g>
<!-- Node31 -->
<g id="node74" class="node"><title>Node31</title>
<polygon fill="none" stroke="#bfbfbf" points="2182.5,-578 2182.5,-610 2275.5,-610 2275.5,-578 2182.5,-578"/>
<text text-anchor="start" x="2190.5" y="-597" font-family="FreeSans" font-size="10.00">std::vector&lt; Audio</text>
<text text-anchor="middle" x="2229" y="-585" font-family="FreeSans" font-size="10.00">::Sound * &gt;</text>
</g>
<!-- Node31&#45;&gt;Node4 -->
<g id="edge88" class="edge"><title>Node31&#45;&gt;Node4</title>
<path fill="none" stroke="#9a32cd" stroke-dasharray="5,2" d="M2172.13,-595.152C2102.37,-596.374 1980.47,-597.887 1876,-596 1870.09,-595.893 1863.94,-595.744 1857.79,-595.568"/>
<polygon fill="#9a32cd" stroke="#9a32cd" points="2172.52,-598.646 2182.46,-594.967 2172.39,-591.647 2172.52,-598.646"/>
<text text-anchor="middle" x="2012" y="-635" font-family="FreeSans" font-size="10.00"> AmbientSounds</text>
<text text-anchor="middle" x="2012" y="-623" font-family="FreeSans" font-size="10.00">MusicSounds</text>
<text text-anchor="middle" x="2012" y="-611" font-family="FreeSans" font-size="10.00">DialogSounds</text>
<text text-anchor="middle" x="2012" y="-599" font-family="FreeSans" font-size="10.00">EffectSounds</text>
</g>
<!-- Node32&#45;&gt;Node31 -->
<g id="edge90" class="edge"><title>Node32&#45;&gt;Node31</title>
<path fill="none" stroke="#9a32cd" stroke-dasharray="5,2" d="M2055.27,-535.066C2061.56,-537.022 2067.96,-539.041 2074,-541 2110.93,-552.969 2152.54,-567.242 2183.35,-577.96"/>
<polygon fill="#9a32cd" stroke="#9a32cd" points="2056.11,-531.663 2045.53,-532.059 2054.05,-538.352 2056.11,-531.663"/>
<text text-anchor="middle" x="2114" y="-563" font-family="FreeSans" font-size="10.00"> elements</text>
</g>
<!-- Node33 -->
<g id="node80" class="node"><title>Node33</title>
<a xlink:href="classMezzanine_1_1Audio_1_1MusicPlayer.xhtml" target="_top" xlink:title="This is a convenience class for the playing of music in a game.">
<polygon fill="none" stroke="black" points="2154.5,-463 2154.5,-483 2303.5,-483 2303.5,-463 2154.5,-463"/>
<text text-anchor="middle" x="2229" y="-470" font-family="FreeSans" font-size="10.00">Mezzanine::Audio::MusicPlayer</text>
</a>
</g>
<!-- Node32&#45;&gt;Node33 -->
<g id="edge98" class="edge"><title>Node32&#45;&gt;Node33</title>
<path fill="none" stroke="#9a32cd" stroke-dasharray="5,2" d="M2066.42,-509.711C2102.93,-501.468 2150.41,-490.746 2184.62,-483.021"/>
<polygon fill="#9a32cd" stroke="#9a32cd" points="2065.42,-506.349 2056.44,-511.966 2066.96,-513.177 2065.42,-506.349"/>
<text text-anchor="middle" x="2114" y="-506" font-family="FreeSans" font-size="10.00"> CurrSong</text>
</g>
<!-- Node32&#45;&gt;Node36 -->
<g id="edge110" class="edge"><title>Node32&#45;&gt;Node36</title>
<path fill="none" stroke="#9a32cd" stroke-dasharray="5,2" d="M2068.43,-536.929C2070.38,-538.179 2072.25,-539.533 2074,-541 2087.42,-552.223 2081.4,-562.086 2092,-576 2126.37,-621.11 2178,-663.586 2207.08,-685.84"/>
<polygon fill="#9a32cd" stroke="#9a32cd" points="2069.91,-533.749 2059.44,-532.093 2066.59,-539.913 2069.91,-533.749"/>
<text text-anchor="middle" x="2114" y="-624" font-family="FreeSans" font-size="10.00"> elements</text>
</g>
<!-- Node33&#45;&gt;Node4 -->
<g id="edge96" class="edge"><title>Node33&#45;&gt;Node4</title>
<path fill="none" stroke="#9a32cd" stroke-dasharray="5,2" d="M2144.21,-470.497C2088.26,-470.782 2013.79,-474.877 1950,-491 1886.97,-506.93 1826.6,-560.225 1803.2,-582.78"/>
<polygon fill="#9a32cd" stroke="#9a32cd" points="2144.44,-473.997 2154.43,-470.487 2144.43,-466.997 2144.44,-473.997"/>
<text text-anchor="middle" x="2012" y="-494" font-family="FreeSans" font-size="10.00"> MusicPlayer</text>
</g>
<!-- Node34 -->
<g id="node83" class="node"><title>Node34</title>
<a xlink:href="classMezzanine_1_1Audio_1_1Playlist.xhtml" target="_top" xlink:title="This class is a list of sounds with common playlist features.">
<polygon fill="none" stroke="black" points="1364.5,-503 1364.5,-523 1491.5,-523 1491.5,-503 1364.5,-503"/>
<text text-anchor="middle" x="1428" y="-510" font-family="FreeSans" font-size="10.00">Mezzanine::Audio::Playlist</text>
</a>
</g>
<!-- Node34&#45;&gt;Node33 -->
<g id="edge100" class="edge"><title>Node34&#45;&gt;Node33</title>
<path fill="none" stroke="#9a32cd" stroke-dasharray="5,2" d="M1475.37,-500.047C1480.99,-498.401 1486.64,-496.698 1492,-495 1578.71,-467.563 1594.05,-427 1685,-427 1685,-427 1685,-427 2012,-427 2080.74,-427 2159.12,-449.364 2200.28,-462.905"/>
<polygon fill="#9a32cd" stroke="#9a32cd" points="1473.99,-496.804 1465.35,-502.934 1475.93,-503.531 1473.99,-496.804"/>
<text text-anchor="middle" x="1793" y="-430" font-family="FreeSans" font-size="10.00"> MusicPlaylist</text>
</g>
<!-- Node35&#45;&gt;Node34 -->
<g id="edge102" class="edge"><title>Node35&#45;&gt;Node34</title>
<path fill="none" stroke="midnightblue" d="M1196.09,-474.732C1248.05,-483.305 1317.76,-494.808 1367.15,-502.958"/>
<polygon fill="midnightblue" stroke="midnightblue" points="1196.39,-471.233 1185.95,-473.058 1195.25,-478.14 1196.39,-471.233"/>
</g>
<!-- Node36&#45;&gt;Node4 -->
<g id="edge108" class="edge"><title>Node36&#45;&gt;Node4</title>
<path fill="none" stroke="#9a32cd" stroke-dasharray="5,2" d="M2161.04,-691.695C2104.15,-682.391 2021.1,-667.224 1950,-648 1902.46,-635.147 1848.61,-615.018 1817.93,-603.006"/>
<polygon fill="#9a32cd" stroke="#9a32cd" points="2160.57,-695.163 2171,-693.307 2161.68,-688.253 2160.57,-695.163"/>
<text text-anchor="middle" x="2012" y="-678" font-family="FreeSans" font-size="10.00"> Sounds</text>
</g>
</g>
</svg>
        <g id="navigator" transform="translate(0 0)" fill="#404254">
                <rect fill="#f2f5e9" fill-opacity="0.5" stroke="#606060" stroke-width=".5" x="0" y="0" width="60" height="60"/>
                <use id="zoomplus" xlink:href="#zoomPlus" x="17" y="9" onmousedown="handleZoom(evt,'in')"/>
                <use id="zoomminus" xlink:href="#zoomMin" x="42" y="9" onmousedown="handleZoom(evt,'out')"/>
                <use id="reset" xlink:href="#resetDef" x="30" y="36" onmousedown="handleReset()"/>
                <g id="arrowUp" xlink:href="#dirArrow" transform="translate(30 24)" onmousedown="handlePan(0,-1)">
                  <use xlink:href="#rim" fill="#404040">
                        <set attributeName="fill" to="#808080" begin="arrowUp.mouseover" end="arrowUp.mouseout"/>
                  </use>
                  <path fill="none" stroke="white" stroke-width="1.5" d="M0,-3.0v7 M-2.5,-0.5L0,-3.0L2.5,-0.5"/>
                </g>
                <g id="arrowRight" xlink:href="#dirArrow" transform="rotate(90) translate(36 -43)" onmousedown="handlePan(1,0)">
                  <use xlink:href="#rim" fill="#404040">
                        <set attributeName="fill" to="#808080" begin="arrowRight.mouseover" end="arrowRight.mouseout"/>
                  </use>
                  <path fill="none" stroke="white" stroke-width="1.5" d="M0,-3.0v7 M-2.5,-0.5L0,-3.0L2.5,-0.5"/>
                </g>
                <g id="arrowDown" xlink:href="#dirArrow" transform="rotate(180) translate(-30 -48)" onmousedown="handlePan(0,1)">
                  <use xlink:href="#rim" fill="#404040">
                        <set attributeName="fill" to="#808080" begin="arrowDown.mouseover" end="arrowDown.mouseout"/>
                  </use>
                  <path fill="none" stroke="white" stroke-width="1.5" d="M0,-3.0v7 M-2.5,-0.5L0,-3.0L2.5,-0.5"/>
                </g>
                <g id="arrowLeft" xlink:href="#dirArrow" transform="rotate(270) translate(-36 17)" onmousedown="handlePan(-1,0)">
                  <use xlink:href="#rim" fill="#404040">
                        <set attributeName="fill" to="#808080" begin="arrowLeft.mouseover" end="arrowLeft.mouseout"/>
                  </use>
                  <path fill="none" stroke="white" stroke-width="1.5" d="M0,-3.0v7 M-2.5,-0.5L0,-3.0L2.5,-0.5"/>
                </g>
        </g>
        <svg viewBox="0 0 15 15" width="100%" height="30px" preserveAspectRatio="xMaxYMin meet">
         <g id="arrow_out" transform="scale(0.3 0.3)">
          <a xlink:href="classMezzanine_1_1AudioManagerInternalData__coll__graph_org.svg" target="_base">
           <rect id="button" ry="5" rx="5" y="6" x="6" height="38" width="38"
                fill="#f2f5e9" fill-opacity="0.5" stroke="#606060" stroke-width="1.0"/>
           <path id="arrow"
             d="M 11.500037,31.436501 C 11.940474,20.09759 22.043105,11.32322 32.158766,21.979434 L 37.068811,17.246167 C 37.068811,17.246167 37.088388,32 37.088388,32 L 22.160133,31.978069 C 22.160133,31.978069 26.997745,27.140456 26.997745,27.140456 C 18.528582,18.264221 13.291696,25.230495 11.500037,31.436501 z"
             style="fill:#404040;"/>
          </a>
         </g>
        </svg>
</svg>
