<?xml version="1.0" encoding="UTF-8" standalone="no"?>
<!DOCTYPE svg PUBLIC "-//W3C//DTD SVG 1.1//EN"
 "http://www.w3.org/Graphics/SVG/1.1/DTD/svg11.dtd">
<!-- Generated by graphviz version 2.26.3 (20100126.1600)
 -->
<!-- Title: Mezzanine::NonStaticWorldObject Pages: 1 -->
<svg width="1164pt" height="522pt"
 viewBox="0.00 0.00 1164.00 522.00" xmlns="http://www.w3.org/2000/svg" xmlns:xlink="http://www.w3.org/1999/xlink">
<g id="graph1" class="graph" transform="scale(1 1) rotate(0) translate(4 518)">
<title>Mezzanine::NonStaticWorldObject</title>
<polygon fill="white" stroke="white" points="-4,5 -4,-518 1161,-518 1161,5 -4,5"/>
<!-- Node1 -->
<g id="node1" class="node"><title>Node1</title>
<polygon fill="#bfbfbf" stroke="black" points="780,-249 780,-281 914,-281 914,-249 780,-249"/>
<text text-anchor="start" x="788" y="-268" font-family="FreeSans" font-size="10.00">Mezzanine::NonStaticWorld</text>
<text text-anchor="middle" x="847" y="-256" font-family="FreeSans" font-size="10.00">Object</text>
</g>
<!-- Node2 -->
<g id="node2" class="node"><title>Node2</title>
<a xlink:href="classMezzanine_1_1WorldObject.xhtml" target="_top" xlink:title="This is the base class from which classes that are insertable into the physical world.">
<polygon fill="white" stroke="black" points="507,-371 507,-391 627,-391 627,-371 507,-371"/>
<text text-anchor="middle" x="567" y="-378" font-family="FreeSans" font-size="10.00">Mezzanine::WorldObject</text>
</a>
</g>
<!-- Node2&#45;&gt;Node1 -->
<g id="edge2" class="edge"><title>Node2&#45;&gt;Node1</title>
<path fill="none" stroke="midnightblue" d="M594.693,-365.466C608.932,-356.474 625.807,-344.144 638,-330 649.421,-316.751 641.823,-305.246 656,-295 691.503,-269.342 740.443,-262.048 779.895,-261.062"/>
<polygon fill="midnightblue" stroke="midnightblue" points="592.518,-362.692 585.793,-370.878 596.155,-368.673 592.518,-362.692"/>
</g>
<!-- Node6 -->
<g id="node10" class="node"><title>Node6</title>
<a xlink:href="classMezzanine_1_1WorldObjectPhysicsSettings.xhtml" target="_top" xlink:title="This is a base helper class for configuring physics settings of a world object.">
<polygon fill="white" stroke="black" points="770.5,-454 770.5,-486 923.5,-486 923.5,-454 770.5,-454"/>
<text text-anchor="start" x="778.5" y="-473" font-family="FreeSans" font-size="10.00">Mezzanine::WorldObjectPhysics</text>
<text text-anchor="middle" x="847" y="-461" font-family="FreeSans" font-size="10.00">Settings</text>
</a>
</g>
<!-- Node2&#45;&gt;Node6 -->
<g id="edge12" class="edge"><title>Node2&#45;&gt;Node6</title>
<path fill="none" stroke="#9a32cd" stroke-dasharray="5,2" d="M583.9,-398.177C600.625,-414.013 627.754,-436.719 656,-448 676.459,-456.171 726.6,-461.765 770.375,-465.267"/>
<polygon fill="#9a32cd" stroke="#9a32cd" points="586.172,-395.504 576.566,-391.035 581.288,-400.519 586.172,-395.504"/>
<text text-anchor="middle" x="703" y="-466" font-family="FreeSans" font-size="10.00"> Parent</text>
</g>
<!-- Node11 -->
<g id="node22" class="node"><title>Node11</title>
<a xlink:href="classMezzanine_1_1Physics_1_1Collision.xhtml" target="_top" xlink:title="This is an event class used to track collsions in the physics world.">
<polygon fill="white" stroke="black" points="797,-192 797,-224 897,-224 897,-192 797,-192"/>
<text text-anchor="start" x="805" y="-211" font-family="FreeSans" font-size="10.00">Mezzanine::Physics</text>
<text text-anchor="middle" x="847" y="-199" font-family="FreeSans" font-size="10.00">::Collision</text>
</a>
</g>
<!-- Node2&#45;&gt;Node11 -->
<g id="edge28" class="edge"><title>Node2&#45;&gt;Node11</title>
<path fill="none" stroke="#9a32cd" stroke-dasharray="5,2" d="M598.213,-365.709C612.502,-357.142 628.362,-345.117 638,-330 661.102,-293.764 624.91,-264.667 656,-235 692.948,-199.742 753.655,-196.91 796.702,-200.382"/>
<polygon fill="#9a32cd" stroke="#9a32cd" points="596.118,-362.873 589.132,-370.838 599.561,-368.968 596.118,-362.873"/>
<text text-anchor="middle" x="703" y="-250" font-family="FreeSans" font-size="10.00"> ObjectA</text>
<text text-anchor="middle" x="703" y="-238" font-family="FreeSans" font-size="10.00">ObjectB</text>
</g>
<!-- Node13 -->
<g id="node27" class="node"><title>Node13</title>
<a xlink:href="classMezzanine_1_1WorldObjectGraphicsSettings.xhtml" target="_top" xlink:title="This is a helper class for configuring graphics settings of a World Object.">
<polygon fill="white" stroke="black" points="768,-324 768,-356 926,-356 926,-324 768,-324"/>
<text text-anchor="start" x="776" y="-343" font-family="FreeSans" font-size="10.00">Mezzanine::WorldObjectGraphics</text>
<text text-anchor="middle" x="847" y="-331" font-family="FreeSans" font-size="10.00">Settings</text>
</a>
</g>
<!-- Node2&#45;&gt;Node13 -->
<g id="edge32" class="edge"><title>Node2&#45;&gt;Node13</title>
<path fill="none" stroke="#9a32cd" stroke-dasharray="5,2" d="M637.203,-370.72C676.944,-364.901 726.766,-357.606 767.886,-351.585"/>
<polygon fill="#9a32cd" stroke="#9a32cd" points="636.454,-367.292 627.067,-372.204 637.469,-374.219 636.454,-367.292"/>
<text text-anchor="middle" x="703" y="-370" font-family="FreeSans" font-size="10.00"> Parent</text>
</g>
<!-- Node3 -->
<g id="node4" class="node"><title>Node3</title>
<a xlink:href="classMezzanine_1_1Audio_1_1SoundSet.xhtml" target="_top" xlink:title="This is a vector that stores sounds.">
<polygon fill="white" stroke="black" points="256.5,-371 256.5,-391 395.5,-391 395.5,-371 256.5,-371"/>
<text text-anchor="middle" x="326" y="-378" font-family="FreeSans" font-size="10.00">Mezzanine::Audio::SoundSet</text>
</a>
</g>
<!-- Node3&#45;&gt;Node2 -->
<g id="edge4" class="edge"><title>Node3&#45;&gt;Node2</title>
<path fill="none" stroke="#9a32cd" stroke-dasharray="5,2" d="M405.773,-381C438.723,-381 476.278,-381 506.848,-381"/>
<polygon fill="#9a32cd" stroke="#9a32cd" points="405.707,-377.5 395.707,-381 405.707,-384.5 405.707,-377.5"/>
<text text-anchor="middle" x="446" y="-384" font-family="FreeSans" font-size="10.00"> ObjectSounds</text>
</g>
<!-- Node4 -->
<g id="node6" class="node"><title>Node4</title>
<a xlink:title="STL class.">
<polygon fill="white" stroke="#bfbfbf" points="108,-371 108,-391 218,-391 218,-371 108,-371"/>
<text text-anchor="middle" x="163" y="-378" font-family="FreeSans" font-size="10.00">std::vector&lt; Sound * &gt;</text>
</a>
</g>
<!-- Node4&#45;&gt;Node3 -->
<g id="edge6" class="edge"><title>Node4&#45;&gt;Node3</title>
<path fill="none" stroke="midnightblue" d="M228.435,-381C237.644,-381 247.139,-381 256.423,-381"/>
<polygon fill="midnightblue" stroke="midnightblue" points="228.184,-377.5 218.184,-381 228.184,-384.5 228.184,-377.5"/>
</g>
<!-- Node5 -->
<g id="node8" class="node"><title>Node5</title>
<polygon fill="white" stroke="#bfbfbf" points="0.5,-371 0.5,-391 29.5,-391 29.5,-371 0.5,-371"/>
<text text-anchor="middle" x="15" y="-378" font-family="FreeSans" font-size="10.00">T</text>
</g>
<!-- Node5&#45;&gt;Node4 -->
<g id="edge8" class="edge"><title>Node5&#45;&gt;Node4</title>
<path fill="none" stroke="#9a32cd" stroke-dasharray="5,2" d="M39.9456,-381C58.4506,-381 84.4027,-381 107.706,-381"/>
<polygon fill="#9a32cd" stroke="#9a32cd" points="39.7319,-377.5 29.7319,-381 39.7318,-384.5 39.7319,-377.5"/>
<text text-anchor="middle" x="69" y="-384" font-family="FreeSans" font-size="10.00"> elements</text>
</g>
<!-- Node6&#45;&gt;Node2 -->
<g id="edge10" class="edge"><title>Node6&#45;&gt;Node2</title>
<path fill="none" stroke="#9a32cd" stroke-dasharray="5,2" d="M794.191,-450.445C779.936,-445.453 764.455,-440.291 750,-436 708.768,-423.761 697.183,-425.404 656,-413 634.461,-406.512 610.486,-397.804 592.852,-391.11"/>
<polygon fill="#9a32cd" stroke="#9a32cd" points="793.241,-453.821 803.836,-453.86 795.578,-447.223 793.241,-453.821"/>
<text text-anchor="middle" x="703" y="-439" font-family="FreeSans" font-size="10.00"> PhysicsSettings</text>
</g>
<!-- Node7 -->
<g id="node13" class="node"><title>Node7</title>
<a xlink:href="classMezzanine_1_1Physics_1_1CollisionShape.xhtml" target="_top" xlink:title="This is the base class for all collision shapes.">
<polygon fill="white" stroke="black" points="517,-482 517,-514 617,-514 617,-482 517,-482"/>
<text text-anchor="start" x="525" y="-501" font-family="FreeSans" font-size="10.00">Mezzanine::Physics</text>
<text text-anchor="middle" x="567" y="-489" font-family="FreeSans" font-size="10.00">::CollisionShape</text>
</a>
</g>
<!-- Node7&#45;&gt;Node6 -->
<g id="edge14" class="edge"><title>Node7&#45;&gt;Node6</title>
<path fill="none" stroke="#9a32cd" stroke-dasharray="5,2" d="M627.419,-493.832C663.12,-491.174 709.183,-487.405 750,-483 756.588,-482.289 763.42,-481.493 770.269,-480.654"/>
<polygon fill="#9a32cd" stroke="#9a32cd" points="626.88,-490.362 617.164,-494.587 627.394,-497.344 626.88,-490.362"/>
<text text-anchor="middle" x="703" y="-494" font-family="FreeSans" font-size="10.00"> WorldObjectShape</text>
</g>
<!-- Node8 -->
<g id="node15" class="node"><title>Node8</title>
<a xlink:title="STL class.">
<polygon fill="white" stroke="#bfbfbf" points="297.5,-428 297.5,-448 354.5,-448 354.5,-428 297.5,-428"/>
<text text-anchor="middle" x="326" y="-435" font-family="FreeSans" font-size="10.00">std::string</text>
</a>
</g>
<!-- Node8&#45;&gt;Node2 -->
<g id="edge20" class="edge"><title>Node8&#45;&gt;Node2</title>
<path fill="none" stroke="#9a32cd" stroke-dasharray="5,2" d="M364.559,-428.88C408.306,-418.533 479.433,-401.711 524.68,-391.009"/>
<polygon fill="#9a32cd" stroke="#9a32cd" points="363.518,-425.53 354.592,-431.238 365.129,-432.342 363.518,-425.53"/>
<text text-anchor="middle" x="446" y="-419" font-family="FreeSans" font-size="10.00"> Name</text>
</g>
<!-- Node8&#45;&gt;Node7 -->
<g id="edge16" class="edge"><title>Node8&#45;&gt;Node7</title>
<path fill="none" stroke="#9a32cd" stroke-dasharray="5,2" d="M364.522,-447.591C405.751,-457.855 471.327,-474.181 516.625,-485.459"/>
<polygon fill="#9a32cd" stroke="#9a32cd" points="365.142,-444.138 354.592,-445.118 363.45,-450.931 365.142,-444.138"/>
<text text-anchor="middle" x="446" y="-478" font-family="FreeSans" font-size="10.00"> Name</text>
</g>
<!-- Node9 -->
<g id="node17" class="node"><title>Node9</title>
<a xlink:title="STL class.">
<polygon fill="white" stroke="#bfbfbf" points="117.5,-422 117.5,-454 208.5,-454 208.5,-422 117.5,-422"/>
<text text-anchor="start" x="125.5" y="-441" font-family="FreeSans" font-size="10.00">std::basic_string&lt;</text>
<text text-anchor="middle" x="163" y="-429" font-family="FreeSans" font-size="10.00"> char &gt;</text>
</a>
</g>
<!-- Node9&#45;&gt;Node8 -->
<g id="edge18" class="edge"><title>Node9&#45;&gt;Node8</title>
<path fill="none" stroke="midnightblue" d="M219.103,-438C245.478,-438 275.795,-438 297.39,-438"/>
<polygon fill="midnightblue" stroke="midnightblue" points="218.838,-434.5 208.838,-438 218.838,-441.5 218.838,-434.5"/>
</g>
<!-- Node10 -->
<g id="node20" class="node"><title>Node10</title>
<polygon fill="white" stroke="#bfbfbf" points="1035,-330 1035,-362 1125,-362 1125,-330 1035,-330"/>
<text text-anchor="start" x="1043" y="-349" font-family="FreeSans" font-size="10.00">std::set&lt; Physics:</text>
<text text-anchor="middle" x="1080" y="-337" font-family="FreeSans" font-size="10.00">:Collision * &gt;</text>
</g>
<!-- Node10&#45;&gt;Node2 -->
<g id="edge22" class="edge"><title>Node10&#45;&gt;Node2</title>
<path fill="none" stroke="#9a32cd" stroke-dasharray="5,2" d="M1024.83,-353.089C995.494,-356.787 958.806,-361.299 926,-365 847.865,-373.815 828.528,-378.995 750,-383 708.276,-385.128 697.775,-383.469 656,-383 646.727,-382.896 636.912,-382.731 627.319,-382.539"/>
<polygon fill="#9a32cd" stroke="#9a32cd" points="1025.4,-356.545 1034.88,-351.818 1024.52,-349.601 1025.4,-356.545"/>
<text text-anchor="middle" x="847" y="-384" font-family="FreeSans" font-size="10.00"> CurrentCollisions</text>
</g>
<!-- Node11&#45;&gt;Node10 -->
<g id="edge24" class="edge"><title>Node11&#45;&gt;Node10</title>
<path fill="none" stroke="#9a32cd" stroke-dasharray="5,2" d="M901.139,-228.094C909.603,-231.757 918.143,-235.77 926,-240 976.585,-267.232 1030.84,-307.48 1059.51,-329.727"/>
<polygon fill="#9a32cd" stroke="#9a32cd" points="902.231,-224.756 891.655,-224.114 899.522,-231.211 902.231,-224.756"/>
<text text-anchor="middle" x="965" y="-277" font-family="FreeSans" font-size="10.00"> keys</text>
</g>
<!-- Node12 -->
<g id="node24" class="node"><title>Node12</title>
<polygon fill="white" stroke="#bfbfbf" points="519,-163 519,-183 615,-183 615,-163 519,-163"/>
<text text-anchor="middle" x="567" y="-170" font-family="FreeSans" font-size="10.00">std::vector&lt; Real &gt;</text>
</g>
<!-- Node12&#45;&gt;Node11 -->
<g id="edge26" class="edge"><title>Node12&#45;&gt;Node11</title>
<path fill="none" stroke="#9a32cd" stroke-dasharray="5,2" d="M625.523,-168.427C661.659,-166.809 708.827,-166.877 750,-174 770.573,-177.559 792.602,-184.967 810.459,-191.962"/>
<polygon fill="#9a32cd" stroke="#9a32cd" points="624.971,-164.95 615.161,-168.95 625.325,-171.941 624.971,-164.95"/>
<text text-anchor="middle" x="703" y="-177" font-family="FreeSans" font-size="10.00"> PenetrationDistances</text>
</g>
<!-- Node13&#45;&gt;Node2 -->
<g id="edge30" class="edge"><title>Node13&#45;&gt;Node2</title>
<path fill="none" stroke="#9a32cd" stroke-dasharray="5,2" d="M757.352,-332.833C725.081,-332.252 688.603,-333.921 656,-341 629.347,-346.787 601.017,-361.116 583.661,-370.954"/>
<polygon fill="#9a32cd" stroke="#9a32cd" points="757.586,-336.34 767.672,-333.097 757.765,-329.343 757.586,-336.34"/>
<text text-anchor="middle" x="703" y="-344" font-family="FreeSans" font-size="10.00"> GraphicsSettings</text>
</g>
<!-- Node14 -->
<g id="node30" class="node"><title>Node14</title>
<a xlink:href="classMezzanine_1_1Graphics_1_1Mesh.xhtml" target="_top" xlink:title="This class is used to check and modify the properties of a graphics mesh.">
<polygon fill="white" stroke="black" points="514.5,-289 514.5,-321 619.5,-321 619.5,-289 514.5,-289"/>
<text text-anchor="start" x="522.5" y="-308" font-family="FreeSans" font-size="10.00">Mezzanine::Graphics</text>
<text text-anchor="middle" x="567" y="-296" font-family="FreeSans" font-size="10.00">::Mesh</text>
</a>
</g>
<!-- Node14&#45;&gt;Node13 -->
<g id="edge34" class="edge"><title>Node14&#45;&gt;Node13</title>
<path fill="none" stroke="#9a32cd" stroke-dasharray="5,2" d="M630.08,-300.234C665.566,-298.827 710.536,-299.173 750,-306 770.573,-309.559 792.602,-316.967 810.459,-323.962"/>
<polygon fill="#9a32cd" stroke="#9a32cd" points="629.694,-296.748 619.863,-300.698 630.012,-303.741 629.694,-296.748"/>
<text text-anchor="middle" x="703" y="-309" font-family="FreeSans" font-size="10.00"> WorldObjectMesh</text>
</g>
<!-- Node15 -->
<g id="node32" class="node"><title>Node15</title>
<a xlink:href="classMezzanine_1_1AttachableParent.xhtml" target="_top" xlink:title="Base class for objects that can have attachables attached to them.">
<polygon fill="white" stroke="black" points="496,-117 496,-137 638,-137 638,-117 496,-117"/>
<text text-anchor="middle" x="567" y="-124" font-family="FreeSans" font-size="10.00">Mezzanine::AttachableParent</text>
</a>
</g>
<!-- Node15&#45;&gt;Node1 -->
<g id="edge36" class="edge"><title>Node15&#45;&gt;Node1</title>
<path fill="none" stroke="midnightblue" d="M622.572,-141.671C628.355,-144.982 633.684,-149.037 638,-154 661.629,-181.175 629.808,-208.286 656,-233 673.668,-249.671 732.244,-257.718 779.918,-261.564"/>
<polygon fill="midnightblue" stroke="midnightblue" points="623.707,-138.329 613.189,-137.056 620.617,-144.611 623.707,-138.329"/>
</g>
<!-- Node18 -->
<g id="node38" class="node"><title>Node18</title>
<a xlink:href="classMezzanine_1_1AttachableChild.xhtml" target="_top" xlink:title="This class is the base class for objects that can be attached to AttachableParent.">
<polygon fill="white" stroke="black" points="779.5,-77 779.5,-97 914.5,-97 914.5,-77 779.5,-77"/>
<text text-anchor="middle" x="847" y="-84" font-family="FreeSans" font-size="10.00">Mezzanine::AttachableChild</text>
</a>
</g>
<!-- Node15&#45;&gt;Node18 -->
<g id="edge52" class="edge"><title>Node15&#45;&gt;Node18</title>
<path fill="none" stroke="#9a32cd" stroke-dasharray="5,2" d="M645.536,-115.508C649.072,-114.997 652.573,-114.493 656,-114 696.939,-108.117 742.83,-101.626 779.367,-96.4833"/>
<polygon fill="#9a32cd" stroke="#9a32cd" points="644.902,-112.063 635.507,-116.961 645.906,-118.991 644.902,-112.063"/>
<text text-anchor="middle" x="703" y="-117" font-family="FreeSans" font-size="10.00"> Parent</text>
</g>
<!-- Node16 -->
<g id="node34" class="node"><title>Node16</title>
<a xlink:href="classMezzanine_1_1AttachableBase.xhtml" target="_top" xlink:title="This class is the base class for other attachable classes and is responsible for transform updates to...">
<polygon fill="white" stroke="black" points="258.5,-85 258.5,-105 393.5,-105 393.5,-85 258.5,-85"/>
<text text-anchor="middle" x="326" y="-92" font-family="FreeSans" font-size="10.00">Mezzanine::AttachableBase</text>
</a>
</g>
<!-- Node16&#45;&gt;Node15 -->
<g id="edge38" class="edge"><title>Node16&#45;&gt;Node15</title>
<path fill="none" stroke="midnightblue" d="M404.052,-105.364C433.61,-109.289 467.076,-113.732 495.956,-117.567"/>
<polygon fill="midnightblue" stroke="midnightblue" points="404.147,-101.846 393.773,-103.999 403.226,-108.785 404.147,-101.846"/>
</g>
<!-- Node16&#45;&gt;Node18 -->
<g id="edge44" class="edge"><title>Node16&#45;&gt;Node18</title>
<path fill="none" stroke="midnightblue" d="M403.797,-93.8054C505.627,-92.2418 682.473,-89.5263 779.129,-88.0422"/>
<polygon fill="midnightblue" stroke="midnightblue" points="403.523,-90.3091 393.578,-93.9623 403.63,-97.3083 403.523,-90.3091"/>
</g>
<!-- Node17 -->
<g id="node36" class="node"><title>Node17</title>
<polygon fill="white" stroke="#bfbfbf" points="1004.5,-110 1004.5,-130 1155.5,-130 1155.5,-110 1004.5,-110"/>
<text text-anchor="middle" x="1080" y="-117" font-family="FreeSans" font-size="10.00">std::vector&lt; AttachableChild * &gt;</text>
</g>
<!-- Node17&#45;&gt;Node15 -->
<g id="edge40" class="edge"><title>Node17&#45;&gt;Node15</title>
<path fill="none" stroke="#9a32cd" stroke-dasharray="5,2" d="M994.213,-122.806C991.443,-122.875 988.7,-122.94 986,-123 863.817,-125.726 721.551,-126.597 638.18,-126.873"/>
<polygon fill="#9a32cd" stroke="#9a32cd" points="994.424,-126.302 1004.33,-122.541 994.24,-119.304 994.424,-126.302"/>
<text text-anchor="middle" x="847" y="-129" font-family="FreeSans" font-size="10.00"> Attached</text>
</g>
<!-- Node18&#45;&gt;Node17 -->
<g id="edge42" class="edge"><title>Node18&#45;&gt;Node17</title>
<path fill="none" stroke="#9a32cd" stroke-dasharray="5,2" d="M924.622,-97.9937C951.968,-101.867 982.541,-106.197 1009.29,-109.985"/>
<polygon fill="#9a32cd" stroke="#9a32cd" points="925.098,-94.5263 914.706,-96.5893 924.117,-101.457 925.098,-94.5263"/>
<text text-anchor="middle" x="965" y="-110" font-family="FreeSans" font-size="10.00"> elements</text>
</g>
<!-- Node19 -->
<g id="node41" class="node"><title>Node19</title>
<a xlink:href="classMezzanine_1_1Transform.xhtml" target="_top" xlink:title="Stores information about relative location and rotation in 3d space.">
<polygon fill="white" stroke="black" points="512,-32 512,-52 622,-52 622,-32 512,-32"/>
<text text-anchor="middle" x="567" y="-39" font-family="FreeSans" font-size="10.00">Mezzanine::Transform</text>
</a>
</g>
<!-- Node19&#45;&gt;Node18 -->
<g id="edge46" class="edge"><title>Node19&#45;&gt;Node18</title>
<path fill="none" stroke="#9a32cd" stroke-dasharray="5,2" d="M632.48,-42.145C667.615,-43.2609 711.491,-46.326 750,-54 775.644,-59.1104 803.821,-69.2328 823.167,-76.9262"/>
<polygon fill="#9a32cd" stroke="#9a32cd" points="632.436,-38.6426 622.344,-41.869 632.245,-45.64 632.436,-38.6426"/>
<text text-anchor="middle" x="703" y="-57" font-family="FreeSans" font-size="10.00"> LocalXform</text>
</g>
<!-- Node20 -->
<g id="node43" class="node"><title>Node20</title>
<a xlink:href="classMezzanine_1_1Vector3.xhtml" target="_top" xlink:title="This is used to represent a point in space, or a vector through space.">
<polygon fill="white" stroke="black" points="276,-38 276,-58 376,-58 376,-38 276,-38"/>
<text text-anchor="middle" x="326" y="-45" font-family="FreeSans" font-size="10.00">Mezzanine::Vector3</text>
</a>
</g>
<!-- Node20&#45;&gt;Node19 -->
<g id="edge48" class="edge"><title>Node20&#45;&gt;Node19</title>
<path fill="none" stroke="#9a32cd" stroke-dasharray="5,2" d="M386.269,-46.4995C424.771,-45.541 474.317,-44.3075 511.793,-43.3744"/>
<polygon fill="#9a32cd" stroke="#9a32cd" points="386.138,-43.0016 376.228,-46.7495 386.312,-49.9994 386.138,-43.0016"/>
<text text-anchor="middle" x="446" y="-49" font-family="FreeSans" font-size="10.00"> Location</text>
</g>
<!-- Node21 -->
<g id="node45" class="node"><title>Node21</title>
<a xlink:href="classMezzanine_1_1Quaternion.xhtml" target="_top" xlink:title="This is used to store information about rotation in 3d space.">
<polygon fill="white" stroke="black" points="269,-0 269,-20 383,-20 383,-0 269,-0"/>
<text text-anchor="middle" x="326" y="-7" font-family="FreeSans" font-size="10.00">Mezzanine::Quaternion</text>
</a>
</g>
<!-- Node21&#45;&gt;Node19 -->
<g id="edge50" class="edge"><title>Node21&#45;&gt;Node19</title>
<path fill="none" stroke="#9a32cd" stroke-dasharray="5,2" d="M392.991,-18.0706C419.484,-21.3416 450.192,-25.2315 478,-29 488.986,-30.4889 500.725,-32.1518 511.953,-33.7778"/>
<polygon fill="#9a32cd" stroke="#9a32cd" points="393.411,-14.596 383.058,-16.8489 392.556,-21.5436 393.411,-14.596"/>
<text text-anchor="middle" x="446" y="-32" font-family="FreeSans" font-size="10.00"> Rotation</text>
</g>
</g>
</svg>
