<?xml version="1.0" encoding="UTF-8" standalone="no"?>
<!DOCTYPE svg PUBLIC "-//W3C//DTD SVG 1.1//EN"
 "http://www.w3.org/Graphics/SVG/1.1/DTD/svg11.dtd">
<!-- Generated by graphviz version 2.26.3 (20100126.1600)
 -->
<!-- Title: Mezzanine::UI::Word Pages: 1 -->
<!--zoomable 263 -->
<svg id="main" version="1.1" xmlns="http://www.w3.org/2000/svg" xmlns:xlink="http://www.w3.org/1999/xlink" xml:space="preserve" onload="init(evt)">
        <defs>
                <circle id="rim" cx="0" cy="0" r="7"/>
                <circle id="rim2" cx="0" cy="0" r="3.5"/>
                <g id="zoomPlus">
                        <use xlink:href="#rim" fill="#404040">
                                <set attributeName="fill" to="#808080" begin="zoomplus.mouseover" end="zoomplus.mouseout"/>
                        </use>
                        <path d="M-4,0h8M0,-4v8" fill="none" stroke="white" stroke-width="1.5" pointer-events="none"/>
                </g>
                <g id="zoomMin">
                        <use xlink:href="#rim" fill="#404040">
                                <set attributeName="fill" to="#808080" begin="zoomminus.mouseover" end="zoomminus.mouseout"/>
                        </use>
                        <path d="M-4,0h8" fill="none" stroke="white" stroke-width="1.5" pointer-events="none"/>
                </g>
                <g id="dirArrow">
                        <path fill="none" stroke="white" stroke-width="1.5" d="M0,-3.0v7 M-2.5,-0.5L0,-3.0L2.5,-0.5"/>
                </g>
               <g id="resetDef">
                       <use xlink:href="#rim2" fill="#404040">
                               <set attributeName="fill" to="#808080" begin="reset.mouseover" end="reset.mouseout"/>
                       </use>
               </g>
        </defs>

<script type="text/javascript">
var viewWidth = 1136;
var viewHeight = 263;
var sectionId = 'dynsection-0';
</script>
<script xlink:href="svgpan.js"/>
<svg id="graph" class="graph">
<g id="viewport">
<title>Mezzanine::UI::Word</title>
<polygon fill="white" stroke="white" points="-4,5 -4,-259 1133,-259 1133,5 -4,5"/>
<!-- Node1 -->
<g id="node1" class="node"><title>Node1</title>
<polygon fill="#bfbfbf" stroke="black" points="1024,-136 1024,-156 1128,-156 1128,-136 1024,-136"/>
<text text-anchor="middle" x="1076" y="-143" font-family="FreeSans" font-size="10.00">Mezzanine::UI::Word</text>
</g>
<!-- Node2 -->
<g id="node2" class="node"><title>Node2</title>
<polygon fill="white" stroke="#bfbfbf" points="824,-130 824,-162 938,-162 938,-130 824,-130"/>
<text text-anchor="start" x="832" y="-149" font-family="FreeSans" font-size="10.00">std::vector&lt; Mezzanine</text>
<text text-anchor="middle" x="881" y="-137" font-family="FreeSans" font-size="10.00">::UI::Character * &gt;</text>
</g>
<!-- Node2&#45;&gt;Node1 -->
<g id="edge2" class="edge"><title>Node2&#45;&gt;Node1</title>
<path fill="none" stroke="#9a32cd" stroke-dasharray="5,2" d="M948.23,-146C972.968,-146 1000.59,-146 1023.81,-146"/>
<polygon fill="#9a32cd" stroke="#9a32cd" points="948.189,-142.5 938.189,-146 948.189,-149.5 948.189,-142.5"/>
<text text-anchor="middle" x="981" y="-149" font-family="FreeSans" font-size="10.00"> Characters</text>
</g>
<!-- Node3 -->
<g id="node4" class="node"><title>Node3</title>
<a xlink:href="structMezzanine_1_1UI_1_1Character.html" target="_top" xlink:title="This class creates and encapsultes a character that can be used in a Word.">
<polygon fill="white" stroke="black" points="622.5,-136 622.5,-156 745.5,-156 745.5,-136 622.5,-136"/>
<text text-anchor="middle" x="684" y="-143" font-family="FreeSans" font-size="10.00">Mezzanine::UI::Character</text>
</a>
</g>
<!-- Node3&#45;&gt;Node2 -->
<g id="edge4" class="edge"><title>Node3&#45;&gt;Node2</title>
<path fill="none" stroke="#9a32cd" stroke-dasharray="5,2" d="M755.687,-146C778.16,-146 802.648,-146 823.967,-146"/>
<polygon fill="#9a32cd" stroke="#9a32cd" points="755.522,-142.5 745.522,-146 755.522,-149.5 755.522,-142.5"/>
<text text-anchor="middle" x="785" y="-149" font-family="FreeSans" font-size="10.00"> elements</text>
</g>
<!-- Node4 -->
<g id="node6" class="node"><title>Node4</title>
<a xlink:href="classMezzanine_1_1ColourValue.html" target="_top" xlink:title="This is a simple class for holding 4 reals representing the colour any give object or lightsource can...">
<polygon fill="white" stroke="black" points="416.5,-235 416.5,-255 535.5,-255 535.5,-235 416.5,-235"/>
<text text-anchor="middle" x="476" y="-242" font-family="FreeSans" font-size="10.00">Mezzanine::ColourValue</text>
</a>
</g>
<!-- Node4&#45;&gt;Node3 -->
<g id="edge6" class="edge"><title>Node4&#45;&gt;Node3</title>
<path fill="none" stroke="#9a32cd" stroke-dasharray="5,2" d="M534.436,-232.434C556.883,-226.392 582.306,-218.02 604,-207 631.406,-193.078 658.942,-169.467 673.475,-156.069"/>
<polygon fill="#9a32cd" stroke="#9a32cd" points="533.488,-229.064 524.688,-234.965 535.246,-235.84 533.488,-229.064"/>
<text text-anchor="middle" x="579" y="-228" font-family="FreeSans" font-size="10.00"> Colour</text>
</g>
<!-- Node5 -->
<g id="node8" class="node"><title>Node5</title>
<a xlink:href="classMezzanine_1_1Vector2.html" target="_top" xlink:title="This is used to represent a point on a 2 dimentional area, such as a screen.">
<polygon fill="white" stroke="black" points="217,-144 217,-164 317,-164 317,-144 217,-144"/>
<text text-anchor="middle" x="267" y="-151" font-family="FreeSans" font-size="10.00">Mezzanine::Vector2</text>
</a>
</g>
<!-- Node5&#45;&gt;Node3 -->
<g id="edge8" class="edge"><title>Node5&#45;&gt;Node3</title>
<path fill="none" stroke="#9a32cd" stroke-dasharray="5,2" d="M301.481,-167.499C314.033,-171.751 328.464,-175.887 342,-178 450.856,-194.993 580.715,-170.792 644.567,-156.005"/>
<polygon fill="#9a32cd" stroke="#9a32cd" points="302.466,-164.135 291.872,-164.101 300.133,-170.734 302.466,-164.135"/>
<text text-anchor="middle" x="476" y="-198" font-family="FreeSans" font-size="10.00"> UVs</text>
<text text-anchor="middle" x="476" y="-186" font-family="FreeSans" font-size="10.00">Positions</text>
</g>
<!-- Node6 -->
<g id="node10" class="node"><title>Node6</title>
<a xlink:href="classMezzanine_1_1UI_1_1Glyph.html" target="_top" xlink:title="Class used to describe a single glyph or character available for text operations.">
<polygon fill="white" stroke="black" points="423,-136 423,-156 529,-156 529,-136 423,-136"/>
<text text-anchor="middle" x="476" y="-143" font-family="FreeSans" font-size="10.00">Mezzanine::UI::Glyph</text>
</a>
</g>
<!-- Node5&#45;&gt;Node6 -->
<g id="edge12" class="edge"><title>Node5&#45;&gt;Node6</title>
<path fill="none" stroke="#9a32cd" stroke-dasharray="5,2" d="M327.44,-151.687C357.548,-150.534 393.63,-149.153 422.694,-148.04"/>
<polygon fill="#9a32cd" stroke="#9a32cd" points="326.919,-148.204 317.061,-152.084 327.187,-155.199 326.919,-148.204"/>
<text text-anchor="middle" x="370" y="-165" font-family="FreeSans" font-size="10.00"> AtlasCoords</text>
<text text-anchor="middle" x="370" y="-153" font-family="FreeSans" font-size="10.00">GlyphSize</text>
</g>
<!-- Node9 -->
<g id="node17" class="node"><title>Node9</title>
<a xlink:href="structMezzanine_1_1UI_1_1Sprite.html" target="_top" xlink:title="Basic class used to describe a portion of a texture to be applied to a Quad.">
<polygon fill="white" stroke="black" points="422.5,-97 422.5,-117 529.5,-117 529.5,-97 422.5,-97"/>
<text text-anchor="middle" x="476" y="-104" font-family="FreeSans" font-size="10.00">Mezzanine::UI::Sprite</text>
</a>
</g>
<!-- Node5&#45;&gt;Node9 -->
<g id="edge20" class="edge"><title>Node5&#45;&gt;Node9</title>
<path fill="none" stroke="#9a32cd" stroke-dasharray="5,2" d="M294.522,-139.428C308.39,-132.73 325.689,-125.327 342,-121 368,-114.103 397.681,-110.577 422.49,-108.786"/>
<polygon fill="#9a32cd" stroke="#9a32cd" points="292.916,-136.318 285.523,-143.907 296.035,-142.585 292.916,-136.318"/>
<text text-anchor="middle" x="370" y="-136" font-family="FreeSans" font-size="10.00"> AtlasCoords</text>
<text text-anchor="middle" x="370" y="-124" font-family="FreeSans" font-size="10.00">SpriteSize</text>
</g>
<!-- Node6&#45;&gt;Node3 -->
<g id="edge10" class="edge"><title>Node6&#45;&gt;Node3</title>
<path fill="none" stroke="#9a32cd" stroke-dasharray="5,2" d="M539.27,-146C565.592,-146 596.049,-146 622.213,-146"/>
<polygon fill="#9a32cd" stroke="#9a32cd" points="539.025,-142.5 529.025,-146 539.025,-149.5 539.025,-142.5"/>
<text text-anchor="middle" x="579" y="-149" font-family="FreeSans" font-size="10.00"> CharGlyph</text>
</g>
<!-- Node7 -->
<g id="node13" class="node"><title>Node7</title>
<polygon fill="white" stroke="#bfbfbf" points="210,-56 210,-88 324,-88 324,-56 210,-56"/>
<text text-anchor="start" x="218" y="-75" font-family="FreeSans" font-size="10.00">std::vector&lt; Mezzanine</text>
<text text-anchor="middle" x="267" y="-63" font-family="FreeSans" font-size="10.00">::UI::KerningInfo &gt;</text>
</g>
<!-- Node7&#45;&gt;Node6 -->
<g id="edge14" class="edge"><title>Node7&#45;&gt;Node6</title>
<path fill="none" stroke="#9a32cd" stroke-dasharray="5,2" d="M334.196,-72.7107C356.108,-75.7023 379.526,-82.1085 398,-95 411.065,-104.117 403.644,-115.942 416,-126 421.024,-130.09 426.919,-133.357 433.017,-135.963"/>
<polygon fill="#9a32cd" stroke="#9a32cd" points="334.593,-69.2334 324.258,-71.5655 333.792,-76.1874 334.593,-69.2334"/>
<text text-anchor="middle" x="370" y="-98" font-family="FreeSans" font-size="10.00"> Kernings</text>
</g>
<!-- Node8 -->
<g id="node15" class="node"><title>Node8</title>
<a xlink:href="structMezzanine_1_1UI_1_1KerningInfo.html" target="_top" xlink:title="Basic class used to describe Kerning for a given Glyph.">
<polygon fill="white" stroke="black" points="0.5,-62 0.5,-82 131.5,-82 131.5,-62 0.5,-62"/>
<text text-anchor="middle" x="66" y="-69" font-family="FreeSans" font-size="10.00">Mezzanine::UI::KerningInfo</text>
</a>
</g>
<!-- Node8&#45;&gt;Node7 -->
<g id="edge16" class="edge"><title>Node8&#45;&gt;Node7</title>
<path fill="none" stroke="#9a32cd" stroke-dasharray="5,2" d="M141.739,-72C164.252,-72 188.532,-72 209.668,-72"/>
<polygon fill="#9a32cd" stroke="#9a32cd" points="141.537,-68.5001 131.537,-72 141.537,-75.5001 141.537,-68.5001"/>
<text text-anchor="middle" x="171" y="-75" font-family="FreeSans" font-size="10.00"> elements</text>
</g>
<!-- Node9&#45;&gt;Node3 -->
<g id="edge18" class="edge"><title>Node9&#45;&gt;Node3</title>
<path fill="none" stroke="#9a32cd" stroke-dasharray="5,2" d="M539.503,-118.157C560.095,-121.843 583.031,-126.02 604,-130 613.88,-131.875 624.433,-133.941 634.526,-135.948"/>
<polygon fill="#9a32cd" stroke="#9a32cd" points="540.061,-114.701 529.602,-116.39 538.832,-121.593 540.061,-114.701"/>
<text text-anchor="middle" x="579" y="-133" font-family="FreeSans" font-size="10.00"> CharSprite</text>
</g>
<!-- Node10 -->
<g id="node20" class="node"><title>Node10</title>
<a xlink:title="STL class.">
<polygon fill="white" stroke="#bfbfbf" points="238.5,-6 238.5,-26 295.5,-26 295.5,-6 238.5,-6"/>
<text text-anchor="middle" x="267" y="-13" font-family="FreeSans" font-size="10.00">std::string</text>
</a>
</g>
<!-- Node10&#45;&gt;Node3 -->
<g id="edge26" class="edge"><title>Node10&#45;&gt;Node3</title>
<path fill="none" stroke="#9a32cd" stroke-dasharray="5,2" d="M305.897,-19.2677C332.119,-21.9048 367.382,-26.296 398,-33 460.755,-46.7406 476.15,-52.6538 536,-76 583.399,-94.4896 636.872,-121.346 664.751,-135.829"/>
<polygon fill="#9a32cd" stroke="#9a32cd" points="305.899,-15.7518 295.61,-18.2762 305.228,-22.7195 305.899,-15.7518"/>
<text text-anchor="middle" x="476" y="-79" font-family="FreeSans" font-size="10.00"> Atlas</text>
</g>
<!-- Node10&#45;&gt;Node9 -->
<g id="edge22" class="edge"><title>Node10&#45;&gt;Node9</title>
<path fill="none" stroke="#9a32cd" stroke-dasharray="5,2" d="M305.349,-25.5582C331.986,-32.8509 367.951,-44.0157 398,-58 421.778,-69.0661 447.102,-86.0634 462.232,-96.851"/>
<polygon fill="#9a32cd" stroke="#9a32cd" points="306.193,-22.161 295.628,-22.9549 304.382,-28.9227 306.193,-22.161"/>
<text text-anchor="middle" x="370" y="-61" font-family="FreeSans" font-size="10.00"> Atlas</text>
</g>
<!-- Node11 -->
<g id="node22" class="node"><title>Node11</title>
<a xlink:title="STL class.">
<polygon fill="white" stroke="#bfbfbf" points="20.5,-0 20.5,-32 111.5,-32 111.5,-0 20.5,-0"/>
<text text-anchor="start" x="28.5" y="-19" font-family="FreeSans" font-size="10.00">std::basic_string&lt;</text>
<text text-anchor="middle" x="66" y="-7" font-family="FreeSans" font-size="10.00"> char &gt;</text>
</a>
</g>
<!-- Node11&#45;&gt;Node10 -->
<g id="edge24" class="edge"><title>Node11&#45;&gt;Node10</title>
<path fill="none" stroke="midnightblue" d="M121.971,-16C159.779,-16 208.127,-16 238.335,-16"/>
<polygon fill="midnightblue" stroke="midnightblue" points="121.61,-12.5001 111.61,-16 121.61,-19.5001 121.61,-12.5001"/>
</g>
</g>
</svg>
        <g id="navigator" transform="translate(0 0)" fill="#404254">
                <rect fill="#f2f5e9" fill-opacity="0.5" stroke="#606060" stroke-width=".5" x="0" y="0" width="60" height="60"/>
                <use id="zoomplus" xlink:href="#zoomPlus" x="17" y="9" onmousedown="handleZoom(evt,'in')"/>
                <use id="zoomminus" xlink:href="#zoomMin" x="42" y="9" onmousedown="handleZoom(evt,'out')"/>
                <use id="reset" xlink:href="#resetDef" x="30" y="36" onmousedown="handleReset()"/>
                <g id="arrowUp" xlink:href="#dirArrow" transform="translate(30 24)" onmousedown="handlePan(0,-1)">
                  <use xlink:href="#rim" fill="#404040">
                        <set attributeName="fill" to="#808080" begin="arrowUp.mouseover" end="arrowUp.mouseout"/>
                  </use>
                  <path fill="none" stroke="white" stroke-width="1.5" d="M0,-3.0v7 M-2.5,-0.5L0,-3.0L2.5,-0.5"/>
                </g>
                <g id="arrowRight" xlink:href="#dirArrow" transform="rotate(90) translate(36 -43)" onmousedown="handlePan(1,0)">
                  <use xlink:href="#rim" fill="#404040">
                        <set attributeName="fill" to="#808080" begin="arrowRight.mouseover" end="arrowRight.mouseout"/>
                  </use>
                  <path fill="none" stroke="white" stroke-width="1.5" d="M0,-3.0v7 M-2.5,-0.5L0,-3.0L2.5,-0.5"/>
                </g>
                <g id="arrowDown" xlink:href="#dirArrow" transform="rotate(180) translate(-30 -48)" onmousedown="handlePan(0,1)">
                  <use xlink:href="#rim" fill="#404040">
                        <set attributeName="fill" to="#808080" begin="arrowDown.mouseover" end="arrowDown.mouseout"/>
                  </use>
                  <path fill="none" stroke="white" stroke-width="1.5" d="M0,-3.0v7 M-2.5,-0.5L0,-3.0L2.5,-0.5"/>
                </g>
                <g id="arrowLeft" xlink:href="#dirArrow" transform="rotate(270) translate(-36 17)" onmousedown="handlePan(-1,0)">
                  <use xlink:href="#rim" fill="#404040">
                        <set attributeName="fill" to="#808080" begin="arrowLeft.mouseover" end="arrowLeft.mouseout"/>
                  </use>
                  <path fill="none" stroke="white" stroke-width="1.5" d="M0,-3.0v7 M-2.5,-0.5L0,-3.0L2.5,-0.5"/>
                </g>
        </g>
        <svg viewBox="0 0 15 15" width="100%" height="30px" preserveAspectRatio="xMaxYMin meet">
         <g id="arrow_out" transform="scale(0.3 0.3)">
          <a xlink:href="classMezzanine_1_1UI_1_1Word__coll__graph_org.svg" target="_base">
           <rect id="button" ry="5" rx="5" y="6" x="6" height="38" width="38"
                fill="#f2f5e9" fill-opacity="0.5" stroke="#606060" stroke-width="1.0"/>
           <path id="arrow"
             d="M 11.500037,31.436501 C 11.940474,20.09759 22.043105,11.32322 32.158766,21.979434 L 37.068811,17.246167 C 37.068811,17.246167 37.088388,32 37.088388,32 L 22.160133,31.978069 C 22.160133,31.978069 26.997745,27.140456 26.997745,27.140456 C 18.528582,18.264221 13.291696,25.230495 11.500037,31.436501 z"
             style="fill:#404040;"/>
          </a>
         </g>
        </svg>
</svg>
