<?xml version="1.0" encoding="UTF-8" standalone="no"?>
<!DOCTYPE svg PUBLIC "-//W3C//DTD SVG 1.1//EN"
 "http://www.w3.org/Graphics/SVG/1.1/DTD/svg11.dtd">
<!-- Generated by graphviz version 2.26.3 (20100126.1600)
 -->
<!-- Title: Mezzanine::AttachableBase Pages: 1 -->
<!--zoomable 292 -->
<svg id="main" version="1.1" xmlns="http://www.w3.org/2000/svg" xmlns:xlink="http://www.w3.org/1999/xlink" xml:space="preserve" onload="init(evt)">
        <defs>
                <circle id="rim" cx="0" cy="0" r="7"/>
                <circle id="rim2" cx="0" cy="0" r="3.5"/>
                <g id="zoomPlus">
                        <use xlink:href="#rim" fill="#404040">
                                <set attributeName="fill" to="#808080" begin="zoomplus.mouseover" end="zoomplus.mouseout"/>
                        </use>
                        <path d="M-4,0h8M0,-4v8" fill="none" stroke="white" stroke-width="1.5" pointer-events="none"/>
                </g>
                <g id="zoomMin">
                        <use xlink:href="#rim" fill="#404040">
                                <set attributeName="fill" to="#808080" begin="zoomminus.mouseover" end="zoomminus.mouseout"/>
                        </use>
                        <path d="M-4,0h8" fill="none" stroke="white" stroke-width="1.5" pointer-events="none"/>
                </g>
                <g id="dirArrow">
                        <path fill="none" stroke="white" stroke-width="1.5" d="M0,-3.0v7 M-2.5,-0.5L0,-3.0L2.5,-0.5"/>
                </g>
               <g id="resetDef">
                       <use xlink:href="#rim2" fill="#404040">
                               <set attributeName="fill" to="#808080" begin="reset.mouseover" end="reset.mouseout"/>
                       </use>
               </g>
        </defs>

<script type="text/javascript">
var viewWidth = 860;
var viewHeight = 292;
var sectionId = 'dynsection-0';
</script>
<script xlink:href="svgpan.js"/>
<svg id="graph" class="graph">
<g id="viewport">
<title>Mezzanine::AttachableBase</title>
<polygon fill="white" stroke="white" points="-4,5 -4,-288 857,-288 857,5 -4,5"/>
<!-- Node1 -->
<g id="node1" class="node"><title>Node1</title>
<polygon fill="#bfbfbf" stroke="black" points="0.5,-106.5 0.5,-127.5 149.5,-127.5 149.5,-106.5 0.5,-106.5"/>
<text text-anchor="middle" x="75" y="-114.5" font-family="FreeSans" font-size="10.00">Mezzanine::AttachableBase</text>
</g>
<!-- Node2 -->
<g id="node3" class="node"><title>Node2</title>
<a xlink:href="classMezzanine_1_1AttachableChild.xhtml" target="_top" xlink:title="This class is the base class for objects that can be attached to AttachableParent.">
<polygon fill="white" stroke="black" points="190,-146.5 190,-167.5 338,-167.5 338,-146.5 190,-146.5"/>
<text text-anchor="middle" x="264" y="-154.5" font-family="FreeSans" font-size="10.00">Mezzanine::AttachableChild</text>
</a>
</g>
<!-- Node1&#45;&gt;Node2 -->
<g id="edge2" class="edge"><title>Node1&#45;&gt;Node2</title>
<path fill="none" stroke="midnightblue" d="M134.639,-129.622C160.287,-135.05 189.919,-141.321 214.346,-146.491"/>
<polygon fill="midnightblue" stroke="midnightblue" points="135.166,-126.156 124.658,-127.51 133.716,-133.004 135.166,-126.156"/>
</g>
<!-- Node13 -->
<g id="node25" class="node"><title>Node13</title>
<a xlink:href="classMezzanine_1_1AttachableParent.xhtml" target="_top" xlink:title="Base class for objects that can have attachables attached to them.">
<polygon fill="white" stroke="black" points="186,-66.5 186,-87.5 342,-87.5 342,-66.5 186,-66.5"/>
<text text-anchor="middle" x="264" y="-74.5" font-family="FreeSans" font-size="10.00">Mezzanine::AttachableParent</text>
</a>
</g>
<!-- Node1&#45;&gt;Node13 -->
<g id="edge24" class="edge"><title>Node1&#45;&gt;Node13</title>
<path fill="none" stroke="midnightblue" d="M134.639,-104.378C160.287,-98.9499 189.919,-92.6785 214.346,-87.5087"/>
<polygon fill="midnightblue" stroke="midnightblue" points="133.716,-100.996 124.658,-106.49 135.166,-107.844 133.716,-100.996"/>
</g>
<!-- Node3 -->
<g id="node5" class="node"><title>Node3</title>
<a xlink:href="classMezzanine_1_1AreaEffect.xhtml" target="_top" xlink:title="This class is used to define area&#39;s in the world that have unique effects.">
<polygon fill="white" stroke="black" points="560.5,-202.5 560.5,-223.5 683.5,-223.5 683.5,-202.5 560.5,-202.5"/>
<text text-anchor="middle" x="622" y="-210.5" font-family="FreeSans" font-size="10.00">Mezzanine::AreaEffect</text>
</a>
</g>
<!-- Node2&#45;&gt;Node3 -->
<g id="edge4" class="edge"><title>Node2&#45;&gt;Node3</title>
<path fill="none" stroke="midnightblue" d="M277.916,-175.636C297.248,-199.787 334.77,-240.726 378,-257 438.728,-279.861 460.55,-270.59 524,-257 553.725,-250.633 585.328,-234.536 604.366,-223.681"/>
<polygon fill="midnightblue" stroke="midnightblue" points="280.545,-173.315 271.64,-167.575 275.021,-177.616 280.545,-173.315"/>
</g>
<!-- Node8 -->
<g id="node15" class="node"><title>Node8</title>
<a xlink:href="classMezzanine_1_1Camera.xhtml" target="_top" xlink:title="This is the camera class.">
<polygon fill="white" stroke="black" points="395,-226.5 395,-247.5 507,-247.5 507,-226.5 395,-226.5"/>
<text text-anchor="middle" x="451" y="-234.5" font-family="FreeSans" font-size="10.00">Mezzanine::Camera</text>
</a>
</g>
<!-- Node2&#45;&gt;Node8 -->
<g id="edge14" class="edge"><title>Node2&#45;&gt;Node8</title>
<path fill="none" stroke="midnightblue" d="M289.871,-172.698C312.491,-185.911 346.551,-204.586 378,-217 387.045,-220.57 396.96,-223.748 406.487,-226.461"/>
<polygon fill="midnightblue" stroke="midnightblue" points="291.599,-169.654 281.209,-167.579 288.037,-175.68 291.599,-169.654"/>
</g>
<!-- Node9 -->
<g id="node17" class="node"><title>Node9</title>
<a xlink:href="classMezzanine_1_1Entity.xhtml" target="_top" xlink:title="This class is useful for representing graphical bodies without a physics representation.">
<polygon fill="white" stroke="black" points="400.5,-186.5 400.5,-207.5 501.5,-207.5 501.5,-186.5 400.5,-186.5"/>
<text text-anchor="middle" x="451" y="-194.5" font-family="FreeSans" font-size="10.00">Mezzanine::Entity</text>
</a>
</g>
<!-- Node2&#45;&gt;Node9 -->
<g id="edge16" class="edge"><title>Node2&#45;&gt;Node9</title>
<path fill="none" stroke="midnightblue" d="M323.008,-169.622C348.384,-175.05 377.703,-181.321 401.872,-186.491"/>
<polygon fill="midnightblue" stroke="midnightblue" points="323.643,-166.179 313.132,-167.51 322.179,-173.024 323.643,-166.179"/>
</g>
<!-- Node10 -->
<g id="node19" class="node"><title>Node10</title>
<a xlink:href="classMezzanine_1_1Light.xhtml" target="_top" xlink:title="This class is the class used for dynamic lighting within the scene.">
<polygon fill="white" stroke="black" points="402.5,-146.5 402.5,-167.5 499.5,-167.5 499.5,-146.5 402.5,-146.5"/>
<text text-anchor="middle" x="451" y="-154.5" font-family="FreeSans" font-size="10.00">Mezzanine::Light</text>
</a>
</g>
<!-- Node2&#45;&gt;Node10 -->
<g id="edge18" class="edge"><title>Node2&#45;&gt;Node10</title>
<path fill="none" stroke="midnightblue" d="M348.396,-157C366.915,-157 385.915,-157 402.453,-157"/>
<polygon fill="midnightblue" stroke="midnightblue" points="348.176,-153.5 338.176,-157 348.176,-160.5 348.176,-153.5"/>
</g>
<!-- Node11 -->
<g id="node21" class="node"><title>Node11</title>
<a xlink:href="classMezzanine_1_1ParticleEffect.xhtml" target="_top" xlink:title="This class is responsible for creating visual particle effects, such as rain, smoke, sparks, and explosions.">
<polygon fill="white" stroke="black" points="383.5,-106.5 383.5,-127.5 518.5,-127.5 518.5,-106.5 383.5,-106.5"/>
<text text-anchor="middle" x="451" y="-114.5" font-family="FreeSans" font-size="10.00">Mezzanine::ParticleEffect</text>
</a>
</g>
<!-- Node2&#45;&gt;Node11 -->
<g id="edge20" class="edge"><title>Node2&#45;&gt;Node11</title>
<path fill="none" stroke="midnightblue" d="M323.008,-144.378C348.384,-138.95 377.703,-132.679 401.872,-127.509"/>
<polygon fill="midnightblue" stroke="midnightblue" points="322.179,-140.976 313.132,-146.49 323.643,-147.821 322.179,-140.976"/>
</g>
<!-- Node12 -->
<g id="node23" class="node"><title>Node12</title>
<a xlink:href="classMezzanine_1_1WorldNode.xhtml" target="_top" xlink:title="This is a helper class which non&#45;physics objects, such as lights, cameras, ribbon trails...">
<polygon fill="white" stroke="black" points="388.5,-66.5 388.5,-87.5 513.5,-87.5 513.5,-66.5 388.5,-66.5"/>
<text text-anchor="middle" x="451" y="-74.5" font-family="FreeSans" font-size="10.00">Mezzanine::WorldNode</text>
</a>
</g>
<!-- Node2&#45;&gt;Node12 -->
<g id="edge22" class="edge"><title>Node2&#45;&gt;Node12</title>
<path fill="none" stroke="midnightblue" d="M289.871,-141.302C312.491,-128.089 346.551,-109.414 378,-97 387.045,-93.4298 396.96,-90.2525 406.487,-87.5392"/>
<polygon fill="midnightblue" stroke="midnightblue" points="288.037,-138.32 281.209,-146.421 291.599,-144.346 288.037,-138.32"/>
</g>
<!-- Node4 -->
<g id="node7" class="node"><title>Node4</title>
<a xlink:href="classMezzanine_1_1FieldOfForce.xhtml" target="_top" xlink:title="This is field that applies force in a direction, and doesn&#39;t tamper with gravity.">
<polygon fill="white" stroke="black" points="720.5,-262.5 720.5,-283.5 851.5,-283.5 851.5,-262.5 720.5,-262.5"/>
<text text-anchor="middle" x="786" y="-270.5" font-family="FreeSans" font-size="10.00">Mezzanine::FieldOfForce</text>
</a>
</g>
<!-- Node3&#45;&gt;Node4 -->
<g id="edge6" class="edge"><title>Node3&#45;&gt;Node4</title>
<path fill="none" stroke="midnightblue" d="M655.635,-227.636C674.41,-235.576 698.32,-245.309 720,-253 729.366,-256.322 739.596,-259.593 749.146,-262.495"/>
<polygon fill="midnightblue" stroke="midnightblue" points="656.895,-224.369 646.324,-223.668 654.151,-230.808 656.895,-224.369"/>
</g>
<!-- Node5 -->
<g id="node9" class="node"><title>Node5</title>
<a xlink:href="classMezzanine_1_1GravityField.xhtml" target="_top" xlink:title="This is a gravity field implementation of the AreaEffect class.">
<polygon fill="white" stroke="black" points="722,-222.5 722,-243.5 850,-243.5 850,-222.5 722,-222.5"/>
<text text-anchor="middle" x="786" y="-230.5" font-family="FreeSans" font-size="10.00">Mezzanine::GravityField</text>
</a>
</g>
<!-- Node3&#45;&gt;Node5 -->
<g id="edge8" class="edge"><title>Node3&#45;&gt;Node5</title>
<path fill="none" stroke="midnightblue" d="M693.65,-221.738C703.061,-222.885 712.657,-224.056 721.931,-225.187"/>
<polygon fill="midnightblue" stroke="midnightblue" points="693.884,-218.241 683.534,-220.504 693.037,-225.189 693.884,-218.241"/>
</g>
<!-- Node6 -->
<g id="node11" class="node"><title>Node6</title>
<a xlink:href="classMezzanine_1_1GravityWell.xhtml" target="_top" xlink:title="This is a gravity well implementation of the AreaEffect class.">
<polygon fill="white" stroke="black" points="723.5,-182.5 723.5,-203.5 848.5,-203.5 848.5,-182.5 723.5,-182.5"/>
<text text-anchor="middle" x="786" y="-190.5" font-family="FreeSans" font-size="10.00">Mezzanine::GravityWell</text>
</a>
</g>
<!-- Node3&#45;&gt;Node6 -->
<g id="edge10" class="edge"><title>Node3&#45;&gt;Node6</title>
<path fill="none" stroke="midnightblue" d="M693.708,-204.255C703.565,-203.053 713.623,-201.826 723.301,-200.646"/>
<polygon fill="midnightblue" stroke="midnightblue" points="693.037,-200.811 683.534,-205.496 693.884,-207.759 693.037,-200.811"/>
</g>
<!-- Node7 -->
<g id="node13" class="node"><title>Node7</title>
<a xlink:href="classMezzanine_1_1TestAE.xhtml" target="_top" xlink:title="This is a dummy class to test if the AE field works. Details will be output to the log...">
<polygon fill="white" stroke="black" points="733.5,-142.5 733.5,-163.5 838.5,-163.5 838.5,-142.5 733.5,-142.5"/>
<text text-anchor="middle" x="786" y="-150.5" font-family="FreeSans" font-size="10.00">Mezzanine::TestAE</text>
</a>
</g>
<!-- Node3&#45;&gt;Node7 -->
<g id="edge12" class="edge"><title>Node3&#45;&gt;Node7</title>
<path fill="none" stroke="midnightblue" d="M655.635,-198.364C674.41,-190.424 698.32,-180.691 720,-173 729.366,-169.678 739.596,-166.407 749.146,-163.505"/>
<polygon fill="midnightblue" stroke="midnightblue" points="654.151,-195.192 646.324,-202.332 656.895,-201.631 654.151,-195.192"/>
</g>
<!-- Node13&#45;&gt;Node12 -->
<g id="edge36" class="edge"><title>Node13&#45;&gt;Node12</title>
<path fill="none" stroke="midnightblue" d="M352.4,-77C364.571,-77 376.857,-77 388.431,-77"/>
<polygon fill="midnightblue" stroke="midnightblue" points="352.221,-73.5001 342.221,-77 352.221,-80.5001 352.221,-73.5001"/>
</g>
<!-- Node14 -->
<g id="node27" class="node"><title>Node14</title>
<a xlink:href="classMezzanine_1_1NonStaticWorldObject.xhtml" target="_top" xlink:title="This is a small extention of the WorldObject class that adds features common to non&#45;static objects...">
<polygon fill="white" stroke="black" points="378,-14 378,-48 524,-48 524,-14 378,-14"/>
<text text-anchor="start" x="386" y="-35" font-family="FreeSans" font-size="10.00">Mezzanine::NonStaticWorld</text>
<text text-anchor="middle" x="451" y="-22" font-family="FreeSans" font-size="10.00">Object</text>
</a>
</g>
<!-- Node13&#45;&gt;Node14 -->
<g id="edge26" class="edge"><title>Node13&#45;&gt;Node14</title>
<path fill="none" stroke="midnightblue" d="M316.801,-64.0116C336.906,-59.066 360.13,-53.3531 381.548,-48.0845"/>
<polygon fill="midnightblue" stroke="midnightblue" points="315.776,-60.6592 306.902,-66.4467 317.448,-67.4566 315.776,-60.6592"/>
</g>
<!-- Node14&#45;&gt;Node3 -->
<g id="edge34" class="edge"><title>Node14&#45;&gt;Node3</title>
<path fill="none" stroke="midnightblue" d="M519.092,-53.3856C520.785,-54.5334 522.426,-55.7373 524,-57 575.396,-98.2254 607.534,-174.117 618.127,-202.19"/>
<polygon fill="midnightblue" stroke="midnightblue" points="520.625,-50.2244 510.245,-48.1028 517.036,-56.2345 520.625,-50.2244"/>
</g>
<!-- Node15 -->
<g id="node29" class="node"><title>Node15</title>
<a xlink:href="classMezzanine_1_1ActorBase.xhtml" target="_top" xlink:title="This is the base class from which all the actors inherit.">
<polygon fill="white" stroke="black" points="560.5,-20.5 560.5,-41.5 683.5,-41.5 683.5,-20.5 560.5,-20.5"/>
<text text-anchor="middle" x="622" y="-28.5" font-family="FreeSans" font-size="10.00">Mezzanine::ActorBase</text>
</a>
</g>
<!-- Node14&#45;&gt;Node15 -->
<g id="edge28" class="edge"><title>Node14&#45;&gt;Node15</title>
<path fill="none" stroke="midnightblue" d="M534.261,-31C543.019,-31 551.809,-31 560.262,-31"/>
<polygon fill="midnightblue" stroke="midnightblue" points="534.015,-27.5001 524.015,-31 534.015,-34.5001 534.015,-27.5001"/>
</g>
<!-- Node16 -->
<g id="node31" class="node"><title>Node16</title>
<a xlink:href="classMezzanine_1_1ActorRigid.xhtml" target="_top" xlink:title="This is the actor class for Rigid Objects.">
<polygon fill="white" stroke="black" points="725.5,-40.5 725.5,-61.5 846.5,-61.5 846.5,-40.5 725.5,-40.5"/>
<text text-anchor="middle" x="786" y="-48.5" font-family="FreeSans" font-size="10.00">Mezzanine::ActorRigid</text>
</a>
</g>
<!-- Node15&#45;&gt;Node16 -->
<g id="edge30" class="edge"><title>Node15&#45;&gt;Node16</title>
<path fill="none" stroke="midnightblue" d="M693.626,-39.7348C704.252,-41.0307 715.114,-42.3554 725.483,-43.6199"/>
<polygon fill="midnightblue" stroke="midnightblue" points="693.884,-36.2405 683.534,-38.5042 693.037,-43.1891 693.884,-36.2405"/>
</g>
<!-- Node17 -->
<g id="node33" class="node"><title>Node17</title>
<a xlink:href="classMezzanine_1_1ActorSoft.xhtml" target="_top" xlink:title="This is the actor class for Soft Objects.">
<polygon fill="white" stroke="black" points="727,-0.5 727,-21.5 845,-21.5 845,-0.5 727,-0.5"/>
<text text-anchor="middle" x="786" y="-8.5" font-family="FreeSans" font-size="10.00">Mezzanine::ActorSoft</text>
</a>
</g>
<!-- Node15&#45;&gt;Node17 -->
<g id="edge32" class="edge"><title>Node15&#45;&gt;Node17</title>
<path fill="none" stroke="midnightblue" d="M693.624,-22.2654C704.715,-20.9129 716.063,-19.5289 726.839,-18.2147"/>
<polygon fill="midnightblue" stroke="midnightblue" points="693.037,-18.8109 683.534,-23.4958 693.884,-25.7595 693.037,-18.8109"/>
</g>
</g>
</svg>
        <g id="navigator" transform="translate(0 0)" fill="#404254">
                <rect fill="#f2f5e9" fill-opacity="0.5" stroke="#606060" stroke-width=".5" x="0" y="0" width="60" height="60"/>
                <use id="zoomplus" xlink:href="#zoomPlus" x="17" y="9" onmousedown="handleZoom(evt,'in')"/>
                <use id="zoomminus" xlink:href="#zoomMin" x="42" y="9" onmousedown="handleZoom(evt,'out')"/>
                <use id="reset" xlink:href="#resetDef" x="30" y="36" onmousedown="handleReset()"/>
                <g id="arrowUp" xlink:href="#dirArrow" transform="translate(30 24)" onmousedown="handlePan(0,-1)">
                  <use xlink:href="#rim" fill="#404040">
                        <set attributeName="fill" to="#808080" begin="arrowUp.mouseover" end="arrowUp.mouseout"/>
                  </use>
                  <path fill="none" stroke="white" stroke-width="1.5" d="M0,-3.0v7 M-2.5,-0.5L0,-3.0L2.5,-0.5"/>
                </g>
                <g id="arrowRight" xlink:href="#dirArrow" transform="rotate(90) translate(36 -43)" onmousedown="handlePan(1,0)">
                  <use xlink:href="#rim" fill="#404040">
                        <set attributeName="fill" to="#808080" begin="arrowRight.mouseover" end="arrowRight.mouseout"/>
                  </use>
                  <path fill="none" stroke="white" stroke-width="1.5" d="M0,-3.0v7 M-2.5,-0.5L0,-3.0L2.5,-0.5"/>
                </g>
                <g id="arrowDown" xlink:href="#dirArrow" transform="rotate(180) translate(-30 -48)" onmousedown="handlePan(0,1)">
                  <use xlink:href="#rim" fill="#404040">
                        <set attributeName="fill" to="#808080" begin="arrowDown.mouseover" end="arrowDown.mouseout"/>
                  </use>
                  <path fill="none" stroke="white" stroke-width="1.5" d="M0,-3.0v7 M-2.5,-0.5L0,-3.0L2.5,-0.5"/>
                </g>
                <g id="arrowLeft" xlink:href="#dirArrow" transform="rotate(270) translate(-36 17)" onmousedown="handlePan(-1,0)">
                  <use xlink:href="#rim" fill="#404040">
                        <set attributeName="fill" to="#808080" begin="arrowLeft.mouseover" end="arrowLeft.mouseout"/>
                  </use>
                  <path fill="none" stroke="white" stroke-width="1.5" d="M0,-3.0v7 M-2.5,-0.5L0,-3.0L2.5,-0.5"/>
                </g>
        </g>
        <svg viewBox="0 0 15 15" width="100%" height="30px" preserveAspectRatio="xMaxYMin meet">
         <g id="arrow_out" transform="scale(0.3 0.3)">
          <a xlink:href="classMezzanine_1_1AttachableBase__inherit__graph_org.svg" target="_base">
           <rect id="button" ry="5" rx="5" y="6" x="6" height="38" width="38"
                fill="#f2f5e9" fill-opacity="0.5" stroke="#606060" stroke-width="1.0"/>
           <path id="arrow"
             d="M 11.500037,31.436501 C 11.940474,20.09759 22.043105,11.32322 32.158766,21.979434 L 37.068811,17.246167 C 37.068811,17.246167 37.088388,32 37.088388,32 L 22.160133,31.978069 C 22.160133,31.978069 26.997745,27.140456 26.997745,27.140456 C 18.528582,18.264221 13.291696,25.230495 11.500037,31.436501 z"
             style="fill:#404040;"/>
          </a>
         </g>
        </svg>
</svg>
