<?xml version="1.0" encoding="UTF-8" standalone="no"?>
<!DOCTYPE svg PUBLIC "-//W3C//DTD SVG 1.1//EN"
 "http://www.w3.org/Graphics/SVG/1.1/DTD/svg11.dtd">
<!-- Generated by graphviz version 2.26.3 (20100126.1600)
 -->
<!-- Title: Mezzanine::Physics::Generic6DofConstraint Pages: 1 -->
<svg width="808pt" height="94pt"
 viewBox="0.00 0.00 808.00 94.00" xmlns="http://www.w3.org/2000/svg" xmlns:xlink="http://www.w3.org/1999/xlink">
<g id="graph1" class="graph" transform="scale(1 1) rotate(0) translate(4 90)">
<title>Mezzanine::Physics::Generic6DofConstraint</title>
<polygon fill="white" stroke="white" points="-4,5 -4,-90 805,-90 805,5 -4,5"/>
<!-- Node1 -->
<g id="node1" class="node"><title>Node1</title>
<polygon fill="#bfbfbf" stroke="black" points="324.5,-26 324.5,-60 455.5,-60 455.5,-26 324.5,-26"/>
<text text-anchor="start" x="332.5" y="-47" font-family="FreeSans" font-size="10.00">Mezzanine::Physics</text>
<text text-anchor="middle" x="390" y="-34" font-family="FreeSans" font-size="10.00">::Generic6DofConstraint</text>
</g>
<!-- Node4 -->
<g id="node7" class="node"><title>Node4</title>
<a xlink:href="classMezzanine_1_1Physics_1_1Generic6DofSpringConstraint.html" target="_top" xlink:title="Creates a constraint as configurable as the 6Dof constraint, but has added support for spring motion...">
<polygon fill="white" stroke="black" points="492,-52 492,-86 654,-86 654,-52 492,-52"/>
<text text-anchor="start" x="500" y="-73" font-family="FreeSans" font-size="10.00">Mezzanine::Physics</text>
<text text-anchor="middle" x="573" y="-60" font-family="FreeSans" font-size="10.00">::Generic6DofSpringConstraint</text>
</a>
</g>
<!-- Node1&#45;&gt;Node4 -->
<g id="edge6" class="edge"><title>Node1&#45;&gt;Node4</title>
<path fill="none" stroke="midnightblue" d="M465.631,-53.7454C474.312,-54.9787 483.189,-56.24 491.937,-57.4829"/>
<polygon fill="midnightblue" stroke="midnightblue" points="465.943,-50.2547 455.55,-52.3132 464.959,-57.1851 465.943,-50.2547"/>
</g>
<!-- Node6 -->
<g id="node11" class="node"><title>Node6</title>
<a xlink:href="classMezzanine_1_1Physics_1_1UniversalConstraint.html" target="_top" xlink:title="Mezzanine::Physics\l::UniversalConstraint">
<polygon fill="white" stroke="black" points="515,-0 515,-34 631,-34 631,-0 515,-0"/>
<text text-anchor="start" x="523" y="-21" font-family="FreeSans" font-size="10.00">Mezzanine::Physics</text>
<text text-anchor="middle" x="573" y="-8" font-family="FreeSans" font-size="10.00">::UniversalConstraint</text>
</a>
</g>
<!-- Node1&#45;&gt;Node6 -->
<g id="edge10" class="edge"><title>Node1&#45;&gt;Node6</title>
<path fill="none" stroke="midnightblue" d="M465.675,-32.2483C482.114,-29.9127 499.256,-27.4773 514.89,-25.256"/>
<polygon fill="midnightblue" stroke="midnightblue" points="464.959,-28.8149 455.55,-33.6868 465.943,-35.7453 464.959,-28.8149"/>
</g>
<!-- Node2 -->
<g id="node2" class="node"><title>Node2</title>
<a xlink:href="classMezzanine_1_1Physics_1_1DualTransformConstraint.html" target="_top" xlink:title="All constraints that track rotation and location of the Pivot relative to each Actor inherit from thi...">
<polygon fill="white" stroke="black" points="146.5,-26 146.5,-60 287.5,-60 287.5,-26 146.5,-26"/>
<text text-anchor="start" x="154.5" y="-47" font-family="FreeSans" font-size="10.00">Mezzanine::Physics</text>
<text text-anchor="middle" x="217" y="-34" font-family="FreeSans" font-size="10.00">::DualTransformConstraint</text>
</a>
</g>
<!-- Node2&#45;&gt;Node1 -->
<g id="edge2" class="edge"><title>Node2&#45;&gt;Node1</title>
<path fill="none" stroke="midnightblue" d="M298.099,-43C306.864,-43 315.704,-43 324.256,-43"/>
<polygon fill="midnightblue" stroke="midnightblue" points="297.865,-39.5001 287.865,-43 297.865,-46.5001 297.865,-39.5001"/>
</g>
<!-- Node3 -->
<g id="node4" class="node"><title>Node3</title>
<a xlink:href="classMezzanine_1_1Physics_1_1Constraint.html" target="_top" xlink:title="This is the base class for all constraints supported.">
<polygon fill="white" stroke="black" points="0.5,-26 0.5,-60 109.5,-60 109.5,-26 0.5,-26"/>
<text text-anchor="start" x="8.5" y="-47" font-family="FreeSans" font-size="10.00">Mezzanine::Physics</text>
<text text-anchor="middle" x="55" y="-34" font-family="FreeSans" font-size="10.00">::Constraint</text>
</a>
</g>
<!-- Node3&#45;&gt;Node2 -->
<g id="edge4" class="edge"><title>Node3&#45;&gt;Node2</title>
<path fill="none" stroke="midnightblue" d="M119.929,-43C128.641,-43 137.612,-43 146.416,-43"/>
<polygon fill="midnightblue" stroke="midnightblue" points="119.846,-39.5001 109.846,-43 119.846,-46.5001 119.846,-39.5001"/>
</g>
<!-- Node5 -->
<g id="node9" class="node"><title>Node5</title>
<a xlink:href="classMezzanine_1_1Physics_1_1Hinge2Constraint.html" target="_top" xlink:title="Mezzanine::Physics\l::Hinge2Constraint">
<polygon fill="white" stroke="black" points="690.5,-52 690.5,-86 799.5,-86 799.5,-52 690.5,-52"/>
<text text-anchor="start" x="698.5" y="-73" font-family="FreeSans" font-size="10.00">Mezzanine::Physics</text>
<text text-anchor="middle" x="745" y="-60" font-family="FreeSans" font-size="10.00">::Hinge2Constraint</text>
</a>
</g>
<!-- Node4&#45;&gt;Node5 -->
<g id="edge8" class="edge"><title>Node4&#45;&gt;Node5</title>
<path fill="none" stroke="midnightblue" d="M664.498,-69C673.247,-69 681.919,-69 690.151,-69"/>
<polygon fill="midnightblue" stroke="midnightblue" points="664.215,-65.5001 654.215,-69 664.215,-72.5001 664.215,-65.5001"/>
</g>
</g>
</svg>
