<?xml version="1.0" encoding="UTF-8" standalone="no"?>
<!DOCTYPE svg PUBLIC "-//W3C//DTD SVG 1.1//EN"
 "http://www.w3.org/Graphics/SVG/1.1/DTD/svg11.dtd">
<!-- Generated by graphviz version 2.26.3 (20100126.1600)
 -->
<!-- Title: Mezzanine::ActorSoftPhysicsSettings Pages: 1 -->
<svg width="1806pt" height="815pt"
 viewBox="0.00 0.00 1806.00 815.00" xmlns="http://www.w3.org/2000/svg" xmlns:xlink="http://www.w3.org/1999/xlink">
<g id="graph1" class="graph" transform="scale(1 1) rotate(0) translate(4 811)">
<title>Mezzanine::ActorSoftPhysicsSettings</title>
<polygon fill="white" stroke="white" points="-4,5 -4,-811 1803,-811 1803,5 -4,5"/>
<!-- Node1 -->
<g id="node1" class="node"><title>Node1</title>
<polygon fill="#bfbfbf" stroke="black" points="1440.5,-322 1440.5,-354 1581.5,-354 1581.5,-322 1440.5,-322"/>
<text text-anchor="start" x="1448.5" y="-341" font-family="FreeSans" font-size="10.00">Mezzanine::ActorSoftPhysics</text>
<text text-anchor="middle" x="1511" y="-329" font-family="FreeSans" font-size="10.00">Settings</text>
</g>
<!-- Node32 -->
<g id="node69" class="node"><title>Node32</title>
<a xlink:href="classMezzanine_1_1ActorSoft.xhtml" target="_top" xlink:title="This is the actor class for Soft Objects.">
<polygon fill="white" stroke="black" points="1690,-302 1690,-322 1798,-322 1798,-302 1690,-302"/>
<text text-anchor="middle" x="1744" y="-309" font-family="FreeSans" font-size="10.00">Mezzanine::ActorSoft</text>
</a>
</g>
<!-- Node1&#45;&gt;Node32 -->
<g id="edge102" class="edge"><title>Node1&#45;&gt;Node32</title>
<path fill="none" stroke="#9a32cd" stroke-dasharray="5,2" d="M1591.77,-333.037C1617.47,-331.04 1645.98,-328.391 1672,-325 1678.42,-324.163 1685.15,-323.143 1691.79,-322.047"/>
<polygon fill="#9a32cd" stroke="#9a32cd" points="1591.4,-329.554 1581.69,-333.797 1591.93,-336.535 1591.4,-329.554"/>
<text text-anchor="middle" x="1636" y="-335" font-family="FreeSans" font-size="10.00"> PhysicsSettings</text>
</g>
<!-- Node2 -->
<g id="node2" class="node"><title>Node2</title>
<a xlink:href="classMezzanine_1_1ActorBasePhysicsSettings.xhtml" target="_top" xlink:title="This is a base helper class for configuring physics settings of an actor.">
<polygon fill="white" stroke="black" points="1256.5,-322 1256.5,-354 1401.5,-354 1401.5,-322 1256.5,-322"/>
<text text-anchor="start" x="1264.5" y="-341" font-family="FreeSans" font-size="10.00">Mezzanine::ActorBasePhysics</text>
<text text-anchor="middle" x="1329" y="-329" font-family="FreeSans" font-size="10.00">Settings</text>
</a>
</g>
<!-- Node2&#45;&gt;Node1 -->
<g id="edge2" class="edge"><title>Node2&#45;&gt;Node1</title>
<path fill="none" stroke="midnightblue" d="M1411.98,-338C1421.5,-338 1431.14,-338 1440.47,-338"/>
<polygon fill="midnightblue" stroke="midnightblue" points="1411.72,-334.5 1401.72,-338 1411.72,-341.5 1411.72,-334.5"/>
</g>
<!-- Node3 -->
<g id="node4" class="node"><title>Node3</title>
<a xlink:href="classMezzanine_1_1NonTriggerPhysicsSettings.xhtml" target="_top" xlink:title="This is an extension of the basic WorldObjectPhysicsSettings class for non&#45;trigger objects(I...">
<polygon fill="white" stroke="black" points="958.5,-322 958.5,-354 1105.5,-354 1105.5,-322 958.5,-322"/>
<text text-anchor="start" x="966.5" y="-341" font-family="FreeSans" font-size="10.00">Mezzanine::NonTriggerPhysics</text>
<text text-anchor="middle" x="1032" y="-329" font-family="FreeSans" font-size="10.00">Settings</text>
</a>
</g>
<!-- Node3&#45;&gt;Node2 -->
<g id="edge4" class="edge"><title>Node3&#45;&gt;Node2</title>
<path fill="none" stroke="midnightblue" d="M1115.95,-338C1160.19,-338 1213.92,-338 1256.35,-338"/>
<polygon fill="midnightblue" stroke="midnightblue" points="1115.8,-334.5 1105.8,-338 1115.8,-341.5 1115.8,-334.5"/>
</g>
<!-- Node4 -->
<g id="node6" class="node"><title>Node4</title>
<a xlink:href="classMezzanine_1_1WorldObjectPhysicsSettings.xhtml" target="_top" xlink:title="This is a base helper class for configuring physics settings of a world object.">
<polygon fill="white" stroke="black" points="722.5,-322 722.5,-354 875.5,-354 875.5,-322 722.5,-322"/>
<text text-anchor="start" x="730.5" y="-341" font-family="FreeSans" font-size="10.00">Mezzanine::WorldObjectPhysics</text>
<text text-anchor="middle" x="799" y="-329" font-family="FreeSans" font-size="10.00">Settings</text>
</a>
</g>
<!-- Node4&#45;&gt;Node3 -->
<g id="edge6" class="edge"><title>Node4&#45;&gt;Node3</title>
<path fill="none" stroke="midnightblue" d="M885.698,-338C909.507,-338 935.096,-338 958.112,-338"/>
<polygon fill="midnightblue" stroke="midnightblue" points="885.616,-334.5 875.616,-338 885.616,-341.5 885.616,-334.5"/>
</g>
<!-- Node5 -->
<g id="node8" class="node"><title>Node5</title>
<a xlink:href="classMezzanine_1_1WorldObject.xhtml" target="_top" xlink:title="This is the base class from which classes that are insertable into the physical world.">
<polygon fill="white" stroke="black" points="457,-363 457,-383 577,-383 577,-363 457,-363"/>
<text text-anchor="middle" x="517" y="-370" font-family="FreeSans" font-size="10.00">Mezzanine::WorldObject</text>
</a>
</g>
<!-- Node4&#45;&gt;Node5 -->
<g id="edge26" class="edge"><title>Node4&#45;&gt;Node5</title>
<path fill="none" stroke="#9a32cd" stroke-dasharray="5,2" d="M712.019,-349.721C708.636,-350.157 705.287,-350.584 702,-351 660.285,-356.275 613.23,-361.866 577.016,-366.092"/>
<polygon fill="#9a32cd" stroke="#9a32cd" points="712.772,-353.153 722.239,-348.395 711.871,-346.211 712.772,-353.153"/>
<text text-anchor="middle" x="655" y="-365" font-family="FreeSans" font-size="10.00"> PhysicsSettings</text>
</g>
<!-- Node5&#45;&gt;Node4 -->
<g id="edge8" class="edge"><title>Node5&#45;&gt;Node4</title>
<path fill="none" stroke="#9a32cd" stroke-dasharray="5,2" d="M547.303,-358.608C564.647,-351.16 587.061,-342.841 608,-339 645.182,-332.18 687.125,-331.236 722.215,-332.287"/>
<polygon fill="#9a32cd" stroke="#9a32cd" points="545.451,-355.6 537.727,-362.851 548.287,-362 545.451,-355.6"/>
<text text-anchor="middle" x="655" y="-342" font-family="FreeSans" font-size="10.00"> Parent</text>
</g>
<!-- Node15 -->
<g id="node31" class="node"><title>Node15</title>
<a xlink:href="classMezzanine_1_1Physics_1_1Collision.xhtml" target="_top" xlink:title="This is an event class used to track collsions in the physics world.">
<polygon fill="white" stroke="black" points="749,-563 749,-595 849,-595 849,-563 749,-563"/>
<text text-anchor="start" x="757" y="-582" font-family="FreeSans" font-size="10.00">Mezzanine::Physics</text>
<text text-anchor="middle" x="799" y="-570" font-family="FreeSans" font-size="10.00">::Collision</text>
</a>
</g>
<!-- Node5&#45;&gt;Node15 -->
<g id="edge38" class="edge"><title>Node5&#45;&gt;Node15</title>
<path fill="none" stroke="#9a32cd" stroke-dasharray="5,2" d="M532.243,-391.071C547.994,-410.301 572.657,-442.026 590,-472 599.967,-489.225 592.696,-500.279 608,-513 640.996,-540.428 661.379,-521.183 702,-535 724.584,-542.682 749.038,-553.794 767.742,-562.93"/>
<polygon fill="#9a32cd" stroke="#9a32cd" points="534.768,-388.632 525.692,-383.166 529.378,-393.099 534.768,-388.632"/>
<text text-anchor="middle" x="655" y="-550" font-family="FreeSans" font-size="10.00"> ObjectA</text>
<text text-anchor="middle" x="655" y="-538" font-family="FreeSans" font-size="10.00">ObjectB</text>
</g>
<!-- Node18 -->
<g id="node38" class="node"><title>Node18</title>
<a xlink:href="classMezzanine_1_1WorldObjectGraphicsSettings.xhtml" target="_top" xlink:title="This is a helper class for configuring graphics settings of a World Object.">
<polygon fill="white" stroke="black" points="720,-469 720,-501 878,-501 878,-469 720,-469"/>
<text text-anchor="start" x="728" y="-488" font-family="FreeSans" font-size="10.00">Mezzanine::WorldObjectGraphics</text>
<text text-anchor="middle" x="799" y="-476" font-family="FreeSans" font-size="10.00">Settings</text>
</a>
</g>
<!-- Node5&#45;&gt;Node18 -->
<g id="edge44" class="edge"><title>Node5&#45;&gt;Node18</title>
<path fill="none" stroke="#9a32cd" stroke-dasharray="5,2" d="M547.055,-387.212C564.542,-395.057 587.178,-404.5 608,-411 648.772,-423.729 662.007,-416.001 702,-431 728.167,-440.814 755.811,-456.835 774.864,-468.882"/>
<polygon fill="#9a32cd" stroke="#9a32cd" points="548.465,-384.008 537.914,-383.046 545.562,-390.378 548.465,-384.008"/>
<text text-anchor="middle" x="655" y="-434" font-family="FreeSans" font-size="10.00"> Parent</text>
</g>
<!-- Node34 -->
<g id="node73" class="node"><title>Node34</title>
<a xlink:href="classMezzanine_1_1NonStaticWorldObject.xhtml" target="_top" xlink:title="This is a small extention of the WorldObject class that adds features common to non&#45;static objects...">
<polygon fill="white" stroke="black" points="732,-263 732,-295 866,-295 866,-263 732,-263"/>
<text text-anchor="start" x="740" y="-282" font-family="FreeSans" font-size="10.00">Mezzanine::NonStaticWorld</text>
<text text-anchor="middle" x="799" y="-270" font-family="FreeSans" font-size="10.00">Object</text>
</a>
</g>
<!-- Node5&#45;&gt;Node34 -->
<g id="edge82" class="edge"><title>Node5&#45;&gt;Node34</title>
<path fill="none" stroke="midnightblue" d="M544.652,-358.171C566.602,-346.562 595.592,-331.63 608,-327 648.042,-312.06 694.518,-300.265 731.599,-292.107"/>
<polygon fill="midnightblue" stroke="midnightblue" points="542.933,-355.121 535.745,-362.904 546.218,-361.303 542.933,-355.121"/>
</g>
<!-- Node6 -->
<g id="node10" class="node"><title>Node6</title>
<a xlink:href="classMezzanine_1_1World.xhtml" target="_top" xlink:title="This class represents a world for objects to interact within.">
<polygon fill="white" stroke="black" points="236,-235 236,-255 328,-255 328,-235 236,-235"/>
<text text-anchor="middle" x="282" y="-242" font-family="FreeSans" font-size="10.00">Mezzanine::World</text>
</a>
</g>
<!-- Node6&#45;&gt;Node5 -->
<g id="edge10" class="edge"><title>Node6&#45;&gt;Node5</title>
<path fill="none" stroke="#9a32cd" stroke-dasharray="5,2" d="M321.015,-258.58C351.464,-270.336 393.851,-289.33 426,-314 435.752,-321.483 434.373,-327.356 444,-335 458.659,-346.639 477.43,-356.316 492.268,-362.992"/>
<polygon fill="#9a32cd" stroke="#9a32cd" points="322.168,-255.274 311.576,-255.019 319.697,-261.823 322.168,-255.274"/>
<text text-anchor="middle" x="398" y="-317" font-family="FreeSans" font-size="10.00"> ParentWorld</text>
</g>
<!-- Node8 -->
<g id="node14" class="node"><title>Node8</title>
<a xlink:href="classMezzanine_1_1WorldManager.xhtml" target="_top" xlink:title="This is the base class for all managers that belong to a single world instance.">
<polygon fill="white" stroke="black" points="452.5,-183 452.5,-203 581.5,-203 581.5,-183 452.5,-183"/>
<text text-anchor="middle" x="517" y="-190" font-family="FreeSans" font-size="10.00">Mezzanine::WorldManager</text>
</a>
</g>
<!-- Node6&#45;&gt;Node8 -->
<g id="edge24" class="edge"><title>Node6&#45;&gt;Node8</title>
<path fill="none" stroke="#9a32cd" stroke-dasharray="5,2" d="M322.96,-231.86C337.694,-227.41 354.503,-222.648 370,-219 396.741,-212.706 426.54,-207.166 452.28,-202.836"/>
<polygon fill="#9a32cd" stroke="#9a32cd" points="321.667,-228.596 313.132,-234.874 323.719,-235.288 321.667,-228.596"/>
<text text-anchor="middle" x="398" y="-222" font-family="FreeSans" font-size="10.00"> ParentWorld</text>
</g>
<!-- Node7 -->
<g id="node12" class="node"><title>Node7</title>
<polygon fill="white" stroke="#bfbfbf" points="726.5,-200 726.5,-220 871.5,-220 871.5,-200 726.5,-200"/>
<text text-anchor="middle" x="799" y="-207" font-family="FreeSans" font-size="10.00">std::vector&lt; WorldManager * &gt;</text>
</g>
<!-- Node7&#45;&gt;Node6 -->
<g id="edge12" class="edge"><title>Node7&#45;&gt;Node6</title>
<path fill="none" stroke="#9a32cd" stroke-dasharray="5,2" d="M716.421,-218.758C711.544,-219.199 706.709,-219.617 702,-220 566.217,-231.035 405.366,-239.26 328.036,-242.913"/>
<polygon fill="#9a32cd" stroke="#9a32cd" points="716.833,-222.235 726.466,-217.824 716.185,-215.265 716.833,-222.235"/>
<text text-anchor="middle" x="517" y="-239" font-family="FreeSans" font-size="10.00"> WorldManagers</text>
</g>
<!-- Node8&#45;&gt;Node7 -->
<g id="edge14" class="edge"><title>Node8&#45;&gt;Node7</title>
<path fill="none" stroke="#9a32cd" stroke-dasharray="5,2" d="M591.789,-197.509C633.457,-200.02 685.106,-203.134 726.414,-205.624"/>
<polygon fill="#9a32cd" stroke="#9a32cd" points="591.889,-194.008 581.696,-196.9 591.468,-200.996 591.889,-194.008"/>
<text text-anchor="middle" x="655" y="-207" font-family="FreeSans" font-size="10.00"> elements</text>
</g>
<!-- Node9 -->
<g id="node16" class="node"><title>Node9</title>
<a xlink:href="classMezzanine_1_1ManagerBase.xhtml" target="_top" xlink:title="This is the base class from which all the Entresol and World Managers inherit.">
<polygon fill="white" stroke="black" points="219,-186 219,-206 345,-206 345,-186 219,-186"/>
<text text-anchor="middle" x="282" y="-193" font-family="FreeSans" font-size="10.00">Mezzanine::ManagerBase</text>
</a>
</g>
<!-- Node9&#45;&gt;Node8 -->
<g id="edge16" class="edge"><title>Node9&#45;&gt;Node8</title>
<path fill="none" stroke="midnightblue" d="M355.605,-195.06C386.619,-194.664 422.397,-194.208 452.375,-193.825"/>
<polygon fill="midnightblue" stroke="midnightblue" points="355.239,-191.565 345.285,-195.192 355.329,-198.564 355.239,-191.565"/>
</g>
<!-- Node10 -->
<g id="node18" class="node"><title>Node10</title>
<a xlink:href="classMezzanine_1_1Entresol.xhtml" target="_top" xlink:title="This is the main entry point for the entire library.">
<polygon fill="white" stroke="black" points="9.5,-151 9.5,-171 110.5,-171 110.5,-151 9.5,-151"/>
<text text-anchor="middle" x="60" y="-158" font-family="FreeSans" font-size="10.00">Mezzanine::Entresol</text>
</a>
</g>
<!-- Node10&#45;&gt;Node9 -->
<g id="edge18" class="edge"><title>Node10&#45;&gt;Node9</title>
<path fill="none" stroke="#9a32cd" stroke-dasharray="5,2" d="M120.722,-170.573C151.188,-175.377 188.062,-181.19 218.858,-186.045"/>
<polygon fill="#9a32cd" stroke="#9a32cd" points="121.076,-167.086 110.653,-168.986 119.986,-174.001 121.076,-167.086"/>
<text text-anchor="middle" x="166" y="-184" font-family="FreeSans" font-size="10.00"> TheEntresol</text>
</g>
<!-- Node11 -->
<g id="node20" class="node"><title>Node11</title>
<a xlink:href="classMezzanine_1_1Singleton.xhtml" target="_top" xlink:title="Mezzanine::Singleton\l\&lt; Entresol \&gt;">
<polygon fill="white" stroke="black" points="228.5,-136 228.5,-168 335.5,-168 335.5,-136 228.5,-136"/>
<text text-anchor="start" x="236.5" y="-155" font-family="FreeSans" font-size="10.00">Mezzanine::Singleton</text>
<text text-anchor="middle" x="282" y="-143" font-family="FreeSans" font-size="10.00">&lt; Entresol &gt;</text>
</a>
</g>
<!-- Node10&#45;&gt;Node11 -->
<g id="edge22" class="edge"><title>Node10&#45;&gt;Node11</title>
<path fill="none" stroke="#9a32cd" stroke-dasharray="5,2" d="M120.839,-158.534C154.527,-157.168 196.021,-155.486 228.468,-154.17"/>
<polygon fill="#9a32cd" stroke="#9a32cd" points="120.503,-155.044 110.653,-158.946 120.787,-162.038 120.503,-155.044"/>
<text text-anchor="middle" x="166" y="-160" font-family="FreeSans" font-size="10.00"> SingletonPtr</text>
</g>
<!-- Node11&#45;&gt;Node10 -->
<g id="edge20" class="edge"><title>Node11&#45;&gt;Node10</title>
<path fill="none" stroke="midnightblue" d="M218.092,-142.396C193.061,-139.983 164.133,-138.863 138,-142 123.193,-143.777 107.137,-147.388 93.4635,-150.989"/>
<polygon fill="midnightblue" stroke="midnightblue" points="217.888,-145.893 228.199,-143.458 218.62,-138.932 217.888,-145.893"/>
</g>
<!-- Node12 -->
<g id="node25" class="node"><title>Node12</title>
<a xlink:title="STL class.">
<polygon fill="white" stroke="#bfbfbf" points="253.5,-351 253.5,-371 310.5,-371 310.5,-351 253.5,-351"/>
<text text-anchor="middle" x="282" y="-358" font-family="FreeSans" font-size="10.00">std::string</text>
</a>
</g>
<!-- Node12&#45;&gt;Node5 -->
<g id="edge28" class="edge"><title>Node12&#45;&gt;Node5</title>
<path fill="none" stroke="#9a32cd" stroke-dasharray="5,2" d="M321.178,-363.001C358.151,-364.889 414.121,-367.747 456.768,-369.924"/>
<polygon fill="#9a32cd" stroke="#9a32cd" points="320.981,-359.486 310.816,-362.471 320.624,-366.477 320.981,-359.486"/>
<text text-anchor="middle" x="398" y="-371" font-family="FreeSans" font-size="10.00"> Name</text>
</g>
<!-- Node31 -->
<g id="node66" class="node"><title>Node31</title>
<a xlink:href="classMezzanine_1_1Physics_1_1CollisionShape.xhtml" target="_top" xlink:title="This is the base class for all collision shapes.">
<polygon fill="white" stroke="black" points="467,-294 467,-326 567,-326 567,-294 467,-294"/>
<text text-anchor="start" x="475" y="-313" font-family="FreeSans" font-size="10.00">Mezzanine::Physics</text>
<text text-anchor="middle" x="517" y="-301" font-family="FreeSans" font-size="10.00">::CollisionShape</text>
</a>
</g>
<!-- Node12&#45;&gt;Node31 -->
<g id="edge74" class="edge"><title>Node12&#45;&gt;Node31</title>
<path fill="none" stroke="#9a32cd" stroke-dasharray="5,2" d="M320.717,-352.598C360.701,-343.92 423.253,-330.345 466.965,-320.859"/>
<polygon fill="#9a32cd" stroke="#9a32cd" points="319.846,-349.205 310.816,-354.746 321.33,-356.046 319.846,-349.205"/>
<text text-anchor="middle" x="398" y="-344" font-family="FreeSans" font-size="10.00"> Name</text>
</g>
<!-- Node13 -->
<g id="node27" class="node"><title>Node13</title>
<a xlink:title="STL class.">
<polygon fill="white" stroke="#bfbfbf" points="14.5,-345 14.5,-377 105.5,-377 105.5,-345 14.5,-345"/>
<text text-anchor="start" x="22.5" y="-364" font-family="FreeSans" font-size="10.00">std::basic_string&lt;</text>
<text text-anchor="middle" x="60" y="-352" font-family="FreeSans" font-size="10.00"> char &gt;</text>
</a>
</g>
<!-- Node13&#45;&gt;Node12 -->
<g id="edge30" class="edge"><title>Node13&#45;&gt;Node12</title>
<path fill="none" stroke="midnightblue" d="M115.928,-361C159.64,-361 218.613,-361 253.248,-361"/>
<polygon fill="midnightblue" stroke="midnightblue" points="115.729,-357.5 105.729,-361 115.729,-364.5 115.729,-357.5"/>
</g>
<!-- Node14 -->
<g id="node29" class="node"><title>Node14</title>
<polygon fill="white" stroke="#bfbfbf" points="986,-400 986,-432 1078,-432 1078,-400 986,-400"/>
<text text-anchor="start" x="994" y="-419" font-family="FreeSans" font-size="10.00">std::set&lt; Physics::</text>
<text text-anchor="middle" x="1032" y="-407" font-family="FreeSans" font-size="10.00">Collision * &gt;</text>
</g>
<!-- Node14&#45;&gt;Node5 -->
<g id="edge32" class="edge"><title>Node14&#45;&gt;Node5</title>
<path fill="none" stroke="#9a32cd" stroke-dasharray="5,2" d="M975.906,-411.316C878.177,-403.157 677.541,-386.404 577.085,-378.017"/>
<polygon fill="#9a32cd" stroke="#9a32cd" points="975.63,-414.805 985.887,-412.15 976.212,-407.83 975.63,-414.805"/>
<text text-anchor="middle" x="799" y="-405" font-family="FreeSans" font-size="10.00"> CurrentCollisions</text>
</g>
<!-- Node15&#45;&gt;Node14 -->
<g id="edge34" class="edge"><title>Node15&#45;&gt;Node14</title>
<path fill="none" stroke="#9a32cd" stroke-dasharray="5,2" d="M830.566,-556.917C878.094,-523.668 966.926,-461.524 1008.9,-432.159"/>
<polygon fill="#9a32cd" stroke="#9a32cd" points="828.38,-554.175 822.193,-562.775 832.393,-559.911 828.38,-554.175"/>
<text text-anchor="middle" x="917" y="-510" font-family="FreeSans" font-size="10.00"> keys</text>
</g>
<!-- Node16 -->
<g id="node33" class="node"><title>Node16</title>
<polygon fill="white" stroke="#bfbfbf" points="469,-610 469,-630 565,-630 565,-610 469,-610"/>
<text text-anchor="middle" x="517" y="-617" font-family="FreeSans" font-size="10.00">std::vector&lt; Real &gt;</text>
</g>
<!-- Node16&#45;&gt;Node15 -->
<g id="edge36" class="edge"><title>Node16&#45;&gt;Node15</title>
<path fill="none" stroke="#9a32cd" stroke-dasharray="5,2" d="M575.033,-614.229C611.564,-610.317 659.651,-604.656 702,-598 717.257,-595.602 733.775,-592.542 748.782,-589.581"/>
<polygon fill="#9a32cd" stroke="#9a32cd" points="574.626,-610.753 565.05,-615.286 575.363,-617.714 574.626,-610.753"/>
<text text-anchor="middle" x="655" y="-613" font-family="FreeSans" font-size="10.00"> PenetrationDistances</text>
</g>
<!-- Node17 -->
<g id="node36" class="node"><title>Node17</title>
<a xlink:href="structMezzanine_1_1Physics_1_1CollisionInternalData.xhtml" target="_top" xlink:title="Used to insulate the interface from the implementation details for bullet.">
<polygon fill="white" stroke="black" points="462,-648 462,-680 572,-680 572,-648 462,-648"/>
<text text-anchor="start" x="470" y="-667" font-family="FreeSans" font-size="10.00">Mezzanine::Physics</text>
<text text-anchor="middle" x="517" y="-655" font-family="FreeSans" font-size="10.00">::CollisionInternalData</text>
</a>
</g>
<!-- Node17&#45;&gt;Node15 -->
<g id="edge40" class="edge"><title>Node17&#45;&gt;Node15</title>
<path fill="none" stroke="#9a32cd" stroke-dasharray="5,2" d="M582.064,-654.704C618.004,-648.563 663.114,-639.185 702,-626 725.925,-617.888 751.591,-605.261 770.509,-595.138"/>
<polygon fill="#9a32cd" stroke="#9a32cd" points="581.472,-651.254 572.183,-656.351 582.622,-658.159 581.472,-651.254"/>
<text text-anchor="middle" x="655" y="-652" font-family="FreeSans" font-size="10.00"> InternalData</text>
</g>
<!-- Node18&#45;&gt;Node5 -->
<g id="edge42" class="edge"><title>Node18&#45;&gt;Node5</title>
<path fill="none" stroke="#9a32cd" stroke-dasharray="5,2" d="M709.558,-475.705C676.539,-469.989 639.514,-460.788 608,-446 574.079,-430.083 541.662,-399.048 526.289,-383.058"/>
<polygon fill="#9a32cd" stroke="#9a32cd" points="709.231,-479.198 719.666,-477.369 710.368,-472.291 709.231,-479.198"/>
<text text-anchor="middle" x="655" y="-476" font-family="FreeSans" font-size="10.00"> GraphicsSettings</text>
</g>
<!-- Node19 -->
<g id="node41" class="node"><title>Node19</title>
<a xlink:href="classMezzanine_1_1Graphics_1_1Mesh.xhtml" target="_top" xlink:title="This class is used to check and modify the properties of a graphics mesh.">
<polygon fill="white" stroke="black" points="464.5,-560 464.5,-592 569.5,-592 569.5,-560 464.5,-560"/>
<text text-anchor="start" x="472.5" y="-579" font-family="FreeSans" font-size="10.00">Mezzanine::Graphics</text>
<text text-anchor="middle" x="517" y="-567" font-family="FreeSans" font-size="10.00">::Mesh</text>
</a>
</g>
<!-- Node19&#45;&gt;Node18 -->
<g id="edge46" class="edge"><title>Node19&#45;&gt;Node18</title>
<path fill="none" stroke="#9a32cd" stroke-dasharray="5,2" d="M579.967,-580.773C616.744,-581.34 663.367,-578.149 702,-563 719.704,-556.058 758.913,-521.794 781.689,-501.057"/>
<polygon fill="#9a32cd" stroke="#9a32cd" points="579.954,-577.272 569.87,-580.52 579.779,-584.269 579.954,-577.272"/>
<text text-anchor="middle" x="655" y="-583" font-family="FreeSans" font-size="10.00"> WorldObjectMesh</text>
</g>
<!-- Node20 -->
<g id="node43" class="node"><title>Node20</title>
<a xlink:href="classMezzanine_1_1Graphics_1_1InternalMeshData.xhtml" target="_top" xlink:title="This class is used to store the internal structures needed by the Mesh class.">
<polygon fill="white" stroke="black" points="229.5,-593 229.5,-625 334.5,-625 334.5,-593 229.5,-593"/>
<text text-anchor="start" x="237.5" y="-612" font-family="FreeSans" font-size="10.00">Mezzanine::Graphics</text>
<text text-anchor="middle" x="282" y="-600" font-family="FreeSans" font-size="10.00">::InternalMeshData</text>
</a>
</g>
<!-- Node20&#45;&gt;Node19 -->
<g id="edge48" class="edge"><title>Node20&#45;&gt;Node19</title>
<path fill="none" stroke="#9a32cd" stroke-dasharray="5,2" d="M345.001,-600.153C382.335,-594.91 429.099,-588.344 464.437,-583.381"/>
<polygon fill="#9a32cd" stroke="#9a32cd" points="344.155,-596.737 334.739,-601.594 345.128,-603.669 344.155,-596.737"/>
<text text-anchor="middle" x="398" y="-599" font-family="FreeSans" font-size="10.00"> IMD</text>
</g>
<!-- Node21 -->
<g id="node45" class="node"><title>Node21</title>
<a xlink:href="classMezzanine_1_1Graphics_1_1Skeleton.xhtml" target="_top" xlink:title="This class encapsulates the Skeletal animation functionality of a Mesh.">
<polygon fill="white" stroke="black" points="229.5,-698 229.5,-730 334.5,-730 334.5,-698 229.5,-698"/>
<text text-anchor="start" x="237.5" y="-717" font-family="FreeSans" font-size="10.00">Mezzanine::Graphics</text>
<text text-anchor="middle" x="282" y="-705" font-family="FreeSans" font-size="10.00">::Skeleton</text>
</a>
</g>
<!-- Node21&#45;&gt;Node19 -->
<g id="edge50" class="edge"><title>Node21&#45;&gt;Node19</title>
<path fill="none" stroke="#9a32cd" stroke-dasharray="5,2" d="M312.382,-692.122C355.35,-661.287 430.203,-608 444,-601 450.451,-597.727 457.429,-594.722 464.424,-592.019"/>
<polygon fill="#9a32cd" stroke="#9a32cd" points="310.321,-689.293 304.241,-697.97 314.405,-694.979 310.321,-689.293"/>
<text text-anchor="middle" x="398" y="-651" font-family="FreeSans" font-size="10.00"> MeshSkel</text>
</g>
<!-- Node23 -->
<g id="node49" class="node"><title>Node23</title>
<a xlink:href="classMezzanine_1_1Graphics_1_1Bone.xhtml" target="_top" xlink:title="This class encapsulates the bones contained in a skeleton used for animation.">
<polygon fill="white" stroke="black" points="464.5,-698 464.5,-730 569.5,-730 569.5,-698 464.5,-698"/>
<text text-anchor="start" x="472.5" y="-717" font-family="FreeSans" font-size="10.00">Mezzanine::Graphics</text>
<text text-anchor="middle" x="517" y="-705" font-family="FreeSans" font-size="10.00">::Bone</text>
</a>
</g>
<!-- Node21&#45;&gt;Node23 -->
<g id="edge58" class="edge"><title>Node21&#45;&gt;Node23</title>
<path fill="none" stroke="#9a32cd" stroke-dasharray="5,2" d="M345.001,-714C382.335,-714 429.099,-714 464.437,-714"/>
<polygon fill="#9a32cd" stroke="#9a32cd" points="344.739,-710.5 334.739,-714 344.739,-717.5 344.739,-710.5"/>
<text text-anchor="middle" x="398" y="-717" font-family="FreeSans" font-size="10.00"> Host</text>
</g>
<!-- Node22 -->
<g id="node47" class="node"><title>Node22</title>
<polygon fill="white" stroke="#bfbfbf" points="746.5,-736 746.5,-756 851.5,-756 851.5,-736 746.5,-736"/>
<text text-anchor="middle" x="799" y="-743" font-family="FreeSans" font-size="10.00">std::vector&lt; Bone * &gt;</text>
</g>
<!-- Node22&#45;&gt;Node21 -->
<g id="edge52" class="edge"><title>Node22&#45;&gt;Node21</title>
<path fill="none" stroke="#9a32cd" stroke-dasharray="5,2" d="M736.116,-748.971C724.763,-749.4 713.031,-749.773 702,-750 554.208,-753.046 516.153,-752.155 370,-730 358.639,-728.278 346.493,-726.214 334.965,-724.151"/>
<polygon fill="#9a32cd" stroke="#9a32cd" points="736.551,-752.457 746.405,-748.564 736.274,-745.462 736.551,-752.457"/>
<text text-anchor="middle" x="517" y="-754" font-family="FreeSans" font-size="10.00"> Bones</text>
</g>
<!-- Node23&#45;&gt;Node22 -->
<g id="edge54" class="edge"><title>Node23&#45;&gt;Node22</title>
<path fill="none" stroke="#9a32cd" stroke-dasharray="5,2" d="M579.752,-721.121C629.719,-726.791 698.872,-734.638 746.069,-739.994"/>
<polygon fill="#9a32cd" stroke="#9a32cd" points="580.042,-717.631 569.711,-719.981 579.253,-724.587 580.042,-717.631"/>
<text text-anchor="middle" x="655" y="-737" font-family="FreeSans" font-size="10.00"> elements</text>
</g>
<!-- Node24 -->
<g id="node51" class="node"><title>Node24</title>
<a xlink:href="classMezzanine_1_1TransformableChildObject.xhtml" target="_top" xlink:title="This is an interface for all child 3D objects that can have their full transforms manipulated...">
<polygon fill="white" stroke="black" points="218,-775 218,-807 346,-807 346,-775 218,-775"/>
<text text-anchor="start" x="226" y="-794" font-family="FreeSans" font-size="10.00">Mezzanine::Transformable</text>
<text text-anchor="middle" x="282" y="-782" font-family="FreeSans" font-size="10.00">ChildObject</text>
</a>
</g>
<!-- Node24&#45;&gt;Node23 -->
<g id="edge56" class="edge"><title>Node24&#45;&gt;Node23</title>
<path fill="none" stroke="midnightblue" d="M340.69,-771.77C379.954,-758.904 431.023,-742.171 468.085,-730.027"/>
<polygon fill="midnightblue" stroke="midnightblue" points="339.391,-768.512 330.978,-774.952 341.57,-775.164 339.391,-768.512"/>
</g>
<!-- Node25 -->
<g id="node54" class="node"><title>Node25</title>
<a xlink:href="classMezzanine_1_1Graphics_1_1InternalSkeletonData.xhtml" target="_top" xlink:title="This class is used to store the internal structures needed by the Skeleton class.">
<polygon fill="white" stroke="black" points="4,-698 4,-730 116,-730 116,-698 4,-698"/>
<text text-anchor="start" x="12" y="-717" font-family="FreeSans" font-size="10.00">Mezzanine::Graphics</text>
<text text-anchor="middle" x="60" y="-705" font-family="FreeSans" font-size="10.00">::InternalSkeletonData</text>
</a>
</g>
<!-- Node25&#45;&gt;Node21 -->
<g id="edge60" class="edge"><title>Node25&#45;&gt;Node21</title>
<path fill="none" stroke="#9a32cd" stroke-dasharray="5,2" d="M126.048,-714C159.075,-714 198.491,-714 229.433,-714"/>
<polygon fill="#9a32cd" stroke="#9a32cd" points="126.02,-710.5 116.02,-714 126.02,-717.5 126.02,-710.5"/>
<text text-anchor="middle" x="166" y="-717" font-family="FreeSans" font-size="10.00"> ISD</text>
</g>
<!-- Node26 -->
<g id="node56" class="node"><title>Node26</title>
<polygon fill="white" stroke="#bfbfbf" points="220.5,-555 220.5,-575 343.5,-575 343.5,-555 220.5,-555"/>
<text text-anchor="middle" x="282" y="-562" font-family="FreeSans" font-size="10.00">std::vector&lt; SubMesh * &gt;</text>
</g>
<!-- Node26&#45;&gt;Node19 -->
<g id="edge62" class="edge"><title>Node26&#45;&gt;Node19</title>
<path fill="none" stroke="#9a32cd" stroke-dasharray="5,2" d="M354.083,-568.374C389.702,-570.041 431.901,-572.017 464.426,-573.539"/>
<polygon fill="#9a32cd" stroke="#9a32cd" points="353.896,-564.862 343.743,-567.89 353.569,-571.854 353.896,-564.862"/>
<text text-anchor="middle" x="398" y="-574" font-family="FreeSans" font-size="10.00"> SubMeshes</text>
</g>
<!-- Node27 -->
<g id="node58" class="node"><title>Node27</title>
<a xlink:href="classMezzanine_1_1Graphics_1_1SubMesh.xhtml" target="_top" xlink:title="This class represents a sub&#45;section of an overall mesh.">
<polygon fill="white" stroke="black" points="7.5,-549 7.5,-581 112.5,-581 112.5,-549 7.5,-549"/>
<text text-anchor="start" x="15.5" y="-568" font-family="FreeSans" font-size="10.00">Mezzanine::Graphics</text>
<text text-anchor="middle" x="60" y="-556" font-family="FreeSans" font-size="10.00">::SubMesh</text>
</a>
</g>
<!-- Node27&#45;&gt;Node26 -->
<g id="edge64" class="edge"><title>Node27&#45;&gt;Node26</title>
<path fill="none" stroke="#9a32cd" stroke-dasharray="5,2" d="M122.724,-565C153.281,-565 189.9,-565 220.317,-565"/>
<polygon fill="#9a32cd" stroke="#9a32cd" points="122.611,-561.5 112.611,-565 122.611,-568.5 122.611,-561.5"/>
<text text-anchor="middle" x="166" y="-568" font-family="FreeSans" font-size="10.00"> elements</text>
</g>
<!-- Node28 -->
<g id="node60" class="node"><title>Node28</title>
<a xlink:href="classMezzanine_1_1Internal_1_1InternalWorldObjectGraphicsSettings.xhtml" target="_top" xlink:title="Used to store internal data about an world objects.">
<polygon fill="white" stroke="black" points="444.5,-481 444.5,-525 589.5,-525 589.5,-481 444.5,-481"/>
<text text-anchor="start" x="452.5" y="-512" font-family="FreeSans" font-size="10.00">Mezzanine::Internal</text>
<text text-anchor="start" x="452.5" y="-500" font-family="FreeSans" font-size="10.00">::InternalWorldObjectGraphics</text>
<text text-anchor="middle" x="517" y="-488" font-family="FreeSans" font-size="10.00">Settings</text>
</a>
</g>
<!-- Node28&#45;&gt;Node18 -->
<g id="edge66" class="edge"><title>Node28&#45;&gt;Node18</title>
<path fill="none" stroke="#9a32cd" stroke-dasharray="5,2" d="M599.626,-497.726C637.592,-495.303 682.415,-492.442 719.936,-490.047"/>
<polygon fill="#9a32cd" stroke="#9a32cd" points="599.379,-494.235 589.622,-498.365 599.825,-501.22 599.379,-494.235"/>
<text text-anchor="middle" x="655" y="-500" font-family="FreeSans" font-size="10.00"> IWOGS</text>
</g>
<!-- Node29 -->
<g id="node62" class="node"><title>Node29</title>
<polygon fill="white" stroke="#bfbfbf" points="212.5,-487 212.5,-519 351.5,-519 351.5,-487 212.5,-487"/>
<text text-anchor="start" x="220.5" y="-506" font-family="FreeSans" font-size="10.00">std::map&lt; Whole, Mezzanine</text>
<text text-anchor="middle" x="282" y="-494" font-family="FreeSans" font-size="10.00">::ColourValue &gt;</text>
</g>
<!-- Node29&#45;&gt;Node28 -->
<g id="edge68" class="edge"><title>Node29&#45;&gt;Node28</title>
<path fill="none" stroke="#9a32cd" stroke-dasharray="5,2" d="M361.66,-503C388.437,-503 418.15,-503 444.359,-503"/>
<polygon fill="#9a32cd" stroke="#9a32cd" points="361.554,-499.5 351.554,-503 361.554,-506.5 361.554,-499.5"/>
<text text-anchor="middle" x="398" y="-530" font-family="FreeSans" font-size="10.00"> Specular</text>
<text text-anchor="middle" x="398" y="-518" font-family="FreeSans" font-size="10.00">Ambient</text>
<text text-anchor="middle" x="398" y="-506" font-family="FreeSans" font-size="10.00">Diffuse</text>
</g>
<!-- Node30 -->
<g id="node64" class="node"><title>Node30</title>
<a xlink:href="classMezzanine_1_1ColourValue.xhtml" target="_top" xlink:title="This is a simple class for holding 4 reals representing the colour any give object or lightsource can...">
<polygon fill="white" stroke="black" points="0.5,-493 0.5,-513 119.5,-513 119.5,-493 0.5,-493"/>
<text text-anchor="middle" x="60" y="-500" font-family="FreeSans" font-size="10.00">Mezzanine::ColourValue</text>
</a>
</g>
<!-- Node30&#45;&gt;Node29 -->
<g id="edge70" class="edge"><title>Node30&#45;&gt;Node29</title>
<path fill="none" stroke="#9a32cd" stroke-dasharray="5,2" d="M130.028,-503C156.266,-503 186.057,-503 212.268,-503"/>
<polygon fill="#9a32cd" stroke="#9a32cd" points="129.784,-499.5 119.784,-503 129.784,-506.5 129.784,-499.5"/>
<text text-anchor="middle" x="166" y="-506" font-family="FreeSans" font-size="10.00"> elements</text>
</g>
<!-- Node31&#45;&gt;Node4 -->
<g id="edge72" class="edge"><title>Node31&#45;&gt;Node4</title>
<path fill="none" stroke="#9a32cd" stroke-dasharray="5,2" d="M577.19,-301.996C613.57,-298.655 660.736,-296.978 702,-304 722.583,-307.503 744.612,-314.906 762.468,-321.912"/>
<polygon fill="#9a32cd" stroke="#9a32cd" points="576.837,-298.514 567.228,-302.977 577.523,-305.48 576.837,-298.514"/>
<text text-anchor="middle" x="655" y="-307" font-family="FreeSans" font-size="10.00"> WorldObjectShape</text>
</g>
<!-- Node32&#45;&gt;Node1 -->
<g id="edge76" class="edge"><title>Node32&#45;&gt;Node1</title>
<path fill="none" stroke="#9a32cd" stroke-dasharray="5,2" d="M1679.64,-308.796C1654.66,-308.505 1625.89,-309.341 1600,-313 1586.49,-314.909 1572.14,-318.306 1559,-321.993"/>
<polygon fill="#9a32cd" stroke="#9a32cd" points="1679.67,-312.297 1689.73,-308.976 1679.79,-305.298 1679.67,-312.297"/>
<text text-anchor="middle" x="1636" y="-316" font-family="FreeSans" font-size="10.00"> SoftParent</text>
</g>
<!-- Node33 -->
<g id="node71" class="node"><title>Node33</title>
<a xlink:href="classMezzanine_1_1ActorBase.xhtml" target="_top" xlink:title="This is the base class from which all the actors inherit.">
<polygon fill="white" stroke="black" points="1126,-269 1126,-289 1238,-289 1238,-269 1126,-269"/>
<text text-anchor="middle" x="1182" y="-276" font-family="FreeSans" font-size="10.00">Mezzanine::ActorBase</text>
</a>
</g>
<!-- Node33&#45;&gt;Node32 -->
<g id="edge78" class="edge"><title>Node33&#45;&gt;Node32</title>
<path fill="none" stroke="midnightblue" d="M1248.54,-281.135C1342.86,-284.449 1520.81,-291.755 1672,-304 1677.77,-304.467 1683.79,-305.025 1689.78,-305.625"/>
<polygon fill="midnightblue" stroke="midnightblue" points="1248.41,-277.629 1238.29,-280.779 1248.16,-284.624 1248.41,-277.629"/>
</g>
<!-- Node34&#45;&gt;Node33 -->
<g id="edge80" class="edge"><title>Node34&#45;&gt;Node33</title>
<path fill="none" stroke="midnightblue" d="M876.337,-279C950.258,-279 1059.92,-279 1125.83,-279"/>
<polygon fill="midnightblue" stroke="midnightblue" points="876.152,-275.5 866.152,-279 876.152,-282.5 876.152,-275.5"/>
</g>
<!-- Node35 -->
<g id="node76" class="node"><title>Node35</title>
<a xlink:href="classMezzanine_1_1AttachableParent.xhtml" target="_top" xlink:title="Base class for objects that can have attachables attached to them.">
<polygon fill="white" stroke="black" points="446,-87 446,-107 588,-107 588,-87 446,-87"/>
<text text-anchor="middle" x="517" y="-94" font-family="FreeSans" font-size="10.00">Mezzanine::AttachableParent</text>
</a>
</g>
<!-- Node35&#45;&gt;Node34 -->
<g id="edge84" class="edge"><title>Node35&#45;&gt;Node34</title>
<path fill="none" stroke="midnightblue" d="M535.785,-114.272C551.391,-129.188 573.611,-151.783 590,-174 599.687,-187.132 595.644,-195.342 608,-206 643.08,-236.258 692.028,-254.637 731.59,-265.385"/>
<polygon fill="midnightblue" stroke="midnightblue" points="537.972,-111.524 528.293,-107.215 533.172,-116.62 537.972,-111.524"/>
</g>
<!-- Node38 -->
<g id="node82" class="node"><title>Node38</title>
<a xlink:href="classMezzanine_1_1AttachableChild.xhtml" target="_top" xlink:title="This class is the base class for objects that can be attached to AttachableParent.">
<polygon fill="white" stroke="black" points="731.5,-44 731.5,-64 866.5,-64 866.5,-44 731.5,-44"/>
<text text-anchor="middle" x="799" y="-51" font-family="FreeSans" font-size="10.00">Mezzanine::AttachableChild</text>
</a>
</g>
<!-- Node35&#45;&gt;Node38 -->
<g id="edge100" class="edge"><title>Node35&#45;&gt;Node38</title>
<path fill="none" stroke="#9a32cd" stroke-dasharray="5,2" d="M587.363,-85.2739C594.333,-84.1507 601.303,-83.0427 608,-82 648.897,-75.6322 694.787,-68.8918 731.333,-63.6204"/>
<polygon fill="#9a32cd" stroke="#9a32cd" points="586.494,-81.8689 577.184,-86.9244 587.615,-88.7787 586.494,-81.8689"/>
<text text-anchor="middle" x="655" y="-85" font-family="FreeSans" font-size="10.00"> Parent</text>
</g>
<!-- Node36 -->
<g id="node78" class="node"><title>Node36</title>
<a xlink:href="classMezzanine_1_1AttachableBase.xhtml" target="_top" xlink:title="This class is the base class for other attachable classes and is responsible for transform updates to...">
<polygon fill="white" stroke="black" points="214.5,-0 214.5,-20 349.5,-20 349.5,-0 214.5,-0"/>
<text text-anchor="middle" x="282" y="-7" font-family="FreeSans" font-size="10.00">Mezzanine::AttachableBase</text>
</a>
</g>
<!-- Node36&#45;&gt;Node35 -->
<g id="edge86" class="edge"><title>Node36&#45;&gt;Node35</title>
<path fill="none" stroke="midnightblue" d="M345.534,-24.6147C347.791,-25.9508 349.957,-27.4089 352,-29 364.874,-39.027 357.003,-51.1339 370,-61 391.661,-77.4424 419.835,-86.474 445.715,-91.3995"/>
<polygon fill="midnightblue" stroke="midnightblue" points="346.957,-21.4126 336.451,-20.0419 343.809,-27.665 346.957,-21.4126"/>
</g>
<!-- Node36&#45;&gt;Node38 -->
<g id="edge92" class="edge"><title>Node36&#45;&gt;Node38</title>
<path fill="none" stroke="midnightblue" d="M359.829,-13.563C422.156,-16.7146 511.787,-21.9156 590,-29 637.313,-33.2855 690.469,-39.6653 731.333,-44.9074"/>
<polygon fill="midnightblue" stroke="midnightblue" points="359.842,-10.0594 349.68,-13.0557 359.493,-17.0506 359.842,-10.0594"/>
</g>
<!-- Node37 -->
<g id="node80" class="node"><title>Node37</title>
<polygon fill="white" stroke="#bfbfbf" points="956.5,-78 956.5,-98 1107.5,-98 1107.5,-78 956.5,-78"/>
<text text-anchor="middle" x="1032" y="-85" font-family="FreeSans" font-size="10.00">std::vector&lt; AttachableChild * &gt;</text>
</g>
<!-- Node37&#45;&gt;Node35 -->
<g id="edge88" class="edge"><title>Node37&#45;&gt;Node35</title>
<path fill="none" stroke="#9a32cd" stroke-dasharray="5,2" d="M946.213,-90.8005C943.443,-90.8709 940.7,-90.9377 938,-91 815.046,-93.838 671.86,-95.5372 588.145,-96.3687"/>
<polygon fill="#9a32cd" stroke="#9a32cd" points="946.425,-94.2962 956.328,-90.5311 946.239,-87.2987 946.425,-94.2962"/>
<text text-anchor="middle" x="799" y="-98" font-family="FreeSans" font-size="10.00"> Attached</text>
</g>
<!-- Node38&#45;&gt;Node37 -->
<g id="edge90" class="edge"><title>Node38&#45;&gt;Node37</title>
<path fill="none" stroke="#9a32cd" stroke-dasharray="5,2" d="M876.85,-65.3601C904.833,-69.4434 936.17,-74.0163 963.317,-77.9776"/>
<polygon fill="#9a32cd" stroke="#9a32cd" points="877.107,-61.8606 866.706,-63.8799 876.096,-68.7872 877.107,-61.8606"/>
<text text-anchor="middle" x="917" y="-78" font-family="FreeSans" font-size="10.00"> elements</text>
</g>
<!-- Node39 -->
<g id="node85" class="node"><title>Node39</title>
<a xlink:href="classMezzanine_1_1Transform.xhtml" target="_top" xlink:title="Stores information about relative location and rotation in 3d space.">
<polygon fill="white" stroke="black" points="462,-38 462,-58 572,-58 572,-38 462,-38"/>
<text text-anchor="middle" x="517" y="-45" font-family="FreeSans" font-size="10.00">Mezzanine::Transform</text>
</a>
</g>
<!-- Node39&#45;&gt;Node38 -->
<g id="edge94" class="edge"><title>Node39&#45;&gt;Node38</title>
<path fill="none" stroke="#9a32cd" stroke-dasharray="5,2" d="M582.379,-47.1952C590.996,-47.1144 599.71,-47.0455 608,-47 649.777,-46.7705 660.249,-45.4955 702,-47 711.533,-47.3435 721.583,-47.8764 731.458,-48.4983"/>
<polygon fill="#9a32cd" stroke="#9a32cd" points="582.305,-43.6956 572.34,-47.2947 582.375,-50.6953 582.305,-43.6956"/>
<text text-anchor="middle" x="655" y="-50" font-family="FreeSans" font-size="10.00"> LocalXform</text>
</g>
<!-- Node40 -->
<g id="node87" class="node"><title>Node40</title>
<a xlink:href="classMezzanine_1_1Vector3.xhtml" target="_top" xlink:title="This is used to represent a point in space, or a vector through space.">
<polygon fill="white" stroke="black" points="232,-38 232,-58 332,-58 332,-38 232,-38"/>
<text text-anchor="middle" x="282" y="-45" font-family="FreeSans" font-size="10.00">Mezzanine::Vector3</text>
</a>
</g>
<!-- Node40&#45;&gt;Node39 -->
<g id="edge96" class="edge"><title>Node40&#45;&gt;Node39</title>
<path fill="none" stroke="#9a32cd" stroke-dasharray="5,2" d="M342.223,-48C379.018,-48 425.734,-48 461.609,-48"/>
<polygon fill="#9a32cd" stroke="#9a32cd" points="342.125,-44.5001 332.125,-48 342.125,-51.5001 342.125,-44.5001"/>
<text text-anchor="middle" x="398" y="-51" font-family="FreeSans" font-size="10.00"> Location</text>
</g>
<!-- Node41 -->
<g id="node89" class="node"><title>Node41</title>
<a xlink:href="classMezzanine_1_1Quaternion.xhtml" target="_top" xlink:title="This is used to store information about rotation in 3d space.">
<polygon fill="white" stroke="black" points="225,-98 225,-118 339,-118 339,-98 225,-98"/>
<text text-anchor="middle" x="282" y="-105" font-family="FreeSans" font-size="10.00">Mezzanine::Quaternion</text>
</a>
</g>
<!-- Node41&#45;&gt;Node39 -->
<g id="edge98" class="edge"><title>Node41&#45;&gt;Node39</title>
<path fill="none" stroke="#9a32cd" stroke-dasharray="5,2" d="M331.126,-95.4571C374.607,-84.3556 437.246,-68.3628 477.538,-58.0754"/>
<polygon fill="#9a32cd" stroke="#9a32cd" points="330.157,-92.0922 321.334,-97.9573 331.889,-98.8747 330.157,-92.0922"/>
<text text-anchor="middle" x="398" y="-89" font-family="FreeSans" font-size="10.00"> Rotation</text>
</g>
</g>
</svg>
