<?xml version="1.0" encoding="UTF-8" standalone="no"?>
<!DOCTYPE svg PUBLIC "-//W3C//DTD SVG 1.1//EN"
 "http://www.w3.org/Graphics/SVG/1.1/DTD/svg11.dtd">
<!-- Generated by graphviz version 2.38.0 (20140413.2041)
 -->
<!-- Title: Mezzanine::EventPumpWorkUnit Pages: 1 -->
<svg width="1541pt" height="322pt"
 viewBox="0.00 0.00 1541.00 321.50" xmlns="http://www.w3.org/2000/svg" xmlns:xlink="http://www.w3.org/1999/xlink">
<g id="graph0" class="graph" transform="scale(1 1) rotate(0) translate(4 317.5)">
<title>Mezzanine::EventPumpWorkUnit</title>
<polygon fill="white" stroke="none" points="-4,4 -4,-317.5 1537,-317.5 1537,4 -4,4"/>
<!-- Node1 -->
<g id="node1" class="node"><title>Node1</title>
<polygon fill="#bfbfbf" stroke="black" points="645,-55 645,-74 807,-74 807,-55 645,-55"/>
<text text-anchor="middle" x="726" y="-62" font-family="Helvetica,sans-Serif" font-size="10.00">Mezzanine::EventPumpWorkUnit</text>
</g>
<!-- Node14 -->
<g id="node14" class="node"><title>Node14</title>
<g id="a_node14"><a xlink:href="structMezzanine_1_1Internal_1_1EventManagerInternalData.html" target="_top" xlink:title="Used to increase encapsulation, just a bit. ">
<polygon fill="white" stroke="black" points="923,-122.5 923,-152.5 1062,-152.5 1062,-122.5 923,-122.5"/>
<text text-anchor="start" x="931" y="-140.5" font-family="Helvetica,sans-Serif" font-size="10.00">Mezzanine::Internal</text>
<text text-anchor="middle" x="992.5" y="-129.5" font-family="Helvetica,sans-Serif" font-size="10.00">::EventManagerInternalData</text>
</a>
</g>
</g>
<!-- Node1&#45;&gt;Node14 -->
<g id="edge17" class="edge"><title>Node1&#45;&gt;Node14</title>
<path fill="none" stroke="#9a32cd" stroke-dasharray="5,2" d="M780.694,-76.3381C815.72,-84.3742 862.318,-95.6596 903,-107.5 918.265,-111.943 934.813,-117.381 949.423,-122.4"/>
<polygon fill="#9a32cd" stroke="#9a32cd" points="781.205,-72.8648 770.677,-74.0559 779.65,-79.6899 781.205,-72.8648"/>
<text text-anchor="middle" x="864" y="-110.5" font-family="Helvetica,sans-Serif" font-size="10.00"> EventPumpWork</text>
</g>
<!-- Node2 -->
<g id="node2" class="node"><title>Node2</title>
<g id="a_node2"><a xlink:href="classMezzanine_1_1Threading_1_1DefaultWorkUnit.html" target="_top" xlink:title="Default implementation of WorkUnit. This represents on piece of work through time. ">
<polygon fill="white" stroke="black" points="436.5,-49.5 436.5,-79.5 549.5,-79.5 549.5,-49.5 436.5,-49.5"/>
<text text-anchor="start" x="444.5" y="-67.5" font-family="Helvetica,sans-Serif" font-size="10.00">Mezzanine::Threading</text>
<text text-anchor="middle" x="493" y="-56.5" font-family="Helvetica,sans-Serif" font-size="10.00">::DefaultWorkUnit</text>
</a>
</g>
</g>
<!-- Node2&#45;&gt;Node1 -->
<g id="edge1" class="edge"><title>Node2&#45;&gt;Node1</title>
<path fill="none" stroke="midnightblue" d="M559.929,-64.5C586.419,-64.5 617.203,-64.5 644.961,-64.5"/>
<polygon fill="midnightblue" stroke="midnightblue" points="559.624,-61.0001 549.624,-64.5 559.624,-68.0001 559.624,-61.0001"/>
</g>
<!-- Node3 -->
<g id="node3" class="node"><title>Node3</title>
<g id="a_node3"><a xlink:href="classMezzanine_1_1Threading_1_1iWorkUnit.html" target="_top" xlink:title="Interface of a WorkUnit. This represents on piece of work through time. ">
<polygon fill="white" stroke="black" points="0,-75.5 0,-105.5 113,-105.5 113,-75.5 0,-75.5"/>
<text text-anchor="start" x="8" y="-93.5" font-family="Helvetica,sans-Serif" font-size="10.00">Mezzanine::Threading</text>
<text text-anchor="middle" x="56.5" y="-82.5" font-family="Helvetica,sans-Serif" font-size="10.00">::iWorkUnit</text>
</a>
</g>
</g>
<!-- Node3&#45;&gt;Node2 -->
<g id="edge2" class="edge"><title>Node3&#45;&gt;Node2</title>
<path fill="none" stroke="midnightblue" d="M123.334,-94.2579C125.922,-94.3501 128.485,-94.4316 131,-94.5 257.795,-97.9477 290.501,-97.9116 416,-79.5 422.653,-78.5239 429.607,-77.3569 436.489,-76.1108"/>
<polygon fill="midnightblue" stroke="midnightblue" points="123.402,-90.7579 113.27,-93.8541 123.121,-97.7522 123.402,-90.7579"/>
</g>
<!-- Node4 -->
<g id="node4" class="node"><title>Node4</title>
<polygon fill="white" stroke="#bfbfbf" points="192,-49.5 192,-79.5 323,-79.5 323,-49.5 192,-49.5"/>
<text text-anchor="start" x="200" y="-67.5" font-family="Helvetica,sans-Serif" font-size="10.00">std::vector&lt; Mezzanine</text>
<text text-anchor="middle" x="257.5" y="-56.5" font-family="Helvetica,sans-Serif" font-size="10.00">::Threading::iWorkUnit * &gt;</text>
</g>
<!-- Node3&#45;&gt;Node4 -->
<g id="edge4" class="edge"><title>Node3&#45;&gt;Node4</title>
<path fill="none" stroke="#9a32cd" stroke-dasharray="5,2" d="M123.123,-81.9261C145.152,-79.048 169.697,-75.8411 191.665,-72.9709"/>
<polygon fill="#9a32cd" stroke="#9a32cd" points="122.659,-78.4569 113.197,-83.223 123.566,-85.3979 122.659,-78.4569"/>
<text text-anchor="middle" x="152.5" y="-84.5" font-family="Helvetica,sans-Serif" font-size="10.00"> elements</text>
</g>
<!-- Node4&#45;&gt;Node2 -->
<g id="edge3" class="edge"><title>Node4&#45;&gt;Node2</title>
<path fill="none" stroke="#9a32cd" stroke-dasharray="5,2" d="M333.414,-64.5C366.812,-64.5 405.474,-64.5 436.263,-64.5"/>
<polygon fill="#9a32cd" stroke="#9a32cd" points="333.233,-61.0001 323.233,-64.5 333.233,-68.0001 333.233,-61.0001"/>
<text text-anchor="middle" x="378.5" y="-67.5" font-family="Helvetica,sans-Serif" font-size="10.00"> Dependencies</text>
</g>
<!-- Node5 -->
<g id="node5" class="node"><title>Node5</title>
<g id="a_node5"><a xlink:href="structMezzanine_1_1DefaultRollingAverage.html" target="_top" xlink:title="Mezzanine::DefaultRolling\lAverage\&lt; Whole \&gt;">
<polygon fill="white" stroke="black" points="192,-0.5 192,-30.5 323,-30.5 323,-0.5 192,-0.5"/>
<text text-anchor="start" x="200" y="-18.5" font-family="Helvetica,sans-Serif" font-size="10.00">Mezzanine::DefaultRolling</text>
<text text-anchor="middle" x="257.5" y="-7.5" font-family="Helvetica,sans-Serif" font-size="10.00">Average&lt; Whole &gt;</text>
</a>
</g>
</g>
<!-- Node5&#45;&gt;Node2 -->
<g id="edge5" class="edge"><title>Node5&#45;&gt;Node2</title>
<path fill="none" stroke="#9a32cd" stroke-dasharray="5,2" d="M333.414,-31.2207C366.812,-38.2293 405.474,-46.3425 436.263,-52.8035"/>
<polygon fill="#9a32cd" stroke="#9a32cd" points="333.738,-27.7126 323.233,-29.0842 332.301,-34.5634 333.738,-27.7126"/>
<text text-anchor="middle" x="378.5" y="-50.5" font-family="Helvetica,sans-Serif" font-size="10.00"> PerformanceLog</text>
</g>
<!-- Node6 -->
<g id="node6" class="node"><title>Node6</title>
<g id="a_node6"><a xlink:href="classMezzanine_1_1EventManager.html" target="_top" xlink:title="This is a container for Events and facilitates the transfer of data. ">
<polygon fill="white" stroke="black" points="1197,-159 1197,-178 1330,-178 1330,-159 1197,-159"/>
<text text-anchor="middle" x="1263.5" y="-166" font-family="Helvetica,sans-Serif" font-size="10.00">Mezzanine::EventManager</text>
</a>
</g>
</g>
<!-- Node6&#45;&gt;Node1 -->
<g id="edge6" class="edge"><title>Node6&#45;&gt;Node1</title>
<path fill="none" stroke="#9a32cd" stroke-dasharray="5,2" d="M1229.72,-155.009C1190.85,-139.59 1123.81,-114.777 1064,-101.5 993.709,-85.8974 974.571,-91.364 903,-83.5 871.687,-80.0594 837.234,-76.328 807.175,-73.0903"/>
<polygon fill="#9a32cd" stroke="#9a32cd" points="1228.85,-158.432 1239.43,-158.903 1231.45,-151.934 1228.85,-158.432"/>
<text text-anchor="middle" x="992.5" y="-104.5" font-family="Helvetica,sans-Serif" font-size="10.00"> TargetManager</text>
</g>
<!-- Node11 -->
<g id="node11" class="node"><title>Node11</title>
<g id="a_node11"><a xlink:href="classMezzanine_1_1Singleton.html" target="_top" xlink:title="Mezzanine::Singleton\l\&lt; EventManager \&gt;">
<polygon fill="white" stroke="black" points="1423,-153.5 1423,-183.5 1533,-183.5 1533,-153.5 1423,-153.5"/>
<text text-anchor="start" x="1431" y="-171.5" font-family="Helvetica,sans-Serif" font-size="10.00">Mezzanine::Singleton</text>
<text text-anchor="middle" x="1478" y="-160.5" font-family="Helvetica,sans-Serif" font-size="10.00">&lt; EventManager &gt;</text>
</a>
</g>
</g>
<!-- Node6&#45;&gt;Node11 -->
<g id="edge13" class="edge"><title>Node6&#45;&gt;Node11</title>
<path fill="none" stroke="#9a32cd" stroke-dasharray="5,2" d="M1340.56,-168.5C1367.8,-168.5 1397.93,-168.5 1422.93,-168.5"/>
<polygon fill="#9a32cd" stroke="#9a32cd" points="1340.28,-165 1330.28,-168.5 1340.28,-172 1340.28,-165"/>
<text text-anchor="middle" x="1376.5" y="-171.5" font-family="Helvetica,sans-Serif" font-size="10.00"> SingletonPtr</text>
</g>
<!-- Node7 -->
<g id="node7" class="node"><title>Node7</title>
<g id="a_node7"><a xlink:href="classMezzanine_1_1EntresolManager.html" target="_top" xlink:title="This is the base class for all managers that do no describe properties of a single world...">
<polygon fill="white" stroke="black" points="921,-249 921,-268 1064,-268 1064,-249 921,-249"/>
<text text-anchor="middle" x="992.5" y="-256" font-family="Helvetica,sans-Serif" font-size="10.00">Mezzanine::EntresolManager</text>
</a>
</g>
</g>
<!-- Node7&#45;&gt;Node6 -->
<g id="edge7" class="edge"><title>Node7&#45;&gt;Node6</title>
<path fill="none" stroke="midnightblue" d="M1039.49,-246.362C1077.31,-236.027 1132.09,-220.228 1179,-203.5 1200.62,-195.791 1224.73,-185.491 1241.47,-178.063"/>
<polygon fill="midnightblue" stroke="midnightblue" points="1038.52,-243.001 1029.78,-248.999 1040.35,-249.757 1038.52,-243.001"/>
</g>
<!-- Node8 -->
<g id="node8" class="node"><title>Node8</title>
<g id="a_node8"><a xlink:href="classMezzanine_1_1ManagerBase.html" target="_top" xlink:title="This is the base class from which all the Entresol and World Managers inherit. ">
<polygon fill="white" stroke="black" points="661,-294 661,-313 791,-313 791,-294 661,-294"/>
<text text-anchor="middle" x="726" y="-301" font-family="Helvetica,sans-Serif" font-size="10.00">Mezzanine::ManagerBase</text>
</a>
</g>
</g>
<!-- Node8&#45;&gt;Node7 -->
<g id="edge8" class="edge"><title>Node8&#45;&gt;Node7</title>
<path fill="none" stroke="midnightblue" d="M793.09,-292.256C836.941,-284.795 893.864,-275.111 935.487,-268.03"/>
<polygon fill="midnightblue" stroke="midnightblue" points="792.365,-288.829 783.094,-293.957 793.539,-295.73 792.365,-288.829"/>
</g>
<!-- Node9 -->
<g id="node9" class="node"><title>Node9</title>
<g id="a_node9"><a xlink:href="classMezzanine_1_1Entresol.html" target="_top" xlink:title="This is the main entry point for the entire library. ">
<polygon fill="white" stroke="black" points="440,-260 440,-279 546,-279 546,-260 440,-260"/>
<text text-anchor="middle" x="493" y="-267" font-family="Helvetica,sans-Serif" font-size="10.00">Mezzanine::Entresol</text>
</a>
</g>
</g>
<!-- Node9&#45;&gt;Node8 -->
<g id="edge9" class="edge"><title>Node9&#45;&gt;Node8</title>
<path fill="none" stroke="#9a32cd" stroke-dasharray="5,2" d="M556.355,-278.678C588.673,-283.435 628.091,-289.236 660.689,-294.034"/>
<polygon fill="#9a32cd" stroke="#9a32cd" points="556.532,-275.166 546.129,-277.173 555.513,-282.092 556.532,-275.166"/>
<text text-anchor="middle" x="598.5" y="-291.5" font-family="Helvetica,sans-Serif" font-size="10.00"> TheEntresol</text>
</g>
<!-- Node10 -->
<g id="node10" class="node"><title>Node10</title>
<g id="a_node10"><a xlink:href="classMezzanine_1_1Singleton.html" target="_top" xlink:title="Mezzanine::Singleton\l\&lt; Entresol \&gt;">
<polygon fill="white" stroke="black" points="671,-244.5 671,-274.5 781,-274.5 781,-244.5 671,-244.5"/>
<text text-anchor="start" x="679" y="-262.5" font-family="Helvetica,sans-Serif" font-size="10.00">Mezzanine::Singleton</text>
<text text-anchor="middle" x="726" y="-251.5" font-family="Helvetica,sans-Serif" font-size="10.00">&lt; Entresol &gt;</text>
</a>
</g>
</g>
<!-- Node9&#45;&gt;Node10 -->
<g id="edge11" class="edge"><title>Node9&#45;&gt;Node10</title>
<path fill="none" stroke="#9a32cd" stroke-dasharray="5,2" d="M556.424,-266.798C592.101,-265.253 636.413,-263.335 670.651,-261.853"/>
<polygon fill="#9a32cd" stroke="#9a32cd" points="555.968,-263.314 546.129,-267.243 556.271,-270.307 555.968,-263.314"/>
<text text-anchor="middle" x="598.5" y="-268.5" font-family="Helvetica,sans-Serif" font-size="10.00"> SingletonPtr</text>
</g>
<!-- Node10&#45;&gt;Node9 -->
<g id="edge10" class="edge"><title>Node10&#45;&gt;Node9</title>
<path fill="none" stroke="midnightblue" d="M660.644,-250.582C632.711,-248.048 599.665,-246.848 570,-250.5 554.882,-252.361 538.445,-256.231 524.737,-259.995"/>
<polygon fill="midnightblue" stroke="midnightblue" points="660.393,-254.074 670.688,-251.57 661.078,-247.108 660.393,-254.074"/>
</g>
<!-- Node11&#45;&gt;Node6 -->
<g id="edge12" class="edge"><title>Node11&#45;&gt;Node6</title>
<path fill="none" stroke="midnightblue" d="M1412.67,-166.624C1410.08,-166.577 1407.52,-166.535 1405,-166.5 1379.67,-166.148 1373.33,-166.197 1348,-166.5 1342.2,-166.569 1336.17,-166.666 1330.13,-166.78"/>
<polygon fill="midnightblue" stroke="midnightblue" points="1412.68,-170.125 1422.75,-166.832 1412.82,-163.126 1412.68,-170.125"/>
</g>
<!-- Node12 -->
<g id="node12" class="node"><title>Node12</title>
<g id="a_node12"><a xlink:title="STL class. ">
<polygon fill="white" stroke="#bfbfbf" points="962.5,-191 962.5,-210 1022.5,-210 1022.5,-191 962.5,-191"/>
<text text-anchor="middle" x="992.5" y="-198" font-family="Helvetica,sans-Serif" font-size="10.00">std::string</text>
</a>
</g>
</g>
<!-- Node12&#45;&gt;Node6 -->
<g id="edge14" class="edge"><title>Node12&#45;&gt;Node6</title>
<path fill="none" stroke="#9a32cd" stroke-dasharray="5,2" d="M1032.61,-195.848C1075.62,-190.731 1145.44,-182.425 1196.87,-176.308"/>
<polygon fill="#9a32cd" stroke="#9a32cd" points="1032.06,-192.388 1022.54,-197.045 1032.89,-199.339 1032.06,-192.388"/>
<text text-anchor="middle" x="1130.5" y="-191.5" font-family="Helvetica,sans-Serif" font-size="10.00"> ImplementationName</text>
</g>
<!-- Node13 -->
<g id="node13" class="node"><title>Node13</title>
<g id="a_node13"><a xlink:title="STL class. ">
<polygon fill="white" stroke="#bfbfbf" points="678.5,-195.5 678.5,-225.5 773.5,-225.5 773.5,-195.5 678.5,-195.5"/>
<text text-anchor="start" x="686.5" y="-213.5" font-family="Helvetica,sans-Serif" font-size="10.00">std::basic_string&lt;</text>
<text text-anchor="middle" x="726" y="-202.5" font-family="Helvetica,sans-Serif" font-size="10.00"> char &gt;</text>
</a>
</g>
</g>
<!-- Node13&#45;&gt;Node12 -->
<g id="edge15" class="edge"><title>Node13&#45;&gt;Node12</title>
<path fill="none" stroke="midnightblue" d="M783.949,-208.347C838.832,-206.272 919.663,-203.216 962.453,-201.598"/>
<polygon fill="midnightblue" stroke="midnightblue" points="783.539,-204.86 773.678,-208.735 783.804,-211.855 783.539,-204.86"/>
</g>
<!-- Node14&#45;&gt;Node6 -->
<g id="edge16" class="edge"><title>Node14&#45;&gt;Node6</title>
<path fill="none" stroke="#9a32cd" stroke-dasharray="5,2" d="M1072.22,-146.572C1111.81,-151.134 1159.23,-156.599 1196.83,-160.932"/>
<polygon fill="#9a32cd" stroke="#9a32cd" points="1072.41,-143.071 1062.08,-145.403 1071.61,-150.025 1072.41,-143.071"/>
<text text-anchor="middle" x="1130.5" y="-161.5" font-family="Helvetica,sans-Serif" font-size="10.00"> _Data</text>
</g>
<!-- Node15 -->
<g id="node15" class="node"><title>Node15</title>
<polygon fill="white" stroke="#bfbfbf" points="656,-146.5 656,-176.5 796,-176.5 796,-146.5 656,-146.5"/>
<text text-anchor="start" x="664" y="-164.5" font-family="Helvetica,sans-Serif" font-size="10.00">std::map&lt; Input::InputCode,</text>
<text text-anchor="middle" x="726" y="-153.5" font-family="Helvetica,sans-Serif" font-size="10.00"> PollingType &gt;</text>
</g>
<!-- Node15&#45;&gt;Node14 -->
<g id="edge18" class="edge"><title>Node15&#45;&gt;Node14</title>
<path fill="none" stroke="#9a32cd" stroke-dasharray="5,2" d="M806.412,-154.294C843.464,-150.932 887.138,-146.969 922.755,-143.738"/>
<polygon fill="#9a32cd" stroke="#9a32cd" points="805.792,-150.836 796.149,-155.226 806.424,-157.808 805.792,-150.836"/>
<text text-anchor="middle" x="864" y="-155.5" font-family="Helvetica,sans-Serif" font-size="10.00"> ManualCheck</text>
</g>
<!-- Node16 -->
<g id="node16" class="node"><title>Node16</title>
<polygon fill="white" stroke="#bfbfbf" points="673.5,-97.5 673.5,-127.5 778.5,-127.5 778.5,-97.5 673.5,-97.5"/>
<text text-anchor="start" x="681.5" y="-115.5" font-family="Helvetica,sans-Serif" font-size="10.00">std::list&lt; Mezzanine</text>
<text text-anchor="middle" x="726" y="-104.5" font-family="Helvetica,sans-Serif" font-size="10.00">::EventBase * &gt;</text>
</g>
<!-- Node16&#45;&gt;Node14 -->
<g id="edge19" class="edge"><title>Node16&#45;&gt;Node14</title>
<path fill="none" stroke="#9a32cd" stroke-dasharray="5,2" d="M788.832,-118.344C829.036,-122.144 881.499,-127.103 922.973,-131.023"/>
<polygon fill="#9a32cd" stroke="#9a32cd" points="788.911,-114.836 778.626,-117.38 788.252,-121.805 788.911,-114.836"/>
<text text-anchor="middle" x="864" y="-132.5" font-family="Helvetica,sans-Serif" font-size="10.00"> EventQ</text>
</g>
<!-- Node17 -->
<g id="node17" class="node"><title>Node17</title>
<g id="a_node17"><a xlink:href="classMezzanine_1_1EventBase.html" target="_top" xlink:title="The base class for all events. ">
<polygon fill="white" stroke="black" points="434,-103 434,-122 552,-122 552,-103 434,-103"/>
<text text-anchor="middle" x="493" y="-110" font-family="Helvetica,sans-Serif" font-size="10.00">Mezzanine::EventBase</text>
</a>
</g>
</g>
<!-- Node17&#45;&gt;Node16 -->
<g id="edge20" class="edge"><title>Node17&#45;&gt;Node16</title>
<path fill="none" stroke="#9a32cd" stroke-dasharray="5,2" d="M562.583,-112.5C598.097,-112.5 640.741,-112.5 673.42,-112.5"/>
<polygon fill="#9a32cd" stroke="#9a32cd" points="562.291,-109 552.291,-112.5 562.291,-116 562.291,-109"/>
<text text-anchor="middle" x="598.5" y="-115.5" font-family="Helvetica,sans-Serif" font-size="10.00"> elements</text>
</g>
</g>
</svg>
