<?xml version="1.0" encoding="UTF-8" standalone="no"?>
<!DOCTYPE svg PUBLIC "-//W3C//DTD SVG 1.1//EN"
 "http://www.w3.org/Graphics/SVG/1.1/DTD/svg11.dtd">
<!-- Generated by graphviz version 2.38.0 (20140413.2041)
 -->
<!-- Title: Mezzanine::UI::QuadRenderable Pages: 1 -->
<svg width="1080pt" height="389pt"
 viewBox="0.00 0.00 1080.00 389.00" xmlns="http://www.w3.org/2000/svg" xmlns:xlink="http://www.w3.org/1999/xlink">
<g id="graph0" class="graph" transform="scale(1 1) rotate(0) translate(4 385)">
<title>Mezzanine::UI::QuadRenderable</title>
<polygon fill="white" stroke="none" points="-4,4 -4,-385 1076,-385 1076,4 -4,4"/>
<!-- Node1 -->
<g id="node1" class="node"><title>Node1</title>
<polygon fill="#bfbfbf" stroke="black" points="172,-228.5 172,-247.5 331,-247.5 331,-228.5 172,-228.5"/>
<text text-anchor="middle" x="251.5" y="-235.5" font-family="Helvetica,sans-Serif" font-size="10.00">Mezzanine::UI::QuadRenderable</text>
</g>
<!-- Node3 -->
<g id="node3" class="node"><title>Node3</title>
<g id="a_node3"><a xlink:href="classMezzanine_1_1UI_1_1Screen.html" target="_top" xlink:title="This class is a helper class for creating UI&#39;s. It is responsible for storing and keeping track of al...">
<polygon fill="white" stroke="black" points="367,-247.5 367,-266.5 484,-266.5 484,-247.5 367,-247.5"/>
<text text-anchor="middle" x="425.5" y="-254.5" font-family="Helvetica,sans-Serif" font-size="10.00">Mezzanine::UI::Screen</text>
</a>
</g>
</g>
<!-- Node1&#45;&gt;Node3 -->
<g id="edge2" class="edge"><title>Node1&#45;&gt;Node3</title>
<path fill="none" stroke="midnightblue" d="M341.376,-247.818C350.046,-248.775 358.677,-249.729 366.916,-250.639"/>
<polygon fill="midnightblue" stroke="midnightblue" points="341.525,-244.313 331.201,-246.694 340.756,-251.271 341.525,-244.313"/>
</g>
<!-- Node4 -->
<g id="node4" class="node"><title>Node4</title>
<g id="a_node4"><a xlink:href="classMezzanine_1_1UI_1_1Widget.html" target="_top" xlink:title="This is the base class for all widgets. ">
<polygon fill="white" stroke="black" points="367,-209.5 367,-228.5 484,-228.5 484,-209.5 367,-209.5"/>
<text text-anchor="middle" x="425.5" y="-216.5" font-family="Helvetica,sans-Serif" font-size="10.00">Mezzanine::UI::Widget</text>
</a>
</g>
</g>
<!-- Node1&#45;&gt;Node4 -->
<g id="edge3" class="edge"><title>Node1&#45;&gt;Node4</title>
<path fill="none" stroke="midnightblue" d="M341.376,-228.182C350.046,-227.225 358.677,-226.271 366.916,-225.361"/>
<polygon fill="midnightblue" stroke="midnightblue" points="340.756,-224.729 331.201,-229.306 341.525,-231.687 340.756,-224.729"/>
</g>
<!-- Node2 -->
<g id="node2" class="node"><title>Node2</title>
<g id="a_node2"><a xlink:href="classMezzanine_1_1UI_1_1Renderable.html" target="_top" xlink:title="Basic class for all structures that get inserted into the rendering hierarchy. ">
<polygon fill="white" stroke="black" points="0,-228.5 0,-247.5 136,-247.5 136,-228.5 0,-228.5"/>
<text text-anchor="middle" x="68" y="-235.5" font-family="Helvetica,sans-Serif" font-size="10.00">Mezzanine::UI::Renderable</text>
</a>
</g>
</g>
<!-- Node2&#45;&gt;Node1 -->
<g id="edge1" class="edge"><title>Node2&#45;&gt;Node1</title>
<path fill="none" stroke="midnightblue" d="M146.258,-238C154.693,-238 163.287,-238 171.74,-238"/>
<polygon fill="midnightblue" stroke="midnightblue" points="146.068,-234.5 136.068,-238 146.068,-241.5 146.068,-234.5"/>
</g>
<!-- Node5 -->
<g id="node5" class="node"><title>Node5</title>
<g id="a_node5"><a xlink:href="classMezzanine_1_1UI_1_1Button.html" target="_top" xlink:title="This class is a helper class, specifically for use as a button. ">
<polygon fill="white" stroke="black" points="544.5,-342.5 544.5,-361.5 659.5,-361.5 659.5,-342.5 544.5,-342.5"/>
<text text-anchor="middle" x="602" y="-349.5" font-family="Helvetica,sans-Serif" font-size="10.00">Mezzanine::UI::Button</text>
</a>
</g>
</g>
<!-- Node4&#45;&gt;Node5 -->
<g id="edge4" class="edge"><title>Node4&#45;&gt;Node5</title>
<path fill="none" stroke="midnightblue" d="M478.734,-233.679C480.599,-234.997 482.365,-236.434 484,-238 516.608,-269.232 486.039,-303.245 520,-333 526.953,-339.092 535.492,-343.325 544.39,-346.249"/>
<polygon fill="midnightblue" stroke="midnightblue" points="480.44,-230.622 470.036,-228.623 476.923,-236.674 480.44,-230.622"/>
</g>
<!-- Node9 -->
<g id="node9" class="node"><title>Node9</title>
<g id="a_node9"><a xlink:href="classMezzanine_1_1UI_1_1DropDownList.html" target="_top" xlink:title="This is a widget that displays one selection from a list that can have it&#39;s visibility toggled...">
<polygon fill="white" stroke="black" points="527.5,-304.5 527.5,-323.5 676.5,-323.5 676.5,-304.5 527.5,-304.5"/>
<text text-anchor="middle" x="602" y="-311.5" font-family="Helvetica,sans-Serif" font-size="10.00">Mezzanine::UI::DropDownList</text>
</a>
</g>
</g>
<!-- Node4&#45;&gt;Node9 -->
<g id="edge8" class="edge"><title>Node4&#45;&gt;Node9</title>
<path fill="none" stroke="midnightblue" d="M476.269,-232.886C478.99,-234.42 481.592,-236.119 484,-238 507.61,-256.449 495.595,-277.616 520,-295 525.412,-298.855 531.494,-301.938 537.831,-304.402"/>
<polygon fill="midnightblue" stroke="midnightblue" points="477.79,-229.733 467.264,-228.528 474.741,-236.034 477.79,-229.733"/>
</g>
<!-- Node10 -->
<g id="node10" class="node"><title>Node10</title>
<g id="a_node10"><a xlink:href="classMezzanine_1_1UI_1_1EditBox.html" target="_top" xlink:title="Widget for handling the input and manipulation of text. ">
<polygon fill="white" stroke="black" points="541.5,-266.5 541.5,-285.5 662.5,-285.5 662.5,-266.5 541.5,-266.5"/>
<text text-anchor="middle" x="602" y="-273.5" font-family="Helvetica,sans-Serif" font-size="10.00">Mezzanine::UI::EditBox</text>
</a>
</g>
</g>
<!-- Node4&#45;&gt;Node10 -->
<g id="edge9" class="edge"><title>Node4&#45;&gt;Node10</title>
<path fill="none" stroke="midnightblue" d="M468.109,-231.833C473.507,-233.764 478.921,-235.838 484,-238 500.647,-245.085 503.055,-250.66 520,-257 529.876,-260.695 540.706,-263.827 551.142,-266.418"/>
<polygon fill="midnightblue" stroke="midnightblue" points="469.08,-228.466 458.486,-228.522 466.803,-235.085 469.08,-228.466"/>
</g>
<!-- Node11 -->
<g id="node11" class="node"><title>Node11</title>
<g id="a_node11"><a xlink:href="classMezzanine_1_1UI_1_1LayoutContainer.html" target="_top" xlink:title="This is the base class for container objects that automatically position it&#39;s children. ">
<polygon fill="white" stroke="black" points="523,-228.5 523,-247.5 681,-247.5 681,-228.5 523,-228.5"/>
<text text-anchor="middle" x="602" y="-235.5" font-family="Helvetica,sans-Serif" font-size="10.00">Mezzanine::UI::LayoutContainer</text>
</a>
</g>
</g>
<!-- Node4&#45;&gt;Node11 -->
<g id="edge10" class="edge"><title>Node4&#45;&gt;Node11</title>
<path fill="none" stroke="midnightblue" d="M494.18,-226.369C503.586,-227.393 513.311,-228.452 522.888,-229.495"/>
<polygon fill="midnightblue" stroke="midnightblue" points="494.442,-222.877 484.121,-225.274 493.684,-229.836 494.442,-222.877"/>
</g>
<!-- Node12 -->
<g id="node12" class="node"><title>Node12</title>
<g id="a_node12"><a xlink:href="classMezzanine_1_1UI_1_1ListBox.html" target="_top" xlink:title="This is a widget for displaying a list of captions in a box. ">
<polygon fill="white" stroke="black" points="542.5,-190.5 542.5,-209.5 661.5,-209.5 661.5,-190.5 542.5,-190.5"/>
<text text-anchor="middle" x="602" y="-197.5" font-family="Helvetica,sans-Serif" font-size="10.00">Mezzanine::UI::ListBox</text>
</a>
</g>
</g>
<!-- Node4&#45;&gt;Node12 -->
<g id="edge11" class="edge"><title>Node4&#45;&gt;Node12</title>
<path fill="none" stroke="midnightblue" d="M494.358,-211.611C510.166,-209.89 526.869,-208.072 542.245,-206.397"/>
<polygon fill="midnightblue" stroke="midnightblue" points="493.684,-208.164 484.121,-212.726 494.442,-215.123 493.684,-208.164"/>
</g>
<!-- Node13 -->
<g id="node13" class="node"><title>Node13</title>
<g id="a_node13"><a xlink:href="classMezzanine_1_1UI_1_1PagedContainer.html" target="_top" xlink:title="This is the base class for containers that have a render area and work area of different sizes...">
<polygon fill="white" stroke="black" points="524,-152.5 524,-171.5 680,-171.5 680,-152.5 524,-152.5"/>
<text text-anchor="middle" x="602" y="-159.5" font-family="Helvetica,sans-Serif" font-size="10.00">Mezzanine::UI::PagedContainer</text>
</a>
</g>
</g>
<!-- Node4&#45;&gt;Node13 -->
<g id="edge12" class="edge"><title>Node4&#45;&gt;Node13</title>
<path fill="none" stroke="midnightblue" d="M456.76,-205.302C474.854,-197.466 498.446,-187.862 520,-181 531.148,-177.451 543.351,-174.245 554.825,-171.522"/>
<polygon fill="midnightblue" stroke="midnightblue" points="455.072,-202.221 447.322,-209.445 457.885,-208.631 455.072,-202.221"/>
</g>
<!-- Node18 -->
<g id="node18" class="node"><title>Node18</title>
<g id="a_node18"><a xlink:href="classMezzanine_1_1UI_1_1PageProvider.html" target="_top" xlink:title="This is the base class for interpretting widget values to page positions. ">
<polygon fill="white" stroke="black" points="529.5,-114.5 529.5,-133.5 674.5,-133.5 674.5,-114.5 529.5,-114.5"/>
<text text-anchor="middle" x="602" y="-121.5" font-family="Helvetica,sans-Serif" font-size="10.00">Mezzanine::UI::PageProvider</text>
</a>
</g>
</g>
<!-- Node4&#45;&gt;Node18 -->
<g id="edge17" class="edge"><title>Node4&#45;&gt;Node18</title>
<path fill="none" stroke="midnightblue" d="M442.425,-202.158C459.845,-184.741 489.388,-158.032 520,-143 527.909,-139.116 536.648,-136.005 545.372,-133.518"/>
<polygon fill="midnightblue" stroke="midnightblue" points="439.803,-199.834 435.314,-209.431 444.808,-204.727 439.803,-199.834"/>
</g>
<!-- Node23 -->
<g id="node23" class="node"><title>Node23</title>
<g id="a_node23"><a xlink:href="classMezzanine_1_1UI_1_1StackedContainer.html" target="_top" xlink:title="This is the base class for containers that stack their children one on top of the other...">
<polygon fill="white" stroke="black" points="520,-38.5 520,-57.5 684,-57.5 684,-38.5 520,-38.5"/>
<text text-anchor="middle" x="602" y="-45.5" font-family="Helvetica,sans-Serif" font-size="10.00">Mezzanine::UI::StackedContainer</text>
</a>
</g>
</g>
<!-- Node4&#45;&gt;Node23 -->
<g id="edge22" class="edge"><title>Node4&#45;&gt;Node23</title>
<path fill="none" stroke="midnightblue" d="M438.859,-201.058C455.612,-177.467 487.218,-135.451 520,-105 540.536,-85.9246 567.759,-68.0322 584.828,-57.5496"/>
<polygon fill="midnightblue" stroke="midnightblue" points="435.88,-199.211 433.005,-209.408 441.612,-203.229 435.88,-199.211"/>
</g>
<!-- Node6 -->
<g id="node6" class="node"><title>Node6</title>
<g id="a_node6"><a xlink:href="classMezzanine_1_1UI_1_1CheckBox.html" target="_top" xlink:title="This is a simple widget for storing a bool value. ">
<polygon fill="white" stroke="black" points="731.5,-361.5 731.5,-380.5 863.5,-380.5 863.5,-361.5 731.5,-361.5"/>
<text text-anchor="middle" x="797.5" y="-368.5" font-family="Helvetica,sans-Serif" font-size="10.00">Mezzanine::UI::CheckBox</text>
</a>
</g>
</g>
<!-- Node5&#45;&gt;Node6 -->
<g id="edge5" class="edge"><title>Node5&#45;&gt;Node6</title>
<path fill="none" stroke="midnightblue" d="M669.94,-358.573C689.791,-360.522 711.496,-362.653 731.239,-364.592"/>
<polygon fill="midnightblue" stroke="midnightblue" points="670.043,-355.066 659.749,-357.572 669.359,-362.033 670.043,-355.066"/>
</g>
<!-- Node8 -->
<g id="node8" class="node"><title>Node8</title>
<g id="a_node8"><a xlink:href="classMezzanine_1_1UI_1_1StackButton.html" target="_top" xlink:title="This is a button with additional data used to track the binding to a StackedContainer which can be se...">
<polygon fill="white" stroke="black" points="727.5,-323.5 727.5,-342.5 867.5,-342.5 867.5,-323.5 727.5,-323.5"/>
<text text-anchor="middle" x="797.5" y="-330.5" font-family="Helvetica,sans-Serif" font-size="10.00">Mezzanine::UI::StackButton</text>
</a>
</g>
</g>
<!-- Node5&#45;&gt;Node8 -->
<g id="edge7" class="edge"><title>Node5&#45;&gt;Node8</title>
<path fill="none" stroke="midnightblue" d="M669.888,-345.432C688.477,-343.607 708.697,-341.621 727.409,-339.784"/>
<polygon fill="midnightblue" stroke="midnightblue" points="669.359,-341.967 659.749,-346.428 670.043,-348.934 669.359,-341.967"/>
</g>
<!-- Node7 -->
<g id="node7" class="node"><title>Node7</title>
<g id="a_node7"><a xlink:href="classMezzanine_1_1UI_1_1RadioButton.html" target="_top" xlink:title="This is a simple widget where only one of it&#39;s selections can be selected at a time. ">
<polygon fill="white" stroke="black" points="921.5,-361.5 921.5,-380.5 1061.5,-380.5 1061.5,-361.5 921.5,-361.5"/>
<text text-anchor="middle" x="991.5" y="-368.5" font-family="Helvetica,sans-Serif" font-size="10.00">Mezzanine::UI::RadioButton</text>
</a>
</g>
</g>
<!-- Node6&#45;&gt;Node7 -->
<g id="edge6" class="edge"><title>Node6&#45;&gt;Node7</title>
<path fill="none" stroke="midnightblue" d="M873.68,-371C889.368,-371 905.835,-371 921.294,-371"/>
<polygon fill="midnightblue" stroke="midnightblue" points="873.502,-367.5 863.502,-371 873.502,-374.5 873.502,-367.5"/>
</g>
<!-- Node14 -->
<g id="node14" class="node"><title>Node14</title>
<g id="a_node14"><a xlink:href="classMezzanine_1_1UI_1_1GridContainer.html" target="_top" xlink:title="This is a container class for placing child objects on a 2 dimensional grid. ">
<polygon fill="white" stroke="black" points="724.5,-193.5 724.5,-212.5 870.5,-212.5 870.5,-193.5 724.5,-193.5"/>
<text text-anchor="middle" x="797.5" y="-200.5" font-family="Helvetica,sans-Serif" font-size="10.00">Mezzanine::UI::GridContainer</text>
</a>
</g>
</g>
<!-- Node13&#45;&gt;Node14 -->
<g id="edge13" class="edge"><title>Node13&#45;&gt;Node14</title>
<path fill="none" stroke="midnightblue" d="M657.664,-173.582C687.319,-179.866 723.526,-187.538 751.529,-193.471"/>
<polygon fill="midnightblue" stroke="midnightblue" points="658.387,-170.158 647.879,-171.509 656.936,-177.006 658.387,-170.158"/>
</g>
<!-- Node15 -->
<g id="node15" class="node"><title>Node15</title>
<g id="a_node15"><a xlink:href="classMezzanine_1_1UI_1_1LinearContainer.html" target="_top" xlink:title="This is a container class for placing child objects in succession on a single axis. ">
<polygon fill="white" stroke="black" points="720,-155.5 720,-174.5 875,-174.5 875,-155.5 720,-155.5"/>
<text text-anchor="middle" x="797.5" y="-162.5" font-family="Helvetica,sans-Serif" font-size="10.00">Mezzanine::UI::LinearContainer</text>
</a>
</g>
</g>
<!-- Node13&#45;&gt;Node15 -->
<g id="edge14" class="edge"><title>Node13&#45;&gt;Node15</title>
<path fill="none" stroke="midnightblue" d="M690.223,-163.352C700.064,-163.505 710.038,-163.66 719.733,-163.81"/>
<polygon fill="midnightblue" stroke="midnightblue" points="690.085,-159.85 680.032,-163.194 689.977,-166.849 690.085,-159.85"/>
</g>
<!-- Node16 -->
<g id="node16" class="node"><title>Node16</title>
<g id="a_node16"><a xlink:href="classMezzanine_1_1UI_1_1HorizontalContainer.html" target="_top" xlink:title="A layout container that aligns it&#39;s children along a common X axis. ">
<polygon fill="white" stroke="black" points="926,-196 926,-226 1057,-226 1057,-196 926,-196"/>
<text text-anchor="start" x="934" y="-214" font-family="Helvetica,sans-Serif" font-size="10.00">Mezzanine::UI::Horizontal</text>
<text text-anchor="middle" x="991.5" y="-203" font-family="Helvetica,sans-Serif" font-size="10.00">Container</text>
</a>
</g>
</g>
<!-- Node15&#45;&gt;Node16 -->
<g id="edge15" class="edge"><title>Node15&#45;&gt;Node16</title>
<path fill="none" stroke="midnightblue" d="M848.329,-176.938C872.567,-182.745 901.959,-189.787 927.713,-195.957"/>
<polygon fill="midnightblue" stroke="midnightblue" points="848.823,-173.458 838.283,-174.531 847.192,-180.265 848.823,-173.458"/>
</g>
<!-- Node17 -->
<g id="node17" class="node"><title>Node17</title>
<g id="a_node17"><a xlink:href="classMezzanine_1_1UI_1_1VerticalContainer.html" target="_top" xlink:title="A layout container that aligns it&#39;s children along a common Y axis. ">
<polygon fill="white" stroke="black" points="911,-157.5 911,-176.5 1072,-176.5 1072,-157.5 911,-157.5"/>
<text text-anchor="middle" x="991.5" y="-164.5" font-family="Helvetica,sans-Serif" font-size="10.00">Mezzanine::UI::VerticalContainer</text>
</a>
</g>
</g>
<!-- Node15&#45;&gt;Node17 -->
<g id="edge16" class="edge"><title>Node15&#45;&gt;Node17</title>
<path fill="none" stroke="midnightblue" d="M885.438,-165.906C893.876,-165.993 902.407,-166.082 910.769,-166.169"/>
<polygon fill="midnightblue" stroke="midnightblue" points="885.247,-162.404 875.211,-165.799 885.174,-169.403 885.247,-162.404"/>
</g>
<!-- Node19 -->
<g id="node19" class="node"><title>Node19</title>
<g id="a_node19"><a xlink:href="classMezzanine_1_1UI_1_1Scrollbar.html" target="_top" xlink:title="This is the scrollbar base class. ">
<polygon fill="white" stroke="black" points="735,-114.5 735,-133.5 860,-133.5 860,-114.5 735,-114.5"/>
<text text-anchor="middle" x="797.5" y="-121.5" font-family="Helvetica,sans-Serif" font-size="10.00">Mezzanine::UI::Scrollbar</text>
</a>
</g>
</g>
<!-- Node18&#45;&gt;Node19 -->
<g id="edge18" class="edge"><title>Node18&#45;&gt;Node19</title>
<path fill="none" stroke="midnightblue" d="M684.833,-124C701.58,-124 718.938,-124 734.835,-124"/>
<polygon fill="midnightblue" stroke="midnightblue" points="684.503,-120.5 674.502,-124 684.502,-127.5 684.503,-120.5"/>
</g>
<!-- Node22 -->
<g id="node22" class="node"><title>Node22</title>
<g id="a_node22"><a xlink:href="classMezzanine_1_1UI_1_1Spinner.html" target="_top" xlink:title="This is a simple widget for a numeric variable in a box. ">
<polygon fill="white" stroke="black" points="738,-76.5 738,-95.5 857,-95.5 857,-76.5 738,-76.5"/>
<text text-anchor="middle" x="797.5" y="-83.5" font-family="Helvetica,sans-Serif" font-size="10.00">Mezzanine::UI::Spinner</text>
</a>
</g>
</g>
<!-- Node18&#45;&gt;Node22 -->
<g id="edge21" class="edge"><title>Node18&#45;&gt;Node22</title>
<path fill="none" stroke="midnightblue" d="M661.753,-112.462C689.352,-107.042 721.855,-100.659 748.023,-95.5201"/>
<polygon fill="midnightblue" stroke="midnightblue" points="660.966,-109.049 651.828,-114.411 662.315,-115.918 660.966,-109.049"/>
</g>
<!-- Node20 -->
<g id="node20" class="node"><title>Node20</title>
<g id="a_node20"><a xlink:href="classMezzanine_1_1UI_1_1HorizontalScrollbar.html" target="_top" xlink:title="This is a scrollbar class aligned on the X axis. ">
<polygon fill="white" stroke="black" points="926,-108 926,-138 1057,-138 1057,-108 926,-108"/>
<text text-anchor="start" x="934" y="-126" font-family="Helvetica,sans-Serif" font-size="10.00">Mezzanine::UI::Horizontal</text>
<text text-anchor="middle" x="991.5" y="-115" font-family="Helvetica,sans-Serif" font-size="10.00">Scrollbar</text>
</a>
</g>
</g>
<!-- Node19&#45;&gt;Node20 -->
<g id="edge19" class="edge"><title>Node19&#45;&gt;Node20</title>
<path fill="none" stroke="midnightblue" d="M870.082,-123.627C888.424,-123.532 908.039,-123.429 925.999,-123.336"/>
<polygon fill="midnightblue" stroke="midnightblue" points="870.024,-120.127 860.042,-123.679 870.06,-127.127 870.024,-120.127"/>
</g>
<!-- Node21 -->
<g id="node21" class="node"><title>Node21</title>
<g id="a_node21"><a xlink:href="classMezzanine_1_1UI_1_1VerticalScrollbar.html" target="_top" xlink:title="This is a scrollbar class aligned on the Y axis. ">
<polygon fill="white" stroke="black" points="912.5,-69.5 912.5,-88.5 1070.5,-88.5 1070.5,-69.5 912.5,-69.5"/>
<text text-anchor="middle" x="991.5" y="-76.5" font-family="Helvetica,sans-Serif" font-size="10.00">Mezzanine::UI::VerticalScrollbar</text>
</a>
</g>
</g>
<!-- Node19&#45;&gt;Node21 -->
<g id="edge20" class="edge"><title>Node19&#45;&gt;Node21</title>
<path fill="none" stroke="midnightblue" d="M849.109,-112.139C880.559,-104.767 920.453,-95.4172 949.84,-88.5296"/>
<polygon fill="midnightblue" stroke="midnightblue" points="848.156,-108.767 839.218,-114.457 849.753,-115.582 848.156,-108.767"/>
</g>
<!-- Node24 -->
<g id="node24" class="node"><title>Node24</title>
<g id="a_node24"><a xlink:href="classMezzanine_1_1UI_1_1MenuEntry.html" target="_top" xlink:title="This class is an entry for a single window/widget in a menu. ">
<polygon fill="white" stroke="black" points="730.5,-38.5 730.5,-57.5 864.5,-57.5 864.5,-38.5 730.5,-38.5"/>
<text text-anchor="middle" x="797.5" y="-45.5" font-family="Helvetica,sans-Serif" font-size="10.00">Mezzanine::UI::MenuEntry</text>
</a>
</g>
</g>
<!-- Node23&#45;&gt;Node24 -->
<g id="edge23" class="edge"><title>Node23&#45;&gt;Node24</title>
<path fill="none" stroke="midnightblue" d="M694.394,-48C706.557,-48 718.834,-48 730.451,-48"/>
<polygon fill="midnightblue" stroke="midnightblue" points="694.22,-44.5001 684.22,-48 694.22,-51.5001 694.22,-44.5001"/>
</g>
<!-- Node25 -->
<g id="node25" class="node"><title>Node25</title>
<g id="a_node25"><a xlink:href="classMezzanine_1_1UI_1_1TabSet.html" target="_top" xlink:title="This is a widget that stores sets of renderables but only displays one at a time. ...">
<polygon fill="white" stroke="black" points="738.5,-0.5 738.5,-19.5 856.5,-19.5 856.5,-0.5 738.5,-0.5"/>
<text text-anchor="middle" x="797.5" y="-7.5" font-family="Helvetica,sans-Serif" font-size="10.00">Mezzanine::UI::TabSet</text>
</a>
</g>
</g>
<!-- Node23&#45;&gt;Node25 -->
<g id="edge24" class="edge"><title>Node23&#45;&gt;Node25</title>
<path fill="none" stroke="midnightblue" d="M661.753,-36.4619C689.352,-31.042 721.855,-24.659 748.023,-19.5201"/>
<polygon fill="midnightblue" stroke="midnightblue" points="660.966,-33.0495 651.828,-38.411 662.315,-39.9183 660.966,-33.0495"/>
</g>
</g>
</svg>
