<?xml version="1.0" encoding="UTF-8" standalone="no"?>
<!DOCTYPE svg PUBLIC "-//W3C//DTD SVG 1.1//EN"
 "http://www.w3.org/Graphics/SVG/1.1/DTD/svg11.dtd">
<!-- Generated by graphviz version 2.26.3 (20100126.1600)
 -->
<!-- Title: Mezzanine::RollingAverage&lt; RecordType &gt; Pages: 1 -->
<svg width="336pt" height="94pt"
 viewBox="0.00 0.00 336.00 94.00" xmlns="http://www.w3.org/2000/svg" xmlns:xlink="http://www.w3.org/1999/xlink">
<g id="graph1" class="graph" transform="scale(1 1) rotate(0) translate(4 90)">
<title>Mezzanine::RollingAverage&lt; RecordType &gt;</title>
<polygon fill="white" stroke="white" points="-4,5 -4,-90 333,-90 333,5 -4,5"/>
<!-- Node1 -->
<g id="node1" class="node"><title>Node1</title>
<polygon fill="#bfbfbf" stroke="black" points="0.5,-26 0.5,-60 143.5,-60 143.5,-26 0.5,-26"/>
<text text-anchor="start" x="8.5" y="-47" font-family="FreeSans" font-size="10.00">Mezzanine::RollingAverage</text>
<text text-anchor="middle" x="72" y="-34" font-family="FreeSans" font-size="10.00">&lt; RecordType &gt;</text>
</g>
<!-- Node2 -->
<g id="node3" class="node"><title>Node2</title>
<a xlink:href="classMezzanine_1_1BufferedRollingAverage.xhtml" target="_top" xlink:title="A RollingAverage that stores a copy of each record. and does the math when queried.">
<polygon fill="white" stroke="black" points="182,-52 182,-86 326,-86 326,-52 182,-52"/>
<text text-anchor="start" x="190" y="-73" font-family="FreeSans" font-size="10.00">Mezzanine::BufferedRolling</text>
<text text-anchor="middle" x="254" y="-60" font-family="FreeSans" font-size="10.00">Average&lt; RecordType &gt;</text>
</a>
</g>
<!-- Node1&#45;&gt;Node2 -->
<g id="edge2" class="edge"><title>Node1&#45;&gt;Node2</title>
<path fill="none" stroke="midnightblue" d="M153.747,-54.6782C163.099,-56.0142 172.583,-57.369 181.798,-58.6855"/>
<polygon fill="midnightblue" stroke="midnightblue" points="154.064,-51.188 143.67,-53.2386 153.074,-58.1177 154.064,-51.188"/>
</g>
<!-- Node3 -->
<g id="node5" class="node"><title>Node3</title>
<a xlink:href="classMezzanine_1_1WeightedRollingAverage.xhtml" target="_top" xlink:title="A weighted average that does math with every insertion and stores nothing.">
<polygon fill="white" stroke="black" points="180.5,-0 180.5,-34 327.5,-34 327.5,-0 180.5,-0"/>
<text text-anchor="start" x="188.5" y="-21" font-family="FreeSans" font-size="10.00">Mezzanine::WeightedRolling</text>
<text text-anchor="middle" x="254" y="-8" font-family="FreeSans" font-size="10.00">Average&lt; RecordType &gt;</text>
</a>
</g>
<!-- Node1&#45;&gt;Node3 -->
<g id="edge4" class="edge"><title>Node1&#45;&gt;Node3</title>
<path fill="none" stroke="midnightblue" d="M153.631,-31.3384C162.516,-30.0692 171.52,-28.7828 180.302,-27.5283"/>
<polygon fill="midnightblue" stroke="midnightblue" points="153.074,-27.8823 143.67,-32.7614 154.064,-34.812 153.074,-27.8823"/>
</g>
</g>
</svg>
