<?xml version="1.0" encoding="UTF-8" standalone="no"?>
<!DOCTYPE svg PUBLIC "-//W3C//DTD SVG 1.1//EN"
 "http://www.w3.org/Graphics/SVG/1.1/DTD/svg11.dtd">
<!-- Generated by graphviz version 2.38.0 (20140413.2041)
 -->
<!-- Title: Mezzanine::SyntaxErrorXPathException Pages: 1 -->
<svg width="276pt" height="207pt"
 viewBox="0.00 0.00 275.50 207.00" xmlns="http://www.w3.org/2000/svg" xmlns:xlink="http://www.w3.org/1999/xlink">
<g id="graph0" class="graph" transform="scale(1 1) rotate(0) translate(4 203)">
<title>Mezzanine::SyntaxErrorXPathException</title>
<polygon fill="white" stroke="none" points="-4,4 -4,-203 271.5,-203 271.5,4 -4,4"/>
<!-- Node1 -->
<g id="node1" class="node"><title>Node1</title>
<polygon fill="#bfbfbf" stroke="black" points="53,-0.5 53,-30.5 202,-30.5 202,-0.5 53,-0.5"/>
<text text-anchor="start" x="61" y="-18.5" font-family="Helvetica,sans-Serif" font-size="10.00">Mezzanine::SyntaxErrorXPath</text>
<text text-anchor="middle" x="127.5" y="-7.5" font-family="Helvetica,sans-Serif" font-size="10.00">Exception</text>
</g>
<!-- Node2 -->
<g id="node2" class="node"><title>Node2</title>
<g id="a_node2"><a xlink:href="classMezzanine_1_1SyntaxErrorException.html" target="_top" xlink:title="Thrown when some kind of syntax exception. ">
<polygon fill="white" stroke="black" points="45,-67.5 45,-86.5 210,-86.5 210,-67.5 45,-67.5"/>
<text text-anchor="middle" x="127.5" y="-74.5" font-family="Helvetica,sans-Serif" font-size="10.00">Mezzanine::SyntaxErrorException</text>
</a>
</g>
</g>
<!-- Node2&#45;&gt;Node1 -->
<g id="edge1" class="edge"><title>Node2&#45;&gt;Node1</title>
<path fill="none" stroke="midnightblue" d="M121.201,-57.5259C120.471,-48.8134 120.627,-38.5865 121.67,-30.523"/>
<polygon fill="midnightblue" stroke="midnightblue" points="117.741,-58.0597 122.599,-67.4751 124.673,-57.0852 117.741,-58.0597"/>
</g>
<!-- Node2&#45;&gt;Node1 -->
<g id="edge6" class="edge"><title>Node2&#45;&gt;Node1</title>
<path fill="none" stroke="midnightblue" d="M133.799,-57.5259C134.529,-48.8134 134.373,-38.5865 133.33,-30.523"/>
<polygon fill="midnightblue" stroke="midnightblue" points="130.327,-57.0852 132.401,-67.4751 137.259,-58.0597 130.327,-57.0852"/>
</g>
<!-- Node3 -->
<g id="node3" class="node"><title>Node3</title>
<g id="a_node3"><a xlink:href="classMezzanine_1_1Exception.html" target="_top" xlink:title="This is the exception thrown by most Mezzanine system that can throw exceptions. ">
<polygon fill="white" stroke="black" points="0,-123.5 0,-142.5 113,-142.5 113,-123.5 0,-123.5"/>
<text text-anchor="middle" x="56.5" y="-130.5" font-family="Helvetica,sans-Serif" font-size="10.00">Mezzanine::Exception</text>
</a>
</g>
</g>
<!-- Node3&#45;&gt;Node2 -->
<g id="edge2" class="edge"><title>Node3&#45;&gt;Node2</title>
<path fill="none" stroke="midnightblue" d="M76.0897,-117.101C88.8676,-107.382 105.113,-95.0269 115.885,-86.8339"/>
<polygon fill="midnightblue" stroke="midnightblue" points="73.7481,-114.484 67.9074,-123.324 77.9857,-120.056 73.7481,-114.484"/>
</g>
<!-- Node4 -->
<g id="node4" class="node"><title>Node4</title>
<g id="a_node4"><a xlink:title="STL class. ">
<polygon fill="white" stroke="#bfbfbf" points="88.5,-179.5 88.5,-198.5 166.5,-198.5 166.5,-179.5 88.5,-179.5"/>
<text text-anchor="middle" x="127.5" y="-186.5" font-family="Helvetica,sans-Serif" font-size="10.00">std::exception</text>
</a>
</g>
</g>
<!-- Node4&#45;&gt;Node3 -->
<g id="edge3" class="edge"><title>Node4&#45;&gt;Node3</title>
<path fill="none" stroke="midnightblue" d="M107.91,-173.101C95.1324,-163.382 78.8873,-151.027 68.1149,-142.834"/>
<polygon fill="midnightblue" stroke="midnightblue" points="106.014,-176.056 116.093,-179.324 110.252,-170.484 106.014,-176.056"/>
</g>
<!-- Node5 -->
<g id="node5" class="node"><title>Node5</title>
<g id="a_node5"><a xlink:href="classMezzanine_1_1ExceptionBase.html" target="_top" xlink:title="This is the exception thrown by most Mezzanine systems that can throw exceptions. ...">
<polygon fill="white" stroke="black" points="131.5,-123.5 131.5,-142.5 267.5,-142.5 267.5,-123.5 131.5,-123.5"/>
<text text-anchor="middle" x="199.5" y="-130.5" font-family="Helvetica,sans-Serif" font-size="10.00">Mezzanine::ExceptionBase</text>
</a>
</g>
</g>
<!-- Node4&#45;&gt;Node5 -->
<g id="edge5" class="edge"><title>Node4&#45;&gt;Node5</title>
<path fill="none" stroke="midnightblue" d="M147.366,-173.101C160.323,-163.382 176.797,-151.027 187.721,-142.834"/>
<polygon fill="midnightblue" stroke="midnightblue" points="144.968,-170.524 139.068,-179.324 149.168,-176.124 144.968,-170.524"/>
</g>
<!-- Node5&#45;&gt;Node2 -->
<g id="edge4" class="edge"><title>Node5&#45;&gt;Node2</title>
<path fill="none" stroke="midnightblue" d="M179.634,-117.101C166.677,-107.382 150.203,-95.0269 139.279,-86.8339"/>
<polygon fill="midnightblue" stroke="midnightblue" points="177.832,-120.124 187.932,-123.324 182.032,-114.524 177.832,-120.124"/>
</g>
</g>
</svg>
