<?xml version="1.0" encoding="UTF-8" standalone="no"?>
<!DOCTYPE svg PUBLIC "-//W3C//DTD SVG 1.1//EN"
 "http://www.w3.org/Graphics/SVG/1.1/DTD/svg11.dtd">
<!-- Generated by graphviz version 2.26.3 (20100126.1600)
 -->
<!-- Title: Mezzanine::Physics::SimulationMonopolyWorkUnit Pages: 1 -->
<svg width="156pt" height="252pt"
 viewBox="0.00 0.00 156.00 252.00" xmlns="http://www.w3.org/2000/svg" xmlns:xlink="http://www.w3.org/1999/xlink">
<g id="graph1" class="graph" transform="scale(1 1) rotate(0) translate(4 248)">
<title>Mezzanine::Physics::SimulationMonopolyWorkUnit</title>
<polygon fill="white" stroke="white" points="-4,5 -4,-248 153,-248 153,5 -4,5"/>
<!-- Node1 -->
<g id="node1" class="node"><title>Node1</title>
<polygon fill="#bfbfbf" stroke="black" points="0,-1 0,-33 148,-33 148,-1 0,-1"/>
<text text-anchor="start" x="8" y="-20" font-family="FreeSans" font-size="10.00">Mezzanine::Physics</text>
<text text-anchor="middle" x="74" y="-8" font-family="FreeSans" font-size="10.00">::SimulationMonopolyWorkUnit</text>
</g>
<!-- Node2 -->
<g id="node2" class="node"><title>Node2</title>
<a xlink:href="classMezzanine_1_1Threading_1_1MonopolyWorkUnit.html" target="_top" xlink:title="A kind of workunit given exclusive runtime so it can consume time on multiple threads.">
<polygon fill="white" stroke="black" points="19,-71 19,-103 129,-103 129,-71 19,-71"/>
<text text-anchor="start" x="27" y="-90" font-family="FreeSans" font-size="10.00">Mezzanine::Threading</text>
<text text-anchor="middle" x="74" y="-78" font-family="FreeSans" font-size="10.00">::MonopolyWorkUnit</text>
</a>
</g>
<!-- Node2&#45;&gt;Node1 -->
<g id="edge2" class="edge"><title>Node2&#45;&gt;Node1</title>
<path fill="none" stroke="midnightblue" d="M74,-60.5079C74,-51.3027 74,-41.2615 74,-33.1473"/>
<polygon fill="midnightblue" stroke="midnightblue" points="70.5001,-60.7646 74,-70.7646 77.5001,-60.7647 70.5001,-60.7646"/>
</g>
<!-- Node3 -->
<g id="node4" class="node"><title>Node3</title>
<a xlink:href="classMezzanine_1_1Threading_1_1DefaultWorkUnit.html" target="_top" xlink:title="Default implementation of WorkUnit. This represents on piece of work through time.">
<polygon fill="white" stroke="black" points="19,-141 19,-173 129,-173 129,-141 19,-141"/>
<text text-anchor="start" x="27" y="-160" font-family="FreeSans" font-size="10.00">Mezzanine::Threading</text>
<text text-anchor="middle" x="74" y="-148" font-family="FreeSans" font-size="10.00">::DefaultWorkUnit</text>
</a>
</g>
<!-- Node3&#45;&gt;Node2 -->
<g id="edge4" class="edge"><title>Node3&#45;&gt;Node2</title>
<path fill="none" stroke="midnightblue" d="M74,-130.508C74,-121.303 74,-111.262 74,-103.147"/>
<polygon fill="midnightblue" stroke="midnightblue" points="70.5001,-130.765 74,-140.765 77.5001,-130.765 70.5001,-130.765"/>
</g>
<!-- Node4 -->
<g id="node6" class="node"><title>Node4</title>
<a xlink:href="classMezzanine_1_1Threading_1_1iWorkUnit.html" target="_top" xlink:title="Interface of a WorkUnit. This represents on piece of work through time.">
<polygon fill="white" stroke="black" points="19,-211 19,-243 129,-243 129,-211 19,-211"/>
<text text-anchor="start" x="27" y="-230" font-family="FreeSans" font-size="10.00">Mezzanine::Threading</text>
<text text-anchor="middle" x="74" y="-218" font-family="FreeSans" font-size="10.00">::iWorkUnit</text>
</a>
</g>
<!-- Node4&#45;&gt;Node3 -->
<g id="edge6" class="edge"><title>Node4&#45;&gt;Node3</title>
<path fill="none" stroke="midnightblue" d="M74,-200.508C74,-191.303 74,-181.262 74,-173.147"/>
<polygon fill="midnightblue" stroke="midnightblue" points="70.5001,-200.765 74,-210.765 77.5001,-200.765 70.5001,-200.765"/>
</g>
</g>
</svg>
