<?xml version="1.0" encoding="UTF-8" standalone="no"?>
<!DOCTYPE svg PUBLIC "-//W3C//DTD SVG 1.1//EN"
 "http://www.w3.org/Graphics/SVG/1.1/DTD/svg11.dtd">
<!-- Generated by graphviz version 2.26.3 (20100126.1600)
 -->
<!-- Title: Mezzanine::UI::MarkupParser Pages: 1 -->
<svg width="229pt" height="254pt"
 viewBox="0.00 0.00 229.00 254.00" xmlns="http://www.w3.org/2000/svg" xmlns:xlink="http://www.w3.org/1999/xlink">
<g id="graph1" class="graph" transform="scale(1 1) rotate(0) translate(4 250)">
<title>Mezzanine::UI::MarkupParser</title>
<polygon fill="white" stroke="white" points="-4,5 -4,-250 226,-250 226,5 -4,5"/>
<!-- Node1 -->
<g id="node1" class="node"><title>Node1</title>
<polygon fill="#bfbfbf" stroke="black" points="38.5,-1 38.5,-21 179.5,-21 179.5,-1 38.5,-1"/>
<text text-anchor="middle" x="109" y="-8" font-family="FreeSans" font-size="10.00">Mezzanine::UI::MarkupParser</text>
</g>
<!-- Node2 -->
<g id="node2" class="node"><title>Node2</title>
<polygon fill="white" stroke="#bfbfbf" points="47,-71 47,-103 171,-103 171,-71 47,-71"/>
<text text-anchor="start" x="55" y="-90" font-family="FreeSans" font-size="10.00">std::map&lt; String, Markup</text>
<text text-anchor="middle" x="109" y="-78" font-family="FreeSans" font-size="10.00">Tag * &gt;</text>
</g>
<!-- Node2&#45;&gt;Node1 -->
<g id="edge2" class="edge"><title>Node2&#45;&gt;Node1</title>
<path fill="none" stroke="#9a32cd" stroke-dasharray="5,2" d="M109,-60.6278C109,-47.0695 109,-31.3257 109,-21.2694"/>
<polygon fill="#9a32cd" stroke="#9a32cd" points="105.5,-60.8823 109,-70.8824 112.5,-60.8824 105.5,-60.8823"/>
<text text-anchor="middle" x="121" y="-43" font-family="FreeSans" font-size="10.00"> Tags</text>
</g>
<!-- Node3 -->
<g id="node4" class="node"><title>Node3</title>
<a xlink:href="classMezzanine_1_1UI_1_1MarkupTag.html" target="_top" xlink:title="This is a base class for tags that implement the functionality of a markup language.">
<polygon fill="white" stroke="black" points="0,-153 0,-173 130,-173 130,-153 0,-153"/>
<text text-anchor="middle" x="65" y="-160" font-family="FreeSans" font-size="10.00">Mezzanine::UI::MarkupTag</text>
</a>
</g>
<!-- Node3&#45;&gt;Node2 -->
<g id="edge4" class="edge"><title>Node3&#45;&gt;Node2</title>
<path fill="none" stroke="#9a32cd" stroke-dasharray="5,2" d="M75.9988,-144.002C83.2743,-131.435 92.7114,-115.135 99.6292,-103.186"/>
<polygon fill="#9a32cd" stroke="#9a32cd" points="72.9155,-142.342 70.934,-152.75 78.9734,-145.85 72.9155,-142.342"/>
<text text-anchor="middle" x="109" y="-125" font-family="FreeSans" font-size="10.00"> elements</text>
</g>
<!-- Node4 -->
<g id="node6" class="node"><title>Node4</title>
<a xlink:title="STL class.">
<polygon fill="white" stroke="#bfbfbf" points="147.5,-153 147.5,-173 204.5,-173 204.5,-153 147.5,-153"/>
<text text-anchor="middle" x="176" y="-160" font-family="FreeSans" font-size="10.00">std::string</text>
</a>
</g>
<!-- Node4&#45;&gt;Node2 -->
<g id="edge6" class="edge"><title>Node4&#45;&gt;Node2</title>
<path fill="none" stroke="#9a32cd" stroke-dasharray="5,2" d="M160.221,-145.101C149.022,-132.398 134.113,-115.486 123.269,-103.186"/>
<polygon fill="#9a32cd" stroke="#9a32cd" points="157.726,-147.564 166.964,-152.75 162.977,-142.934 157.726,-147.564"/>
<text text-anchor="middle" x="159" y="-125" font-family="FreeSans" font-size="10.00"> keys</text>
</g>
<!-- Node5 -->
<g id="node8" class="node"><title>Node5</title>
<a xlink:title="STL class.">
<polygon fill="white" stroke="#bfbfbf" points="130.5,-213 130.5,-245 221.5,-245 221.5,-213 130.5,-213"/>
<text text-anchor="start" x="138.5" y="-232" font-family="FreeSans" font-size="10.00">std::basic_string&lt;</text>
<text text-anchor="middle" x="176" y="-220" font-family="FreeSans" font-size="10.00"> char &gt;</text>
</a>
</g>
<!-- Node5&#45;&gt;Node4 -->
<g id="edge8" class="edge"><title>Node5&#45;&gt;Node4</title>
<path fill="none" stroke="midnightblue" d="M176,-202.45C176,-192.156 176,-180.991 176,-173.175"/>
<polygon fill="midnightblue" stroke="midnightblue" points="172.5,-202.685 176,-212.685 179.5,-202.685 172.5,-202.685"/>
</g>
</g>
</svg>
