<?xml version="1.0" encoding="UTF-8" standalone="no"?>
<!DOCTYPE svg PUBLIC "-//W3C//DTD SVG 1.1//EN"
 "http://www.w3.org/Graphics/SVG/1.1/DTD/svg11.dtd">
<!-- Generated by graphviz version 2.26.3 (20100126.1600)
 -->
<!-- Title: Mezzanine::Scripting::iScriptingManager Pages: 1 -->
<svg width="272pt" height="190pt"
 viewBox="0.00 0.00 272.00 190.00" xmlns="http://www.w3.org/2000/svg" xmlns:xlink="http://www.w3.org/1999/xlink">
<g id="graph1" class="graph" transform="scale(1 1) rotate(0) translate(4 186)">
<title>Mezzanine::Scripting::iScriptingManager</title>
<polygon fill="white" stroke="white" points="-4,5 -4,-186 269,-186 269,5 -4,5"/>
<!-- Node1 -->
<g id="node1" class="node"><title>Node1</title>
<polygon fill="#bfbfbf" stroke="black" points="11,-1 11,-35 119,-35 119,-1 11,-1"/>
<text text-anchor="start" x="19" y="-22" font-family="Helvetica,sans-Serif" font-size="10.00">Mezzanine::Scripting</text>
<text text-anchor="middle" x="65" y="-9" font-family="Helvetica,sans-Serif" font-size="10.00">::iScriptingManager</text>
</g>
<!-- Node2 -->
<g id="node2" class="node"><title>Node2</title>
<a xlink:href="classMezzanine_1_1ManagerBase.html" target="_top" xlink:title="This is the base class from which all the Entresol and World Managers inherit. ">
<polygon fill="white" stroke="black" points="0,-81.5 0,-102.5 130,-102.5 130,-81.5 0,-81.5"/>
<text text-anchor="middle" x="65" y="-89.5" font-family="Helvetica,sans-Serif" font-size="10.00">Mezzanine::ManagerBase</text>
</a>
</g>
<!-- Node2&#45;&gt;Node1 -->
<g id="edge2" class="edge"><title>Node2&#45;&gt;Node1</title>
<path fill="none" stroke="midnightblue" d="M65,-71.0894C65,-59.7345 65,-45.869 65,-35.1558"/>
<polygon fill="midnightblue" stroke="midnightblue" points="61.5001,-71.3976 65,-81.3976 68.5001,-71.3976 61.5001,-71.3976"/>
</g>
<!-- Node3 -->
<g id="node4" class="node"><title>Node3</title>
<a xlink:href="classMezzanine_1_1Entresol.html" target="_top" xlink:title="This is the main entry point for the entire library. ">
<polygon fill="white" stroke="black" points="91,-160.5 91,-181.5 197,-181.5 197,-160.5 91,-160.5"/>
<text text-anchor="middle" x="144" y="-168.5" font-family="Helvetica,sans-Serif" font-size="10.00">Mezzanine::Entresol</text>
</a>
</g>
<!-- Node3&#45;&gt;Node2 -->
<g id="edge4" class="edge"><title>Node3&#45;&gt;Node2</title>
<path fill="none" stroke="#9a32cd" stroke-dasharray="5,2" d="M94.1634,-155.843C87.7037,-152.155 81.7095,-147.603 77,-142 67.6953,-130.929 65.3615,-113.847 64.902,-102.795"/>
<polygon fill="#9a32cd" stroke="#9a32cd" points="92.6745,-159.012 103.184,-160.356 95.8064,-152.751 92.6745,-159.012"/>
<text text-anchor="middle" x="105" y="-132.5" font-family="Helvetica,sans-Serif" font-size="10.00"> TheEntresol</text>
</g>
<!-- Node4 -->
<g id="node6" class="node"><title>Node4</title>
<a xlink:href="classMezzanine_1_1Singleton.html" target="_top" xlink:title="Mezzanine::Singleton\l\&lt; Entresol \&gt;">
<polygon fill="white" stroke="black" points="154,-75 154,-109 264,-109 264,-75 154,-75"/>
<text text-anchor="start" x="162" y="-96" font-family="Helvetica,sans-Serif" font-size="10.00">Mezzanine::Singleton</text>
<text text-anchor="middle" x="209" y="-83" font-family="Helvetica,sans-Serif" font-size="10.00">&lt; Entresol &gt;</text>
</a>
</g>
<!-- Node3&#45;&gt;Node4 -->
<g id="edge8" class="edge"><title>Node3&#45;&gt;Node4</title>
<path fill="none" stroke="#9a32cd" stroke-dasharray="5,2" d="M137.816,-150.426C136.732,-142.904 137.012,-134.623 141,-128 145.685,-120.218 152.679,-114.03 160.425,-109.139"/>
<polygon fill="#9a32cd" stroke="#9a32cd" points="134.424,-151.299 140.012,-160.301 141.257,-149.779 134.424,-151.299"/>
<text text-anchor="middle" x="169.5" y="-132.5" font-family="Helvetica,sans-Serif" font-size="10.00"> SingletonPtr</text>
</g>
<!-- Node4&#45;&gt;Node3 -->
<g id="edge6" class="edge"><title>Node4&#45;&gt;Node3</title>
<path fill="none" stroke="midnightblue" d="M209.85,-119.263C208.923,-127.192 206.695,-135.467 202,-142 196.153,-150.137 187.361,-156.121 178.379,-160.466"/>
<polygon fill="midnightblue" stroke="midnightblue" points="213.348,-119.397 210.416,-109.215 206.359,-119.002 213.348,-119.397"/>
</g>
</g>
</svg>
