<?xml version="1.0" encoding="UTF-8" standalone="no"?>
<!DOCTYPE svg PUBLIC "-//W3C//DTD SVG 1.1//EN"
 "http://www.w3.org/Graphics/SVG/1.1/DTD/svg11.dtd">
<!-- Generated by graphviz version 2.26.3 (20100126.1600)
 -->
<!-- Title: Mezzanine::DirectoryException Pages: 1 -->
<!--zoomable 190 -->
<svg id="main" version="1.1" xmlns="http://www.w3.org/2000/svg" xmlns:xlink="http://www.w3.org/1999/xlink" xml:space="preserve" onload="init(evt)">
<style type="text/css"><![CDATA[
.edge:hover path { stroke: red; }
.edge:hover polygon { stroke: red; fill: red; }
]]></style>
<script type="text/javascript"><![CDATA[
var edges = document.getElementsByTagName('g');
if (edges && edges.length) {
  for (var i=0;i<edges.length;i++) {
    if (edges[i].id.substr(0,4)=='edge') {
      edges[i].setAttribute('class','edge');
    }
  }
}
]]></script>
        <defs>
                <circle id="rim" cx="0" cy="0" r="7"/>
                <circle id="rim2" cx="0" cy="0" r="3.5"/>
                <g id="zoomPlus">
                        <use xlink:href="#rim" fill="#404040">
                                <set attributeName="fill" to="#808080" begin="zoomplus.mouseover" end="zoomplus.mouseout"/>
                        </use>
                        <path d="M-4,0h8M0,-4v8" fill="none" stroke="white" stroke-width="1.5" pointer-events="none"/>
                </g>
                <g id="zoomMin">
                        <use xlink:href="#rim" fill="#404040">
                                <set attributeName="fill" to="#808080" begin="zoomminus.mouseover" end="zoomminus.mouseout"/>
                        </use>
                        <path d="M-4,0h8" fill="none" stroke="white" stroke-width="1.5" pointer-events="none"/>
                </g>
                <g id="dirArrow">
                        <path fill="none" stroke="white" stroke-width="1.5" d="M0,-3.0v7 M-2.5,-0.5L0,-3.0L2.5,-0.5"/>
                </g>
               <g id="resetDef">
                       <use xlink:href="#rim2" fill="#404040">
                               <set attributeName="fill" to="#808080" begin="reset.mouseover" end="reset.mouseout"/>
                       </use>
               </g>
        </defs>

<script type="text/javascript">
var viewWidth = 758;
var viewHeight = 190;
var sectionId = 'dynsection-0';
</script>
<script xlink:href="svgpan.js"/>
<svg id="graph" class="graph">
<g id="viewport">
<title>Mezzanine::DirectoryException</title>
<polygon fill="white" stroke="white" points="-4,5 -4,-186 755,-186 755,5 -4,5"/>
<!-- Node1 -->
<g id="node1" class="node"><title>Node1</title>
<polygon fill="#bfbfbf" stroke="black" points="414.5,-81 414.5,-101 561.5,-101 561.5,-81 414.5,-81"/>
<text text-anchor="middle" x="488" y="-88" font-family="FreeSans" font-size="10.00">Mezzanine::DirectoryException</text>
</g>
<!-- Node5 -->
<g id="node9" class="node"><title>Node5</title>
<a xlink:href="classMezzanine_1_1DirectoryNotFoundException.html" target="_top" xlink:title="Thrown when a directory was expected to be there, but was not. ">
<polygon fill="white" stroke="black" points="600.5,-150 600.5,-182 747.5,-182 747.5,-150 600.5,-150"/>
<text text-anchor="start" x="608.5" y="-169" font-family="FreeSans" font-size="10.00">Mezzanine::DirectoryNotFound</text>
<text text-anchor="middle" x="674" y="-157" font-family="FreeSans" font-size="10.00">Exception</text>
</a>
</g>
<!-- Node1&#45;&gt;Node5 -->
<g id="edge8" class="edge"><title>Node1&#45;&gt;Node5</title>
<path fill="none" stroke="midnightblue" d="M517.51,-105.473C539.447,-115.97 570.254,-130.168 598,-141 605.893,-144.081 614.339,-147.114 622.627,-149.946"/>
<polygon fill="midnightblue" stroke="midnightblue" points="518.921,-102.267 508.393,-101.078 515.881,-108.573 518.921,-102.267"/>
</g>
<!-- Node6 -->
<g id="node11" class="node"><title>Node6</title>
<a xlink:href="classMezzanine_1_1DirectoryPermissionException.html" target="_top" xlink:title="Thrown when permission is denied to a directory. ">
<polygon fill="white" stroke="black" points="598,-100 598,-132 750,-132 750,-100 598,-100"/>
<text text-anchor="start" x="606" y="-119" font-family="FreeSans" font-size="10.00">Mezzanine::DirectoryPermission</text>
<text text-anchor="middle" x="674" y="-107" font-family="FreeSans" font-size="10.00">Exception</text>
</a>
</g>
<!-- Node1&#45;&gt;Node6 -->
<g id="edge10" class="edge"><title>Node1&#45;&gt;Node6</title>
<path fill="none" stroke="midnightblue" d="M571.425,-102.213C580.265,-103.401 589.221,-104.605 597.969,-105.781"/>
<polygon fill="midnightblue" stroke="midnightblue" points="571.889,-98.744 561.512,-100.881 570.957,-105.682 571.889,-98.744"/>
</g>
<!-- Node7 -->
<g id="node13" class="node"><title>Node7</title>
<a xlink:href="classMezzanine_1_1DirectoryReadException.html" target="_top" xlink:title="Thrown when a directory could be read and it wasn&#39;t a permission issue. ">
<polygon fill="white" stroke="black" points="610,-50 610,-82 738,-82 738,-50 610,-50"/>
<text text-anchor="start" x="618" y="-69" font-family="FreeSans" font-size="10.00">Mezzanine::DirectoryRead</text>
<text text-anchor="middle" x="674" y="-57" font-family="FreeSans" font-size="10.00">Exception</text>
</a>
</g>
<!-- Node1&#45;&gt;Node7 -->
<g id="edge12" class="edge"><title>Node1&#45;&gt;Node7</title>
<path fill="none" stroke="midnightblue" d="M571.689,-79.7515C584.465,-78.0343 597.477,-76.2853 609.749,-74.6359"/>
<polygon fill="midnightblue" stroke="midnightblue" points="570.957,-76.3183 561.512,-81.1193 571.889,-83.256 570.957,-76.3183"/>
</g>
<!-- Node8 -->
<g id="node15" class="node"><title>Node8</title>
<a xlink:href="classMezzanine_1_1DirectoryWriteException.html" target="_top" xlink:title="Thrown when a directory could be written to and it wasn&#39;t a permission issue. ">
<polygon fill="white" stroke="black" points="610,-0 610,-32 738,-32 738,-0 610,-0"/>
<text text-anchor="start" x="618" y="-19" font-family="FreeSans" font-size="10.00">Mezzanine::DirectoryWrite</text>
<text text-anchor="middle" x="674" y="-7" font-family="FreeSans" font-size="10.00">Exception</text>
</a>
</g>
<!-- Node1&#45;&gt;Node8 -->
<g id="edge14" class="edge"><title>Node1&#45;&gt;Node8</title>
<path fill="none" stroke="midnightblue" d="M517.51,-76.5274C539.447,-66.0299 570.254,-51.8324 598,-41 605.893,-37.9186 614.339,-34.8862 622.627,-32.0545"/>
<polygon fill="midnightblue" stroke="midnightblue" points="515.881,-73.4271 508.393,-80.9218 518.921,-79.7329 515.881,-73.4271"/>
</g>
<!-- Node2 -->
<g id="node2" class="node"><title>Node2</title>
<a xlink:href="classMezzanine_1_1IOException.html" target="_top" xlink:title="Thrown when there was an issue with IO but very little was known about it. ">
<polygon fill="white" stroke="black" points="258.5,-81 258.5,-101 377.5,-101 377.5,-81 258.5,-81"/>
<text text-anchor="middle" x="318" y="-88" font-family="FreeSans" font-size="10.00">Mezzanine::IOException</text>
</a>
</g>
<!-- Node2&#45;&gt;Node1 -->
<g id="edge2" class="edge"><title>Node2&#45;&gt;Node1</title>
<path fill="none" stroke="midnightblue" d="M388.001,-91C396.678,-91 405.571,-91 414.302,-91"/>
<polygon fill="midnightblue" stroke="midnightblue" points="387.936,-87.5001 377.936,-91 387.936,-94.5001 387.936,-87.5001"/>
</g>
<!-- Node3 -->
<g id="node4" class="node"><title>Node3</title>
<a xlink:href="classMezzanine_1_1Exception.html" target="_top" xlink:title="This is the exception thrown by most Mezzanine system that can throw exceptions. ">
<polygon fill="white" stroke="black" points="112.5,-81 112.5,-101 221.5,-101 221.5,-81 112.5,-81"/>
<text text-anchor="middle" x="167" y="-88" font-family="FreeSans" font-size="10.00">Mezzanine::Exception</text>
</a>
</g>
<!-- Node3&#45;&gt;Node2 -->
<g id="edge4" class="edge"><title>Node3&#45;&gt;Node2</title>
<path fill="none" stroke="midnightblue" d="M231.788,-91C240.644,-91 249.7,-91 258.456,-91"/>
<polygon fill="midnightblue" stroke="midnightblue" points="231.514,-87.5001 221.514,-91 231.514,-94.5001 231.514,-87.5001"/>
</g>
<!-- Node4 -->
<g id="node6" class="node"><title>Node4</title>
<a xlink:title="STL class. ">
<polygon fill="white" stroke="#bfbfbf" points="0.5,-81 0.5,-101 75.5,-101 75.5,-81 0.5,-81"/>
<text text-anchor="middle" x="38" y="-88" font-family="FreeSans" font-size="10.00">std::exception</text>
</a>
</g>
<!-- Node4&#45;&gt;Node3 -->
<g id="edge6" class="edge"><title>Node4&#45;&gt;Node3</title>
<path fill="none" stroke="midnightblue" d="M85.8899,-91C94.4861,-91 103.505,-91 112.276,-91"/>
<polygon fill="midnightblue" stroke="midnightblue" points="85.659,-87.5001 75.6589,-91 85.6589,-94.5001 85.659,-87.5001"/>
</g>
</g>
</svg>
        <g id="navigator" transform="translate(0 0)" fill="#404254">
                <rect fill="#f2f5e9" fill-opacity="0.5" stroke="#606060" stroke-width=".5" x="0" y="0" width="60" height="60"/>
                <use id="zoomplus" xlink:href="#zoomPlus" x="17" y="9" onmousedown="handleZoom(evt,'in')"/>
                <use id="zoomminus" xlink:href="#zoomMin" x="42" y="9" onmousedown="handleZoom(evt,'out')"/>
                <use id="reset" xlink:href="#resetDef" x="30" y="36" onmousedown="handleReset()"/>
                <g id="arrowUp" xlink:href="#dirArrow" transform="translate(30 24)" onmousedown="handlePan(0,-1)">
                  <use xlink:href="#rim" fill="#404040">
                        <set attributeName="fill" to="#808080" begin="arrowUp.mouseover" end="arrowUp.mouseout"/>
                  </use>
                  <path fill="none" stroke="white" stroke-width="1.5" d="M0,-3.0v7 M-2.5,-0.5L0,-3.0L2.5,-0.5"/>
                </g>
                <g id="arrowRight" xlink:href="#dirArrow" transform="rotate(90) translate(36 -43)" onmousedown="handlePan(1,0)">
                  <use xlink:href="#rim" fill="#404040">
                        <set attributeName="fill" to="#808080" begin="arrowRight.mouseover" end="arrowRight.mouseout"/>
                  </use>
                  <path fill="none" stroke="white" stroke-width="1.5" d="M0,-3.0v7 M-2.5,-0.5L0,-3.0L2.5,-0.5"/>
                </g>
                <g id="arrowDown" xlink:href="#dirArrow" transform="rotate(180) translate(-30 -48)" onmousedown="handlePan(0,1)">
                  <use xlink:href="#rim" fill="#404040">
                        <set attributeName="fill" to="#808080" begin="arrowDown.mouseover" end="arrowDown.mouseout"/>
                  </use>
                  <path fill="none" stroke="white" stroke-width="1.5" d="M0,-3.0v7 M-2.5,-0.5L0,-3.0L2.5,-0.5"/>
                </g>
                <g id="arrowLeft" xlink:href="#dirArrow" transform="rotate(270) translate(-36 17)" onmousedown="handlePan(-1,0)">
                  <use xlink:href="#rim" fill="#404040">
                        <set attributeName="fill" to="#808080" begin="arrowLeft.mouseover" end="arrowLeft.mouseout"/>
                  </use>
                  <path fill="none" stroke="white" stroke-width="1.5" d="M0,-3.0v7 M-2.5,-0.5L0,-3.0L2.5,-0.5"/>
                </g>
        </g>
        <svg viewBox="0 0 15 15" width="100%" height="30px" preserveAspectRatio="xMaxYMin meet">
         <g id="arrow_out" transform="scale(0.3 0.3)">
          <a xlink:href="classMezzanine_1_1DirectoryException__inherit__graph_org.svg" target="_base">
           <rect id="button" ry="5" rx="5" y="6" x="6" height="38" width="38"
                fill="#f2f5e9" fill-opacity="0.5" stroke="#606060" stroke-width="1.0"/>
           <path id="arrow"
             d="M 11.500037,31.436501 C 11.940474,20.09759 22.043105,11.32322 32.158766,21.979434 L 37.068811,17.246167 C 37.068811,17.246167 37.088388,32 37.088388,32 L 22.160133,31.978069 C 22.160133,31.978069 26.997745,27.140456 26.997745,27.140456 C 18.528582,18.264221 13.291696,25.230495 11.500037,31.436501 z"
             style="fill:#404040;"/>
          </a>
         </g>
        </svg>
</svg>
