<?xml version="1.0" encoding="UTF-8" standalone="no"?>
<!DOCTYPE svg PUBLIC "-//W3C//DTD SVG 1.1//EN"
 "http://www.w3.org/Graphics/SVG/1.1/DTD/svg11.dtd">
<!-- Generated by graphviz version 2.38.0 (20140413.2041)
 -->
<!-- Title: Mezzanine::World Pages: 1 -->
<svg width="453pt" height="318pt"
 viewBox="0.00 0.00 452.50 318.00" xmlns="http://www.w3.org/2000/svg" xmlns:xlink="http://www.w3.org/1999/xlink">
<g id="graph0" class="graph" transform="scale(1 1) rotate(0) translate(4 314)">
<title>Mezzanine::World</title>
<polygon fill="white" stroke="none" points="-4,4 -4,-314 448.5,-314 448.5,4 -4,4"/>
<!-- Node1 -->
<g id="node1" class="node"><title>Node1</title>
<polygon fill="#bfbfbf" stroke="black" points="276.5,-140 276.5,-159 371.5,-159 371.5,-140 276.5,-140"/>
<text text-anchor="middle" x="324" y="-147" font-family="Helvetica,sans-Serif" font-size="10.00">Mezzanine::World</text>
</g>
<!-- Node6 -->
<g id="node6" class="node"><title>Node6</title>
<g id="a_node6"><a xlink:href="classMezzanine_1_1WorldManager.html" target="_top" xlink:title="This is the base class for all managers that belong to a single world instance. ">
<polygon fill="white" stroke="black" points="154.5,-67.5 154.5,-86.5 287.5,-86.5 287.5,-67.5 154.5,-67.5"/>
<text text-anchor="middle" x="221" y="-74.5" font-family="Helvetica,sans-Serif" font-size="10.00">Mezzanine::WorldManager</text>
</a>
</g>
</g>
<!-- Node1&#45;&gt;Node6 -->
<g id="edge10" class="edge"><title>Node1&#45;&gt;Node6</title>
<path fill="none" stroke="#9a32cd" stroke-dasharray="5,2" d="M287.987,-136.1C275.874,-130.958 262.725,-124.243 252,-116 241.199,-107.699 231.79,-94.9305 226.252,-86.5215"/>
<polygon fill="#9a32cd" stroke="#9a32cd" points="286.829,-139.407 297.413,-139.885 289.437,-132.911 286.829,-139.407"/>
<text text-anchor="middle" x="281" y="-108" font-family="Helvetica,sans-Serif" font-size="10.00"> ParentWorld</text>
</g>
<!-- Node2 -->
<g id="node2" class="node"><title>Node2</title>
<g id="a_node2"><a xlink:title="STL class. ">
<polygon fill="white" stroke="#bfbfbf" points="246,-212.5 246,-231.5 338,-231.5 338,-212.5 246,-212.5"/>
<text text-anchor="middle" x="292" y="-219.5" font-family="Helvetica,sans-Serif" font-size="10.00">std::map&lt; K, T &gt;</text>
</a>
</g>
</g>
<!-- Node2&#45;&gt;Node1 -->
<g id="edge1" class="edge"><title>Node2&#45;&gt;Node1</title>
<path fill="none" stroke="#9a32cd" stroke-dasharray="5,2" d="M289.834,-202.17C289.796,-195.869 290.53,-188.941 293,-183 297.012,-173.352 305.317,-164.9 312.322,-159.035"/>
<polygon fill="#9a32cd" stroke="#9a32cd" points="286.365,-202.744 290.529,-212.487 293.349,-202.274 286.365,-202.744"/>
<text text-anchor="middle" x="334" y="-186" font-family="Helvetica,sans-Serif" font-size="10.00"> ManagerFactories</text>
</g>
<!-- Node3 -->
<g id="node3" class="node"><title>Node3</title>
<polygon fill="white" stroke="#bfbfbf" points="241.5,-285 241.5,-304 270.5,-304 270.5,-285 241.5,-285"/>
<text text-anchor="middle" x="256" y="-292" font-family="Helvetica,sans-Serif" font-size="10.00">K</text>
</g>
<!-- Node3&#45;&gt;Node2 -->
<g id="edge2" class="edge"><title>Node3&#45;&gt;Node2</title>
<path fill="none" stroke="#9a32cd" stroke-dasharray="5,2" d="M259.172,-274.876C261.02,-266.895 263.833,-257.666 268,-250 271.714,-243.167 277.461,-236.619 282.4,-231.683"/>
<polygon fill="#9a32cd" stroke="#9a32cd" points="255.732,-274.232 257.214,-284.722 262.598,-275.597 255.732,-274.232"/>
<text text-anchor="middle" x="280.5" y="-253" font-family="Helvetica,sans-Serif" font-size="10.00"> keys</text>
</g>
<!-- Node4 -->
<g id="node4" class="node"><title>Node4</title>
<polygon fill="white" stroke="#bfbfbf" points="289.5,-285 289.5,-304 318.5,-304 318.5,-285 289.5,-285"/>
<text text-anchor="middle" x="304" y="-292" font-family="Helvetica,sans-Serif" font-size="10.00">T</text>
</g>
<!-- Node4&#45;&gt;Node2 -->
<g id="edge3" class="edge"><title>Node4&#45;&gt;Node2</title>
<path fill="none" stroke="#9a32cd" stroke-dasharray="5,2" d="M300.827,-274.858C298.45,-260.895 295.307,-242.426 293.483,-231.715"/>
<polygon fill="#9a32cd" stroke="#9a32cd" points="297.4,-275.584 302.529,-284.855 304.301,-274.41 297.4,-275.584"/>
<text text-anchor="middle" x="320.5" y="-253" font-family="Helvetica,sans-Serif" font-size="10.00"> elements</text>
</g>
<!-- Node5 -->
<g id="node5" class="node"><title>Node5</title>
<polygon fill="white" stroke="#bfbfbf" points="208.5,-0.5 208.5,-19.5 359.5,-19.5 359.5,-0.5 208.5,-0.5"/>
<text text-anchor="middle" x="284" y="-7.5" font-family="Helvetica,sans-Serif" font-size="10.00">std::vector&lt; WorldManager * &gt;</text>
</g>
<!-- Node5&#45;&gt;Node1 -->
<g id="edge4" class="edge"><title>Node5&#45;&gt;Node1</title>
<path fill="none" stroke="#9a32cd" stroke-dasharray="5,2" d="M298.38,-28.0083C300.53,-31.1794 302.519,-34.5768 304,-38 319.404,-73.6073 322.945,-120.627 323.758,-139.801"/>
<polygon fill="#9a32cd" stroke="#9a32cd" points="301.012,-25.6867 292.178,-19.8374 295.436,-29.9189 301.012,-25.6867"/>
<text text-anchor="middle" x="354" y="-74.5" font-family="Helvetica,sans-Serif" font-size="10.00"> WorldManagers</text>
</g>
<!-- Node6&#45;&gt;Node5 -->
<g id="edge5" class="edge"><title>Node6&#45;&gt;Node5</title>
<path fill="none" stroke="#9a32cd" stroke-dasharray="5,2" d="M236.511,-59.9968C248.866,-47.2496 265.687,-29.8947 275.638,-19.6273"/>
<polygon fill="#9a32cd" stroke="#9a32cd" points="233.943,-57.6172 229.496,-67.2338 238.969,-62.489 233.943,-57.6172"/>
<text text-anchor="middle" x="278.5" y="-41" font-family="Helvetica,sans-Serif" font-size="10.00"> elements</text>
</g>
<!-- Node7 -->
<g id="node7" class="node"><title>Node7</title>
<g id="a_node7"><a xlink:href="classMezzanine_1_1ManagerBase.html" target="_top" xlink:title="This is the base class from which all the Entresol and World Managers inherit. ">
<polygon fill="white" stroke="black" points="0,-140 0,-159 130,-159 130,-140 0,-140"/>
<text text-anchor="middle" x="65" y="-147" font-family="Helvetica,sans-Serif" font-size="10.00">Mezzanine::ManagerBase</text>
</a>
</g>
</g>
<!-- Node7&#45;&gt;Node6 -->
<g id="edge6" class="edge"><title>Node7&#45;&gt;Node6</title>
<path fill="none" stroke="midnightblue" d="M92.9499,-135.869C124.482,-121.619 174.905,-98.8314 202.116,-86.5341"/>
<polygon fill="midnightblue" stroke="midnightblue" points="91.4885,-132.688 83.8172,-139.996 94.3713,-139.067 91.4885,-132.688"/>
</g>
<!-- Node8 -->
<g id="node8" class="node"><title>Node8</title>
<g id="a_node8"><a xlink:href="classMezzanine_1_1Entresol.html" target="_top" xlink:title="This is the main entry point for the entire library. ">
<polygon fill="white" stroke="black" points="91,-212.5 91,-231.5 197,-231.5 197,-212.5 91,-212.5"/>
<text text-anchor="middle" x="144" y="-219.5" font-family="Helvetica,sans-Serif" font-size="10.00">Mezzanine::Entresol</text>
</a>
</g>
</g>
<!-- Node8&#45;&gt;Node7 -->
<g id="edge7" class="edge"><title>Node8&#45;&gt;Node7</title>
<path fill="none" stroke="#9a32cd" stroke-dasharray="5,2" d="M97.7618,-208.36C90.4031,-204.693 83.4373,-199.998 78,-194 69.2119,-184.306 66.3547,-168.894 65.432,-159.255"/>
<polygon fill="#9a32cd" stroke="#9a32cd" points="96.6417,-211.69 107.207,-212.475 99.4378,-205.272 96.6417,-211.69"/>
<text text-anchor="middle" x="106" y="-186" font-family="Helvetica,sans-Serif" font-size="10.00"> TheEntresol</text>
</g>
<!-- Node9 -->
<g id="node9" class="node"><title>Node9</title>
<g id="a_node9"><a xlink:href="classMezzanine_1_1Singleton.html" target="_top" xlink:title="Mezzanine::Singleton\l\&lt; Entresol \&gt;">
<polygon fill="white" stroke="black" points="148,-134.5 148,-164.5 258,-164.5 258,-134.5 148,-134.5"/>
<text text-anchor="start" x="156" y="-152.5" font-family="Helvetica,sans-Serif" font-size="10.00">Mezzanine::Singleton</text>
<text text-anchor="middle" x="203" y="-141.5" font-family="Helvetica,sans-Serif" font-size="10.00">&lt; Entresol &gt;</text>
</a>
</g>
</g>
<!-- Node8&#45;&gt;Node9 -->
<g id="edge9" class="edge"><title>Node8&#45;&gt;Node9</title>
<path fill="none" stroke="#9a32cd" stroke-dasharray="5,2" d="M138.234,-202.41C137.277,-195.871 137.533,-188.731 141,-183 145.717,-175.201 152.992,-169.182 160.921,-164.57"/>
<polygon fill="#9a32cd" stroke="#9a32cd" points="134.914,-203.576 140.639,-212.491 141.723,-201.951 134.914,-203.576"/>
<text text-anchor="middle" x="169.5" y="-186" font-family="Helvetica,sans-Serif" font-size="10.00"> SingletonPtr</text>
</g>
<!-- Node9&#45;&gt;Node8 -->
<g id="edge8" class="edge"><title>Node9&#45;&gt;Node8</title>
<path fill="none" stroke="midnightblue" d="M206.976,-174.642C206.928,-181.362 205.689,-188.357 202,-194 196.408,-202.553 187.345,-208.445 178.027,-212.485"/>
<polygon fill="midnightblue" stroke="midnightblue" points="210.458,-174.27 206.253,-164.545 203.476,-174.77 210.458,-174.27"/>
</g>
<!-- Node10 -->
<g id="node10" class="node"><title>Node10</title>
<g id="a_node10"><a xlink:title="STL class. ">
<polygon fill="white" stroke="#bfbfbf" points="367,-212.5 367,-231.5 427,-231.5 427,-212.5 367,-212.5"/>
<text text-anchor="middle" x="397" y="-219.5" font-family="Helvetica,sans-Serif" font-size="10.00">std::string</text>
</a>
</g>
</g>
<!-- Node10&#45;&gt;Node1 -->
<g id="edge11" class="edge"><title>Node10&#45;&gt;Node1</title>
<path fill="none" stroke="#9a32cd" stroke-dasharray="5,2" d="M388.966,-203.189C385.338,-196.374 380.599,-188.843 375,-183 365.556,-173.146 352.552,-164.919 342.039,-159.207"/>
<polygon fill="#9a32cd" stroke="#9a32cd" points="385.924,-204.934 393.46,-212.38 392.212,-201.859 385.924,-204.934"/>
<text text-anchor="middle" x="399" y="-186" font-family="Helvetica,sans-Serif" font-size="10.00"> Name</text>
</g>
<!-- Node11 -->
<g id="node11" class="node"><title>Node11</title>
<g id="a_node11"><a xlink:title="STL class. ">
<polygon fill="white" stroke="#bfbfbf" points="349.5,-279.5 349.5,-309.5 444.5,-309.5 444.5,-279.5 349.5,-279.5"/>
<text text-anchor="start" x="357.5" y="-297.5" font-family="Helvetica,sans-Serif" font-size="10.00">std::basic_string&lt;</text>
<text text-anchor="middle" x="397" y="-286.5" font-family="Helvetica,sans-Serif" font-size="10.00"> char &gt;</text>
</a>
</g>
</g>
<!-- Node11&#45;&gt;Node10 -->
<g id="edge12" class="edge"><title>Node11&#45;&gt;Node10</title>
<path fill="none" stroke="midnightblue" d="M397,-269.091C397,-256.214 397,-241.197 397,-231.893"/>
<polygon fill="midnightblue" stroke="midnightblue" points="393.5,-269.233 397,-279.233 400.5,-269.233 393.5,-269.233"/>
</g>
</g>
</svg>
