<?xml version="1.0" encoding="UTF-8" standalone="no"?>
<!DOCTYPE svg PUBLIC "-//W3C//DTD SVG 1.1//EN"
 "http://www.w3.org/Graphics/SVG/1.1/DTD/svg11.dtd">
<!-- Generated by graphviz version 2.26.3 (20100126.1600)
 -->
<!-- Title: Mezzanine::NetworkException Pages: 1 -->
<!--zoomable 204 -->
<svg id="main" version="1.1" xmlns="http://www.w3.org/2000/svg" xmlns:xlink="http://www.w3.org/1999/xlink" xml:space="preserve" onload="init(evt)">
        <defs>
                <circle id="rim" cx="0" cy="0" r="7"/>
                <circle id="rim2" cx="0" cy="0" r="3.5"/>
                <g id="zoomPlus">
                        <use xlink:href="#rim" fill="#404040">
                                <set attributeName="fill" to="#808080" begin="zoomplus.mouseover" end="zoomplus.mouseout"/>
                        </use>
                        <path d="M-4,0h8M0,-4v8" fill="none" stroke="white" stroke-width="1.5" pointer-events="none"/>
                </g>
                <g id="zoomMin">
                        <use xlink:href="#rim" fill="#404040">
                                <set attributeName="fill" to="#808080" begin="zoomminus.mouseover" end="zoomminus.mouseout"/>
                        </use>
                        <path d="M-4,0h8" fill="none" stroke="white" stroke-width="1.5" pointer-events="none"/>
                </g>
                <g id="dirArrow">
                        <path fill="none" stroke="white" stroke-width="1.5" d="M0,-3.0v7 M-2.5,-0.5L0,-3.0L2.5,-0.5"/>
                </g>
               <g id="resetDef">
                       <use xlink:href="#rim2" fill="#404040">
                               <set attributeName="fill" to="#808080" begin="reset.mouseover" end="reset.mouseout"/>
                       </use>
               </g>
        </defs>

<script type="text/javascript">
var viewWidth = 770;
var viewHeight = 204;
var sectionId = 'dynsection-0';
</script>
<script xlink:href="svgpan.js"/>
<svg id="graph" class="graph">
<g id="viewport">
<title>Mezzanine::NetworkException</title>
<!-- Node1 -->
<g id="node1" class="node"><title>Node1</title>
<polygon fill="#bfbfbf" stroke="black" points="414,-76 414,-96 558,-96 558,-76 414,-76"/>
<text text-anchor="middle" x="486" y="-83" font-family="FreeSans" font-size="10.00">Mezzanine::NetworkException</text>
</g>
<!-- Node5 -->
<g id="node9" class="node"><title>Node5</title>
<a xlink:href="classMezzanine_1_1NetworkNotFoundException.xhtml" target="_top" xlink:title="Thrown when no network connection is available.">
<polygon fill="none" stroke="black" points="606,-164 606,-196 750,-196 750,-164 606,-164"/>
<text text-anchor="start" x="614" y="-183" font-family="FreeSans" font-size="10.00">Mezzanine::NetworkNotFound</text>
<text text-anchor="middle" x="678" y="-171" font-family="FreeSans" font-size="10.00">Exception</text>
</a>
</g>
<!-- Node1&#45;&gt;Node5 -->
<g id="edge8" class="edge"><title>Node1&#45;&gt;Node5</title>
<path fill="none" stroke="midnightblue" d="M507.508,-102.312C528.596,-117.668 562.13,-140.426 594,-155 601.195,-158.29 608.934,-161.276 616.697,-163.944"/>
<polygon fill="midnightblue" stroke="midnightblue" points="509.397,-99.3556 499.274,-96.2293 505.238,-104.986 509.397,-99.3556"/>
</g>
<!-- Node6 -->
<g id="node11" class="node"><title>Node6</title>
<a xlink:href="classMezzanine_1_1NetworkPermissionException.xhtml" target="_top" xlink:title="Thrown when permision was denied to a network interface or network resource.">
<polygon fill="none" stroke="black" points="603.5,-114 603.5,-146 752.5,-146 752.5,-114 603.5,-114"/>
<text text-anchor="start" x="611.5" y="-133" font-family="FreeSans" font-size="10.00">Mezzanine::NetworkPermission</text>
<text text-anchor="middle" x="678" y="-121" font-family="FreeSans" font-size="10.00">Exception</text>
</a>
</g>
<!-- Node1&#45;&gt;Node6 -->
<g id="edge10" class="edge"><title>Node1&#45;&gt;Node6</title>
<path fill="none" stroke="midnightblue" d="M540.079,-98.3931C561.105,-103.212 585.469,-108.795 607.818,-113.917"/>
<polygon fill="midnightblue" stroke="midnightblue" points="540.578,-94.9168 530.049,-96.0945 539.014,-101.74 540.578,-94.9168"/>
</g>
<!-- Node7 -->
<g id="node13" class="node"><title>Node7</title>
<a xlink:href="classMezzanine_1_1NetworkReadException.xhtml" target="_top" xlink:title="Thrown when data could not be read from the network (downloads).">
<polygon fill="none" stroke="black" points="594.5,-76 594.5,-96 761.5,-96 761.5,-76 594.5,-76"/>
<text text-anchor="middle" x="678" y="-83" font-family="FreeSans" font-size="10.00">Mezzanine::NetworkReadException</text>
</a>
</g>
<!-- Node1&#45;&gt;Node7 -->
<g id="edge12" class="edge"><title>Node1&#45;&gt;Node7</title>
<path fill="none" stroke="midnightblue" d="M568.111,-86C576.765,-86 585.573,-86 594.245,-86"/>
<polygon fill="midnightblue" stroke="midnightblue" points="568.04,-82.5001 558.04,-86 568.04,-89.5001 568.04,-82.5001"/>
</g>
<!-- Node8 -->
<g id="node15" class="node"><title>Node8</title>
<a xlink:href="classMezzanine_1_1NetworkURLException.xhtml" target="_top" xlink:title="Thrown when an address is invalid or could not be found.">
<polygon fill="none" stroke="black" points="596.5,-38 596.5,-58 759.5,-58 759.5,-38 596.5,-38"/>
<text text-anchor="middle" x="678" y="-45" font-family="FreeSans" font-size="10.00">Mezzanine::NetworkURLException</text>
</a>
</g>
<!-- Node1&#45;&gt;Node8 -->
<g id="edge14" class="edge"><title>Node1&#45;&gt;Node8</title>
<path fill="none" stroke="midnightblue" d="M546.793,-73.968C572.728,-68.8351 602.642,-62.9145 627.352,-58.024"/>
<polygon fill="midnightblue" stroke="midnightblue" points="545.827,-70.5913 536.697,-75.9662 547.186,-77.4581 545.827,-70.5913"/>
</g>
<!-- Node9 -->
<g id="node17" class="node"><title>Node9</title>
<a xlink:href="classMezzanine_1_1NetworkWriteException.xhtml" target="_top" xlink:title="Thrown when data could not be read from the network (i[loads).">
<polygon fill="none" stroke="black" points="594.5,-0 594.5,-20 761.5,-20 761.5,-0 594.5,-0"/>
<text text-anchor="middle" x="678" y="-7" font-family="FreeSans" font-size="10.00">Mezzanine::NetworkWriteException</text>
</a>
</g>
<!-- Node1&#45;&gt;Node9 -->
<g id="edge16" class="edge"><title>Node1&#45;&gt;Node9</title>
<path fill="none" stroke="midnightblue" d="M510.575,-70.624C531.921,-57.8646 564.031,-40.0766 594,-29 603.396,-25.527 613.628,-22.5705 623.614,-20.098"/>
<polygon fill="midnightblue" stroke="midnightblue" points="508.581,-67.74 501.847,-75.9201 512.212,-73.7243 508.581,-67.74"/>
</g>
<!-- Node2 -->
<g id="node2" class="node"><title>Node2</title>
<a xlink:href="classMezzanine_1_1IOException.xhtml" target="_top" xlink:title="Thrown when there was an issue with IO but very little was known about it.">
<polygon fill="none" stroke="black" points="258.5,-76 258.5,-96 377.5,-96 377.5,-76 258.5,-76"/>
<text text-anchor="middle" x="318" y="-83" font-family="FreeSans" font-size="10.00">Mezzanine::IOException</text>
</a>
</g>
<!-- Node2&#45;&gt;Node1 -->
<g id="edge2" class="edge"><title>Node2&#45;&gt;Node1</title>
<path fill="none" stroke="midnightblue" d="M387.711,-86C396.337,-86 405.17,-86 413.831,-86"/>
<polygon fill="midnightblue" stroke="midnightblue" points="387.704,-82.5001 377.704,-86 387.704,-89.5001 387.704,-82.5001"/>
</g>
<!-- Node3 -->
<g id="node4" class="node"><title>Node3</title>
<a xlink:href="classMezzanine_1_1Exception.xhtml" target="_top" xlink:title="This is the exception thrown by most Mezzanine system that can throw exceptions.">
<polygon fill="none" stroke="black" points="112.5,-76 112.5,-96 221.5,-96 221.5,-76 112.5,-76"/>
<text text-anchor="middle" x="167" y="-83" font-family="FreeSans" font-size="10.00">Mezzanine::Exception</text>
</a>
</g>
<!-- Node3&#45;&gt;Node2 -->
<g id="edge4" class="edge"><title>Node3&#45;&gt;Node2</title>
<path fill="none" stroke="midnightblue" d="M231.788,-86C240.644,-86 249.7,-86 258.456,-86"/>
<polygon fill="midnightblue" stroke="midnightblue" points="231.514,-82.5001 221.514,-86 231.514,-89.5001 231.514,-82.5001"/>
</g>
<!-- Node4 -->
<g id="node6" class="node"><title>Node4</title>
<a xlink:title="STL class.">
<polygon fill="none" stroke="#bfbfbf" points="0.5,-76 0.5,-96 75.5,-96 75.5,-76 0.5,-76"/>
<text text-anchor="middle" x="38" y="-83" font-family="FreeSans" font-size="10.00">std::exception</text>
</a>
</g>
<!-- Node4&#45;&gt;Node3 -->
<g id="edge6" class="edge"><title>Node4&#45;&gt;Node3</title>
<path fill="none" stroke="midnightblue" d="M85.8899,-86C94.4861,-86 103.505,-86 112.276,-86"/>
<polygon fill="midnightblue" stroke="midnightblue" points="85.659,-82.5001 75.6589,-86 85.6589,-89.5001 85.659,-82.5001"/>
</g>
</g>
</svg>
        <g id="navigator" transform="translate(0 0)" fill="#404254">
                <rect fill="#f2f5e9" fill-opacity="0.5" stroke="#606060" stroke-width=".5" x="0" y="0" width="60" height="60"/>
                <use id="zoomplus" xlink:href="#zoomPlus" x="17" y="9" onmousedown="handleZoom(evt,'in')"/>
                <use id="zoomminus" xlink:href="#zoomMin" x="42" y="9" onmousedown="handleZoom(evt,'out')"/>
                <use id="reset" xlink:href="#resetDef" x="30" y="36" onmousedown="handleReset()"/>
                <g id="arrowUp" xlink:href="#dirArrow" transform="translate(30 24)" onmousedown="handlePan(0,-1)">
                  <use xlink:href="#rim" fill="#404040">
                        <set attributeName="fill" to="#808080" begin="arrowUp.mouseover" end="arrowUp.mouseout"/>
                  </use>
                  <path fill="none" stroke="white" stroke-width="1.5" d="M0,-3.0v7 M-2.5,-0.5L0,-3.0L2.5,-0.5"/>
                </g>
                <g id="arrowRight" xlink:href="#dirArrow" transform="rotate(90) translate(36 -43)" onmousedown="handlePan(1,0)">
                  <use xlink:href="#rim" fill="#404040">
                        <set attributeName="fill" to="#808080" begin="arrowRight.mouseover" end="arrowRight.mouseout"/>
                  </use>
                  <path fill="none" stroke="white" stroke-width="1.5" d="M0,-3.0v7 M-2.5,-0.5L0,-3.0L2.5,-0.5"/>
                </g>
                <g id="arrowDown" xlink:href="#dirArrow" transform="rotate(180) translate(-30 -48)" onmousedown="handlePan(0,1)">
                  <use xlink:href="#rim" fill="#404040">
                        <set attributeName="fill" to="#808080" begin="arrowDown.mouseover" end="arrowDown.mouseout"/>
                  </use>
                  <path fill="none" stroke="white" stroke-width="1.5" d="M0,-3.0v7 M-2.5,-0.5L0,-3.0L2.5,-0.5"/>
                </g>
                <g id="arrowLeft" xlink:href="#dirArrow" transform="rotate(270) translate(-36 17)" onmousedown="handlePan(-1,0)">
                  <use xlink:href="#rim" fill="#404040">
                        <set attributeName="fill" to="#808080" begin="arrowLeft.mouseover" end="arrowLeft.mouseout"/>
                  </use>
                  <path fill="none" stroke="white" stroke-width="1.5" d="M0,-3.0v7 M-2.5,-0.5L0,-3.0L2.5,-0.5"/>
                </g>
        </g>
        <svg viewBox="0 0 15 15" width="100%" height="30px" preserveAspectRatio="xMaxYMin meet">
         <g id="arrow_out" transform="scale(0.3 0.3)">
          <a xlink:href="classMezzanine_1_1NetworkException__inherit__graph_org.svg" target="_base">
           <rect id="button" ry="5" rx="5" y="6" x="6" height="38" width="38"
                fill="#f2f5e9" fill-opacity="0.5" stroke="#606060" stroke-width="1.0"/>
           <path id="arrow"
             d="M 11.500037,31.436501 C 11.940474,20.09759 22.043105,11.32322 32.158766,21.979434 L 37.068811,17.246167 C 37.068811,17.246167 37.088388,32 37.088388,32 L 22.160133,31.978069 C 22.160133,31.978069 26.997745,27.140456 26.997745,27.140456 C 18.528582,18.264221 13.291696,25.230495 11.500037,31.436501 z"
             style="fill:#404040;"/>
          </a>
         </g>
        </svg>
</svg>
