<?xml version="1.0" encoding="UTF-8" standalone="no"?>
<!DOCTYPE svg PUBLIC "-//W3C//DTD SVG 1.1//EN"
 "http://www.w3.org/Graphics/SVG/1.1/DTD/svg11.dtd">
<!-- Generated by graphviz version 2.26.3 (20100126.1600)
 -->
<!-- Title: Mezzanine::Physics::MeshCollisionShape Pages: 1 -->
<svg width="468pt" height="146pt"
 viewBox="0.00 0.00 468.00 146.00" xmlns="http://www.w3.org/2000/svg" xmlns:xlink="http://www.w3.org/1999/xlink">
<g id="graph1" class="graph" transform="scale(1 1) rotate(0) translate(4 142)">
<title>Mezzanine::Physics::MeshCollisionShape</title>
<polygon fill="white" stroke="white" points="-4,5 -4,-142 465,-142 465,5 -4,5"/>
<!-- Node1 -->
<g id="node1" class="node"><title>Node1</title>
<polygon fill="#bfbfbf" stroke="black" points="146,-52 146,-86 264,-86 264,-52 146,-52"/>
<text text-anchor="start" x="154" y="-73" font-family="FreeSans" font-size="10.00">Mezzanine::Physics</text>
<text text-anchor="middle" x="205" y="-60" font-family="FreeSans" font-size="10.00">::MeshCollisionShape</text>
</g>
<!-- Node3 -->
<g id="node5" class="node"><title>Node3</title>
<a xlink:href="classMezzanine_1_1Physics_1_1ActorSoftCollisionShape.xhtml" target="_top" xlink:title="A collision shape for soft actors.">
<polygon fill="white" stroke="black" points="311.5,-104 311.5,-138 448.5,-138 448.5,-104 311.5,-104"/>
<text text-anchor="start" x="319.5" y="-125" font-family="FreeSans" font-size="10.00">Mezzanine::Physics</text>
<text text-anchor="middle" x="380" y="-112" font-family="FreeSans" font-size="10.00">::ActorSoftCollisionShape</text>
</a>
</g>
<!-- Node1&#45;&gt;Node3 -->
<g id="edge4" class="edge"><title>Node1&#45;&gt;Node3</title>
<path fill="none" stroke="midnightblue" d="M271.981,-88.9029C288.661,-93.8593 306.396,-99.129 322.57,-103.935"/>
<polygon fill="midnightblue" stroke="midnightblue" points="272.884,-85.5201 262.302,-86.0267 270.89,-92.2302 272.884,-85.5201"/>
</g>
<!-- Node4 -->
<g id="node7" class="node"><title>Node4</title>
<a xlink:href="classMezzanine_1_1Physics_1_1DynamicMeshCollisionShape.xhtml" target="_top" xlink:title="A triangle mesh collsion shape based on a graphics mesh.">
<polygon fill="white" stroke="black" points="300,-52 300,-86 460,-86 460,-52 300,-52"/>
<text text-anchor="start" x="308" y="-73" font-family="FreeSans" font-size="10.00">Mezzanine::Physics</text>
<text text-anchor="middle" x="380" y="-60" font-family="FreeSans" font-size="10.00">::DynamicMeshCollisionShape</text>
</a>
</g>
<!-- Node1&#45;&gt;Node4 -->
<g id="edge6" class="edge"><title>Node1&#45;&gt;Node4</title>
<path fill="none" stroke="midnightblue" d="M274.294,-69C282.642,-69 291.222,-69 299.711,-69"/>
<polygon fill="midnightblue" stroke="midnightblue" points="274.247,-65.5001 264.247,-69 274.247,-72.5001 274.247,-65.5001"/>
</g>
<!-- Node5 -->
<g id="node9" class="node"><title>Node5</title>
<a xlink:href="classMezzanine_1_1Physics_1_1StaticMeshCollisionShape.xhtml" target="_top" xlink:title="A triangle mesh collsion shape based on a graphics mesh.">
<polygon fill="white" stroke="black" points="307,-0 307,-34 453,-34 453,-0 307,-0"/>
<text text-anchor="start" x="315" y="-21" font-family="FreeSans" font-size="10.00">Mezzanine::Physics</text>
<text text-anchor="middle" x="380" y="-8" font-family="FreeSans" font-size="10.00">::StaticMeshCollisionShape</text>
</a>
</g>
<!-- Node1&#45;&gt;Node5 -->
<g id="edge8" class="edge"><title>Node1&#45;&gt;Node5</title>
<path fill="none" stroke="midnightblue" d="M271.981,-49.0971C288.661,-44.1407 306.396,-38.871 322.57,-34.065"/>
<polygon fill="midnightblue" stroke="midnightblue" points="270.89,-45.7698 262.302,-51.9733 272.884,-52.4799 270.89,-45.7698"/>
</g>
<!-- Node2 -->
<g id="node2" class="node"><title>Node2</title>
<a xlink:href="classMezzanine_1_1Physics_1_1CollisionShape.xhtml" target="_top" xlink:title="This is the base class for all collision shapes.">
<polygon fill="white" stroke="black" points="0.5,-52 0.5,-86 109.5,-86 109.5,-52 0.5,-52"/>
<text text-anchor="start" x="8.5" y="-73" font-family="FreeSans" font-size="10.00">Mezzanine::Physics</text>
<text text-anchor="middle" x="55" y="-60" font-family="FreeSans" font-size="10.00">::CollisionShape</text>
</a>
</g>
<!-- Node2&#45;&gt;Node1 -->
<g id="edge2" class="edge"><title>Node2&#45;&gt;Node1</title>
<path fill="none" stroke="midnightblue" d="M119.688,-69C128.399,-69 137.3,-69 145.907,-69"/>
<polygon fill="midnightblue" stroke="midnightblue" points="119.578,-65.5001 109.578,-69 119.578,-72.5001 119.578,-65.5001"/>
</g>
</g>
</svg>
