<?xml version="1.0" encoding="UTF-8" standalone="no"?>
<!DOCTYPE svg PUBLIC "-//W3C//DTD SVG 1.1//EN"
 "http://www.w3.org/Graphics/SVG/1.1/DTD/svg11.dtd">
<!-- Generated by graphviz version 2.26.3 (20100126.1600)
 -->
<!-- Title: Mezzanine::Physics::PhysicsProxy Pages: 1 -->
<svg width="604pt" height="146pt"
 viewBox="0.00 0.00 604.00 146.00" xmlns="http://www.w3.org/2000/svg" xmlns:xlink="http://www.w3.org/1999/xlink">
<g id="graph1" class="graph" transform="scale(1 1) rotate(0) translate(4 142)">
<title>Mezzanine::Physics::PhysicsProxy</title>
<polygon fill="white" stroke="white" points="-4,5 -4,-142 601,-142 601,5 -4,5"/>
<!-- Node1 -->
<g id="node1" class="node"><title>Node1</title>
<polygon fill="#bfbfbf" stroke="black" points="340.5,-52 340.5,-86 449.5,-86 449.5,-52 340.5,-52"/>
<text text-anchor="start" x="348.5" y="-73" font-family="FreeSans" font-size="10.00">Mezzanine::Physics</text>
<text text-anchor="middle" x="395" y="-60" font-family="FreeSans" font-size="10.00">::PhysicsProxy</text>
</g>
<!-- Node4 -->
<g id="node7" class="node"><title>Node4</title>
<a xlink:href="classMezzanine_1_1Physics_1_1GhostProxy.html" target="_top" xlink:title="This is the proxy object for ghost objects with no contact response.">
<polygon fill="white" stroke="black" points="486.5,-104 486.5,-138 595.5,-138 595.5,-104 486.5,-104"/>
<text text-anchor="start" x="494.5" y="-125" font-family="FreeSans" font-size="10.00">Mezzanine::Physics</text>
<text text-anchor="middle" x="541" y="-112" font-family="FreeSans" font-size="10.00">::GhostProxy</text>
</a>
</g>
<!-- Node1&#45;&gt;Node4 -->
<g id="edge6" class="edge"><title>Node1&#45;&gt;Node4</title>
<path fill="none" stroke="midnightblue" d="M452.446,-89.4601C465.902,-94.2527 480.097,-99.3087 493.087,-103.935"/>
<polygon fill="midnightblue" stroke="midnightblue" points="453.401,-86.0849 442.806,-86.0267 451.052,-92.6791 453.401,-86.0849"/>
</g>
<!-- Node5 -->
<g id="node9" class="node"><title>Node5</title>
<a xlink:href="classMezzanine_1_1Physics_1_1RigidProxy.html" target="_top" xlink:title="This is a proxy from which rigid body proxys are handled.">
<polygon fill="white" stroke="black" points="486.5,-52 486.5,-86 595.5,-86 595.5,-52 486.5,-52"/>
<text text-anchor="start" x="494.5" y="-73" font-family="FreeSans" font-size="10.00">Mezzanine::Physics</text>
<text text-anchor="middle" x="541" y="-60" font-family="FreeSans" font-size="10.00">::RigidProxy</text>
</a>
</g>
<!-- Node1&#45;&gt;Node5 -->
<g id="edge8" class="edge"><title>Node1&#45;&gt;Node5</title>
<path fill="none" stroke="midnightblue" d="M460.019,-69C468.829,-69 477.796,-69 486.398,-69"/>
<polygon fill="midnightblue" stroke="midnightblue" points="459.78,-65.5001 449.78,-69 459.78,-72.5001 459.78,-65.5001"/>
</g>
<!-- Node6 -->
<g id="node11" class="node"><title>Node6</title>
<a xlink:href="classMezzanine_1_1Physics_1_1SoftProxy.html" target="_top" xlink:title="This is the proxy object for soft/compressable bodies.">
<polygon fill="white" stroke="black" points="486.5,-0 486.5,-34 595.5,-34 595.5,-0 486.5,-0"/>
<text text-anchor="start" x="494.5" y="-21" font-family="FreeSans" font-size="10.00">Mezzanine::Physics</text>
<text text-anchor="middle" x="541" y="-8" font-family="FreeSans" font-size="10.00">::SoftProxy</text>
</a>
</g>
<!-- Node1&#45;&gt;Node6 -->
<g id="edge10" class="edge"><title>Node1&#45;&gt;Node6</title>
<path fill="none" stroke="midnightblue" d="M452.446,-48.5399C465.902,-43.7473 480.097,-38.6913 493.087,-34.065"/>
<polygon fill="midnightblue" stroke="midnightblue" points="451.052,-45.3209 442.806,-51.9733 453.401,-51.9151 451.052,-45.3209"/>
</g>
<!-- Node2 -->
<g id="node2" class="node"><title>Node2</title>
<a xlink:href="classMezzanine_1_1WorldProxy.html" target="_top" xlink:title="This is the base class for proxy objects belonging to the various 3D subsystems.">
<polygon fill="white" stroke="black" points="178.5,-58.5 178.5,-79.5 303.5,-79.5 303.5,-58.5 178.5,-58.5"/>
<text text-anchor="middle" x="241" y="-66.5" font-family="FreeSans" font-size="10.00">Mezzanine::WorldProxy</text>
</a>
</g>
<!-- Node2&#45;&gt;Node1 -->
<g id="edge2" class="edge"><title>Node2&#45;&gt;Node1</title>
<path fill="none" stroke="midnightblue" d="M313.696,-69C322.657,-69 331.696,-69 340.326,-69"/>
<polygon fill="midnightblue" stroke="midnightblue" points="313.638,-65.5001 303.638,-69 313.638,-72.5001 313.638,-65.5001"/>
</g>
<!-- Node3 -->
<g id="node4" class="node"><title>Node3</title>
<a xlink:href="classMezzanine_1_1TransformableObject.html" target="_top" xlink:title="This is an interface for all 3D objects that can have their full transforms manipulated.">
<polygon fill="white" stroke="black" points="0.5,-52 0.5,-86 141.5,-86 141.5,-52 0.5,-52"/>
<text text-anchor="start" x="8.5" y="-73" font-family="FreeSans" font-size="10.00">Mezzanine::Transformable</text>
<text text-anchor="middle" x="71" y="-60" font-family="FreeSans" font-size="10.00">Object</text>
</a>
</g>
<!-- Node3&#45;&gt;Node2 -->
<g id="edge4" class="edge"><title>Node3&#45;&gt;Node2</title>
<path fill="none" stroke="midnightblue" d="M151.716,-69C160.703,-69 169.754,-69 178.466,-69"/>
<polygon fill="midnightblue" stroke="midnightblue" points="151.618,-65.5001 141.618,-69 151.618,-72.5001 151.618,-65.5001"/>
</g>
</g>
</svg>
