<?xml version="1.0" encoding="UTF-8" standalone="no"?>
<!DOCTYPE svg PUBLIC "-//W3C//DTD SVG 1.1//EN"
 "http://www.w3.org/Graphics/SVG/1.1/DTD/svg11.dtd">
<!-- Generated by graphviz version 2.26.3 (20100126.1600)
 -->
<!-- Title: Mezzanine::UI::LineList Pages: 1 -->
<svg width="162pt" height="146pt"
 viewBox="0.00 0.00 162.00 146.00" xmlns="http://www.w3.org/2000/svg" xmlns:xlink="http://www.w3.org/1999/xlink">
<g id="graph1" class="graph" transform="scale(1 1) rotate(0) translate(4 142)">
<title>Mezzanine::UI::LineList</title>
<polygon fill="white" stroke="white" points="-4,5 -4,-142 159,-142 159,5 -4,5"/>
<!-- Node1 -->
<g id="node1" class="node"><title>Node1</title>
<polygon fill="#bfbfbf" stroke="black" points="20,-1 20,-21 134,-21 134,-1 20,-1"/>
<text text-anchor="middle" x="77" y="-8" font-family="FreeSans" font-size="10.00">Mezzanine::UI::LineList</text>
</g>
<!-- Node2 -->
<g id="node2" class="node"><title>Node2</title>
<a xlink:href="classMezzanine_1_1UI_1_1BasicRenderable.xhtml" target="_top" xlink:title="Base class for renderables that generate verticies.">
<polygon fill="white" stroke="black" points="0,-59 0,-79 154,-79 154,-59 0,-59"/>
<text text-anchor="middle" x="77" y="-66" font-family="FreeSans" font-size="10.00">Mezzanine::UI::BasicRenderable</text>
</a>
</g>
<!-- Node2&#45;&gt;Node1 -->
<g id="edge2" class="edge"><title>Node2&#45;&gt;Node1</title>
<path fill="none" stroke="midnightblue" d="M77,-48.8902C77,-39.6201 77,-29.0083 77,-21.3776"/>
<polygon fill="midnightblue" stroke="midnightblue" points="73.5001,-48.8971 77,-58.8972 80.5001,-48.8972 73.5001,-48.8971"/>
</g>
<!-- Node3 -->
<g id="node4" class="node"><title>Node3</title>
<a xlink:href="classMezzanine_1_1UI_1_1Renderable.xhtml" target="_top" xlink:title="Basic class for all structures that get inserted into the rendering hierarchy.">
<polygon fill="white" stroke="black" points="12,-117 12,-137 142,-137 142,-117 12,-117"/>
<text text-anchor="middle" x="77" y="-124" font-family="FreeSans" font-size="10.00">Mezzanine::UI::Renderable</text>
</a>
</g>
<!-- Node3&#45;&gt;Node2 -->
<g id="edge4" class="edge"><title>Node3&#45;&gt;Node2</title>
<path fill="none" stroke="midnightblue" d="M77,-106.89C77,-97.6201 77,-87.0083 77,-79.3776"/>
<polygon fill="midnightblue" stroke="midnightblue" points="73.5001,-106.897 77,-116.897 80.5001,-106.897 73.5001,-106.897"/>
</g>
</g>
</svg>
