<?xml version="1.0" encoding="UTF-8" standalone="no"?>
<!DOCTYPE svg PUBLIC "-//W3C//DTD SVG 1.1//EN"
 "http://www.w3.org/Graphics/SVG/1.1/DTD/svg11.dtd">
<!-- Generated by graphviz version 2.26.3 (20100126.1600)
 -->
<!-- Title: Mezzanine::AreaEffect Pages: 1 -->
<!--zoomable 150 -->
<svg id="main" version="1.1" xmlns="http://www.w3.org/2000/svg" xmlns:xlink="http://www.w3.org/1999/xlink" xml:space="preserve" onload="init(evt)">
        <defs>
                <circle id="rim" cx="0" cy="0" r="7"/>
                <circle id="rim2" cx="0" cy="0" r="3.5"/>
                <g id="zoomPlus">
                        <use xlink:href="#rim" fill="#404040">
                                <set attributeName="fill" to="#808080" begin="zoomplus.mouseover" end="zoomplus.mouseout"/>
                        </use>
                        <path d="M-4,0h8M0,-4v8" fill="none" stroke="white" stroke-width="1.5" pointer-events="none"/>
                </g>
                <g id="zoomMin">
                        <use xlink:href="#rim" fill="#404040">
                                <set attributeName="fill" to="#808080" begin="zoomminus.mouseover" end="zoomminus.mouseout"/>
                        </use>
                        <path d="M-4,0h8" fill="none" stroke="white" stroke-width="1.5" pointer-events="none"/>
                </g>
                <g id="dirArrow">
                        <path fill="none" stroke="white" stroke-width="1.5" d="M0,-3.0v7 M-2.5,-0.5L0,-3.0L2.5,-0.5"/>
                </g>
               <g id="resetDef">
                       <use xlink:href="#rim2" fill="#404040">
                               <set attributeName="fill" to="#808080" begin="reset.mouseover" end="reset.mouseout"/>
                       </use>
               </g>
        </defs>

<script type="text/javascript">
var viewWidth = 862;
var viewHeight = 150;
var sectionId = 'dynsection-0';
</script>
<script xlink:href="svgpan.js"/>
<svg id="graph" class="graph">
<g id="viewport">
<title>Mezzanine::AreaEffect</title>
<polygon fill="white" stroke="white" points="-4,5 -4,-146 859,-146 859,5 -4,5"/>
<!-- Node1 -->
<g id="node1" class="node"><title>Node1</title>
<polygon fill="#bfbfbf" stroke="black" points="562.5,-60.5 562.5,-81.5 685.5,-81.5 685.5,-60.5 562.5,-60.5"/>
<text text-anchor="middle" x="624" y="-68.5" font-family="FreeSans" font-size="10.00">Mezzanine::AreaEffect</text>
</g>
<!-- Node7 -->
<g id="node14" class="node"><title>Node7</title>
<a xlink:href="classMezzanine_1_1FieldOfForce.html" target="_top" xlink:title="This is field that applies force in a direction, and doesn&#39;t tamper with gravity.">
<polygon fill="white" stroke="black" points="722.5,-120.5 722.5,-141.5 853.5,-141.5 853.5,-120.5 722.5,-120.5"/>
<text text-anchor="middle" x="788" y="-128.5" font-family="FreeSans" font-size="10.00">Mezzanine::FieldOfForce</text>
</a>
</g>
<!-- Node1&#45;&gt;Node7 -->
<g id="edge14" class="edge"><title>Node1&#45;&gt;Node7</title>
<path fill="none" stroke="midnightblue" d="M657.635,-85.636C676.41,-93.5759 700.32,-103.309 722,-111 731.366,-114.322 741.596,-117.593 751.146,-120.495"/>
<polygon fill="midnightblue" stroke="midnightblue" points="658.895,-82.3687 648.324,-81.6679 656.151,-88.8083 658.895,-82.3687"/>
</g>
<!-- Node8 -->
<g id="node16" class="node"><title>Node8</title>
<a xlink:href="classMezzanine_1_1GravityField.html" target="_top" xlink:title="This is a gravity field implementation of the AreaEffect class.">
<polygon fill="white" stroke="black" points="724,-80.5 724,-101.5 852,-101.5 852,-80.5 724,-80.5"/>
<text text-anchor="middle" x="788" y="-88.5" font-family="FreeSans" font-size="10.00">Mezzanine::GravityField</text>
</a>
</g>
<!-- Node1&#45;&gt;Node8 -->
<g id="edge16" class="edge"><title>Node1&#45;&gt;Node8</title>
<path fill="none" stroke="midnightblue" d="M695.65,-79.7378C705.061,-80.8855 714.657,-82.0557 723.931,-83.1867"/>
<polygon fill="midnightblue" stroke="midnightblue" points="695.884,-76.2405 685.534,-78.5042 695.037,-83.1891 695.884,-76.2405"/>
</g>
<!-- Node9 -->
<g id="node18" class="node"><title>Node9</title>
<a xlink:href="classMezzanine_1_1GravityWell.html" target="_top" xlink:title="This is a gravity well implementation of the AreaEffect class.">
<polygon fill="white" stroke="black" points="725.5,-40.5 725.5,-61.5 850.5,-61.5 850.5,-40.5 725.5,-40.5"/>
<text text-anchor="middle" x="788" y="-48.5" font-family="FreeSans" font-size="10.00">Mezzanine::GravityWell</text>
</a>
</g>
<!-- Node1&#45;&gt;Node9 -->
<g id="edge18" class="edge"><title>Node1&#45;&gt;Node9</title>
<path fill="none" stroke="midnightblue" d="M695.708,-62.2551C705.565,-61.053 715.623,-59.8264 725.301,-58.6462"/>
<polygon fill="midnightblue" stroke="midnightblue" points="695.037,-58.8109 685.534,-63.4958 695.884,-65.7595 695.037,-58.8109"/>
</g>
<!-- Node10 -->
<g id="node20" class="node"><title>Node10</title>
<a xlink:href="classMezzanine_1_1TestAE.html" target="_top" xlink:title="This is a dummy class to test if the AE field works. Details will be output to the log...">
<polygon fill="white" stroke="black" points="735.5,-0.5 735.5,-21.5 840.5,-21.5 840.5,-0.5 735.5,-0.5"/>
<text text-anchor="middle" x="788" y="-8.5" font-family="FreeSans" font-size="10.00">Mezzanine::TestAE</text>
</a>
</g>
<!-- Node1&#45;&gt;Node10 -->
<g id="edge20" class="edge"><title>Node1&#45;&gt;Node10</title>
<path fill="none" stroke="midnightblue" d="M657.635,-56.364C676.41,-48.4241 700.32,-38.6905 722,-31 731.366,-27.6777 741.596,-24.4074 751.146,-21.5045"/>
<polygon fill="midnightblue" stroke="midnightblue" points="656.151,-53.1917 648.324,-60.3321 658.895,-59.6313 656.151,-53.1917"/>
</g>
<!-- Node2 -->
<g id="node2" class="node"><title>Node2</title>
<a xlink:href="classMezzanine_1_1NonStaticWorldObject.html" target="_top" xlink:title="This is a small extention of the WorldObject class that adds features common to non&#45;static objects...">
<polygon fill="white" stroke="black" points="379,-77 379,-111 525,-111 525,-77 379,-77"/>
<text text-anchor="start" x="387" y="-98" font-family="FreeSans" font-size="10.00">Mezzanine::NonStaticWorld</text>
<text text-anchor="middle" x="452" y="-85" font-family="FreeSans" font-size="10.00">Object</text>
</a>
</g>
<!-- Node2&#45;&gt;Node1 -->
<g id="edge2" class="edge"><title>Node2&#45;&gt;Node1</title>
<path fill="none" stroke="midnightblue" d="M535.611,-82.8194C544.651,-81.6107 553.725,-80.3973 562.434,-79.2326"/>
<polygon fill="midnightblue" stroke="midnightblue" points="534.89,-79.3846 525.442,-84.1792 535.818,-86.3228 534.89,-79.3846"/>
</g>
<!-- Node3 -->
<g id="node4" class="node"><title>Node3</title>
<a xlink:href="classMezzanine_1_1WorldObject.html" target="_top" xlink:title="This is the base class from which classes that are insertable into the physical world.">
<polygon fill="white" stroke="black" points="199,-116.5 199,-137.5 329,-137.5 329,-116.5 199,-116.5"/>
<text text-anchor="middle" x="264" y="-124.5" font-family="FreeSans" font-size="10.00">Mezzanine::WorldObject</text>
</a>
</g>
<!-- Node3&#45;&gt;Node2 -->
<g id="edge4" class="edge"><title>Node3&#45;&gt;Node2</title>
<path fill="none" stroke="midnightblue" d="M333.964,-114.719C348.574,-112.155 364.015,-109.444 378.74,-106.859"/>
<polygon fill="midnightblue" stroke="midnightblue" points="333.246,-111.292 324.001,-116.468 334.456,-118.186 333.246,-111.292"/>
</g>
<!-- Node4 -->
<g id="node6" class="node"><title>Node4</title>
<a xlink:href="classMezzanine_1_1AttachableParent.html" target="_top" xlink:title="Base class for objects that can have attachables attached to them.">
<polygon fill="white" stroke="black" points="186,-76.5 186,-97.5 342,-97.5 342,-76.5 186,-76.5"/>
<text text-anchor="middle" x="264" y="-84.5" font-family="FreeSans" font-size="10.00">Mezzanine::AttachableParent</text>
</a>
</g>
<!-- Node4&#45;&gt;Node2 -->
<g id="edge6" class="edge"><title>Node4&#45;&gt;Node2</title>
<path fill="none" stroke="midnightblue" d="M352.174,-90.2831C361.143,-90.617 370.184,-90.9536 378.966,-91.2807"/>
<polygon fill="midnightblue" stroke="midnightblue" points="352.219,-86.7824 342.096,-89.9078 351.958,-93.7776 352.219,-86.7824"/>
</g>
<!-- Node5 -->
<g id="node8" class="node"><title>Node5</title>
<a xlink:href="classMezzanine_1_1AttachableBase.html" target="_top" xlink:title="This class is the base class for other attachable classes and is responsible for transform updates to...">
<polygon fill="white" stroke="black" points="0.5,-56.5 0.5,-77.5 149.5,-77.5 149.5,-56.5 0.5,-56.5"/>
<text text-anchor="middle" x="75" y="-64.5" font-family="FreeSans" font-size="10.00">Mezzanine::AttachableBase</text>
</a>
</g>
<!-- Node5&#45;&gt;Node4 -->
<g id="edge8" class="edge"><title>Node5&#45;&gt;Node4</title>
<path fill="none" stroke="midnightblue" d="M159.795,-75.9731C168.455,-76.8894 177.225,-77.8174 185.809,-78.7258"/>
<polygon fill="midnightblue" stroke="midnightblue" points="160.011,-72.4764 149.698,-74.9045 159.274,-79.4375 160.011,-72.4764"/>
</g>
<!-- Node6 -->
<g id="node10" class="node"><title>Node6</title>
<a xlink:href="classMezzanine_1_1AttachableChild.html" target="_top" xlink:title="This class is the base class for objects that can be attached to AttachableParent.">
<polygon fill="white" stroke="black" points="378,-37.5 378,-58.5 526,-58.5 526,-37.5 378,-37.5"/>
<text text-anchor="middle" x="452" y="-45.5" font-family="FreeSans" font-size="10.00">Mezzanine::AttachableChild</text>
</a>
</g>
<!-- Node5&#45;&gt;Node6 -->
<g id="edge12" class="edge"><title>Node5&#45;&gt;Node6</title>
<path fill="none" stroke="midnightblue" d="M160.232,-62.7045C225.733,-59.4034 315.295,-54.8896 377.851,-51.737"/>
<polygon fill="midnightblue" stroke="midnightblue" points="159.745,-59.2245 149.934,-63.2235 160.097,-66.2156 159.745,-59.2245"/>
</g>
<!-- Node6&#45;&gt;Node1 -->
<g id="edge10" class="edge"><title>Node6&#45;&gt;Node1</title>
<path fill="none" stroke="midnightblue" d="M536.162,-59.2543C545.021,-60.4389 553.906,-61.627 562.441,-62.7682"/>
<polygon fill="midnightblue" stroke="midnightblue" points="536.567,-55.7773 526.191,-57.921 535.639,-62.7156 536.567,-55.7773"/>
</g>
</g>
</svg>
        <g id="navigator" transform="translate(0 0)" fill="#404254">
                <rect fill="#f2f5e9" fill-opacity="0.5" stroke="#606060" stroke-width=".5" x="0" y="0" width="60" height="60"/>
                <use id="zoomplus" xlink:href="#zoomPlus" x="17" y="9" onmousedown="handleZoom(evt,'in')"/>
                <use id="zoomminus" xlink:href="#zoomMin" x="42" y="9" onmousedown="handleZoom(evt,'out')"/>
                <use id="reset" xlink:href="#resetDef" x="30" y="36" onmousedown="handleReset()"/>
                <g id="arrowUp" xlink:href="#dirArrow" transform="translate(30 24)" onmousedown="handlePan(0,-1)">
                  <use xlink:href="#rim" fill="#404040">
                        <set attributeName="fill" to="#808080" begin="arrowUp.mouseover" end="arrowUp.mouseout"/>
                  </use>
                  <path fill="none" stroke="white" stroke-width="1.5" d="M0,-3.0v7 M-2.5,-0.5L0,-3.0L2.5,-0.5"/>
                </g>
                <g id="arrowRight" xlink:href="#dirArrow" transform="rotate(90) translate(36 -43)" onmousedown="handlePan(1,0)">
                  <use xlink:href="#rim" fill="#404040">
                        <set attributeName="fill" to="#808080" begin="arrowRight.mouseover" end="arrowRight.mouseout"/>
                  </use>
                  <path fill="none" stroke="white" stroke-width="1.5" d="M0,-3.0v7 M-2.5,-0.5L0,-3.0L2.5,-0.5"/>
                </g>
                <g id="arrowDown" xlink:href="#dirArrow" transform="rotate(180) translate(-30 -48)" onmousedown="handlePan(0,1)">
                  <use xlink:href="#rim" fill="#404040">
                        <set attributeName="fill" to="#808080" begin="arrowDown.mouseover" end="arrowDown.mouseout"/>
                  </use>
                  <path fill="none" stroke="white" stroke-width="1.5" d="M0,-3.0v7 M-2.5,-0.5L0,-3.0L2.5,-0.5"/>
                </g>
                <g id="arrowLeft" xlink:href="#dirArrow" transform="rotate(270) translate(-36 17)" onmousedown="handlePan(-1,0)">
                  <use xlink:href="#rim" fill="#404040">
                        <set attributeName="fill" to="#808080" begin="arrowLeft.mouseover" end="arrowLeft.mouseout"/>
                  </use>
                  <path fill="none" stroke="white" stroke-width="1.5" d="M0,-3.0v7 M-2.5,-0.5L0,-3.0L2.5,-0.5"/>
                </g>
        </g>
        <svg viewBox="0 0 15 15" width="100%" height="30px" preserveAspectRatio="xMaxYMin meet">
         <g id="arrow_out" transform="scale(0.3 0.3)">
          <a xlink:href="classMezzanine_1_1AreaEffect__inherit__graph_org.svg" target="_base">
           <rect id="button" ry="5" rx="5" y="6" x="6" height="38" width="38"
                fill="#f2f5e9" fill-opacity="0.5" stroke="#606060" stroke-width="1.0"/>
           <path id="arrow"
             d="M 11.500037,31.436501 C 11.940474,20.09759 22.043105,11.32322 32.158766,21.979434 L 37.068811,17.246167 C 37.068811,17.246167 37.088388,32 37.088388,32 L 22.160133,31.978069 C 22.160133,31.978069 26.997745,27.140456 26.997745,27.140456 C 18.528582,18.264221 13.291696,25.230495 11.500037,31.436501 z"
             style="fill:#404040;"/>
          </a>
         </g>
        </svg>
</svg>
