<?xml version="1.0" encoding="UTF-8" standalone="no"?>
<!DOCTYPE svg PUBLIC "-//W3C//DTD SVG 1.1//EN"
 "http://www.w3.org/Graphics/SVG/1.1/DTD/svg11.dtd">
<!-- Generated by graphviz version 2.26.3 (20100126.1600)
 -->
<!-- Title: Mezzanine::UI::Glyph Pages: 1 -->
<svg width="272pt" height="200pt"
 viewBox="0.00 0.00 272.00 200.00" xmlns="http://www.w3.org/2000/svg" xmlns:xlink="http://www.w3.org/1999/xlink">
<g id="graph1" class="graph" transform="scale(1 1) rotate(0) translate(4 196)">
<title>Mezzanine::UI::Glyph</title>
<polygon fill="white" stroke="white" points="-4,5 -4,-196 269,-196 269,5 -4,5"/>
<!-- Node1 -->
<g id="node1" class="node"><title>Node1</title>
<polygon fill="#bfbfbf" stroke="black" points="52,-0.5 52,-21.5 168,-21.5 168,-0.5 52,-0.5"/>
<text text-anchor="middle" x="110" y="-8.5" font-family="FreeSans" font-size="10.00">Mezzanine::UI::Glyph</text>
</g>
<!-- Node2 -->
<g id="node2" class="node"><title>Node2</title>
<a xlink:href="classMezzanine_1_1Vector2.xhtml" target="_top" xlink:title="This is used to represent a point on a 2 dimentional area, such as a screen.">
<polygon fill="white" stroke="black" points="0,-91.5 0,-112.5 110,-112.5 110,-91.5 0,-91.5"/>
<text text-anchor="middle" x="55" y="-99.5" font-family="FreeSans" font-size="10.00">Mezzanine::Vector2</text>
</a>
</g>
<!-- Node2&#45;&gt;Node1 -->
<g id="edge2" class="edge"><title>Node2&#45;&gt;Node1</title>
<path fill="none" stroke="#9a32cd" stroke-dasharray="5,2" d="M62.1761,-81.8203C67.1031,-69.2571 74.3127,-53.0607 83,-40 87.4193,-33.3558 93.3773,-26.7786 98.5722,-21.5718"/>
<polygon fill="#9a32cd" stroke="#9a32cd" points="58.8289,-80.778 58.592,-91.3702 65.3826,-83.2377 58.8289,-80.778"/>
<text text-anchor="middle" x="113.5" y="-57" font-family="FreeSans" font-size="10.00"> AtlasCoords</text>
<text text-anchor="middle" x="113.5" y="-44" font-family="FreeSans" font-size="10.00">GlyphSize</text>
</g>
<!-- Node3 -->
<g id="node4" class="node"><title>Node3</title>
<polygon fill="white" stroke="#bfbfbf" points="128,-85 128,-119 258,-119 258,-85 128,-85"/>
<text text-anchor="start" x="136" y="-106" font-family="FreeSans" font-size="10.00">std::vector&lt; Mezzanine</text>
<text text-anchor="middle" x="193" y="-93" font-family="FreeSans" font-size="10.00">::UI::KerningInfo &gt;</text>
</g>
<!-- Node3&#45;&gt;Node1 -->
<g id="edge4" class="edge"><title>Node3&#45;&gt;Node1</title>
<path fill="none" stroke="#9a32cd" stroke-dasharray="5,2" d="M174.943,-76.8994C166.113,-65.2366 155.029,-51.4495 144,-40 137.756,-33.5185 130.19,-26.9565 123.782,-21.7177"/>
<polygon fill="#9a32cd" stroke="#9a32cd" points="172.16,-79.023 180.94,-84.9525 177.774,-74.8418 172.16,-79.023"/>
<text text-anchor="middle" x="187" y="-50.5" font-family="FreeSans" font-size="10.00"> Kernings</text>
</g>
<!-- Node4 -->
<g id="node6" class="node"><title>Node4</title>
<a xlink:href="structMezzanine_1_1UI_1_1KerningInfo.xhtml" target="_top" xlink:title="Basic class used to describe Kerning for a given Glyph.">
<polygon fill="white" stroke="black" points="122,-170.5 122,-191.5 264,-191.5 264,-170.5 122,-170.5"/>
<text text-anchor="middle" x="193" y="-178.5" font-family="FreeSans" font-size="10.00">Mezzanine::UI::KerningInfo</text>
</a>
</g>
<!-- Node4&#45;&gt;Node3 -->
<g id="edge6" class="edge"><title>Node4&#45;&gt;Node3</title>
<path fill="none" stroke="#9a32cd" stroke-dasharray="5,2" d="M193,-160.162C193,-147.363 193,-131.171 193,-119.124"/>
<polygon fill="#9a32cd" stroke="#9a32cd" points="189.5,-160.346 193,-170.346 196.5,-160.346 189.5,-160.346"/>
<text text-anchor="middle" x="217.5" y="-142.5" font-family="FreeSans" font-size="10.00"> elements</text>
</g>
</g>
</svg>
