<?xml version="1.0" encoding="UTF-8" standalone="no"?>
<!DOCTYPE svg PUBLIC "-//W3C//DTD SVG 1.1//EN"
 "http://www.w3.org/Graphics/SVG/1.1/DTD/svg11.dtd">
<!-- Generated by graphviz version 2.26.3 (20100126.1600)
 -->
<!-- Title: Mezzanine::Scripting::ScriptArgumentGeneric&lt; String &gt; Pages: 1 -->
<svg width="268pt" height="216pt"
 viewBox="0.00 0.00 268.00 216.00" xmlns="http://www.w3.org/2000/svg" xmlns:xlink="http://www.w3.org/1999/xlink">
<g id="graph1" class="graph" transform="scale(1 1) rotate(0) translate(4 212)">
<title>Mezzanine::Scripting::ScriptArgumentGeneric&lt; String &gt;</title>
<polygon fill="white" stroke="white" points="-4,5 -4,-212 265,-212 265,5 -4,5"/>
<!-- Node1 -->
<g id="node1" class="node"><title>Node1</title>
<polygon fill="#bfbfbf" stroke="black" points="92,-0.5 92,-47.5 216,-47.5 216,-0.5 92,-0.5"/>
<text text-anchor="start" x="100" y="-34.5" font-family="Helvetica,sans-Serif" font-size="10.00">Mezzanine::Scripting</text>
<text text-anchor="start" x="100" y="-21.5" font-family="Helvetica,sans-Serif" font-size="10.00">::ScriptArgumentGeneric</text>
<text text-anchor="middle" x="154" y="-8.5" font-family="Helvetica,sans-Serif" font-size="10.00">&lt; String &gt;</text>
</g>
<!-- Node2 -->
<g id="node2" class="node"><title>Node2</title>
<a xlink:href="classMezzanine_1_1Scripting_1_1iScriptArgument.html" target="_top" xlink:title="The interface for a script argument. ">
<polygon fill="white" stroke="black" points="30,-99 30,-133 138,-133 138,-99 30,-99"/>
<text text-anchor="start" x="38" y="-120" font-family="Helvetica,sans-Serif" font-size="10.00">Mezzanine::Scripting</text>
<text text-anchor="middle" x="84" y="-107" font-family="Helvetica,sans-Serif" font-size="10.00">::iScriptArgument</text>
</a>
</g>
<!-- Node2&#45;&gt;Node1 -->
<g id="edge2" class="edge"><title>Node2&#45;&gt;Node1</title>
<path fill="none" stroke="midnightblue" d="M103.469,-90.4122C113.611,-77.0828 125.935,-60.885 135.874,-47.8232"/>
<polygon fill="midnightblue" stroke="midnightblue" points="100.436,-88.6179 97.1665,-98.6955 106.007,-92.8565 100.436,-88.6179"/>
</g>
<!-- Node3 -->
<g id="node4" class="node"><title>Node3</title>
<a xlink:href="classMezzanine_1_1IntrusiveRefCount.html" target="_top" xlink:title="A sample class that implements a minimal intrusive reference counting scheme. ">
<polygon fill="white" stroke="black" points="-0.5,-179.5 -0.5,-200.5 148.5,-200.5 148.5,-179.5 -0.5,-179.5"/>
<text text-anchor="middle" x="74" y="-187.5" font-family="Helvetica,sans-Serif" font-size="10.00">Mezzanine::IntrusiveRefCount</text>
</a>
</g>
<!-- Node3&#45;&gt;Node2 -->
<g id="edge4" class="edge"><title>Node3&#45;&gt;Node2</title>
<path fill="none" stroke="midnightblue" d="M76.7779,-169.443C78.3211,-158.024 80.2188,-143.981 81.6816,-133.156"/>
<polygon fill="midnightblue" stroke="midnightblue" points="73.3035,-169.019 75.4328,-179.398 80.2405,-169.956 73.3035,-169.019"/>
</g>
<!-- Node4 -->
<g id="node6" class="node"><title>Node4</title>
<a xlink:title="STL class. ">
<polygon fill="white" stroke="#bfbfbf" points="174,-105.5 174,-126.5 234,-126.5 234,-105.5 174,-105.5"/>
<text text-anchor="middle" x="204" y="-113.5" font-family="Helvetica,sans-Serif" font-size="10.00">std::string</text>
</a>
</g>
<!-- Node4&#45;&gt;Node1 -->
<g id="edge6" class="edge"><title>Node4&#45;&gt;Node1</title>
<path fill="none" stroke="#9a32cd" stroke-dasharray="5,2" d="M193.422,-96.5357C185.691,-82.3112 175.164,-62.942 166.933,-47.797"/>
<polygon fill="#9a32cd" stroke="#9a32cd" points="190.414,-98.3315 198.264,-105.446 196.564,-94.9889 190.414,-98.3315"/>
<text text-anchor="middle" x="200.5" y="-70.5" font-family="Helvetica,sans-Serif" font-size="10.00"> Datum</text>
</g>
<!-- Node5 -->
<g id="node8" class="node"><title>Node5</title>
<a xlink:title="STL class. ">
<polygon fill="white" stroke="#bfbfbf" points="165.5,-173 165.5,-207 260.5,-207 260.5,-173 165.5,-173"/>
<text text-anchor="start" x="173.5" y="-194" font-family="Helvetica,sans-Serif" font-size="10.00">std::basic_string&lt;</text>
<text text-anchor="middle" x="213" y="-181" font-family="Helvetica,sans-Serif" font-size="10.00"> char &gt;</text>
</a>
</g>
<!-- Node5&#45;&gt;Node4 -->
<g id="edge8" class="edge"><title>Node5&#45;&gt;Node4</title>
<path fill="none" stroke="midnightblue" d="M209.702,-162.88C208.185,-150.411 206.472,-136.327 205.323,-126.879"/>
<polygon fill="midnightblue" stroke="midnightblue" points="206.231,-163.333 210.913,-172.837 213.18,-162.487 206.231,-163.333"/>
</g>
</g>
</svg>
