<?xml version="1.0" encoding="UTF-8" standalone="no"?>
<!DOCTYPE svg PUBLIC "-//W3C//DTD SVG 1.1//EN"
 "http://www.w3.org/Graphics/SVG/1.1/DTD/svg11.dtd">
<!-- Generated by graphviz version 2.38.0 (20140413.2041)
 -->
<!-- Title: pugi::xml_document Pages: 1 -->
<svg width="204pt" height="254pt"
 viewBox="0.00 0.00 204.00 254.00" xmlns="http://www.w3.org/2000/svg" xmlns:xlink="http://www.w3.org/1999/xlink">
<g id="graph0" class="graph" transform="scale(1 1) rotate(0) translate(4 250)">
<title>pugi::xml_document</title>
<polygon fill="white" stroke="none" points="-4,4 -4,-250 200,-250 200,4 -4,4"/>
<!-- Node1 -->
<g id="node1" class="node"><title>Node1</title>
<polygon fill="#bfbfbf" stroke="black" points="4.5,-0.5 4.5,-19.5 108.5,-19.5 108.5,-0.5 4.5,-0.5"/>
<text text-anchor="middle" x="56.5" y="-7.5" font-family="Helvetica,sans-Serif" font-size="10.00">pugi::xml_document</text>
</g>
<!-- Node2 -->
<g id="node2" class="node"><title>Node2</title>
<g id="a_node2"><a xlink:href="classpugi_1_1xml__node.html" target="_top" xlink:title="pugi::xml_node">
<polygon fill="white" stroke="black" points="15,-57.5 15,-76.5 98,-76.5 98,-57.5 15,-57.5"/>
<text text-anchor="middle" x="56.5" y="-64.5" font-family="Helvetica,sans-Serif" font-size="10.00">pugi::xml_node</text>
</a>
</g>
</g>
<!-- Node2&#45;&gt;Node1 -->
<g id="edge1" class="edge"><title>Node2&#45;&gt;Node1</title>
<path fill="none" stroke="midnightblue" d="M56.5,-47.1166C56.5,-37.8173 56.5,-27.0557 56.5,-19.7149"/>
<polygon fill="midnightblue" stroke="midnightblue" points="53.0001,-47.4062 56.5,-57.4062 60.0001,-47.4063 53.0001,-47.4062"/>
</g>
<!-- Node3 -->
<g id="node3" class="node"><title>Node3</title>
<g id="a_node3"><a xlink:href="structpugi_1_1xml__node__struct.html" target="_top" xlink:title="An XML document tree node. ">
<polygon fill="white" stroke="black" points="0,-136.5 0,-155.5 113,-155.5 113,-136.5 0,-136.5"/>
<text text-anchor="middle" x="56.5" y="-143.5" font-family="Helvetica,sans-Serif" font-size="10.00">pugi::xml_node_struct</text>
</a>
</g>
</g>
<!-- Node3&#45;&gt;Node2 -->
<g id="edge2" class="edge"><title>Node3&#45;&gt;Node2</title>
<path fill="none" stroke="#9a32cd" stroke-dasharray="5,2" d="M56.5,-126.315C56.5,-110.592 56.5,-88.8079 56.5,-76.8094"/>
<polygon fill="#9a32cd" stroke="#9a32cd" points="53.0001,-126.465 56.5,-136.465 60.0001,-126.465 53.0001,-126.465"/>
<text text-anchor="middle" x="69" y="-98" font-family="Helvetica,sans-Serif" font-size="10.00"> _root</text>
</g>
<!-- Node3&#45;&gt;Node3 -->
<g id="edge5" class="edge"><title>Node3&#45;&gt;Node3</title>
<path fill="none" stroke="#9a32cd" stroke-dasharray="5,2" d="M122.988,-152.15C127.952,-150.775 131,-148.725 131,-146 131,-141.746 123.572,-139.137 113.026,-138.173"/>
<polygon fill="#9a32cd" stroke="#9a32cd" points="122.306,-148.716 113.026,-153.827 123.468,-155.618 122.306,-148.716"/>
<text text-anchor="middle" x="162.5" y="-160" font-family="Helvetica,sans-Serif" font-size="10.00"> first_child</text>
<text text-anchor="middle" x="162.5" y="-149" font-family="Helvetica,sans-Serif" font-size="10.00">next_sibling</text>
<text text-anchor="middle" x="162.5" y="-138" font-family="Helvetica,sans-Serif" font-size="10.00">parent</text>
<text text-anchor="middle" x="162.5" y="-127" font-family="Helvetica,sans-Serif" font-size="10.00">prev_sibling_c</text>
</g>
<!-- Node4 -->
<g id="node4" class="node"><title>Node4</title>
<g id="a_node4"><a xlink:href="structpugi_1_1xml__attribute__struct.html" target="_top" xlink:title="A &#39;name=value&#39; XML attribute structure. ">
<polygon fill="white" stroke="black" points="8,-215.5 8,-245.5 105,-245.5 105,-215.5 8,-215.5"/>
<text text-anchor="start" x="16" y="-233.5" font-family="Helvetica,sans-Serif" font-size="10.00">pugi::xml_attribute</text>
<text text-anchor="middle" x="56.5" y="-222.5" font-family="Helvetica,sans-Serif" font-size="10.00">_struct</text>
</a>
</g>
</g>
<!-- Node4&#45;&gt;Node3 -->
<g id="edge3" class="edge"><title>Node4&#45;&gt;Node3</title>
<path fill="none" stroke="#9a32cd" stroke-dasharray="5,2" d="M56.5,-204.951C56.5,-188.281 56.5,-167.234 56.5,-155.644"/>
<polygon fill="#9a32cd" stroke="#9a32cd" points="53.0001,-205.13 56.5,-215.13 60.0001,-205.13 53.0001,-205.13"/>
<text text-anchor="middle" x="87" y="-189" font-family="Helvetica,sans-Serif" font-size="10.00"> first_attribute</text>
</g>
<!-- Node4&#45;&gt;Node4 -->
<g id="edge4" class="edge"><title>Node4&#45;&gt;Node4</title>
<path fill="none" stroke="#9a32cd" stroke-dasharray="5,2" d="M115.38,-235.933C120.087,-234.746 123,-232.935 123,-230.5 123,-226.604 115.542,-224.305 105.214,-223.605"/>
<polygon fill="#9a32cd" stroke="#9a32cd" points="114.614,-232.507 105.214,-237.395 115.611,-239.436 114.614,-232.507"/>
<text text-anchor="middle" x="159.5" y="-233.5" font-family="Helvetica,sans-Serif" font-size="10.00"> prev_attribute_c</text>
<text text-anchor="middle" x="159.5" y="-222.5" font-family="Helvetica,sans-Serif" font-size="10.00">next_attribute</text>
</g>
</g>
</svg>
