<?xml version="1.0" encoding="UTF-8" standalone="no"?>
<!DOCTYPE svg PUBLIC "-//W3C//DTD SVG 1.1//EN"
 "http://www.w3.org/Graphics/SVG/1.1/DTD/svg11.dtd">
<!-- Generated by graphviz version 2.38.0 (20140413.2041)
 -->
<!-- Title: Mezzanine::Audio::MusicPlayer Pages: 1 -->
<svg width="291pt" height="219pt"
 viewBox="0.00 0.00 290.50 219.00" xmlns="http://www.w3.org/2000/svg" xmlns:xlink="http://www.w3.org/1999/xlink">
<g id="graph0" class="graph" transform="scale(1 1) rotate(0) translate(4 215)">
<title>Mezzanine::Audio::MusicPlayer</title>
<polygon fill="white" stroke="none" points="-4,4 -4,-215 286.5,-215 286.5,4 -4,4"/>
<!-- Node1 -->
<g id="node1" class="node"><title>Node1</title>
<polygon fill="#bfbfbf" stroke="black" points="96.5,-0.5 96.5,-19.5 251.5,-19.5 251.5,-0.5 96.5,-0.5"/>
<text text-anchor="middle" x="174" y="-7.5" font-family="Helvetica,sans-Serif" font-size="10.00">Mezzanine::Audio::MusicPlayer</text>
</g>
<!-- Node2 -->
<g id="node2" class="node"><title>Node2</title>
<g id="a_node2"><a xlink:href="classMezzanine_1_1Audio_1_1Playlist.html" target="_top" xlink:title="This class is a list of sounds with common playlist features. ">
<polygon fill="white" stroke="black" points="0.5,-67.5 0.5,-86.5 133.5,-86.5 133.5,-67.5 0.5,-67.5"/>
<text text-anchor="middle" x="67" y="-74.5" font-family="Helvetica,sans-Serif" font-size="10.00">Mezzanine::Audio::Playlist</text>
</a>
</g>
</g>
<!-- Node2&#45;&gt;Node1 -->
<g id="edge1" class="edge"><title>Node2&#45;&gt;Node1</title>
<path fill="none" stroke="#9a32cd" stroke-dasharray="5,2" d="M88.5727,-61.6664C99.659,-54.4128 113.445,-45.5653 126,-38 136.646,-31.5851 148.858,-24.7227 158.3,-19.5216"/>
<polygon fill="#9a32cd" stroke="#9a32cd" points="86.41,-58.8997 79.9814,-67.3213 90.2587,-64.7468 86.41,-58.8997"/>
<text text-anchor="middle" x="157" y="-41" font-family="Helvetica,sans-Serif" font-size="10.00"> MusicPlaylist</text>
</g>
<!-- Node3 -->
<g id="node3" class="node"><title>Node3</title>
<g id="a_node3"><a xlink:title="STL class. ">
<polygon fill="white" stroke="#bfbfbf" points="0,-124.5 0,-143.5 134,-143.5 134,-124.5 0,-124.5"/>
<text text-anchor="middle" x="67" y="-131.5" font-family="Helvetica,sans-Serif" font-size="10.00">std::list&lt; Audio::iSound * &gt;</text>
</a>
</g>
</g>
<!-- Node3&#45;&gt;Node2 -->
<g id="edge2" class="edge"><title>Node3&#45;&gt;Node2</title>
<path fill="none" stroke="midnightblue" d="M67,-114.117C67,-104.817 67,-94.0557 67,-86.7149"/>
<polygon fill="midnightblue" stroke="midnightblue" points="63.5001,-114.406 67,-124.406 70.5001,-114.406 63.5001,-114.406"/>
</g>
<!-- Node4 -->
<g id="node4" class="node"><title>Node4</title>
<polygon fill="white" stroke="#bfbfbf" points="52.5,-191.5 52.5,-210.5 81.5,-210.5 81.5,-191.5 52.5,-191.5"/>
<text text-anchor="middle" x="67" y="-198.5" font-family="Helvetica,sans-Serif" font-size="10.00">T</text>
</g>
<!-- Node4&#45;&gt;Node3 -->
<g id="edge3" class="edge"><title>Node4&#45;&gt;Node3</title>
<path fill="none" stroke="#9a32cd" stroke-dasharray="5,2" d="M67,-181.037C67,-168.67 67,-153.12 67,-143.627"/>
<polygon fill="#9a32cd" stroke="#9a32cd" points="63.5001,-181.234 67,-191.234 70.5001,-181.234 63.5001,-181.234"/>
<text text-anchor="middle" x="88.5" y="-165" font-family="Helvetica,sans-Serif" font-size="10.00"> elements</text>
</g>
<!-- Node5 -->
<g id="node5" class="node"><title>Node5</title>
<g id="a_node5"><a xlink:href="classMezzanine_1_1Audio_1_1iSound.html" target="_top" xlink:title="This is an interface class for a non&#45;spacialized sound. ">
<polygon fill="white" stroke="black" points="151.5,-67.5 151.5,-86.5 282.5,-86.5 282.5,-67.5 151.5,-67.5"/>
<text text-anchor="middle" x="217" y="-74.5" font-family="Helvetica,sans-Serif" font-size="10.00">Mezzanine::Audio::iSound</text>
</a>
</g>
</g>
<!-- Node5&#45;&gt;Node1 -->
<g id="edge4" class="edge"><title>Node5&#45;&gt;Node1</title>
<path fill="none" stroke="#9a32cd" stroke-dasharray="5,2" d="M205.446,-58.5347C197.121,-45.9499 186.243,-29.5072 179.707,-19.6273"/>
<polygon fill="#9a32cd" stroke="#9a32cd" points="202.764,-60.8247 211.201,-67.2338 208.603,-56.9625 202.764,-60.8247"/>
<text text-anchor="middle" x="221.5" y="-41" font-family="Helvetica,sans-Serif" font-size="10.00"> CurrTrack</text>
</g>
</g>
</svg>
