<?xml version="1.0" encoding="UTF-8" standalone="no"?>
<!DOCTYPE svg PUBLIC "-//W3C//DTD SVG 1.1//EN"
 "http://www.w3.org/Graphics/SVG/1.1/DTD/svg11.dtd">
<!-- Generated by graphviz version 2.38.0 (20140413.2041)
 -->
<!-- Title: Mezzanine::ObjectSettingSet Pages: 1 -->
<svg width="325pt" height="397pt"
 viewBox="0.00 0.00 324.50 397.00" xmlns="http://www.w3.org/2000/svg" xmlns:xlink="http://www.w3.org/1999/xlink">
<g id="graph0" class="graph" transform="scale(1 1) rotate(0) translate(4 393)">
<title>Mezzanine::ObjectSettingSet</title>
<polygon fill="white" stroke="none" points="-4,4 -4,-393 320.5,-393 320.5,4 -4,4"/>
<!-- Node1 -->
<g id="node1" class="node"><title>Node1</title>
<polygon fill="#bfbfbf" stroke="black" points="135.5,-156.5 135.5,-175.5 279.5,-175.5 279.5,-156.5 135.5,-156.5"/>
<text text-anchor="middle" x="207.5" y="-163.5" font-family="Helvetica,sans-Serif" font-size="10.00">Mezzanine::ObjectSettingSet</text>
</g>
<!-- Node3 -->
<g id="node3" class="node"><title>Node3</title>
<polygon fill="white" stroke="#bfbfbf" points="60,-78.5 60,-108.5 191,-108.5 191,-78.5 60,-78.5"/>
<text text-anchor="start" x="68" y="-96.5" font-family="Helvetica,sans-Serif" font-size="10.00">std::vector&lt; ObjectSetting</text>
<text text-anchor="middle" x="125.5" y="-85.5" font-family="Helvetica,sans-Serif" font-size="10.00">Set * &gt;</text>
</g>
<!-- Node1&#45;&gt;Node3 -->
<g id="edge3" class="edge"><title>Node1&#45;&gt;Node3</title>
<path fill="none" stroke="#9a32cd" stroke-dasharray="5,2" d="M181.284,-151.227C174.859,-147.334 168.196,-142.829 162.5,-138 152.366,-129.409 142.704,-117.893 135.796,-108.868"/>
<polygon fill="#9a32cd" stroke="#9a32cd" points="179.974,-154.511 190.388,-156.46 183.462,-148.442 179.974,-154.511"/>
<text text-anchor="middle" x="184" y="-130" font-family="Helvetica,sans-Serif" font-size="10.00"> elements</text>
</g>
<!-- Node2 -->
<g id="node2" class="node"><title>Node2</title>
<g id="a_node2"><a xlink:href="classMezzanine_1_1ObjectSettingSetContainer.html" target="_top" xlink:title="A base class for other classes that store ObjectSettingSet&#39;s. ">
<polygon fill="white" stroke="black" points="117,-0.5 117,-30.5 246,-30.5 246,-0.5 117,-0.5"/>
<text text-anchor="start" x="125" y="-18.5" font-family="Helvetica,sans-Serif" font-size="10.00">Mezzanine::ObjectSetting</text>
<text text-anchor="middle" x="181.5" y="-7.5" font-family="Helvetica,sans-Serif" font-size="10.00">SetContainer</text>
</a>
</g>
</g>
<!-- Node2&#45;&gt;Node1 -->
<g id="edge1" class="edge"><title>Node2&#45;&gt;Node1</title>
<path fill="none" stroke="midnightblue" d="M198.174,-39.0725C199.91,-42.2786 201.428,-45.6335 202.5,-49 214.736,-87.4135 210.905,-136.607 208.643,-156.291"/>
<polygon fill="midnightblue" stroke="midnightblue" points="201.136,-37.207 192.897,-30.5451 195.183,-40.8904 201.136,-37.207"/>
</g>
<!-- Node2&#45;&gt;Node1 -->
<g id="edge6" class="edge"><title>Node2&#45;&gt;Node1</title>
<path fill="none" stroke="#9a32cd" stroke-dasharray="5,2" d="M209.088,-37.8371C212.294,-41.2802 215.225,-45.0295 217.5,-49 237.223,-83.4285 235.502,-99.8781 224.5,-138 222.595,-144.599 218.547,-151.14 214.879,-156.131"/>
<polygon fill="#9a32cd" stroke="#9a32cd" points="211.415,-35.2199 201.777,-30.8217 206.569,-40.2707 211.415,-35.2199"/>
<text text-anchor="middle" x="274.5" y="-91" font-family="Helvetica,sans-Serif" font-size="10.00"> ParentSetOrGroup</text>
</g>
<!-- Node3&#45;&gt;Node2 -->
<g id="edge2" class="edge"><title>Node3&#45;&gt;Node2</title>
<path fill="none" stroke="#9a32cd" stroke-dasharray="5,2" d="M142.123,-69.9408C151.485,-57.2348 162.892,-41.7536 171.014,-30.7309"/>
<polygon fill="#9a32cd" stroke="#9a32cd" points="139.147,-68.0782 136.033,-78.205 144.783,-72.2306 139.147,-68.0782"/>
<text text-anchor="middle" x="178" y="-52" font-family="Helvetica,sans-Serif" font-size="10.00"> SubSets</text>
</g>
<!-- Node4 -->
<g id="node4" class="node"><title>Node4</title>
<g id="a_node4"><a xlink:title="STL class. ">
<polygon fill="white" stroke="#bfbfbf" points="17.5,-301.5 17.5,-320.5 77.5,-320.5 77.5,-301.5 17.5,-301.5"/>
<text text-anchor="middle" x="47.5" y="-308.5" font-family="Helvetica,sans-Serif" font-size="10.00">std::string</text>
</a>
</g>
</g>
<!-- Node4&#45;&gt;Node2 -->
<g id="edge4" class="edge"><title>Node4&#45;&gt;Node2</title>
<path fill="none" stroke="#9a32cd" stroke-dasharray="5,2" d="M41.3655,-291.508C36.8522,-276.258 31.5,-253.964 31.5,-234 31.5,-234 31.5,-234 31.5,-92.5 31.5,-51.775 76.041,-32.8665 116.58,-24.0907"/>
<polygon fill="#9a32cd" stroke="#9a32cd" points="38.0834,-292.739 44.415,-301.234 44.7627,-290.645 38.0834,-292.739"/>
<text text-anchor="middle" x="67.5" y="-163.5" font-family="Helvetica,sans-Serif" font-size="10.00"> ContainerName</text>
</g>
<!-- Node6 -->
<g id="node6" class="node"><title>Node6</title>
<polygon fill="white" stroke="#bfbfbf" points="106.5,-223.5 106.5,-242.5 236.5,-242.5 236.5,-223.5 106.5,-223.5"/>
<text text-anchor="middle" x="171.5" y="-230.5" font-family="Helvetica,sans-Serif" font-size="10.00">std::map&lt; String, String &gt;</text>
</g>
<!-- Node4&#45;&gt;Node6 -->
<g id="edge8" class="edge"><title>Node4&#45;&gt;Node6</title>
<path fill="none" stroke="#9a32cd" stroke-dasharray="5,2" d="M70.3736,-295.981C95.8522,-280.365 136.238,-255.612 157.442,-242.616"/>
<polygon fill="#9a32cd" stroke="#9a32cd" points="68.4214,-293.072 61.7244,-301.282 72.0794,-299.04 68.4214,-293.072"/>
<text text-anchor="middle" x="144.5" y="-275" font-family="Helvetica,sans-Serif" font-size="10.00"> keys</text>
<text text-anchor="middle" x="144.5" y="-264" font-family="Helvetica,sans-Serif" font-size="10.00">elements</text>
</g>
<!-- Node5 -->
<g id="node5" class="node"><title>Node5</title>
<g id="a_node5"><a xlink:title="STL class. ">
<polygon fill="white" stroke="#bfbfbf" points="0,-358.5 0,-388.5 95,-388.5 95,-358.5 0,-358.5"/>
<text text-anchor="start" x="8" y="-376.5" font-family="Helvetica,sans-Serif" font-size="10.00">std::basic_string&lt;</text>
<text text-anchor="middle" x="47.5" y="-365.5" font-family="Helvetica,sans-Serif" font-size="10.00"> char &gt;</text>
</a>
</g>
</g>
<!-- Node5&#45;&gt;Node4 -->
<g id="edge5" class="edge"><title>Node5&#45;&gt;Node4</title>
<path fill="none" stroke="midnightblue" d="M47.5,-348.352C47.5,-338.513 47.5,-327.775 47.5,-320.54"/>
<polygon fill="midnightblue" stroke="midnightblue" points="44.0001,-348.468 47.5,-358.468 51.0001,-348.468 44.0001,-348.468"/>
</g>
<!-- Node6&#45;&gt;Node1 -->
<g id="edge7" class="edge"><title>Node6&#45;&gt;Node1</title>
<path fill="none" stroke="#9a32cd" stroke-dasharray="5,2" d="M181.379,-214.163C188.321,-201.628 197.303,-185.41 202.722,-175.627"/>
<polygon fill="#9a32cd" stroke="#9a32cd" points="178.138,-212.79 176.355,-223.234 184.262,-216.182 178.138,-212.79"/>
<text text-anchor="middle" x="211.5" y="-197" font-family="Helvetica,sans-Serif" font-size="10.00"> Settings</text>
</g>
</g>
</svg>
