<?xml version="1.0" encoding="UTF-8" standalone="no"?>
<!DOCTYPE svg PUBLIC "-//W3C//DTD SVG 1.1//EN"
 "http://www.w3.org/Graphics/SVG/1.1/DTD/svg11.dtd">
<!-- Generated by graphviz version 2.26.3 (20100126.1600)
 -->
<!-- Title: Mezzanine::Graphics::Skeleton Pages: 1 -->
<svg width="285pt" height="288pt"
 viewBox="0.00 0.00 285.00 288.00" xmlns="http://www.w3.org/2000/svg" xmlns:xlink="http://www.w3.org/1999/xlink">
<g id="graph1" class="graph" transform="scale(1 1) rotate(0) translate(4 284)">
<title>Mezzanine::Graphics::Skeleton</title>
<polygon fill="white" stroke="white" points="-4,5 -4,-284 282,-284 282,5 -4,5"/>
<!-- Node1 -->
<g id="node1" class="node"><title>Node1</title>
<polygon fill="#bfbfbf" stroke="black" points="158,-159 158,-193 274,-193 274,-159 158,-159"/>
<text text-anchor="start" x="166" y="-180" font-family="FreeSans" font-size="10.00">Mezzanine::Graphics</text>
<text text-anchor="middle" x="216" y="-167" font-family="FreeSans" font-size="10.00">::Skeleton</text>
</g>
<!-- Node3 -->
<g id="node4" class="node"><title>Node3</title>
<a xlink:href="classMezzanine_1_1Graphics_1_1Bone.html" target="_top" xlink:title="This class encapsulates the bones contained in a skeleton used for animation.">
<polygon fill="white" stroke="black" points="64,-73 64,-107 180,-107 180,-73 64,-73"/>
<text text-anchor="start" x="72" y="-94" font-family="FreeSans" font-size="10.00">Mezzanine::Graphics</text>
<text text-anchor="middle" x="122" y="-81" font-family="FreeSans" font-size="10.00">::Bone</text>
</a>
</g>
<!-- Node1&#45;&gt;Node3 -->
<g id="edge8" class="edge"><title>Node1&#45;&gt;Node3</title>
<path fill="none" stroke="#9a32cd" stroke-dasharray="5,2" d="M189.111,-151.895C184.72,-147.931 180.226,-143.858 176,-140 164.11,-129.146 150.843,-116.864 140.435,-107.189"/>
<polygon fill="#9a32cd" stroke="#9a32cd" points="187.052,-154.75 196.825,-158.842 191.737,-149.549 187.052,-154.75"/>
<text text-anchor="middle" x="189" y="-130.5" font-family="FreeSans" font-size="10.00"> Host</text>
</g>
<!-- Node2 -->
<g id="node2" class="node"><title>Node2</title>
<polygon fill="white" stroke="#bfbfbf" points="114.5,-0.5 114.5,-21.5 237.5,-21.5 237.5,-0.5 114.5,-0.5"/>
<text text-anchor="middle" x="176" y="-8.5" font-family="FreeSans" font-size="10.00">std::vector&lt; Bone * &gt;</text>
</g>
<!-- Node2&#45;&gt;Node1 -->
<g id="edge2" class="edge"><title>Node2&#45;&gt;Node1</title>
<path fill="none" stroke="#9a32cd" stroke-dasharray="5,2" d="M195.336,-29.2388C197.961,-32.5777 200.324,-36.2128 202,-40 219.582,-79.719 219.182,-132.148 217.523,-158.82"/>
<polygon fill="#9a32cd" stroke="#9a32cd" points="197.797,-26.7398 188.515,-21.6311 192.585,-31.413 197.797,-26.7398"/>
<text text-anchor="middle" x="234" y="-87.5" font-family="FreeSans" font-size="10.00"> Bones</text>
</g>
<!-- Node3&#45;&gt;Node2 -->
<g id="edge4" class="edge"><title>Node3&#45;&gt;Node2</title>
<path fill="none" stroke="#9a32cd" stroke-dasharray="5,2" d="M137.441,-63.8251C142.245,-56.0373 147.68,-47.5668 153,-40 157.435,-33.6918 162.766,-26.9254 167.178,-21.5166"/>
<polygon fill="#9a32cd" stroke="#9a32cd" points="134.337,-62.1945 132.137,-72.5586 140.32,-65.8281 134.337,-62.1945"/>
<text text-anchor="middle" x="177.5" y="-44.5" font-family="FreeSans" font-size="10.00"> elements</text>
</g>
<!-- Node4 -->
<g id="node6" class="node"><title>Node4</title>
<a xlink:href="classMezzanine_1_1TransformableChildObject.html" target="_top" xlink:title="This is an interface for all child 3D objects that can have their full transforms manipulated...">
<polygon fill="white" stroke="black" points="-0.5,-159 -0.5,-193 140.5,-193 140.5,-159 -0.5,-159"/>
<text text-anchor="start" x="7.5" y="-180" font-family="FreeSans" font-size="10.00">Mezzanine::Transformable</text>
<text text-anchor="middle" x="70" y="-167" font-family="FreeSans" font-size="10.00">ChildObject</text>
</a>
</g>
<!-- Node4&#45;&gt;Node3 -->
<g id="edge6" class="edge"><title>Node4&#45;&gt;Node3</title>
<path fill="none" stroke="midnightblue" d="M85.7556,-149.943C94.1612,-136.041 104.267,-119.327 111.67,-107.084"/>
<polygon fill="midnightblue" stroke="midnightblue" points="82.7022,-148.228 80.523,-158.597 88.6923,-151.85 82.7022,-148.228"/>
</g>
<!-- Node5 -->
<g id="node9" class="node"><title>Node5</title>
<a xlink:href="classMezzanine_1_1Graphics_1_1InternalSkeletonData.html" target="_top" xlink:title="This class is used to store the internal structures needed by the Skeleton class.">
<polygon fill="white" stroke="black" points="154.5,-245 154.5,-279 277.5,-279 277.5,-245 154.5,-245"/>
<text text-anchor="start" x="162.5" y="-266" font-family="FreeSans" font-size="10.00">Mezzanine::Graphics</text>
<text text-anchor="middle" x="216" y="-253" font-family="FreeSans" font-size="10.00">::InternalSkeletonData</text>
</a>
</g>
<!-- Node5&#45;&gt;Node1 -->
<g id="edge10" class="edge"><title>Node5&#45;&gt;Node1</title>
<path fill="none" stroke="#9a32cd" stroke-dasharray="5,2" d="M216,-234.342C216,-220.774 216,-204.861 216,-193.084"/>
<polygon fill="#9a32cd" stroke="#9a32cd" points="212.5,-234.597 216,-244.597 219.5,-234.597 212.5,-234.597"/>
<text text-anchor="middle" x="226" y="-216.5" font-family="FreeSans" font-size="10.00"> ISD</text>
</g>
</g>
</svg>
