<?xml version="1.0" encoding="UTF-8" standalone="no"?>
<!DOCTYPE svg PUBLIC "-//W3C//DTD SVG 1.1//EN"
 "http://www.w3.org/Graphics/SVG/1.1/DTD/svg11.dtd">
<!-- Generated by graphviz version 2.26.3 (20100126.1600)
 -->
<!-- Title: Mezzanine::UI::ImageLayer Pages: 1 -->
<svg width="300pt" height="276pt"
 viewBox="0.00 0.00 300.00 276.00" xmlns="http://www.w3.org/2000/svg" xmlns:xlink="http://www.w3.org/1999/xlink">
<g id="graph1" class="graph" transform="scale(1 1) rotate(0) translate(4 272)">
<title>Mezzanine::UI::ImageLayer</title>
<polygon fill="white" stroke="white" points="-4,5 -4,-272 297,-272 297,5 -4,5"/>
<!-- Node1 -->
<g id="node1" class="node"><title>Node1</title>
<polygon fill="#bfbfbf" stroke="black" points="75.5,-72.5 75.5,-93.5 212.5,-93.5 212.5,-72.5 75.5,-72.5"/>
<text text-anchor="middle" x="144" y="-80.5" font-family="Helvetica,sans-Serif" font-size="10.00">Mezzanine::UI::ImageLayer</text>
</g>
<!-- Node5 -->
<g id="node9" class="node"><title>Node5</title>
<a xlink:href="classMezzanine_1_1UI_1_1MultiImageLayer.html" target="_top" xlink:title="This is an image layer that supports rendering of multiple images within it&#39;s space. ">
<polygon fill="white" stroke="black" points="0,-1 0,-35 134,-35 134,-1 0,-1"/>
<text text-anchor="start" x="8" y="-22" font-family="Helvetica,sans-Serif" font-size="10.00">Mezzanine::UI::MultiImage</text>
<text text-anchor="middle" x="67" y="-9" font-family="Helvetica,sans-Serif" font-size="10.00">Layer</text>
</a>
</g>
<!-- Node1&#45;&gt;Node5 -->
<g id="edge8" class="edge"><title>Node1&#45;&gt;Node5</title>
<path fill="none" stroke="midnightblue" d="M123.323,-65.545C112.141,-56.1062 98.3863,-44.4949 87.2686,-35.1099"/>
<polygon fill="midnightblue" stroke="midnightblue" points="121.386,-68.4905 131.285,-72.2666 125.901,-63.1415 121.386,-68.4905"/>
</g>
<!-- Node6 -->
<g id="node11" class="node"><title>Node6</title>
<a xlink:href="classMezzanine_1_1UI_1_1SingleImageLayer.html" target="_top" xlink:title="This is an image layer that supports rendering only a single image/sprite. ">
<polygon fill="white" stroke="black" points="152,-1 152,-35 292,-35 292,-1 152,-1"/>
<text text-anchor="start" x="160" y="-22" font-family="Helvetica,sans-Serif" font-size="10.00">Mezzanine::UI::SingleImage</text>
<text text-anchor="middle" x="222" y="-9" font-family="Helvetica,sans-Serif" font-size="10.00">Layer</text>
</a>
</g>
<!-- Node1&#45;&gt;Node6 -->
<g id="edge10" class="edge"><title>Node1&#45;&gt;Node6</title>
<path fill="none" stroke="midnightblue" d="M164.614,-65.8219C175.999,-56.334 190.096,-44.5869 201.468,-35.1099"/>
<polygon fill="midnightblue" stroke="midnightblue" points="162.322,-63.1759 156.88,-72.2666 166.803,-68.5535 162.322,-63.1759"/>
</g>
<!-- Node2 -->
<g id="node2" class="node"><title>Node2</title>
<a xlink:href="classMezzanine_1_1UI_1_1RenderLayer.html" target="_top" xlink:title="This is the base class for the types of layers that can be added to a renderable. ...">
<polygon fill="white" stroke="black" points="73,-130.5 73,-151.5 215,-151.5 215,-130.5 73,-130.5"/>
<text text-anchor="middle" x="144" y="-138.5" font-family="Helvetica,sans-Serif" font-size="10.00">Mezzanine::UI::RenderLayer</text>
</a>
</g>
<!-- Node2&#45;&gt;Node1 -->
<g id="edge2" class="edge"><title>Node2&#45;&gt;Node1</title>
<path fill="none" stroke="midnightblue" d="M144,-120.191C144,-111.168 144,-100.994 144,-93.5707"/>
<polygon fill="midnightblue" stroke="midnightblue" points="140.5,-120.362 144,-130.362 147.5,-120.362 140.5,-120.362"/>
</g>
<!-- Node3 -->
<g id="node4" class="node"><title>Node3</title>
<a xlink:href="classMezzanine_1_1UI_1_1QuadRenderer.html" target="_top" xlink:title="Mezzanine::UI::QuadRenderer">
<polygon fill="white" stroke="black" points="69.5,-188.5 69.5,-209.5 218.5,-209.5 218.5,-188.5 69.5,-188.5"/>
<text text-anchor="middle" x="144" y="-196.5" font-family="Helvetica,sans-Serif" font-size="10.00">Mezzanine::UI::QuadRenderer</text>
</a>
</g>
<!-- Node3&#45;&gt;Node2 -->
<g id="edge4" class="edge"><title>Node3&#45;&gt;Node2</title>
<path fill="none" stroke="midnightblue" d="M144,-178.191C144,-169.168 144,-158.994 144,-151.571"/>
<polygon fill="midnightblue" stroke="midnightblue" points="140.5,-178.362 144,-188.362 147.5,-178.362 140.5,-178.362"/>
</g>
<!-- Node4 -->
<g id="node6" class="node"><title>Node4</title>
<a xlink:href="classMezzanine_1_1UI_1_1SimpleRenderer.html" target="_top" xlink:title="A simple class providing basic methods to generate vertices with. ">
<polygon fill="white" stroke="black" points="66,-246.5 66,-267.5 222,-267.5 222,-246.5 66,-246.5"/>
<text text-anchor="middle" x="144" y="-254.5" font-family="Helvetica,sans-Serif" font-size="10.00">Mezzanine::UI::SimpleRenderer</text>
</a>
</g>
<!-- Node4&#45;&gt;Node3 -->
<g id="edge6" class="edge"><title>Node4&#45;&gt;Node3</title>
<path fill="none" stroke="midnightblue" d="M144,-236.191C144,-227.168 144,-216.994 144,-209.571"/>
<polygon fill="midnightblue" stroke="midnightblue" points="140.5,-236.362 144,-246.362 147.5,-236.362 140.5,-236.362"/>
</g>
</g>
</svg>
