<?xml version="1.0" encoding="UTF-8" standalone="no"?>
<!DOCTYPE svg PUBLIC "-//W3C//DTD SVG 1.1//EN"
 "http://www.w3.org/Graphics/SVG/1.1/DTD/svg11.dtd">
<!-- Generated by graphviz version 2.26.3 (20100126.1600)
 -->
<!-- Title: Mezzanine::Physics::SimulationWorkUnit Pages: 1 -->
<!--zoomable 708 -->
<svg id="main" version="1.1" xmlns="http://www.w3.org/2000/svg" xmlns:xlink="http://www.w3.org/1999/xlink" xml:space="preserve" onload="init(evt)">
<style type="text/css"><![CDATA[
.edge:hover path { stroke: red; }
.edge:hover polygon { stroke: red; fill: red; }
]]></style>
<script type="text/javascript"><![CDATA[
var edges = document.getElementsByTagName('g');
if (edges && edges.length) {
  for (var i=0;i<edges.length;i++) {
    if (edges[i].id.substr(0,4)=='edge') {
      edges[i].setAttribute('class','edge');
    }
  }
}
]]></script>
        <defs>
                <circle id="rim" cx="0" cy="0" r="7"/>
                <circle id="rim2" cx="0" cy="0" r="3.5"/>
                <g id="zoomPlus">
                        <use xlink:href="#rim" fill="#404040">
                                <set attributeName="fill" to="#808080" begin="zoomplus.mouseover" end="zoomplus.mouseout"/>
                        </use>
                        <path d="M-4,0h8M0,-4v8" fill="none" stroke="white" stroke-width="1.5" pointer-events="none"/>
                </g>
                <g id="zoomMin">
                        <use xlink:href="#rim" fill="#404040">
                                <set attributeName="fill" to="#808080" begin="zoomminus.mouseover" end="zoomminus.mouseout"/>
                        </use>
                        <path d="M-4,0h8" fill="none" stroke="white" stroke-width="1.5" pointer-events="none"/>
                </g>
                <g id="dirArrow">
                        <path fill="none" stroke="white" stroke-width="1.5" d="M0,-3.0v7 M-2.5,-0.5L0,-3.0L2.5,-0.5"/>
                </g>
               <g id="resetDef">
                       <use xlink:href="#rim2" fill="#404040">
                               <set attributeName="fill" to="#808080" begin="reset.mouseover" end="reset.mouseout"/>
                       </use>
               </g>
        </defs>

<script type="text/javascript">
var viewWidth = 2260;
var viewHeight = 708;
var sectionId = 'dynsection-1';
</script>
<script xlink:href="svgpan.js"/>
<svg id="graph" class="graph">
<g id="viewport">
<title>Mezzanine::Physics::SimulationWorkUnit</title>
<polygon fill="white" stroke="white" points="-4,5 -4,-704.387 2257,-704.387 2257,5 -4,5"/>
<!-- Node1 -->
<g id="node1" class="node"><title>Node1</title>
<polygon fill="#bfbfbf" stroke="black" points="1189.5,-596 1189.5,-628 1296.5,-628 1296.5,-596 1189.5,-596"/>
<text text-anchor="start" x="1197.5" y="-615" font-family="FreeSans" font-size="10.00">Mezzanine::Physics</text>
<text text-anchor="middle" x="1243" y="-603" font-family="FreeSans" font-size="10.00">::SimulationWorkUnit</text>
</g>
<!-- Node2 -->
<g id="node2" class="node"><title>Node2</title>
<a xlink:href="classMezzanine_1_1Threading_1_1DefaultWorkUnit.html" target="_top" xlink:title="Default implementation of WorkUnit. This represents on piece of work through time. ">
<polygon fill="white" stroke="black" points="618,-560 618,-592 728,-592 728,-560 618,-560"/>
<text text-anchor="start" x="626" y="-579" font-family="FreeSans" font-size="10.00">Mezzanine::Threading</text>
<text text-anchor="middle" x="673" y="-567" font-family="FreeSans" font-size="10.00">::DefaultWorkUnit</text>
</a>
</g>
<!-- Node2&#45;&gt;Node1 -->
<g id="edge2" class="edge"><title>Node2&#45;&gt;Node1</title>
<path fill="none" stroke="midnightblue" d="M736.607,-594.688C828.396,-619.251 1003.31,-657.053 1152,-637 1165.8,-635.139 1180.47,-631.757 1193.91,-628.07"/>
<polygon fill="midnightblue" stroke="midnightblue" points="737.478,-591.298 726.91,-592.059 735.646,-598.054 737.478,-591.298"/>
</g>
<!-- Node6 -->
<g id="node11" class="node"><title>Node6</title>
<a xlink:href="classMezzanine_1_1Physics_1_1PhysicsManager.html" target="_top" xlink:title="This is simply a place for storing all the Physics Related functions. ">
<polygon fill="white" stroke="black" points="899,-453 899,-485 999,-485 999,-453 899,-453"/>
<text text-anchor="start" x="907" y="-472" font-family="FreeSans" font-size="10.00">Mezzanine::Physics</text>
<text text-anchor="middle" x="949" y="-460" font-family="FreeSans" font-size="10.00">::PhysicsManager</text>
</a>
</g>
<!-- Node2&#45;&gt;Node6 -->
<g id="edge32" class="edge"><title>Node2&#45;&gt;Node6</title>
<path fill="none" stroke="#9a32cd" stroke-dasharray="5,2" d="M707.947,-554.89C723.465,-546.216 742.212,-536.664 760,-530 801.896,-514.305 815.435,-520.778 858,-507 876.895,-500.884 897.351,-492.508 914.073,-485.177"/>
<polygon fill="#9a32cd" stroke="#9a32cd" points="706.17,-551.875 699.215,-559.868 709.636,-557.956 706.17,-551.875"/>
<text text-anchor="middle" x="809" y="-533" font-family="FreeSans" font-size="10.00"> SimulationWork</text>
</g>
<!-- Node33 -->
<g id="node76" class="node"><title>Node33</title>
<a xlink:href="classMezzanine_1_1Physics_1_1DebugDrawWorkUnit.html" target="_top" xlink:title="This is a Mezzanine::Threading::iWorkUnit for the updating of the physics debug drawer. ">
<polygon fill="white" stroke="black" points="1188,-471 1188,-503 1298,-503 1298,-471 1188,-471"/>
<text text-anchor="start" x="1196" y="-490" font-family="FreeSans" font-size="10.00">Mezzanine::Physics</text>
<text text-anchor="middle" x="1243" y="-478" font-family="FreeSans" font-size="10.00">::DebugDrawWorkUnit</text>
</a>
</g>
<!-- Node2&#45;&gt;Node33 -->
<g id="edge90" class="edge"><title>Node2&#45;&gt;Node33</title>
<path fill="none" stroke="midnightblue" d="M738.039,-566.568C830.238,-553.089 1004.18,-527.256 1152,-503 1163.56,-501.104 1175.92,-498.988 1187.69,-496.932"/>
<polygon fill="midnightblue" stroke="midnightblue" points="737.41,-563.123 728.02,-568.031 738.421,-570.05 737.41,-563.123"/>
</g>
<!-- Node34 -->
<g id="node80" class="node"><title>Node34</title>
<a xlink:href="classMezzanine_1_1Physics_1_1WorldTriggerUpdateWorkUnit.html" target="_top" xlink:title="This is a Mezzanine::Threading::iWorkUnit for the updating of WorldTriggers. ">
<polygon fill="white" stroke="black" points="1170,-668 1170,-700 1316,-700 1316,-668 1170,-668"/>
<text text-anchor="start" x="1178" y="-687" font-family="FreeSans" font-size="10.00">Mezzanine::Physics</text>
<text text-anchor="middle" x="1243" y="-675" font-family="FreeSans" font-size="10.00">::WorldTriggerUpdateWorkUnit</text>
</a>
</g>
<!-- Node2&#45;&gt;Node34 -->
<g id="edge96" class="edge"><title>Node2&#45;&gt;Node34</title>
<path fill="none" stroke="midnightblue" d="M706.468,-597.569C722.23,-607.008 741.581,-617.594 760,-625 879.216,-672.936 912.523,-680.872 1040,-697 1082.92,-702.43 1131.25,-699.686 1169.98,-695.349"/>
<polygon fill="midnightblue" stroke="midnightblue" points="707.995,-594.401 697.636,-592.177 704.347,-600.375 707.995,-594.401"/>
</g>
<!-- Node3 -->
<g id="node4" class="node"><title>Node3</title>
<a xlink:href="classMezzanine_1_1Threading_1_1iWorkUnit.html" target="_top" xlink:title="Interface of a WorkUnit. This represents on piece of work through time. ">
<polygon fill="white" stroke="black" points="130,-586 130,-618 240,-618 240,-586 130,-586"/>
<text text-anchor="start" x="138" y="-605" font-family="FreeSans" font-size="10.00">Mezzanine::Threading</text>
<text text-anchor="middle" x="185" y="-593" font-family="FreeSans" font-size="10.00">::iWorkUnit</text>
</a>
</g>
<!-- Node3&#45;&gt;Node2 -->
<g id="edge4" class="edge"><title>Node3&#45;&gt;Node2</title>
<path fill="none" stroke="midnightblue" d="M250.386,-605.758C252.957,-605.85 255.502,-605.932 258,-606 403.856,-609.993 441.257,-610.422 586,-592 596.36,-590.682 607.354,-588.935 617.915,-587.08"/>
<polygon fill="midnightblue" stroke="midnightblue" points="250.523,-602.261 240.39,-605.354 250.241,-609.255 250.523,-602.261"/>
</g>
<!-- Node4 -->
<g id="node6" class="node"><title>Node4</title>
<polygon fill="white" stroke="#bfbfbf" points="333.5,-560 333.5,-592 458.5,-592 458.5,-560 333.5,-560"/>
<text text-anchor="start" x="341.5" y="-579" font-family="FreeSans" font-size="10.00">std::vector&lt; Mezzanine</text>
<text text-anchor="middle" x="396" y="-567" font-family="FreeSans" font-size="10.00">::Threading::iWorkUnit * &gt;</text>
</g>
<!-- Node3&#45;&gt;Node4 -->
<g id="edge8" class="edge"><title>Node3&#45;&gt;Node4</title>
<path fill="none" stroke="#9a32cd" stroke-dasharray="5,2" d="M250.103,-593.978C276.596,-590.713 307.093,-586.955 333.332,-583.722"/>
<polygon fill="#9a32cd" stroke="#9a32cd" points="249.659,-590.506 240.162,-595.203 250.515,-597.453 249.659,-590.506"/>
<text text-anchor="middle" x="286" y="-595" font-family="FreeSans" font-size="10.00"> elements</text>
</g>
<!-- Node4&#45;&gt;Node2 -->
<g id="edge6" class="edge"><title>Node4&#45;&gt;Node2</title>
<path fill="none" stroke="#9a32cd" stroke-dasharray="5,2" d="M468.561,-576C515.232,-576 574.933,-576 617.753,-576"/>
<polygon fill="#9a32cd" stroke="#9a32cd" points="468.51,-572.5 458.51,-576 468.51,-579.5 468.51,-572.5"/>
<text text-anchor="middle" x="532" y="-579" font-family="FreeSans" font-size="10.00"> Dependencies</text>
</g>
<!-- Node5 -->
<g id="node9" class="node"><title>Node5</title>
<a xlink:href="structMezzanine_1_1DefaultRollingAverage.html" target="_top" xlink:title="Mezzanine::DefaultRolling\lAverage\&lt; Whole \&gt;">
<polygon fill="white" stroke="black" points="332.5,-510 332.5,-542 459.5,-542 459.5,-510 332.5,-510"/>
<text text-anchor="start" x="340.5" y="-529" font-family="FreeSans" font-size="10.00">Mezzanine::DefaultRolling</text>
<text text-anchor="middle" x="396" y="-517" font-family="FreeSans" font-size="10.00">Average&lt; Whole &gt;</text>
</a>
</g>
<!-- Node5&#45;&gt;Node2 -->
<g id="edge10" class="edge"><title>Node5&#45;&gt;Node2</title>
<path fill="none" stroke="#9a32cd" stroke-dasharray="5,2" d="M469.963,-539.15C505.123,-545.424 547.738,-553.058 586,-560 596.275,-561.864 607.23,-563.867 617.779,-565.803"/>
<polygon fill="#9a32cd" stroke="#9a32cd" points="470.24,-535.645 459.781,-537.335 469.011,-542.536 470.24,-535.645"/>
<text text-anchor="middle" x="532" y="-563" font-family="FreeSans" font-size="10.00"> PerformanceLog</text>
</g>
<!-- Node6&#45;&gt;Node1 -->
<g id="edge12" class="edge"><title>Node6&#45;&gt;Node1</title>
<path fill="none" stroke="#9a32cd" stroke-dasharray="5,2" d="M971.786,-492.266C989.17,-508.902 1014.41,-530.778 1040,-545 1087.52,-571.414 1147.13,-589.538 1189.44,-600.21"/>
<polygon fill="#9a32cd" stroke="#9a32cd" points="973.98,-489.517 964.379,-485.037 969.091,-494.526 973.98,-489.517"/>
<text text-anchor="middle" x="1096" y="-591" font-family="FreeSans" font-size="10.00"> TargetManager</text>
</g>
<!-- Node17 -->
<g id="node36" class="node"><title>Node17</title>
<a xlink:href="classMezzanine_1_1Physics_1_1CollidableProxy.html" target="_top" xlink:title="This is a proxy from which physics objects that can collide with each other are handled. ">
<polygon fill="white" stroke="black" points="1193,-355 1193,-387 1293,-387 1293,-355 1193,-355"/>
<text text-anchor="start" x="1201" y="-374" font-family="FreeSans" font-size="10.00">Mezzanine::Physics</text>
<text text-anchor="middle" x="1243" y="-362" font-family="FreeSans" font-size="10.00">::CollidableProxy</text>
</a>
</g>
<!-- Node6&#45;&gt;Node17 -->
<g id="edge66" class="edge"><title>Node6&#45;&gt;Node17</title>
<path fill="none" stroke="#9a32cd" stroke-dasharray="5,2" d="M977.155,-446.667C994.38,-434.078 1017.39,-419.097 1040,-410 1089.77,-389.974 1150.64,-380.038 1192.68,-375.236"/>
<polygon fill="#9a32cd" stroke="#9a32cd" points="974.617,-444.195 968.707,-452.989 978.811,-449.799 974.617,-444.195"/>
<text text-anchor="middle" x="1096" y="-413" font-family="FreeSans" font-size="10.00"> Manager</text>
</g>
<!-- Node6&#45;&gt;Node33 -->
<g id="edge92" class="edge"><title>Node6&#45;&gt;Node33</title>
<path fill="none" stroke="#9a32cd" stroke-dasharray="5,2" d="M1009.46,-478.648C1019.63,-479.981 1030.1,-481.174 1040,-482 1089.89,-486.163 1146.89,-487.246 1187.76,-487.385"/>
<polygon fill="#9a32cd" stroke="#9a32cd" points="1009.8,-475.162 999.421,-477.277 1008.86,-482.098 1009.8,-475.162"/>
<text text-anchor="middle" x="1096" y="-490" font-family="FreeSans" font-size="10.00"> TargetManager</text>
</g>
<!-- Node6&#45;&gt;Node34 -->
<g id="edge98" class="edge"><title>Node6&#45;&gt;Node34</title>
<path fill="none" stroke="#9a32cd" stroke-dasharray="5,2" d="M953.015,-494.963C961.109,-537.638 983.679,-621.87 1040,-662 1060.43,-676.554 1120.29,-681.74 1169.76,-683.468"/>
<polygon fill="#9a32cd" stroke="#9a32cd" points="956.451,-494.295 951.257,-485.061 949.559,-495.519 956.451,-494.295"/>
<text text-anchor="middle" x="1096" y="-685" font-family="FreeSans" font-size="10.00"> TargetManager</text>
</g>
<!-- Node7 -->
<g id="node13" class="node"><title>Node7</title>
<a xlink:href="classMezzanine_1_1WorldManager.html" target="_top" xlink:title="This is the base class for all managers that belong to a single world instance. ">
<polygon fill="white" stroke="black" points="608.5,-89 608.5,-109 737.5,-109 737.5,-89 608.5,-89"/>
<text text-anchor="middle" x="673" y="-96" font-family="FreeSans" font-size="10.00">Mezzanine::WorldManager</text>
</a>
</g>
<!-- Node7&#45;&gt;Node6 -->
<g id="edge14" class="edge"><title>Node7&#45;&gt;Node6</title>
<path fill="none" stroke="midnightblue" d="M692.906,-116.317C729.047,-148.474 806.471,-220.733 858,-293 896.743,-347.335 929.025,-420.392 942.39,-452.592"/>
<polygon fill="midnightblue" stroke="midnightblue" points="694.858,-113.372 685.045,-109.377 690.225,-118.619 694.858,-113.372"/>
</g>
<!-- Node12 -->
<g id="node24" class="node"><title>Node12</title>
<polygon fill="white" stroke="#bfbfbf" points="876.5,-53 876.5,-73 1021.5,-73 1021.5,-53 876.5,-53"/>
<text text-anchor="middle" x="949" y="-60" font-family="FreeSans" font-size="10.00">std::vector&lt; WorldManager * &gt;</text>
</g>
<!-- Node7&#45;&gt;Node12 -->
<g id="edge28" class="edge"><title>Node7&#45;&gt;Node12</title>
<path fill="none" stroke="#9a32cd" stroke-dasharray="5,2" d="M747.674,-89.2599C787.68,-84.0418 836.752,-77.6411 876.432,-72.4654"/>
<polygon fill="#9a32cd" stroke="#9a32cd" points="747.173,-85.7955 737.71,-90.5596 748.078,-92.7367 747.173,-85.7955"/>
<text text-anchor="middle" x="809" y="-91" font-family="FreeSans" font-size="10.00"> elements</text>
</g>
<!-- Node8 -->
<g id="node15" class="node"><title>Node8</title>
<a xlink:href="classMezzanine_1_1ManagerBase.html" target="_top" xlink:title="This is the base class from which all the Entresol and World Managers inherit. ">
<polygon fill="white" stroke="black" points="333,-94 333,-114 459,-114 459,-94 333,-94"/>
<text text-anchor="middle" x="396" y="-101" font-family="FreeSans" font-size="10.00">Mezzanine::ManagerBase</text>
</a>
</g>
<!-- Node8&#45;&gt;Node7 -->
<g id="edge16" class="edge"><title>Node8&#45;&gt;Node7</title>
<path fill="none" stroke="midnightblue" d="M469.356,-102.676C512.501,-101.897 566.568,-100.921 608.147,-100.171"/>
<polygon fill="midnightblue" stroke="midnightblue" points="469.137,-99.1792 459.202,-102.859 469.264,-106.178 469.137,-99.1792"/>
</g>
<!-- Node9 -->
<g id="node17" class="node"><title>Node9</title>
<a xlink:href="classMezzanine_1_1Entresol.html" target="_top" xlink:title="This is the main entry point for the entire library. ">
<polygon fill="white" stroke="black" points="134.5,-61 134.5,-81 235.5,-81 235.5,-61 134.5,-61"/>
<text text-anchor="middle" x="185" y="-68" font-family="FreeSans" font-size="10.00">Mezzanine::Entresol</text>
</a>
</g>
<!-- Node9&#45;&gt;Node8 -->
<g id="edge18" class="edge"><title>Node9&#45;&gt;Node8</title>
<path fill="none" stroke="#9a32cd" stroke-dasharray="5,2" d="M245.721,-80.4967C272.963,-84.7573 305.097,-89.7829 332.643,-94.091"/>
<polygon fill="#9a32cd" stroke="#9a32cd" points="245.961,-76.9916 235.54,-78.9043 244.879,-83.9076 245.961,-76.9916"/>
<text text-anchor="middle" x="286" y="-94" font-family="FreeSans" font-size="10.00"> TheEntresol</text>
</g>
<!-- Node10 -->
<g id="node19" class="node"><title>Node10</title>
<a xlink:href="classMezzanine_1_1Singleton.html" target="_top" xlink:title="Mezzanine::Singleton\l\&lt; Entresol \&gt;">
<polygon fill="white" stroke="black" points="342.5,-44 342.5,-76 449.5,-76 449.5,-44 342.5,-44"/>
<text text-anchor="start" x="350.5" y="-63" font-family="FreeSans" font-size="10.00">Mezzanine::Singleton</text>
<text text-anchor="middle" x="396" y="-51" font-family="FreeSans" font-size="10.00">&lt; Entresol &gt;</text>
</a>
</g>
<!-- Node9&#45;&gt;Node10 -->
<g id="edge22" class="edge"><title>Node9&#45;&gt;Node10</title>
<path fill="none" stroke="#9a32cd" stroke-dasharray="5,2" d="M221.356,-57.7624C232.91,-54.1759 245.846,-50.7916 258,-49 285.701,-44.9166 316.769,-46.8278 342.402,-50.1232"/>
<polygon fill="#9a32cd" stroke="#9a32cd" points="220.04,-54.5099 211.613,-60.9314 222.205,-61.1667 220.04,-54.5099"/>
<text text-anchor="middle" x="286" y="-52" font-family="FreeSans" font-size="10.00"> SingletonPtr</text>
</g>
<!-- Node10&#45;&gt;Node9 -->
<g id="edge20" class="edge"><title>Node10&#45;&gt;Node9</title>
<path fill="none" stroke="midnightblue" d="M331.935,-63.3399C301.018,-64.9517 264.457,-66.8577 235.54,-68.3652"/>
<polygon fill="midnightblue" stroke="midnightblue" points="332.38,-66.8215 342.184,-62.8056 332.016,-59.831 332.38,-66.8215"/>
</g>
<!-- Node11 -->
<g id="node22" class="node"><title>Node11</title>
<a xlink:href="classMezzanine_1_1World.html" target="_top" xlink:title="This class represents a world for objects to interact within. ">
<polygon fill="white" stroke="black" points="350,-6 350,-26 442,-26 442,-6 350,-6"/>
<text text-anchor="middle" x="396" y="-13" font-family="FreeSans" font-size="10.00">Mezzanine::World</text>
</a>
</g>
<!-- Node11&#45;&gt;Node7 -->
<g id="edge24" class="edge"><title>Node11&#45;&gt;Node7</title>
<path fill="none" stroke="#9a32cd" stroke-dasharray="5,2" d="M451.44,-30.0916C454.421,-31.5718 457.298,-33.203 460,-35 470.52,-41.9954 467.22,-50.4117 478,-57 489.893,-64.269 563.954,-79.007 617.283,-88.9442"/>
<polygon fill="#9a32cd" stroke="#9a32cd" points="452.822,-26.8759 442.256,-26.0894 450.025,-33.293 452.822,-26.8759"/>
<text text-anchor="middle" x="532" y="-86" font-family="FreeSans" font-size="10.00"> ParentWorld</text>
</g>
<!-- Node20 -->
<g id="node42" class="node"><title>Node20</title>
<a xlink:href="classMezzanine_1_1WorldObject.html" target="_top" xlink:title="This is the base class from which classes that are insertable into the physical world. ">
<polygon fill="white" stroke="black" points="1917,-260 1917,-280 2037,-280 2037,-260 1917,-260"/>
<text text-anchor="middle" x="1977" y="-267" font-family="FreeSans" font-size="10.00">Mezzanine::WorldObject</text>
</a>
</g>
<!-- Node11&#45;&gt;Node20 -->
<g id="edge50" class="edge"><title>Node11&#45;&gt;Node20</title>
<path fill="none" stroke="#9a32cd" stroke-dasharray="5,2" d="M452.078,-10.858C507.995,-6.1797 596.362,-0 673,-0 673,-0 673,-0 1738,-0 1879.48,-0 1957.43,-210.427 1973.75,-259.745"/>
<polygon fill="#9a32cd" stroke="#9a32cd" points="451.692,-7.3781 442.025,-11.7123 452.285,-14.353 451.692,-7.3781"/>
<text text-anchor="middle" x="1243" y="-3" font-family="FreeSans" font-size="10.00"> ParentWorld</text>
</g>
<!-- Node12&#45;&gt;Node11 -->
<g id="edge26" class="edge"><title>Node12&#45;&gt;Node11</title>
<path fill="none" stroke="#9a32cd" stroke-dasharray="5,2" d="M866.236,-55.9658C748.248,-45.9379 535.65,-27.869 442.197,-19.9264"/>
<polygon fill="#9a32cd" stroke="#9a32cd" points="866.046,-59.4622 876.306,-56.8217 866.639,-52.4873 866.046,-59.4622"/>
<text text-anchor="middle" x="673" y="-48" font-family="FreeSans" font-size="10.00"> WorldManagers</text>
</g>
<!-- Node13 -->
<g id="node27" class="node"><title>Node13</title>
<a xlink:href="classMezzanine_1_1Threading_1_1ThreadSpecificStorage.html" target="_top" xlink:title="A thread specific collection of double&#45;buffered and algorithm specific resources. ...">
<polygon fill="white" stroke="black" points="613.5,-443 613.5,-475 732.5,-475 732.5,-443 613.5,-443"/>
<text text-anchor="start" x="621.5" y="-462" font-family="FreeSans" font-size="10.00">Mezzanine::Threading</text>
<text text-anchor="middle" x="673" y="-450" font-family="FreeSans" font-size="10.00">::ThreadSpecificStorage</text>
</a>
</g>
<!-- Node13&#45;&gt;Node6 -->
<g id="edge30" class="edge"><title>Node13&#45;&gt;Node6</title>
<path fill="none" stroke="#9a32cd" stroke-dasharray="5,2" d="M742.642,-457.845C777.333,-457.659 819.903,-458.017 858,-460 871.318,-460.693 885.693,-461.9 898.998,-463.21"/>
<polygon fill="#9a32cd" stroke="#9a32cd" points="742.587,-454.345 732.611,-457.915 742.635,-461.345 742.587,-454.345"/>
<text text-anchor="middle" x="809" y="-463" font-family="FreeSans" font-size="10.00"> ThreadResources</text>
</g>
<!-- Node14 -->
<g id="node30" class="node"><title>Node14</title>
<polygon fill="white" stroke="#bfbfbf" points="1914,-498 1914,-518 2040,-518 2040,-498 1914,-498"/>
<text text-anchor="middle" x="1977" y="-505" font-family="FreeSans" font-size="10.00">std::vector&lt; Constraint * &gt;</text>
</g>
<!-- Node14&#45;&gt;Node6 -->
<g id="edge34" class="edge"><title>Node14&#45;&gt;Node6</title>
<path fill="none" stroke="#9a32cd" stroke-dasharray="5,2" d="M1903.63,-518.734C1856.43,-524.727 1793.73,-531 1738,-531 1243,-531 1243,-531 1243,-531 1151.92,-531 1128.31,-525.296 1040,-503 1022.01,-498.458 1002.68,-491.542 986.483,-485.131"/>
<polygon fill="#9a32cd" stroke="#9a32cd" points="1904.29,-522.177 1913.76,-517.421 1903.39,-515.235 1904.29,-522.177"/>
<text text-anchor="middle" x="1521" y="-534" font-family="FreeSans" font-size="10.00"> Constraints</text>
</g>
<!-- Node15 -->
<g id="node32" class="node"><title>Node15</title>
<a xlink:href="classMezzanine_1_1Physics_1_1Constraint.html" target="_top" xlink:title="This is the base class for all constraints supported. ">
<polygon fill="white" stroke="black" points="1688,-453 1688,-485 1788,-485 1788,-453 1688,-453"/>
<text text-anchor="start" x="1696" y="-472" font-family="FreeSans" font-size="10.00">Mezzanine::Physics</text>
<text text-anchor="middle" x="1738" y="-460" font-family="FreeSans" font-size="10.00">::Constraint</text>
</a>
</g>
<!-- Node15&#45;&gt;Node14 -->
<g id="edge36" class="edge"><title>Node15&#45;&gt;Node14</title>
<path fill="none" stroke="#9a32cd" stroke-dasharray="5,2" d="M1798.41,-478.858C1834.22,-484.702 1879.5,-492.09 1915.5,-497.964"/>
<polygon fill="#9a32cd" stroke="#9a32cd" points="1798.54,-475.332 1788.1,-477.176 1797.41,-482.241 1798.54,-475.332"/>
<text text-anchor="middle" x="1858" y="-497" font-family="FreeSans" font-size="10.00"> elements</text>
</g>
<!-- Node16 -->
<g id="node34" class="node"><title>Node16</title>
<a xlink:href="classMezzanine_1_1Physics_1_1RigidProxy.html" target="_top" xlink:title="This is a proxy from which rigid body proxys are handled. ">
<polygon fill="white" stroke="black" points="1471,-399 1471,-431 1571,-431 1571,-399 1471,-399"/>
<text text-anchor="start" x="1479" y="-418" font-family="FreeSans" font-size="10.00">Mezzanine::Physics</text>
<text text-anchor="middle" x="1521" y="-406" font-family="FreeSans" font-size="10.00">::RigidProxy</text>
</a>
</g>
<!-- Node16&#45;&gt;Node15 -->
<g id="edge38" class="edge"><title>Node16&#45;&gt;Node15</title>
<path fill="none" stroke="#9a32cd" stroke-dasharray="5,2" d="M1580.77,-429.873C1614.39,-438.24 1655.9,-448.569 1687.82,-456.513"/>
<polygon fill="#9a32cd" stroke="#9a32cd" points="1581.61,-426.475 1571.06,-427.456 1579.92,-433.268 1581.61,-426.475"/>
<text text-anchor="middle" x="1635" y="-463" font-family="FreeSans" font-size="10.00"> ProxA</text>
<text text-anchor="middle" x="1635" y="-451" font-family="FreeSans" font-size="10.00">ProxB</text>
</g>
<!-- Node17&#45;&gt;Node16 -->
<g id="edge40" class="edge"><title>Node17&#45;&gt;Node16</title>
<path fill="none" stroke="midnightblue" d="M1303.08,-380.508C1353.2,-388.441 1423.8,-399.615 1470.91,-407.072"/>
<polygon fill="midnightblue" stroke="midnightblue" points="1303.45,-377.024 1293.02,-378.917 1302.35,-383.937 1303.45,-377.024"/>
</g>
<!-- Node24 -->
<g id="node52" class="node"><title>Node24</title>
<a xlink:href="classMezzanine_1_1Physics_1_1Collision.html" target="_top" xlink:title="This is an event class used to track collsions in the physics world. ">
<polygon fill="white" stroke="black" points="1471,-234 1471,-266 1571,-266 1571,-234 1471,-234"/>
<text text-anchor="start" x="1479" y="-253" font-family="FreeSans" font-size="10.00">Mezzanine::Physics</text>
<text text-anchor="middle" x="1521" y="-241" font-family="FreeSans" font-size="10.00">::Collision</text>
</a>
</g>
<!-- Node17&#45;&gt;Node24 -->
<g id="edge64" class="edge"><title>Node17&#45;&gt;Node24</title>
<path fill="none" stroke="#9a32cd" stroke-dasharray="5,2" d="M1263.06,-347.423C1280.07,-328.969 1306.1,-304.138 1334,-290 1357.54,-278.07 1423.98,-265.529 1470.94,-257.738"/>
<polygon fill="#9a32cd" stroke="#9a32cd" points="1260.42,-345.116 1256.34,-354.892 1265.63,-349.798 1260.42,-345.116"/>
<text text-anchor="middle" x="1381" y="-305" font-family="FreeSans" font-size="10.00"> ProxyA</text>
<text text-anchor="middle" x="1381" y="-293" font-family="FreeSans" font-size="10.00">ProxyB</text>
</g>
<!-- Node28 -->
<g id="node63" class="node"><title>Node28</title>
<polygon fill="white" stroke="#bfbfbf" points="1446.5,-449 1446.5,-469 1595.5,-469 1595.5,-449 1446.5,-449"/>
<text text-anchor="middle" x="1521" y="-456" font-family="FreeSans" font-size="10.00">std::vector&lt; CollidableProxy * &gt;</text>
</g>
<!-- Node17&#45;&gt;Node28 -->
<g id="edge74" class="edge"><title>Node17&#45;&gt;Node28</title>
<path fill="none" stroke="#9a32cd" stroke-dasharray="5,2" d="M1289.7,-390.892C1303.79,-396.508 1319.4,-402.35 1334,-407 1374.98,-420.053 1387.96,-414.305 1428,-430 1436.52,-433.34 1437.49,-436.626 1446,-440 1454.74,-443.467 1464.31,-446.458 1473.6,-448.975"/>
<polygon fill="#9a32cd" stroke="#9a32cd" points="1290.8,-387.561 1280.22,-387.057 1288.18,-394.05 1290.8,-387.561"/>
<text text-anchor="middle" x="1381" y="-433" font-family="FreeSans" font-size="10.00"> elements</text>
</g>
<!-- Node30 -->
<g id="node69" class="node"><title>Node30</title>
<a xlink:href="classMezzanine_1_1Physics_1_1CollidablePair.html" target="_top" xlink:title="This is a helper class for storing pairs of collidable proxies in associative containers. ">
<polygon fill="white" stroke="black" points="1471,-298 1471,-330 1571,-330 1571,-298 1471,-298"/>
<text text-anchor="start" x="1479" y="-317" font-family="FreeSans" font-size="10.00">Mezzanine::Physics</text>
<text text-anchor="middle" x="1521" y="-305" font-family="FreeSans" font-size="10.00">::CollidablePair</text>
</a>
</g>
<!-- Node17&#45;&gt;Node30 -->
<g id="edge82" class="edge"><title>Node17&#45;&gt;Node30</title>
<path fill="none" stroke="#9a32cd" stroke-dasharray="5,2" d="M1284.24,-350.759C1299.53,-344.067 1317.23,-337.253 1334,-333 1379.39,-321.487 1432.65,-316.911 1470.7,-315.113"/>
<polygon fill="#9a32cd" stroke="#9a32cd" points="1282.74,-347.594 1275.06,-354.886 1285.61,-353.978 1282.74,-347.594"/>
<text text-anchor="middle" x="1381" y="-348" font-family="FreeSans" font-size="10.00"> ProxyA</text>
<text text-anchor="middle" x="1381" y="-336" font-family="FreeSans" font-size="10.00">ProxyB</text>
</g>
<!-- Node18 -->
<g id="node38" class="node"><title>Node18</title>
<a xlink:href="classMezzanine_1_1WorldProxy.html" target="_top" xlink:title="This is the base class for proxy objects belonging to the various 3D subsystems. ">
<polygon fill="white" stroke="black" points="2136,-312 2136,-332 2252,-332 2252,-312 2136,-312"/>
<text text-anchor="middle" x="2194" y="-319" font-family="FreeSans" font-size="10.00">Mezzanine::WorldProxy</text>
</a>
</g>
<!-- Node18&#45;&gt;Node17 -->
<g id="edge42" class="edge"><title>Node18&#45;&gt;Node17</title>
<path fill="none" stroke="midnightblue" d="M2157.73,-335.382C2115.09,-349.89 2041.9,-371 1977,-371 1521,-371 1521,-371 1521,-371 1441.36,-371 1348.9,-371 1293.22,-371"/>
<polygon fill="midnightblue" stroke="midnightblue" points="2159.07,-338.62 2167.37,-332.034 2156.78,-332.006 2159.07,-338.62"/>
</g>
<!-- Node19 -->
<g id="node40" class="node"><title>Node19</title>
<a xlink:href="classMezzanine_1_1TransformableObject.html" target="_top" xlink:title="This is an interface for all 3D objects that can have their full transforms manipulated. ">
<polygon fill="white" stroke="black" points="1674,-305 1674,-337 1802,-337 1802,-305 1674,-305"/>
<text text-anchor="start" x="1682" y="-324" font-family="FreeSans" font-size="10.00">Mezzanine::Transformable</text>
<text text-anchor="middle" x="1738" y="-312" font-family="FreeSans" font-size="10.00">Object</text>
</a>
</g>
<!-- Node19&#45;&gt;Node18 -->
<g id="edge44" class="edge"><title>Node19&#45;&gt;Node18</title>
<path fill="none" stroke="midnightblue" d="M1812.54,-321.163C1902.94,-321.362 2053.39,-321.692 2135.74,-321.872"/>
<polygon fill="midnightblue" stroke="midnightblue" points="1812.37,-317.663 1802.37,-321.141 1812.36,-324.663 1812.37,-317.663"/>
</g>
<!-- Node19&#45;&gt;Node20 -->
<g id="edge48" class="edge"><title>Node19&#45;&gt;Node20</title>
<path fill="none" stroke="midnightblue" d="M1812.15,-305.176C1850.56,-296.982 1896.3,-287.221 1929.84,-280.063"/>
<polygon fill="midnightblue" stroke="midnightblue" points="1811.1,-301.823 1802.05,-307.333 1812.56,-308.669 1811.1,-301.823"/>
</g>
<!-- Node20&#45;&gt;Node18 -->
<g id="edge46" class="edge"><title>Node20&#45;&gt;Node18</title>
<path fill="none" stroke="#9a32cd" stroke-dasharray="5,2" d="M2047.05,-280.818C2069.84,-284.894 2095.14,-290.016 2118,-296 2134.73,-300.378 2153.08,-306.615 2167.56,-311.883"/>
<polygon fill="#9a32cd" stroke="#9a32cd" points="2047.57,-277.356 2037.12,-279.078 2046.36,-284.251 2047.57,-277.356"/>
<text text-anchor="middle" x="2088" y="-299" font-family="FreeSans" font-size="10.00"> ParentObject</text>
</g>
<!-- Node21 -->
<g id="node46" class="node"><title>Node21</title>
<a xlink:title="STL class. ">
<polygon fill="white" stroke="#bfbfbf" points="156.5,-305 156.5,-325 213.5,-325 213.5,-305 156.5,-305"/>
<text text-anchor="middle" x="185" y="-312" font-family="FreeSans" font-size="10.00">std::string</text>
</a>
</g>
<!-- Node21&#45;&gt;Node20 -->
<g id="edge52" class="edge"><title>Node21&#45;&gt;Node20</title>
<path fill="none" stroke="#9a32cd" stroke-dasharray="5,2" d="M195.794,-296.199C223.082,-251.387 299.571,-142 396,-142 396,-142 396,-142 1738,-142 1837.79,-142 1936.21,-229.781 1967.09,-259.956"/>
<polygon fill="#9a32cd" stroke="#9a32cd" points="192.693,-294.566 190.593,-304.951 198.711,-298.142 192.693,-294.566"/>
<text text-anchor="middle" x="1096" y="-145" font-family="FreeSans" font-size="10.00"> ObjectName</text>
</g>
<!-- Node27 -->
<g id="node60" class="node"><title>Node27</title>
<a xlink:href="classMezzanine_1_1Physics_1_1CollisionShape.html" target="_top" xlink:title="This is the base class for all collision shapes. ">
<polygon fill="white" stroke="black" points="482,-299 482,-331 582,-331 582,-299 482,-299"/>
<text text-anchor="start" x="490" y="-318" font-family="FreeSans" font-size="10.00">Mezzanine::Physics</text>
<text text-anchor="middle" x="532" y="-306" font-family="FreeSans" font-size="10.00">::CollisionShape</text>
</a>
</g>
<!-- Node21&#45;&gt;Node27 -->
<g id="edge70" class="edge"><title>Node21&#45;&gt;Node27</title>
<path fill="none" stroke="#9a32cd" stroke-dasharray="5,2" d="M224.025,-315C287.256,-315 412.034,-315 481.793,-315"/>
<polygon fill="#9a32cd" stroke="#9a32cd" points="223.692,-311.5 213.692,-315 223.692,-318.5 223.692,-311.5"/>
<text text-anchor="middle" x="286" y="-318" font-family="FreeSans" font-size="10.00"> Name</text>
</g>
<!-- Node36 -->
<g id="node86" class="node"><title>Node36</title>
<a xlink:href="classMezzanine_1_1WorldTrigger.html" target="_top" xlink:title="This is an abstract class for creating in&#45;game triggers. ">
<polygon fill="white" stroke="black" points="335,-455 335,-475 457,-475 457,-455 335,-455"/>
<text text-anchor="middle" x="396" y="-462" font-family="FreeSans" font-size="10.00">Mezzanine::WorldTrigger</text>
</a>
</g>
<!-- Node21&#45;&gt;Node36 -->
<g id="edge104" class="edge"><title>Node21&#45;&gt;Node36</title>
<path fill="none" stroke="#9a32cd" stroke-dasharray="5,2" d="M204.961,-331.697C232.669,-354.557 284.724,-396.362 332,-428 346.719,-437.851 364.167,-447.833 377.124,-454.942"/>
<polygon fill="#9a32cd" stroke="#9a32cd" points="207.108,-328.931 197.176,-325.244 202.641,-334.32 207.108,-328.931"/>
<text text-anchor="middle" x="286" y="-416" font-family="FreeSans" font-size="10.00"> Name</text>
</g>
<!-- Node22 -->
<g id="node48" class="node"><title>Node22</title>
<a xlink:title="STL class. ">
<polygon fill="white" stroke="#bfbfbf" points="0.5,-299 0.5,-331 91.5,-331 91.5,-299 0.5,-299"/>
<text text-anchor="start" x="8.5" y="-318" font-family="FreeSans" font-size="10.00">std::basic_string&lt;</text>
<text text-anchor="middle" x="46" y="-306" font-family="FreeSans" font-size="10.00"> char &gt;</text>
</a>
</g>
<!-- Node22&#45;&gt;Node21 -->
<g id="edge54" class="edge"><title>Node22&#45;&gt;Node21</title>
<path fill="none" stroke="midnightblue" d="M101.751,-315C120.501,-315 140.641,-315 156.415,-315"/>
<polygon fill="midnightblue" stroke="midnightblue" points="101.514,-311.5 91.5138,-315 101.514,-318.5 101.514,-311.5"/>
</g>
<!-- Node23 -->
<g id="node50" class="node"><title>Node23</title>
<polygon fill="white" stroke="#bfbfbf" points="1692,-254 1692,-286 1784,-286 1784,-254 1692,-254"/>
<text text-anchor="start" x="1700" y="-273" font-family="FreeSans" font-size="10.00">std::set&lt; Physics::</text>
<text text-anchor="middle" x="1738" y="-261" font-family="FreeSans" font-size="10.00">Collision * &gt;</text>
</g>
<!-- Node23&#45;&gt;Node20 -->
<g id="edge56" class="edge"><title>Node23&#45;&gt;Node20</title>
<path fill="none" stroke="#9a32cd" stroke-dasharray="5,2" d="M1794.14,-270C1830.92,-270 1878.96,-270 1916.57,-270"/>
<polygon fill="#9a32cd" stroke="#9a32cd" points="1794.08,-266.5 1784.08,-270 1794.08,-273.5 1794.08,-266.5"/>
<text text-anchor="middle" x="1858" y="-273" font-family="FreeSans" font-size="10.00"> CurrentCollisions</text>
</g>
<!-- Node24&#45;&gt;Node23 -->
<g id="edge58" class="edge"><title>Node24&#45;&gt;Node23</title>
<path fill="none" stroke="#9a32cd" stroke-dasharray="5,2" d="M1581.4,-257.547C1592.25,-258.787 1603.45,-259.994 1614,-261 1639.68,-263.449 1668.4,-265.573 1691.73,-267.141"/>
<polygon fill="#9a32cd" stroke="#9a32cd" points="1581.49,-254.034 1571.15,-256.354 1580.68,-260.987 1581.49,-254.034"/>
<text text-anchor="middle" x="1635" y="-268" font-family="FreeSans" font-size="10.00"> keys</text>
</g>
<!-- Node29 -->
<g id="node66" class="node"><title>Node29</title>
<polygon fill="white" stroke="#bfbfbf" points="1676.5,-197 1676.5,-229 1799.5,-229 1799.5,-197 1676.5,-197"/>
<text text-anchor="start" x="1684.5" y="-216" font-family="FreeSans" font-size="10.00">std::map&lt; CollidablePair,</text>
<text text-anchor="middle" x="1738" y="-204" font-family="FreeSans" font-size="10.00"> Collision * &gt;</text>
</g>
<!-- Node24&#45;&gt;Node29 -->
<g id="edge78" class="edge"><title>Node24&#45;&gt;Node29</title>
<path fill="none" stroke="#9a32cd" stroke-dasharray="5,2" d="M1563.09,-230.003C1578.71,-223.579 1596.82,-217.281 1614,-214 1634.09,-210.164 1656.34,-209.037 1676.39,-209.137"/>
<polygon fill="#9a32cd" stroke="#9a32cd" points="1561.55,-226.856 1553.71,-233.992 1564.29,-233.298 1561.55,-226.856"/>
<text text-anchor="middle" x="1635" y="-217" font-family="FreeSans" font-size="10.00"> elements</text>
</g>
<!-- Node25 -->
<g id="node54" class="node"><title>Node25</title>
<polygon fill="white" stroke="#bfbfbf" points="1195,-258 1195,-278 1291,-278 1291,-258 1195,-258"/>
<text text-anchor="middle" x="1243" y="-265" font-family="FreeSans" font-size="10.00">std::vector&lt; Real &gt;</text>
</g>
<!-- Node25&#45;&gt;Node24 -->
<g id="edge60" class="edge"><title>Node25&#45;&gt;Node24</title>
<path fill="none" stroke="#9a32cd" stroke-dasharray="5,2" d="M1298.26,-256.04C1310,-253.959 1322.37,-252.109 1334,-251 1380.22,-246.595 1433.15,-246.8 1470.87,-247.838"/>
<polygon fill="#9a32cd" stroke="#9a32cd" points="1297.33,-252.652 1288.13,-257.915 1298.6,-259.535 1297.33,-252.652"/>
<text text-anchor="middle" x="1381" y="-254" font-family="FreeSans" font-size="10.00"> PenetrationDistances</text>
</g>
<!-- Node26 -->
<g id="node56" class="node"><title>Node26</title>
<a xlink:href="structMezzanine_1_1Physics_1_1CollisionInternalData.html" target="_top" xlink:title="Used to insulate the interface from the implementation details for bullet. ">
<polygon fill="white" stroke="black" points="1188,-208 1188,-240 1298,-240 1298,-208 1188,-208"/>
<text text-anchor="start" x="1196" y="-227" font-family="FreeSans" font-size="10.00">Mezzanine::Physics</text>
<text text-anchor="middle" x="1243" y="-215" font-family="FreeSans" font-size="10.00">::CollisionInternalData</text>
</a>
</g>
<!-- Node26&#45;&gt;Node24 -->
<g id="edge62" class="edge"><title>Node26&#45;&gt;Node24</title>
<path fill="none" stroke="#9a32cd" stroke-dasharray="5,2" d="M1308.45,-224.474C1343.93,-225.323 1388.48,-227.347 1428,-232 1441.88,-233.635 1456.8,-236.168 1470.53,-238.823"/>
<polygon fill="#9a32cd" stroke="#9a32cd" points="1308.29,-220.97 1298.22,-224.255 1308.14,-227.968 1308.29,-220.97"/>
<text text-anchor="middle" x="1381" y="-235" font-family="FreeSans" font-size="10.00"> InternalData</text>
</g>
<!-- Node27&#45;&gt;Node17 -->
<g id="edge68" class="edge"><title>Node27&#45;&gt;Node17</title>
<path fill="none" stroke="#9a32cd" stroke-dasharray="5,2" d="M592.645,-319.777C730.49,-330.634 1065.24,-356.999 1192.64,-367.033"/>
<polygon fill="#9a32cd" stroke="#9a32cd" points="592.523,-316.256 582.279,-318.96 591.974,-323.235 592.523,-316.256"/>
<text text-anchor="middle" x="809" y="-342" font-family="FreeSans" font-size="10.00"> ProxyShape</text>
</g>
<!-- Node28&#45;&gt;Node6 -->
<g id="edge72" class="edge"><title>Node28&#45;&gt;Node6</title>
<path fill="none" stroke="#9a32cd" stroke-dasharray="5,2" d="M1435.85,-454.425C1399.01,-452.662 1355.39,-450.864 1316,-450 1251.13,-448.577 1234.83,-447.262 1170,-450 1112.07,-452.447 1097.77,-456.017 1040,-461 1026.73,-462.145 1012.37,-463.4 999.062,-464.569"/>
<polygon fill="#9a32cd" stroke="#9a32cd" points="1435.9,-457.931 1446.05,-454.92 1436.24,-450.939 1435.9,-457.931"/>
<text text-anchor="middle" x="1243" y="-453" font-family="FreeSans" font-size="10.00"> Proxies</text>
</g>
<!-- Node29&#45;&gt;Node6 -->
<g id="edge76" class="edge"><title>Node29&#45;&gt;Node6</title>
<path fill="none" stroke="#9a32cd" stroke-dasharray="5,2" d="M1666.3,-203.336C1533.69,-186.746 1255.79,-158.355 1170,-199 1053.95,-253.982 978.546,-403.063 956.056,-452.686"/>
<polygon fill="#9a32cd" stroke="#9a32cd" points="1666,-206.827 1676.36,-204.608 1666.88,-199.882 1666,-206.827"/>
<text text-anchor="middle" x="1381" y="-184" font-family="FreeSans" font-size="10.00"> Collisions</text>
</g>
<!-- Node30&#45;&gt;Node29 -->
<g id="edge80" class="edge"><title>Node30&#45;&gt;Node29</title>
<path fill="none" stroke="#9a32cd" stroke-dasharray="5,2" d="M1570.41,-293.157C1579.51,-288.02 1588.49,-281.958 1596,-275 1607.13,-264.688 1601.81,-255.031 1614,-246 1624.34,-238.341 1650.59,-230.875 1676.29,-224.988"/>
<polygon fill="#9a32cd" stroke="#9a32cd" points="1568.51,-290.202 1561.32,-297.985 1571.8,-296.384 1568.51,-290.202"/>
<text text-anchor="middle" x="1635" y="-249" font-family="FreeSans" font-size="10.00"> keys</text>
</g>
<!-- Node31 -->
<g id="node72" class="node"><title>Node31</title>
<a xlink:href="classMezzanine_1_1debug_1_1InternalDebugDrawer.html" target="_top" xlink:title="This is used to draw wireframse for the Physics subsystem. ">
<polygon fill="white" stroke="black" points="608,-393 608,-425 738,-425 738,-393 608,-393"/>
<text text-anchor="start" x="616" y="-412" font-family="FreeSans" font-size="10.00">Mezzanine::debug::Internal</text>
<text text-anchor="middle" x="673" y="-400" font-family="FreeSans" font-size="10.00">DebugDrawer</text>
</a>
</g>
<!-- Node31&#45;&gt;Node6 -->
<g id="edge84" class="edge"><title>Node31&#45;&gt;Node6</title>
<path fill="none" stroke="#9a32cd" stroke-dasharray="5,2" d="M748.308,-419.8C782.058,-425.21 822.234,-432.441 858,-441 871.986,-444.347 886.976,-448.653 900.672,-452.879"/>
<polygon fill="#9a32cd" stroke="#9a32cd" points="748.476,-416.283 738.052,-418.18 747.384,-423.198 748.476,-416.283"/>
<text text-anchor="middle" x="809" y="-444" font-family="FreeSans" font-size="10.00"> BulletDrawer</text>
</g>
<!-- Node32 -->
<g id="node74" class="node"><title>Node32</title>
<polygon fill="white" stroke="#bfbfbf" points="357.5,-399 357.5,-419 434.5,-419 434.5,-399 357.5,-399"/>
<text text-anchor="middle" x="396" y="-406" font-family="FreeSans" font-size="10.00">btIDebugDraw</text>
</g>
<!-- Node32&#45;&gt;Node31 -->
<g id="edge86" class="edge"><title>Node32&#45;&gt;Node31</title>
<path fill="none" stroke="midnightblue" d="M444.682,-409C490.028,-409 557.961,-409 607.941,-409"/>
<polygon fill="midnightblue" stroke="midnightblue" points="444.516,-405.5 434.516,-409 444.516,-412.5 444.516,-405.5"/>
</g>
<!-- Node33&#45;&gt;Node6 -->
<g id="edge88" class="edge"><title>Node33&#45;&gt;Node6</title>
<path fill="none" stroke="#9a32cd" stroke-dasharray="5,2" d="M1177.82,-473.363C1169.17,-471.983 1160.39,-470.798 1152,-470 1100.07,-465.062 1040.34,-465.5 999.179,-466.747"/>
<polygon fill="#9a32cd" stroke="#9a32cd" points="1177.44,-476.849 1187.88,-475.061 1178.61,-469.946 1177.44,-476.849"/>
<text text-anchor="middle" x="1096" y="-473" font-family="FreeSans" font-size="10.00"> DebugDrawWork</text>
</g>
<!-- Node34&#45;&gt;Node6 -->
<g id="edge94" class="edge"><title>Node34&#45;&gt;Node6</title>
<path fill="none" stroke="#9a32cd" stroke-dasharray="5,2" d="M1191.83,-664.183C1133.78,-641.575 1046.3,-607.063 1040,-602 999.013,-569.036 969.149,-512.76 956.175,-485.189"/>
<polygon fill="#9a32cd" stroke="#9a32cd" points="1190.64,-667.477 1201.23,-667.841 1193.18,-660.953 1190.64,-667.477"/>
<text text-anchor="middle" x="1096" y="-651" font-family="FreeSans" font-size="10.00"> WorldTriggerUpdateWork</text>
</g>
<!-- Node35 -->
<g id="node84" class="node"><title>Node35</title>
<polygon fill="white" stroke="#bfbfbf" points="604.5,-493 604.5,-513 741.5,-513 741.5,-493 604.5,-493"/>
<text text-anchor="middle" x="673" y="-500" font-family="FreeSans" font-size="10.00">std::vector&lt; WorldTrigger * &gt;</text>
</g>
<!-- Node35&#45;&gt;Node6 -->
<g id="edge100" class="edge"><title>Node35&#45;&gt;Node6</title>
<path fill="none" stroke="#9a32cd" stroke-dasharray="5,2" d="M751.772,-493.296C798.967,-487.482 857.568,-480.263 898.58,-475.211"/>
<polygon fill="#9a32cd" stroke="#9a32cd" points="751.076,-489.855 741.579,-494.552 751.932,-496.803 751.076,-489.855"/>
<text text-anchor="middle" x="809" y="-495" font-family="FreeSans" font-size="10.00"> Triggers</text>
</g>
<!-- Node36&#45;&gt;Node35 -->
<g id="edge102" class="edge"><title>Node36&#45;&gt;Node35</title>
<path fill="none" stroke="#9a32cd" stroke-dasharray="5,2" d="M467.052,-474.747C509.235,-480.534 562.46,-487.836 604.234,-493.566"/>
<polygon fill="#9a32cd" stroke="#9a32cd" points="467.515,-471.278 457.132,-473.386 466.563,-478.213 467.515,-471.278"/>
<text text-anchor="middle" x="532" y="-493" font-family="FreeSans" font-size="10.00"> elements</text>
</g>
<!-- Node37 -->
<g id="node89" class="node"><title>Node37</title>
<a xlink:href="classMezzanine_1_1Physics_1_1ManagerConstructionInfo.html" target="_top" xlink:title="This is a helper class storing information needed for the construction of a PhysicsManager. ">
<polygon fill="white" stroke="black" points="608.5,-343 608.5,-375 737.5,-375 737.5,-343 608.5,-343"/>
<text text-anchor="start" x="616.5" y="-362" font-family="FreeSans" font-size="10.00">Mezzanine::Physics</text>
<text text-anchor="middle" x="673" y="-350" font-family="FreeSans" font-size="10.00">::ManagerConstructionInfo</text>
</a>
</g>
<!-- Node37&#45;&gt;Node6 -->
<g id="edge106" class="edge"><title>Node37&#45;&gt;Node6</title>
<path fill="none" stroke="#9a32cd" stroke-dasharray="5,2" d="M747.856,-371.673C782.364,-379.098 823.275,-390.193 858,-406 884.932,-418.26 912.393,-438.568 929.999,-452.804"/>
<polygon fill="#9a32cd" stroke="#9a32cd" points="748.341,-368.199 737.836,-369.581 746.91,-375.051 748.341,-368.199"/>
<text text-anchor="middle" x="809" y="-409" font-family="FreeSans" font-size="10.00"> WorldConstructionInfo</text>
</g>
<!-- Node38 -->
<g id="node91" class="node"><title>Node38</title>
<a xlink:href="classMezzanine_1_1Vector3.html" target="_top" xlink:title="This is used to represent a point in space, or a vector through space. ">
<polygon fill="white" stroke="black" points="346,-348 346,-368 446,-368 446,-348 346,-348"/>
<text text-anchor="middle" x="396" y="-355" font-family="FreeSans" font-size="10.00">Mezzanine::Vector3</text>
</a>
</g>
<!-- Node38&#45;&gt;Node37 -->
<g id="edge108" class="edge"><title>Node38&#45;&gt;Node37</title>
<path fill="none" stroke="#9a32cd" stroke-dasharray="5,2" d="M456.342,-358.218C501.233,-358.38 562.41,-358.601 608.309,-358.766"/>
<polygon fill="#9a32cd" stroke="#9a32cd" points="456.175,-354.717 446.163,-358.181 456.15,-361.717 456.175,-354.717"/>
<text text-anchor="middle" x="532" y="-385" font-family="FreeSans" font-size="10.00"> GeographyLowerBounds</text>
<text text-anchor="middle" x="532" y="-373" font-family="FreeSans" font-size="10.00">GeographyUpperBounds</text>
<text text-anchor="middle" x="532" y="-361" font-family="FreeSans" font-size="10.00">Gravity</text>
</g>
</g>
</svg>
        <g id="navigator" transform="translate(0 0)" fill="#404254">
                <rect fill="#f2f5e9" fill-opacity="0.5" stroke="#606060" stroke-width=".5" x="0" y="0" width="60" height="60"/>
                <use id="zoomplus" xlink:href="#zoomPlus" x="17" y="9" onmousedown="handleZoom(evt,'in')"/>
                <use id="zoomminus" xlink:href="#zoomMin" x="42" y="9" onmousedown="handleZoom(evt,'out')"/>
                <use id="reset" xlink:href="#resetDef" x="30" y="36" onmousedown="handleReset()"/>
                <g id="arrowUp" xlink:href="#dirArrow" transform="translate(30 24)" onmousedown="handlePan(0,-1)">
                  <use xlink:href="#rim" fill="#404040">
                        <set attributeName="fill" to="#808080" begin="arrowUp.mouseover" end="arrowUp.mouseout"/>
                  </use>
                  <path fill="none" stroke="white" stroke-width="1.5" d="M0,-3.0v7 M-2.5,-0.5L0,-3.0L2.5,-0.5"/>
                </g>
                <g id="arrowRight" xlink:href="#dirArrow" transform="rotate(90) translate(36 -43)" onmousedown="handlePan(1,0)">
                  <use xlink:href="#rim" fill="#404040">
                        <set attributeName="fill" to="#808080" begin="arrowRight.mouseover" end="arrowRight.mouseout"/>
                  </use>
                  <path fill="none" stroke="white" stroke-width="1.5" d="M0,-3.0v7 M-2.5,-0.5L0,-3.0L2.5,-0.5"/>
                </g>
                <g id="arrowDown" xlink:href="#dirArrow" transform="rotate(180) translate(-30 -48)" onmousedown="handlePan(0,1)">
                  <use xlink:href="#rim" fill="#404040">
                        <set attributeName="fill" to="#808080" begin="arrowDown.mouseover" end="arrowDown.mouseout"/>
                  </use>
                  <path fill="none" stroke="white" stroke-width="1.5" d="M0,-3.0v7 M-2.5,-0.5L0,-3.0L2.5,-0.5"/>
                </g>
                <g id="arrowLeft" xlink:href="#dirArrow" transform="rotate(270) translate(-36 17)" onmousedown="handlePan(-1,0)">
                  <use xlink:href="#rim" fill="#404040">
                        <set attributeName="fill" to="#808080" begin="arrowLeft.mouseover" end="arrowLeft.mouseout"/>
                  </use>
                  <path fill="none" stroke="white" stroke-width="1.5" d="M0,-3.0v7 M-2.5,-0.5L0,-3.0L2.5,-0.5"/>
                </g>
        </g>
        <svg viewBox="0 0 15 15" width="100%" height="30px" preserveAspectRatio="xMaxYMin meet">
         <g id="arrow_out" transform="scale(0.3 0.3)">
          <a xlink:href="classMezzanine_1_1Physics_1_1SimulationWorkUnit__coll__graph_org.svg" target="_base">
           <rect id="button" ry="5" rx="5" y="6" x="6" height="38" width="38"
                fill="#f2f5e9" fill-opacity="0.5" stroke="#606060" stroke-width="1.0"/>
           <path id="arrow"
             d="M 11.500037,31.436501 C 11.940474,20.09759 22.043105,11.32322 32.158766,21.979434 L 37.068811,17.246167 C 37.068811,17.246167 37.088388,32 37.088388,32 L 22.160133,31.978069 C 22.160133,31.978069 26.997745,27.140456 26.997745,27.140456 C 18.528582,18.264221 13.291696,25.230495 11.500037,31.436501 z"
             style="fill:#404040;"/>
          </a>
         </g>
        </svg>
</svg>
