<?xml version="1.0" encoding="UTF-8" standalone="no"?>
<!DOCTYPE svg PUBLIC "-//W3C//DTD SVG 1.1//EN"
 "http://www.w3.org/Graphics/SVG/1.1/DTD/svg11.dtd">
<!-- Generated by graphviz version 2.26.3 (20100126.1600)
 -->
<!-- Title: Mezzanine::EventArguments Pages: 1 -->
<svg width="150pt" height="176pt"
 viewBox="0.00 0.00 150.00 176.00" xmlns="http://www.w3.org/2000/svg" xmlns:xlink="http://www.w3.org/1999/xlink">
<g id="graph1" class="graph" transform="scale(1 1) rotate(0) translate(4 172)">
<title>Mezzanine::EventArguments</title>
<polygon fill="white" stroke="white" points="-4,5 -4,-172 147,-172 147,5 -4,5"/>
<!-- Node1 -->
<g id="node1" class="node"><title>Node1</title>
<polygon fill="#bfbfbf" stroke="black" points="-0.5,-0.5 -0.5,-21.5 142.5,-21.5 142.5,-0.5 -0.5,-0.5"/>
<text text-anchor="middle" x="71" y="-8.5" font-family="Helvetica,sans-Serif" font-size="10.00">Mezzanine::EventArguments</text>
</g>
<!-- Node2 -->
<g id="node2" class="node"><title>Node2</title>
<a xlink:title="STL class. ">
<polygon fill="white" stroke="#bfbfbf" points="41,-72.5 41,-93.5 101,-93.5 101,-72.5 41,-72.5"/>
<text text-anchor="middle" x="71" y="-80.5" font-family="Helvetica,sans-Serif" font-size="10.00">std::string</text>
</a>
</g>
<!-- Node2&#45;&gt;Node1 -->
<g id="edge2" class="edge"><title>Node2&#45;&gt;Node1</title>
<path fill="none" stroke="#9a32cd" stroke-dasharray="5,2" d="M71,-62.2348C71,-48.969 71,-32.3188 71,-21.6674"/>
<polygon fill="#9a32cd" stroke="#9a32cd" points="67.5001,-62.3761 71,-72.3762 74.5001,-62.3762 67.5001,-62.3761"/>
<text text-anchor="middle" x="98.5" y="-44.5" font-family="Helvetica,sans-Serif" font-size="10.00"> EventName</text>
</g>
<!-- Node3 -->
<g id="node4" class="node"><title>Node3</title>
<a xlink:title="STL class. ">
<polygon fill="white" stroke="#bfbfbf" points="23.5,-133 23.5,-167 118.5,-167 118.5,-133 23.5,-133"/>
<text text-anchor="start" x="31.5" y="-154" font-family="Helvetica,sans-Serif" font-size="10.00">std::basic_string&lt;</text>
<text text-anchor="middle" x="71" y="-141" font-family="Helvetica,sans-Serif" font-size="10.00"> char &gt;</text>
</a>
</g>
<!-- Node3&#45;&gt;Node2 -->
<g id="edge4" class="edge"><title>Node3&#45;&gt;Node2</title>
<path fill="none" stroke="midnightblue" d="M71,-122.534C71,-112.306 71,-101.301 71,-93.5056"/>
<polygon fill="midnightblue" stroke="midnightblue" points="67.5001,-122.746 71,-132.746 74.5001,-122.746 67.5001,-122.746"/>
</g>
</g>
</svg>
