<?xml version="1.0" encoding="UTF-8" standalone="no"?>
<!DOCTYPE svg PUBLIC "-//W3C//DTD SVG 1.1//EN"
 "http://www.w3.org/Graphics/SVG/1.1/DTD/svg11.dtd">
<!-- Generated by graphviz version 2.26.3 (20100126.1600)
 -->
<!-- Title: Mezzanine::Physics::RigidProxy Pages: 1 -->
<!--zoomable 692 -->
<svg id="main" version="1.1" xmlns="http://www.w3.org/2000/svg" xmlns:xlink="http://www.w3.org/1999/xlink" xml:space="preserve" onload="init(evt)">
        <defs>
                <circle id="rim" cx="0" cy="0" r="7"/>
                <circle id="rim2" cx="0" cy="0" r="3.5"/>
                <g id="zoomPlus">
                        <use xlink:href="#rim" fill="#404040">
                                <set attributeName="fill" to="#808080" begin="zoomplus.mouseover" end="zoomplus.mouseout"/>
                        </use>
                        <path d="M-4,0h8M0,-4v8" fill="none" stroke="white" stroke-width="1.5" pointer-events="none"/>
                </g>
                <g id="zoomMin">
                        <use xlink:href="#rim" fill="#404040">
                                <set attributeName="fill" to="#808080" begin="zoomminus.mouseover" end="zoomminus.mouseout"/>
                        </use>
                        <path d="M-4,0h8" fill="none" stroke="white" stroke-width="1.5" pointer-events="none"/>
                </g>
                <g id="dirArrow">
                        <path fill="none" stroke="white" stroke-width="1.5" d="M0,-3.0v7 M-2.5,-0.5L0,-3.0L2.5,-0.5"/>
                </g>
               <g id="resetDef">
                       <use xlink:href="#rim2" fill="#404040">
                               <set attributeName="fill" to="#808080" begin="reset.mouseover" end="reset.mouseout"/>
                       </use>
               </g>
        </defs>

<script type="text/javascript">
var viewWidth = 1210;
var viewHeight = 692;
var sectionId = 'dynsection-1';
</script>
<script xlink:href="svgpan.js"/>
<svg id="graph" class="graph">
<g id="viewport">
<title>Mezzanine::Physics::RigidProxy</title>
<polygon fill="white" stroke="white" points="-4,5 -4,-688 1207,-688 1207,5 -4,5"/>
<!-- Node1 -->
<g id="node1" class="node"><title>Node1</title>
<polygon fill="#bfbfbf" stroke="black" points="1102,-93 1102,-125 1202,-125 1202,-93 1102,-93"/>
<text text-anchor="start" x="1110" y="-112" font-family="FreeSans" font-size="10.00">Mezzanine::Physics</text>
<text text-anchor="middle" x="1152" y="-100" font-family="FreeSans" font-size="10.00">::RigidProxy</text>
</g>
<!-- Node2 -->
<g id="node2" class="node"><title>Node2</title>
<a xlink:href="classMezzanine_1_1Physics_1_1PhysicsProxy.xhtml" target="_top" xlink:title="This is a proxy from which physics objects are handled.">
<polygon fill="white" stroke="black" points="964,-93 964,-125 1064,-125 1064,-93 964,-93"/>
<text text-anchor="start" x="972" y="-112" font-family="FreeSans" font-size="10.00">Mezzanine::Physics</text>
<text text-anchor="middle" x="1014" y="-100" font-family="FreeSans" font-size="10.00">::PhysicsProxy</text>
</a>
</g>
<!-- Node2&#45;&gt;Node1 -->
<g id="edge2" class="edge"><title>Node2&#45;&gt;Node1</title>
<path fill="none" stroke="midnightblue" d="M1074.36,-109C1083.45,-109 1092.74,-109 1101.59,-109"/>
<polygon fill="midnightblue" stroke="midnightblue" points="1074.21,-105.5 1064.21,-109 1074.21,-112.5 1074.21,-105.5"/>
</g>
<!-- Node3 -->
<g id="node4" class="node"><title>Node3</title>
<a xlink:href="classMezzanine_1_1WorldProxy.xhtml" target="_top" xlink:title="This is the base class for proxy objects belonging to the various 3D subsystems.">
<polygon fill="white" stroke="black" points="741,-139 741,-159 857,-159 857,-139 741,-139"/>
<text text-anchor="middle" x="799" y="-146" font-family="FreeSans" font-size="10.00">Mezzanine::WorldProxy</text>
</a>
</g>
<!-- Node3&#45;&gt;Node2 -->
<g id="edge4" class="edge"><title>Node3&#45;&gt;Node2</title>
<path fill="none" stroke="midnightblue" d="M867.081,-137.367C891.944,-133.011 920.271,-127.923 946,-123 951.801,-121.89 957.872,-120.692 963.898,-119.481"/>
<polygon fill="midnightblue" stroke="midnightblue" points="866.267,-133.957 857.018,-139.124 867.47,-140.852 866.267,-133.957"/>
</g>
<!-- Node4 -->
<g id="node6" class="node"><title>Node4</title>
<a xlink:href="classMezzanine_1_1TransformableObject.xhtml" target="_top" xlink:title="This is an interface for all 3D objects that can have their full transforms manipulated.">
<polygon fill="white" stroke="black" points="453,-144 453,-176 581,-176 581,-144 453,-144"/>
<text text-anchor="start" x="461" y="-163" font-family="FreeSans" font-size="10.00">Mezzanine::Transformable</text>
<text text-anchor="middle" x="517" y="-151" font-family="FreeSans" font-size="10.00">Object</text>
</a>
</g>
<!-- Node4&#45;&gt;Node3 -->
<g id="edge6" class="edge"><title>Node4&#45;&gt;Node3</title>
<path fill="none" stroke="midnightblue" d="M591.228,-149.398C596.895,-148.838 602.534,-148.359 608,-148 652.505,-145.078 702.967,-145.503 740.843,-146.564"/>
<polygon fill="midnightblue" stroke="midnightblue" points="590.602,-145.945 581.029,-150.486 591.344,-152.905 590.602,-145.945"/>
</g>
<!-- Node5 -->
<g id="node8" class="node"><title>Node5</title>
<a xlink:href="classMezzanine_1_1WorldObject.xhtml" target="_top" xlink:title="This is the base class from which classes that are insertable into the physical world.">
<polygon fill="white" stroke="black" points="457,-262 457,-282 577,-282 577,-262 457,-262"/>
<text text-anchor="middle" x="517" y="-269" font-family="FreeSans" font-size="10.00">Mezzanine::WorldObject</text>
</a>
</g>
<!-- Node5&#45;&gt;Node3 -->
<g id="edge8" class="edge"><title>Node5&#45;&gt;Node3</title>
<path fill="none" stroke="#9a32cd" stroke-dasharray="5,2" d="M537.911,-255.895C555.767,-242.725 582.53,-224.327 608,-212 615.406,-208.416 715.461,-175.953 767.71,-159.083"/>
<polygon fill="#9a32cd" stroke="#9a32cd" points="535.811,-253.095 529.906,-261.891 540.008,-258.697 535.811,-253.095"/>
<text text-anchor="middle" x="655" y="-215" font-family="FreeSans" font-size="10.00"> ParentObject</text>
</g>
<!-- Node12 -->
<g id="node24" class="node"><title>Node12</title>
<a xlink:href="classMezzanine_1_1WorldObjectPhysicsSettings.xhtml" target="_top" xlink:title="This is a base helper class for configuring physics settings of a world object.">
<polygon fill="white" stroke="black" points="722.5,-221 722.5,-253 875.5,-253 875.5,-221 722.5,-221"/>
<text text-anchor="start" x="730.5" y="-240" font-family="FreeSans" font-size="10.00">Mezzanine::WorldObjectPhysics</text>
<text text-anchor="middle" x="799" y="-228" font-family="FreeSans" font-size="10.00">Settings</text>
</a>
</g>
<!-- Node5&#45;&gt;Node12 -->
<g id="edge28" class="edge"><title>Node5&#45;&gt;Node12</title>
<path fill="none" stroke="#9a32cd" stroke-dasharray="5,2" d="M544.63,-257.497C562.236,-249.091 585.828,-239.335 608,-235 645.102,-227.746 687.036,-227.349 722.141,-229.141"/>
<polygon fill="#9a32cd" stroke="#9a32cd" points="542.938,-254.428 535.512,-261.985 546.03,-260.709 542.938,-254.428"/>
<text text-anchor="middle" x="655" y="-238" font-family="FreeSans" font-size="10.00"> Parent</text>
</g>
<!-- Node17 -->
<g id="node36" class="node"><title>Node17</title>
<a xlink:href="classMezzanine_1_1Physics_1_1Collision.xhtml" target="_top" xlink:title="This is an event class used to track collsions in the physics world.">
<polygon fill="white" stroke="black" points="749,-479 749,-511 849,-511 849,-479 749,-479"/>
<text text-anchor="start" x="757" y="-498" font-family="FreeSans" font-size="10.00">Mezzanine::Physics</text>
<text text-anchor="middle" x="799" y="-486" font-family="FreeSans" font-size="10.00">::Collision</text>
</a>
</g>
<!-- Node5&#45;&gt;Node17 -->
<g id="edge44" class="edge"><title>Node5&#45;&gt;Node17</title>
<path fill="none" stroke="#9a32cd" stroke-dasharray="5,2" d="M533.462,-289.512C550.176,-308.25 575.586,-339.546 590,-371 605.002,-403.737 582.63,-424.443 608,-450 613.04,-455.077 693.722,-472.871 748.595,-484.503"/>
<polygon fill="#9a32cd" stroke="#9a32cd" points="535.998,-287.098 526.678,-282.059 530.821,-291.81 535.998,-287.098"/>
<text text-anchor="middle" x="655" y="-489" font-family="FreeSans" font-size="10.00"> ObjectA</text>
<text text-anchor="middle" x="655" y="-477" font-family="FreeSans" font-size="10.00">ObjectB</text>
</g>
<!-- Node20 -->
<g id="node43" class="node"><title>Node20</title>
<a xlink:href="classMezzanine_1_1WorldObjectGraphicsSettings.xhtml" target="_top" xlink:title="This is a helper class for configuring graphics settings of a World Object.">
<polygon fill="white" stroke="black" points="720,-368 720,-400 878,-400 878,-368 720,-368"/>
<text text-anchor="start" x="728" y="-387" font-family="FreeSans" font-size="10.00">Mezzanine::WorldObjectGraphics</text>
<text text-anchor="middle" x="799" y="-375" font-family="FreeSans" font-size="10.00">Settings</text>
</a>
</g>
<!-- Node5&#45;&gt;Node20 -->
<g id="edge50" class="edge"><title>Node5&#45;&gt;Node20</title>
<path fill="none" stroke="#9a32cd" stroke-dasharray="5,2" d="M533.742,-289.612C550.809,-306.477 578.85,-331.321 608,-345 642.775,-361.318 684.258,-370.833 719.666,-376.369"/>
<polygon fill="#9a32cd" stroke="#9a32cd" points="535.804,-286.718 526.289,-282.058 530.821,-291.634 535.804,-286.718"/>
<text text-anchor="middle" x="655" y="-375" font-family="FreeSans" font-size="10.00"> Parent</text>
</g>
<!-- Node6 -->
<g id="node10" class="node"><title>Node6</title>
<a xlink:href="classMezzanine_1_1World.xhtml" target="_top" xlink:title="This class represents a world for objects to interact within.">
<polygon fill="white" stroke="black" points="236,-43 236,-63 328,-63 328,-43 236,-43"/>
<text text-anchor="middle" x="282" y="-50" font-family="FreeSans" font-size="10.00">Mezzanine::World</text>
</a>
</g>
<!-- Node6&#45;&gt;Node5 -->
<g id="edge10" class="edge"><title>Node6&#45;&gt;Node5</title>
<path fill="none" stroke="#9a32cd" stroke-dasharray="5,2" d="M337.641,-66.1103C368.6,-76.3623 405.015,-93.9113 426,-123 442.787,-146.27 430.488,-159.687 444,-185 460.713,-216.309 490.014,-246.601 505.938,-261.828"/>
<polygon fill="#9a32cd" stroke="#9a32cd" points="338.397,-62.6795 327.808,-63.0328 336.306,-69.3599 338.397,-62.6795"/>
<text text-anchor="middle" x="398" y="-126" font-family="FreeSans" font-size="10.00"> ParentWorld</text>
</g>
<!-- Node8 -->
<g id="node14" class="node"><title>Node8</title>
<a xlink:href="classMezzanine_1_1WorldManager.xhtml" target="_top" xlink:title="This is the base class for all managers that belong to a single world instance.">
<polygon fill="white" stroke="black" points="452.5,-8 452.5,-28 581.5,-28 581.5,-8 452.5,-8"/>
<text text-anchor="middle" x="517" y="-15" font-family="FreeSans" font-size="10.00">Mezzanine::WorldManager</text>
</a>
</g>
<!-- Node6&#45;&gt;Node8 -->
<g id="edge24" class="edge"><title>Node6&#45;&gt;Node8</title>
<path fill="none" stroke="#9a32cd" stroke-dasharray="5,2" d="M338.079,-43.1512C348.672,-41.373 359.668,-39.583 370,-38 396.859,-33.8849 426.546,-29.7649 452.169,-26.3428"/>
<polygon fill="#9a32cd" stroke="#9a32cd" points="337.356,-39.7237 328.081,-44.8452 338.525,-46.6253 337.356,-39.7237"/>
<text text-anchor="middle" x="398" y="-41" font-family="FreeSans" font-size="10.00"> ParentWorld</text>
</g>
<!-- Node7 -->
<g id="node12" class="node"><title>Node7</title>
<polygon fill="white" stroke="#bfbfbf" points="726.5,-11 726.5,-31 871.5,-31 871.5,-11 726.5,-11"/>
<text text-anchor="middle" x="799" y="-18" font-family="FreeSans" font-size="10.00">std::vector&lt; WorldManager * &gt;</text>
</g>
<!-- Node7&#45;&gt;Node6 -->
<g id="edge12" class="edge"><title>Node7&#45;&gt;Node6</title>
<path fill="none" stroke="#9a32cd" stroke-dasharray="5,2" d="M730.71,-32.4603C721.09,-33.8118 711.31,-35.0466 702,-36 566.607,-49.8654 405.577,-52.5509 328.122,-52.9872"/>
<polygon fill="#9a32cd" stroke="#9a32cd" points="731.257,-35.9177 740.65,-31.0166 730.251,-28.9904 731.257,-35.9177"/>
<text text-anchor="middle" x="517" y="-54" font-family="FreeSans" font-size="10.00"> WorldManagers</text>
</g>
<!-- Node8&#45;&gt;Node7 -->
<g id="edge14" class="edge"><title>Node8&#45;&gt;Node7</title>
<path fill="none" stroke="#9a32cd" stroke-dasharray="5,2" d="M591.789,-18.7956C633.457,-19.2389 685.106,-19.7884 726.414,-20.2278"/>
<polygon fill="#9a32cd" stroke="#9a32cd" points="591.733,-15.2949 581.696,-18.6883 591.659,-22.2945 591.733,-15.2949"/>
<text text-anchor="middle" x="655" y="-23" font-family="FreeSans" font-size="10.00"> elements</text>
</g>
<!-- Node9 -->
<g id="node16" class="node"><title>Node9</title>
<a xlink:href="classMezzanine_1_1ManagerBase.xhtml" target="_top" xlink:title="This is the base class from which all the Entresol and World Managers inherit.">
<polygon fill="white" stroke="black" points="219,-0 219,-20 345,-20 345,-0 219,-0"/>
<text text-anchor="middle" x="282" y="-7" font-family="FreeSans" font-size="10.00">Mezzanine::ManagerBase</text>
</a>
</g>
<!-- Node9&#45;&gt;Node8 -->
<g id="edge16" class="edge"><title>Node9&#45;&gt;Node8</title>
<path fill="none" stroke="midnightblue" d="M355.605,-12.5057C386.619,-13.5615 422.397,-14.7795 452.375,-15.8"/>
<polygon fill="midnightblue" stroke="midnightblue" points="355.398,-8.99673 345.285,-12.1544 355.16,-15.9927 355.398,-8.99673"/>
</g>
<!-- Node10 -->
<g id="node18" class="node"><title>Node10</title>
<a xlink:href="classMezzanine_1_1Entresol.xhtml" target="_top" xlink:title="This is the main entry point for the entire library.">
<polygon fill="white" stroke="black" points="9.5,-54 9.5,-74 110.5,-74 110.5,-54 9.5,-54"/>
<text text-anchor="middle" x="60" y="-61" font-family="FreeSans" font-size="10.00">Mezzanine::Entresol</text>
</a>
</g>
<!-- Node10&#45;&gt;Node9 -->
<g id="edge18" class="edge"><title>Node10&#45;&gt;Node9</title>
<path fill="none" stroke="#9a32cd" stroke-dasharray="5,2" d="M111.151,-51.5579C150.438,-42.0016 203.994,-28.9744 240.609,-20.0682"/>
<polygon fill="#9a32cd" stroke="#9a32cd" points="110.126,-48.2051 101.236,-53.9696 111.78,-55.0068 110.126,-48.2051"/>
<text text-anchor="middle" x="166" y="-47" font-family="FreeSans" font-size="10.00"> TheEntresol</text>
</g>
<!-- Node11 -->
<g id="node20" class="node"><title>Node11</title>
<a xlink:href="classMezzanine_1_1Singleton.xhtml" target="_top" xlink:title="Mezzanine::Singleton\l\&lt; Entresol \&gt;">
<polygon fill="white" stroke="black" points="228.5,-81 228.5,-113 335.5,-113 335.5,-81 228.5,-81"/>
<text text-anchor="start" x="236.5" y="-100" font-family="FreeSans" font-size="10.00">Mezzanine::Singleton</text>
<text text-anchor="middle" x="282" y="-88" font-family="FreeSans" font-size="10.00">&lt; Entresol &gt;</text>
</a>
</g>
<!-- Node10&#45;&gt;Node11 -->
<g id="edge22" class="edge"><title>Node10&#45;&gt;Node11</title>
<path fill="none" stroke="#9a32cd" stroke-dasharray="5,2" d="M120.839,-73.0436C154.527,-78.0513 196.021,-84.2193 228.468,-89.0426"/>
<polygon fill="#9a32cd" stroke="#9a32cd" points="121.059,-69.538 110.653,-71.5295 120.03,-76.4619 121.059,-69.538"/>
<text text-anchor="middle" x="166" y="-86" font-family="FreeSans" font-size="10.00"> SingletonPtr</text>
</g>
<!-- Node11&#45;&gt;Node10 -->
<g id="edge20" class="edge"><title>Node11&#45;&gt;Node10</title>
<path fill="none" stroke="midnightblue" d="M218.318,-82.398C210.16,-80.7786 201.9,-79.2618 194,-78 166.629,-73.6286 135.886,-70.3044 110.757,-67.9946"/>
<polygon fill="midnightblue" stroke="midnightblue" points="217.692,-85.8421 228.19,-84.414 219.092,-78.9837 217.692,-85.8421"/>
</g>
<!-- Node12&#45;&gt;Node5 -->
<g id="edge26" class="edge"><title>Node12&#45;&gt;Node5</title>
<path fill="none" stroke="#9a32cd" stroke-dasharray="5,2" d="M712.019,-248.721C708.636,-249.157 705.287,-249.584 702,-250 660.285,-255.275 613.23,-260.866 577.016,-265.092"/>
<polygon fill="#9a32cd" stroke="#9a32cd" points="712.772,-252.153 722.239,-247.395 711.871,-245.211 712.772,-252.153"/>
<text text-anchor="middle" x="655" y="-264" font-family="FreeSans" font-size="10.00"> PhysicsSettings</text>
</g>
<!-- Node13 -->
<g id="node27" class="node"><title>Node13</title>
<a xlink:href="classMezzanine_1_1Physics_1_1CollisionShape.xhtml" target="_top" xlink:title="This is the base class for all collision shapes.">
<polygon fill="white" stroke="black" points="467,-94 467,-126 567,-126 567,-94 467,-94"/>
<text text-anchor="start" x="475" y="-113" font-family="FreeSans" font-size="10.00">Mezzanine::Physics</text>
<text text-anchor="middle" x="517" y="-101" font-family="FreeSans" font-size="10.00">::CollisionShape</text>
</a>
</g>
<!-- Node13&#45;&gt;Node2 -->
<g id="edge80" class="edge"><title>Node13&#45;&gt;Node2</title>
<path fill="none" stroke="#9a32cd" stroke-dasharray="5,2" d="M577.549,-109.878C676.715,-109.679 871.903,-109.286 963.847,-109.101"/>
<polygon fill="#9a32cd" stroke="#9a32cd" points="577.383,-106.378 567.39,-109.899 577.397,-113.378 577.383,-106.378"/>
<text text-anchor="middle" x="799" y="-112" font-family="FreeSans" font-size="10.00"> ProxyShape</text>
</g>
<!-- Node13&#45;&gt;Node12 -->
<g id="edge30" class="edge"><title>Node13&#45;&gt;Node12</title>
<path fill="none" stroke="#9a32cd" stroke-dasharray="5,2" d="M577.253,-122.269C614.433,-131.194 662.417,-145.203 702,-165 732.199,-180.104 762.779,-204.687 781.317,-220.853"/>
<polygon fill="#9a32cd" stroke="#9a32cd" points="577.603,-118.757 567.069,-119.886 576.008,-125.573 577.603,-118.757"/>
<text text-anchor="middle" x="655" y="-168" font-family="FreeSans" font-size="10.00"> WorldObjectShape</text>
</g>
<!-- Node14 -->
<g id="node29" class="node"><title>Node14</title>
<a xlink:title="STL class.">
<polygon fill="white" stroke="#bfbfbf" points="253.5,-171 253.5,-191 310.5,-191 310.5,-171 253.5,-171"/>
<text text-anchor="middle" x="282" y="-178" font-family="FreeSans" font-size="10.00">std::string</text>
</a>
</g>
<!-- Node14&#45;&gt;Node5 -->
<g id="edge36" class="edge"><title>Node14&#45;&gt;Node5</title>
<path fill="none" stroke="#9a32cd" stroke-dasharray="5,2" d="M317.643,-194.802C365.278,-213.248 448.588,-245.509 490.836,-261.869"/>
<polygon fill="#9a32cd" stroke="#9a32cd" points="318.636,-191.434 308.047,-191.086 316.108,-197.961 318.636,-191.434"/>
<text text-anchor="middle" x="398" y="-237" font-family="FreeSans" font-size="10.00"> Name</text>
</g>
<!-- Node14&#45;&gt;Node13 -->
<g id="edge32" class="edge"><title>Node14&#45;&gt;Node13</title>
<path fill="none" stroke="#9a32cd" stroke-dasharray="5,2" d="M320.463,-169.379C360.435,-157.303 423.16,-138.352 466.965,-125.117"/>
<polygon fill="#9a32cd" stroke="#9a32cd" points="319.376,-166.051 310.816,-172.294 321.401,-172.752 319.376,-166.051"/>
<text text-anchor="middle" x="398" y="-156" font-family="FreeSans" font-size="10.00"> Name</text>
</g>
<!-- Node15 -->
<g id="node31" class="node"><title>Node15</title>
<a xlink:title="STL class.">
<polygon fill="white" stroke="#bfbfbf" points="14.5,-165 14.5,-197 105.5,-197 105.5,-165 14.5,-165"/>
<text text-anchor="start" x="22.5" y="-184" font-family="FreeSans" font-size="10.00">std::basic_string&lt;</text>
<text text-anchor="middle" x="60" y="-172" font-family="FreeSans" font-size="10.00"> char &gt;</text>
</a>
</g>
<!-- Node15&#45;&gt;Node14 -->
<g id="edge34" class="edge"><title>Node15&#45;&gt;Node14</title>
<path fill="none" stroke="midnightblue" d="M115.928,-181C159.64,-181 218.613,-181 253.248,-181"/>
<polygon fill="midnightblue" stroke="midnightblue" points="115.729,-177.5 105.729,-181 115.729,-184.5 115.729,-177.5"/>
</g>
<!-- Node16 -->
<g id="node34" class="node"><title>Node16</title>
<polygon fill="white" stroke="#bfbfbf" points="968,-340 968,-372 1060,-372 1060,-340 968,-340"/>
<text text-anchor="start" x="976" y="-359" font-family="FreeSans" font-size="10.00">std::set&lt; Physics::</text>
<text text-anchor="middle" x="1014" y="-347" font-family="FreeSans" font-size="10.00">Collision * &gt;</text>
</g>
<!-- Node16&#45;&gt;Node5 -->
<g id="edge38" class="edge"><title>Node16&#45;&gt;Node5</title>
<path fill="none" stroke="#9a32cd" stroke-dasharray="5,2" d="M957.782,-346.498C863.209,-330.514 673.161,-298.393 576.456,-282.049"/>
<polygon fill="#9a32cd" stroke="#9a32cd" points="957.287,-349.964 967.731,-348.18 958.454,-343.062 957.287,-349.964"/>
<text text-anchor="middle" x="799" y="-335" font-family="FreeSans" font-size="10.00"> CurrentCollisions</text>
</g>
<!-- Node17&#45;&gt;Node16 -->
<g id="edge40" class="edge"><title>Node17&#45;&gt;Node16</title>
<path fill="none" stroke="#9a32cd" stroke-dasharray="5,2" d="M832.581,-473.289C875.944,-445.255 950.416,-397.108 989.076,-372.114"/>
<polygon fill="#9a32cd" stroke="#9a32cd" points="830.582,-470.414 824.084,-478.783 834.382,-476.293 830.582,-470.414"/>
<text text-anchor="middle" x="921" y="-432" font-family="FreeSans" font-size="10.00"> keys</text>
</g>
<!-- Node18 -->
<g id="node38" class="node"><title>Node18</title>
<polygon fill="white" stroke="#bfbfbf" points="469,-552 469,-572 565,-572 565,-552 469,-552"/>
<text text-anchor="middle" x="517" y="-559" font-family="FreeSans" font-size="10.00">std::vector&lt; Real &gt;</text>
</g>
<!-- Node18&#45;&gt;Node17 -->
<g id="edge42" class="edge"><title>Node18&#45;&gt;Node17</title>
<path fill="none" stroke="#9a32cd" stroke-dasharray="5,2" d="M575.269,-552.466C611.89,-546.029 659.989,-536.761 702,-526 718.613,-521.745 736.562,-516.263 752.451,-511.096"/>
<polygon fill="#9a32cd" stroke="#9a32cd" points="574.511,-549.045 565.258,-554.205 575.71,-555.941 574.511,-549.045"/>
<text text-anchor="middle" x="655" y="-548" font-family="FreeSans" font-size="10.00"> PenetrationDistances</text>
</g>
<!-- Node19 -->
<g id="node41" class="node"><title>Node19</title>
<a xlink:href="structMezzanine_1_1Physics_1_1CollisionInternalData.xhtml" target="_top" xlink:title="Used to insulate the interface from the implementation details for bullet.">
<polygon fill="white" stroke="black" points="462,-502 462,-534 572,-534 572,-502 462,-502"/>
<text text-anchor="start" x="470" y="-521" font-family="FreeSans" font-size="10.00">Mezzanine::Physics</text>
<text text-anchor="middle" x="517" y="-509" font-family="FreeSans" font-size="10.00">::CollisionInternalData</text>
</a>
</g>
<!-- Node19&#45;&gt;Node17 -->
<g id="edge46" class="edge"><title>Node19&#45;&gt;Node17</title>
<path fill="none" stroke="#9a32cd" stroke-dasharray="5,2" d="M582.252,-512.678C633,-508.539 702.367,-502.881 748.828,-499.092"/>
<polygon fill="#9a32cd" stroke="#9a32cd" points="581.724,-509.209 572.042,-513.511 582.293,-516.186 581.724,-509.209"/>
<text text-anchor="middle" x="655" y="-513" font-family="FreeSans" font-size="10.00"> InternalData</text>
</g>
<!-- Node20&#45;&gt;Node5 -->
<g id="edge48" class="edge"><title>Node20&#45;&gt;Node5</title>
<path fill="none" stroke="#9a32cd" stroke-dasharray="5,2" d="M763.684,-362.76C745.705,-352.645 723.213,-341.033 702,-333 661.777,-317.768 648.857,-323.438 608,-310 583.605,-301.976 556.555,-290.309 538.337,-282.023"/>
<polygon fill="#9a32cd" stroke="#9a32cd" points="762.226,-365.958 772.644,-367.886 765.702,-359.882 762.226,-365.958"/>
<text text-anchor="middle" x="655" y="-336" font-family="FreeSans" font-size="10.00"> GraphicsSettings</text>
</g>
<!-- Node21 -->
<g id="node46" class="node"><title>Node21</title>
<a xlink:href="classMezzanine_1_1Graphics_1_1Mesh.xhtml" target="_top" xlink:title="This class is used to check and modify the properties of a graphics mesh.">
<polygon fill="white" stroke="black" points="464.5,-448 464.5,-480 569.5,-480 569.5,-448 464.5,-448"/>
<text text-anchor="start" x="472.5" y="-467" font-family="FreeSans" font-size="10.00">Mezzanine::Graphics</text>
<text text-anchor="middle" x="517" y="-455" font-family="FreeSans" font-size="10.00">::Mesh</text>
</a>
</g>
<!-- Node21&#45;&gt;Node20 -->
<g id="edge52" class="edge"><title>Node21&#45;&gt;Node20</title>
<path fill="none" stroke="#9a32cd" stroke-dasharray="5,2" d="M579.693,-446.013C589.174,-443.314 598.843,-440.574 608,-438 649.729,-426.268 660.287,-423.789 702,-412 715.578,-408.163 730.208,-403.97 743.886,-400.025"/>
<polygon fill="#9a32cd" stroke="#9a32cd" points="578.567,-442.694 569.91,-448.801 580.486,-449.426 578.567,-442.694"/>
<text text-anchor="middle" x="655" y="-441" font-family="FreeSans" font-size="10.00"> WorldObjectMesh</text>
</g>
<!-- Node22 -->
<g id="node48" class="node"><title>Node22</title>
<a xlink:href="classMezzanine_1_1Graphics_1_1InternalMeshData.xhtml" target="_top" xlink:title="This class is used to store the internal structures needed by the Mesh class.">
<polygon fill="white" stroke="black" points="229.5,-486 229.5,-518 334.5,-518 334.5,-486 229.5,-486"/>
<text text-anchor="start" x="237.5" y="-505" font-family="FreeSans" font-size="10.00">Mezzanine::Graphics</text>
<text text-anchor="middle" x="282" y="-493" font-family="FreeSans" font-size="10.00">::InternalMeshData</text>
</a>
</g>
<!-- Node22&#45;&gt;Node21 -->
<g id="edge54" class="edge"><title>Node22&#45;&gt;Node21</title>
<path fill="none" stroke="#9a32cd" stroke-dasharray="5,2" d="M345.001,-491.813C382.335,-485.776 429.099,-478.214 464.437,-472.499"/>
<polygon fill="#9a32cd" stroke="#9a32cd" points="344.052,-488.421 334.739,-493.472 345.169,-495.331 344.052,-488.421"/>
<text text-anchor="middle" x="398" y="-490" font-family="FreeSans" font-size="10.00"> IMD</text>
</g>
<!-- Node23 -->
<g id="node50" class="node"><title>Node23</title>
<a xlink:href="classMezzanine_1_1Graphics_1_1Skeleton.xhtml" target="_top" xlink:title="This class encapsulates the Skeletal animation functionality of a Mesh.">
<polygon fill="white" stroke="black" points="229.5,-592 229.5,-624 334.5,-624 334.5,-592 229.5,-592"/>
<text text-anchor="start" x="237.5" y="-611" font-family="FreeSans" font-size="10.00">Mezzanine::Graphics</text>
<text text-anchor="middle" x="282" y="-599" font-family="FreeSans" font-size="10.00">::Skeleton</text>
</a>
</g>
<!-- Node23&#45;&gt;Node21 -->
<g id="edge56" class="edge"><title>Node23&#45;&gt;Node21</title>
<path fill="none" stroke="#9a32cd" stroke-dasharray="5,2" d="M309.25,-585.557C340.413,-560.648 393.646,-520.361 444,-493 452.627,-488.312 462.176,-483.967 471.446,-480.143"/>
<polygon fill="#9a32cd" stroke="#9a32cd" points="307.034,-582.848 301.442,-591.847 311.425,-588.299 307.034,-582.848"/>
<text text-anchor="middle" x="398" y="-542" font-family="FreeSans" font-size="10.00"> MeshSkel</text>
</g>
<!-- Node25 -->
<g id="node54" class="node"><title>Node25</title>
<a xlink:href="classMezzanine_1_1Graphics_1_1Bone.xhtml" target="_top" xlink:title="This class encapsulates the bones contained in a skeleton used for animation.">
<polygon fill="white" stroke="black" points="464.5,-638 464.5,-670 569.5,-670 569.5,-638 464.5,-638"/>
<text text-anchor="start" x="472.5" y="-657" font-family="FreeSans" font-size="10.00">Mezzanine::Graphics</text>
<text text-anchor="middle" x="517" y="-645" font-family="FreeSans" font-size="10.00">::Bone</text>
</a>
</g>
<!-- Node23&#45;&gt;Node25 -->
<g id="edge64" class="edge"><title>Node23&#45;&gt;Node25</title>
<path fill="none" stroke="#9a32cd" stroke-dasharray="5,2" d="M345.001,-620.332C382.335,-627.64 429.099,-636.794 464.437,-643.711"/>
<polygon fill="#9a32cd" stroke="#9a32cd" points="345.225,-616.81 334.739,-618.323 343.88,-623.679 345.225,-616.81"/>
<text text-anchor="middle" x="398" y="-638" font-family="FreeSans" font-size="10.00"> Host</text>
</g>
<!-- Node24 -->
<g id="node52" class="node"><title>Node24</title>
<polygon fill="white" stroke="#bfbfbf" points="746.5,-621 746.5,-641 851.5,-641 851.5,-621 746.5,-621"/>
<text text-anchor="middle" x="799" y="-628" font-family="FreeSans" font-size="10.00">std::vector&lt; Bone * &gt;</text>
</g>
<!-- Node24&#45;&gt;Node23 -->
<g id="edge58" class="edge"><title>Node24&#45;&gt;Node23</title>
<path fill="none" stroke="#9a32cd" stroke-dasharray="5,2" d="M735.98,-626.158C694.522,-623.125 639.057,-619.359 590,-617 500.366,-612.69 395.951,-610.164 334.614,-608.935"/>
<polygon fill="#9a32cd" stroke="#9a32cd" points="735.975,-629.667 746.206,-626.912 736.49,-622.686 735.975,-629.667"/>
<text text-anchor="middle" x="517" y="-620" font-family="FreeSans" font-size="10.00"> Bones</text>
</g>
<!-- Node25&#45;&gt;Node24 -->
<g id="edge60" class="edge"><title>Node25&#45;&gt;Node24</title>
<path fill="none" stroke="#9a32cd" stroke-dasharray="5,2" d="M579.752,-648.882C629.719,-644.807 698.872,-639.166 746.069,-635.317"/>
<polygon fill="#9a32cd" stroke="#9a32cd" points="579.394,-645.399 569.711,-649.701 579.963,-652.376 579.394,-645.399"/>
<text text-anchor="middle" x="655" y="-649" font-family="FreeSans" font-size="10.00"> elements</text>
</g>
<!-- Node26 -->
<g id="node56" class="node"><title>Node26</title>
<a xlink:href="classMezzanine_1_1TransformableChildObject.xhtml" target="_top" xlink:title="This is an interface for all child 3D objects that can have their full transforms manipulated...">
<polygon fill="white" stroke="black" points="218,-652 218,-684 346,-684 346,-652 218,-652"/>
<text text-anchor="start" x="226" y="-671" font-family="FreeSans" font-size="10.00">Mezzanine::Transformable</text>
<text text-anchor="middle" x="282" y="-659" font-family="FreeSans" font-size="10.00">ChildObject</text>
</a>
</g>
<!-- Node26&#45;&gt;Node25 -->
<g id="edge62" class="edge"><title>Node26&#45;&gt;Node25</title>
<path fill="none" stroke="midnightblue" d="M356.417,-663.567C391.507,-661.476 432.546,-659.031 464.353,-657.136"/>
<polygon fill="midnightblue" stroke="midnightblue" points="355.989,-660.086 346.215,-664.174 356.405,-667.073 355.989,-660.086"/>
</g>
<!-- Node27 -->
<g id="node59" class="node"><title>Node27</title>
<a xlink:href="classMezzanine_1_1Graphics_1_1InternalSkeletonData.xhtml" target="_top" xlink:title="This class is used to store the internal structures needed by the Skeleton class.">
<polygon fill="white" stroke="black" points="4,-592 4,-624 116,-624 116,-592 4,-592"/>
<text text-anchor="start" x="12" y="-611" font-family="FreeSans" font-size="10.00">Mezzanine::Graphics</text>
<text text-anchor="middle" x="60" y="-599" font-family="FreeSans" font-size="10.00">::InternalSkeletonData</text>
</a>
</g>
<!-- Node27&#45;&gt;Node23 -->
<g id="edge66" class="edge"><title>Node27&#45;&gt;Node23</title>
<path fill="none" stroke="#9a32cd" stroke-dasharray="5,2" d="M126.048,-608C159.075,-608 198.491,-608 229.433,-608"/>
<polygon fill="#9a32cd" stroke="#9a32cd" points="126.02,-604.5 116.02,-608 126.02,-611.5 126.02,-604.5"/>
<text text-anchor="middle" x="166" y="-611" font-family="FreeSans" font-size="10.00"> ISD</text>
</g>
<!-- Node28 -->
<g id="node61" class="node"><title>Node28</title>
<polygon fill="white" stroke="#bfbfbf" points="220.5,-448 220.5,-468 343.5,-468 343.5,-448 220.5,-448"/>
<text text-anchor="middle" x="282" y="-455" font-family="FreeSans" font-size="10.00">std::vector&lt; SubMesh * &gt;</text>
</g>
<!-- Node28&#45;&gt;Node21 -->
<g id="edge68" class="edge"><title>Node28&#45;&gt;Node21</title>
<path fill="none" stroke="#9a32cd" stroke-dasharray="5,2" d="M354.083,-459.84C389.702,-460.75 431.901,-461.827 464.426,-462.658"/>
<polygon fill="#9a32cd" stroke="#9a32cd" points="353.83,-456.333 343.743,-459.576 353.651,-463.331 353.83,-456.333"/>
<text text-anchor="middle" x="398" y="-464" font-family="FreeSans" font-size="10.00"> SubMeshes</text>
</g>
<!-- Node29 -->
<g id="node63" class="node"><title>Node29</title>
<a xlink:href="classMezzanine_1_1Graphics_1_1SubMesh.xhtml" target="_top" xlink:title="This class represents a sub&#45;section of an overall mesh.">
<polygon fill="white" stroke="black" points="7.5,-442 7.5,-474 112.5,-474 112.5,-442 7.5,-442"/>
<text text-anchor="start" x="15.5" y="-461" font-family="FreeSans" font-size="10.00">Mezzanine::Graphics</text>
<text text-anchor="middle" x="60" y="-449" font-family="FreeSans" font-size="10.00">::SubMesh</text>
</a>
</g>
<!-- Node29&#45;&gt;Node28 -->
<g id="edge70" class="edge"><title>Node29&#45;&gt;Node28</title>
<path fill="none" stroke="#9a32cd" stroke-dasharray="5,2" d="M122.724,-458C153.281,-458 189.9,-458 220.317,-458"/>
<polygon fill="#9a32cd" stroke="#9a32cd" points="122.611,-454.5 112.611,-458 122.611,-461.5 122.611,-454.5"/>
<text text-anchor="middle" x="166" y="-461" font-family="FreeSans" font-size="10.00"> elements</text>
</g>
<!-- Node30 -->
<g id="node65" class="node"><title>Node30</title>
<a xlink:href="classMezzanine_1_1Internal_1_1InternalWorldObjectGraphicsSettings.xhtml" target="_top" xlink:title="Used to store internal data about an world objects.">
<polygon fill="white" stroke="black" points="444.5,-380 444.5,-424 589.5,-424 589.5,-380 444.5,-380"/>
<text text-anchor="start" x="452.5" y="-411" font-family="FreeSans" font-size="10.00">Mezzanine::Internal</text>
<text text-anchor="start" x="452.5" y="-399" font-family="FreeSans" font-size="10.00">::InternalWorldObjectGraphics</text>
<text text-anchor="middle" x="517" y="-387" font-family="FreeSans" font-size="10.00">Settings</text>
</a>
</g>
<!-- Node30&#45;&gt;Node20 -->
<g id="edge72" class="edge"><title>Node30&#45;&gt;Node20</title>
<path fill="none" stroke="#9a32cd" stroke-dasharray="5,2" d="M599.626,-396.726C637.592,-394.303 682.415,-391.442 719.936,-389.047"/>
<polygon fill="#9a32cd" stroke="#9a32cd" points="599.379,-393.235 589.622,-397.365 599.825,-400.22 599.379,-393.235"/>
<text text-anchor="middle" x="655" y="-399" font-family="FreeSans" font-size="10.00"> IWOGS</text>
</g>
<!-- Node31 -->
<g id="node67" class="node"><title>Node31</title>
<polygon fill="white" stroke="#bfbfbf" points="212.5,-386 212.5,-418 351.5,-418 351.5,-386 212.5,-386"/>
<text text-anchor="start" x="220.5" y="-405" font-family="FreeSans" font-size="10.00">std::map&lt; Whole, Mezzanine</text>
<text text-anchor="middle" x="282" y="-393" font-family="FreeSans" font-size="10.00">::ColourValue &gt;</text>
</g>
<!-- Node31&#45;&gt;Node30 -->
<g id="edge74" class="edge"><title>Node31&#45;&gt;Node30</title>
<path fill="none" stroke="#9a32cd" stroke-dasharray="5,2" d="M361.66,-402C388.437,-402 418.15,-402 444.359,-402"/>
<polygon fill="#9a32cd" stroke="#9a32cd" points="361.554,-398.5 351.554,-402 361.554,-405.5 361.554,-398.5"/>
<text text-anchor="middle" x="398" y="-429" font-family="FreeSans" font-size="10.00"> Specular</text>
<text text-anchor="middle" x="398" y="-417" font-family="FreeSans" font-size="10.00">Ambient</text>
<text text-anchor="middle" x="398" y="-405" font-family="FreeSans" font-size="10.00">Diffuse</text>
</g>
<!-- Node32 -->
<g id="node69" class="node"><title>Node32</title>
<a xlink:href="classMezzanine_1_1ColourValue.xhtml" target="_top" xlink:title="This is a simple class for holding 4 reals representing the colour any give object or lightsource can...">
<polygon fill="white" stroke="black" points="0.5,-392 0.5,-412 119.5,-412 119.5,-392 0.5,-392"/>
<text text-anchor="middle" x="60" y="-399" font-family="FreeSans" font-size="10.00">Mezzanine::ColourValue</text>
</a>
</g>
<!-- Node32&#45;&gt;Node31 -->
<g id="edge76" class="edge"><title>Node32&#45;&gt;Node31</title>
<path fill="none" stroke="#9a32cd" stroke-dasharray="5,2" d="M130.028,-402C156.266,-402 186.057,-402 212.268,-402"/>
<polygon fill="#9a32cd" stroke="#9a32cd" points="129.784,-398.5 119.784,-402 129.784,-405.5 129.784,-398.5"/>
<text text-anchor="middle" x="166" y="-405" font-family="FreeSans" font-size="10.00"> elements</text>
</g>
<!-- Node33 -->
<g id="node71" class="node"><title>Node33</title>
<a xlink:href="classMezzanine_1_1Vector3.xhtml" target="_top" xlink:title="This is used to represent a point in space, or a vector through space.">
<polygon fill="white" stroke="black" points="749,-53 749,-73 849,-73 849,-53 749,-53"/>
<text text-anchor="middle" x="799" y="-60" font-family="FreeSans" font-size="10.00">Mezzanine::Vector3</text>
</a>
</g>
<!-- Node33&#45;&gt;Node2 -->
<g id="edge78" class="edge"><title>Node33&#45;&gt;Node2</title>
<path fill="none" stroke="#9a32cd" stroke-dasharray="5,2" d="M859.242,-68.0353C886.075,-71.0847 917.899,-75.8182 946,-83 956.164,-85.5975 966.885,-89.2438 976.734,-92.9857"/>
<polygon fill="#9a32cd" stroke="#9a32cd" points="859.539,-64.5471 849.22,-66.9474 858.784,-71.5062 859.539,-64.5471"/>
<text text-anchor="middle" x="921" y="-86" font-family="FreeSans" font-size="10.00"> BodyScale</text>
</g>
</g>
</svg>
        <g id="navigator" transform="translate(0 0)" fill="#404254">
                <rect fill="#f2f5e9" fill-opacity="0.5" stroke="#606060" stroke-width=".5" x="0" y="0" width="60" height="60"/>
                <use id="zoomplus" xlink:href="#zoomPlus" x="17" y="9" onmousedown="handleZoom(evt,'in')"/>
                <use id="zoomminus" xlink:href="#zoomMin" x="42" y="9" onmousedown="handleZoom(evt,'out')"/>
                <use id="reset" xlink:href="#resetDef" x="30" y="36" onmousedown="handleReset()"/>
                <g id="arrowUp" xlink:href="#dirArrow" transform="translate(30 24)" onmousedown="handlePan(0,-1)">
                  <use xlink:href="#rim" fill="#404040">
                        <set attributeName="fill" to="#808080" begin="arrowUp.mouseover" end="arrowUp.mouseout"/>
                  </use>
                  <path fill="none" stroke="white" stroke-width="1.5" d="M0,-3.0v7 M-2.5,-0.5L0,-3.0L2.5,-0.5"/>
                </g>
                <g id="arrowRight" xlink:href="#dirArrow" transform="rotate(90) translate(36 -43)" onmousedown="handlePan(1,0)">
                  <use xlink:href="#rim" fill="#404040">
                        <set attributeName="fill" to="#808080" begin="arrowRight.mouseover" end="arrowRight.mouseout"/>
                  </use>
                  <path fill="none" stroke="white" stroke-width="1.5" d="M0,-3.0v7 M-2.5,-0.5L0,-3.0L2.5,-0.5"/>
                </g>
                <g id="arrowDown" xlink:href="#dirArrow" transform="rotate(180) translate(-30 -48)" onmousedown="handlePan(0,1)">
                  <use xlink:href="#rim" fill="#404040">
                        <set attributeName="fill" to="#808080" begin="arrowDown.mouseover" end="arrowDown.mouseout"/>
                  </use>
                  <path fill="none" stroke="white" stroke-width="1.5" d="M0,-3.0v7 M-2.5,-0.5L0,-3.0L2.5,-0.5"/>
                </g>
                <g id="arrowLeft" xlink:href="#dirArrow" transform="rotate(270) translate(-36 17)" onmousedown="handlePan(-1,0)">
                  <use xlink:href="#rim" fill="#404040">
                        <set attributeName="fill" to="#808080" begin="arrowLeft.mouseover" end="arrowLeft.mouseout"/>
                  </use>
                  <path fill="none" stroke="white" stroke-width="1.5" d="M0,-3.0v7 M-2.5,-0.5L0,-3.0L2.5,-0.5"/>
                </g>
        </g>
        <svg viewBox="0 0 15 15" width="100%" height="30px" preserveAspectRatio="xMaxYMin meet">
         <g id="arrow_out" transform="scale(0.3 0.3)">
          <a xlink:href="classMezzanine_1_1Physics_1_1RigidProxy__coll__graph_org.svg" target="_base">
           <rect id="button" ry="5" rx="5" y="6" x="6" height="38" width="38"
                fill="#f2f5e9" fill-opacity="0.5" stroke="#606060" stroke-width="1.0"/>
           <path id="arrow"
             d="M 11.500037,31.436501 C 11.940474,20.09759 22.043105,11.32322 32.158766,21.979434 L 37.068811,17.246167 C 37.068811,17.246167 37.088388,32 37.088388,32 L 22.160133,31.978069 C 22.160133,31.978069 26.997745,27.140456 26.997745,27.140456 C 18.528582,18.264221 13.291696,25.230495 11.500037,31.436501 z"
             style="fill:#404040;"/>
          </a>
         </g>
        </svg>
</svg>
