<?xml version="1.0" encoding="UTF-8" standalone="no"?>
<!DOCTYPE svg PUBLIC "-//W3C//DTD SVG 1.1//EN"
 "http://www.w3.org/Graphics/SVG/1.1/DTD/svg11.dtd">
<!-- Generated by graphviz version 2.38.0 (20140413.2041)
 -->
<!-- Title: Mezzanine::NetworkException Pages: 1 -->
<svg width="813pt" height="203pt"
 viewBox="0.00 0.00 813.00 202.50" xmlns="http://www.w3.org/2000/svg" xmlns:xlink="http://www.w3.org/1999/xlink">
<g id="graph0" class="graph" transform="scale(1 1) rotate(0) translate(4 198.5)">
<title>Mezzanine::NetworkException</title>
<polygon fill="white" stroke="none" points="-4,4 -4,-198.5 809,-198.5 809,4 -4,4"/>
<!-- Node1 -->
<g id="node1" class="node"><title>Node1</title>
<polygon fill="#bfbfbf" stroke="black" points="446,-76.5 446,-95.5 596,-95.5 596,-76.5 446,-76.5"/>
<text text-anchor="middle" x="521" y="-83.5" font-family="Helvetica,sans-Serif" font-size="10.00">Mezzanine::NetworkException</text>
</g>
<!-- Node6 -->
<g id="node6" class="node"><title>Node6</title>
<g id="a_node6"><a xlink:href="classMezzanine_1_1NetworkNotFoundException.html" target="_top" xlink:title="Thrown when no network connection is available. ">
<polygon fill="white" stroke="black" points="644,-164 644,-194 793,-194 793,-164 644,-164"/>
<text text-anchor="start" x="652" y="-182" font-family="Helvetica,sans-Serif" font-size="10.00">Mezzanine::NetworkNotFound</text>
<text text-anchor="middle" x="718.5" y="-171" font-family="Helvetica,sans-Serif" font-size="10.00">Exception</text>
</a>
</g>
</g>
<!-- Node1&#45;&gt;Node6 -->
<g id="edge7" class="edge"><title>Node1&#45;&gt;Node6</title>
<path fill="none" stroke="midnightblue" d="M552.728,-101.029C574.082,-114.508 603.684,-133.459 632,-146 648.634,-153.367 668.099,-159.042 684.251,-163.901"/>
<polygon fill="midnightblue" stroke="midnightblue" points="554.441,-97.9709 544.11,-95.6214 550.72,-103.901 554.441,-97.9709"/>
</g>
<!-- Node1&#45;&gt;Node6 -->
<g id="edge8" class="edge"><title>Node1&#45;&gt;Node6</title>
<path fill="none" stroke="midnightblue" d="M536.024,-102.611C556.244,-120.587 595.207,-147.704 632,-164 635.806,-165.686 639.76,-167.283 643.789,-168.781"/>
<polygon fill="midnightblue" stroke="midnightblue" points="538.227,-99.8762 528.567,-95.5247 533.405,-104.95 538.227,-99.8762"/>
</g>
<!-- Node7 -->
<g id="node7" class="node"><title>Node7</title>
<g id="a_node7"><a xlink:href="classMezzanine_1_1NetworkPermissionException.html" target="_top" xlink:title="Thrown when permision was denied to a network interface or network resource. ">
<polygon fill="white" stroke="black" points="641,-115 641,-145 796,-145 796,-115 641,-115"/>
<text text-anchor="start" x="649" y="-133" font-family="Helvetica,sans-Serif" font-size="10.00">Mezzanine::NetworkPermission</text>
<text text-anchor="middle" x="718.5" y="-122" font-family="Helvetica,sans-Serif" font-size="10.00">Exception</text>
</a>
</g>
</g>
<!-- Node1&#45;&gt;Node7 -->
<g id="edge9" class="edge"><title>Node1&#45;&gt;Node7</title>
<path fill="none" stroke="midnightblue" d="M603.26,-97.6248C628.23,-102.982 654.679,-109.274 675.833,-114.977"/>
<polygon fill="midnightblue" stroke="midnightblue" points="603.917,-94.1865 593.41,-95.5445 602.471,-101.035 603.917,-94.1865"/>
</g>
<!-- Node1&#45;&gt;Node7 -->
<g id="edge10" class="edge"><title>Node1&#45;&gt;Node7</title>
<path fill="none" stroke="midnightblue" d="M554.196,-98.4074C577.675,-105.063 610.515,-112.938 640.593,-119.303"/>
<polygon fill="midnightblue" stroke="midnightblue" points="555.007,-94.998 544.426,-95.5413 553.037,-101.715 555.007,-94.998"/>
</g>
<!-- Node8 -->
<g id="node8" class="node"><title>Node8</title>
<g id="a_node8"><a xlink:href="classMezzanine_1_1NetworkReadException.html" target="_top" xlink:title="Thrown when data could not be read from the network (downloads) ">
<polygon fill="white" stroke="black" points="632,-76.5 632,-95.5 805,-95.5 805,-76.5 632,-76.5"/>
<text text-anchor="middle" x="718.5" y="-83.5" font-family="Helvetica,sans-Serif" font-size="10.00">Mezzanine::NetworkReadException</text>
</a>
</g>
</g>
<!-- Node1&#45;&gt;Node8 -->
<g id="edge11" class="edge"><title>Node1&#45;&gt;Node8</title>
<path fill="none" stroke="midnightblue" d="M606.407,-79.3062C614.854,-79.2346 623.436,-79.2314 631.895,-79.2965"/>
<polygon fill="midnightblue" stroke="midnightblue" points="606.147,-75.809 596.189,-79.4274 606.23,-82.8085 606.147,-75.809"/>
</g>
<!-- Node1&#45;&gt;Node8 -->
<g id="edge12" class="edge"><title>Node1&#45;&gt;Node8</title>
<path fill="none" stroke="midnightblue" d="M606.407,-92.6938C614.854,-92.7654 623.436,-92.7686 631.895,-92.7035"/>
<polygon fill="midnightblue" stroke="midnightblue" points="606.23,-89.1915 596.189,-92.5726 606.147,-96.191 606.23,-89.1915"/>
</g>
<!-- Node9 -->
<g id="node9" class="node"><title>Node9</title>
<g id="a_node9"><a xlink:href="classMezzanine_1_1NetworkURLException.html" target="_top" xlink:title="Thrown when an address is invalid or could not be found. ">
<polygon fill="white" stroke="black" points="633.5,-38.5 633.5,-57.5 803.5,-57.5 803.5,-38.5 633.5,-38.5"/>
<text text-anchor="middle" x="718.5" y="-45.5" font-family="Helvetica,sans-Serif" font-size="10.00">Mezzanine::NetworkURLException</text>
</a>
</g>
</g>
<!-- Node1&#45;&gt;Node9 -->
<g id="edge13" class="edge"><title>Node1&#45;&gt;Node9</title>
<path fill="none" stroke="midnightblue" d="M557.102,-73.853C578.576,-68.5271 607.019,-62.5444 633.986,-57.547"/>
<polygon fill="midnightblue" stroke="midnightblue" points="555.973,-70.5295 547.158,-76.4076 557.714,-77.3094 555.973,-70.5295"/>
</g>
<!-- Node1&#45;&gt;Node9 -->
<g id="edge14" class="edge"><title>Node1&#45;&gt;Node9</title>
<path fill="none" stroke="midnightblue" d="M606.224,-76.3212C637.387,-70.5318 670.419,-63.4483 692.323,-57.5976"/>
<polygon fill="midnightblue" stroke="midnightblue" points="605.398,-72.9141 596.189,-78.1523 606.655,-79.8004 605.398,-72.9141"/>
</g>
<!-- Node10 -->
<g id="node10" class="node"><title>Node10</title>
<g id="a_node10"><a xlink:href="classMezzanine_1_1NetworkWriteException.html" target="_top" xlink:title="Thrown when data could not be read from the network (iloads) ">
<polygon fill="white" stroke="black" points="632,-0.5 632,-19.5 805,-19.5 805,-0.5 632,-0.5"/>
<text text-anchor="middle" x="718.5" y="-7.5" font-family="Helvetica,sans-Serif" font-size="10.00">Mezzanine::NetworkWriteException</text>
</a>
</g>
</g>
<!-- Node1&#45;&gt;Node10 -->
<g id="edge15" class="edge"><title>Node1&#45;&gt;Node10</title>
<path fill="none" stroke="midnightblue" d="M537.722,-70.0186C558.551,-54.5719 596.779,-32.7921 632,-20 632.429,-19.8443 632.859,-19.6896 633.291,-19.536"/>
<polygon fill="midnightblue" stroke="midnightblue" points="535.332,-67.4469 529.684,-76.4103 539.689,-72.9258 535.332,-67.4469"/>
</g>
<!-- Node1&#45;&gt;Node10 -->
<g id="edge16" class="edge"><title>Node1&#45;&gt;Node10</title>
<path fill="none" stroke="midnightblue" d="M559.144,-71.6286C579.964,-60.9556 606.754,-47.169 632,-38 654.439,-29.8503 681.513,-24.5506 699.097,-19.5944"/>
<polygon fill="midnightblue" stroke="midnightblue" points="557.339,-68.6203 550.024,-76.2855 560.522,-74.8545 557.339,-68.6203"/>
</g>
<!-- Node2 -->
<g id="node2" class="node"><title>Node2</title>
<g id="a_node2"><a xlink:href="classMezzanine_1_1IOException.html" target="_top" xlink:title="Thrown when there was an issue with IO but very little was known about it. ">
<polygon fill="white" stroke="black" points="286,-76.5 286,-95.5 410,-95.5 410,-76.5 286,-76.5"/>
<text text-anchor="middle" x="348" y="-83.5" font-family="Helvetica,sans-Serif" font-size="10.00">Mezzanine::IOException</text>
</a>
</g>
</g>
<!-- Node2&#45;&gt;Node1 -->
<g id="edge1" class="edge"><title>Node2&#45;&gt;Node1</title>
<path fill="none" stroke="midnightblue" d="M420.362,-79.3327C428.745,-79.2338 437.314,-79.2236 445.735,-79.3021"/>
<polygon fill="midnightblue" stroke="midnightblue" points="420.194,-75.8349 410.252,-79.4973 420.308,-82.834 420.194,-75.8349"/>
</g>
<!-- Node2&#45;&gt;Node1 -->
<g id="edge6" class="edge"><title>Node2&#45;&gt;Node1</title>
<path fill="none" stroke="midnightblue" d="M420.362,-92.6673C428.745,-92.7662 437.314,-92.7764 445.735,-92.6979"/>
<polygon fill="midnightblue" stroke="midnightblue" points="420.308,-89.166 410.252,-92.5027 420.194,-96.1651 420.308,-89.166"/>
</g>
<!-- Node3 -->
<g id="node3" class="node"><title>Node3</title>
<g id="a_node3"><a xlink:href="classMezzanine_1_1Exception.html" target="_top" xlink:title="This is the exception thrown by most Mezzanine system that can throw exceptions. ">
<polygon fill="white" stroke="black" points="125.5,-95.5 125.5,-114.5 238.5,-114.5 238.5,-95.5 125.5,-95.5"/>
<text text-anchor="middle" x="182" y="-102.5" font-family="Helvetica,sans-Serif" font-size="10.00">Mezzanine::Exception</text>
</a>
</g>
</g>
<!-- Node3&#45;&gt;Node2 -->
<g id="edge2" class="edge"><title>Node3&#45;&gt;Node2</title>
<path fill="none" stroke="midnightblue" d="M248.695,-97.389C260.977,-95.9661 273.767,-94.4843 285.903,-93.0783"/>
<polygon fill="midnightblue" stroke="midnightblue" points="248.054,-93.9398 238.523,-98.5675 248.859,-100.893 248.054,-93.9398"/>
</g>
<!-- Node4 -->
<g id="node4" class="node"><title>Node4</title>
<g id="a_node4"><a xlink:title="STL class. ">
<polygon fill="white" stroke="#bfbfbf" points="0,-76.5 0,-95.5 78,-95.5 78,-76.5 0,-76.5"/>
<text text-anchor="middle" x="39" y="-83.5" font-family="Helvetica,sans-Serif" font-size="10.00">std::exception</text>
</a>
</g>
</g>
<!-- Node4&#45;&gt;Node3 -->
<g id="edge3" class="edge"><title>Node4&#45;&gt;Node3</title>
<path fill="none" stroke="midnightblue" d="M88.3443,-92.5145C100.257,-94.1198 113.109,-95.8516 125.338,-97.4994"/>
<polygon fill="midnightblue" stroke="midnightblue" points="88.5345,-89.0086 78.1566,-91.1417 87.5996,-95.9459 88.5345,-89.0086"/>
</g>
<!-- Node5 -->
<g id="node5" class="node"><title>Node5</title>
<g id="a_node5"><a xlink:href="classMezzanine_1_1ExceptionBase.html" target="_top" xlink:title="This is the exception thrown by most Mezzanine systems that can throw exceptions. ...">
<polygon fill="white" stroke="black" points="114,-57.5 114,-76.5 250,-76.5 250,-57.5 114,-57.5"/>
<text text-anchor="middle" x="182" y="-64.5" font-family="Helvetica,sans-Serif" font-size="10.00">Mezzanine::ExceptionBase</text>
</a>
</g>
</g>
<!-- Node4&#45;&gt;Node5 -->
<g id="edge5" class="edge"><title>Node4&#45;&gt;Node5</title>
<path fill="none" stroke="midnightblue" d="M88.2794,-79.4943C96.4907,-78.3878 105.15,-77.2209 113.745,-76.0628"/>
<polygon fill="midnightblue" stroke="midnightblue" points="87.5996,-76.0541 78.1566,-80.8583 88.5345,-82.9914 87.5996,-76.0541"/>
</g>
<!-- Node5&#45;&gt;Node2 -->
<g id="edge4" class="edge"><title>Node5&#45;&gt;Node2</title>
<path fill="none" stroke="midnightblue" d="M260.258,-75.9506C268.892,-76.9509 277.596,-77.9592 285.985,-78.9312"/>
<polygon fill="midnightblue" stroke="midnightblue" points="260.515,-72.457 250.178,-74.7828 259.709,-79.4105 260.515,-72.457"/>
</g>
</g>
</svg>
