<?xml version="1.0" encoding="UTF-8" standalone="no"?>
<!DOCTYPE svg PUBLIC "-//W3C//DTD SVG 1.1//EN"
 "http://www.w3.org/Graphics/SVG/1.1/DTD/svg11.dtd">
<!-- Generated by graphviz version 2.26.3 (20100126.1600)
 -->
<!-- Title: Mezzanine::Resource::AssetGroup Pages: 1 -->
<!--zoomable 125 -->
<svg id="main" version="1.1" xmlns="http://www.w3.org/2000/svg" xmlns:xlink="http://www.w3.org/1999/xlink" xml:space="preserve" onload="init(evt)">
<style type="text/css"><![CDATA[
.edge:hover path { stroke: red; }
.edge:hover polygon { stroke: red; fill: red; }
]]></style>
<script type="text/javascript"><![CDATA[
var edges = document.getElementsByTagName('g');
if (edges && edges.length) {
  for (var i=0;i<edges.length;i++) {
    if (edges[i].id.substr(0,4)=='edge') {
      edges[i].setAttribute('class','edge');
    }
  }
}
]]></script>
        <defs>
                <circle id="rim" cx="0" cy="0" r="7"/>
                <circle id="rim2" cx="0" cy="0" r="3.5"/>
                <g id="zoomPlus">
                        <use xlink:href="#rim" fill="#404040">
                                <set attributeName="fill" to="#808080" begin="zoomplus.mouseover" end="zoomplus.mouseout"/>
                        </use>
                        <path d="M-4,0h8M0,-4v8" fill="none" stroke="white" stroke-width="1.5" pointer-events="none"/>
                </g>
                <g id="zoomMin">
                        <use xlink:href="#rim" fill="#404040">
                                <set attributeName="fill" to="#808080" begin="zoomminus.mouseover" end="zoomminus.mouseout"/>
                        </use>
                        <path d="M-4,0h8" fill="none" stroke="white" stroke-width="1.5" pointer-events="none"/>
                </g>
                <g id="dirArrow">
                        <path fill="none" stroke="white" stroke-width="1.5" d="M0,-3.0v7 M-2.5,-0.5L0,-3.0L2.5,-0.5"/>
                </g>
               <g id="resetDef">
                       <use xlink:href="#rim2" fill="#404040">
                               <set attributeName="fill" to="#808080" begin="reset.mouseover" end="reset.mouseout"/>
                       </use>
               </g>
        </defs>

<script type="text/javascript">
var viewWidth = 850;
var viewHeight = 125;
var sectionId = 'dynsection-0';
</script>
<script xlink:href="svgpan.js"/>
<svg id="graph" class="graph">
<g id="viewport">
<title>Mezzanine::Resource::AssetGroup</title>
<polygon fill="white" stroke="white" points="-4,5 -4,-121 847,-121 847,5 -4,5"/>
<!-- Node1 -->
<g id="node1" class="node"><title>Node1</title>
<polygon fill="#bfbfbf" stroke="black" points="734.5,-33 734.5,-65 841.5,-65 841.5,-33 734.5,-33"/>
<text text-anchor="start" x="742.5" y="-52" font-family="FreeSans" font-size="10.00">Mezzanine::Resource</text>
<text text-anchor="middle" x="788" y="-40" font-family="FreeSans" font-size="10.00">::AssetGroup</text>
</g>
<!-- Node2 -->
<g id="node2" class="node"><title>Node2</title>
<polygon fill="white" stroke="#bfbfbf" points="454.5,-33 454.5,-65 597.5,-65 597.5,-33 454.5,-33"/>
<text text-anchor="start" x="462.5" y="-52" font-family="FreeSans" font-size="10.00">std::map&lt; String, DataStream</text>
<text text-anchor="middle" x="526" y="-40" font-family="FreeSans" font-size="10.00">Ptr &gt;</text>
</g>
<!-- Node2&#45;&gt;Node1 -->
<g id="edge2" class="edge"><title>Node2&#45;&gt;Node1</title>
<path fill="none" stroke="#9a32cd" stroke-dasharray="5,2" d="M607.639,-49C648.931,-49 697.887,-49 734.368,-49"/>
<polygon fill="#9a32cd" stroke="#9a32cd" points="607.593,-45.5001 597.593,-49 607.593,-52.5001 607.593,-45.5001"/>
<text text-anchor="middle" x="666" y="-52" font-family="FreeSans" font-size="10.00"> GroupAssets</text>
</g>
<!-- Node3 -->
<g id="node4" class="node"><title>Node3</title>
<a xlink:href="classMezzanine_1_1CountedPtr.html" target="_top" xlink:title="A simple reference counting pointer. ">
<polygon fill="white" stroke="black" points="260,-69 260,-101 376,-101 376,-69 260,-69"/>
<text text-anchor="start" x="268" y="-88" font-family="FreeSans" font-size="10.00">Mezzanine::CountedPtr</text>
<text text-anchor="middle" x="318" y="-76" font-family="FreeSans" font-size="10.00">&lt; TypePointedTo &gt;</text>
</a>
</g>
<!-- Node3&#45;&gt;Node2 -->
<g id="edge4" class="edge"><title>Node3&#45;&gt;Node2</title>
<path fill="none" stroke="#9a32cd" stroke-dasharray="5,2" d="M386.093,-73.2147C407.995,-69.4239 432.32,-65.2139 454.463,-61.3815"/>
<polygon fill="#9a32cd" stroke="#9a32cd" points="385.473,-69.7699 376.216,-74.9241 386.667,-76.6674 385.473,-69.7699"/>
<text text-anchor="middle" x="415" y="-74" font-family="FreeSans" font-size="10.00"> elements</text>
</g>
<!-- Node7 -->
<g id="node12" class="node"><title>Node7</title>
<polygon fill="white" stroke="#bfbfbf" points="471.5,-85 471.5,-117 580.5,-117 580.5,-85 471.5,-85"/>
<text text-anchor="start" x="479.5" y="-104" font-family="FreeSans" font-size="10.00">std::vector&lt; Resource</text>
<text text-anchor="middle" x="526" y="-92" font-family="FreeSans" font-size="10.00">::DataStreamPtr &gt;</text>
</g>
<!-- Node3&#45;&gt;Node7 -->
<g id="edge14" class="edge"><title>Node3&#45;&gt;Node7</title>
<path fill="none" stroke="#9a32cd" stroke-dasharray="5,2" d="M386.204,-90.2465C413.831,-92.3716 445.297,-94.7921 471.372,-96.7978"/>
<polygon fill="#9a32cd" stroke="#9a32cd" points="386.455,-86.7555 376.216,-89.4782 385.918,-93.7349 386.455,-86.7555"/>
<text text-anchor="middle" x="415" y="-96" font-family="FreeSans" font-size="10.00"> elements</text>
</g>
<!-- Node4 -->
<g id="node6" class="node"><title>Node4</title>
<a xlink:href="classMezzanine_1_1ReferenceCount.html" target="_top" xlink:title="This exists once per object managed by a group of shared pointer to track items in memory...">
<polygon fill="white" stroke="black" points="0.5,-69 0.5,-101 137.5,-101 137.5,-69 0.5,-69"/>
<text text-anchor="start" x="8.5" y="-88" font-family="FreeSans" font-size="10.00">Mezzanine::ReferenceCount</text>
<text text-anchor="middle" x="69" y="-76" font-family="FreeSans" font-size="10.00">&lt; TypePointedTo &gt;</text>
</a>
</g>
<!-- Node4&#45;&gt;Node3 -->
<g id="edge6" class="edge"><title>Node4&#45;&gt;Node3</title>
<path fill="none" stroke="#9a32cd" stroke-dasharray="5,2" d="M147.756,-85C184.019,-85 226.296,-85 259.648,-85"/>
<polygon fill="#9a32cd" stroke="#9a32cd" points="147.7,-81.5001 137.699,-85 147.699,-88.5001 147.7,-81.5001"/>
<text text-anchor="middle" x="199" y="-88" font-family="FreeSans" font-size="10.00"> _ReferenceCounter</text>
</g>
<!-- Node5 -->
<g id="node8" class="node"><title>Node5</title>
<a xlink:title="STL class. ">
<polygon fill="white" stroke="#bfbfbf" points="289.5,-6 289.5,-26 346.5,-26 346.5,-6 289.5,-6"/>
<text text-anchor="middle" x="318" y="-13" font-family="FreeSans" font-size="10.00">std::string</text>
</a>
</g>
<!-- Node5&#45;&gt;Node1 -->
<g id="edge16" class="edge"><title>Node5&#45;&gt;Node1</title>
<path fill="none" stroke="#9a32cd" stroke-dasharray="5,2" d="M356.918,-14.5516C384.11,-13.614 421.264,-12.4813 454,-12 517.993,-11.0591 534.296,-5.85493 598,-12 644.496,-16.4851 696.515,-27.0078 734.352,-35.6894"/>
<polygon fill="#9a32cd" stroke="#9a32cd" points="356.52,-11.0633 346.649,-14.9127 356.766,-18.059 356.52,-11.0633"/>
<text text-anchor="middle" x="526" y="-15" font-family="FreeSans" font-size="10.00"> Name</text>
</g>
<!-- Node5&#45;&gt;Node2 -->
<g id="edge8" class="edge"><title>Node5&#45;&gt;Node2</title>
<path fill="none" stroke="#9a32cd" stroke-dasharray="5,2" d="M356.705,-21.7669C379.747,-25.2343 409.558,-29.78 436,-34 441.944,-34.9487 448.107,-35.9462 454.292,-36.9572"/>
<polygon fill="#9a32cd" stroke="#9a32cd" points="357.039,-18.2779 346.63,-20.2546 356,-25.2004 357.039,-18.2779"/>
<text text-anchor="middle" x="415" y="-37" font-family="FreeSans" font-size="10.00"> keys</text>
</g>
<!-- Node6 -->
<g id="node10" class="node"><title>Node6</title>
<a xlink:title="STL class. ">
<polygon fill="white" stroke="#bfbfbf" points="23.5,-0 23.5,-32 114.5,-32 114.5,-0 23.5,-0"/>
<text text-anchor="start" x="31.5" y="-19" font-family="FreeSans" font-size="10.00">std::basic_string&lt;</text>
<text text-anchor="middle" x="69" y="-7" font-family="FreeSans" font-size="10.00"> char &gt;</text>
</a>
</g>
<!-- Node6&#45;&gt;Node5 -->
<g id="edge10" class="edge"><title>Node6&#45;&gt;Node5</title>
<path fill="none" stroke="midnightblue" d="M124.88,-16C175.906,-16 249.296,-16 289.311,-16"/>
<polygon fill="midnightblue" stroke="midnightblue" points="124.67,-12.5001 114.67,-16 124.67,-19.5001 124.67,-12.5001"/>
</g>
<!-- Node7&#45;&gt;Node1 -->
<g id="edge12" class="edge"><title>Node7&#45;&gt;Node1</title>
<path fill="none" stroke="#9a32cd" stroke-dasharray="5,2" d="M590.651,-89.2712C627.449,-82.465 674.37,-73.5673 716,-65 721.895,-63.7869 728.052,-62.4799 734.176,-61.1544"/>
<polygon fill="#9a32cd" stroke="#9a32cd" points="589.752,-85.8778 580.553,-91.1335 591.022,-92.7617 589.752,-85.8778"/>
<text text-anchor="middle" x="666" y="-87" font-family="FreeSans" font-size="10.00"> UnnamedGroupAssets</text>
</g>
</g>
</svg>
        <g id="navigator" transform="translate(0 0)" fill="#404254">
                <rect fill="#f2f5e9" fill-opacity="0.5" stroke="#606060" stroke-width=".5" x="0" y="0" width="60" height="60"/>
                <use id="zoomplus" xlink:href="#zoomPlus" x="17" y="9" onmousedown="handleZoom(evt,'in')"/>
                <use id="zoomminus" xlink:href="#zoomMin" x="42" y="9" onmousedown="handleZoom(evt,'out')"/>
                <use id="reset" xlink:href="#resetDef" x="30" y="36" onmousedown="handleReset()"/>
                <g id="arrowUp" xlink:href="#dirArrow" transform="translate(30 24)" onmousedown="handlePan(0,-1)">
                  <use xlink:href="#rim" fill="#404040">
                        <set attributeName="fill" to="#808080" begin="arrowUp.mouseover" end="arrowUp.mouseout"/>
                  </use>
                  <path fill="none" stroke="white" stroke-width="1.5" d="M0,-3.0v7 M-2.5,-0.5L0,-3.0L2.5,-0.5"/>
                </g>
                <g id="arrowRight" xlink:href="#dirArrow" transform="rotate(90) translate(36 -43)" onmousedown="handlePan(1,0)">
                  <use xlink:href="#rim" fill="#404040">
                        <set attributeName="fill" to="#808080" begin="arrowRight.mouseover" end="arrowRight.mouseout"/>
                  </use>
                  <path fill="none" stroke="white" stroke-width="1.5" d="M0,-3.0v7 M-2.5,-0.5L0,-3.0L2.5,-0.5"/>
                </g>
                <g id="arrowDown" xlink:href="#dirArrow" transform="rotate(180) translate(-30 -48)" onmousedown="handlePan(0,1)">
                  <use xlink:href="#rim" fill="#404040">
                        <set attributeName="fill" to="#808080" begin="arrowDown.mouseover" end="arrowDown.mouseout"/>
                  </use>
                  <path fill="none" stroke="white" stroke-width="1.5" d="M0,-3.0v7 M-2.5,-0.5L0,-3.0L2.5,-0.5"/>
                </g>
                <g id="arrowLeft" xlink:href="#dirArrow" transform="rotate(270) translate(-36 17)" onmousedown="handlePan(-1,0)">
                  <use xlink:href="#rim" fill="#404040">
                        <set attributeName="fill" to="#808080" begin="arrowLeft.mouseover" end="arrowLeft.mouseout"/>
                  </use>
                  <path fill="none" stroke="white" stroke-width="1.5" d="M0,-3.0v7 M-2.5,-0.5L0,-3.0L2.5,-0.5"/>
                </g>
        </g>
        <svg viewBox="0 0 15 15" width="100%" height="30px" preserveAspectRatio="xMaxYMin meet">
         <g id="arrow_out" transform="scale(0.3 0.3)">
          <a xlink:href="classMezzanine_1_1Resource_1_1AssetGroup__coll__graph_org.svg" target="_base">
           <rect id="button" ry="5" rx="5" y="6" x="6" height="38" width="38"
                fill="#f2f5e9" fill-opacity="0.5" stroke="#606060" stroke-width="1.0"/>
           <path id="arrow"
             d="M 11.500037,31.436501 C 11.940474,20.09759 22.043105,11.32322 32.158766,21.979434 L 37.068811,17.246167 C 37.068811,17.246167 37.088388,32 37.088388,32 L 22.160133,31.978069 C 22.160133,31.978069 26.997745,27.140456 26.997745,27.140456 C 18.528582,18.264221 13.291696,25.230495 11.500037,31.436501 z"
             style="fill:#404040;"/>
          </a>
         </g>
        </svg>
</svg>
