<?xml version="1.0" encoding="UTF-8" standalone="no"?>
<!DOCTYPE svg PUBLIC "-//W3C//DTD SVG 1.1//EN"
 "http://www.w3.org/Graphics/SVG/1.1/DTD/svg11.dtd">
<!-- Generated by graphviz version 2.26.3 (20100126.1600)
 -->
<!-- Title: Mezzanine::Light Pages: 1 -->
<!--zoomable 790 -->
<svg id="main" version="1.1" xmlns="http://www.w3.org/2000/svg" xmlns:xlink="http://www.w3.org/1999/xlink" xml:space="preserve" onload="init(evt)">
        <defs>
                <circle id="rim" cx="0" cy="0" r="7"/>
                <circle id="rim2" cx="0" cy="0" r="3.5"/>
                <g id="zoomPlus">
                        <use xlink:href="#rim" fill="#404040">
                                <set attributeName="fill" to="#808080" begin="zoomplus.mouseover" end="zoomplus.mouseout"/>
                        </use>
                        <path d="M-4,0h8M0,-4v8" fill="none" stroke="white" stroke-width="1.5" pointer-events="none"/>
                </g>
                <g id="zoomMin">
                        <use xlink:href="#rim" fill="#404040">
                                <set attributeName="fill" to="#808080" begin="zoomminus.mouseover" end="zoomminus.mouseout"/>
                        </use>
                        <path d="M-4,0h8" fill="none" stroke="white" stroke-width="1.5" pointer-events="none"/>
                </g>
                <g id="dirArrow">
                        <path fill="none" stroke="white" stroke-width="1.5" d="M0,-3.0v7 M-2.5,-0.5L0,-3.0L2.5,-0.5"/>
                </g>
               <g id="resetDef">
                       <use xlink:href="#rim2" fill="#404040">
                               <set attributeName="fill" to="#808080" begin="reset.mouseover" end="reset.mouseout"/>
                       </use>
               </g>
        </defs>

<script type="text/javascript">
var viewWidth = 2024;
var viewHeight = 790;
var sectionId = 'dynsection-1';
</script>
<script xlink:href="svgpan.js"/>
<svg id="graph" class="graph">
<g id="viewport">
<title>Mezzanine::Light</title>
<!-- Node1 -->
<g id="node1" class="node"><title>Node1</title>
<polygon fill="#bfbfbf" stroke="black" points="714,-332 714,-352 802,-352 802,-332 714,-332"/>
<text text-anchor="middle" x="758" y="-339" font-family="FreeSans" font-size="10.00">Mezzanine::Light</text>
</g>
<!-- Node27 -->
<g id="node69" class="node"><title>Node27</title>
<polygon fill="none" stroke="#bfbfbf" points="965,-334 965,-354 1069,-354 1069,-334 965,-334"/>
<text text-anchor="middle" x="1017" y="-341" font-family="FreeSans" font-size="10.00">std::vector&lt; Light * &gt;</text>
</g>
<!-- Node1&#45;&gt;Node27 -->
<g id="edge88" class="edge"><title>Node1&#45;&gt;Node27</title>
<path fill="none" stroke="#9a32cd" stroke-dasharray="5,2" d="M812.373,-342.42C857.293,-342.767 920.648,-343.256 964.923,-343.598"/>
<polygon fill="#9a32cd" stroke="#9a32cd" points="812.256,-338.919 802.229,-342.342 812.202,-345.919 812.256,-338.919"/>
<text text-anchor="middle" x="890" y="-346" font-family="FreeSans" font-size="10.00"> elements</text>
</g>
<!-- Node2 -->
<g id="node2" class="node"><title>Node2</title>
<a xlink:href="classMezzanine_1_1AttachableChild.xhtml" target="_top" xlink:title="This class is the base class for objects that can be attached to AttachableParent.">
<polygon fill="none" stroke="black" points="454.5,-449 454.5,-469 589.5,-469 589.5,-449 454.5,-449"/>
<text text-anchor="middle" x="522" y="-456" font-family="FreeSans" font-size="10.00">Mezzanine::AttachableChild</text>
</a>
</g>
<!-- Node2&#45;&gt;Node1 -->
<g id="edge2" class="edge"><title>Node2&#45;&gt;Node1</title>
<path fill="none" stroke="midnightblue" d="M545.469,-443.13C575.906,-423.08 631.134,-388.484 682,-366 694.149,-360.63 707.874,-355.912 720.284,-352.113"/>
<polygon fill="midnightblue" stroke="midnightblue" points="543.243,-440.407 536.851,-448.856 547.117,-446.237 543.243,-440.407"/>
</g>
<!-- Node8 -->
<g id="node15" class="node"><title>Node8</title>
<polygon fill="none" stroke="#bfbfbf" points="682.5,-418 682.5,-438 833.5,-438 833.5,-418 682.5,-418"/>
<text text-anchor="middle" x="758" y="-425" font-family="FreeSans" font-size="10.00">std::vector&lt; AttachableChild * &gt;</text>
</g>
<!-- Node2&#45;&gt;Node8 -->
<g id="edge18" class="edge"><title>Node2&#45;&gt;Node8</title>
<path fill="none" stroke="#9a32cd" stroke-dasharray="5,2" d="M599.667,-448.798C626.292,-445.301 656.032,-441.394 682.485,-437.919"/>
<polygon fill="#9a32cd" stroke="#9a32cd" points="599.087,-445.344 589.628,-450.117 599.999,-452.284 599.087,-445.344"/>
<text text-anchor="middle" x="636" y="-450" font-family="FreeSans" font-size="10.00"> elements</text>
</g>
<!-- Node23 -->
<g id="node52" class="node"><title>Node23</title>
<a xlink:href="classMezzanine_1_1WorldNode.xhtml" target="_top" xlink:title="This is a helper class which non&#45;physics objects, such as lights, cameras, ribbon trails...">
<polygon fill="none" stroke="black" points="1486,-555 1486,-575 1600,-575 1600,-555 1486,-555"/>
<text text-anchor="middle" x="1543" y="-562" font-family="FreeSans" font-size="10.00">Mezzanine::WorldNode</text>
</a>
</g>
<!-- Node2&#45;&gt;Node23 -->
<g id="edge64" class="edge"><title>Node2&#45;&gt;Node23</title>
<path fill="none" stroke="midnightblue" d="M560.036,-472.343C633.497,-497.35 800.5,-550.499 946,-570 1115.16,-592.672 1159.33,-573.111 1330,-574 1381.55,-574.269 1394.5,-576.384 1446,-574 1458.92,-573.402 1472.79,-572.357 1485.87,-571.187"/>
<polygon fill="midnightblue" stroke="midnightblue" points="560.897,-468.939 550.303,-469.008 558.628,-475.561 560.897,-468.939"/>
</g>
<!-- Node25 -->
<g id="node63" class="node"><title>Node25</title>
<a xlink:href="classMezzanine_1_1ParticleEffect.xhtml" target="_top" xlink:title="This class is responsible for creating visual particle effects, such as rain, smoke, sparks, and explosions.">
<polygon fill="none" stroke="black" points="696,-271 696,-291 820,-291 820,-271 696,-271"/>
<text text-anchor="middle" x="758" y="-278" font-family="FreeSans" font-size="10.00">Mezzanine::ParticleEffect</text>
</a>
</g>
<!-- Node2&#45;&gt;Node25 -->
<g id="edge80" class="edge"><title>Node2&#45;&gt;Node25</title>
<path fill="none" stroke="midnightblue" d="M537.048,-441.072C553.405,-422.176 580.855,-392.14 608,-370 638.193,-345.374 648.489,-342.876 682,-323 701.19,-311.618 723.593,-299.359 739.08,-291.041"/>
<polygon fill="midnightblue" stroke="midnightblue" points="534.192,-439.026 530.354,-448.902 539.513,-443.575 534.192,-439.026"/>
</g>
<!-- Node29 -->
<g id="node74" class="node"><title>Node29</title>
<a xlink:href="classMezzanine_1_1Entity.xhtml" target="_top" xlink:title="This class is useful for representing graphical bodies without a physics representation.">
<polygon fill="none" stroke="black" points="1719.5,-102 1719.5,-122 1810.5,-122 1810.5,-102 1719.5,-102"/>
<text text-anchor="middle" x="1765" y="-109" font-family="FreeSans" font-size="10.00">Mezzanine::Entity</text>
</a>
</g>
<!-- Node2&#45;&gt;Node29 -->
<g id="edge94" class="edge"><title>Node2&#45;&gt;Node29</title>
<path fill="none" stroke="midnightblue" d="M525.045,-438.812C537.762,-362.781 593.834,-98 758,-98 758,-98 758,-98 1239,-98 1416.68,-98 1628,-106.081 1719.28,-109.964"/>
<polygon fill="midnightblue" stroke="midnightblue" points="521.544,-438.541 523.421,-448.968 528.457,-439.646 521.544,-438.541"/>
</g>
<!-- Node3 -->
<g id="node4" class="node"><title>Node3</title>
<a xlink:href="classMezzanine_1_1AttachableBase.xhtml" target="_top" xlink:title="This class is the base class for other attachable classes and is responsible for transform updates to...">
<polygon fill="none" stroke="black" points="190.5,-580 190.5,-600 325.5,-600 325.5,-580 190.5,-580"/>
<text text-anchor="middle" x="258" y="-587" font-family="FreeSans" font-size="10.00">Mezzanine::AttachableBase</text>
</a>
</g>
<!-- Node3&#45;&gt;Node2 -->
<g id="edge4" class="edge"><title>Node3&#45;&gt;Node2</title>
<path fill="none" stroke="midnightblue" d="M279.639,-573.975C296.612,-561.826 321.116,-545.196 344,-533 394.651,-506.006 457.323,-481.969 493.178,-469.042"/>
<polygon fill="midnightblue" stroke="midnightblue" points="277.543,-571.172 271.497,-579.873 281.649,-576.841 277.543,-571.172"/>
</g>
<!-- Node7 -->
<g id="node12" class="node"><title>Node7</title>
<a xlink:href="classMezzanine_1_1AttachableParent.xhtml" target="_top" xlink:title="Base class for objects that can have attachables attached to them.">
<polygon fill="none" stroke="black" points="946,-541 946,-561 1088,-561 1088,-541 946,-541"/>
<text text-anchor="middle" x="1017" y="-548" font-family="FreeSans" font-size="10.00">Mezzanine::AttachableParent</text>
</a>
</g>
<!-- Node3&#45;&gt;Node7 -->
<g id="edge14" class="edge"><title>Node3&#45;&gt;Node7</title>
<path fill="none" stroke="midnightblue" d="M335.961,-587.745C446.731,-584.314 655.998,-576.999 834,-566 870.907,-563.719 911.941,-560.426 945.784,-557.505"/>
<polygon fill="midnightblue" stroke="midnightblue" points="335.767,-584.249 325.879,-588.054 335.982,-591.245 335.767,-584.249"/>
</g>
<!-- Node3&#45;&gt;Node23 -->
<g id="edge68" class="edge"><title>Node3&#45;&gt;Node23</title>
<path fill="none" stroke="#9a32cd" stroke-dasharray="5,2" d="M311.035,-602.183C364.114,-613.297 448.264,-628 522,-628 522,-628 522,-628 1239,-628 1341.95,-628 1460.5,-592.931 1514.07,-575.122"/>
<polygon fill="#9a32cd" stroke="#9a32cd" points="311.681,-598.742 301.171,-600.084 310.223,-605.589 311.681,-598.742"/>
<text text-anchor="middle" x="890" y="-631" font-family="FreeSans" font-size="10.00"> AutoTrackTarget</text>
</g>
<!-- Node4 -->
<g id="node6" class="node"><title>Node4</title>
<a xlink:href="classMezzanine_1_1Transform.xhtml" target="_top" xlink:title="Stores information about relative location and rotation in 3d space.">
<polygon fill="none" stroke="black" points="203,-455 203,-475 313,-475 313,-455 203,-455"/>
<text text-anchor="middle" x="258" y="-462" font-family="FreeSans" font-size="10.00">Mezzanine::Transform</text>
</a>
</g>
<!-- Node4&#45;&gt;Node2 -->
<g id="edge6" class="edge"><title>Node4&#45;&gt;Node2</title>
<path fill="none" stroke="#9a32cd" stroke-dasharray="5,2" d="M323.176,-463.519C363.079,-462.612 414.047,-461.453 454.388,-460.537"/>
<polygon fill="#9a32cd" stroke="#9a32cd" points="322.94,-460.023 313.022,-463.75 323.099,-467.021 322.94,-460.023"/>
<text text-anchor="middle" x="390" y="-465" font-family="FreeSans" font-size="10.00"> LocalXform</text>
</g>
<!-- Node5 -->
<g id="node8" class="node"><title>Node5</title>
<a xlink:href="classMezzanine_1_1Vector3.xhtml" target="_top" xlink:title="This is used to represent a point in space, or a vector through space.">
<polygon fill="none" stroke="black" points="7,-542 7,-562 107,-562 107,-542 7,-542"/>
<text text-anchor="middle" x="57" y="-549" font-family="FreeSans" font-size="10.00">Mezzanine::Vector3</text>
</a>
</g>
<!-- Node5&#45;&gt;Node4 -->
<g id="edge8" class="edge"><title>Node5&#45;&gt;Node4</title>
<path fill="none" stroke="#9a32cd" stroke-dasharray="5,2" d="M88.2079,-537.621C101.646,-531.49 117.558,-524.31 132,-518 167.012,-502.704 207.821,-485.685 233.288,-475.16"/>
<polygon fill="#9a32cd" stroke="#9a32cd" points="86.5537,-534.529 78.9169,-541.873 89.4665,-540.894 86.5537,-534.529"/>
<text text-anchor="middle" x="152" y="-521" font-family="FreeSans" font-size="10.00"> Location</text>
</g>
<!-- Node17 -->
<g id="node36" class="node"><title>Node17</title>
<a xlink:href="classMezzanine_1_1Plane.xhtml" target="_top" xlink:title="This is used to represent a flat infinite slice of the game world.">
<polygon fill="none" stroke="black" points="344,-542 344,-562 436,-562 436,-542 344,-542"/>
<text text-anchor="middle" x="390" y="-549" font-family="FreeSans" font-size="10.00">Mezzanine::Plane</text>
</a>
</g>
<!-- Node5&#45;&gt;Node17 -->
<g id="edge42" class="edge"><title>Node5&#45;&gt;Node17</title>
<path fill="none" stroke="#9a32cd" stroke-dasharray="5,2" d="M117.343,-552C182.525,-552 284.939,-552 343.943,-552"/>
<polygon fill="#9a32cd" stroke="#9a32cd" points="117.214,-548.5 107.214,-552 117.214,-555.5 117.214,-548.5"/>
<text text-anchor="middle" x="152" y="-555" font-family="FreeSans" font-size="10.00"> Normal</text>
</g>
<!-- Node5&#45;&gt;Node23 -->
<g id="edge66" class="edge"><title>Node5&#45;&gt;Node23</title>
<path fill="none" stroke="#9a32cd" stroke-dasharray="5,2" d="M62.5466,-572.083C71.845,-601.943 93.4555,-657.763 132,-688 177.637,-723.8 199.997,-722 258,-722 258,-722 258,-722 1239,-722 1332.23,-722 1365.7,-735.367 1446,-688 1493.55,-659.952 1526.68,-599.044 1538.36,-575.027"/>
<polygon fill="#9a32cd" stroke="#9a32cd" points="65.8613,-570.949 59.6694,-562.352 59.1485,-572.934 65.8613,-570.949"/>
<text text-anchor="middle" x="758" y="-773" font-family="FreeSans" font-size="10.00"> AutoTrackDirection</text>
<text text-anchor="middle" x="758" y="-761" font-family="FreeSans" font-size="10.00">NodeLoc</text>
<text text-anchor="middle" x="758" y="-749" font-family="FreeSans" font-size="10.00">AutoTrackOffset</text>
<text text-anchor="middle" x="758" y="-737" font-family="FreeSans" font-size="10.00">FixedYawAxis</text>
<text text-anchor="middle" x="758" y="-725" font-family="FreeSans" font-size="10.00">NodeScale</text>
</g>
<!-- Node6 -->
<g id="node10" class="node"><title>Node6</title>
<a xlink:href="classMezzanine_1_1Quaternion.xhtml" target="_top" xlink:title="This is used to store information about rotation in 3d space.">
<polygon fill="none" stroke="black" points="0,-455 0,-475 114,-475 114,-455 0,-455"/>
<text text-anchor="middle" x="57" y="-462" font-family="FreeSans" font-size="10.00">Mezzanine::Quaternion</text>
</a>
</g>
<!-- Node6&#45;&gt;Node4 -->
<g id="edge10" class="edge"><title>Node6&#45;&gt;Node4</title>
<path fill="none" stroke="#9a32cd" stroke-dasharray="5,2" d="M124.063,-465C149.657,-465 178.518,-465 202.877,-465"/>
<polygon fill="#9a32cd" stroke="#9a32cd" points="124.061,-461.5 114.061,-465 124.061,-468.5 124.061,-461.5"/>
<text text-anchor="middle" x="152" y="-468" font-family="FreeSans" font-size="10.00"> Rotation</text>
</g>
<!-- Node16 -->
<g id="node34" class="node"><title>Node16</title>
<a xlink:href="classMezzanine_1_1Internal_1_1SceneManagerData.xhtml" target="_top" xlink:title="Stores internal data for the SCeneManager to keep it from cluttering the Header file.">
<polygon fill="none" stroke="black" points="1489.5,-382 1489.5,-414 1596.5,-414 1596.5,-382 1489.5,-382"/>
<text text-anchor="start" x="1497.5" y="-401" font-family="FreeSans" font-size="10.00">Mezzanine::Internal</text>
<text text-anchor="middle" x="1543" y="-389" font-family="FreeSans" font-size="10.00">::SceneManagerData</text>
</a>
</g>
<!-- Node6&#45;&gt;Node16 -->
<g id="edge44" class="edge"><title>Node6&#45;&gt;Node16</title>
<path fill="none" stroke="#9a32cd" stroke-dasharray="5,2" d="M80.7727,-449.328C117.283,-426.815 190.079,-388 258,-388 258,-388 258,-388 636,-388 960.004,-388 1349.07,-394.46 1489.33,-396.995"/>
<polygon fill="#9a32cd" stroke="#9a32cd" points="78.4751,-446.639 71.8834,-454.934 82.2089,-452.56 78.4751,-446.639"/>
<text text-anchor="middle" x="758" y="-391" font-family="FreeSans" font-size="10.00"> SkyOrientation</text>
</g>
<!-- Node6&#45;&gt;Node23 -->
<g id="edge70" class="edge"><title>Node6&#45;&gt;Node23</title>
<path fill="none" stroke="#9a32cd" stroke-dasharray="5,2" d="M73.5315,-482.482C85.5831,-495.733 101.86,-514.723 114,-533 123.678,-547.571 121.094,-554.324 132,-568 177.628,-625.215 184.819,-674 258,-674 258,-674 258,-674 1239,-674 1333.86,-674 1358.22,-657.949 1446,-622 1477.27,-609.194 1510.58,-587.665 1528.88,-575.051"/>
<polygon fill="#9a32cd" stroke="#9a32cd" points="76.0048,-480.001 66.6483,-475.031 70.8628,-484.751 76.0048,-480.001"/>
<text text-anchor="middle" x="758" y="-677" font-family="FreeSans" font-size="10.00"> NodeOri</text>
</g>
<!-- Node7&#45;&gt;Node2 -->
<g id="edge12" class="edge"><title>Node7&#45;&gt;Node2</title>
<path fill="none" stroke="#9a32cd" stroke-dasharray="5,2" d="M971.339,-538.017C962.881,-535.464 954.147,-532.729 946,-530 895.589,-513.117 885.814,-499.899 834,-488 751.289,-469.006 653.524,-462.392 589.767,-460.123"/>
<polygon fill="#9a32cd" stroke="#9a32cd" points="970.506,-541.421 981.089,-540.918 972.503,-534.711 970.506,-541.421"/>
<text text-anchor="middle" x="758" y="-491" font-family="FreeSans" font-size="10.00"> Parent</text>
</g>
<!-- Node7&#45;&gt;Node23 -->
<g id="edge62" class="edge"><title>Node7&#45;&gt;Node23</title>
<path fill="none" stroke="midnightblue" d="M1098.35,-553.165C1205.72,-556.023 1392.05,-560.982 1485.73,-563.476"/>
<polygon fill="midnightblue" stroke="midnightblue" points="1098.3,-549.663 1088.21,-552.895 1098.12,-556.66 1098.3,-549.663"/>
</g>
<!-- Node8&#45;&gt;Node7 -->
<g id="edge16" class="edge"><title>Node8&#45;&gt;Node7</title>
<path fill="none" stroke="#9a32cd" stroke-dasharray="5,2" d="M793.218,-414.882C831.083,-403.288 890.835,-392.614 928,-424 964.508,-454.832 914.286,-494.255 946,-530 950.01,-534.519 954.94,-538.087 960.318,-540.9"/>
<polygon fill="#9a32cd" stroke="#9a32cd" points="792.062,-411.577 783.623,-417.982 794.215,-418.238 792.062,-411.577"/>
<text text-anchor="middle" x="890" y="-427" font-family="FreeSans" font-size="10.00"> Attached</text>
</g>
<!-- Node9 -->
<g id="node18" class="node"><title>Node9</title>
<a xlink:href="classMezzanine_1_1SceneManager.xhtml" target="_top" xlink:title="This class contains utilities and functions to allow the manipulation of the Graphical scene...">
<polygon fill="none" stroke="black" points="1173,-266 1173,-286 1305,-286 1305,-266 1173,-266"/>
<text text-anchor="middle" x="1239" y="-273" font-family="FreeSans" font-size="10.00">Mezzanine::SceneManager</text>
</a>
</g>
<!-- Node9&#45;&gt;Node1 -->
<g id="edge20" class="edge"><title>Node9&#45;&gt;Node1</title>
<path fill="none" stroke="#9a32cd" stroke-dasharray="5,2" d="M1162.88,-285.032C1103.69,-292.195 1019.56,-302.684 946,-313 896.616,-319.926 840.081,-328.771 802.013,-334.861"/>
<polygon fill="#9a32cd" stroke="#9a32cd" points="1163.38,-288.496 1172.89,-283.823 1162.55,-281.547 1163.38,-288.496"/>
<text text-anchor="middle" x="1017" y="-316" font-family="FreeSans" font-size="10.00"> Manager</text>
</g>
<!-- Node9&#45;&gt;Node16 -->
<g id="edge50" class="edge"><title>Node9&#45;&gt;Node16</title>
<path fill="none" stroke="#9a32cd" stroke-dasharray="5,2" d="M1255.73,-293.648C1272.78,-310.54 1300.81,-335.404 1330,-349 1377.64,-371.192 1394.81,-360.079 1446,-372 1460.09,-375.282 1475.24,-379.169 1489.29,-382.924"/>
<polygon fill="#9a32cd" stroke="#9a32cd" points="1257.79,-290.753 1248.28,-286.08 1252.8,-295.663 1257.79,-290.753"/>
<text text-anchor="middle" x="1388" y="-375" font-family="FreeSans" font-size="10.00"> SM</text>
</g>
<!-- Node20 -->
<g id="node45" class="node"><title>Node20</title>
<a xlink:href="classMezzanine_1_1TrackingNodeUpdateWorkUnit.xhtml" target="_top" xlink:title="This is a Mezzanine::Threading::iWorkUnit for the updating of tracking world nodes in the world...">
<polygon fill="none" stroke="black" points="1464,-238 1464,-270 1622,-270 1622,-238 1464,-238"/>
<text text-anchor="start" x="1472" y="-257" font-family="FreeSans" font-size="10.00">Mezzanine::TrackingNodeUpdate</text>
<text text-anchor="middle" x="1543" y="-245" font-family="FreeSans" font-size="10.00">WorkUnit</text>
</a>
</g>
<!-- Node9&#45;&gt;Node20 -->
<g id="edge56" class="edge"><title>Node9&#45;&gt;Node20</title>
<path fill="none" stroke="#9a32cd" stroke-dasharray="5,2" d="M1271.17,-262.154C1288.29,-255.53 1309.9,-248.329 1330,-245 1373.91,-237.726 1423.56,-239.272 1463.88,-242.956"/>
<polygon fill="#9a32cd" stroke="#9a32cd" points="1269.64,-258.995 1261.65,-265.954 1272.23,-265.495 1269.64,-258.995"/>
<text text-anchor="middle" x="1388" y="-248" font-family="FreeSans" font-size="10.00"> TargetManager</text>
</g>
<!-- Node9&#45;&gt;Node23 -->
<g id="edge74" class="edge"><title>Node9&#45;&gt;Node23</title>
<path fill="none" stroke="#9a32cd" stroke-dasharray="5,2" d="M1250.79,-294.507C1266.62,-318.317 1296.66,-359.943 1330,-388 1375.22,-426.054 1400.19,-415.661 1446,-453 1485.28,-485.017 1521.55,-534.082 1536.18,-554.997"/>
<polygon fill="#9a32cd" stroke="#9a32cd" points="1253.65,-292.499 1245.26,-286.041 1247.79,-296.327 1253.65,-292.499"/>
<text text-anchor="middle" x="1388" y="-456" font-family="FreeSans" font-size="10.00"> Manager</text>
</g>
<!-- Node30 -->
<g id="node77" class="node"><title>Node30</title>
<a xlink:href="structMezzanine_1_1Internal_1_1EntityInternalData.xhtml" target="_top" xlink:title="This class stores the internal data of an Entity.">
<polygon fill="none" stroke="black" points="1493.5,-140 1493.5,-172 1592.5,-172 1592.5,-140 1493.5,-140"/>
<text text-anchor="start" x="1501.5" y="-159" font-family="FreeSans" font-size="10.00">Mezzanine::Internal</text>
<text text-anchor="middle" x="1543" y="-147" font-family="FreeSans" font-size="10.00">::EntityInternalData</text>
</a>
</g>
<!-- Node9&#45;&gt;Node30 -->
<g id="edge98" class="edge"><title>Node9&#45;&gt;Node30</title>
<path fill="none" stroke="#9a32cd" stroke-dasharray="5,2" d="M1251.03,-257.368C1266.43,-235.269 1295.3,-199.259 1330,-182 1381.53,-156.368 1448.45,-152.205 1493.4,-152.933"/>
<polygon fill="#9a32cd" stroke="#9a32cd" points="1247.97,-255.645 1245.28,-265.892 1253.78,-259.56 1247.97,-255.645"/>
<text text-anchor="middle" x="1388" y="-185" font-family="FreeSans" font-size="10.00"> Manager</text>
</g>
<!-- Node10 -->
<g id="node20" class="node"><title>Node10</title>
<a xlink:href="classMezzanine_1_1WorldManager.xhtml" target="_top" xlink:title="This is the base class for all managers that belong to a single world instance.">
<polygon fill="none" stroke="black" points="952.5,-22 952.5,-42 1081.5,-42 1081.5,-22 952.5,-22"/>
<text text-anchor="middle" x="1017" y="-29" font-family="FreeSans" font-size="10.00">Mezzanine::WorldManager</text>
</a>
</g>
<!-- Node10&#45;&gt;Node9 -->
<g id="edge22" class="edge"><title>Node10&#45;&gt;Node9</title>
<path fill="none" stroke="midnightblue" d="M1033,-49.5878C1076.43,-97.3143 1195.51,-228.196 1229.7,-265.783"/>
<polygon fill="midnightblue" stroke="midnightblue" points="1035.58,-47.215 1026.26,-42.1737 1030.4,-51.9258 1035.58,-47.215"/>
</g>
<!-- Node15 -->
<g id="node31" class="node"><title>Node15</title>
<polygon fill="none" stroke="#bfbfbf" points="1166.5,-42 1166.5,-62 1311.5,-62 1311.5,-42 1166.5,-42"/>
<text text-anchor="middle" x="1239" y="-49" font-family="FreeSans" font-size="10.00">std::vector&lt; WorldManager * &gt;</text>
</g>
<!-- Node10&#45;&gt;Node15 -->
<g id="edge36" class="edge"><title>Node10&#45;&gt;Node15</title>
<path fill="none" stroke="#9a32cd" stroke-dasharray="5,2" d="M1091.63,-38.7238C1115.66,-40.8882 1142.24,-43.2828 1166.13,-45.4355"/>
<polygon fill="#9a32cd" stroke="#9a32cd" points="1091.78,-35.2232 1081.51,-37.8117 1091.16,-42.1949 1091.78,-35.2232"/>
<text text-anchor="middle" x="1127" y="-47" font-family="FreeSans" font-size="10.00"> elements</text>
</g>
<!-- Node11 -->
<g id="node22" class="node"><title>Node11</title>
<a xlink:href="classMezzanine_1_1ManagerBase.xhtml" target="_top" xlink:title="This is the base class from which all the Entresol and World Managers inherit.">
<polygon fill="none" stroke="black" points="695,-0 695,-20 821,-20 821,-0 695,-0"/>
<text text-anchor="middle" x="758" y="-7" font-family="FreeSans" font-size="10.00">Mezzanine::ManagerBase</text>
</a>
</g>
<!-- Node11&#45;&gt;Node10 -->
<g id="edge24" class="edge"><title>Node11&#45;&gt;Node10</title>
<path fill="none" stroke="midnightblue" d="M831.049,-16.2049C869.205,-19.4459 915.489,-23.3775 952.336,-26.5073"/>
<polygon fill="midnightblue" stroke="midnightblue" points="831.288,-12.7127 821.027,-15.3537 830.695,-19.6876 831.288,-12.7127"/>
</g>
<!-- Node12 -->
<g id="node24" class="node"><title>Node12</title>
<a xlink:href="classMezzanine_1_1Entresol.xhtml" target="_top" xlink:title="This is the main entry point for the entire library.">
<polygon fill="none" stroke="black" points="471.5,-27 471.5,-47 572.5,-47 572.5,-27 471.5,-27"/>
<text text-anchor="middle" x="522" y="-34" font-family="FreeSans" font-size="10.00">Mezzanine::Entresol</text>
</a>
</g>
<!-- Node12&#45;&gt;Node11 -->
<g id="edge26" class="edge"><title>Node12&#45;&gt;Node11</title>
<path fill="none" stroke="#9a32cd" stroke-dasharray="5,2" d="M582.993,-30.022C617.328,-26.0938 660.139,-21.1959 694.824,-17.2277"/>
<polygon fill="#9a32cd" stroke="#9a32cd" points="582.165,-26.5938 572.628,-31.2078 582.961,-33.5484 582.165,-26.5938"/>
<text text-anchor="middle" x="636" y="-30" font-family="FreeSans" font-size="10.00"> TheEntresol</text>
</g>
<!-- Node13 -->
<g id="node26" class="node"><title>Node13</title>
<a xlink:href="classMezzanine_1_1Singleton.xhtml" target="_top" xlink:title="Mezzanine::Singleton\l\&lt; Entresol \&gt;">
<polygon fill="none" stroke="black" points="704.5,-38 704.5,-70 811.5,-70 811.5,-38 704.5,-38"/>
<text text-anchor="start" x="712.5" y="-57" font-family="FreeSans" font-size="10.00">Mezzanine::Singleton</text>
<text text-anchor="middle" x="758" y="-45" font-family="FreeSans" font-size="10.00">&lt; Entresol &gt;</text>
</a>
</g>
<!-- Node12&#45;&gt;Node13 -->
<g id="edge30" class="edge"><title>Node12&#45;&gt;Node13</title>
<path fill="none" stroke="#9a32cd" stroke-dasharray="5,2" d="M582.991,-45.4688C591.381,-46.4385 599.896,-47.3209 608,-48 639.945,-50.6768 675.82,-52.1664 704.475,-52.9918"/>
<polygon fill="#9a32cd" stroke="#9a32cd" points="583.2,-41.9688 572.854,-44.2505 582.365,-48.9188 583.2,-41.9688"/>
<text text-anchor="middle" x="636" y="-54" font-family="FreeSans" font-size="10.00"> SingletonPtr</text>
</g>
<!-- Node13&#45;&gt;Node12 -->
<g id="edge28" class="edge"><title>Node13&#45;&gt;Node12</title>
<path fill="none" stroke="midnightblue" d="M694.188,-49.4034C656.018,-46.6539 608.186,-43.2083 572.628,-40.6469"/>
<polygon fill="midnightblue" stroke="midnightblue" points="693.948,-52.895 704.173,-50.1227 694.451,-45.9131 693.948,-52.895"/>
</g>
<!-- Node14 -->
<g id="node29" class="node"><title>Node14</title>
<a xlink:href="classMezzanine_1_1World.xhtml" target="_top" xlink:title="This class represents a world for objects to interact within.">
<polygon fill="none" stroke="black" points="1497,-14 1497,-34 1589,-34 1589,-14 1497,-14"/>
<text text-anchor="middle" x="1543" y="-21" font-family="FreeSans" font-size="10.00">Mezzanine::World</text>
</a>
</g>
<!-- Node14&#45;&gt;Node10 -->
<g id="edge32" class="edge"><title>Node14&#45;&gt;Node10</title>
<path fill="none" stroke="#9a32cd" stroke-dasharray="5,2" d="M1486.4,-21.9709C1412.63,-19.6885 1279.62,-16.8117 1166,-21 1138.39,-22.0176 1107.97,-24.0923 1081.85,-26.1684"/>
<polygon fill="#9a32cd" stroke="#9a32cd" points="1486.74,-25.4833 1496.84,-22.3024 1486.96,-18.4869 1486.74,-25.4833"/>
<text text-anchor="middle" x="1239" y="-24" font-family="FreeSans" font-size="10.00"> ParentWorld</text>
</g>
<!-- Node15&#45;&gt;Node14 -->
<g id="edge34" class="edge"><title>Node15&#45;&gt;Node14</title>
<path fill="none" stroke="#9a32cd" stroke-dasharray="5,2" d="M1322.12,-44.3444C1378.34,-39.1662 1450.5,-32.5194 1496.76,-28.2589"/>
<polygon fill="#9a32cd" stroke="#9a32cd" points="1321.45,-40.8908 1311.82,-45.2933 1322.09,-47.8613 1321.45,-40.8908"/>
<text text-anchor="middle" x="1388" y="-46" font-family="FreeSans" font-size="10.00"> WorldManagers</text>
</g>
<!-- Node16&#45;&gt;Node9 -->
<g id="edge38" class="edge"><title>Node16&#45;&gt;Node9</title>
<path fill="none" stroke="#9a32cd" stroke-dasharray="5,2" d="M1513.98,-375.785C1495.46,-362.639 1470.42,-346.711 1446,-337 1397.16,-317.575 1380.28,-329.314 1330,-314 1305.27,-306.468 1278.05,-294.6 1259.89,-286.132"/>
<polygon fill="#9a32cd" stroke="#9a32cd" points="1512.11,-378.752 1522.26,-381.785 1516.22,-373.083 1512.11,-378.752"/>
<text text-anchor="middle" x="1388" y="-340" font-family="FreeSans" font-size="10.00"> SMD</text>
</g>
<!-- Node17&#45;&gt;Node16 -->
<g id="edge40" class="edge"><title>Node17&#45;&gt;Node16</title>
<path fill="none" stroke="#9a32cd" stroke-dasharray="5,2" d="M446.387,-547.784C530.949,-541.038 695.481,-526.268 834,-504 884.263,-495.92 895.601,-487.179 946,-480 1166.57,-448.583 1230.54,-500.705 1446,-444 1470.87,-437.454 1497.12,-424.598 1516.03,-414.138"/>
<polygon fill="#9a32cd" stroke="#9a32cd" points="445.924,-544.31 436.231,-548.587 446.475,-551.288 445.924,-544.31"/>
<text text-anchor="middle" x="890" y="-503" font-family="FreeSans" font-size="10.00"> SkyThePlane</text>
</g>
<!-- Node18 -->
<g id="node40" class="node"><title>Node18</title>
<a xlink:title="STL class.">
<polygon fill="none" stroke="#bfbfbf" points="1210.5,-495 1210.5,-515 1267.5,-515 1267.5,-495 1210.5,-495"/>
<text text-anchor="middle" x="1239" y="-502" font-family="FreeSans" font-size="10.00">std::string</text>
</a>
</g>
<!-- Node18&#45;&gt;Node16 -->
<g id="edge46" class="edge"><title>Node18&#45;&gt;Node16</title>
<path fill="none" stroke="#9a32cd" stroke-dasharray="5,2" d="M1277.59,-498.517C1336.4,-488.604 1442.13,-470.645 1446,-469 1477.31,-455.69 1508.07,-430.545 1526.29,-414.033"/>
<polygon fill="#9a32cd" stroke="#9a32cd" points="1276.81,-495.098 1267.53,-500.211 1277.97,-502.001 1276.81,-495.098"/>
<text text-anchor="middle" x="1388" y="-503" font-family="FreeSans" font-size="10.00"> SkyMaterialGroupName</text>
<text text-anchor="middle" x="1388" y="-491" font-family="FreeSans" font-size="10.00">SkyMaterialName</text>
</g>
<!-- Node18&#45;&gt;Node23 -->
<g id="edge72" class="edge"><title>Node18&#45;&gt;Node23</title>
<path fill="none" stroke="#9a32cd" stroke-dasharray="5,2" d="M1277.65,-510.18C1319.39,-516.046 1387.74,-526.441 1446,-539 1466.96,-543.519 1490.17,-549.698 1508.63,-554.898"/>
<polygon fill="#9a32cd" stroke="#9a32cd" points="1278.02,-506.697 1267.63,-508.787 1277.05,-513.631 1278.02,-506.697"/>
<text text-anchor="middle" x="1388" y="-542" font-family="FreeSans" font-size="10.00"> NodeName</text>
</g>
<!-- Node19 -->
<g id="node42" class="node"><title>Node19</title>
<a xlink:title="STL class.">
<polygon fill="none" stroke="#bfbfbf" points="971.5,-489 971.5,-521 1062.5,-521 1062.5,-489 971.5,-489"/>
<text text-anchor="start" x="979.5" y="-508" font-family="FreeSans" font-size="10.00">std::basic_string&lt;</text>
<text text-anchor="middle" x="1017" y="-496" font-family="FreeSans" font-size="10.00"> char &gt;</text>
</a>
</g>
<!-- Node19&#45;&gt;Node18 -->
<g id="edge48" class="edge"><title>Node19&#45;&gt;Node18</title>
<path fill="none" stroke="midnightblue" d="M1072.93,-505C1116.64,-505 1175.61,-505 1210.25,-505"/>
<polygon fill="midnightblue" stroke="midnightblue" points="1072.73,-501.5 1062.73,-505 1072.73,-508.5 1072.73,-501.5"/>
</g>
<!-- Node20&#45;&gt;Node9 -->
<g id="edge52" class="edge"><title>Node20&#45;&gt;Node9</title>
<path fill="none" stroke="#9a32cd" stroke-dasharray="5,2" d="M1453.89,-260.449C1406.36,-263.888 1348.89,-268.048 1305.34,-271.199"/>
<polygon fill="#9a32cd" stroke="#9a32cd" points="1454.14,-263.94 1463.87,-259.727 1453.64,-256.958 1454.14,-263.94"/>
<text text-anchor="middle" x="1388" y="-271" font-family="FreeSans" font-size="10.00"> TrackingNodeUpdateWork</text>
</g>
<!-- Node21 -->
<g id="node47" class="node"><title>Node21</title>
<polygon fill="none" stroke="#bfbfbf" points="1195.5,-138 1195.5,-158 1282.5,-158 1282.5,-138 1195.5,-138"/>
<text text-anchor="middle" x="1239" y="-145" font-family="FreeSans" font-size="10.00">DefaultWorkUnit</text>
</g>
<!-- Node21&#45;&gt;Node20 -->
<g id="edge54" class="edge"><title>Node21&#45;&gt;Node20</title>
<path fill="none" stroke="midnightblue" d="M1290.94,-136.31C1336.78,-129.209 1402.83,-127.243 1446,-162 1468.35,-179.995 1444.54,-202.912 1464,-224 1469.17,-229.607 1475.5,-234.174 1482.31,-237.892"/>
<polygon fill="midnightblue" stroke="midnightblue" points="1290.19,-132.887 1280.91,-137.995 1291.35,-139.79 1290.19,-132.887"/>
</g>
<!-- Node22 -->
<g id="node50" class="node"><title>Node22</title>
<polygon fill="none" stroke="#bfbfbf" points="1714.5,-363 1714.5,-395 1815.5,-395 1815.5,-363 1714.5,-363"/>
<text text-anchor="start" x="1722.5" y="-382" font-family="FreeSans" font-size="10.00">std::set&lt; Mezzanine</text>
<text text-anchor="middle" x="1765" y="-370" font-family="FreeSans" font-size="10.00">::WorldNode * &gt;</text>
</g>
<!-- Node22&#45;&gt;Node9 -->
<g id="edge58" class="edge"><title>Node22&#45;&gt;Node9</title>
<path fill="none" stroke="#9a32cd" stroke-dasharray="5,2" d="M1704.1,-367.074C1599.59,-346.61 1387.96,-305.169 1290.39,-286.064"/>
<polygon fill="#9a32cd" stroke="#9a32cd" points="1703.69,-370.56 1714.17,-369.047 1705.03,-363.691 1703.69,-370.56"/>
<text text-anchor="middle" x="1543" y="-353" font-family="FreeSans" font-size="10.00"> TrackingNodes</text>
</g>
<!-- Node23&#45;&gt;Node22 -->
<g id="edge60" class="edge"><title>Node23&#45;&gt;Node22</title>
<path fill="none" stroke="#9a32cd" stroke-dasharray="5,2" d="M1562.85,-548.37C1605.2,-512.888 1703.96,-430.145 1745.76,-395.12"/>
<polygon fill="#9a32cd" stroke="#9a32cd" points="1560.35,-545.895 1554.94,-555 1564.85,-551.26 1560.35,-545.895"/>
<text text-anchor="middle" x="1661" y="-486" font-family="FreeSans" font-size="10.00"> keys</text>
</g>
<!-- Node26 -->
<g id="node66" class="node"><title>Node26</title>
<polygon fill="none" stroke="#bfbfbf" points="1700,-224 1700,-244 1830,-244 1830,-224 1700,-224"/>
<text text-anchor="middle" x="1765" y="-231" font-family="FreeSans" font-size="10.00">std::vector&lt; WorldNode * &gt;</text>
</g>
<!-- Node23&#45;&gt;Node26 -->
<g id="edge84" class="edge"><title>Node23&#45;&gt;Node26</title>
<path fill="none" stroke="#9a32cd" stroke-dasharray="5,2" d="M1555.49,-546.379C1596.61,-485.075 1726.9,-290.811 1758.19,-244.149"/>
<polygon fill="#9a32cd" stroke="#9a32cd" points="1552.55,-544.476 1549.89,-554.731 1558.36,-548.375 1552.55,-544.476"/>
<text text-anchor="middle" x="1661" y="-422" font-family="FreeSans" font-size="10.00"> elements</text>
</g>
<!-- Node24 -->
<g id="node61" class="node"><title>Node24</title>
<polygon fill="none" stroke="#bfbfbf" points="947,-248 947,-268 1087,-268 1087,-248 947,-248"/>
<text text-anchor="middle" x="1017" y="-255" font-family="FreeSans" font-size="10.00">std::vector&lt; ParticleEffect * &gt;</text>
</g>
<!-- Node24&#45;&gt;Node9 -->
<g id="edge76" class="edge"><title>Node24&#45;&gt;Node9</title>
<path fill="none" stroke="#9a32cd" stroke-dasharray="5,2" d="M1097.37,-264.516C1122.2,-266.53 1149.25,-268.723 1172.99,-270.648"/>
<polygon fill="#9a32cd" stroke="#9a32cd" points="1097.49,-261.015 1087.24,-263.695 1096.93,-267.992 1097.49,-261.015"/>
<text text-anchor="middle" x="1127" y="-271" font-family="FreeSans" font-size="10.00"> Particles</text>
</g>
<!-- Node25&#45;&gt;Node24 -->
<g id="edge78" class="edge"><title>Node25&#45;&gt;Node24</title>
<path fill="none" stroke="#9a32cd" stroke-dasharray="5,2" d="M830.103,-274.597C866.552,-271.36 910.606,-267.448 946.787,-264.235"/>
<polygon fill="#9a32cd" stroke="#9a32cd" points="829.688,-271.12 820.037,-275.491 830.307,-278.093 829.688,-271.12"/>
<text text-anchor="middle" x="890" y="-275" font-family="FreeSans" font-size="10.00"> elements</text>
</g>
<!-- Node26&#45;&gt;Node9 -->
<g id="edge82" class="edge"><title>Node26&#45;&gt;Node9</title>
<path fill="none" stroke="#9a32cd" stroke-dasharray="5,2" d="M1694.75,-222.612C1607.37,-211.047 1454.5,-199.412 1330,-235 1303.68,-242.525 1275.18,-256.379 1257.22,-265.883"/>
<polygon fill="#9a32cd" stroke="#9a32cd" points="1694.43,-226.102 1704.82,-223.983 1695.38,-219.166 1694.43,-226.102"/>
<text text-anchor="middle" x="1543" y="-217" font-family="FreeSans" font-size="10.00"> WorldNodes</text>
</g>
<!-- Node27&#45;&gt;Node9 -->
<g id="edge86" class="edge"><title>Node27&#45;&gt;Node9</title>
<path fill="none" stroke="#9a32cd" stroke-dasharray="5,2" d="M1078.98,-334.804C1101.06,-330.718 1125.91,-325.177 1148,-318 1174.15,-309.504 1202.68,-295.497 1220.7,-286.017"/>
<polygon fill="#9a32cd" stroke="#9a32cd" points="1078.28,-331.374 1069.05,-336.58 1079.51,-338.265 1078.28,-331.374"/>
<text text-anchor="middle" x="1127" y="-331" font-family="FreeSans" font-size="10.00"> Lights</text>
</g>
<!-- Node28 -->
<g id="node72" class="node"><title>Node28</title>
<polygon fill="none" stroke="#bfbfbf" points="1908.5,-81 1908.5,-101 2015.5,-101 2015.5,-81 1908.5,-81"/>
<text text-anchor="middle" x="1962" y="-88" font-family="FreeSans" font-size="10.00">std::vector&lt; Entity * &gt;</text>
</g>
<!-- Node28&#45;&gt;Node9 -->
<g id="edge90" class="edge"><title>Node28&#45;&gt;Node9</title>
<path fill="none" stroke="#9a32cd" stroke-dasharray="5,2" d="M1898.29,-79.6916C1777.5,-61.7468 1511.08,-39.2086 1330,-150 1317.92,-157.393 1264.42,-237.444 1245.59,-265.973"/>
<polygon fill="#9a32cd" stroke="#9a32cd" points="1898.06,-83.1972 1908.48,-81.2456 1899.12,-76.2773 1898.06,-83.1972"/>
<text text-anchor="middle" x="1661" y="-69" font-family="FreeSans" font-size="10.00"> Entities</text>
</g>
<!-- Node29&#45;&gt;Node28 -->
<g id="edge92" class="edge"><title>Node29&#45;&gt;Node28</title>
<path fill="none" stroke="#9a32cd" stroke-dasharray="5,2" d="M1820.89,-106.042C1848.27,-103.124 1881.08,-99.6263 1908.17,-96.7383"/>
<polygon fill="#9a32cd" stroke="#9a32cd" points="1820.26,-102.589 1810.69,-107.129 1821.01,-109.55 1820.26,-102.589"/>
<text text-anchor="middle" x="1869" y="-105" font-family="FreeSans" font-size="10.00"> elements</text>
</g>
<!-- Node30&#45;&gt;Node29 -->
<g id="edge96" class="edge"><title>Node30&#45;&gt;Node29</title>
<path fill="none" stroke="#9a32cd" stroke-dasharray="5,2" d="M1602.62,-144.183C1639.32,-136.91 1685.62,-127.732 1719.39,-121.04"/>
<polygon fill="#9a32cd" stroke="#9a32cd" points="1601.67,-140.803 1592.54,-146.18 1603.03,-147.669 1601.67,-140.803"/>
<text text-anchor="middle" x="1661" y="-139" font-family="FreeSans" font-size="10.00"> EID</text>
</g>
</g>
</svg>
        <g id="navigator" transform="translate(0 0)" fill="#404254">
                <rect fill="#f2f5e9" fill-opacity="0.5" stroke="#606060" stroke-width=".5" x="0" y="0" width="60" height="60"/>
                <use id="zoomplus" xlink:href="#zoomPlus" x="17" y="9" onmousedown="handleZoom(evt,'in')"/>
                <use id="zoomminus" xlink:href="#zoomMin" x="42" y="9" onmousedown="handleZoom(evt,'out')"/>
                <use id="reset" xlink:href="#resetDef" x="30" y="36" onmousedown="handleReset()"/>
                <g id="arrowUp" xlink:href="#dirArrow" transform="translate(30 24)" onmousedown="handlePan(0,-1)">
                  <use xlink:href="#rim" fill="#404040">
                        <set attributeName="fill" to="#808080" begin="arrowUp.mouseover" end="arrowUp.mouseout"/>
                  </use>
                  <path fill="none" stroke="white" stroke-width="1.5" d="M0,-3.0v7 M-2.5,-0.5L0,-3.0L2.5,-0.5"/>
                </g>
                <g id="arrowRight" xlink:href="#dirArrow" transform="rotate(90) translate(36 -43)" onmousedown="handlePan(1,0)">
                  <use xlink:href="#rim" fill="#404040">
                        <set attributeName="fill" to="#808080" begin="arrowRight.mouseover" end="arrowRight.mouseout"/>
                  </use>
                  <path fill="none" stroke="white" stroke-width="1.5" d="M0,-3.0v7 M-2.5,-0.5L0,-3.0L2.5,-0.5"/>
                </g>
                <g id="arrowDown" xlink:href="#dirArrow" transform="rotate(180) translate(-30 -48)" onmousedown="handlePan(0,1)">
                  <use xlink:href="#rim" fill="#404040">
                        <set attributeName="fill" to="#808080" begin="arrowDown.mouseover" end="arrowDown.mouseout"/>
                  </use>
                  <path fill="none" stroke="white" stroke-width="1.5" d="M0,-3.0v7 M-2.5,-0.5L0,-3.0L2.5,-0.5"/>
                </g>
                <g id="arrowLeft" xlink:href="#dirArrow" transform="rotate(270) translate(-36 17)" onmousedown="handlePan(-1,0)">
                  <use xlink:href="#rim" fill="#404040">
                        <set attributeName="fill" to="#808080" begin="arrowLeft.mouseover" end="arrowLeft.mouseout"/>
                  </use>
                  <path fill="none" stroke="white" stroke-width="1.5" d="M0,-3.0v7 M-2.5,-0.5L0,-3.0L2.5,-0.5"/>
                </g>
        </g>
        <svg viewBox="0 0 15 15" width="100%" height="30px" preserveAspectRatio="xMaxYMin meet">
         <g id="arrow_out" transform="scale(0.3 0.3)">
          <a xlink:href="classMezzanine_1_1Light__coll__graph_org.svg" target="_base">
           <rect id="button" ry="5" rx="5" y="6" x="6" height="38" width="38"
                fill="#f2f5e9" fill-opacity="0.5" stroke="#606060" stroke-width="1.0"/>
           <path id="arrow"
             d="M 11.500037,31.436501 C 11.940474,20.09759 22.043105,11.32322 32.158766,21.979434 L 37.068811,17.246167 C 37.068811,17.246167 37.088388,32 37.088388,32 L 22.160133,31.978069 C 22.160133,31.978069 26.997745,27.140456 26.997745,27.140456 C 18.528582,18.264221 13.291696,25.230495 11.500037,31.436501 z"
             style="fill:#404040;"/>
          </a>
         </g>
        </svg>
</svg>
