<?xml version="1.0" encoding="UTF-8" standalone="no"?>
<!DOCTYPE svg PUBLIC "-//W3C//DTD SVG 1.1//EN"
 "http://www.w3.org/Graphics/SVG/1.1/DTD/svg11.dtd">
<!-- Generated by graphviz version 2.38.0 (20140413.2041)
 -->
<!-- Title: Mezzanine::EventUserInput Pages: 1 -->
<svg width="238pt" height="95pt"
 viewBox="0.00 0.00 238.00 95.00" xmlns="http://www.w3.org/2000/svg" xmlns:xlink="http://www.w3.org/1999/xlink">
<g id="graph0" class="graph" transform="scale(1 1) rotate(0) translate(4 91)">
<title>Mezzanine::EventUserInput</title>
<polygon fill="white" stroke="none" points="-4,4 -4,-91 234,-91 234,4 -4,4"/>
<!-- Node1 -->
<g id="node1" class="node"><title>Node1</title>
<polygon fill="#bfbfbf" stroke="black" points="52,-0.5 52,-19.5 190,-19.5 190,-0.5 52,-0.5"/>
<text text-anchor="middle" x="121" y="-7.5" font-family="Helvetica,sans-Serif" font-size="10.00">Mezzanine::EventUserInput</text>
</g>
<!-- Node2 -->
<g id="node2" class="node"><title>Node2</title>
<g id="a_node2"><a xlink:href="classMezzanine_1_1EventBase.html" target="_top" xlink:title="The base class for all events. ">
<polygon fill="white" stroke="black" points="0,-62 0,-81 118,-81 118,-62 0,-62"/>
<text text-anchor="middle" x="59" y="-69" font-family="Helvetica,sans-Serif" font-size="10.00">Mezzanine::EventBase</text>
</a>
</g>
</g>
<!-- Node2&#45;&gt;Node1 -->
<g id="edge1" class="edge"><title>Node2&#45;&gt;Node1</title>
<path fill="none" stroke="midnightblue" d="M75.3341,-54.8245C87.1134,-43.5202 102.564,-28.6928 112.133,-19.5091"/>
<polygon fill="midnightblue" stroke="midnightblue" points="72.6747,-52.5257 67.8831,-61.9751 77.5216,-57.5762 72.6747,-52.5257"/>
</g>
<!-- Node3 -->
<g id="node3" class="node"><title>Node3</title>
<g id="a_node3"><a xlink:title="STL class. ">
<polygon fill="white" stroke="#bfbfbf" points="136,-56.5 136,-86.5 230,-86.5 230,-56.5 136,-56.5"/>
<text text-anchor="start" x="144" y="-74.5" font-family="Helvetica,sans-Serif" font-size="10.00">std::vector&lt; Input</text>
<text text-anchor="middle" x="183" y="-63.5" font-family="Helvetica,sans-Serif" font-size="10.00">::MetaCode &gt;</text>
</a>
</g>
</g>
<!-- Node3&#45;&gt;Node1 -->
<g id="edge2" class="edge"><title>Node3&#45;&gt;Node1</title>
<path fill="none" stroke="midnightblue" d="M160.909,-49.3002C150.268,-39.0881 138.097,-27.4072 130.022,-19.6578"/>
<polygon fill="midnightblue" stroke="midnightblue" points="158.668,-52.0005 168.307,-56.3993 163.515,-46.9499 158.668,-52.0005"/>
</g>
</g>
</svg>
