<?xml version="1.0" encoding="UTF-8" standalone="no"?>
<!DOCTYPE svg PUBLIC "-//W3C//DTD SVG 1.1//EN"
 "http://www.w3.org/Graphics/SVG/1.1/DTD/svg11.dtd">
<!-- Generated by graphviz version 2.38.0 (20140413.2041)
 -->
<!-- Title: Mezzanine::CubicSpline&lt; TimeSeriesType, DataSeriesType &gt; Pages: 1 -->
<svg width="166pt" height="206pt"
 viewBox="0.00 0.00 166.00 206.00" xmlns="http://www.w3.org/2000/svg" xmlns:xlink="http://www.w3.org/1999/xlink">
<g id="graph0" class="graph" transform="scale(1 1) rotate(0) translate(4 202)">
<title>Mezzanine::CubicSpline&lt; TimeSeriesType, DataSeriesType &gt;</title>
<polygon fill="white" stroke="none" points="-4,4 -4,-202 162,-202 162,4 -4,4"/>
<!-- Node1 -->
<g id="node1" class="node"><title>Node1</title>
<polygon fill="#bfbfbf" stroke="black" points="3,-0.5 3,-41.5 155,-41.5 155,-0.5 3,-0.5"/>
<text text-anchor="start" x="11" y="-29.5" font-family="Helvetica,sans-Serif" font-size="10.00">Mezzanine::CubicSpline</text>
<text text-anchor="start" x="11" y="-18.5" font-family="Helvetica,sans-Serif" font-size="10.00">&lt; TimeSeriesType, DataSeries</text>
<text text-anchor="middle" x="79" y="-7.5" font-family="Helvetica,sans-Serif" font-size="10.00">Type &gt;</text>
</g>
<!-- Node2 -->
<g id="node2" class="node"><title>Node2</title>
<polygon fill="white" stroke="#bfbfbf" points="25.5,-89.5 25.5,-119.5 132.5,-119.5 132.5,-89.5 25.5,-89.5"/>
<text text-anchor="start" x="33.5" y="-107.5" font-family="Helvetica,sans-Serif" font-size="10.00">std::vector&lt; element</text>
<text text-anchor="middle" x="79" y="-96.5" font-family="Helvetica,sans-Serif" font-size="10.00">_type &gt;</text>
</g>
<!-- Node2&#45;&gt;Node1 -->
<g id="edge1" class="edge"><title>Node2&#45;&gt;Node1</title>
<path fill="none" stroke="#9a32cd" stroke-dasharray="5,2" d="M79,-79.0662C79,-67.0614 79,-52.7937 79,-41.5278"/>
<polygon fill="#9a32cd" stroke="#9a32cd" points="75.5001,-79.3037 79,-89.3038 82.5001,-79.3038 75.5001,-79.3037"/>
<text text-anchor="middle" x="112" y="-63" font-family="Helvetica,sans-Serif" font-size="10.00"> DataElements</text>
</g>
<!-- Node3 -->
<g id="node3" class="node"><title>Node3</title>
<g id="a_node3"><a xlink:href="classMezzanine_1_1CubicSplineElement.html" target="_top" xlink:title="Meta data nodes required to generate a cubic spline. ">
<polygon fill="white" stroke="black" points="-1.42109e-14,-167.5 -1.42109e-14,-197.5 158,-197.5 158,-167.5 -1.42109e-14,-167.5"/>
<text text-anchor="start" x="8" y="-185.5" font-family="Helvetica,sans-Serif" font-size="10.00">Mezzanine::CubicSplineElement</text>
<text text-anchor="middle" x="79" y="-174.5" font-family="Helvetica,sans-Serif" font-size="10.00">&lt; X, Y &gt;</text>
</a>
</g>
</g>
<!-- Node3&#45;&gt;Node2 -->
<g id="edge2" class="edge"><title>Node3&#45;&gt;Node2</title>
<path fill="none" stroke="#9a32cd" stroke-dasharray="5,2" d="M79,-157.09C79,-144.757 79,-130.224 79,-119.731"/>
<polygon fill="#9a32cd" stroke="#9a32cd" points="75.5001,-157.205 79,-167.205 82.5001,-157.205 75.5001,-157.205"/>
<text text-anchor="middle" x="100.5" y="-141" font-family="Helvetica,sans-Serif" font-size="10.00"> elements</text>
</g>
</g>
</svg>
