<?xml version="1.0" encoding="UTF-8" standalone="no"?>
<!DOCTYPE svg PUBLIC "-//W3C//DTD SVG 1.1//EN"
 "http://www.w3.org/Graphics/SVG/1.1/DTD/svg11.dtd">
<!-- Generated by graphviz version 2.26.3 (20100126.1600)
 -->
<!-- Title: Mezzanine::World Pages: 1 -->
<!--zoomable 691 -->
<svg id="main" version="1.1" xmlns="http://www.w3.org/2000/svg" xmlns:xlink="http://www.w3.org/1999/xlink" xml:space="preserve" onload="init(evt)">
        <defs>
                <circle id="rim" cx="0" cy="0" r="7"/>
                <circle id="rim2" cx="0" cy="0" r="3.5"/>
                <g id="zoomPlus">
                        <use xlink:href="#rim" fill="#404040">
                                <set attributeName="fill" to="#808080" begin="zoomplus.mouseover" end="zoomplus.mouseout"/>
                        </use>
                        <path d="M-4,0h8M0,-4v8" fill="none" stroke="white" stroke-width="1.5" pointer-events="none"/>
                </g>
                <g id="zoomMin">
                        <use xlink:href="#rim" fill="#404040">
                                <set attributeName="fill" to="#808080" begin="zoomminus.mouseover" end="zoomminus.mouseout"/>
                        </use>
                        <path d="M-4,0h8" fill="none" stroke="white" stroke-width="1.5" pointer-events="none"/>
                </g>
                <g id="dirArrow">
                        <path fill="none" stroke="white" stroke-width="1.5" d="M0,-3.0v7 M-2.5,-0.5L0,-3.0L2.5,-0.5"/>
                </g>
               <g id="resetDef">
                       <use xlink:href="#rim2" fill="#404040">
                               <set attributeName="fill" to="#808080" begin="reset.mouseover" end="reset.mouseout"/>
                       </use>
               </g>
        </defs>

<script type="text/javascript">
var viewWidth = 2262;
var viewHeight = 691;
var sectionId = 'dynsection-0';
</script>
<script xlink:href="svgpan.js"/>
<svg id="graph" class="graph">
<g id="viewport">
<title>Mezzanine::World</title>
<!-- Node1 -->
<g id="node1" class="node"><title>Node1</title>
<polygon fill="#bfbfbf" stroke="black" points="1757,-606.177 1757,-626.177 1849,-626.177 1849,-606.177 1757,-606.177"/>
<text text-anchor="middle" x="1803" y="-613.177" font-family="FreeSans" font-size="10.00">Mezzanine::World</text>
</g>
<!-- Node2 -->
<g id="node2" class="node"><title>Node2</title>
<a xlink:href="classMezzanine_1_1PhysicsManager.xhtml" target="_top" xlink:title="This is simply a place for storing all the Physics Related functions.">
<polygon fill="none" stroke="black" points="1516.5,-631.177 1516.5,-651.177 1653.5,-651.177 1653.5,-631.177 1516.5,-631.177"/>
<text text-anchor="middle" x="1585" y="-638.177" font-family="FreeSans" font-size="10.00">Mezzanine::PhysicsManager</text>
</a>
</g>
<!-- Node2&#45;&gt;Node1 -->
<g id="edge2" class="edge"><title>Node2&#45;&gt;Node1</title>
<path fill="none" stroke="#9a32cd" stroke-dasharray="5,2" d="M1644.07,-629.384C1653.39,-627.792 1662.94,-626.318 1672,-625.177 1700.05,-621.646 1731.66,-619.424 1756.8,-618.071"/>
<polygon fill="#9a32cd" stroke="#9a32cd" points="1643.32,-625.962 1634.08,-631.147 1644.54,-632.855 1643.32,-625.962"/>
<text text-anchor="middle" x="1700" y="-628.177" font-family="FreeSans" font-size="10.00"> PhysicsMan</text>
</g>
<!-- Node13 -->
<g id="node26" class="node"><title>Node13</title>
<a xlink:href="classMezzanine_1_1Singleton.xhtml" target="_top" xlink:title="Mezzanine::Singleton\l\&lt; PhysicsManager \&gt;">
<polygon fill="none" stroke="black" points="1749.5,-651.177 1749.5,-683.177 1856.5,-683.177 1856.5,-651.177 1749.5,-651.177"/>
<text text-anchor="start" x="1757.5" y="-670.177" font-family="FreeSans" font-size="10.00">Mezzanine::Singleton</text>
<text text-anchor="middle" x="1803" y="-658.177" font-family="FreeSans" font-size="10.00">&lt; PhysicsManager &gt;</text>
</a>
</g>
<!-- Node2&#45;&gt;Node13 -->
<g id="edge30" class="edge"><title>Node2&#45;&gt;Node13</title>
<path fill="none" stroke="#9a32cd" stroke-dasharray="5,2" d="M1663.87,-649.699C1684.73,-652.036 1707.22,-654.629 1728,-657.177 1734.91,-658.024 1742.17,-658.949 1749.35,-659.883"/>
<polygon fill="#9a32cd" stroke="#9a32cd" points="1664.1,-646.203 1653.77,-648.573 1663.32,-653.16 1664.1,-646.203"/>
<text text-anchor="middle" x="1700" y="-660.177" font-family="FreeSans" font-size="10.00"> SingletonPtr</text>
</g>
<!-- Node3 -->
<g id="node4" class="node"><title>Node3</title>
<a xlink:href="classMezzanine_1_1ManagerBase.xhtml" target="_top" xlink:title="This is the base class from which all the World Managers inherit.">
<polygon fill="none" stroke="black" points="1307,-584.177 1307,-604.177 1433,-604.177 1433,-584.177 1307,-584.177"/>
<text text-anchor="middle" x="1370" y="-591.177" font-family="FreeSans" font-size="10.00">Mezzanine::ManagerBase</text>
</a>
</g>
<!-- Node3&#45;&gt;Node2 -->
<g id="edge4" class="edge"><title>Node3&#45;&gt;Node2</title>
<path fill="none" stroke="midnightblue" d="M1425.99,-606.416C1461.22,-614.117 1506.12,-623.932 1539.21,-631.167"/>
<polygon fill="midnightblue" stroke="midnightblue" points="1426.38,-602.918 1415.86,-604.202 1424.88,-609.757 1426.38,-602.918"/>
</g>
<!-- Node14 -->
<g id="node29" class="node"><title>Node14</title>
<a xlink:href="classMezzanine_1_1SceneManager.xhtml" target="_top" xlink:title="This class contains utilities and functions to allow the manipulation of the Graphical scene...">
<polygon fill="none" stroke="black" points="1519,-446.177 1519,-466.177 1651,-466.177 1651,-446.177 1519,-446.177"/>
<text text-anchor="middle" x="1585" y="-453.177" font-family="FreeSans" font-size="10.00">Mezzanine::SceneManager</text>
</a>
</g>
<!-- Node3&#45;&gt;Node14 -->
<g id="edge34" class="edge"><title>Node3&#45;&gt;Node14</title>
<path fill="none" stroke="midnightblue" d="M1394.26,-578.604C1438.69,-550.09 1531.95,-490.229 1569.17,-466.339"/>
<polygon fill="midnightblue" stroke="midnightblue" points="1392.33,-575.682 1385.81,-584.029 1396.12,-581.573 1392.33,-575.682"/>
</g>
<!-- Node4 -->
<g id="node6" class="node"><title>Node4</title>
<a xlink:href="classMezzanine_1_1Entresol.xhtml" target="_top" xlink:title="This is the main entry point for the entire library.">
<polygon fill="none" stroke="black" points="1081.5,-619.177 1081.5,-639.177 1182.5,-639.177 1182.5,-619.177 1081.5,-619.177"/>
<text text-anchor="middle" x="1132" y="-626.177" font-family="FreeSans" font-size="10.00">Mezzanine::Entresol</text>
</a>
</g>
<!-- Node4&#45;&gt;Node3 -->
<g id="edge6" class="edge"><title>Node4&#45;&gt;Node3</title>
<path fill="none" stroke="#9a32cd" stroke-dasharray="5,2" d="M1182.07,-616.793C1196.21,-613.624 1211.65,-610.468 1226,-608.177 1252.29,-603.978 1281.5,-600.856 1306.7,-598.639"/>
<polygon fill="#9a32cd" stroke="#9a32cd" points="1181.01,-613.446 1172.04,-619.091 1182.57,-620.269 1181.01,-613.446"/>
<text text-anchor="middle" x="1254" y="-611.177" font-family="FreeSans" font-size="10.00"> TheEntresol</text>
</g>
<!-- Node5 -->
<g id="node8" class="node"><title>Node5</title>
<a xlink:href="classMezzanine_1_1Singleton.xhtml" target="_top" xlink:title="Mezzanine::Singleton\l\&lt; Entresol \&gt;">
<polygon fill="none" stroke="black" points="1316.5,-631.177 1316.5,-663.177 1423.5,-663.177 1423.5,-631.177 1316.5,-631.177"/>
<text text-anchor="start" x="1324.5" y="-650.177" font-family="FreeSans" font-size="10.00">Mezzanine::Singleton</text>
<text text-anchor="middle" x="1370" y="-638.177" font-family="FreeSans" font-size="10.00">&lt; Entresol &gt;</text>
</a>
</g>
<!-- Node4&#45;&gt;Node5 -->
<g id="edge10" class="edge"><title>Node4&#45;&gt;Node5</title>
<path fill="none" stroke="#9a32cd" stroke-dasharray="5,2" d="M1193.03,-624.919C1220.32,-623.9 1252.85,-623.906 1282,-627.177 1293.21,-628.434 1305.08,-630.567 1316.34,-632.982"/>
<polygon fill="#9a32cd" stroke="#9a32cd" points="1192.68,-621.431 1182.84,-625.355 1192.98,-628.424 1192.68,-621.431"/>
<text text-anchor="middle" x="1254" y="-630.177" font-family="FreeSans" font-size="10.00"> SingletonPtr</text>
</g>
<!-- Node5&#45;&gt;Node4 -->
<g id="edge8" class="edge"><title>Node5&#45;&gt;Node4</title>
<path fill="none" stroke="midnightblue" d="M1306.14,-646.367C1281.11,-645.682 1252.18,-644.435 1226,-642.177 1211.88,-640.959 1196.64,-639.092 1182.63,-637.15"/>
<polygon fill="midnightblue" stroke="midnightblue" points="1306.16,-649.869 1316.24,-646.62 1306.33,-642.871 1306.16,-649.869"/>
</g>
<!-- Node6 -->
<g id="node11" class="node"><title>Node6</title>
<a xlink:title="STL class.">
<polygon fill="none" stroke="#bfbfbf" points="859,-619.177 859,-639.177 945,-639.177 945,-619.177 859,-619.177"/>
<text text-anchor="middle" x="902" y="-626.177" font-family="FreeSans" font-size="10.00">std::stringstream</text>
</a>
</g>
<!-- Node6&#45;&gt;Node4 -->
<g id="edge12" class="edge"><title>Node6&#45;&gt;Node4</title>
<path fill="none" stroke="#9a32cd" stroke-dasharray="5,2" d="M955.602,-629.177C993.528,-629.177 1044.06,-629.177 1081.31,-629.177"/>
<polygon fill="#9a32cd" stroke="#9a32cd" points="955.261,-625.677 945.261,-629.177 955.261,-632.677 955.261,-625.677"/>
<text text-anchor="middle" x="1013" y="-632.177" font-family="FreeSans" font-size="10.00"> LogStream</text>
</g>
<!-- Node7 -->
<g id="node13" class="node"><title>Node7</title>
<a xlink:title="STL class.">
<polygon fill="none" stroke="#bfbfbf" points="618,-613.177 618,-645.177 732,-645.177 732,-613.177 618,-613.177"/>
<text text-anchor="start" x="626" y="-632.177" font-family="FreeSans" font-size="10.00">std::basic_stringstream</text>
<text text-anchor="middle" x="675" y="-620.177" font-family="FreeSans" font-size="10.00">&lt; char &gt;</text>
</a>
</g>
<!-- Node7&#45;&gt;Node6 -->
<g id="edge14" class="edge"><title>Node7&#45;&gt;Node6</title>
<path fill="none" stroke="midnightblue" d="M742.655,-629.177C780.253,-629.177 825.92,-629.177 858.71,-629.177"/>
<polygon fill="midnightblue" stroke="midnightblue" points="742.282,-625.677 732.282,-629.177 742.282,-632.677 742.282,-625.677"/>
</g>
<!-- Node8 -->
<g id="node15" class="node"><title>Node8</title>
<a xlink:title="STL class.">
<polygon fill="none" stroke="#bfbfbf" points="411,-613.177 411,-645.177 509,-645.177 509,-613.177 411,-613.177"/>
<text text-anchor="start" x="419" y="-632.177" font-family="FreeSans" font-size="10.00">std::basic_iostream</text>
<text text-anchor="middle" x="460" y="-620.177" font-family="FreeSans" font-size="10.00">&lt; Char &gt;</text>
</a>
</g>
<!-- Node8&#45;&gt;Node7 -->
<g id="edge16" class="edge"><title>Node8&#45;&gt;Node7</title>
<path fill="none" stroke="midnightblue" d="M519.206,-629.177C549.945,-629.177 587.335,-629.177 617.78,-629.177"/>
<polygon fill="midnightblue" stroke="midnightblue" points="519.056,-625.677 509.056,-629.177 519.056,-632.677 519.056,-625.677"/>
</g>
<!-- Node9 -->
<g id="node17" class="node"><title>Node9</title>
<a xlink:title="STL class.">
<polygon fill="none" stroke="#bfbfbf" points="259.5,-635.177 259.5,-667.177 352.5,-667.177 352.5,-635.177 259.5,-635.177"/>
<text text-anchor="start" x="267.5" y="-654.177" font-family="FreeSans" font-size="10.00">std::basic_istream</text>
<text text-anchor="middle" x="306" y="-642.177" font-family="FreeSans" font-size="10.00">&lt; Char &gt;</text>
</a>
</g>
<!-- Node9&#45;&gt;Node8 -->
<g id="edge18" class="edge"><title>Node9&#45;&gt;Node8</title>
<path fill="none" stroke="midnightblue" d="M362.786,-643.064C378.565,-640.81 395.562,-638.382 410.863,-636.196"/>
<polygon fill="midnightblue" stroke="midnightblue" points="362.027,-639.637 352.623,-644.516 363.017,-646.567 362.027,-639.637"/>
</g>
<!-- Node10 -->
<g id="node19" class="node"><title>Node10</title>
<a xlink:title="STL class.">
<polygon fill="none" stroke="#bfbfbf" points="110,-609.177 110,-629.177 220,-629.177 220,-609.177 110,-609.177"/>
<text text-anchor="middle" x="165" y="-616.177" font-family="FreeSans" font-size="10.00">std::basic_ios&lt; Char &gt;</text>
</a>
</g>
<!-- Node10&#45;&gt;Node9 -->
<g id="edge20" class="edge"><title>Node10&#45;&gt;Node9</title>
<path fill="none" stroke="midnightblue" d="M219.198,-631.477C232.49,-634.493 246.6,-637.696 259.494,-640.622"/>
<polygon fill="midnightblue" stroke="midnightblue" points="219.753,-628.014 209.226,-629.214 218.204,-634.84 219.753,-628.014"/>
</g>
<!-- Node12 -->
<g id="node23" class="node"><title>Node12</title>
<a xlink:title="STL class.">
<polygon fill="none" stroke="#bfbfbf" points="258,-585.177 258,-617.177 354,-617.177 354,-585.177 258,-585.177"/>
<text text-anchor="start" x="266" y="-604.177" font-family="FreeSans" font-size="10.00">std::basic_ostream</text>
<text text-anchor="middle" x="306" y="-592.177" font-family="FreeSans" font-size="10.00">&lt; Char &gt;</text>
</a>
</g>
<!-- Node10&#45;&gt;Node12 -->
<g id="edge26" class="edge"><title>Node10&#45;&gt;Node12</title>
<path fill="none" stroke="midnightblue" d="M230.267,-610.845C239.503,-609.666 248.86,-608.471 257.698,-607.343"/>
<polygon fill="midnightblue" stroke="midnightblue" points="229.799,-607.376 220.322,-612.114 230.685,-614.32 229.799,-607.376"/>
</g>
<!-- Node11 -->
<g id="node21" class="node"><title>Node11</title>
<a xlink:title="STL class.">
<polygon fill="none" stroke="#bfbfbf" points="0.5,-609.177 0.5,-629.177 71.5,-629.177 71.5,-609.177 0.5,-609.177"/>
<text text-anchor="middle" x="36" y="-616.177" font-family="FreeSans" font-size="10.00">std::ios_base</text>
</a>
</g>
<!-- Node11&#45;&gt;Node10 -->
<g id="edge22" class="edge"><title>Node11&#45;&gt;Node10</title>
<path fill="none" stroke="midnightblue" d="M81.8712,-619.177C90.8757,-619.177 100.41,-619.177 109.686,-619.177"/>
<polygon fill="midnightblue" stroke="midnightblue" points="81.5913,-615.677 71.5913,-619.177 81.5913,-622.677 81.5913,-615.677"/>
</g>
<!-- Node12&#45;&gt;Node8 -->
<g id="edge24" class="edge"><title>Node12&#45;&gt;Node8</title>
<path fill="none" stroke="midnightblue" d="M364.213,-611.761C379.566,-614.552 395.981,-617.537 410.807,-620.232"/>
<polygon fill="midnightblue" stroke="midnightblue" points="364.769,-608.305 354.304,-609.959 363.517,-615.192 364.769,-608.305"/>
</g>
<!-- Node13&#45;&gt;Node2 -->
<g id="edge28" class="edge"><title>Node13&#45;&gt;Node2</title>
<path fill="none" stroke="midnightblue" d="M1739.43,-674.914C1717.89,-676.13 1693.78,-675.941 1672,-672.177 1648.93,-668.189 1623.88,-658.667 1606.61,-651.22"/>
<polygon fill="midnightblue" stroke="midnightblue" points="1739.7,-678.403 1749.44,-674.239 1739.23,-671.419 1739.7,-678.403"/>
</g>
<!-- Node14&#45;&gt;Node1 -->
<g id="edge32" class="edge"><title>Node14&#45;&gt;Node1</title>
<path fill="none" stroke="#9a32cd" stroke-dasharray="5,2" d="M1595.9,-475.019C1610.48,-498.76 1638.45,-539.439 1672,-564.177 1699.38,-584.359 1735.64,-597.955 1763.08,-606.167"/>
<polygon fill="#9a32cd" stroke="#9a32cd" points="1598.79,-473.038 1590.65,-466.257 1592.78,-476.635 1598.79,-473.038"/>
<text text-anchor="middle" x="1700" y="-597.177" font-family="FreeSans" font-size="10.00"> SceneMan</text>
</g>
<!-- Node15 -->
<g id="node32" class="node"><title>Node15</title>
<a xlink:href="classMezzanine_1_1Singleton.xhtml" target="_top" xlink:title="Mezzanine::Singleton\l\&lt; SceneManager \&gt;">
<polygon fill="none" stroke="black" points="1749.5,-540.177 1749.5,-572.177 1856.5,-572.177 1856.5,-540.177 1749.5,-540.177"/>
<text text-anchor="start" x="1757.5" y="-559.177" font-family="FreeSans" font-size="10.00">Mezzanine::Singleton</text>
<text text-anchor="middle" x="1803" y="-547.177" font-family="FreeSans" font-size="10.00">&lt; SceneManager &gt;</text>
</a>
</g>
<!-- Node14&#45;&gt;Node15 -->
<g id="edge38" class="edge"><title>Node14&#45;&gt;Node15</title>
<path fill="none" stroke="#9a32cd" stroke-dasharray="5,2" d="M1609.01,-471.898C1626.12,-482.69 1649.91,-496.869 1672,-507.177 1695.95,-518.353 1703.23,-517.966 1728,-527.177 1738.99,-531.264 1750.84,-535.791 1761.81,-540.029"/>
<polygon fill="#9a32cd" stroke="#9a32cd" points="1610.55,-468.732 1600.24,-466.297 1606.78,-474.631 1610.55,-468.732"/>
<text text-anchor="middle" x="1700" y="-530.177" font-family="FreeSans" font-size="10.00"> SingletonPtr</text>
</g>
<!-- Node17 -->
<g id="node37" class="node"><title>Node17</title>
<a xlink:href="classMezzanine_1_1WorldNode.xhtml" target="_top" xlink:title="This is a helper class which non&#45;physics objects, such as lights, cameras, ribbon trails...">
<polygon fill="none" stroke="black" points="1746,-193.177 1746,-213.177 1860,-213.177 1860,-193.177 1746,-193.177"/>
<text text-anchor="middle" x="1803" y="-200.177" font-family="FreeSans" font-size="10.00">Mezzanine::WorldNode</text>
</a>
</g>
<!-- Node14&#45;&gt;Node17 -->
<g id="edge74" class="edge"><title>Node14&#45;&gt;Node17</title>
<path fill="none" stroke="#9a32cd" stroke-dasharray="5,2" d="M1592.18,-436.44C1604.83,-403.417 1633.44,-335.896 1672,-288.177 1678.7,-279.888 1736.88,-232.691 1746,-227.177 1754.91,-221.786 1765.25,-217.035 1774.66,-213.213"/>
<polygon fill="#9a32cd" stroke="#9a32cd" points="1588.88,-435.288 1588.65,-445.88 1595.43,-437.745 1588.88,-435.288"/>
<text text-anchor="middle" x="1700" y="-291.177" font-family="FreeSans" font-size="10.00"> Manager</text>
</g>
<!-- Node31 -->
<g id="node74" class="node"><title>Node31</title>
<a xlink:href="classMezzanine_1_1Light.xhtml" target="_top" xlink:title="This class is the class used for dynamic lighting within the scene.">
<polygon fill="none" stroke="black" points="1759,-415.177 1759,-435.177 1847,-435.177 1847,-415.177 1759,-415.177"/>
<text text-anchor="middle" x="1803" y="-422.177" font-family="FreeSans" font-size="10.00">Mezzanine::Light</text>
</a>
</g>
<!-- Node14&#45;&gt;Node31 -->
<g id="edge92" class="edge"><title>Node14&#45;&gt;Node31</title>
<path fill="none" stroke="#9a32cd" stroke-dasharray="5,2" d="M1661.26,-445.333C1693.85,-440.698 1730.75,-435.451 1758.72,-431.473"/>
<polygon fill="#9a32cd" stroke="#9a32cd" points="1660.7,-441.876 1651.3,-446.749 1661.69,-448.806 1660.7,-441.876"/>
<text text-anchor="middle" x="1700" y="-447.177" font-family="FreeSans" font-size="10.00"> Manager</text>
</g>
<!-- Node34 -->
<g id="node83" class="node"><title>Node34</title>
<a xlink:href="structMezzanine_1_1Internal_1_1EntityInternalData.xhtml" target="_top" xlink:title="This class stores the internal data of an Entity.">
<polygon fill="none" stroke="black" points="1753.5,-365.177 1753.5,-397.177 1852.5,-397.177 1852.5,-365.177 1753.5,-365.177"/>
<text text-anchor="start" x="1761.5" y="-384.177" font-family="FreeSans" font-size="10.00">Mezzanine::Internal</text>
<text text-anchor="middle" x="1803" y="-372.177" font-family="FreeSans" font-size="10.00">::EntityInternalData</text>
</a>
</g>
<!-- Node14&#45;&gt;Node34 -->
<g id="edge102" class="edge"><title>Node14&#45;&gt;Node34</title>
<path fill="none" stroke="#9a32cd" stroke-dasharray="5,2" d="M1617.23,-441.912C1633.49,-434.95 1653.63,-426.693 1672,-420.177 1698.61,-410.737 1728.79,-401.646 1753.47,-394.62"/>
<polygon fill="#9a32cd" stroke="#9a32cd" points="1615.44,-438.872 1607.65,-446.052 1618.22,-445.297 1615.44,-438.872"/>
<text text-anchor="middle" x="1700" y="-423.177" font-family="FreeSans" font-size="10.00"> Manager</text>
</g>
<!-- Node15&#45;&gt;Node14 -->
<g id="edge36" class="edge"><title>Node15&#45;&gt;Node14</title>
<path fill="none" stroke="midnightblue" d="M1739.19,-557.826C1717.04,-556.239 1692.61,-551.955 1672,-542.177 1635.16,-524.696 1604.64,-485.061 1591.69,-466.336"/>
<polygon fill="midnightblue" stroke="midnightblue" points="1739.01,-561.322 1749.18,-558.376 1739.39,-554.332 1739.01,-561.322"/>
</g>
<!-- Node16 -->
<g id="node35" class="node"><title>Node16</title>
<polygon fill="none" stroke="#bfbfbf" points="1952.5,-267.177 1952.5,-299.177 2053.5,-299.177 2053.5,-267.177 1952.5,-267.177"/>
<text text-anchor="start" x="1960.5" y="-286.177" font-family="FreeSans" font-size="10.00">std::set&lt; Mezzanine</text>
<text text-anchor="middle" x="2003" y="-274.177" font-family="FreeSans" font-size="10.00">::WorldNode * &gt;</text>
</g>
<!-- Node16&#45;&gt;Node14 -->
<g id="edge40" class="edge"><title>Node16&#45;&gt;Node14</title>
<path fill="none" stroke="#9a32cd" stroke-dasharray="5,2" d="M1942.42,-291.004C1888.99,-299.416 1809.91,-315.604 1746,-344.177 1684.14,-371.832 1621.17,-424.169 1596.19,-446.105"/>
<polygon fill="#9a32cd" stroke="#9a32cd" points="1943.06,-294.446 1952.42,-289.473 1942,-287.526 1943.06,-294.446"/>
<text text-anchor="middle" x="1803" y="-347.177" font-family="FreeSans" font-size="10.00"> TrackingNodes</text>
</g>
<!-- Node17&#45;&gt;Node16 -->
<g id="edge42" class="edge"><title>Node17&#45;&gt;Node16</title>
<path fill="none" stroke="#9a32cd" stroke-dasharray="5,2" d="M1838.06,-217.201C1872.86,-231.12 1926.14,-252.433 1962.67,-267.046"/>
<polygon fill="#9a32cd" stroke="#9a32cd" points="1838.91,-213.773 1828.33,-213.309 1836.32,-220.272 1838.91,-213.773"/>
<text text-anchor="middle" x="1899" y="-251.177" font-family="FreeSans" font-size="10.00"> keys</text>
</g>
<!-- Node29 -->
<g id="node69" class="node"><title>Node29</title>
<polygon fill="none" stroke="#bfbfbf" points="1938,-219.177 1938,-239.177 2068,-239.177 2068,-219.177 1938,-219.177"/>
<text text-anchor="middle" x="2003" y="-226.177" font-family="FreeSans" font-size="10.00">std::vector&lt; WorldNode * &gt;</text>
</g>
<!-- Node17&#45;&gt;Node29 -->
<g id="edge84" class="edge"><title>Node17&#45;&gt;Node29</title>
<path fill="none" stroke="#9a32cd" stroke-dasharray="5,2" d="M1870.24,-208.511C1886.56,-210.077 1903.93,-211.973 1920,-214.177 1930.16,-215.569 1940.96,-217.321 1951.31,-219.133"/>
<polygon fill="#9a32cd" stroke="#9a32cd" points="1870.52,-205.022 1860.24,-207.578 1869.87,-211.992 1870.52,-205.022"/>
<text text-anchor="middle" x="1899" y="-217.177" font-family="FreeSans" font-size="10.00"> elements</text>
</g>
<!-- Node18 -->
<g id="node39" class="node"><title>Node18</title>
<a xlink:href="classMezzanine_1_1AttachableParent.xhtml" target="_top" xlink:title="Base class for objects that can have attachables attached to them.">
<polygon fill="none" stroke="black" points="604,-273.177 604,-293.177 746,-293.177 746,-273.177 604,-273.177"/>
<text text-anchor="middle" x="675" y="-280.177" font-family="FreeSans" font-size="10.00">Mezzanine::AttachableParent</text>
</a>
</g>
<!-- Node18&#45;&gt;Node17 -->
<g id="edge44" class="edge"><title>Node18&#45;&gt;Node17</title>
<path fill="none" stroke="midnightblue" d="M756.275,-273.01C926.03,-252.345 1330.79,-206.056 1672,-190.177 1696.86,-189.02 1703.2,-188.043 1728,-190.177 1735.77,-190.845 1743.94,-191.896 1751.92,-193.117"/>
<polygon fill="midnightblue" stroke="midnightblue" points="755.67,-269.557 746.168,-274.243 756.518,-276.506 755.67,-269.557"/>
</g>
<!-- Node21 -->
<g id="node45" class="node"><title>Node21</title>
<a xlink:href="classMezzanine_1_1AttachableChild.xhtml" target="_top" xlink:title="This class is the base class for objects that can be attached to AttachableParent.">
<polygon fill="none" stroke="black" points="834.5,-280.177 834.5,-300.177 969.5,-300.177 969.5,-280.177 834.5,-280.177"/>
<text text-anchor="middle" x="902" y="-287.177" font-family="FreeSans" font-size="10.00">Mezzanine::AttachableChild</text>
</a>
</g>
<!-- Node18&#45;&gt;Node21 -->
<g id="edge60" class="edge"><title>Node18&#45;&gt;Node21</title>
<path fill="none" stroke="#9a32cd" stroke-dasharray="5,2" d="M756.228,-285.681C781.754,-286.469 809.655,-287.329 834.152,-288.084"/>
<polygon fill="#9a32cd" stroke="#9a32cd" points="756.305,-282.182 746.201,-285.372 756.089,-289.179 756.305,-282.182"/>
<text text-anchor="middle" x="790" y="-291.177" font-family="FreeSans" font-size="10.00"> Parent</text>
</g>
<!-- Node19 -->
<g id="node41" class="node"><title>Node19</title>
<a xlink:href="classMezzanine_1_1AttachableBase.xhtml" target="_top" xlink:title="This class is the base class for other attachable classes and is responsible for transform updates to...">
<polygon fill="none" stroke="black" points="392.5,-223.177 392.5,-243.177 527.5,-243.177 527.5,-223.177 392.5,-223.177"/>
<text text-anchor="middle" x="460" y="-230.177" font-family="FreeSans" font-size="10.00">Mezzanine::AttachableBase</text>
</a>
</g>
<!-- Node19&#45;&gt;Node17 -->
<g id="edge66" class="edge"><title>Node19&#45;&gt;Node17</title>
<path fill="none" stroke="#9a32cd" stroke-dasharray="5,2" d="M490.278,-219.09C531.239,-201.354 607.014,-173.177 675,-173.177 675,-173.177 675,-173.177 1013,-173.177 1287.5,-173.177 1615.27,-191.487 1745.54,-199.498"/>
<polygon fill="#9a32cd" stroke="#9a32cd" points="488.854,-215.892 481.12,-223.134 491.682,-222.296 488.854,-215.892"/>
<text text-anchor="middle" x="1132" y="-179.177" font-family="FreeSans" font-size="10.00"> AutoTrackTarget</text>
</g>
<!-- Node19&#45;&gt;Node18 -->
<g id="edge46" class="edge"><title>Node19&#45;&gt;Node18</title>
<path fill="none" stroke="midnightblue" d="M513.234,-245.557C549.774,-254.054 597.652,-265.189 631.819,-273.135"/>
<polygon fill="midnightblue" stroke="midnightblue" points="513.783,-242.091 503.25,-243.235 512.197,-248.909 513.783,-242.091"/>
</g>
<!-- Node19&#45;&gt;Node21 -->
<g id="edge52" class="edge"><title>Node19&#45;&gt;Node21</title>
<path fill="none" stroke="midnightblue" d="M537.864,-240.403C595.457,-246.043 675.752,-254.524 746,-264.177 779.458,-268.774 816.777,-274.956 846.524,-280.138"/>
<polygon fill="midnightblue" stroke="midnightblue" points="538.035,-236.903 527.743,-239.418 537.357,-243.87 538.035,-236.903"/>
</g>
<!-- Node20 -->
<g id="node43" class="node"><title>Node20</title>
<polygon fill="none" stroke="#bfbfbf" points="1056.5,-474.177 1056.5,-494.177 1207.5,-494.177 1207.5,-474.177 1056.5,-474.177"/>
<text text-anchor="middle" x="1132" y="-481.177" font-family="FreeSans" font-size="10.00">std::vector&lt; AttachableChild * &gt;</text>
</g>
<!-- Node20&#45;&gt;Node18 -->
<g id="edge48" class="edge"><title>Node20&#45;&gt;Node18</title>
<path fill="none" stroke="#9a32cd" stroke-dasharray="5,2" d="M1046.26,-484.947C1026.77,-483.283 1006.4,-480.043 988,-474.177 857.903,-432.701 726.075,-326.636 686.753,-293.337"/>
<polygon fill="#9a32cd" stroke="#9a32cd" points="1046.13,-488.447 1056.36,-485.679 1046.64,-481.465 1046.13,-488.447"/>
<text text-anchor="middle" x="902" y="-470.177" font-family="FreeSans" font-size="10.00"> Attached</text>
</g>
<!-- Node21&#45;&gt;Node17 -->
<g id="edge62" class="edge"><title>Node21&#45;&gt;Node17</title>
<path fill="none" stroke="midnightblue" d="M965.133,-278.484C972.82,-277.262 980.578,-276.123 988,-275.177 1315.32,-233.451 1400.4,-254.606 1728,-215.177 1733.76,-214.483 1739.76,-213.674 1745.74,-212.809"/>
<polygon fill="midnightblue" stroke="midnightblue" points="964.402,-275.057 955.101,-280.13 965.535,-281.965 964.402,-275.057"/>
</g>
<!-- Node21&#45;&gt;Node20 -->
<g id="edge50" class="edge"><title>Node21&#45;&gt;Node20</title>
<path fill="none" stroke="#9a32cd" stroke-dasharray="5,2" d="M908.302,-310.078C919.365,-341.879 945.252,-404.129 988,-439.177 1003.34,-451.756 1050.96,-465.206 1087.28,-474.092"/>
<polygon fill="#9a32cd" stroke="#9a32cd" points="911.605,-308.919 905.115,-300.544 904.966,-311.137 911.605,-308.919"/>
<text text-anchor="middle" x="1013" y="-463.177" font-family="FreeSans" font-size="10.00"> elements</text>
</g>
<!-- Node28 -->
<g id="node66" class="node"><title>Node28</title>
<a xlink:href="classMezzanine_1_1ParticleEffect.xhtml" target="_top" xlink:title="This class is responsible for creating visual particle effects, such as rain, smoke, sparks, and explosions.">
<polygon fill="none" stroke="black" points="1070,-433.177 1070,-453.177 1194,-453.177 1194,-433.177 1070,-433.177"/>
<text text-anchor="middle" x="1132" y="-440.177" font-family="FreeSans" font-size="10.00">Mezzanine::ParticleEffect</text>
</a>
</g>
<!-- Node21&#45;&gt;Node28 -->
<g id="edge80" class="edge"><title>Node21&#45;&gt;Node28</title>
<path fill="none" stroke="midnightblue" d="M910.001,-310.036C922.347,-337.989 948.788,-388.398 988,-414.177 1012.08,-430.007 1042.96,-437.512 1069.94,-440.958"/>
<polygon fill="midnightblue" stroke="midnightblue" points="913.091,-308.358 905.963,-300.52 906.648,-311.093 913.091,-308.358"/>
</g>
<!-- Node21&#45;&gt;Node31 -->
<g id="edge90" class="edge"><title>Node21&#45;&gt;Node31</title>
<path fill="none" stroke="midnightblue" d="M921.047,-307.1C958.571,-338.625 1045.92,-403.177 1132,-403.177 1132,-403.177 1132,-403.177 1585,-403.177 1645.48,-403.177 1714.93,-411.663 1758.87,-418.095"/>
<polygon fill="midnightblue" stroke="midnightblue" points="922.877,-304.059 913.009,-300.205 918.32,-309.372 922.877,-304.059"/>
</g>
<!-- Node33 -->
<g id="node80" class="node"><title>Node33</title>
<a xlink:href="classMezzanine_1_1Entity.xhtml" target="_top" xlink:title="This class is useful for representing graphical bodies without a physics representation.">
<polygon fill="none" stroke="black" points="1957.5,-371.177 1957.5,-391.177 2048.5,-391.177 2048.5,-371.177 1957.5,-371.177"/>
<text text-anchor="middle" x="2003" y="-378.177" font-family="FreeSans" font-size="10.00">Mezzanine::Entity</text>
</a>
</g>
<!-- Node21&#45;&gt;Node33 -->
<g id="edge98" class="edge"><title>Node21&#45;&gt;Node33</title>
<path fill="none" stroke="midnightblue" d="M979.856,-289.67C1024.41,-289.422 1081.34,-289.177 1132,-289.177 1132,-289.177 1132,-289.177 1700,-289.177 1771.42,-289.177 1791.64,-283.499 1860,-304.177 1910.74,-319.523 1964.08,-353.856 1988.83,-371.013"/>
<polygon fill="midnightblue" stroke="midnightblue" points="979.66,-286.171 969.68,-289.728 979.7,-293.171 979.66,-286.171"/>
</g>
<!-- Node22 -->
<g id="node48" class="node"><title>Node22</title>
<a xlink:href="classMezzanine_1_1Transform.xhtml" target="_top" xlink:title="Stores information about relative location and rotation in 3d space.">
<polygon fill="none" stroke="black" points="620,-105.177 620,-125.177 730,-125.177 730,-105.177 620,-105.177"/>
<text text-anchor="middle" x="675" y="-112.177" font-family="FreeSans" font-size="10.00">Mezzanine::Transform</text>
</a>
</g>
<!-- Node22&#45;&gt;Node21 -->
<g id="edge54" class="edge"><title>Node22&#45;&gt;Node21</title>
<path fill="none" stroke="#9a32cd" stroke-dasharray="5,2" d="M701.418,-130.352C730.538,-147.543 778.255,-177.095 816,-207.177 846.02,-231.101 877.564,-263.793 892.751,-280.086"/>
<polygon fill="#9a32cd" stroke="#9a32cd" points="703.051,-127.253 692.653,-125.221 699.514,-133.294 703.051,-127.253"/>
<text text-anchor="middle" x="790" y="-210.177" font-family="FreeSans" font-size="10.00"> LocalXform</text>
</g>
<!-- Node23 -->
<g id="node50" class="node"><title>Node23</title>
<a xlink:href="classMezzanine_1_1Vector3.xhtml" target="_top" xlink:title="This is used to represent a point in space, or a vector through space.">
<polygon fill="none" stroke="black" points="410,-85.1766 410,-105.177 510,-105.177 510,-85.1766 410,-85.1766"/>
<text text-anchor="middle" x="460" y="-92.1766" font-family="FreeSans" font-size="10.00">Mezzanine::Vector3</text>
</a>
</g>
<!-- Node23&#45;&gt;Node17 -->
<g id="edge64" class="edge"><title>Node23&#45;&gt;Node17</title>
<path fill="none" stroke="#9a32cd" stroke-dasharray="5,2" d="M520.317,-87.4168C563.352,-82.544 622.638,-77.1766 675,-77.1766 675,-77.1766 675,-77.1766 1013,-77.1766 1306.74,-77.1766 1654.34,-163.179 1766.31,-193.078"/>
<polygon fill="#9a32cd" stroke="#9a32cd" points="519.824,-83.9504 510.292,-88.5762 520.628,-90.9041 519.824,-83.9504"/>
<text text-anchor="middle" x="1132" y="-139.177" font-family="FreeSans" font-size="10.00"> AutoTrackDirection</text>
<text text-anchor="middle" x="1132" y="-127.177" font-family="FreeSans" font-size="10.00">NodeLoc</text>
<text text-anchor="middle" x="1132" y="-115.177" font-family="FreeSans" font-size="10.00">AutoTrackOffset</text>
<text text-anchor="middle" x="1132" y="-103.177" font-family="FreeSans" font-size="10.00">FixedYawAxis</text>
<text text-anchor="middle" x="1132" y="-91.1766" font-family="FreeSans" font-size="10.00">NodeScale</text>
</g>
<!-- Node23&#45;&gt;Node22 -->
<g id="edge56" class="edge"><title>Node23&#45;&gt;Node22</title>
<path fill="none" stroke="#9a32cd" stroke-dasharray="5,2" d="M520.449,-100.8C551.66,-103.703 589.465,-107.22 619.872,-110.048"/>
<polygon fill="#9a32cd" stroke="#9a32cd" points="520.418,-97.2818 510.137,-99.8404 519.769,-104.252 520.418,-97.2818"/>
<text text-anchor="middle" x="566" y="-110.177" font-family="FreeSans" font-size="10.00"> Location</text>
</g>
<!-- Node24 -->
<g id="node52" class="node"><title>Node24</title>
<a xlink:href="classMezzanine_1_1Quaternion.xhtml" target="_top" xlink:title="This is used to store information about rotation in 3d space.">
<polygon fill="none" stroke="black" points="403,-1.17656 403,-21.1766 517,-21.1766 517,-1.17656 403,-1.17656"/>
<text text-anchor="middle" x="460" y="-8.17656" font-family="FreeSans" font-size="10.00">Mezzanine::Quaternion</text>
</a>
</g>
<!-- Node24&#45;&gt;Node17 -->
<g id="edge68" class="edge"><title>Node24&#45;&gt;Node17</title>
<path fill="none" stroke="#9a32cd" stroke-dasharray="5,2" d="M527.634,-5.94121C569.954,-3.10588 625.625,-0.176562 675,-0.176562 675,-0.176562 675,-0.176562 1585,-0.176562 1651,-0.176562 1677.79,2.64843 1728,-40.1766 1777.54,-82.4236 1796.18,-164.332 1801.35,-192.983"/>
<polygon fill="#9a32cd" stroke="#9a32cd" points="527.187,-2.46356 517.45,-6.63893 527.665,-9.44719 527.187,-2.46356"/>
<text text-anchor="middle" x="1132" y="-3.17656" font-family="FreeSans" font-size="10.00"> NodeOri</text>
</g>
<!-- Node24&#45;&gt;Node22 -->
<g id="edge58" class="edge"><title>Node24&#45;&gt;Node22</title>
<path fill="none" stroke="#9a32cd" stroke-dasharray="5,2" d="M490.124,-25.748C534.421,-47.1758 616.007,-86.6405 654.225,-105.127"/>
<polygon fill="#9a32cd" stroke="#9a32cd" points="491.533,-22.5417 481.007,-21.3379 488.485,-28.8432 491.533,-22.5417"/>
<text text-anchor="middle" x="566" y="-73.1766" font-family="FreeSans" font-size="10.00"> Rotation</text>
</g>
<!-- Node25 -->
<g id="node59" class="node"><title>Node25</title>
<a xlink:title="STL class.">
<polygon fill="none" stroke="#bfbfbf" points="1556.5,-37.1766 1556.5,-57.1766 1613.5,-57.1766 1613.5,-37.1766 1556.5,-37.1766"/>
<text text-anchor="middle" x="1585" y="-44.1766" font-family="FreeSans" font-size="10.00">std::string</text>
</a>
</g>
<!-- Node25&#45;&gt;Node17 -->
<g id="edge70" class="edge"><title>Node25&#45;&gt;Node17</title>
<path fill="none" stroke="#9a32cd" stroke-dasharray="5,2" d="M1624.06,-41.8684C1654.85,-39.7578 1697.54,-41.6416 1728,-62.1766 1775.36,-94.1073 1795.06,-165.95 1800.95,-192.796"/>
<polygon fill="#9a32cd" stroke="#9a32cd" points="1623.36,-38.415 1613.7,-42.7575 1623.96,-45.3894 1623.36,-38.415"/>
<text text-anchor="middle" x="1700" y="-65.1766" font-family="FreeSans" font-size="10.00"> NodeName</text>
</g>
<!-- Node26 -->
<g id="node61" class="node"><title>Node26</title>
<a xlink:title="STL class.">
<polygon fill="none" stroke="#bfbfbf" points="1324.5,-28.1766 1324.5,-60.1766 1415.5,-60.1766 1415.5,-28.1766 1324.5,-28.1766"/>
<text text-anchor="start" x="1332.5" y="-47.1766" font-family="FreeSans" font-size="10.00">std::basic_string&lt;</text>
<text text-anchor="middle" x="1370" y="-35.1766" font-family="FreeSans" font-size="10.00"> char &gt;</text>
</a>
</g>
<!-- Node26&#45;&gt;Node25 -->
<g id="edge72" class="edge"><title>Node26&#45;&gt;Node25</title>
<path fill="none" stroke="midnightblue" d="M1425.63,-44.9529C1467.44,-45.5361 1523,-46.3114 1556.26,-46.7756"/>
<polygon fill="midnightblue" stroke="midnightblue" points="1425.64,-41.4527 1415.6,-44.8128 1425.55,-48.4521 1425.64,-41.4527"/>
</g>
<!-- Node27 -->
<g id="node64" class="node"><title>Node27</title>
<polygon fill="none" stroke="#bfbfbf" points="1300,-434.177 1300,-454.177 1440,-454.177 1440,-434.177 1300,-434.177"/>
<text text-anchor="middle" x="1370" y="-441.177" font-family="FreeSans" font-size="10.00">std::vector&lt; ParticleEffect * &gt;</text>
</g>
<!-- Node27&#45;&gt;Node14 -->
<g id="edge76" class="edge"><title>Node27&#45;&gt;Node14</title>
<path fill="none" stroke="#9a32cd" stroke-dasharray="5,2" d="M1450.31,-448.659C1472.82,-449.916 1497.04,-451.267 1518.65,-452.473"/>
<polygon fill="#9a32cd" stroke="#9a32cd" points="1450.28,-445.152 1440.1,-448.089 1449.89,-452.141 1450.28,-445.152"/>
<text text-anchor="middle" x="1478" y="-455.177" font-family="FreeSans" font-size="10.00"> Particles</text>
</g>
<!-- Node28&#45;&gt;Node27 -->
<g id="edge78" class="edge"><title>Node28&#45;&gt;Node27</title>
<path fill="none" stroke="#9a32cd" stroke-dasharray="5,2" d="M1204.29,-443.48C1234.58,-443.608 1269.67,-443.755 1299.74,-443.881"/>
<polygon fill="#9a32cd" stroke="#9a32cd" points="1204.24,-439.98 1194.22,-443.438 1204.21,-446.98 1204.24,-439.98"/>
<text text-anchor="middle" x="1254" y="-447.177" font-family="FreeSans" font-size="10.00"> elements</text>
</g>
<!-- Node29&#45;&gt;Node14 -->
<g id="edge82" class="edge"><title>Node29&#45;&gt;Node14</title>
<path fill="none" stroke="#9a32cd" stroke-dasharray="5,2" d="M1927.84,-238.382C1874.85,-247.031 1803.38,-263.15 1746,-292.177 1671.23,-329.998 1610.79,-416.126 1591.48,-445.857"/>
<polygon fill="#9a32cd" stroke="#9a32cd" points="1928.52,-241.818 1937.85,-236.801 1927.43,-234.904 1928.52,-241.818"/>
<text text-anchor="middle" x="1803" y="-295.177" font-family="FreeSans" font-size="10.00"> WorldNodes</text>
</g>
<!-- Node30 -->
<g id="node72" class="node"><title>Node30</title>
<polygon fill="none" stroke="#bfbfbf" points="1951,-442.177 1951,-462.177 2055,-462.177 2055,-442.177 1951,-442.177"/>
<text text-anchor="middle" x="2003" y="-449.177" font-family="FreeSans" font-size="10.00">std::vector&lt; Light * &gt;</text>
</g>
<!-- Node30&#45;&gt;Node14 -->
<g id="edge86" class="edge"><title>Node30&#45;&gt;Node14</title>
<path fill="none" stroke="#9a32cd" stroke-dasharray="5,2" d="M1940.64,-456.339C1933.68,-456.683 1926.69,-456.975 1920,-457.177 1809.83,-460.492 1782.22,-457.81 1672,-457.177 1665.2,-457.137 1658.11,-457.081 1651.03,-457.015"/>
<polygon fill="#9a32cd" stroke="#9a32cd" points="1940.97,-459.826 1950.78,-455.803 1940.61,-452.836 1940.97,-459.826"/>
<text text-anchor="middle" x="1803" y="-462.177" font-family="FreeSans" font-size="10.00"> Lights</text>
</g>
<!-- Node31&#45;&gt;Node30 -->
<g id="edge88" class="edge"><title>Node31&#45;&gt;Node30</title>
<path fill="none" stroke="#9a32cd" stroke-dasharray="5,2" d="M1857.39,-432.519C1886.51,-436.45 1922.19,-441.268 1950.95,-445.15"/>
<polygon fill="#9a32cd" stroke="#9a32cd" points="1857.76,-429.038 1847.39,-431.169 1856.83,-435.975 1857.76,-429.038"/>
<text text-anchor="middle" x="1899" y="-444.177" font-family="FreeSans" font-size="10.00"> elements</text>
</g>
<!-- Node32 -->
<g id="node78" class="node"><title>Node32</title>
<polygon fill="none" stroke="#bfbfbf" points="2146.5,-462.177 2146.5,-482.177 2253.5,-482.177 2253.5,-462.177 2146.5,-462.177"/>
<text text-anchor="middle" x="2200" y="-469.177" font-family="FreeSans" font-size="10.00">std::vector&lt; Entity * &gt;</text>
</g>
<!-- Node32&#45;&gt;Node14 -->
<g id="edge94" class="edge"><title>Node32&#45;&gt;Node14</title>
<path fill="none" stroke="#9a32cd" stroke-dasharray="5,2" d="M2136.1,-473.68C2048.22,-475.501 1885.1,-477.995 1746,-475.177 1713.09,-474.51 1704.71,-475.829 1672,-472.177 1659.18,-470.745 1645.41,-468.53 1632.68,-466.2"/>
<polygon fill="#9a32cd" stroke="#9a32cd" points="2136.26,-477.177 2146.18,-473.467 2136.11,-470.179 2136.26,-477.177"/>
<text text-anchor="middle" x="1899" y="-480.177" font-family="FreeSans" font-size="10.00"> Entities</text>
</g>
<!-- Node33&#45;&gt;Node32 -->
<g id="edge96" class="edge"><title>Node33&#45;&gt;Node32</title>
<path fill="none" stroke="#9a32cd" stroke-dasharray="5,2" d="M2034.14,-395.562C2074.27,-414.098 2143.02,-445.856 2178.07,-462.045"/>
<polygon fill="#9a32cd" stroke="#9a32cd" points="2035.38,-392.279 2024.84,-391.263 2032.45,-398.634 2035.38,-392.279"/>
<text text-anchor="middle" x="2107" y="-441.177" font-family="FreeSans" font-size="10.00"> elements</text>
</g>
<!-- Node34&#45;&gt;Node33 -->
<g id="edge100" class="edge"><title>Node34&#45;&gt;Node33</title>
<path fill="none" stroke="#9a32cd" stroke-dasharray="5,2" d="M1862.73,-381.177C1893.04,-381.177 1929.28,-381.177 1957.33,-381.177"/>
<polygon fill="#9a32cd" stroke="#9a32cd" points="1862.7,-377.677 1852.7,-381.177 1862.7,-384.677 1862.7,-377.677"/>
<text text-anchor="middle" x="1899" y="-384.177" font-family="FreeSans" font-size="10.00"> EID</text>
</g>
</g>
</svg>
        <g id="navigator" transform="translate(0 0)" fill="#404254">
                <rect fill="#f2f5e9" fill-opacity="0.5" stroke="#606060" stroke-width=".5" x="0" y="0" width="60" height="60"/>
                <use id="zoomplus" xlink:href="#zoomPlus" x="17" y="9" onmousedown="handleZoom(evt,'in')"/>
                <use id="zoomminus" xlink:href="#zoomMin" x="42" y="9" onmousedown="handleZoom(evt,'out')"/>
                <use id="reset" xlink:href="#resetDef" x="30" y="36" onmousedown="handleReset()"/>
                <g id="arrowUp" xlink:href="#dirArrow" transform="translate(30 24)" onmousedown="handlePan(0,-1)">
                  <use xlink:href="#rim" fill="#404040">
                        <set attributeName="fill" to="#808080" begin="arrowUp.mouseover" end="arrowUp.mouseout"/>
                  </use>
                  <path fill="none" stroke="white" stroke-width="1.5" d="M0,-3.0v7 M-2.5,-0.5L0,-3.0L2.5,-0.5"/>
                </g>
                <g id="arrowRight" xlink:href="#dirArrow" transform="rotate(90) translate(36 -43)" onmousedown="handlePan(1,0)">
                  <use xlink:href="#rim" fill="#404040">
                        <set attributeName="fill" to="#808080" begin="arrowRight.mouseover" end="arrowRight.mouseout"/>
                  </use>
                  <path fill="none" stroke="white" stroke-width="1.5" d="M0,-3.0v7 M-2.5,-0.5L0,-3.0L2.5,-0.5"/>
                </g>
                <g id="arrowDown" xlink:href="#dirArrow" transform="rotate(180) translate(-30 -48)" onmousedown="handlePan(0,1)">
                  <use xlink:href="#rim" fill="#404040">
                        <set attributeName="fill" to="#808080" begin="arrowDown.mouseover" end="arrowDown.mouseout"/>
                  </use>
                  <path fill="none" stroke="white" stroke-width="1.5" d="M0,-3.0v7 M-2.5,-0.5L0,-3.0L2.5,-0.5"/>
                </g>
                <g id="arrowLeft" xlink:href="#dirArrow" transform="rotate(270) translate(-36 17)" onmousedown="handlePan(-1,0)">
                  <use xlink:href="#rim" fill="#404040">
                        <set attributeName="fill" to="#808080" begin="arrowLeft.mouseover" end="arrowLeft.mouseout"/>
                  </use>
                  <path fill="none" stroke="white" stroke-width="1.5" d="M0,-3.0v7 M-2.5,-0.5L0,-3.0L2.5,-0.5"/>
                </g>
        </g>
        <svg viewBox="0 0 15 15" width="100%" height="30px" preserveAspectRatio="xMaxYMin meet">
         <g id="arrow_out" transform="scale(0.3 0.3)">
          <a xlink:href="classMezzanine_1_1World__coll__graph_org.svg" target="_base">
           <rect id="button" ry="5" rx="5" y="6" x="6" height="38" width="38"
                fill="#f2f5e9" fill-opacity="0.5" stroke="#606060" stroke-width="1.0"/>
           <path id="arrow"
             d="M 11.500037,31.436501 C 11.940474,20.09759 22.043105,11.32322 32.158766,21.979434 L 37.068811,17.246167 C 37.068811,17.246167 37.088388,32 37.088388,32 L 22.160133,31.978069 C 22.160133,31.978069 26.997745,27.140456 26.997745,27.140456 C 18.528582,18.264221 13.291696,25.230495 11.500037,31.436501 z"
             style="fill:#404040;"/>
          </a>
         </g>
        </svg>
</svg>
