<?xml version="1.0" encoding="UTF-8" standalone="no"?>
<!DOCTYPE svg PUBLIC "-//W3C//DTD SVG 1.1//EN"
 "http://www.w3.org/Graphics/SVG/1.1/DTD/svg11.dtd">
<!-- Generated by graphviz version 2.38.0 (20140413.2041)
 -->
<!-- Title: Mezzanine::Graphics::DefaultMeshManagerFactory Pages: 1 -->
<svg width="157pt" height="162pt"
 viewBox="0.00 0.00 157.00 162.00" xmlns="http://www.w3.org/2000/svg" xmlns:xlink="http://www.w3.org/1999/xlink">
<g id="graph0" class="graph" transform="scale(1 1) rotate(0) translate(4 158)">
<title>Mezzanine::Graphics::DefaultMeshManagerFactory</title>
<polygon fill="white" stroke="none" points="-4,4 -4,-158 153,-158 153,4 -4,4"/>
<!-- Node1 -->
<g id="node1" class="node"><title>Node1</title>
<polygon fill="#bfbfbf" stroke="black" points="-1.42109e-14,-0.5 -1.42109e-14,-30.5 149,-30.5 149,-0.5 -1.42109e-14,-0.5"/>
<text text-anchor="start" x="8" y="-18.5" font-family="Helvetica,sans-Serif" font-size="10.00">Mezzanine::Graphics</text>
<text text-anchor="middle" x="74.5" y="-7.5" font-family="Helvetica,sans-Serif" font-size="10.00">::DefaultMeshManagerFactory</text>
</g>
<!-- Node2 -->
<g id="node2" class="node"><title>Node2</title>
<g id="a_node2"><a xlink:href="classMezzanine_1_1EntresolManagerFactory.html" target="_top" xlink:title="This is a base class for factories that construct managers used by the Entresol class. ">
<polygon fill="white" stroke="black" points="3,-67.5 3,-97.5 146,-97.5 146,-67.5 3,-67.5"/>
<text text-anchor="start" x="11" y="-85.5" font-family="Helvetica,sans-Serif" font-size="10.00">Mezzanine::EntresolManager</text>
<text text-anchor="middle" x="74.5" y="-74.5" font-family="Helvetica,sans-Serif" font-size="10.00">Factory</text>
</a>
</g>
</g>
<!-- Node2&#45;&gt;Node1 -->
<g id="edge1" class="edge"><title>Node2&#45;&gt;Node1</title>
<path fill="none" stroke="midnightblue" d="M74.5,-57.1081C74.5,-48.1539 74.5,-38.3227 74.5,-30.5765"/>
<polygon fill="midnightblue" stroke="midnightblue" points="71.0001,-57.3959 74.5,-67.396 78.0001,-57.396 71.0001,-57.3959"/>
</g>
<!-- Node3 -->
<g id="node3" class="node"><title>Node3</title>
<g id="a_node3"><a xlink:href="classMezzanine_1_1ManagerFactory.html" target="_top" xlink:title="This is a base class for factories that construct the managers the engine uses. ">
<polygon fill="white" stroke="black" points="4.5,-134.5 4.5,-153.5 144.5,-153.5 144.5,-134.5 4.5,-134.5"/>
<text text-anchor="middle" x="74.5" y="-141.5" font-family="Helvetica,sans-Serif" font-size="10.00">Mezzanine::ManagerFactory</text>
</a>
</g>
</g>
<!-- Node3&#45;&gt;Node2 -->
<g id="edge2" class="edge"><title>Node3&#45;&gt;Node2</title>
<path fill="none" stroke="midnightblue" d="M74.5,-124.235C74.5,-115.586 74.5,-105.497 74.5,-97.523"/>
<polygon fill="midnightblue" stroke="midnightblue" points="71.0001,-124.475 74.5,-134.475 78.0001,-124.475 71.0001,-124.475"/>
</g>
</g>
</svg>
