<?xml version="1.0" encoding="UTF-8" standalone="no"?>
<!DOCTYPE svg PUBLIC "-//W3C//DTD SVG 1.1//EN"
 "http://www.w3.org/Graphics/SVG/1.1/DTD/svg11.dtd">
<!-- Generated by graphviz version 2.38.0 (20140413.2041)
 -->
<!-- Title: Mezzanine::AttachableBase Pages: 1 -->
<svg width="310pt" height="84pt"
 viewBox="0.00 0.00 310.00 84.00" xmlns="http://www.w3.org/2000/svg" xmlns:xlink="http://www.w3.org/1999/xlink">
<g id="graph0" class="graph" transform="scale(1 1) rotate(0) translate(4 80)">
<title>Mezzanine::AttachableBase</title>
<polygon fill="white" stroke="none" points="-4,4 -4,-80 306,-80 306,4 -4,4"/>
<!-- Node1 -->
<g id="node1" class="node"><title>Node1</title>
<polygon fill="#bfbfbf" stroke="black" points="80,-56.5 80,-75.5 219,-75.5 219,-56.5 80,-56.5"/>
<text text-anchor="middle" x="149.5" y="-63.5" font-family="Helvetica,sans-Serif" font-size="10.00">Mezzanine::AttachableBase</text>
</g>
<!-- Node2 -->
<g id="node2" class="node"><title>Node2</title>
<g id="a_node2"><a xlink:href="classMezzanine_1_1AttachableChild.html" target="_top" xlink:title="This class is the base class for objects that can be attached to AttachableParent. ">
<polygon fill="white" stroke="black" points="0,-0.5 0,-19.5 139,-19.5 139,-0.5 0,-0.5"/>
<text text-anchor="middle" x="69.5" y="-7.5" font-family="Helvetica,sans-Serif" font-size="10.00">Mezzanine::AttachableChild</text>
</a>
</g>
</g>
<!-- Node1&#45;&gt;Node2 -->
<g id="edge1" class="edge"><title>Node1&#45;&gt;Node2</title>
<path fill="none" stroke="midnightblue" d="M128.199,-50.6221C113.585,-40.7574 94.6732,-27.9919 82.3215,-19.6545"/>
<polygon fill="midnightblue" stroke="midnightblue" points="126.4,-53.6302 136.647,-56.324 130.316,-47.8282 126.4,-53.6302"/>
</g>
<!-- Node3 -->
<g id="node3" class="node"><title>Node3</title>
<g id="a_node3"><a xlink:href="classMezzanine_1_1AttachableParent.html" target="_top" xlink:title="Base class for objects that can have attachables attached to them. ">
<polygon fill="white" stroke="black" points="157,-0.5 157,-19.5 302,-19.5 302,-0.5 157,-0.5"/>
<text text-anchor="middle" x="229.5" y="-7.5" font-family="Helvetica,sans-Serif" font-size="10.00">Mezzanine::AttachableParent</text>
</a>
</g>
</g>
<!-- Node1&#45;&gt;Node3 -->
<g id="edge2" class="edge"><title>Node1&#45;&gt;Node3</title>
<path fill="none" stroke="midnightblue" d="M170.801,-50.6221C185.415,-40.7574 204.327,-27.9919 216.679,-19.6545"/>
<polygon fill="midnightblue" stroke="midnightblue" points="168.684,-47.8282 162.353,-56.324 172.6,-53.6302 168.684,-47.8282"/>
</g>
</g>
</svg>
