<?xml version="1.0" encoding="UTF-8" standalone="no"?>
<!DOCTYPE svg PUBLIC "-//W3C//DTD SVG 1.1//EN"
 "http://www.w3.org/Graphics/SVG/1.1/DTD/svg11.dtd">
<!-- Generated by graphviz version 2.38.0 (20140413.2041)
 -->
<!-- Title: Mezzanine::Physics::ConvexHullCollisionShape Pages: 1 -->
<svg width="147pt" height="310pt"
 viewBox="0.00 0.00 147.00 310.00" xmlns="http://www.w3.org/2000/svg" xmlns:xlink="http://www.w3.org/1999/xlink">
<g id="graph0" class="graph" transform="scale(1 1) rotate(0) translate(4 306)">
<title>Mezzanine::Physics::ConvexHullCollisionShape</title>
<polygon fill="white" stroke="none" points="-4,4 -4,-306 143,-306 143,4 -4,4"/>
<!-- Node1 -->
<g id="node1" class="node"><title>Node1</title>
<polygon fill="#bfbfbf" stroke="black" points="0,-0.5 0,-30.5 139,-30.5 139,-0.5 0,-0.5"/>
<text text-anchor="start" x="8" y="-18.5" font-family="Helvetica,sans-Serif" font-size="10.00">Mezzanine::Physics</text>
<text text-anchor="middle" x="69.5" y="-7.5" font-family="Helvetica,sans-Serif" font-size="10.00">::ConvexHullCollisionShape</text>
</g>
<!-- Node2 -->
<g id="node2" class="node"><title>Node2</title>
<g id="a_node2"><a xlink:href="classMezzanine_1_1Physics_1_1PrimitiveCollisionShape.html" target="_top" xlink:title="This is the base class for all Primitive shapes. ">
<polygon fill="white" stroke="black" points="6.5,-68.5 6.5,-98.5 132.5,-98.5 132.5,-68.5 6.5,-68.5"/>
<text text-anchor="start" x="14.5" y="-86.5" font-family="Helvetica,sans-Serif" font-size="10.00">Mezzanine::Physics</text>
<text text-anchor="middle" x="69.5" y="-75.5" font-family="Helvetica,sans-Serif" font-size="10.00">::PrimitiveCollisionShape</text>
</a>
</g>
</g>
<!-- Node2&#45;&gt;Node1 -->
<g id="edge1" class="edge"><title>Node2&#45;&gt;Node1</title>
<path fill="none" stroke="midnightblue" d="M69.5,-58.0322C69.5,-48.8606 69.5,-38.7449 69.5,-30.7931"/>
<polygon fill="midnightblue" stroke="midnightblue" points="66.0001,-58.1789 69.5,-68.179 73.0001,-58.179 66.0001,-58.1789"/>
</g>
<!-- Node3 -->
<g id="node3" class="node"><title>Node3</title>
<g id="a_node3"><a xlink:href="classMezzanine_1_1Physics_1_1CollisionShape.html" target="_top" xlink:title="This is the base class for all collision shapes. ">
<polygon fill="white" stroke="black" points="17,-136.5 17,-166.5 122,-166.5 122,-136.5 17,-136.5"/>
<text text-anchor="start" x="25" y="-154.5" font-family="Helvetica,sans-Serif" font-size="10.00">Mezzanine::Physics</text>
<text text-anchor="middle" x="69.5" y="-143.5" font-family="Helvetica,sans-Serif" font-size="10.00">::CollisionShape</text>
</a>
</g>
</g>
<!-- Node3&#45;&gt;Node2 -->
<g id="edge2" class="edge"><title>Node3&#45;&gt;Node2</title>
<path fill="none" stroke="midnightblue" d="M69.5,-126.032C69.5,-116.861 69.5,-106.745 69.5,-98.7931"/>
<polygon fill="midnightblue" stroke="midnightblue" points="66.0001,-126.179 69.5,-136.179 73.0001,-126.179 66.0001,-126.179"/>
</g>
<!-- Node4 -->
<g id="node4" class="node"><title>Node4</title>
<g id="a_node4"><a xlink:title="STL class. ">
<polygon fill="white" stroke="#bfbfbf" points="39.5,-214.5 39.5,-233.5 99.5,-233.5 99.5,-214.5 39.5,-214.5"/>
<text text-anchor="middle" x="69.5" y="-221.5" font-family="Helvetica,sans-Serif" font-size="10.00">std::string</text>
</a>
</g>
</g>
<!-- Node4&#45;&gt;Node3 -->
<g id="edge3" class="edge"><title>Node4&#45;&gt;Node3</title>
<path fill="none" stroke="#9a32cd" stroke-dasharray="5,2" d="M69.5,-204.236C69.5,-192.408 69.5,-177.383 69.5,-166.576"/>
<polygon fill="#9a32cd" stroke="#9a32cd" points="66.0001,-204.355 69.5,-214.355 73.0001,-204.355 66.0001,-204.355"/>
<text text-anchor="middle" x="84.5" y="-188" font-family="Helvetica,sans-Serif" font-size="10.00"> Name</text>
</g>
<!-- Node5 -->
<g id="node5" class="node"><title>Node5</title>
<g id="a_node5"><a xlink:title="STL class. ">
<polygon fill="white" stroke="#bfbfbf" points="22,-271.5 22,-301.5 117,-301.5 117,-271.5 22,-271.5"/>
<text text-anchor="start" x="30" y="-289.5" font-family="Helvetica,sans-Serif" font-size="10.00">std::basic_string&lt;</text>
<text text-anchor="middle" x="69.5" y="-278.5" font-family="Helvetica,sans-Serif" font-size="10.00"> char &gt;</text>
</a>
</g>
</g>
<!-- Node5&#45;&gt;Node4 -->
<g id="edge4" class="edge"><title>Node5&#45;&gt;Node4</title>
<path fill="none" stroke="midnightblue" d="M69.5,-261.352C69.5,-251.513 69.5,-240.775 69.5,-233.54"/>
<polygon fill="midnightblue" stroke="midnightblue" points="66.0001,-261.468 69.5,-271.468 73.0001,-261.468 66.0001,-261.468"/>
</g>
</g>
</svg>
