<?xml version="1.0" encoding="UTF-8" standalone="no"?>
<!DOCTYPE svg PUBLIC "-//W3C//DTD SVG 1.1//EN"
 "http://www.w3.org/Graphics/SVG/1.1/DTD/svg11.dtd">
<!-- Generated by graphviz version 2.26.3 (20100126.1600)
 -->
<!-- Title: Mezzanine::FileNotFoundException Pages: 1 -->
<svg width="180pt" height="262pt"
 viewBox="0.00 0.00 180.00 262.00" xmlns="http://www.w3.org/2000/svg" xmlns:xlink="http://www.w3.org/1999/xlink">
<g id="graph1" class="graph" transform="scale(1 1) rotate(0) translate(4 258)">
<title>Mezzanine::FileNotFoundException</title>
<polygon fill="white" stroke="white" points="-4,5 -4,-258 177,-258 177,5 -4,5"/>
<!-- Node1 -->
<g id="node1" class="node"><title>Node1</title>
<polygon fill="#bfbfbf" stroke="black" points="0,-0.5 0,-21.5 172,-21.5 172,-0.5 0,-0.5"/>
<text text-anchor="middle" x="86" y="-8.5" font-family="Helvetica,sans-Serif" font-size="10.00">Mezzanine::FileNotFoundException</text>
</g>
<!-- Node2 -->
<g id="node2" class="node"><title>Node2</title>
<a xlink:href="classMezzanine_1_1FileException.html" target="_top" xlink:title="Thrown when there is an unknown issue with a file. ">
<polygon fill="white" stroke="black" points="21.5,-58.5 21.5,-79.5 150.5,-79.5 150.5,-58.5 21.5,-58.5"/>
<text text-anchor="middle" x="86" y="-66.5" font-family="Helvetica,sans-Serif" font-size="10.00">Mezzanine::FileException</text>
</a>
</g>
<!-- Node2&#45;&gt;Node1 -->
<g id="edge2" class="edge"><title>Node2&#45;&gt;Node1</title>
<path fill="none" stroke="midnightblue" d="M86,-48.1906C86,-39.1684 86,-28.9941 86,-21.5707"/>
<polygon fill="midnightblue" stroke="midnightblue" points="82.5001,-48.3619 86,-58.3619 89.5001,-48.3619 82.5001,-48.3619"/>
</g>
<!-- Node3 -->
<g id="node4" class="node"><title>Node3</title>
<a xlink:href="classMezzanine_1_1IOException.html" target="_top" xlink:title="Thrown when there was an issue with IO but very little was known about it. ">
<polygon fill="white" stroke="black" points="24,-116.5 24,-137.5 148,-137.5 148,-116.5 24,-116.5"/>
<text text-anchor="middle" x="86" y="-124.5" font-family="Helvetica,sans-Serif" font-size="10.00">Mezzanine::IOException</text>
</a>
</g>
<!-- Node3&#45;&gt;Node2 -->
<g id="edge4" class="edge"><title>Node3&#45;&gt;Node2</title>
<path fill="none" stroke="midnightblue" d="M86,-106.191C86,-97.1684 86,-86.9941 86,-79.5707"/>
<polygon fill="midnightblue" stroke="midnightblue" points="82.5001,-106.362 86,-116.362 89.5001,-106.362 82.5001,-106.362"/>
</g>
<!-- Node4 -->
<g id="node6" class="node"><title>Node4</title>
<a xlink:href="classMezzanine_1_1Exception.html" target="_top" xlink:title="This is the exception thrown by most Mezzanine system that can throw exceptions. ">
<polygon fill="white" stroke="black" points="29.5,-174.5 29.5,-195.5 142.5,-195.5 142.5,-174.5 29.5,-174.5"/>
<text text-anchor="middle" x="86" y="-182.5" font-family="Helvetica,sans-Serif" font-size="10.00">Mezzanine::Exception</text>
</a>
</g>
<!-- Node4&#45;&gt;Node3 -->
<g id="edge6" class="edge"><title>Node4&#45;&gt;Node3</title>
<path fill="none" stroke="midnightblue" d="M86,-164.191C86,-155.168 86,-144.994 86,-137.571"/>
<polygon fill="midnightblue" stroke="midnightblue" points="82.5001,-164.362 86,-174.362 89.5001,-164.362 82.5001,-164.362"/>
</g>
<!-- Node5 -->
<g id="node8" class="node"><title>Node5</title>
<a xlink:title="STL class. ">
<polygon fill="white" stroke="#bfbfbf" points="47,-232.5 47,-253.5 125,-253.5 125,-232.5 47,-232.5"/>
<text text-anchor="middle" x="86" y="-240.5" font-family="Helvetica,sans-Serif" font-size="10.00">std::exception</text>
</a>
</g>
<!-- Node5&#45;&gt;Node4 -->
<g id="edge8" class="edge"><title>Node5&#45;&gt;Node4</title>
<path fill="none" stroke="midnightblue" d="M86,-222.191C86,-213.168 86,-202.994 86,-195.571"/>
<polygon fill="midnightblue" stroke="midnightblue" points="82.5001,-222.362 86,-232.362 89.5001,-222.362 82.5001,-222.362"/>
</g>
</g>
</svg>
