<?xml version="1.0" encoding="UTF-8" standalone="no"?>
<!DOCTYPE svg PUBLIC "-//W3C//DTD SVG 1.1//EN"
 "http://www.w3.org/Graphics/SVG/1.1/DTD/svg11.dtd">
<!-- Generated by graphviz version 2.26.3 (20100126.1600)
 -->
<!-- Title: Mezzanine::CustomSubscriberSlot Pages: 1 -->
<svg width="514pt" height="202pt"
 viewBox="0.00 0.00 513.93 202.00" xmlns="http://www.w3.org/2000/svg" xmlns:xlink="http://www.w3.org/1999/xlink">
<g id="graph1" class="graph" transform="scale(1 1) rotate(0) translate(4 198)">
<title>Mezzanine::CustomSubscriberSlot</title>
<polygon fill="white" stroke="white" points="-4,5 -4,-198 510.934,-198 510.934,5 -4,5"/>
<!-- Node1 -->
<g id="node1" class="node"><title>Node1</title>
<polygon fill="#bfbfbf" stroke="black" points="239.934,-79.5 239.934,-100.5 407.934,-100.5 407.934,-79.5 239.934,-79.5"/>
<text text-anchor="middle" x="323.934" y="-87.5" font-family="Helvetica,sans-Serif" font-size="10.00">Mezzanine::CustomSubscriberSlot</text>
</g>
<!-- Node2 -->
<g id="node2" class="node"><title>Node2</title>
<a xlink:href="classMezzanine_1_1EventSubscriberSlot.html" target="_top" xlink:title="This class represents a slot in an event that can be subscribed to via subscribers, functors, or methods. ">
<polygon fill="white" stroke="black" points="70.4339,-165.5 70.4339,-186.5 229.434,-186.5 229.434,-165.5 70.4339,-165.5"/>
<text text-anchor="middle" x="149.934" y="-173.5" font-family="Helvetica,sans-Serif" font-size="10.00">Mezzanine::EventSubscriberSlot</text>
</a>
</g>
<!-- Node2&#45;&gt;Node1 -->
<g id="edge2" class="edge"><title>Node2&#45;&gt;Node1</title>
<path fill="none" stroke="midnightblue" d="M180.524,-160.881C215.482,-143.603 271.8,-115.767 302.424,-100.632"/>
<polygon fill="midnightblue" stroke="midnightblue" points="178.684,-157.886 171.27,-165.455 181.785,-164.161 178.684,-157.886"/>
</g>
<!-- Node6 -->
<g id="node10" class="node"><title>Node6</title>
<polygon fill="white" stroke="#bfbfbf" points="77.9339,-73 77.9339,-107 221.934,-107 221.934,-73 77.9339,-73"/>
<text text-anchor="start" x="85.9339" y="-94" font-family="Helvetica,sans-Serif" font-size="10.00">std::vector&lt; EventSubscriber</text>
<text text-anchor="middle" x="149.934" y="-81" font-family="Helvetica,sans-Serif" font-size="10.00">Slot * &gt;</text>
</g>
<!-- Node2&#45;&gt;Node6 -->
<g id="edge12" class="edge"><title>Node2&#45;&gt;Node6</title>
<path fill="none" stroke="#9a32cd" stroke-dasharray="5,2" d="M149.934,-155.31C149.934,-140.585 149.934,-121.033 149.934,-107.171"/>
<polygon fill="#9a32cd" stroke="#9a32cd" points="146.434,-155.455 149.934,-165.455 153.434,-155.455 146.434,-155.455"/>
<text text-anchor="middle" x="171.434" y="-130.5" font-family="Helvetica,sans-Serif" font-size="10.00"> elements</text>
</g>
<!-- Node3 -->
<g id="node4" class="node"><title>Node3</title>
<a xlink:href="classMezzanine_1_1Event.html" target="_top" xlink:title="This class represents a given event that can be subscribed to and/or fired. ">
<polygon fill="white" stroke="black" points="102.434,-0.5 102.434,-21.5 197.434,-21.5 197.434,-0.5 102.434,-0.5"/>
<text text-anchor="middle" x="149.934" y="-8.5" font-family="Helvetica,sans-Serif" font-size="10.00">Mezzanine::Event</text>
</a>
</g>
<!-- Node3&#45;&gt;Node2 -->
<g id="edge4" class="edge"><title>Node3&#45;&gt;Node2</title>
<path fill="none" stroke="#9a32cd" stroke-dasharray="5,2" d="M92.4847,-19.9405C61.549,-27.9997 25.9294,-43.2455 6.93389,-72 -23.1,-117.464 57.2615,-149.88 109.37,-165.485"/>
<polygon fill="#9a32cd" stroke="#9a32cd" points="93.4343,-23.312 102.337,-17.5684 91.7957,-16.5064 93.4343,-23.312"/>
<text text-anchor="middle" x="37.9339" y="-87.5" font-family="Helvetica,sans-Serif" font-size="10.00"> SubbedEvent</text>
</g>
<!-- Node4 -->
<g id="node6" class="node"><title>Node4</title>
<a xlink:title="STL class. ">
<polygon fill="white" stroke="#bfbfbf" points="426.934,-79.5 426.934,-100.5 486.934,-100.5 486.934,-79.5 426.934,-79.5"/>
<text text-anchor="middle" x="456.934" y="-87.5" font-family="Helvetica,sans-Serif" font-size="10.00">std::string</text>
</a>
</g>
<!-- Node4&#45;&gt;Node3 -->
<g id="edge6" class="edge"><title>Node4&#45;&gt;Node3</title>
<path fill="none" stroke="#9a32cd" stroke-dasharray="5,2" d="M426.388,-75.5163C423.228,-74.2412 420.038,-73.0416 416.934,-72 341.878,-46.816 251.51,-28.5874 197.497,-18.9198"/>
<polygon fill="#9a32cd" stroke="#9a32cd" points="425.087,-78.7666 435.657,-79.4854 427.842,-72.3316 425.087,-78.7666"/>
<text text-anchor="middle" x="379.434" y="-44.5" font-family="Helvetica,sans-Serif" font-size="10.00"> EventName</text>
</g>
<!-- Node5 -->
<g id="node8" class="node"><title>Node5</title>
<a xlink:title="STL class. ">
<polygon fill="white" stroke="#bfbfbf" points="411.434,-159 411.434,-193 506.434,-193 506.434,-159 411.434,-159"/>
<text text-anchor="start" x="419.434" y="-180" font-family="Helvetica,sans-Serif" font-size="10.00">std::basic_string&lt;</text>
<text text-anchor="middle" x="458.934" y="-167" font-family="Helvetica,sans-Serif" font-size="10.00"> char &gt;</text>
</a>
</g>
<!-- Node5&#45;&gt;Node4 -->
<g id="edge8" class="edge"><title>Node5&#45;&gt;Node4</title>
<path fill="none" stroke="midnightblue" d="M458.296,-148.56C457.919,-132.365 457.463,-112.766 457.186,-100.848"/>
<polygon fill="midnightblue" stroke="midnightblue" points="454.798,-148.681 458.529,-158.597 461.796,-148.518 454.798,-148.681"/>
</g>
<!-- Node6&#45;&gt;Node3 -->
<g id="edge10" class="edge"><title>Node6&#45;&gt;Node3</title>
<path fill="none" stroke="#9a32cd" stroke-dasharray="5,2" d="M149.934,-62.6228C149.934,-48.4727 149.934,-32.0243 149.934,-21.5672"/>
<polygon fill="#9a32cd" stroke="#9a32cd" points="146.434,-62.8581 149.934,-72.8582 153.434,-62.8582 146.434,-62.8581"/>
<text text-anchor="middle" x="162.934" y="-44.5" font-family="Helvetica,sans-Serif" font-size="10.00"> Slots</text>
</g>
<!-- Node7 -->
<g id="node13" class="node"><title>Node7</title>
<a xlink:href="classMezzanine_1_1EventSubscriber.html" target="_top" xlink:title="This is a base class for all classes that subscribe to events. ">
<polygon fill="white" stroke="black" points="251.934,-165.5 251.934,-186.5 393.934,-186.5 393.934,-165.5 251.934,-165.5"/>
<text text-anchor="middle" x="322.934" y="-173.5" font-family="Helvetica,sans-Serif" font-size="10.00">Mezzanine::EventSubscriber</text>
</a>
</g>
<!-- Node7&#45;&gt;Node1 -->
<g id="edge14" class="edge"><title>Node7&#45;&gt;Node1</title>
<path fill="none" stroke="#9a32cd" stroke-dasharray="5,2" d="M323.175,-155.256C323.375,-138.026 323.652,-114.215 323.81,-100.632"/>
<polygon fill="#9a32cd" stroke="#9a32cd" points="319.673,-155.415 323.057,-165.455 326.673,-155.496 319.673,-155.415"/>
<text text-anchor="middle" x="347.934" y="-130.5" font-family="Helvetica,sans-Serif" font-size="10.00"> Subscriber</text>
</g>
</g>
</svg>
