<?xml version="1.0" encoding="UTF-8" standalone="no"?>
<!DOCTYPE svg PUBLIC "-//W3C//DTD SVG 1.1//EN"
 "http://www.w3.org/Graphics/SVG/1.1/DTD/svg11.dtd">
<!-- Generated by graphviz version 2.38.0 (20140413.2041)
 -->
<!-- Title: Mezzanine::MemoryManagementException Pages: 1 -->
<svg width="366pt" height="218pt"
 viewBox="0.00 0.00 365.50 218.00" xmlns="http://www.w3.org/2000/svg" xmlns:xlink="http://www.w3.org/1999/xlink">
<g id="graph0" class="graph" transform="scale(1 1) rotate(0) translate(4 214)">
<title>Mezzanine::MemoryManagementException</title>
<polygon fill="white" stroke="none" points="-4,4 -4,-214 361.5,-214 361.5,4 -4,4"/>
<!-- Node1 -->
<g id="node1" class="node"><title>Node1</title>
<polygon fill="#bfbfbf" stroke="black" points="95.5,-67.5 95.5,-97.5 256.5,-97.5 256.5,-67.5 95.5,-67.5"/>
<text text-anchor="start" x="103.5" y="-85.5" font-family="Helvetica,sans-Serif" font-size="10.00">Mezzanine::MemoryManagement</text>
<text text-anchor="middle" x="176" y="-74.5" font-family="Helvetica,sans-Serif" font-size="10.00">Exception</text>
</g>
<!-- Node4 -->
<g id="node4" class="node"><title>Node4</title>
<g id="a_node4"><a xlink:href="classMezzanine_1_1MemoryOutOfBoundsException.html" target="_top" xlink:title="Thrown when attempted to access something that really should note be accessed. ">
<polygon fill="white" stroke="black" points="0,-0.5 0,-30.5 164,-30.5 164,-0.5 0,-0.5"/>
<text text-anchor="start" x="8" y="-18.5" font-family="Helvetica,sans-Serif" font-size="10.00">Mezzanine::MemoryOutOfBounds</text>
<text text-anchor="middle" x="82" y="-7.5" font-family="Helvetica,sans-Serif" font-size="10.00">Exception</text>
</a>
</g>
</g>
<!-- Node1&#45;&gt;Node4 -->
<g id="edge3" class="edge"><title>Node1&#45;&gt;Node4</title>
<path fill="none" stroke="midnightblue" d="M147.006,-61.4511C132.545,-51.4517 115.405,-39.5995 102.357,-30.5765"/>
<polygon fill="midnightblue" stroke="midnightblue" points="145.388,-64.5872 155.603,-67.396 149.369,-58.8296 145.388,-64.5872"/>
</g>
<!-- Node5 -->
<g id="node5" class="node"><title>Node5</title>
<g id="a_node5"><a xlink:href="classMezzanine_1_1OutOfMemoryException.html" target="_top" xlink:title="Thrown when A memory allocation was attempted and failed. ">
<polygon fill="white" stroke="black" points="182.5,-6 182.5,-25 357.5,-25 357.5,-6 182.5,-6"/>
<text text-anchor="middle" x="270" y="-13" font-family="Helvetica,sans-Serif" font-size="10.00">Mezzanine::OutOfMemoryException</text>
</a>
</g>
</g>
<!-- Node1&#45;&gt;Node5 -->
<g id="edge4" class="edge"><title>Node1&#45;&gt;Node5</title>
<path fill="none" stroke="midnightblue" d="M204.719,-61.6409C222.459,-49.3742 244.314,-34.2613 257.698,-25.007"/>
<polygon fill="midnightblue" stroke="midnightblue" points="202.631,-58.8296 196.397,-67.396 206.612,-64.5872 202.631,-58.8296"/>
</g>
<!-- Node2 -->
<g id="node2" class="node"><title>Node2</title>
<g id="a_node2"><a xlink:href="classMezzanine_1_1ExceptionBase.html" target="_top" xlink:title="This is the exception thrown by most Mezzanine systems that can throw exceptions. ...">
<polygon fill="white" stroke="black" points="108,-134.5 108,-153.5 244,-153.5 244,-134.5 108,-134.5"/>
<text text-anchor="middle" x="176" y="-141.5" font-family="Helvetica,sans-Serif" font-size="10.00">Mezzanine::ExceptionBase</text>
</a>
</g>
</g>
<!-- Node2&#45;&gt;Node1 -->
<g id="edge1" class="edge"><title>Node2&#45;&gt;Node1</title>
<path fill="none" stroke="midnightblue" d="M176,-124.235C176,-115.586 176,-105.497 176,-97.523"/>
<polygon fill="midnightblue" stroke="midnightblue" points="172.5,-124.475 176,-134.475 179.5,-124.475 172.5,-124.475"/>
</g>
<!-- Node3 -->
<g id="node3" class="node"><title>Node3</title>
<g id="a_node3"><a xlink:title="STL class. ">
<polygon fill="white" stroke="#bfbfbf" points="137,-190.5 137,-209.5 215,-209.5 215,-190.5 137,-190.5"/>
<text text-anchor="middle" x="176" y="-197.5" font-family="Helvetica,sans-Serif" font-size="10.00">std::exception</text>
</a>
</g>
</g>
<!-- Node3&#45;&gt;Node2 -->
<g id="edge2" class="edge"><title>Node3&#45;&gt;Node2</title>
<path fill="none" stroke="midnightblue" d="M176,-179.805C176,-170.91 176,-160.78 176,-153.751"/>
<polygon fill="midnightblue" stroke="midnightblue" points="172.5,-180.083 176,-190.083 179.5,-180.083 172.5,-180.083"/>
</g>
</g>
</svg>
