<?xml version="1.0" encoding="UTF-8" standalone="no"?>
<!DOCTYPE svg PUBLIC "-//W3C//DTD SVG 1.1//EN"
 "http://www.w3.org/Graphics/SVG/1.1/DTD/svg11.dtd">
<!-- Generated by graphviz version 2.26.3 (20100126.1600)
 -->
<!-- Title: Mezzanine::GravityWell Pages: 1 -->
<svg width="3124pt" height="638pt"
 viewBox="0.00 0.00 3124.00 638.00" xmlns="http://www.w3.org/2000/svg" xmlns:xlink="http://www.w3.org/1999/xlink">
<g id="graph1" class="graph" transform="scale(1 1) rotate(0) translate(4 634)">
<title>Mezzanine::GravityWell</title>
<polygon fill="white" stroke="white" points="-4,5 -4,-634 3121,-634 3121,5 -4,5"/>
<!-- Node1 -->
<g id="node1" class="node"><title>Node1</title>
<polygon fill="#bfbfbf" stroke="black" points="2465,-556 2465,-576 2581,-576 2581,-556 2465,-556"/>
<text text-anchor="middle" x="2523" y="-563" font-family="FreeSans" font-size="10.00">Mezzanine::GravityWell</text>
</g>
<!-- Node2 -->
<g id="node2" class="node"><title>Node2</title>
<a xlink:href="classMezzanine_1_1AreaEffect.html" target="_top" xlink:title="This class is used to define area&#39;s in the world that have unique effects. ">
<polygon fill="white" stroke="black" points="2194.5,-556 2194.5,-576 2305.5,-576 2305.5,-556 2194.5,-556"/>
<text text-anchor="middle" x="2250" y="-563" font-family="FreeSans" font-size="10.00">Mezzanine::AreaEffect</text>
</a>
</g>
<!-- Node2&#45;&gt;Node1 -->
<g id="edge2" class="edge"><title>Node2&#45;&gt;Node1</title>
<path fill="none" stroke="midnightblue" d="M2315.62,-566C2361.03,-566 2420.93,-566 2464.67,-566"/>
<polygon fill="midnightblue" stroke="midnightblue" points="2315.57,-562.5 2305.57,-566 2315.57,-569.5 2315.57,-562.5"/>
</g>
<!-- Node3 -->
<g id="node4" class="node"><title>Node3</title>
<a xlink:href="classMezzanine_1_1WorldObject.html" target="_top" xlink:title="This is the base class from which classes that are insertable into the physical world. ">
<polygon fill="white" stroke="black" points="1040,-494 1040,-514 1160,-514 1160,-494 1040,-494"/>
<text text-anchor="middle" x="1100" y="-501" font-family="FreeSans" font-size="10.00">Mezzanine::WorldObject</text>
</a>
</g>
<!-- Node3&#45;&gt;Node2 -->
<g id="edge4" class="edge"><title>Node3&#45;&gt;Node2</title>
<path fill="none" stroke="midnightblue" d="M1120.11,-520.541C1163.78,-554.726 1271.78,-630 1376,-630 1376,-630 1376,-630 1945,-630 2048.61,-630 2167.88,-594.187 2221.4,-576.141"/>
<polygon fill="midnightblue" stroke="midnightblue" points="1122.02,-517.591 1112.02,-514.098 1117.66,-523.066 1122.02,-517.591"/>
</g>
<!-- Node18 -->
<g id="node36" class="node"><title>Node18</title>
<a xlink:href="classMezzanine_1_1WorldProxy.html" target="_top" xlink:title="This is the base class for proxy objects belonging to the various 3D subsystems. ">
<polygon fill="white" stroke="black" points="1318,-434 1318,-454 1434,-454 1434,-434 1318,-434"/>
<text text-anchor="middle" x="1376" y="-441" font-family="FreeSans" font-size="10.00">Mezzanine::WorldProxy</text>
</a>
</g>
<!-- Node3&#45;&gt;Node18 -->
<g id="edge42" class="edge"><title>Node3&#45;&gt;Node18</title>
<path fill="none" stroke="#9a32cd" stroke-dasharray="5,2" d="M1156.09,-491.806C1207.21,-480.693 1281.83,-464.471 1329.65,-454.075"/>
<polygon fill="#9a32cd" stroke="#9a32cd" points="1155.22,-488.413 1146.2,-493.957 1156.71,-495.253 1155.22,-488.413"/>
<text text-anchor="middle" x="1239" y="-489" font-family="FreeSans" font-size="10.00"> ParentObject</text>
</g>
<!-- Node39 -->
<g id="node93" class="node"><title>Node39</title>
<polygon fill="white" stroke="#bfbfbf" points="1736,-554 1736,-574 1872,-574 1872,-554 1736,-554"/>
<text text-anchor="middle" x="1804" y="-561" font-family="FreeSans" font-size="10.00">std::vector&lt; WorldObject * &gt;</text>
</g>
<!-- Node3&#45;&gt;Node39 -->
<g id="edge112" class="edge"><title>Node3&#45;&gt;Node39</title>
<path fill="none" stroke="#9a32cd" stroke-dasharray="5,2" d="M1135.24,-517.39C1148.46,-521.855 1163.74,-526.36 1178,-529 1378.15,-566.044 1619.92,-567.645 1735.7,-565.816"/>
<polygon fill="#9a32cd" stroke="#9a32cd" points="1136.17,-514.01 1125.58,-514.016 1133.86,-520.618 1136.17,-514.01"/>
<text text-anchor="middle" x="1376" y="-561" font-family="FreeSans" font-size="10.00"> elements</text>
</g>
<!-- Node4 -->
<g id="node6" class="node"><title>Node4</title>
<a xlink:href="classMezzanine_1_1TransformableObject.html" target="_top" xlink:title="This is an interface for all 3D objects that can have their full transforms manipulated. ">
<polygon fill="white" stroke="black" points="818,-440 818,-472 946,-472 946,-440 818,-440"/>
<text text-anchor="start" x="826" y="-459" font-family="FreeSans" font-size="10.00">Mezzanine::Transformable</text>
<text text-anchor="middle" x="882" y="-447" font-family="FreeSans" font-size="10.00">Object</text>
</a>
</g>
<!-- Node4&#45;&gt;Node3 -->
<g id="edge6" class="edge"><title>Node4&#45;&gt;Node3</title>
<path fill="none" stroke="midnightblue" d="M924.077,-476.189C936.662,-481.472 950.666,-486.626 964,-490 988.391,-496.172 1015.9,-499.633 1039.76,-501.57"/>
<polygon fill="midnightblue" stroke="midnightblue" points="925.331,-472.918 914.764,-472.152 922.547,-479.341 925.331,-472.918"/>
</g>
<!-- Node4&#45;&gt;Node18 -->
<g id="edge40" class="edge"><title>Node4&#45;&gt;Node18</title>
<path fill="none" stroke="midnightblue" d="M956.285,-454.196C1055.13,-451.794 1227.85,-447.599 1317.8,-445.414"/>
<polygon fill="midnightblue" stroke="midnightblue" points="955.987,-450.702 946.075,-454.444 956.158,-457.7 955.987,-450.702"/>
</g>
<!-- Node5 -->
<g id="node8" class="node"><title>Node5</title>
<a xlink:href="classMezzanine_1_1World.html" target="_top" xlink:title="This class represents a world for objects to interact within. ">
<polygon fill="white" stroke="black" points="836,-397 836,-417 928,-417 928,-397 836,-397"/>
<text text-anchor="middle" x="882" y="-404" font-family="FreeSans" font-size="10.00">Mezzanine::World</text>
</a>
</g>
<!-- Node5&#45;&gt;Node3 -->
<g id="edge8" class="edge"><title>Node5&#45;&gt;Node3</title>
<path fill="none" stroke="#9a32cd" stroke-dasharray="5,2" d="M919.767,-420.563C928.44,-423.843 937.585,-427.435 946,-431 994.767,-451.659 1050.63,-479.118 1079.82,-493.767"/>
<polygon fill="#9a32cd" stroke="#9a32cd" points="920.832,-417.224 910.239,-417.01 918.386,-423.783 920.832,-417.224"/>
<text text-anchor="middle" x="993" y="-466" font-family="FreeSans" font-size="10.00"> ParentWorld</text>
</g>
<!-- Node7 -->
<g id="node12" class="node"><title>Node7</title>
<a xlink:href="classMezzanine_1_1WorldManager.html" target="_top" xlink:title="This is the base class for all managers that belong to a single world instance. ">
<polygon fill="white" stroke="black" points="358.5,-351 358.5,-371 487.5,-371 487.5,-351 358.5,-351"/>
<text text-anchor="middle" x="423" y="-358" font-family="FreeSans" font-size="10.00">Mezzanine::WorldManager</text>
</a>
</g>
<!-- Node5&#45;&gt;Node7 -->
<g id="edge22" class="edge"><title>Node5&#45;&gt;Node7</title>
<path fill="none" stroke="#9a32cd" stroke-dasharray="5,2" d="M825.814,-404.463C752.13,-400.692 618.948,-392.344 506,-377 494.367,-375.42 481.899,-373.264 470.254,-371.048"/>
<polygon fill="#9a32cd" stroke="#9a32cd" points="825.645,-407.959 835.808,-404.965 825.996,-400.968 825.645,-407.959"/>
<text text-anchor="middle" x="639" y="-400" font-family="FreeSans" font-size="10.00"> ParentWorld</text>
</g>
<!-- Node6 -->
<g id="node10" class="node"><title>Node6</title>
<polygon fill="white" stroke="#bfbfbf" points="566.5,-351 566.5,-371 711.5,-371 711.5,-351 566.5,-351"/>
<text text-anchor="middle" x="639" y="-358" font-family="FreeSans" font-size="10.00">std::vector&lt; WorldManager * &gt;</text>
</g>
<!-- Node6&#45;&gt;Node5 -->
<g id="edge10" class="edge"><title>Node6&#45;&gt;Node5</title>
<path fill="none" stroke="#9a32cd" stroke-dasharray="5,2" d="M721.553,-368.31C746.886,-371.34 774.737,-375.475 800,-381 818.529,-385.052 838.855,-391.483 854.634,-396.935"/>
<polygon fill="#9a32cd" stroke="#9a32cd" points="721.946,-364.832 711.61,-367.16 721.142,-371.785 721.946,-364.832"/>
<text text-anchor="middle" x="765" y="-384" font-family="FreeSans" font-size="10.00"> WorldManagers</text>
</g>
<!-- Node7&#45;&gt;Node6 -->
<g id="edge12" class="edge"><title>Node7&#45;&gt;Node6</title>
<path fill="none" stroke="#9a32cd" stroke-dasharray="5,2" d="M497.6,-361C519.909,-361 544.326,-361 566.498,-361"/>
<polygon fill="#9a32cd" stroke="#9a32cd" points="497.515,-357.5 487.515,-361 497.515,-364.5 497.515,-357.5"/>
<text text-anchor="middle" x="527" y="-364" font-family="FreeSans" font-size="10.00"> elements</text>
</g>
<!-- Node19 -->
<g id="node40" class="node"><title>Node19</title>
<a xlink:href="classMezzanine_1_1Physics_1_1PhysicsManager.html" target="_top" xlink:title="This is simply a place for storing all the Physics Related functions. ">
<polygon fill="white" stroke="black" points="2722,-237 2722,-269 2822,-269 2822,-237 2722,-237"/>
<text text-anchor="start" x="2730" y="-256" font-family="FreeSans" font-size="10.00">Mezzanine::Physics</text>
<text text-anchor="middle" x="2772" y="-244" font-family="FreeSans" font-size="10.00">::PhysicsManager</text>
</a>
</g>
<!-- Node7&#45;&gt;Node19 -->
<g id="edge46" class="edge"><title>Node7&#45;&gt;Node19</title>
<path fill="none" stroke="midnightblue" d="M427.094,-340.813C442.064,-273.357 500.371,-60 639,-60 639,-60 639,-60 2523,-60 2604.69,-60 2640.12,-41.0737 2704,-92 2750.5,-129.074 2765.66,-203.754 2770.21,-236.723"/>
<polygon fill="midnightblue" stroke="midnightblue" points="423.587,-340.475 424.924,-350.985 430.433,-341.936 423.587,-340.475"/>
</g>
<!-- Node8 -->
<g id="node14" class="node"><title>Node8</title>
<a xlink:href="classMezzanine_1_1ManagerBase.html" target="_top" xlink:title="This is the base class from which all the Entresol and World Managers inherit. ">
<polygon fill="white" stroke="black" points="194,-351 194,-371 320,-371 320,-351 194,-351"/>
<text text-anchor="middle" x="257" y="-358" font-family="FreeSans" font-size="10.00">Mezzanine::ManagerBase</text>
</a>
</g>
<!-- Node8&#45;&gt;Node7 -->
<g id="edge14" class="edge"><title>Node8&#45;&gt;Node7</title>
<path fill="none" stroke="midnightblue" d="M330.272,-361C339.606,-361 349.107,-361 358.293,-361"/>
<polygon fill="midnightblue" stroke="midnightblue" points="330.231,-357.5 320.231,-361 330.231,-364.5 330.231,-357.5"/>
</g>
<!-- Node9 -->
<g id="node16" class="node"><title>Node9</title>
<a xlink:href="classMezzanine_1_1Entresol.html" target="_top" xlink:title="This is the main entry point for the entire library. ">
<polygon fill="white" stroke="black" points="0.5,-318 0.5,-338 101.5,-338 101.5,-318 0.5,-318"/>
<text text-anchor="middle" x="51" y="-325" font-family="FreeSans" font-size="10.00">Mezzanine::Entresol</text>
</a>
</g>
<!-- Node9&#45;&gt;Node8 -->
<g id="edge16" class="edge"><title>Node9&#45;&gt;Node8</title>
<path fill="none" stroke="#9a32cd" stroke-dasharray="5,2" d="M111.769,-337.735C137.788,-341.903 168.155,-346.768 194.376,-350.968"/>
<polygon fill="#9a32cd" stroke="#9a32cd" points="112.085,-334.241 101.657,-336.115 110.978,-341.153 112.085,-334.241"/>
<text text-anchor="middle" x="148" y="-350" font-family="FreeSans" font-size="10.00"> TheEntresol</text>
</g>
<!-- Node10 -->
<g id="node18" class="node"><title>Node10</title>
<a xlink:href="classMezzanine_1_1Singleton.html" target="_top" xlink:title="Mezzanine::Singleton\l\&lt; Entresol \&gt;">
<polygon fill="white" stroke="black" points="203.5,-293 203.5,-325 310.5,-325 310.5,-293 203.5,-293"/>
<text text-anchor="start" x="211.5" y="-312" font-family="FreeSans" font-size="10.00">Mezzanine::Singleton</text>
<text text-anchor="middle" x="257" y="-300" font-family="FreeSans" font-size="10.00">&lt; Entresol &gt;</text>
</a>
</g>
<!-- Node9&#45;&gt;Node10 -->
<g id="edge20" class="edge"><title>Node9&#45;&gt;Node10</title>
<path fill="none" stroke="#9a32cd" stroke-dasharray="5,2" d="M79.2171,-313.677C91.4259,-308.244 106.083,-302.716 120,-300 147.138,-294.704 177.811,-296.055 203.244,-299.117"/>
<polygon fill="#9a32cd" stroke="#9a32cd" points="77.6036,-310.567 70.0117,-317.957 80.5551,-316.914 77.6036,-310.567"/>
<text text-anchor="middle" x="148" y="-303" font-family="FreeSans" font-size="10.00"> SingletonPtr</text>
</g>
<!-- Node10&#45;&gt;Node9 -->
<g id="edge18" class="edge"><title>Node10&#45;&gt;Node9</title>
<path fill="none" stroke="midnightblue" d="M193.115,-314.892C163.688,-317.606 129.258,-320.782 101.657,-323.328"/>
<polygon fill="midnightblue" stroke="midnightblue" points="193.659,-318.357 203.296,-313.953 193.016,-311.387 193.659,-318.357"/>
</g>
<!-- Node11 -->
<g id="node22" class="node"><title>Node11</title>
<a xlink:title="STL class. ">
<polygon fill="white" stroke="#bfbfbf" points="853.5,-300 853.5,-320 910.5,-320 910.5,-300 853.5,-300"/>
<text text-anchor="middle" x="882" y="-307" font-family="FreeSans" font-size="10.00">std::string</text>
</a>
</g>
<!-- Node11&#45;&gt;Node3 -->
<g id="edge24" class="edge"><title>Node11&#45;&gt;Node3</title>
<path fill="none" stroke="#9a32cd" stroke-dasharray="5,2" d="M903.501,-326.268C931.539,-347.757 981.751,-387.196 1022,-424 1048.05,-447.824 1076.49,-478.208 1090.75,-493.783"/>
<polygon fill="#9a32cd" stroke="#9a32cd" points="905.621,-323.482 895.548,-320.198 901.374,-329.047 905.621,-323.482"/>
<text text-anchor="middle" x="993" y="-427" font-family="FreeSans" font-size="10.00"> ObjectName</text>
</g>
<!-- Node35 -->
<g id="node83" class="node"><title>Node35</title>
<a xlink:href="classMezzanine_1_1WorldTrigger.html" target="_top" xlink:title="This is an abstract class for creating in&#45;game triggers. ">
<polygon fill="white" stroke="black" points="1178,-240 1178,-260 1300,-260 1300,-240 1178,-240"/>
<text text-anchor="middle" x="1239" y="-247" font-family="FreeSans" font-size="10.00">Mezzanine::WorldTrigger</text>
</a>
</g>
<!-- Node11&#45;&gt;Node35 -->
<g id="edge100" class="edge"><title>Node11&#45;&gt;Node35</title>
<path fill="none" stroke="#9a32cd" stroke-dasharray="5,2" d="M920.82,-302.144C934.454,-299.46 949.888,-296.505 964,-294 1037.31,-280.986 1121.94,-267.707 1177.73,-259.191"/>
<polygon fill="#9a32cd" stroke="#9a32cd" points="919.924,-298.754 910.797,-304.132 921.286,-305.62 919.924,-298.754"/>
<text text-anchor="middle" x="993" y="-297" font-family="FreeSans" font-size="10.00"> Name</text>
</g>
<!-- Node38 -->
<g id="node90" class="node"><title>Node38</title>
<a xlink:href="classMezzanine_1_1Physics_1_1CollisionShape.html" target="_top" xlink:title="This is the base class for all collision shapes. ">
<polygon fill="white" stroke="black" points="1189,-294 1189,-326 1289,-326 1289,-294 1189,-294"/>
<text text-anchor="start" x="1197" y="-313" font-family="FreeSans" font-size="10.00">Mezzanine::Physics</text>
<text text-anchor="middle" x="1239" y="-301" font-family="FreeSans" font-size="10.00">::CollisionShape</text>
</a>
</g>
<!-- Node11&#45;&gt;Node38 -->
<g id="edge108" class="edge"><title>Node11&#45;&gt;Node38</title>
<path fill="none" stroke="#9a32cd" stroke-dasharray="5,2" d="M920.848,-310C985.94,-310 1116.96,-310 1188.89,-310"/>
<polygon fill="#9a32cd" stroke="#9a32cd" points="920.611,-306.5 910.611,-310 920.611,-313.5 920.611,-306.5"/>
<text text-anchor="middle" x="993" y="-313" font-family="FreeSans" font-size="10.00"> Name</text>
</g>
<!-- Node12 -->
<g id="node24" class="node"><title>Node12</title>
<a xlink:title="STL class. ">
<polygon fill="white" stroke="#bfbfbf" points="593.5,-294 593.5,-326 684.5,-326 684.5,-294 593.5,-294"/>
<text text-anchor="start" x="601.5" y="-313" font-family="FreeSans" font-size="10.00">std::basic_string&lt;</text>
<text text-anchor="middle" x="639" y="-301" font-family="FreeSans" font-size="10.00"> char &gt;</text>
</a>
</g>
<!-- Node12&#45;&gt;Node11 -->
<g id="edge26" class="edge"><title>Node12&#45;&gt;Node11</title>
<path fill="none" stroke="midnightblue" d="M694.917,-310C744.326,-310 814.396,-310 853.245,-310"/>
<polygon fill="midnightblue" stroke="midnightblue" points="694.706,-306.5 684.706,-310 694.706,-313.5 694.706,-306.5"/>
</g>
<!-- Node13 -->
<g id="node26" class="node"><title>Node13</title>
<polygon fill="white" stroke="#bfbfbf" points="2204,-362 2204,-394 2296,-394 2296,-362 2204,-362"/>
<text text-anchor="start" x="2212" y="-381" font-family="FreeSans" font-size="10.00">std::set&lt; Physics::</text>
<text text-anchor="middle" x="2250" y="-369" font-family="FreeSans" font-size="10.00">Collision * &gt;</text>
</g>
<!-- Node13&#45;&gt;Node3 -->
<g id="edge28" class="edge"><title>Node13&#45;&gt;Node3</title>
<path fill="none" stroke="#9a32cd" stroke-dasharray="5,2" d="M2223.35,-401.193C2211.18,-412.516 2197.05,-426.75 2186,-441 2176.24,-453.589 2181.21,-463.092 2168,-472 2100.47,-517.54 1885.45,-515 1804,-515 1376,-515 1376,-515 1376,-515 1301.55,-515 1215.89,-510.954 1160,-507.77"/>
<polygon fill="#9a32cd" stroke="#9a32cd" points="2225.99,-403.527 2231.01,-394.201 2221.27,-398.356 2225.99,-403.527"/>
<text text-anchor="middle" x="1663" y="-518" font-family="FreeSans" font-size="10.00"> CurrentCollisions</text>
</g>
<!-- Node14 -->
<g id="node28" class="node"><title>Node14</title>
<a xlink:href="classMezzanine_1_1Physics_1_1Collision.html" target="_top" xlink:title="This is an event class used to track collsions in the physics world. ">
<polygon fill="white" stroke="black" points="1895,-355 1895,-387 1995,-387 1995,-355 1895,-355"/>
<text text-anchor="start" x="1903" y="-374" font-family="FreeSans" font-size="10.00">Mezzanine::Physics</text>
<text text-anchor="middle" x="1945" y="-362" font-family="FreeSans" font-size="10.00">::Collision</text>
</a>
</g>
<!-- Node14&#45;&gt;Node13 -->
<g id="edge30" class="edge"><title>Node14&#45;&gt;Node13</title>
<path fill="none" stroke="#9a32cd" stroke-dasharray="5,2" d="M2005.21,-372.382C2063.6,-373.722 2150.91,-375.726 2203.95,-376.943"/>
<polygon fill="#9a32cd" stroke="#9a32cd" points="2005.1,-368.879 1995.02,-372.148 2004.94,-375.877 2005.1,-368.879"/>
<text text-anchor="middle" x="2093" y="-378" font-family="FreeSans" font-size="10.00"> keys</text>
</g>
<!-- Node28 -->
<g id="node62" class="node"><title>Node28</title>
<polygon fill="white" stroke="#bfbfbf" points="2188.5,-312 2188.5,-344 2311.5,-344 2311.5,-312 2188.5,-312"/>
<text text-anchor="start" x="2196.5" y="-331" font-family="FreeSans" font-size="10.00">std::map&lt; CollidablePair,</text>
<text text-anchor="middle" x="2250" y="-319" font-family="FreeSans" font-size="10.00"> Collision * &gt;</text>
</g>
<!-- Node14&#45;&gt;Node28 -->
<g id="edge72" class="edge"><title>Node14&#45;&gt;Node28</title>
<path fill="none" stroke="#9a32cd" stroke-dasharray="5,2" d="M2005.23,-358.218C2009.54,-357.427 2013.83,-356.678 2018,-356 2075.46,-346.645 2141.4,-338.98 2188.26,-334.05"/>
<polygon fill="#9a32cd" stroke="#9a32cd" points="2004.34,-354.825 1995.16,-360.125 2005.64,-361.702 2004.34,-354.825"/>
<text text-anchor="middle" x="2093" y="-359" font-family="FreeSans" font-size="10.00"> elements</text>
</g>
<!-- Node15 -->
<g id="node30" class="node"><title>Node15</title>
<polygon fill="white" stroke="#bfbfbf" points="1615,-454 1615,-474 1711,-474 1711,-454 1615,-454"/>
<text text-anchor="middle" x="1663" y="-461" font-family="FreeSans" font-size="10.00">std::vector&lt; Real &gt;</text>
</g>
<!-- Node15&#45;&gt;Node14 -->
<g id="edge32" class="edge"><title>Node15&#45;&gt;Node14</title>
<path fill="none" stroke="#9a32cd" stroke-dasharray="5,2" d="M1721.54,-457.132C1765,-450.248 1824.69,-436.945 1872,-412 1881.47,-407.008 1881.03,-401.836 1890,-396 1894.92,-392.798 1900.33,-389.8 1905.76,-387.071"/>
<polygon fill="#9a32cd" stroke="#9a32cd" points="1720.78,-453.707 1711.41,-458.666 1721.82,-460.628 1720.78,-453.707"/>
<text text-anchor="middle" x="1804" y="-456" font-family="FreeSans" font-size="10.00"> PenetrationDistances</text>
</g>
<!-- Node16 -->
<g id="node32" class="node"><title>Node16</title>
<a xlink:href="structMezzanine_1_1Physics_1_1CollisionInternalData.html" target="_top" xlink:title="Used to insulate the interface from the implementation details for bullet. ">
<polygon fill="white" stroke="black" points="1608,-388 1608,-420 1718,-420 1718,-388 1608,-388"/>
<text text-anchor="start" x="1616" y="-407" font-family="FreeSans" font-size="10.00">Mezzanine::Physics</text>
<text text-anchor="middle" x="1663" y="-395" font-family="FreeSans" font-size="10.00">::CollisionInternalData</text>
</a>
</g>
<!-- Node16&#45;&gt;Node14 -->
<g id="edge34" class="edge"><title>Node16&#45;&gt;Node14</title>
<path fill="none" stroke="#9a32cd" stroke-dasharray="5,2" d="M1728.28,-397.885C1769.54,-393.833 1823.96,-388.145 1872,-382 1879.37,-381.057 1887.15,-379.976 1894.78,-378.869"/>
<polygon fill="#9a32cd" stroke="#9a32cd" points="1727.7,-394.425 1718.08,-398.879 1728.38,-401.392 1727.7,-394.425"/>
<text text-anchor="middle" x="1804" y="-399" font-family="FreeSans" font-size="10.00"> InternalData</text>
</g>
<!-- Node17 -->
<g id="node34" class="node"><title>Node17</title>
<a xlink:href="classMezzanine_1_1Physics_1_1CollidableProxy.html" target="_top" xlink:title="This is a proxy from which physics objects that can collide with each other are handled. ">
<polygon fill="white" stroke="black" points="1613,-294 1613,-326 1713,-326 1713,-294 1613,-294"/>
<text text-anchor="start" x="1621" y="-313" font-family="FreeSans" font-size="10.00">Mezzanine::Physics</text>
<text text-anchor="middle" x="1663" y="-301" font-family="FreeSans" font-size="10.00">::CollidableProxy</text>
</a>
</g>
<!-- Node17&#45;&gt;Node14 -->
<g id="edge36" class="edge"><title>Node17&#45;&gt;Node14</title>
<path fill="none" stroke="#9a32cd" stroke-dasharray="5,2" d="M1715.39,-329.276C1722.26,-331.411 1729.26,-333.39 1736,-335 1795.36,-349.174 1812,-342.845 1872,-354 1879.42,-355.379 1887.23,-357.006 1894.86,-358.698"/>
<polygon fill="#9a32cd" stroke="#9a32cd" points="1716.04,-325.807 1705.44,-326.062 1713.88,-332.468 1716.04,-325.807"/>
<text text-anchor="middle" x="1804" y="-369" font-family="FreeSans" font-size="10.00"> ProxyA</text>
<text text-anchor="middle" x="1804" y="-357" font-family="FreeSans" font-size="10.00">ProxyB</text>
</g>
<!-- Node26 -->
<g id="node56" class="node"><title>Node26</title>
<a xlink:href="classMezzanine_1_1Physics_1_1RigidProxy.html" target="_top" xlink:title="This is a proxy from which rigid body proxys are handled. ">
<polygon fill="white" stroke="black" points="1895,-216 1895,-248 1995,-248 1995,-216 1895,-216"/>
<text text-anchor="start" x="1903" y="-235" font-family="FreeSans" font-size="10.00">Mezzanine::Physics</text>
<text text-anchor="middle" x="1945" y="-223" font-family="FreeSans" font-size="10.00">::RigidProxy</text>
</a>
</g>
<!-- Node17&#45;&gt;Node26 -->
<g id="edge64" class="edge"><title>Node17&#45;&gt;Node26</title>
<path fill="none" stroke="midnightblue" d="M1691.27,-287.787C1704.21,-278.702 1720.18,-268.948 1736,-263 1788.02,-243.442 1851.66,-236.176 1894.96,-233.502"/>
<polygon fill="midnightblue" stroke="midnightblue" points="1688.86,-285.208 1682.82,-293.914 1692.97,-290.874 1688.86,-285.208"/>
</g>
<!-- Node27 -->
<g id="node59" class="node"><title>Node27</title>
<polygon fill="white" stroke="#bfbfbf" points="2018.5,-176 2018.5,-196 2167.5,-196 2167.5,-176 2018.5,-176"/>
<text text-anchor="middle" x="2093" y="-183" font-family="FreeSans" font-size="10.00">std::vector&lt; CollidableProxy * &gt;</text>
</g>
<!-- Node17&#45;&gt;Node27 -->
<g id="edge68" class="edge"><title>Node17&#45;&gt;Node27</title>
<path fill="none" stroke="#9a32cd" stroke-dasharray="5,2" d="M1675.61,-284.92C1687.88,-263.437 1708.65,-233.708 1736,-219 1824.26,-171.533 1942.71,-170.719 2018.46,-176.651"/>
<polygon fill="#9a32cd" stroke="#9a32cd" points="1672.46,-283.388 1670.73,-293.841 1678.6,-286.747 1672.46,-283.388"/>
<text text-anchor="middle" x="1804" y="-222" font-family="FreeSans" font-size="10.00"> elements</text>
</g>
<!-- Node29 -->
<g id="node65" class="node"><title>Node29</title>
<a xlink:href="classMezzanine_1_1Physics_1_1CollidablePair.html" target="_top" xlink:title="This is a helper class for storing pairs of collidable proxies in associative containers. ">
<polygon fill="white" stroke="black" points="1895,-305 1895,-337 1995,-337 1995,-305 1895,-305"/>
<text text-anchor="start" x="1903" y="-324" font-family="FreeSans" font-size="10.00">Mezzanine::Physics</text>
<text text-anchor="middle" x="1945" y="-312" font-family="FreeSans" font-size="10.00">::CollidablePair</text>
</a>
</g>
<!-- Node17&#45;&gt;Node29 -->
<g id="edge76" class="edge"><title>Node17&#45;&gt;Node29</title>
<path fill="none" stroke="#9a32cd" stroke-dasharray="5,2" d="M1723.34,-308.196C1765.13,-307.459 1822.01,-307.472 1872,-311 1879.4,-311.522 1887.2,-312.321 1894.83,-313.245"/>
<polygon fill="#9a32cd" stroke="#9a32cd" points="1723.25,-304.697 1713.32,-308.392 1723.39,-311.696 1723.25,-304.697"/>
<text text-anchor="middle" x="1804" y="-326" font-family="FreeSans" font-size="10.00"> ProxyA</text>
<text text-anchor="middle" x="1804" y="-314" font-family="FreeSans" font-size="10.00">ProxyB</text>
</g>
<!-- Node40 -->
<g id="node96" class="node"><title>Node40</title>
<a xlink:href="classMezzanine_1_1Physics_1_1GhostProxy.html" target="_top" xlink:title="This is the proxy object for ghost objects with no contact response. ">
<polygon fill="white" stroke="black" points="1895,-455 1895,-487 1995,-487 1995,-455 1895,-455"/>
<text text-anchor="start" x="1903" y="-474" font-family="FreeSans" font-size="10.00">Mezzanine::Physics</text>
<text text-anchor="middle" x="1945" y="-462" font-family="FreeSans" font-size="10.00">::GhostProxy</text>
</a>
</g>
<!-- Node17&#45;&gt;Node40 -->
<g id="edge116" class="edge"><title>Node17&#45;&gt;Node40</title>
<path fill="none" stroke="midnightblue" d="M1683.87,-334.055C1694.64,-346.969 1707.64,-363.402 1718,-379 1727.24,-392.918 1722.75,-401.826 1736,-412 1785.34,-449.876 1812.4,-427.208 1872,-445 1881.93,-447.963 1892.49,-451.496 1902.4,-454.988"/>
<polygon fill="midnightblue" stroke="midnightblue" points="1686.3,-331.503 1677.18,-326.12 1680.95,-336.019 1686.3,-331.503"/>
</g>
<!-- Node18&#45;&gt;Node17 -->
<g id="edge38" class="edge"><title>Node18&#45;&gt;Node17</title>
<path fill="none" stroke="midnightblue" d="M1406.64,-429.695C1460.57,-404.516 1572.07,-352.454 1628.57,-326.073"/>
<polygon fill="midnightblue" stroke="midnightblue" points="1405.15,-426.526 1397.57,-433.928 1408.11,-432.869 1405.15,-426.526"/>
</g>
<!-- Node19&#45;&gt;Node17 -->
<g id="edge44" class="edge"><title>Node19&#45;&gt;Node17</title>
<path fill="none" stroke="#9a32cd" stroke-dasharray="5,2" d="M2711.78,-263.138C2709.15,-263.455 2706.55,-263.744 2704,-264 2343.75,-300.085 2251.73,-280.669 1890,-296 1821.55,-298.901 1804.34,-298.173 1736,-303 1728.63,-303.52 1720.86,-304.164 1713.24,-304.849"/>
<polygon fill="#9a32cd" stroke="#9a32cd" points="2712.5,-266.573 2721.96,-261.8 2711.59,-259.633 2712.5,-266.573"/>
<text text-anchor="middle" x="2250" y="-291" font-family="FreeSans" font-size="10.00"> Manager</text>
</g>
<!-- Node19&#45;&gt;Node19 -->
<g id="edge82" class="edge"><title>Node19&#45;&gt;Node19</title>
<path fill="none" stroke="#9a32cd" stroke-dasharray="5,2" d="M2751.59,-279.19C2754.29,-283.794 2761.09,-287 2772,-287 2789.9,-287 2796.75,-278.366 2792.56,-269.091"/>
<polygon fill="#9a32cd" stroke="#9a32cd" points="2755.08,-279.041 2751.44,-269.091 2748.08,-279.139 2755.08,-279.041"/>
<text text-anchor="middle" x="2772" y="-290" font-family="FreeSans" font-size="10.00"> CallBackWorld</text>
</g>
<!-- Node32 -->
<g id="node73" class="node"><title>Node32</title>
<a xlink:href="classMezzanine_1_1Physics_1_1DebugDrawWorkUnit.html" target="_top" xlink:title="This is a Mezzanine::Threading::iWorkUnit for the updating of the physics debug drawer. ">
<polygon fill="white" stroke="black" points="2988,-388 2988,-420 3098,-420 3098,-388 2988,-388"/>
<text text-anchor="start" x="2996" y="-407" font-family="FreeSans" font-size="10.00">Mezzanine::Physics</text>
<text text-anchor="middle" x="3043" y="-395" font-family="FreeSans" font-size="10.00">::DebugDrawWorkUnit</text>
</a>
</g>
<!-- Node19&#45;&gt;Node32 -->
<g id="edge88" class="edge"><title>Node19&#45;&gt;Node32</title>
<path fill="none" stroke="#9a32cd" stroke-dasharray="5,2" d="M2779.51,-278.759C2788.95,-306.251 2807.92,-348.834 2840,-371 2863.35,-387.135 2936.01,-395.957 2987.71,-400.326"/>
<polygon fill="#9a32cd" stroke="#9a32cd" points="2782.77,-277.466 2776.36,-269.036 2776.12,-279.628 2782.77,-277.466"/>
<text text-anchor="middle" x="2896" y="-399" font-family="FreeSans" font-size="10.00"> TargetManager</text>
</g>
<!-- Node33 -->
<g id="node77" class="node"><title>Node33</title>
<a xlink:href="classMezzanine_1_1Physics_1_1WorldTriggerUpdateWorkUnit.html" target="_top" xlink:title="This is a Mezzanine::Threading::iWorkUnit for the updating of WorldTriggers. ">
<polygon fill="white" stroke="black" points="2970,-272 2970,-304 3116,-304 3116,-272 2970,-272"/>
<text text-anchor="start" x="2978" y="-291" font-family="FreeSans" font-size="10.00">Mezzanine::Physics</text>
<text text-anchor="middle" x="3043" y="-279" font-family="FreeSans" font-size="10.00">::WorldTriggerUpdateWorkUnit</text>
</a>
</g>
<!-- Node19&#45;&gt;Node33 -->
<g id="edge94" class="edge"><title>Node19&#45;&gt;Node33</title>
<path fill="none" stroke="#9a32cd" stroke-dasharray="5,2" d="M2831.95,-264.736C2834.67,-265.181 2837.36,-265.605 2840,-266 2882.77,-272.396 2930.88,-277.692 2969.53,-281.484"/>
<polygon fill="#9a32cd" stroke="#9a32cd" points="2832.5,-261.28 2822.05,-263.045 2831.32,-268.18 2832.5,-261.28"/>
<text text-anchor="middle" x="2896" y="-282" font-family="FreeSans" font-size="10.00"> TargetManager</text>
</g>
<!-- Node20 -->
<g id="node43" class="node"><title>Node20</title>
<a xlink:href="classMezzanine_1_1Threading_1_1DefaultWorkUnit.html" target="_top" xlink:title="Default implementation of WorkUnit. This represents on piece of work through time. ">
<polygon fill="white" stroke="black" points="2468,-411 2468,-443 2578,-443 2578,-411 2468,-411"/>
<text text-anchor="start" x="2476" y="-430" font-family="FreeSans" font-size="10.00">Mezzanine::Threading</text>
<text text-anchor="middle" x="2523" y="-418" font-family="FreeSans" font-size="10.00">::DefaultWorkUnit</text>
</a>
</g>
<!-- Node20&#45;&gt;Node19 -->
<g id="edge48" class="edge"><title>Node20&#45;&gt;Node19</title>
<path fill="none" stroke="#9a32cd" stroke-dasharray="5,2" d="M2544.3,-403.267C2559.88,-387.322 2582.35,-367.087 2606,-355 2645.84,-334.637 2665.75,-355.205 2704,-332 2729.84,-316.325 2750.9,-287.482 2762.43,-269.322"/>
<polygon fill="#9a32cd" stroke="#9a32cd" points="2541.58,-401.039 2537.22,-410.696 2546.65,-405.866 2541.58,-401.039"/>
<text text-anchor="middle" x="2655" y="-358" font-family="FreeSans" font-size="10.00"> SimulationWork</text>
</g>
<!-- Node20&#45;&gt;Node32 -->
<g id="edge86" class="edge"><title>Node20&#45;&gt;Node32</title>
<path fill="none" stroke="midnightblue" d="M2588.42,-425.785C2672.58,-423.975 2823.29,-419.902 2952,-412 2963.56,-411.291 2975.92,-410.335 2987.69,-409.332"/>
<polygon fill="midnightblue" stroke="midnightblue" points="2588.16,-422.289 2578.24,-425.999 2588.31,-429.288 2588.16,-422.289"/>
</g>
<!-- Node20&#45;&gt;Node33 -->
<g id="edge92" class="edge"><title>Node20&#45;&gt;Node33</title>
<path fill="none" stroke="midnightblue" d="M2588.44,-418.097C2700.23,-402.625 2919.17,-371.083 2952,-357 2981.34,-344.415 3009.77,-320.369 3026.83,-304.255"/>
<polygon fill="midnightblue" stroke="midnightblue" points="2587.72,-414.664 2578.29,-419.498 2588.68,-421.598 2587.72,-414.664"/>
</g>
<!-- Node21 -->
<g id="node45" class="node"><title>Node21</title>
<a xlink:href="classMezzanine_1_1Threading_1_1iWorkUnit.html" target="_top" xlink:title="Interface of a WorkUnit. This represents on piece of work through time. ">
<polygon fill="white" stroke="black" points="1890,-405 1890,-437 2000,-437 2000,-405 1890,-405"/>
<text text-anchor="start" x="1898" y="-424" font-family="FreeSans" font-size="10.00">Mezzanine::Threading</text>
<text text-anchor="middle" x="1945" y="-412" font-family="FreeSans" font-size="10.00">::iWorkUnit</text>
</a>
</g>
<!-- Node21&#45;&gt;Node20 -->
<g id="edge50" class="edge"><title>Node21&#45;&gt;Node20</title>
<path fill="none" stroke="midnightblue" d="M2010.2,-421.677C2124.83,-422.867 2360.46,-425.313 2467.68,-426.426"/>
<polygon fill="midnightblue" stroke="midnightblue" points="2010.2,-418.177 2000.16,-421.573 2010.12,-425.176 2010.2,-418.177"/>
</g>
<!-- Node22 -->
<g id="node47" class="node"><title>Node22</title>
<polygon fill="white" stroke="#bfbfbf" points="2187.5,-450 2187.5,-482 2312.5,-482 2312.5,-450 2187.5,-450"/>
<text text-anchor="start" x="2195.5" y="-469" font-family="FreeSans" font-size="10.00">std::vector&lt; Mezzanine</text>
<text text-anchor="middle" x="2250" y="-457" font-family="FreeSans" font-size="10.00">::Threading::iWorkUnit * &gt;</text>
</g>
<!-- Node21&#45;&gt;Node22 -->
<g id="edge54" class="edge"><title>Node21&#45;&gt;Node22</title>
<path fill="none" stroke="#9a32cd" stroke-dasharray="5,2" d="M2010.35,-434.674C2012.93,-435.136 2015.49,-435.58 2018,-436 2075.08,-445.542 2140.5,-453.756 2187.29,-459.165"/>
<polygon fill="#9a32cd" stroke="#9a32cd" points="2010.79,-431.197 2000.32,-432.816 2009.52,-438.08 2010.79,-431.197"/>
<text text-anchor="middle" x="2093" y="-459" font-family="FreeSans" font-size="10.00"> elements</text>
</g>
<!-- Node22&#45;&gt;Node20 -->
<g id="edge52" class="edge"><title>Node22&#45;&gt;Node20</title>
<path fill="none" stroke="#9a32cd" stroke-dasharray="5,2" d="M2322.73,-455.61C2368.2,-449.115 2425.84,-440.88 2467.6,-434.914"/>
<polygon fill="#9a32cd" stroke="#9a32cd" points="2322.04,-452.173 2312.63,-457.053 2323.03,-459.103 2322.04,-452.173"/>
<text text-anchor="middle" x="2386" y="-456" font-family="FreeSans" font-size="10.00"> Dependencies</text>
</g>
<!-- Node23 -->
<g id="node50" class="node"><title>Node23</title>
<a xlink:href="structMezzanine_1_1DefaultRollingAverage.html" target="_top" xlink:title="Mezzanine::DefaultRolling\lAverage\&lt; Whole \&gt;">
<polygon fill="white" stroke="black" points="2186.5,-500 2186.5,-532 2313.5,-532 2313.5,-500 2186.5,-500"/>
<text text-anchor="start" x="2194.5" y="-519" font-family="FreeSans" font-size="10.00">Mezzanine::DefaultRolling</text>
<text text-anchor="middle" x="2250" y="-507" font-family="FreeSans" font-size="10.00">Average&lt; Whole &gt;</text>
</a>
</g>
<!-- Node23&#45;&gt;Node20 -->
<g id="edge56" class="edge"><title>Node23&#45;&gt;Node20</title>
<path fill="none" stroke="#9a32cd" stroke-dasharray="5,2" d="M2323.42,-501.9C2359.17,-494.015 2402.44,-482.945 2440,-469 2459.08,-461.918 2479.48,-451.633 2495.29,-443.013"/>
<polygon fill="#9a32cd" stroke="#9a32cd" points="2322.58,-498.501 2313.55,-504.039 2324.06,-505.342 2322.58,-498.501"/>
<text text-anchor="middle" x="2386" y="-502" font-family="FreeSans" font-size="10.00"> PerformanceLog</text>
</g>
<!-- Node24 -->
<g id="node52" class="node"><title>Node24</title>
<polygon fill="white" stroke="#bfbfbf" points="2460,-229 2460,-249 2586,-249 2586,-229 2460,-229"/>
<text text-anchor="middle" x="2523" y="-236" font-family="FreeSans" font-size="10.00">std::vector&lt; Constraint * &gt;</text>
</g>
<!-- Node24&#45;&gt;Node19 -->
<g id="edge58" class="edge"><title>Node24&#45;&gt;Node19</title>
<path fill="none" stroke="#9a32cd" stroke-dasharray="5,2" d="M2596.23,-243.117C2636.65,-245.39 2685.81,-248.154 2721.85,-250.18"/>
<polygon fill="#9a32cd" stroke="#9a32cd" points="2596.34,-239.618 2586.16,-242.551 2595.94,-246.607 2596.34,-239.618"/>
<text text-anchor="middle" x="2655" y="-251" font-family="FreeSans" font-size="10.00"> Constraints</text>
</g>
<!-- Node25 -->
<g id="node54" class="node"><title>Node25</title>
<a xlink:href="classMezzanine_1_1Physics_1_1Constraint.html" target="_top" xlink:title="This is the base class for all constraints supported. ">
<polygon fill="white" stroke="black" points="2200,-214 2200,-246 2300,-246 2300,-214 2200,-214"/>
<text text-anchor="start" x="2208" y="-233" font-family="FreeSans" font-size="10.00">Mezzanine::Physics</text>
<text text-anchor="middle" x="2250" y="-221" font-family="FreeSans" font-size="10.00">::Constraint</text>
</a>
</g>
<!-- Node25&#45;&gt;Node24 -->
<g id="edge60" class="edge"><title>Node25&#45;&gt;Node24</title>
<path fill="none" stroke="#9a32cd" stroke-dasharray="5,2" d="M2310.14,-231.982C2354.49,-233.445 2414.72,-235.43 2459.79,-236.916"/>
<polygon fill="#9a32cd" stroke="#9a32cd" points="2310.18,-228.482 2300.07,-231.651 2309.95,-235.478 2310.18,-228.482"/>
<text text-anchor="middle" x="2386" y="-239" font-family="FreeSans" font-size="10.00"> elements</text>
</g>
<!-- Node26&#45;&gt;Node25 -->
<g id="edge62" class="edge"><title>Node26&#45;&gt;Node25</title>
<path fill="none" stroke="#9a32cd" stroke-dasharray="5,2" d="M2005.32,-231.604C2062.26,-231.231 2146.64,-230.678 2199.95,-230.328"/>
<polygon fill="#9a32cd" stroke="#9a32cd" points="2005,-228.106 1995.02,-231.672 2005.05,-235.106 2005,-228.106"/>
<text text-anchor="middle" x="2093" y="-246" font-family="FreeSans" font-size="10.00"> ProxA</text>
<text text-anchor="middle" x="2093" y="-234" font-family="FreeSans" font-size="10.00">ProxB</text>
</g>
<!-- Node27&#45;&gt;Node19 -->
<g id="edge66" class="edge"><title>Node27&#45;&gt;Node19</title>
<path fill="none" stroke="#9a32cd" stroke-dasharray="5,2" d="M2178.06,-189.415C2276.85,-193.943 2444.62,-203.37 2588,-220 2633.62,-225.291 2685.02,-234.815 2721.88,-242.276"/>
<polygon fill="#9a32cd" stroke="#9a32cd" points="2177.98,-185.908 2167.84,-188.953 2177.67,-192.901 2177.98,-185.908"/>
<text text-anchor="middle" x="2386" y="-208" font-family="FreeSans" font-size="10.00"> Proxies</text>
</g>
<!-- Node28&#45;&gt;Node19 -->
<g id="edge70" class="edge"><title>Node28&#45;&gt;Node19</title>
<path fill="none" stroke="#9a32cd" stroke-dasharray="5,2" d="M2322.03,-331.877C2413.13,-334.629 2573.81,-332.264 2704,-292 2720.38,-286.934 2737.11,-277.407 2749.88,-269.038"/>
<polygon fill="#9a32cd" stroke="#9a32cd" points="2321.92,-328.371 2311.81,-331.538 2321.69,-335.367 2321.92,-328.371"/>
<text text-anchor="middle" x="2523" y="-333" font-family="FreeSans" font-size="10.00"> Collisions</text>
</g>
<!-- Node29&#45;&gt;Node28 -->
<g id="edge74" class="edge"><title>Node29&#45;&gt;Node28</title>
<path fill="none" stroke="#9a32cd" stroke-dasharray="5,2" d="M2005.28,-315.656C2009.58,-315.394 2013.85,-315.17 2018,-315 2084.61,-312.267 2101.54,-309.764 2168,-315 2174.61,-315.521 2181.49,-316.274 2188.33,-317.16"/>
<polygon fill="#9a32cd" stroke="#9a32cd" points="2004.98,-312.168 1995.23,-316.327 2005.44,-319.153 2004.98,-312.168"/>
<text text-anchor="middle" x="2093" y="-318" font-family="FreeSans" font-size="10.00"> keys</text>
</g>
<!-- Node30 -->
<g id="node68" class="node"><title>Node30</title>
<a xlink:href="classMezzanine_1_1debug_1_1InternalDebugDrawer.html" target="_top" xlink:title="This is used to draw wireframse for the Physics subsystem. ">
<polygon fill="white" stroke="black" points="2458,-0 2458,-32 2588,-32 2588,-0 2458,-0"/>
<text text-anchor="start" x="2466" y="-19" font-family="FreeSans" font-size="10.00">Mezzanine::debug::Internal</text>
<text text-anchor="middle" x="2523" y="-7" font-family="FreeSans" font-size="10.00">DebugDrawer</text>
</a>
</g>
<!-- Node30&#45;&gt;Node19 -->
<g id="edge78" class="edge"><title>Node30&#45;&gt;Node19</title>
<path fill="none" stroke="#9a32cd" stroke-dasharray="5,2" d="M2598.63,-5.52112C2634.2,-4.74591 2675.05,-10.3774 2704,-34 2736.39,-60.4285 2761.4,-190.866 2769.34,-236.888"/>
<polygon fill="#9a32cd" stroke="#9a32cd" points="2598.12,-2.03821 2588.26,-5.92683 2598.39,-9.03285 2598.12,-2.03821"/>
<text text-anchor="middle" x="2655" y="-37" font-family="FreeSans" font-size="10.00"> BulletDrawer</text>
</g>
<!-- Node31 -->
<g id="node70" class="node"><title>Node31</title>
<polygon fill="white" stroke="#bfbfbf" points="2211.5,-6 2211.5,-26 2288.5,-26 2288.5,-6 2211.5,-6"/>
<text text-anchor="middle" x="2250" y="-13" font-family="FreeSans" font-size="10.00">btIDebugDraw</text>
</g>
<!-- Node31&#45;&gt;Node30 -->
<g id="edge80" class="edge"><title>Node31&#45;&gt;Node30</title>
<path fill="none" stroke="midnightblue" d="M2298.77,-16C2343.15,-16 2408.98,-16 2457.84,-16"/>
<polygon fill="midnightblue" stroke="midnightblue" points="2298.54,-12.5001 2288.54,-16 2298.54,-19.5001 2298.54,-12.5001"/>
</g>
<!-- Node32&#45;&gt;Node19 -->
<g id="edge84" class="edge"><title>Node32&#45;&gt;Node19</title>
<path fill="none" stroke="#9a32cd" stroke-dasharray="5,2" d="M3002.81,-383.334C2961.57,-361.917 2895.74,-327.137 2840,-295 2825.7,-286.752 2810,-277.097 2797.29,-269.125"/>
<polygon fill="#9a32cd" stroke="#9a32cd" points="3001.24,-386.463 3011.73,-387.957 3004.46,-380.248 3001.24,-386.463"/>
<text text-anchor="middle" x="2896" y="-358" font-family="FreeSans" font-size="10.00"> DebugDrawWork</text>
</g>
<!-- Node33&#45;&gt;Node19 -->
<g id="edge90" class="edge"><title>Node33&#45;&gt;Node19</title>
<path fill="none" stroke="#9a32cd" stroke-dasharray="5,2" d="M2999.44,-268.18C2984.69,-262.433 2967.92,-256.923 2952,-254 2908.66,-246.044 2858.46,-246.548 2822.1,-248.607"/>
<polygon fill="#9a32cd" stroke="#9a32cd" points="2998.23,-271.465 3008.81,-271.965 3000.85,-264.974 2998.23,-271.465"/>
<text text-anchor="middle" x="2896" y="-257" font-family="FreeSans" font-size="10.00"> WorldTriggerUpdateWork</text>
</g>
<!-- Node34 -->
<g id="node81" class="node"><title>Node34</title>
<polygon fill="white" stroke="#bfbfbf" points="1452.5,-167 1452.5,-187 1589.5,-187 1589.5,-167 1452.5,-167"/>
<text text-anchor="middle" x="1521" y="-174" font-family="FreeSans" font-size="10.00">std::vector&lt; WorldTrigger * &gt;</text>
</g>
<!-- Node34&#45;&gt;Node19 -->
<g id="edge96" class="edge"><title>Node34&#45;&gt;Node19</title>
<path fill="none" stroke="#9a32cd" stroke-dasharray="5,2" d="M1592.93,-165.536C1650,-157.43 1731.9,-148 1804,-148 1804,-148 1804,-148 2523,-148 2613.31,-148 2708.6,-207.371 2750.31,-236.824"/>
<polygon fill="#9a32cd" stroke="#9a32cd" points="1592.32,-162.087 1582.92,-166.979 1593.32,-169.015 1592.32,-162.087"/>
<text text-anchor="middle" x="2093" y="-151" font-family="FreeSans" font-size="10.00"> Triggers</text>
</g>
<!-- Node35&#45;&gt;Node34 -->
<g id="edge98" class="edge"><title>Node35&#45;&gt;Node34</title>
<path fill="none" stroke="#9a32cd" stroke-dasharray="5,2" d="M1287.79,-237.369C1342.87,-223.112 1431.37,-200.203 1482.03,-187.087"/>
<polygon fill="#9a32cd" stroke="#9a32cd" points="1286.72,-234.032 1277.91,-239.926 1288.47,-240.808 1286.72,-234.032"/>
<text text-anchor="middle" x="1376" y="-231" font-family="FreeSans" font-size="10.00"> elements</text>
</g>
<!-- Node36 -->
<g id="node86" class="node"><title>Node36</title>
<a xlink:href="classMezzanine_1_1Physics_1_1ManagerConstructionInfo.html" target="_top" xlink:title="This is a helper class storing information needed for the construction of a PhysicsManager. ">
<polygon fill="white" stroke="black" points="2458.5,-88 2458.5,-120 2587.5,-120 2587.5,-88 2458.5,-88"/>
<text text-anchor="start" x="2466.5" y="-107" font-family="FreeSans" font-size="10.00">Mezzanine::Physics</text>
<text text-anchor="middle" x="2523" y="-95" font-family="FreeSans" font-size="10.00">::ManagerConstructionInfo</text>
</a>
</g>
<!-- Node36&#45;&gt;Node19 -->
<g id="edge102" class="edge"><title>Node36&#45;&gt;Node19</title>
<path fill="none" stroke="#9a32cd" stroke-dasharray="5,2" d="M2597.72,-95.8273C2632.7,-95.6941 2673.31,-101.201 2704,-122 2744.3,-149.312 2762.24,-208.243 2768.81,-236.814"/>
<polygon fill="#9a32cd" stroke="#9a32cd" points="2597.47,-92.3313 2587.54,-96.0223 2597.61,-99.33 2597.47,-92.3313"/>
<text text-anchor="middle" x="2655" y="-125" font-family="FreeSans" font-size="10.00"> WorldConstructionInfo</text>
</g>
<!-- Node37 -->
<g id="node88" class="node"><title>Node37</title>
<a xlink:href="classMezzanine_1_1Vector3.html" target="_top" xlink:title="This is used to represent a point in space, or a vector through space. ">
<polygon fill="white" stroke="black" points="2200,-88 2200,-108 2300,-108 2300,-88 2200,-88"/>
<text text-anchor="middle" x="2250" y="-95" font-family="FreeSans" font-size="10.00">Mezzanine::Vector3</text>
</a>
</g>
<!-- Node37&#45;&gt;Node36 -->
<g id="edge104" class="edge"><title>Node37&#45;&gt;Node36</title>
<path fill="none" stroke="#9a32cd" stroke-dasharray="5,2" d="M2310.24,-96.8909C2347.61,-96.4781 2396.61,-96.4337 2440,-98 2445.92,-98.2137 2452.07,-98.5128 2458.23,-98.8646"/>
<polygon fill="#9a32cd" stroke="#9a32cd" points="2309.98,-93.3937 2300.02,-97.0161 2310.06,-100.393 2309.98,-93.3937"/>
<text text-anchor="middle" x="2386" y="-125" font-family="FreeSans" font-size="10.00"> GeographyLowerBounds</text>
<text text-anchor="middle" x="2386" y="-113" font-family="FreeSans" font-size="10.00">GeographyUpperBounds</text>
<text text-anchor="middle" x="2386" y="-101" font-family="FreeSans" font-size="10.00">Gravity</text>
</g>
<!-- Node38&#45;&gt;Node17 -->
<g id="edge106" class="edge"><title>Node38&#45;&gt;Node17</title>
<path fill="none" stroke="#9a32cd" stroke-dasharray="5,2" d="M1299.47,-310C1383.62,-310 1534.47,-310 1612.76,-310"/>
<polygon fill="#9a32cd" stroke="#9a32cd" points="1299.3,-306.5 1289.3,-310 1299.3,-313.5 1299.3,-306.5"/>
<text text-anchor="middle" x="1376" y="-313" font-family="FreeSans" font-size="10.00"> ProxyShape</text>
</g>
<!-- Node39&#45;&gt;Node2 -->
<g id="edge110" class="edge"><title>Node39&#45;&gt;Node2</title>
<path fill="none" stroke="#9a32cd" stroke-dasharray="5,2" d="M1882.31,-564.351C1971.76,-564.752 2115.86,-565.398 2194.47,-565.751"/>
<polygon fill="#9a32cd" stroke="#9a32cd" points="1882.24,-560.851 1872.22,-564.306 1882.21,-567.851 1882.24,-560.851"/>
<text text-anchor="middle" x="1945" y="-591" font-family="FreeSans" font-size="10.00"> OverlappingObjects</text>
<text text-anchor="middle" x="1945" y="-579" font-family="FreeSans" font-size="10.00">RemovedObjects</text>
<text text-anchor="middle" x="1945" y="-567" font-family="FreeSans" font-size="10.00">AddedObjects</text>
</g>
<!-- Node40&#45;&gt;Node2 -->
<g id="edge114" class="edge"><title>Node40&#45;&gt;Node2</title>
<path fill="none" stroke="#9a32cd" stroke-dasharray="5,2" d="M2004.66,-489.336C2049.59,-503.175 2112.69,-522.676 2168,-540 2184.67,-545.223 2203.24,-551.103 2218.48,-555.948"/>
<polygon fill="#9a32cd" stroke="#9a32cd" points="2005.66,-485.982 1995.07,-486.384 2003.6,-492.672 2005.66,-485.982"/>
<text text-anchor="middle" x="2093" y="-543" font-family="FreeSans" font-size="10.00"> Ghost</text>
</g>
</g>
</svg>
