<?xml version="1.0" encoding="UTF-8" standalone="no"?>
<!DOCTYPE svg PUBLIC "-//W3C//DTD SVG 1.1//EN"
 "http://www.w3.org/Graphics/SVG/1.1/DTD/svg11.dtd">
<!-- Generated by graphviz version 2.26.3 (20100126.1600)
 -->
<!-- Title: Mezzanine::Input::ButtonDevice Pages: 1 -->
<svg width="476pt" height="160pt"
 viewBox="0.00 0.00 476.00 160.00" xmlns="http://www.w3.org/2000/svg" xmlns:xlink="http://www.w3.org/1999/xlink">
<g id="graph1" class="graph" transform="scale(1 1) rotate(0) translate(4 156)">
<title>Mezzanine::Input::ButtonDevice</title>
<polygon fill="white" stroke="white" points="-4,5 -4,-156 473,-156 473,5 -4,5"/>
<!-- Node1 -->
<g id="node1" class="node"><title>Node1</title>
<polygon fill="#bfbfbf" stroke="black" points="174,-59 174,-93 310,-93 310,-59 174,-59"/>
<text text-anchor="start" x="182" y="-80" font-family="FreeSans" font-size="10.00">Mezzanine::Input::Button</text>
<text text-anchor="middle" x="242" y="-67" font-family="FreeSans" font-size="10.00">Device</text>
</g>
<!-- Node3 -->
<g id="node5" class="node"><title>Node3</title>
<a xlink:href="classMezzanine_1_1Input_1_1Controller.xhtml" target="_top" xlink:title="This class represents a controller input device, such as a gamepad or joystick.">
<polygon fill="white" stroke="black" points="0,-0.5 0,-21.5 150,-21.5 150,-0.5 0,-0.5"/>
<text text-anchor="middle" x="75" y="-8.5" font-family="FreeSans" font-size="10.00">Mezzanine::Input::Controller</text>
</a>
</g>
<!-- Node1&#45;&gt;Node3 -->
<g id="edge4" class="edge"><title>Node1&#45;&gt;Node3</title>
<path fill="none" stroke="midnightblue" d="M188.619,-55.2231C159.907,-44.0477 125.708,-30.7367 102.384,-21.6584"/>
<polygon fill="midnightblue" stroke="midnightblue" points="187.534,-58.5564 198.123,-58.922 190.073,-52.0331 187.534,-58.5564"/>
</g>
<!-- Node4 -->
<g id="node7" class="node"><title>Node4</title>
<a xlink:href="classMezzanine_1_1Input_1_1Keyboard.xhtml" target="_top" xlink:title="This class represents the keyboard input device.">
<polygon fill="white" stroke="black" points="168,-0.5 168,-21.5 316,-21.5 316,-0.5 168,-0.5"/>
<text text-anchor="middle" x="242" y="-8.5" font-family="FreeSans" font-size="10.00">Mezzanine::Input::Keyboard</text>
</a>
</g>
<!-- Node1&#45;&gt;Node4 -->
<g id="edge6" class="edge"><title>Node1&#45;&gt;Node4</title>
<path fill="none" stroke="midnightblue" d="M242,-48.6879C242,-39.2415 242,-29.1949 242,-21.8521"/>
<polygon fill="midnightblue" stroke="midnightblue" points="238.5,-48.922 242,-58.922 245.5,-48.922 238.5,-48.922"/>
</g>
<!-- Node5 -->
<g id="node9" class="node"><title>Node5</title>
<a xlink:href="classMezzanine_1_1Input_1_1Mouse.xhtml" target="_top" xlink:title="This class represents the mouse input device.">
<polygon fill="white" stroke="black" points="333.5,-0.5 333.5,-21.5 468.5,-21.5 468.5,-0.5 333.5,-0.5"/>
<text text-anchor="middle" x="401" y="-8.5" font-family="FreeSans" font-size="10.00">Mezzanine::Input::Mouse</text>
</a>
</g>
<!-- Node1&#45;&gt;Node5 -->
<g id="edge8" class="edge"><title>Node1&#45;&gt;Node5</title>
<path fill="none" stroke="midnightblue" d="M293.18,-55.0773C320.443,-43.932 352.818,-30.6972 374.928,-21.6584"/>
<polygon fill="midnightblue" stroke="midnightblue" points="291.707,-51.8982 283.775,-58.922 294.356,-58.3776 291.707,-51.8982"/>
</g>
<!-- Node2 -->
<g id="node2" class="node"><title>Node2</title>
<a xlink:href="classMezzanine_1_1Input_1_1Device.xhtml" target="_top" xlink:title="This is a base class for all input devices.">
<polygon fill="white" stroke="black" points="174,-130.5 174,-151.5 310,-151.5 310,-130.5 174,-130.5"/>
<text text-anchor="middle" x="242" y="-138.5" font-family="FreeSans" font-size="10.00">Mezzanine::Input::Device</text>
</a>
</g>
<!-- Node2&#45;&gt;Node1 -->
<g id="edge2" class="edge"><title>Node2&#45;&gt;Node1</title>
<path fill="none" stroke="midnightblue" d="M242,-120.131C242,-111.405 242,-101.391 242,-93.1099"/>
<polygon fill="midnightblue" stroke="midnightblue" points="238.5,-120.267 242,-130.267 245.5,-120.267 238.5,-120.267"/>
</g>
</g>
</svg>
