<?xml version="1.0" encoding="UTF-8" standalone="no"?>
<!DOCTYPE svg PUBLIC "-//W3C//DTD SVG 1.1//EN"
 "http://www.w3.org/Graphics/SVG/1.1/DTD/svg11.dtd">
<!-- Generated by graphviz version 2.26.3 (20100126.1600)
 -->
<!-- Title: Mezzanine::UI::ImageLayer Pages: 1 -->
<svg width="288pt" height="274pt"
 viewBox="0.00 0.00 288.00 274.00" xmlns="http://www.w3.org/2000/svg" xmlns:xlink="http://www.w3.org/1999/xlink">
<g id="graph1" class="graph" transform="scale(1 1) rotate(0) translate(4 270)">
<title>Mezzanine::UI::ImageLayer</title>
<polygon fill="white" stroke="white" points="-4,5 -4,-270 285,-270 285,5 -4,5"/>
<!-- Node1 -->
<g id="node1" class="node"><title>Node1</title>
<polygon fill="#bfbfbf" stroke="black" points="72.5,-71 72.5,-91 203.5,-91 203.5,-71 72.5,-71"/>
<text text-anchor="middle" x="138" y="-78" font-family="FreeSans" font-size="10.00">Mezzanine::UI::ImageLayer</text>
</g>
<!-- Node5 -->
<g id="node9" class="node"><title>Node5</title>
<a xlink:href="classMezzanine_1_1UI_1_1MultiImageLayer.html" target="_top" xlink:title="This is an image layer that supports rendering of multiple images within it&#39;s space. ">
<polygon fill="white" stroke="black" points="-0.5,-1 -0.5,-33 128.5,-33 128.5,-1 -0.5,-1"/>
<text text-anchor="start" x="7.5" y="-20" font-family="FreeSans" font-size="10.00">Mezzanine::UI::MultiImage</text>
<text text-anchor="middle" x="64" y="-8" font-family="FreeSans" font-size="10.00">Layer</text>
</a>
</g>
<!-- Node1&#45;&gt;Node5 -->
<g id="edge8" class="edge"><title>Node1&#45;&gt;Node5</title>
<path fill="none" stroke="midnightblue" d="M118.238,-63.9086C107.145,-54.3143 93.3888,-42.4174 82.5063,-33.0054"/>
<polygon fill="midnightblue" stroke="midnightblue" points="116.257,-66.823 126.111,-70.7173 120.837,-61.5285 116.257,-66.823"/>
</g>
<!-- Node6 -->
<g id="node11" class="node"><title>Node6</title>
<a xlink:href="classMezzanine_1_1UI_1_1SingleImageLayer.html" target="_top" xlink:title="This is an image layer that supports rendering only a single image/sprite. ">
<polygon fill="white" stroke="black" points="145.5,-1 145.5,-33 280.5,-33 280.5,-1 145.5,-1"/>
<text text-anchor="start" x="153.5" y="-20" font-family="FreeSans" font-size="10.00">Mezzanine::UI::SingleImage</text>
<text text-anchor="middle" x="213" y="-8" font-family="FreeSans" font-size="10.00">Layer</text>
</a>
</g>
<!-- Node1&#45;&gt;Node6 -->
<g id="edge10" class="edge"><title>Node1&#45;&gt;Node6</title>
<path fill="none" stroke="midnightblue" d="M157.699,-64.1901C168.999,-54.5479 183.106,-42.5096 194.244,-33.0054"/>
<polygon fill="midnightblue" stroke="midnightblue" points="155.385,-61.5637 150.05,-70.7173 159.929,-66.8885 155.385,-61.5637"/>
</g>
<!-- Node2 -->
<g id="node2" class="node"><title>Node2</title>
<a xlink:href="classMezzanine_1_1UI_1_1RenderLayer.html" target="_top" xlink:title="This is the base class for the types of layers that can be added to a renderable. ...">
<polygon fill="white" stroke="black" points="70.5,-129 70.5,-149 205.5,-149 205.5,-129 70.5,-129"/>
<text text-anchor="middle" x="138" y="-136" font-family="FreeSans" font-size="10.00">Mezzanine::UI::RenderLayer</text>
</a>
</g>
<!-- Node2&#45;&gt;Node1 -->
<g id="edge2" class="edge"><title>Node2&#45;&gt;Node1</title>
<path fill="none" stroke="midnightblue" d="M138,-118.89C138,-109.62 138,-99.0083 138,-91.3776"/>
<polygon fill="midnightblue" stroke="midnightblue" points="134.5,-118.897 138,-128.897 141.5,-118.897 134.5,-118.897"/>
</g>
<!-- Node3 -->
<g id="node4" class="node"><title>Node3</title>
<a xlink:href="classMezzanine_1_1UI_1_1QuadRenderer.html" target="_top" xlink:title="Mezzanine::UI::QuadRenderer">
<polygon fill="white" stroke="black" points="66.5,-187 66.5,-207 209.5,-207 209.5,-187 66.5,-187"/>
<text text-anchor="middle" x="138" y="-194" font-family="FreeSans" font-size="10.00">Mezzanine::UI::QuadRenderer</text>
</a>
</g>
<!-- Node3&#45;&gt;Node2 -->
<g id="edge4" class="edge"><title>Node3&#45;&gt;Node2</title>
<path fill="none" stroke="midnightblue" d="M138,-176.89C138,-167.62 138,-157.008 138,-149.378"/>
<polygon fill="midnightblue" stroke="midnightblue" points="134.5,-176.897 138,-186.897 141.5,-176.897 134.5,-176.897"/>
</g>
<!-- Node4 -->
<g id="node6" class="node"><title>Node4</title>
<a xlink:href="classMezzanine_1_1UI_1_1SimpleRenderer.html" target="_top" xlink:title="A simple class providing basic methods to generate vertices with. ">
<polygon fill="white" stroke="black" points="63,-245 63,-265 213,-265 213,-245 63,-245"/>
<text text-anchor="middle" x="138" y="-252" font-family="FreeSans" font-size="10.00">Mezzanine::UI::SimpleRenderer</text>
</a>
</g>
<!-- Node4&#45;&gt;Node3 -->
<g id="edge6" class="edge"><title>Node4&#45;&gt;Node3</title>
<path fill="none" stroke="midnightblue" d="M138,-234.89C138,-225.62 138,-215.008 138,-207.378"/>
<polygon fill="midnightblue" stroke="midnightblue" points="134.5,-234.897 138,-244.897 141.5,-234.897 134.5,-234.897"/>
</g>
</g>
</svg>
