<?xml version="1.0" encoding="UTF-8" standalone="no"?>
<!DOCTYPE svg PUBLIC "-//W3C//DTD SVG 1.1//EN"
 "http://www.w3.org/Graphics/SVG/1.1/DTD/svg11.dtd">
<!-- Generated by graphviz version 2.26.3 (20100126.1600)
 -->
<!-- Title: Mezzanine::EventGameWindow Pages: 1 -->
<svg width="338pt" height="102pt"
 viewBox="0.00 0.00 338.00 102.00" xmlns="http://www.w3.org/2000/svg" xmlns:xlink="http://www.w3.org/1999/xlink">
<g id="graph1" class="graph" transform="scale(1 1) rotate(0) translate(4 98)">
<title>Mezzanine::EventGameWindow</title>
<polygon fill="white" stroke="white" points="-4,5 -4,-98 335,-98 335,5 -4,5"/>
<!-- Node1 -->
<g id="node1" class="node"><title>Node1</title>
<polygon fill="#bfbfbf" stroke="black" points="66.5,-0.5 66.5,-21.5 231.5,-21.5 231.5,-0.5 66.5,-0.5"/>
<text text-anchor="middle" x="149" y="-8.5" font-family="FreeSans" font-size="10.00">Mezzanine::EventGameWindow</text>
</g>
<!-- Node2 -->
<g id="node2" class="node"><title>Node2</title>
<a xlink:href="classMezzanine_1_1EventBase.xhtml" target="_top" xlink:title="The base class for all events.">
<polygon fill="white" stroke="black" points="-0.5,-72.5 -0.5,-93.5 124.5,-93.5 124.5,-72.5 -0.5,-72.5"/>
<text text-anchor="middle" x="62" y="-80.5" font-family="FreeSans" font-size="10.00">Mezzanine::EventBase</text>
</a>
</g>
<!-- Node2&#45;&gt;Node1 -->
<g id="edge2" class="edge"><title>Node2&#45;&gt;Node1</title>
<path fill="none" stroke="midnightblue" d="M82.8709,-65.7275C99.4407,-52.0146 122.081,-33.2774 136.11,-21.6674"/>
<polygon fill="midnightblue" stroke="midnightblue" points="80.3096,-63.3041 74.8371,-72.3762 84.7726,-68.6968 80.3096,-63.3041"/>
</g>
<!-- Node3 -->
<g id="node4" class="node"><title>Node3</title>
<a xlink:href="classMezzanine_1_1EventGameWindowData.xhtml" target="_top" xlink:title="used to keep private in one place that is actually private.">
<polygon fill="white" stroke="black" points="142,-72.5 142,-93.5 330,-93.5 330,-72.5 142,-72.5"/>
<text text-anchor="middle" x="236" y="-80.5" font-family="FreeSans" font-size="10.00">Mezzanine::EventGameWindowData</text>
</a>
</g>
<!-- Node3&#45;&gt;Node1 -->
<g id="edge4" class="edge"><title>Node3&#45;&gt;Node1</title>
<path fill="none" stroke="#9a32cd" stroke-dasharray="5,2" d="M215.129,-65.7275C198.559,-52.0146 175.919,-33.2774 161.89,-21.6674"/>
<polygon fill="#9a32cd" stroke="#9a32cd" points="213.227,-68.6968 223.163,-72.3762 217.69,-63.3041 213.227,-68.6968"/>
<text text-anchor="middle" x="214.5" y="-44.5" font-family="FreeSans" font-size="10.00"> Data</text>
</g>
</g>
</svg>
