<?xml version="1.0" encoding="UTF-8" standalone="no"?>
<!DOCTYPE svg PUBLIC "-//W3C//DTD SVG 1.1//EN"
 "http://www.w3.org/Graphics/SVG/1.1/DTD/svg11.dtd">
<!-- Generated by graphviz version 2.26.3 (20100126.1600)
 -->
<!-- Title: Mezzanine::GoalTimer Pages: 1 -->
<svg width="288pt" height="146pt"
 viewBox="0.00 0.00 288.00 146.00" xmlns="http://www.w3.org/2000/svg" xmlns:xlink="http://www.w3.org/1999/xlink">
<g id="graph1" class="graph" transform="scale(1 1) rotate(0) translate(4 142)">
<title>Mezzanine::GoalTimer</title>
<polygon fill="white" stroke="white" points="-4,5 -4,-142 285,-142 285,5 -4,5"/>
<!-- Node1 -->
<g id="node1" class="node"><title>Node1</title>
<polygon fill="#bfbfbf" stroke="black" points="76.5,-58.5 76.5,-79.5 191.5,-79.5 191.5,-58.5 76.5,-58.5"/>
<text text-anchor="middle" x="134" y="-66.5" font-family="Helvetica,sans-Serif" font-size="10.00">Mezzanine::GoalTimer</text>
</g>
<!-- Node3 -->
<g id="node5" class="node"><title>Node3</title>
<a xlink:href="classMezzanine_1_1AlarmTimer.html" target="_top" xlink:title="This is a timer class that increments normally to a specified time. ">
<polygon fill="white" stroke="black" points="0,-0.5 0,-21.5 120,-21.5 120,-0.5 0,-0.5"/>
<text text-anchor="middle" x="60" y="-8.5" font-family="Helvetica,sans-Serif" font-size="10.00">Mezzanine::AlarmTimer</text>
</a>
</g>
<!-- Node1&#45;&gt;Node3 -->
<g id="edge4" class="edge"><title>Node1&#45;&gt;Node3</title>
<path fill="none" stroke="midnightblue" d="M112.279,-51.9753C99.7195,-42.1315 84.311,-30.0545 73.4867,-21.5707"/>
<polygon fill="midnightblue" stroke="midnightblue" points="110.398,-54.9478 120.427,-58.3619 114.716,-49.4383 110.398,-54.9478"/>
</g>
<!-- Node4 -->
<g id="node7" class="node"><title>Node4</title>
<a xlink:href="classMezzanine_1_1StopWatchTimer.html" target="_top" xlink:title="This is a timer class for counting down to a specified time. ">
<polygon fill="white" stroke="black" points="137.5,-0.5 137.5,-21.5 280.5,-21.5 280.5,-0.5 137.5,-0.5"/>
<text text-anchor="middle" x="209" y="-8.5" font-family="Helvetica,sans-Serif" font-size="10.00">Mezzanine::StopWatchTimer</text>
</a>
</g>
<!-- Node1&#45;&gt;Node4 -->
<g id="edge6" class="edge"><title>Node1&#45;&gt;Node4</title>
<path fill="none" stroke="midnightblue" d="M156.015,-51.9753C168.744,-42.1315 184.361,-30.0545 195.331,-21.5707"/>
<polygon fill="midnightblue" stroke="midnightblue" points="153.526,-49.4757 147.756,-58.3619 157.808,-55.0131 153.526,-49.4757"/>
</g>
<!-- Node2 -->
<g id="node2" class="node"><title>Node2</title>
<a xlink:href="classMezzanine_1_1Timer.html" target="_top" xlink:title="A base timer class for the different timers. ">
<polygon fill="white" stroke="black" points="86.5,-116.5 86.5,-137.5 181.5,-137.5 181.5,-116.5 86.5,-116.5"/>
<text text-anchor="middle" x="134" y="-124.5" font-family="Helvetica,sans-Serif" font-size="10.00">Mezzanine::Timer</text>
</a>
</g>
<!-- Node2&#45;&gt;Node1 -->
<g id="edge2" class="edge"><title>Node2&#45;&gt;Node1</title>
<path fill="none" stroke="midnightblue" d="M134,-106.191C134,-97.1684 134,-86.9941 134,-79.5707"/>
<polygon fill="midnightblue" stroke="midnightblue" points="130.5,-106.362 134,-116.362 137.5,-106.362 130.5,-106.362"/>
</g>
</g>
</svg>
