<?xml version="1.0" encoding="UTF-8" standalone="no"?>
<!DOCTYPE svg PUBLIC "-//W3C//DTD SVG 1.1//EN"
 "http://www.w3.org/Graphics/SVG/1.1/DTD/svg11.dtd">
<!-- Generated by graphviz version 2.26.3 (20100126.1600)
 -->
<!-- Title: Mezzanine::UI::PositioningInfo Pages: 1 -->
<svg width="152pt" height="182pt"
 viewBox="0.00 0.00 152.00 182.00" xmlns="http://www.w3.org/2000/svg" xmlns:xlink="http://www.w3.org/1999/xlink">
<g id="graph1" class="graph" transform="scale(1 1) rotate(0) translate(4 178)">
<title>Mezzanine::UI::PositioningInfo</title>
<polygon fill="white" stroke="white" points="-4,5 -4,-178 149,-178 149,5 -4,5"/>
<!-- Node1 -->
<g id="node1" class="node"><title>Node1</title>
<polygon fill="#bfbfbf" stroke="black" points="-0.5,-1 -0.5,-21 144.5,-21 144.5,-1 -0.5,-1"/>
<text text-anchor="middle" x="72" y="-8" font-family="FreeSans" font-size="10.00">Mezzanine::UI::PositioningInfo</text>
</g>
<!-- Node2 -->
<g id="node2" class="node"><title>Node2</title>
<a xlink:href="classMezzanine_1_1UI_1_1UnifiedVec2.html" target="_top" xlink:title="This class represents a point in 2D space using UnifiedDim&#39;s. ">
<polygon fill="white" stroke="black" points="6,-71 6,-91 138,-91 138,-71 6,-71"/>
<text text-anchor="middle" x="72" y="-78" font-family="FreeSans" font-size="10.00">Mezzanine::UI::UnifiedVec2</text>
</a>
</g>
<!-- Node2&#45;&gt;Node1 -->
<g id="edge2" class="edge"><title>Node2&#45;&gt;Node1</title>
<path fill="none" stroke="#9a32cd" stroke-dasharray="5,2" d="M72,-60.6126C72,-47.5971 72,-31.2956 72,-21.0107"/>
<polygon fill="#9a32cd" stroke="#9a32cd" points="68.5001,-60.9707 72,-70.9707 75.5001,-60.9707 68.5001,-60.9707"/>
<text text-anchor="middle" x="94" y="-43" font-family="FreeSans" font-size="10.00"> UPosition</text>
</g>
<!-- Node3 -->
<g id="node4" class="node"><title>Node3</title>
<a xlink:href="classMezzanine_1_1UI_1_1UnifiedDim.html" target="_top" xlink:title="This class represents both the relative and absolute values that can be expressed for the values on o...">
<polygon fill="white" stroke="black" points="8,-153 8,-173 136,-173 136,-153 8,-153"/>
<text text-anchor="middle" x="72" y="-160" font-family="FreeSans" font-size="10.00">Mezzanine::UI::UnifiedDim</text>
</a>
</g>
<!-- Node3&#45;&gt;Node2 -->
<g id="edge4" class="edge"><title>Node3&#45;&gt;Node2</title>
<path fill="none" stroke="#9a32cd" stroke-dasharray="5,2" d="M72,-142.75C72,-126.361 72,-103.965 72,-91.1371"/>
<polygon fill="#9a32cd" stroke="#9a32cd" points="68.5001,-142.945 72,-152.945 75.5001,-142.945 68.5001,-142.945"/>
<text text-anchor="middle" x="77" y="-125" font-family="FreeSans" font-size="10.00"> X</text>
<text text-anchor="middle" x="77" y="-113" font-family="FreeSans" font-size="10.00">Y</text>
</g>
</g>
</svg>
