<?xml version="1.0" encoding="UTF-8" standalone="no"?>
<!DOCTYPE svg PUBLIC "-//W3C//DTD SVG 1.1//EN"
 "http://www.w3.org/Graphics/SVG/1.1/DTD/svg11.dtd">
<!-- Generated by graphviz version 2.38.0 (20140413.2041)
 -->
<!-- Title: Mezzanine::ExtendedTimer Pages: 1 -->
<svg width="214pt" height="117pt"
 viewBox="0.00 0.00 213.50 117.00" xmlns="http://www.w3.org/2000/svg" xmlns:xlink="http://www.w3.org/1999/xlink">
<g id="graph0" class="graph" transform="scale(1 1) rotate(0) translate(4 113)">
<title>Mezzanine::ExtendedTimer</title>
<polygon fill="white" stroke="none" points="-4,4 -4,-113 209.5,-113 209.5,4 -4,4"/>
<!-- Node1 -->
<g id="node1" class="node"><title>Node1</title>
<polygon fill="#bfbfbf" stroke="black" points="35.5,-0.5 35.5,-19.5 171.5,-19.5 171.5,-0.5 35.5,-0.5"/>
<text text-anchor="middle" x="103.5" y="-7.5" font-family="Helvetica,sans-Serif" font-size="10.00">Mezzanine::ExtendedTimer</text>
</g>
<!-- Node2 -->
<g id="node2" class="node"><title>Node2</title>
<g id="a_node2"><a xlink:href="classMezzanine_1_1Timer.html" target="_top" xlink:title="A basic timer class to assist in timed operations. ">
<polygon fill="white" stroke="black" points="0,-89.5 0,-108.5 95,-108.5 95,-89.5 0,-89.5"/>
<text text-anchor="middle" x="47.5" y="-96.5" font-family="Helvetica,sans-Serif" font-size="10.00">Mezzanine::Timer</text>
</a>
</g>
</g>
<!-- Node2&#45;&gt;Node1 -->
<g id="edge1" class="edge"><title>Node2&#45;&gt;Node1</title>
<path fill="none" stroke="midnightblue" d="M58.61,-80.7399C70.4822,-62.2955 88.8227,-33.8022 97.9483,-19.6249"/>
<polygon fill="midnightblue" stroke="midnightblue" points="55.5437,-79.037 53.0742,-89.34 61.4298,-82.8258 55.5437,-79.037"/>
</g>
<!-- Node3 -->
<g id="node3" class="node"><title>Node3</title>
<g id="a_node3"><a xlink:href="structMezzanine_1_1Time.html" target="_top" xlink:title="A container for the metrics of time relevant for the timer class. ">
<polygon fill="white" stroke="black" points="113.5,-89.5 113.5,-108.5 205.5,-108.5 205.5,-89.5 113.5,-89.5"/>
<text text-anchor="middle" x="159.5" y="-96.5" font-family="Helvetica,sans-Serif" font-size="10.00">Mezzanine::Time</text>
</a>
</g>
</g>
<!-- Node3&#45;&gt;Node1 -->
<g id="edge2" class="edge"><title>Node3&#45;&gt;Node1</title>
<path fill="none" stroke="#9a32cd" stroke-dasharray="5,2" d="M148.39,-80.7399C136.518,-62.2955 118.177,-33.8022 109.052,-19.6249"/>
<polygon fill="#9a32cd" stroke="#9a32cd" points="145.57,-82.8258 153.926,-89.34 151.456,-79.037 145.57,-82.8258"/>
<text text-anchor="middle" x="169" y="-63" font-family="Helvetica,sans-Serif" font-size="10.00"> GoalTime</text>
<text text-anchor="middle" x="169" y="-52" font-family="Helvetica,sans-Serif" font-size="10.00">CurrentTime</text>
<text text-anchor="middle" x="169" y="-41" font-family="Helvetica,sans-Serif" font-size="10.00">InitialTime</text>
</g>
</g>
</svg>
