<?xml version="1.0" encoding="UTF-8" standalone="no"?>
<!DOCTYPE svg PUBLIC "-//W3C//DTD SVG 1.1//EN"
 "http://www.w3.org/Graphics/SVG/1.1/DTD/svg11.dtd">
<!-- Generated by graphviz version 2.38.0 (20140413.2041)
 -->
<!-- Title: Mezzanine::UI::Renderable Pages: 1 -->
<svg width="1080pt" height="392pt"
 viewBox="0.00 0.00 1080.00 392.00" xmlns="http://www.w3.org/2000/svg" xmlns:xlink="http://www.w3.org/1999/xlink">
<g id="graph0" class="graph" transform="scale(1 1) rotate(0) translate(4 388)">
<title>Mezzanine::UI::Renderable</title>
<polygon fill="white" stroke="none" points="-4,4 -4,-388 1076,-388 1076,4 -4,4"/>
<!-- Node1 -->
<g id="node1" class="node"><title>Node1</title>
<polygon fill="#bfbfbf" stroke="black" points="0,-250.5 0,-269.5 136,-269.5 136,-250.5 0,-250.5"/>
<text text-anchor="middle" x="68" y="-257.5" font-family="Helvetica,sans-Serif" font-size="10.00">Mezzanine::UI::Renderable</text>
</g>
<!-- Node2 -->
<g id="node2" class="node"><title>Node2</title>
<g id="a_node2"><a xlink:href="classMezzanine_1_1UI_1_1LineList.html" target="_top" xlink:title="This is an object comprised of a series of lines. ">
<polygon fill="white" stroke="black" points="191.5,-269.5 191.5,-288.5 311.5,-288.5 311.5,-269.5 191.5,-269.5"/>
<text text-anchor="middle" x="251.5" y="-276.5" font-family="Helvetica,sans-Serif" font-size="10.00">Mezzanine::UI::LineList</text>
</a>
</g>
</g>
<!-- Node1&#45;&gt;Node2 -->
<g id="edge1" class="edge"><title>Node1&#45;&gt;Node2</title>
<path fill="none" stroke="midnightblue" d="M146.415,-268.104C161.507,-269.684 177.103,-271.317 191.482,-272.822"/>
<polygon fill="midnightblue" stroke="midnightblue" points="146.378,-264.581 136.068,-267.021 145.649,-271.543 146.378,-264.581"/>
</g>
<!-- Node3 -->
<g id="node3" class="node"><title>Node3</title>
<g id="a_node3"><a xlink:href="classMezzanine_1_1UI_1_1QuadRenderable.html" target="_top" xlink:title="This represents a nestable quad for an object in a GUI layout. ">
<polygon fill="white" stroke="black" points="172,-231.5 172,-250.5 331,-250.5 331,-231.5 172,-231.5"/>
<text text-anchor="middle" x="251.5" y="-238.5" font-family="Helvetica,sans-Serif" font-size="10.00">Mezzanine::UI::QuadRenderable</text>
</a>
</g>
</g>
<!-- Node1&#45;&gt;Node3 -->
<g id="edge2" class="edge"><title>Node1&#45;&gt;Node3</title>
<path fill="none" stroke="midnightblue" d="M146.258,-251.912C154.693,-251.029 163.287,-250.13 171.74,-249.245"/>
<polygon fill="midnightblue" stroke="midnightblue" points="145.649,-248.457 136.068,-252.979 146.378,-255.419 145.649,-248.457"/>
</g>
<!-- Node4 -->
<g id="node4" class="node"><title>Node4</title>
<g id="a_node4"><a xlink:href="classMezzanine_1_1UI_1_1Screen.html" target="_top" xlink:title="This class is a helper class for creating UI&#39;s. It is responsible for storing and keeping track of al...">
<polygon fill="white" stroke="black" points="367,-250.5 367,-269.5 484,-269.5 484,-250.5 367,-250.5"/>
<text text-anchor="middle" x="425.5" y="-257.5" font-family="Helvetica,sans-Serif" font-size="10.00">Mezzanine::UI::Screen</text>
</a>
</g>
</g>
<!-- Node3&#45;&gt;Node4 -->
<g id="edge3" class="edge"><title>Node3&#45;&gt;Node4</title>
<path fill="none" stroke="midnightblue" d="M341.376,-250.818C350.046,-251.775 358.677,-252.729 366.916,-253.639"/>
<polygon fill="midnightblue" stroke="midnightblue" points="341.525,-247.313 331.201,-249.694 340.756,-254.271 341.525,-247.313"/>
</g>
<!-- Node5 -->
<g id="node5" class="node"><title>Node5</title>
<g id="a_node5"><a xlink:href="classMezzanine_1_1UI_1_1Widget.html" target="_top" xlink:title="This is the base class for all widgets. ">
<polygon fill="white" stroke="black" points="367,-212.5 367,-231.5 484,-231.5 484,-212.5 367,-212.5"/>
<text text-anchor="middle" x="425.5" y="-219.5" font-family="Helvetica,sans-Serif" font-size="10.00">Mezzanine::UI::Widget</text>
</a>
</g>
</g>
<!-- Node3&#45;&gt;Node5 -->
<g id="edge4" class="edge"><title>Node3&#45;&gt;Node5</title>
<path fill="none" stroke="midnightblue" d="M341.376,-231.182C350.046,-230.225 358.677,-229.271 366.916,-228.361"/>
<polygon fill="midnightblue" stroke="midnightblue" points="340.756,-227.729 331.201,-232.306 341.525,-234.687 340.756,-227.729"/>
</g>
<!-- Node6 -->
<g id="node6" class="node"><title>Node6</title>
<g id="a_node6"><a xlink:href="classMezzanine_1_1UI_1_1Button.html" target="_top" xlink:title="This class is a helper class, specifically for use as a button. ">
<polygon fill="white" stroke="black" points="544.5,-345.5 544.5,-364.5 659.5,-364.5 659.5,-345.5 544.5,-345.5"/>
<text text-anchor="middle" x="602" y="-352.5" font-family="Helvetica,sans-Serif" font-size="10.00">Mezzanine::UI::Button</text>
</a>
</g>
</g>
<!-- Node5&#45;&gt;Node6 -->
<g id="edge5" class="edge"><title>Node5&#45;&gt;Node6</title>
<path fill="none" stroke="midnightblue" d="M478.734,-236.679C480.599,-237.997 482.365,-239.434 484,-241 516.608,-272.232 486.039,-306.245 520,-336 526.953,-342.092 535.492,-346.325 544.39,-349.249"/>
<polygon fill="midnightblue" stroke="midnightblue" points="480.44,-233.622 470.036,-231.623 476.923,-239.674 480.44,-233.622"/>
</g>
<!-- Node10 -->
<g id="node10" class="node"><title>Node10</title>
<g id="a_node10"><a xlink:href="classMezzanine_1_1UI_1_1DropDownList.html" target="_top" xlink:title="This is a widget that displays one selection from a list that can have it&#39;s visibility toggled...">
<polygon fill="white" stroke="black" points="527.5,-307.5 527.5,-326.5 676.5,-326.5 676.5,-307.5 527.5,-307.5"/>
<text text-anchor="middle" x="602" y="-314.5" font-family="Helvetica,sans-Serif" font-size="10.00">Mezzanine::UI::DropDownList</text>
</a>
</g>
</g>
<!-- Node5&#45;&gt;Node10 -->
<g id="edge9" class="edge"><title>Node5&#45;&gt;Node10</title>
<path fill="none" stroke="midnightblue" d="M476.269,-235.886C478.99,-237.42 481.592,-239.119 484,-241 507.61,-259.449 495.595,-280.616 520,-298 525.412,-301.855 531.494,-304.938 537.831,-307.402"/>
<polygon fill="midnightblue" stroke="midnightblue" points="477.79,-232.733 467.264,-231.528 474.741,-239.034 477.79,-232.733"/>
</g>
<!-- Node11 -->
<g id="node11" class="node"><title>Node11</title>
<g id="a_node11"><a xlink:href="classMezzanine_1_1UI_1_1EditBox.html" target="_top" xlink:title="Widget for handling the input and manipulation of text. ">
<polygon fill="white" stroke="black" points="541.5,-269.5 541.5,-288.5 662.5,-288.5 662.5,-269.5 541.5,-269.5"/>
<text text-anchor="middle" x="602" y="-276.5" font-family="Helvetica,sans-Serif" font-size="10.00">Mezzanine::UI::EditBox</text>
</a>
</g>
</g>
<!-- Node5&#45;&gt;Node11 -->
<g id="edge10" class="edge"><title>Node5&#45;&gt;Node11</title>
<path fill="none" stroke="midnightblue" d="M468.109,-234.833C473.507,-236.764 478.921,-238.838 484,-241 500.647,-248.085 503.055,-253.66 520,-260 529.876,-263.695 540.706,-266.827 551.142,-269.418"/>
<polygon fill="midnightblue" stroke="midnightblue" points="469.08,-231.466 458.486,-231.522 466.803,-238.085 469.08,-231.466"/>
</g>
<!-- Node12 -->
<g id="node12" class="node"><title>Node12</title>
<g id="a_node12"><a xlink:href="classMezzanine_1_1UI_1_1LayoutContainer.html" target="_top" xlink:title="This is the base class for container objects that automatically position it&#39;s children. ">
<polygon fill="white" stroke="black" points="523,-231.5 523,-250.5 681,-250.5 681,-231.5 523,-231.5"/>
<text text-anchor="middle" x="602" y="-238.5" font-family="Helvetica,sans-Serif" font-size="10.00">Mezzanine::UI::LayoutContainer</text>
</a>
</g>
</g>
<!-- Node5&#45;&gt;Node12 -->
<g id="edge11" class="edge"><title>Node5&#45;&gt;Node12</title>
<path fill="none" stroke="midnightblue" d="M494.18,-229.369C503.586,-230.393 513.311,-231.452 522.888,-232.495"/>
<polygon fill="midnightblue" stroke="midnightblue" points="494.442,-225.877 484.121,-228.274 493.684,-232.836 494.442,-225.877"/>
</g>
<!-- Node13 -->
<g id="node13" class="node"><title>Node13</title>
<g id="a_node13"><a xlink:href="classMezzanine_1_1UI_1_1ListBox.html" target="_top" xlink:title="This is a widget for displaying a list of captions in a box. ">
<polygon fill="white" stroke="black" points="542.5,-193.5 542.5,-212.5 661.5,-212.5 661.5,-193.5 542.5,-193.5"/>
<text text-anchor="middle" x="602" y="-200.5" font-family="Helvetica,sans-Serif" font-size="10.00">Mezzanine::UI::ListBox</text>
</a>
</g>
</g>
<!-- Node5&#45;&gt;Node13 -->
<g id="edge12" class="edge"><title>Node5&#45;&gt;Node13</title>
<path fill="none" stroke="midnightblue" d="M494.358,-214.611C510.166,-212.89 526.869,-211.072 542.245,-209.397"/>
<polygon fill="midnightblue" stroke="midnightblue" points="493.684,-211.164 484.121,-215.726 494.442,-218.123 493.684,-211.164"/>
</g>
<!-- Node14 -->
<g id="node14" class="node"><title>Node14</title>
<g id="a_node14"><a xlink:href="classMezzanine_1_1UI_1_1PagedContainer.html" target="_top" xlink:title="This is the base class for containers that have a render area and work area of different sizes...">
<polygon fill="white" stroke="black" points="524,-155.5 524,-174.5 680,-174.5 680,-155.5 524,-155.5"/>
<text text-anchor="middle" x="602" y="-162.5" font-family="Helvetica,sans-Serif" font-size="10.00">Mezzanine::UI::PagedContainer</text>
</a>
</g>
</g>
<!-- Node5&#45;&gt;Node14 -->
<g id="edge13" class="edge"><title>Node5&#45;&gt;Node14</title>
<path fill="none" stroke="midnightblue" d="M456.76,-208.302C474.854,-200.466 498.446,-190.862 520,-184 531.148,-180.451 543.351,-177.245 554.825,-174.522"/>
<polygon fill="midnightblue" stroke="midnightblue" points="455.072,-205.221 447.322,-212.445 457.885,-211.631 455.072,-205.221"/>
</g>
<!-- Node19 -->
<g id="node19" class="node"><title>Node19</title>
<g id="a_node19"><a xlink:href="classMezzanine_1_1UI_1_1PageProvider.html" target="_top" xlink:title="This is the base class for interpretting widget values to page positions. ">
<polygon fill="white" stroke="black" points="529.5,-114.5 529.5,-133.5 674.5,-133.5 674.5,-114.5 529.5,-114.5"/>
<text text-anchor="middle" x="602" y="-121.5" font-family="Helvetica,sans-Serif" font-size="10.00">Mezzanine::UI::PageProvider</text>
</a>
</g>
</g>
<!-- Node5&#45;&gt;Node19 -->
<g id="edge18" class="edge"><title>Node5&#45;&gt;Node19</title>
<path fill="none" stroke="midnightblue" d="M442.811,-205.092C460.354,-187.844 489.815,-161.48 520,-146 530.114,-140.813 541.584,-136.745 552.645,-133.595"/>
<polygon fill="midnightblue" stroke="midnightblue" points="440.206,-202.748 435.63,-212.303 445.166,-207.687 440.206,-202.748"/>
</g>
<!-- Node24 -->
<g id="node24" class="node"><title>Node24</title>
<g id="a_node24"><a xlink:href="classMezzanine_1_1UI_1_1StackedContainer.html" target="_top" xlink:title="This is the base class for containers that stack their children one on top of the other...">
<polygon fill="white" stroke="black" points="520,-38.5 520,-57.5 684,-57.5 684,-38.5 520,-38.5"/>
<text text-anchor="middle" x="602" y="-45.5" font-family="Helvetica,sans-Serif" font-size="10.00">Mezzanine::UI::StackedContainer</text>
</a>
</g>
</g>
<!-- Node5&#45;&gt;Node24 -->
<g id="edge23" class="edge"><title>Node5&#45;&gt;Node24</title>
<path fill="none" stroke="midnightblue" d="M438.511,-203.918C455.09,-179.741 486.729,-136.3 520,-105 540.289,-85.9124 567.336,-68.1568 584.464,-57.6911"/>
<polygon fill="midnightblue" stroke="midnightblue" points="435.441,-202.211 432.737,-212.455 441.239,-206.133 435.441,-202.211"/>
</g>
<!-- Node7 -->
<g id="node7" class="node"><title>Node7</title>
<g id="a_node7"><a xlink:href="classMezzanine_1_1UI_1_1CheckBox.html" target="_top" xlink:title="This is a simple widget for storing a bool value. ">
<polygon fill="white" stroke="black" points="731.5,-364.5 731.5,-383.5 863.5,-383.5 863.5,-364.5 731.5,-364.5"/>
<text text-anchor="middle" x="797.5" y="-371.5" font-family="Helvetica,sans-Serif" font-size="10.00">Mezzanine::UI::CheckBox</text>
</a>
</g>
</g>
<!-- Node6&#45;&gt;Node7 -->
<g id="edge6" class="edge"><title>Node6&#45;&gt;Node7</title>
<path fill="none" stroke="midnightblue" d="M669.94,-361.573C689.791,-363.522 711.496,-365.653 731.239,-367.592"/>
<polygon fill="midnightblue" stroke="midnightblue" points="670.043,-358.066 659.749,-360.572 669.359,-365.033 670.043,-358.066"/>
</g>
<!-- Node9 -->
<g id="node9" class="node"><title>Node9</title>
<g id="a_node9"><a xlink:href="classMezzanine_1_1UI_1_1StackButton.html" target="_top" xlink:title="This is a button with additional data used to track the binding to a StackedContainer which can be se...">
<polygon fill="white" stroke="black" points="727.5,-326.5 727.5,-345.5 867.5,-345.5 867.5,-326.5 727.5,-326.5"/>
<text text-anchor="middle" x="797.5" y="-333.5" font-family="Helvetica,sans-Serif" font-size="10.00">Mezzanine::UI::StackButton</text>
</a>
</g>
</g>
<!-- Node6&#45;&gt;Node9 -->
<g id="edge8" class="edge"><title>Node6&#45;&gt;Node9</title>
<path fill="none" stroke="midnightblue" d="M669.888,-348.432C688.477,-346.607 708.697,-344.621 727.409,-342.784"/>
<polygon fill="midnightblue" stroke="midnightblue" points="669.359,-344.967 659.749,-349.428 670.043,-351.934 669.359,-344.967"/>
</g>
<!-- Node8 -->
<g id="node8" class="node"><title>Node8</title>
<g id="a_node8"><a xlink:href="classMezzanine_1_1UI_1_1RadioButton.html" target="_top" xlink:title="This is a simple widget where only one of it&#39;s selections can be selected at a time. ">
<polygon fill="white" stroke="black" points="921.5,-364.5 921.5,-383.5 1061.5,-383.5 1061.5,-364.5 921.5,-364.5"/>
<text text-anchor="middle" x="991.5" y="-371.5" font-family="Helvetica,sans-Serif" font-size="10.00">Mezzanine::UI::RadioButton</text>
</a>
</g>
</g>
<!-- Node7&#45;&gt;Node8 -->
<g id="edge7" class="edge"><title>Node7&#45;&gt;Node8</title>
<path fill="none" stroke="midnightblue" d="M873.68,-374C889.368,-374 905.835,-374 921.294,-374"/>
<polygon fill="midnightblue" stroke="midnightblue" points="873.502,-370.5 863.502,-374 873.502,-377.5 873.502,-370.5"/>
</g>
<!-- Node15 -->
<g id="node15" class="node"><title>Node15</title>
<g id="a_node15"><a xlink:href="classMezzanine_1_1UI_1_1GridContainer.html" target="_top" xlink:title="This is a container class for placing child objects on a 2 dimensional grid. ">
<polygon fill="white" stroke="black" points="724.5,-194.5 724.5,-213.5 870.5,-213.5 870.5,-194.5 724.5,-194.5"/>
<text text-anchor="middle" x="797.5" y="-201.5" font-family="Helvetica,sans-Serif" font-size="10.00">Mezzanine::UI::GridContainer</text>
</a>
</g>
</g>
<!-- Node14&#45;&gt;Node15 -->
<g id="edge14" class="edge"><title>Node14&#45;&gt;Node15</title>
<path fill="none" stroke="midnightblue" d="M660.501,-176.589C688.819,-182.297 722.539,-189.093 749.318,-194.491"/>
<polygon fill="midnightblue" stroke="midnightblue" points="660.83,-173.085 650.335,-174.54 659.447,-179.947 660.83,-173.085"/>
</g>
<!-- Node16 -->
<g id="node16" class="node"><title>Node16</title>
<g id="a_node16"><a xlink:href="classMezzanine_1_1UI_1_1LinearContainer.html" target="_top" xlink:title="This is a container class for placing child objects in succession on a single axis. ">
<polygon fill="white" stroke="black" points="720,-156.5 720,-175.5 875,-175.5 875,-156.5 720,-156.5"/>
<text text-anchor="middle" x="797.5" y="-163.5" font-family="Helvetica,sans-Serif" font-size="10.00">Mezzanine::UI::LinearContainer</text>
</a>
</g>
</g>
<!-- Node14&#45;&gt;Node16 -->
<g id="edge15" class="edge"><title>Node14&#45;&gt;Node16</title>
<path fill="none" stroke="midnightblue" d="M690.223,-165.451C700.064,-165.502 710.038,-165.553 719.733,-165.603"/>
<polygon fill="midnightblue" stroke="midnightblue" points="690.05,-161.95 680.032,-165.398 690.014,-168.95 690.05,-161.95"/>
</g>
<!-- Node17 -->
<g id="node17" class="node"><title>Node17</title>
<g id="a_node17"><a xlink:href="classMezzanine_1_1UI_1_1HorizontalContainer.html" target="_top" xlink:title="A layout container that aligns it&#39;s children along a common X axis. ">
<polygon fill="white" stroke="black" points="926,-196 926,-226 1057,-226 1057,-196 926,-196"/>
<text text-anchor="start" x="934" y="-214" font-family="Helvetica,sans-Serif" font-size="10.00">Mezzanine::UI::Horizontal</text>
<text text-anchor="middle" x="991.5" y="-203" font-family="Helvetica,sans-Serif" font-size="10.00">Container</text>
</a>
</g>
</g>
<!-- Node16&#45;&gt;Node17 -->
<g id="edge16" class="edge"><title>Node16&#45;&gt;Node17</title>
<path fill="none" stroke="midnightblue" d="M849.054,-177.849C872.744,-183.401 901.233,-190.078 926.417,-195.98"/>
<polygon fill="midnightblue" stroke="midnightblue" points="849.753,-174.418 839.218,-175.543 848.156,-181.233 849.753,-174.418"/>
</g>
<!-- Node18 -->
<g id="node18" class="node"><title>Node18</title>
<g id="a_node18"><a xlink:href="classMezzanine_1_1UI_1_1VerticalContainer.html" target="_top" xlink:title="A layout container that aligns it&#39;s children along a common Y axis. ">
<polygon fill="white" stroke="black" points="911,-157.5 911,-176.5 1072,-176.5 1072,-157.5 911,-157.5"/>
<text text-anchor="middle" x="991.5" y="-164.5" font-family="Helvetica,sans-Serif" font-size="10.00">Mezzanine::UI::VerticalContainer</text>
</a>
</g>
</g>
<!-- Node16&#45;&gt;Node18 -->
<g id="edge17" class="edge"><title>Node16&#45;&gt;Node18</title>
<path fill="none" stroke="midnightblue" d="M885.438,-166.453C893.876,-166.497 902.407,-166.541 910.769,-166.585"/>
<polygon fill="midnightblue" stroke="midnightblue" points="885.229,-162.952 875.211,-166.4 885.193,-169.952 885.229,-162.952"/>
</g>
<!-- Node20 -->
<g id="node20" class="node"><title>Node20</title>
<g id="a_node20"><a xlink:href="classMezzanine_1_1UI_1_1Scrollbar.html" target="_top" xlink:title="This is the scrollbar base class. ">
<polygon fill="white" stroke="black" points="735,-114.5 735,-133.5 860,-133.5 860,-114.5 735,-114.5"/>
<text text-anchor="middle" x="797.5" y="-121.5" font-family="Helvetica,sans-Serif" font-size="10.00">Mezzanine::UI::Scrollbar</text>
</a>
</g>
</g>
<!-- Node19&#45;&gt;Node20 -->
<g id="edge19" class="edge"><title>Node19&#45;&gt;Node20</title>
<path fill="none" stroke="midnightblue" d="M684.833,-124C701.58,-124 718.938,-124 734.835,-124"/>
<polygon fill="midnightblue" stroke="midnightblue" points="684.503,-120.5 674.502,-124 684.502,-127.5 684.503,-120.5"/>
</g>
<!-- Node23 -->
<g id="node23" class="node"><title>Node23</title>
<g id="a_node23"><a xlink:href="classMezzanine_1_1UI_1_1Spinner.html" target="_top" xlink:title="This is a simple widget for a numeric variable in a box. ">
<polygon fill="white" stroke="black" points="738,-76.5 738,-95.5 857,-95.5 857,-76.5 738,-76.5"/>
<text text-anchor="middle" x="797.5" y="-83.5" font-family="Helvetica,sans-Serif" font-size="10.00">Mezzanine::UI::Spinner</text>
</a>
</g>
</g>
<!-- Node19&#45;&gt;Node23 -->
<g id="edge22" class="edge"><title>Node19&#45;&gt;Node23</title>
<path fill="none" stroke="midnightblue" d="M661.753,-112.462C689.352,-107.042 721.855,-100.659 748.023,-95.5201"/>
<polygon fill="midnightblue" stroke="midnightblue" points="660.966,-109.049 651.828,-114.411 662.315,-115.918 660.966,-109.049"/>
</g>
<!-- Node21 -->
<g id="node21" class="node"><title>Node21</title>
<g id="a_node21"><a xlink:href="classMezzanine_1_1UI_1_1HorizontalScrollbar.html" target="_top" xlink:title="This is a scrollbar class aligned on the X axis. ">
<polygon fill="white" stroke="black" points="926,-108 926,-138 1057,-138 1057,-108 926,-108"/>
<text text-anchor="start" x="934" y="-126" font-family="Helvetica,sans-Serif" font-size="10.00">Mezzanine::UI::Horizontal</text>
<text text-anchor="middle" x="991.5" y="-115" font-family="Helvetica,sans-Serif" font-size="10.00">Scrollbar</text>
</a>
</g>
</g>
<!-- Node20&#45;&gt;Node21 -->
<g id="edge20" class="edge"><title>Node20&#45;&gt;Node21</title>
<path fill="none" stroke="midnightblue" d="M870.082,-123.627C888.424,-123.532 908.039,-123.429 925.999,-123.336"/>
<polygon fill="midnightblue" stroke="midnightblue" points="870.024,-120.127 860.042,-123.679 870.06,-127.127 870.024,-120.127"/>
</g>
<!-- Node22 -->
<g id="node22" class="node"><title>Node22</title>
<g id="a_node22"><a xlink:href="classMezzanine_1_1UI_1_1VerticalScrollbar.html" target="_top" xlink:title="This is a scrollbar class aligned on the Y axis. ">
<polygon fill="white" stroke="black" points="912.5,-69.5 912.5,-88.5 1070.5,-88.5 1070.5,-69.5 912.5,-69.5"/>
<text text-anchor="middle" x="991.5" y="-76.5" font-family="Helvetica,sans-Serif" font-size="10.00">Mezzanine::UI::VerticalScrollbar</text>
</a>
</g>
</g>
<!-- Node20&#45;&gt;Node22 -->
<g id="edge21" class="edge"><title>Node20&#45;&gt;Node22</title>
<path fill="none" stroke="midnightblue" d="M849.109,-112.139C880.559,-104.767 920.453,-95.4172 949.84,-88.5296"/>
<polygon fill="midnightblue" stroke="midnightblue" points="848.156,-108.767 839.218,-114.457 849.753,-115.582 848.156,-108.767"/>
</g>
<!-- Node25 -->
<g id="node25" class="node"><title>Node25</title>
<g id="a_node25"><a xlink:href="classMezzanine_1_1UI_1_1MenuEntry.html" target="_top" xlink:title="This class is an entry for a single window/widget in a menu. ">
<polygon fill="white" stroke="black" points="730.5,-38.5 730.5,-57.5 864.5,-57.5 864.5,-38.5 730.5,-38.5"/>
<text text-anchor="middle" x="797.5" y="-45.5" font-family="Helvetica,sans-Serif" font-size="10.00">Mezzanine::UI::MenuEntry</text>
</a>
</g>
</g>
<!-- Node24&#45;&gt;Node25 -->
<g id="edge24" class="edge"><title>Node24&#45;&gt;Node25</title>
<path fill="none" stroke="midnightblue" d="M694.394,-48C706.557,-48 718.834,-48 730.451,-48"/>
<polygon fill="midnightblue" stroke="midnightblue" points="694.22,-44.5001 684.22,-48 694.22,-51.5001 694.22,-44.5001"/>
</g>
<!-- Node26 -->
<g id="node26" class="node"><title>Node26</title>
<g id="a_node26"><a xlink:href="classMezzanine_1_1UI_1_1TabSet.html" target="_top" xlink:title="This is a widget that stores sets of renderables but only displays one at a time. ...">
<polygon fill="white" stroke="black" points="738.5,-0.5 738.5,-19.5 856.5,-19.5 856.5,-0.5 738.5,-0.5"/>
<text text-anchor="middle" x="797.5" y="-7.5" font-family="Helvetica,sans-Serif" font-size="10.00">Mezzanine::UI::TabSet</text>
</a>
</g>
</g>
<!-- Node24&#45;&gt;Node26 -->
<g id="edge25" class="edge"><title>Node24&#45;&gt;Node26</title>
<path fill="none" stroke="midnightblue" d="M661.753,-36.4619C689.352,-31.042 721.855,-24.659 748.023,-19.5201"/>
<polygon fill="midnightblue" stroke="midnightblue" points="660.966,-33.0495 651.828,-38.411 662.315,-39.9183 660.966,-33.0495"/>
</g>
</g>
</svg>
