<?xml version="1.0" encoding="UTF-8" standalone="no"?>
<!DOCTYPE svg PUBLIC "-//W3C//DTD SVG 1.1//EN"
 "http://www.w3.org/Graphics/SVG/1.1/DTD/svg11.dtd">
<!-- Generated by graphviz version 2.38.0 (20140413.2041)
 -->
<!-- Title: Mezzanine::WorldProxy Pages: 1 -->
<!--zoomable 382 -->
<svg id="main" version="1.1" xmlns="http://www.w3.org/2000/svg" xmlns:xlink="http://www.w3.org/1999/xlink" xml:space="preserve" onload="init(evt)">
<style type="text/css"><![CDATA[
.edge:hover path { stroke: red; }
.edge:hover polygon { stroke: red; fill: red; }
]]></style>
<script type="text/javascript"><![CDATA[
var edges = document.getElementsByTagName('g');
if (edges && edges.length) {
  for (var i=0;i<edges.length;i++) {
    if (edges[i].id.substr(0,4)=='edge') {
      edges[i].setAttribute('class','edge');
    }
  }
}
]]></script>
        <defs>
                <circle id="rim" cx="0" cy="0" r="7"/>
                <circle id="rim2" cx="0" cy="0" r="3.5"/>
                <g id="zoomPlus">
                        <use xlink:href="#rim" fill="#404040">
                                <set attributeName="fill" to="#808080" begin="zoomplus.mouseover" end="zoomplus.mouseout"/>
                        </use>
                        <path d="M-4,0h8M0,-4v8" fill="none" stroke="white" stroke-width="1.5" pointer-events="none"/>
                </g>
                <g id="zoomMin">
                        <use xlink:href="#rim" fill="#404040">
                                <set attributeName="fill" to="#808080" begin="zoomminus.mouseover" end="zoomminus.mouseout"/>
                        </use>
                        <path d="M-4,0h8" fill="none" stroke="white" stroke-width="1.5" pointer-events="none"/>
                </g>
                <g id="dirArrow">
                        <path fill="none" stroke="white" stroke-width="1.5" d="M0,-3.0v7 M-2.5,-0.5L0,-3.0L2.5,-0.5"/>
                </g>
               <g id="resetDef">
                       <use xlink:href="#rim2" fill="#404040">
                               <set attributeName="fill" to="#808080" begin="reset.mouseover" end="reset.mouseout"/>
                       </use>
               </g>
        </defs>

<script type="text/javascript">
var viewWidth = 638;
var viewHeight = 382;
var sectionId = 'dynsection-0';
</script>
<script xlink:href="svgpan.js"/>
<svg id="graph" class="graph">
<g id="viewport">
<title>Mezzanine::WorldProxy</title>
<polygon fill="white" stroke="none" points="-4,4 -4,-378 634,-378 634,4 -4,4"/>
<!-- Node1 -->
<g id="node1" class="node"><title>Node1</title>
<polygon fill="#bfbfbf" stroke="black" points="168,-248 168,-267 289,-267 289,-248 168,-248"/>
<text text-anchor="middle" x="228.5" y="-255" font-family="Helvetica,sans-Serif" font-size="10.00">Mezzanine::WorldProxy</text>
</g>
<!-- Node3 -->
<g id="node3" class="node"><title>Node3</title>
<g id="a_node3"><a xlink:href="classMezzanine_1_1Audio_1_1iListener.html" target="_top" xlink:title="This is an interface class for a listener (such as a player) in the 3D audio world. ">
<polygon fill="white" stroke="black" points="333.5,-308 333.5,-327 470.5,-327 470.5,-308 333.5,-308"/>
<text text-anchor="middle" x="402" y="-315" font-family="Helvetica,sans-Serif" font-size="10.00">Mezzanine::Audio::iListener</text>
</a>
</g>
</g>
<!-- Node1&#45;&gt;Node3 -->
<g id="edge2" class="edge"><title>Node1&#45;&gt;Node3</title>
<path fill="none" stroke="midnightblue" d="M258.413,-271.354C277.112,-279.952 302.142,-290.792 325,-298.5 335.439,-302.02 346.88,-305.215 357.645,-307.938"/>
<polygon fill="midnightblue" stroke="midnightblue" points="259.8,-268.139 249.257,-267.091 256.845,-274.485 259.8,-268.139"/>
</g>
<!-- Node4 -->
<g id="node4" class="node"><title>Node4</title>
<g id="a_node4"><a xlink:href="classMezzanine_1_1Audio_1_1SoundProxy.html" target="_top" xlink:title="This is a proxy class for representing a sound being played in 3D space. ">
<polygon fill="white" stroke="black" points="325,-270 325,-289 479,-289 479,-270 325,-270"/>
<text text-anchor="middle" x="402" y="-277" font-family="Helvetica,sans-Serif" font-size="10.00">Mezzanine::Audio::SoundProxy</text>
</a>
</g>
</g>
<!-- Node1&#45;&gt;Node4 -->
<g id="edge3" class="edge"><title>Node1&#45;&gt;Node4</title>
<path fill="none" stroke="midnightblue" d="M299.153,-266.435C308.26,-267.603 317.618,-268.804 326.796,-269.981"/>
<polygon fill="midnightblue" stroke="midnightblue" points="299.365,-262.934 289.001,-265.133 298.474,-269.877 299.365,-262.934"/>
</g>
<!-- Node5 -->
<g id="node5" class="node"><title>Node5</title>
<g id="a_node5"><a xlink:href="classMezzanine_1_1Graphics_1_1RenderableProxy.html" target="_top" xlink:title="This is the base proxy class for world proxies wrapping functionality of the graphics subsystem...">
<polygon fill="white" stroke="black" points="347.5,-220.5 347.5,-250.5 456.5,-250.5 456.5,-220.5 347.5,-220.5"/>
<text text-anchor="start" x="355.5" y="-238.5" font-family="Helvetica,sans-Serif" font-size="10.00">Mezzanine::Graphics</text>
<text text-anchor="middle" x="402" y="-227.5" font-family="Helvetica,sans-Serif" font-size="10.00">::RenderableProxy</text>
</a>
</g>
</g>
<!-- Node1&#45;&gt;Node5 -->
<g id="edge4" class="edge"><title>Node1&#45;&gt;Node5</title>
<path fill="none" stroke="midnightblue" d="M298.925,-248.594C315.064,-246.524 332.004,-244.351 347.343,-242.383"/>
<polygon fill="midnightblue" stroke="midnightblue" points="298.474,-245.123 289.001,-249.867 299.365,-252.066 298.474,-245.123"/>
</g>
<!-- Node11 -->
<g id="node11" class="node"><title>Node11</title>
<g id="a_node11"><a xlink:href="classMezzanine_1_1Physics_1_1CollidableProxy.html" target="_top" xlink:title="This is a proxy from which physics objects that can collide with each other are handled. ">
<polygon fill="white" stroke="black" points="349.5,-74.5 349.5,-104.5 454.5,-104.5 454.5,-74.5 349.5,-74.5"/>
<text text-anchor="start" x="357.5" y="-92.5" font-family="Helvetica,sans-Serif" font-size="10.00">Mezzanine::Physics</text>
<text text-anchor="middle" x="402" y="-81.5" font-family="Helvetica,sans-Serif" font-size="10.00">::CollidableProxy</text>
</a>
</g>
</g>
<!-- Node1&#45;&gt;Node11 -->
<g id="edge10" class="edge"><title>Node1&#45;&gt;Node11</title>
<path fill="none" stroke="midnightblue" d="M246.401,-240.944C279.702,-208.323 353.351,-136.177 385.491,-104.692"/>
<polygon fill="midnightblue" stroke="midnightblue" points="243.906,-238.488 239.212,-247.986 248.805,-243.489 243.906,-238.488"/>
</g>
<!-- Node2 -->
<g id="node2" class="node"><title>Node2</title>
<g id="a_node2"><a xlink:href="classMezzanine_1_1TransformableObject.html" target="_top" xlink:title="This is an interface for all 3D objects that can have their full transforms manipulated. ">
<polygon fill="white" stroke="black" points="0,-242.5 0,-272.5 132,-272.5 132,-242.5 0,-242.5"/>
<text text-anchor="start" x="8" y="-260.5" font-family="Helvetica,sans-Serif" font-size="10.00">Mezzanine::Transformable</text>
<text text-anchor="middle" x="66" y="-249.5" font-family="Helvetica,sans-Serif" font-size="10.00">Object</text>
</a>
</g>
</g>
<!-- Node2&#45;&gt;Node1 -->
<g id="edge1" class="edge"><title>Node2&#45;&gt;Node1</title>
<path fill="none" stroke="midnightblue" d="M142.323,-257.5C150.927,-257.5 159.606,-257.5 167.964,-257.5"/>
<polygon fill="midnightblue" stroke="midnightblue" points="142.282,-254 132.281,-257.5 142.281,-261 142.282,-254"/>
</g>
<!-- Node6 -->
<g id="node6" class="node"><title>Node6</title>
<g id="a_node6"><a xlink:href="classMezzanine_1_1Graphics_1_1BillboardSetProxy.html" target="_top" xlink:title="This is the proxy class for placing and manipulating a set of 2D billboards in the scene...">
<polygon fill="white" stroke="black" points="518,-343.5 518,-373.5 627,-373.5 627,-343.5 518,-343.5"/>
<text text-anchor="start" x="526" y="-361.5" font-family="Helvetica,sans-Serif" font-size="10.00">Mezzanine::Graphics</text>
<text text-anchor="middle" x="572.5" y="-350.5" font-family="Helvetica,sans-Serif" font-size="10.00">::BillboardSetProxy</text>
</a>
</g>
</g>
<!-- Node5&#45;&gt;Node6 -->
<g id="edge5" class="edge"><title>Node5&#45;&gt;Node6</title>
<path fill="none" stroke="midnightblue" d="M465.907,-251.502C470.606,-254.07 475.047,-257.048 479,-260.5 506.547,-284.559 488.486,-309.307 515,-334.5 518.554,-337.877 522.655,-340.815 526.992,-343.363"/>
<polygon fill="midnightblue" stroke="midnightblue" points="467.142,-248.213 456.611,-247.051 464.119,-254.527 467.142,-248.213"/>
</g>
<!-- Node7 -->
<g id="node7" class="node"><title>Node7</title>
<g id="a_node7"><a xlink:href="classMezzanine_1_1Graphics_1_1CameraProxy.html" target="_top" xlink:title="This is the proxy class for placing and manipulating a camera in the scene. ">
<polygon fill="white" stroke="black" points="518,-294.5 518,-324.5 627,-324.5 627,-294.5 518,-294.5"/>
<text text-anchor="start" x="526" y="-312.5" font-family="Helvetica,sans-Serif" font-size="10.00">Mezzanine::Graphics</text>
<text text-anchor="middle" x="572.5" y="-301.5" font-family="Helvetica,sans-Serif" font-size="10.00">::CameraProxy</text>
</a>
</g>
</g>
<!-- Node5&#45;&gt;Node7 -->
<g id="edge6" class="edge"><title>Node5&#45;&gt;Node7</title>
<path fill="none" stroke="midnightblue" d="M464.726,-254.217C469.621,-256.18 474.433,-258.278 479,-260.5 496.291,-268.914 498.146,-275.242 515,-284.5 521.299,-287.96 528.171,-291.321 534.884,-294.398"/>
<polygon fill="midnightblue" stroke="midnightblue" points="465.845,-250.898 455.254,-250.611 463.354,-257.44 465.845,-250.898"/>
</g>
<!-- Node8 -->
<g id="node8" class="node"><title>Node8</title>
<g id="a_node8"><a xlink:href="classMezzanine_1_1Graphics_1_1EntityProxy.html" target="_top" xlink:title="This is the proxy class for placing and manipulating a mesh in the scene. ">
<polygon fill="white" stroke="black" points="518,-245.5 518,-275.5 627,-275.5 627,-245.5 518,-245.5"/>
<text text-anchor="start" x="526" y="-263.5" font-family="Helvetica,sans-Serif" font-size="10.00">Mezzanine::Graphics</text>
<text text-anchor="middle" x="572.5" y="-252.5" font-family="Helvetica,sans-Serif" font-size="10.00">::EntityProxy</text>
</a>
</g>
</g>
<!-- Node5&#45;&gt;Node8 -->
<g id="edge7" class="edge"><title>Node5&#45;&gt;Node8</title>
<path fill="none" stroke="midnightblue" d="M467.058,-245.004C483.845,-247.495 501.769,-250.154 517.944,-252.554"/>
<polygon fill="midnightblue" stroke="midnightblue" points="467.183,-241.484 456.778,-243.479 466.156,-248.409 467.183,-241.484"/>
</g>
<!-- Node9 -->
<g id="node9" class="node"><title>Node9</title>
<g id="a_node9"><a xlink:href="classMezzanine_1_1Graphics_1_1LightProxy.html" target="_top" xlink:title="This is the proxy class for placing and manipulating lighting in the scene. ">
<polygon fill="white" stroke="black" points="518,-196.5 518,-226.5 627,-226.5 627,-196.5 518,-196.5"/>
<text text-anchor="start" x="526" y="-214.5" font-family="Helvetica,sans-Serif" font-size="10.00">Mezzanine::Graphics</text>
<text text-anchor="middle" x="572.5" y="-203.5" font-family="Helvetica,sans-Serif" font-size="10.00">::LightProxy</text>
</a>
</g>
</g>
<!-- Node5&#45;&gt;Node9 -->
<g id="edge8" class="edge"><title>Node5&#45;&gt;Node9</title>
<path fill="none" stroke="midnightblue" d="M467.058,-226.376C483.845,-223.985 501.769,-221.432 517.944,-219.128"/>
<polygon fill="midnightblue" stroke="midnightblue" points="466.184,-222.965 456.778,-227.84 467.171,-229.895 466.184,-222.965"/>
</g>
<!-- Node10 -->
<g id="node10" class="node"><title>Node10</title>
<g id="a_node10"><a xlink:href="classMezzanine_1_1Graphics_1_1ParticleSystemProxy.html" target="_top" xlink:title="This is the proxy class for placing and manipulating particles in the scene. ">
<polygon fill="white" stroke="black" points="515,-147.5 515,-177.5 630,-177.5 630,-147.5 515,-147.5"/>
<text text-anchor="start" x="523" y="-165.5" font-family="Helvetica,sans-Serif" font-size="10.00">Mezzanine::Graphics</text>
<text text-anchor="middle" x="572.5" y="-154.5" font-family="Helvetica,sans-Serif" font-size="10.00">::ParticleSystemProxy</text>
</a>
</g>
</g>
<!-- Node5&#45;&gt;Node10 -->
<g id="edge9" class="edge"><title>Node5&#45;&gt;Node10</title>
<path fill="none" stroke="midnightblue" d="M446.459,-216.358C467.188,-207.26 492.352,-196.264 515,-186.5 521.753,-183.589 528.97,-180.503 535.91,-177.549"/>
<polygon fill="midnightblue" stroke="midnightblue" points="445.02,-213.167 437.271,-220.393 447.835,-219.576 445.02,-213.167"/>
</g>
<!-- Node12 -->
<g id="node12" class="node"><title>Node12</title>
<g id="a_node12"><a xlink:href="classMezzanine_1_1Physics_1_1GhostProxy.html" target="_top" xlink:title="This is the proxy object for ghost objects with no contact response. ">
<polygon fill="white" stroke="black" points="520,-98.5 520,-128.5 625,-128.5 625,-98.5 520,-98.5"/>
<text text-anchor="start" x="528" y="-116.5" font-family="Helvetica,sans-Serif" font-size="10.00">Mezzanine::Physics</text>
<text text-anchor="middle" x="572.5" y="-105.5" font-family="Helvetica,sans-Serif" font-size="10.00">::GhostProxy</text>
</a>
</g>
</g>
<!-- Node11&#45;&gt;Node12 -->
<g id="edge11" class="edge"><title>Node11&#45;&gt;Node12</title>
<path fill="none" stroke="midnightblue" d="M465.035,-98.3359C483.019,-100.897 502.457,-103.666 519.741,-106.128"/>
<polygon fill="midnightblue" stroke="midnightblue" points="465.324,-94.8418 454.93,-96.8966 464.337,-101.772 465.324,-94.8418"/>
</g>
<!-- Node13 -->
<g id="node13" class="node"><title>Node13</title>
<g id="a_node13"><a xlink:href="classMezzanine_1_1Physics_1_1RigidProxy.html" target="_top" xlink:title="This is a proxy from which rigid body proxys are handled. ">
<polygon fill="white" stroke="black" points="520,-49.5 520,-79.5 625,-79.5 625,-49.5 520,-49.5"/>
<text text-anchor="start" x="528" y="-67.5" font-family="Helvetica,sans-Serif" font-size="10.00">Mezzanine::Physics</text>
<text text-anchor="middle" x="572.5" y="-56.5" font-family="Helvetica,sans-Serif" font-size="10.00">::RigidProxy</text>
</a>
</g>
</g>
<!-- Node11&#45;&gt;Node13 -->
<g id="edge12" class="edge"><title>Node11&#45;&gt;Node13</title>
<path fill="none" stroke="midnightblue" d="M465.035,-80.296C483.019,-77.6277 502.457,-74.7437 519.741,-72.1794"/>
<polygon fill="midnightblue" stroke="midnightblue" points="464.308,-76.8654 454.93,-81.7952 465.336,-83.7896 464.308,-76.8654"/>
</g>
<!-- Node14 -->
<g id="node14" class="node"><title>Node14</title>
<g id="a_node14"><a xlink:href="classMezzanine_1_1Physics_1_1SoftProxy.html" target="_top" xlink:title="This is the proxy object for soft/compressable bodies. ">
<polygon fill="white" stroke="black" points="520,-0.5 520,-30.5 625,-30.5 625,-0.5 520,-0.5"/>
<text text-anchor="start" x="528" y="-18.5" font-family="Helvetica,sans-Serif" font-size="10.00">Mezzanine::Physics</text>
<text text-anchor="middle" x="572.5" y="-7.5" font-family="Helvetica,sans-Serif" font-size="10.00">::SoftProxy</text>
</a>
</g>
</g>
<!-- Node11&#45;&gt;Node14 -->
<g id="edge13" class="edge"><title>Node11&#45;&gt;Node14</title>
<path fill="none" stroke="midnightblue" d="M445.5,-70.3085C466.395,-60.9289 491.976,-49.5286 515,-39.5 521.742,-36.5635 528.954,-33.4665 535.893,-30.5087"/>
<polygon fill="midnightblue" stroke="midnightblue" points="443.941,-67.1717 436.255,-74.4638 446.811,-73.5564 443.941,-67.1717"/>
</g>
</g>
</svg>
        <g id="navigator" transform="translate(0 0)" fill="#404254">
                <rect fill="#f2f5e9" fill-opacity="0.5" stroke="#606060" stroke-width=".5" x="0" y="0" width="60" height="60"/>
                <use id="zoomplus" xlink:href="#zoomPlus" x="17" y="9" onmousedown="handleZoom(evt,'in')"/>
                <use id="zoomminus" xlink:href="#zoomMin" x="42" y="9" onmousedown="handleZoom(evt,'out')"/>
                <use id="reset" xlink:href="#resetDef" x="30" y="36" onmousedown="handleReset()"/>
                <g id="arrowUp" xlink:href="#dirArrow" transform="translate(30 24)" onmousedown="handlePan(0,-1)">
                  <use xlink:href="#rim" fill="#404040">
                        <set attributeName="fill" to="#808080" begin="arrowUp.mouseover" end="arrowUp.mouseout"/>
                  </use>
                  <path fill="none" stroke="white" stroke-width="1.5" d="M0,-3.0v7 M-2.5,-0.5L0,-3.0L2.5,-0.5"/>
                </g>
                <g id="arrowRight" xlink:href="#dirArrow" transform="rotate(90) translate(36 -43)" onmousedown="handlePan(1,0)">
                  <use xlink:href="#rim" fill="#404040">
                        <set attributeName="fill" to="#808080" begin="arrowRight.mouseover" end="arrowRight.mouseout"/>
                  </use>
                  <path fill="none" stroke="white" stroke-width="1.5" d="M0,-3.0v7 M-2.5,-0.5L0,-3.0L2.5,-0.5"/>
                </g>
                <g id="arrowDown" xlink:href="#dirArrow" transform="rotate(180) translate(-30 -48)" onmousedown="handlePan(0,1)">
                  <use xlink:href="#rim" fill="#404040">
                        <set attributeName="fill" to="#808080" begin="arrowDown.mouseover" end="arrowDown.mouseout"/>
                  </use>
                  <path fill="none" stroke="white" stroke-width="1.5" d="M0,-3.0v7 M-2.5,-0.5L0,-3.0L2.5,-0.5"/>
                </g>
                <g id="arrowLeft" xlink:href="#dirArrow" transform="rotate(270) translate(-36 17)" onmousedown="handlePan(-1,0)">
                  <use xlink:href="#rim" fill="#404040">
                        <set attributeName="fill" to="#808080" begin="arrowLeft.mouseover" end="arrowLeft.mouseout"/>
                  </use>
                  <path fill="none" stroke="white" stroke-width="1.5" d="M0,-3.0v7 M-2.5,-0.5L0,-3.0L2.5,-0.5"/>
                </g>
        </g>
        <svg viewBox="0 0 15 15" width="100%" height="30px" preserveAspectRatio="xMaxYMin meet">
         <g id="arrow_out" transform="scale(0.3 0.3)">
          <a xlink:href="classMezzanine_1_1WorldProxy__inherit__graph_org.svg" target="_base">
           <rect id="button" ry="5" rx="5" y="6" x="6" height="38" width="38"
                fill="#f2f5e9" fill-opacity="0.5" stroke="#606060" stroke-width="1.0"/>
           <path id="arrow"
             d="M 11.500037,31.436501 C 11.940474,20.09759 22.043105,11.32322 32.158766,21.979434 L 37.068811,17.246167 C 37.068811,17.246167 37.088388,32 37.088388,32 L 22.160133,31.978069 C 22.160133,31.978069 26.997745,27.140456 26.997745,27.140456 C 18.528582,18.264221 13.291696,25.230495 11.500037,31.436501 z"
             style="fill:#404040;"/>
          </a>
         </g>
        </svg>
</svg>
