<?xml version="1.0" encoding="UTF-8" standalone="no"?>
<!DOCTYPE svg PUBLIC "-//W3C//DTD SVG 1.1//EN"
 "http://www.w3.org/Graphics/SVG/1.1/DTD/svg11.dtd">
<!-- Generated by graphviz version 2.38.0 (20140413.2041)
 -->
<!-- Title: Mezzanine::UI::SizingInfo Pages: 1 -->
<svg width="148pt" height="195pt"
 viewBox="0.00 0.00 148.00 195.00" xmlns="http://www.w3.org/2000/svg" xmlns:xlink="http://www.w3.org/1999/xlink">
<g id="graph0" class="graph" transform="scale(1 1) rotate(0) translate(4 191)">
<title>Mezzanine::UI::SizingInfo</title>
<polygon fill="white" stroke="none" points="-4,4 -4,-191 144,-191 144,4 -4,4"/>
<!-- Node1 -->
<g id="node1" class="node"><title>Node1</title>
<polygon fill="#bfbfbf" stroke="black" points="5,-0.5 5,-19.5 135,-19.5 135,-0.5 5,-0.5"/>
<text text-anchor="middle" x="70" y="-7.5" font-family="Helvetica,sans-Serif" font-size="10.00">Mezzanine::UI::SizingInfo</text>
</g>
<!-- Node2 -->
<g id="node2" class="node"><title>Node2</title>
<g id="a_node2"><a xlink:href="classMezzanine_1_1UI_1_1UnifiedVec2.html" target="_top" xlink:title="This class represents a point in 2D space using UnifiedDim&#39;s. ">
<polygon fill="white" stroke="black" points="0,-89.5 0,-108.5 140,-108.5 140,-89.5 0,-89.5"/>
<text text-anchor="middle" x="70" y="-96.5" font-family="Helvetica,sans-Serif" font-size="10.00">Mezzanine::UI::UnifiedVec2</text>
</a>
</g>
</g>
<!-- Node2&#45;&gt;Node1 -->
<g id="edge1" class="edge"><title>Node2&#45;&gt;Node1</title>
<path fill="none" stroke="#9a32cd" stroke-dasharray="5,2" d="M70,-79.1946C70,-60.7379 70,-33.412 70,-19.6249"/>
<polygon fill="#9a32cd" stroke="#9a32cd" points="66.5001,-79.34 70,-89.34 73.5001,-79.3401 66.5001,-79.34"/>
<text text-anchor="middle" x="89.5" y="-63" font-family="Helvetica,sans-Serif" font-size="10.00"> USize</text>
<text text-anchor="middle" x="89.5" y="-52" font-family="Helvetica,sans-Serif" font-size="10.00">MinSize</text>
<text text-anchor="middle" x="89.5" y="-41" font-family="Helvetica,sans-Serif" font-size="10.00">MaxSize</text>
</g>
<!-- Node3 -->
<g id="node3" class="node"><title>Node3</title>
<g id="a_node3"><a xlink:href="classMezzanine_1_1UI_1_1UnifiedDim.html" target="_top" xlink:title="This class represents both the relative and absolute values that can be expressed for the values on o...">
<polygon fill="white" stroke="black" points="2.5,-167.5 2.5,-186.5 137.5,-186.5 137.5,-167.5 2.5,-167.5"/>
<text text-anchor="middle" x="70" y="-174.5" font-family="Helvetica,sans-Serif" font-size="10.00">Mezzanine::UI::UnifiedDim</text>
</a>
</g>
</g>
<!-- Node3&#45;&gt;Node2 -->
<g id="edge2" class="edge"><title>Node3&#45;&gt;Node2</title>
<path fill="none" stroke="#9a32cd" stroke-dasharray="5,2" d="M70,-157.224C70,-141.697 70,-120.358 70,-108.616"/>
<polygon fill="#9a32cd" stroke="#9a32cd" points="66.5001,-157.282 70,-167.282 73.5001,-157.282 66.5001,-157.282"/>
<text text-anchor="middle" x="75" y="-141" font-family="Helvetica,sans-Serif" font-size="10.00"> X</text>
<text text-anchor="middle" x="75" y="-130" font-family="Helvetica,sans-Serif" font-size="10.00">Y</text>
</g>
</g>
</svg>
