<?xml version="1.0" encoding="UTF-8" standalone="no"?>
<!DOCTYPE svg PUBLIC "-//W3C//DTD SVG 1.1//EN"
 "http://www.w3.org/Graphics/SVG/1.1/DTD/svg11.dtd">
<!-- Generated by graphviz version 2.26.3 (20100126.1600)
 -->
<!-- Title: Mezzanine::EventSubscriber Pages: 1 -->
<!--zoomable 278 -->
<svg id="main" version="1.1" xmlns="http://www.w3.org/2000/svg" xmlns:xlink="http://www.w3.org/1999/xlink" xml:space="preserve" onload="init(evt)">
        <defs>
                <circle id="rim" cx="0" cy="0" r="7"/>
                <circle id="rim2" cx="0" cy="0" r="3.5"/>
                <g id="zoomPlus">
                        <use xlink:href="#rim" fill="#404040">
                                <set attributeName="fill" to="#808080" begin="zoomplus.mouseover" end="zoomplus.mouseout"/>
                        </use>
                        <path d="M-4,0h8M0,-4v8" fill="none" stroke="white" stroke-width="1.5" pointer-events="none"/>
                </g>
                <g id="zoomMin">
                        <use xlink:href="#rim" fill="#404040">
                                <set attributeName="fill" to="#808080" begin="zoomminus.mouseover" end="zoomminus.mouseout"/>
                        </use>
                        <path d="M-4,0h8" fill="none" stroke="white" stroke-width="1.5" pointer-events="none"/>
                </g>
                <g id="dirArrow">
                        <path fill="none" stroke="white" stroke-width="1.5" d="M0,-3.0v7 M-2.5,-0.5L0,-3.0L2.5,-0.5"/>
                </g>
               <g id="resetDef">
                       <use xlink:href="#rim2" fill="#404040">
                               <set attributeName="fill" to="#808080" begin="reset.mouseover" end="reset.mouseout"/>
                       </use>
               </g>
        </defs>

<script type="text/javascript">
var viewWidth = 866;
var viewHeight = 278;
var sectionId = 'dynsection-0';
</script>
<script xlink:href="svgpan.js"/>
<svg id="graph" class="graph">
<g id="viewport">
<title>Mezzanine::EventSubscriber</title>
<polygon fill="white" stroke="white" points="-4,5 -4,-274 863,-274 863,5 -4,5"/>
<!-- Node1 -->
<g id="node1" class="node"><title>Node1</title>
<polygon fill="#bfbfbf" stroke="black" points="0.5,-114 0.5,-134 137.5,-134 137.5,-114 0.5,-114"/>
<text text-anchor="middle" x="69" y="-121" font-family="FreeSans" font-size="10.00">Mezzanine::EventSubscriber</text>
</g>
<!-- Node2 -->
<g id="node3" class="node"><title>Node2</title>
<a xlink:href="classMezzanine_1_1UI_1_1Widget.html" target="_top" xlink:title="This is the base class for all widgets.">
<polygon fill="white" stroke="black" points="174.5,-114 174.5,-134 285.5,-134 285.5,-114 174.5,-114"/>
<text text-anchor="middle" x="230" y="-121" font-family="FreeSans" font-size="10.00">Mezzanine::UI::Widget</text>
</a>
</g>
<!-- Node1&#45;&gt;Node2 -->
<g id="edge2" class="edge"><title>Node1&#45;&gt;Node2</title>
<path fill="none" stroke="midnightblue" d="M147.76,-124C156.66,-124 165.59,-124 174.112,-124"/>
<polygon fill="midnightblue" stroke="midnightblue" points="147.746,-120.5 137.745,-124 147.745,-127.5 147.746,-120.5"/>
</g>
<!-- Node3 -->
<g id="node5" class="node"><title>Node3</title>
<a xlink:href="classMezzanine_1_1UI_1_1Button.html" target="_top" xlink:title="This class is a helper class, specifically for use as a button.">
<polygon fill="white" stroke="black" points="346,-228 346,-248 456,-248 456,-228 346,-228"/>
<text text-anchor="middle" x="401" y="-235" font-family="FreeSans" font-size="10.00">Mezzanine::UI::Button</text>
</a>
</g>
<!-- Node2&#45;&gt;Node3 -->
<g id="edge4" class="edge"><title>Node2&#45;&gt;Node3</title>
<path fill="none" stroke="midnightblue" d="M242.766,-142.505C258.742,-164.21 288.153,-199.678 322,-219 329.35,-223.196 337.595,-226.469 345.911,-229.021"/>
<polygon fill="midnightblue" stroke="midnightblue" points="245.437,-140.223 236.768,-134.132 239.747,-144.299 245.437,-140.223"/>
</g>
<!-- Node6 -->
<g id="node11" class="node"><title>Node6</title>
<a xlink:href="classMezzanine_1_1UI_1_1EditBox.html" target="_top" xlink:title="Widget for handling the input and manipulation of text.">
<polygon fill="white" stroke="black" points="344,-190 344,-210 458,-210 458,-190 344,-190"/>
<text text-anchor="middle" x="401" y="-197" font-family="FreeSans" font-size="10.00">Mezzanine::UI::EditBox</text>
</a>
</g>
<!-- Node2&#45;&gt;Node6 -->
<g id="edge10" class="edge"><title>Node2&#45;&gt;Node6</title>
<path fill="none" stroke="midnightblue" d="M251.852,-140.332C269.843,-153.072 296.455,-170.339 322,-181 330.462,-184.531 339.72,-187.494 348.824,-189.95"/>
<polygon fill="midnightblue" stroke="midnightblue" points="253.438,-137.16 243.282,-134.142 249.339,-142.834 253.438,-137.16"/>
</g>
<!-- Node7 -->
<g id="node13" class="node"><title>Node7</title>
<a xlink:href="classMezzanine_1_1UI_1_1LayoutContainer.html" target="_top" xlink:title="This is the base class for container objects that automatically position it&#39;s children.">
<polygon fill="white" stroke="black" points="325.5,-152 325.5,-172 476.5,-172 476.5,-152 325.5,-152"/>
<text text-anchor="middle" x="401" y="-159" font-family="FreeSans" font-size="10.00">Mezzanine::UI::LayoutContainer</text>
</a>
</g>
<!-- Node2&#45;&gt;Node7 -->
<g id="edge12" class="edge"><title>Node2&#45;&gt;Node7</title>
<path fill="none" stroke="midnightblue" d="M285.246,-136.277C308.022,-141.338 334.087,-147.13 355.709,-151.935"/>
<polygon fill="midnightblue" stroke="midnightblue" points="285.897,-132.836 275.376,-134.084 284.379,-139.67 285.897,-132.836"/>
</g>
<!-- Node8 -->
<g id="node15" class="node"><title>Node8</title>
<a xlink:href="classMezzanine_1_1UI_1_1PagedContainer.html" target="_top" xlink:title="This is the base class for containers that have a render area and work area of different sizes...">
<polygon fill="white" stroke="black" points="326,-114 326,-134 476,-134 476,-114 326,-114"/>
<text text-anchor="middle" x="401" y="-121" font-family="FreeSans" font-size="10.00">Mezzanine::UI::PagedContainer</text>
</a>
</g>
<!-- Node2&#45;&gt;Node8 -->
<g id="edge14" class="edge"><title>Node2&#45;&gt;Node8</title>
<path fill="none" stroke="midnightblue" d="M295.658,-124C305.541,-124 315.798,-124 325.861,-124"/>
<polygon fill="midnightblue" stroke="midnightblue" points="295.519,-120.5 285.519,-124 295.519,-127.5 295.519,-120.5"/>
</g>
<!-- Node13 -->
<g id="node25" class="node"><title>Node13</title>
<a xlink:href="classMezzanine_1_1UI_1_1PageProvider.html" target="_top" xlink:title="This is the base class for interpretting widget values to page positions.">
<polygon fill="white" stroke="black" points="331.5,-76 331.5,-96 470.5,-96 470.5,-76 331.5,-76"/>
<text text-anchor="middle" x="401" y="-83" font-family="FreeSans" font-size="10.00">Mezzanine::UI::PageProvider</text>
</a>
</g>
<!-- Node2&#45;&gt;Node13 -->
<g id="edge24" class="edge"><title>Node2&#45;&gt;Node13</title>
<path fill="none" stroke="midnightblue" d="M285.246,-111.723C308.022,-106.662 334.087,-100.87 355.709,-96.0647"/>
<polygon fill="midnightblue" stroke="midnightblue" points="284.379,-108.33 275.376,-113.916 285.897,-115.164 284.379,-108.33"/>
</g>
<!-- Node18 -->
<g id="node35" class="node"><title>Node18</title>
<a xlink:href="classMezzanine_1_1UI_1_1RadioButton.html" target="_top" xlink:title="This is a simple widget where only one of it&#39;s selections can be selected at a time.">
<polygon fill="white" stroke="black" points="334,-38 334,-58 468,-58 468,-38 334,-38"/>
<text text-anchor="middle" x="401" y="-45" font-family="FreeSans" font-size="10.00">Mezzanine::UI::RadioButton</text>
</a>
</g>
<!-- Node2&#45;&gt;Node18 -->
<g id="edge34" class="edge"><title>Node2&#45;&gt;Node18</title>
<path fill="none" stroke="midnightblue" d="M251.852,-107.668C269.843,-94.928 296.455,-77.6607 322,-67 330.462,-63.4687 339.72,-60.5057 348.824,-58.0501"/>
<polygon fill="midnightblue" stroke="midnightblue" points="249.339,-105.166 243.282,-113.858 253.438,-110.84 249.339,-105.166"/>
</g>
<!-- Node19 -->
<g id="node37" class="node"><title>Node19</title>
<a xlink:href="classMezzanine_1_1UI_1_1StackedContainer.html" target="_top" xlink:title="This is the base class for containers that stack their children one on top of the other...">
<polygon fill="white" stroke="black" points="322,-0 322,-20 480,-20 480,-0 322,-0"/>
<text text-anchor="middle" x="401" y="-7" font-family="FreeSans" font-size="10.00">Mezzanine::UI::StackedContainer</text>
</a>
</g>
<!-- Node2&#45;&gt;Node19 -->
<g id="edge36" class="edge"><title>Node2&#45;&gt;Node19</title>
<path fill="none" stroke="midnightblue" d="M242.766,-105.495C258.742,-83.7898 288.153,-48.3223 322,-29 328.37,-25.3633 335.412,-22.4201 342.59,-20.0387"/>
<polygon fill="midnightblue" stroke="midnightblue" points="239.747,-103.701 236.768,-113.868 245.437,-107.777 239.747,-103.701"/>
</g>
<!-- Node4 -->
<g id="node7" class="node"><title>Node4</title>
<a xlink:href="classMezzanine_1_1UI_1_1CheckBox.html" target="_top" xlink:title="This is a simple widget for storing a bool value.">
<polygon fill="white" stroke="black" points="528.5,-250 528.5,-270 653.5,-270 653.5,-250 528.5,-250"/>
<text text-anchor="middle" x="591" y="-257" font-family="FreeSans" font-size="10.00">Mezzanine::UI::CheckBox</text>
</a>
</g>
<!-- Node3&#45;&gt;Node4 -->
<g id="edge6" class="edge"><title>Node3&#45;&gt;Node4</title>
<path fill="none" stroke="midnightblue" d="M466.207,-245.55C486.302,-247.877 508.376,-250.433 528.298,-252.74"/>
<polygon fill="midnightblue" stroke="midnightblue" points="466.547,-242.066 456.211,-244.393 465.742,-249.02 466.547,-242.066"/>
</g>
<!-- Node5 -->
<g id="node9" class="node"><title>Node5</title>
<a xlink:href="classMezzanine_1_1UI_1_1MenuButton.html" target="_top" xlink:title="This is a button with additional data used to track the binding to a MenuEntry which can be serialize...">
<polygon fill="white" stroke="black" points="524,-212 524,-232 658,-232 658,-212 524,-212"/>
<text text-anchor="middle" x="591" y="-219" font-family="FreeSans" font-size="10.00">Mezzanine::UI::MenuButton</text>
</a>
</g>
<!-- Node3&#45;&gt;Node5 -->
<g id="edge8" class="edge"><title>Node3&#45;&gt;Node5</title>
<path fill="none" stroke="midnightblue" d="M466.338,-232.498C484.915,-230.933 505.174,-229.227 523.856,-227.654"/>
<polygon fill="midnightblue" stroke="midnightblue" points="465.882,-229.024 456.211,-233.351 466.47,-235.999 465.882,-229.024"/>
</g>
<!-- Node9 -->
<g id="node17" class="node"><title>Node9</title>
<a xlink:href="classMezzanine_1_1UI_1_1GridContainer.html" target="_top" xlink:title="This is a container class for placing child objects on a 2 dimensional grid.">
<polygon fill="white" stroke="black" points="521,-155 521,-175 661,-175 661,-155 521,-155"/>
<text text-anchor="middle" x="591" y="-162" font-family="FreeSans" font-size="10.00">Mezzanine::UI::GridContainer</text>
</a>
</g>
<!-- Node8&#45;&gt;Node9 -->
<g id="edge16" class="edge"><title>Node8&#45;&gt;Node9</title>
<path fill="none" stroke="midnightblue" d="M457.423,-136.175C485.121,-142.152 518.089,-149.267 544.342,-154.932"/>
<polygon fill="midnightblue" stroke="midnightblue" points="457.993,-132.718 447.479,-134.03 456.516,-139.56 457.993,-132.718"/>
</g>
<!-- Node10 -->
<g id="node19" class="node"><title>Node10</title>
<a xlink:href="classMezzanine_1_1UI_1_1LinearContainer.html" target="_top" xlink:title="This is a container class for placing child objects in succession on a single axis.">
<polygon fill="white" stroke="black" points="516.5,-117 516.5,-137 665.5,-137 665.5,-117 516.5,-117"/>
<text text-anchor="middle" x="591" y="-124" font-family="FreeSans" font-size="10.00">Mezzanine::UI::LinearContainer</text>
</a>
</g>
<!-- Node8&#45;&gt;Node10 -->
<g id="edge18" class="edge"><title>Node8&#45;&gt;Node10</title>
<path fill="none" stroke="midnightblue" d="M486.135,-125.344C496.245,-125.504 506.506,-125.666 516.452,-125.823"/>
<polygon fill="midnightblue" stroke="midnightblue" points="486.147,-121.844 476.093,-125.186 486.036,-128.843 486.147,-121.844"/>
</g>
<!-- Node11 -->
<g id="node21" class="node"><title>Node11</title>
<a xlink:href="classMezzanine_1_1UI_1_1HorizontalContainer.html" target="_top" xlink:title="A layout container that aligns it&#39;s children along a common X axis.">
<polygon fill="white" stroke="black" points="718,-156 718,-188 842,-188 842,-156 718,-156"/>
<text text-anchor="start" x="726" y="-175" font-family="FreeSans" font-size="10.00">Mezzanine::UI::Horizontal</text>
<text text-anchor="middle" x="780" y="-163" font-family="FreeSans" font-size="10.00">Container</text>
</a>
</g>
<!-- Node10&#45;&gt;Node11 -->
<g id="edge20" class="edge"><title>Node10&#45;&gt;Node11</title>
<path fill="none" stroke="midnightblue" d="M643.38,-139.471C666.506,-144.978 693.863,-151.491 717.999,-157.238"/>
<polygon fill="midnightblue" stroke="midnightblue" points="643.954,-136.01 633.415,-137.099 642.333,-142.82 643.954,-136.01"/>
</g>
<!-- Node12 -->
<g id="node23" class="node"><title>Node12</title>
<a xlink:href="classMezzanine_1_1UI_1_1VerticalContainer.html" target="_top" xlink:title="A layout container that aligns it&#39;s children along a common Y axis.">
<polygon fill="white" stroke="black" points="702.5,-118 702.5,-138 857.5,-138 857.5,-118 702.5,-118"/>
<text text-anchor="middle" x="780" y="-125" font-family="FreeSans" font-size="10.00">Mezzanine::UI::VerticalContainer</text>
</a>
</g>
<!-- Node10&#45;&gt;Node12 -->
<g id="edge22" class="edge"><title>Node10&#45;&gt;Node12</title>
<path fill="none" stroke="midnightblue" d="M675.972,-127.45C684.784,-127.496 693.708,-127.543 702.432,-127.59"/>
<polygon fill="midnightblue" stroke="midnightblue" points="675.716,-123.948 665.698,-127.395 675.679,-130.948 675.716,-123.948"/>
</g>
<!-- Node14 -->
<g id="node27" class="node"><title>Node14</title>
<a xlink:href="classMezzanine_1_1UI_1_1Scrollbar.html" target="_top" xlink:title="This is the scrollbar base class.">
<polygon fill="white" stroke="black" points="531.5,-76 531.5,-96 650.5,-96 650.5,-76 531.5,-76"/>
<text text-anchor="middle" x="591" y="-83" font-family="FreeSans" font-size="10.00">Mezzanine::UI::Scrollbar</text>
</a>
</g>
<!-- Node13&#45;&gt;Node14 -->
<g id="edge26" class="edge"><title>Node13&#45;&gt;Node14</title>
<path fill="none" stroke="midnightblue" d="M481.059,-86C497.909,-86 515.403,-86 531.347,-86"/>
<polygon fill="midnightblue" stroke="midnightblue" points="480.67,-82.5001 470.67,-86 480.67,-89.5001 480.67,-82.5001"/>
</g>
<!-- Node17 -->
<g id="node33" class="node"><title>Node17</title>
<a xlink:href="classMezzanine_1_1UI_1_1Spinner.html" target="_top" xlink:title="This is a simple widget for a numeric variable in a box.">
<polygon fill="white" stroke="black" points="534,-38 534,-58 648,-58 648,-38 534,-38"/>
<text text-anchor="middle" x="591" y="-45" font-family="FreeSans" font-size="10.00">Mezzanine::UI::Spinner</text>
</a>
</g>
<!-- Node13&#45;&gt;Node17 -->
<g id="edge32" class="edge"><title>Node13&#45;&gt;Node17</title>
<path fill="none" stroke="midnightblue" d="M461.365,-73.9269C486.911,-68.8177 516.329,-62.9342 540.677,-58.0647"/>
<polygon fill="midnightblue" stroke="midnightblue" points="460.537,-70.5232 451.418,-75.9165 461.91,-77.3873 460.537,-70.5232"/>
</g>
<!-- Node15 -->
<g id="node29" class="node"><title>Node15</title>
<a xlink:href="classMezzanine_1_1UI_1_1HorizontalScrollbar.html" target="_top" xlink:title="This is a scrollbar class aligned on the X axis.">
<polygon fill="white" stroke="black" points="718,-68 718,-100 842,-100 842,-68 718,-68"/>
<text text-anchor="start" x="726" y="-87" font-family="FreeSans" font-size="10.00">Mezzanine::UI::Horizontal</text>
<text text-anchor="middle" x="780" y="-75" font-family="FreeSans" font-size="10.00">Scrollbar</text>
</a>
</g>
<!-- Node14&#45;&gt;Node15 -->
<g id="edge28" class="edge"><title>Node14&#45;&gt;Node15</title>
<path fill="none" stroke="midnightblue" d="M660.768,-85.2617C679.47,-85.0638 699.562,-84.8512 717.823,-84.658"/>
<polygon fill="midnightblue" stroke="midnightblue" points="660.504,-81.7642 650.541,-85.3699 660.578,-88.7638 660.504,-81.7642"/>
</g>
<!-- Node16 -->
<g id="node31" class="node"><title>Node16</title>
<a xlink:href="classMezzanine_1_1UI_1_1VerticalScrollbar.html" target="_top" xlink:title="This is a scrollbar class aligned on the Y axis.">
<polygon fill="white" stroke="black" points="704,-30 704,-50 856,-50 856,-30 704,-30"/>
<text text-anchor="middle" x="780" y="-37" font-family="FreeSans" font-size="10.00">Mezzanine::UI::VerticalScrollbar</text>
</a>
</g>
<!-- Node14&#45;&gt;Node16 -->
<g id="edge30" class="edge"><title>Node14&#45;&gt;Node16</title>
<path fill="none" stroke="midnightblue" d="M642.414,-73.4866C672.632,-66.1319 710.33,-56.9568 738.62,-50.0713"/>
<polygon fill="midnightblue" stroke="midnightblue" points="641.365,-70.1395 632.477,-75.9051 643.021,-76.9409 641.365,-70.1395"/>
</g>
<!-- Node20 -->
<g id="node39" class="node"><title>Node20</title>
<a xlink:href="classMezzanine_1_1UI_1_1MenuEntry.html" target="_top" xlink:title="This class is an entry for a single window/widget in a menu.">
<polygon fill="white" stroke="black" points="527.5,-0 527.5,-20 654.5,-20 654.5,-0 527.5,-0"/>
<text text-anchor="middle" x="591" y="-7" font-family="FreeSans" font-size="10.00">Mezzanine::UI::MenuEntry</text>
</a>
</g>
<!-- Node19&#45;&gt;Node20 -->
<g id="edge38" class="edge"><title>Node19&#45;&gt;Node20</title>
<path fill="none" stroke="midnightblue" d="M490.558,-10C502.944,-10 515.455,-10 527.242,-10"/>
<polygon fill="midnightblue" stroke="midnightblue" points="490.201,-6.5001 480.201,-10 490.201,-13.5001 490.201,-6.5001"/>
</g>
</g>
</svg>
        <g id="navigator" transform="translate(0 0)" fill="#404254">
                <rect fill="#f2f5e9" fill-opacity="0.5" stroke="#606060" stroke-width=".5" x="0" y="0" width="60" height="60"/>
                <use id="zoomplus" xlink:href="#zoomPlus" x="17" y="9" onmousedown="handleZoom(evt,'in')"/>
                <use id="zoomminus" xlink:href="#zoomMin" x="42" y="9" onmousedown="handleZoom(evt,'out')"/>
                <use id="reset" xlink:href="#resetDef" x="30" y="36" onmousedown="handleReset()"/>
                <g id="arrowUp" xlink:href="#dirArrow" transform="translate(30 24)" onmousedown="handlePan(0,-1)">
                  <use xlink:href="#rim" fill="#404040">
                        <set attributeName="fill" to="#808080" begin="arrowUp.mouseover" end="arrowUp.mouseout"/>
                  </use>
                  <path fill="none" stroke="white" stroke-width="1.5" d="M0,-3.0v7 M-2.5,-0.5L0,-3.0L2.5,-0.5"/>
                </g>
                <g id="arrowRight" xlink:href="#dirArrow" transform="rotate(90) translate(36 -43)" onmousedown="handlePan(1,0)">
                  <use xlink:href="#rim" fill="#404040">
                        <set attributeName="fill" to="#808080" begin="arrowRight.mouseover" end="arrowRight.mouseout"/>
                  </use>
                  <path fill="none" stroke="white" stroke-width="1.5" d="M0,-3.0v7 M-2.5,-0.5L0,-3.0L2.5,-0.5"/>
                </g>
                <g id="arrowDown" xlink:href="#dirArrow" transform="rotate(180) translate(-30 -48)" onmousedown="handlePan(0,1)">
                  <use xlink:href="#rim" fill="#404040">
                        <set attributeName="fill" to="#808080" begin="arrowDown.mouseover" end="arrowDown.mouseout"/>
                  </use>
                  <path fill="none" stroke="white" stroke-width="1.5" d="M0,-3.0v7 M-2.5,-0.5L0,-3.0L2.5,-0.5"/>
                </g>
                <g id="arrowLeft" xlink:href="#dirArrow" transform="rotate(270) translate(-36 17)" onmousedown="handlePan(-1,0)">
                  <use xlink:href="#rim" fill="#404040">
                        <set attributeName="fill" to="#808080" begin="arrowLeft.mouseover" end="arrowLeft.mouseout"/>
                  </use>
                  <path fill="none" stroke="white" stroke-width="1.5" d="M0,-3.0v7 M-2.5,-0.5L0,-3.0L2.5,-0.5"/>
                </g>
        </g>
        <svg viewBox="0 0 15 15" width="100%" height="30px" preserveAspectRatio="xMaxYMin meet">
         <g id="arrow_out" transform="scale(0.3 0.3)">
          <a xlink:href="classMezzanine_1_1EventSubscriber__inherit__graph_org.svg" target="_base">
           <rect id="button" ry="5" rx="5" y="6" x="6" height="38" width="38"
                fill="#f2f5e9" fill-opacity="0.5" stroke="#606060" stroke-width="1.0"/>
           <path id="arrow"
             d="M 11.500037,31.436501 C 11.940474,20.09759 22.043105,11.32322 32.158766,21.979434 L 37.068811,17.246167 C 37.068811,17.246167 37.088388,32 37.088388,32 L 22.160133,31.978069 C 22.160133,31.978069 26.997745,27.140456 26.997745,27.140456 C 18.528582,18.264221 13.291696,25.230495 11.500037,31.436501 z"
             style="fill:#404040;"/>
          </a>
         </g>
        </svg>
</svg>
