<?xml version="1.0" encoding="UTF-8" standalone="no"?>
<!DOCTYPE svg PUBLIC "-//W3C//DTD SVG 1.1//EN"
 "http://www.w3.org/Graphics/SVG/1.1/DTD/svg11.dtd">
<!-- Generated by graphviz version 2.26.3 (20100126.1600)
 -->
<!-- Title: Mezzanine::Physics::SimulationMonopolyWorkUnit Pages: 1 -->
<svg width="168pt" height="260pt"
 viewBox="0.00 0.00 168.00 260.00" xmlns="http://www.w3.org/2000/svg" xmlns:xlink="http://www.w3.org/1999/xlink">
<g id="graph1" class="graph" transform="scale(1 1) rotate(0) translate(4 256)">
<title>Mezzanine::Physics::SimulationMonopolyWorkUnit</title>
<polygon fill="white" stroke="white" points="-4,5 -4,-256 165,-256 165,5 -4,5"/>
<!-- Node1 -->
<g id="node1" class="node"><title>Node1</title>
<polygon fill="#bfbfbf" stroke="black" points="-0.5,-1 -0.5,-35 160.5,-35 160.5,-1 -0.5,-1"/>
<text text-anchor="start" x="7.5" y="-22" font-family="FreeSans" font-size="10.00">Mezzanine::Physics</text>
<text text-anchor="middle" x="80" y="-9" font-family="FreeSans" font-size="10.00">::SimulationMonopolyWorkUnit</text>
</g>
<!-- Node2 -->
<g id="node2" class="node"><title>Node2</title>
<a xlink:href="classMezzanine_1_1Threading_1_1MonopolyWorkUnit.xhtml" target="_top" xlink:title="A kind of workunit given exclusive runtime so it can consume time on multiple threads.">
<polygon fill="white" stroke="black" points="19.5,-73 19.5,-107 140.5,-107 140.5,-73 19.5,-73"/>
<text text-anchor="start" x="27.5" y="-94" font-family="FreeSans" font-size="10.00">Mezzanine::Threading</text>
<text text-anchor="middle" x="80" y="-81" font-family="FreeSans" font-size="10.00">::MonopolyWorkUnit</text>
</a>
</g>
<!-- Node2&#45;&gt;Node1 -->
<g id="edge2" class="edge"><title>Node2&#45;&gt;Node1</title>
<path fill="none" stroke="midnightblue" d="M80,-62.7193C80,-53.572 80,-43.6255 80,-35.4407"/>
<polygon fill="midnightblue" stroke="midnightblue" points="76.5001,-62.937 80,-72.937 83.5001,-62.937 76.5001,-62.937"/>
</g>
<!-- Node3 -->
<g id="node4" class="node"><title>Node3</title>
<a xlink:href="classMezzanine_1_1Threading_1_1DefaultWorkUnit.xhtml" target="_top" xlink:title="Default implementation of WorkUnit. This represents on piece of work through time.">
<polygon fill="white" stroke="black" points="19.5,-145 19.5,-179 140.5,-179 140.5,-145 19.5,-145"/>
<text text-anchor="start" x="27.5" y="-166" font-family="FreeSans" font-size="10.00">Mezzanine::Threading</text>
<text text-anchor="middle" x="80" y="-153" font-family="FreeSans" font-size="10.00">::DefaultWorkUnit</text>
</a>
</g>
<!-- Node3&#45;&gt;Node2 -->
<g id="edge4" class="edge"><title>Node3&#45;&gt;Node2</title>
<path fill="none" stroke="midnightblue" d="M80,-134.719C80,-125.572 80,-115.625 80,-107.441"/>
<polygon fill="midnightblue" stroke="midnightblue" points="76.5001,-134.937 80,-144.937 83.5001,-134.937 76.5001,-134.937"/>
</g>
<!-- Node4 -->
<g id="node6" class="node"><title>Node4</title>
<a xlink:href="classMezzanine_1_1Threading_1_1iWorkUnit.xhtml" target="_top" xlink:title="Interface of a WorkUnit. This represents on piece of work through time.">
<polygon fill="white" stroke="black" points="19.5,-217 19.5,-251 140.5,-251 140.5,-217 19.5,-217"/>
<text text-anchor="start" x="27.5" y="-238" font-family="FreeSans" font-size="10.00">Mezzanine::Threading</text>
<text text-anchor="middle" x="80" y="-225" font-family="FreeSans" font-size="10.00">::iWorkUnit</text>
</a>
</g>
<!-- Node4&#45;&gt;Node3 -->
<g id="edge6" class="edge"><title>Node4&#45;&gt;Node3</title>
<path fill="none" stroke="midnightblue" d="M80,-206.719C80,-197.572 80,-187.625 80,-179.441"/>
<polygon fill="midnightblue" stroke="midnightblue" points="76.5001,-206.937 80,-216.937 83.5001,-206.937 76.5001,-206.937"/>
</g>
</g>
</svg>
