<?xml version="1.0" encoding="UTF-8" standalone="no"?>
<!DOCTYPE svg PUBLIC "-//W3C//DTD SVG 1.1//EN"
 "http://www.w3.org/Graphics/SVG/1.1/DTD/svg11.dtd">
<!-- Generated by graphviz version 2.26.3 (20100126.1600)
 -->
<!-- Title: Mezzanine::Graphics::Bone Pages: 1 -->
<svg width="322pt" height="290pt"
 viewBox="0.00 0.00 322.00 290.00" xmlns="http://www.w3.org/2000/svg" xmlns:xlink="http://www.w3.org/1999/xlink">
<g id="graph1" class="graph" transform="scale(1 1) rotate(0) translate(4 286)">
<title>Mezzanine::Graphics::Bone</title>
<polygon fill="white" stroke="white" points="-4,5 -4,-286 319,-286 319,5 -4,5"/>
<!-- Node1 -->
<g id="node1" class="node"><title>Node1</title>
<polygon fill="#bfbfbf" stroke="black" points="193.5,-173 193.5,-207 302.5,-207 302.5,-173 193.5,-173"/>
<text text-anchor="start" x="201.5" y="-194" font-family="Helvetica,sans-Serif" font-size="10.00">Mezzanine::Graphics</text>
<text text-anchor="middle" x="248" y="-181" font-family="Helvetica,sans-Serif" font-size="10.00">::Bone</text>
</g>
<!-- Node4 -->
<g id="node6" class="node"><title>Node4</title>
<polygon fill="white" stroke="#bfbfbf" points="132,-93.5 132,-114.5 242,-114.5 242,-93.5 132,-93.5"/>
<text text-anchor="middle" x="187" y="-101.5" font-family="Helvetica,sans-Serif" font-size="10.00">std::vector&lt; Bone * &gt;</text>
</g>
<!-- Node1&#45;&gt;Node4 -->
<g id="edge8" class="edge"><title>Node1&#45;&gt;Node4</title>
<path fill="none" stroke="#9a32cd" stroke-dasharray="5,2" d="M228.841,-164.762C226.181,-161.169 223.503,-157.504 221,-154 211.481,-140.675 200.937,-125.023 194.153,-114.828"/>
<polygon fill="#9a32cd" stroke="#9a32cd" points="226.137,-166.991 234.927,-172.907 231.745,-162.801 226.137,-166.991"/>
<text text-anchor="middle" x="242.5" y="-144.5" font-family="Helvetica,sans-Serif" font-size="10.00"> elements</text>
</g>
<!-- Node2 -->
<g id="node2" class="node"><title>Node2</title>
<a xlink:href="classMezzanine_1_1TransformableChildObject.html" target="_top" xlink:title="This is an interface for all child 3D objects that can have their full transforms manipulated...">
<polygon fill="white" stroke="black" points="182,-247 182,-281 314,-281 314,-247 182,-247"/>
<text text-anchor="start" x="190" y="-268" font-family="Helvetica,sans-Serif" font-size="10.00">Mezzanine::Transformable</text>
<text text-anchor="middle" x="248" y="-255" font-family="Helvetica,sans-Serif" font-size="10.00">ChildObject</text>
</a>
</g>
<!-- Node2&#45;&gt;Node1 -->
<g id="edge2" class="edge"><title>Node2&#45;&gt;Node1</title>
<path fill="none" stroke="midnightblue" d="M248,-236.627C248,-226.725 248,-215.834 248,-207.07"/>
<polygon fill="midnightblue" stroke="midnightblue" points="244.5,-236.837 248,-246.837 251.5,-236.837 244.5,-236.837"/>
</g>
<!-- Node3 -->
<g id="node4" class="node"><title>Node3</title>
<a xlink:href="classMezzanine_1_1Graphics_1_1Skeleton.html" target="_top" xlink:title="This class encapsulates the Skeletal animation functionality of a Mesh. ">
<polygon fill="white" stroke="black" points="132.5,-1 132.5,-35 241.5,-35 241.5,-1 132.5,-1"/>
<text text-anchor="start" x="140.5" y="-22" font-family="Helvetica,sans-Serif" font-size="10.00">Mezzanine::Graphics</text>
<text text-anchor="middle" x="187" y="-9" font-family="Helvetica,sans-Serif" font-size="10.00">::Skeleton</text>
</a>
</g>
<!-- Node3&#45;&gt;Node1 -->
<g id="edge4" class="edge"><title>Node3&#45;&gt;Node1</title>
<path fill="none" stroke="#9a32cd" stroke-dasharray="5,2" d="M215.893,-42.1271C228.461,-54.0917 242.279,-69.5015 251,-86 251.818,-87.5478 268.942,-130.711 264,-154 262.637,-160.423 260.046,-167.091 257.34,-172.917"/>
<polygon fill="#9a32cd" stroke="#9a32cd" points="218.02,-39.3281 208.286,-35.1438 213.286,-44.4847 218.02,-39.3281"/>
<text text-anchor="middle" x="274.5" y="-101.5" font-family="Helvetica,sans-Serif" font-size="10.00"> Host</text>
</g>
<!-- Node4&#45;&gt;Node3 -->
<g id="edge6" class="edge"><title>Node4&#45;&gt;Node3</title>
<path fill="none" stroke="#9a32cd" stroke-dasharray="5,2" d="M187,-83.3098C187,-68.5851 187,-49.0331 187,-35.1709"/>
<polygon fill="#9a32cd" stroke="#9a32cd" points="183.5,-83.4547 187,-93.4547 190.5,-83.4547 183.5,-83.4547"/>
<text text-anchor="middle" x="202.5" y="-58.5" font-family="Helvetica,sans-Serif" font-size="10.00"> Bones</text>
</g>
<!-- Node5 -->
<g id="node9" class="node"><title>Node5</title>
<a xlink:href="classMezzanine_1_1Graphics_1_1InternalSkeletonData.html" target="_top" xlink:title="This class is used to store the internal structures needed by the Skeleton class. ...">
<polygon fill="white" stroke="black" points="0,-87 0,-121 114,-121 114,-87 0,-87"/>
<text text-anchor="start" x="8" y="-108" font-family="Helvetica,sans-Serif" font-size="10.00">Mezzanine::Graphics</text>
<text text-anchor="middle" x="57" y="-95" font-family="Helvetica,sans-Serif" font-size="10.00">::InternalSkeletonData</text>
</a>
</g>
<!-- Node5&#45;&gt;Node3 -->
<g id="edge10" class="edge"><title>Node5&#45;&gt;Node3</title>
<path fill="none" stroke="#9a32cd" stroke-dasharray="5,2" d="M91.3477,-81.2777C113.199,-66.8219 141.045,-48.4007 161.05,-35.1669"/>
<polygon fill="#9a32cd" stroke="#9a32cd" points="89.4041,-78.3668 82.995,-86.8033 93.2663,-84.205 89.4041,-78.3668"/>
<text text-anchor="middle" x="139.5" y="-58.5" font-family="Helvetica,sans-Serif" font-size="10.00"> ISD</text>
</g>
</g>
</svg>
