<?xml version="1.0" encoding="UTF-8" standalone="no"?>
<!DOCTYPE svg PUBLIC "-//W3C//DTD SVG 1.1//EN"
 "http://www.w3.org/Graphics/SVG/1.1/DTD/svg11.dtd">
<!-- Generated by graphviz version 2.26.3 (20100126.1600)
 -->
<!-- Title: Mezzanine::Physics::PlaneCollisionShape Pages: 1 -->
<svg width="120pt" height="188pt"
 viewBox="0.00 0.00 120.00 188.00" xmlns="http://www.w3.org/2000/svg" xmlns:xlink="http://www.w3.org/1999/xlink">
<g id="graph1" class="graph" transform="scale(1 1) rotate(0) translate(4 184)">
<title>Mezzanine::Physics::PlaneCollisionShape</title>
<polygon fill="white" stroke="white" points="-4,5 -4,-184 117,-184 117,5 -4,5"/>
<!-- Node1 -->
<g id="node1" class="node"><title>Node1</title>
<polygon fill="#bfbfbf" stroke="black" points="-0.5,-1 -0.5,-35 112.5,-35 112.5,-1 -0.5,-1"/>
<text text-anchor="start" x="7.5" y="-22" font-family="Helvetica,sans-Serif" font-size="10.00">Mezzanine::Physics</text>
<text text-anchor="middle" x="56" y="-9" font-family="Helvetica,sans-Serif" font-size="10.00">::PlaneCollisionShape</text>
</g>
<!-- Node2 -->
<g id="node2" class="node"><title>Node2</title>
<a xlink:href="classMezzanine_1_1Physics_1_1FieldCollisionShape.html" target="_top" xlink:title="This is the base class for all Field shapes. ">
<polygon fill="white" stroke="black" points="1.5,-73 1.5,-107 110.5,-107 110.5,-73 1.5,-73"/>
<text text-anchor="start" x="9.5" y="-94" font-family="Helvetica,sans-Serif" font-size="10.00">Mezzanine::Physics</text>
<text text-anchor="middle" x="56" y="-81" font-family="Helvetica,sans-Serif" font-size="10.00">::FieldCollisionShape</text>
</a>
</g>
<!-- Node2&#45;&gt;Node1 -->
<g id="edge2" class="edge"><title>Node2&#45;&gt;Node1</title>
<path fill="none" stroke="midnightblue" d="M56,-62.7193C56,-53.572 56,-43.6255 56,-35.4407"/>
<polygon fill="midnightblue" stroke="midnightblue" points="52.5001,-62.937 56,-72.937 59.5001,-62.937 52.5001,-62.937"/>
</g>
<!-- Node3 -->
<g id="node4" class="node"><title>Node3</title>
<a xlink:href="classMezzanine_1_1Physics_1_1CollisionShape.html" target="_top" xlink:title="This is the base class for all collision shapes. ">
<polygon fill="white" stroke="black" points="3.5,-145 3.5,-179 108.5,-179 108.5,-145 3.5,-145"/>
<text text-anchor="start" x="11.5" y="-166" font-family="Helvetica,sans-Serif" font-size="10.00">Mezzanine::Physics</text>
<text text-anchor="middle" x="56" y="-153" font-family="Helvetica,sans-Serif" font-size="10.00">::CollisionShape</text>
</a>
</g>
<!-- Node3&#45;&gt;Node2 -->
<g id="edge4" class="edge"><title>Node3&#45;&gt;Node2</title>
<path fill="none" stroke="midnightblue" d="M56,-134.719C56,-125.572 56,-115.625 56,-107.441"/>
<polygon fill="midnightblue" stroke="midnightblue" points="52.5001,-134.937 56,-144.937 59.5001,-134.937 52.5001,-134.937"/>
</g>
</g>
</svg>
