<?xml version="1.0" encoding="UTF-8" standalone="no"?>
<!DOCTYPE svg PUBLIC "-//W3C//DTD SVG 1.1//EN"
 "http://www.w3.org/Graphics/SVG/1.1/DTD/svg11.dtd">
<!-- Generated by graphviz version 2.26.3 (20100126.1600)
 -->
<!-- Title: Mezzanine::Entresol Pages: 1 -->
<svg width="114pt" height="112pt"
 viewBox="0.00 0.00 114.00 112.00" xmlns="http://www.w3.org/2000/svg" xmlns:xlink="http://www.w3.org/1999/xlink">
<g id="graph1" class="graph" transform="scale(1 1) rotate(0) translate(4 108)">
<title>Mezzanine::Entresol</title>
<polygon fill="white" stroke="white" points="-4,5 -4,-108 111,-108 111,5 -4,5"/>
<!-- Node1 -->
<g id="node1" class="node"><title>Node1</title>
<polygon fill="#bfbfbf" stroke="black" points="2.5,-83 2.5,-103 103.5,-103 103.5,-83 2.5,-83"/>
<text text-anchor="middle" x="53" y="-90" font-family="FreeSans" font-size="10.00">Mezzanine::Entresol</text>
</g>
<!-- Node2 -->
<g id="node2" class="node"><title>Node2</title>
<a xlink:href="classMezzanine_1_1Singleton.html" target="_top" xlink:title="Mezzanine::Singleton\l\&lt; Entresol \&gt;">
<polygon fill="white" stroke="black" points="-0.5,-1 -0.5,-33 106.5,-33 106.5,-1 -0.5,-1"/>
<text text-anchor="start" x="7.5" y="-20" font-family="FreeSans" font-size="10.00">Mezzanine::Singleton</text>
<text text-anchor="middle" x="53" y="-8" font-family="FreeSans" font-size="10.00">&lt; Entresol &gt;</text>
</a>
</g>
<!-- Node1&#45;&gt;Node2 -->
<g id="edge4" class="edge"><title>Node1&#45;&gt;Node2</title>
<path fill="none" stroke="#9a32cd" stroke-dasharray="5,2" d="M24.7406,-76.8409C16.6014,-69.9618 10.8947,-61.3625 15,-52 18.1696,-44.7715 23.6503,-38.3769 29.4787,-33.0969"/>
<polygon fill="#9a32cd" stroke="#9a32cd" points="22.9013,-79.8308 33.0485,-82.8779 27.0163,-74.168 22.9013,-79.8308"/>
<text text-anchor="middle" x="43" y="-55" font-family="FreeSans" font-size="10.00"> SingletonPtr</text>
</g>
<!-- Node2&#45;&gt;Node1 -->
<g id="edge2" class="edge"><title>Node2&#45;&gt;Node1</title>
<path fill="none" stroke="midnightblue" d="M72.5741,-42.1195C75.827,-49.077 77.4488,-56.7203 75,-64 72.6224,-71.0679 67.7625,-77.7815 63.2138,-82.9658"/>
<polygon fill="midnightblue" stroke="midnightblue" points="75.412,-40.0374 67.3564,-33.1556 69.3622,-43.5589 75.412,-40.0374"/>
</g>
</g>
</svg>
