<?xml version="1.0" encoding="UTF-8" standalone="no"?>
<!DOCTYPE svg PUBLIC "-//W3C//DTD SVG 1.1//EN"
 "http://www.w3.org/Graphics/SVG/1.1/DTD/svg11.dtd">
<!-- Generated by graphviz version 2.26.3 (20100126.1600)
 -->
<!-- Title: Mezzanine::UI::InsertTagToken Pages: 1 -->
<svg width="134pt" height="158pt"
 viewBox="0.00 0.00 134.00 158.00" xmlns="http://www.w3.org/2000/svg" xmlns:xlink="http://www.w3.org/1999/xlink">
<g id="graph1" class="graph" transform="scale(1 1) rotate(0) translate(4 154)">
<title>Mezzanine::UI::InsertTagToken</title>
<polygon fill="white" stroke="white" points="-4,5 -4,-154 131,-154 131,5 -4,5"/>
<!-- Node1 -->
<g id="node1" class="node"><title>Node1</title>
<polygon fill="#bfbfbf" stroke="black" points="2,-1 2,-33 124,-33 124,-1 2,-1"/>
<text text-anchor="start" x="10" y="-20" font-family="FreeSans" font-size="10.00">Mezzanine::UI::InsertTag</text>
<text text-anchor="middle" x="63" y="-8" font-family="FreeSans" font-size="10.00">Token</text>
</g>
<!-- Node2 -->
<g id="node2" class="node"><title>Node2</title>
<a xlink:href="classMezzanine_1_1UI_1_1TagToken.html" target="_top" xlink:title="This struct represents a markup tag segment from the source string. ">
<polygon fill="white" stroke="black" points="0.5,-71 0.5,-91 125.5,-91 125.5,-71 0.5,-71"/>
<text text-anchor="middle" x="63" y="-78" font-family="FreeSans" font-size="10.00">Mezzanine::UI::TagToken</text>
</a>
</g>
<!-- Node2&#45;&gt;Node1 -->
<g id="edge2" class="edge"><title>Node2&#45;&gt;Node1</title>
<path fill="none" stroke="midnightblue" d="M63,-60.4346C63,-51.5494 63,-41.3101 63,-33.0054"/>
<polygon fill="midnightblue" stroke="midnightblue" points="59.5001,-60.7173 63,-70.7173 66.5001,-60.7173 59.5001,-60.7173"/>
</g>
<!-- Node3 -->
<g id="node4" class="node"><title>Node3</title>
<a xlink:href="classMezzanine_1_1UI_1_1TextToken.html" target="_top" xlink:title="This class represents a normal text segment from the source string. ">
<polygon fill="white" stroke="black" points="-0.5,-129 -0.5,-149 126.5,-149 126.5,-129 -0.5,-129"/>
<text text-anchor="middle" x="63" y="-136" font-family="FreeSans" font-size="10.00">Mezzanine::UI::TextToken</text>
</a>
</g>
<!-- Node3&#45;&gt;Node2 -->
<g id="edge4" class="edge"><title>Node3&#45;&gt;Node2</title>
<path fill="none" stroke="midnightblue" d="M63,-118.89C63,-109.62 63,-99.0083 63,-91.3776"/>
<polygon fill="midnightblue" stroke="midnightblue" points="59.5001,-118.897 63,-128.897 66.5001,-118.897 59.5001,-118.897"/>
</g>
</g>
</svg>
