<?xml version="1.0" encoding="UTF-8" standalone="no"?>
<!DOCTYPE svg PUBLIC "-//W3C//DTD SVG 1.1//EN"
 "http://www.w3.org/Graphics/SVG/1.1/DTD/svg11.dtd">
<!-- Generated by graphviz version 2.26.3 (20100126.1600)
 -->
<!-- Title: Mezzanine::Physics::CapsuleCollisionShape Pages: 1 -->
<svg width="130pt" height="182pt"
 viewBox="0.00 0.00 130.00 182.00" xmlns="http://www.w3.org/2000/svg" xmlns:xlink="http://www.w3.org/1999/xlink">
<g id="graph1" class="graph" transform="scale(1 1) rotate(0) translate(4 178)">
<title>Mezzanine::Physics::CapsuleCollisionShape</title>
<polygon fill="white" stroke="white" points="-4,5 -4,-178 127,-178 127,5 -4,5"/>
<!-- Node1 -->
<g id="node1" class="node"><title>Node1</title>
<polygon fill="#bfbfbf" stroke="black" points="1.5,-1 1.5,-33 120.5,-33 120.5,-1 1.5,-1"/>
<text text-anchor="start" x="9.5" y="-20" font-family="FreeSans" font-size="10.00">Mezzanine::Physics</text>
<text text-anchor="middle" x="61" y="-8" font-family="FreeSans" font-size="10.00">::CapsuleCollisionShape</text>
</g>
<!-- Node2 -->
<g id="node2" class="node"><title>Node2</title>
<a xlink:href="classMezzanine_1_1Physics_1_1PrimitiveCollisionShape.html" target="_top" xlink:title="This is the base class for all Primitive shapes. ">
<polygon fill="white" stroke="black" points="0,-71 0,-103 122,-103 122,-71 0,-71"/>
<text text-anchor="start" x="8" y="-90" font-family="FreeSans" font-size="10.00">Mezzanine::Physics</text>
<text text-anchor="middle" x="61" y="-78" font-family="FreeSans" font-size="10.00">::PrimitiveCollisionShape</text>
</a>
</g>
<!-- Node2&#45;&gt;Node1 -->
<g id="edge2" class="edge"><title>Node2&#45;&gt;Node1</title>
<path fill="none" stroke="midnightblue" d="M61,-60.5079C61,-51.3027 61,-41.2615 61,-33.1473"/>
<polygon fill="midnightblue" stroke="midnightblue" points="57.5001,-60.7646 61,-70.7646 64.5001,-60.7647 57.5001,-60.7646"/>
</g>
<!-- Node3 -->
<g id="node4" class="node"><title>Node3</title>
<a xlink:href="classMezzanine_1_1Physics_1_1CollisionShape.html" target="_top" xlink:title="This is the base class for all collision shapes. ">
<polygon fill="white" stroke="black" points="11,-141 11,-173 111,-173 111,-141 11,-141"/>
<text text-anchor="start" x="19" y="-160" font-family="FreeSans" font-size="10.00">Mezzanine::Physics</text>
<text text-anchor="middle" x="61" y="-148" font-family="FreeSans" font-size="10.00">::CollisionShape</text>
</a>
</g>
<!-- Node3&#45;&gt;Node2 -->
<g id="edge4" class="edge"><title>Node3&#45;&gt;Node2</title>
<path fill="none" stroke="midnightblue" d="M61,-130.508C61,-121.303 61,-111.262 61,-103.147"/>
<polygon fill="midnightblue" stroke="midnightblue" points="57.5001,-130.765 61,-140.765 64.5001,-130.765 57.5001,-130.765"/>
</g>
</g>
</svg>
