<?xml version="1.0" encoding="UTF-8" standalone="no"?>
<!DOCTYPE svg PUBLIC "-//W3C//DTD SVG 1.1//EN"
 "http://www.w3.org/Graphics/SVG/1.1/DTD/svg11.dtd">
<!-- Generated by graphviz version 2.38.0 (20140413.2041)
 -->
<!-- Title: Mezzanine::ManagerBase Pages: 1 -->
<svg width="867pt" height="739pt"
 viewBox="0.00 0.00 867.00 739.00" xmlns="http://www.w3.org/2000/svg" xmlns:xlink="http://www.w3.org/1999/xlink">
<g id="graph0" class="graph" transform="scale(1 1) rotate(0) translate(4 735)">
<title>Mezzanine::ManagerBase</title>
<polygon fill="white" stroke="none" points="-4,4 -4,-735 863,-735 863,4 -4,4"/>
<!-- Node1 -->
<g id="node1" class="node"><title>Node1</title>
<polygon fill="#bfbfbf" stroke="black" points="0,-334.5 0,-353.5 130,-353.5 130,-334.5 0,-334.5"/>
<text text-anchor="middle" x="65" y="-341.5" font-family="Helvetica,sans-Serif" font-size="10.00">Mezzanine::ManagerBase</text>
</g>
<!-- Node2 -->
<g id="node2" class="node"><title>Node2</title>
<g id="a_node2"><a xlink:href="classMezzanine_1_1EntresolManager.html" target="_top" xlink:title="This is the base class for all managers that do no describe properties of a single world...">
<polygon fill="white" stroke="black" points="166,-487.5 166,-506.5 309,-506.5 309,-487.5 166,-487.5"/>
<text text-anchor="middle" x="237.5" y="-494.5" font-family="Helvetica,sans-Serif" font-size="10.00">Mezzanine::EntresolManager</text>
</a>
</g>
</g>
<!-- Node1&#45;&gt;Node2 -->
<g id="edge1" class="edge"><title>Node1&#45;&gt;Node2</title>
<path fill="none" stroke="midnightblue" d="M84.3835,-360.497C120.023,-392.478 197.496,-462 225.838,-487.433"/>
<polygon fill="midnightblue" stroke="midnightblue" points="86.4459,-357.645 76.6655,-353.571 81.7707,-362.855 86.4459,-357.645"/>
</g>
<!-- Node15 -->
<g id="node15" class="node"><title>Node15</title>
<g id="a_node15"><a xlink:href="classMezzanine_1_1WorldManager.html" target="_top" xlink:title="This is the base class for all managers that belong to a single world instance. ">
<polygon fill="white" stroke="black" points="171,-159.5 171,-178.5 304,-178.5 304,-159.5 171,-159.5"/>
<text text-anchor="middle" x="237.5" y="-166.5" font-family="Helvetica,sans-Serif" font-size="10.00">Mezzanine::WorldManager</text>
</a>
</g>
</g>
<!-- Node1&#45;&gt;Node15 -->
<g id="edge14" class="edge"><title>Node1&#45;&gt;Node15</title>
<path fill="none" stroke="midnightblue" d="M82.5599,-327.003C117.749,-290.885 199.028,-207.461 226.909,-178.844"/>
<polygon fill="midnightblue" stroke="midnightblue" points="79.8812,-324.737 75.4097,-334.342 84.895,-329.622 79.8812,-324.737"/>
</g>
<!-- Node3 -->
<g id="node3" class="node"><title>Node3</title>
<g id="a_node3"><a xlink:href="classMezzanine_1_1Audio_1_1AudioManager.html" target="_top" xlink:title="This is the base manager class for the Audio subsystem and it&#39;s operations. ">
<polygon fill="white" stroke="black" points="345,-711.5 345,-730.5 508,-730.5 508,-711.5 345,-711.5"/>
<text text-anchor="middle" x="426.5" y="-718.5" font-family="Helvetica,sans-Serif" font-size="10.00">Mezzanine::Audio::AudioManager</text>
</a>
</g>
</g>
<!-- Node2&#45;&gt;Node3 -->
<g id="edge2" class="edge"><title>Node2&#45;&gt;Node3</title>
<path fill="none" stroke="midnightblue" d="M242.797,-516.373C252.945,-557.393 282.394,-653.239 345,-702 349.985,-705.882 355.634,-708.992 361.572,-711.478"/>
<polygon fill="midnightblue" stroke="midnightblue" points="246.183,-515.482 240.482,-506.552 239.37,-517.088 246.183,-515.482"/>
</g>
<!-- Node4 -->
<g id="node4" class="node"><title>Node4</title>
<g id="a_node4"><a xlink:href="classMezzanine_1_1EventManager.html" target="_top" xlink:title="This is a container for Events and facilitates the transfer of data. ">
<polygon fill="white" stroke="black" points="360,-673.5 360,-692.5 493,-692.5 493,-673.5 360,-673.5"/>
<text text-anchor="middle" x="426.5" y="-680.5" font-family="Helvetica,sans-Serif" font-size="10.00">Mezzanine::EventManager</text>
</a>
</g>
</g>
<!-- Node2&#45;&gt;Node4 -->
<g id="edge3" class="edge"><title>Node2&#45;&gt;Node4</title>
<path fill="none" stroke="midnightblue" d="M245.208,-516.356C258.446,-551.559 291.386,-625.932 345,-664 350.503,-667.907 356.699,-671.02 363.147,-673.499"/>
<polygon fill="midnightblue" stroke="midnightblue" points="248.432,-514.979 241.731,-506.772 241.852,-517.367 248.432,-514.979"/>
</g>
<!-- Node5 -->
<g id="node5" class="node"><title>Node5</title>
<g id="a_node5"><a xlink:href="classMezzanine_1_1Graphics_1_1GraphicsManager.html" target="_top" xlink:title="This is intended to store basic graphics setting for the user. ">
<polygon fill="white" stroke="black" points="372,-624 372,-654 481,-654 481,-624 372,-624"/>
<text text-anchor="start" x="380" y="-642" font-family="Helvetica,sans-Serif" font-size="10.00">Mezzanine::Graphics</text>
<text text-anchor="middle" x="426.5" y="-631" font-family="Helvetica,sans-Serif" font-size="10.00">::GraphicsManager</text>
</a>
</g>
</g>
<!-- Node2&#45;&gt;Node5 -->
<g id="edge4" class="edge"><title>Node2&#45;&gt;Node5</title>
<path fill="none" stroke="midnightblue" d="M250.008,-515.054C267.446,-540.967 303.02,-588.495 345,-615 353.139,-620.139 362.432,-624.223 371.742,-627.455"/>
<polygon fill="midnightblue" stroke="midnightblue" points="252.844,-512.996 244.425,-506.564 246.995,-516.842 252.844,-512.996"/>
</g>
<!-- Node6 -->
<g id="node6" class="node"><title>Node6</title>
<g id="a_node6"><a xlink:href="classMezzanine_1_1Graphics_1_1MeshManager.html" target="_top" xlink:title="This manager handles the storage, generation, and query of of Graphics Meshes. ">
<polygon fill="white" stroke="black" points="372,-575 372,-605 481,-605 481,-575 372,-575"/>
<text text-anchor="start" x="380" y="-593" font-family="Helvetica,sans-Serif" font-size="10.00">Mezzanine::Graphics</text>
<text text-anchor="middle" x="426.5" y="-582" font-family="Helvetica,sans-Serif" font-size="10.00">::MeshManager</text>
</a>
</g>
</g>
<!-- Node2&#45;&gt;Node6 -->
<g id="edge5" class="edge"><title>Node2&#45;&gt;Node6</title>
<path fill="none" stroke="midnightblue" d="M258.646,-512.565C279.341,-527.934 312.968,-551.22 345,-566 353.475,-569.911 362.743,-573.366 371.879,-576.349"/>
<polygon fill="midnightblue" stroke="midnightblue" points="260.704,-509.734 250.611,-506.512 256.492,-515.325 260.704,-509.734"/>
</g>
<!-- Node7 -->
<g id="node7" class="node"><title>Node7</title>
<g id="a_node7"><a xlink:href="classMezzanine_1_1Graphics_1_1TextureManager.html" target="_top" xlink:title="This manager handles the storage and query of of Graphics Textures. ">
<polygon fill="white" stroke="black" points="372,-526 372,-556 481,-556 481,-526 372,-526"/>
<text text-anchor="start" x="380" y="-544" font-family="Helvetica,sans-Serif" font-size="10.00">Mezzanine::Graphics</text>
<text text-anchor="middle" x="426.5" y="-533" font-family="Helvetica,sans-Serif" font-size="10.00">::TextureManager</text>
</a>
</g>
</g>
<!-- Node2&#45;&gt;Node7 -->
<g id="edge6" class="edge"><title>Node2&#45;&gt;Node7</title>
<path fill="none" stroke="midnightblue" d="M288.972,-508.876C314.618,-514.91 345.786,-522.244 371.864,-528.38"/>
<polygon fill="midnightblue" stroke="midnightblue" points="289.612,-505.431 279.076,-506.547 288.009,-512.245 289.612,-505.431"/>
</g>
<!-- Node8 -->
<g id="node8" class="node"><title>Node8</title>
<g id="a_node8"><a xlink:href="classMezzanine_1_1Input_1_1InputManager.html" target="_top" xlink:title="This is the manager responsible for the handling of input devices and events. ">
<polygon fill="white" stroke="black" points="348,-487.5 348,-506.5 505,-506.5 505,-487.5 348,-487.5"/>
<text text-anchor="middle" x="426.5" y="-494.5" font-family="Helvetica,sans-Serif" font-size="10.00">Mezzanine::Input::InputManager</text>
</a>
</g>
</g>
<!-- Node2&#45;&gt;Node8 -->
<g id="edge7" class="edge"><title>Node2&#45;&gt;Node8</title>
<path fill="none" stroke="midnightblue" d="M319.358,-497C328.803,-497 338.423,-497 347.824,-497"/>
<polygon fill="midnightblue" stroke="midnightblue" points="319.197,-493.5 309.197,-497 319.197,-500.5 319.197,-493.5"/>
</g>
<!-- Node9 -->
<g id="node9" class="node"><title>Node9</title>
<g id="a_node9"><a xlink:href="classMezzanine_1_1Physics_1_1CollisionShapeManager.html" target="_top" xlink:title="This manager is for the storage of all shapes and creation of mesh shapes. ">
<polygon fill="white" stroke="black" points="364,-438 364,-468 489,-468 489,-438 364,-438"/>
<text text-anchor="start" x="372" y="-456" font-family="Helvetica,sans-Serif" font-size="10.00">Mezzanine::Physics</text>
<text text-anchor="middle" x="426.5" y="-445" font-family="Helvetica,sans-Serif" font-size="10.00">::CollisionShapeManager</text>
</a>
</g>
</g>
<!-- Node2&#45;&gt;Node9 -->
<g id="edge8" class="edge"><title>Node2&#45;&gt;Node9</title>
<path fill="none" stroke="midnightblue" d="M288.972,-485.124C311.977,-479.711 339.426,-473.253 363.658,-467.551"/>
<polygon fill="midnightblue" stroke="midnightblue" points="288.009,-481.755 279.076,-487.453 289.612,-488.569 288.009,-481.755"/>
</g>
<!-- Node10 -->
<g id="node10" class="node"><title>Node10</title>
<g id="a_node10"><a xlink:href="classMezzanine_1_1Resource_1_1ResourceManager.html" target="_top" xlink:title="This is the manager responsible for the loading and unloading of files. ">
<polygon fill="white" stroke="black" points="370.5,-389 370.5,-419 482.5,-419 482.5,-389 370.5,-389"/>
<text text-anchor="start" x="378.5" y="-407" font-family="Helvetica,sans-Serif" font-size="10.00">Mezzanine::Resource</text>
<text text-anchor="middle" x="426.5" y="-396" font-family="Helvetica,sans-Serif" font-size="10.00">::ResourceManager</text>
</a>
</g>
</g>
<!-- Node2&#45;&gt;Node10 -->
<g id="edge9" class="edge"><title>Node2&#45;&gt;Node10</title>
<path fill="none" stroke="midnightblue" d="M259.059,-481.508C279.837,-466.434 313.314,-443.712 345,-429 352.964,-425.302 361.617,-421.965 370.198,-419.021"/>
<polygon fill="midnightblue" stroke="midnightblue" points="256.957,-478.71 250.974,-487.454 261.104,-484.349 256.957,-478.71"/>
</g>
<!-- Node11 -->
<g id="node11" class="node"><title>Node11</title>
<g id="a_node11"><a xlink:href="classMezzanine_1_1Scripting_1_1iScriptingManager.html" target="_top" xlink:title="What a scripting manager should look like. ">
<polygon fill="white" stroke="black" points="372.5,-340 372.5,-370 480.5,-370 480.5,-340 372.5,-340"/>
<text text-anchor="start" x="380.5" y="-358" font-family="Helvetica,sans-Serif" font-size="10.00">Mezzanine::Scripting</text>
<text text-anchor="middle" x="426.5" y="-347" font-family="Helvetica,sans-Serif" font-size="10.00">::iScriptingManager</text>
</a>
</g>
</g>
<!-- Node2&#45;&gt;Node11 -->
<g id="edge10" class="edge"><title>Node2&#45;&gt;Node11</title>
<path fill="none" stroke="midnightblue" d="M250.346,-478.784C267.972,-453.089 303.516,-406.399 345,-380 353.272,-374.736 362.728,-370.515 372.182,-367.152"/>
<polygon fill="midnightblue" stroke="midnightblue" points="247.349,-476.969 244.685,-487.224 253.162,-480.868 247.349,-476.969"/>
</g>
<!-- Node14 -->
<g id="node14" class="node"><title>Node14</title>
<g id="a_node14"><a xlink:href="classMezzanine_1_1UI_1_1UIManager.html" target="_top" xlink:title="This class is responsible for any and all user interactions with the User interface/HUD. ">
<polygon fill="white" stroke="black" points="359.5,-301.5 359.5,-320.5 493.5,-320.5 493.5,-301.5 359.5,-301.5"/>
<text text-anchor="middle" x="426.5" y="-308.5" font-family="Helvetica,sans-Serif" font-size="10.00">Mezzanine::UI::UIManager</text>
</a>
</g>
</g>
<!-- Node2&#45;&gt;Node14 -->
<g id="edge13" class="edge"><title>Node2&#45;&gt;Node14</title>
<path fill="none" stroke="midnightblue" d="M245.208,-477.644C258.446,-442.441 291.386,-368.068 345,-330 350.503,-326.093 356.699,-322.98 363.147,-320.501"/>
<polygon fill="midnightblue" stroke="midnightblue" points="241.852,-476.633 241.731,-487.228 248.432,-479.021 241.852,-476.633"/>
</g>
<!-- Node12 -->
<g id="node12" class="node"><title>Node12</title>
<g id="a_node12"><a xlink:href="classMezzanine_1_1Scripting_1_1iScriptCompilationManager.html" target="_top" xlink:title="What a scripting manager should look like. ">
<polygon fill="white" stroke="black" points="544,-340 544,-370 684,-370 684,-340 544,-340"/>
<text text-anchor="start" x="552" y="-358" font-family="Helvetica,sans-Serif" font-size="10.00">Mezzanine::Scripting</text>
<text text-anchor="middle" x="614" y="-347" font-family="Helvetica,sans-Serif" font-size="10.00">::iScriptCompilationManager</text>
</a>
</g>
</g>
<!-- Node11&#45;&gt;Node12 -->
<g id="edge11" class="edge"><title>Node11&#45;&gt;Node12</title>
<path fill="none" stroke="midnightblue" d="M491.051,-355C508.085,-355 526.583,-355 543.902,-355"/>
<polygon fill="midnightblue" stroke="midnightblue" points="490.657,-351.5 480.657,-355 490.657,-358.5 490.657,-351.5"/>
</g>
<!-- Node13 -->
<g id="node13" class="node"><title>Node13</title>
<g id="a_node13"><a xlink:href="classMezzanine_1_1Scripting_1_1Lua_1_1Lua51ScriptingEngine.html" target="_top" xlink:title="The workhorse of the Lua scripting system. All scripts come here to be executed. ">
<polygon fill="white" stroke="black" points="720,-340 720,-370 859,-370 859,-340 720,-340"/>
<text text-anchor="start" x="728" y="-358" font-family="Helvetica,sans-Serif" font-size="10.00">Mezzanine::Scripting</text>
<text text-anchor="middle" x="789.5" y="-347" font-family="Helvetica,sans-Serif" font-size="10.00">::Lua::Lua51ScriptingEngine</text>
</a>
</g>
</g>
<!-- Node12&#45;&gt;Node13 -->
<g id="edge12" class="edge"><title>Node12&#45;&gt;Node13</title>
<path fill="none" stroke="midnightblue" d="M694.125,-355C702.747,-355 711.47,-355 719.951,-355"/>
<polygon fill="midnightblue" stroke="midnightblue" points="694.07,-351.5 684.07,-355 694.07,-358.5 694.07,-351.5"/>
</g>
<!-- Node16 -->
<g id="node16" class="node"><title>Node16</title>
<g id="a_node16"><a xlink:href="classMezzanine_1_1ActorManager.html" target="_top" xlink:title="A manager responsible for the storage and management of all actors that exist in a world...">
<polygon fill="white" stroke="black" points="361,-263.5 361,-282.5 492,-282.5 492,-263.5 361,-263.5"/>
<text text-anchor="middle" x="426.5" y="-270.5" font-family="Helvetica,sans-Serif" font-size="10.00">Mezzanine::ActorManager</text>
</a>
</g>
</g>
<!-- Node15&#45;&gt;Node16 -->
<g id="edge15" class="edge"><title>Node15&#45;&gt;Node16</title>
<path fill="none" stroke="midnightblue" d="M254.67,-185.806C274.253,-205.164 309.101,-236.539 345,-254 352.877,-257.831 361.571,-260.915 370.245,-263.391"/>
<polygon fill="midnightblue" stroke="midnightblue" points="257.008,-183.193 247.482,-178.556 252.038,-188.122 257.008,-183.193"/>
</g>
<!-- Node17 -->
<g id="node17" class="node"><title>Node17</title>
<g id="a_node17"><a xlink:href="classMezzanine_1_1AreaEffectManager.html" target="_top" xlink:title="A manager responsible for the storage and management of all areaeffects in use. ">
<polygon fill="white" stroke="black" points="349.5,-225.5 349.5,-244.5 503.5,-244.5 503.5,-225.5 349.5,-225.5"/>
<text text-anchor="middle" x="426.5" y="-232.5" font-family="Helvetica,sans-Serif" font-size="10.00">Mezzanine::AreaEffectManager</text>
</a>
</g>
</g>
<!-- Node15&#45;&gt;Node17 -->
<g id="edge16" class="edge"><title>Node15&#45;&gt;Node17</title>
<path fill="none" stroke="midnightblue" d="M267.219,-182.935C288.371,-192.819 318.027,-205.893 345,-215 356.734,-218.962 369.669,-222.519 381.673,-225.496"/>
<polygon fill="midnightblue" stroke="midnightblue" points="268.676,-179.752 258.139,-178.644 265.685,-186.081 268.676,-179.752"/>
</g>
<!-- Node18 -->
<g id="node18" class="node"><title>Node18</title>
<g id="a_node18"><a xlink:href="classMezzanine_1_1Audio_1_1SoundScapeManager.html" target="_top" xlink:title="This is the base manager class for audio being played in a 3D environment. ">
<polygon fill="white" stroke="black" points="348.5,-176 348.5,-206 504.5,-206 504.5,-176 348.5,-176"/>
<text text-anchor="start" x="356.5" y="-194" font-family="Helvetica,sans-Serif" font-size="10.00">Mezzanine::Audio::SoundScape</text>
<text text-anchor="middle" x="426.5" y="-183" font-family="Helvetica,sans-Serif" font-size="10.00">Manager</text>
</a>
</g>
</g>
<!-- Node15&#45;&gt;Node18 -->
<g id="edge17" class="edge"><title>Node15&#45;&gt;Node18</title>
<path fill="none" stroke="midnightblue" d="M314.368,-177.926C325.606,-179.248 337.196,-180.611 348.457,-181.936"/>
<polygon fill="midnightblue" stroke="midnightblue" points="314.507,-174.418 304.166,-176.725 313.689,-181.37 314.507,-174.418"/>
</g>
<!-- Node19 -->
<g id="node19" class="node"><title>Node19</title>
<g id="a_node19"><a xlink:href="classMezzanine_1_1DebrisManager.html" target="_top" xlink:title="A manager responsible for the storage and management of all Debris that exist in a world...">
<polygon fill="white" stroke="black" points="358.5,-137.5 358.5,-156.5 494.5,-156.5 494.5,-137.5 358.5,-137.5"/>
<text text-anchor="middle" x="426.5" y="-144.5" font-family="Helvetica,sans-Serif" font-size="10.00">Mezzanine::DebrisManager</text>
</a>
</g>
</g>
<!-- Node15&#45;&gt;Node19 -->
<g id="edge18" class="edge"><title>Node15&#45;&gt;Node19</title>
<path fill="none" stroke="midnightblue" d="M314.186,-160.096C328.825,-158.374 344.069,-156.58 358.41,-154.893"/>
<polygon fill="midnightblue" stroke="midnightblue" points="313.689,-156.63 304.166,-161.275 314.507,-163.582 313.689,-156.63"/>
</g>
<!-- Node20 -->
<g id="node20" class="node"><title>Node20</title>
<g id="a_node20"><a xlink:href="classMezzanine_1_1Graphics_1_1SceneManager.html" target="_top" xlink:title="This class contains utilities and functions to allow the manipulation of the Graphical scene...">
<polygon fill="white" stroke="black" points="372,-88 372,-118 481,-118 481,-88 372,-88"/>
<text text-anchor="start" x="380" y="-106" font-family="Helvetica,sans-Serif" font-size="10.00">Mezzanine::Graphics</text>
<text text-anchor="middle" x="426.5" y="-95" font-family="Helvetica,sans-Serif" font-size="10.00">::SceneManager</text>
</a>
</g>
</g>
<!-- Node15&#45;&gt;Node20 -->
<g id="edge19" class="edge"><title>Node15&#45;&gt;Node20</title>
<path fill="none" stroke="midnightblue" d="M271.419,-155.678C292.358,-147.366 320.119,-136.642 345,-128 354.677,-124.639 365.08,-121.247 375.09,-118.092"/>
<polygon fill="midnightblue" stroke="midnightblue" points="270.012,-152.471 262.022,-159.428 272.607,-158.972 270.012,-152.471"/>
</g>
<!-- Node21 -->
<g id="node21" class="node"><title>Node21</title>
<g id="a_node21"><a xlink:href="classMezzanine_1_1Physics_1_1PhysicsManager.html" target="_top" xlink:title="This is simply a place for storing all the Physics Related functions. ">
<polygon fill="white" stroke="black" points="374,-39 374,-69 479,-69 479,-39 374,-39"/>
<text text-anchor="start" x="382" y="-57" font-family="Helvetica,sans-Serif" font-size="10.00">Mezzanine::Physics</text>
<text text-anchor="middle" x="426.5" y="-46" font-family="Helvetica,sans-Serif" font-size="10.00">::PhysicsManager</text>
</a>
</g>
</g>
<!-- Node15&#45;&gt;Node21 -->
<g id="edge20" class="edge"><title>Node15&#45;&gt;Node21</title>
<path fill="none" stroke="midnightblue" d="M254.056,-151.919C273.479,-131.559 308.604,-97.8082 345,-78 353.967,-73.12 364.048,-69.1143 373.965,-65.8697"/>
<polygon fill="midnightblue" stroke="midnightblue" points="251.466,-149.564 247.185,-159.256 256.575,-154.35 251.466,-149.564"/>
</g>
<!-- Node22 -->
<g id="node22" class="node"><title>Node22</title>
<g id="a_node22"><a xlink:href="classMezzanine_1_1TerrainManager.html" target="_top" xlink:title="This is manager for terrains and their functions. ">
<polygon fill="white" stroke="black" points="358,-0.5 358,-19.5 495,-19.5 495,-0.5 358,-0.5"/>
<text text-anchor="middle" x="426.5" y="-7.5" font-family="Helvetica,sans-Serif" font-size="10.00">Mezzanine::TerrainManager</text>
</a>
</g>
</g>
<!-- Node15&#45;&gt;Node22 -->
<g id="edge21" class="edge"><title>Node15&#45;&gt;Node22</title>
<path fill="none" stroke="midnightblue" d="M247.355,-150.251C262.739,-119.813 297.373,-59.941 345,-29 351.021,-25.0886 357.761,-21.9802 364.709,-19.5105"/>
<polygon fill="midnightblue" stroke="midnightblue" points="244.148,-148.842 242.885,-159.361 250.432,-151.926 244.148,-148.842"/>
</g>
</g>
</svg>
