<?xml version="1.0" encoding="UTF-8" standalone="no"?>
<!DOCTYPE svg PUBLIC "-//W3C//DTD SVG 1.1//EN"
 "http://www.w3.org/Graphics/SVG/1.1/DTD/svg11.dtd">
<!-- Generated by graphviz version 2.26.3 (20100126.1600)
 -->
<!-- Title: Mezzanine::Ray Pages: 1 -->
<svg width="109pt" height="112pt"
 viewBox="0.00 0.00 109.00 112.00" xmlns="http://www.w3.org/2000/svg" xmlns:xlink="http://www.w3.org/1999/xlink">
<g id="graph1" class="graph" transform="scale(1 1) rotate(0) translate(4 108)">
<title>Mezzanine::Ray</title>
<polygon fill="white" stroke="white" points="-4,5 -4,-108 106,-108 106,5 -4,5"/>
<!-- Node1 -->
<g id="node1" class="node"><title>Node1</title>
<polygon fill="#bfbfbf" stroke="black" points="8.5,-1 8.5,-21 91.5,-21 91.5,-1 8.5,-1"/>
<text text-anchor="middle" x="50" y="-8" font-family="FreeSans" font-size="10.00">Mezzanine::Ray</text>
</g>
<!-- Node2 -->
<g id="node2" class="node"><title>Node2</title>
<a xlink:href="classMezzanine_1_1Vector3.html" target="_top" xlink:title="This is used to represent a point in space, or a vector through space. ">
<polygon fill="white" stroke="black" points="0,-83 0,-103 100,-103 100,-83 0,-83"/>
<text text-anchor="middle" x="50" y="-90" font-family="FreeSans" font-size="10.00">Mezzanine::Vector3</text>
</a>
</g>
<!-- Node2&#45;&gt;Node1 -->
<g id="edge2" class="edge"><title>Node2&#45;&gt;Node1</title>
<path fill="none" stroke="#9a32cd" stroke-dasharray="5,2" d="M50,-72.7501C50,-56.3611 50,-33.9652 50,-21.1371"/>
<polygon fill="#9a32cd" stroke="#9a32cd" points="46.5001,-72.9452 50,-82.9452 53.5001,-72.9452 46.5001,-72.9452"/>
<text text-anchor="middle" x="75.5" y="-55" font-family="FreeSans" font-size="10.00"> Destination</text>
<text text-anchor="middle" x="75.5" y="-43" font-family="FreeSans" font-size="10.00">Origin</text>
</g>
</g>
</svg>
