<?xml version="1.0" encoding="UTF-8" standalone="no"?>
<!DOCTYPE svg PUBLIC "-//W3C//DTD SVG 1.1//EN"
 "http://www.w3.org/Graphics/SVG/1.1/DTD/svg11.dtd">
<!-- Generated by graphviz version 2.26.3 (20100126.1600)
 -->
<!-- Title: Mezzanine::IOException Pages: 1 -->
<svg width="832pt" height="594pt"
 viewBox="0.00 0.00 832.00 594.00" xmlns="http://www.w3.org/2000/svg" xmlns:xlink="http://www.w3.org/1999/xlink">
<g id="graph1" class="graph" transform="scale(1 1) rotate(0) translate(4 590)">
<title>Mezzanine::IOException</title>
<polygon fill="white" stroke="white" points="-4,5 -4,-590 829,-590 829,5 -4,5"/>
<!-- Node1 -->
<g id="node1" class="node"><title>Node1</title>
<polygon fill="#bfbfbf" stroke="black" points="276,-247.5 276,-268.5 406,-268.5 406,-247.5 276,-247.5"/>
<text text-anchor="middle" x="341" y="-255.5" font-family="FreeSans" font-size="10.00">Mezzanine::IOException</text>
</g>
<!-- Node4 -->
<g id="node7" class="node"><title>Node4</title>
<a xlink:href="classMezzanine_1_1DirectoryException.html" target="_top" xlink:title="Thrown when there is an unknown issue with a file.">
<polygon fill="white" stroke="black" points="442.5,-454.5 442.5,-475.5 605.5,-475.5 605.5,-454.5 442.5,-454.5"/>
<text text-anchor="middle" x="524" y="-462.5" font-family="FreeSans" font-size="10.00">Mezzanine::DirectoryException</text>
</a>
</g>
<!-- Node1&#45;&gt;Node4 -->
<g id="edge6" class="edge"><title>Node1&#45;&gt;Node4</title>
<path fill="none" stroke="midnightblue" d="M357.001,-276.1C394.146,-318.115 485.288,-421.211 514.692,-454.471"/>
<polygon fill="midnightblue" stroke="midnightblue" points="359.572,-273.724 350.327,-268.55 354.328,-278.36 359.572,-273.724"/>
</g>
<!-- Node9 -->
<g id="node17" class="node"><title>Node9</title>
<a xlink:href="classMezzanine_1_1FileException.html" target="_top" xlink:title="Thrown when there is an unknown issue with a file.">
<polygon fill="white" stroke="black" points="456.5,-287.5 456.5,-308.5 591.5,-308.5 591.5,-287.5 456.5,-287.5"/>
<text text-anchor="middle" x="524" y="-295.5" font-family="FreeSans" font-size="10.00">Mezzanine::FileException</text>
</a>
</g>
<!-- Node1&#45;&gt;Node9 -->
<g id="edge16" class="edge"><title>Node1&#45;&gt;Node9</title>
<path fill="none" stroke="midnightblue" d="M399.076,-270.694C423.833,-276.106 452.375,-282.344 475.923,-287.491"/>
<polygon fill="midnightblue" stroke="midnightblue" points="399.598,-267.226 389.081,-268.51 398.103,-274.064 399.598,-267.226"/>
</g>
<!-- Node14 -->
<g id="node27" class="node"><title>Node14</title>
<a xlink:href="classMezzanine_1_1IOReadException.html" target="_top" xlink:title="Thrown when a read is happening but something has prevented the underlying code from knowing what was...">
<polygon fill="white" stroke="black" points="447.5,-247.5 447.5,-268.5 600.5,-268.5 600.5,-247.5 447.5,-247.5"/>
<text text-anchor="middle" x="524" y="-255.5" font-family="FreeSans" font-size="10.00">Mezzanine::IOReadException</text>
</a>
</g>
<!-- Node1&#45;&gt;Node14 -->
<g id="edge26" class="edge"><title>Node1&#45;&gt;Node14</title>
<path fill="none" stroke="midnightblue" d="M416.185,-258C426.45,-258 436.999,-258 447.29,-258"/>
<polygon fill="midnightblue" stroke="midnightblue" points="416.034,-254.5 406.034,-258 416.034,-261.5 416.034,-254.5"/>
</g>
<!-- Node15 -->
<g id="node29" class="node"><title>Node15</title>
<a xlink:href="classMezzanine_1_1IOWriteException.html" target="_top" xlink:title="Thrown when a write is happening but something has prevented the underlying code from knowing what wa...">
<polygon fill="white" stroke="black" points="447.5,-207.5 447.5,-228.5 600.5,-228.5 600.5,-207.5 447.5,-207.5"/>
<text text-anchor="middle" x="524" y="-215.5" font-family="FreeSans" font-size="10.00">Mezzanine::IOWriteException</text>
</a>
</g>
<!-- Node1&#45;&gt;Node15 -->
<g id="edge28" class="edge"><title>Node1&#45;&gt;Node15</title>
<path fill="none" stroke="midnightblue" d="M399.076,-245.306C423.833,-239.894 452.375,-233.656 475.923,-228.509"/>
<polygon fill="midnightblue" stroke="midnightblue" points="398.103,-241.936 389.081,-247.49 399.598,-248.774 398.103,-241.936"/>
</g>
<!-- Node16 -->
<g id="node31" class="node"><title>Node16</title>
<a xlink:href="classMezzanine_1_1NetworkException.html" target="_top" xlink:title="Thrown when something unknown causes network IO to fail.">
<polygon fill="white" stroke="black" points="444.5,-103.5 444.5,-124.5 603.5,-124.5 603.5,-103.5 444.5,-103.5"/>
<text text-anchor="middle" x="524" y="-111.5" font-family="FreeSans" font-size="10.00">Mezzanine::NetworkException</text>
</a>
</g>
<!-- Node1&#45;&gt;Node16 -->
<g id="edge30" class="edge"><title>Node1&#45;&gt;Node16</title>
<path fill="none" stroke="midnightblue" d="M362.366,-241.188C400.455,-211.216 479.041,-149.377 510.524,-124.604"/>
<polygon fill="midnightblue" stroke="midnightblue" points="360.151,-238.477 354.456,-247.411 364.48,-243.978 360.151,-238.477"/>
</g>
<!-- Node2 -->
<g id="node2" class="node"><title>Node2</title>
<a xlink:href="classMezzanine_1_1Exception.html" target="_top" xlink:title="This is the exception thrown by most Mezzanine system that can throw exceptions.">
<polygon fill="white" stroke="black" points="120,-247.5 120,-268.5 240,-268.5 240,-247.5 120,-247.5"/>
<text text-anchor="middle" x="180" y="-255.5" font-family="FreeSans" font-size="10.00">Mezzanine::Exception</text>
</a>
</g>
<!-- Node2&#45;&gt;Node1 -->
<g id="edge2" class="edge"><title>Node2&#45;&gt;Node1</title>
<path fill="none" stroke="midnightblue" d="M250.591,-258C259.02,-258 267.595,-258 275.941,-258"/>
<polygon fill="midnightblue" stroke="midnightblue" points="250.409,-254.5 240.409,-258 250.408,-261.5 250.409,-254.5"/>
</g>
<!-- Node3 -->
<g id="node4" class="node"><title>Node3</title>
<a xlink:title="STL class.">
<polygon fill="white" stroke="#bfbfbf" points="0,-247.5 0,-268.5 84,-268.5 84,-247.5 0,-247.5"/>
<text text-anchor="middle" x="42" y="-255.5" font-family="FreeSans" font-size="10.00">std::exception</text>
</a>
</g>
<!-- Node3&#45;&gt;Node2 -->
<g id="edge4" class="edge"><title>Node3&#45;&gt;Node2</title>
<path fill="none" stroke="midnightblue" d="M94.162,-258C102.539,-258 111.27,-258 119.816,-258"/>
<polygon fill="midnightblue" stroke="midnightblue" points="94.1544,-254.5 84.1544,-258 94.1544,-261.5 94.1544,-254.5"/>
</g>
<!-- Node5 -->
<g id="node9" class="node"><title>Node5</title>
<a xlink:href="classMezzanine_1_1DirectoryNotFoundException.html" target="_top" xlink:title="Thrown when a directory was expected to be there, but was not.">
<polygon fill="white" stroke="black" points="651.5,-552 651.5,-586 814.5,-586 814.5,-552 651.5,-552"/>
<text text-anchor="start" x="659.5" y="-573" font-family="FreeSans" font-size="10.00">Mezzanine::DirectoryNotFound</text>
<text text-anchor="middle" x="733" y="-560" font-family="FreeSans" font-size="10.00">Exception</text>
</a>
</g>
<!-- Node4&#45;&gt;Node5 -->
<g id="edge8" class="edge"><title>Node4&#45;&gt;Node5</title>
<path fill="none" stroke="midnightblue" d="M544.941,-481.729C567.668,-499.171 605.601,-526.254 642,-543 649.165,-546.296 656.842,-549.271 664.588,-551.928"/>
<polygon fill="midnightblue" stroke="midnightblue" points="547.052,-478.936 537.01,-475.558 542.753,-484.461 547.052,-478.936"/>
</g>
<!-- Node6 -->
<g id="node11" class="node"><title>Node6</title>
<a xlink:href="classMezzanine_1_1DirectoryPermissionException.html" target="_top" xlink:title="Thrown when permission is denied to a directory.">
<polygon fill="white" stroke="black" points="648.5,-500 648.5,-534 817.5,-534 817.5,-500 648.5,-500"/>
<text text-anchor="start" x="656.5" y="-521" font-family="FreeSans" font-size="10.00">Mezzanine::DirectoryPermission</text>
<text text-anchor="middle" x="733" y="-508" font-family="FreeSans" font-size="10.00">Exception</text>
</a>
</g>
<!-- Node4&#45;&gt;Node6 -->
<g id="edge10" class="edge"><title>Node4&#45;&gt;Node6</title>
<path fill="none" stroke="midnightblue" d="M576.204,-477.989C602.899,-484.63 635.73,-492.799 664.439,-499.942"/>
<polygon fill="midnightblue" stroke="midnightblue" points="576.843,-474.541 566.294,-475.523 575.153,-481.334 576.843,-474.541"/>
</g>
<!-- Node7 -->
<g id="node13" class="node"><title>Node7</title>
<a xlink:href="classMezzanine_1_1DirectoryReadException.html" target="_top" xlink:title="Thrown when a directory could be read and it wasn&#39;t a permission issue.">
<polygon fill="white" stroke="black" points="663,-448 663,-482 803,-482 803,-448 663,-448"/>
<text text-anchor="start" x="671" y="-469" font-family="FreeSans" font-size="10.00">Mezzanine::DirectoryRead</text>
<text text-anchor="middle" x="733" y="-456" font-family="FreeSans" font-size="10.00">Exception</text>
</a>
</g>
<!-- Node4&#45;&gt;Node7 -->
<g id="edge12" class="edge"><title>Node4&#45;&gt;Node7</title>
<path fill="none" stroke="midnightblue" d="M615.972,-465C631.706,-465 647.825,-465 662.874,-465"/>
<polygon fill="midnightblue" stroke="midnightblue" points="615.703,-461.5 605.703,-465 615.703,-468.5 615.703,-461.5"/>
</g>
<!-- Node8 -->
<g id="node15" class="node"><title>Node8</title>
<a xlink:href="classMezzanine_1_1DirectoryWriteException.html" target="_top" xlink:title="Thrown when a directory could be written to and it wasn&#39;t a permission issue.">
<polygon fill="white" stroke="black" points="663,-396 663,-430 803,-430 803,-396 663,-396"/>
<text text-anchor="start" x="671" y="-417" font-family="FreeSans" font-size="10.00">Mezzanine::DirectoryWrite</text>
<text text-anchor="middle" x="733" y="-404" font-family="FreeSans" font-size="10.00">Exception</text>
</a>
</g>
<!-- Node4&#45;&gt;Node8 -->
<g id="edge14" class="edge"><title>Node4&#45;&gt;Node8</title>
<path fill="none" stroke="midnightblue" d="M576.204,-452.011C602.899,-445.37 635.73,-437.201 664.439,-430.058"/>
<polygon fill="midnightblue" stroke="midnightblue" points="575.153,-448.666 566.294,-454.477 576.843,-455.459 575.153,-448.666"/>
</g>
<!-- Node10 -->
<g id="node19" class="node"><title>Node10</title>
<a xlink:href="classMezzanine_1_1FileNotFoundException.html" target="_top" xlink:title="Thrown when a file was expected to be there, but was not.">
<polygon fill="white" stroke="black" points="642.5,-356.5 642.5,-377.5 823.5,-377.5 823.5,-356.5 642.5,-356.5"/>
<text text-anchor="middle" x="733" y="-364.5" font-family="FreeSans" font-size="10.00">Mezzanine::FileNotFoundException</text>
</a>
</g>
<!-- Node9&#45;&gt;Node10 -->
<g id="edge18" class="edge"><title>Node9&#45;&gt;Node10</title>
<path fill="none" stroke="midnightblue" d="M555.295,-312.784C578.757,-323.425 611.874,-337.517 642,-347 653.418,-350.594 665.838,-353.781 677.728,-356.497"/>
<polygon fill="midnightblue" stroke="midnightblue" points="556.729,-309.591 546.181,-308.604 553.811,-315.954 556.729,-309.591"/>
</g>
<!-- Node11 -->
<g id="node21" class="node"><title>Node11</title>
<a xlink:href="classMezzanine_1_1FilePermissionException.html" target="_top" xlink:title="Thrown when permission was denied to a file.">
<polygon fill="white" stroke="black" points="663,-304 663,-338 803,-338 803,-304 663,-304"/>
<text text-anchor="start" x="671" y="-325" font-family="FreeSans" font-size="10.00">Mezzanine::FilePermission</text>
<text text-anchor="middle" x="733" y="-312" font-family="FreeSans" font-size="10.00">Exception</text>
</a>
</g>
<!-- Node9&#45;&gt;Node11 -->
<g id="edge20" class="edge"><title>Node9&#45;&gt;Node11</title>
<path fill="none" stroke="midnightblue" d="M601.597,-306.539C621.656,-308.747 643.134,-311.11 662.791,-313.274"/>
<polygon fill="midnightblue" stroke="midnightblue" points="601.891,-303.051 591.568,-305.436 601.125,-310.009 601.891,-303.051"/>
</g>
<!-- Node12 -->
<g id="node23" class="node"><title>Node12</title>
<a xlink:href="classMezzanine_1_1FileReadException.html" target="_top" xlink:title="Thrown when a file could not be read and permissions seem to not be an issue (Filesystem/hardware iss...">
<polygon fill="white" stroke="black" points="654,-264.5 654,-285.5 812,-285.5 812,-264.5 654,-264.5"/>
<text text-anchor="middle" x="733" y="-272.5" font-family="FreeSans" font-size="10.00">Mezzanine::FileReadException</text>
</a>
</g>
<!-- Node9&#45;&gt;Node12 -->
<g id="edge22" class="edge"><title>Node9&#45;&gt;Node12</title>
<path fill="none" stroke="midnightblue" d="M601.938,-289.423C618.828,-287.564 636.709,-285.597 653.652,-283.732"/>
<polygon fill="midnightblue" stroke="midnightblue" points="601.125,-285.991 591.568,-290.564 601.891,-292.949 601.125,-285.991"/>
</g>
<!-- Node13 -->
<g id="node25" class="node"><title>Node13</title>
<a xlink:href="classMezzanine_1_1FileWriteException.html" target="_top" xlink:title="Thrown when a file could not be written and perimssions seem not to be an issue.">
<polygon fill="white" stroke="black" points="654,-224.5 654,-245.5 812,-245.5 812,-224.5 654,-224.5"/>
<text text-anchor="middle" x="733" y="-232.5" font-family="FreeSans" font-size="10.00">Mezzanine::FileWriteException</text>
</a>
</g>
<!-- Node9&#45;&gt;Node13 -->
<g id="edge24" class="edge"><title>Node9&#45;&gt;Node13</title>
<path fill="none" stroke="midnightblue" d="M587.953,-284.599C594.143,-282.649 600.252,-280.456 606,-278 623.459,-270.538 624.457,-262.261 642,-255 651.117,-251.226 661.056,-248.116 670.908,-245.566"/>
<polygon fill="midnightblue" stroke="midnightblue" points="586.807,-281.288 578.199,-287.464 588.78,-288.004 586.807,-281.288"/>
</g>
<!-- Node17 -->
<g id="node33" class="node"><title>Node17</title>
<a xlink:href="classMezzanine_1_1NetworkNotFoundException.html" target="_top" xlink:title="Thrown when no network connection is available.">
<polygon fill="white" stroke="black" points="653.5,-172 653.5,-206 812.5,-206 812.5,-172 653.5,-172"/>
<text text-anchor="start" x="661.5" y="-193" font-family="FreeSans" font-size="10.00">Mezzanine::NetworkNotFound</text>
<text text-anchor="middle" x="733" y="-180" font-family="FreeSans" font-size="10.00">Exception</text>
</a>
</g>
<!-- Node16&#45;&gt;Node17 -->
<g id="edge32" class="edge"><title>Node16&#45;&gt;Node17</title>
<path fill="none" stroke="midnightblue" d="M556.354,-128.621C579.848,-138.945 612.55,-152.717 642,-163 650.842,-166.087 660.258,-169.089 669.554,-171.89"/>
<polygon fill="midnightblue" stroke="midnightblue" points="557.761,-125.416 547.2,-124.568 554.927,-131.817 557.761,-125.416"/>
</g>
<!-- Node18 -->
<g id="node35" class="node"><title>Node18</title>
<a xlink:href="classMezzanine_1_1NetworkPermissionException.html" target="_top" xlink:title="Thrown when permision was denied to a network interface or network resource.">
<polygon fill="white" stroke="black" points="651,-120 651,-154 815,-154 815,-120 651,-120"/>
<text text-anchor="start" x="659" y="-141" font-family="FreeSans" font-size="10.00">Mezzanine::NetworkPermission</text>
<text text-anchor="middle" x="733" y="-128" font-family="FreeSans" font-size="10.00">Exception</text>
</a>
</g>
<!-- Node16&#45;&gt;Node18 -->
<g id="edge34" class="edge"><title>Node16&#45;&gt;Node18</title>
<path fill="none" stroke="midnightblue" d="M613.85,-123.888C626.135,-125.24 638.697,-126.622 650.836,-127.958"/>
<polygon fill="midnightblue" stroke="midnightblue" points="613.933,-120.376 603.61,-122.761 613.167,-127.334 613.933,-120.376"/>
</g>
<!-- Node19 -->
<g id="node37" class="node"><title>Node19</title>
<a xlink:href="classMezzanine_1_1NetworkReadException.html" target="_top" xlink:title="Thrown when data could not be read from the network (downloads).">
<polygon fill="white" stroke="black" points="642,-80.5 642,-101.5 824,-101.5 824,-80.5 642,-80.5"/>
<text text-anchor="middle" x="733" y="-88.5" font-family="FreeSans" font-size="10.00">Mezzanine::NetworkReadException</text>
</a>
</g>
<!-- Node16&#45;&gt;Node19 -->
<g id="edge36" class="edge"><title>Node16&#45;&gt;Node19</title>
<path fill="none" stroke="midnightblue" d="M613.63,-104.136C622.935,-103.112 632.401,-102.071 641.724,-101.045"/>
<polygon fill="midnightblue" stroke="midnightblue" points="613.167,-100.666 603.61,-105.239 613.933,-107.624 613.167,-100.666"/>
</g>
<!-- Node20 -->
<g id="node39" class="node"><title>Node20</title>
<a xlink:href="classMezzanine_1_1NetworkURLException.html" target="_top" xlink:title="Thrown when an address is invalid or could not be found.">
<polygon fill="white" stroke="black" points="644,-40.5 644,-61.5 822,-61.5 822,-40.5 644,-40.5"/>
<text text-anchor="middle" x="733" y="-48.5" font-family="FreeSans" font-size="10.00">Mezzanine::NetworkURLException</text>
</a>
</g>
<!-- Node16&#45;&gt;Node20 -->
<g id="edge38" class="edge"><title>Node16&#45;&gt;Node20</title>
<path fill="none" stroke="midnightblue" d="M559.35,-99.7184C582.581,-90.6825 613.787,-79.2013 642,-71 653.96,-67.5233 666.958,-64.3286 679.288,-61.5609"/>
<polygon fill="midnightblue" stroke="midnightblue" points="557.943,-96.511 549.915,-103.425 560.502,-103.026 557.943,-96.511"/>
</g>
<!-- Node21 -->
<g id="node41" class="node"><title>Node21</title>
<a xlink:href="classMezzanine_1_1NetworkWriteException.html" target="_top" xlink:title="Thrown when data could not be read from the network (iloads).">
<polygon fill="white" stroke="black" points="642,-0.5 642,-21.5 824,-21.5 824,-0.5 642,-0.5"/>
<text text-anchor="middle" x="733" y="-8.5" font-family="FreeSans" font-size="10.00">Mezzanine::NetworkWriteException</text>
</a>
</g>
<!-- Node16&#45;&gt;Node21 -->
<g id="edge40" class="edge"><title>Node16&#45;&gt;Node21</title>
<path fill="none" stroke="midnightblue" d="M543.463,-96.5856C565.713,-77.6109 603.989,-47.7323 642,-31 650.587,-27.2202 659.954,-24.1264 669.307,-21.602"/>
<polygon fill="midnightblue" stroke="midnightblue" points="541.013,-94.0768 535.753,-103.274 545.601,-99.3642 541.013,-94.0768"/>
</g>
</g>
</svg>
