<?xml version="1.0" encoding="UTF-8" standalone="no"?>
<!DOCTYPE svg PUBLIC "-//W3C//DTD SVG 1.1//EN"
 "http://www.w3.org/Graphics/SVG/1.1/DTD/svg11.dtd">
<!-- Generated by graphviz version 2.26.3 (20100126.1600)
 -->
<!-- Title: Mezzanine::ScriptLuaException Pages: 1 -->
<svg width="172pt" height="204pt"
 viewBox="0.00 0.00 172.00 204.00" xmlns="http://www.w3.org/2000/svg" xmlns:xlink="http://www.w3.org/1999/xlink">
<g id="graph1" class="graph" transform="scale(1 1) rotate(0) translate(4 200)">
<title>Mezzanine::ScriptLuaException</title>
<polygon fill="white" stroke="white" points="-4,5 -4,-200 169,-200 169,5 -4,5"/>
<!-- Node1 -->
<g id="node1" class="node"><title>Node1</title>
<polygon fill="#bfbfbf" stroke="black" points="-0.5,-0.5 -0.5,-21.5 164.5,-21.5 164.5,-0.5 -0.5,-0.5"/>
<text text-anchor="middle" x="82" y="-8.5" font-family="FreeSans" font-size="10.00">Mezzanine::ScriptLuaException</text>
</g>
<!-- Node2 -->
<g id="node2" class="node"><title>Node2</title>
<a xlink:href="classMezzanine_1_1ScriptException.html" target="_top" xlink:title="Thrown when an unknown error happens with a script.">
<polygon fill="white" stroke="black" points="8,-58.5 8,-79.5 156,-79.5 156,-58.5 8,-58.5"/>
<text text-anchor="middle" x="82" y="-66.5" font-family="FreeSans" font-size="10.00">Mezzanine::ScriptException</text>
</a>
</g>
<!-- Node2&#45;&gt;Node1 -->
<g id="edge2" class="edge"><title>Node2&#45;&gt;Node1</title>
<path fill="none" stroke="midnightblue" d="M82,-48.1906C82,-39.1684 82,-28.9941 82,-21.5707"/>
<polygon fill="midnightblue" stroke="midnightblue" points="78.5001,-48.3619 82,-58.3619 85.5001,-48.3619 78.5001,-48.3619"/>
</g>
<!-- Node3 -->
<g id="node4" class="node"><title>Node3</title>
<a xlink:href="classMezzanine_1_1Exception.html" target="_top" xlink:title="This is the exception thrown by most Mezzanine system that can throw exceptions.">
<polygon fill="white" stroke="black" points="22,-116.5 22,-137.5 142,-137.5 142,-116.5 22,-116.5"/>
<text text-anchor="middle" x="82" y="-124.5" font-family="FreeSans" font-size="10.00">Mezzanine::Exception</text>
</a>
</g>
<!-- Node3&#45;&gt;Node2 -->
<g id="edge4" class="edge"><title>Node3&#45;&gt;Node2</title>
<path fill="none" stroke="midnightblue" d="M82,-106.191C82,-97.1684 82,-86.9941 82,-79.5707"/>
<polygon fill="midnightblue" stroke="midnightblue" points="78.5001,-106.362 82,-116.362 85.5001,-106.362 78.5001,-106.362"/>
</g>
<!-- Node4 -->
<g id="node6" class="node"><title>Node4</title>
<a xlink:title="STL class.">
<polygon fill="white" stroke="#bfbfbf" points="40,-174.5 40,-195.5 124,-195.5 124,-174.5 40,-174.5"/>
<text text-anchor="middle" x="82" y="-182.5" font-family="FreeSans" font-size="10.00">std::exception</text>
</a>
</g>
<!-- Node4&#45;&gt;Node3 -->
<g id="edge6" class="edge"><title>Node4&#45;&gt;Node3</title>
<path fill="none" stroke="midnightblue" d="M82,-164.191C82,-155.168 82,-144.994 82,-137.571"/>
<polygon fill="midnightblue" stroke="midnightblue" points="78.5001,-164.362 82,-174.362 85.5001,-164.362 78.5001,-164.362"/>
</g>
</g>
</svg>
