<?xml version="1.0" encoding="UTF-8" standalone="no"?>
<!DOCTYPE svg PUBLIC "-//W3C//DTD SVG 1.1//EN"
 "http://www.w3.org/Graphics/SVG/1.1/DTD/svg11.dtd">
<!-- Generated by graphviz version 2.38.0 (20140413.2041)
 -->
<!-- Title: Mezzanine::Graphics::Procedural::RandomPixelsModifier Pages: 1 -->
<svg width="292pt" height="128pt"
 viewBox="0.00 0.00 292.00 128.00" xmlns="http://www.w3.org/2000/svg" xmlns:xlink="http://www.w3.org/1999/xlink">
<g id="graph0" class="graph" transform="scale(1 1) rotate(0) translate(4 124)">
<title>Mezzanine::Graphics::Procedural::RandomPixelsModifier</title>
<polygon fill="white" stroke="none" points="-4,4 -4,-124 288,-124 288,4 -4,4"/>
<!-- Node1 -->
<g id="node1" class="node"><title>Node1</title>
<polygon fill="#bfbfbf" stroke="black" points="77,-0.5 77,-41.5 216,-41.5 216,-0.5 77,-0.5"/>
<text text-anchor="start" x="85" y="-29.5" font-family="Helvetica,sans-Serif" font-size="10.00">Mezzanine::Graphics</text>
<text text-anchor="start" x="85" y="-18.5" font-family="Helvetica,sans-Serif" font-size="10.00">::Procedural::RandomPixels</text>
<text text-anchor="middle" x="146.5" y="-7.5" font-family="Helvetica,sans-Serif" font-size="10.00">Modifier</text>
</g>
<!-- Node2 -->
<g id="node2" class="node"><title>Node2</title>
<g id="a_node2"><a xlink:href="classMezzanine_1_1Graphics_1_1Procedural_1_1TextureModifier.html" target="_top" xlink:title="A base class for modifying the contents of an already populated texture buffer. ">
<polygon fill="white" stroke="black" points="0,-89.5 0,-119.5 143,-119.5 143,-89.5 0,-89.5"/>
<text text-anchor="start" x="8" y="-107.5" font-family="Helvetica,sans-Serif" font-size="10.00">Mezzanine::Graphics</text>
<text text-anchor="middle" x="71.5" y="-96.5" font-family="Helvetica,sans-Serif" font-size="10.00">::Procedural::TextureModifier</text>
</a>
</g>
</g>
<!-- Node2&#45;&gt;Node1 -->
<g id="edge1" class="edge"><title>Node2&#45;&gt;Node1</title>
<path fill="none" stroke="midnightblue" d="M91.6515,-81.6021C103.143,-69.115 117.422,-53.5984 128.53,-41.5278"/>
<polygon fill="midnightblue" stroke="midnightblue" points="88.7601,-79.5753 84.564,-89.3038 93.911,-84.3154 88.7601,-79.5753"/>
</g>
<!-- Node3 -->
<g id="node3" class="node"><title>Node3</title>
<g id="a_node3"><a xlink:href="classMezzanine_1_1ColourValue.html" target="_top" xlink:title="This is a simple class for holding 4 reals representing the colour any give object or lightsource can...">
<polygon fill="white" stroke="black" points="161,-95 161,-114 284,-114 284,-95 161,-95"/>
<text text-anchor="middle" x="222.5" y="-102" font-family="Helvetica,sans-Serif" font-size="10.00">Mezzanine::ColourValue</text>
</a>
</g>
</g>
<!-- Node3&#45;&gt;Node1 -->
<g id="edge2" class="edge"><title>Node3&#45;&gt;Node1</title>
<path fill="none" stroke="#9a32cd" stroke-dasharray="5,2" d="M207.501,-87.4156C195.285,-74.316 177.986,-55.7646 164.928,-41.7614"/>
<polygon fill="#9a32cd" stroke="#9a32cd" points="204.987,-89.8515 214.367,-94.7781 210.106,-85.0775 204.987,-89.8515"/>
<text text-anchor="middle" x="217.5" y="-63" font-family="Helvetica,sans-Serif" font-size="10.00"> PixelColour</text>
</g>
</g>
</svg>
