<?xml version="1.0" encoding="UTF-8" standalone="no"?>
<!DOCTYPE svg PUBLIC "-//W3C//DTD SVG 1.1//EN"
 "http://www.w3.org/Graphics/SVG/1.1/DTD/svg11.dtd">
<!-- Generated by graphviz version 2.26.3 (20100126.1600)
 -->
<!-- Title: Mezzanine::Audio::AudioManager Pages: 1 -->
<!--zoomable 452 -->
<svg id="main" version="1.1" xmlns="http://www.w3.org/2000/svg" xmlns:xlink="http://www.w3.org/1999/xlink" xml:space="preserve" onload="init(evt)">
        <defs>
                <circle id="rim" cx="0" cy="0" r="7"/>
                <circle id="rim2" cx="0" cy="0" r="3.5"/>
                <g id="zoomPlus">
                        <use xlink:href="#rim" fill="#404040">
                                <set attributeName="fill" to="#808080" begin="zoomplus.mouseover" end="zoomplus.mouseout"/>
                        </use>
                        <path d="M-4,0h8M0,-4v8" fill="none" stroke="white" stroke-width="1.5" pointer-events="none"/>
                </g>
                <g id="zoomMin">
                        <use xlink:href="#rim" fill="#404040">
                                <set attributeName="fill" to="#808080" begin="zoomminus.mouseover" end="zoomminus.mouseout"/>
                        </use>
                        <path d="M-4,0h8" fill="none" stroke="white" stroke-width="1.5" pointer-events="none"/>
                </g>
                <g id="dirArrow">
                        <path fill="none" stroke="white" stroke-width="1.5" d="M0,-3.0v7 M-2.5,-0.5L0,-3.0L2.5,-0.5"/>
                </g>
               <g id="resetDef">
                       <use xlink:href="#rim2" fill="#404040">
                               <set attributeName="fill" to="#808080" begin="reset.mouseover" end="reset.mouseout"/>
                       </use>
               </g>
        </defs>

<script type="text/javascript">
var viewWidth = 1782;
var viewHeight = 452;
var sectionId = 'dynsection-1';
</script>
<script xlink:href="svgpan.js"/>
<svg id="graph" class="graph">
<g id="viewport">
<title>Mezzanine::Audio::AudioManager</title>
<polygon fill="white" stroke="white" points="-4,5 -4,-447.554 1779,-447.554 1779,5 -4,5"/>
<!-- Node1 -->
<g id="node1" class="node"><title>Node1</title>
<polygon fill="#bfbfbf" stroke="black" points="1380,-285.054 1380,-306.054 1556,-306.054 1556,-285.054 1380,-285.054"/>
<text text-anchor="middle" x="1468" y="-293.054" font-family="FreeSans" font-size="10.00">Mezzanine::Audio::AudioManager</text>
</g>
<!-- Node17 -->
<g id="node42" class="node"><title>Node17</title>
<a xlink:href="classMezzanine_1_1Singleton.html" target="_top" xlink:title="Mezzanine::Singleton\l\&lt; AudioManager \&gt;">
<polygon fill="white" stroke="black" points="1654.5,-278.554 1654.5,-312.554 1773.5,-312.554 1773.5,-278.554 1654.5,-278.554"/>
<text text-anchor="start" x="1662.5" y="-299.554" font-family="FreeSans" font-size="10.00">Mezzanine::Singleton</text>
<text text-anchor="middle" x="1714" y="-286.554" font-family="FreeSans" font-size="10.00">&lt; AudioManager &gt;</text>
</a>
</g>
<!-- Node1&#45;&gt;Node17 -->
<g id="edge54" class="edge"><title>Node1&#45;&gt;Node17</title>
<path fill="none" stroke="#9a32cd" stroke-dasharray="5,2" d="M1566.13,-295.554C1595.91,-295.554 1627.73,-295.554 1654.19,-295.554"/>
<polygon fill="#9a32cd" stroke="#9a32cd" points="1566.12,-292.055 1556.12,-295.554 1566.12,-299.055 1566.12,-292.055"/>
<text text-anchor="middle" x="1605" y="-299.554" font-family="FreeSans" font-size="10.00"> SingletonPtr</text>
</g>
<!-- Node2 -->
<g id="node2" class="node"><title>Node2</title>
<a xlink:href="classMezzanine_1_1ManagerBase.html" target="_top" xlink:title="This is the base class from which all the Entresol and World Managers inherit.">
<polygon fill="white" stroke="black" points="1111,-422.054 1111,-443.054 1251,-443.054 1251,-422.054 1111,-422.054"/>
<text text-anchor="middle" x="1181" y="-430.054" font-family="FreeSans" font-size="10.00">Mezzanine::ManagerBase</text>
</a>
</g>
<!-- Node2&#45;&gt;Node1 -->
<g id="edge2" class="edge"><title>Node2&#45;&gt;Node1</title>
<path fill="none" stroke="midnightblue" d="M1217.45,-418.104C1229.77,-413.055 1243.56,-407.227 1256,-401.554 1327.7,-368.862 1410.76,-325.766 1448.06,-306.124"/>
<polygon fill="midnightblue" stroke="midnightblue" points="1215.88,-414.963 1207.93,-421.968 1218.51,-421.449 1215.88,-414.963"/>
</g>
<!-- Node3 -->
<g id="node4" class="node"><title>Node3</title>
<a xlink:href="classMezzanine_1_1Entresol.html" target="_top" xlink:title="This is the main entry point for the entire library.">
<polygon fill="white" stroke="black" points="867,-392.054 867,-413.054 979,-413.054 979,-392.054 867,-392.054"/>
<text text-anchor="middle" x="923" y="-400.054" font-family="FreeSans" font-size="10.00">Mezzanine::Entresol</text>
</a>
</g>
<!-- Node3&#45;&gt;Node2 -->
<g id="edge4" class="edge"><title>Node3&#45;&gt;Node2</title>
<path fill="none" stroke="#9a32cd" stroke-dasharray="5,2" d="M989.509,-410.288C1026.61,-414.602 1072.81,-419.974 1110.53,-424.36"/>
<polygon fill="#9a32cd" stroke="#9a32cd" points="989.638,-406.779 979.3,-409.101 988.829,-413.733 989.638,-406.779"/>
<text text-anchor="middle" x="1052" y="-424.554" font-family="FreeSans" font-size="10.00"> TheEntresol</text>
</g>
<!-- Node4 -->
<g id="node6" class="node"><title>Node4</title>
<a xlink:href="classMezzanine_1_1Singleton.html" target="_top" xlink:title="Mezzanine::Singleton\l\&lt; Entresol \&gt;">
<polygon fill="white" stroke="black" points="1121.5,-358.554 1121.5,-392.554 1240.5,-392.554 1240.5,-358.554 1121.5,-358.554"/>
<text text-anchor="start" x="1129.5" y="-379.554" font-family="FreeSans" font-size="10.00">Mezzanine::Singleton</text>
<text text-anchor="middle" x="1181" y="-366.554" font-family="FreeSans" font-size="10.00">&lt; Entresol &gt;</text>
</a>
</g>
<!-- Node3&#45;&gt;Node4 -->
<g id="edge8" class="edge"><title>Node3&#45;&gt;Node4</title>
<path fill="none" stroke="#9a32cd" stroke-dasharray="5,2" d="M989.4,-395.606C1030.11,-391.345 1081.8,-385.936 1121.23,-381.81"/>
<polygon fill="#9a32cd" stroke="#9a32cd" points="988.882,-392.141 979.3,-396.663 989.61,-399.103 988.882,-392.141"/>
<text text-anchor="middle" x="1052" y="-395.554" font-family="FreeSans" font-size="10.00"> SingletonPtr</text>
</g>
<!-- Node4&#45;&gt;Node3 -->
<g id="edge6" class="edge"><title>Node4&#45;&gt;Node3</title>
<path fill="none" stroke="midnightblue" d="M1111.05,-376.58C1081.62,-377.624 1047.05,-379.653 1016,-383.554 1000.14,-385.547 982.947,-388.758 967.708,-391.977"/>
<polygon fill="midnightblue" stroke="midnightblue" points="1111.36,-380.072 1121.24,-376.25 1111.13,-373.076 1111.36,-380.072"/>
</g>
<!-- Node5 -->
<g id="node9" class="node"><title>Node5</title>
<a xlink:href="classMezzanine_1_1ObjectSettingsHandler.html" target="_top" xlink:title="An abstract class for other classes that manage groups of settings.">
<polygon fill="white" stroke="black" points="1109,-278.554 1109,-312.554 1253,-312.554 1253,-278.554 1109,-278.554"/>
<text text-anchor="start" x="1117" y="-299.554" font-family="FreeSans" font-size="10.00">Mezzanine::ObjectSettings</text>
<text text-anchor="middle" x="1181" y="-286.554" font-family="FreeSans" font-size="10.00">Handler</text>
</a>
</g>
<!-- Node5&#45;&gt;Node1 -->
<g id="edge10" class="edge"><title>Node5&#45;&gt;Node1</title>
<path fill="none" stroke="midnightblue" d="M1263.16,-295.554C1299.62,-295.554 1342.61,-295.554 1379.76,-295.554"/>
<polygon fill="midnightblue" stroke="midnightblue" points="1263.05,-292.055 1253.05,-295.554 1263.05,-299.055 1263.05,-292.055"/>
</g>
<!-- Node6 -->
<g id="node11" class="node"><title>Node6</title>
<polygon fill="white" stroke="#bfbfbf" points="616,-274.554 616,-308.554 752,-308.554 752,-274.554 616,-274.554"/>
<text text-anchor="start" x="624" y="-295.554" font-family="FreeSans" font-size="10.00">std::map&lt; String, Object</text>
<text text-anchor="middle" x="684" y="-282.554" font-family="FreeSans" font-size="10.00">SettingFile * &gt;</text>
</g>
<!-- Node6&#45;&gt;Node5 -->
<g id="edge12" class="edge"><title>Node6&#45;&gt;Node5</title>
<path fill="none" stroke="#9a32cd" stroke-dasharray="5,2" d="M762.202,-292.184C857.342,-292.95 1016.65,-294.232 1108.93,-294.974"/>
<polygon fill="#9a32cd" stroke="#9a32cd" points="762.092,-288.683 752.064,-292.102 762.035,-295.683 762.092,-288.683"/>
<text text-anchor="middle" x="923" y="-297.554" font-family="FreeSans" font-size="10.00"> SettingFiles</text>
</g>
<!-- Node7 -->
<g id="node13" class="node"><title>Node7</title>
<a xlink:href="classMezzanine_1_1ObjectSettingFile.html" target="_top" xlink:title="This class represents a file to be saved containing one or more OhjectSettingGroup&#39;s.">
<polygon fill="white" stroke="black" points="324,-182.054 324,-203.054 478,-203.054 478,-182.054 324,-182.054"/>
<text text-anchor="middle" x="401" y="-190.054" font-family="FreeSans" font-size="10.00">Mezzanine::ObjectSettingFile</text>
</a>
</g>
<!-- Node7&#45;&gt;Node6 -->
<g id="edge14" class="edge"><title>Node7&#45;&gt;Node6</title>
<path fill="none" stroke="#9a32cd" stroke-dasharray="5,2" d="M488.467,-190.851C520.786,-192.922 557.056,-198.544 588,-211.554 621.399,-225.597 652.076,-255.362 669.369,-274.362"/>
<polygon fill="#9a32cd" stroke="#9a32cd" points="488.297,-187.337 478.125,-190.298 487.924,-194.327 488.297,-187.337"/>
<text text-anchor="middle" x="542" y="-215.554" font-family="FreeSans" font-size="10.00"> elements</text>
</g>
<!-- Node11 -->
<g id="node21" class="node"><title>Node11</title>
<a xlink:href="classMezzanine_1_1ObjectSettingGroup.html" target="_top" xlink:title="A class that store&#39;s a collection of SettingSets that can be applied together.">
<polygon fill="white" stroke="black" points="614.5,-122.554 614.5,-156.554 753.5,-156.554 753.5,-122.554 614.5,-122.554"/>
<text text-anchor="start" x="622.5" y="-143.554" font-family="FreeSans" font-size="10.00">Mezzanine::ObjectSetting</text>
<text text-anchor="middle" x="684" y="-130.554" font-family="FreeSans" font-size="10.00">Group</text>
</a>
</g>
<!-- Node7&#45;&gt;Node11 -->
<g id="edge40" class="edge"><title>Node7&#45;&gt;Node11</title>
<path fill="none" stroke="#9a32cd" stroke-dasharray="5,2" d="M428.586,-177.196C447.065,-167.713 472.268,-156.296 496,-150.554 534.451,-141.252 578.554,-138.286 614.376,-137.745"/>
<polygon fill="#9a32cd" stroke="#9a32cd" points="426.796,-174.182 419.578,-181.938 430.057,-180.376 426.796,-174.182"/>
<text text-anchor="middle" x="542" y="-154.554" font-family="FreeSans" font-size="10.00"> OptionalFile</text>
</g>
<!-- Node8 -->
<g id="node15" class="node"><title>Node8</title>
<a xlink:title="STL class.">
<polygon fill="white" stroke="#bfbfbf" points="142.5,-215.054 142.5,-236.054 207.5,-236.054 207.5,-215.054 142.5,-215.054"/>
<text text-anchor="middle" x="175" y="-223.054" font-family="FreeSans" font-size="10.00">std::string</text>
</a>
</g>
<!-- Node8&#45;&gt;Node5 -->
<g id="edge44" class="edge"><title>Node8&#45;&gt;Node5</title>
<path fill="none" stroke="#9a32cd" stroke-dasharray="5,2" d="M187.568,-244.824C196.827,-257.671 210.472,-274.064 226,-284.554 294.131,-330.583 318.778,-344.554 401,-344.554 401,-344.554 401,-344.554 923,-344.554 993.44,-344.554 1072.83,-326.707 1124.71,-312.555"/>
<polygon fill="#9a32cd" stroke="#9a32cd" points="190.198,-242.473 181.637,-236.232 184.437,-246.45 190.198,-242.473"/>
<text text-anchor="middle" x="684" y="-361.554" font-family="FreeSans" font-size="10.00"> CurrentSettingsSaveFile</text>
<text text-anchor="middle" x="684" y="-348.554" font-family="FreeSans" font-size="10.00">SettingsFilePath</text>
</g>
<!-- Node8&#45;&gt;Node6 -->
<g id="edge42" class="edge"><title>Node8&#45;&gt;Node6</title>
<path fill="none" stroke="#9a32cd" stroke-dasharray="5,2" d="M194.435,-242.542C203.426,-249.393 214.624,-256.6 226,-260.554 358.113,-306.475 524.335,-304.003 615.81,-297.908"/>
<polygon fill="#9a32cd" stroke="#9a32cd" points="196.541,-239.744 186.557,-236.2 192.152,-245.197 196.541,-239.744"/>
<text text-anchor="middle" x="401" y="-304.554" font-family="FreeSans" font-size="10.00"> keys</text>
</g>
<!-- Node8&#45;&gt;Node7 -->
<g id="edge16" class="edge"><title>Node8&#45;&gt;Node7</title>
<path fill="none" stroke="#9a32cd" stroke-dasharray="5,2" d="M217.992,-219.277C249.275,-214.709 292.37,-208.416 328.883,-203.085"/>
<polygon fill="#9a32cd" stroke="#9a32cd" points="217.252,-215.848 207.862,-220.756 218.263,-222.774 217.252,-215.848"/>
<text text-anchor="middle" x="266" y="-221.554" font-family="FreeSans" font-size="10.00"> File</text>
</g>
<!-- Node12 -->
<g id="node23" class="node"><title>Node12</title>
<a xlink:href="classMezzanine_1_1ObjectSettingSetContainer.html" target="_top" xlink:title="A base class for other classes that store ObjectSettingSet&#39;s.">
<polygon fill="white" stroke="black" points="331.5,-74.5544 331.5,-108.554 470.5,-108.554 470.5,-74.5544 331.5,-74.5544"/>
<text text-anchor="start" x="339.5" y="-95.5544" font-family="FreeSans" font-size="10.00">Mezzanine::ObjectSetting</text>
<text text-anchor="middle" x="401" y="-82.5544" font-family="FreeSans" font-size="10.00">SetContainer</text>
</a>
</g>
<!-- Node8&#45;&gt;Node12 -->
<g id="edge38" class="edge"><title>Node8&#45;&gt;Node12</title>
<path fill="none" stroke="#9a32cd" stroke-dasharray="5,2" d="M197.631,-208.819C206.359,-202.567 216.512,-195.537 226,-189.554 274.306,-159.095 332.54,-127.443 368.157,-108.626"/>
<polygon fill="#9a32cd" stroke="#9a32cd" points="195.498,-206.042 189.454,-214.744 199.605,-211.71 195.498,-206.042"/>
<text text-anchor="middle" x="266" y="-193.554" font-family="FreeSans" font-size="10.00"> ContainerName</text>
</g>
<!-- Node15 -->
<g id="node31" class="node"><title>Node15</title>
<polygon fill="white" stroke="#bfbfbf" points="328.5,-14.0544 328.5,-35.0544 473.5,-35.0544 473.5,-14.0544 328.5,-14.0544"/>
<text text-anchor="middle" x="401" y="-22.0544" font-family="FreeSans" font-size="10.00">std::map&lt; String, String &gt;</text>
</g>
<!-- Node8&#45;&gt;Node15 -->
<g id="edge36" class="edge"><title>Node8&#45;&gt;Node15</title>
<path fill="none" stroke="#9a32cd" stroke-dasharray="5,2" d="M180.07,-204.826C186.917,-180.58 201.21,-140.469 226,-114.554 264.967,-73.8205 326.402,-48.2073 365.154,-35.145"/>
<polygon fill="#9a32cd" stroke="#9a32cd" points="176.621,-204.178 177.438,-214.741 183.387,-205.974 176.621,-204.178"/>
<text text-anchor="middle" x="266" y="-131.554" font-family="FreeSans" font-size="10.00"> keys</text>
<text text-anchor="middle" x="266" y="-118.554" font-family="FreeSans" font-size="10.00">elements</text>
</g>
<!-- Node16 -->
<g id="node38" class="node"><title>Node16</title>
<polygon fill="white" stroke="#bfbfbf" points="855,-225.554 855,-259.554 991,-259.554 991,-225.554 855,-225.554"/>
<text text-anchor="start" x="863" y="-246.554" font-family="FreeSans" font-size="10.00">std::map&lt; String, Object</text>
<text text-anchor="middle" x="923" y="-233.554" font-family="FreeSans" font-size="10.00">SettingGroup * &gt;</text>
</g>
<!-- Node8&#45;&gt;Node16 -->
<g id="edge50" class="edge"><title>Node8&#45;&gt;Node16</title>
<path fill="none" stroke="#9a32cd" stroke-dasharray="5,2" d="M217.713,-231.806C220.513,-232.096 223.294,-232.35 226,-232.554 455.887,-249.915 729.598,-246.976 854.612,-244.335"/>
<polygon fill="#9a32cd" stroke="#9a32cd" points="217.922,-228.307 207.585,-230.63 217.114,-235.26 217.922,-228.307"/>
<text text-anchor="middle" x="542" y="-249.554" font-family="FreeSans" font-size="10.00"> keys</text>
</g>
<!-- Node9 -->
<g id="node17" class="node"><title>Node9</title>
<a xlink:title="STL class.">
<polygon fill="white" stroke="#bfbfbf" points="0.5,-208.554 0.5,-242.554 103.5,-242.554 103.5,-208.554 0.5,-208.554"/>
<text text-anchor="start" x="8.5" y="-229.554" font-family="FreeSans" font-size="10.00">std::basic_string&lt;</text>
<text text-anchor="middle" x="52" y="-216.554" font-family="FreeSans" font-size="10.00"> char &gt;</text>
</a>
</g>
<!-- Node9&#45;&gt;Node8 -->
<g id="edge18" class="edge"><title>Node9&#45;&gt;Node8</title>
<path fill="none" stroke="midnightblue" d="M113.938,-225.554C123.694,-225.554 133.436,-225.554 142.181,-225.554"/>
<polygon fill="midnightblue" stroke="midnightblue" points="113.807,-222.055 103.807,-225.554 113.807,-229.055 113.807,-222.055"/>
</g>
<!-- Node10 -->
<g id="node19" class="node"><title>Node10</title>
<polygon fill="white" stroke="#bfbfbf" points="851,-152.554 851,-186.554 995,-186.554 995,-152.554 851,-152.554"/>
<text text-anchor="start" x="859" y="-173.554" font-family="FreeSans" font-size="10.00">std::vector&lt; ObjectSetting</text>
<text text-anchor="middle" x="923" y="-160.554" font-family="FreeSans" font-size="10.00">Group * &gt;</text>
</g>
<!-- Node10&#45;&gt;Node7 -->
<g id="edge20" class="edge"><title>Node10&#45;&gt;Node7</title>
<path fill="none" stroke="#9a32cd" stroke-dasharray="5,2" d="M840.697,-177.802C837.084,-178.075 833.506,-178.328 830,-178.554 707.114,-186.497 564.12,-190.019 478.182,-191.518"/>
<polygon fill="#9a32cd" stroke="#9a32cd" points="841.251,-181.269 850.941,-176.986 840.695,-174.292 841.251,-181.269"/>
<text text-anchor="middle" x="684" y="-191.554" font-family="FreeSans" font-size="10.00"> SaveGroups</text>
</g>
<!-- Node11&#45;&gt;Node10 -->
<g id="edge22" class="edge"><title>Node11&#45;&gt;Node10</title>
<path fill="none" stroke="#9a32cd" stroke-dasharray="5,2" d="M763.735,-126.323C785.393,-124.834 808.733,-125.175 830,-129.554 851.691,-134.021 874.559,-143.781 892.19,-152.541"/>
<polygon fill="#9a32cd" stroke="#9a32cd" points="763.265,-122.85 753.587,-127.16 763.841,-129.826 763.265,-122.85"/>
<text text-anchor="middle" x="805" y="-133.554" font-family="FreeSans" font-size="10.00"> elements</text>
</g>
<!-- Node11&#45;&gt;Node16 -->
<g id="edge48" class="edge"><title>Node11&#45;&gt;Node16</title>
<path fill="none" stroke="#9a32cd" stroke-dasharray="5,2" d="M737.166,-160.336C745.502,-163.695 754.002,-167.178 762,-170.554 804.878,-188.653 853.597,-210.642 886.105,-225.522"/>
<polygon fill="#9a32cd" stroke="#9a32cd" points="738.446,-157.078 727.861,-156.61 735.844,-163.577 738.446,-157.078"/>
<text text-anchor="middle" x="805" y="-202.554" font-family="FreeSans" font-size="10.00"> elements</text>
</g>
<!-- Node12&#45;&gt;Node11 -->
<g id="edge24" class="edge"><title>Node12&#45;&gt;Node11</title>
<path fill="none" stroke="midnightblue" d="M480.517,-105.041C522.557,-112.172 573.693,-120.845 614.186,-127.713"/>
<polygon fill="midnightblue" stroke="midnightblue" points="481.037,-101.58 470.592,-103.358 479.866,-108.481 481.037,-101.58"/>
</g>
<!-- Node14 -->
<g id="node27" class="node"><title>Node14</title>
<a xlink:href="classMezzanine_1_1ObjectSettingSet.html" target="_top" xlink:title="A class that store&#39;s a named set of settings for an object.">
<polygon fill="white" stroke="black" points="606.5,-27.0544 606.5,-48.0544 761.5,-48.0544 761.5,-27.0544 606.5,-27.0544"/>
<text text-anchor="middle" x="684" y="-35.0544" font-family="FreeSans" font-size="10.00">Mezzanine::ObjectSettingSet</text>
</a>
</g>
<!-- Node12&#45;&gt;Node14 -->
<g id="edge30" class="edge"><title>Node12&#45;&gt;Node14</title>
<path fill="none" stroke="midnightblue" d="M436.778,-69.3663C454.014,-59.8716 475.382,-49.7823 496,-44.5544 531.459,-35.5636 571.876,-33.0999 606.125,-33.173"/>
<polygon fill="midnightblue" stroke="midnightblue" points="434.625,-66.5636 427.658,-74.5453 438.082,-72.6506 434.625,-66.5636"/>
</g>
<!-- Node12&#45;&gt;Node14 -->
<g id="edge32" class="edge"><title>Node12&#45;&gt;Node14</title>
<path fill="none" stroke="#9a32cd" stroke-dasharray="5,2" d="M466.06,-71.8179C476.033,-69.1546 486.252,-66.6298 496,-64.5544 531.96,-56.8983 572.259,-50.7895 606.296,-46.3324"/>
<polygon fill="#9a32cd" stroke="#9a32cd" points="464.918,-68.5017 456.195,-74.5157 466.764,-75.2538 464.918,-68.5017"/>
<text text-anchor="middle" x="542" y="-68.5544" font-family="FreeSans" font-size="10.00"> ParentSetOrGroup</text>
</g>
<!-- Node13 -->
<g id="node25" class="node"><title>Node13</title>
<polygon fill="white" stroke="#bfbfbf" points="851,-74.5544 851,-108.554 995,-108.554 995,-74.5544 851,-74.5544"/>
<text text-anchor="start" x="859" y="-95.5544" font-family="FreeSans" font-size="10.00">std::vector&lt; ObjectSetting</text>
<text text-anchor="middle" x="923" y="-82.5544" font-family="FreeSans" font-size="10.00">Set * &gt;</text>
</g>
<!-- Node13&#45;&gt;Node12 -->
<g id="edge26" class="edge"><title>Node13&#45;&gt;Node12</title>
<path fill="none" stroke="#9a32cd" stroke-dasharray="5,2" d="M840.698,-91.5544C738.619,-91.5544 566.391,-91.5544 470.587,-91.5544"/>
<polygon fill="#9a32cd" stroke="#9a32cd" points="840.961,-95.0545 850.961,-91.5544 840.961,-88.0545 840.961,-95.0545"/>
<text text-anchor="middle" x="684" y="-95.5544" font-family="FreeSans" font-size="10.00"> SubSets</text>
</g>
<!-- Node14&#45;&gt;Node13 -->
<g id="edge28" class="edge"><title>Node14&#45;&gt;Node13</title>
<path fill="none" stroke="#9a32cd" stroke-dasharray="5,2" d="M758.649,-49.8797C781.633,-54.0711 806.949,-59.0913 830,-64.5544 842.269,-67.4623 855.332,-70.9838 867.67,-74.5098"/>
<polygon fill="#9a32cd" stroke="#9a32cd" points="759.075,-46.4002 748.613,-48.0747 757.836,-53.2897 759.075,-46.4002"/>
<text text-anchor="middle" x="805" y="-68.5544" font-family="FreeSans" font-size="10.00"> elements</text>
</g>
<!-- Node15&#45;&gt;Node14 -->
<g id="edge34" class="edge"><title>Node15&#45;&gt;Node14</title>
<path fill="none" stroke="#9a32cd" stroke-dasharray="5,2" d="M448.903,-11.7727C486.811,-3.43764 541.006,4.52172 588,-3.55441 613.964,-8.01645 642.225,-18.8022 661.314,-27.039"/>
<polygon fill="#9a32cd" stroke="#9a32cd" points="448.115,-8.3625 439.148,-14.005 449.676,-15.1861 448.115,-8.3625"/>
<text text-anchor="middle" x="542" y="-7.55441" font-family="FreeSans" font-size="10.00"> Settings</text>
</g>
<!-- Node16&#45;&gt;Node5 -->
<g id="edge46" class="edge"><title>Node16&#45;&gt;Node5</title>
<path fill="none" stroke="#9a32cd" stroke-dasharray="5,2" d="M1001.19,-252.807C1028.76,-256.969 1059.89,-262.286 1088,-268.554 1100.64,-271.372 1114.08,-274.938 1126.71,-278.546"/>
<polygon fill="#9a32cd" stroke="#9a32cd" points="1001.6,-249.331 991.199,-251.327 1000.58,-256.256 1001.6,-249.331"/>
<text text-anchor="middle" x="1052" y="-272.554" font-family="FreeSans" font-size="10.00"> SettingGroups</text>
</g>
<!-- Node17&#45;&gt;Node1 -->
<g id="edge52" class="edge"><title>Node17&#45;&gt;Node1</title>
<path fill="none" stroke="midnightblue" d="M1644.23,-293.677C1641.45,-293.63 1638.7,-293.589 1636,-293.554 1610.04,-293.222 1581.83,-293.362 1556.06,-293.687"/>
<polygon fill="midnightblue" stroke="midnightblue" points="1644.32,-297.179 1654.38,-293.869 1644.45,-290.181 1644.32,-297.179"/>
</g>
<!-- Node18 -->
<g id="node45" class="node"><title>Node18</title>
<polygon fill="white" stroke="#bfbfbf" points="1106,-124.554 1106,-158.554 1256,-158.554 1256,-124.554 1106,-124.554"/>
<text text-anchor="start" x="1114" y="-145.554" font-family="FreeSans" font-size="10.00">std::map&lt; Audio::Encoding,</text>
<text text-anchor="middle" x="1181" y="-132.554" font-family="FreeSans" font-size="10.00"> iDecoderFactory * &gt;</text>
</g>
<!-- Node18&#45;&gt;Node1 -->
<g id="edge56" class="edge"><title>Node18&#45;&gt;Node1</title>
<path fill="none" stroke="#9a32cd" stroke-dasharray="5,2" d="M1221.63,-163.358C1284.25,-196.958 1401.96,-260.116 1448.42,-285.048"/>
<polygon fill="#9a32cd" stroke="#9a32cd" points="1223.28,-160.268 1212.81,-158.624 1219.97,-166.436 1223.28,-160.268"/>
<text text-anchor="middle" x="1318" y="-240.554" font-family="FreeSans" font-size="10.00"> DecoderFactories</text>
</g>
<!-- Node19 -->
<g id="node47" class="node"><title>Node19</title>
<a xlink:href="classMezzanine_1_1Audio_1_1iDecoderFactory.html" target="_top" xlink:title="This is an interface class for factories that create decoders.">
<polygon fill="white" stroke="black" points="848.5,-22.5544 848.5,-56.5544 997.5,-56.5544 997.5,-22.5544 848.5,-22.5544"/>
<text text-anchor="start" x="856.5" y="-43.5544" font-family="FreeSans" font-size="10.00">Mezzanine::Audio::iDecoder</text>
<text text-anchor="middle" x="923" y="-30.5544" font-family="FreeSans" font-size="10.00">Factory</text>
</a>
</g>
<!-- Node19&#45;&gt;Node18 -->
<g id="edge58" class="edge"><title>Node19&#45;&gt;Node18</title>
<path fill="none" stroke="#9a32cd" stroke-dasharray="5,2" d="M983.221,-60.0749C988.234,-61.8911 993.212,-63.7323 998,-65.5544 1048,-84.5825 1104.77,-108.536 1141.65,-124.41"/>
<polygon fill="#9a32cd" stroke="#9a32cd" points="984.173,-56.6985 973.579,-56.6244 981.815,-63.2892 984.173,-56.6985"/>
<text text-anchor="middle" x="1052" y="-103.554" font-family="FreeSans" font-size="10.00"> elements</text>
</g>
</g>
</svg>
        <g id="navigator" transform="translate(0 0)" fill="#404254">
                <rect fill="#f2f5e9" fill-opacity="0.5" stroke="#606060" stroke-width=".5" x="0" y="0" width="60" height="60"/>
                <use id="zoomplus" xlink:href="#zoomPlus" x="17" y="9" onmousedown="handleZoom(evt,'in')"/>
                <use id="zoomminus" xlink:href="#zoomMin" x="42" y="9" onmousedown="handleZoom(evt,'out')"/>
                <use id="reset" xlink:href="#resetDef" x="30" y="36" onmousedown="handleReset()"/>
                <g id="arrowUp" xlink:href="#dirArrow" transform="translate(30 24)" onmousedown="handlePan(0,-1)">
                  <use xlink:href="#rim" fill="#404040">
                        <set attributeName="fill" to="#808080" begin="arrowUp.mouseover" end="arrowUp.mouseout"/>
                  </use>
                  <path fill="none" stroke="white" stroke-width="1.5" d="M0,-3.0v7 M-2.5,-0.5L0,-3.0L2.5,-0.5"/>
                </g>
                <g id="arrowRight" xlink:href="#dirArrow" transform="rotate(90) translate(36 -43)" onmousedown="handlePan(1,0)">
                  <use xlink:href="#rim" fill="#404040">
                        <set attributeName="fill" to="#808080" begin="arrowRight.mouseover" end="arrowRight.mouseout"/>
                  </use>
                  <path fill="none" stroke="white" stroke-width="1.5" d="M0,-3.0v7 M-2.5,-0.5L0,-3.0L2.5,-0.5"/>
                </g>
                <g id="arrowDown" xlink:href="#dirArrow" transform="rotate(180) translate(-30 -48)" onmousedown="handlePan(0,1)">
                  <use xlink:href="#rim" fill="#404040">
                        <set attributeName="fill" to="#808080" begin="arrowDown.mouseover" end="arrowDown.mouseout"/>
                  </use>
                  <path fill="none" stroke="white" stroke-width="1.5" d="M0,-3.0v7 M-2.5,-0.5L0,-3.0L2.5,-0.5"/>
                </g>
                <g id="arrowLeft" xlink:href="#dirArrow" transform="rotate(270) translate(-36 17)" onmousedown="handlePan(-1,0)">
                  <use xlink:href="#rim" fill="#404040">
                        <set attributeName="fill" to="#808080" begin="arrowLeft.mouseover" end="arrowLeft.mouseout"/>
                  </use>
                  <path fill="none" stroke="white" stroke-width="1.5" d="M0,-3.0v7 M-2.5,-0.5L0,-3.0L2.5,-0.5"/>
                </g>
        </g>
        <svg viewBox="0 0 15 15" width="100%" height="30px" preserveAspectRatio="xMaxYMin meet">
         <g id="arrow_out" transform="scale(0.3 0.3)">
          <a xlink:href="classMezzanine_1_1Audio_1_1AudioManager__coll__graph_org.svg" target="_base">
           <rect id="button" ry="5" rx="5" y="6" x="6" height="38" width="38"
                fill="#f2f5e9" fill-opacity="0.5" stroke="#606060" stroke-width="1.0"/>
           <path id="arrow"
             d="M 11.500037,31.436501 C 11.940474,20.09759 22.043105,11.32322 32.158766,21.979434 L 37.068811,17.246167 C 37.068811,17.246167 37.088388,32 37.088388,32 L 22.160133,31.978069 C 22.160133,31.978069 26.997745,27.140456 26.997745,27.140456 C 18.528582,18.264221 13.291696,25.230495 11.500037,31.436501 z"
             style="fill:#404040;"/>
          </a>
         </g>
        </svg>
</svg>
