<?xml version="1.0" encoding="UTF-8" standalone="no"?>
<!DOCTYPE svg PUBLIC "-//W3C//DTD SVG 1.1//EN"
 "http://www.w3.org/Graphics/SVG/1.1/DTD/svg11.dtd">
<!-- Generated by graphviz version 2.26.3 (20100126.1600)
 -->
<!-- Title: Mezzanine::Physics::SoftProxy Pages: 1 -->
<!--zoomable 750 -->
<svg id="main" version="1.1" xmlns="http://www.w3.org/2000/svg" xmlns:xlink="http://www.w3.org/1999/xlink" xml:space="preserve" onload="init(evt)">
        <defs>
                <circle id="rim" cx="0" cy="0" r="7"/>
                <circle id="rim2" cx="0" cy="0" r="3.5"/>
                <g id="zoomPlus">
                        <use xlink:href="#rim" fill="#404040">
                                <set attributeName="fill" to="#808080" begin="zoomplus.mouseover" end="zoomplus.mouseout"/>
                        </use>
                        <path d="M-4,0h8M0,-4v8" fill="none" stroke="white" stroke-width="1.5" pointer-events="none"/>
                </g>
                <g id="zoomMin">
                        <use xlink:href="#rim" fill="#404040">
                                <set attributeName="fill" to="#808080" begin="zoomminus.mouseover" end="zoomminus.mouseout"/>
                        </use>
                        <path d="M-4,0h8" fill="none" stroke="white" stroke-width="1.5" pointer-events="none"/>
                </g>
                <g id="dirArrow">
                        <path fill="none" stroke="white" stroke-width="1.5" d="M0,-3.0v7 M-2.5,-0.5L0,-3.0L2.5,-0.5"/>
                </g>
               <g id="resetDef">
                       <use xlink:href="#rim2" fill="#404040">
                               <set attributeName="fill" to="#808080" begin="reset.mouseover" end="reset.mouseout"/>
                       </use>
               </g>
        </defs>

<script type="text/javascript">
var viewWidth = 1182;
var viewHeight = 750;
var sectionId = 'dynsection-1';
</script>
<script xlink:href="svgpan.js"/>
<svg id="graph" class="graph">
<g id="viewport">
<title>Mezzanine::Physics::SoftProxy</title>
<!-- Node1 -->
<g id="node1" class="node"><title>Node1</title>
<polygon fill="#bfbfbf" stroke="black" points="1074,-454 1074,-486 1174,-486 1174,-454 1074,-454"/>
<text text-anchor="start" x="1082" y="-473" font-family="FreeSans" font-size="10.00">Mezzanine::Physics</text>
<text text-anchor="middle" x="1124" y="-461" font-family="FreeSans" font-size="10.00">::SoftProxy</text>
</g>
<!-- Node2 -->
<g id="node2" class="node"><title>Node2</title>
<a xlink:href="classMezzanine_1_1Physics_1_1PhysicsProxy.xhtml" target="_top" xlink:title="This is a proxy from which physics objects are handled.">
<polygon fill="none" stroke="black" points="936,-454 936,-486 1036,-486 1036,-454 936,-454"/>
<text text-anchor="start" x="944" y="-473" font-family="FreeSans" font-size="10.00">Mezzanine::Physics</text>
<text text-anchor="middle" x="986" y="-461" font-family="FreeSans" font-size="10.00">::PhysicsProxy</text>
</a>
</g>
<!-- Node2&#45;&gt;Node1 -->
<g id="edge2" class="edge"><title>Node2&#45;&gt;Node1</title>
<path fill="none" stroke="midnightblue" d="M1046.36,-470C1055.45,-470 1064.74,-470 1073.59,-470"/>
<polygon fill="midnightblue" stroke="midnightblue" points="1046.21,-466.5 1036.21,-470 1046.21,-473.5 1046.21,-466.5"/>
</g>
<!-- Node3 -->
<g id="node4" class="node"><title>Node3</title>
<a xlink:href="classMezzanine_1_1WorldProxy.xhtml" target="_top" xlink:title="This is the base class for proxy objects belonging to the various 3D subsystems.">
<polygon fill="none" stroke="black" points="741,-505 741,-525 857,-525 857,-505 741,-505"/>
<text text-anchor="middle" x="799" y="-512" font-family="FreeSans" font-size="10.00">Mezzanine::WorldProxy</text>
</a>
</g>
<!-- Node3&#45;&gt;Node2 -->
<g id="edge4" class="edge"><title>Node3&#45;&gt;Node2</title>
<path fill="none" stroke="midnightblue" d="M850.842,-502.525C877.39,-496.136 909.571,-488.392 935.871,-482.063"/>
<polygon fill="midnightblue" stroke="midnightblue" points="849.87,-499.159 840.966,-504.901 851.508,-505.964 849.87,-499.159"/>
</g>
<!-- Node4 -->
<g id="node6" class="node"><title>Node4</title>
<a xlink:href="classMezzanine_1_1TransformableObject.xhtml" target="_top" xlink:title="This is an interface for all 3D objects that can have their full transforms manipulated.">
<polygon fill="none" stroke="black" points="453,-583 453,-615 581,-615 581,-583 453,-583"/>
<text text-anchor="start" x="461" y="-602" font-family="FreeSans" font-size="10.00">Mezzanine::Transformable</text>
<text text-anchor="middle" x="517" y="-590" font-family="FreeSans" font-size="10.00">Object</text>
</a>
</g>
<!-- Node4&#45;&gt;Node3 -->
<g id="edge6" class="edge"><title>Node4&#45;&gt;Node3</title>
<path fill="none" stroke="midnightblue" d="M591.123,-591.086C625.476,-586.082 666.468,-578.182 702,-566 732.416,-555.572 764.947,-536.686 783.544,-525.054"/>
<polygon fill="midnightblue" stroke="midnightblue" points="590.572,-587.629 581.156,-592.485 591.545,-594.561 590.572,-587.629"/>
</g>
<!-- Node5 -->
<g id="node8" class="node"><title>Node5</title>
<a xlink:href="classMezzanine_1_1WorldObject.xhtml" target="_top" xlink:title="This is the base class from which classes that are insertable into the physical world.">
<polygon fill="none" stroke="black" points="457,-301 457,-321 577,-321 577,-301 457,-301"/>
<text text-anchor="middle" x="517" y="-308" font-family="FreeSans" font-size="10.00">Mezzanine::WorldObject</text>
</a>
</g>
<!-- Node5&#45;&gt;Node3 -->
<g id="edge8" class="edge"><title>Node5&#45;&gt;Node3</title>
<path fill="none" stroke="#9a32cd" stroke-dasharray="5,2" d="M585.619,-325.689C587.176,-327.013 588.643,-328.447 590,-330 633.893,-380.227 562.417,-430.301 608,-479 625.756,-497.969 691.268,-507.144 740.654,-511.443"/>
<polygon fill="#9a32cd" stroke="#9a32cd" points="587.403,-322.67 577.163,-319.951 583.472,-328.462 587.403,-322.67"/>
<text text-anchor="middle" x="655" y="-509" font-family="FreeSans" font-size="10.00"> ParentObject</text>
</g>
<!-- Node12 -->
<g id="node24" class="node"><title>Node12</title>
<a xlink:href="classMezzanine_1_1WorldObjectPhysicsSettings.xhtml" target="_top" xlink:title="This is a base helper class for configuring physics settings of a world object.">
<polygon fill="none" stroke="black" points="722.5,-249 722.5,-281 875.5,-281 875.5,-249 722.5,-249"/>
<text text-anchor="start" x="730.5" y="-268" font-family="FreeSans" font-size="10.00">Mezzanine::WorldObjectPhysics</text>
<text text-anchor="middle" x="799" y="-256" font-family="FreeSans" font-size="10.00">Settings</text>
</a>
</g>
<!-- Node5&#45;&gt;Node12 -->
<g id="edge28" class="edge"><title>Node5&#45;&gt;Node12</title>
<path fill="none" stroke="#9a32cd" stroke-dasharray="5,2" d="M538.319,-294.874C555.945,-282.613 582.185,-266.741 608,-260 644.749,-250.404 686.834,-250.393 722.13,-253.311"/>
<polygon fill="#9a32cd" stroke="#9a32cd" points="536.019,-292.216 529.934,-300.889 540.1,-297.904 536.019,-292.216"/>
<text text-anchor="middle" x="655" y="-263" font-family="FreeSans" font-size="10.00"> Parent</text>
</g>
<!-- Node17 -->
<g id="node36" class="node"><title>Node17</title>
<a xlink:href="classMezzanine_1_1Physics_1_1Collision.xhtml" target="_top" xlink:title="This is an event class used to track collsions in the physics world.">
<polygon fill="none" stroke="black" points="749,-175 749,-207 849,-207 849,-175 749,-175"/>
<text text-anchor="start" x="757" y="-194" font-family="FreeSans" font-size="10.00">Mezzanine::Physics</text>
<text text-anchor="middle" x="799" y="-182" font-family="FreeSans" font-size="10.00">::Collision</text>
</a>
</g>
<!-- Node5&#45;&gt;Node17 -->
<g id="edge44" class="edge"><title>Node5&#45;&gt;Node17</title>
<path fill="none" stroke="#9a32cd" stroke-dasharray="5,2" d="M530.396,-292.574C546.405,-272.042 575.184,-239.559 608,-223 652.125,-200.735 708.553,-193.488 748.606,-191.354"/>
<polygon fill="#9a32cd" stroke="#9a32cd" points="527.402,-290.729 524.155,-300.814 532.983,-294.956 527.402,-290.729"/>
<text text-anchor="middle" x="655" y="-238" font-family="FreeSans" font-size="10.00"> ObjectA</text>
<text text-anchor="middle" x="655" y="-226" font-family="FreeSans" font-size="10.00">ObjectB</text>
</g>
<!-- Node20 -->
<g id="node43" class="node"><title>Node20</title>
<a xlink:href="classMezzanine_1_1WorldObjectGraphicsSettings.xhtml" target="_top" xlink:title="This is a helper class for configuring graphics settings of a World Object.">
<polygon fill="none" stroke="black" points="720,-379 720,-411 878,-411 878,-379 720,-379"/>
<text text-anchor="start" x="728" y="-398" font-family="FreeSans" font-size="10.00">Mezzanine::WorldObjectGraphics</text>
<text text-anchor="middle" x="799" y="-386" font-family="FreeSans" font-size="10.00">Settings</text>
</a>
</g>
<!-- Node5&#45;&gt;Node20 -->
<g id="edge50" class="edge"><title>Node5&#45;&gt;Node20</title>
<path fill="none" stroke="#9a32cd" stroke-dasharray="5,2" d="M585.963,-326.428C587.375,-327.54 588.724,-328.729 590,-330 612.152,-352.06 583.226,-378.931 608,-398 648.208,-428.95 708.579,-421.833 750.65,-411.097"/>
<polygon fill="#9a32cd" stroke="#9a32cd" points="587.59,-323.313 577.283,-320.859 583.81,-329.205 587.59,-323.313"/>
<text text-anchor="middle" x="655" y="-423" font-family="FreeSans" font-size="10.00"> Parent</text>
</g>
<!-- Node6 -->
<g id="node10" class="node"><title>Node6</title>
<a xlink:href="classMezzanine_1_1World.xhtml" target="_top" xlink:title="This class represents a world for objects to interact within.">
<polygon fill="none" stroke="black" points="236,-88 236,-108 328,-108 328,-88 236,-88"/>
<text text-anchor="middle" x="282" y="-95" font-family="FreeSans" font-size="10.00">Mezzanine::World</text>
</a>
</g>
<!-- Node6&#45;&gt;Node5 -->
<g id="edge10" class="edge"><title>Node6&#45;&gt;Node5</title>
<path fill="none" stroke="#9a32cd" stroke-dasharray="5,2" d="M300.959,-115.185C347.897,-157.728 468.41,-266.959 505.779,-300.83"/>
<polygon fill="#9a32cd" stroke="#9a32cd" points="303.094,-112.396 293.335,-108.273 298.393,-117.582 303.094,-112.396"/>
<text text-anchor="middle" x="398" y="-226" font-family="FreeSans" font-size="10.00"> ParentWorld</text>
</g>
<!-- Node8 -->
<g id="node14" class="node"><title>Node8</title>
<a xlink:href="classMezzanine_1_1WorldManager.xhtml" target="_top" xlink:title="This is the base class for all managers that belong to a single world instance.">
<polygon fill="none" stroke="black" points="452.5,-38 452.5,-58 581.5,-58 581.5,-38 452.5,-38"/>
<text text-anchor="middle" x="517" y="-45" font-family="FreeSans" font-size="10.00">Mezzanine::WorldManager</text>
</a>
</g>
<!-- Node6&#45;&gt;Node8 -->
<g id="edge24" class="edge"><title>Node6&#45;&gt;Node8</title>
<path fill="none" stroke="#9a32cd" stroke-dasharray="5,2" d="M336.364,-84.8931C341.719,-83.1126 347.013,-81.1487 352,-79 360.61,-75.2904 361.167,-71.1433 370,-68 396.085,-58.7173 426.184,-53.7039 452.326,-51.0112"/>
<polygon fill="#9a32cd" stroke="#9a32cd" points="335.218,-81.5841 326.712,-87.9 337.3,-88.2673 335.218,-81.5841"/>
<text text-anchor="middle" x="398" y="-71" font-family="FreeSans" font-size="10.00"> ParentWorld</text>
</g>
<!-- Node7 -->
<g id="node12" class="node"><title>Node7</title>
<polygon fill="none" stroke="#bfbfbf" points="726.5,-66 726.5,-86 871.5,-86 871.5,-66 726.5,-66"/>
<text text-anchor="middle" x="799" y="-73" font-family="FreeSans" font-size="10.00">std::vector&lt; WorldManager * &gt;</text>
</g>
<!-- Node7&#45;&gt;Node6 -->
<g id="edge12" class="edge"><title>Node7&#45;&gt;Node6</title>
<path fill="none" stroke="#9a32cd" stroke-dasharray="5,2" d="M716.314,-79.5185C606.382,-84.1965 415.821,-92.3055 328.335,-96.0283"/>
<polygon fill="#9a32cd" stroke="#9a32cd" points="716.527,-83.0128 726.369,-79.0907 716.229,-76.0191 716.527,-83.0128"/>
<text text-anchor="middle" x="517" y="-94" font-family="FreeSans" font-size="10.00"> WorldManagers</text>
</g>
<!-- Node8&#45;&gt;Node7 -->
<g id="edge14" class="edge"><title>Node8&#45;&gt;Node7</title>
<path fill="none" stroke="#9a32cd" stroke-dasharray="5,2" d="M591.789,-55.4258C633.457,-59.5631 685.106,-64.6914 726.414,-68.7929"/>
<polygon fill="#9a32cd" stroke="#9a32cd" points="591.993,-51.929 581.696,-54.4238 591.302,-58.8948 591.993,-51.929"/>
<text text-anchor="middle" x="655" y="-70" font-family="FreeSans" font-size="10.00"> elements</text>
</g>
<!-- Node9 -->
<g id="node16" class="node"><title>Node9</title>
<a xlink:href="classMezzanine_1_1ManagerBase.xhtml" target="_top" xlink:title="This is the base class from which all the Entresol and World Managers inherit.">
<polygon fill="none" stroke="black" points="219,-0 219,-20 345,-20 345,-0 219,-0"/>
<text text-anchor="middle" x="282" y="-7" font-family="FreeSans" font-size="10.00">Mezzanine::ManagerBase</text>
</a>
</g>
<!-- Node9&#45;&gt;Node8 -->
<g id="edge16" class="edge"><title>Node9&#45;&gt;Node8</title>
<path fill="none" stroke="midnightblue" d="M354.309,-21.6925C386.528,-26.9025 424.096,-32.9773 455.009,-37.976"/>
<polygon fill="midnightblue" stroke="midnightblue" points="354.481,-18.175 344.051,-20.0338 353.364,-25.0852 354.481,-18.175"/>
</g>
<!-- Node10 -->
<g id="node18" class="node"><title>Node10</title>
<a xlink:href="classMezzanine_1_1Entresol.xhtml" target="_top" xlink:title="This is the main entry point for the entire library.">
<polygon fill="none" stroke="black" points="9.5,-27 9.5,-47 110.5,-47 110.5,-27 9.5,-27"/>
<text text-anchor="middle" x="60" y="-34" font-family="FreeSans" font-size="10.00">Mezzanine::Entresol</text>
</a>
</g>
<!-- Node10&#45;&gt;Node9 -->
<g id="edge18" class="edge"><title>Node10&#45;&gt;Node9</title>
<path fill="none" stroke="#9a32cd" stroke-dasharray="5,2" d="M121.042,-29.1148C126.773,-28.3923 132.495,-27.6778 138,-27 164.484,-23.7391 193.724,-20.264 218.898,-17.3112"/>
<polygon fill="#9a32cd" stroke="#9a32cd" points="120.24,-25.6883 110.76,-30.4177 121.12,-32.6327 120.24,-25.6883"/>
<text text-anchor="middle" x="166" y="-30" font-family="FreeSans" font-size="10.00"> TheEntresol</text>
</g>
<!-- Node11 -->
<g id="node20" class="node"><title>Node11</title>
<a xlink:href="classMezzanine_1_1Singleton.xhtml" target="_top" xlink:title="Mezzanine::Singleton\l\&lt; Entresol \&gt;">
<polygon fill="none" stroke="black" points="228.5,-38 228.5,-70 335.5,-70 335.5,-38 228.5,-38"/>
<text text-anchor="start" x="236.5" y="-57" font-family="FreeSans" font-size="10.00">Mezzanine::Singleton</text>
<text text-anchor="middle" x="282" y="-45" font-family="FreeSans" font-size="10.00">&lt; Entresol &gt;</text>
</a>
</g>
<!-- Node10&#45;&gt;Node11 -->
<g id="edge22" class="edge"><title>Node10&#45;&gt;Node11</title>
<path fill="none" stroke="#9a32cd" stroke-dasharray="5,2" d="M120.982,-46.1863C126.726,-46.8747 132.467,-47.4958 138,-48 167.778,-50.7134 201.132,-52.201 228.236,-53.0159"/>
<polygon fill="#9a32cd" stroke="#9a32cd" points="121.044,-42.6664 110.685,-44.8856 120.167,-49.6113 121.044,-42.6664"/>
<text text-anchor="middle" x="166" y="-55" font-family="FreeSans" font-size="10.00"> SingletonPtr</text>
</g>
<!-- Node11&#45;&gt;Node10 -->
<g id="edge20" class="edge"><title>Node11&#45;&gt;Node10</title>
<path fill="none" stroke="midnightblue" d="M218.127,-49.1088C183.988,-46.4946 142.546,-43.3211 110.653,-40.8788"/>
<polygon fill="midnightblue" stroke="midnightblue" points="218.23,-52.6269 228.468,-49.9007 218.765,-45.6473 218.23,-52.6269"/>
</g>
<!-- Node12&#45;&gt;Node5 -->
<g id="edge26" class="edge"><title>Node12&#45;&gt;Node5</title>
<path fill="none" stroke="#9a32cd" stroke-dasharray="5,2" d="M712.11,-275.317C679.383,-279.599 641.892,-284.979 608,-291 592.074,-293.829 574.704,-297.5 559.449,-300.923"/>
<polygon fill="#9a32cd" stroke="#9a32cd" points="712.637,-278.778 722.105,-274.024 711.738,-271.836 712.637,-278.778"/>
<text text-anchor="middle" x="655" y="-294" font-family="FreeSans" font-size="10.00"> PhysicsSettings</text>
</g>
<!-- Node13 -->
<g id="node27" class="node"><title>Node13</title>
<a xlink:href="classMezzanine_1_1Physics_1_1CollisionShape.xhtml" target="_top" xlink:title="This is the base class for all collision shapes.">
<polygon fill="none" stroke="black" points="467,-339 467,-371 567,-371 567,-339 467,-339"/>
<text text-anchor="start" x="475" y="-358" font-family="FreeSans" font-size="10.00">Mezzanine::Physics</text>
<text text-anchor="middle" x="517" y="-346" font-family="FreeSans" font-size="10.00">::CollisionShape</text>
</a>
</g>
<!-- Node13&#45;&gt;Node2 -->
<g id="edge78" class="edge"><title>Node13&#45;&gt;Node2</title>
<path fill="none" stroke="#9a32cd" stroke-dasharray="5,2" d="M537.295,-379.02C554.192,-397.209 579.949,-421.038 608,-433 665.773,-457.637 846.879,-466.096 935.773,-468.812"/>
<polygon fill="#9a32cd" stroke="#9a32cd" points="539.473,-376.209 530.179,-371.123 534.273,-380.895 539.473,-376.209"/>
<text text-anchor="middle" x="799" y="-469" font-family="FreeSans" font-size="10.00"> ProxyShape</text>
</g>
<!-- Node13&#45;&gt;Node12 -->
<g id="edge30" class="edge"><title>Node13&#45;&gt;Node12</title>
<path fill="none" stroke="#9a32cd" stroke-dasharray="5,2" d="M577.344,-344.657C614.359,-337.03 662.137,-324.846 702,-307 710.776,-303.071 711.452,-299.401 720,-295 729.913,-289.896 740.903,-285.179 751.457,-281.068"/>
<polygon fill="#9a32cd" stroke="#9a32cd" points="576.322,-341.292 567.205,-346.688 577.697,-348.155 576.322,-341.292"/>
<text text-anchor="middle" x="655" y="-340" font-family="FreeSans" font-size="10.00"> WorldObjectShape</text>
</g>
<!-- Node14 -->
<g id="node29" class="node"><title>Node14</title>
<a xlink:title="STL class.">
<polygon fill="none" stroke="#bfbfbf" points="253.5,-320 253.5,-340 310.5,-340 310.5,-320 253.5,-320"/>
<text text-anchor="middle" x="282" y="-327" font-family="FreeSans" font-size="10.00">std::string</text>
</a>
</g>
<!-- Node14&#45;&gt;Node5 -->
<g id="edge36" class="edge"><title>Node14&#45;&gt;Node5</title>
<path fill="none" stroke="#9a32cd" stroke-dasharray="5,2" d="M320.986,-323.934C336.24,-321.757 353.906,-319.478 370,-318 398.496,-315.384 430.195,-313.717 456.839,-312.669"/>
<polygon fill="#9a32cd" stroke="#9a32cd" points="320.249,-320.504 310.86,-325.413 321.261,-327.43 320.249,-320.504"/>
<text text-anchor="middle" x="398" y="-321" font-family="FreeSans" font-size="10.00"> Name</text>
</g>
<!-- Node14&#45;&gt;Node13 -->
<g id="edge32" class="edge"><title>Node14&#45;&gt;Node13</title>
<path fill="none" stroke="#9a32cd" stroke-dasharray="5,2" d="M320.972,-334.146C360.966,-338.401 423.346,-345.037 466.965,-349.677"/>
<polygon fill="#9a32cd" stroke="#9a32cd" points="321.13,-330.643 310.816,-333.065 320.389,-337.604 321.13,-330.643"/>
<text text-anchor="middle" x="398" y="-347" font-family="FreeSans" font-size="10.00"> Name</text>
</g>
<!-- Node15 -->
<g id="node31" class="node"><title>Node15</title>
<a xlink:title="STL class.">
<polygon fill="none" stroke="#bfbfbf" points="14.5,-314 14.5,-346 105.5,-346 105.5,-314 14.5,-314"/>
<text text-anchor="start" x="22.5" y="-333" font-family="FreeSans" font-size="10.00">std::basic_string&lt;</text>
<text text-anchor="middle" x="60" y="-321" font-family="FreeSans" font-size="10.00"> char &gt;</text>
</a>
</g>
<!-- Node15&#45;&gt;Node14 -->
<g id="edge34" class="edge"><title>Node15&#45;&gt;Node14</title>
<path fill="none" stroke="midnightblue" d="M115.928,-330C159.64,-330 218.613,-330 253.248,-330"/>
<polygon fill="midnightblue" stroke="midnightblue" points="115.729,-326.5 105.729,-330 115.729,-333.5 115.729,-326.5"/>
</g>
<!-- Node16 -->
<g id="node34" class="node"><title>Node16</title>
<polygon fill="none" stroke="#bfbfbf" points="940,-267 940,-299 1032,-299 1032,-267 940,-267"/>
<text text-anchor="start" x="948" y="-286" font-family="FreeSans" font-size="10.00">std::set&lt; Physics::</text>
<text text-anchor="middle" x="986" y="-274" font-family="FreeSans" font-size="10.00">Collision * &gt;</text>
</g>
<!-- Node16&#45;&gt;Node5 -->
<g id="edge38" class="edge"><title>Node16&#45;&gt;Node5</title>
<path fill="none" stroke="#9a32cd" stroke-dasharray="5,2" d="M929.493,-287.432C872.2,-291.819 780.976,-298.512 702,-303 660.275,-305.371 613.22,-307.397 577.009,-308.817"/>
<polygon fill="#9a32cd" stroke="#9a32cd" points="930.083,-290.897 939.785,-286.641 929.546,-283.918 930.083,-290.897"/>
<text text-anchor="middle" x="799" y="-304" font-family="FreeSans" font-size="10.00"> CurrentCollisions</text>
</g>
<!-- Node17&#45;&gt;Node16 -->
<g id="edge40" class="edge"><title>Node17&#45;&gt;Node16</title>
<path fill="none" stroke="#9a32cd" stroke-dasharray="5,2" d="M840.768,-211.549C874.703,-228.244 921.905,-251.466 953.173,-266.85"/>
<polygon fill="#9a32cd" stroke="#9a32cd" points="842.091,-208.299 831.573,-207.025 839.001,-214.58 842.091,-208.299"/>
<text text-anchor="middle" x="907" y="-250" font-family="FreeSans" font-size="10.00"> keys</text>
</g>
<!-- Node18 -->
<g id="node38" class="node"><title>Node18</title>
<polygon fill="none" stroke="#bfbfbf" points="469,-124 469,-144 565,-144 565,-124 469,-124"/>
<text text-anchor="middle" x="517" y="-131" font-family="FreeSans" font-size="10.00">std::vector&lt; Real &gt;</text>
</g>
<!-- Node18&#45;&gt;Node17 -->
<g id="edge42" class="edge"><title>Node18&#45;&gt;Node17</title>
<path fill="none" stroke="#9a32cd" stroke-dasharray="5,2" d="M575.094,-137.497C611.842,-140.545 660.139,-146.096 702,-156 721.861,-160.699 743.269,-168.154 760.907,-174.978"/>
<polygon fill="#9a32cd" stroke="#9a32cd" points="575.296,-134.002 565.051,-136.702 574.743,-140.98 575.296,-134.002"/>
<text text-anchor="middle" x="655" y="-159" font-family="FreeSans" font-size="10.00"> PenetrationDistances</text>
</g>
<!-- Node19 -->
<g id="node41" class="node"><title>Node19</title>
<a xlink:href="structMezzanine_1_1Physics_1_1CollisionInternalData.xhtml" target="_top" xlink:title="Used to insulate the interface from the implementation details for bullet.">
<polygon fill="none" stroke="black" points="462,-162 462,-194 572,-194 572,-162 462,-162"/>
<text text-anchor="start" x="470" y="-181" font-family="FreeSans" font-size="10.00">Mezzanine::Physics</text>
<text text-anchor="middle" x="517" y="-169" font-family="FreeSans" font-size="10.00">::CollisionInternalData</text>
</a>
</g>
<!-- Node19&#45;&gt;Node17 -->
<g id="edge46" class="edge"><title>Node19&#45;&gt;Node17</title>
<path fill="none" stroke="#9a32cd" stroke-dasharray="5,2" d="M582.369,-174.781C590.987,-174.458 599.705,-174.182 608,-174 649.768,-173.082 660.379,-170.38 702,-174 717.329,-175.333 733.869,-177.83 748.874,-180.508"/>
<polygon fill="#9a32cd" stroke="#9a32cd" points="582.182,-171.285 572.328,-175.179 582.459,-178.28 582.182,-171.285"/>
<text text-anchor="middle" x="655" y="-177" font-family="FreeSans" font-size="10.00"> InternalData</text>
</g>
<!-- Node20&#45;&gt;Node5 -->
<g id="edge48" class="edge"><title>Node20&#45;&gt;Node5</title>
<path fill="none" stroke="#9a32cd" stroke-dasharray="5,2" d="M709.932,-383.66C664.416,-377.224 616.755,-369.234 608,-363 594.39,-353.31 603.167,-340.283 590,-330 585.355,-326.373 580.088,-323.434 574.561,-321.053"/>
<polygon fill="#9a32cd" stroke="#9a32cd" points="709.513,-387.135 719.901,-385.051 710.48,-380.203 709.513,-387.135"/>
<text text-anchor="middle" x="655" y="-385" font-family="FreeSans" font-size="10.00"> GraphicsSettings</text>
</g>
<!-- Node21 -->
<g id="node46" class="node"><title>Node21</title>
<a xlink:href="classMezzanine_1_1Graphics_1_1Mesh.xhtml" target="_top" xlink:title="This class is used to check and modify the properties of a graphics mesh.">
<polygon fill="none" stroke="black" points="464.5,-533 464.5,-565 569.5,-565 569.5,-533 464.5,-533"/>
<text text-anchor="start" x="472.5" y="-552" font-family="FreeSans" font-size="10.00">Mezzanine::Graphics</text>
<text text-anchor="middle" x="517" y="-540" font-family="FreeSans" font-size="10.00">::Mesh</text>
</a>
</g>
<!-- Node21&#45;&gt;Node20 -->
<g id="edge52" class="edge"><title>Node21&#45;&gt;Node20</title>
<path fill="none" stroke="#9a32cd" stroke-dasharray="5,2" d="M579.903,-549.675C626.484,-548.778 684.735,-544.259 702,-528 735.831,-496.14 690.403,-460.828 720,-425 724.672,-419.345 730.532,-414.754 736.939,-411.028"/>
<polygon fill="#9a32cd" stroke="#9a32cd" points="579.808,-546.176 569.858,-549.817 579.907,-553.175 579.808,-546.176"/>
<text text-anchor="middle" x="655" y="-551" font-family="FreeSans" font-size="10.00"> WorldObjectMesh</text>
</g>
<!-- Node22 -->
<g id="node48" class="node"><title>Node22</title>
<a xlink:href="classMezzanine_1_1Graphics_1_1InternalMeshData.xhtml" target="_top" xlink:title="This class is used to store the internal structures needed by the Mesh class.">
<polygon fill="none" stroke="black" points="229.5,-560 229.5,-592 334.5,-592 334.5,-560 229.5,-560"/>
<text text-anchor="start" x="237.5" y="-579" font-family="FreeSans" font-size="10.00">Mezzanine::Graphics</text>
<text text-anchor="middle" x="282" y="-567" font-family="FreeSans" font-size="10.00">::InternalMeshData</text>
</a>
</g>
<!-- Node22&#45;&gt;Node21 -->
<g id="edge54" class="edge"><title>Node22&#45;&gt;Node21</title>
<path fill="none" stroke="#9a32cd" stroke-dasharray="5,2" d="M345.001,-568.762C382.335,-564.472 429.099,-559.099 464.437,-555.039"/>
<polygon fill="#9a32cd" stroke="#9a32cd" points="344.274,-565.322 334.739,-569.941 345.073,-572.276 344.274,-565.322"/>
<text text-anchor="middle" x="398" y="-568" font-family="FreeSans" font-size="10.00"> IMD</text>
</g>
<!-- Node23 -->
<g id="node50" class="node"><title>Node23</title>
<a xlink:href="classMezzanine_1_1Graphics_1_1Skeleton.xhtml" target="_top" xlink:title="This class encapsulates the Skeletal animation functionality of a Mesh.">
<polygon fill="none" stroke="black" points="229.5,-633 229.5,-665 334.5,-665 334.5,-633 229.5,-633"/>
<text text-anchor="start" x="237.5" y="-652" font-family="FreeSans" font-size="10.00">Mezzanine::Graphics</text>
<text text-anchor="middle" x="282" y="-640" font-family="FreeSans" font-size="10.00">::Skeleton</text>
</a>
</g>
<!-- Node23&#45;&gt;Node21 -->
<g id="edge56" class="edge"><title>Node23&#45;&gt;Node21</title>
<path fill="none" stroke="#9a32cd" stroke-dasharray="5,2" d="M323.322,-628.425C355.753,-612.631 402.247,-590.762 444,-574 451.583,-570.956 459.698,-567.943 467.659,-565.119"/>
<polygon fill="#9a32cd" stroke="#9a32cd" points="321.592,-625.375 314.148,-632.914 324.668,-631.663 321.592,-625.375"/>
<text text-anchor="middle" x="398" y="-608" font-family="FreeSans" font-size="10.00"> MeshSkel</text>
</g>
<!-- Node25 -->
<g id="node54" class="node"><title>Node25</title>
<a xlink:href="classMezzanine_1_1Graphics_1_1Bone.xhtml" target="_top" xlink:title="This class encapsulates the bones contained in a skeleton used for animation.">
<polygon fill="none" stroke="black" points="464.5,-633 464.5,-665 569.5,-665 569.5,-633 464.5,-633"/>
<text text-anchor="start" x="472.5" y="-652" font-family="FreeSans" font-size="10.00">Mezzanine::Graphics</text>
<text text-anchor="middle" x="517" y="-640" font-family="FreeSans" font-size="10.00">::Bone</text>
</a>
</g>
<!-- Node23&#45;&gt;Node25 -->
<g id="edge64" class="edge"><title>Node23&#45;&gt;Node25</title>
<path fill="none" stroke="#9a32cd" stroke-dasharray="5,2" d="M345.001,-649C382.335,-649 429.099,-649 464.437,-649"/>
<polygon fill="#9a32cd" stroke="#9a32cd" points="344.739,-645.5 334.739,-649 344.739,-652.5 344.739,-645.5"/>
<text text-anchor="middle" x="398" y="-652" font-family="FreeSans" font-size="10.00"> Host</text>
</g>
<!-- Node24 -->
<g id="node52" class="node"><title>Node24</title>
<polygon fill="none" stroke="#bfbfbf" points="746.5,-671 746.5,-691 851.5,-691 851.5,-671 746.5,-671"/>
<text text-anchor="middle" x="799" y="-678" font-family="FreeSans" font-size="10.00">std::vector&lt; Bone * &gt;</text>
</g>
<!-- Node24&#45;&gt;Node23 -->
<g id="edge58" class="edge"><title>Node24&#45;&gt;Node23</title>
<path fill="none" stroke="#9a32cd" stroke-dasharray="5,2" d="M736.116,-683.971C724.763,-684.4 713.031,-684.773 702,-685 554.208,-688.046 516.153,-687.155 370,-665 358.639,-663.278 346.493,-661.214 334.965,-659.151"/>
<polygon fill="#9a32cd" stroke="#9a32cd" points="736.551,-687.457 746.405,-683.564 736.274,-680.462 736.551,-687.457"/>
<text text-anchor="middle" x="517" y="-689" font-family="FreeSans" font-size="10.00"> Bones</text>
</g>
<!-- Node25&#45;&gt;Node24 -->
<g id="edge60" class="edge"><title>Node25&#45;&gt;Node24</title>
<path fill="none" stroke="#9a32cd" stroke-dasharray="5,2" d="M579.752,-656.121C629.719,-661.791 698.872,-669.638 746.069,-674.994"/>
<polygon fill="#9a32cd" stroke="#9a32cd" points="580.042,-652.631 569.711,-654.981 579.253,-659.587 580.042,-652.631"/>
<text text-anchor="middle" x="655" y="-672" font-family="FreeSans" font-size="10.00"> elements</text>
</g>
<!-- Node26 -->
<g id="node56" class="node"><title>Node26</title>
<a xlink:href="classMezzanine_1_1TransformableChildObject.xhtml" target="_top" xlink:title="This is an interface for all child 3D objects that can have their full transforms manipulated...">
<polygon fill="none" stroke="black" points="218,-710 218,-742 346,-742 346,-710 218,-710"/>
<text text-anchor="start" x="226" y="-729" font-family="FreeSans" font-size="10.00">Mezzanine::Transformable</text>
<text text-anchor="middle" x="282" y="-717" font-family="FreeSans" font-size="10.00">ChildObject</text>
</a>
</g>
<!-- Node26&#45;&gt;Node25 -->
<g id="edge62" class="edge"><title>Node26&#45;&gt;Node25</title>
<path fill="none" stroke="midnightblue" d="M340.69,-706.77C379.954,-693.904 431.023,-677.171 468.085,-665.027"/>
<polygon fill="midnightblue" stroke="midnightblue" points="339.391,-703.512 330.978,-709.952 341.57,-710.164 339.391,-703.512"/>
</g>
<!-- Node27 -->
<g id="node59" class="node"><title>Node27</title>
<a xlink:href="classMezzanine_1_1Graphics_1_1InternalSkeletonData.xhtml" target="_top" xlink:title="This class is used to store the internal structures needed by the Skeleton class.">
<polygon fill="none" stroke="black" points="4,-633 4,-665 116,-665 116,-633 4,-633"/>
<text text-anchor="start" x="12" y="-652" font-family="FreeSans" font-size="10.00">Mezzanine::Graphics</text>
<text text-anchor="middle" x="60" y="-640" font-family="FreeSans" font-size="10.00">::InternalSkeletonData</text>
</a>
</g>
<!-- Node27&#45;&gt;Node23 -->
<g id="edge66" class="edge"><title>Node27&#45;&gt;Node23</title>
<path fill="none" stroke="#9a32cd" stroke-dasharray="5,2" d="M126.048,-649C159.075,-649 198.491,-649 229.433,-649"/>
<polygon fill="#9a32cd" stroke="#9a32cd" points="126.02,-645.5 116.02,-649 126.02,-652.5 126.02,-645.5"/>
<text text-anchor="middle" x="166" y="-652" font-family="FreeSans" font-size="10.00"> ISD</text>
</g>
<!-- Node28 -->
<g id="node61" class="node"><title>Node28</title>
<polygon fill="none" stroke="#bfbfbf" points="220.5,-522 220.5,-542 343.5,-542 343.5,-522 220.5,-522"/>
<text text-anchor="middle" x="282" y="-529" font-family="FreeSans" font-size="10.00">std::vector&lt; SubMesh * &gt;</text>
</g>
<!-- Node28&#45;&gt;Node21 -->
<g id="edge68" class="edge"><title>Node28&#45;&gt;Node21</title>
<path fill="none" stroke="#9a32cd" stroke-dasharray="5,2" d="M353.731,-536.876C376.808,-538.473 402.487,-540.279 426,-542 438.326,-542.902 451.589,-543.904 464.074,-544.862"/>
<polygon fill="#9a32cd" stroke="#9a32cd" points="353.89,-533.379 343.672,-536.182 353.408,-540.362 353.89,-533.379"/>
<text text-anchor="middle" x="398" y="-545" font-family="FreeSans" font-size="10.00"> SubMeshes</text>
</g>
<!-- Node29 -->
<g id="node63" class="node"><title>Node29</title>
<a xlink:href="classMezzanine_1_1Graphics_1_1SubMesh.xhtml" target="_top" xlink:title="This class represents a sub&#45;section of an overall mesh.">
<polygon fill="none" stroke="black" points="7.5,-516 7.5,-548 112.5,-548 112.5,-516 7.5,-516"/>
<text text-anchor="start" x="15.5" y="-535" font-family="FreeSans" font-size="10.00">Mezzanine::Graphics</text>
<text text-anchor="middle" x="60" y="-523" font-family="FreeSans" font-size="10.00">::SubMesh</text>
</a>
</g>
<!-- Node29&#45;&gt;Node28 -->
<g id="edge70" class="edge"><title>Node29&#45;&gt;Node28</title>
<path fill="none" stroke="#9a32cd" stroke-dasharray="5,2" d="M122.724,-532C153.281,-532 189.9,-532 220.317,-532"/>
<polygon fill="#9a32cd" stroke="#9a32cd" points="122.611,-528.5 112.611,-532 122.611,-535.5 122.611,-528.5"/>
<text text-anchor="middle" x="166" y="-535" font-family="FreeSans" font-size="10.00"> elements</text>
</g>
<!-- Node30 -->
<g id="node65" class="node"><title>Node30</title>
<a xlink:href="classMezzanine_1_1Internal_1_1InternalWorldObjectGraphicsSettings.xhtml" target="_top" xlink:title="Used to store internal data about an world objects.">
<polygon fill="none" stroke="black" points="444.5,-458 444.5,-502 589.5,-502 589.5,-458 444.5,-458"/>
<text text-anchor="start" x="452.5" y="-489" font-family="FreeSans" font-size="10.00">Mezzanine::Internal</text>
<text text-anchor="start" x="452.5" y="-477" font-family="FreeSans" font-size="10.00">::InternalWorldObjectGraphics</text>
<text text-anchor="middle" x="517" y="-465" font-family="FreeSans" font-size="10.00">Settings</text>
</a>
</g>
<!-- Node30&#45;&gt;Node20 -->
<g id="edge72" class="edge"><title>Node30&#45;&gt;Node20</title>
<path fill="none" stroke="#9a32cd" stroke-dasharray="5,2" d="M599.761,-466.128C632.346,-459.18 669.637,-449.342 702,-436 710.668,-432.427 711.581,-429.126 720,-425 730.275,-419.964 741.623,-415.211 752.436,-411.037"/>
<polygon fill="#9a32cd" stroke="#9a32cd" points="598.891,-462.734 589.81,-468.192 600.313,-469.588 598.891,-462.734"/>
<text text-anchor="middle" x="655" y="-466" font-family="FreeSans" font-size="10.00"> IWOGS</text>
</g>
<!-- Node31 -->
<g id="node67" class="node"><title>Node31</title>
<polygon fill="none" stroke="#bfbfbf" points="212.5,-464 212.5,-496 351.5,-496 351.5,-464 212.5,-464"/>
<text text-anchor="start" x="220.5" y="-483" font-family="FreeSans" font-size="10.00">std::map&lt; Whole, Mezzanine</text>
<text text-anchor="middle" x="282" y="-471" font-family="FreeSans" font-size="10.00">::ColourValue &gt;</text>
</g>
<!-- Node31&#45;&gt;Node30 -->
<g id="edge74" class="edge"><title>Node31&#45;&gt;Node30</title>
<path fill="none" stroke="#9a32cd" stroke-dasharray="5,2" d="M361.66,-480C388.437,-480 418.15,-480 444.359,-480"/>
<polygon fill="#9a32cd" stroke="#9a32cd" points="361.554,-476.5 351.554,-480 361.554,-483.5 361.554,-476.5"/>
<text text-anchor="middle" x="398" y="-507" font-family="FreeSans" font-size="10.00"> Specular</text>
<text text-anchor="middle" x="398" y="-495" font-family="FreeSans" font-size="10.00">Ambient</text>
<text text-anchor="middle" x="398" y="-483" font-family="FreeSans" font-size="10.00">Diffuse</text>
</g>
<!-- Node32 -->
<g id="node69" class="node"><title>Node32</title>
<a xlink:href="classMezzanine_1_1ColourValue.xhtml" target="_top" xlink:title="This is a simple class for holding 4 reals representing the colour any give object or lightsource can...">
<polygon fill="none" stroke="black" points="0.5,-470 0.5,-490 119.5,-490 119.5,-470 0.5,-470"/>
<text text-anchor="middle" x="60" y="-477" font-family="FreeSans" font-size="10.00">Mezzanine::ColourValue</text>
</a>
</g>
<!-- Node32&#45;&gt;Node31 -->
<g id="edge76" class="edge"><title>Node32&#45;&gt;Node31</title>
<path fill="none" stroke="#9a32cd" stroke-dasharray="5,2" d="M130.028,-480C156.266,-480 186.057,-480 212.268,-480"/>
<polygon fill="#9a32cd" stroke="#9a32cd" points="129.784,-476.5 119.784,-480 129.784,-483.5 129.784,-476.5"/>
<text text-anchor="middle" x="166" y="-483" font-family="FreeSans" font-size="10.00"> elements</text>
</g>
</g>
</svg>
        <g id="navigator" transform="translate(0 0)" fill="#404254">
                <rect fill="#f2f5e9" fill-opacity="0.5" stroke="#606060" stroke-width=".5" x="0" y="0" width="60" height="60"/>
                <use id="zoomplus" xlink:href="#zoomPlus" x="17" y="9" onmousedown="handleZoom(evt,'in')"/>
                <use id="zoomminus" xlink:href="#zoomMin" x="42" y="9" onmousedown="handleZoom(evt,'out')"/>
                <use id="reset" xlink:href="#resetDef" x="30" y="36" onmousedown="handleReset()"/>
                <g id="arrowUp" xlink:href="#dirArrow" transform="translate(30 24)" onmousedown="handlePan(0,-1)">
                  <use xlink:href="#rim" fill="#404040">
                        <set attributeName="fill" to="#808080" begin="arrowUp.mouseover" end="arrowUp.mouseout"/>
                  </use>
                  <path fill="none" stroke="white" stroke-width="1.5" d="M0,-3.0v7 M-2.5,-0.5L0,-3.0L2.5,-0.5"/>
                </g>
                <g id="arrowRight" xlink:href="#dirArrow" transform="rotate(90) translate(36 -43)" onmousedown="handlePan(1,0)">
                  <use xlink:href="#rim" fill="#404040">
                        <set attributeName="fill" to="#808080" begin="arrowRight.mouseover" end="arrowRight.mouseout"/>
                  </use>
                  <path fill="none" stroke="white" stroke-width="1.5" d="M0,-3.0v7 M-2.5,-0.5L0,-3.0L2.5,-0.5"/>
                </g>
                <g id="arrowDown" xlink:href="#dirArrow" transform="rotate(180) translate(-30 -48)" onmousedown="handlePan(0,1)">
                  <use xlink:href="#rim" fill="#404040">
                        <set attributeName="fill" to="#808080" begin="arrowDown.mouseover" end="arrowDown.mouseout"/>
                  </use>
                  <path fill="none" stroke="white" stroke-width="1.5" d="M0,-3.0v7 M-2.5,-0.5L0,-3.0L2.5,-0.5"/>
                </g>
                <g id="arrowLeft" xlink:href="#dirArrow" transform="rotate(270) translate(-36 17)" onmousedown="handlePan(-1,0)">
                  <use xlink:href="#rim" fill="#404040">
                        <set attributeName="fill" to="#808080" begin="arrowLeft.mouseover" end="arrowLeft.mouseout"/>
                  </use>
                  <path fill="none" stroke="white" stroke-width="1.5" d="M0,-3.0v7 M-2.5,-0.5L0,-3.0L2.5,-0.5"/>
                </g>
        </g>
        <svg viewBox="0 0 15 15" width="100%" height="30px" preserveAspectRatio="xMaxYMin meet">
         <g id="arrow_out" transform="scale(0.3 0.3)">
          <a xlink:href="classMezzanine_1_1Physics_1_1SoftProxy__coll__graph_org.svg" target="_base">
           <rect id="button" ry="5" rx="5" y="6" x="6" height="38" width="38"
                fill="#f2f5e9" fill-opacity="0.5" stroke="#606060" stroke-width="1.0"/>
           <path id="arrow"
             d="M 11.500037,31.436501 C 11.940474,20.09759 22.043105,11.32322 32.158766,21.979434 L 37.068811,17.246167 C 37.068811,17.246167 37.088388,32 37.088388,32 L 22.160133,31.978069 C 22.160133,31.978069 26.997745,27.140456 26.997745,27.140456 C 18.528582,18.264221 13.291696,25.230495 11.500037,31.436501 z"
             style="fill:#404040;"/>
          </a>
         </g>
        </svg>
</svg>
