<?xml version="1.0" encoding="UTF-8" standalone="no"?>
<!DOCTYPE svg PUBLIC "-//W3C//DTD SVG 1.1//EN"
 "http://www.w3.org/Graphics/SVG/1.1/DTD/svg11.dtd">
<!-- Generated by graphviz version 2.26.3 (20100126.1600)
 -->
<!-- Title: Mezzanine::Physics::CollidablePair Pages: 1 -->
<!--zoomable 630 -->
<svg id="main" version="1.1" xmlns="http://www.w3.org/2000/svg" xmlns:xlink="http://www.w3.org/1999/xlink" xml:space="preserve" onload="init(evt)">
        <defs>
                <circle id="rim" cx="0" cy="0" r="7"/>
                <circle id="rim2" cx="0" cy="0" r="3.5"/>
                <g id="zoomPlus">
                        <use xlink:href="#rim" fill="#404040">
                                <set attributeName="fill" to="#808080" begin="zoomplus.mouseover" end="zoomplus.mouseout"/>
                        </use>
                        <path d="M-4,0h8M0,-4v8" fill="none" stroke="white" stroke-width="1.5" pointer-events="none"/>
                </g>
                <g id="zoomMin">
                        <use xlink:href="#rim" fill="#404040">
                                <set attributeName="fill" to="#808080" begin="zoomminus.mouseover" end="zoomminus.mouseout"/>
                        </use>
                        <path d="M-4,0h8" fill="none" stroke="white" stroke-width="1.5" pointer-events="none"/>
                </g>
                <g id="dirArrow">
                        <path fill="none" stroke="white" stroke-width="1.5" d="M0,-3.0v7 M-2.5,-0.5L0,-3.0L2.5,-0.5"/>
                </g>
               <g id="resetDef">
                       <use xlink:href="#rim2" fill="#404040">
                               <set attributeName="fill" to="#808080" begin="reset.mouseover" end="reset.mouseout"/>
                       </use>
               </g>
        </defs>

<script type="text/javascript">
var viewWidth = 2248;
var viewHeight = 630;
var sectionId = 'dynsection-0';
</script>
<script xlink:href="svgpan.js"/>
<svg id="graph" class="graph">
<g id="viewport">
<title>Mezzanine::Physics::CollidablePair</title>
<polygon fill="white" stroke="white" points="-4,5 -4,-626 2245,-626 2245,5 -4,5"/>
<!-- Node1 -->
<g id="node1" class="node"><title>Node1</title>
<polygon fill="#bfbfbf" stroke="black" points="346,-280 346,-312 446,-312 446,-280 346,-280"/>
<text text-anchor="start" x="354" y="-299" font-family="FreeSans" font-size="10.00">Mezzanine::Physics</text>
<text text-anchor="middle" x="396" y="-287" font-family="FreeSans" font-size="10.00">::CollidablePair</text>
</g>
<!-- Node28 -->
<g id="node62" class="node"><title>Node28</title>
<polygon fill="white" stroke="#bfbfbf" points="611.5,-302 611.5,-334 734.5,-334 734.5,-302 611.5,-302"/>
<text text-anchor="start" x="619.5" y="-321" font-family="FreeSans" font-size="10.00">std::map&lt; CollidablePair,</text>
<text text-anchor="middle" x="673" y="-309" font-family="FreeSans" font-size="10.00"> Collision * &gt;</text>
</g>
<!-- Node1&#45;&gt;Node28 -->
<g id="edge74" class="edge"><title>Node1&#45;&gt;Node28</title>
<path fill="none" stroke="#9a32cd" stroke-dasharray="5,2" d="M456.268,-300.787C502.162,-304.432 565.108,-309.431 611.341,-313.103"/>
<polygon fill="#9a32cd" stroke="#9a32cd" points="456.408,-297.287 446.163,-299.984 455.854,-304.265 456.408,-297.287"/>
<text text-anchor="middle" x="532" y="-313" font-family="FreeSans" font-size="10.00"> keys</text>
</g>
<!-- Node2 -->
<g id="node2" class="node"><title>Node2</title>
<a xlink:href="classMezzanine_1_1Physics_1_1CollidableProxy.html" target="_top" xlink:title="This is a proxy from which physics objects that can collide with each other are handled.">
<polygon fill="white" stroke="black" points="1193,-324 1193,-356 1293,-356 1293,-324 1193,-324"/>
<text text-anchor="start" x="1201" y="-343" font-family="FreeSans" font-size="10.00">Mezzanine::Physics</text>
<text text-anchor="middle" x="1243" y="-331" font-family="FreeSans" font-size="10.00">::CollidableProxy</text>
</a>
</g>
<!-- Node2&#45;&gt;Node1 -->
<g id="edge2" class="edge"><title>Node2&#45;&gt;Node1</title>
<path fill="none" stroke="#9a32cd" stroke-dasharray="5,2" d="M1182.82,-332.371C1088.89,-320.912 901.63,-299.868 742,-293 680.723,-290.364 665.332,-292.558 604,-293 550.01,-293.389 488.143,-294.347 446.011,-295.077"/>
<polygon fill="#9a32cd" stroke="#9a32cd" points="1182.63,-335.874 1192.98,-333.618 1183.48,-328.926 1182.63,-335.874"/>
<text text-anchor="middle" x="809" y="-314" font-family="FreeSans" font-size="10.00"> ProxyA</text>
<text text-anchor="middle" x="809" y="-302" font-family="FreeSans" font-size="10.00">ProxyB</text>
</g>
<!-- Node15 -->
<g id="node31" class="node"><title>Node15</title>
<a xlink:href="classMezzanine_1_1Physics_1_1Collision.html" target="_top" xlink:title="This is an event class used to track collsions in the physics world.">
<polygon fill="white" stroke="black" points="1471,-208 1471,-240 1571,-240 1571,-208 1471,-208"/>
<text text-anchor="start" x="1479" y="-227" font-family="FreeSans" font-size="10.00">Mezzanine::Physics</text>
<text text-anchor="middle" x="1521" y="-215" font-family="FreeSans" font-size="10.00">::Collision</text>
</a>
</g>
<!-- Node2&#45;&gt;Node15 -->
<g id="edge40" class="edge"><title>Node2&#45;&gt;Node15</title>
<path fill="none" stroke="#9a32cd" stroke-dasharray="5,2" d="M1287.3,-319.876C1301.98,-313.647 1318.52,-307.09 1334,-302 1374.86,-288.562 1388.17,-295.233 1428,-279 1453.36,-268.663 1480.04,-252.228 1498.29,-240.012"/>
<polygon fill="#9a32cd" stroke="#9a32cd" points="1285.75,-316.732 1277.95,-323.903 1288.52,-323.161 1285.75,-316.732"/>
<text text-anchor="middle" x="1381" y="-317" font-family="FreeSans" font-size="10.00"> ProxyA</text>
<text text-anchor="middle" x="1381" y="-305" font-family="FreeSans" font-size="10.00">ProxyB</text>
</g>
<!-- Node26 -->
<g id="node56" class="node"><title>Node26</title>
<a xlink:href="classMezzanine_1_1Physics_1_1RigidProxy.html" target="_top" xlink:title="This is a proxy from which rigid body proxys are handled.">
<polygon fill="white" stroke="black" points="1471,-372 1471,-404 1571,-404 1571,-372 1471,-372"/>
<text text-anchor="start" x="1479" y="-391" font-family="FreeSans" font-size="10.00">Mezzanine::Physics</text>
<text text-anchor="middle" x="1521" y="-379" font-family="FreeSans" font-size="10.00">::RigidProxy</text>
</a>
</g>
<!-- Node2&#45;&gt;Node26 -->
<g id="edge64" class="edge"><title>Node2&#45;&gt;Node26</title>
<path fill="none" stroke="midnightblue" d="M1303.08,-350.373C1353.2,-359.027 1423.8,-371.217 1470.91,-379.352"/>
<polygon fill="midnightblue" stroke="midnightblue" points="1303.47,-346.889 1293.02,-348.637 1302.28,-353.787 1303.47,-346.889"/>
</g>
<!-- Node27 -->
<g id="node59" class="node"><title>Node27</title>
<polygon fill="white" stroke="#bfbfbf" points="1446.5,-430 1446.5,-450 1595.5,-450 1595.5,-430 1446.5,-430"/>
<text text-anchor="middle" x="1521" y="-437" font-family="FreeSans" font-size="10.00">std::vector&lt; CollidableProxy * &gt;</text>
</g>
<!-- Node2&#45;&gt;Node27 -->
<g id="edge68" class="edge"><title>Node2&#45;&gt;Node27</title>
<path fill="none" stroke="#9a32cd" stroke-dasharray="5,2" d="M1289.49,-360.208C1303.69,-366.164 1319.41,-372.543 1334,-378 1387.5,-398.007 1450.78,-418.295 1488.31,-429.984"/>
<polygon fill="#9a32cd" stroke="#9a32cd" points="1290.51,-356.839 1279.94,-356.169 1287.79,-363.286 1290.51,-356.839"/>
<text text-anchor="middle" x="1381" y="-412" font-family="FreeSans" font-size="10.00"> elements</text>
</g>
<!-- Node3 -->
<g id="node4" class="node"><title>Node3</title>
<a xlink:href="classMezzanine_1_1WorldProxy.html" target="_top" xlink:title="This is the base class for proxy objects belonging to the various 3D subsystems.">
<polygon fill="white" stroke="black" points="2124,-238 2124,-258 2240,-258 2240,-238 2124,-238"/>
<text text-anchor="middle" x="2182" y="-245" font-family="FreeSans" font-size="10.00">Mezzanine::WorldProxy</text>
</a>
</g>
<!-- Node3&#45;&gt;Node2 -->
<g id="edge4" class="edge"><title>Node3&#45;&gt;Node2</title>
<path fill="none" stroke="midnightblue" d="M2160.45,-264.053C2122.84,-290.419 2041.9,-340 1965,-340 1521,-340 1521,-340 1521,-340 1441.36,-340 1348.9,-340 1293.22,-340"/>
<polygon fill="midnightblue" stroke="midnightblue" points="2162.53,-266.863 2168.63,-258.197 2158.46,-261.17 2162.53,-266.863"/>
</g>
<!-- Node4 -->
<g id="node6" class="node"><title>Node4</title>
<a xlink:href="classMezzanine_1_1TransformableObject.html" target="_top" xlink:title="This is an interface for all 3D objects that can have their full transforms manipulated.">
<polygon fill="white" stroke="black" points="1662,-231 1662,-263 1790,-263 1790,-231 1662,-231"/>
<text text-anchor="start" x="1670" y="-250" font-family="FreeSans" font-size="10.00">Mezzanine::Transformable</text>
<text text-anchor="middle" x="1726" y="-238" font-family="FreeSans" font-size="10.00">Object</text>
</a>
</g>
<!-- Node4&#45;&gt;Node3 -->
<g id="edge6" class="edge"><title>Node4&#45;&gt;Node3</title>
<path fill="none" stroke="midnightblue" d="M1800.54,-247.163C1890.94,-247.362 2041.39,-247.692 2123.74,-247.872"/>
<polygon fill="midnightblue" stroke="midnightblue" points="1800.37,-243.663 1790.37,-247.141 1800.36,-250.663 1800.37,-243.663"/>
</g>
<!-- Node5 -->
<g id="node8" class="node"><title>Node5</title>
<a xlink:href="classMezzanine_1_1WorldObject.html" target="_top" xlink:title="This is the base class from which classes that are insertable into the physical world.">
<polygon fill="white" stroke="black" points="1905,-186 1905,-206 2025,-206 2025,-186 1905,-186"/>
<text text-anchor="middle" x="1965" y="-193" font-family="FreeSans" font-size="10.00">Mezzanine::WorldObject</text>
</a>
</g>
<!-- Node4&#45;&gt;Node5 -->
<g id="edge10" class="edge"><title>Node4&#45;&gt;Node5</title>
<path fill="none" stroke="midnightblue" d="M1800.15,-231.176C1838.56,-222.982 1884.3,-213.221 1917.84,-206.063"/>
<polygon fill="midnightblue" stroke="midnightblue" points="1799.1,-227.823 1790.05,-233.333 1800.56,-234.669 1799.1,-227.823"/>
</g>
<!-- Node5&#45;&gt;Node3 -->
<g id="edge8" class="edge"><title>Node5&#45;&gt;Node3</title>
<path fill="none" stroke="#9a32cd" stroke-dasharray="5,2" d="M2035.05,-206.818C2057.84,-210.894 2083.14,-216.016 2106,-222 2122.73,-226.378 2141.08,-232.615 2155.56,-237.883"/>
<polygon fill="#9a32cd" stroke="#9a32cd" points="2035.57,-203.356 2025.12,-205.078 2034.36,-210.251 2035.57,-203.356"/>
<text text-anchor="middle" x="2076" y="-225" font-family="FreeSans" font-size="10.00"> ParentObject</text>
</g>
<!-- Node6 -->
<g id="node11" class="node"><title>Node6</title>
<a xlink:href="classMezzanine_1_1World.html" target="_top" xlink:title="This class represents a world for objects to interact within.">
<polygon fill="white" stroke="black" points="350,-50 350,-70 442,-70 442,-50 350,-50"/>
<text text-anchor="middle" x="396" y="-57" font-family="FreeSans" font-size="10.00">Mezzanine::World</text>
</a>
</g>
<!-- Node6&#45;&gt;Node5 -->
<g id="edge12" class="edge"><title>Node6&#45;&gt;Node5</title>
<path fill="none" stroke="#9a32cd" stroke-dasharray="5,2" d="M440.181,-47.2565C494.498,-32.738 589.728,-11 673,-11 673,-11 673,-11 1726,-11 1841.17,-11 1934.55,-147.007 1958.83,-185.79"/>
<polygon fill="#9a32cd" stroke="#9a32cd" points="438.936,-43.9676 430.203,-49.9659 440.771,-50.723 438.936,-43.9676"/>
<text text-anchor="middle" x="1243" y="-14" font-family="FreeSans" font-size="10.00"> ParentWorld</text>
</g>
<!-- Node8 -->
<g id="node15" class="node"><title>Node8</title>
<a xlink:href="classMezzanine_1_1WorldManager.html" target="_top" xlink:title="This is the base class for all managers that belong to a single world instance.">
<polygon fill="white" stroke="black" points="608.5,-91 608.5,-111 737.5,-111 737.5,-91 608.5,-91"/>
<text text-anchor="middle" x="673" y="-98" font-family="FreeSans" font-size="10.00">Mezzanine::WorldManager</text>
</a>
</g>
<!-- Node6&#45;&gt;Node8 -->
<g id="edge26" class="edge"><title>Node6&#45;&gt;Node8</title>
<path fill="none" stroke="#9a32cd" stroke-dasharray="5,2" d="M452.375,-68.2776C490.18,-73.8359 541.081,-81.3342 586,-88 593.251,-89.076 600.842,-90.2056 608.389,-91.3308"/>
<polygon fill="#9a32cd" stroke="#9a32cd" points="452.479,-64.7552 442.076,-66.7636 451.46,-71.6808 452.479,-64.7552"/>
<text text-anchor="middle" x="532" y="-91" font-family="FreeSans" font-size="10.00"> ParentWorld</text>
</g>
<!-- Node7 -->
<g id="node13" class="node"><title>Node7</title>
<polygon fill="white" stroke="#bfbfbf" points="876.5,-63 876.5,-83 1021.5,-83 1021.5,-63 876.5,-63"/>
<text text-anchor="middle" x="949" y="-70" font-family="FreeSans" font-size="10.00">std::vector&lt; WorldManager * &gt;</text>
</g>
<!-- Node7&#45;&gt;Node6 -->
<g id="edge14" class="edge"><title>Node7&#45;&gt;Node6</title>
<path fill="none" stroke="#9a32cd" stroke-dasharray="5,2" d="M866.236,-71.0544C748.248,-68.2807 535.65,-63.2829 442.197,-61.086"/>
<polygon fill="#9a32cd" stroke="#9a32cd" points="866.227,-74.555 876.306,-71.2911 866.391,-67.557 866.227,-74.555"/>
<text text-anchor="middle" x="673" y="-72" font-family="FreeSans" font-size="10.00"> WorldManagers</text>
</g>
<!-- Node8&#45;&gt;Node7 -->
<g id="edge16" class="edge"><title>Node8&#45;&gt;Node7</title>
<path fill="none" stroke="#9a32cd" stroke-dasharray="5,2" d="M747.674,-93.4244C787.68,-89.3658 836.752,-84.3875 876.432,-80.362"/>
<polygon fill="#9a32cd" stroke="#9a32cd" points="747.305,-89.9437 737.71,-94.4352 748.012,-96.908 747.305,-89.9437"/>
<text text-anchor="middle" x="809" y="-95" font-family="FreeSans" font-size="10.00"> elements</text>
</g>
<!-- Node18 -->
<g id="node38" class="node"><title>Node18</title>
<a xlink:href="classMezzanine_1_1Physics_1_1PhysicsManager.html" target="_top" xlink:title="This is simply a place for storing all the Physics Related functions.">
<polygon fill="white" stroke="black" points="899,-420 899,-452 999,-452 999,-420 899,-420"/>
<text text-anchor="start" x="907" y="-439" font-family="FreeSans" font-size="10.00">Mezzanine::Physics</text>
<text text-anchor="middle" x="949" y="-427" font-family="FreeSans" font-size="10.00">::PhysicsManager</text>
</a>
</g>
<!-- Node8&#45;&gt;Node18 -->
<g id="edge44" class="edge"><title>Node8&#45;&gt;Node18</title>
<path fill="none" stroke="midnightblue" d="M680.921,-120.279C693.479,-148.433 720.635,-200.535 760,-229 796.707,-255.543 823.046,-228.187 858,-257 911.532,-301.127 936.827,-384.813 945.436,-419.892"/>
<polygon fill="midnightblue" stroke="midnightblue" points="684.129,-118.878 676.959,-111.078 677.699,-121.647 684.129,-118.878"/>
</g>
<!-- Node9 -->
<g id="node17" class="node"><title>Node9</title>
<a xlink:href="classMezzanine_1_1ManagerBase.html" target="_top" xlink:title="This is the base class from which all the Entresol and World Managers inherit.">
<polygon fill="white" stroke="black" points="333,-90 333,-110 459,-110 459,-90 333,-90"/>
<text text-anchor="middle" x="396" y="-97" font-family="FreeSans" font-size="10.00">Mezzanine::ManagerBase</text>
</a>
</g>
<!-- Node9&#45;&gt;Node8 -->
<g id="edge18" class="edge"><title>Node9&#45;&gt;Node8</title>
<path fill="none" stroke="midnightblue" d="M469.245,-102.813C472.202,-102.885 475.129,-102.948 478,-103 525.992,-103.878 538.003,-103.552 586,-103 593.251,-102.917 600.842,-102.794 608.39,-102.65"/>
<polygon fill="midnightblue" stroke="midnightblue" points="469.207,-99.3113 459.117,-102.542 469.02,-106.309 469.207,-99.3113"/>
</g>
<!-- Node10 -->
<g id="node19" class="node"><title>Node10</title>
<a xlink:href="classMezzanine_1_1Entresol.html" target="_top" xlink:title="This is the main entry point for the entire library.">
<polygon fill="white" stroke="black" points="134.5,-33 134.5,-53 235.5,-53 235.5,-33 134.5,-33"/>
<text text-anchor="middle" x="185" y="-40" font-family="FreeSans" font-size="10.00">Mezzanine::Entresol</text>
</a>
</g>
<!-- Node10&#45;&gt;Node9 -->
<g id="edge20" class="edge"><title>Node10&#45;&gt;Node9</title>
<path fill="none" stroke="#9a32cd" stroke-dasharray="5,2" d="M232.104,-55.7247C270.331,-66.0514 323.491,-80.4123 358.781,-89.9456"/>
<polygon fill="#9a32cd" stroke="#9a32cd" points="232.804,-52.2884 222.237,-53.0592 230.978,-59.0461 232.804,-52.2884"/>
<text text-anchor="middle" x="286" y="-80" font-family="FreeSans" font-size="10.00"> TheEntresol</text>
</g>
<!-- Node11 -->
<g id="node21" class="node"><title>Node11</title>
<a xlink:href="classMezzanine_1_1Singleton.html" target="_top" xlink:title="Mezzanine::Singleton\l\&lt; Entresol \&gt;">
<polygon fill="white" stroke="black" points="342.5,-0 342.5,-32 449.5,-32 449.5,-0 342.5,-0"/>
<text text-anchor="start" x="350.5" y="-19" font-family="FreeSans" font-size="10.00">Mezzanine::Singleton</text>
<text text-anchor="middle" x="396" y="-7" font-family="FreeSans" font-size="10.00">&lt; Entresol &gt;</text>
</a>
</g>
<!-- Node10&#45;&gt;Node11 -->
<g id="edge24" class="edge"><title>Node10&#45;&gt;Node11</title>
<path fill="none" stroke="#9a32cd" stroke-dasharray="5,2" d="M213.943,-28.5755C227.049,-22.8182 242.951,-16.8798 258,-14 285.535,-8.73107 316.726,-8.69602 342.48,-10.2113"/>
<polygon fill="#9a32cd" stroke="#9a32cd" points="212.159,-25.5426 204.525,-32.8892 215.075,-31.9067 212.159,-25.5426"/>
<text text-anchor="middle" x="286" y="-17" font-family="FreeSans" font-size="10.00"> SingletonPtr</text>
</g>
<!-- Node11&#45;&gt;Node10 -->
<g id="edge22" class="edge"><title>Node11&#45;&gt;Node10</title>
<path fill="none" stroke="midnightblue" d="M332.031,-26.4523C325.943,-27.3535 319.858,-28.2183 314,-29 288.21,-32.4417 259.432,-35.6276 235.613,-38.0879"/>
<polygon fill="midnightblue" stroke="midnightblue" points="332.878,-29.8642 342.243,-24.9096 331.832,-22.9428 332.878,-29.8642"/>
</g>
<!-- Node12 -->
<g id="node25" class="node"><title>Node12</title>
<a xlink:title="STL class.">
<polygon fill="white" stroke="#bfbfbf" points="156.5,-206 156.5,-226 213.5,-226 213.5,-206 156.5,-206"/>
<text text-anchor="middle" x="185" y="-213" font-family="FreeSans" font-size="10.00">std::string</text>
</a>
</g>
<!-- Node12&#45;&gt;Node5 -->
<g id="edge28" class="edge"><title>Node12&#45;&gt;Node5</title>
<path fill="none" stroke="#9a32cd" stroke-dasharray="5,2" d="M210.532,-200.72C249.227,-179.053 325.679,-142 396,-142 396,-142 396,-142 1726,-142 1804.91,-142 1894.95,-170.353 1938.56,-185.97"/>
<polygon fill="#9a32cd" stroke="#9a32cd" points="208.478,-197.863 201.534,-205.866 211.953,-203.94 208.478,-197.863"/>
<text text-anchor="middle" x="1096" y="-145" font-family="FreeSans" font-size="10.00"> ObjectName</text>
</g>
<!-- Node34 -->
<g id="node80" class="node"><title>Node34</title>
<a xlink:href="classMezzanine_1_1WorldTrigger.html" target="_top" xlink:title="This is an abstract class for creating in&#45;game triggers.">
<polygon fill="white" stroke="black" points="335,-454 335,-474 457,-474 457,-454 335,-454"/>
<text text-anchor="middle" x="396" y="-461" font-family="FreeSans" font-size="10.00">Mezzanine::WorldTrigger</text>
</a>
</g>
<!-- Node12&#45;&gt;Node34 -->
<g id="edge96" class="edge"><title>Node12&#45;&gt;Node34</title>
<path fill="none" stroke="#9a32cd" stroke-dasharray="5,2" d="M193.136,-235.693C211.661,-278.294 260.95,-379.848 332,-438 340.26,-444.76 350.512,-449.963 360.373,-453.873"/>
<polygon fill="#9a32cd" stroke="#9a32cd" points="196.323,-234.245 189.186,-226.415 189.883,-236.987 196.323,-234.245"/>
<text text-anchor="middle" x="286" y="-421" font-family="FreeSans" font-size="10.00"> Name</text>
</g>
<!-- Node37 -->
<g id="node87" class="node"><title>Node37</title>
<a xlink:href="classMezzanine_1_1Physics_1_1CollisionShape.html" target="_top" xlink:title="This is the base class for all collision shapes.">
<polygon fill="white" stroke="black" points="482,-200 482,-232 582,-232 582,-200 482,-200"/>
<text text-anchor="start" x="490" y="-219" font-family="FreeSans" font-size="10.00">Mezzanine::Physics</text>
<text text-anchor="middle" x="532" y="-207" font-family="FreeSans" font-size="10.00">::CollisionShape</text>
</a>
</g>
<!-- Node12&#45;&gt;Node37 -->
<g id="edge104" class="edge"><title>Node12&#45;&gt;Node37</title>
<path fill="none" stroke="#9a32cd" stroke-dasharray="5,2" d="M224.025,-216C287.256,-216 412.034,-216 481.793,-216"/>
<polygon fill="#9a32cd" stroke="#9a32cd" points="223.692,-212.5 213.692,-216 223.692,-219.5 223.692,-212.5"/>
<text text-anchor="middle" x="286" y="-219" font-family="FreeSans" font-size="10.00"> Name</text>
</g>
<!-- Node13 -->
<g id="node27" class="node"><title>Node13</title>
<a xlink:title="STL class.">
<polygon fill="white" stroke="#bfbfbf" points="0.5,-200 0.5,-232 91.5,-232 91.5,-200 0.5,-200"/>
<text text-anchor="start" x="8.5" y="-219" font-family="FreeSans" font-size="10.00">std::basic_string&lt;</text>
<text text-anchor="middle" x="46" y="-207" font-family="FreeSans" font-size="10.00"> char &gt;</text>
</a>
</g>
<!-- Node13&#45;&gt;Node12 -->
<g id="edge30" class="edge"><title>Node13&#45;&gt;Node12</title>
<path fill="none" stroke="midnightblue" d="M101.751,-216C120.501,-216 140.641,-216 156.415,-216"/>
<polygon fill="midnightblue" stroke="midnightblue" points="101.514,-212.5 91.5138,-216 101.514,-219.5 101.514,-212.5"/>
</g>
<!-- Node14 -->
<g id="node29" class="node"><title>Node14</title>
<polygon fill="white" stroke="#bfbfbf" points="1680,-180 1680,-212 1772,-212 1772,-180 1680,-180"/>
<text text-anchor="start" x="1688" y="-199" font-family="FreeSans" font-size="10.00">std::set&lt; Physics::</text>
<text text-anchor="middle" x="1726" y="-187" font-family="FreeSans" font-size="10.00">Collision * &gt;</text>
</g>
<!-- Node14&#45;&gt;Node5 -->
<g id="edge32" class="edge"><title>Node14&#45;&gt;Node5</title>
<path fill="none" stroke="#9a32cd" stroke-dasharray="5,2" d="M1782.14,-196C1818.92,-196 1866.96,-196 1904.57,-196"/>
<polygon fill="#9a32cd" stroke="#9a32cd" points="1782.08,-192.5 1772.08,-196 1782.08,-199.5 1782.08,-192.5"/>
<text text-anchor="middle" x="1846" y="-199" font-family="FreeSans" font-size="10.00"> CurrentCollisions</text>
</g>
<!-- Node15&#45;&gt;Node14 -->
<g id="edge34" class="edge"><title>Node15&#45;&gt;Node14</title>
<path fill="none" stroke="#9a32cd" stroke-dasharray="5,2" d="M1581.14,-215.786C1612.67,-211.479 1650.7,-206.285 1679.87,-202.3"/>
<polygon fill="#9a32cd" stroke="#9a32cd" points="1580.58,-212.329 1571.15,-217.15 1581.53,-219.265 1580.58,-212.329"/>
<text text-anchor="middle" x="1629" y="-213" font-family="FreeSans" font-size="10.00"> keys</text>
</g>
<!-- Node15&#45;&gt;Node28 -->
<g id="edge72" class="edge"><title>Node15&#45;&gt;Node28</title>
<path fill="none" stroke="#9a32cd" stroke-dasharray="5,2" d="M1460.98,-234.904C1450.02,-236.729 1438.68,-238.511 1428,-240 1175.66,-275.173 1111.53,-275.787 858,-301 816.918,-305.086 770.668,-309.336 734.689,-312.564"/>
<polygon fill="#9a32cd" stroke="#9a32cd" points="1461.62,-238.345 1470.9,-233.223 1460.45,-231.443 1461.62,-238.345"/>
<text text-anchor="middle" x="1096" y="-286" font-family="FreeSans" font-size="10.00"> elements</text>
</g>
<!-- Node16 -->
<g id="node33" class="node"><title>Node16</title>
<polygon fill="white" stroke="#bfbfbf" points="1195,-170 1195,-190 1291,-190 1291,-170 1195,-170"/>
<text text-anchor="middle" x="1243" y="-177" font-family="FreeSans" font-size="10.00">std::vector&lt; Real &gt;</text>
</g>
<!-- Node16&#45;&gt;Node15 -->
<g id="edge36" class="edge"><title>Node16&#45;&gt;Node15</title>
<path fill="none" stroke="#9a32cd" stroke-dasharray="5,2" d="M1301.3,-188.517C1337.75,-193.917 1385.64,-201.152 1428,-208 1441.91,-210.249 1456.97,-212.792 1470.84,-215.179"/>
<polygon fill="#9a32cd" stroke="#9a32cd" points="1301.75,-185.044 1291.34,-187.044 1300.72,-191.969 1301.75,-185.044"/>
<text text-anchor="middle" x="1381" y="-211" font-family="FreeSans" font-size="10.00"> PenetrationDistances</text>
</g>
<!-- Node17 -->
<g id="node35" class="node"><title>Node17</title>
<a xlink:href="structMezzanine_1_1Physics_1_1CollisionInternalData.html" target="_top" xlink:title="Used to insulate the interface from the implementation details for bullet.">
<polygon fill="white" stroke="black" points="1188,-208 1188,-240 1298,-240 1298,-208 1188,-208"/>
<text text-anchor="start" x="1196" y="-227" font-family="FreeSans" font-size="10.00">Mezzanine::Physics</text>
<text text-anchor="middle" x="1243" y="-215" font-family="FreeSans" font-size="10.00">::CollisionInternalData</text>
</a>
</g>
<!-- Node17&#45;&gt;Node15 -->
<g id="edge38" class="edge"><title>Node17&#45;&gt;Node15</title>
<path fill="none" stroke="#9a32cd" stroke-dasharray="5,2" d="M1308.27,-224C1358.01,-224 1425.48,-224 1470.98,-224"/>
<polygon fill="#9a32cd" stroke="#9a32cd" points="1308.26,-220.5 1298.26,-224 1308.26,-227.5 1308.26,-220.5"/>
<text text-anchor="middle" x="1381" y="-227" font-family="FreeSans" font-size="10.00"> InternalData</text>
</g>
<!-- Node18&#45;&gt;Node2 -->
<g id="edge42" class="edge"><title>Node18&#45;&gt;Node2</title>
<path fill="none" stroke="#9a32cd" stroke-dasharray="5,2" d="M973.394,-412.787C990.633,-397.783 1015.03,-379.213 1040,-369 1089.43,-348.783 1150.63,-342.301 1192.83,-340.4"/>
<polygon fill="#9a32cd" stroke="#9a32cd" points="970.658,-410.54 965.536,-419.814 975.323,-415.758 970.658,-410.54"/>
<text text-anchor="middle" x="1096" y="-372" font-family="FreeSans" font-size="10.00"> Manager</text>
</g>
<!-- Node31 -->
<g id="node70" class="node"><title>Node31</title>
<a xlink:href="classMezzanine_1_1Physics_1_1DebugDrawWorkUnit.html" target="_top" xlink:title="This is a Mezzanine::Threading::iWorkUnit for the updating of the physics debug drawer.">
<polygon fill="white" stroke="black" points="1188,-569 1188,-601 1298,-601 1298,-569 1188,-569"/>
<text text-anchor="start" x="1196" y="-588" font-family="FreeSans" font-size="10.00">Mezzanine::Physics</text>
<text text-anchor="middle" x="1243" y="-576" font-family="FreeSans" font-size="10.00">::DebugDrawWorkUnit</text>
</a>
</g>
<!-- Node18&#45;&gt;Node31 -->
<g id="edge84" class="edge"><title>Node18&#45;&gt;Node31</title>
<path fill="none" stroke="#9a32cd" stroke-dasharray="5,2" d="M959.475,-461.599C973.179,-491.485 1000.23,-539.775 1040,-563 1064.26,-577.166 1136.3,-582.224 1187.65,-584.022"/>
<polygon fill="#9a32cd" stroke="#9a32cd" points="962.58,-459.967 955.34,-452.232 956.176,-462.794 962.58,-459.967"/>
<text text-anchor="middle" x="1096" y="-585" font-family="FreeSans" font-size="10.00"> TargetManager</text>
</g>
<!-- Node32 -->
<g id="node74" class="node"><title>Node32</title>
<a xlink:href="classMezzanine_1_1Physics_1_1WorldTriggerUpdateWorkUnit.html" target="_top" xlink:title="This is a Mezzanine::Threading::iWorkUnit for the updating of WorldTriggers.">
<polygon fill="white" stroke="black" points="1170,-382 1170,-414 1316,-414 1316,-382 1170,-382"/>
<text text-anchor="start" x="1178" y="-401" font-family="FreeSans" font-size="10.00">Mezzanine::Physics</text>
<text text-anchor="middle" x="1243" y="-389" font-family="FreeSans" font-size="10.00">::WorldTriggerUpdateWorkUnit</text>
</a>
</g>
<!-- Node18&#45;&gt;Node32 -->
<g id="edge90" class="edge"><title>Node18&#45;&gt;Node32</title>
<path fill="none" stroke="#9a32cd" stroke-dasharray="5,2" d="M984.129,-414.941C1000.5,-406.316 1020.62,-397.349 1040,-393 1082.31,-383.507 1130.83,-384.29 1169.82,-387.667"/>
<polygon fill="#9a32cd" stroke="#9a32cd" points="982.06,-412.083 974.955,-419.942 985.41,-418.229 982.06,-412.083"/>
<text text-anchor="middle" x="1096" y="-396" font-family="FreeSans" font-size="10.00"> TargetManager</text>
</g>
<!-- Node19 -->
<g id="node41" class="node"><title>Node19</title>
<a xlink:href="classMezzanine_1_1Threading_1_1ThreadSpecificStorage.html" target="_top" xlink:title="A thread specific collection of double&#45;buffered and algorithm specific resources.">
<polygon fill="white" stroke="black" points="613.5,-452 613.5,-484 732.5,-484 732.5,-452 613.5,-452"/>
<text text-anchor="start" x="621.5" y="-471" font-family="FreeSans" font-size="10.00">Mezzanine::Threading</text>
<text text-anchor="middle" x="673" y="-459" font-family="FreeSans" font-size="10.00">::ThreadSpecificStorage</text>
</a>
</g>
<!-- Node19&#45;&gt;Node18 -->
<g id="edge46" class="edge"><title>Node19&#45;&gt;Node18</title>
<path fill="none" stroke="#9a32cd" stroke-dasharray="5,2" d="M743.101,-456.318C748.812,-455.489 754.499,-454.704 760,-454 806.917,-447.997 860.621,-443.068 898.763,-439.896"/>
<polygon fill="#9a32cd" stroke="#9a32cd" points="742.205,-452.913 732.831,-457.851 743.238,-459.837 742.205,-452.913"/>
<text text-anchor="middle" x="809" y="-457" font-family="FreeSans" font-size="10.00"> ThreadResources</text>
</g>
<!-- Node20 -->
<g id="node43" class="node"><title>Node20</title>
<a xlink:href="classMezzanine_1_1Threading_1_1DefaultWorkUnit.html" target="_top" xlink:title="Default implementation of WorkUnit. This represents on piece of work through time.">
<polygon fill="white" stroke="black" points="618,-540 618,-572 728,-572 728,-540 618,-540"/>
<text text-anchor="start" x="626" y="-559" font-family="FreeSans" font-size="10.00">Mezzanine::Threading</text>
<text text-anchor="middle" x="673" y="-547" font-family="FreeSans" font-size="10.00">::DefaultWorkUnit</text>
</a>
</g>
<!-- Node20&#45;&gt;Node18 -->
<g id="edge48" class="edge"><title>Node20&#45;&gt;Node18</title>
<path fill="none" stroke="#9a32cd" stroke-dasharray="5,2" d="M727.429,-536.413C732.361,-534.598 737.275,-532.774 742,-531 750.036,-527.982 751.802,-526.542 760,-524 802.731,-510.749 817.248,-519.463 858,-501 885.765,-488.421 913.701,-466.824 931.155,-452"/>
<polygon fill="#9a32cd" stroke="#9a32cd" points="726.153,-533.153 717.967,-539.879 728.56,-539.726 726.153,-533.153"/>
<text text-anchor="middle" x="809" y="-527" font-family="FreeSans" font-size="10.00"> SimulationWork</text>
</g>
<!-- Node20&#45;&gt;Node31 -->
<g id="edge82" class="edge"><title>Node20&#45;&gt;Node31</title>
<path fill="none" stroke="midnightblue" d="M738.285,-568.299C830.427,-584.159 1003.92,-608.524 1152,-598 1163.62,-597.174 1176.01,-595.762 1187.79,-594.166"/>
<polygon fill="midnightblue" stroke="midnightblue" points="738.723,-564.823 728.271,-566.554 737.521,-571.719 738.723,-564.823"/>
</g>
<!-- Node20&#45;&gt;Node32 -->
<g id="edge88" class="edge"><title>Node20&#45;&gt;Node32</title>
<path fill="none" stroke="midnightblue" d="M738.393,-552.26C774.037,-549.39 818.761,-544.431 858,-536 992.389,-507.124 1024.05,-490.22 1152,-440 1171.76,-432.244 1193.35,-422.342 1210.55,-414.101"/>
<polygon fill="midnightblue" stroke="midnightblue" points="737.819,-548.794 728.117,-553.05 738.356,-555.773 737.819,-548.794"/>
</g>
<!-- Node21 -->
<g id="node45" class="node"><title>Node21</title>
<a xlink:href="classMezzanine_1_1Threading_1_1iWorkUnit.html" target="_top" xlink:title="Interface of a WorkUnit. This represents on piece of work through time.">
<polygon fill="white" stroke="black" points="130,-527 130,-559 240,-559 240,-527 130,-527"/>
<text text-anchor="start" x="138" y="-546" font-family="FreeSans" font-size="10.00">Mezzanine::Threading</text>
<text text-anchor="middle" x="185" y="-534" font-family="FreeSans" font-size="10.00">::iWorkUnit</text>
</a>
</g>
<!-- Node21&#45;&gt;Node20 -->
<g id="edge50" class="edge"><title>Node21&#45;&gt;Node20</title>
<path fill="none" stroke="midnightblue" d="M250.358,-536.517C275.811,-534.293 305.241,-532.09 332,-531 388.842,-528.684 403.208,-527.679 460,-531 513.896,-534.152 575.072,-541.754 617.99,-547.753"/>
<polygon fill="midnightblue" stroke="midnightblue" points="249.73,-533.059 240.081,-537.434 250.353,-540.031 249.73,-533.059"/>
</g>
<!-- Node22 -->
<g id="node47" class="node"><title>Node22</title>
<polygon fill="white" stroke="#bfbfbf" points="333.5,-590 333.5,-622 458.5,-622 458.5,-590 333.5,-590"/>
<text text-anchor="start" x="341.5" y="-609" font-family="FreeSans" font-size="10.00">std::vector&lt; Mezzanine</text>
<text text-anchor="middle" x="396" y="-597" font-family="FreeSans" font-size="10.00">::Threading::iWorkUnit * &gt;</text>
</g>
<!-- Node21&#45;&gt;Node22 -->
<g id="edge54" class="edge"><title>Node21&#45;&gt;Node22</title>
<path fill="none" stroke="#9a32cd" stroke-dasharray="5,2" d="M248.702,-562.02C278.584,-570.942 313.802,-581.458 342.308,-589.969"/>
<polygon fill="#9a32cd" stroke="#9a32cd" points="249.374,-558.568 238.79,-559.061 247.371,-565.275 249.374,-558.568"/>
<text text-anchor="middle" x="286" y="-583" font-family="FreeSans" font-size="10.00"> elements</text>
</g>
<!-- Node22&#45;&gt;Node20 -->
<g id="edge52" class="edge"><title>Node22&#45;&gt;Node20</title>
<path fill="none" stroke="#9a32cd" stroke-dasharray="5,2" d="M469.137,-592.997C504.454,-586.696 547.438,-578.996 586,-572 596.275,-570.136 607.23,-568.133 617.779,-566.197"/>
<polygon fill="#9a32cd" stroke="#9a32cd" points="468.145,-589.619 458.915,-594.82 469.374,-596.51 468.145,-589.619"/>
<text text-anchor="middle" x="532" y="-593" font-family="FreeSans" font-size="10.00"> Dependencies</text>
</g>
<!-- Node23 -->
<g id="node50" class="node"><title>Node23</title>
<a xlink:href="structMezzanine_1_1DefaultRollingAverage.html" target="_top" xlink:title="Mezzanine::DefaultRolling\lAverage\&lt; Whole \&gt;">
<polygon fill="white" stroke="black" points="332.5,-540 332.5,-572 459.5,-572 459.5,-540 332.5,-540"/>
<text text-anchor="start" x="340.5" y="-559" font-family="FreeSans" font-size="10.00">Mezzanine::DefaultRolling</text>
<text text-anchor="middle" x="396" y="-547" font-family="FreeSans" font-size="10.00">Average&lt; Whole &gt;</text>
</a>
</g>
<!-- Node23&#45;&gt;Node20 -->
<g id="edge56" class="edge"><title>Node23&#45;&gt;Node20</title>
<path fill="none" stroke="#9a32cd" stroke-dasharray="5,2" d="M469.571,-556C516.074,-556 575.199,-556 617.708,-556"/>
<polygon fill="#9a32cd" stroke="#9a32cd" points="469.549,-552.5 459.549,-556 469.549,-559.5 469.549,-552.5"/>
<text text-anchor="middle" x="532" y="-559" font-family="FreeSans" font-size="10.00"> PerformanceLog</text>
</g>
<!-- Node24 -->
<g id="node52" class="node"><title>Node24</title>
<polygon fill="white" stroke="#bfbfbf" points="1902,-458 1902,-478 2028,-478 2028,-458 1902,-458"/>
<text text-anchor="middle" x="1965" y="-465" font-family="FreeSans" font-size="10.00">std::vector&lt; Constraint * &gt;</text>
</g>
<!-- Node24&#45;&gt;Node18 -->
<g id="edge58" class="edge"><title>Node24&#45;&gt;Node18</title>
<path fill="none" stroke="#9a32cd" stroke-dasharray="5,2" d="M1891.86,-478.237C1844.63,-483.979 1781.8,-490 1726,-490 1243,-490 1243,-490 1243,-490 1156.2,-490 1057.33,-466.951 999.21,-450.97"/>
<polygon fill="#9a32cd" stroke="#9a32cd" points="1892.5,-481.684 1901.99,-476.98 1891.64,-474.737 1892.5,-481.684"/>
<text text-anchor="middle" x="1521" y="-493" font-family="FreeSans" font-size="10.00"> Constraints</text>
</g>
<!-- Node25 -->
<g id="node54" class="node"><title>Node25</title>
<a xlink:href="classMezzanine_1_1Physics_1_1Constraint.html" target="_top" xlink:title="This is the base class for all constraints supported.">
<polygon fill="white" stroke="black" points="1676,-416 1676,-448 1776,-448 1776,-416 1676,-416"/>
<text text-anchor="start" x="1684" y="-435" font-family="FreeSans" font-size="10.00">Mezzanine::Physics</text>
<text text-anchor="middle" x="1726" y="-423" font-family="FreeSans" font-size="10.00">::Constraint</text>
</a>
</g>
<!-- Node25&#45;&gt;Node24 -->
<g id="edge60" class="edge"><title>Node25&#45;&gt;Node24</title>
<path fill="none" stroke="#9a32cd" stroke-dasharray="5,2" d="M1786.26,-441.076C1821.51,-446.387 1865.98,-453.085 1901.74,-458.471"/>
<polygon fill="#9a32cd" stroke="#9a32cd" points="1786.51,-437.575 1776.1,-439.547 1785.47,-444.497 1786.51,-437.575"/>
<text text-anchor="middle" x="1846" y="-458" font-family="FreeSans" font-size="10.00"> elements</text>
</g>
<!-- Node26&#45;&gt;Node25 -->
<g id="edge62" class="edge"><title>Node26&#45;&gt;Node25</title>
<path fill="none" stroke="#9a32cd" stroke-dasharray="5,2" d="M1581.09,-400.898C1611.14,-407.347 1647.08,-415.062 1675.66,-421.195"/>
<polygon fill="#9a32cd" stroke="#9a32cd" points="1581.66,-397.44 1571.15,-398.764 1580.19,-404.284 1581.66,-397.44"/>
<text text-anchor="middle" x="1629" y="-428" font-family="FreeSans" font-size="10.00"> ProxA</text>
<text text-anchor="middle" x="1629" y="-416" font-family="FreeSans" font-size="10.00">ProxB</text>
</g>
<!-- Node27&#45;&gt;Node18 -->
<g id="edge66" class="edge"><title>Node27&#45;&gt;Node18</title>
<path fill="none" stroke="#9a32cd" stroke-dasharray="5,2" d="M1435.82,-439.404C1314.89,-438.559 1097.27,-437.037 999.26,-436.351"/>
<polygon fill="#9a32cd" stroke="#9a32cd" points="1436.12,-442.906 1446.14,-439.477 1436.17,-435.907 1436.12,-442.906"/>
<text text-anchor="middle" x="1243" y="-441" font-family="FreeSans" font-size="10.00"> Proxies</text>
</g>
<!-- Node28&#45;&gt;Node18 -->
<g id="edge70" class="edge"><title>Node28&#45;&gt;Node18</title>
<path fill="none" stroke="#9a32cd" stroke-dasharray="5,2" d="M745.118,-327.984C780.412,-334.727 822.774,-345.664 858,-363 887.621,-377.578 916.414,-403.187 933.424,-419.869"/>
<polygon fill="#9a32cd" stroke="#9a32cd" points="745.353,-324.469 734.886,-326.108 744.09,-331.354 745.353,-324.469"/>
<text text-anchor="middle" x="809" y="-366" font-family="FreeSans" font-size="10.00"> Collisions</text>
</g>
<!-- Node29 -->
<g id="node66" class="node"><title>Node29</title>
<a xlink:href="classMezzanine_1_1debug_1_1InternalDebugDrawer.html" target="_top" xlink:title="This is used to draw wireframse for the Physics subsystem.">
<polygon fill="white" stroke="black" points="608,-402 608,-434 738,-434 738,-402 608,-402"/>
<text text-anchor="start" x="616" y="-421" font-family="FreeSans" font-size="10.00">Mezzanine::debug::Internal</text>
<text text-anchor="middle" x="673" y="-409" font-family="FreeSans" font-size="10.00">DebugDrawer</text>
</a>
</g>
<!-- Node29&#45;&gt;Node18 -->
<g id="edge76" class="edge"><title>Node29&#45;&gt;Node18</title>
<path fill="none" stroke="#9a32cd" stroke-dasharray="5,2" d="M748.425,-415.357C782.036,-414.964 822.07,-415.575 858,-419 871.279,-420.266 885.514,-422.498 898.688,-424.937"/>
<polygon fill="#9a32cd" stroke="#9a32cd" points="748.158,-411.86 738.212,-415.509 748.263,-418.859 748.158,-411.86"/>
<text text-anchor="middle" x="809" y="-422" font-family="FreeSans" font-size="10.00"> BulletDrawer</text>
</g>
<!-- Node30 -->
<g id="node68" class="node"><title>Node30</title>
<polygon fill="white" stroke="#bfbfbf" points="357.5,-409 357.5,-429 434.5,-429 434.5,-409 357.5,-409"/>
<text text-anchor="middle" x="396" y="-416" font-family="FreeSans" font-size="10.00">btIDebugDraw</text>
</g>
<!-- Node30&#45;&gt;Node29 -->
<g id="edge78" class="edge"><title>Node30&#45;&gt;Node29</title>
<path fill="none" stroke="midnightblue" d="M444.682,-418.824C490.028,-418.661 557.961,-418.415 607.941,-418.235"/>
<polygon fill="midnightblue" stroke="midnightblue" points="444.503,-415.325 434.516,-418.861 444.528,-422.325 444.503,-415.325"/>
</g>
<!-- Node31&#45;&gt;Node18 -->
<g id="edge80" class="edge"><title>Node31&#45;&gt;Node18</title>
<path fill="none" stroke="#9a32cd" stroke-dasharray="5,2" d="M1191.78,-565.368C1136.31,-543.977 1053.85,-511.758 1040,-504 1013.16,-488.962 985.239,-467 967.522,-452.138"/>
<polygon fill="#9a32cd" stroke="#9a32cd" points="1190.53,-568.636 1201.12,-568.965 1193.05,-562.104 1190.53,-568.636"/>
<text text-anchor="middle" x="1096" y="-551" font-family="FreeSans" font-size="10.00"> DebugDrawWork</text>
</g>
<!-- Node32&#45;&gt;Node18 -->
<g id="edge86" class="edge"><title>Node32&#45;&gt;Node18</title>
<path fill="none" stroke="#9a32cd" stroke-dasharray="5,2" d="M1159.55,-408.617C1122.87,-413.302 1079.29,-418.893 1040,-424 1026.73,-425.725 1012.37,-427.61 999.06,-429.365"/>
<polygon fill="#9a32cd" stroke="#9a32cd" points="1160.23,-412.059 1169.7,-407.321 1159.34,-405.116 1160.23,-412.059"/>
<text text-anchor="middle" x="1096" y="-427" font-family="FreeSans" font-size="10.00"> WorldTriggerUpdateWork</text>
</g>
<!-- Node33 -->
<g id="node78" class="node"><title>Node33</title>
<polygon fill="white" stroke="#bfbfbf" points="604.5,-502 604.5,-522 741.5,-522 741.5,-502 604.5,-502"/>
<text text-anchor="middle" x="673" y="-509" font-family="FreeSans" font-size="10.00">std::vector&lt; WorldTrigger * &gt;</text>
</g>
<!-- Node33&#45;&gt;Node18 -->
<g id="edge92" class="edge"><title>Node33&#45;&gt;Node18</title>
<path fill="none" stroke="#9a32cd" stroke-dasharray="5,2" d="M719.867,-499.353C732.847,-495.92 746.954,-492.255 760,-489 803.409,-478.17 814.936,-478.127 858,-466 872.731,-461.852 888.627,-456.811 902.948,-452.054"/>
<polygon fill="#9a32cd" stroke="#9a32cd" points="718.963,-495.972 710.197,-501.922 720.761,-502.737 718.963,-495.972"/>
<text text-anchor="middle" x="809" y="-492" font-family="FreeSans" font-size="10.00"> Triggers</text>
</g>
<!-- Node34&#45;&gt;Node33 -->
<g id="edge94" class="edge"><title>Node34&#45;&gt;Node33</title>
<path fill="none" stroke="#9a32cd" stroke-dasharray="5,2" d="M467.431,-467.933C503.39,-471.004 547.425,-476.434 586,-486 594.331,-488.066 595.852,-490.302 604,-493 613.554,-496.164 623.97,-499.228 633.746,-501.938"/>
<polygon fill="#9a32cd" stroke="#9a32cd" points="467.282,-464.41 457.032,-467.091 466.717,-471.387 467.282,-464.41"/>
<text text-anchor="middle" x="532" y="-489" font-family="FreeSans" font-size="10.00"> elements</text>
</g>
<!-- Node35 -->
<g id="node83" class="node"><title>Node35</title>
<a xlink:href="classMezzanine_1_1Physics_1_1ManagerConstructionInfo.html" target="_top" xlink:title="This is a helper class storing information needed for the construction of a PhysicsManager.">
<polygon fill="white" stroke="black" points="608.5,-352 608.5,-384 737.5,-384 737.5,-352 608.5,-352"/>
<text text-anchor="start" x="616.5" y="-371" font-family="FreeSans" font-size="10.00">Mezzanine::Physics</text>
<text text-anchor="middle" x="673" y="-359" font-family="FreeSans" font-size="10.00">::ManagerConstructionInfo</text>
</a>
</g>
<!-- Node35&#45;&gt;Node18 -->
<g id="edge98" class="edge"><title>Node35&#45;&gt;Node18</title>
<path fill="none" stroke="#9a32cd" stroke-dasharray="5,2" d="M747.883,-376.726C781.877,-381.659 822.364,-388.903 858,-399 877.198,-404.44 897.856,-412.635 914.629,-419.932"/>
<polygon fill="#9a32cd" stroke="#9a32cd" points="747.946,-373.2 737.555,-375.268 746.968,-380.131 747.946,-373.2"/>
<text text-anchor="middle" x="809" y="-402" font-family="FreeSans" font-size="10.00"> WorldConstructionInfo</text>
</g>
<!-- Node36 -->
<g id="node85" class="node"><title>Node36</title>
<a xlink:href="classMezzanine_1_1Vector3.html" target="_top" xlink:title="This is used to represent a point in space, or a vector through space.">
<polygon fill="white" stroke="black" points="346,-358 346,-378 446,-378 446,-358 346,-358"/>
<text text-anchor="middle" x="396" y="-365" font-family="FreeSans" font-size="10.00">Mezzanine::Vector3</text>
</a>
</g>
<!-- Node36&#45;&gt;Node35 -->
<g id="edge100" class="edge"><title>Node36&#45;&gt;Node35</title>
<path fill="none" stroke="#9a32cd" stroke-dasharray="5,2" d="M456.342,-368C501.233,-368 562.41,-368 608.309,-368"/>
<polygon fill="#9a32cd" stroke="#9a32cd" points="456.163,-364.5 446.163,-368 456.163,-371.5 456.163,-364.5"/>
<text text-anchor="middle" x="532" y="-395" font-family="FreeSans" font-size="10.00"> GeographyLowerBounds</text>
<text text-anchor="middle" x="532" y="-383" font-family="FreeSans" font-size="10.00">GeographyUpperBounds</text>
<text text-anchor="middle" x="532" y="-371" font-family="FreeSans" font-size="10.00">Gravity</text>
</g>
<!-- Node37&#45;&gt;Node2 -->
<g id="edge102" class="edge"><title>Node37&#45;&gt;Node2</title>
<path fill="none" stroke="#9a32cd" stroke-dasharray="5,2" d="M592.412,-218.205C658.083,-221.209 765.97,-227.919 858,-242 891.119,-247.067 1119.77,-299.863 1152,-309 1167.42,-313.369 1184.07,-318.821 1198.86,-323.929"/>
<polygon fill="#9a32cd" stroke="#9a32cd" points="592.389,-214.701 582.244,-217.754 592.079,-221.694 592.389,-214.701"/>
<text text-anchor="middle" x="809" y="-245" font-family="FreeSans" font-size="10.00"> ProxyShape</text>
</g>
</g>
</svg>
        <g id="navigator" transform="translate(0 0)" fill="#404254">
                <rect fill="#f2f5e9" fill-opacity="0.5" stroke="#606060" stroke-width=".5" x="0" y="0" width="60" height="60"/>
                <use id="zoomplus" xlink:href="#zoomPlus" x="17" y="9" onmousedown="handleZoom(evt,'in')"/>
                <use id="zoomminus" xlink:href="#zoomMin" x="42" y="9" onmousedown="handleZoom(evt,'out')"/>
                <use id="reset" xlink:href="#resetDef" x="30" y="36" onmousedown="handleReset()"/>
                <g id="arrowUp" xlink:href="#dirArrow" transform="translate(30 24)" onmousedown="handlePan(0,-1)">
                  <use xlink:href="#rim" fill="#404040">
                        <set attributeName="fill" to="#808080" begin="arrowUp.mouseover" end="arrowUp.mouseout"/>
                  </use>
                  <path fill="none" stroke="white" stroke-width="1.5" d="M0,-3.0v7 M-2.5,-0.5L0,-3.0L2.5,-0.5"/>
                </g>
                <g id="arrowRight" xlink:href="#dirArrow" transform="rotate(90) translate(36 -43)" onmousedown="handlePan(1,0)">
                  <use xlink:href="#rim" fill="#404040">
                        <set attributeName="fill" to="#808080" begin="arrowRight.mouseover" end="arrowRight.mouseout"/>
                  </use>
                  <path fill="none" stroke="white" stroke-width="1.5" d="M0,-3.0v7 M-2.5,-0.5L0,-3.0L2.5,-0.5"/>
                </g>
                <g id="arrowDown" xlink:href="#dirArrow" transform="rotate(180) translate(-30 -48)" onmousedown="handlePan(0,1)">
                  <use xlink:href="#rim" fill="#404040">
                        <set attributeName="fill" to="#808080" begin="arrowDown.mouseover" end="arrowDown.mouseout"/>
                  </use>
                  <path fill="none" stroke="white" stroke-width="1.5" d="M0,-3.0v7 M-2.5,-0.5L0,-3.0L2.5,-0.5"/>
                </g>
                <g id="arrowLeft" xlink:href="#dirArrow" transform="rotate(270) translate(-36 17)" onmousedown="handlePan(-1,0)">
                  <use xlink:href="#rim" fill="#404040">
                        <set attributeName="fill" to="#808080" begin="arrowLeft.mouseover" end="arrowLeft.mouseout"/>
                  </use>
                  <path fill="none" stroke="white" stroke-width="1.5" d="M0,-3.0v7 M-2.5,-0.5L0,-3.0L2.5,-0.5"/>
                </g>
        </g>
        <svg viewBox="0 0 15 15" width="100%" height="30px" preserveAspectRatio="xMaxYMin meet">
         <g id="arrow_out" transform="scale(0.3 0.3)">
          <a xlink:href="classMezzanine_1_1Physics_1_1CollidablePair__coll__graph_org.svg" target="_base">
           <rect id="button" ry="5" rx="5" y="6" x="6" height="38" width="38"
                fill="#f2f5e9" fill-opacity="0.5" stroke="#606060" stroke-width="1.0"/>
           <path id="arrow"
             d="M 11.500037,31.436501 C 11.940474,20.09759 22.043105,11.32322 32.158766,21.979434 L 37.068811,17.246167 C 37.068811,17.246167 37.088388,32 37.088388,32 L 22.160133,31.978069 C 22.160133,31.978069 26.997745,27.140456 26.997745,27.140456 C 18.528582,18.264221 13.291696,25.230495 11.500037,31.436501 z"
             style="fill:#404040;"/>
          </a>
         </g>
        </svg>
</svg>
