<?xml version="1.0" encoding="UTF-8" standalone="no"?>
<!DOCTYPE svg PUBLIC "-//W3C//DTD SVG 1.1//EN"
 "http://www.w3.org/Graphics/SVG/1.1/DTD/svg11.dtd">
<!-- Generated by graphviz version 2.26.3 (20100126.1600)
 -->
<!-- Title: Mezzanine::World Pages: 1 -->
<!--zoomable 603 -->
<svg id="main" version="1.1" xmlns="http://www.w3.org/2000/svg" xmlns:xlink="http://www.w3.org/1999/xlink" xml:space="preserve" onload="init(evt)">
        <defs>
                <circle id="rim" cx="0" cy="0" r="7"/>
                <circle id="rim2" cx="0" cy="0" r="3.5"/>
                <g id="zoomPlus">
                        <use xlink:href="#rim" fill="#404040">
                                <set attributeName="fill" to="#808080" begin="zoomplus.mouseover" end="zoomplus.mouseout"/>
                        </use>
                        <path d="M-4,0h8M0,-4v8" fill="none" stroke="white" stroke-width="1.5" pointer-events="none"/>
                </g>
                <g id="zoomMin">
                        <use xlink:href="#rim" fill="#404040">
                                <set attributeName="fill" to="#808080" begin="zoomminus.mouseover" end="zoomminus.mouseout"/>
                        </use>
                        <path d="M-4,0h8" fill="none" stroke="white" stroke-width="1.5" pointer-events="none"/>
                </g>
                <g id="dirArrow">
                        <path fill="none" stroke="white" stroke-width="1.5" d="M0,-3.0v7 M-2.5,-0.5L0,-3.0L2.5,-0.5"/>
                </g>
               <g id="resetDef">
                       <use xlink:href="#rim2" fill="#404040">
                               <set attributeName="fill" to="#808080" begin="reset.mouseover" end="reset.mouseout"/>
                       </use>
               </g>
        </defs>

<script type="text/javascript">
var viewWidth = 2070;
var viewHeight = 603;
var sectionId = 'dynsection-0';
</script>
<script xlink:href="svgpan.js"/>
<svg id="graph" class="graph">
<g id="viewport">
<title>Mezzanine::World</title>
<!-- Node1 -->
<g id="node1" class="node"><title>Node1</title>
<polygon fill="#bfbfbf" stroke="black" points="1751,-441 1751,-461 1843,-461 1843,-441 1751,-441"/>
<text text-anchor="middle" x="1797" y="-448" font-family="FreeSans" font-size="10.00">Mezzanine::World</text>
</g>
<!-- Node2 -->
<g id="node2" class="node"><title>Node2</title>
<a xlink:href="classMezzanine_1_1PhysicsManager.xhtml" target="_top" xlink:title="This is simply a place for storing all the Physics Related functions.">
<polygon fill="none" stroke="black" points="1510.5,-517 1510.5,-537 1647.5,-537 1647.5,-517 1510.5,-517"/>
<text text-anchor="middle" x="1579" y="-524" font-family="FreeSans" font-size="10.00">Mezzanine::PhysicsManager</text>
</a>
</g>
<!-- Node2&#45;&gt;Node1 -->
<g id="edge2" class="edge"><title>Node2&#45;&gt;Node1</title>
<path fill="none" stroke="#9a32cd" stroke-dasharray="5,2" d="M1619.47,-513.817C1648.17,-504.368 1687.55,-491.207 1722,-479 1738.24,-473.243 1756.35,-466.494 1770.7,-461.064"/>
<polygon fill="#9a32cd" stroke="#9a32cd" points="1618.2,-510.551 1609.79,-516.996 1620.38,-517.201 1618.2,-510.551"/>
<text text-anchor="middle" x="1694" y="-500" font-family="FreeSans" font-size="10.00"> PhysicsMan</text>
</g>
<!-- Node13 -->
<g id="node26" class="node"><title>Node13</title>
<a xlink:href="classMezzanine_1_1Singleton.xhtml" target="_top" xlink:title="Mezzanine::Singleton\l\&lt; PhysicsManager \&gt;">
<polygon fill="none" stroke="black" points="1743.5,-528 1743.5,-560 1850.5,-560 1850.5,-528 1743.5,-528"/>
<text text-anchor="start" x="1751.5" y="-547" font-family="FreeSans" font-size="10.00">Mezzanine::Singleton</text>
<text text-anchor="middle" x="1797" y="-535" font-family="FreeSans" font-size="10.00">&lt; PhysicsManager &gt;</text>
</a>
</g>
<!-- Node2&#45;&gt;Node13 -->
<g id="edge30" class="edge"><title>Node2&#45;&gt;Node13</title>
<path fill="none" stroke="#9a32cd" stroke-dasharray="5,2" d="M1656.81,-538.118C1659.91,-538.439 1662.98,-538.735 1666,-539 1691.39,-541.23 1719.64,-542.466 1743.39,-543.151"/>
<polygon fill="#9a32cd" stroke="#9a32cd" points="1657.17,-534.636 1646.84,-537.018 1656.4,-541.594 1657.17,-534.636"/>
<text text-anchor="middle" x="1694" y="-545" font-family="FreeSans" font-size="10.00"> SingletonPtr</text>
</g>
<!-- Node3 -->
<g id="node4" class="node"><title>Node3</title>
<a xlink:href="classMezzanine_1_1ManagerBase.xhtml" target="_top" xlink:title="This is the base class from which all the World Managers inherit.">
<polygon fill="none" stroke="black" points="1300,-517 1300,-537 1426,-537 1426,-517 1300,-517"/>
<text text-anchor="middle" x="1363" y="-524" font-family="FreeSans" font-size="10.00">Mezzanine::ManagerBase</text>
</a>
</g>
<!-- Node3&#45;&gt;Node2 -->
<g id="edge4" class="edge"><title>Node3&#45;&gt;Node2</title>
<path fill="none" stroke="midnightblue" d="M1436.14,-527C1460.09,-527 1486.59,-527 1510.2,-527"/>
<polygon fill="midnightblue" stroke="midnightblue" points="1436.06,-523.5 1426.06,-527 1436.06,-530.5 1436.06,-523.5"/>
</g>
<!-- Node14 -->
<g id="node29" class="node"><title>Node14</title>
<a xlink:href="classMezzanine_1_1SceneManager.xhtml" target="_top" xlink:title="This class contains utilities and functions to allow the manipulation of the Graphical scene...">
<polygon fill="none" stroke="black" points="1513,-123 1513,-143 1645,-143 1645,-123 1513,-123"/>
<text text-anchor="middle" x="1579" y="-130" font-family="FreeSans" font-size="10.00">Mezzanine::SceneManager</text>
</a>
</g>
<!-- Node3&#45;&gt;Node14 -->
<g id="edge34" class="edge"><title>Node3&#45;&gt;Node14</title>
<path fill="none" stroke="midnightblue" d="M1429.28,-511.755C1430.92,-510.592 1432.5,-509.343 1434,-508 1551.12,-402.839 1574.41,-191.975 1578.3,-143.222"/>
<polygon fill="midnightblue" stroke="midnightblue" points="1427.4,-508.8 1420.53,-516.873 1430.93,-514.84 1427.4,-508.8"/>
</g>
<!-- Node4 -->
<g id="node6" class="node"><title>Node4</title>
<a xlink:href="classMezzanine_1_1Entresol.xhtml" target="_top" xlink:title="This is the main entry point for the entire library.">
<polygon fill="none" stroke="black" points="1053.5,-544 1053.5,-564 1154.5,-564 1154.5,-544 1053.5,-544"/>
<text text-anchor="middle" x="1104" y="-551" font-family="FreeSans" font-size="10.00">Mezzanine::Entresol</text>
</a>
</g>
<!-- Node4&#45;&gt;Node3 -->
<g id="edge6" class="edge"><title>Node4&#45;&gt;Node3</title>
<path fill="none" stroke="#9a32cd" stroke-dasharray="5,2" d="M1164.59,-547.684C1205.2,-543.45 1258.57,-537.886 1299.73,-533.595"/>
<polygon fill="#9a32cd" stroke="#9a32cd" points="1164.14,-544.212 1154.55,-548.73 1164.86,-551.174 1164.14,-544.212"/>
<text text-anchor="middle" x="1236" y="-546" font-family="FreeSans" font-size="10.00"> TheEntresol</text>
</g>
<!-- Node5 -->
<g id="node8" class="node"><title>Node5</title>
<a xlink:href="classMezzanine_1_1Singleton.xhtml" target="_top" xlink:title="Mezzanine::Singleton\l\&lt; Entresol \&gt;">
<polygon fill="none" stroke="black" points="1309.5,-563 1309.5,-595 1416.5,-595 1416.5,-563 1309.5,-563"/>
<text text-anchor="start" x="1317.5" y="-582" font-family="FreeSans" font-size="10.00">Mezzanine::Singleton</text>
<text text-anchor="middle" x="1363" y="-570" font-family="FreeSans" font-size="10.00">&lt; Entresol &gt;</text>
</a>
</g>
<!-- Node4&#45;&gt;Node5 -->
<g id="edge10" class="edge"><title>Node4&#45;&gt;Node5</title>
<path fill="none" stroke="#9a32cd" stroke-dasharray="5,2" d="M1164.73,-561.393C1175.79,-562.659 1187.24,-563.914 1198,-565 1235.18,-568.752 1277.15,-572.304 1309.46,-574.891"/>
<polygon fill="#9a32cd" stroke="#9a32cd" points="1165.04,-557.906 1154.7,-560.233 1164.23,-564.86 1165.04,-557.906"/>
<text text-anchor="middle" x="1236" y="-574" font-family="FreeSans" font-size="10.00"> SingletonPtr</text>
</g>
<!-- Node5&#45;&gt;Node4 -->
<g id="edge8" class="edge"><title>Node5&#45;&gt;Node4</title>
<path fill="none" stroke="midnightblue" d="M1299.44,-570.824C1290.89,-569.818 1282.24,-568.848 1274,-568 1233.94,-563.876 1188.46,-560.183 1154.63,-557.626"/>
<polygon fill="midnightblue" stroke="midnightblue" points="1299.04,-574.301 1309.39,-572.015 1299.87,-567.351 1299.04,-574.301"/>
</g>
<!-- Node6 -->
<g id="node11" class="node"><title>Node6</title>
<a xlink:title="STL class.">
<polygon fill="none" stroke="#bfbfbf" points="831,-544 831,-564 917,-564 917,-544 831,-544"/>
<text text-anchor="middle" x="874" y="-551" font-family="FreeSans" font-size="10.00">std::stringstream</text>
</a>
</g>
<!-- Node6&#45;&gt;Node4 -->
<g id="edge12" class="edge"><title>Node6&#45;&gt;Node4</title>
<path fill="none" stroke="#9a32cd" stroke-dasharray="5,2" d="M927.602,-554C965.528,-554 1016.06,-554 1053.31,-554"/>
<polygon fill="#9a32cd" stroke="#9a32cd" points="927.261,-550.5 917.261,-554 927.261,-557.5 927.261,-550.5"/>
<text text-anchor="middle" x="985" y="-557" font-family="FreeSans" font-size="10.00"> LogStream</text>
</g>
<!-- Node7 -->
<g id="node13" class="node"><title>Node7</title>
<a xlink:title="STL class.">
<polygon fill="none" stroke="#bfbfbf" points="593,-538 593,-570 707,-570 707,-538 593,-538"/>
<text text-anchor="start" x="601" y="-557" font-family="FreeSans" font-size="10.00">std::basic_stringstream</text>
<text text-anchor="middle" x="650" y="-545" font-family="FreeSans" font-size="10.00">&lt; char &gt;</text>
</a>
</g>
<!-- Node7&#45;&gt;Node6 -->
<g id="edge14" class="edge"><title>Node7&#45;&gt;Node6</title>
<path fill="none" stroke="midnightblue" d="M717.267,-554C754.085,-554 798.62,-554 830.793,-554"/>
<polygon fill="midnightblue" stroke="midnightblue" points="717.104,-550.5 707.104,-554 717.104,-557.5 717.104,-550.5"/>
</g>
<!-- Node8 -->
<g id="node15" class="node"><title>Node8</title>
<a xlink:title="STL class.">
<polygon fill="none" stroke="#bfbfbf" points="400,-538 400,-570 498,-570 498,-538 400,-538"/>
<text text-anchor="start" x="408" y="-557" font-family="FreeSans" font-size="10.00">std::basic_iostream</text>
<text text-anchor="middle" x="449" y="-545" font-family="FreeSans" font-size="10.00">&lt; Char &gt;</text>
</a>
</g>
<!-- Node8&#45;&gt;Node7 -->
<g id="edge16" class="edge"><title>Node8&#45;&gt;Node7</title>
<path fill="none" stroke="midnightblue" d="M508.511,-554C535.151,-554 566.427,-554 592.79,-554"/>
<polygon fill="midnightblue" stroke="midnightblue" points="508.17,-550.5 498.17,-554 508.17,-557.5 508.17,-550.5"/>
</g>
<!-- Node9 -->
<g id="node17" class="node"><title>Node9</title>
<a xlink:title="STL class.">
<polygon fill="none" stroke="#bfbfbf" points="259.5,-560 259.5,-592 352.5,-592 352.5,-560 259.5,-560"/>
<text text-anchor="start" x="267.5" y="-579" font-family="FreeSans" font-size="10.00">std::basic_istream</text>
<text text-anchor="middle" x="306" y="-567" font-family="FreeSans" font-size="10.00">&lt; Char &gt;</text>
</a>
</g>
<!-- Node9&#45;&gt;Node8 -->
<g id="edge18" class="edge"><title>Node9&#45;&gt;Node8</title>
<path fill="none" stroke="midnightblue" d="M362.863,-567.252C375.019,-565.382 387.765,-563.421 399.612,-561.598"/>
<polygon fill="midnightblue" stroke="midnightblue" points="362.175,-563.816 352.824,-568.796 363.239,-570.735 362.175,-563.816"/>
</g>
<!-- Node10 -->
<g id="node19" class="node"><title>Node10</title>
<a xlink:title="STL class.">
<polygon fill="none" stroke="#bfbfbf" points="110,-534 110,-554 220,-554 220,-534 110,-534"/>
<text text-anchor="middle" x="165" y="-541" font-family="FreeSans" font-size="10.00">std::basic_ios&lt; Char &gt;</text>
</a>
</g>
<!-- Node10&#45;&gt;Node9 -->
<g id="edge20" class="edge"><title>Node10&#45;&gt;Node9</title>
<path fill="none" stroke="midnightblue" d="M219.198,-556.3C232.49,-559.317 246.6,-562.519 259.494,-565.445"/>
<polygon fill="midnightblue" stroke="midnightblue" points="219.753,-552.837 209.226,-554.037 218.204,-559.664 219.753,-552.837"/>
</g>
<!-- Node12 -->
<g id="node23" class="node"><title>Node12</title>
<a xlink:title="STL class.">
<polygon fill="none" stroke="#bfbfbf" points="258,-510 258,-542 354,-542 354,-510 258,-510"/>
<text text-anchor="start" x="266" y="-529" font-family="FreeSans" font-size="10.00">std::basic_ostream</text>
<text text-anchor="middle" x="306" y="-517" font-family="FreeSans" font-size="10.00">&lt; Char &gt;</text>
</a>
</g>
<!-- Node10&#45;&gt;Node12 -->
<g id="edge26" class="edge"><title>Node10&#45;&gt;Node12</title>
<path fill="none" stroke="midnightblue" d="M230.267,-535.668C239.503,-534.489 248.86,-533.295 257.698,-532.166"/>
<polygon fill="midnightblue" stroke="midnightblue" points="229.799,-532.199 220.322,-536.938 230.685,-539.143 229.799,-532.199"/>
</g>
<!-- Node11 -->
<g id="node21" class="node"><title>Node11</title>
<a xlink:title="STL class.">
<polygon fill="none" stroke="#bfbfbf" points="0.5,-534 0.5,-554 71.5,-554 71.5,-534 0.5,-534"/>
<text text-anchor="middle" x="36" y="-541" font-family="FreeSans" font-size="10.00">std::ios_base</text>
</a>
</g>
<!-- Node11&#45;&gt;Node10 -->
<g id="edge22" class="edge"><title>Node11&#45;&gt;Node10</title>
<path fill="none" stroke="midnightblue" d="M81.8712,-544C90.8757,-544 100.41,-544 109.686,-544"/>
<polygon fill="midnightblue" stroke="midnightblue" points="81.5913,-540.5 71.5913,-544 81.5913,-547.5 81.5913,-540.5"/>
</g>
<!-- Node12&#45;&gt;Node8 -->
<g id="edge24" class="edge"><title>Node12&#45;&gt;Node8</title>
<path fill="none" stroke="midnightblue" d="M363.891,-537.335C375.832,-539.673 388.299,-542.114 399.892,-544.384"/>
<polygon fill="midnightblue" stroke="midnightblue" points="364.501,-533.888 354.015,-535.401 363.156,-540.758 364.501,-533.888"/>
</g>
<!-- Node13&#45;&gt;Node2 -->
<g id="edge28" class="edge"><title>Node13&#45;&gt;Node2</title>
<path fill="none" stroke="midnightblue" d="M1733.13,-539.019C1706.29,-536.926 1675.01,-534.487 1647.68,-532.356"/>
<polygon fill="midnightblue" stroke="midnightblue" points="1732.94,-542.515 1743.18,-539.803 1733.48,-535.536 1732.94,-542.515"/>
</g>
<!-- Node14&#45;&gt;Node1 -->
<g id="edge32" class="edge"><title>Node14&#45;&gt;Node1</title>
<path fill="none" stroke="#9a32cd" stroke-dasharray="5,2" d="M1591.8,-151.678C1632.69,-211.312 1759.21,-395.868 1790.13,-440.976"/>
<polygon fill="#9a32cd" stroke="#9a32cd" points="1594.55,-149.489 1586.01,-143.22 1588.77,-153.447 1594.55,-149.489"/>
<text text-anchor="middle" x="1694" y="-343" font-family="FreeSans" font-size="10.00"> SceneMan</text>
</g>
<!-- Node15 -->
<g id="node32" class="node"><title>Node15</title>
<a xlink:href="classMezzanine_1_1Singleton.xhtml" target="_top" xlink:title="Mezzanine::Singleton\l\&lt; SceneManager \&gt;">
<polygon fill="none" stroke="black" points="1743.5,-138 1743.5,-170 1850.5,-170 1850.5,-138 1743.5,-138"/>
<text text-anchor="start" x="1751.5" y="-157" font-family="FreeSans" font-size="10.00">Mezzanine::Singleton</text>
<text text-anchor="middle" x="1797" y="-145" font-family="FreeSans" font-size="10.00">&lt; SceneManager &gt;</text>
</a>
</g>
<!-- Node14&#45;&gt;Node15 -->
<g id="edge38" class="edge"><title>Node14&#45;&gt;Node15</title>
<path fill="none" stroke="#9a32cd" stroke-dasharray="5,2" d="M1655.51,-142.888C1659.05,-143.279 1662.56,-143.652 1666,-144 1691.42,-146.575 1719.67,-148.811 1743.41,-150.512"/>
<polygon fill="#9a32cd" stroke="#9a32cd" points="1655.79,-139.398 1645.46,-141.748 1655,-146.354 1655.79,-139.398"/>
<text text-anchor="middle" x="1694" y="-152" font-family="FreeSans" font-size="10.00"> SingletonPtr</text>
</g>
<!-- Node26 -->
<g id="node57" class="node"><title>Node26</title>
<a xlink:href="classMezzanine_1_1WorldNode.xhtml" target="_top" xlink:title="This is a helper class which non&#45;physics objects, such as lights, cameras, ribbon trails...">
<polygon fill="none" stroke="black" points="1740,-268 1740,-288 1854,-288 1854,-268 1740,-268"/>
<text text-anchor="middle" x="1797" y="-275" font-family="FreeSans" font-size="10.00">Mezzanine::WorldNode</text>
</a>
</g>
<!-- Node14&#45;&gt;Node26 -->
<g id="edge80" class="edge"><title>Node14&#45;&gt;Node26</title>
<path fill="none" stroke="#9a32cd" stroke-dasharray="5,2" d="M1596.64,-150.05C1613.43,-165.612 1639.95,-188.485 1666,-204 1689.12,-217.766 1698.3,-214.256 1722,-227 1744.88,-239.306 1769.42,-256.935 1783.98,-267.914"/>
<polygon fill="#9a32cd" stroke="#9a32cd" points="1598.9,-147.371 1589.22,-143.062 1594.1,-152.467 1598.9,-147.371"/>
<text text-anchor="middle" x="1694" y="-230" font-family="FreeSans" font-size="10.00"> Manager</text>
</g>
<!-- Node31 -->
<g id="node74" class="node"><title>Node31</title>
<a xlink:href="classMezzanine_1_1Light.xhtml" target="_top" xlink:title="This class is the class used for dynamic lighting within the scene.">
<polygon fill="none" stroke="black" points="1753,-4 1753,-24 1841,-24 1841,-4 1753,-4"/>
<text text-anchor="middle" x="1797" y="-11" font-family="FreeSans" font-size="10.00">Mezzanine::Light</text>
</a>
</g>
<!-- Node14&#45;&gt;Node31 -->
<g id="edge92" class="edge"><title>Node14&#45;&gt;Node31</title>
<path fill="none" stroke="#9a32cd" stroke-dasharray="5,2" d="M1589.93,-113.919C1604.23,-90.8655 1631.58,-52.836 1666,-34 1692.44,-19.5332 1726.12,-14.6352 1752.71,-13.3011"/>
<polygon fill="#9a32cd" stroke="#9a32cd" points="1586.75,-112.405 1584.61,-122.782 1592.76,-116.005 1586.75,-112.405"/>
<text text-anchor="middle" x="1694" y="-37" font-family="FreeSans" font-size="10.00"> Manager</text>
</g>
<!-- Node15&#45;&gt;Node14 -->
<g id="edge36" class="edge"><title>Node15&#45;&gt;Node14</title>
<path fill="none" stroke="midnightblue" d="M1733.47,-147.88C1705.77,-145.212 1673.3,-142.084 1645.3,-139.386"/>
<polygon fill="midnightblue" stroke="midnightblue" points="1733.15,-151.365 1743.44,-148.84 1733.82,-144.397 1733.15,-151.365"/>
</g>
<!-- Node16 -->
<g id="node35" class="node"><title>Node16</title>
<polygon fill="none" stroke="#bfbfbf" points="1293,-75 1293,-95 1433,-95 1433,-75 1293,-75"/>
<text text-anchor="middle" x="1363" y="-82" font-family="FreeSans" font-size="10.00">std::vector&lt; ParticleEffect * &gt;</text>
</g>
<!-- Node16&#45;&gt;Node14 -->
<g id="edge40" class="edge"><title>Node16&#45;&gt;Node14</title>
<path fill="none" stroke="#9a32cd" stroke-dasharray="5,2" d="M1417.83,-97.1846C1453.67,-105.149 1499.91,-115.425 1533.67,-122.926"/>
<polygon fill="#9a32cd" stroke="#9a32cd" points="1418.54,-93.7567 1408.02,-95.0039 1417.02,-100.59 1418.54,-93.7567"/>
<text text-anchor="middle" x="1472" y="-117" font-family="FreeSans" font-size="10.00"> Particles</text>
</g>
<!-- Node17 -->
<g id="node37" class="node"><title>Node17</title>
<a xlink:href="classMezzanine_1_1ParticleEffect.xhtml" target="_top" xlink:title="This class is responsible for creating visual particle effects, such as rain, smoke, sparks, and explosions.">
<polygon fill="none" stroke="black" points="1042,-68 1042,-88 1166,-88 1166,-68 1042,-68"/>
<text text-anchor="middle" x="1104" y="-75" font-family="FreeSans" font-size="10.00">Mezzanine::ParticleEffect</text>
</a>
</g>
<!-- Node17&#45;&gt;Node16 -->
<g id="edge42" class="edge"><title>Node17&#45;&gt;Node16</title>
<path fill="none" stroke="#9a32cd" stroke-dasharray="5,2" d="M1176.1,-79.9487C1212.55,-80.9338 1256.61,-82.1245 1292.79,-83.1023"/>
<polygon fill="#9a32cd" stroke="#9a32cd" points="1176.13,-76.4482 1166.04,-79.6767 1175.94,-83.4457 1176.13,-76.4482"/>
<text text-anchor="middle" x="1236" y="-86" font-family="FreeSans" font-size="10.00"> elements</text>
</g>
<!-- Node18 -->
<g id="node39" class="node"><title>Node18</title>
<a xlink:href="classMezzanine_1_1AttachableChild.xhtml" target="_top" xlink:title="This class is the base class for objects that can be attached to AttachableParent.">
<polygon fill="none" stroke="black" points="806.5,-170 806.5,-190 941.5,-190 941.5,-170 806.5,-170"/>
<text text-anchor="middle" x="874" y="-177" font-family="FreeSans" font-size="10.00">Mezzanine::AttachableChild</text>
</a>
</g>
<!-- Node18&#45;&gt;Node17 -->
<g id="edge44" class="edge"><title>Node18&#45;&gt;Node17</title>
<path fill="none" stroke="midnightblue" d="M898.29,-164.236C927.845,-145.698 979.782,-115.158 1028,-97 1037.04,-93.5969 1046.91,-90.6199 1056.45,-88.0946"/>
<polygon fill="midnightblue" stroke="midnightblue" points="896.084,-161.49 889.514,-169.802 899.833,-167.401 896.084,-161.49"/>
</g>
<!-- Node24 -->
<g id="node52" class="node"><title>Node24</title>
<polygon fill="none" stroke="#bfbfbf" points="1028.5,-192 1028.5,-212 1179.5,-212 1179.5,-192 1028.5,-192"/>
<text text-anchor="middle" x="1104" y="-199" font-family="FreeSans" font-size="10.00">std::vector&lt; AttachableChild * &gt;</text>
</g>
<!-- Node18&#45;&gt;Node24 -->
<g id="edge60" class="edge"><title>Node18&#45;&gt;Node24</title>
<path fill="none" stroke="#9a32cd" stroke-dasharray="5,2" d="M951.805,-187.442C976.486,-189.803 1003.73,-192.409 1028.26,-194.755"/>
<polygon fill="#9a32cd" stroke="#9a32cd" points="952.051,-183.95 941.764,-186.482 951.385,-190.918 952.051,-183.95"/>
<text text-anchor="middle" x="985" y="-196" font-family="FreeSans" font-size="10.00"> elements</text>
</g>
<!-- Node18&#45;&gt;Node26 -->
<g id="edge68" class="edge"><title>Node18&#45;&gt;Node26</title>
<path fill="none" stroke="midnightblue" d="M910,-193.487C925.264,-198.853 943.344,-204.748 960,-209 989.736,-216.591 997.588,-216.883 1028,-221 1292.66,-256.825 1611.84,-271.43 1739.84,-276.131"/>
<polygon fill="midnightblue" stroke="midnightblue" points="911.014,-190.133 900.419,-190.061 908.657,-196.724 911.014,-190.133"/>
</g>
<!-- Node18&#45;&gt;Node31 -->
<g id="edge90" class="edge"><title>Node18&#45;&gt;Node31</title>
<path fill="none" stroke="midnightblue" d="M885.422,-161.337C915.192,-115.295 1000.11,-0 1104,-0 1104,-0 1104,-0 1579,-0 1639.3,-0 1708.79,-5.4006 1752.8,-9.49325"/>
<polygon fill="midnightblue" stroke="midnightblue" points="882.452,-159.484 880.066,-169.807 888.369,-163.225 882.452,-159.484"/>
</g>
<!-- Node33 -->
<g id="node80" class="node"><title>Node33</title>
<a xlink:href="classMezzanine_1_1Entity.xhtml" target="_top" xlink:title="This class is useful for representing graphical bodies without a physics representation.">
<polygon fill="none" stroke="black" points="1058.5,-106 1058.5,-126 1149.5,-126 1149.5,-106 1058.5,-106"/>
<text text-anchor="middle" x="1104" y="-113" font-family="FreeSans" font-size="10.00">Mezzanine::Entity</text>
</a>
</g>
<!-- Node18&#45;&gt;Node33 -->
<g id="edge98" class="edge"><title>Node18&#45;&gt;Node33</title>
<path fill="none" stroke="midnightblue" d="M907.494,-166.315C923.256,-160.192 942.415,-153.199 960,-148 992.418,-138.416 1029.69,-130.208 1058.19,-124.505"/>
<polygon fill="midnightblue" stroke="midnightblue" points="906.185,-163.069 898.164,-169.991 908.751,-169.582 906.185,-163.069"/>
</g>
<!-- Node19 -->
<g id="node41" class="node"><title>Node19</title>
<a xlink:href="classMezzanine_1_1AttachableBase.xhtml" target="_top" xlink:title="This class is the base class for other attachable classes and is responsible for transform updates to...">
<polygon fill="none" stroke="black" points="582.5,-275 582.5,-295 717.5,-295 717.5,-275 582.5,-275"/>
<text text-anchor="middle" x="650" y="-282" font-family="FreeSans" font-size="10.00">Mezzanine::AttachableBase</text>
</a>
</g>
<!-- Node19&#45;&gt;Node18 -->
<g id="edge46" class="edge"><title>Node19&#45;&gt;Node18</title>
<path fill="none" stroke="midnightblue" d="M700.835,-271.951C706.677,-270.112 712.505,-268.119 718,-266 772.536,-244.969 831.575,-208.117 858.743,-190.267"/>
<polygon fill="midnightblue" stroke="midnightblue" points="699.614,-268.664 691.047,-274.897 701.631,-275.367 699.614,-268.664"/>
</g>
<!-- Node23 -->
<g id="node49" class="node"><title>Node23</title>
<a xlink:href="classMezzanine_1_1AttachableParent.xhtml" target="_top" xlink:title="Base class for objects that can have attachables attached to them.">
<polygon fill="none" stroke="black" points="1292,-217 1292,-237 1434,-237 1434,-217 1292,-217"/>
<text text-anchor="middle" x="1363" y="-224" font-family="FreeSans" font-size="10.00">Mezzanine::AttachableParent</text>
</a>
</g>
<!-- Node19&#45;&gt;Node23 -->
<g id="edge56" class="edge"><title>Node19&#45;&gt;Node23</title>
<path fill="none" stroke="midnightblue" d="M727.921,-279C846.044,-269.85 1077.5,-251.704 1274,-235 1279.72,-234.514 1285.64,-234.001 1291.6,-233.48"/>
<polygon fill="midnightblue" stroke="midnightblue" points="727.585,-275.516 717.885,-279.777 728.125,-282.495 727.585,-275.516"/>
</g>
<!-- Node19&#45;&gt;Node26 -->
<g id="edge72" class="edge"><title>Node19&#45;&gt;Node26</title>
<path fill="none" stroke="#9a32cd" stroke-dasharray="5,2" d="M705.531,-297.011C750.68,-305.729 816.149,-316 874,-316 874,-316 874,-316 1579,-316 1644.12,-316 1718.57,-299.341 1761.46,-288.084"/>
<polygon fill="#9a32cd" stroke="#9a32cd" points="706.136,-293.563 695.648,-295.065 704.783,-300.431 706.136,-293.563"/>
<text text-anchor="middle" x="1236" y="-319" font-family="FreeSans" font-size="10.00"> AutoTrackTarget</text>
</g>
<!-- Node20 -->
<g id="node43" class="node"><title>Node20</title>
<a xlink:href="classMezzanine_1_1Transform.xhtml" target="_top" xlink:title="Stores information about relative location and rotation in 3d space.">
<polygon fill="none" stroke="black" points="595,-237 595,-257 705,-257 705,-237 595,-237"/>
<text text-anchor="middle" x="650" y="-244" font-family="FreeSans" font-size="10.00">Mezzanine::Transform</text>
</a>
</g>
<!-- Node20&#45;&gt;Node18 -->
<g id="edge48" class="edge"><title>Node20&#45;&gt;Node18</title>
<path fill="none" stroke="#9a32cd" stroke-dasharray="5,2" d="M689.474,-233.788C704.055,-229.003 720.742,-223.638 736,-219 770.063,-208.646 809.131,-197.69 836.984,-190.036"/>
<polygon fill="#9a32cd" stroke="#9a32cd" points="688.16,-230.536 679.759,-236.992 690.352,-237.184 688.16,-230.536"/>
<text text-anchor="middle" x="762" y="-222" font-family="FreeSans" font-size="10.00"> LocalXform</text>
</g>
<!-- Node21 -->
<g id="node45" class="node"><title>Node21</title>
<a xlink:href="classMezzanine_1_1Vector3.xhtml" target="_top" xlink:title="This is used to represent a point in space, or a vector through space.">
<polygon fill="none" stroke="black" points="399,-275 399,-295 499,-295 499,-275 399,-275"/>
<text text-anchor="middle" x="449" y="-282" font-family="FreeSans" font-size="10.00">Mezzanine::Vector3</text>
</a>
</g>
<!-- Node21&#45;&gt;Node20 -->
<g id="edge50" class="edge"><title>Node21&#45;&gt;Node20</title>
<path fill="none" stroke="#9a32cd" stroke-dasharray="5,2" d="M509.234,-273.612C537.127,-268.339 569.979,-262.128 596.927,-257.034"/>
<polygon fill="#9a32cd" stroke="#9a32cd" points="508.378,-270.212 499.202,-275.509 509.678,-277.09 508.378,-270.212"/>
<text text-anchor="middle" x="544" y="-274" font-family="FreeSans" font-size="10.00"> Location</text>
</g>
<!-- Node21&#45;&gt;Node26 -->
<g id="edge70" class="edge"><title>Node21&#45;&gt;Node26</title>
<path fill="none" stroke="#9a32cd" stroke-dasharray="5,2" d="M467.288,-302.194C481.617,-314.672 502.642,-330.899 524,-340 576.297,-362.284 593.153,-362 650,-362 650,-362 650,-362 1579,-362 1660.32,-362 1747.98,-310.474 1782.17,-288.132"/>
<polygon fill="#9a32cd" stroke="#9a32cd" points="469.454,-299.435 459.673,-295.362 464.78,-304.646 469.454,-299.435"/>
<text text-anchor="middle" x="1104" y="-413" font-family="FreeSans" font-size="10.00"> AutoTrackDirection</text>
<text text-anchor="middle" x="1104" y="-401" font-family="FreeSans" font-size="10.00">NodeLoc</text>
<text text-anchor="middle" x="1104" y="-389" font-family="FreeSans" font-size="10.00">AutoTrackOffset</text>
<text text-anchor="middle" x="1104" y="-377" font-family="FreeSans" font-size="10.00">FixedYawAxis</text>
<text text-anchor="middle" x="1104" y="-365" font-family="FreeSans" font-size="10.00">NodeScale</text>
</g>
<!-- Node22 -->
<g id="node47" class="node"><title>Node22</title>
<a xlink:href="classMezzanine_1_1Quaternion.xhtml" target="_top" xlink:title="This is used to store information about rotation in 3d space.">
<polygon fill="none" stroke="black" points="392,-373 392,-393 506,-393 506,-373 392,-373"/>
<text text-anchor="middle" x="449" y="-380" font-family="FreeSans" font-size="10.00">Mezzanine::Quaternion</text>
</a>
</g>
<!-- Node22&#45;&gt;Node20 -->
<g id="edge52" class="edge"><title>Node22&#45;&gt;Node20</title>
<path fill="none" stroke="#9a32cd" stroke-dasharray="5,2" d="M470.787,-366.582C494.625,-348.223 533.503,-317.102 564,-287 572.749,-278.365 571.633,-272.606 582,-266 587.686,-262.377 594.067,-259.434 600.583,-257.046"/>
<polygon fill="#9a32cd" stroke="#9a32cd" points="468.547,-363.888 462.729,-372.743 472.799,-369.45 468.547,-363.888"/>
<text text-anchor="middle" x="544" y="-327" font-family="FreeSans" font-size="10.00"> Rotation</text>
</g>
<!-- Node22&#45;&gt;Node26 -->
<g id="edge74" class="edge"><title>Node22&#45;&gt;Node26</title>
<path fill="none" stroke="#9a32cd" stroke-dasharray="5,2" d="M473.386,-398.598C510.149,-420.574 582.644,-458 650,-458 650,-458 650,-458 985,-458 1281.91,-458 1356.63,-433.097 1648,-376 1681.43,-369.448 1692.68,-373.355 1722,-356 1752.23,-338.105 1778.31,-304.734 1790.18,-288.045"/>
<polygon fill="#9a32cd" stroke="#9a32cd" points="474.773,-395.344 464.416,-393.115 471.122,-401.317 474.773,-395.344"/>
<text text-anchor="middle" x="1104" y="-461" font-family="FreeSans" font-size="10.00"> NodeOri</text>
</g>
<!-- Node23&#45;&gt;Node18 -->
<g id="edge54" class="edge"><title>Node23&#45;&gt;Node18</title>
<path fill="none" stroke="#9a32cd" stroke-dasharray="5,2" d="M1328.8,-213.178C1292.55,-199.335 1233.31,-178.975 1180,-171 1113.19,-161.006 1095.53,-169.028 1028,-171 999.757,-171.825 968.638,-173.498 941.81,-175.181"/>
<polygon fill="#9a32cd" stroke="#9a32cd" points="1327.79,-216.543 1338.38,-216.894 1330.32,-210.016 1327.79,-216.543"/>
<text text-anchor="middle" x="1104" y="-174" font-family="FreeSans" font-size="10.00"> Parent</text>
</g>
<!-- Node23&#45;&gt;Node26 -->
<g id="edge66" class="edge"><title>Node23&#45;&gt;Node26</title>
<path fill="none" stroke="midnightblue" d="M1444.29,-235.246C1517.12,-242.826 1626.81,-254.72 1722,-267 1727.74,-267.741 1733.73,-268.552 1739.7,-269.387"/>
<polygon fill="midnightblue" stroke="midnightblue" points="1444.58,-231.756 1434.27,-234.205 1443.85,-238.719 1444.58,-231.756"/>
</g>
<!-- Node24&#45;&gt;Node23 -->
<g id="edge58" class="edge"><title>Node24&#45;&gt;Node23</title>
<path fill="none" stroke="#9a32cd" stroke-dasharray="5,2" d="M1189.72,-210.274C1222.79,-213.467 1260.18,-217.076 1291.74,-220.122"/>
<polygon fill="#9a32cd" stroke="#9a32cd" points="1189.9,-206.775 1179.61,-209.298 1189.23,-213.743 1189.9,-206.775"/>
<text text-anchor="middle" x="1236" y="-222" font-family="FreeSans" font-size="10.00"> Attached</text>
</g>
<!-- Node25 -->
<g id="node55" class="node"><title>Node25</title>
<polygon fill="none" stroke="#bfbfbf" points="1932,-222 1932,-242 2062,-242 2062,-222 1932,-222"/>
<text text-anchor="middle" x="1997" y="-229" font-family="FreeSans" font-size="10.00">std::vector&lt; WorldNode * &gt;</text>
</g>
<!-- Node25&#45;&gt;Node14 -->
<g id="edge62" class="edge"><title>Node25&#45;&gt;Node14</title>
<path fill="none" stroke="#9a32cd" stroke-dasharray="5,2" d="M1922.41,-220.256C1854.81,-208.822 1752.79,-189.589 1666,-165 1644.48,-158.902 1620.68,-149.992 1603.42,-143.121"/>
<polygon fill="#9a32cd" stroke="#9a32cd" points="1922.1,-223.753 1932.54,-221.955 1923.26,-216.849 1922.1,-223.753"/>
<text text-anchor="middle" x="1797" y="-211" font-family="FreeSans" font-size="10.00"> WorldNodes</text>
</g>
<!-- Node26&#45;&gt;Node25 -->
<g id="edge64" class="edge"><title>Node26&#45;&gt;Node25</title>
<path fill="none" stroke="#9a32cd" stroke-dasharray="5,2" d="M1850.99,-265.582C1883.04,-258.212 1923.14,-248.987 1953.21,-242.071"/>
<polygon fill="#9a32cd" stroke="#9a32cd" points="1849.85,-262.253 1840.89,-267.905 1851.42,-269.074 1849.85,-262.253"/>
<text text-anchor="middle" x="1893" y="-264" font-family="FreeSans" font-size="10.00"> elements</text>
</g>
<!-- Node29 -->
<g id="node69" class="node"><title>Node29</title>
<polygon fill="none" stroke="#bfbfbf" points="1939,-124 1939,-144 2055,-144 2055,-124 1939,-124"/>
<text text-anchor="middle" x="1997" y="-131" font-family="FreeSans" font-size="10.00">std::set&lt; WorldNode * &gt;</text>
</g>
<!-- Node26&#45;&gt;Node29 -->
<g id="edge84" class="edge"><title>Node26&#45;&gt;Node29</title>
<path fill="none" stroke="#9a32cd" stroke-dasharray="5,2" d="M1819.42,-261.857C1860.96,-231.95 1948.76,-168.735 1982.95,-144.115"/>
<polygon fill="#9a32cd" stroke="#9a32cd" points="1817.13,-259.191 1811.06,-267.874 1821.22,-264.871 1817.13,-259.191"/>
<text text-anchor="middle" x="1893" y="-227" font-family="FreeSans" font-size="10.00"> keys</text>
</g>
<!-- Node27 -->
<g id="node64" class="node"><title>Node27</title>
<a xlink:title="STL class.">
<polygon fill="none" stroke="#bfbfbf" points="1550.5,-467 1550.5,-487 1607.5,-487 1607.5,-467 1550.5,-467"/>
<text text-anchor="middle" x="1579" y="-474" font-family="FreeSans" font-size="10.00">std::string</text>
</a>
</g>
<!-- Node27&#45;&gt;Node26 -->
<g id="edge76" class="edge"><title>Node27&#45;&gt;Node26</title>
<path fill="none" stroke="#9a32cd" stroke-dasharray="5,2" d="M1617.62,-472.006C1654.34,-466.577 1706.24,-456.918 1722,-444 1773.36,-401.9 1790.93,-317.167 1795.58,-288.075"/>
<polygon fill="#9a32cd" stroke="#9a32cd" points="1617.11,-468.543 1607.71,-473.424 1618.11,-475.472 1617.11,-468.543"/>
<text text-anchor="middle" x="1694" y="-466" font-family="FreeSans" font-size="10.00"> NodeName</text>
</g>
<!-- Node28 -->
<g id="node66" class="node"><title>Node28</title>
<a xlink:title="STL class.">
<polygon fill="none" stroke="#bfbfbf" points="1317.5,-467 1317.5,-499 1408.5,-499 1408.5,-467 1317.5,-467"/>
<text text-anchor="start" x="1325.5" y="-486" font-family="FreeSans" font-size="10.00">std::basic_string&lt;</text>
<text text-anchor="middle" x="1363" y="-474" font-family="FreeSans" font-size="10.00"> char &gt;</text>
</a>
</g>
<!-- Node28&#45;&gt;Node27 -->
<g id="edge78" class="edge"><title>Node28&#45;&gt;Node27</title>
<path fill="none" stroke="midnightblue" d="M1418.66,-481.454C1460.78,-480.284 1516.92,-478.725 1550.37,-477.795"/>
<polygon fill="midnightblue" stroke="midnightblue" points="1418.44,-477.958 1408.54,-481.735 1418.64,-484.956 1418.44,-477.958"/>
</g>
<!-- Node29&#45;&gt;Node14 -->
<g id="edge82" class="edge"><title>Node29&#45;&gt;Node14</title>
<path fill="none" stroke="#9a32cd" stroke-dasharray="5,2" d="M1928.77,-124.222C1905.15,-121.28 1878.46,-118.449 1854,-117 1803.42,-114.004 1790.6,-114.492 1740,-117 1708.72,-118.551 1674.14,-121.786 1645.08,-124.944"/>
<polygon fill="#9a32cd" stroke="#9a32cd" points="1928.33,-127.694 1938.7,-125.486 1929.22,-120.75 1928.33,-127.694"/>
<text text-anchor="middle" x="1797" y="-120" font-family="FreeSans" font-size="10.00"> TrackingNodes</text>
</g>
<!-- Node30 -->
<g id="node72" class="node"><title>Node30</title>
<polygon fill="none" stroke="#bfbfbf" points="1945,-32 1945,-52 2049,-52 2049,-32 1945,-32"/>
<text text-anchor="middle" x="1997" y="-39" font-family="FreeSans" font-size="10.00">std::vector&lt; Light * &gt;</text>
</g>
<!-- Node30&#45;&gt;Node14 -->
<g id="edge86" class="edge"><title>Node30&#45;&gt;Node14</title>
<path fill="none" stroke="#9a32cd" stroke-dasharray="5,2" d="M1940.99,-54.1944C1857.67,-72.3322 1702.64,-106.083 1625.33,-122.914"/>
<polygon fill="#9a32cd" stroke="#9a32cd" points="1941.75,-57.6092 1950.78,-52.062 1940.27,-50.7694 1941.75,-57.6092"/>
<text text-anchor="middle" x="1797" y="-100" font-family="FreeSans" font-size="10.00"> Lights</text>
</g>
<!-- Node31&#45;&gt;Node30 -->
<g id="edge88" class="edge"><title>Node31&#45;&gt;Node30</title>
<path fill="none" stroke="#9a32cd" stroke-dasharray="5,2" d="M1851.39,-21.6146C1880.51,-25.6913 1916.19,-30.6873 1944.95,-34.713"/>
<polygon fill="#9a32cd" stroke="#9a32cd" points="1851.78,-18.1345 1841.39,-20.2141 1850.8,-25.0669 1851.78,-18.1345"/>
<text text-anchor="middle" x="1893" y="-33" font-family="FreeSans" font-size="10.00"> elements</text>
</g>
<!-- Node32 -->
<g id="node78" class="node"><title>Node32</title>
<polygon fill="none" stroke="#bfbfbf" points="1309.5,-119 1309.5,-139 1416.5,-139 1416.5,-119 1309.5,-119"/>
<text text-anchor="middle" x="1363" y="-126" font-family="FreeSans" font-size="10.00">std::vector&lt; Entity * &gt;</text>
</g>
<!-- Node32&#45;&gt;Node14 -->
<g id="edge94" class="edge"><title>Node32&#45;&gt;Node14</title>
<path fill="none" stroke="#9a32cd" stroke-dasharray="5,2" d="M1426.82,-130.182C1453.92,-130.684 1485.51,-131.269 1512.86,-131.775"/>
<polygon fill="#9a32cd" stroke="#9a32cd" points="1426.73,-126.68 1416.67,-129.994 1426.6,-133.679 1426.73,-126.68"/>
<text text-anchor="middle" x="1472" y="-135" font-family="FreeSans" font-size="10.00"> Entities</text>
</g>
<!-- Node33&#45;&gt;Node32 -->
<g id="edge96" class="edge"><title>Node33&#45;&gt;Node32</title>
<path fill="none" stroke="#9a32cd" stroke-dasharray="5,2" d="M1159.72,-118.797C1203.98,-121.018 1265.5,-124.106 1309.24,-126.302"/>
<polygon fill="#9a32cd" stroke="#9a32cd" points="1159.87,-115.3 1149.71,-118.294 1159.52,-122.291 1159.87,-115.3"/>
<text text-anchor="middle" x="1236" y="-128" font-family="FreeSans" font-size="10.00"> elements</text>
</g>
</g>
</svg>
        <g id="navigator" transform="translate(0 0)" fill="#404254">
                <rect fill="#f2f5e9" fill-opacity="0.5" stroke="#606060" stroke-width=".5" x="0" y="0" width="60" height="60"/>
                <use id="zoomplus" xlink:href="#zoomPlus" x="17" y="9" onmousedown="handleZoom(evt,'in')"/>
                <use id="zoomminus" xlink:href="#zoomMin" x="42" y="9" onmousedown="handleZoom(evt,'out')"/>
                <use id="reset" xlink:href="#resetDef" x="30" y="36" onmousedown="handleReset()"/>
                <g id="arrowUp" xlink:href="#dirArrow" transform="translate(30 24)" onmousedown="handlePan(0,-1)">
                  <use xlink:href="#rim" fill="#404040">
                        <set attributeName="fill" to="#808080" begin="arrowUp.mouseover" end="arrowUp.mouseout"/>
                  </use>
                  <path fill="none" stroke="white" stroke-width="1.5" d="M0,-3.0v7 M-2.5,-0.5L0,-3.0L2.5,-0.5"/>
                </g>
                <g id="arrowRight" xlink:href="#dirArrow" transform="rotate(90) translate(36 -43)" onmousedown="handlePan(1,0)">
                  <use xlink:href="#rim" fill="#404040">
                        <set attributeName="fill" to="#808080" begin="arrowRight.mouseover" end="arrowRight.mouseout"/>
                  </use>
                  <path fill="none" stroke="white" stroke-width="1.5" d="M0,-3.0v7 M-2.5,-0.5L0,-3.0L2.5,-0.5"/>
                </g>
                <g id="arrowDown" xlink:href="#dirArrow" transform="rotate(180) translate(-30 -48)" onmousedown="handlePan(0,1)">
                  <use xlink:href="#rim" fill="#404040">
                        <set attributeName="fill" to="#808080" begin="arrowDown.mouseover" end="arrowDown.mouseout"/>
                  </use>
                  <path fill="none" stroke="white" stroke-width="1.5" d="M0,-3.0v7 M-2.5,-0.5L0,-3.0L2.5,-0.5"/>
                </g>
                <g id="arrowLeft" xlink:href="#dirArrow" transform="rotate(270) translate(-36 17)" onmousedown="handlePan(-1,0)">
                  <use xlink:href="#rim" fill="#404040">
                        <set attributeName="fill" to="#808080" begin="arrowLeft.mouseover" end="arrowLeft.mouseout"/>
                  </use>
                  <path fill="none" stroke="white" stroke-width="1.5" d="M0,-3.0v7 M-2.5,-0.5L0,-3.0L2.5,-0.5"/>
                </g>
        </g>
        <svg viewBox="0 0 15 15" width="100%" height="30px" preserveAspectRatio="xMaxYMin meet">
         <g id="arrow_out" transform="scale(0.3 0.3)">
          <a xlink:href="classMezzanine_1_1World__coll__graph_org.svg" target="_base">
           <rect id="button" ry="5" rx="5" y="6" x="6" height="38" width="38"
                fill="#f2f5e9" fill-opacity="0.5" stroke="#606060" stroke-width="1.0"/>
           <path id="arrow"
             d="M 11.500037,31.436501 C 11.940474,20.09759 22.043105,11.32322 32.158766,21.979434 L 37.068811,17.246167 C 37.068811,17.246167 37.088388,32 37.088388,32 L 22.160133,31.978069 C 22.160133,31.978069 26.997745,27.140456 26.997745,27.140456 C 18.528582,18.264221 13.291696,25.230495 11.500037,31.436501 z"
             style="fill:#404040;"/>
          </a>
         </g>
        </svg>
</svg>
