<?xml version="1.0" encoding="UTF-8" standalone="no"?>
<!DOCTYPE svg PUBLIC "-//W3C//DTD SVG 1.1//EN"
 "http://www.w3.org/Graphics/SVG/1.1/DTD/svg11.dtd">
<!-- Generated by graphviz version 2.26.3 (20100126.1600)
 -->
<!-- Title: Mezzanine::ObjectSettingSetContainer Pages: 1 -->
<svg width="318pt" height="116pt"
 viewBox="0.00 0.00 318.00 116.00" xmlns="http://www.w3.org/2000/svg" xmlns:xlink="http://www.w3.org/1999/xlink">
<g id="graph1" class="graph" transform="scale(1 1) rotate(0) translate(4 112)">
<title>Mezzanine::ObjectSettingSetContainer</title>
<polygon fill="white" stroke="white" points="-4,5 -4,-112 315,-112 315,5 -4,5"/>
<!-- Node1 -->
<g id="node1" class="node"><title>Node1</title>
<polygon fill="#bfbfbf" stroke="black" points="81.5,-73 81.5,-107 220.5,-107 220.5,-73 81.5,-73"/>
<text text-anchor="start" x="89.5" y="-94" font-family="FreeSans" font-size="10.00">Mezzanine::ObjectSetting</text>
<text text-anchor="middle" x="151" y="-81" font-family="FreeSans" font-size="10.00">SetContainer</text>
</g>
<!-- Node2 -->
<g id="node3" class="node"><title>Node2</title>
<a xlink:href="classMezzanine_1_1ObjectSettingGroup.html" target="_top" xlink:title="A class that store&#39;s a collection of SettingSets that can be applied together.">
<polygon fill="white" stroke="black" points="-0.5,-1 -0.5,-35 138.5,-35 138.5,-1 -0.5,-1"/>
<text text-anchor="start" x="7.5" y="-22" font-family="FreeSans" font-size="10.00">Mezzanine::ObjectSetting</text>
<text text-anchor="middle" x="69" y="-9" font-family="FreeSans" font-size="10.00">Group</text>
</a>
</g>
<!-- Node1&#45;&gt;Node2 -->
<g id="edge2" class="edge"><title>Node1&#45;&gt;Node2</title>
<path fill="none" stroke="midnightblue" d="M123.896,-66.2011C112.354,-56.0666 99.1454,-44.4691 88.5775,-35.19"/>
<polygon fill="midnightblue" stroke="midnightblue" points="121.743,-68.969 131.567,-72.937 126.362,-63.7089 121.743,-68.969"/>
</g>
<!-- Node3 -->
<g id="node5" class="node"><title>Node3</title>
<a xlink:href="classMezzanine_1_1ObjectSettingSet.html" target="_top" xlink:title="A class that store&#39;s a named set of settings for an object.">
<polygon fill="white" stroke="black" points="155.5,-7.5 155.5,-28.5 310.5,-28.5 310.5,-7.5 155.5,-7.5"/>
<text text-anchor="middle" x="233" y="-15.5" font-family="FreeSans" font-size="10.00">Mezzanine::ObjectSettingSet</text>
</a>
</g>
<!-- Node1&#45;&gt;Node3 -->
<g id="edge4" class="edge"><title>Node1&#45;&gt;Node3</title>
<path fill="none" stroke="midnightblue" d="M178.085,-66.2181C192.431,-53.6218 209.355,-38.7613 220.585,-28.901"/>
<polygon fill="midnightblue" stroke="midnightblue" points="175.638,-63.7089 170.433,-72.937 180.257,-68.969 175.638,-63.7089"/>
</g>
</g>
</svg>
