<?xml version="1.0" encoding="UTF-8" standalone="no"?>
<!DOCTYPE svg PUBLIC "-//W3C//DTD SVG 1.1//EN"
 "http://www.w3.org/Graphics/SVG/1.1/DTD/svg11.dtd">
<!-- Generated by graphviz version 2.38.0 (20140413.2041)
 -->
<!-- Title: Mezzanine::UI::SimpleRenderer Pages: 1 -->
<svg width="490pt" height="318pt"
 viewBox="0.00 0.00 489.50 318.00" xmlns="http://www.w3.org/2000/svg" xmlns:xlink="http://www.w3.org/1999/xlink">
<g id="graph0" class="graph" transform="scale(1 1) rotate(0) translate(4 314)">
<title>Mezzanine::UI::SimpleRenderer</title>
<polygon fill="white" stroke="none" points="-4,4 -4,-314 485.5,-314 485.5,4 -4,4"/>
<!-- Node1 -->
<g id="node1" class="node"><title>Node1</title>
<polygon fill="#bfbfbf" stroke="black" points="275,-0.5 275,-19.5 431,-19.5 431,-0.5 275,-0.5"/>
<text text-anchor="middle" x="353" y="-7.5" font-family="Helvetica,sans-Serif" font-size="10.00">Mezzanine::UI::SimpleRenderer</text>
</g>
<!-- Node2 -->
<g id="node2" class="node"><title>Node2</title>
<g id="a_node2"><a xlink:title="STL class. ">
<polygon fill="white" stroke="#bfbfbf" points="367,-212.5 367,-231.5 427,-231.5 427,-212.5 367,-212.5"/>
<text text-anchor="middle" x="397" y="-219.5" font-family="Helvetica,sans-Serif" font-size="10.00">std::string</text>
</a>
</g>
</g>
<!-- Node2&#45;&gt;Node1 -->
<g id="edge1" class="edge"><title>Node2&#45;&gt;Node1</title>
<path fill="none" stroke="#9a32cd" stroke-dasharray="5,2" d="M399.92,-202.359C404.414,-167.888 409.916,-92.7147 383,-38 379.35,-30.5807 372.691,-24.2646 366.573,-19.611"/>
<polygon fill="#9a32cd" stroke="#9a32cd" points="396.435,-202.005 398.483,-212.4 403.365,-202.997 396.435,-202.005"/>
<text text-anchor="middle" x="423" y="-119" font-family="Helvetica,sans-Serif" font-size="10.00"> PriAtlas</text>
</g>
<!-- Node5 -->
<g id="node5" class="node"><title>Node5</title>
<g id="a_node5"><a xlink:href="structMezzanine_1_1UI_1_1VertexData.html" target="_top" xlink:title="Basic class describing a vertex in the UI to be rendered. ">
<polygon fill="white" stroke="black" points="233,-145.5 233,-164.5 369,-164.5 369,-145.5 233,-145.5"/>
<text text-anchor="middle" x="301" y="-152.5" font-family="Helvetica,sans-Serif" font-size="10.00">Mezzanine::UI::VertexData</text>
</a>
</g>
</g>
<!-- Node2&#45;&gt;Node5 -->
<g id="edge9" class="edge"><title>Node2&#45;&gt;Node5</title>
<path fill="none" stroke="#9a32cd" stroke-dasharray="5,2" d="M375.962,-206.813C369.844,-202.684 363.154,-198.165 357,-194 342.21,-183.99 325.241,-172.471 313.894,-164.763"/>
<polygon fill="#9a32cd" stroke="#9a32cd" points="374.137,-209.804 384.384,-212.496 378.052,-204.001 374.137,-209.804"/>
<text text-anchor="middle" x="370" y="-186" font-family="Helvetica,sans-Serif" font-size="10.00"> Atlas</text>
</g>
<!-- Node3 -->
<g id="node3" class="node"><title>Node3</title>
<g id="a_node3"><a xlink:title="STL class. ">
<polygon fill="white" stroke="#bfbfbf" points="386.5,-279.5 386.5,-309.5 481.5,-309.5 481.5,-279.5 386.5,-279.5"/>
<text text-anchor="start" x="394.5" y="-297.5" font-family="Helvetica,sans-Serif" font-size="10.00">std::basic_string&lt;</text>
<text text-anchor="middle" x="434" y="-286.5" font-family="Helvetica,sans-Serif" font-size="10.00"> char &gt;</text>
</a>
</g>
</g>
<!-- Node3&#45;&gt;Node2 -->
<g id="edge2" class="edge"><title>Node3&#45;&gt;Node2</title>
<path fill="none" stroke="midnightblue" d="M421.795,-270.244C414.907,-257.12 406.697,-241.477 401.667,-231.893"/>
<polygon fill="midnightblue" stroke="midnightblue" points="418.766,-272.005 426.512,-279.233 424.964,-268.752 418.766,-272.005"/>
</g>
<!-- Node4 -->
<g id="node4" class="node"><title>Node4</title>
<polygon fill="white" stroke="#bfbfbf" points="247.5,-67.5 247.5,-97.5 366.5,-97.5 366.5,-67.5 247.5,-67.5"/>
<text text-anchor="start" x="255.5" y="-85.5" font-family="Helvetica,sans-Serif" font-size="10.00">std::vector&lt; Mezzanine</text>
<text text-anchor="middle" x="307" y="-74.5" font-family="Helvetica,sans-Serif" font-size="10.00">::UI::VertexData &gt;</text>
</g>
<!-- Node4&#45;&gt;Node1 -->
<g id="edge3" class="edge"><title>Node4&#45;&gt;Node1</title>
<path fill="none" stroke="#9a32cd" stroke-dasharray="5,2" d="M306.159,-56.7605C306.893,-50.2803 308.581,-43.5584 312,-38 316.912,-30.0145 325.172,-23.9065 332.997,-19.5369"/>
<polygon fill="#9a32cd" stroke="#9a32cd" points="302.643,-57.0421 305.688,-67.1898 309.636,-57.3579 302.643,-57.0421"/>
<text text-anchor="middle" x="347.5" y="-41" font-family="Helvetica,sans-Serif" font-size="10.00"> RenderVertices</text>
</g>
<!-- Node5&#45;&gt;Node4 -->
<g id="edge4" class="edge"><title>Node5&#45;&gt;Node4</title>
<path fill="none" stroke="#9a32cd" stroke-dasharray="5,2" d="M302.597,-135.236C303.604,-123.408 304.882,-108.383 305.802,-97.5762"/>
<polygon fill="#9a32cd" stroke="#9a32cd" points="299.096,-135.095 301.736,-145.355 306.071,-135.688 299.096,-135.095"/>
<text text-anchor="middle" x="326.5" y="-119" font-family="Helvetica,sans-Serif" font-size="10.00"> elements</text>
</g>
<!-- Node6 -->
<g id="node6" class="node"><title>Node6</title>
<g id="a_node6"><a xlink:href="structMezzanine_1_1UI_1_1Vertex.html" target="_top" xlink:title="Basic class describing a vertex in the UI to be rendered. ">
<polygon fill="white" stroke="black" points="162.5,-212.5 162.5,-231.5 277.5,-231.5 277.5,-212.5 162.5,-212.5"/>
<text text-anchor="middle" x="220" y="-219.5" font-family="Helvetica,sans-Serif" font-size="10.00">Mezzanine::UI::Vertex</text>
</a>
</g>
</g>
<!-- Node6&#45;&gt;Node5 -->
<g id="edge5" class="edge"><title>Node6&#45;&gt;Node5</title>
<path fill="none" stroke="#9a32cd" stroke-dasharray="5,2" d="M239.049,-205.713C255.008,-192.907 277.213,-175.088 290.249,-164.627"/>
<polygon fill="#9a32cd" stroke="#9a32cd" points="236.533,-203.245 230.924,-212.234 240.914,-208.705 236.533,-203.245"/>
<text text-anchor="middle" x="277" y="-186" font-family="Helvetica,sans-Serif" font-size="10.00"> Vert</text>
</g>
<!-- Node7 -->
<g id="node7" class="node"><title>Node7</title>
<g id="a_node7"><a xlink:href="classMezzanine_1_1Vector2.html" target="_top" xlink:title="This is used to represent a point on a 2 dimentional area, such as a screen. ">
<polygon fill="white" stroke="black" points="0,-285 0,-304 104,-304 104,-285 0,-285"/>
<text text-anchor="middle" x="52" y="-292" font-family="Helvetica,sans-Serif" font-size="10.00">Mezzanine::Vector2</text>
</a>
</g>
</g>
<!-- Node7&#45;&gt;Node6 -->
<g id="edge6" class="edge"><title>Node7&#45;&gt;Node6</title>
<path fill="none" stroke="#9a32cd" stroke-dasharray="5,2" d="M81.662,-281.053C115.589,-266.815 170.233,-243.884 199.663,-231.534"/>
<polygon fill="#9a32cd" stroke="#9a32cd" points="80.1314,-277.899 72.2647,-284.996 82.8401,-284.354 80.1314,-277.899"/>
<text text-anchor="middle" x="161" y="-253" font-family="Helvetica,sans-Serif" font-size="10.00"> UV</text>
</g>
<!-- Node8 -->
<g id="node8" class="node"><title>Node8</title>
<g id="a_node8"><a xlink:href="classMezzanine_1_1ColourValue.html" target="_top" xlink:title="This is a simple class for holding 4 reals representing the colour any give object or lightsource can...">
<polygon fill="white" stroke="black" points="122.5,-285 122.5,-304 245.5,-304 245.5,-285 122.5,-285"/>
<text text-anchor="middle" x="184" y="-292" font-family="Helvetica,sans-Serif" font-size="10.00">Mezzanine::ColourValue</text>
</a>
</g>
</g>
<!-- Node8&#45;&gt;Node6 -->
<g id="edge7" class="edge"><title>Node8&#45;&gt;Node6</title>
<path fill="none" stroke="#9a32cd" stroke-dasharray="5,2" d="M193.098,-275.682C200.274,-261.63 209.972,-242.638 215.55,-231.715"/>
<polygon fill="#9a32cd" stroke="#9a32cd" points="189.845,-274.358 188.414,-284.855 196.079,-277.541 189.845,-274.358"/>
<text text-anchor="middle" x="222" y="-253" font-family="Helvetica,sans-Serif" font-size="10.00"> Colour</text>
</g>
<!-- Node9 -->
<g id="node9" class="node"><title>Node9</title>
<g id="a_node9"><a xlink:href="classMezzanine_1_1Vector3.html" target="_top" xlink:title="This is used to represent a point in space, or a vector through space. ">
<polygon fill="white" stroke="black" points="264,-285 264,-304 368,-304 368,-285 264,-285"/>
<text text-anchor="middle" x="316" y="-292" font-family="Helvetica,sans-Serif" font-size="10.00">Mezzanine::Vector3</text>
</a>
</g>
</g>
<!-- Node9&#45;&gt;Node6 -->
<g id="edge8" class="edge"><title>Node9&#45;&gt;Node6</title>
<path fill="none" stroke="#9a32cd" stroke-dasharray="5,2" d="M296.066,-278.861C276.686,-264.629 247.897,-243.487 231.868,-231.715"/>
<polygon fill="#9a32cd" stroke="#9a32cd" points="294.097,-281.757 304.229,-284.855 298.24,-276.115 294.097,-281.757"/>
<text text-anchor="middle" x="290.5" y="-253" font-family="Helvetica,sans-Serif" font-size="10.00"> Position</text>
</g>
</g>
</svg>
