<?xml version="1.0" encoding="UTF-8" standalone="no"?>
<!DOCTYPE svg PUBLIC "-//W3C//DTD SVG 1.1//EN"
 "http://www.w3.org/Graphics/SVG/1.1/DTD/svg11.dtd">
<!-- Generated by graphviz version 2.26.3 (20100126.1600)
 -->
<!-- Title: Mezzanine::Audio::SoundProxy Pages: 1 -->
<svg width="1092pt" height="635pt"
 viewBox="0.00 0.00 1092.00 634.67" xmlns="http://www.w3.org/2000/svg" xmlns:xlink="http://www.w3.org/1999/xlink">
<g id="graph1" class="graph" transform="scale(1 1) rotate(0) translate(4 630.675)">
<title>Mezzanine::Audio::SoundProxy</title>
<polygon fill="white" stroke="white" points="-4,5 -4,-630.675 1089,-630.675 1089,5 -4,5"/>
<!-- Node1 -->
<g id="node1" class="node"><title>Node1</title>
<polygon fill="#bfbfbf" stroke="black" points="936,-159.675 936,-179.675 1084,-179.675 1084,-159.675 936,-159.675"/>
<text text-anchor="middle" x="1010" y="-166.675" font-family="FreeSans" font-size="10.00">Mezzanine::Audio::SoundProxy</text>
</g>
<!-- Node2 -->
<g id="node2" class="node"><title>Node2</title>
<a xlink:href="classMezzanine_1_1WorldProxy.xhtml" target="_top" xlink:title="This is the base class for proxy objects belonging to the various 3D subsystems.">
<polygon fill="white" stroke="black" points="741,-99.6745 741,-119.675 857,-119.675 857,-99.6745 741,-99.6745"/>
<text text-anchor="middle" x="799" y="-106.675" font-family="FreeSans" font-size="10.00">Mezzanine::WorldProxy</text>
</a>
</g>
<!-- Node2&#45;&gt;Node1 -->
<g id="edge2" class="edge"><title>Node2&#45;&gt;Node1</title>
<path fill="none" stroke="midnightblue" d="M852.811,-122.119C861.264,-124.217 869.886,-126.441 878,-128.675 913.167,-138.354 953.108,-150.993 979.757,-159.665"/>
<polygon fill="midnightblue" stroke="midnightblue" points="853.551,-118.697 843.006,-119.721 851.888,-125.497 853.551,-118.697"/>
</g>
<!-- Node3 -->
<g id="node4" class="node"><title>Node3</title>
<a xlink:href="classMezzanine_1_1TransformableObject.xhtml" target="_top" xlink:title="This is an interface for all 3D objects that can have their full transforms manipulated.">
<polygon fill="white" stroke="black" points="453,-62.6745 453,-94.6745 581,-94.6745 581,-62.6745 453,-62.6745"/>
<text text-anchor="start" x="461" y="-81.6745" font-family="FreeSans" font-size="10.00">Mezzanine::Transformable</text>
<text text-anchor="middle" x="517" y="-69.6745" font-family="FreeSans" font-size="10.00">Object</text>
</a>
</g>
<!-- Node3&#45;&gt;Node2 -->
<g id="edge4" class="edge"><title>Node3&#45;&gt;Node2</title>
<path fill="none" stroke="midnightblue" d="M591.404,-86.8537C638.091,-91.9859 697.423,-98.5083 740.69,-103.265"/>
<polygon fill="midnightblue" stroke="midnightblue" points="591.666,-83.3614 581.343,-85.7477 590.901,-90.3195 591.666,-83.3614"/>
</g>
<!-- Node4 -->
<g id="node6" class="node"><title>Node4</title>
<a xlink:href="classMezzanine_1_1WorldObject.xhtml" target="_top" xlink:title="This is the base class from which classes that are insertable into the physical world.">
<polygon fill="white" stroke="black" points="457,-206.675 457,-226.675 577,-226.675 577,-206.675 457,-206.675"/>
<text text-anchor="middle" x="517" y="-213.675" font-family="FreeSans" font-size="10.00">Mezzanine::WorldObject</text>
</a>
</g>
<!-- Node4&#45;&gt;Node2 -->
<g id="edge6" class="edge"><title>Node4&#45;&gt;Node2</title>
<path fill="none" stroke="#9a32cd" stroke-dasharray="5,2" d="M539.566,-200.499C554.121,-189.94 573.368,-175.738 590,-162.675 598.189,-156.242 598.603,-152.162 608,-147.675 619.975,-141.955 689.099,-128.959 740.772,-119.762"/>
<polygon fill="#9a32cd" stroke="#9a32cd" points="537.232,-197.867 531.176,-206.56 541.331,-203.541 537.232,-197.867"/>
<text text-anchor="middle" x="655" y="-150.675" font-family="FreeSans" font-size="10.00"> ParentObject</text>
</g>
<!-- Node11 -->
<g id="node22" class="node"><title>Node11</title>
<a xlink:href="classMezzanine_1_1WorldObjectPhysicsSettings.xhtml" target="_top" xlink:title="This is a base helper class for configuring physics settings of a world object.">
<polygon fill="white" stroke="black" points="722.5,-137.675 722.5,-169.675 875.5,-169.675 875.5,-137.675 722.5,-137.675"/>
<text text-anchor="start" x="730.5" y="-156.675" font-family="FreeSans" font-size="10.00">Mezzanine::WorldObjectPhysics</text>
<text text-anchor="middle" x="799" y="-144.675" font-family="FreeSans" font-size="10.00">Settings</text>
</a>
</g>
<!-- Node4&#45;&gt;Node11 -->
<g id="edge26" class="edge"><title>Node4&#45;&gt;Node11</title>
<path fill="none" stroke="#9a32cd" stroke-dasharray="5,2" d="M587.659,-218.145C623.312,-216.476 666.424,-210.669 702,-194.675 711.762,-190.286 710.693,-183.961 720,-178.675 725.879,-175.335 732.262,-172.379 738.766,-169.779"/>
<polygon fill="#9a32cd" stroke="#9a32cd" points="587.198,-214.659 577.333,-218.524 587.455,-221.654 587.198,-214.659"/>
<text text-anchor="middle" x="655" y="-218.675" font-family="FreeSans" font-size="10.00"> Parent</text>
</g>
<!-- Node16 -->
<g id="node34" class="node"><title>Node16</title>
<a xlink:href="classMezzanine_1_1Physics_1_1Collision.xhtml" target="_top" xlink:title="This is an event class used to track collsions in the physics world.">
<polygon fill="white" stroke="black" points="749,-423.675 749,-455.675 849,-455.675 849,-423.675 749,-423.675"/>
<text text-anchor="start" x="757" y="-442.675" font-family="FreeSans" font-size="10.00">Mezzanine::Physics</text>
<text text-anchor="middle" x="799" y="-430.675" font-family="FreeSans" font-size="10.00">::Collision</text>
</a>
</g>
<!-- Node4&#45;&gt;Node16 -->
<g id="edge42" class="edge"><title>Node4&#45;&gt;Node16</title>
<path fill="none" stroke="#9a32cd" stroke-dasharray="5,2" d="M532.544,-234.573C549.102,-254.53 574.953,-288.396 590,-321.675 603.767,-352.123 584.249,-371.169 608,-394.675 610.558,-397.206 692.977,-416.006 748.702,-428.492"/>
<polygon fill="#9a32cd" stroke="#9a32cd" points="535.202,-232.296 526.076,-226.914 529.854,-236.812 535.202,-232.296"/>
<text text-anchor="middle" x="655" y="-431.675" font-family="FreeSans" font-size="10.00"> ObjectA</text>
<text text-anchor="middle" x="655" y="-419.675" font-family="FreeSans" font-size="10.00">ObjectB</text>
</g>
<!-- Node19 -->
<g id="node41" class="node"><title>Node19</title>
<a xlink:href="classMezzanine_1_1WorldObjectGraphicsSettings.xhtml" target="_top" xlink:title="This is a helper class for configuring graphics settings of a World Object.">
<polygon fill="white" stroke="black" points="720,-312.675 720,-344.675 878,-344.675 878,-312.675 720,-312.675"/>
<text text-anchor="start" x="728" y="-331.675" font-family="FreeSans" font-size="10.00">Mezzanine::WorldObjectGraphics</text>
<text text-anchor="middle" x="799" y="-319.675" font-family="FreeSans" font-size="10.00">Settings</text>
</a>
</g>
<!-- Node4&#45;&gt;Node19 -->
<g id="edge48" class="edge"><title>Node4&#45;&gt;Node19</title>
<path fill="none" stroke="#9a32cd" stroke-dasharray="5,2" d="M533.742,-234.287C550.809,-251.152 578.85,-275.996 608,-289.675 642.775,-305.993 684.258,-315.507 719.666,-321.044"/>
<polygon fill="#9a32cd" stroke="#9a32cd" points="535.804,-231.393 526.289,-226.732 530.821,-236.309 535.804,-231.393"/>
<text text-anchor="middle" x="655" y="-319.675" font-family="FreeSans" font-size="10.00"> Parent</text>
</g>
<!-- Node5 -->
<g id="node8" class="node"><title>Node5</title>
<a xlink:href="classMezzanine_1_1World.xhtml" target="_top" xlink:title="This class represents a world for objects to interact within.">
<polygon fill="white" stroke="black" points="236,-18.6745 236,-38.6745 328,-38.6745 328,-18.6745 236,-18.6745"/>
<text text-anchor="middle" x="282" y="-25.6745" font-family="FreeSans" font-size="10.00">Mezzanine::World</text>
</a>
</g>
<!-- Node5&#45;&gt;Node4 -->
<g id="edge8" class="edge"><title>Node5&#45;&gt;Node4</title>
<path fill="none" stroke="#9a32cd" stroke-dasharray="5,2" d="M337.499,-37.0306C342.945,-39.7115 347.944,-43.185 352,-47.6745 384.916,-84.1085 339.376,-118.294 370,-156.675 372.015,-159.199 449.935,-190.212 491.49,-206.628"/>
<polygon fill="#9a32cd" stroke="#9a32cd" points="338.586,-33.6956 328.001,-33.228 335.984,-40.1941 338.586,-33.6956"/>
<text text-anchor="middle" x="398" y="-181.675" font-family="FreeSans" font-size="10.00"> ParentWorld</text>
</g>
<!-- Node7 -->
<g id="node12" class="node"><title>Node7</title>
<a xlink:href="classMezzanine_1_1WorldManager.xhtml" target="_top" xlink:title="This is the base class for all managers that belong to a single world instance.">
<polygon fill="white" stroke="black" points="452.5,-24.6745 452.5,-44.6745 581.5,-44.6745 581.5,-24.6745 452.5,-24.6745"/>
<text text-anchor="middle" x="517" y="-31.6745" font-family="FreeSans" font-size="10.00">Mezzanine::WorldManager</text>
</a>
</g>
<!-- Node5&#45;&gt;Node7 -->
<g id="edge22" class="edge"><title>Node5&#45;&gt;Node7</title>
<path fill="none" stroke="#9a32cd" stroke-dasharray="5,2" d="M338.458,-30.116C372.735,-30.9912 416.607,-32.1113 452.283,-33.0222"/>
<polygon fill="#9a32cd" stroke="#9a32cd" points="338.234,-26.6092 328.148,-29.8528 338.055,-33.607 338.234,-26.6092"/>
<text text-anchor="middle" x="398" y="-35.6745" font-family="FreeSans" font-size="10.00"> ParentWorld</text>
</g>
<!-- Node6 -->
<g id="node10" class="node"><title>Node6</title>
<polygon fill="white" stroke="#bfbfbf" points="726.5,-4.67452 726.5,-24.6745 871.5,-24.6745 871.5,-4.67452 726.5,-4.67452"/>
<text text-anchor="middle" x="799" y="-11.6745" font-family="FreeSans" font-size="10.00">std::vector&lt; WorldManager * &gt;</text>
</g>
<!-- Node6&#45;&gt;Node5 -->
<g id="edge10" class="edge"><title>Node6&#45;&gt;Node5</title>
<path fill="none" stroke="#9a32cd" stroke-dasharray="5,2" d="M716.121,-7.08009C644.101,-1.68096 537.026,3.46117 444,-3.67452 404.701,-6.68899 360.508,-13.7592 328.219,-19.6143"/>
<polygon fill="#9a32cd" stroke="#9a32cd" points="716.248,-10.6001 726.487,-7.87712 716.784,-3.62068 716.248,-10.6001"/>
<text text-anchor="middle" x="517" y="-6.67452" font-family="FreeSans" font-size="10.00"> WorldManagers</text>
</g>
<!-- Node7&#45;&gt;Node6 -->
<g id="edge12" class="edge"><title>Node7&#45;&gt;Node6</title>
<path fill="none" stroke="#9a32cd" stroke-dasharray="5,2" d="M591.789,-29.3704C633.457,-26.4152 685.106,-22.7521 726.414,-19.8224"/>
<polygon fill="#9a32cd" stroke="#9a32cd" points="591.424,-25.8874 581.696,-30.0861 591.919,-32.8698 591.424,-25.8874"/>
<text text-anchor="middle" x="655" y="-31.6745" font-family="FreeSans" font-size="10.00"> elements</text>
</g>
<!-- Node8 -->
<g id="node14" class="node"><title>Node8</title>
<a xlink:href="classMezzanine_1_1ManagerBase.xhtml" target="_top" xlink:title="This is the base class from which all the Entresol and World Managers inherit.">
<polygon fill="white" stroke="black" points="219,-106.675 219,-126.675 345,-126.675 345,-106.675 219,-106.675"/>
<text text-anchor="middle" x="282" y="-113.675" font-family="FreeSans" font-size="10.00">Mezzanine::ManagerBase</text>
</a>
</g>
<!-- Node8&#45;&gt;Node7 -->
<g id="edge14" class="edge"><title>Node8&#45;&gt;Node7</title>
<path fill="none" stroke="midnightblue" d="M333.613,-103.809C339.862,-101.917 346.112,-99.8609 352,-97.6745 394.489,-81.8957 401.429,-69.2318 444,-53.6745 453.225,-50.3033 463.311,-47.2766 472.96,-44.6819"/>
<polygon fill="midnightblue" stroke="midnightblue" points="332.476,-100.495 323.848,-106.645 334.428,-107.217 332.476,-100.495"/>
</g>
<!-- Node9 -->
<g id="node16" class="node"><title>Node9</title>
<a xlink:href="classMezzanine_1_1Entresol.xhtml" target="_top" xlink:title="This is the main entry point for the entire library.">
<polygon fill="white" stroke="black" points="9.5,-73.6745 9.5,-93.6745 110.5,-93.6745 110.5,-73.6745 9.5,-73.6745"/>
<text text-anchor="middle" x="60" y="-80.6745" font-family="FreeSans" font-size="10.00">Mezzanine::Entresol</text>
</a>
</g>
<!-- Node9&#45;&gt;Node8 -->
<g id="edge16" class="edge"><title>Node9&#45;&gt;Node8</title>
<path fill="none" stroke="#9a32cd" stroke-dasharray="5,2" d="M120.722,-92.7007C151.188,-97.2295 188.062,-102.711 218.858,-107.288"/>
<polygon fill="#9a32cd" stroke="#9a32cd" points="121.059,-89.2125 110.653,-91.204 120.03,-96.1364 121.059,-89.2125"/>
<text text-anchor="middle" x="166" y="-106.675" font-family="FreeSans" font-size="10.00"> TheEntresol</text>
</g>
<!-- Node10 -->
<g id="node18" class="node"><title>Node10</title>
<a xlink:href="classMezzanine_1_1Singleton.xhtml" target="_top" xlink:title="Mezzanine::Singleton\l\&lt; Entresol \&gt;">
<polygon fill="white" stroke="black" points="228.5,-56.6745 228.5,-88.6745 335.5,-88.6745 335.5,-56.6745 228.5,-56.6745"/>
<text text-anchor="start" x="236.5" y="-75.6745" font-family="FreeSans" font-size="10.00">Mezzanine::Singleton</text>
<text text-anchor="middle" x="282" y="-63.6745" font-family="FreeSans" font-size="10.00">&lt; Entresol &gt;</text>
</a>
</g>
<!-- Node9&#45;&gt;Node10 -->
<g id="edge20" class="edge"><title>Node9&#45;&gt;Node10</title>
<path fill="none" stroke="#9a32cd" stroke-dasharray="5,2" d="M98.1613,-70.6518C110.698,-66.9848 124.803,-63.5 138,-61.6745 167.804,-57.5519 201.307,-59.7112 228.493,-63.169"/>
<polygon fill="#9a32cd" stroke="#9a32cd" points="97.0336,-67.3365 88.491,-73.6034 99.0772,-74.0316 97.0336,-67.3365"/>
<text text-anchor="middle" x="166" y="-64.6745" font-family="FreeSans" font-size="10.00"> SingletonPtr</text>
</g>
<!-- Node10&#45;&gt;Node9 -->
<g id="edge18" class="edge"><title>Node10&#45;&gt;Node9</title>
<path fill="none" stroke="midnightblue" d="M218.127,-75.8394C183.988,-77.531 142.546,-79.5844 110.653,-81.1647"/>
<polygon fill="midnightblue" stroke="midnightblue" points="218.654,-79.3177 228.468,-75.327 218.307,-72.3263 218.654,-79.3177"/>
</g>
<!-- Node11&#45;&gt;Node4 -->
<g id="edge24" class="edge"><title>Node11&#45;&gt;Node4</title>
<path fill="none" stroke="#9a32cd" stroke-dasharray="5,2" d="M712.006,-163.021C679.113,-167.56 641.538,-173.963 608,-182.675 584.167,-188.865 557.921,-199.053 539.765,-206.666"/>
<polygon fill="#9a32cd" stroke="#9a32cd" points="712.608,-166.471 722.054,-161.671 711.677,-159.534 712.608,-166.471"/>
<text text-anchor="middle" x="655" y="-185.675" font-family="FreeSans" font-size="10.00"> PhysicsSettings</text>
</g>
<!-- Node12 -->
<g id="node25" class="node"><title>Node12</title>
<a xlink:href="classMezzanine_1_1Physics_1_1CollisionShape.xhtml" target="_top" xlink:title="This is the base class for all collision shapes.">
<polygon fill="white" stroke="black" points="467,-121.675 467,-153.675 567,-153.675 567,-121.675 467,-121.675"/>
<text text-anchor="start" x="475" y="-140.675" font-family="FreeSans" font-size="10.00">Mezzanine::Physics</text>
<text text-anchor="middle" x="517" y="-128.675" font-family="FreeSans" font-size="10.00">::CollisionShape</text>
</a>
</g>
<!-- Node12&#45;&gt;Node11 -->
<g id="edge28" class="edge"><title>Node12&#45;&gt;Node11</title>
<path fill="none" stroke="#9a32cd" stroke-dasharray="5,2" d="M566.013,-118.355C604.189,-106.283 657.922,-95.9162 702,-112.675 712.005,-116.478 710.693,-123.388 720,-128.675 725.879,-132.014 732.262,-134.97 738.766,-137.57"/>
<polygon fill="#9a32cd" stroke="#9a32cd" points="564.562,-115.148 556.169,-121.613 566.763,-121.793 564.562,-115.148"/>
<text text-anchor="middle" x="655" y="-115.675" font-family="FreeSans" font-size="10.00"> WorldObjectShape</text>
</g>
<!-- Node13 -->
<g id="node27" class="node"><title>Node13</title>
<a xlink:title="STL class.">
<polygon fill="white" stroke="#bfbfbf" points="253.5,-174.675 253.5,-194.675 310.5,-194.675 310.5,-174.675 253.5,-174.675"/>
<text text-anchor="middle" x="282" y="-181.675" font-family="FreeSans" font-size="10.00">std::string</text>
</a>
</g>
<!-- Node13&#45;&gt;Node4 -->
<g id="edge34" class="edge"><title>Node13&#45;&gt;Node4</title>
<path fill="none" stroke="#9a32cd" stroke-dasharray="5,2" d="M321.178,-190.009C358.151,-195.044 414.121,-202.665 456.768,-208.473"/>
<polygon fill="#9a32cd" stroke="#9a32cd" points="321.196,-186.48 310.816,-188.598 320.252,-193.416 321.196,-186.48"/>
<text text-anchor="middle" x="398" y="-205.675" font-family="FreeSans" font-size="10.00"> Name</text>
</g>
<!-- Node13&#45;&gt;Node12 -->
<g id="edge30" class="edge"><title>Node13&#45;&gt;Node12</title>
<path fill="none" stroke="#9a32cd" stroke-dasharray="5,2" d="M307.956,-169.71C325.001,-160.694 348.116,-149.963 370,-144.675 401.54,-137.053 437.965,-135.27 466.665,-135.41"/>
<polygon fill="#9a32cd" stroke="#9a32cd" points="306.268,-166.644 299.157,-174.498 309.614,-172.793 306.268,-166.644"/>
<text text-anchor="middle" x="398" y="-147.675" font-family="FreeSans" font-size="10.00"> Name</text>
</g>
<!-- Node14 -->
<g id="node29" class="node"><title>Node14</title>
<a xlink:title="STL class.">
<polygon fill="white" stroke="#bfbfbf" points="14.5,-168.675 14.5,-200.675 105.5,-200.675 105.5,-168.675 14.5,-168.675"/>
<text text-anchor="start" x="22.5" y="-187.675" font-family="FreeSans" font-size="10.00">std::basic_string&lt;</text>
<text text-anchor="middle" x="60" y="-175.675" font-family="FreeSans" font-size="10.00"> char &gt;</text>
</a>
</g>
<!-- Node14&#45;&gt;Node13 -->
<g id="edge32" class="edge"><title>Node14&#45;&gt;Node13</title>
<path fill="none" stroke="midnightblue" d="M115.928,-184.675C159.64,-184.675 218.613,-184.675 253.248,-184.675"/>
<polygon fill="midnightblue" stroke="midnightblue" points="115.729,-181.175 105.729,-184.675 115.729,-188.175 115.729,-181.175"/>
</g>
<!-- Node15 -->
<g id="node32" class="node"><title>Node15</title>
<polygon fill="white" stroke="#bfbfbf" points="964,-278.675 964,-310.675 1056,-310.675 1056,-278.675 964,-278.675"/>
<text text-anchor="start" x="972" y="-297.675" font-family="FreeSans" font-size="10.00">std::set&lt; Physics::</text>
<text text-anchor="middle" x="1010" y="-285.675" font-family="FreeSans" font-size="10.00">Collision * &gt;</text>
</g>
<!-- Node15&#45;&gt;Node4 -->
<g id="edge36" class="edge"><title>Node15&#45;&gt;Node4</title>
<path fill="none" stroke="#9a32cd" stroke-dasharray="5,2" d="M953.612,-285.753C860.071,-270.953 673.609,-241.452 577.451,-226.239"/>
<polygon fill="#9a32cd" stroke="#9a32cd" points="953.306,-289.248 963.731,-287.354 954.4,-282.334 953.306,-289.248"/>
<text text-anchor="middle" x="799" y="-275.675" font-family="FreeSans" font-size="10.00"> CurrentCollisions</text>
</g>
<!-- Node16&#45;&gt;Node15 -->
<g id="edge38" class="edge"><title>Node16&#45;&gt;Node15</title>
<path fill="none" stroke="#9a32cd" stroke-dasharray="5,2" d="M830.735,-417.866C873.46,-388.505 948.496,-336.94 986.508,-310.818"/>
<polygon fill="#9a32cd" stroke="#9a32cd" points="828.646,-415.055 822.387,-423.603 832.611,-420.824 828.646,-415.055"/>
<text text-anchor="middle" x="907" y="-373.675" font-family="FreeSans" font-size="10.00"> keys</text>
</g>
<!-- Node17 -->
<g id="node36" class="node"><title>Node17</title>
<polygon fill="white" stroke="#bfbfbf" points="469,-494.675 469,-514.675 565,-514.675 565,-494.675 469,-494.675"/>
<text text-anchor="middle" x="517" y="-501.675" font-family="FreeSans" font-size="10.00">std::vector&lt; Real &gt;</text>
</g>
<!-- Node17&#45;&gt;Node16 -->
<g id="edge40" class="edge"><title>Node17&#45;&gt;Node16</title>
<path fill="none" stroke="#9a32cd" stroke-dasharray="5,2" d="M575.244,-495.392C611.856,-489.13 659.954,-480.118 702,-469.675 718.081,-465.68 735.431,-460.574 750.949,-455.712"/>
<polygon fill="#9a32cd" stroke="#9a32cd" points="574.513,-491.966 565.236,-497.085 575.68,-498.868 574.513,-491.966"/>
<text text-anchor="middle" x="655" y="-491.675" font-family="FreeSans" font-size="10.00"> PenetrationDistances</text>
</g>
<!-- Node18 -->
<g id="node39" class="node"><title>Node18</title>
<a xlink:href="structMezzanine_1_1Physics_1_1CollisionInternalData.xhtml" target="_top" xlink:title="Used to insulate the interface from the implementation details for bullet.">
<polygon fill="white" stroke="black" points="462,-444.675 462,-476.675 572,-476.675 572,-444.675 462,-444.675"/>
<text text-anchor="start" x="470" y="-463.675" font-family="FreeSans" font-size="10.00">Mezzanine::Physics</text>
<text text-anchor="middle" x="517" y="-451.675" font-family="FreeSans" font-size="10.00">::CollisionInternalData</text>
</a>
</g>
<!-- Node18&#45;&gt;Node16 -->
<g id="edge44" class="edge"><title>Node18&#45;&gt;Node16</title>
<path fill="none" stroke="#9a32cd" stroke-dasharray="5,2" d="M582.252,-455.815C633,-452.036 702.367,-446.871 748.828,-443.411"/>
<polygon fill="#9a32cd" stroke="#9a32cd" points="581.754,-452.343 572.042,-456.576 582.274,-459.323 581.754,-452.343"/>
<text text-anchor="middle" x="655" y="-456.675" font-family="FreeSans" font-size="10.00"> InternalData</text>
</g>
<!-- Node19&#45;&gt;Node4 -->
<g id="edge46" class="edge"><title>Node19&#45;&gt;Node4</title>
<path fill="none" stroke="#9a32cd" stroke-dasharray="5,2" d="M763.684,-307.434C745.705,-297.319 723.213,-285.708 702,-277.675 661.777,-262.442 648.857,-268.113 608,-254.675 583.605,-246.651 556.555,-234.983 538.337,-226.697"/>
<polygon fill="#9a32cd" stroke="#9a32cd" points="762.226,-310.633 772.644,-312.561 765.702,-304.557 762.226,-310.633"/>
<text text-anchor="middle" x="655" y="-280.675" font-family="FreeSans" font-size="10.00"> GraphicsSettings</text>
</g>
<!-- Node20 -->
<g id="node44" class="node"><title>Node20</title>
<a xlink:href="classMezzanine_1_1Graphics_1_1Mesh.xhtml" target="_top" xlink:title="This class is used to check and modify the properties of a graphics mesh.">
<polygon fill="white" stroke="black" points="464.5,-330.675 464.5,-362.675 569.5,-362.675 569.5,-330.675 464.5,-330.675"/>
<text text-anchor="start" x="472.5" y="-349.675" font-family="FreeSans" font-size="10.00">Mezzanine::Graphics</text>
<text text-anchor="middle" x="517" y="-337.675" font-family="FreeSans" font-size="10.00">::Mesh</text>
</a>
</g>
<!-- Node20&#45;&gt;Node19 -->
<g id="edge50" class="edge"><title>Node20&#45;&gt;Node19</title>
<path fill="none" stroke="#9a32cd" stroke-dasharray="5,2" d="M579.922,-342.658C621.249,-340.02 675.645,-336.548 719.894,-333.724"/>
<polygon fill="#9a32cd" stroke="#9a32cd" points="579.468,-339.18 569.711,-343.31 579.914,-346.166 579.468,-339.18"/>
<text text-anchor="middle" x="655" y="-343.675" font-family="FreeSans" font-size="10.00"> WorldObjectMesh</text>
</g>
<!-- Node21 -->
<g id="node46" class="node"><title>Node21</title>
<a xlink:href="classMezzanine_1_1Graphics_1_1InternalMeshData.xhtml" target="_top" xlink:title="This class is used to store the internal structures needed by the Mesh class.">
<polygon fill="white" stroke="black" points="229.5,-292.675 229.5,-324.675 334.5,-324.675 334.5,-292.675 229.5,-292.675"/>
<text text-anchor="start" x="237.5" y="-311.675" font-family="FreeSans" font-size="10.00">Mezzanine::Graphics</text>
<text text-anchor="middle" x="282" y="-299.675" font-family="FreeSans" font-size="10.00">::InternalMeshData</text>
</a>
</g>
<!-- Node21&#45;&gt;Node20 -->
<g id="edge52" class="edge"><title>Node21&#45;&gt;Node20</title>
<path fill="none" stroke="#9a32cd" stroke-dasharray="5,2" d="M345.001,-318.862C382.335,-324.899 429.099,-332.461 464.437,-338.175"/>
<polygon fill="#9a32cd" stroke="#9a32cd" points="345.169,-315.344 334.739,-317.202 344.052,-322.254 345.169,-315.344"/>
<text text-anchor="middle" x="398" y="-333.675" font-family="FreeSans" font-size="10.00"> IMD</text>
</g>
<!-- Node22 -->
<g id="node48" class="node"><title>Node22</title>
<a xlink:href="classMezzanine_1_1Graphics_1_1Skeleton.xhtml" target="_top" xlink:title="This class encapsulates the Skeletal animation functionality of a Mesh.">
<polygon fill="white" stroke="black" points="229.5,-534.675 229.5,-566.675 334.5,-566.675 334.5,-534.675 229.5,-534.675"/>
<text text-anchor="start" x="237.5" y="-553.675" font-family="FreeSans" font-size="10.00">Mezzanine::Graphics</text>
<text text-anchor="middle" x="282" y="-541.675" font-family="FreeSans" font-size="10.00">::Skeleton</text>
</a>
</g>
<!-- Node22&#45;&gt;Node20 -->
<g id="edge54" class="edge"><title>Node22&#45;&gt;Node20</title>
<path fill="none" stroke="#9a32cd" stroke-dasharray="5,2" d="M323.82,-529.635C356.457,-511.091 400.419,-481.064 426,-442.675 444.052,-415.584 421.94,-395.614 444,-371.675 449.628,-365.567 456.812,-360.951 464.468,-357.463"/>
<polygon fill="#9a32cd" stroke="#9a32cd" points="321.988,-526.649 314.939,-534.558 325.382,-532.771 321.988,-526.649"/>
<text text-anchor="middle" x="398" y="-500.675" font-family="FreeSans" font-size="10.00"> MeshSkel</text>
</g>
<!-- Node24 -->
<g id="node52" class="node"><title>Node24</title>
<a xlink:href="classMezzanine_1_1Graphics_1_1Bone.xhtml" target="_top" xlink:title="This class encapsulates the bones contained in a skeleton used for animation.">
<polygon fill="white" stroke="black" points="464.5,-580.675 464.5,-612.675 569.5,-612.675 569.5,-580.675 464.5,-580.675"/>
<text text-anchor="start" x="472.5" y="-599.675" font-family="FreeSans" font-size="10.00">Mezzanine::Graphics</text>
<text text-anchor="middle" x="517" y="-587.675" font-family="FreeSans" font-size="10.00">::Bone</text>
</a>
</g>
<!-- Node22&#45;&gt;Node24 -->
<g id="edge62" class="edge"><title>Node22&#45;&gt;Node24</title>
<path fill="none" stroke="#9a32cd" stroke-dasharray="5,2" d="M345.001,-563.007C382.335,-570.315 429.099,-579.468 464.437,-586.386"/>
<polygon fill="#9a32cd" stroke="#9a32cd" points="345.225,-559.484 334.739,-560.998 343.88,-566.354 345.225,-559.484"/>
<text text-anchor="middle" x="398" y="-580.675" font-family="FreeSans" font-size="10.00"> Host</text>
</g>
<!-- Node23 -->
<g id="node50" class="node"><title>Node23</title>
<polygon fill="white" stroke="#bfbfbf" points="746.5,-556.675 746.5,-576.675 851.5,-576.675 851.5,-556.675 746.5,-556.675"/>
<text text-anchor="middle" x="799" y="-563.675" font-family="FreeSans" font-size="10.00">std::vector&lt; Bone * &gt;</text>
</g>
<!-- Node23&#45;&gt;Node22 -->
<g id="edge56" class="edge"><title>Node23&#45;&gt;Node22</title>
<path fill="none" stroke="#9a32cd" stroke-dasharray="5,2" d="M735.946,-564.493C694.475,-563.075 639.008,-561.211 590,-559.675 500.306,-556.862 395.91,-553.871 334.593,-552.143"/>
<polygon fill="#9a32cd" stroke="#9a32cd" points="736.062,-567.998 746.176,-564.843 736.302,-561.003 736.062,-567.998"/>
<text text-anchor="middle" x="517" y="-562.675" font-family="FreeSans" font-size="10.00"> Bones</text>
</g>
<!-- Node24&#45;&gt;Node23 -->
<g id="edge58" class="edge"><title>Node24&#45;&gt;Node23</title>
<path fill="none" stroke="#9a32cd" stroke-dasharray="5,2" d="M579.752,-589.999C629.719,-584.683 698.872,-577.326 746.069,-572.305"/>
<polygon fill="#9a32cd" stroke="#9a32cd" points="579.285,-586.529 569.711,-591.067 580.025,-593.489 579.285,-586.529"/>
<text text-anchor="middle" x="655" y="-589.675" font-family="FreeSans" font-size="10.00"> elements</text>
</g>
<!-- Node25 -->
<g id="node54" class="node"><title>Node25</title>
<a xlink:href="classMezzanine_1_1TransformableChildObject.xhtml" target="_top" xlink:title="This is an interface for all child 3D objects that can have their full transforms manipulated...">
<polygon fill="white" stroke="black" points="218,-594.675 218,-626.675 346,-626.675 346,-594.675 218,-594.675"/>
<text text-anchor="start" x="226" y="-613.675" font-family="FreeSans" font-size="10.00">Mezzanine::Transformable</text>
<text text-anchor="middle" x="282" y="-601.675" font-family="FreeSans" font-size="10.00">ChildObject</text>
</a>
</g>
<!-- Node25&#45;&gt;Node24 -->
<g id="edge60" class="edge"><title>Node25&#45;&gt;Node24</title>
<path fill="none" stroke="midnightblue" d="M356.417,-606.241C391.507,-604.151 432.546,-601.706 464.353,-599.811"/>
<polygon fill="midnightblue" stroke="midnightblue" points="355.989,-602.76 346.215,-606.849 356.405,-609.748 355.989,-602.76"/>
</g>
<!-- Node26 -->
<g id="node57" class="node"><title>Node26</title>
<a xlink:href="classMezzanine_1_1Graphics_1_1InternalSkeletonData.xhtml" target="_top" xlink:title="This class is used to store the internal structures needed by the Skeleton class.">
<polygon fill="white" stroke="black" points="4,-534.675 4,-566.675 116,-566.675 116,-534.675 4,-534.675"/>
<text text-anchor="start" x="12" y="-553.675" font-family="FreeSans" font-size="10.00">Mezzanine::Graphics</text>
<text text-anchor="middle" x="60" y="-541.675" font-family="FreeSans" font-size="10.00">::InternalSkeletonData</text>
</a>
</g>
<!-- Node26&#45;&gt;Node22 -->
<g id="edge64" class="edge"><title>Node26&#45;&gt;Node22</title>
<path fill="none" stroke="#9a32cd" stroke-dasharray="5,2" d="M126.048,-550.675C159.075,-550.675 198.491,-550.675 229.433,-550.675"/>
<polygon fill="#9a32cd" stroke="#9a32cd" points="126.02,-547.175 116.02,-550.675 126.02,-554.175 126.02,-547.175"/>
<text text-anchor="middle" x="166" y="-553.675" font-family="FreeSans" font-size="10.00"> ISD</text>
</g>
<!-- Node27 -->
<g id="node59" class="node"><title>Node27</title>
<polygon fill="white" stroke="#bfbfbf" points="220.5,-342.675 220.5,-362.675 343.5,-362.675 343.5,-342.675 220.5,-342.675"/>
<text text-anchor="middle" x="282" y="-349.675" font-family="FreeSans" font-size="10.00">std::vector&lt; SubMesh * &gt;</text>
</g>
<!-- Node27&#45;&gt;Node20 -->
<g id="edge66" class="edge"><title>Node27&#45;&gt;Node20</title>
<path fill="none" stroke="#9a32cd" stroke-dasharray="5,2" d="M354.083,-350.834C389.702,-349.925 431.901,-348.847 464.426,-348.017"/>
<polygon fill="#9a32cd" stroke="#9a32cd" points="353.651,-347.344 343.743,-351.098 353.83,-354.342 353.651,-347.344"/>
<text text-anchor="middle" x="398" y="-352.675" font-family="FreeSans" font-size="10.00"> SubMeshes</text>
</g>
<!-- Node28 -->
<g id="node61" class="node"><title>Node28</title>
<a xlink:href="classMezzanine_1_1Graphics_1_1SubMesh.xhtml" target="_top" xlink:title="This class represents a sub&#45;section of an overall mesh.">
<polygon fill="white" stroke="black" points="7.5,-336.675 7.5,-368.675 112.5,-368.675 112.5,-336.675 7.5,-336.675"/>
<text text-anchor="start" x="15.5" y="-355.675" font-family="FreeSans" font-size="10.00">Mezzanine::Graphics</text>
<text text-anchor="middle" x="60" y="-343.675" font-family="FreeSans" font-size="10.00">::SubMesh</text>
</a>
</g>
<!-- Node28&#45;&gt;Node27 -->
<g id="edge68" class="edge"><title>Node28&#45;&gt;Node27</title>
<path fill="none" stroke="#9a32cd" stroke-dasharray="5,2" d="M122.724,-352.675C153.281,-352.675 189.9,-352.675 220.317,-352.675"/>
<polygon fill="#9a32cd" stroke="#9a32cd" points="122.611,-349.175 112.611,-352.675 122.611,-356.175 122.611,-349.175"/>
<text text-anchor="middle" x="166" y="-355.675" font-family="FreeSans" font-size="10.00"> elements</text>
</g>
<!-- Node29 -->
<g id="node63" class="node"><title>Node29</title>
<a xlink:href="classMezzanine_1_1Internal_1_1InternalWorldObjectGraphicsSettings.xhtml" target="_top" xlink:title="Used to store internal data about an world objects.">
<polygon fill="white" stroke="black" points="444.5,-380.675 444.5,-424.675 589.5,-424.675 589.5,-380.675 444.5,-380.675"/>
<text text-anchor="start" x="452.5" y="-411.675" font-family="FreeSans" font-size="10.00">Mezzanine::Internal</text>
<text text-anchor="start" x="452.5" y="-399.675" font-family="FreeSans" font-size="10.00">::InternalWorldObjectGraphics</text>
<text text-anchor="middle" x="517" y="-387.675" font-family="FreeSans" font-size="10.00">Settings</text>
</a>
</g>
<!-- Node29&#45;&gt;Node19 -->
<g id="edge70" class="edge"><title>Node29&#45;&gt;Node19</title>
<path fill="none" stroke="#9a32cd" stroke-dasharray="5,2" d="M599.435,-382.875C631.518,-374.987 668.543,-365.659 702,-356.675 715.881,-352.947 730.822,-348.734 744.719,-344.73"/>
<polygon fill="#9a32cd" stroke="#9a32cd" points="598.525,-379.495 589.646,-385.275 600.192,-386.293 598.525,-379.495"/>
<text text-anchor="middle" x="655" y="-382.675" font-family="FreeSans" font-size="10.00"> IWOGS</text>
</g>
<!-- Node30 -->
<g id="node65" class="node"><title>Node30</title>
<polygon fill="white" stroke="#bfbfbf" points="212.5,-386.675 212.5,-418.675 351.5,-418.675 351.5,-386.675 212.5,-386.675"/>
<text text-anchor="start" x="220.5" y="-405.675" font-family="FreeSans" font-size="10.00">std::map&lt; Whole, Mezzanine</text>
<text text-anchor="middle" x="282" y="-393.675" font-family="FreeSans" font-size="10.00">::ColourValue &gt;</text>
</g>
<!-- Node30&#45;&gt;Node29 -->
<g id="edge72" class="edge"><title>Node30&#45;&gt;Node29</title>
<path fill="none" stroke="#9a32cd" stroke-dasharray="5,2" d="M361.66,-402.675C388.437,-402.675 418.15,-402.675 444.359,-402.675"/>
<polygon fill="#9a32cd" stroke="#9a32cd" points="361.554,-399.175 351.554,-402.675 361.554,-406.175 361.554,-399.175"/>
<text text-anchor="middle" x="398" y="-429.675" font-family="FreeSans" font-size="10.00"> Specular</text>
<text text-anchor="middle" x="398" y="-417.675" font-family="FreeSans" font-size="10.00">Ambient</text>
<text text-anchor="middle" x="398" y="-405.675" font-family="FreeSans" font-size="10.00">Diffuse</text>
</g>
<!-- Node31 -->
<g id="node67" class="node"><title>Node31</title>
<a xlink:href="classMezzanine_1_1ColourValue.xhtml" target="_top" xlink:title="This is a simple class for holding 4 reals representing the colour any give object or lightsource can...">
<polygon fill="white" stroke="black" points="0.5,-392.675 0.5,-412.675 119.5,-412.675 119.5,-392.675 0.5,-392.675"/>
<text text-anchor="middle" x="60" y="-399.675" font-family="FreeSans" font-size="10.00">Mezzanine::ColourValue</text>
</a>
</g>
<!-- Node31&#45;&gt;Node30 -->
<g id="edge74" class="edge"><title>Node31&#45;&gt;Node30</title>
<path fill="none" stroke="#9a32cd" stroke-dasharray="5,2" d="M130.028,-402.675C156.266,-402.675 186.057,-402.675 212.268,-402.675"/>
<polygon fill="#9a32cd" stroke="#9a32cd" points="129.784,-399.175 119.784,-402.675 129.784,-406.175 129.784,-399.175"/>
<text text-anchor="middle" x="166" y="-405.675" font-family="FreeSans" font-size="10.00"> elements</text>
</g>
<!-- Node32 -->
<g id="node69" class="node"><title>Node32</title>
<a xlink:href="classMezzanine_1_1Audio_1_1iSound.xhtml" target="_top" xlink:title="This is an interface class for a non&#45;spacialized sound.">
<polygon fill="white" stroke="black" points="736,-187.675 736,-207.675 862,-207.675 862,-187.675 736,-187.675"/>
<text text-anchor="middle" x="799" y="-194.675" font-family="FreeSans" font-size="10.00">Mezzanine::Audio::iSound</text>
</a>
</g>
<!-- Node32&#45;&gt;Node1 -->
<g id="edge76" class="edge"><title>Node32&#45;&gt;Node1</title>
<path fill="none" stroke="midnightblue" d="M871.985,-187.989C892.616,-185.252 915.085,-182.27 935.787,-179.523"/>
<polygon fill="midnightblue" stroke="midnightblue" points="871.474,-184.526 862.021,-189.312 872.395,-191.466 871.474,-184.526"/>
</g>
</g>
</svg>
