<?xml version="1.0" encoding="UTF-8" standalone="no"?>
<!DOCTYPE svg PUBLIC "-//W3C//DTD SVG 1.1//EN"
 "http://www.w3.org/Graphics/SVG/1.1/DTD/svg11.dtd">
<!-- Generated by graphviz version 2.38.0 (20140413.2041)
 -->
<!-- Title: Mezzanine::Scripting::Lua::LuaArgument Pages: 1 -->
<svg width="295pt" height="284pt"
 viewBox="0.00 0.00 295.00 284.00" xmlns="http://www.w3.org/2000/svg" xmlns:xlink="http://www.w3.org/1999/xlink">
<g id="graph0" class="graph" transform="scale(1 1) rotate(0) translate(4 280)">
<title>Mezzanine::Scripting::Lua::LuaArgument</title>
<polygon fill="white" stroke="none" points="-4,4 -4,-280 291,-280 291,4 -4,4"/>
<!-- Node1 -->
<g id="node1" class="node"><title>Node1</title>
<polygon fill="#bfbfbf" stroke="black" points="0,-122.5 0,-152.5 108,-152.5 108,-122.5 0,-122.5"/>
<text text-anchor="start" x="8" y="-140.5" font-family="Helvetica,sans-Serif" font-size="10.00">Mezzanine::Scripting</text>
<text text-anchor="middle" x="54" y="-129.5" font-family="Helvetica,sans-Serif" font-size="10.00">::Lua::LuaArgument</text>
</g>
<!-- Node2 -->
<g id="node2" class="node"><title>Node2</title>
<g id="a_node2"><a xlink:href="classMezzanine_1_1Scripting_1_1Lua_1_1Lua51BoolArgument.html" target="_top" xlink:title="No special care is required for Bool Lua Arguments, so a simple typedef is used. ">
<polygon fill="white" stroke="black" points="149.5,-245.5 149.5,-275.5 281.5,-275.5 281.5,-245.5 149.5,-245.5"/>
<text text-anchor="start" x="157.5" y="-263.5" font-family="Helvetica,sans-Serif" font-size="10.00">Mezzanine::Scripting</text>
<text text-anchor="middle" x="215.5" y="-252.5" font-family="Helvetica,sans-Serif" font-size="10.00">::Lua::Lua51BoolArgument</text>
</a>
</g>
</g>
<!-- Node1&#45;&gt;Node2 -->
<g id="edge1" class="edge"><title>Node1&#45;&gt;Node2</title>
<path fill="none" stroke="midnightblue" d="M70.7356,-161.064C86.7554,-183.38 113.517,-216.383 144,-236.5 149.18,-239.918 154.896,-242.899 160.765,-245.485"/>
<polygon fill="midnightblue" stroke="midnightblue" points="73.5465,-158.976 64.9403,-152.797 67.8147,-162.994 73.5465,-158.976"/>
</g>
<!-- Node3 -->
<g id="node3" class="node"><title>Node3</title>
<g id="a_node3"><a xlink:href="classMezzanine_1_1Scripting_1_1Lua_1_1Lua51IntegerArgument.html" target="_top" xlink:title="The implementations in the ScriptArgumentGeneric&lt;Integer&gt; will cover most of what this needs...">
<polygon fill="white" stroke="black" points="144,-196.5 144,-226.5 287,-226.5 287,-196.5 144,-196.5"/>
<text text-anchor="start" x="152" y="-214.5" font-family="Helvetica,sans-Serif" font-size="10.00">Mezzanine::Scripting</text>
<text text-anchor="middle" x="215.5" y="-203.5" font-family="Helvetica,sans-Serif" font-size="10.00">::Lua::Lua51IntegerArgument</text>
</a>
</g>
</g>
<!-- Node1&#45;&gt;Node3 -->
<g id="edge2" class="edge"><title>Node1&#45;&gt;Node3</title>
<path fill="none" stroke="midnightblue" d="M87.6532,-157.752C104.168,-167.498 124.748,-178.903 144,-187.5 151.083,-190.663 158.719,-193.662 166.259,-196.4"/>
<polygon fill="midnightblue" stroke="midnightblue" points="89.3095,-154.664 78.9305,-152.536 85.7171,-160.672 89.3095,-154.664"/>
</g>
<!-- Node4 -->
<g id="node4" class="node"><title>Node4</title>
<g id="a_node4"><a xlink:href="classMezzanine_1_1Scripting_1_1Lua_1_1Lua51NilArgument.html" target="_top" xlink:title="Represents not much of anything but will insert and retrieves Nils from Lua51. ">
<polygon fill="white" stroke="black" points="153,-147.5 153,-177.5 278,-177.5 278,-147.5 153,-147.5"/>
<text text-anchor="start" x="161" y="-165.5" font-family="Helvetica,sans-Serif" font-size="10.00">Mezzanine::Scripting</text>
<text text-anchor="middle" x="215.5" y="-154.5" font-family="Helvetica,sans-Serif" font-size="10.00">::Lua::Lua51NilArgument</text>
</a>
</g>
</g>
<!-- Node1&#45;&gt;Node4 -->
<g id="edge3" class="edge"><title>Node1&#45;&gt;Node4</title>
<path fill="none" stroke="midnightblue" d="M118.017,-147.377C129.459,-149.171 141.383,-151.04 152.787,-152.827"/>
<polygon fill="midnightblue" stroke="midnightblue" points="118.533,-143.915 108.111,-145.825 117.449,-150.831 118.533,-143.915"/>
</g>
<!-- Node5 -->
<g id="node5" class="node"><title>Node5</title>
<g id="a_node5"><a xlink:href="classMezzanine_1_1Scripting_1_1Lua_1_1Lua51RealArgument.html" target="_top" xlink:title="A Real that can readily be passed into lua scripts. ">
<polygon fill="white" stroke="black" points="149,-98.5 149,-128.5 282,-128.5 282,-98.5 149,-98.5"/>
<text text-anchor="start" x="157" y="-116.5" font-family="Helvetica,sans-Serif" font-size="10.00">Mezzanine::Scripting</text>
<text text-anchor="middle" x="215.5" y="-105.5" font-family="Helvetica,sans-Serif" font-size="10.00">::Lua::Lua51RealArgument</text>
</a>
</g>
</g>
<!-- Node1&#45;&gt;Node5 -->
<g id="edge4" class="edge"><title>Node1&#45;&gt;Node5</title>
<path fill="none" stroke="midnightblue" d="M118.074,-128.009C128.188,-126.487 138.676,-124.909 148.848,-123.379"/>
<polygon fill="midnightblue" stroke="midnightblue" points="117.479,-124.559 108.111,-129.508 118.521,-131.481 117.479,-124.559"/>
</g>
<!-- Node6 -->
<g id="node6" class="node"><title>Node6</title>
<g id="a_node6"><a xlink:href="classMezzanine_1_1Scripting_1_1Lua_1_1Lua51StringArgument.html" target="_top" xlink:title="No special care is required for String Lua Arguments, so a simple typedef is used. ">
<polygon fill="white" stroke="black" points="146.5,-49.5 146.5,-79.5 284.5,-79.5 284.5,-49.5 146.5,-49.5"/>
<text text-anchor="start" x="154.5" y="-67.5" font-family="Helvetica,sans-Serif" font-size="10.00">Mezzanine::Scripting</text>
<text text-anchor="middle" x="215.5" y="-56.5" font-family="Helvetica,sans-Serif" font-size="10.00">::Lua::Lua51StringArgument</text>
</a>
</g>
</g>
<!-- Node1&#45;&gt;Node6 -->
<g id="edge5" class="edge"><title>Node1&#45;&gt;Node6</title>
<path fill="none" stroke="midnightblue" d="M89.6645,-117.196C105.877,-108.12 125.624,-97.6556 144,-89.5 151.834,-86.0231 160.315,-82.6774 168.588,-79.6262"/>
<polygon fill="midnightblue" stroke="midnightblue" points="87.5399,-114.377 80.5641,-122.351 90.9901,-120.468 87.5399,-114.377"/>
</g>
<!-- Node7 -->
<g id="node7" class="node"><title>Node7</title>
<g id="a_node7"><a xlink:href="classMezzanine_1_1Scripting_1_1Lua_1_1Lua51WholeArgument.html" target="_top" xlink:title="No special care is required for Whole number Lua Arguments, so a simple typedef is used...">
<polygon fill="white" stroke="black" points="145.5,-0.5 145.5,-30.5 285.5,-30.5 285.5,-0.5 145.5,-0.5"/>
<text text-anchor="start" x="153.5" y="-18.5" font-family="Helvetica,sans-Serif" font-size="10.00">Mezzanine::Scripting</text>
<text text-anchor="middle" x="215.5" y="-7.5" font-family="Helvetica,sans-Serif" font-size="10.00">::Lua::Lua51WholeArgument</text>
</a>
</g>
</g>
<!-- Node1&#45;&gt;Node7 -->
<g id="edge6" class="edge"><title>Node1&#45;&gt;Node7</title>
<path fill="none" stroke="midnightblue" d="M71.3822,-113.853C87.5705,-92.0723 114.182,-60.2315 144,-40.5 149.74,-36.7018 156.125,-33.4047 162.642,-30.564"/>
<polygon fill="midnightblue" stroke="midnightblue" points="68.3468,-112.077 65.3035,-122.225 74.0111,-116.189 68.3468,-112.077"/>
</g>
</g>
</svg>
