<?xml version="1.0" encoding="UTF-8" standalone="no"?>
<!DOCTYPE svg PUBLIC "-//W3C//DTD SVG 1.1//EN"
 "http://www.w3.org/Graphics/SVG/1.1/DTD/svg11.dtd">
<!-- Generated by graphviz version 2.38.0 (20140413.2041)
 -->
<!-- Title: Mezzanine::UI::TextToken Pages: 1 -->
<svg width="312pt" height="151pt"
 viewBox="0.00 0.00 312.00 151.00" xmlns="http://www.w3.org/2000/svg" xmlns:xlink="http://www.w3.org/1999/xlink">
<g id="graph0" class="graph" transform="scale(1 1) rotate(0) translate(4 147)">
<title>Mezzanine::UI::TextToken</title>
<polygon fill="white" stroke="none" points="-4,4 -4,-147 308,-147 308,4 -4,4"/>
<!-- Node1 -->
<g id="node1" class="node"><title>Node1</title>
<polygon fill="#bfbfbf" stroke="black" points="77.5,-123.5 77.5,-142.5 210.5,-142.5 210.5,-123.5 77.5,-123.5"/>
<text text-anchor="middle" x="144" y="-130.5" font-family="Helvetica,sans-Serif" font-size="10.00">Mezzanine::UI::TextToken</text>
</g>
<!-- Node2 -->
<g id="node2" class="node"><title>Node2</title>
<g id="a_node2"><a xlink:href="classMezzanine_1_1UI_1_1TagToken.html" target="_top" xlink:title="This struct represents a markup tag segment from the source string. ">
<polygon fill="white" stroke="black" points="79,-67.5 79,-86.5 209,-86.5 209,-67.5 79,-67.5"/>
<text text-anchor="middle" x="144" y="-74.5" font-family="Helvetica,sans-Serif" font-size="10.00">Mezzanine::UI::TagToken</text>
</a>
</g>
</g>
<!-- Node1&#45;&gt;Node2 -->
<g id="edge1" class="edge"><title>Node1&#45;&gt;Node2</title>
<path fill="none" stroke="midnightblue" d="M144,-112.805C144,-103.91 144,-93.7798 144,-86.7511"/>
<polygon fill="midnightblue" stroke="midnightblue" points="140.5,-113.083 144,-123.083 147.5,-113.083 140.5,-113.083"/>
</g>
<!-- Node3 -->
<g id="node3" class="node"><title>Node3</title>
<g id="a_node3"><a xlink:href="classMezzanine_1_1UI_1_1InsertTagToken.html" target="_top" xlink:title="This struct represents a markup tag segment from the source string. ">
<polygon fill="white" stroke="black" points="0,-0.5 0,-30.5 128,-30.5 128,-0.5 0,-0.5"/>
<text text-anchor="start" x="8" y="-18.5" font-family="Helvetica,sans-Serif" font-size="10.00">Mezzanine::UI::InsertTag</text>
<text text-anchor="middle" x="64" y="-7.5" font-family="Helvetica,sans-Serif" font-size="10.00">Token</text>
</a>
</g>
</g>
<!-- Node2&#45;&gt;Node3 -->
<g id="edge2" class="edge"><title>Node2&#45;&gt;Node3</title>
<path fill="none" stroke="midnightblue" d="M124.461,-61.468C111.795,-52.0474 95.3826,-39.8408 82.8544,-30.523"/>
<polygon fill="midnightblue" stroke="midnightblue" points="122.425,-64.3156 132.538,-67.4751 126.603,-58.6988 122.425,-64.3156"/>
</g>
<!-- Node4 -->
<g id="node4" class="node"><title>Node4</title>
<g id="a_node4"><a xlink:href="classMezzanine_1_1UI_1_1RangeTagToken.html" target="_top" xlink:title="This struct represents a markup tag segment from the source string. ">
<polygon fill="white" stroke="black" points="146,-6 146,-25 304,-25 304,-6 146,-6"/>
<text text-anchor="middle" x="225" y="-13" font-family="Helvetica,sans-Serif" font-size="10.00">Mezzanine::UI::RangeTagToken</text>
</a>
</g>
</g>
<!-- Node2&#45;&gt;Node4 -->
<g id="edge3" class="edge"><title>Node2&#45;&gt;Node4</title>
<path fill="none" stroke="midnightblue" d="M164.02,-61.2938C179.558,-49.8803 200.553,-34.4577 213.416,-25.0091"/>
<polygon fill="midnightblue" stroke="midnightblue" points="161.593,-58.7342 155.605,-67.4751 165.737,-64.3757 161.593,-58.7342"/>
</g>
</g>
</svg>
