<?xml version="1.0" encoding="UTF-8" standalone="no"?>
<!DOCTYPE svg PUBLIC "-//W3C//DTD SVG 1.1//EN"
 "http://www.w3.org/Graphics/SVG/1.1/DTD/svg11.dtd">
<!-- Generated by graphviz version 2.26.3 (20100126.1600)
 -->
<!-- Title: Mezzanine::MeshManager Pages: 1 -->
<!--zoomable 293 -->
<svg id="main" version="1.1" xmlns="http://www.w3.org/2000/svg" xmlns:xlink="http://www.w3.org/1999/xlink" xml:space="preserve" onload="init(evt)">
        <defs>
                <circle id="rim" cx="0" cy="0" r="7"/>
                <circle id="rim2" cx="0" cy="0" r="3.5"/>
                <g id="zoomPlus">
                        <use xlink:href="#rim" fill="#404040">
                                <set attributeName="fill" to="#808080" begin="zoomplus.mouseover" end="zoomplus.mouseout"/>
                        </use>
                        <path d="M-4,0h8M0,-4v8" fill="none" stroke="white" stroke-width="1.5" pointer-events="none"/>
                </g>
                <g id="zoomMin">
                        <use xlink:href="#rim" fill="#404040">
                                <set attributeName="fill" to="#808080" begin="zoomminus.mouseover" end="zoomminus.mouseout"/>
                        </use>
                        <path d="M-4,0h8" fill="none" stroke="white" stroke-width="1.5" pointer-events="none"/>
                </g>
                <g id="dirArrow">
                        <path fill="none" stroke="white" stroke-width="1.5" d="M0,-3.0v7 M-2.5,-0.5L0,-3.0L2.5,-0.5"/>
                </g>
               <g id="resetDef">
                       <use xlink:href="#rim2" fill="#404040">
                               <set attributeName="fill" to="#808080" begin="reset.mouseover" end="reset.mouseout"/>
                       </use>
               </g>
        </defs>

<script type="text/javascript">
var viewWidth = 1718;
var viewHeight = 293;
var sectionId = 'dynsection-1';
</script>
<script xlink:href="svgpan.js"/>
<svg id="graph" class="graph">
<g id="viewport">
<title>Mezzanine::MeshManager</title>
<!-- Node1 -->
<g id="node1" class="node"><title>Node1</title>
<polygon fill="#bfbfbf" stroke="black" points="1382,-220 1382,-240 1510,-240 1510,-220 1382,-220"/>
<text text-anchor="middle" x="1446" y="-227" font-family="FreeSans" font-size="10.00">Mezzanine::MeshManager</text>
</g>
<!-- Node12 -->
<g id="node24" class="node"><title>Node12</title>
<a xlink:href="classMezzanine_1_1Singleton.xhtml" target="_top" xlink:title="Mezzanine::Singleton\l\&lt; MeshManager \&gt;">
<polygon fill="none" stroke="black" points="1602.5,-214 1602.5,-246 1709.5,-246 1709.5,-214 1602.5,-214"/>
<text text-anchor="start" x="1610.5" y="-233" font-family="FreeSans" font-size="10.00">Mezzanine::Singleton</text>
<text text-anchor="middle" x="1656" y="-221" font-family="FreeSans" font-size="10.00">&lt; MeshManager &gt;</text>
</a>
</g>
<!-- Node1&#45;&gt;Node12 -->
<g id="edge28" class="edge"><title>Node1&#45;&gt;Node12</title>
<path fill="none" stroke="#9a32cd" stroke-dasharray="5,2" d="M1520.37,-230C1547.47,-230 1577.55,-230 1602.49,-230"/>
<polygon fill="#9a32cd" stroke="#9a32cd" points="1520.15,-226.5 1510.15,-230 1520.15,-233.5 1520.15,-226.5"/>
<text text-anchor="middle" x="1556" y="-233" font-family="FreeSans" font-size="10.00"> SingletonPtr</text>
</g>
<!-- Node2 -->
<g id="node2" class="node"><title>Node2</title>
<a xlink:href="classMezzanine_1_1ManagerBase.xhtml" target="_top" xlink:title="This is the base class from which all the World Managers inherit.">
<polygon fill="none" stroke="black" points="1138,-261 1138,-281 1264,-281 1264,-261 1138,-261"/>
<text text-anchor="middle" x="1201" y="-268" font-family="FreeSans" font-size="10.00">Mezzanine::ManagerBase</text>
</a>
</g>
<!-- Node2&#45;&gt;Node1 -->
<g id="edge2" class="edge"><title>Node2&#45;&gt;Node1</title>
<path fill="none" stroke="midnightblue" d="M1270.95,-259.294C1307.23,-253.223 1351.09,-245.883 1385.84,-240.068"/>
<polygon fill="midnightblue" stroke="midnightblue" points="1270.22,-255.868 1260.93,-260.97 1271.37,-262.772 1270.22,-255.868"/>
</g>
<!-- Node3 -->
<g id="node4" class="node"><title>Node3</title>
<a xlink:href="classMezzanine_1_1Entresol.xhtml" target="_top" xlink:title="This is the main entry point for the entire library.">
<polygon fill="none" stroke="black" points="940.5,-227 940.5,-247 1041.5,-247 1041.5,-227 940.5,-227"/>
<text text-anchor="middle" x="991" y="-234" font-family="FreeSans" font-size="10.00">Mezzanine::Entresol</text>
</a>
</g>
<!-- Node3&#45;&gt;Node2 -->
<g id="edge4" class="edge"><title>Node3&#45;&gt;Node2</title>
<path fill="none" stroke="#9a32cd" stroke-dasharray="5,2" d="M1051.68,-247.298C1055.17,-247.878 1058.63,-248.448 1062,-249 1086.71,-253.044 1113.92,-257.377 1137.66,-261.118"/>
<polygon fill="#9a32cd" stroke="#9a32cd" points="1052.24,-243.843 1041.8,-245.652 1051.08,-250.748 1052.24,-243.843"/>
<text text-anchor="middle" x="1090" y="-260" font-family="FreeSans" font-size="10.00"> TheEntresol</text>
</g>
<!-- Node4 -->
<g id="node6" class="node"><title>Node4</title>
<a xlink:href="classMezzanine_1_1Singleton.xhtml" target="_top" xlink:title="Mezzanine::Singleton\l\&lt; Entresol \&gt;">
<polygon fill="none" stroke="black" points="1147.5,-211 1147.5,-243 1254.5,-243 1254.5,-211 1147.5,-211"/>
<text text-anchor="start" x="1155.5" y="-230" font-family="FreeSans" font-size="10.00">Mezzanine::Singleton</text>
<text text-anchor="middle" x="1201" y="-218" font-family="FreeSans" font-size="10.00">&lt; Entresol &gt;</text>
</a>
</g>
<!-- Node3&#45;&gt;Node4 -->
<g id="edge8" class="edge"><title>Node3&#45;&gt;Node4</title>
<path fill="none" stroke="#9a32cd" stroke-dasharray="5,2" d="M1051.56,-234.116C1081.76,-232.678 1117.98,-230.953 1147.2,-229.562"/>
<polygon fill="#9a32cd" stroke="#9a32cd" points="1051.39,-230.62 1041.57,-234.592 1051.72,-237.612 1051.39,-230.62"/>
<text text-anchor="middle" x="1090" y="-236" font-family="FreeSans" font-size="10.00"> SingletonPtr</text>
</g>
<!-- Node4&#45;&gt;Node3 -->
<g id="edge6" class="edge"><title>Node4&#45;&gt;Node3</title>
<path fill="none" stroke="midnightblue" d="M1137.11,-217.652C1113.45,-215.559 1086.44,-214.787 1062,-218 1048.46,-219.78 1033.84,-223.391 1021.4,-226.992"/>
<polygon fill="midnightblue" stroke="midnightblue" points="1137.08,-221.166 1147.37,-218.659 1137.76,-214.199 1137.08,-221.166"/>
</g>
<!-- Node5 -->
<g id="node9" class="node"><title>Node5</title>
<a xlink:title="STL class.">
<polygon fill="none" stroke="#bfbfbf" points="741,-227 741,-247 827,-247 827,-227 741,-227"/>
<text text-anchor="middle" x="784" y="-234" font-family="FreeSans" font-size="10.00">std::stringstream</text>
</a>
</g>
<!-- Node5&#45;&gt;Node3 -->
<g id="edge10" class="edge"><title>Node5&#45;&gt;Node3</title>
<path fill="none" stroke="#9a32cd" stroke-dasharray="5,2" d="M837.542,-237C869.208,-237 909.082,-237 940.247,-237"/>
<polygon fill="#9a32cd" stroke="#9a32cd" points="837.142,-233.5 827.142,-237 837.142,-240.5 837.142,-233.5"/>
<text text-anchor="middle" x="893" y="-240" font-family="FreeSans" font-size="10.00"> LogStream</text>
</g>
<!-- Node6 -->
<g id="node11" class="node"><title>Node6</title>
<a xlink:title="STL class.">
<polygon fill="none" stroke="#bfbfbf" points="528,-221 528,-253 642,-253 642,-221 528,-221"/>
<text text-anchor="start" x="536" y="-240" font-family="FreeSans" font-size="10.00">std::basic_stringstream</text>
<text text-anchor="middle" x="585" y="-228" font-family="FreeSans" font-size="10.00">&lt; char &gt;</text>
</a>
</g>
<!-- Node6&#45;&gt;Node5 -->
<g id="edge12" class="edge"><title>Node6&#45;&gt;Node5</title>
<path fill="none" stroke="midnightblue" d="M652.196,-237C681.499,-237 714.995,-237 740.887,-237"/>
<polygon fill="midnightblue" stroke="midnightblue" points="652.025,-233.5 642.025,-237 652.025,-240.5 652.025,-233.5"/>
</g>
<!-- Node7 -->
<g id="node13" class="node"><title>Node7</title>
<a xlink:title="STL class.">
<polygon fill="none" stroke="#bfbfbf" points="392,-221 392,-253 490,-253 490,-221 392,-221"/>
<text text-anchor="start" x="400" y="-240" font-family="FreeSans" font-size="10.00">std::basic_iostream</text>
<text text-anchor="middle" x="441" y="-228" font-family="FreeSans" font-size="10.00">&lt; Char &gt;</text>
</a>
</g>
<!-- Node7&#45;&gt;Node6 -->
<g id="edge14" class="edge"><title>Node7&#45;&gt;Node6</title>
<path fill="none" stroke="midnightblue" d="M500.297,-237C509.415,-237 518.814,-237 527.883,-237"/>
<polygon fill="midnightblue" stroke="midnightblue" points="500.154,-233.5 490.154,-237 500.154,-240.5 500.154,-233.5"/>
</g>
<!-- Node8 -->
<g id="node15" class="node"><title>Node8</title>
<a xlink:title="STL class.">
<polygon fill="none" stroke="#bfbfbf" points="259.5,-253 259.5,-285 352.5,-285 352.5,-253 259.5,-253"/>
<text text-anchor="start" x="267.5" y="-272" font-family="FreeSans" font-size="10.00">std::basic_istream</text>
<text text-anchor="middle" x="306" y="-260" font-family="FreeSans" font-size="10.00">&lt; Char &gt;</text>
</a>
</g>
<!-- Node8&#45;&gt;Node7 -->
<g id="edge16" class="edge"><title>Node8&#45;&gt;Node7</title>
<path fill="none" stroke="midnightblue" d="M362.794,-255.538C372.486,-253.24 382.481,-250.871 391.95,-248.627"/>
<polygon fill="midnightblue" stroke="midnightblue" points="361.761,-252.186 352.838,-257.898 363.375,-258.997 361.761,-252.186"/>
</g>
<!-- Node9 -->
<g id="node17" class="node"><title>Node9</title>
<a xlink:title="STL class.">
<polygon fill="none" stroke="#bfbfbf" points="110,-236 110,-256 220,-256 220,-236 110,-236"/>
<text text-anchor="middle" x="165" y="-243" font-family="FreeSans" font-size="10.00">std::basic_ios&lt; Char &gt;</text>
</a>
</g>
<!-- Node9&#45;&gt;Node8 -->
<g id="edge18" class="edge"><title>Node9&#45;&gt;Node8</title>
<path fill="none" stroke="midnightblue" d="M230.459,-256.678C240.261,-258.277 250.195,-259.897 259.496,-261.414"/>
<polygon fill="midnightblue" stroke="midnightblue" points="230.755,-253.18 220.322,-255.024 229.628,-260.089 230.755,-253.18"/>
</g>
<!-- Node11 -->
<g id="node21" class="node"><title>Node11</title>
<a xlink:title="STL class.">
<polygon fill="none" stroke="#bfbfbf" points="258,-203 258,-235 354,-235 354,-203 258,-203"/>
<text text-anchor="start" x="266" y="-222" font-family="FreeSans" font-size="10.00">std::basic_ostream</text>
<text text-anchor="middle" x="306" y="-210" font-family="FreeSans" font-size="10.00">&lt; Char &gt;</text>
</a>
</g>
<!-- Node9&#45;&gt;Node11 -->
<g id="edge24" class="edge"><title>Node9&#45;&gt;Node11</title>
<path fill="none" stroke="midnightblue" d="M227.505,-234.031C237.613,-232.095 247.942,-230.117 257.648,-228.259"/>
<polygon fill="midnightblue" stroke="midnightblue" points="226.666,-230.628 217.503,-235.946 227.983,-237.503 226.666,-230.628"/>
</g>
<!-- Node10 -->
<g id="node19" class="node"><title>Node10</title>
<a xlink:title="STL class.">
<polygon fill="none" stroke="#bfbfbf" points="0.5,-236 0.5,-256 71.5,-256 71.5,-236 0.5,-236"/>
<text text-anchor="middle" x="36" y="-243" font-family="FreeSans" font-size="10.00">std::ios_base</text>
</a>
</g>
<!-- Node10&#45;&gt;Node9 -->
<g id="edge20" class="edge"><title>Node10&#45;&gt;Node9</title>
<path fill="none" stroke="midnightblue" d="M81.8712,-246C90.8757,-246 100.41,-246 109.686,-246"/>
<polygon fill="midnightblue" stroke="midnightblue" points="81.5913,-242.5 71.5913,-246 81.5913,-249.5 81.5913,-242.5"/>
</g>
<!-- Node11&#45;&gt;Node7 -->
<g id="edge22" class="edge"><title>Node11&#45;&gt;Node7</title>
<path fill="none" stroke="midnightblue" d="M364.452,-226.794C373.509,-228.001 382.786,-229.238 391.617,-230.416"/>
<polygon fill="midnightblue" stroke="midnightblue" points="364.732,-223.3 354.357,-225.448 363.806,-230.239 364.732,-223.3"/>
</g>
<!-- Node12&#45;&gt;Node1 -->
<g id="edge26" class="edge"><title>Node12&#45;&gt;Node1</title>
<path fill="none" stroke="midnightblue" d="M1592.13,-228.132C1589.38,-228.082 1586.66,-228.037 1584,-228 1559.11,-227.654 1552.89,-227.697 1528,-228 1522.16,-228.071 1516.09,-228.171 1510.01,-228.288"/>
<polygon fill="midnightblue" stroke="midnightblue" points="1592.07,-231.632 1602.14,-228.341 1592.22,-224.633 1592.07,-231.632"/>
</g>
<!-- Node13 -->
<g id="node27" class="node"><title>Node13</title>
<polygon fill="none" stroke="#bfbfbf" points="1136,-161 1136,-193 1266,-193 1266,-161 1136,-161"/>
<text text-anchor="start" x="1144" y="-180" font-family="FreeSans" font-size="10.00">std::map&lt; String, Graphics</text>
<text text-anchor="middle" x="1201" y="-168" font-family="FreeSans" font-size="10.00">::Mesh * &gt;</text>
</g>
<!-- Node13&#45;&gt;Node1 -->
<g id="edge30" class="edge"><title>Node13&#45;&gt;Node1</title>
<path fill="none" stroke="#9a32cd" stroke-dasharray="5,2" d="M1275.83,-193.187C1316.22,-201.926 1364.81,-212.437 1399.71,-219.987"/>
<polygon fill="#9a32cd" stroke="#9a32cd" points="1276.53,-189.757 1266.01,-191.064 1275.05,-196.599 1276.53,-189.757"/>
<text text-anchor="middle" x="1324" y="-226" font-family="FreeSans" font-size="10.00"> LoadedMeshes</text>
<text text-anchor="middle" x="1324" y="-214" font-family="FreeSans" font-size="10.00">GeneratedMeshes</text>
</g>
<!-- Node14 -->
<g id="node29" class="node"><title>Node14</title>
<a xlink:title="STL class.">
<polygon fill="none" stroke="#bfbfbf" points="962.5,-126 962.5,-146 1019.5,-146 1019.5,-126 962.5,-126"/>
<text text-anchor="middle" x="991" y="-133" font-family="FreeSans" font-size="10.00">std::string</text>
</a>
</g>
<!-- Node14&#45;&gt;Node13 -->
<g id="edge32" class="edge"><title>Node14&#45;&gt;Node13</title>
<path fill="none" stroke="#9a32cd" stroke-dasharray="5,2" d="M1029.74,-143.563C1059.45,-149.364 1101.14,-157.503 1135.94,-164.298"/>
<polygon fill="#9a32cd" stroke="#9a32cd" points="1030.24,-140.096 1019.76,-141.615 1028.9,-146.966 1030.24,-140.096"/>
<text text-anchor="middle" x="1090" y="-163" font-family="FreeSans" font-size="10.00"> keys</text>
</g>
<!-- Node15 -->
<g id="node31" class="node"><title>Node15</title>
<a xlink:title="STL class.">
<polygon fill="none" stroke="#bfbfbf" points="738.5,-120 738.5,-152 829.5,-152 829.5,-120 738.5,-120"/>
<text text-anchor="start" x="746.5" y="-139" font-family="FreeSans" font-size="10.00">std::basic_string&lt;</text>
<text text-anchor="middle" x="784" y="-127" font-family="FreeSans" font-size="10.00"> char &gt;</text>
</a>
</g>
<!-- Node15&#45;&gt;Node14 -->
<g id="edge34" class="edge"><title>Node15&#45;&gt;Node14</title>
<path fill="none" stroke="midnightblue" d="M839.721,-136C879.279,-136 930.765,-136 962.321,-136"/>
<polygon fill="midnightblue" stroke="midnightblue" points="839.683,-132.5 829.683,-136 839.683,-139.5 839.683,-132.5"/>
</g>
<!-- Node16 -->
<g id="node33" class="node"><title>Node16</title>
<a xlink:href="classMezzanine_1_1Graphics_1_1Mesh.xhtml" target="_top" xlink:title="This class is used to check and modify the properties of a graphics mesh.">
<polygon fill="none" stroke="black" points="938.5,-164 938.5,-196 1043.5,-196 1043.5,-164 938.5,-164"/>
<text text-anchor="start" x="946.5" y="-183" font-family="FreeSans" font-size="10.00">Mezzanine::Graphics</text>
<text text-anchor="middle" x="991" y="-171" font-family="FreeSans" font-size="10.00">::Mesh</text>
</a>
</g>
<!-- Node16&#45;&gt;Node13 -->
<g id="edge36" class="edge"><title>Node16&#45;&gt;Node13</title>
<path fill="none" stroke="#9a32cd" stroke-dasharray="5,2" d="M1053.81,-178.16C1056.58,-178.101 1059.32,-178.047 1062,-178 1086.13,-177.573 1112.62,-177.328 1135.94,-177.186"/>
<polygon fill="#9a32cd" stroke="#9a32cd" points="1053.64,-174.663 1043.73,-178.392 1053.8,-181.661 1053.64,-174.663"/>
<text text-anchor="middle" x="1090" y="-181" font-family="FreeSans" font-size="10.00"> elements</text>
</g>
<!-- Node17 -->
<g id="node35" class="node"><title>Node17</title>
<a xlink:href="classMezzanine_1_1Graphics_1_1Skeleton.xhtml" target="_top" xlink:title="This class encapsulates the Skeletal animation functionality of a Mesh.">
<polygon fill="none" stroke="black" points="731.5,-60 731.5,-92 836.5,-92 836.5,-60 731.5,-60"/>
<text text-anchor="start" x="739.5" y="-79" font-family="FreeSans" font-size="10.00">Mezzanine::Graphics</text>
<text text-anchor="middle" x="784" y="-67" font-family="FreeSans" font-size="10.00">::Skeleton</text>
</a>
</g>
<!-- Node17&#45;&gt;Node16 -->
<g id="edge38" class="edge"><title>Node17&#45;&gt;Node16</title>
<path fill="none" stroke="#9a32cd" stroke-dasharray="5,2" d="M823.702,-96.8254C854.694,-112.971 898.908,-135.76 938,-155 943.933,-157.92 950.27,-160.969 956.424,-163.893"/>
<polygon fill="#9a32cd" stroke="#9a32cd" points="825.013,-93.5619 814.528,-92.0394 821.775,-99.7681 825.013,-93.5619"/>
<text text-anchor="middle" x="893" y="-147" font-family="FreeSans" font-size="10.00"> MeshSkel</text>
</g>
<!-- Node19 -->
<g id="node39" class="node"><title>Node19</title>
<a xlink:href="classMezzanine_1_1Graphics_1_1Bone.xhtml" target="_top" xlink:title="This class encapsulates the bones contained in a skeleton used for animation.">
<polygon fill="none" stroke="black" points="938.5,-8 938.5,-40 1043.5,-40 1043.5,-8 938.5,-8"/>
<text text-anchor="start" x="946.5" y="-27" font-family="FreeSans" font-size="10.00">Mezzanine::Graphics</text>
<text text-anchor="middle" x="991" y="-15" font-family="FreeSans" font-size="10.00">::Bone</text>
</a>
</g>
<!-- Node17&#45;&gt;Node19 -->
<g id="edge46" class="edge"><title>Node17&#45;&gt;Node19</title>
<path fill="none" stroke="#9a32cd" stroke-dasharray="5,2" d="M841.69,-56.8975C849.815,-54.4446 858.091,-52.0706 866,-50 889.587,-43.8246 915.983,-38.1558 938.419,-33.6984"/>
<polygon fill="#9a32cd" stroke="#9a32cd" points="840.419,-53.6268 831.89,-59.9135 842.478,-60.3172 840.419,-53.6268"/>
<text text-anchor="middle" x="893" y="-53" font-family="FreeSans" font-size="10.00"> Host</text>
</g>
<!-- Node18 -->
<g id="node37" class="node"><title>Node18</title>
<polygon fill="none" stroke="#bfbfbf" points="1148.5,-47 1148.5,-67 1253.5,-67 1253.5,-47 1148.5,-47"/>
<text text-anchor="middle" x="1201" y="-54" font-family="FreeSans" font-size="10.00">std::vector&lt; Bone * &gt;</text>
</g>
<!-- Node18&#45;&gt;Node17 -->
<g id="edge40" class="edge"><title>Node18&#45;&gt;Node17</title>
<path fill="none" stroke="#9a32cd" stroke-dasharray="5,2" d="M1138.09,-59.8665C1055.95,-63.6089 913.63,-70.0936 836.813,-73.5936"/>
<polygon fill="#9a32cd" stroke="#9a32cd" points="1138.46,-63.3534 1148.29,-59.4018 1138.14,-56.3607 1138.46,-63.3534"/>
<text text-anchor="middle" x="991" y="-72" font-family="FreeSans" font-size="10.00"> Bones</text>
</g>
<!-- Node19&#45;&gt;Node18 -->
<g id="edge42" class="edge"><title>Node19&#45;&gt;Node18</title>
<path fill="none" stroke="#9a32cd" stroke-dasharray="5,2" d="M1053.71,-33.8539C1083.84,-38.5887 1119.55,-44.2 1148.26,-48.7119"/>
<polygon fill="#9a32cd" stroke="#9a32cd" points="1054.14,-30.3796 1043.72,-32.2847 1053.06,-37.2947 1054.14,-30.3796"/>
<text text-anchor="middle" x="1090" y="-47" font-family="FreeSans" font-size="10.00"> elements</text>
</g>
<!-- Node20 -->
<g id="node41" class="node"><title>Node20</title>
<a xlink:href="classMezzanine_1_1TransformableObject.xhtml" target="_top" xlink:title="This is an interface for all 3D objects that can have their full transforms manipulated.">
<polygon fill="none" stroke="black" points="720,-0 720,-32 848,-32 848,-0 720,-0"/>
<text text-anchor="start" x="728" y="-19" font-family="FreeSans" font-size="10.00">Mezzanine::Transformable</text>
<text text-anchor="middle" x="784" y="-7" font-family="FreeSans" font-size="10.00">Object</text>
</a>
</g>
<!-- Node20&#45;&gt;Node19 -->
<g id="edge44" class="edge"><title>Node20&#45;&gt;Node19</title>
<path fill="none" stroke="midnightblue" d="M858.095,-18.8636C884.631,-19.8891 913.979,-21.0233 938.332,-21.9645"/>
<polygon fill="midnightblue" stroke="midnightblue" points="858.206,-15.3654 848.078,-18.4765 857.936,-22.3601 858.206,-15.3654"/>
</g>
<!-- Node21 -->
<g id="node44" class="node"><title>Node21</title>
<polygon fill="none" stroke="#bfbfbf" points="722.5,-170 722.5,-190 845.5,-190 845.5,-170 722.5,-170"/>
<text text-anchor="middle" x="784" y="-177" font-family="FreeSans" font-size="10.00">std::vector&lt; SubMesh * &gt;</text>
</g>
<!-- Node21&#45;&gt;Node16 -->
<g id="edge48" class="edge"><title>Node21&#45;&gt;Node16</title>
<path fill="none" stroke="#9a32cd" stroke-dasharray="5,2" d="M855.784,-180C882.956,-180 913.356,-180 938.439,-180"/>
<polygon fill="#9a32cd" stroke="#9a32cd" points="855.546,-176.5 845.546,-180 855.546,-183.5 855.546,-176.5"/>
<text text-anchor="middle" x="893" y="-183" font-family="FreeSans" font-size="10.00"> SubMeshes</text>
</g>
<!-- Node22 -->
<g id="node46" class="node"><title>Node22</title>
<a xlink:href="classMezzanine_1_1Graphics_1_1SubMesh.xhtml" target="_top" xlink:title="This class represents a sub&#45;section of an overall mesh.">
<polygon fill="none" stroke="black" points="532.5,-164 532.5,-196 637.5,-196 637.5,-164 532.5,-164"/>
<text text-anchor="start" x="540.5" y="-183" font-family="FreeSans" font-size="10.00">Mezzanine::Graphics</text>
<text text-anchor="middle" x="585" y="-171" font-family="FreeSans" font-size="10.00">::SubMesh</text>
</a>
</g>
<!-- Node22&#45;&gt;Node21 -->
<g id="edge50" class="edge"><title>Node22&#45;&gt;Node21</title>
<path fill="none" stroke="#9a32cd" stroke-dasharray="5,2" d="M647.546,-180C671.397,-180 698.55,-180 722.32,-180"/>
<polygon fill="#9a32cd" stroke="#9a32cd" points="647.545,-176.5 637.545,-180 647.545,-183.5 647.545,-176.5"/>
<text text-anchor="middle" x="681" y="-183" font-family="FreeSans" font-size="10.00"> elements</text>
</g>
</g>
</svg>
        <g id="navigator" transform="translate(0 0)" fill="#404254">
                <rect fill="#f2f5e9" fill-opacity="0.5" stroke="#606060" stroke-width=".5" x="0" y="0" width="60" height="60"/>
                <use id="zoomplus" xlink:href="#zoomPlus" x="17" y="9" onmousedown="handleZoom(evt,'in')"/>
                <use id="zoomminus" xlink:href="#zoomMin" x="42" y="9" onmousedown="handleZoom(evt,'out')"/>
                <use id="reset" xlink:href="#resetDef" x="30" y="36" onmousedown="handleReset()"/>
                <g id="arrowUp" xlink:href="#dirArrow" transform="translate(30 24)" onmousedown="handlePan(0,-1)">
                  <use xlink:href="#rim" fill="#404040">
                        <set attributeName="fill" to="#808080" begin="arrowUp.mouseover" end="arrowUp.mouseout"/>
                  </use>
                  <path fill="none" stroke="white" stroke-width="1.5" d="M0,-3.0v7 M-2.5,-0.5L0,-3.0L2.5,-0.5"/>
                </g>
                <g id="arrowRight" xlink:href="#dirArrow" transform="rotate(90) translate(36 -43)" onmousedown="handlePan(1,0)">
                  <use xlink:href="#rim" fill="#404040">
                        <set attributeName="fill" to="#808080" begin="arrowRight.mouseover" end="arrowRight.mouseout"/>
                  </use>
                  <path fill="none" stroke="white" stroke-width="1.5" d="M0,-3.0v7 M-2.5,-0.5L0,-3.0L2.5,-0.5"/>
                </g>
                <g id="arrowDown" xlink:href="#dirArrow" transform="rotate(180) translate(-30 -48)" onmousedown="handlePan(0,1)">
                  <use xlink:href="#rim" fill="#404040">
                        <set attributeName="fill" to="#808080" begin="arrowDown.mouseover" end="arrowDown.mouseout"/>
                  </use>
                  <path fill="none" stroke="white" stroke-width="1.5" d="M0,-3.0v7 M-2.5,-0.5L0,-3.0L2.5,-0.5"/>
                </g>
                <g id="arrowLeft" xlink:href="#dirArrow" transform="rotate(270) translate(-36 17)" onmousedown="handlePan(-1,0)">
                  <use xlink:href="#rim" fill="#404040">
                        <set attributeName="fill" to="#808080" begin="arrowLeft.mouseover" end="arrowLeft.mouseout"/>
                  </use>
                  <path fill="none" stroke="white" stroke-width="1.5" d="M0,-3.0v7 M-2.5,-0.5L0,-3.0L2.5,-0.5"/>
                </g>
        </g>
        <svg viewBox="0 0 15 15" width="100%" height="30px" preserveAspectRatio="xMaxYMin meet">
         <g id="arrow_out" transform="scale(0.3 0.3)">
          <a xlink:href="classMezzanine_1_1MeshManager__coll__graph_org.svg" target="_base">
           <rect id="button" ry="5" rx="5" y="6" x="6" height="38" width="38"
                fill="#f2f5e9" fill-opacity="0.5" stroke="#606060" stroke-width="1.0"/>
           <path id="arrow"
             d="M 11.500037,31.436501 C 11.940474,20.09759 22.043105,11.32322 32.158766,21.979434 L 37.068811,17.246167 C 37.068811,17.246167 37.088388,32 37.088388,32 L 22.160133,31.978069 C 22.160133,31.978069 26.997745,27.140456 26.997745,27.140456 C 18.528582,18.264221 13.291696,25.230495 11.500037,31.436501 z"
             style="fill:#404040;"/>
          </a>
         </g>
        </svg>
</svg>
