<?xml version="1.0" encoding="UTF-8" standalone="no"?>
<!DOCTYPE svg PUBLIC "-//W3C//DTD SVG 1.1//EN"
 "http://www.w3.org/Graphics/SVG/1.1/DTD/svg11.dtd">
<!-- Generated by graphviz version 2.26.3 (20100126.1600)
 -->
<!-- Title: Mezzanine::AreaEffectUpdateWorkUnit Pages: 1 -->
<svg width="166pt" height="188pt"
 viewBox="0.00 0.00 166.00 188.00" xmlns="http://www.w3.org/2000/svg" xmlns:xlink="http://www.w3.org/1999/xlink">
<g id="graph1" class="graph" transform="scale(1 1) rotate(0) translate(4 184)">
<title>Mezzanine::AreaEffectUpdateWorkUnit</title>
<polygon fill="white" stroke="white" points="-4,5 -4,-184 163,-184 163,5 -4,5"/>
<!-- Node1 -->
<g id="node1" class="node"><title>Node1</title>
<polygon fill="#bfbfbf" stroke="black" points="0,-1 0,-35 158,-35 158,-1 0,-1"/>
<text text-anchor="start" x="8" y="-22" font-family="FreeSans" font-size="10.00">Mezzanine::AreaEffectUpdate</text>
<text text-anchor="middle" x="79" y="-9" font-family="FreeSans" font-size="10.00">WorkUnit</text>
</g>
<!-- Node2 -->
<g id="node2" class="node"><title>Node2</title>
<a xlink:href="classMezzanine_1_1Threading_1_1DefaultWorkUnit.html" target="_top" xlink:title="Default implementation of WorkUnit. This represents on piece of work through time.">
<polygon fill="white" stroke="black" points="18.5,-73 18.5,-107 139.5,-107 139.5,-73 18.5,-73"/>
<text text-anchor="start" x="26.5" y="-94" font-family="FreeSans" font-size="10.00">Mezzanine::Threading</text>
<text text-anchor="middle" x="79" y="-81" font-family="FreeSans" font-size="10.00">::DefaultWorkUnit</text>
</a>
</g>
<!-- Node2&#45;&gt;Node1 -->
<g id="edge2" class="edge"><title>Node2&#45;&gt;Node1</title>
<path fill="none" stroke="midnightblue" d="M79,-62.7193C79,-53.572 79,-43.6255 79,-35.4407"/>
<polygon fill="midnightblue" stroke="midnightblue" points="75.5001,-62.937 79,-72.937 82.5001,-62.937 75.5001,-62.937"/>
</g>
<!-- Node3 -->
<g id="node4" class="node"><title>Node3</title>
<a xlink:href="classMezzanine_1_1Threading_1_1iWorkUnit.html" target="_top" xlink:title="Interface of a WorkUnit. This represents on piece of work through time.">
<polygon fill="white" stroke="black" points="18.5,-145 18.5,-179 139.5,-179 139.5,-145 18.5,-145"/>
<text text-anchor="start" x="26.5" y="-166" font-family="FreeSans" font-size="10.00">Mezzanine::Threading</text>
<text text-anchor="middle" x="79" y="-153" font-family="FreeSans" font-size="10.00">::iWorkUnit</text>
</a>
</g>
<!-- Node3&#45;&gt;Node2 -->
<g id="edge4" class="edge"><title>Node3&#45;&gt;Node2</title>
<path fill="none" stroke="midnightblue" d="M79,-134.719C79,-125.572 79,-115.625 79,-107.441"/>
<polygon fill="midnightblue" stroke="midnightblue" points="75.5001,-134.937 79,-144.937 82.5001,-134.937 75.5001,-134.937"/>
</g>
</g>
</svg>
