<?xml version="1.0" encoding="UTF-8" standalone="no"?>
<!DOCTYPE svg PUBLIC "-//W3C//DTD SVG 1.1//EN"
 "http://www.w3.org/Graphics/SVG/1.1/DTD/svg11.dtd">
<!-- Generated by graphviz version 2.26.3 (20100126.1600)
 -->
<!-- Title: Mezzanine::UI::PositioningInfo Pages: 1 -->
<svg width="158pt" height="186pt"
 viewBox="0.00 0.00 158.00 186.00" xmlns="http://www.w3.org/2000/svg" xmlns:xlink="http://www.w3.org/1999/xlink">
<g id="graph1" class="graph" transform="scale(1 1) rotate(0) translate(4 182)">
<title>Mezzanine::UI::PositioningInfo</title>
<polygon fill="white" stroke="white" points="-4,5 -4,-182 155,-182 155,5 -4,5"/>
<!-- Node1 -->
<g id="node1" class="node"><title>Node1</title>
<polygon fill="#bfbfbf" stroke="black" points="-0.5,-0.5 -0.5,-21.5 150.5,-21.5 150.5,-0.5 -0.5,-0.5"/>
<text text-anchor="middle" x="75" y="-8.5" font-family="Helvetica,sans-Serif" font-size="10.00">Mezzanine::UI::PositioningInfo</text>
</g>
<!-- Node2 -->
<g id="node2" class="node"><title>Node2</title>
<a xlink:href="classMezzanine_1_1UI_1_1UnifiedVec2.html" target="_top" xlink:title="This class represents a point in 2D space using UnifiedDim&#39;s. ">
<polygon fill="white" stroke="black" points="5,-72.5 5,-93.5 145,-93.5 145,-72.5 5,-72.5"/>
<text text-anchor="middle" x="75" y="-80.5" font-family="Helvetica,sans-Serif" font-size="10.00">Mezzanine::UI::UnifiedVec2</text>
</a>
</g>
<!-- Node2&#45;&gt;Node1 -->
<g id="edge2" class="edge"><title>Node2&#45;&gt;Node1</title>
<path fill="none" stroke="#9a32cd" stroke-dasharray="5,2" d="M75,-62.2348C75,-48.969 75,-32.3188 75,-21.6674"/>
<polygon fill="#9a32cd" stroke="#9a32cd" points="71.5001,-62.3761 75,-72.3762 78.5001,-62.3762 71.5001,-62.3761"/>
<text text-anchor="middle" x="98" y="-44.5" font-family="Helvetica,sans-Serif" font-size="10.00"> UPosition</text>
</g>
<!-- Node3 -->
<g id="node4" class="node"><title>Node3</title>
<a xlink:href="classMezzanine_1_1UI_1_1UnifiedDim.html" target="_top" xlink:title="This class represents both the relative and absolute values that can be expressed for the values on o...">
<polygon fill="white" stroke="black" points="7.5,-156.5 7.5,-177.5 142.5,-177.5 142.5,-156.5 7.5,-156.5"/>
<text text-anchor="middle" x="75" y="-164.5" font-family="Helvetica,sans-Serif" font-size="10.00">Mezzanine::UI::UnifiedDim</text>
</a>
</g>
<!-- Node3&#45;&gt;Node2 -->
<g id="edge4" class="edge"><title>Node3&#45;&gt;Node2</title>
<path fill="none" stroke="#9a32cd" stroke-dasharray="5,2" d="M75,-145.945C75,-129.257 75,-106.639 75,-93.5523"/>
<polygon fill="#9a32cd" stroke="#9a32cd" points="71.5001,-146.361 75,-156.361 78.5001,-146.361 71.5001,-146.361"/>
<text text-anchor="middle" x="80" y="-129" font-family="Helvetica,sans-Serif" font-size="10.00"> X</text>
<text text-anchor="middle" x="80" y="-116" font-family="Helvetica,sans-Serif" font-size="10.00">Y</text>
</g>
</g>
</svg>
