<?xml version="1.0" encoding="UTF-8" standalone="no"?>
<!DOCTYPE svg PUBLIC "-//W3C//DTD SVG 1.1//EN"
 "http://www.w3.org/Graphics/SVG/1.1/DTD/svg11.dtd">
<!-- Generated by graphviz version 2.38.0 (20140413.2041)
 -->
<!-- Title: Mezzanine::Graphics::Procedural::FlareModifier Pages: 1 -->
<svg width="374pt" height="116pt"
 viewBox="0.00 0.00 374.00 115.50" xmlns="http://www.w3.org/2000/svg" xmlns:xlink="http://www.w3.org/1999/xlink">
<g id="graph0" class="graph" transform="scale(1 1) rotate(0) translate(4 111.5)">
<title>Mezzanine::Graphics::Procedural::FlareModifier</title>
<polygon fill="white" stroke="none" points="-4,4 -4,-111.5 370,-111.5 370,4 -4,4"/>
<!-- Node1 -->
<g id="node1" class="node"><title>Node1</title>
<polygon fill="#bfbfbf" stroke="black" points="235,-33 235,-63 366,-63 366,-33 235,-33"/>
<text text-anchor="start" x="243" y="-51" font-family="Helvetica,sans-Serif" font-size="10.00">Mezzanine::Graphics</text>
<text text-anchor="middle" x="300.5" y="-40" font-family="Helvetica,sans-Serif" font-size="10.00">::Procedural::FlareModifier</text>
</g>
<!-- Node2 -->
<g id="node2" class="node"><title>Node2</title>
<g id="a_node2"><a xlink:href="classMezzanine_1_1Graphics_1_1Procedural_1_1TextureModifier.html" target="_top" xlink:title="A base class for modifying the contents of an already populated texture buffer. ">
<polygon fill="white" stroke="black" points="0,-77 0,-107 143,-107 143,-77 0,-77"/>
<text text-anchor="start" x="8" y="-95" font-family="Helvetica,sans-Serif" font-size="10.00">Mezzanine::Graphics</text>
<text text-anchor="middle" x="71.5" y="-84" font-family="Helvetica,sans-Serif" font-size="10.00">::Procedural::TextureModifier</text>
</a>
</g>
</g>
<!-- Node2&#45;&gt;Node1 -->
<g id="edge1" class="edge"><title>Node2&#45;&gt;Node1</title>
<path fill="none" stroke="midnightblue" d="M153.246,-84.5651C174.139,-81.926 196.516,-78.465 217,-74 230.059,-71.1536 244.009,-67.1438 256.652,-63.1236"/>
<polygon fill="midnightblue" stroke="midnightblue" points="152.628,-81.1144 143.123,-85.7954 153.473,-88.0632 152.628,-81.1144"/>
</g>
<!-- Node3 -->
<g id="node3" class="node"><title>Node3</title>
<g id="a_node3"><a xlink:href="classMezzanine_1_1Vector2.html" target="_top" xlink:title="This is used to represent a point on a 2 dimentional area, such as a screen. ">
<polygon fill="white" stroke="black" points="19.5,-38.5 19.5,-57.5 123.5,-57.5 123.5,-38.5 19.5,-38.5"/>
<text text-anchor="middle" x="71.5" y="-45.5" font-family="Helvetica,sans-Serif" font-size="10.00">Mezzanine::Vector2</text>
</a>
</g>
</g>
<!-- Node3&#45;&gt;Node1 -->
<g id="edge2" class="edge"><title>Node3&#45;&gt;Node1</title>
<path fill="none" stroke="#9a32cd" stroke-dasharray="5,2" d="M134.019,-48C165.18,-48 203.007,-48 234.626,-48"/>
<polygon fill="#9a32cd" stroke="#9a32cd" points="133.726,-44.5001 123.726,-48 133.726,-51.5001 133.726,-44.5001"/>
<text text-anchor="middle" x="189" y="-62" font-family="Helvetica,sans-Serif" font-size="10.00"> FlareRadius</text>
<text text-anchor="middle" x="189" y="-51" font-family="Helvetica,sans-Serif" font-size="10.00">FlareCenter</text>
</g>
<!-- Node4 -->
<g id="node4" class="node"><title>Node4</title>
<g id="a_node4"><a xlink:href="classMezzanine_1_1ColourValue.html" target="_top" xlink:title="This is a simple class for holding 4 reals representing the colour any give object or lightsource can...">
<polygon fill="white" stroke="black" points="10,-0.5 10,-19.5 133,-19.5 133,-0.5 10,-0.5"/>
<text text-anchor="middle" x="71.5" y="-7.5" font-family="Helvetica,sans-Serif" font-size="10.00">Mezzanine::ColourValue</text>
</a>
</g>
</g>
<!-- Node4&#45;&gt;Node1 -->
<g id="edge3" class="edge"><title>Node4&#45;&gt;Node1</title>
<path fill="none" stroke="#9a32cd" stroke-dasharray="5,2" d="M142.924,-20.8911C166.493,-24.6208 192.898,-28.8912 217,-33 222.74,-33.9786 228.701,-35.0175 234.673,-36.0741"/>
<polygon fill="#9a32cd" stroke="#9a32cd" points="143.435,-17.4285 133.012,-19.3278 142.344,-24.343 143.435,-17.4285"/>
<text text-anchor="middle" x="189" y="-36" font-family="Helvetica,sans-Serif" font-size="10.00"> FlareColour</text>
</g>
</g>
</svg>
