<?xml version="1.0" encoding="UTF-8" standalone="no"?>
<!DOCTYPE svg PUBLIC "-//W3C//DTD SVG 1.1//EN"
 "http://www.w3.org/Graphics/SVG/1.1/DTD/svg11.dtd">
<!-- Generated by graphviz version 2.26.3 (20100126.1600)
 -->
<!-- Title: Mezzanine::ResourceManager Pages: 1 -->
<!--zoomable 220 -->
<svg id="main" version="1.1" xmlns="http://www.w3.org/2000/svg" xmlns:xlink="http://www.w3.org/1999/xlink" xml:space="preserve" onload="init(evt)">
        <defs>
                <circle id="rim" cx="0" cy="0" r="7"/>
                <circle id="rim2" cx="0" cy="0" r="3.5"/>
                <g id="zoomPlus">
                        <use xlink:href="#rim" fill="#404040">
                                <set attributeName="fill" to="#808080" begin="zoomplus.mouseover" end="zoomplus.mouseout"/>
                        </use>
                        <path d="M-4,0h8M0,-4v8" fill="none" stroke="white" stroke-width="1.5" pointer-events="none"/>
                </g>
                <g id="zoomMin">
                        <use xlink:href="#rim" fill="#404040">
                                <set attributeName="fill" to="#808080" begin="zoomminus.mouseover" end="zoomminus.mouseout"/>
                        </use>
                        <path d="M-4,0h8" fill="none" stroke="white" stroke-width="1.5" pointer-events="none"/>
                </g>
                <g id="dirArrow">
                        <path fill="none" stroke="white" stroke-width="1.5" d="M0,-3.0v7 M-2.5,-0.5L0,-3.0L2.5,-0.5"/>
                </g>
               <g id="resetDef">
                       <use xlink:href="#rim2" fill="#404040">
                               <set attributeName="fill" to="#808080" begin="reset.mouseover" end="reset.mouseout"/>
                       </use>
               </g>
        </defs>

<script type="text/javascript">
var viewWidth = 1784;
var viewHeight = 220;
var sectionId = 'dynsection-1';
</script>
<script xlink:href="svgpan.js"/>
<svg id="graph" class="graph">
<g id="viewport">
<title>Mezzanine::ResourceManager</title>
<!-- Node1 -->
<g id="node1" class="node"><title>Node1</title>
<polygon fill="#bfbfbf" stroke="black" points="1426.5,-66 1426.5,-86 1571.5,-86 1571.5,-66 1426.5,-66"/>
<text text-anchor="middle" x="1499" y="-73" font-family="FreeSans" font-size="10.00">Mezzanine::ResourceManager</text>
</g>
<!-- Node12 -->
<g id="node24" class="node"><title>Node12</title>
<a xlink:href="classMezzanine_1_1Singleton.xhtml" target="_top" xlink:title="Mezzanine::Singleton\l\&lt; ResourceManager \&gt;">
<polygon fill="none" stroke="black" points="1664.5,-60 1664.5,-92 1775.5,-92 1775.5,-60 1664.5,-60"/>
<text text-anchor="start" x="1672.5" y="-79" font-family="FreeSans" font-size="10.00">Mezzanine::Singleton</text>
<text text-anchor="middle" x="1720" y="-67" font-family="FreeSans" font-size="10.00">&lt; ResourceManager &gt;</text>
</a>
</g>
<!-- Node1&#45;&gt;Node12 -->
<g id="edge28" class="edge"><title>Node1&#45;&gt;Node12</title>
<path fill="none" stroke="#9a32cd" stroke-dasharray="5,2" d="M1581.72,-76C1609.33,-76 1639.42,-76 1664.46,-76"/>
<polygon fill="#9a32cd" stroke="#9a32cd" points="1581.67,-72.5001 1571.67,-76 1581.67,-79.5001 1581.67,-72.5001"/>
<text text-anchor="middle" x="1618" y="-79" font-family="FreeSans" font-size="10.00"> SingletonPtr</text>
</g>
<!-- Node2 -->
<g id="node2" class="node"><title>Node2</title>
<a xlink:href="classMezzanine_1_1ManagerBase.xhtml" target="_top" xlink:title="This is the base class from which all the World Managers inherit.">
<polygon fill="none" stroke="black" points="1190,-179 1190,-199 1316,-199 1316,-179 1190,-179"/>
<text text-anchor="middle" x="1253" y="-186" font-family="FreeSans" font-size="10.00">Mezzanine::ManagerBase</text>
</a>
</g>
<!-- Node2&#45;&gt;Node1 -->
<g id="edge2" class="edge"><title>Node2&#45;&gt;Node1</title>
<path fill="none" stroke="midnightblue" d="M1295.85,-175.643C1302.65,-173.258 1309.56,-170.675 1316,-168 1378.39,-142.076 1448.98,-103.956 1481.22,-86.0227"/>
<polygon fill="midnightblue" stroke="midnightblue" points="1294.37,-172.449 1286.03,-178.984 1296.62,-179.076 1294.37,-172.449"/>
</g>
<!-- Node3 -->
<g id="node4" class="node"><title>Node3</title>
<a xlink:href="classMezzanine_1_1Entresol.xhtml" target="_top" xlink:title="This is the main entry point for the entire library.">
<polygon fill="none" stroke="black" points="996.5,-146 996.5,-166 1097.5,-166 1097.5,-146 996.5,-146"/>
<text text-anchor="middle" x="1047" y="-153" font-family="FreeSans" font-size="10.00">Mezzanine::Entresol</text>
</a>
</g>
<!-- Node3&#45;&gt;Node2 -->
<g id="edge4" class="edge"><title>Node3&#45;&gt;Node2</title>
<path fill="none" stroke="#9a32cd" stroke-dasharray="5,2" d="M1107.77,-165.735C1133.79,-169.903 1164.16,-174.768 1190.38,-178.968"/>
<polygon fill="#9a32cd" stroke="#9a32cd" points="1108.08,-162.241 1097.66,-164.115 1106.98,-169.153 1108.08,-162.241"/>
<text text-anchor="middle" x="1144" y="-178" font-family="FreeSans" font-size="10.00"> TheEntresol</text>
</g>
<!-- Node4 -->
<g id="node6" class="node"><title>Node4</title>
<a xlink:href="classMezzanine_1_1Singleton.xhtml" target="_top" xlink:title="Mezzanine::Singleton\l\&lt; Entresol \&gt;">
<polygon fill="none" stroke="black" points="1199.5,-127 1199.5,-159 1306.5,-159 1306.5,-127 1199.5,-127"/>
<text text-anchor="start" x="1207.5" y="-146" font-family="FreeSans" font-size="10.00">Mezzanine::Singleton</text>
<text text-anchor="middle" x="1253" y="-134" font-family="FreeSans" font-size="10.00">&lt; Entresol &gt;</text>
</a>
</g>
<!-- Node3&#45;&gt;Node4 -->
<g id="edge8" class="edge"><title>Node3&#45;&gt;Node4</title>
<path fill="none" stroke="#9a32cd" stroke-dasharray="5,2" d="M1107.69,-152.17C1136.73,-150.337 1171.21,-148.161 1199.3,-146.389"/>
<polygon fill="#9a32cd" stroke="#9a32cd" points="1107.42,-148.68 1097.66,-152.803 1107.86,-155.666 1107.42,-148.68"/>
<text text-anchor="middle" x="1144" y="-154" font-family="FreeSans" font-size="10.00"> SingletonPtr</text>
</g>
<!-- Node4&#45;&gt;Node3 -->
<g id="edge6" class="edge"><title>Node4&#45;&gt;Node3</title>
<path fill="none" stroke="midnightblue" d="M1189.39,-135.525C1166.2,-134.034 1139.84,-133.778 1116,-137 1102.83,-138.781 1088.61,-142.392 1076.52,-145.993"/>
<polygon fill="midnightblue" stroke="midnightblue" points="1189.22,-139.022 1199.45,-136.26 1189.73,-132.041 1189.22,-139.022"/>
</g>
<!-- Node5 -->
<g id="node9" class="node"><title>Node5</title>
<a xlink:title="STL class.">
<polygon fill="none" stroke="#bfbfbf" points="739,-146 739,-166 825,-166 825,-146 739,-146"/>
<text text-anchor="middle" x="782" y="-153" font-family="FreeSans" font-size="10.00">std::stringstream</text>
</a>
</g>
<!-- Node5&#45;&gt;Node3 -->
<g id="edge10" class="edge"><title>Node5&#45;&gt;Node3</title>
<path fill="none" stroke="#9a32cd" stroke-dasharray="5,2" d="M835.43,-156C882.319,-156 950.038,-156 996.144,-156"/>
<polygon fill="#9a32cd" stroke="#9a32cd" points="835.167,-152.5 825.167,-156 835.167,-159.5 835.167,-152.5"/>
<text text-anchor="middle" x="912" y="-159" font-family="FreeSans" font-size="10.00"> LogStream</text>
</g>
<!-- Node6 -->
<g id="node11" class="node"><title>Node6</title>
<a xlink:title="STL class.">
<polygon fill="none" stroke="#bfbfbf" points="536,-140 536,-172 650,-172 650,-140 536,-140"/>
<text text-anchor="start" x="544" y="-159" font-family="FreeSans" font-size="10.00">std::basic_stringstream</text>
<text text-anchor="middle" x="593" y="-147" font-family="FreeSans" font-size="10.00">&lt; char &gt;</text>
</a>
</g>
<!-- Node6&#45;&gt;Node5 -->
<g id="edge12" class="edge"><title>Node6&#45;&gt;Node5</title>
<path fill="none" stroke="midnightblue" d="M660.427,-156C686.512,-156 715.603,-156 738.786,-156"/>
<polygon fill="midnightblue" stroke="midnightblue" points="660.219,-152.5 650.219,-156 660.219,-159.5 660.219,-152.5"/>
</g>
<!-- Node7 -->
<g id="node13" class="node"><title>Node7</title>
<a xlink:title="STL class.">
<polygon fill="none" stroke="#bfbfbf" points="392,-140 392,-172 490,-172 490,-140 392,-140"/>
<text text-anchor="start" x="400" y="-159" font-family="FreeSans" font-size="10.00">std::basic_iostream</text>
<text text-anchor="middle" x="441" y="-147" font-family="FreeSans" font-size="10.00">&lt; Char &gt;</text>
</a>
</g>
<!-- Node7&#45;&gt;Node6 -->
<g id="edge14" class="edge"><title>Node7&#45;&gt;Node6</title>
<path fill="none" stroke="midnightblue" d="M500.449,-156C512.135,-156 524.371,-156 535.975,-156"/>
<polygon fill="midnightblue" stroke="midnightblue" points="500.35,-152.5 490.35,-156 500.35,-159.5 500.35,-152.5"/>
</g>
<!-- Node8 -->
<g id="node15" class="node"><title>Node8</title>
<a xlink:title="STL class.">
<polygon fill="none" stroke="#bfbfbf" points="259.5,-180 259.5,-212 352.5,-212 352.5,-180 259.5,-180"/>
<text text-anchor="start" x="267.5" y="-199" font-family="FreeSans" font-size="10.00">std::basic_istream</text>
<text text-anchor="middle" x="306" y="-187" font-family="FreeSans" font-size="10.00">&lt; Char &gt;</text>
</a>
</g>
<!-- Node8&#45;&gt;Node7 -->
<g id="edge16" class="edge"><title>Node8&#45;&gt;Node7</title>
<path fill="none" stroke="midnightblue" d="M362.488,-179.263C372.276,-176.363 382.381,-173.369 391.95,-170.533"/>
<polygon fill="midnightblue" stroke="midnightblue" points="361.431,-175.925 352.838,-182.122 363.42,-182.637 361.431,-175.925"/>
</g>
<!-- Node9 -->
<g id="node17" class="node"><title>Node9</title>
<a xlink:title="STL class.">
<polygon fill="none" stroke="#bfbfbf" points="110,-136 110,-156 220,-156 220,-136 110,-136"/>
<text text-anchor="middle" x="165" y="-143" font-family="FreeSans" font-size="10.00">std::basic_ios&lt; Char &gt;</text>
</a>
</g>
<!-- Node9&#45;&gt;Node8 -->
<g id="edge18" class="edge"><title>Node9&#45;&gt;Node8</title>
<path fill="none" stroke="midnightblue" d="M203.03,-159.486C220.852,-165.806 242.216,-173.382 260.853,-179.991"/>
<polygon fill="midnightblue" stroke="midnightblue" points="204.128,-156.162 193.533,-156.118 201.789,-162.759 204.128,-156.162"/>
</g>
<!-- Node11 -->
<g id="node21" class="node"><title>Node11</title>
<a xlink:title="STL class.">
<polygon fill="none" stroke="#bfbfbf" points="258,-130 258,-162 354,-162 354,-130 258,-130"/>
<text text-anchor="start" x="266" y="-149" font-family="FreeSans" font-size="10.00">std::basic_ostream</text>
<text text-anchor="middle" x="306" y="-137" font-family="FreeSans" font-size="10.00">&lt; Char &gt;</text>
</a>
</g>
<!-- Node9&#45;&gt;Node11 -->
<g id="edge24" class="edge"><title>Node9&#45;&gt;Node11</title>
<path fill="none" stroke="midnightblue" d="M230.562,-146C239.702,-146 248.954,-146 257.698,-146"/>
<polygon fill="midnightblue" stroke="midnightblue" points="230.322,-142.5 220.322,-146 230.322,-149.5 230.322,-142.5"/>
</g>
<!-- Node16 -->
<g id="node33" class="node"><title>Node16</title>
<a xlink:title="STL class.">
<polygon fill="none" stroke="#bfbfbf" points="259.5,-80 259.5,-112 352.5,-112 352.5,-80 259.5,-80"/>
<text text-anchor="start" x="267.5" y="-99" font-family="FreeSans" font-size="10.00">std::basic_istream</text>
<text text-anchor="middle" x="306" y="-87" font-family="FreeSans" font-size="10.00">&lt; char &gt;</text>
</a>
</g>
<!-- Node9&#45;&gt;Node16 -->
<g id="edge38" class="edge"><title>Node9&#45;&gt;Node16</title>
<path fill="none" stroke="midnightblue" d="M203.03,-132.514C220.852,-126.194 242.216,-118.618 260.853,-112.009"/>
<polygon fill="midnightblue" stroke="midnightblue" points="201.789,-129.241 193.533,-135.882 204.128,-135.838 201.789,-129.241"/>
</g>
<!-- Node10 -->
<g id="node19" class="node"><title>Node10</title>
<a xlink:title="STL class.">
<polygon fill="none" stroke="#bfbfbf" points="0.5,-136 0.5,-156 71.5,-156 71.5,-136 0.5,-136"/>
<text text-anchor="middle" x="36" y="-143" font-family="FreeSans" font-size="10.00">std::ios_base</text>
</a>
</g>
<!-- Node10&#45;&gt;Node9 -->
<g id="edge20" class="edge"><title>Node10&#45;&gt;Node9</title>
<path fill="none" stroke="midnightblue" d="M81.8712,-146C90.8757,-146 100.41,-146 109.686,-146"/>
<polygon fill="midnightblue" stroke="midnightblue" points="81.5913,-142.5 71.5913,-146 81.5913,-149.5 81.5913,-142.5"/>
</g>
<!-- Node11&#45;&gt;Node7 -->
<g id="edge22" class="edge"><title>Node11&#45;&gt;Node7</title>
<path fill="none" stroke="midnightblue" d="M364.452,-150.33C373.509,-151.001 382.786,-151.688 391.617,-152.342"/>
<polygon fill="midnightblue" stroke="midnightblue" points="364.588,-146.83 354.357,-149.582 364.071,-153.811 364.588,-146.83"/>
</g>
<!-- Node12&#45;&gt;Node1 -->
<g id="edge26" class="edge"><title>Node12&#45;&gt;Node1</title>
<path fill="none" stroke="midnightblue" d="M1654.17,-74.1292C1651.41,-74.0797 1648.68,-74.0362 1646,-74 1621.76,-73.6724 1595.26,-73.8634 1571.53,-74.2332"/>
<polygon fill="midnightblue" stroke="midnightblue" points="1654.17,-77.6299 1664.24,-74.3318 1654.32,-70.6313 1654.17,-77.6299"/>
</g>
<!-- Node13 -->
<g id="node27" class="node"><title>Node13</title>
<polygon fill="none" stroke="#bfbfbf" points="846.5,-80 846.5,-112 977.5,-112 977.5,-80 846.5,-80"/>
<text text-anchor="start" x="854.5" y="-99" font-family="FreeSans" font-size="10.00">std::vector&lt; ResourceInput</text>
<text text-anchor="middle" x="912" y="-87" font-family="FreeSans" font-size="10.00">Stream * &gt;</text>
</g>
<!-- Node13&#45;&gt;Node1 -->
<g id="edge30" class="edge"><title>Node13&#45;&gt;Node1</title>
<path fill="none" stroke="#9a32cd" stroke-dasharray="5,2" d="M987.848,-94.2871C1085.17,-91.9559 1259.2,-87.3371 1408,-81 1414.01,-80.7442 1420.24,-80.4541 1426.49,-80.1457"/>
<polygon fill="#9a32cd" stroke="#9a32cd" points="987.723,-90.7891 977.809,-94.526 987.889,-97.7871 987.723,-90.7891"/>
<text text-anchor="middle" x="1144" y="-93" font-family="FreeSans" font-size="10.00"> DeleteList</text>
</g>
<!-- Node14 -->
<g id="node29" class="node"><title>Node14</title>
<a xlink:href="classMezzanine_1_1ResourceInputStream.xhtml" target="_top" xlink:title="A stream from a file, can read from zip files as well.">
<polygon fill="none" stroke="black" points="528.5,-80 528.5,-112 657.5,-112 657.5,-80 528.5,-80"/>
<text text-anchor="start" x="536.5" y="-99" font-family="FreeSans" font-size="10.00">Mezzanine::ResourceInput</text>
<text text-anchor="middle" x="593" y="-87" font-family="FreeSans" font-size="10.00">Stream</text>
</a>
</g>
<!-- Node14&#45;&gt;Node13 -->
<g id="edge32" class="edge"><title>Node14&#45;&gt;Node13</title>
<path fill="none" stroke="#9a32cd" stroke-dasharray="5,2" d="M667.791,-96C721.973,-96 794.528,-96 846.447,-96"/>
<polygon fill="#9a32cd" stroke="#9a32cd" points="667.554,-92.5001 657.554,-96 667.554,-99.5001 667.554,-92.5001"/>
<text text-anchor="middle" x="697" y="-99" font-family="FreeSans" font-size="10.00"> elements</text>
</g>
<!-- Node15 -->
<g id="node31" class="node"><title>Node15</title>
<a xlink:title="STL class.">
<polygon fill="none" stroke="#bfbfbf" points="408.5,-86 408.5,-106 473.5,-106 473.5,-86 408.5,-86"/>
<text text-anchor="middle" x="441" y="-93" font-family="FreeSans" font-size="10.00">std::istream</text>
</a>
</g>
<!-- Node15&#45;&gt;Node14 -->
<g id="edge34" class="edge"><title>Node15&#45;&gt;Node14</title>
<path fill="none" stroke="midnightblue" d="M483.771,-96C497.578,-96 513.207,-96 528.236,-96"/>
<polygon fill="midnightblue" stroke="midnightblue" points="483.608,-92.5001 473.608,-96 483.608,-99.5001 483.608,-92.5001"/>
</g>
<!-- Node16&#45;&gt;Node15 -->
<g id="edge36" class="edge"><title>Node16&#45;&gt;Node15</title>
<path fill="none" stroke="midnightblue" d="M362.871,-96C378.362,-96 394.618,-96 408.266,-96"/>
<polygon fill="midnightblue" stroke="midnightblue" points="362.838,-92.5001 352.838,-96 362.838,-99.5001 362.838,-92.5001"/>
</g>
<!-- Node17 -->
<g id="node36" class="node"><title>Node17</title>
<a xlink:title="STL class.">
<polygon fill="none" stroke="#bfbfbf" points="1018.5,-31 1018.5,-51 1075.5,-51 1075.5,-31 1018.5,-31"/>
<text text-anchor="middle" x="1047" y="-38" font-family="FreeSans" font-size="10.00">std::string</text>
</a>
</g>
<!-- Node17&#45;&gt;Node1 -->
<g id="edge40" class="edge"><title>Node17&#45;&gt;Node1</title>
<path fill="none" stroke="#9a32cd" stroke-dasharray="5,2" d="M1085.64,-43.9923C1161.18,-49.8411 1329.47,-62.8724 1426.41,-70.3793"/>
<polygon fill="#9a32cd" stroke="#9a32cd" points="1085.86,-40.4985 1075.62,-43.216 1085.32,-47.4776 1085.86,-40.4985"/>
<text text-anchor="middle" x="1253" y="-65" font-family="FreeSans" font-size="10.00"> EngineDataDir</text>
</g>
<!-- Node19 -->
<g id="node40" class="node"><title>Node19</title>
<polygon fill="none" stroke="#bfbfbf" points="1202,-0 1202,-20 1304,-20 1304,-0 1202,-0"/>
<text text-anchor="middle" x="1253" y="-7" font-family="FreeSans" font-size="10.00">std::vector&lt; String &gt;</text>
</g>
<!-- Node17&#45;&gt;Node19 -->
<g id="edge46" class="edge"><title>Node17&#45;&gt;Node19</title>
<path fill="none" stroke="#9a32cd" stroke-dasharray="5,2" d="M1085.53,-34.7657C1095.45,-33.1852 1106.12,-31.5085 1116,-30 1144.39,-25.6642 1176.13,-21.0183 1201.91,-17.2966"/>
<polygon fill="#9a32cd" stroke="#9a32cd" points="1084.84,-31.3311 1075.52,-36.3669 1085.95,-38.2432 1084.84,-31.3311"/>
<text text-anchor="middle" x="1144" y="-33" font-family="FreeSans" font-size="10.00"> elements</text>
</g>
<!-- Node18 -->
<g id="node38" class="node"><title>Node18</title>
<a xlink:title="STL class.">
<polygon fill="none" stroke="#bfbfbf" points="736.5,-25 736.5,-57 827.5,-57 827.5,-25 736.5,-25"/>
<text text-anchor="start" x="744.5" y="-44" font-family="FreeSans" font-size="10.00">std::basic_string&lt;</text>
<text text-anchor="middle" x="782" y="-32" font-family="FreeSans" font-size="10.00"> char &gt;</text>
</a>
</g>
<!-- Node18&#45;&gt;Node17 -->
<g id="edge42" class="edge"><title>Node18&#45;&gt;Node17</title>
<path fill="none" stroke="midnightblue" d="M837.873,-41C893.071,-41 975.302,-41 1018.36,-41"/>
<polygon fill="midnightblue" stroke="midnightblue" points="837.555,-37.5001 827.555,-41 837.555,-44.5001 837.555,-37.5001"/>
</g>
<!-- Node19&#45;&gt;Node1 -->
<g id="edge44" class="edge"><title>Node19&#45;&gt;Node1</title>
<path fill="none" stroke="#9a32cd" stroke-dasharray="5,2" d="M1314.16,-13.0861C1343.1,-15.7555 1377.84,-20.7305 1408,-30 1435.92,-38.581 1465.65,-55.2099 1483.26,-65.9477"/>
<polygon fill="#9a32cd" stroke="#9a32cd" points="1314.44,-9.59776 1304.18,-12.2348 1313.85,-16.5724 1314.44,-9.59776"/>
<text text-anchor="middle" x="1371" y="-33" font-family="FreeSans" font-size="10.00"> ResourceGroups</text>
</g>
</g>
</svg>
        <g id="navigator" transform="translate(0 0)" fill="#404254">
                <rect fill="#f2f5e9" fill-opacity="0.5" stroke="#606060" stroke-width=".5" x="0" y="0" width="60" height="60"/>
                <use id="zoomplus" xlink:href="#zoomPlus" x="17" y="9" onmousedown="handleZoom(evt,'in')"/>
                <use id="zoomminus" xlink:href="#zoomMin" x="42" y="9" onmousedown="handleZoom(evt,'out')"/>
                <use id="reset" xlink:href="#resetDef" x="30" y="36" onmousedown="handleReset()"/>
                <g id="arrowUp" xlink:href="#dirArrow" transform="translate(30 24)" onmousedown="handlePan(0,-1)">
                  <use xlink:href="#rim" fill="#404040">
                        <set attributeName="fill" to="#808080" begin="arrowUp.mouseover" end="arrowUp.mouseout"/>
                  </use>
                  <path fill="none" stroke="white" stroke-width="1.5" d="M0,-3.0v7 M-2.5,-0.5L0,-3.0L2.5,-0.5"/>
                </g>
                <g id="arrowRight" xlink:href="#dirArrow" transform="rotate(90) translate(36 -43)" onmousedown="handlePan(1,0)">
                  <use xlink:href="#rim" fill="#404040">
                        <set attributeName="fill" to="#808080" begin="arrowRight.mouseover" end="arrowRight.mouseout"/>
                  </use>
                  <path fill="none" stroke="white" stroke-width="1.5" d="M0,-3.0v7 M-2.5,-0.5L0,-3.0L2.5,-0.5"/>
                </g>
                <g id="arrowDown" xlink:href="#dirArrow" transform="rotate(180) translate(-30 -48)" onmousedown="handlePan(0,1)">
                  <use xlink:href="#rim" fill="#404040">
                        <set attributeName="fill" to="#808080" begin="arrowDown.mouseover" end="arrowDown.mouseout"/>
                  </use>
                  <path fill="none" stroke="white" stroke-width="1.5" d="M0,-3.0v7 M-2.5,-0.5L0,-3.0L2.5,-0.5"/>
                </g>
                <g id="arrowLeft" xlink:href="#dirArrow" transform="rotate(270) translate(-36 17)" onmousedown="handlePan(-1,0)">
                  <use xlink:href="#rim" fill="#404040">
                        <set attributeName="fill" to="#808080" begin="arrowLeft.mouseover" end="arrowLeft.mouseout"/>
                  </use>
                  <path fill="none" stroke="white" stroke-width="1.5" d="M0,-3.0v7 M-2.5,-0.5L0,-3.0L2.5,-0.5"/>
                </g>
        </g>
        <svg viewBox="0 0 15 15" width="100%" height="30px" preserveAspectRatio="xMaxYMin meet">
         <g id="arrow_out" transform="scale(0.3 0.3)">
          <a xlink:href="classMezzanine_1_1ResourceManager__coll__graph_org.svg" target="_base">
           <rect id="button" ry="5" rx="5" y="6" x="6" height="38" width="38"
                fill="#f2f5e9" fill-opacity="0.5" stroke="#606060" stroke-width="1.0"/>
           <path id="arrow"
             d="M 11.500037,31.436501 C 11.940474,20.09759 22.043105,11.32322 32.158766,21.979434 L 37.068811,17.246167 C 37.068811,17.246167 37.088388,32 37.088388,32 L 22.160133,31.978069 C 22.160133,31.978069 26.997745,27.140456 26.997745,27.140456 C 18.528582,18.264221 13.291696,25.230495 11.500037,31.436501 z"
             style="fill:#404040;"/>
          </a>
         </g>
        </svg>
</svg>
