<?xml version="1.0" encoding="UTF-8" standalone="no"?>
<!DOCTYPE svg PUBLIC "-//W3C//DTD SVG 1.1//EN"
 "http://www.w3.org/Graphics/SVG/1.1/DTD/svg11.dtd">
<!-- Generated by graphviz version 2.26.3 (20100126.1600)
 -->
<!-- Title: Mezzanine::Resource::DataStream Pages: 1 -->
<svg width="272pt" height="140pt"
 viewBox="0.00 0.00 272.00 140.00" xmlns="http://www.w3.org/2000/svg" xmlns:xlink="http://www.w3.org/1999/xlink">
<g id="graph1" class="graph" transform="scale(1 1) rotate(0) translate(4 136)">
<title>Mezzanine::Resource::DataStream</title>
<!-- Node1 -->
<g id="node1" class="node"><title>Node1</title>
<polygon fill="#bfbfbf" stroke="black" points="0.5,-50 0.5,-82 107.5,-82 107.5,-50 0.5,-50"/>
<text text-anchor="start" x="8.5" y="-69" font-family="FreeSans" font-size="10.00">Mezzanine::Resource</text>
<text text-anchor="middle" x="54" y="-57" font-family="FreeSans" font-size="10.00">::DataStream</text>
</g>
<!-- Node2 -->
<g id="node3" class="node"><title>Node2</title>
<a xlink:href="classMezzanine_1_1Resource_1_1FileHandleDataStream.xhtml" target="_top" xlink:title="This represents a stream to a file on disk using the C file API.">
<polygon fill="none" stroke="black" points="144.5,-100 144.5,-132 263.5,-132 263.5,-100 144.5,-100"/>
<text text-anchor="start" x="152.5" y="-119" font-family="FreeSans" font-size="10.00">Mezzanine::Resource</text>
<text text-anchor="middle" x="204" y="-107" font-family="FreeSans" font-size="10.00">::FileHandleDataStream</text>
</a>
</g>
<!-- Node1&#45;&gt;Node2 -->
<g id="edge2" class="edge"><title>Node1&#45;&gt;Node2</title>
<path fill="none" stroke="midnightblue" d="M112.119,-85.373C126.565,-90.1884 141.893,-95.2976 155.804,-99.9346"/>
<polygon fill="midnightblue" stroke="midnightblue" points="112.88,-81.9375 102.287,-82.0955 110.667,-88.5783 112.88,-81.9375"/>
</g>
<!-- Node3 -->
<g id="node5" class="node"><title>Node3</title>
<a xlink:href="classMezzanine_1_1Resource_1_1FileStreamDataStream.xhtml" target="_top" xlink:title="This represents a stream to a file on disk using the C++ file stream API.">
<polygon fill="none" stroke="black" points="144,-50 144,-82 264,-82 264,-50 144,-50"/>
<text text-anchor="start" x="152" y="-69" font-family="FreeSans" font-size="10.00">Mezzanine::Resource</text>
<text text-anchor="middle" x="204" y="-57" font-family="FreeSans" font-size="10.00">::FileStreamDataStream</text>
</a>
</g>
<!-- Node1&#45;&gt;Node3 -->
<g id="edge4" class="edge"><title>Node1&#45;&gt;Node3</title>
<path fill="none" stroke="midnightblue" d="M117.739,-66C126.369,-66 135.202,-66 143.768,-66"/>
<polygon fill="midnightblue" stroke="midnightblue" points="117.73,-62.5001 107.73,-66 117.73,-69.5001 117.73,-62.5001"/>
</g>
<!-- Node4 -->
<g id="node7" class="node"><title>Node4</title>
<a xlink:href="classMezzanine_1_1Resource_1_1MemoryDataStream.xhtml" target="_top" xlink:title="This represents a stream to a buffer in memory.">
<polygon fill="none" stroke="black" points="150.5,-0 150.5,-32 257.5,-32 257.5,-0 150.5,-0"/>
<text text-anchor="start" x="158.5" y="-19" font-family="FreeSans" font-size="10.00">Mezzanine::Resource</text>
<text text-anchor="middle" x="204" y="-7" font-family="FreeSans" font-size="10.00">::MemoryDataStream</text>
</a>
</g>
<!-- Node1&#45;&gt;Node4 -->
<g id="edge6" class="edge"><title>Node1&#45;&gt;Node4</title>
<path fill="none" stroke="midnightblue" d="M112.119,-46.627C126.565,-41.8116 141.893,-36.7024 155.804,-32.0654"/>
<polygon fill="midnightblue" stroke="midnightblue" points="110.667,-43.4217 102.287,-49.9045 112.88,-50.0625 110.667,-43.4217"/>
</g>
</g>
</svg>
