<?xml version="1.0" encoding="UTF-8" standalone="no"?>
<!DOCTYPE svg PUBLIC "-//W3C//DTD SVG 1.1//EN"
 "http://www.w3.org/Graphics/SVG/1.1/DTD/svg11.dtd">
<!-- Generated by graphviz version 2.26.3 (20100126.1600)
 -->
<!-- Title: Mezzanine::ActorRigidPhysicsSettings Pages: 1 -->
<svg width="160pt" height="252pt"
 viewBox="0.00 0.00 160.00 252.00" xmlns="http://www.w3.org/2000/svg" xmlns:xlink="http://www.w3.org/1999/xlink">
<g id="graph1" class="graph" transform="scale(1 1) rotate(0) translate(4 248)">
<title>Mezzanine::ActorRigidPhysicsSettings</title>
<!-- Node1 -->
<g id="node1" class="node"><title>Node1</title>
<polygon fill="#bfbfbf" stroke="black" points="3.5,-1 3.5,-33 148.5,-33 148.5,-1 3.5,-1"/>
<text text-anchor="start" x="11.5" y="-20" font-family="FreeSans" font-size="10.00">Mezzanine::ActorRigidPhysics</text>
<text text-anchor="middle" x="76" y="-8" font-family="FreeSans" font-size="10.00">Settings</text>
</g>
<!-- Node2 -->
<g id="node2" class="node"><title>Node2</title>
<a xlink:href="classMezzanine_1_1ActorBasePhysicsSettings.xhtml" target="_top" xlink:title="This is a base helper class for configuring physics settings of an actor.">
<polygon fill="none" stroke="black" points="3.5,-71 3.5,-103 148.5,-103 148.5,-71 3.5,-71"/>
<text text-anchor="start" x="11.5" y="-90" font-family="FreeSans" font-size="10.00">Mezzanine::ActorBasePhysics</text>
<text text-anchor="middle" x="76" y="-78" font-family="FreeSans" font-size="10.00">Settings</text>
</a>
</g>
<!-- Node2&#45;&gt;Node1 -->
<g id="edge2" class="edge"><title>Node2&#45;&gt;Node1</title>
<path fill="none" stroke="midnightblue" d="M76,-60.5079C76,-51.3027 76,-41.2615 76,-33.1473"/>
<polygon fill="midnightblue" stroke="midnightblue" points="72.5001,-60.7646 76,-70.7646 79.5001,-60.7647 72.5001,-60.7646"/>
</g>
<!-- Node3 -->
<g id="node4" class="node"><title>Node3</title>
<a xlink:href="classMezzanine_1_1NonTriggerPhysicsSettings.xhtml" target="_top" xlink:title="This is an extension of the basic WorldObjectPhysicsSettings class for non&#45;trigger objects(I...">
<polygon fill="none" stroke="black" points="2.5,-141 2.5,-173 149.5,-173 149.5,-141 2.5,-141"/>
<text text-anchor="start" x="10.5" y="-160" font-family="FreeSans" font-size="10.00">Mezzanine::NonTriggerPhysics</text>
<text text-anchor="middle" x="76" y="-148" font-family="FreeSans" font-size="10.00">Settings</text>
</a>
</g>
<!-- Node3&#45;&gt;Node2 -->
<g id="edge4" class="edge"><title>Node3&#45;&gt;Node2</title>
<path fill="none" stroke="midnightblue" d="M76,-130.508C76,-121.303 76,-111.262 76,-103.147"/>
<polygon fill="midnightblue" stroke="midnightblue" points="72.5001,-130.765 76,-140.765 79.5001,-130.765 72.5001,-130.765"/>
</g>
<!-- Node4 -->
<g id="node6" class="node"><title>Node4</title>
<a xlink:href="classMezzanine_1_1WorldObjectPhysicsSettings.xhtml" target="_top" xlink:title="This is a base helper class for configuring physics settings of a world object.">
<polygon fill="none" stroke="black" points="-0.5,-211 -0.5,-243 152.5,-243 152.5,-211 -0.5,-211"/>
<text text-anchor="start" x="7.5" y="-230" font-family="FreeSans" font-size="10.00">Mezzanine::WorldObjectPhysics</text>
<text text-anchor="middle" x="76" y="-218" font-family="FreeSans" font-size="10.00">Settings</text>
</a>
</g>
<!-- Node4&#45;&gt;Node3 -->
<g id="edge6" class="edge"><title>Node4&#45;&gt;Node3</title>
<path fill="none" stroke="midnightblue" d="M76,-200.508C76,-191.303 76,-181.262 76,-173.147"/>
<polygon fill="midnightblue" stroke="midnightblue" points="72.5001,-200.765 76,-210.765 79.5001,-200.765 72.5001,-200.765"/>
</g>
</g>
</svg>
