<?xml version="1.0" encoding="UTF-8" standalone="no"?>
<!DOCTYPE svg PUBLIC "-//W3C//DTD SVG 1.1//EN"
 "http://www.w3.org/Graphics/SVG/1.1/DTD/svg11.dtd">
<!-- Generated by graphviz version 2.26.3 (20100126.1600)
 -->
<!-- Title: Mezzanine::TerrainManager Pages: 1 -->
<!--zoomable 592 -->
<svg id="main" version="1.1" xmlns="http://www.w3.org/2000/svg" xmlns:xlink="http://www.w3.org/1999/xlink" xml:space="preserve" onload="init(evt)">
        <defs>
                <circle id="rim" cx="0" cy="0" r="7"/>
                <circle id="rim2" cx="0" cy="0" r="3.5"/>
                <g id="zoomPlus">
                        <use xlink:href="#rim" fill="#404040">
                                <set attributeName="fill" to="#808080" begin="zoomplus.mouseover" end="zoomplus.mouseout"/>
                        </use>
                        <path d="M-4,0h8M0,-4v8" fill="none" stroke="white" stroke-width="1.5" pointer-events="none"/>
                </g>
                <g id="zoomMin">
                        <use xlink:href="#rim" fill="#404040">
                                <set attributeName="fill" to="#808080" begin="zoomminus.mouseover" end="zoomminus.mouseout"/>
                        </use>
                        <path d="M-4,0h8" fill="none" stroke="white" stroke-width="1.5" pointer-events="none"/>
                </g>
                <g id="dirArrow">
                        <path fill="none" stroke="white" stroke-width="1.5" d="M0,-3.0v7 M-2.5,-0.5L0,-3.0L2.5,-0.5"/>
                </g>
               <g id="resetDef">
                       <use xlink:href="#rim2" fill="#404040">
                               <set attributeName="fill" to="#808080" begin="reset.mouseover" end="reset.mouseout"/>
                       </use>
               </g>
        </defs>

<script type="text/javascript">
var viewWidth = 1912;
var viewHeight = 592;
var sectionId = 'dynsection-1';
</script>
<script xlink:href="svgpan.js"/>
<svg id="graph" class="graph">
<g id="viewport">
<title>Mezzanine::TerrainManager</title>
<polygon fill="white" stroke="white" points="-4,5 -4,-587.511 1909,-587.511 1909,5 -4,5"/>
<!-- Node1 -->
<g id="node1" class="node"><title>Node1</title>
<polygon fill="#bfbfbf" stroke="black" points="1770,-556.511 1770,-576.511 1904,-576.511 1904,-556.511 1770,-556.511"/>
<text text-anchor="middle" x="1837" y="-563.511" font-family="FreeSans" font-size="10.00">Mezzanine::TerrainManager</text>
</g>
<!-- Node2 -->
<g id="node2" class="node"><title>Node2</title>
<a xlink:href="classMezzanine_1_1WorldManager.xhtml" target="_top" xlink:title="This is the base class for all managers that belong to a single world instance.">
<polygon fill="white" stroke="black" points="358.5,-535.511 358.5,-555.511 487.5,-555.511 487.5,-535.511 358.5,-535.511"/>
<text text-anchor="middle" x="423" y="-542.511" font-family="FreeSans" font-size="10.00">Mezzanine::WorldManager</text>
</a>
</g>
<!-- Node2&#45;&gt;Node1 -->
<g id="edge2" class="edge"><title>Node2&#45;&gt;Node1</title>
<path fill="none" stroke="midnightblue" d="M467.897,-558.112C511.308,-569.173 579.125,-583.511 639,-583.511 639,-583.511 639,-583.511 1629,-583.511 1676.1,-583.511 1729,-579.127 1769.67,-574.812"/>
<polygon fill="midnightblue" stroke="midnightblue" points="468.771,-554.723 458.212,-555.595 467.01,-561.498 468.771,-554.723"/>
</g>
<!-- Node7 -->
<g id="node13" class="node"><title>Node7</title>
<polygon fill="white" stroke="#bfbfbf" points="566.5,-535.511 566.5,-555.511 711.5,-555.511 711.5,-535.511 566.5,-535.511"/>
<text text-anchor="middle" x="639" y="-542.511" font-family="FreeSans" font-size="10.00">std::vector&lt; WorldManager * &gt;</text>
</g>
<!-- Node2&#45;&gt;Node7 -->
<g id="edge16" class="edge"><title>Node2&#45;&gt;Node7</title>
<path fill="none" stroke="#9a32cd" stroke-dasharray="5,2" d="M497.6,-545.511C519.909,-545.511 544.326,-545.511 566.498,-545.511"/>
<polygon fill="#9a32cd" stroke="#9a32cd" points="497.515,-542.011 487.515,-545.511 497.515,-549.011 497.515,-542.011"/>
<text text-anchor="middle" x="527" y="-548.511" font-family="FreeSans" font-size="10.00"> elements</text>
</g>
<!-- Node3 -->
<g id="node4" class="node"><title>Node3</title>
<a xlink:href="classMezzanine_1_1ManagerBase.xhtml" target="_top" xlink:title="This is the base class from which all the Entresol and World Managers inherit.">
<polygon fill="white" stroke="black" points="194,-535.511 194,-555.511 320,-555.511 320,-535.511 194,-535.511"/>
<text text-anchor="middle" x="257" y="-542.511" font-family="FreeSans" font-size="10.00">Mezzanine::ManagerBase</text>
</a>
</g>
<!-- Node3&#45;&gt;Node2 -->
<g id="edge4" class="edge"><title>Node3&#45;&gt;Node2</title>
<path fill="none" stroke="midnightblue" d="M330.272,-545.511C339.606,-545.511 349.107,-545.511 358.293,-545.511"/>
<polygon fill="midnightblue" stroke="midnightblue" points="330.231,-542.011 320.231,-545.511 330.231,-549.011 330.231,-542.011"/>
</g>
<!-- Node4 -->
<g id="node6" class="node"><title>Node4</title>
<a xlink:href="classMezzanine_1_1Entresol.xhtml" target="_top" xlink:title="This is the main entry point for the entire library.">
<polygon fill="white" stroke="black" points="0.5,-502.511 0.5,-522.511 101.5,-522.511 101.5,-502.511 0.5,-502.511"/>
<text text-anchor="middle" x="51" y="-509.511" font-family="FreeSans" font-size="10.00">Mezzanine::Entresol</text>
</a>
</g>
<!-- Node4&#45;&gt;Node3 -->
<g id="edge6" class="edge"><title>Node4&#45;&gt;Node3</title>
<path fill="none" stroke="#9a32cd" stroke-dasharray="5,2" d="M111.769,-522.246C137.788,-526.414 168.155,-531.279 194.376,-535.479"/>
<polygon fill="#9a32cd" stroke="#9a32cd" points="112.085,-518.752 101.657,-520.626 110.978,-525.664 112.085,-518.752"/>
<text text-anchor="middle" x="148" y="-534.511" font-family="FreeSans" font-size="10.00"> TheEntresol</text>
</g>
<!-- Node5 -->
<g id="node8" class="node"><title>Node5</title>
<a xlink:href="classMezzanine_1_1Singleton.xhtml" target="_top" xlink:title="Mezzanine::Singleton\l\&lt; Entresol \&gt;">
<polygon fill="white" stroke="black" points="203.5,-477.511 203.5,-509.511 310.5,-509.511 310.5,-477.511 203.5,-477.511"/>
<text text-anchor="start" x="211.5" y="-496.511" font-family="FreeSans" font-size="10.00">Mezzanine::Singleton</text>
<text text-anchor="middle" x="257" y="-484.511" font-family="FreeSans" font-size="10.00">&lt; Entresol &gt;</text>
</a>
</g>
<!-- Node4&#45;&gt;Node5 -->
<g id="edge10" class="edge"><title>Node4&#45;&gt;Node5</title>
<path fill="none" stroke="#9a32cd" stroke-dasharray="5,2" d="M79.2171,-498.188C91.4259,-492.756 106.083,-487.227 120,-484.511 147.138,-479.215 177.811,-480.566 203.244,-483.628"/>
<polygon fill="#9a32cd" stroke="#9a32cd" points="77.6036,-495.078 70.0117,-502.468 80.5551,-501.426 77.6036,-495.078"/>
<text text-anchor="middle" x="148" y="-487.511" font-family="FreeSans" font-size="10.00"> SingletonPtr</text>
</g>
<!-- Node5&#45;&gt;Node4 -->
<g id="edge8" class="edge"><title>Node5&#45;&gt;Node4</title>
<path fill="none" stroke="midnightblue" d="M193.115,-499.404C163.688,-502.118 129.258,-505.293 101.657,-507.839"/>
<polygon fill="midnightblue" stroke="midnightblue" points="193.659,-502.868 203.296,-498.465 193.016,-495.898 193.659,-502.868"/>
</g>
<!-- Node6 -->
<g id="node11" class="node"><title>Node6</title>
<a xlink:href="classMezzanine_1_1World.xhtml" target="_top" xlink:title="This class represents a world for objects to interact within.">
<polygon fill="white" stroke="black" points="842,-504.511 842,-524.511 934,-524.511 934,-504.511 842,-504.511"/>
<text text-anchor="middle" x="888" y="-511.511" font-family="FreeSans" font-size="10.00">Mezzanine::World</text>
</a>
</g>
<!-- Node6&#45;&gt;Node2 -->
<g id="edge12" class="edge"><title>Node6&#45;&gt;Node2</title>
<path fill="none" stroke="#9a32cd" stroke-dasharray="5,2" d="M831.638,-510.888C767.205,-507.585 658.67,-504.582 566,-514.511 529.123,-518.463 487.797,-527.99 459.091,-535.448"/>
<polygon fill="#9a32cd" stroke="#9a32cd" points="831.806,-514.402 841.978,-511.44 832.179,-507.412 831.806,-514.402"/>
<text text-anchor="middle" x="639" y="-517.511" font-family="FreeSans" font-size="10.00"> ParentWorld</text>
</g>
<!-- Node10 -->
<g id="node20" class="node"><title>Node10</title>
<a xlink:href="classMezzanine_1_1WorldObject.xhtml" target="_top" xlink:title="This is the base class from which classes that are insertable into the physical world.">
<polygon fill="white" stroke="black" points="1063,-434.511 1063,-454.511 1183,-454.511 1183,-434.511 1063,-434.511"/>
<text text-anchor="middle" x="1123" y="-441.511" font-family="FreeSans" font-size="10.00">Mezzanine::WorldObject</text>
</a>
</g>
<!-- Node6&#45;&gt;Node10 -->
<g id="edge24" class="edge"><title>Node6&#45;&gt;Node10</title>
<path fill="none" stroke="#9a32cd" stroke-dasharray="5,2" d="M944.372,-510.295C971.379,-507.173 1003.89,-501.78 1032,-492.511 1060.16,-483.227 1090.06,-465.8 1107.61,-454.695"/>
<polygon fill="#9a32cd" stroke="#9a32cd" points="943.876,-506.828 934.311,-511.384 944.63,-513.788 943.876,-506.828"/>
<text text-anchor="middle" x="1004" y="-508.511" font-family="FreeSans" font-size="10.00"> ParentWorld</text>
</g>
<!-- Node7&#45;&gt;Node6 -->
<g id="edge14" class="edge"><title>Node7&#45;&gt;Node6</title>
<path fill="none" stroke="#9a32cd" stroke-dasharray="5,2" d="M721.712,-535.214C761.729,-530.232 808.261,-524.438 841.909,-520.249"/>
<polygon fill="#9a32cd" stroke="#9a32cd" points="721.181,-531.753 711.69,-536.461 722.046,-538.699 721.181,-531.753"/>
<text text-anchor="middle" x="765" y="-536.511" font-family="FreeSans" font-size="10.00"> WorldManagers</text>
</g>
<!-- Node8 -->
<g id="node16" class="node"><title>Node8</title>
<polygon fill="white" stroke="#bfbfbf" points="1562,-534.511 1562,-554.511 1696,-554.511 1696,-534.511 1562,-534.511"/>
<text text-anchor="middle" x="1629" y="-541.511" font-family="FreeSans" font-size="10.00">std::vector&lt; TerrainBase * &gt;</text>
</g>
<!-- Node8&#45;&gt;Node1 -->
<g id="edge18" class="edge"><title>Node8&#45;&gt;Node1</title>
<path fill="none" stroke="#9a32cd" stroke-dasharray="5,2" d="M1706.38,-552.688C1721.51,-554.287 1737.25,-555.951 1752,-557.511 1757.76,-558.12 1763.73,-558.752 1769.72,-559.387"/>
<polygon fill="#9a32cd" stroke="#9a32cd" points="1706.34,-549.164 1696.03,-551.593 1705.61,-556.125 1706.34,-549.164"/>
<text text-anchor="middle" x="1733" y="-560.511" font-family="FreeSans" font-size="10.00"> Terrains</text>
</g>
<!-- Node9 -->
<g id="node18" class="node"><title>Node9</title>
<a xlink:href="classMezzanine_1_1TerrainBase.xhtml" target="_top" xlink:title="This is the base class from which all the terrains inherit.">
<polygon fill="white" stroke="black" points="1345.5,-532.511 1345.5,-552.511 1464.5,-552.511 1464.5,-532.511 1345.5,-532.511"/>
<text text-anchor="middle" x="1405" y="-539.511" font-family="FreeSans" font-size="10.00">Mezzanine::TerrainBase</text>
</a>
</g>
<!-- Node9&#45;&gt;Node8 -->
<g id="edge20" class="edge"><title>Node9&#45;&gt;Node8</title>
<path fill="none" stroke="#9a32cd" stroke-dasharray="5,2" d="M1474.77,-543.134C1502.56,-543.382 1534.41,-543.667 1561.93,-543.912"/>
<polygon fill="#9a32cd" stroke="#9a32cd" points="1474.76,-539.634 1464.73,-543.045 1474.7,-546.634 1474.76,-539.634"/>
<text text-anchor="middle" x="1523" y="-546.511" font-family="FreeSans" font-size="10.00"> elements</text>
</g>
<!-- Node10&#45;&gt;Node9 -->
<g id="edge22" class="edge"><title>Node10&#45;&gt;Node9</title>
<path fill="none" stroke="midnightblue" d="M1149.58,-459.66C1163.69,-468.004 1181.13,-478.814 1196,-489.511 1204.45,-495.592 1204.6,-500.023 1214,-504.511 1255.34,-524.255 1306.43,-533.744 1345.36,-538.302"/>
<polygon fill="midnightblue" stroke="midnightblue" points="1151.26,-456.585 1140.86,-454.56 1147.73,-462.628 1151.26,-456.585"/>
</g>
<!-- Node11 -->
<g id="node23" class="node"><title>Node11</title>
<a xlink:href="classMezzanine_1_1WorldObjectPhysicsSettings.xhtml" target="_top" xlink:title="This is a base helper class for configuring physics settings of a world object.">
<polygon fill="white" stroke="black" points="1328.5,-480.511 1328.5,-512.511 1481.5,-512.511 1481.5,-480.511 1328.5,-480.511"/>
<text text-anchor="start" x="1336.5" y="-499.511" font-family="FreeSans" font-size="10.00">Mezzanine::WorldObjectPhysics</text>
<text text-anchor="middle" x="1405" y="-487.511" font-family="FreeSans" font-size="10.00">Settings</text>
</a>
</g>
<!-- Node10&#45;&gt;Node11 -->
<g id="edge28" class="edge"><title>Node10&#45;&gt;Node11</title>
<path fill="none" stroke="#9a32cd" stroke-dasharray="5,2" d="M1193.3,-445.535C1228.16,-447.222 1270.67,-451.06 1308,-459.511 1329.09,-464.287 1351.73,-472.716 1369.82,-480.323"/>
<polygon fill="#9a32cd" stroke="#9a32cd" points="1193.36,-442.035 1183.22,-445.096 1193.06,-449.028 1193.36,-442.035"/>
<text text-anchor="middle" x="1261" y="-462.511" font-family="FreeSans" font-size="10.00"> Parent</text>
</g>
<!-- Node16 -->
<g id="node35" class="node"><title>Node16</title>
<a xlink:href="classMezzanine_1_1Physics_1_1Collision.xhtml" target="_top" xlink:title="This is an event class used to track collsions in the physics world.">
<polygon fill="white" stroke="black" points="1355,-332.511 1355,-364.511 1455,-364.511 1455,-332.511 1355,-332.511"/>
<text text-anchor="start" x="1363" y="-351.511" font-family="FreeSans" font-size="10.00">Mezzanine::Physics</text>
<text text-anchor="middle" x="1405" y="-339.511" font-family="FreeSans" font-size="10.00">::Collision</text>
</a>
</g>
<!-- Node10&#45;&gt;Node16 -->
<g id="edge44" class="edge"><title>Node10&#45;&gt;Node16</title>
<path fill="none" stroke="#9a32cd" stroke-dasharray="5,2" d="M1145.29,-428.529C1163.1,-416.454 1189.12,-400.334 1214,-390.511 1227.03,-385.368 1302.61,-369.407 1354.69,-358.71"/>
<polygon fill="#9a32cd" stroke="#9a32cd" points="1143,-425.853 1136.77,-434.42 1146.99,-431.61 1143,-425.853"/>
<text text-anchor="middle" x="1261" y="-405.511" font-family="FreeSans" font-size="10.00"> ObjectA</text>
<text text-anchor="middle" x="1261" y="-393.511" font-family="FreeSans" font-size="10.00">ObjectB</text>
</g>
<!-- Node19 -->
<g id="node42" class="node"><title>Node19</title>
<a xlink:href="classMezzanine_1_1WorldObjectGraphicsSettings.xhtml" target="_top" xlink:title="This is a helper class for configuring graphics settings of a World Object.">
<polygon fill="white" stroke="black" points="1326,-215.511 1326,-247.511 1484,-247.511 1484,-215.511 1326,-215.511"/>
<text text-anchor="start" x="1334" y="-234.511" font-family="FreeSans" font-size="10.00">Mezzanine::WorldObjectGraphics</text>
<text text-anchor="middle" x="1405" y="-222.511" font-family="FreeSans" font-size="10.00">Settings</text>
</a>
</g>
<!-- Node10&#45;&gt;Node19 -->
<g id="edge50" class="edge"><title>Node10&#45;&gt;Node19</title>
<path fill="none" stroke="#9a32cd" stroke-dasharray="5,2" d="M1139.38,-426.757C1156.03,-407.777 1181.38,-376.123 1196,-344.511 1210.39,-313.396 1189.29,-293.272 1214,-269.511 1243.37,-241.273 1287.41,-231.199 1325.8,-228.446"/>
<polygon fill="#9a32cd" stroke="#9a32cd" points="1136.68,-424.523 1132.63,-434.31 1141.9,-429.189 1136.68,-424.523"/>
<text text-anchor="middle" x="1261" y="-272.511" font-family="FreeSans" font-size="10.00"> Parent</text>
</g>
<!-- Node11&#45;&gt;Node10 -->
<g id="edge26" class="edge"><title>Node11&#45;&gt;Node10</title>
<path fill="none" stroke="#9a32cd" stroke-dasharray="5,2" d="M1318.16,-490.276C1285.28,-486.933 1247.68,-481.921 1214,-474.511 1191.58,-469.578 1166.89,-461.246 1148.89,-454.613"/>
<polygon fill="#9a32cd" stroke="#9a32cd" points="1317.9,-493.768 1328.2,-491.261 1318.59,-486.801 1317.9,-493.768"/>
<text text-anchor="middle" x="1261" y="-491.511" font-family="FreeSans" font-size="10.00"> PhysicsSettings</text>
</g>
<!-- Node12 -->
<g id="node26" class="node"><title>Node12</title>
<a xlink:href="classMezzanine_1_1Physics_1_1CollisionShape.xhtml" target="_top" xlink:title="This is the base class for all collision shapes.">
<polygon fill="white" stroke="black" points="1073,-498.511 1073,-530.511 1173,-530.511 1173,-498.511 1073,-498.511"/>
<text text-anchor="start" x="1081" y="-517.511" font-family="FreeSans" font-size="10.00">Mezzanine::Physics</text>
<text text-anchor="middle" x="1123" y="-505.511" font-family="FreeSans" font-size="10.00">::CollisionShape</text>
</a>
</g>
<!-- Node12&#45;&gt;Node11 -->
<g id="edge30" class="edge"><title>Node12&#45;&gt;Node11</title>
<path fill="none" stroke="#9a32cd" stroke-dasharray="5,2" d="M1183.74,-516.183C1219.89,-516.599 1266.65,-516.124 1308,-512.511 1314.63,-511.932 1321.49,-511.158 1328.36,-510.262"/>
<polygon fill="#9a32cd" stroke="#9a32cd" points="1183.4,-512.678 1173.35,-516.036 1183.3,-519.677 1183.4,-512.678"/>
<text text-anchor="middle" x="1261" y="-518.511" font-family="FreeSans" font-size="10.00"> WorldObjectShape</text>
</g>
<!-- Node13 -->
<g id="node28" class="node"><title>Node13</title>
<a xlink:title="STL class.">
<polygon fill="white" stroke="#bfbfbf" points="859.5,-438.511 859.5,-458.511 916.5,-458.511 916.5,-438.511 859.5,-438.511"/>
<text text-anchor="middle" x="888" y="-445.511" font-family="FreeSans" font-size="10.00">std::string</text>
</a>
</g>
<!-- Node13&#45;&gt;Node10 -->
<g id="edge36" class="edge"><title>Node13&#45;&gt;Node10</title>
<path fill="none" stroke="#9a32cd" stroke-dasharray="5,2" d="M926.709,-446.963C942.054,-446.41 959.857,-445.841 976,-445.511 1004.58,-444.927 1036.29,-444.663 1062.92,-444.55"/>
<polygon fill="#9a32cd" stroke="#9a32cd" points="926.393,-443.473 916.529,-447.342 926.653,-450.468 926.393,-443.473"/>
<text text-anchor="middle" x="1004" y="-448.511" font-family="FreeSans" font-size="10.00"> Name</text>
</g>
<!-- Node13&#45;&gt;Node12 -->
<g id="edge32" class="edge"><title>Node13&#45;&gt;Node12</title>
<path fill="none" stroke="#9a32cd" stroke-dasharray="5,2" d="M926.911,-455.636C956.102,-461.346 996.901,-470.109 1032,-480.511 1049.14,-485.591 1067.69,-492.293 1083.54,-498.404"/>
<polygon fill="#9a32cd" stroke="#9a32cd" points="927.196,-452.126 916.714,-453.672 925.872,-459 927.196,-452.126"/>
<text text-anchor="middle" x="1004" y="-483.511" font-family="FreeSans" font-size="10.00"> Name</text>
</g>
<!-- Node14 -->
<g id="node30" class="node"><title>Node14</title>
<a xlink:title="STL class.">
<polygon fill="white" stroke="#bfbfbf" points="593.5,-432.511 593.5,-464.511 684.5,-464.511 684.5,-432.511 593.5,-432.511"/>
<text text-anchor="start" x="601.5" y="-451.511" font-family="FreeSans" font-size="10.00">std::basic_string&lt;</text>
<text text-anchor="middle" x="639" y="-439.511" font-family="FreeSans" font-size="10.00"> char &gt;</text>
</a>
</g>
<!-- Node14&#45;&gt;Node13 -->
<g id="edge34" class="edge"><title>Node14&#45;&gt;Node13</title>
<path fill="none" stroke="midnightblue" d="M694.88,-448.511C745.906,-448.511 819.296,-448.511 859.311,-448.511"/>
<polygon fill="midnightblue" stroke="midnightblue" points="694.67,-445.011 684.67,-448.511 694.67,-452.011 694.67,-445.011"/>
</g>
<!-- Node15 -->
<g id="node33" class="node"><title>Node15</title>
<polygon fill="white" stroke="#bfbfbf" points="1583,-386.511 1583,-418.511 1675,-418.511 1675,-386.511 1583,-386.511"/>
<text text-anchor="start" x="1591" y="-405.511" font-family="FreeSans" font-size="10.00">std::set&lt; Physics::</text>
<text text-anchor="middle" x="1629" y="-393.511" font-family="FreeSans" font-size="10.00">Collision * &gt;</text>
</g>
<!-- Node15&#45;&gt;Node10 -->
<g id="edge38" class="edge"><title>Node15&#45;&gt;Node10</title>
<path fill="none" stroke="#9a32cd" stroke-dasharray="5,2" d="M1572.74,-407.181C1476.64,-415.158 1281.67,-431.341 1183.03,-439.528"/>
<polygon fill="#9a32cd" stroke="#9a32cd" points="1573.17,-410.657 1582.85,-406.342 1572.59,-403.681 1573.17,-410.657"/>
<text text-anchor="middle" x="1405" y="-430.511" font-family="FreeSans" font-size="10.00"> CurrentCollisions</text>
</g>
<!-- Node16&#45;&gt;Node15 -->
<g id="edge40" class="edge"><title>Node16&#45;&gt;Node15</title>
<path fill="none" stroke="#9a32cd" stroke-dasharray="5,2" d="M1465.4,-363.073C1502.3,-371.966 1548.74,-383.164 1582.71,-391.353"/>
<polygon fill="#9a32cd" stroke="#9a32cd" points="1465.81,-359.571 1455.27,-360.63 1464.17,-366.376 1465.81,-359.571"/>
<text text-anchor="middle" x="1523" y="-385.511" font-family="FreeSans" font-size="10.00"> keys</text>
</g>
<!-- Node17 -->
<g id="node37" class="node"><title>Node17</title>
<polygon fill="white" stroke="#bfbfbf" points="1075,-315.511 1075,-335.511 1171,-335.511 1171,-315.511 1075,-315.511"/>
<text text-anchor="middle" x="1123" y="-322.511" font-family="FreeSans" font-size="10.00">std::vector&lt; Real &gt;</text>
</g>
<!-- Node17&#45;&gt;Node16 -->
<g id="edge42" class="edge"><title>Node17&#45;&gt;Node16</title>
<path fill="none" stroke="#9a32cd" stroke-dasharray="5,2" d="M1181.16,-318.983C1217.74,-316.099 1265.84,-314.547 1308,-320.511 1325.01,-322.917 1343.21,-327.584 1359.2,-332.429"/>
<polygon fill="#9a32cd" stroke="#9a32cd" points="1180.83,-315.498 1171.16,-319.826 1181.42,-322.473 1180.83,-315.498"/>
<text text-anchor="middle" x="1261" y="-323.511" font-family="FreeSans" font-size="10.00"> PenetrationDistances</text>
</g>
<!-- Node18 -->
<g id="node40" class="node"><title>Node18</title>
<a xlink:href="structMezzanine_1_1Physics_1_1CollisionInternalData.xhtml" target="_top" xlink:title="Used to insulate the interface from the implementation details for bullet.">
<polygon fill="white" stroke="black" points="1068,-265.511 1068,-297.511 1178,-297.511 1178,-265.511 1068,-265.511"/>
<text text-anchor="start" x="1076" y="-284.511" font-family="FreeSans" font-size="10.00">Mezzanine::Physics</text>
<text text-anchor="middle" x="1123" y="-272.511" font-family="FreeSans" font-size="10.00">::CollisionInternalData</text>
</a>
</g>
<!-- Node18&#45;&gt;Node16 -->
<g id="edge46" class="edge"><title>Node18&#45;&gt;Node16</title>
<path fill="none" stroke="#9a32cd" stroke-dasharray="5,2" d="M1188.56,-282.57C1224.43,-284.553 1269.32,-289.349 1308,-300.511 1333.27,-307.804 1359.91,-321.476 1378.87,-332.369"/>
<polygon fill="#9a32cd" stroke="#9a32cd" points="1188.37,-279.056 1178.21,-282.061 1188.03,-286.048 1188.37,-279.056"/>
<text text-anchor="middle" x="1261" y="-303.511" font-family="FreeSans" font-size="10.00"> InternalData</text>
</g>
<!-- Node19&#45;&gt;Node10 -->
<g id="edge48" class="edge"><title>Node19&#45;&gt;Node10</title>
<path fill="none" stroke="#9a32cd" stroke-dasharray="5,2" d="M1388.19,-255.979C1370.84,-279.3 1341.63,-313.583 1308,-332.511 1270.7,-353.51 1251.51,-332.891 1214,-353.511 1176.21,-374.283 1143.68,-415.457 1129.96,-434.464"/>
<polygon fill="#9a32cd" stroke="#9a32cd" points="1391.21,-257.783 1394.24,-247.633 1385.54,-253.674 1391.21,-257.783"/>
<text text-anchor="middle" x="1261" y="-356.511" font-family="FreeSans" font-size="10.00"> GraphicsSettings</text>
</g>
<!-- Node20 -->
<g id="node45" class="node"><title>Node20</title>
<a xlink:href="classMezzanine_1_1Graphics_1_1Mesh.xhtml" target="_top" xlink:title="This class is used to check and modify the properties of a graphics mesh.">
<polygon fill="white" stroke="black" points="1070.5,-129.511 1070.5,-161.511 1175.5,-161.511 1175.5,-129.511 1070.5,-129.511"/>
<text text-anchor="start" x="1078.5" y="-148.511" font-family="FreeSans" font-size="10.00">Mezzanine::Graphics</text>
<text text-anchor="middle" x="1123" y="-136.511" font-family="FreeSans" font-size="10.00">::Mesh</text>
</a>
</g>
<!-- Node20&#45;&gt;Node19 -->
<g id="edge52" class="edge"><title>Node20&#45;&gt;Node19</title>
<path fill="none" stroke="#9a32cd" stroke-dasharray="5,2" d="M1185.69,-162.65C1221.62,-172.677 1267.49,-185.826 1308,-198.511 1324.81,-203.774 1343.12,-209.901 1359.26,-215.438"/>
<polygon fill="#9a32cd" stroke="#9a32cd" points="1186.41,-159.216 1175.83,-159.907 1184.53,-165.96 1186.41,-159.216"/>
<text text-anchor="middle" x="1261" y="-201.511" font-family="FreeSans" font-size="10.00"> WorldObjectMesh</text>
</g>
<!-- Node21 -->
<g id="node47" class="node"><title>Node21</title>
<a xlink:href="classMezzanine_1_1Graphics_1_1InternalMeshData.xhtml" target="_top" xlink:title="This class is used to store the internal structures needed by the Mesh class.">
<polygon fill="white" stroke="black" points="835.5,-161.511 835.5,-193.511 940.5,-193.511 940.5,-161.511 835.5,-161.511"/>
<text text-anchor="start" x="843.5" y="-180.511" font-family="FreeSans" font-size="10.00">Mezzanine::Graphics</text>
<text text-anchor="middle" x="888" y="-168.511" font-family="FreeSans" font-size="10.00">::InternalMeshData</text>
</a>
</g>
<!-- Node21&#45;&gt;Node20 -->
<g id="edge54" class="edge"><title>Node21&#45;&gt;Node20</title>
<path fill="none" stroke="#9a32cd" stroke-dasharray="5,2" d="M951.001,-168.932C988.335,-163.849 1035.1,-157.481 1070.44,-152.669"/>
<polygon fill="#9a32cd" stroke="#9a32cd" points="950.175,-165.512 940.739,-170.33 951.119,-172.448 950.175,-165.512"/>
<text text-anchor="middle" x="1004" y="-168.511" font-family="FreeSans" font-size="10.00"> IMD</text>
</g>
<!-- Node22 -->
<g id="node49" class="node"><title>Node22</title>
<a xlink:href="classMezzanine_1_1Graphics_1_1Skeleton.xhtml" target="_top" xlink:title="This class encapsulates the Skeletal animation functionality of a Mesh.">
<polygon fill="white" stroke="black" points="835.5,-11.5112 835.5,-43.5112 940.5,-43.5112 940.5,-11.5112 835.5,-11.5112"/>
<text text-anchor="start" x="843.5" y="-30.5112" font-family="FreeSans" font-size="10.00">Mezzanine::Graphics</text>
<text text-anchor="middle" x="888" y="-18.5112" font-family="FreeSans" font-size="10.00">::Skeleton</text>
</a>
</g>
<!-- Node22&#45;&gt;Node20 -->
<g id="edge56" class="edge"><title>Node22&#45;&gt;Node20</title>
<path fill="none" stroke="#9a32cd" stroke-dasharray="5,2" d="M929.29,-48.244C975.338,-71.3662 1048.85,-108.279 1090.83,-129.357"/>
<polygon fill="#9a32cd" stroke="#9a32cd" points="930.69,-45.0307 920.183,-43.6712 927.549,-51.2864 930.69,-45.0307"/>
<text text-anchor="middle" x="1004" y="-100.511" font-family="FreeSans" font-size="10.00"> MeshSkel</text>
</g>
<!-- Node24 -->
<g id="node53" class="node"><title>Node24</title>
<a xlink:href="classMezzanine_1_1Graphics_1_1Bone.xhtml" target="_top" xlink:title="This class encapsulates the bones contained in a skeleton used for animation.">
<polygon fill="white" stroke="black" points="1070.5,-24.5112 1070.5,-56.5112 1175.5,-56.5112 1175.5,-24.5112 1070.5,-24.5112"/>
<text text-anchor="start" x="1078.5" y="-43.5112" font-family="FreeSans" font-size="10.00">Mezzanine::Graphics</text>
<text text-anchor="middle" x="1123" y="-31.5112" font-family="FreeSans" font-size="10.00">::Bone</text>
</a>
</g>
<!-- Node22&#45;&gt;Node24 -->
<g id="edge64" class="edge"><title>Node22&#45;&gt;Node24</title>
<path fill="none" stroke="#9a32cd" stroke-dasharray="5,2" d="M950.902,-26.2568C976.138,-26.1946 1005.48,-26.6774 1032,-28.5112 1044.4,-29.3685 1057.69,-30.8174 1070.18,-32.4178"/>
<polygon fill="#9a32cd" stroke="#9a32cd" points="950.704,-22.7577 940.723,-26.3115 950.742,-29.7576 950.704,-22.7577"/>
<text text-anchor="middle" x="1004" y="-31.5112" font-family="FreeSans" font-size="10.00"> Host</text>
</g>
<!-- Node23 -->
<g id="node51" class="node"><title>Node23</title>
<polygon fill="white" stroke="#bfbfbf" points="1352.5,-4.51119 1352.5,-24.5112 1457.5,-24.5112 1457.5,-4.51119 1352.5,-4.51119"/>
<text text-anchor="middle" x="1405" y="-11.5112" font-family="FreeSans" font-size="10.00">std::vector&lt; Bone * &gt;</text>
</g>
<!-- Node23&#45;&gt;Node22 -->
<g id="edge58" class="edge"><title>Node23&#45;&gt;Node22</title>
<path fill="none" stroke="#9a32cd" stroke-dasharray="5,2" d="M1342.18,-8.60845C1271.16,-2.85527 1152.13,4.01307 1050,-3.51119 1013.28,-6.21642 972.256,-12.3262 940.678,-17.7038"/>
<polygon fill="#9a32cd" stroke="#9a32cd" points="1342.04,-12.1093 1352.3,-9.44734 1342.62,-5.13323 1342.04,-12.1093"/>
<text text-anchor="middle" x="1123" y="-6.51119" font-family="FreeSans" font-size="10.00"> Bones</text>
</g>
<!-- Node24&#45;&gt;Node23 -->
<g id="edge60" class="edge"><title>Node24&#45;&gt;Node23</title>
<path fill="none" stroke="#9a32cd" stroke-dasharray="5,2" d="M1185.75,-34.7256C1235.72,-30.1186 1304.87,-23.7428 1352.07,-19.3913"/>
<polygon fill="#9a32cd" stroke="#9a32cd" points="1185.35,-31.2479 1175.71,-35.6513 1185.99,-38.2183 1185.35,-31.2479"/>
<text text-anchor="middle" x="1261" y="-35.5112" font-family="FreeSans" font-size="10.00"> elements</text>
</g>
<!-- Node25 -->
<g id="node55" class="node"><title>Node25</title>
<a xlink:href="classMezzanine_1_1TransformableChildObject.xhtml" target="_top" xlink:title="This is an interface for all child 3D objects that can have their full transforms manipulated...">
<polygon fill="white" stroke="black" points="824,-73.5112 824,-105.511 952,-105.511 952,-73.5112 824,-73.5112"/>
<text text-anchor="start" x="832" y="-92.5112" font-family="FreeSans" font-size="10.00">Mezzanine::Transformable</text>
<text text-anchor="middle" x="888" y="-80.5112" font-family="FreeSans" font-size="10.00">ChildObject</text>
</a>
</g>
<!-- Node25&#45;&gt;Node24 -->
<g id="edge62" class="edge"><title>Node25&#45;&gt;Node24</title>
<path fill="none" stroke="midnightblue" d="M962.265,-86.1445C984.865,-84.0913 1009.64,-80.7959 1032,-75.5112 1050.94,-71.0346 1071.23,-63.5171 1087.83,-56.594"/>
<polygon fill="midnightblue" stroke="midnightblue" points="961.721,-82.6777 952.049,-87.0031 962.308,-89.6531 961.721,-82.6777"/>
</g>
<!-- Node26 -->
<g id="node58" class="node"><title>Node26</title>
<a xlink:href="classMezzanine_1_1Graphics_1_1InternalSkeletonData.xhtml" target="_top" xlink:title="This class is used to store the internal structures needed by the Skeleton class.">
<polygon fill="white" stroke="black" points="583,-11.5112 583,-43.5112 695,-43.5112 695,-11.5112 583,-11.5112"/>
<text text-anchor="start" x="591" y="-30.5112" font-family="FreeSans" font-size="10.00">Mezzanine::Graphics</text>
<text text-anchor="middle" x="639" y="-18.5112" font-family="FreeSans" font-size="10.00">::InternalSkeletonData</text>
</a>
</g>
<!-- Node26&#45;&gt;Node22 -->
<g id="edge66" class="edge"><title>Node26&#45;&gt;Node22</title>
<path fill="none" stroke="#9a32cd" stroke-dasharray="5,2" d="M705.302,-27.5112C746.038,-27.5112 797.5,-27.5112 835.418,-27.5112"/>
<polygon fill="#9a32cd" stroke="#9a32cd" points="705.191,-24.0113 695.191,-27.5112 705.191,-31.0113 705.191,-24.0113"/>
<text text-anchor="middle" x="765" y="-30.5112" font-family="FreeSans" font-size="10.00"> ISD</text>
</g>
<!-- Node27 -->
<g id="node60" class="node"><title>Node27</title>
<polygon fill="white" stroke="#bfbfbf" points="826.5,-123.511 826.5,-143.511 949.5,-143.511 949.5,-123.511 826.5,-123.511"/>
<text text-anchor="middle" x="888" y="-130.511" font-family="FreeSans" font-size="10.00">std::vector&lt; SubMesh * &gt;</text>
</g>
<!-- Node27&#45;&gt;Node20 -->
<g id="edge68" class="edge"><title>Node27&#45;&gt;Node20</title>
<path fill="none" stroke="#9a32cd" stroke-dasharray="5,2" d="M960.083,-137.192C995.702,-139.011 1037.9,-141.166 1070.43,-142.827"/>
<polygon fill="#9a32cd" stroke="#9a32cd" points="959.909,-133.679 949.743,-136.664 959.552,-140.67 959.909,-133.679"/>
<text text-anchor="middle" x="1004" y="-144.511" font-family="FreeSans" font-size="10.00"> SubMeshes</text>
</g>
<!-- Node28 -->
<g id="node62" class="node"><title>Node28</title>
<a xlink:href="classMezzanine_1_1Graphics_1_1SubMesh.xhtml" target="_top" xlink:title="This class represents a sub&#45;section of an overall mesh.">
<polygon fill="white" stroke="black" points="586.5,-117.511 586.5,-149.511 691.5,-149.511 691.5,-117.511 586.5,-117.511"/>
<text text-anchor="start" x="594.5" y="-136.511" font-family="FreeSans" font-size="10.00">Mezzanine::Graphics</text>
<text text-anchor="middle" x="639" y="-124.511" font-family="FreeSans" font-size="10.00">::SubMesh</text>
</a>
</g>
<!-- Node28&#45;&gt;Node27 -->
<g id="edge70" class="edge"><title>Node28&#45;&gt;Node27</title>
<path fill="none" stroke="#9a32cd" stroke-dasharray="5,2" d="M701.962,-133.511C740.075,-133.511 788.467,-133.511 826.342,-133.511"/>
<polygon fill="#9a32cd" stroke="#9a32cd" points="701.502,-130.011 691.502,-133.511 701.502,-137.011 701.502,-130.011"/>
<text text-anchor="middle" x="765" y="-136.511" font-family="FreeSans" font-size="10.00"> elements</text>
</g>
<!-- Node29 -->
<g id="node64" class="node"><title>Node29</title>
<a xlink:href="classMezzanine_1_1Internal_1_1InternalWorldObjectGraphicsSettings.xhtml" target="_top" xlink:title="Used to store internal data about an world objects.">
<polygon fill="white" stroke="black" points="1050.5,-196.511 1050.5,-240.511 1195.5,-240.511 1195.5,-196.511 1050.5,-196.511"/>
<text text-anchor="start" x="1058.5" y="-227.511" font-family="FreeSans" font-size="10.00">Mezzanine::Internal</text>
<text text-anchor="start" x="1058.5" y="-215.511" font-family="FreeSans" font-size="10.00">::InternalWorldObjectGraphics</text>
<text text-anchor="middle" x="1123" y="-203.511" font-family="FreeSans" font-size="10.00">Settings</text>
</a>
</g>
<!-- Node29&#45;&gt;Node19 -->
<g id="edge72" class="edge"><title>Node29&#45;&gt;Node19</title>
<path fill="none" stroke="#9a32cd" stroke-dasharray="5,2" d="M1205.72,-215.667C1208.51,-215.608 1211.28,-215.556 1214,-215.511 1255.77,-214.823 1266.36,-212.1 1308,-215.511 1313.87,-215.992 1319.92,-216.634 1325.99,-217.384"/>
<polygon fill="#9a32cd" stroke="#9a32cd" points="1205.43,-212.173 1195.51,-215.905 1205.59,-219.171 1205.43,-212.173"/>
<text text-anchor="middle" x="1261" y="-218.511" font-family="FreeSans" font-size="10.00"> IWOGS</text>
</g>
<!-- Node30 -->
<g id="node66" class="node"><title>Node30</title>
<polygon fill="white" stroke="#bfbfbf" points="818.5,-211.511 818.5,-243.511 957.5,-243.511 957.5,-211.511 818.5,-211.511"/>
<text text-anchor="start" x="826.5" y="-230.511" font-family="FreeSans" font-size="10.00">std::map&lt; Whole, Mezzanine</text>
<text text-anchor="middle" x="888" y="-218.511" font-family="FreeSans" font-size="10.00">::ColourValue &gt;</text>
</g>
<!-- Node30&#45;&gt;Node29 -->
<g id="edge74" class="edge"><title>Node30&#45;&gt;Node29</title>
<path fill="none" stroke="#9a32cd" stroke-dasharray="5,2" d="M967.66,-224.46C994.437,-223.435 1024.15,-222.297 1050.36,-221.293"/>
<polygon fill="#9a32cd" stroke="#9a32cd" points="967.413,-220.967 957.554,-224.847 967.681,-227.962 967.413,-220.967"/>
<text text-anchor="middle" x="1004" y="-251.511" font-family="FreeSans" font-size="10.00"> Specular</text>
<text text-anchor="middle" x="1004" y="-239.511" font-family="FreeSans" font-size="10.00">Ambient</text>
<text text-anchor="middle" x="1004" y="-227.511" font-family="FreeSans" font-size="10.00">Diffuse</text>
</g>
<!-- Node31 -->
<g id="node68" class="node"><title>Node31</title>
<a xlink:href="classMezzanine_1_1ColourValue.xhtml" target="_top" xlink:title="This is a simple class for holding 4 reals representing the colour any give object or lightsource can...">
<polygon fill="white" stroke="black" points="579.5,-217.511 579.5,-237.511 698.5,-237.511 698.5,-217.511 579.5,-217.511"/>
<text text-anchor="middle" x="639" y="-224.511" font-family="FreeSans" font-size="10.00">Mezzanine::ColourValue</text>
</a>
</g>
<!-- Node31&#45;&gt;Node30 -->
<g id="edge76" class="edge"><title>Node31&#45;&gt;Node30</title>
<path fill="none" stroke="#9a32cd" stroke-dasharray="5,2" d="M709.007,-227.511C743.16,-227.511 784.13,-227.511 818.249,-227.511"/>
<polygon fill="#9a32cd" stroke="#9a32cd" points="708.642,-224.011 698.642,-227.511 708.642,-231.011 708.642,-224.011"/>
<text text-anchor="middle" x="765" y="-230.511" font-family="FreeSans" font-size="10.00"> elements</text>
</g>
</g>
</svg>
        <g id="navigator" transform="translate(0 0)" fill="#404254">
                <rect fill="#f2f5e9" fill-opacity="0.5" stroke="#606060" stroke-width=".5" x="0" y="0" width="60" height="60"/>
                <use id="zoomplus" xlink:href="#zoomPlus" x="17" y="9" onmousedown="handleZoom(evt,'in')"/>
                <use id="zoomminus" xlink:href="#zoomMin" x="42" y="9" onmousedown="handleZoom(evt,'out')"/>
                <use id="reset" xlink:href="#resetDef" x="30" y="36" onmousedown="handleReset()"/>
                <g id="arrowUp" xlink:href="#dirArrow" transform="translate(30 24)" onmousedown="handlePan(0,-1)">
                  <use xlink:href="#rim" fill="#404040">
                        <set attributeName="fill" to="#808080" begin="arrowUp.mouseover" end="arrowUp.mouseout"/>
                  </use>
                  <path fill="none" stroke="white" stroke-width="1.5" d="M0,-3.0v7 M-2.5,-0.5L0,-3.0L2.5,-0.5"/>
                </g>
                <g id="arrowRight" xlink:href="#dirArrow" transform="rotate(90) translate(36 -43)" onmousedown="handlePan(1,0)">
                  <use xlink:href="#rim" fill="#404040">
                        <set attributeName="fill" to="#808080" begin="arrowRight.mouseover" end="arrowRight.mouseout"/>
                  </use>
                  <path fill="none" stroke="white" stroke-width="1.5" d="M0,-3.0v7 M-2.5,-0.5L0,-3.0L2.5,-0.5"/>
                </g>
                <g id="arrowDown" xlink:href="#dirArrow" transform="rotate(180) translate(-30 -48)" onmousedown="handlePan(0,1)">
                  <use xlink:href="#rim" fill="#404040">
                        <set attributeName="fill" to="#808080" begin="arrowDown.mouseover" end="arrowDown.mouseout"/>
                  </use>
                  <path fill="none" stroke="white" stroke-width="1.5" d="M0,-3.0v7 M-2.5,-0.5L0,-3.0L2.5,-0.5"/>
                </g>
                <g id="arrowLeft" xlink:href="#dirArrow" transform="rotate(270) translate(-36 17)" onmousedown="handlePan(-1,0)">
                  <use xlink:href="#rim" fill="#404040">
                        <set attributeName="fill" to="#808080" begin="arrowLeft.mouseover" end="arrowLeft.mouseout"/>
                  </use>
                  <path fill="none" stroke="white" stroke-width="1.5" d="M0,-3.0v7 M-2.5,-0.5L0,-3.0L2.5,-0.5"/>
                </g>
        </g>
        <svg viewBox="0 0 15 15" width="100%" height="30px" preserveAspectRatio="xMaxYMin meet">
         <g id="arrow_out" transform="scale(0.3 0.3)">
          <a xlink:href="classMezzanine_1_1TerrainManager__coll__graph_org.svg" target="_base">
           <rect id="button" ry="5" rx="5" y="6" x="6" height="38" width="38"
                fill="#f2f5e9" fill-opacity="0.5" stroke="#606060" stroke-width="1.0"/>
           <path id="arrow"
             d="M 11.500037,31.436501 C 11.940474,20.09759 22.043105,11.32322 32.158766,21.979434 L 37.068811,17.246167 C 37.068811,17.246167 37.088388,32 37.088388,32 L 22.160133,31.978069 C 22.160133,31.978069 26.997745,27.140456 26.997745,27.140456 C 18.528582,18.264221 13.291696,25.230495 11.500037,31.436501 z"
             style="fill:#404040;"/>
          </a>
         </g>
        </svg>
</svg>
