<?xml version="1.0" encoding="UTF-8" standalone="no"?>
<!DOCTYPE svg PUBLIC "-//W3C//DTD SVG 1.1//EN"
 "http://www.w3.org/Graphics/SVG/1.1/DTD/svg11.dtd">
<!-- Generated by graphviz version 2.26.3 (20100126.1600)
 -->
<!-- Title: Mezzanine::Threading::iWorkUnit Pages: 1 -->
<!--zoomable 838 -->
<svg id="main" version="1.1" xmlns="http://www.w3.org/2000/svg" xmlns:xlink="http://www.w3.org/1999/xlink" xml:space="preserve" onload="init(evt)">
<style type="text/css"><![CDATA[
.edge:hover path { stroke: red; }
.edge:hover polygon { stroke: red; fill: red; }
]]></style>
<script type="text/javascript"><![CDATA[
var edges = document.getElementsByTagName('g');
if (edges && edges.length) {
  for (var i=0;i<edges.length;i++) {
    if (edges[i].id.substr(0,4)=='edge') {
      edges[i].setAttribute('class','edge');
    }
  }
}
]]></script>
        <defs>
                <circle id="rim" cx="0" cy="0" r="7"/>
                <circle id="rim2" cx="0" cy="0" r="3.5"/>
                <g id="zoomPlus">
                        <use xlink:href="#rim" fill="#404040">
                                <set attributeName="fill" to="#808080" begin="zoomplus.mouseover" end="zoomplus.mouseout"/>
                        </use>
                        <path d="M-4,0h8M0,-4v8" fill="none" stroke="white" stroke-width="1.5" pointer-events="none"/>
                </g>
                <g id="zoomMin">
                        <use xlink:href="#rim" fill="#404040">
                                <set attributeName="fill" to="#808080" begin="zoomminus.mouseover" end="zoomminus.mouseout"/>
                        </use>
                        <path d="M-4,0h8" fill="none" stroke="white" stroke-width="1.5" pointer-events="none"/>
                </g>
                <g id="dirArrow">
                        <path fill="none" stroke="white" stroke-width="1.5" d="M0,-3.0v7 M-2.5,-0.5L0,-3.0L2.5,-0.5"/>
                </g>
               <g id="resetDef">
                       <use xlink:href="#rim2" fill="#404040">
                               <set attributeName="fill" to="#808080" begin="reset.mouseover" end="reset.mouseout"/>
                       </use>
               </g>
        </defs>

<script type="text/javascript">
var viewWidth = 680;
var viewHeight = 838;
var sectionId = 'dynsection-0';
</script>
<script xlink:href="svgpan.js"/>
<svg id="graph" class="graph">
<g id="viewport">
<title>Mezzanine::Threading::iWorkUnit</title>
<polygon fill="white" stroke="white" points="-4,5 -4,-834 677,-834 677,5 -4,5"/>
<!-- Node1 -->
<g id="node1" class="node"><title>Node1</title>
<polygon fill="#bfbfbf" stroke="black" points="0.5,-416 0.5,-450 113.5,-450 113.5,-416 0.5,-416"/>
<text text-anchor="start" x="8.5" y="-437" font-family="Helvetica,sans-Serif" font-size="10.00">Mezzanine::Threading</text>
<text text-anchor="middle" x="57" y="-424" font-family="Helvetica,sans-Serif" font-size="10.00">::iWorkUnit</text>
</g>
<!-- Node2 -->
<g id="node3" class="node"><title>Node2</title>
<a xlink:href="classMezzanine_1_1Threading_1_1DefaultWorkUnit.html" target="_top" xlink:title="Default implementation of WorkUnit. This represents on piece of work through time. ">
<polygon fill="white" stroke="black" points="150.5,-416 150.5,-450 263.5,-450 263.5,-416 150.5,-416"/>
<text text-anchor="start" x="158.5" y="-437" font-family="Helvetica,sans-Serif" font-size="10.00">Mezzanine::Threading</text>
<text text-anchor="middle" x="207" y="-424" font-family="Helvetica,sans-Serif" font-size="10.00">::DefaultWorkUnit</text>
</a>
</g>
<!-- Node1&#45;&gt;Node2 -->
<g id="edge2" class="edge"><title>Node1&#45;&gt;Node2</title>
<path fill="none" stroke="midnightblue" d="M123.916,-433C132.694,-433 141.622,-433 150.211,-433"/>
<polygon fill="midnightblue" stroke="midnightblue" points="123.709,-429.5 113.709,-433 123.709,-436.5 123.709,-429.5"/>
</g>
<!-- Node3 -->
<g id="node5" class="node"><title>Node3</title>
<a xlink:href="classMezzanine_1_1ActorUpdateWorkUnit.html" target="_top" xlink:title="This is a Mezzanine::Threading::iWorkUnit for the updating of actors. ">
<polygon fill="white" stroke="black" points="303,-808.5 303,-829.5 469,-829.5 469,-808.5 303,-808.5"/>
<text text-anchor="middle" x="386" y="-816.5" font-family="Helvetica,sans-Serif" font-size="10.00">Mezzanine::ActorUpdateWorkUnit</text>
</a>
</g>
<!-- Node2&#45;&gt;Node3 -->
<g id="edge4" class="edge"><title>Node2&#45;&gt;Node3</title>
<path fill="none" stroke="midnightblue" d="M210.275,-460.399C219.983,-537.016 251.016,-751.002 300,-799 303.832,-802.755 308.224,-805.857 312.951,-808.415"/>
<polygon fill="midnightblue" stroke="midnightblue" points="213.706,-459.62 208.998,-450.128 206.759,-460.483 213.706,-459.62"/>
</g>
<!-- Node4 -->
<g id="node7" class="node"><title>Node4</title>
<a xlink:href="classMezzanine_1_1AreaEffectUpdateWorkUnit.html" target="_top" xlink:title="This is a Mezzanine::Threading::iWorkUnit for the updating of AreaEffects. ">
<polygon fill="white" stroke="black" points="312,-756 312,-790 460,-790 460,-756 312,-756"/>
<text text-anchor="start" x="320" y="-777" font-family="Helvetica,sans-Serif" font-size="10.00">Mezzanine::AreaEffectUpdate</text>
<text text-anchor="middle" x="386" y="-764" font-family="Helvetica,sans-Serif" font-size="10.00">WorkUnit</text>
</a>
</g>
<!-- Node2&#45;&gt;Node4 -->
<g id="edge6" class="edge"><title>Node2&#45;&gt;Node4</title>
<path fill="none" stroke="midnightblue" d="M211.619,-459.994C223.819,-528.311 258.808,-705.575 300,-747 303.519,-750.539 307.503,-753.6 311.779,-756.247"/>
<polygon fill="midnightblue" stroke="midnightblue" points="215.041,-459.244 209.86,-450.003 208.147,-460.458 215.041,-459.244"/>
</g>
<!-- Node5 -->
<g id="node9" class="node"><title>Node5</title>
<a xlink:href="classMezzanine_1_1Audio_1_1iBufferUpdate2DWorkUnit.html" target="_top" xlink:title="This is the work unit for updating audio buffers as necessary for audio playback. ...">
<polygon fill="white" stroke="black" points="321.5,-704 321.5,-738 450.5,-738 450.5,-704 321.5,-704"/>
<text text-anchor="start" x="329.5" y="-725" font-family="Helvetica,sans-Serif" font-size="10.00">Mezzanine::Audio::iBuffer</text>
<text text-anchor="middle" x="386" y="-712" font-family="Helvetica,sans-Serif" font-size="10.00">Update2DWorkUnit</text>
</a>
</g>
<!-- Node2&#45;&gt;Node5 -->
<g id="edge8" class="edge"><title>Node2&#45;&gt;Node5</title>
<path fill="none" stroke="midnightblue" d="M208.789,-460.185C213.744,-513.086 232.191,-630.337 300,-695 306.096,-700.813 313.446,-705.33 321.251,-708.84"/>
<polygon fill="midnightblue" stroke="midnightblue" points="212.275,-459.875 207.945,-450.206 205.3,-460.465 212.275,-459.875"/>
</g>
<!-- Node6 -->
<g id="node11" class="node"><title>Node6</title>
<a xlink:href="classMezzanine_1_1Audio_1_1iBufferUpdate3DWorkUnit.html" target="_top" xlink:title="This is the work unit for updating audio buffers as necessary for audio playback. ...">
<polygon fill="white" stroke="black" points="321.5,-652 321.5,-686 450.5,-686 450.5,-652 321.5,-652"/>
<text text-anchor="start" x="329.5" y="-673" font-family="Helvetica,sans-Serif" font-size="10.00">Mezzanine::Audio::iBuffer</text>
<text text-anchor="middle" x="386" y="-660" font-family="Helvetica,sans-Serif" font-size="10.00">Update3DWorkUnit</text>
</a>
</g>
<!-- Node2&#45;&gt;Node6 -->
<g id="edge10" class="edge"><title>Node2&#45;&gt;Node6</title>
<path fill="none" stroke="midnightblue" d="M211.514,-460.109C220.374,-504.765 244.263,-593.745 300,-643 306.195,-648.474 313.51,-652.796 321.218,-656.209"/>
<polygon fill="midnightblue" stroke="midnightblue" points="214.951,-459.448 209.664,-450.267 208.072,-460.741 214.951,-459.448"/>
</g>
<!-- Node7 -->
<g id="node13" class="node"><title>Node7</title>
<a xlink:href="classMezzanine_1_1Audio_1_1iEffectFilterCleanWorkUnit.html" target="_top" xlink:title="This is the work unit for marking all effects and filters as clean after sounds have been processed...">
<polygon fill="white" stroke="black" points="321.5,-600 321.5,-634 450.5,-634 450.5,-600 321.5,-600"/>
<text text-anchor="start" x="329.5" y="-621" font-family="Helvetica,sans-Serif" font-size="10.00">Mezzanine::Audio::iEffect</text>
<text text-anchor="middle" x="386" y="-608" font-family="Helvetica,sans-Serif" font-size="10.00">FilterCleanWorkUnit</text>
</a>
</g>
<!-- Node2&#45;&gt;Node7 -->
<g id="edge12" class="edge"><title>Node2&#45;&gt;Node7</title>
<path fill="none" stroke="midnightblue" d="M215.742,-459.707C228.623,-494.921 256.043,-556.447 300,-591 306.377,-596.013 313.711,-600.061 321.351,-603.331"/>
<polygon fill="midnightblue" stroke="midnightblue" points="218.979,-458.364 212.35,-450.099 212.378,-460.694 218.979,-458.364"/>
</g>
<!-- Node8 -->
<g id="node15" class="node"><title>Node8</title>
<a xlink:href="classMezzanine_1_1DebrisUpdateWorkUnit.html" target="_top" xlink:title="This is a Mezzanine::Threading::iWorkUnit for the updating of Debris. ">
<polygon fill="white" stroke="black" points="300.5,-560.5 300.5,-581.5 471.5,-581.5 471.5,-560.5 300.5,-560.5"/>
<text text-anchor="middle" x="386" y="-568.5" font-family="Helvetica,sans-Serif" font-size="10.00">Mezzanine::DebrisUpdateWorkUnit</text>
</a>
</g>
<!-- Node2&#45;&gt;Node8 -->
<g id="edge14" class="edge"><title>Node2&#45;&gt;Node8</title>
<path fill="none" stroke="midnightblue" d="M220.495,-459.029C235.983,-486.241 263.958,-528.105 300,-551 306.081,-554.863 312.829,-557.982 319.792,-560.499"/>
<polygon fill="midnightblue" stroke="midnightblue" points="223.445,-457.13 215.545,-450.07 217.318,-460.515 223.445,-457.13"/>
</g>
<!-- Node9 -->
<g id="node17" class="node"><title>Node9</title>
<a xlink:href="classMezzanine_1_1EventPumpWorkUnit.html" target="_top" xlink:title="Every frame the OS must be queried for changes to the state, this does that querying on behalf of an ...">
<polygon fill="white" stroke="black" points="305,-520.5 305,-541.5 467,-541.5 467,-520.5 305,-520.5"/>
<text text-anchor="middle" x="386" y="-528.5" font-family="Helvetica,sans-Serif" font-size="10.00">Mezzanine::EventPumpWorkUnit</text>
</a>
</g>
<!-- Node2&#45;&gt;Node9 -->
<g id="edge16" class="edge"><title>Node2&#45;&gt;Node9</title>
<path fill="none" stroke="midnightblue" d="M230.217,-457.912C247.778,-475.299 273.352,-497.691 300,-511 307.68,-514.836 316.115,-517.95 324.607,-520.475"/>
<polygon fill="midnightblue" stroke="midnightblue" points="232.25,-454.989 222.737,-450.326 227.266,-459.904 232.25,-454.989"/>
</g>
<!-- Node10 -->
<g id="node19" class="node"><title>Node10</title>
<a xlink:href="classMezzanine_1_1Input_1_1DeviceUpdateWorkUnit.html" target="_top" xlink:title="This is a Mezzanine::Threading::iWorkUnit for the updating of the physics debug drawer. ">
<polygon fill="white" stroke="black" points="322,-468 322,-502 450,-502 450,-468 322,-468"/>
<text text-anchor="start" x="330" y="-489" font-family="Helvetica,sans-Serif" font-size="10.00">Mezzanine::Input::Device</text>
<text text-anchor="middle" x="386" y="-476" font-family="Helvetica,sans-Serif" font-size="10.00">UpdateWorkUnit</text>
</a>
</g>
<!-- Node2&#45;&gt;Node10 -->
<g id="edge18" class="edge"><title>Node2&#45;&gt;Node10</title>
<path fill="none" stroke="midnightblue" d="M273.315,-452.265C291.012,-457.406 310.007,-462.924 327.265,-467.937"/>
<polygon fill="midnightblue" stroke="midnightblue" points="274.216,-448.882 263.637,-449.453 272.263,-455.604 274.216,-448.882"/>
</g>
<!-- Node11 -->
<g id="node21" class="node"><title>Node11</title>
<a xlink:href="classMezzanine_1_1Physics_1_1DebugDrawWorkUnit.html" target="_top" xlink:title="This is a Mezzanine::Threading::iWorkUnit for the updating of the physics debug drawer. ">
<polygon fill="white" stroke="black" points="328,-416 328,-450 444,-450 444,-416 328,-416"/>
<text text-anchor="start" x="336" y="-437" font-family="Helvetica,sans-Serif" font-size="10.00">Mezzanine::Physics</text>
<text text-anchor="middle" x="386" y="-424" font-family="Helvetica,sans-Serif" font-size="10.00">::DebugDrawWorkUnit</text>
</a>
</g>
<!-- Node2&#45;&gt;Node11 -->
<g id="edge20" class="edge"><title>Node2&#45;&gt;Node11</title>
<path fill="none" stroke="midnightblue" d="M273.912,-433C291.65,-433 310.655,-433 327.884,-433"/>
<polygon fill="midnightblue" stroke="midnightblue" points="273.637,-429.5 263.637,-433 273.637,-436.5 273.637,-429.5"/>
</g>
<!-- Node12 -->
<g id="node23" class="node"><title>Node12</title>
<a xlink:href="classMezzanine_1_1Physics_1_1SimulationWorkUnit.html" target="_top" xlink:title="This is a Mezzanine::Threading::iWorkUnit for the single threaded processing of physics simulations...">
<polygon fill="white" stroke="black" points="331,-364 331,-398 441,-398 441,-364 331,-364"/>
<text text-anchor="start" x="339" y="-385" font-family="Helvetica,sans-Serif" font-size="10.00">Mezzanine::Physics</text>
<text text-anchor="middle" x="386" y="-372" font-family="Helvetica,sans-Serif" font-size="10.00">::SimulationWorkUnit</text>
</a>
</g>
<!-- Node2&#45;&gt;Node12 -->
<g id="edge22" class="edge"><title>Node2&#45;&gt;Node12</title>
<path fill="none" stroke="midnightblue" d="M273.39,-413.714C292.336,-408.21 312.766,-402.275 330.956,-396.991"/>
<polygon fill="midnightblue" stroke="midnightblue" points="272.263,-410.396 263.637,-416.547 274.216,-417.118 272.263,-410.396"/>
</g>
<!-- Node13 -->
<g id="node25" class="node"><title>Node13</title>
<a xlink:href="classMezzanine_1_1Physics_1_1WorldTriggerUpdateWorkUnit.html" target="_top" xlink:title="This is a Mezzanine::Threading::iWorkUnit for the updating of WorldTriggers. ">
<polygon fill="white" stroke="black" points="310.5,-312 310.5,-346 461.5,-346 461.5,-312 310.5,-312"/>
<text text-anchor="start" x="318.5" y="-333" font-family="Helvetica,sans-Serif" font-size="10.00">Mezzanine::Physics</text>
<text text-anchor="middle" x="386" y="-320" font-family="Helvetica,sans-Serif" font-size="10.00">::WorldTriggerUpdateWorkUnit</text>
</a>
</g>
<!-- Node2&#45;&gt;Node13 -->
<g id="edge24" class="edge"><title>Node2&#45;&gt;Node13</title>
<path fill="none" stroke="midnightblue" d="M230.812,-408.29C248.493,-391.198 273.96,-369.082 300,-355 306.174,-351.661 312.835,-348.693 319.621,-346.068"/>
<polygon fill="midnightblue" stroke="midnightblue" points="227.921,-406.226 223.263,-415.742 232.838,-411.208 227.921,-406.226"/>
</g>
<!-- Node14 -->
<g id="node27" class="node"><title>Node14</title>
<a xlink:href="classMezzanine_1_1Scripting_1_1iScriptWorkUnit.html" target="_top" xlink:title="The interface for a container of script that can be executed each frame. ">
<polygon fill="white" stroke="black" points="332,-260 332,-294 440,-294 440,-260 332,-260"/>
<text text-anchor="start" x="340" y="-281" font-family="Helvetica,sans-Serif" font-size="10.00">Mezzanine::Scripting</text>
<text text-anchor="middle" x="386" y="-268" font-family="Helvetica,sans-Serif" font-size="10.00">::iScriptWorkUnit</text>
</a>
</g>
<!-- Node2&#45;&gt;Node14 -->
<g id="edge26" class="edge"><title>Node2&#45;&gt;Node14</title>
<path fill="none" stroke="midnightblue" d="M219.217,-406.632C234.193,-377.151 262.304,-330.009 300,-303 309.383,-296.277 320.527,-291.269 331.63,-287.545"/>
<polygon fill="midnightblue" stroke="midnightblue" points="215.931,-405.382 214.646,-415.899 222.209,-408.479 215.931,-405.382"/>
</g>
<!-- Node16 -->
<g id="node31" class="node"><title>Node16</title>
<a xlink:href="classMezzanine_1_1Threading_1_1iAsynchronousWorkUnit.html" target="_top" xlink:title="The interface for a WorkUnit that will keep running when the rest of the scheduler is paused...">
<polygon fill="white" stroke="black" points="322,-208 322,-242 450,-242 450,-208 322,-208"/>
<text text-anchor="start" x="330" y="-229" font-family="Helvetica,sans-Serif" font-size="10.00">Mezzanine::Threading</text>
<text text-anchor="middle" x="386" y="-216" font-family="Helvetica,sans-Serif" font-size="10.00">::iAsynchronousWorkUnit</text>
</a>
</g>
<!-- Node2&#45;&gt;Node16 -->
<g id="edge30" class="edge"><title>Node2&#45;&gt;Node16</title>
<path fill="none" stroke="midnightblue" d="M213.524,-406.089C224.545,-366.352 250.631,-292.246 300,-251 306.464,-245.6 314.027,-241.321 321.939,-237.93"/>
<polygon fill="midnightblue" stroke="midnightblue" points="210.11,-405.307 210.925,-415.871 216.876,-407.105 210.11,-405.307"/>
</g>
<!-- Node18 -->
<g id="node35" class="node"><title>Node18</title>
<a xlink:href="classMezzanine_1_1Threading_1_1LogAggregator.html" target="_top" xlink:title="Gather all the thread specific logs and commit them to the main log. ">
<polygon fill="white" stroke="black" points="329.5,-156 329.5,-190 442.5,-190 442.5,-156 329.5,-156"/>
<text text-anchor="start" x="337.5" y="-177" font-family="Helvetica,sans-Serif" font-size="10.00">Mezzanine::Threading</text>
<text text-anchor="middle" x="386" y="-164" font-family="Helvetica,sans-Serif" font-size="10.00">::LogAggregator</text>
</a>
</g>
<!-- Node2&#45;&gt;Node18 -->
<g id="edge34" class="edge"><title>Node2&#45;&gt;Node18</title>
<path fill="none" stroke="midnightblue" d="M210.147,-405.658C217.205,-357.001 238.795,-255.229 300,-199 308.27,-191.402 318.691,-186.021 329.399,-182.212"/>
<polygon fill="midnightblue" stroke="midnightblue" points="206.655,-405.365 208.784,-415.743 213.592,-406.302 206.655,-405.365"/>
</g>
<!-- Node19 -->
<g id="node37" class="node"><title>Node19</title>
<a xlink:href="classMezzanine_1_1Threading_1_1MonopolyWorkUnit.html" target="_top" xlink:title="A kind of workunit given exclusive runtime so it can consume time on multiple threads. ">
<polygon fill="white" stroke="black" points="329.5,-104 329.5,-138 442.5,-138 442.5,-104 329.5,-104"/>
<text text-anchor="start" x="337.5" y="-125" font-family="Helvetica,sans-Serif" font-size="10.00">Mezzanine::Threading</text>
<text text-anchor="middle" x="386" y="-112" font-family="Helvetica,sans-Serif" font-size="10.00">::MonopolyWorkUnit</text>
</a>
</g>
<!-- Node2&#45;&gt;Node19 -->
<g id="edge36" class="edge"><title>Node2&#45;&gt;Node19</title>
<path fill="none" stroke="midnightblue" d="M212.485,-405.85C225.927,-341.832 262.182,-184.039 300,-147 308.135,-139.033 318.623,-133.495 329.461,-129.649"/>
<polygon fill="midnightblue" stroke="midnightblue" points="208.989,-405.476 210.386,-415.978 215.843,-406.897 208.989,-405.476"/>
</g>
<!-- Node22 -->
<g id="node43" class="node"><title>Node22</title>
<a xlink:href="classMezzanine_1_1Threading_1_1WorkSorter.html" target="_top" xlink:title="Sorts all of the WorkUnits in the FrameScheduler. ">
<polygon fill="white" stroke="black" points="329.5,-52 329.5,-86 442.5,-86 442.5,-52 329.5,-52"/>
<text text-anchor="start" x="337.5" y="-73" font-family="Helvetica,sans-Serif" font-size="10.00">Mezzanine::Threading</text>
<text text-anchor="middle" x="386" y="-60" font-family="Helvetica,sans-Serif" font-size="10.00">::WorkSorter</text>
</a>
</g>
<!-- Node2&#45;&gt;Node22 -->
<g id="edge42" class="edge"><title>Node2&#45;&gt;Node22</title>
<path fill="none" stroke="midnightblue" d="M211.103,-405.422C222.398,-333.032 256.046,-140.071 300,-95 307.95,-86.8482 318.359,-81.2313 329.178,-77.3664"/>
<polygon fill="midnightblue" stroke="midnightblue" points="207.602,-405.165 209.542,-415.581 214.52,-406.228 207.602,-405.165"/>
</g>
<!-- Node23 -->
<g id="node45" class="node"><title>Node23</title>
<a xlink:href="classMezzanine_1_1UI_1_1WidgetUpdateWorkUnit.html" target="_top" xlink:title="This is a Mezzanine::Threading::iWorkUnit for the updating of widgets in the UI system. ">
<polygon fill="white" stroke="black" points="311.5,-0 311.5,-34 460.5,-34 460.5,-0 311.5,-0"/>
<text text-anchor="start" x="319.5" y="-21" font-family="Helvetica,sans-Serif" font-size="10.00">Mezzanine::UI::WidgetUpdate</text>
<text text-anchor="middle" x="386" y="-8" font-family="Helvetica,sans-Serif" font-size="10.00">WorkUnit</text>
</a>
</g>
<!-- Node2&#45;&gt;Node23 -->
<g id="edge44" class="edge"><title>Node2&#45;&gt;Node23</title>
<path fill="none" stroke="midnightblue" d="M209.996,-405.58C219.235,-325.848 249.738,-96.3454 300,-43 303.316,-39.4807 307.09,-36.4325 311.162,-33.7928"/>
<polygon fill="midnightblue" stroke="midnightblue" points="206.485,-405.472 208.833,-415.803 213.441,-406.263 206.485,-405.472"/>
</g>
<!-- Node15 -->
<g id="node29" class="node"><title>Node15</title>
<a xlink:href="classMezzanine_1_1Scripting_1_1Lua_1_1Lua51WorkUnit.html" target="_top" xlink:title="This is a simple Container of script that will execute every script it is given in order each frame...">
<polygon fill="white" stroke="black" points="534,-260 534,-294 646,-294 646,-260 534,-260"/>
<text text-anchor="start" x="542" y="-281" font-family="Helvetica,sans-Serif" font-size="10.00">Mezzanine::Scripting</text>
<text text-anchor="middle" x="590" y="-268" font-family="Helvetica,sans-Serif" font-size="10.00">::Lua::Lua51WorkUnit</text>
</a>
</g>
<!-- Node14&#45;&gt;Node15 -->
<g id="edge28" class="edge"><title>Node14&#45;&gt;Node15</title>
<path fill="none" stroke="midnightblue" d="M450.198,-277C477.027,-277 507.921,-277 533.833,-277"/>
<polygon fill="midnightblue" stroke="midnightblue" points="450.133,-273.5 440.133,-277 450.133,-280.5 450.133,-273.5"/>
</g>
<!-- Node17 -->
<g id="node33" class="node"><title>Node17</title>
<a xlink:href="classMezzanine_1_1Threading_1_1AsynchronousFileLoadWorkUnit.html" target="_top" xlink:title="This is intended to load files asynchronously and continue doing so whether or not other the FrameSch...">
<polygon fill="white" stroke="black" points="508.5,-208 508.5,-242 671.5,-242 671.5,-208 508.5,-208"/>
<text text-anchor="start" x="516.5" y="-229" font-family="Helvetica,sans-Serif" font-size="10.00">Mezzanine::Threading</text>
<text text-anchor="middle" x="590" y="-216" font-family="Helvetica,sans-Serif" font-size="10.00">::AsynchronousFileLoadWorkUnit</text>
</a>
</g>
<!-- Node16&#45;&gt;Node17 -->
<g id="edge32" class="edge"><title>Node16&#45;&gt;Node17</title>
<path fill="none" stroke="midnightblue" d="M460.383,-225C476.007,-225 492.567,-225 508.438,-225"/>
<polygon fill="midnightblue" stroke="midnightblue" points="460.267,-221.5 450.267,-225 460.267,-228.5 460.267,-221.5"/>
</g>
<!-- Node20 -->
<g id="node39" class="node"><title>Node20</title>
<a xlink:href="classMezzanine_1_1Graphics_1_1RenderWorkUnit.html" target="_top" xlink:title="This does the main loop processing for required to make the Graphics Manager function. ">
<polygon fill="white" stroke="black" points="535.5,-130 535.5,-164 644.5,-164 644.5,-130 535.5,-130"/>
<text text-anchor="start" x="543.5" y="-151" font-family="Helvetica,sans-Serif" font-size="10.00">Mezzanine::Graphics</text>
<text text-anchor="middle" x="590" y="-138" font-family="Helvetica,sans-Serif" font-size="10.00">::RenderWorkUnit</text>
</a>
</g>
<!-- Node19&#45;&gt;Node20 -->
<g id="edge38" class="edge"><title>Node19&#45;&gt;Node20</title>
<path fill="none" stroke="midnightblue" d="M452.631,-129.492C479.447,-132.91 509.986,-136.802 535.448,-140.047"/>
<polygon fill="midnightblue" stroke="midnightblue" points="452.917,-126 442.554,-128.208 452.032,-132.944 452.917,-126"/>
</g>
<!-- Node21 -->
<g id="node41" class="node"><title>Node21</title>
<a xlink:href="classMezzanine_1_1Physics_1_1SimulationMonopolyWorkUnit.html" target="_top" xlink:title="This is a Mezzanine::Threading::iWorkUnit for the multi&#45;threaded processing of physics simulations...">
<polygon fill="white" stroke="black" points="514,-78 514,-112 666,-112 666,-78 514,-78"/>
<text text-anchor="start" x="522" y="-99" font-family="Helvetica,sans-Serif" font-size="10.00">Mezzanine::Physics</text>
<text text-anchor="middle" x="590" y="-86" font-family="Helvetica,sans-Serif" font-size="10.00">::SimulationMonopolyWorkUnit</text>
</a>
</g>
<!-- Node19&#45;&gt;Node21 -->
<g id="edge40" class="edge"><title>Node19&#45;&gt;Node21</title>
<path fill="none" stroke="midnightblue" d="M452.591,-112.513C472.165,-110.018 493.724,-107.27 513.847,-104.706"/>
<polygon fill="midnightblue" stroke="midnightblue" points="452.032,-109.056 442.554,-113.792 452.917,-116 452.032,-109.056"/>
</g>
</g>
</svg>
        <g id="navigator" transform="translate(0 0)" fill="#404254">
                <rect fill="#f2f5e9" fill-opacity="0.5" stroke="#606060" stroke-width=".5" x="0" y="0" width="60" height="60"/>
                <use id="zoomplus" xlink:href="#zoomPlus" x="17" y="9" onmousedown="handleZoom(evt,'in')"/>
                <use id="zoomminus" xlink:href="#zoomMin" x="42" y="9" onmousedown="handleZoom(evt,'out')"/>
                <use id="reset" xlink:href="#resetDef" x="30" y="36" onmousedown="handleReset()"/>
                <g id="arrowUp" xlink:href="#dirArrow" transform="translate(30 24)" onmousedown="handlePan(0,-1)">
                  <use xlink:href="#rim" fill="#404040">
                        <set attributeName="fill" to="#808080" begin="arrowUp.mouseover" end="arrowUp.mouseout"/>
                  </use>
                  <path fill="none" stroke="white" stroke-width="1.5" d="M0,-3.0v7 M-2.5,-0.5L0,-3.0L2.5,-0.5"/>
                </g>
                <g id="arrowRight" xlink:href="#dirArrow" transform="rotate(90) translate(36 -43)" onmousedown="handlePan(1,0)">
                  <use xlink:href="#rim" fill="#404040">
                        <set attributeName="fill" to="#808080" begin="arrowRight.mouseover" end="arrowRight.mouseout"/>
                  </use>
                  <path fill="none" stroke="white" stroke-width="1.5" d="M0,-3.0v7 M-2.5,-0.5L0,-3.0L2.5,-0.5"/>
                </g>
                <g id="arrowDown" xlink:href="#dirArrow" transform="rotate(180) translate(-30 -48)" onmousedown="handlePan(0,1)">
                  <use xlink:href="#rim" fill="#404040">
                        <set attributeName="fill" to="#808080" begin="arrowDown.mouseover" end="arrowDown.mouseout"/>
                  </use>
                  <path fill="none" stroke="white" stroke-width="1.5" d="M0,-3.0v7 M-2.5,-0.5L0,-3.0L2.5,-0.5"/>
                </g>
                <g id="arrowLeft" xlink:href="#dirArrow" transform="rotate(270) translate(-36 17)" onmousedown="handlePan(-1,0)">
                  <use xlink:href="#rim" fill="#404040">
                        <set attributeName="fill" to="#808080" begin="arrowLeft.mouseover" end="arrowLeft.mouseout"/>
                  </use>
                  <path fill="none" stroke="white" stroke-width="1.5" d="M0,-3.0v7 M-2.5,-0.5L0,-3.0L2.5,-0.5"/>
                </g>
        </g>
        <svg viewBox="0 0 15 15" width="100%" height="30px" preserveAspectRatio="xMaxYMin meet">
         <g id="arrow_out" transform="scale(0.3 0.3)">
          <a xlink:href="classMezzanine_1_1Threading_1_1iWorkUnit__inherit__graph_org.svg" target="_base">
           <rect id="button" ry="5" rx="5" y="6" x="6" height="38" width="38"
                fill="#f2f5e9" fill-opacity="0.5" stroke="#606060" stroke-width="1.0"/>
           <path id="arrow"
             d="M 11.500037,31.436501 C 11.940474,20.09759 22.043105,11.32322 32.158766,21.979434 L 37.068811,17.246167 C 37.068811,17.246167 37.088388,32 37.088388,32 L 22.160133,31.978069 C 22.160133,31.978069 26.997745,27.140456 26.997745,27.140456 C 18.528582,18.264221 13.291696,25.230495 11.500037,31.436501 z"
             style="fill:#404040;"/>
          </a>
         </g>
        </svg>
</svg>
