<?xml version="1.0" encoding="UTF-8" standalone="no"?>
<!DOCTYPE svg PUBLIC "-//W3C//DTD SVG 1.1//EN"
 "http://www.w3.org/Graphics/SVG/1.1/DTD/svg11.dtd">
<!-- Generated by graphviz version 2.26.3 (20100126.1600)
 -->
<!-- Title: Mezzanine::ObjectSettingFile Pages: 1 -->
<svg width="518pt" height="374pt"
 viewBox="0.00 0.00 518.00 374.00" xmlns="http://www.w3.org/2000/svg" xmlns:xlink="http://www.w3.org/1999/xlink">
<g id="graph1" class="graph" transform="scale(1 1) rotate(0) translate(4 370)">
<title>Mezzanine::ObjectSettingFile</title>
<polygon fill="white" stroke="white" points="-4,5 -4,-370 515,-370 515,5 -4,5"/>
<!-- Node1 -->
<g id="node1" class="node"><title>Node1</title>
<polygon fill="#bfbfbf" stroke="black" points="38,-179.5 38,-200.5 192,-200.5 192,-179.5 38,-179.5"/>
<text text-anchor="middle" x="115" y="-187.5" font-family="FreeSans" font-size="10.00">Mezzanine::ObjectSettingFile</text>
</g>
<!-- Node5 -->
<g id="node8" class="node"><title>Node5</title>
<a xlink:href="classMezzanine_1_1ObjectSettingGroup.xhtml" target="_top" xlink:title="A class that store&#39;s a collection of SettingSets that can be applied together.">
<polygon fill="white" stroke="black" points="91.5,-87 91.5,-121 230.5,-121 230.5,-87 91.5,-87"/>
<text text-anchor="start" x="99.5" y="-108" font-family="FreeSans" font-size="10.00">Mezzanine::ObjectSetting</text>
<text text-anchor="middle" x="161" y="-95" font-family="FreeSans" font-size="10.00">Group</text>
</a>
</g>
<!-- Node1&#45;&gt;Node5 -->
<g id="edge26" class="edge"><title>Node1&#45;&gt;Node5</title>
<path fill="none" stroke="#9a32cd" stroke-dasharray="5,2" d="M125.379,-170.596C133.325,-155.74 144.183,-135.441 151.816,-121.171"/>
<polygon fill="#9a32cd" stroke="#9a32cd" points="122.271,-168.986 120.641,-179.455 128.443,-172.288 122.271,-168.986"/>
<text text-anchor="middle" x="170" y="-144.5" font-family="FreeSans" font-size="10.00"> OptionalFile</text>
</g>
<!-- Node2 -->
<g id="node2" class="node"><title>Node2</title>
<a xlink:title="STL class.">
<polygon fill="white" stroke="#bfbfbf" points="246.5,-270.5 246.5,-291.5 311.5,-291.5 311.5,-270.5 246.5,-270.5"/>
<text text-anchor="middle" x="279" y="-278.5" font-family="FreeSans" font-size="10.00">std::string</text>
</a>
</g>
<!-- Node2&#45;&gt;Node1 -->
<g id="edge2" class="edge"><title>Node2&#45;&gt;Node1</title>
<path fill="none" stroke="#9a32cd" stroke-dasharray="5,2" d="M251.069,-265.502C217.713,-246.993 162.824,-216.536 134.012,-200.549"/>
<polygon fill="#9a32cd" stroke="#9a32cd" points="249.424,-268.592 259.866,-270.383 252.82,-262.471 249.424,-268.592"/>
<text text-anchor="middle" x="235.5" y="-236.5" font-family="FreeSans" font-size="10.00"> File</text>
</g>
<!-- Node6 -->
<g id="node10" class="node"><title>Node6</title>
<a xlink:href="classMezzanine_1_1ObjectSettingSetContainer.xhtml" target="_top" xlink:title="A base class for other classes that store ObjectSettingSet&#39;s.">
<polygon fill="white" stroke="black" points="209.5,-173 209.5,-207 348.5,-207 348.5,-173 209.5,-173"/>
<text text-anchor="start" x="217.5" y="-194" font-family="FreeSans" font-size="10.00">Mezzanine::ObjectSetting</text>
<text text-anchor="middle" x="279" y="-181" font-family="FreeSans" font-size="10.00">SetContainer</text>
</a>
</g>
<!-- Node2&#45;&gt;Node6 -->
<g id="edge24" class="edge"><title>Node2&#45;&gt;Node6</title>
<path fill="none" stroke="#9a32cd" stroke-dasharray="5,2" d="M279,-259.755C279,-243.799 279,-222.221 279,-207.309"/>
<polygon fill="#9a32cd" stroke="#9a32cd" points="275.5,-260.204 279,-270.204 282.5,-260.204 275.5,-260.204"/>
<text text-anchor="middle" x="318.5" y="-236.5" font-family="FreeSans" font-size="10.00"> ContainerName</text>
</g>
<!-- Node9 -->
<g id="node18" class="node"><title>Node9</title>
<polygon fill="white" stroke="#bfbfbf" points="365.5,-179.5 365.5,-200.5 510.5,-200.5 510.5,-179.5 365.5,-179.5"/>
<text text-anchor="middle" x="438" y="-187.5" font-family="FreeSans" font-size="10.00">std::map&lt; String, String &gt;</text>
</g>
<!-- Node2&#45;&gt;Node9 -->
<g id="edge22" class="edge"><title>Node2&#45;&gt;Node9</title>
<path fill="none" stroke="#9a32cd" stroke-dasharray="5,2" d="M321.198,-269.413C334.668,-264.895 349.352,-259.078 362,-252 387.855,-237.53 413.674,-214.088 427.561,-200.555"/>
<polygon fill="#9a32cd" stroke="#9a32cd" points="320.106,-266.088 311.651,-272.472 322.243,-272.754 320.106,-266.088"/>
<text text-anchor="middle" x="420" y="-243" font-family="FreeSans" font-size="10.00"> keys</text>
<text text-anchor="middle" x="420" y="-230" font-family="FreeSans" font-size="10.00">elements</text>
</g>
<!-- Node3 -->
<g id="node4" class="node"><title>Node3</title>
<a xlink:title="STL class.">
<polygon fill="white" stroke="#bfbfbf" points="227.5,-331 227.5,-365 330.5,-365 330.5,-331 227.5,-331"/>
<text text-anchor="start" x="235.5" y="-352" font-family="FreeSans" font-size="10.00">std::basic_string&lt;</text>
<text text-anchor="middle" x="279" y="-339" font-family="FreeSans" font-size="10.00"> char &gt;</text>
</a>
</g>
<!-- Node3&#45;&gt;Node2 -->
<g id="edge4" class="edge"><title>Node3&#45;&gt;Node2</title>
<path fill="none" stroke="midnightblue" d="M279,-320.534C279,-310.306 279,-299.301 279,-291.506"/>
<polygon fill="midnightblue" stroke="midnightblue" points="275.5,-320.746 279,-330.746 282.5,-320.746 275.5,-320.746"/>
</g>
<!-- Node4 -->
<g id="node6" class="node"><title>Node4</title>
<polygon fill="white" stroke="#bfbfbf" points="0,-1 0,-35 144,-35 144,-1 0,-1"/>
<text text-anchor="start" x="8" y="-22" font-family="FreeSans" font-size="10.00">std::vector&lt; ObjectSetting</text>
<text text-anchor="middle" x="72" y="-9" font-family="FreeSans" font-size="10.00">Group * &gt;</text>
</g>
<!-- Node4&#45;&gt;Node1 -->
<g id="edge6" class="edge"><title>Node4&#45;&gt;Node1</title>
<path fill="none" stroke="#9a32cd" stroke-dasharray="5,2" d="M46.4802,-42.3172C27.5214,-63.4655 7.14931,-94.8855 21,-122 35.1105,-149.623 66.2608,-168.62 88.8436,-179.373"/>
<polygon fill="#9a32cd" stroke="#9a32cd" points="49.041,-44.7031 53.3352,-35.0175 43.9383,-39.9113 49.041,-44.7031"/>
<text text-anchor="middle" x="52" y="-101.5" font-family="FreeSans" font-size="10.00"> SaveGroups</text>
</g>
<!-- Node5&#45;&gt;Node4 -->
<g id="edge8" class="edge"><title>Node5&#45;&gt;Node4</title>
<path fill="none" stroke="#9a32cd" stroke-dasharray="5,2" d="M135.665,-79.5188C120.972,-65.321 102.833,-47.7935 89.68,-35.084"/>
<polygon fill="#9a32cd" stroke="#9a32cd" points="133.366,-82.1647 142.99,-86.5966 138.23,-77.1308 133.366,-82.1647"/>
<text text-anchor="middle" x="146.5" y="-58.5" font-family="FreeSans" font-size="10.00"> elements</text>
</g>
<!-- Node6&#45;&gt;Node5 -->
<g id="edge10" class="edge"><title>Node6&#45;&gt;Node5</title>
<path fill="none" stroke="midnightblue" d="M247.295,-166.893C227.541,-152.496 202.552,-134.284 184.555,-121.167"/>
<polygon fill="midnightblue" stroke="midnightblue" points="245.262,-169.742 255.405,-172.803 249.385,-164.085 245.262,-169.742"/>
</g>
<!-- Node8 -->
<g id="node14" class="node"><title>Node8</title>
<a xlink:href="classMezzanine_1_1ObjectSettingSet.xhtml" target="_top" xlink:title="A class that store&#39;s a named set of settings for an object.">
<polygon fill="white" stroke="black" points="327.5,-93.5 327.5,-114.5 482.5,-114.5 482.5,-93.5 327.5,-93.5"/>
<text text-anchor="middle" x="405" y="-101.5" font-family="FreeSans" font-size="10.00">Mezzanine::ObjectSettingSet</text>
</a>
</g>
<!-- Node6&#45;&gt;Node8 -->
<g id="edge16" class="edge"><title>Node6&#45;&gt;Node8</title>
<path fill="none" stroke="midnightblue" d="M288.317,-163.418C292.351,-155.002 297.829,-146.27 305,-140 318.683,-128.037 336.641,-119.951 353.559,-114.528"/>
<polygon fill="midnightblue" stroke="midnightblue" points="285.088,-162.066 284.362,-172.636 291.521,-164.826 285.088,-162.066"/>
</g>
<!-- Node6&#45;&gt;Node8 -->
<g id="edge18" class="edge"><title>Node6&#45;&gt;Node8</title>
<path fill="none" stroke="#9a32cd" stroke-dasharray="5,2" d="M298.231,-164.581C305.611,-155.999 314.547,-146.865 324,-140 338.818,-129.239 357.362,-120.704 372.967,-114.65"/>
<polygon fill="#9a32cd" stroke="#9a32cd" points="295.325,-162.604 291.666,-172.547 300.727,-167.056 295.325,-162.604"/>
<text text-anchor="middle" x="369.5" y="-144.5" font-family="FreeSans" font-size="10.00"> ParentSetOrGroup</text>
</g>
<!-- Node7 -->
<g id="node12" class="node"><title>Node7</title>
<polygon fill="white" stroke="#bfbfbf" points="222,-1 222,-35 366,-35 366,-1 222,-1"/>
<text text-anchor="start" x="230" y="-22" font-family="FreeSans" font-size="10.00">std::vector&lt; ObjectSetting</text>
<text text-anchor="middle" x="294" y="-9" font-family="FreeSans" font-size="10.00">Set * &gt;</text>
</g>
<!-- Node7&#45;&gt;Node6 -->
<g id="edge12" class="edge"><title>Node7&#45;&gt;Node6</title>
<path fill="none" stroke="#9a32cd" stroke-dasharray="5,2" d="M284.706,-44.7567C280.877,-57.1404 276.899,-72.1481 275,-86 270.828,-116.433 273.961,-152.309 276.537,-172.979"/>
<polygon fill="#9a32cd" stroke="#9a32cd" points="288.096,-45.6463 287.837,-35.0546 281.435,-43.4962 288.096,-45.6463"/>
<text text-anchor="middle" x="297" y="-101.5" font-family="FreeSans" font-size="10.00"> SubSets</text>
</g>
<!-- Node8&#45;&gt;Node7 -->
<g id="edge14" class="edge"><title>Node8&#45;&gt;Node7</title>
<path fill="none" stroke="#9a32cd" stroke-dasharray="5,2" d="M383.432,-87.2899C364.055,-72.2765 335.721,-50.3242 316.162,-35.1709"/>
<polygon fill="#9a32cd" stroke="#9a32cd" points="381.341,-90.0968 391.389,-93.4547 385.628,-84.5633 381.341,-90.0968"/>
<text text-anchor="middle" x="380.5" y="-58.5" font-family="FreeSans" font-size="10.00"> elements</text>
</g>
<!-- Node9&#45;&gt;Node8 -->
<g id="edge20" class="edge"><title>Node9&#45;&gt;Node8</title>
<path fill="none" stroke="#9a32cd" stroke-dasharray="5,2" d="M430.228,-169.747C423.603,-152.481 414.341,-128.344 409.08,-114.632"/>
<polygon fill="#9a32cd" stroke="#9a32cd" points="427.103,-171.372 433.954,-179.455 433.639,-168.865 427.103,-171.372"/>
<text text-anchor="middle" x="444.5" y="-144.5" font-family="FreeSans" font-size="10.00"> Settings</text>
</g>
</g>
</svg>
