<?xml version="1.0" encoding="UTF-8" standalone="no"?>
<!DOCTYPE svg PUBLIC "-//W3C//DTD SVG 1.1//EN"
 "http://www.w3.org/Graphics/SVG/1.1/DTD/svg11.dtd">
<!-- Generated by graphviz version 2.26.3 (20100126.1600)
 -->
<!-- Title: Mezzanine::Physics::Generic6DofSpringConstraint Pages: 1 -->
<svg width="158pt" height="332pt"
 viewBox="0.00 0.00 158.00 332.00" xmlns="http://www.w3.org/2000/svg" xmlns:xlink="http://www.w3.org/1999/xlink">
<g id="graph1" class="graph" transform="scale(1 1) rotate(0) translate(4 328)">
<title>Mezzanine::Physics::Generic6DofSpringConstraint</title>
<polygon fill="white" stroke="white" points="-4,5 -4,-328 155,-328 155,5 -4,5"/>
<!-- Node1 -->
<g id="node1" class="node"><title>Node1</title>
<polygon fill="#bfbfbf" stroke="black" points="0,-73 0,-107 150,-107 150,-73 0,-73"/>
<text text-anchor="start" x="8" y="-94" font-family="Helvetica,sans-Serif" font-size="10.00">Mezzanine::Physics</text>
<text text-anchor="middle" x="75" y="-81" font-family="Helvetica,sans-Serif" font-size="10.00">::Generic6DofSpringConstraint</text>
</g>
<!-- Node5 -->
<g id="node9" class="node"><title>Node5</title>
<a xlink:href="classMezzanine_1_1Physics_1_1Hinge2Constraint.html" target="_top" xlink:title="Mezzanine::Physics\l::Hinge2Constraint">
<polygon fill="white" stroke="black" points="22.5,-1 22.5,-35 127.5,-35 127.5,-1 22.5,-1"/>
<text text-anchor="start" x="30.5" y="-22" font-family="Helvetica,sans-Serif" font-size="10.00">Mezzanine::Physics</text>
<text text-anchor="middle" x="75" y="-9" font-family="Helvetica,sans-Serif" font-size="10.00">::Hinge2Constraint</text>
</a>
</g>
<!-- Node1&#45;&gt;Node5 -->
<g id="edge8" class="edge"><title>Node1&#45;&gt;Node5</title>
<path fill="none" stroke="midnightblue" d="M75,-62.7193C75,-53.572 75,-43.6255 75,-35.4407"/>
<polygon fill="midnightblue" stroke="midnightblue" points="71.5001,-62.937 75,-72.937 78.5001,-62.937 71.5001,-62.937"/>
</g>
<!-- Node2 -->
<g id="node2" class="node"><title>Node2</title>
<a xlink:href="classMezzanine_1_1Physics_1_1Generic6DofConstraint.html" target="_top" xlink:title="Create simple but specific limits on any axis of movement or rotation. ">
<polygon fill="white" stroke="black" points="14,-145 14,-179 136,-179 136,-145 14,-145"/>
<text text-anchor="start" x="22" y="-166" font-family="Helvetica,sans-Serif" font-size="10.00">Mezzanine::Physics</text>
<text text-anchor="middle" x="75" y="-153" font-family="Helvetica,sans-Serif" font-size="10.00">::Generic6DofConstraint</text>
</a>
</g>
<!-- Node2&#45;&gt;Node1 -->
<g id="edge2" class="edge"><title>Node2&#45;&gt;Node1</title>
<path fill="none" stroke="midnightblue" d="M75,-134.719C75,-125.572 75,-115.625 75,-107.441"/>
<polygon fill="midnightblue" stroke="midnightblue" points="71.5001,-134.937 75,-144.937 78.5001,-134.937 71.5001,-134.937"/>
</g>
<!-- Node3 -->
<g id="node4" class="node"><title>Node3</title>
<a xlink:href="classMezzanine_1_1Physics_1_1DualTransformConstraint.html" target="_top" xlink:title="All constraints that track rotation and location of the Pivot relative to each Actor inherit from thi...">
<polygon fill="white" stroke="black" points="9,-217 9,-251 141,-251 141,-217 9,-217"/>
<text text-anchor="start" x="17" y="-238" font-family="Helvetica,sans-Serif" font-size="10.00">Mezzanine::Physics</text>
<text text-anchor="middle" x="75" y="-225" font-family="Helvetica,sans-Serif" font-size="10.00">::DualTransformConstraint</text>
</a>
</g>
<!-- Node3&#45;&gt;Node2 -->
<g id="edge4" class="edge"><title>Node3&#45;&gt;Node2</title>
<path fill="none" stroke="midnightblue" d="M75,-206.719C75,-197.572 75,-187.625 75,-179.441"/>
<polygon fill="midnightblue" stroke="midnightblue" points="71.5001,-206.937 75,-216.937 78.5001,-206.937 71.5001,-206.937"/>
</g>
<!-- Node4 -->
<g id="node6" class="node"><title>Node4</title>
<a xlink:href="classMezzanine_1_1Physics_1_1Constraint.html" target="_top" xlink:title="This is the base class for all constraints supported. ">
<polygon fill="white" stroke="black" points="22.5,-289 22.5,-323 127.5,-323 127.5,-289 22.5,-289"/>
<text text-anchor="start" x="30.5" y="-310" font-family="Helvetica,sans-Serif" font-size="10.00">Mezzanine::Physics</text>
<text text-anchor="middle" x="75" y="-297" font-family="Helvetica,sans-Serif" font-size="10.00">::Constraint</text>
</a>
</g>
<!-- Node4&#45;&gt;Node3 -->
<g id="edge6" class="edge"><title>Node4&#45;&gt;Node3</title>
<path fill="none" stroke="midnightblue" d="M75,-278.719C75,-269.572 75,-259.625 75,-251.441"/>
<polygon fill="midnightblue" stroke="midnightblue" points="71.5001,-278.937 75,-288.937 78.5001,-278.937 71.5001,-278.937"/>
</g>
</g>
</svg>
