<?xml version="1.0" encoding="UTF-8" standalone="no"?>
<!DOCTYPE svg PUBLIC "-//W3C//DTD SVG 1.1//EN"
 "http://www.w3.org/Graphics/SVG/1.1/DTD/svg11.dtd">
<!-- Generated by graphviz version 2.38.0 (20140413.2041)
 -->
<!-- Title: Mezzanine::UI::RangeTagToken Pages: 1 -->
<svg width="351pt" height="298pt"
 viewBox="0.00 0.00 350.66 298.00" xmlns="http://www.w3.org/2000/svg" xmlns:xlink="http://www.w3.org/1999/xlink">
<g id="graph0" class="graph" transform="scale(1 1) rotate(0) translate(4 294)">
<title>Mezzanine::UI::RangeTagToken</title>
<polygon fill="white" stroke="none" points="-4,4 -4,-294 346.658,-294 346.658,4 -4,4"/>
<!-- Node1 -->
<g id="node1" class="node"><title>Node1</title>
<polygon fill="#bfbfbf" stroke="black" points="48.6583,-0.5 48.6583,-19.5 206.658,-19.5 206.658,-0.5 48.6583,-0.5"/>
<text text-anchor="middle" x="127.658" y="-7.5" font-family="Helvetica,sans-Serif" font-size="10.00">Mezzanine::UI::RangeTagToken</text>
</g>
<!-- Node1&#45;&gt;Node1 -->
<g id="edge8" class="edge"><title>Node1&#45;&gt;Node1</title>
<path fill="none" stroke="#9a32cd" stroke-dasharray="5,2" d="M216.814,-13.5167C221.733,-12.6612 224.658,-11.489 224.658,-10 224.658,-7.67578 217.529,-6.12328 206.821,-5.34248"/>
<polygon fill="#9a32cd" stroke="#9a32cd" points="216.36,-10.0458 206.821,-14.6575 217.154,-17.0006 216.36,-10.0458"/>
<text text-anchor="middle" x="250.658" y="-7.5" font-family="Helvetica,sans-Serif" font-size="10.00"> PartnerTag</text>
</g>
<!-- Node2 -->
<g id="node2" class="node"><title>Node2</title>
<g id="a_node2"><a xlink:href="classMezzanine_1_1UI_1_1TagToken.html" target="_top" xlink:title="This struct represents a markup tag segment from the source string. ">
<polygon fill="white" stroke="black" points="62.6583,-57.5 62.6583,-76.5 192.658,-76.5 192.658,-57.5 62.6583,-57.5"/>
<text text-anchor="middle" x="127.658" y="-64.5" font-family="Helvetica,sans-Serif" font-size="10.00">Mezzanine::UI::TagToken</text>
</a>
</g>
</g>
<!-- Node2&#45;&gt;Node1 -->
<g id="edge1" class="edge"><title>Node2&#45;&gt;Node1</title>
<path fill="none" stroke="midnightblue" d="M127.658,-47.1166C127.658,-37.8173 127.658,-27.0557 127.658,-19.7149"/>
<polygon fill="midnightblue" stroke="midnightblue" points="124.158,-47.4062 127.658,-57.4062 131.158,-47.4063 124.158,-47.4062"/>
</g>
<!-- Node3 -->
<g id="node3" class="node"><title>Node3</title>
<g id="a_node3"><a xlink:href="classMezzanine_1_1UI_1_1TextToken.html" target="_top" xlink:title="This class represents a normal text segment from the source string. ">
<polygon fill="white" stroke="black" points="61.1583,-124.5 61.1583,-143.5 194.158,-143.5 194.158,-124.5 61.1583,-124.5"/>
<text text-anchor="middle" x="127.658" y="-131.5" font-family="Helvetica,sans-Serif" font-size="10.00">Mezzanine::UI::TextToken</text>
</a>
</g>
</g>
<!-- Node3&#45;&gt;Node2 -->
<g id="edge2" class="edge"><title>Node3&#45;&gt;Node2</title>
<path fill="none" stroke="midnightblue" d="M127.658,-114.037C127.658,-101.67 127.658,-86.1198 127.658,-76.6273"/>
<polygon fill="midnightblue" stroke="midnightblue" points="124.158,-114.234 127.658,-124.234 131.158,-114.234 124.158,-114.234"/>
</g>
<!-- Node4 -->
<g id="node4" class="node"><title>Node4</title>
<g id="a_node4"><a xlink:title="STL class. ">
<polygon fill="white" stroke="#bfbfbf" points="97.6583,-202.5 97.6583,-221.5 157.658,-221.5 157.658,-202.5 97.6583,-202.5"/>
<text text-anchor="middle" x="127.658" y="-209.5" font-family="Helvetica,sans-Serif" font-size="10.00">std::string</text>
</a>
</g>
</g>
<!-- Node4&#45;&gt;Node2 -->
<g id="edge7" class="edge"><title>Node4&#45;&gt;Node2</title>
<path fill="none" stroke="#9a32cd" stroke-dasharray="5,2" d="M87.986,-200.886C43.852,-187.561 -18.2994,-161.358 5.65831,-124 22.2022,-98.2026 53.9406,-84.1319 80.8983,-76.5474"/>
<polygon fill="#9a32cd" stroke="#9a32cd" points="87.0662,-204.263 97.6454,-203.688 89.0162,-197.54 87.0662,-204.263"/>
<text text-anchor="middle" x="28.6583" y="-131.5" font-family="Helvetica,sans-Serif" font-size="10.00"> TagName</text>
</g>
<!-- Node4&#45;&gt;Node3 -->
<g id="edge3" class="edge"><title>Node4&#45;&gt;Node3</title>
<path fill="none" stroke="#9a32cd" stroke-dasharray="5,2" d="M127.658,-192.224C127.658,-176.697 127.658,-155.358 127.658,-143.616"/>
<polygon fill="#9a32cd" stroke="#9a32cd" points="124.158,-192.282 127.658,-202.282 131.158,-192.282 124.158,-192.282"/>
<text text-anchor="middle" x="139.158" y="-170.5" font-family="Helvetica,sans-Serif" font-size="10.00"> Text</text>
</g>
<!-- Node6 -->
<g id="node6" class="node"><title>Node6</title>
<polygon fill="white" stroke="#bfbfbf" points="212.658,-124.5 212.658,-143.5 342.658,-143.5 342.658,-124.5 212.658,-124.5"/>
<text text-anchor="middle" x="277.658" y="-131.5" font-family="Helvetica,sans-Serif" font-size="10.00">std::map&lt; String, String &gt;</text>
</g>
<!-- Node4&#45;&gt;Node6 -->
<g id="edge6" class="edge"><title>Node4&#45;&gt;Node6</title>
<path fill="none" stroke="#9a32cd" stroke-dasharray="5,2" d="M153.802,-197.754C184.483,-182.209 234.476,-156.879 260.575,-143.656"/>
<polygon fill="#9a32cd" stroke="#9a32cd" points="151.912,-194.788 144.574,-202.43 155.076,-201.032 151.912,-194.788"/>
<text text-anchor="middle" x="239.658" y="-176" font-family="Helvetica,sans-Serif" font-size="10.00"> keys</text>
<text text-anchor="middle" x="239.658" y="-165" font-family="Helvetica,sans-Serif" font-size="10.00">elements</text>
</g>
<!-- Node5 -->
<g id="node5" class="node"><title>Node5</title>
<g id="a_node5"><a xlink:title="STL class. ">
<polygon fill="white" stroke="#bfbfbf" points="80.1583,-259.5 80.1583,-289.5 175.158,-289.5 175.158,-259.5 80.1583,-259.5"/>
<text text-anchor="start" x="88.1583" y="-277.5" font-family="Helvetica,sans-Serif" font-size="10.00">std::basic_string&lt;</text>
<text text-anchor="middle" x="127.658" y="-266.5" font-family="Helvetica,sans-Serif" font-size="10.00"> char &gt;</text>
</a>
</g>
</g>
<!-- Node5&#45;&gt;Node4 -->
<g id="edge4" class="edge"><title>Node5&#45;&gt;Node4</title>
<path fill="none" stroke="midnightblue" d="M127.658,-249.352C127.658,-239.513 127.658,-228.775 127.658,-221.54"/>
<polygon fill="midnightblue" stroke="midnightblue" points="124.158,-249.468 127.658,-259.468 131.158,-249.468 124.158,-249.468"/>
</g>
<!-- Node6&#45;&gt;Node2 -->
<g id="edge5" class="edge"><title>Node6&#45;&gt;Node2</title>
<path fill="none" stroke="#9a32cd" stroke-dasharray="5,2" d="M248.307,-120.281C218.601,-107.409 173.476,-87.8545 147.66,-76.6672"/>
<polygon fill="#9a32cd" stroke="#9a32cd" points="247.172,-123.604 257.739,-124.369 249.956,-117.181 247.172,-123.604"/>
<text text-anchor="middle" x="229.158" y="-98" font-family="Helvetica,sans-Serif" font-size="10.00"> Params</text>
</g>
</g>
</svg>
