<?xml version="1.0" encoding="UTF-8" standalone="no"?>
<!DOCTYPE svg PUBLIC "-//W3C//DTD SVG 1.1//EN"
 "http://www.w3.org/Graphics/SVG/1.1/DTD/svg11.dtd">
<!-- Generated by graphviz version 2.26.3 (20100126.1600)
 -->
<!-- Title: Mezzanine::WorldProxy Pages: 1 -->
<!--zoomable 789 -->
<svg id="main" version="1.1" xmlns="http://www.w3.org/2000/svg" xmlns:xlink="http://www.w3.org/1999/xlink" xml:space="preserve" onload="init(evt)">
        <defs>
                <circle id="rim" cx="0" cy="0" r="7"/>
                <circle id="rim2" cx="0" cy="0" r="3.5"/>
                <g id="zoomPlus">
                        <use xlink:href="#rim" fill="#404040">
                                <set attributeName="fill" to="#808080" begin="zoomplus.mouseover" end="zoomplus.mouseout"/>
                        </use>
                        <path d="M-4,0h8M0,-4v8" fill="none" stroke="white" stroke-width="1.5" pointer-events="none"/>
                </g>
                <g id="zoomMin">
                        <use xlink:href="#rim" fill="#404040">
                                <set attributeName="fill" to="#808080" begin="zoomminus.mouseover" end="zoomminus.mouseout"/>
                        </use>
                        <path d="M-4,0h8" fill="none" stroke="white" stroke-width="1.5" pointer-events="none"/>
                </g>
                <g id="dirArrow">
                        <path fill="none" stroke="white" stroke-width="1.5" d="M0,-3.0v7 M-2.5,-0.5L0,-3.0L2.5,-0.5"/>
                </g>
               <g id="resetDef">
                       <use xlink:href="#rim2" fill="#404040">
                               <set attributeName="fill" to="#808080" begin="reset.mouseover" end="reset.mouseout"/>
                       </use>
               </g>
        </defs>

<script type="text/javascript">
var viewWidth = 2160;
var viewHeight = 789;
var sectionId = 'dynsection-1';
</script>
<script xlink:href="svgpan.js"/>
<svg id="graph" class="graph">
<g id="viewport">
<title>Mezzanine::WorldProxy</title>
<polygon fill="white" stroke="white" points="-4,5 -4,-785 2157,-785 2157,5 -4,5"/>
<!-- Node1 -->
<g id="node1" class="node"><title>Node1</title>
<polygon fill="#bfbfbf" stroke="black" points="322,-311 322,-331 438,-331 438,-311 322,-311"/>
<text text-anchor="middle" x="380" y="-318" font-family="FreeSans" font-size="10.00">Mezzanine::WorldProxy</text>
</g>
<!-- Node16 -->
<g id="node33" class="node"><title>Node16</title>
<a xlink:href="classMezzanine_1_1Physics_1_1CollidableProxy.html" target="_top" xlink:title="This is a proxy from which physics objects that can collide with each other are handled.">
<polygon fill="white" stroke="black" points="601,-503 601,-535 701,-535 701,-503 601,-503"/>
<text text-anchor="start" x="609" y="-522" font-family="FreeSans" font-size="10.00">Mezzanine::Physics</text>
<text text-anchor="middle" x="651" y="-510" font-family="FreeSans" font-size="10.00">::CollidableProxy</text>
</a>
</g>
<!-- Node1&#45;&gt;Node16 -->
<g id="edge38" class="edge"><title>Node1&#45;&gt;Node16</title>
<path fill="none" stroke="midnightblue" d="M402.154,-337.186C453.092,-374.403 578.06,-465.708 628.923,-502.87"/>
<polygon fill="midnightblue" stroke="midnightblue" points="403.951,-334.164 393.812,-331.091 399.821,-339.817 403.951,-334.164"/>
</g>
<!-- Node2 -->
<g id="node2" class="node"><title>Node2</title>
<a xlink:href="classMezzanine_1_1TransformableObject.html" target="_top" xlink:title="This is an interface for all 3D objects that can have their full transforms manipulated.">
<polygon fill="white" stroke="black" points="130,-272 130,-304 258,-304 258,-272 130,-272"/>
<text text-anchor="start" x="138" y="-291" font-family="FreeSans" font-size="10.00">Mezzanine::Transformable</text>
<text text-anchor="middle" x="194" y="-279" font-family="FreeSans" font-size="10.00">Object</text>
</a>
</g>
<!-- Node2&#45;&gt;Node1 -->
<g id="edge2" class="edge"><title>Node2&#45;&gt;Node1</title>
<path fill="none" stroke="midnightblue" d="M268.105,-301.148C286.502,-304.412 305.928,-307.858 323.337,-310.947"/>
<polygon fill="midnightblue" stroke="midnightblue" points="268.468,-297.658 258.011,-299.357 267.245,-304.55 268.468,-297.658"/>
</g>
<!-- Node3 -->
<g id="node4" class="node"><title>Node3</title>
<a xlink:href="classMezzanine_1_1WorldObject.html" target="_top" xlink:title="This is the base class from which classes that are insertable into the physical world.">
<polygon fill="white" stroke="black" points="1453,-311 1453,-331 1573,-331 1573,-311 1453,-311"/>
<text text-anchor="middle" x="1513" y="-318" font-family="FreeSans" font-size="10.00">Mezzanine::WorldObject</text>
</a>
</g>
<!-- Node2&#45;&gt;Node3 -->
<g id="edge6" class="edge"><title>Node2&#45;&gt;Node3</title>
<path fill="none" stroke="midnightblue" d="M268.373,-280.418C302.368,-277.566 343.184,-275 380,-275 380,-275 380,-275 793,-275 1038.19,-275 1329.38,-301.896 1452.87,-314.555"/>
<polygon fill="midnightblue" stroke="midnightblue" points="267.715,-276.962 258.054,-281.31 268.318,-283.936 267.715,-276.962"/>
</g>
<!-- Node3&#45;&gt;Node1 -->
<g id="edge4" class="edge"><title>Node3&#45;&gt;Node1</title>
<path fill="none" stroke="#9a32cd" stroke-dasharray="5,2" d="M1442.8,-321C1387.66,-321 1308.94,-321 1240,-321 651,-321 651,-321 651,-321 577.604,-321 493.027,-321 438.15,-321"/>
<polygon fill="#9a32cd" stroke="#9a32cd" points="1442.82,-324.5 1452.82,-321 1442.82,-317.5 1442.82,-324.5"/>
<text text-anchor="middle" x="935" y="-324" font-family="FreeSans" font-size="10.00"> ParentObject</text>
</g>
<!-- Node4 -->
<g id="node7" class="node"><title>Node4</title>
<a xlink:href="classMezzanine_1_1World.html" target="_top" xlink:title="This class represents a world for objects to interact within.">
<polygon fill="white" stroke="black" points="1194,-229 1194,-249 1286,-249 1286,-229 1194,-229"/>
<text text-anchor="middle" x="1240" y="-236" font-family="FreeSans" font-size="10.00">Mezzanine::World</text>
</a>
</g>
<!-- Node4&#45;&gt;Node3 -->
<g id="edge8" class="edge"><title>Node4&#45;&gt;Node3</title>
<path fill="none" stroke="#9a32cd" stroke-dasharray="5,2" d="M1296.08,-245.71C1343.03,-251.775 1406.07,-261.093 1430,-270 1456.95,-280.03 1484.7,-299.229 1500.32,-310.996"/>
<polygon fill="#9a32cd" stroke="#9a32cd" points="1296.39,-242.221 1286.03,-244.429 1295.5,-249.165 1296.39,-242.221"/>
<text text-anchor="middle" x="1376" y="-273" font-family="FreeSans" font-size="10.00"> ParentWorld</text>
</g>
<!-- Node6 -->
<g id="node11" class="node"><title>Node6</title>
<a xlink:href="classMezzanine_1_1WorldManager.html" target="_top" xlink:title="This is the base class for all managers that belong to a single world instance.">
<polygon fill="white" stroke="black" points="1448.5,-215 1448.5,-235 1577.5,-235 1577.5,-215 1448.5,-215"/>
<text text-anchor="middle" x="1513" y="-222" font-family="FreeSans" font-size="10.00">Mezzanine::WorldManager</text>
</a>
</g>
<!-- Node4&#45;&gt;Node6 -->
<g id="edge22" class="edge"><title>Node4&#45;&gt;Node6</title>
<path fill="none" stroke="#9a32cd" stroke-dasharray="5,2" d="M1296.01,-236.128C1340.25,-233.859 1402.04,-230.69 1448.37,-228.314"/>
<polygon fill="#9a32cd" stroke="#9a32cd" points="1295.81,-232.633 1286,-236.641 1296.17,-239.624 1295.81,-232.633"/>
<text text-anchor="middle" x="1376" y="-238" font-family="FreeSans" font-size="10.00"> ParentWorld</text>
</g>
<!-- Node5 -->
<g id="node9" class="node"><title>Node5</title>
<polygon fill="white" stroke="#bfbfbf" points="1712.5,-186 1712.5,-206 1857.5,-206 1857.5,-186 1712.5,-186"/>
<text text-anchor="middle" x="1785" y="-193" font-family="FreeSans" font-size="10.00">std::vector&lt; WorldManager * &gt;</text>
</g>
<!-- Node5&#45;&gt;Node4 -->
<g id="edge10" class="edge"><title>Node5&#45;&gt;Node4</title>
<path fill="none" stroke="#9a32cd" stroke-dasharray="5,2" d="M1702.17,-190.343C1633.8,-186.911 1534.32,-184.769 1448,-194 1386.47,-200.58 1316.41,-217.814 1275.33,-228.944"/>
<polygon fill="#9a32cd" stroke="#9a32cd" points="1702.28,-193.853 1712.45,-190.88 1702.65,-186.863 1702.28,-193.853"/>
<text text-anchor="middle" x="1513" y="-197" font-family="FreeSans" font-size="10.00"> WorldManagers</text>
</g>
<!-- Node6&#45;&gt;Node5 -->
<g id="edge12" class="edge"><title>Node6&#45;&gt;Node5</title>
<path fill="none" stroke="#9a32cd" stroke-dasharray="5,2" d="M1587.97,-217.007C1626.66,-212.882 1673.67,-207.87 1712.06,-203.777"/>
<polygon fill="#9a32cd" stroke="#9a32cd" points="1587.38,-213.55 1577.81,-218.091 1588.12,-220.511 1587.38,-213.55"/>
<text text-anchor="middle" x="1645" y="-219" font-family="FreeSans" font-size="10.00"> elements</text>
</g>
<!-- Node17 -->
<g id="node36" class="node"><title>Node17</title>
<a xlink:href="classMezzanine_1_1Physics_1_1PhysicsManager.html" target="_top" xlink:title="This is simply a place for storing all the Physics Related functions.">
<polygon fill="white" stroke="black" points="1735,-507 1735,-539 1835,-539 1835,-507 1735,-507"/>
<text text-anchor="start" x="1743" y="-526" font-family="FreeSans" font-size="10.00">Mezzanine::Physics</text>
<text text-anchor="middle" x="1785" y="-514" font-family="FreeSans" font-size="10.00">::PhysicsManager</text>
</a>
</g>
<!-- Node6&#45;&gt;Node17 -->
<g id="edge42" class="edge"><title>Node6&#45;&gt;Node17</title>
<path fill="none" stroke="midnightblue" d="M1529.38,-242.948C1578.45,-296.705 1723.71,-455.851 1770.38,-506.986"/>
<polygon fill="midnightblue" stroke="midnightblue" points="1531.69,-240.284 1522.36,-235.258 1526.52,-245.003 1531.69,-240.284"/>
</g>
<!-- Node7 -->
<g id="node13" class="node"><title>Node7</title>
<a xlink:href="classMezzanine_1_1ManagerBase.html" target="_top" xlink:title="This is the base class from which all the Entresol and World Managers inherit.">
<polygon fill="white" stroke="black" points="1177,-191 1177,-211 1303,-211 1303,-191 1177,-191"/>
<text text-anchor="middle" x="1240" y="-198" font-family="FreeSans" font-size="10.00">Mezzanine::ManagerBase</text>
</a>
</g>
<!-- Node7&#45;&gt;Node6 -->
<g id="edge14" class="edge"><title>Node7&#45;&gt;Node6</title>
<path fill="none" stroke="midnightblue" d="M1313.48,-207.46C1355.48,-211.152 1407.66,-215.74 1448.13,-219.297"/>
<polygon fill="midnightblue" stroke="midnightblue" points="1313.59,-203.956 1303.32,-206.566 1312.97,-210.929 1313.59,-203.956"/>
</g>
<!-- Node8 -->
<g id="node15" class="node"><title>Node8</title>
<a xlink:href="classMezzanine_1_1Entresol.html" target="_top" xlink:title="This is the main entry point for the entire library.">
<polygon fill="white" stroke="black" points="884.5,-158 884.5,-178 985.5,-178 985.5,-158 884.5,-158"/>
<text text-anchor="middle" x="935" y="-165" font-family="FreeSans" font-size="10.00">Mezzanine::Entresol</text>
</a>
</g>
<!-- Node8&#45;&gt;Node7 -->
<g id="edge16" class="edge"><title>Node8&#45;&gt;Node7</title>
<path fill="none" stroke="#9a32cd" stroke-dasharray="5,2" d="M995.458,-179.201C999.696,-179.852 1003.91,-180.46 1008,-181 1064.91,-188.505 1130.07,-193.838 1176.81,-197.099"/>
<polygon fill="#9a32cd" stroke="#9a32cd" points="995.995,-175.742 985.567,-177.615 994.887,-182.654 995.995,-175.742"/>
<text text-anchor="middle" x="1083" y="-199" font-family="FreeSans" font-size="10.00"> TheEntresol</text>
</g>
<!-- Node9 -->
<g id="node17" class="node"><title>Node9</title>
<a xlink:href="classMezzanine_1_1Singleton.html" target="_top" xlink:title="Mezzanine::Singleton\l\&lt; Entresol \&gt;">
<polygon fill="white" stroke="black" points="1186.5,-140 1186.5,-172 1293.5,-172 1293.5,-140 1186.5,-140"/>
<text text-anchor="start" x="1194.5" y="-159" font-family="FreeSans" font-size="10.00">Mezzanine::Singleton</text>
<text text-anchor="middle" x="1240" y="-147" font-family="FreeSans" font-size="10.00">&lt; Entresol &gt;</text>
</a>
</g>
<!-- Node8&#45;&gt;Node9 -->
<g id="edge20" class="edge"><title>Node8&#45;&gt;Node9</title>
<path fill="none" stroke="#9a32cd" stroke-dasharray="5,2" d="M995.786,-165.608C1051.45,-163.418 1133.05,-160.208 1186.35,-158.111"/>
<polygon fill="#9a32cd" stroke="#9a32cd" points="995.562,-162.114 985.707,-166.005 995.837,-169.109 995.562,-162.114"/>
<text text-anchor="middle" x="1083" y="-169" font-family="FreeSans" font-size="10.00"> SingletonPtr</text>
</g>
<!-- Node9&#45;&gt;Node8 -->
<g id="edge18" class="edge"><title>Node9&#45;&gt;Node8</title>
<path fill="none" stroke="midnightblue" d="M1176.33,-148.716C1129.57,-144.667 1064.6,-141.755 1008,-149 994.101,-150.779 979.068,-154.39 966.276,-157.991"/>
<polygon fill="midnightblue" stroke="midnightblue" points="1176.05,-152.205 1186.32,-149.622 1176.68,-145.233 1176.05,-152.205"/>
</g>
<!-- Node10 -->
<g id="node21" class="node"><title>Node10</title>
<a xlink:title="STL class.">
<polygon fill="white" stroke="#bfbfbf" points="165.5,-509 165.5,-529 222.5,-529 222.5,-509 165.5,-509"/>
<text text-anchor="middle" x="194" y="-516" font-family="FreeSans" font-size="10.00">std::string</text>
</a>
</g>
<!-- Node10&#45;&gt;Node3 -->
<g id="edge24" class="edge"><title>Node10&#45;&gt;Node3</title>
<path fill="none" stroke="#9a32cd" stroke-dasharray="5,2" d="M225.063,-504.638C291.449,-474.728 452.777,-406.203 596,-378 960.166,-306.291 1061.06,-375.49 1430,-335 1439.44,-333.964 1449.44,-332.551 1459.1,-331.02"/>
<polygon fill="#9a32cd" stroke="#9a32cd" points="223.267,-501.609 215.606,-508.928 226.158,-507.984 223.267,-501.609"/>
<text text-anchor="middle" x="793" y="-359" font-family="FreeSans" font-size="10.00"> ObjectName</text>
</g>
<!-- Node34 -->
<g id="node80" class="node"><title>Node34</title>
<a xlink:href="classMezzanine_1_1WorldTrigger.html" target="_top" xlink:title="This is an abstract class for creating in&#45;game triggers.">
<polygon fill="white" stroke="black" points="456,-617 456,-637 578,-637 578,-617 456,-617"/>
<text text-anchor="middle" x="517" y="-624" font-family="FreeSans" font-size="10.00">Mezzanine::WorldTrigger</text>
</a>
</g>
<!-- Node10&#45;&gt;Node34 -->
<g id="edge96" class="edge"><title>Node10&#45;&gt;Node34</title>
<path fill="none" stroke="#9a32cd" stroke-dasharray="5,2" d="M232.535,-531.885C297.663,-553.661 428.151,-597.292 486.998,-616.968"/>
<polygon fill="#9a32cd" stroke="#9a32cd" points="233.258,-528.436 222.664,-528.584 231.038,-535.075 233.258,-528.436"/>
<text text-anchor="middle" x="290" y="-557" font-family="FreeSans" font-size="10.00"> Name</text>
</g>
<!-- Node37 -->
<g id="node87" class="node"><title>Node37</title>
<a xlink:href="classMezzanine_1_1Physics_1_1CollisionShape.html" target="_top" xlink:title="This is the base class for all collision shapes.">
<polygon fill="white" stroke="black" points="330,-503 330,-535 430,-535 430,-503 330,-503"/>
<text text-anchor="start" x="338" y="-522" font-family="FreeSans" font-size="10.00">Mezzanine::Physics</text>
<text text-anchor="middle" x="380" y="-510" font-family="FreeSans" font-size="10.00">::CollisionShape</text>
</a>
</g>
<!-- Node10&#45;&gt;Node37 -->
<g id="edge104" class="edge"><title>Node10&#45;&gt;Node37</title>
<path fill="none" stroke="#9a32cd" stroke-dasharray="5,2" d="M232.924,-519C261.115,-519 299.463,-519 329.934,-519"/>
<polygon fill="#9a32cd" stroke="#9a32cd" points="232.655,-515.5 222.655,-519 232.655,-522.5 232.655,-515.5"/>
<text text-anchor="middle" x="290" y="-522" font-family="FreeSans" font-size="10.00"> Name</text>
</g>
<!-- Node11 -->
<g id="node23" class="node"><title>Node11</title>
<a xlink:title="STL class.">
<polygon fill="white" stroke="#bfbfbf" points="0.5,-503 0.5,-535 91.5,-535 91.5,-503 0.5,-503"/>
<text text-anchor="start" x="8.5" y="-522" font-family="FreeSans" font-size="10.00">std::basic_string&lt;</text>
<text text-anchor="middle" x="46" y="-510" font-family="FreeSans" font-size="10.00"> char &gt;</text>
</a>
</g>
<!-- Node11&#45;&gt;Node10 -->
<g id="edge26" class="edge"><title>Node11&#45;&gt;Node10</title>
<path fill="none" stroke="midnightblue" d="M101.667,-519C123.247,-519 147.047,-519 165.078,-519"/>
<polygon fill="midnightblue" stroke="midnightblue" points="101.613,-515.5 91.6125,-519 101.612,-522.5 101.613,-515.5"/>
</g>
<!-- Node12 -->
<g id="node25" class="node"><title>Node12</title>
<polygon fill="white" stroke="#bfbfbf" points="1194,-389 1194,-421 1286,-421 1286,-389 1194,-389"/>
<text text-anchor="start" x="1202" y="-408" font-family="FreeSans" font-size="10.00">std::set&lt; Physics::</text>
<text text-anchor="middle" x="1240" y="-396" font-family="FreeSans" font-size="10.00">Collision * &gt;</text>
</g>
<!-- Node12&#45;&gt;Node3 -->
<g id="edge28" class="edge"><title>Node12&#45;&gt;Node3</title>
<path fill="none" stroke="#9a32cd" stroke-dasharray="5,2" d="M1296.34,-402.297C1335.01,-398.966 1386.93,-391.542 1430,-375 1457.6,-364.399 1485.58,-343.666 1500.97,-331.202"/>
<polygon fill="#9a32cd" stroke="#9a32cd" points="1296,-398.813 1286.3,-403.095 1296.55,-405.791 1296,-398.813"/>
<text text-anchor="middle" x="1376" y="-402" font-family="FreeSans" font-size="10.00"> CurrentCollisions</text>
</g>
<!-- Node13 -->
<g id="node27" class="node"><title>Node13</title>
<a xlink:href="classMezzanine_1_1Physics_1_1Collision.html" target="_top" xlink:title="This is an event class used to track collsions in the physics world.">
<polygon fill="white" stroke="black" points="885,-413 885,-445 985,-445 985,-413 885,-413"/>
<text text-anchor="start" x="893" y="-432" font-family="FreeSans" font-size="10.00">Mezzanine::Physics</text>
<text text-anchor="middle" x="935" y="-420" font-family="FreeSans" font-size="10.00">::Collision</text>
</a>
</g>
<!-- Node13&#45;&gt;Node12 -->
<g id="edge30" class="edge"><title>Node13&#45;&gt;Node12</title>
<path fill="none" stroke="#9a32cd" stroke-dasharray="5,2" d="M995.213,-424.262C1053.6,-419.668 1140.91,-412.797 1193.95,-408.624"/>
<polygon fill="#9a32cd" stroke="#9a32cd" points="994.718,-420.79 985.023,-425.064 995.267,-427.768 994.718,-420.79"/>
<text text-anchor="middle" x="1083" y="-426" font-family="FreeSans" font-size="10.00"> keys</text>
</g>
<!-- Node27 -->
<g id="node60" class="node"><title>Node27</title>
<polygon fill="white" stroke="#bfbfbf" points="1178.5,-487 1178.5,-519 1301.5,-519 1301.5,-487 1178.5,-487"/>
<text text-anchor="start" x="1186.5" y="-506" font-family="FreeSans" font-size="10.00">std::map&lt; CollidablePair,</text>
<text text-anchor="middle" x="1240" y="-494" font-family="FreeSans" font-size="10.00"> Collision * &gt;</text>
</g>
<!-- Node13&#45;&gt;Node27 -->
<g id="edge70" class="edge"><title>Node13&#45;&gt;Node27</title>
<path fill="none" stroke="#9a32cd" stroke-dasharray="5,2" d="M994.955,-443.547C1047.94,-456.401 1124.88,-475.069 1178.36,-488.045"/>
<polygon fill="#9a32cd" stroke="#9a32cd" points="995.566,-440.093 985.023,-441.137 993.916,-446.896 995.566,-440.093"/>
<text text-anchor="middle" x="1083" y="-484" font-family="FreeSans" font-size="10.00"> elements</text>
</g>
<!-- Node14 -->
<g id="node29" class="node"><title>Node14</title>
<polygon fill="white" stroke="#bfbfbf" points="603,-387 603,-407 699,-407 699,-387 603,-387"/>
<text text-anchor="middle" x="651" y="-394" font-family="FreeSans" font-size="10.00">std::vector&lt; Real &gt;</text>
</g>
<!-- Node14&#45;&gt;Node13 -->
<g id="edge32" class="edge"><title>Node14&#45;&gt;Node13</title>
<path fill="none" stroke="#9a32cd" stroke-dasharray="5,2" d="M709.233,-397.573C751.789,-398.722 810.771,-401.834 862,-410 869.372,-411.175 877.08,-412.769 884.609,-414.537"/>
<polygon fill="#9a32cd" stroke="#9a32cd" points="709.136,-394.07 699.055,-397.327 708.967,-401.068 709.136,-394.07"/>
<text text-anchor="middle" x="793" y="-413" font-family="FreeSans" font-size="10.00"> PenetrationDistances</text>
</g>
<!-- Node15 -->
<g id="node31" class="node"><title>Node15</title>
<a xlink:href="structMezzanine_1_1Physics_1_1CollisionInternalData.html" target="_top" xlink:title="Used to insulate the interface from the implementation details for bullet.">
<polygon fill="white" stroke="black" points="596,-425 596,-457 706,-457 706,-425 596,-425"/>
<text text-anchor="start" x="604" y="-444" font-family="FreeSans" font-size="10.00">Mezzanine::Physics</text>
<text text-anchor="middle" x="651" y="-432" font-family="FreeSans" font-size="10.00">::CollisionInternalData</text>
</a>
</g>
<!-- Node15&#45;&gt;Node13 -->
<g id="edge34" class="edge"><title>Node15&#45;&gt;Node13</title>
<path fill="none" stroke="#9a32cd" stroke-dasharray="5,2" d="M716.34,-430.682C718.924,-430.424 721.484,-430.194 724,-430 778.785,-425.765 841.81,-426.15 884.61,-427.194"/>
<polygon fill="#9a32cd" stroke="#9a32cd" points="715.855,-427.215 706.307,-431.806 716.634,-434.171 715.855,-427.215"/>
<text text-anchor="middle" x="793" y="-433" font-family="FreeSans" font-size="10.00"> InternalData</text>
</g>
<!-- Node16&#45;&gt;Node13 -->
<g id="edge36" class="edge"><title>Node16&#45;&gt;Node13</title>
<path fill="none" stroke="#9a32cd" stroke-dasharray="5,2" d="M675.598,-496.201C688.96,-485.069 706.332,-472.491 724,-465 781.246,-440.728 800.724,-452.562 862,-442 869.358,-440.732 877.129,-439.371 884.748,-438.024"/>
<polygon fill="#9a32cd" stroke="#9a32cd" points="673.125,-493.711 667.829,-502.887 677.692,-499.017 673.125,-493.711"/>
<text text-anchor="middle" x="793" y="-480" font-family="FreeSans" font-size="10.00"> ProxyA</text>
<text text-anchor="middle" x="793" y="-468" font-family="FreeSans" font-size="10.00">ProxyB</text>
</g>
<!-- Node25 -->
<g id="node54" class="node"><title>Node25</title>
<a xlink:href="classMezzanine_1_1Physics_1_1RigidProxy.html" target="_top" xlink:title="This is a proxy from which rigid body proxys are handled.">
<polygon fill="white" stroke="black" points="885,-661 885,-693 985,-693 985,-661 885,-661"/>
<text text-anchor="start" x="893" y="-680" font-family="FreeSans" font-size="10.00">Mezzanine::Physics</text>
<text text-anchor="middle" x="935" y="-668" font-family="FreeSans" font-size="10.00">::RigidProxy</text>
</a>
</g>
<!-- Node16&#45;&gt;Node25 -->
<g id="edge62" class="edge"><title>Node16&#45;&gt;Node25</title>
<path fill="none" stroke="midnightblue" d="M668.174,-543.35C681.63,-560.892 701.751,-584.019 724,-599 773.889,-632.592 840.112,-653.995 884.963,-665.718"/>
<polygon fill="midnightblue" stroke="midnightblue" points="670.911,-541.166 662.124,-535.247 665.303,-545.354 670.911,-541.166"/>
</g>
<!-- Node26 -->
<g id="node57" class="node"><title>Node26</title>
<polygon fill="white" stroke="#bfbfbf" points="1008.5,-560 1008.5,-580 1157.5,-580 1157.5,-560 1008.5,-560"/>
<text text-anchor="middle" x="1083" y="-567" font-family="FreeSans" font-size="10.00">std::vector&lt; CollidableProxy * &gt;</text>
</g>
<!-- Node16&#45;&gt;Node26 -->
<g id="edge66" class="edge"><title>Node16&#45;&gt;Node26</title>
<path fill="none" stroke="#9a32cd" stroke-dasharray="5,2" d="M683.388,-540.402C695.606,-547.349 709.955,-554.233 724,-558 819.619,-583.646 934.7,-582.099 1008.34,-577.223"/>
<polygon fill="#9a32cd" stroke="#9a32cd" points="684.887,-537.222 674.501,-535.127 681.314,-543.241 684.887,-537.222"/>
<text text-anchor="middle" x="793" y="-581" font-family="FreeSans" font-size="10.00"> elements</text>
</g>
<!-- Node28 -->
<g id="node63" class="node"><title>Node28</title>
<a xlink:href="classMezzanine_1_1Physics_1_1CollidablePair.html" target="_top" xlink:title="This is a helper class for storing pairs of collidable proxies in associative containers.">
<polygon fill="white" stroke="black" points="885,-519 885,-551 985,-551 985,-519 885,-519"/>
<text text-anchor="start" x="893" y="-538" font-family="FreeSans" font-size="10.00">Mezzanine::Physics</text>
<text text-anchor="middle" x="935" y="-526" font-family="FreeSans" font-size="10.00">::CollidablePair</text>
</a>
</g>
<!-- Node16&#45;&gt;Node28 -->
<g id="edge74" class="edge"><title>Node16&#45;&gt;Node28</title>
<path fill="none" stroke="#9a32cd" stroke-dasharray="5,2" d="M711.144,-522.388C762.797,-525.298 836.394,-529.445 884.904,-532.178"/>
<polygon fill="#9a32cd" stroke="#9a32cd" points="711.301,-518.892 701.12,-521.824 710.907,-525.881 711.301,-518.892"/>
<text text-anchor="middle" x="793" y="-545" font-family="FreeSans" font-size="10.00"> ProxyA</text>
<text text-anchor="middle" x="793" y="-533" font-family="FreeSans" font-size="10.00">ProxyB</text>
</g>
<!-- Node17&#45;&gt;Node16 -->
<g id="edge40" class="edge"><title>Node17&#45;&gt;Node16</title>
<path fill="none" stroke="#9a32cd" stroke-dasharray="5,2" d="M1724.8,-515.698C1714.52,-514.459 1703.95,-513.189 1694,-512 1390.75,-475.788 1312.35,-446.589 1008,-472 949.518,-476.883 784.797,-499.884 701.123,-511.801"/>
<polygon fill="#9a32cd" stroke="#9a32cd" points="1724.59,-519.198 1734.94,-516.922 1725.43,-512.249 1724.59,-519.198"/>
<text text-anchor="middle" x="1240" y="-468" font-family="FreeSans" font-size="10.00"> Manager</text>
</g>
<!-- Node31 -->
<g id="node70" class="node"><title>Node31</title>
<a xlink:href="classMezzanine_1_1Physics_1_1DebugDrawWorkUnit.html" target="_top" xlink:title="This is a Mezzanine::Threading::iWorkUnit for the updating of the physics debug drawer.">
<polygon fill="white" stroke="black" points="2024,-489 2024,-521 2134,-521 2134,-489 2024,-489"/>
<text text-anchor="start" x="2032" y="-508" font-family="FreeSans" font-size="10.00">Mezzanine::Physics</text>
<text text-anchor="middle" x="2079" y="-496" font-family="FreeSans" font-size="10.00">::DebugDrawWorkUnit</text>
</a>
</g>
<!-- Node17&#45;&gt;Node31 -->
<g id="edge84" class="edge"><title>Node17&#45;&gt;Node31</title>
<path fill="none" stroke="#9a32cd" stroke-dasharray="5,2" d="M1845.27,-507.841C1855.47,-505.828 1865.99,-504.087 1876,-503 1925.76,-497.597 1982.77,-498.803 2023.69,-500.949"/>
<polygon fill="#9a32cd" stroke="#9a32cd" points="1844.3,-504.468 1835.22,-509.93 1845.72,-511.322 1844.3,-504.468"/>
<text text-anchor="middle" x="1932" y="-506" font-family="FreeSans" font-size="10.00"> TargetManager</text>
</g>
<!-- Node32 -->
<g id="node74" class="node"><title>Node32</title>
<a xlink:href="classMezzanine_1_1Physics_1_1WorldTriggerUpdateWorkUnit.html" target="_top" xlink:title="This is a Mezzanine::Threading::iWorkUnit for the updating of WorldTriggers.">
<polygon fill="white" stroke="black" points="2006,-419 2006,-451 2152,-451 2152,-419 2006,-419"/>
<text text-anchor="start" x="2014" y="-438" font-family="FreeSans" font-size="10.00">Mezzanine::Physics</text>
<text text-anchor="middle" x="2079" y="-426" font-family="FreeSans" font-size="10.00">::WorldTriggerUpdateWorkUnit</text>
</a>
</g>
<!-- Node17&#45;&gt;Node32 -->
<g id="edge90" class="edge"><title>Node17&#45;&gt;Node32</title>
<path fill="none" stroke="#9a32cd" stroke-dasharray="5,2" d="M1802.1,-498.809C1818.4,-478.032 1844.99,-449.51 1876,-437 1916.69,-420.581 1965.82,-419.659 2005.55,-423.044"/>
<polygon fill="#9a32cd" stroke="#9a32cd" points="1799.23,-496.812 1795.97,-506.894 1804.8,-501.042 1799.23,-496.812"/>
<text text-anchor="middle" x="1932" y="-440" font-family="FreeSans" font-size="10.00"> TargetManager</text>
</g>
<!-- Node18 -->
<g id="node39" class="node"><title>Node18</title>
<a xlink:href="classMezzanine_1_1Threading_1_1ThreadSpecificStorage.html" target="_top" xlink:title="A thread specific collection of double&#45;buffered and algorithm specific resources.">
<polygon fill="white" stroke="black" points="1453.5,-621 1453.5,-653 1572.5,-653 1572.5,-621 1453.5,-621"/>
<text text-anchor="start" x="1461.5" y="-640" font-family="FreeSans" font-size="10.00">Mezzanine::Threading</text>
<text text-anchor="middle" x="1513" y="-628" font-family="FreeSans" font-size="10.00">::ThreadSpecificStorage</text>
</a>
</g>
<!-- Node18&#45;&gt;Node17 -->
<g id="edge44" class="edge"><title>Node18&#45;&gt;Node17</title>
<path fill="none" stroke="#9a32cd" stroke-dasharray="5,2" d="M1582.57,-626.537C1617.21,-619.647 1659.04,-608.725 1694,-592 1722.62,-578.31 1751.01,-554.779 1768.28,-539.057"/>
<polygon fill="#9a32cd" stroke="#9a32cd" points="1581.7,-623.14 1572.53,-628.461 1583.02,-630.015 1581.7,-623.14"/>
<text text-anchor="middle" x="1645" y="-626" font-family="FreeSans" font-size="10.00"> ThreadResources</text>
</g>
<!-- Node19 -->
<g id="node41" class="node"><title>Node19</title>
<a xlink:href="classMezzanine_1_1Threading_1_1DefaultWorkUnit.html" target="_top" xlink:title="Default implementation of WorkUnit. This represents on piece of work through time.">
<polygon fill="white" stroke="black" points="1458,-78 1458,-110 1568,-110 1568,-78 1458,-78"/>
<text text-anchor="start" x="1466" y="-97" font-family="FreeSans" font-size="10.00">Mezzanine::Threading</text>
<text text-anchor="middle" x="1513" y="-85" font-family="FreeSans" font-size="10.00">::DefaultWorkUnit</text>
</a>
</g>
<!-- Node19&#45;&gt;Node17 -->
<g id="edge46" class="edge"><title>Node19&#45;&gt;Node17</title>
<path fill="none" stroke="#9a32cd" stroke-dasharray="5,2" d="M1560.02,-114.061C1607.35,-135.119 1675.87,-168.265 1694,-191 1734.62,-241.932 1772.05,-446.873 1782.26,-506.593"/>
<polygon fill="#9a32cd" stroke="#9a32cd" points="1561.42,-110.853 1550.86,-110.017 1558.6,-117.257 1561.42,-110.853"/>
<text text-anchor="middle" x="1645" y="-194" font-family="FreeSans" font-size="10.00"> SimulationWork</text>
</g>
<!-- Node19&#45;&gt;Node31 -->
<g id="edge82" class="edge"><title>Node19&#45;&gt;Node31</title>
<path fill="none" stroke="midnightblue" d="M1578.54,-93.6988C1653.81,-96.6774 1777.27,-112.149 1858,-177 1952.58,-252.971 1935.62,-307.579 1988,-417 1996.94,-435.687 1992.54,-444.253 2006,-460 2016.16,-471.881 2030.27,-481.587 2043.37,-488.902"/>
<polygon fill="midnightblue" stroke="midnightblue" points="1578.36,-90.1909 1568.25,-93.3575 1578.13,-97.1871 1578.36,-90.1909"/>
</g>
<!-- Node19&#45;&gt;Node32 -->
<g id="edge88" class="edge"><title>Node19&#45;&gt;Node32</title>
<path fill="none" stroke="midnightblue" d="M1570.5,-75.0609C1667.71,-46.9638 1865.84,-7.10177 1988,-102 2039.83,-142.259 2069.58,-357.336 2077.09,-418.665"/>
<polygon fill="midnightblue" stroke="midnightblue" points="1569.45,-71.7215 1560.85,-77.9082 1571.43,-78.4354 1569.45,-71.7215"/>
</g>
<!-- Node20 -->
<g id="node43" class="node"><title>Node20</title>
<a xlink:href="classMezzanine_1_1Threading_1_1iWorkUnit.html" target="_top" xlink:title="Interface of a WorkUnit. This represents on piece of work through time.">
<polygon fill="white" stroke="black" points="880,-47 880,-79 990,-79 990,-47 880,-47"/>
<text text-anchor="start" x="888" y="-66" font-family="FreeSans" font-size="10.00">Mezzanine::Threading</text>
<text text-anchor="middle" x="935" y="-54" font-family="FreeSans" font-size="10.00">::iWorkUnit</text>
</a>
</g>
<!-- Node20&#45;&gt;Node19 -->
<g id="edge48" class="edge"><title>Node20&#45;&gt;Node19</title>
<path fill="none" stroke="midnightblue" d="M1000.42,-72.0604C1048.82,-78.4069 1116.39,-86.5243 1176,-91 1240.74,-95.8616 1257.08,-94.8887 1322,-96 1369.99,-96.8216 1382,-96.5782 1430,-96 1438.94,-95.8924 1448.41,-95.7195 1457.64,-95.5194"/>
<polygon fill="midnightblue" stroke="midnightblue" points="1000.77,-68.5758 990.396,-70.735 999.851,-75.5155 1000.77,-68.5758"/>
</g>
<!-- Node21 -->
<g id="node45" class="node"><title>Node21</title>
<polygon fill="white" stroke="#bfbfbf" points="1177.5,-0 1177.5,-32 1302.5,-32 1302.5,-0 1177.5,-0"/>
<text text-anchor="start" x="1185.5" y="-19" font-family="FreeSans" font-size="10.00">std::vector&lt; Mezzanine</text>
<text text-anchor="middle" x="1240" y="-7" font-family="FreeSans" font-size="10.00">::Threading::iWorkUnit * &gt;</text>
</g>
<!-- Node20&#45;&gt;Node21 -->
<g id="edge52" class="edge"><title>Node20&#45;&gt;Node21</title>
<path fill="none" stroke="#9a32cd" stroke-dasharray="5,2" d="M1000.41,-52.9198C1052.75,-44.8546 1125.68,-33.6173 1177.29,-25.6639"/>
<polygon fill="#9a32cd" stroke="#9a32cd" points="999.583,-49.5064 990.233,-54.4887 1000.65,-56.4247 999.583,-49.5064"/>
<text text-anchor="middle" x="1083" y="-55" font-family="FreeSans" font-size="10.00"> elements</text>
</g>
<!-- Node21&#45;&gt;Node19 -->
<g id="edge50" class="edge"><title>Node21&#45;&gt;Node19</title>
<path fill="none" stroke="#9a32cd" stroke-dasharray="5,2" d="M1312.71,-28.6755C1348.48,-35.7646 1391.96,-45.6717 1430,-58 1446.88,-63.4718 1465.03,-71.1273 1480.04,-77.9725"/>
<polygon fill="#9a32cd" stroke="#9a32cd" points="1313.33,-25.2295 1302.84,-26.7511 1311.99,-32.1001 1313.33,-25.2295"/>
<text text-anchor="middle" x="1376" y="-61" font-family="FreeSans" font-size="10.00"> Dependencies</text>
</g>
<!-- Node22 -->
<g id="node48" class="node"><title>Node22</title>
<a xlink:href="structMezzanine_1_1DefaultRollingAverage.html" target="_top" xlink:title="Mezzanine::DefaultRolling\lAverage\&lt; Whole \&gt;">
<polygon fill="white" stroke="black" points="1176.5,-50 1176.5,-82 1303.5,-82 1303.5,-50 1176.5,-50"/>
<text text-anchor="start" x="1184.5" y="-69" font-family="FreeSans" font-size="10.00">Mezzanine::DefaultRolling</text>
<text text-anchor="middle" x="1240" y="-57" font-family="FreeSans" font-size="10.00">Average&lt; Whole &gt;</text>
</a>
</g>
<!-- Node22&#45;&gt;Node19 -->
<g id="edge54" class="edge"><title>Node22&#45;&gt;Node19</title>
<path fill="none" stroke="#9a32cd" stroke-dasharray="5,2" d="M1313.99,-72.5692C1349.16,-75.804 1391.77,-79.8868 1430,-84 1438.95,-84.9626 1448.43,-86.0455 1457.66,-87.134"/>
<polygon fill="#9a32cd" stroke="#9a32cd" points="1314.09,-69.0631 1303.81,-71.6368 1313.45,-76.034 1314.09,-69.0631"/>
<text text-anchor="middle" x="1376" y="-87" font-family="FreeSans" font-size="10.00"> PerformanceLog</text>
</g>
<!-- Node23 -->
<g id="node50" class="node"><title>Node23</title>
<polygon fill="white" stroke="#bfbfbf" points="1450,-721 1450,-741 1576,-741 1576,-721 1450,-721"/>
<text text-anchor="middle" x="1513" y="-728" font-family="FreeSans" font-size="10.00">std::vector&lt; Constraint * &gt;</text>
</g>
<!-- Node23&#45;&gt;Node17 -->
<g id="edge56" class="edge"><title>Node23&#45;&gt;Node17</title>
<path fill="none" stroke="#9a32cd" stroke-dasharray="5,2" d="M1586.55,-728.726C1622,-724.356 1663.36,-714.097 1694,-691 1746.31,-651.565 1772.07,-572.986 1781.11,-539.131"/>
<polygon fill="#9a32cd" stroke="#9a32cd" points="1585.8,-725.287 1576.24,-729.854 1586.56,-732.245 1585.8,-725.287"/>
<text text-anchor="middle" x="1645" y="-730" font-family="FreeSans" font-size="10.00"> Constraints</text>
</g>
<!-- Node24 -->
<g id="node52" class="node"><title>Node24</title>
<a xlink:href="classMezzanine_1_1Physics_1_1Constraint.html" target="_top" xlink:title="This is the base class for all constraints supported.">
<polygon fill="white" stroke="black" points="1190,-701 1190,-733 1290,-733 1290,-701 1190,-701"/>
<text text-anchor="start" x="1198" y="-720" font-family="FreeSans" font-size="10.00">Mezzanine::Physics</text>
<text text-anchor="middle" x="1240" y="-708" font-family="FreeSans" font-size="10.00">::Constraint</text>
</a>
</g>
<!-- Node24&#45;&gt;Node23 -->
<g id="edge58" class="edge"><title>Node24&#45;&gt;Node23</title>
<path fill="none" stroke="#9a32cd" stroke-dasharray="5,2" d="M1300.14,-720.084C1344.49,-722.359 1404.72,-725.447 1449.79,-727.758"/>
<polygon fill="#9a32cd" stroke="#9a32cd" points="1300.24,-716.585 1290.07,-719.568 1299.88,-723.575 1300.24,-716.585"/>
<text text-anchor="middle" x="1376" y="-729" font-family="FreeSans" font-size="10.00"> elements</text>
</g>
<!-- Node25&#45;&gt;Node24 -->
<g id="edge60" class="edge"><title>Node25&#45;&gt;Node24</title>
<path fill="none" stroke="#9a32cd" stroke-dasharray="5,2" d="M994.968,-684.865C1051.91,-692.333 1136.53,-703.43 1189.95,-710.436"/>
<polygon fill="#9a32cd" stroke="#9a32cd" points="995.393,-681.391 985.023,-683.56 994.483,-688.331 995.393,-681.391"/>
<text text-anchor="middle" x="1083" y="-720" font-family="FreeSans" font-size="10.00"> ProxA</text>
<text text-anchor="middle" x="1083" y="-708" font-family="FreeSans" font-size="10.00">ProxB</text>
</g>
<!-- Node26&#45;&gt;Node17 -->
<g id="edge64" class="edge"><title>Node26&#45;&gt;Node17</title>
<path fill="none" stroke="#9a32cd" stroke-dasharray="5,2" d="M1168.18,-564.297C1316.08,-554.395 1615.95,-534.318 1734.83,-526.359"/>
<polygon fill="#9a32cd" stroke="#9a32cd" points="1167.54,-560.832 1157.79,-564.992 1168.01,-567.817 1167.54,-560.832"/>
<text text-anchor="middle" x="1376" y="-556" font-family="FreeSans" font-size="10.00"> Proxies</text>
</g>
<!-- Node27&#45;&gt;Node17 -->
<g id="edge68" class="edge"><title>Node27&#45;&gt;Node17</title>
<path fill="none" stroke="#9a32cd" stroke-dasharray="5,2" d="M1311.92,-505.639C1424,-509.752 1637.53,-517.588 1734.66,-521.153"/>
<polygon fill="#9a32cd" stroke="#9a32cd" points="1311.84,-502.134 1301.72,-505.265 1311.59,-509.13 1311.84,-502.134"/>
<text text-anchor="middle" x="1513" y="-518" font-family="FreeSans" font-size="10.00"> Collisions</text>
</g>
<!-- Node28&#45;&gt;Node27 -->
<g id="edge72" class="edge"><title>Node28&#45;&gt;Node27</title>
<path fill="none" stroke="#9a32cd" stroke-dasharray="5,2" d="M995.286,-528.675C1048.26,-523.118 1124.99,-515.067 1178.36,-509.467"/>
<polygon fill="#9a32cd" stroke="#9a32cd" points="994.603,-525.227 985.023,-529.752 995.334,-532.189 994.603,-525.227"/>
<text text-anchor="middle" x="1083" y="-530" font-family="FreeSans" font-size="10.00"> keys</text>
</g>
<!-- Node29 -->
<g id="node66" class="node"><title>Node29</title>
<a xlink:href="classMezzanine_1_1debug_1_1InternalDebugDrawer.html" target="_top" xlink:title="This is used to draw wireframse for the Physics subsystem.">
<polygon fill="white" stroke="black" points="1448,-671 1448,-703 1578,-703 1578,-671 1448,-671"/>
<text text-anchor="start" x="1456" y="-690" font-family="FreeSans" font-size="10.00">Mezzanine::debug::Internal</text>
<text text-anchor="middle" x="1513" y="-678" font-family="FreeSans" font-size="10.00">DebugDrawer</text>
</a>
</g>
<!-- Node29&#45;&gt;Node17 -->
<g id="edge76" class="edge"><title>Node29&#45;&gt;Node17</title>
<path fill="none" stroke="#9a32cd" stroke-dasharray="5,2" d="M1588.3,-678.174C1622.67,-671.459 1662.62,-659.669 1694,-639 1733.33,-613.095 1763.14,-564.503 1776.79,-539.219"/>
<polygon fill="#9a32cd" stroke="#9a32cd" points="1587.49,-674.763 1578.29,-680.018 1588.76,-681.647 1587.49,-674.763"/>
<text text-anchor="middle" x="1645" y="-678" font-family="FreeSans" font-size="10.00"> BulletDrawer</text>
</g>
<!-- Node30 -->
<g id="node68" class="node"><title>Node30</title>
<polygon fill="white" stroke="#bfbfbf" points="1201.5,-663 1201.5,-683 1278.5,-683 1278.5,-663 1201.5,-663"/>
<text text-anchor="middle" x="1240" y="-670" font-family="FreeSans" font-size="10.00">btIDebugDraw</text>
</g>
<!-- Node30&#45;&gt;Node29 -->
<g id="edge78" class="edge"><title>Node30&#45;&gt;Node29</title>
<path fill="none" stroke="midnightblue" d="M1288.77,-675.501C1333.15,-677.777 1398.98,-681.153 1447.84,-683.659"/>
<polygon fill="midnightblue" stroke="midnightblue" points="1288.7,-671.993 1278.54,-674.976 1288.34,-678.984 1288.7,-671.993"/>
</g>
<!-- Node31&#45;&gt;Node17 -->
<g id="edge80" class="edge"><title>Node31&#45;&gt;Node17</title>
<path fill="none" stroke="#9a32cd" stroke-dasharray="5,2" d="M2013.72,-515.265C2005.09,-516.347 1996.34,-517.304 1988,-518 1936.01,-522.339 1876.28,-523.332 1835.14,-523.398"/>
<polygon fill="#9a32cd" stroke="#9a32cd" points="2014.32,-518.717 2023.78,-513.946 2013.41,-511.777 2014.32,-518.717"/>
<text text-anchor="middle" x="1932" y="-526" font-family="FreeSans" font-size="10.00"> DebugDrawWork</text>
</g>
<!-- Node32&#45;&gt;Node17 -->
<g id="edge86" class="edge"><title>Node32&#45;&gt;Node17</title>
<path fill="none" stroke="#9a32cd" stroke-dasharray="5,2" d="M1995.98,-451.054C1958.83,-459.146 1914.77,-470.015 1876,-483 1856.2,-489.631 1834.79,-498.93 1817.71,-506.893"/>
<polygon fill="#9a32cd" stroke="#9a32cd" points="1996.72,-454.474 2005.76,-448.951 1995.25,-447.631 1996.72,-454.474"/>
<text text-anchor="middle" x="1932" y="-486" font-family="FreeSans" font-size="10.00"> WorldTriggerUpdateWork</text>
</g>
<!-- Node33 -->
<g id="node78" class="node"><title>Node33</title>
<polygon fill="white" stroke="#bfbfbf" points="724.5,-718 724.5,-738 861.5,-738 861.5,-718 724.5,-718"/>
<text text-anchor="middle" x="793" y="-725" font-family="FreeSans" font-size="10.00">std::vector&lt; WorldTrigger * &gt;</text>
</g>
<!-- Node33&#45;&gt;Node17 -->
<g id="edge92" class="edge"><title>Node33&#45;&gt;Node17</title>
<path fill="none" stroke="#9a32cd" stroke-dasharray="5,2" d="M846.478,-740.152C904.428,-752.241 999.776,-769 1083,-769 1083,-769 1083,-769 1513,-769 1594.27,-769 1629.83,-792.869 1694,-743 1761.07,-690.88 1779.1,-580.673 1783.6,-539.221"/>
<polygon fill="#9a32cd" stroke="#9a32cd" points="846.963,-736.677 836.455,-738.03 845.513,-743.525 846.963,-736.677"/>
<text text-anchor="middle" x="1240" y="-772" font-family="FreeSans" font-size="10.00"> Triggers</text>
</g>
<!-- Node34&#45;&gt;Node33 -->
<g id="edge94" class="edge"><title>Node34&#45;&gt;Node33</title>
<path fill="none" stroke="#9a32cd" stroke-dasharray="5,2" d="M554.042,-640.555C610.253,-661.125 715.814,-699.754 765.638,-717.987"/>
<polygon fill="#9a32cd" stroke="#9a32cd" points="555.067,-637.203 544.473,-637.054 552.661,-643.777 555.067,-637.203"/>
<text text-anchor="middle" x="651" y="-698" font-family="FreeSans" font-size="10.00"> elements</text>
</g>
<!-- Node35 -->
<g id="node83" class="node"><title>Node35</title>
<a xlink:href="classMezzanine_1_1Physics_1_1ManagerConstructionInfo.html" target="_top" xlink:title="This is a helper class storing information needed for the construction of a PhysicsManager.">
<polygon fill="white" stroke="black" points="1448.5,-571 1448.5,-603 1577.5,-603 1577.5,-571 1448.5,-571"/>
<text text-anchor="start" x="1456.5" y="-590" font-family="FreeSans" font-size="10.00">Mezzanine::Physics</text>
<text text-anchor="middle" x="1513" y="-578" font-family="FreeSans" font-size="10.00">::ManagerConstructionInfo</text>
</a>
</g>
<!-- Node35&#45;&gt;Node17 -->
<g id="edge98" class="edge"><title>Node35&#45;&gt;Node17</title>
<path fill="none" stroke="#9a32cd" stroke-dasharray="5,2" d="M1587.73,-577.927C1620.63,-573.085 1659.56,-566.196 1694,-557 1711.76,-552.258 1730.89,-545.39 1747.01,-539.067"/>
<polygon fill="#9a32cd" stroke="#9a32cd" points="1587.13,-574.478 1577.73,-579.364 1588.12,-581.407 1587.13,-574.478"/>
<text text-anchor="middle" x="1645" y="-579" font-family="FreeSans" font-size="10.00"> WorldConstructionInfo</text>
</g>
<!-- Node36 -->
<g id="node85" class="node"><title>Node36</title>
<a xlink:href="classMezzanine_1_1Vector3.html" target="_top" xlink:title="This is used to represent a point in space, or a vector through space.">
<polygon fill="white" stroke="black" points="1190,-577 1190,-597 1290,-597 1290,-577 1190,-577"/>
<text text-anchor="middle" x="1240" y="-584" font-family="FreeSans" font-size="10.00">Mezzanine::Vector3</text>
</a>
</g>
<!-- Node36&#45;&gt;Node35 -->
<g id="edge100" class="edge"><title>Node36&#45;&gt;Node35</title>
<path fill="none" stroke="#9a32cd" stroke-dasharray="5,2" d="M1300.31,-587C1344.16,-587 1403.45,-587 1448.29,-587"/>
<polygon fill="#9a32cd" stroke="#9a32cd" points="1300.07,-583.5 1290.07,-587 1300.07,-590.5 1300.07,-583.5"/>
<text text-anchor="middle" x="1376" y="-614" font-family="FreeSans" font-size="10.00"> GeographyLowerBounds</text>
<text text-anchor="middle" x="1376" y="-602" font-family="FreeSans" font-size="10.00">GeographyUpperBounds</text>
<text text-anchor="middle" x="1376" y="-590" font-family="FreeSans" font-size="10.00">Gravity</text>
</g>
<!-- Node37&#45;&gt;Node16 -->
<g id="edge102" class="edge"><title>Node37&#45;&gt;Node16</title>
<path fill="none" stroke="#9a32cd" stroke-dasharray="5,2" d="M440.024,-519C488.303,-519 555.354,-519 600.812,-519"/>
<polygon fill="#9a32cd" stroke="#9a32cd" points="440.021,-515.5 430.021,-519 440.021,-522.5 440.021,-515.5"/>
<text text-anchor="middle" x="517" y="-522" font-family="FreeSans" font-size="10.00"> ProxyShape</text>
</g>
</g>
</svg>
        <g id="navigator" transform="translate(0 0)" fill="#404254">
                <rect fill="#f2f5e9" fill-opacity="0.5" stroke="#606060" stroke-width=".5" x="0" y="0" width="60" height="60"/>
                <use id="zoomplus" xlink:href="#zoomPlus" x="17" y="9" onmousedown="handleZoom(evt,'in')"/>
                <use id="zoomminus" xlink:href="#zoomMin" x="42" y="9" onmousedown="handleZoom(evt,'out')"/>
                <use id="reset" xlink:href="#resetDef" x="30" y="36" onmousedown="handleReset()"/>
                <g id="arrowUp" xlink:href="#dirArrow" transform="translate(30 24)" onmousedown="handlePan(0,-1)">
                  <use xlink:href="#rim" fill="#404040">
                        <set attributeName="fill" to="#808080" begin="arrowUp.mouseover" end="arrowUp.mouseout"/>
                  </use>
                  <path fill="none" stroke="white" stroke-width="1.5" d="M0,-3.0v7 M-2.5,-0.5L0,-3.0L2.5,-0.5"/>
                </g>
                <g id="arrowRight" xlink:href="#dirArrow" transform="rotate(90) translate(36 -43)" onmousedown="handlePan(1,0)">
                  <use xlink:href="#rim" fill="#404040">
                        <set attributeName="fill" to="#808080" begin="arrowRight.mouseover" end="arrowRight.mouseout"/>
                  </use>
                  <path fill="none" stroke="white" stroke-width="1.5" d="M0,-3.0v7 M-2.5,-0.5L0,-3.0L2.5,-0.5"/>
                </g>
                <g id="arrowDown" xlink:href="#dirArrow" transform="rotate(180) translate(-30 -48)" onmousedown="handlePan(0,1)">
                  <use xlink:href="#rim" fill="#404040">
                        <set attributeName="fill" to="#808080" begin="arrowDown.mouseover" end="arrowDown.mouseout"/>
                  </use>
                  <path fill="none" stroke="white" stroke-width="1.5" d="M0,-3.0v7 M-2.5,-0.5L0,-3.0L2.5,-0.5"/>
                </g>
                <g id="arrowLeft" xlink:href="#dirArrow" transform="rotate(270) translate(-36 17)" onmousedown="handlePan(-1,0)">
                  <use xlink:href="#rim" fill="#404040">
                        <set attributeName="fill" to="#808080" begin="arrowLeft.mouseover" end="arrowLeft.mouseout"/>
                  </use>
                  <path fill="none" stroke="white" stroke-width="1.5" d="M0,-3.0v7 M-2.5,-0.5L0,-3.0L2.5,-0.5"/>
                </g>
        </g>
        <svg viewBox="0 0 15 15" width="100%" height="30px" preserveAspectRatio="xMaxYMin meet">
         <g id="arrow_out" transform="scale(0.3 0.3)">
          <a xlink:href="classMezzanine_1_1WorldProxy__coll__graph_org.svg" target="_base">
           <rect id="button" ry="5" rx="5" y="6" x="6" height="38" width="38"
                fill="#f2f5e9" fill-opacity="0.5" stroke="#606060" stroke-width="1.0"/>
           <path id="arrow"
             d="M 11.500037,31.436501 C 11.940474,20.09759 22.043105,11.32322 32.158766,21.979434 L 37.068811,17.246167 C 37.068811,17.246167 37.088388,32 37.088388,32 L 22.160133,31.978069 C 22.160133,31.978069 26.997745,27.140456 26.997745,27.140456 C 18.528582,18.264221 13.291696,25.230495 11.500037,31.436501 z"
             style="fill:#404040;"/>
          </a>
         </g>
        </svg>
</svg>
