<?xml version="1.0" encoding="UTF-8" standalone="no"?>
<!DOCTYPE svg PUBLIC "-//W3C//DTD SVG 1.1//EN"
 "http://www.w3.org/Graphics/SVG/1.1/DTD/svg11.dtd">
<!-- Generated by graphviz version 2.26.3 (20100126.1600)
 -->
<!-- Title: Mezzanine::UI::RenderableContainer Pages: 1 -->
<svg width="178pt" height="182pt"
 viewBox="0.00 0.00 178.00 182.00" xmlns="http://www.w3.org/2000/svg" xmlns:xlink="http://www.w3.org/1999/xlink">
<g id="graph1" class="graph" transform="scale(1 1) rotate(0) translate(4 178)">
<title>Mezzanine::UI::RenderableContainer</title>
<polygon fill="white" stroke="white" points="-4,5 -4,-178 175,-178 175,5 -4,5"/>
<!-- Node1 -->
<g id="node1" class="node"><title>Node1</title>
<polygon fill="#bfbfbf" stroke="black" points="20,-1 20,-33 150,-33 150,-1 20,-1"/>
<text text-anchor="start" x="28" y="-20" font-family="FreeSans" font-size="10.00">Mezzanine::UI::Renderable</text>
<text text-anchor="middle" x="85" y="-8" font-family="FreeSans" font-size="10.00">Container</text>
</g>
<!-- Node2 -->
<g id="node2" class="node"><title>Node2</title>
<a xlink:href="classMezzanine_1_1UI_1_1ExtendedRenderableFactory.xhtml" target="_top" xlink:title="This class is responsible for the creation and destruction of all UI renderables.">
<polygon fill="white" stroke="black" points="0,-71 0,-103 170,-103 170,-71 0,-71"/>
<text text-anchor="start" x="8" y="-90" font-family="FreeSans" font-size="10.00">Mezzanine::UI::ExtendedRenderable</text>
<text text-anchor="middle" x="85" y="-78" font-family="FreeSans" font-size="10.00">Factory</text>
</a>
</g>
<!-- Node2&#45;&gt;Node1 -->
<g id="edge2" class="edge"><title>Node2&#45;&gt;Node1</title>
<path fill="none" stroke="midnightblue" d="M85,-60.5079C85,-51.3027 85,-41.2615 85,-33.1473"/>
<polygon fill="midnightblue" stroke="midnightblue" points="81.5001,-60.7646 85,-70.7646 88.5001,-60.7647 81.5001,-60.7646"/>
</g>
<!-- Node3 -->
<g id="node4" class="node"><title>Node3</title>
<a xlink:href="classMezzanine_1_1UI_1_1RenderableFactory.xhtml" target="_top" xlink:title="This class is responsible for the creation and destruction of all UI renderables.">
<polygon fill="white" stroke="black" points="20,-141 20,-173 150,-173 150,-141 20,-141"/>
<text text-anchor="start" x="28" y="-160" font-family="FreeSans" font-size="10.00">Mezzanine::UI::Renderable</text>
<text text-anchor="middle" x="85" y="-148" font-family="FreeSans" font-size="10.00">Factory</text>
</a>
</g>
<!-- Node3&#45;&gt;Node2 -->
<g id="edge4" class="edge"><title>Node3&#45;&gt;Node2</title>
<path fill="none" stroke="midnightblue" d="M85,-130.508C85,-121.303 85,-111.262 85,-103.147"/>
<polygon fill="midnightblue" stroke="midnightblue" points="81.5001,-130.765 85,-140.765 88.5001,-130.765 81.5001,-130.765"/>
</g>
</g>
</svg>
