<?xml version="1.0" encoding="UTF-8" standalone="no"?>
<!DOCTYPE svg PUBLIC "-//W3C//DTD SVG 1.1//EN"
 "http://www.w3.org/Graphics/SVG/1.1/DTD/svg11.dtd">
<!-- Generated by graphviz version 2.26.3 (20100126.1600)
 -->
<!-- Title: Mezzanine::ManagerBase Pages: 1 -->
<!--zoomable 650 -->
<svg id="main" version="1.1" xmlns="http://www.w3.org/2000/svg" xmlns:xlink="http://www.w3.org/1999/xlink" xml:space="preserve" onload="init(evt)">
<style type="text/css"><![CDATA[
.edge:hover path { stroke: red; }
.edge:hover polygon { stroke: red; fill: red; }
]]></style>
<script type="text/javascript"><![CDATA[
var edges = document.getElementsByTagName('g');
if (edges && edges.length) {
  for (var i=0;i<edges.length;i++) {
    if (edges[i].id.substr(0,4)=='edge') {
      edges[i].setAttribute('class','edge');
    }
  }
}
]]></script>
        <defs>
                <circle id="rim" cx="0" cy="0" r="7"/>
                <circle id="rim2" cx="0" cy="0" r="3.5"/>
                <g id="zoomPlus">
                        <use xlink:href="#rim" fill="#404040">
                                <set attributeName="fill" to="#808080" begin="zoomplus.mouseover" end="zoomplus.mouseout"/>
                        </use>
                        <path d="M-4,0h8M0,-4v8" fill="none" stroke="white" stroke-width="1.5" pointer-events="none"/>
                </g>
                <g id="zoomMin">
                        <use xlink:href="#rim" fill="#404040">
                                <set attributeName="fill" to="#808080" begin="zoomminus.mouseover" end="zoomminus.mouseout"/>
                        </use>
                        <path d="M-4,0h8" fill="none" stroke="white" stroke-width="1.5" pointer-events="none"/>
                </g>
                <g id="dirArrow">
                        <path fill="none" stroke="white" stroke-width="1.5" d="M0,-3.0v7 M-2.5,-0.5L0,-3.0L2.5,-0.5"/>
                </g>
               <g id="resetDef">
                       <use xlink:href="#rim2" fill="#404040">
                               <set attributeName="fill" to="#808080" begin="reset.mouseover" end="reset.mouseout"/>
                       </use>
               </g>
        </defs>

<script type="text/javascript">
var viewWidth = 516;
var viewHeight = 650;
var sectionId = 'dynsection-0';
</script>
<script xlink:href="svgpan.js"/>
<svg id="graph" class="graph">
<g id="viewport">
<title>Mezzanine::ManagerBase</title>
<polygon fill="white" stroke="white" points="-4,5 -4,-646 513,-646 513,5 -4,5"/>
<!-- Node1 -->
<g id="node1" class="node"><title>Node1</title>
<polygon fill="#bfbfbf" stroke="black" points="0,-424 0,-444 126,-444 126,-424 0,-424"/>
<text text-anchor="middle" x="63" y="-431" font-family="FreeSans" font-size="10.00">Mezzanine::ManagerBase</text>
</g>
<!-- Node2 -->
<g id="node3" class="node"><title>Node2</title>
<a xlink:href="classMezzanine_1_1Audio_1_1AudioManager.html" target="_top" xlink:title="This is the base manager class for the Audio subsystem and it&#39;s operations. ">
<polygon fill="white" stroke="black" points="162,-622 162,-642 320,-642 320,-622 162,-622"/>
<text text-anchor="middle" x="241" y="-629" font-family="FreeSans" font-size="10.00">Mezzanine::Audio::AudioManager</text>
</a>
</g>
<!-- Node1&#45;&gt;Node2 -->
<g id="edge2" class="edge"><title>Node1&#45;&gt;Node2</title>
<path fill="none" stroke="midnightblue" d="M68.1365,-453.669C78.906,-490.863 107.484,-571.487 162,-613 166.714,-616.589 172.007,-619.512 177.563,-621.891"/>
<polygon fill="midnightblue" stroke="midnightblue" points="71.5019,-452.707 65.46,-444.004 64.7557,-454.575 71.5019,-452.707"/>
</g>
<!-- Node3 -->
<g id="node5" class="node"><title>Node3</title>
<a xlink:href="classMezzanine_1_1EventManager.html" target="_top" xlink:title="This is a container for Events and facilitates the transfer of data. ">
<polygon fill="white" stroke="black" points="177,-584 177,-604 305,-604 305,-584 177,-584"/>
<text text-anchor="middle" x="241" y="-591" font-family="FreeSans" font-size="10.00">Mezzanine::EventManager</text>
</a>
</g>
<!-- Node1&#45;&gt;Node3 -->
<g id="edge4" class="edge"><title>Node1&#45;&gt;Node3</title>
<path fill="none" stroke="midnightblue" d="M71.0458,-453.3C84.8941,-484.052 116.228,-543.865 162,-575 167.365,-578.65 173.353,-581.601 179.567,-583.988"/>
<polygon fill="midnightblue" stroke="midnightblue" points="74.2269,-451.839 67.0241,-444.069 67.8095,-454.635 74.2269,-451.839"/>
</g>
<!-- Node4 -->
<g id="node7" class="node"><title>Node4</title>
<a xlink:href="classMezzanine_1_1Graphics_1_1GraphicsManager.html" target="_top" xlink:title="This is intended to store basic graphics setting for the user. ">
<polygon fill="white" stroke="black" points="188.5,-534 188.5,-566 293.5,-566 293.5,-534 188.5,-534"/>
<text text-anchor="start" x="196.5" y="-553" font-family="FreeSans" font-size="10.00">Mezzanine::Graphics</text>
<text text-anchor="middle" x="241" y="-541" font-family="FreeSans" font-size="10.00">::GraphicsManager</text>
</a>
</g>
<!-- Node1&#45;&gt;Node4 -->
<g id="edge6" class="edge"><title>Node1&#45;&gt;Node4</title>
<path fill="none" stroke="midnightblue" d="M77.7803,-451.626C95.7445,-472.002 127.908,-505.258 162,-525 170.092,-529.686 179.168,-533.604 188.206,-536.842"/>
<polygon fill="midnightblue" stroke="midnightblue" points="80.3826,-449.285 71.1959,-444.007 75.0863,-453.862 80.3826,-449.285"/>
</g>
<!-- Node5 -->
<g id="node9" class="node"><title>Node5</title>
<a xlink:href="classMezzanine_1_1Graphics_1_1MeshManager.html" target="_top" xlink:title="This manager handles the storage, generation, and query of of Graphics Meshes. ">
<polygon fill="white" stroke="black" points="188.5,-484 188.5,-516 293.5,-516 293.5,-484 188.5,-484"/>
<text text-anchor="start" x="196.5" y="-503" font-family="FreeSans" font-size="10.00">Mezzanine::Graphics</text>
<text text-anchor="middle" x="241" y="-491" font-family="FreeSans" font-size="10.00">::MeshManager</text>
</a>
</g>
<!-- Node1&#45;&gt;Node5 -->
<g id="edge8" class="edge"><title>Node1&#45;&gt;Node5</title>
<path fill="none" stroke="midnightblue" d="M94.8133,-447.994C114.092,-456.269 139.273,-466.715 162,-475 170.38,-478.055 179.334,-481.096 188.094,-483.952"/>
<polygon fill="midnightblue" stroke="midnightblue" points="96.1556,-444.761 85.5876,-444.007 93.3785,-451.187 96.1556,-444.761"/>
</g>
<!-- Node6 -->
<g id="node11" class="node"><title>Node6</title>
<a xlink:href="classMezzanine_1_1Input_1_1InputManager.html" target="_top" xlink:title="This is the manager responsible for the handling of input devices and events. ">
<polygon fill="white" stroke="black" points="165,-446 165,-466 317,-466 317,-446 165,-446"/>
<text text-anchor="middle" x="241" y="-453" font-family="FreeSans" font-size="10.00">Mezzanine::Input::InputManager</text>
</a>
</g>
<!-- Node1&#45;&gt;Node6 -->
<g id="edge10" class="edge"><title>Node1&#45;&gt;Node6</title>
<path fill="none" stroke="midnightblue" d="M136.188,-443.046C145.681,-444.219 155.421,-445.423 164.958,-446.602"/>
<polygon fill="midnightblue" stroke="midnightblue" points="136.36,-439.54 126.007,-441.787 135.502,-446.488 136.36,-439.54"/>
</g>
<!-- Node7 -->
<g id="node13" class="node"><title>Node7</title>
<a xlink:href="classMezzanine_1_1Physics_1_1CollisionShapeManager.html" target="_top" xlink:title="This manager is for the storage of all shapes and creation of mesh shapes. ">
<polygon fill="white" stroke="black" points="180,-396 180,-428 302,-428 302,-396 180,-396"/>
<text text-anchor="start" x="188" y="-415" font-family="FreeSans" font-size="10.00">Mezzanine::Physics</text>
<text text-anchor="middle" x="241" y="-403" font-family="FreeSans" font-size="10.00">::CollisionShapeManager</text>
</a>
</g>
<!-- Node1&#45;&gt;Node7 -->
<g id="edge12" class="edge"><title>Node1&#45;&gt;Node7</title>
<path fill="none" stroke="midnightblue" d="M135.986,-424.979C150.567,-423.177 165.741,-421.302 179.872,-419.555"/>
<polygon fill="midnightblue" stroke="midnightblue" points="135.502,-421.512 126.007,-426.213 136.36,-428.46 135.502,-421.512"/>
</g>
<!-- Node8 -->
<g id="node15" class="node"><title>Node8</title>
<a xlink:href="classMezzanine_1_1ResourceManager.html" target="_top" xlink:title="This is the manager responsible for the loading and unloading of files. ">
<polygon fill="white" stroke="black" points="168.5,-358 168.5,-378 313.5,-378 313.5,-358 168.5,-358"/>
<text text-anchor="middle" x="241" y="-365" font-family="FreeSans" font-size="10.00">Mezzanine::ResourceManager</text>
</a>
</g>
<!-- Node1&#45;&gt;Node8 -->
<g id="edge14" class="edge"><title>Node1&#45;&gt;Node8</title>
<path fill="none" stroke="midnightblue" d="M90.0568,-419.278C109.601,-409.113 136.871,-395.879 162,-387 171.576,-383.616 182.015,-380.633 192.074,-378.093"/>
<polygon fill="midnightblue" stroke="midnightblue" points="88.338,-416.227 81.1262,-423.989 91.604,-422.419 88.338,-416.227"/>
</g>
<!-- Node9 -->
<g id="node17" class="node"><title>Node9</title>
<a xlink:href="classMezzanine_1_1Scripting_1_1iScriptingManager.html" target="_top" xlink:title="What a scripting manager should look like. ">
<polygon fill="white" stroke="black" points="188.5,-308 188.5,-340 293.5,-340 293.5,-308 188.5,-308"/>
<text text-anchor="start" x="196.5" y="-327" font-family="FreeSans" font-size="10.00">Mezzanine::Scripting</text>
<text text-anchor="middle" x="241" y="-315" font-family="FreeSans" font-size="10.00">::iScriptingManager</text>
</a>
</g>
<!-- Node1&#45;&gt;Node9 -->
<g id="edge16" class="edge"><title>Node1&#45;&gt;Node9</title>
<path fill="none" stroke="midnightblue" d="M79.1296,-416.436C97.5112,-397.373 129.267,-367.222 162,-349 170.17,-344.452 179.284,-340.601 188.336,-337.388"/>
<polygon fill="midnightblue" stroke="midnightblue" points="76.4362,-414.19 72.1068,-423.86 81.5215,-419.001 76.4362,-414.19"/>
</g>
<!-- Node11 -->
<g id="node21" class="node"><title>Node11</title>
<a xlink:href="classMezzanine_1_1UI_1_1UIManager.html" target="_top" xlink:title="This class is responsible for any and all user interactions with the User interface/HUD. ">
<polygon fill="white" stroke="black" points="177,-270 177,-290 305,-290 305,-270 177,-270"/>
<text text-anchor="middle" x="241" y="-277" font-family="FreeSans" font-size="10.00">Mezzanine::UI::UIManager</text>
</a>
</g>
<!-- Node1&#45;&gt;Node11 -->
<g id="edge20" class="edge"><title>Node1&#45;&gt;Node11</title>
<path fill="none" stroke="midnightblue" d="M71.6675,-414.699C86.025,-385.02 117.625,-328.521 162,-299 167.403,-295.406 173.414,-292.49 179.642,-290.124"/>
<polygon fill="midnightblue" stroke="midnightblue" points="68.3877,-413.45 67.3155,-423.99 74.7268,-416.419 68.3877,-413.45"/>
</g>
<!-- Node12 -->
<g id="node23" class="node"><title>Node12</title>
<a xlink:href="classMezzanine_1_1WorldManager.html" target="_top" xlink:title="This is the base class for all managers that belong to a single world instance. ">
<polygon fill="white" stroke="black" points="176.5,-188 176.5,-208 305.5,-208 305.5,-188 176.5,-188"/>
<text text-anchor="middle" x="241" y="-195" font-family="FreeSans" font-size="10.00">Mezzanine::WorldManager</text>
</a>
</g>
<!-- Node1&#45;&gt;Node12 -->
<g id="edge22" class="edge"><title>Node1&#45;&gt;Node12</title>
<path fill="none" stroke="midnightblue" d="M71.1641,-414.589C85.9364,-380.913 119.546,-310.524 162,-261 180.724,-239.158 207.88,-219.446 224.979,-208.098"/>
<polygon fill="midnightblue" stroke="midnightblue" points="67.939,-413.23 67.1955,-423.798 74.3675,-416 67.939,-413.23"/>
</g>
<!-- Node10 -->
<g id="node19" class="node"><title>Node10</title>
<a xlink:href="classMezzanine_1_1Scripting_1_1iScriptCompilationManager.html" target="_top" xlink:title="What a scripting manager should look like. ">
<polygon fill="white" stroke="black" points="363.5,-352 363.5,-384 500.5,-384 500.5,-352 363.5,-352"/>
<text text-anchor="start" x="371.5" y="-371" font-family="FreeSans" font-size="10.00">Mezzanine::Scripting</text>
<text text-anchor="middle" x="432" y="-359" font-family="FreeSans" font-size="10.00">::iScriptCompilationManager</text>
</a>
</g>
<!-- Node9&#45;&gt;Node10 -->
<g id="edge18" class="edge"><title>Node9&#45;&gt;Node10</title>
<path fill="none" stroke="midnightblue" d="M303.508,-338.4C322.658,-342.811 343.826,-347.688 363.362,-352.188"/>
<polygon fill="midnightblue" stroke="midnightblue" points="304.228,-334.974 293.697,-336.14 302.656,-341.795 304.228,-334.974"/>
</g>
<!-- Node13 -->
<g id="node25" class="node"><title>Node13</title>
<a xlink:href="classMezzanine_1_1ActorManager.html" target="_top" xlink:title="A manager responsible for the storage and management of all actors that exist in a world...">
<polygon fill="white" stroke="black" points="368,-314 368,-334 496,-334 496,-314 368,-314"/>
<text text-anchor="middle" x="432" y="-321" font-family="FreeSans" font-size="10.00">Mezzanine::ActorManager</text>
</a>
</g>
<!-- Node12&#45;&gt;Node13 -->
<g id="edge24" class="edge"><title>Node12&#45;&gt;Node13</title>
<path fill="none" stroke="midnightblue" d="M263.881,-214.22C280.252,-226.296 302.412,-243.631 320,-261 337.978,-278.754 334.66,-291.471 356,-305 361.743,-308.641 368.142,-311.585 374.722,-313.964"/>
<polygon fill="midnightblue" stroke="midnightblue" points="265.593,-211.137 255.448,-208.085 261.475,-216.798 265.593,-211.137"/>
</g>
<!-- Node14 -->
<g id="node27" class="node"><title>Node14</title>
<a xlink:href="classMezzanine_1_1AreaEffectManager.html" target="_top" xlink:title="A manager responsible for the storage and management of all areaeffects in use. ">
<polygon fill="white" stroke="black" points="357.5,-276 357.5,-296 506.5,-296 506.5,-276 357.5,-276"/>
<text text-anchor="middle" x="432" y="-283" font-family="FreeSans" font-size="10.00">Mezzanine::AreaEffectManager</text>
</a>
</g>
<!-- Node12&#45;&gt;Node14 -->
<g id="edge26" class="edge"><title>Node12&#45;&gt;Node14</title>
<path fill="none" stroke="midnightblue" d="M263.254,-214.086C285.682,-229.623 321.78,-252.826 356,-267 364.419,-270.487 373.637,-273.45 382.658,-275.925"/>
<polygon fill="midnightblue" stroke="midnightblue" points="264.996,-211.033 254.803,-208.144 260.97,-216.759 264.996,-211.033"/>
</g>
<!-- Node15 -->
<g id="node29" class="node"><title>Node15</title>
<a xlink:href="classMezzanine_1_1Audio_1_1SoundScapeManager.html" target="_top" xlink:title="This is the base manager class for audio being played in a 3D environment. ">
<polygon fill="white" stroke="black" points="356,-226 356,-258 508,-258 508,-226 356,-226"/>
<text text-anchor="start" x="364" y="-245" font-family="FreeSans" font-size="10.00">Mezzanine::Audio::SoundScape</text>
<text text-anchor="middle" x="432" y="-233" font-family="FreeSans" font-size="10.00">Manager</text>
</a>
</g>
<!-- Node12&#45;&gt;Node15 -->
<g id="edge28" class="edge"><title>Node12&#45;&gt;Node15</title>
<path fill="none" stroke="midnightblue" d="M294.797,-210.393C315.714,-215.212 339.951,-220.795 362.183,-225.917"/>
<polygon fill="midnightblue" stroke="midnightblue" points="295.35,-206.929 284.819,-208.094 293.778,-213.75 295.35,-206.929"/>
</g>
<!-- Node16 -->
<g id="node31" class="node"><title>Node16</title>
<a xlink:href="classMezzanine_1_1DebrisManager.html" target="_top" xlink:title="A manager responsible for the storage and management of all Debris that exist in a world...">
<polygon fill="white" stroke="black" points="366.5,-188 366.5,-208 497.5,-208 497.5,-188 366.5,-188"/>
<text text-anchor="middle" x="432" y="-195" font-family="FreeSans" font-size="10.00">Mezzanine::DebrisManager</text>
</a>
</g>
<!-- Node12&#45;&gt;Node16 -->
<g id="edge30" class="edge"><title>Node12&#45;&gt;Node16</title>
<path fill="none" stroke="midnightblue" d="M315.917,-198C332.597,-198 350.157,-198 366.427,-198"/>
<polygon fill="midnightblue" stroke="midnightblue" points="315.664,-194.5 305.664,-198 315.664,-201.5 315.664,-194.5"/>
</g>
<!-- Node17 -->
<g id="node33" class="node"><title>Node17</title>
<a xlink:href="classMezzanine_1_1Graphics_1_1CameraManager.html" target="_top" xlink:title="This is the manager class for all camera functions. ">
<polygon fill="white" stroke="black" points="379.5,-138 379.5,-170 484.5,-170 484.5,-138 379.5,-138"/>
<text text-anchor="start" x="387.5" y="-157" font-family="FreeSans" font-size="10.00">Mezzanine::Graphics</text>
<text text-anchor="middle" x="432" y="-145" font-family="FreeSans" font-size="10.00">::CameraManager</text>
</a>
</g>
<!-- Node12&#45;&gt;Node17 -->
<g id="edge32" class="edge"><title>Node12&#45;&gt;Node17</title>
<path fill="none" stroke="midnightblue" d="M294.67,-185.636C321.111,-179.545 352.885,-172.226 379.207,-166.162"/>
<polygon fill="midnightblue" stroke="midnightblue" points="293.778,-182.25 284.819,-187.906 295.35,-189.071 293.778,-182.25"/>
</g>
<!-- Node18 -->
<g id="node35" class="node"><title>Node18</title>
<a xlink:href="classMezzanine_1_1Graphics_1_1SceneManager.html" target="_top" xlink:title="This class contains utilities and functions to allow the manipulation of the Graphical scene...">
<polygon fill="white" stroke="black" points="379.5,-88 379.5,-120 484.5,-120 484.5,-88 379.5,-88"/>
<text text-anchor="start" x="387.5" y="-107" font-family="FreeSans" font-size="10.00">Mezzanine::Graphics</text>
<text text-anchor="middle" x="432" y="-95" font-family="FreeSans" font-size="10.00">::SceneManager</text>
</a>
</g>
<!-- Node12&#45;&gt;Node18 -->
<g id="edge34" class="edge"><title>Node12&#45;&gt;Node18</title>
<path fill="none" stroke="midnightblue" d="M263.861,-182.194C286.49,-167.06 322.505,-144.326 356,-129 363.452,-125.59 371.506,-122.424 379.489,-119.571"/>
<polygon fill="midnightblue" stroke="midnightblue" points="261.634,-179.475 255.312,-187.977 265.556,-185.273 261.634,-179.475"/>
</g>
<!-- Node19 -->
<g id="node37" class="node"><title>Node19</title>
<a xlink:href="classMezzanine_1_1Physics_1_1PhysicsManager.html" target="_top" xlink:title="This is simply a place for storing all the Physics Related functions. ">
<polygon fill="white" stroke="black" points="382,-38 382,-70 482,-70 482,-38 382,-38"/>
<text text-anchor="start" x="390" y="-57" font-family="FreeSans" font-size="10.00">Mezzanine::Physics</text>
<text text-anchor="middle" x="432" y="-45" font-family="FreeSans" font-size="10.00">::PhysicsManager</text>
</a>
</g>
<!-- Node12&#45;&gt;Node19 -->
<g id="edge36" class="edge"><title>Node12&#45;&gt;Node19</title>
<path fill="none" stroke="midnightblue" d="M254.159,-179.554C273.607,-153.567 312.455,-106.31 356,-79 363.884,-74.0555 372.847,-69.9867 381.784,-66.6739"/>
<polygon fill="midnightblue" stroke="midnightblue" points="251.209,-177.658 248.113,-187.791 256.852,-181.8 251.209,-177.658"/>
</g>
<!-- Node20 -->
<g id="node39" class="node"><title>Node20</title>
<a xlink:href="classMezzanine_1_1TerrainManager.html" target="_top" xlink:title="This is manager for terrains and their functions. ">
<polygon fill="white" stroke="black" points="365,-0 365,-20 499,-20 499,-0 365,-0"/>
<text text-anchor="middle" x="432" y="-7" font-family="FreeSans" font-size="10.00">Mezzanine::TerrainManager</text>
</a>
</g>
<!-- Node12&#45;&gt;Node20 -->
<g id="edge38" class="edge"><title>Node12&#45;&gt;Node20</title>
<path fill="none" stroke="midnightblue" d="M248.694,-178.422C263.703,-142.874 300.369,-67.8102 356,-29 361.243,-25.3426 367.122,-22.3877 373.227,-20.0007"/>
<polygon fill="midnightblue" stroke="midnightblue" points="245.436,-177.141 244.884,-187.722 251.914,-179.794 245.436,-177.141"/>
</g>
</g>
</svg>
        <g id="navigator" transform="translate(0 0)" fill="#404254">
                <rect fill="#f2f5e9" fill-opacity="0.5" stroke="#606060" stroke-width=".5" x="0" y="0" width="60" height="60"/>
                <use id="zoomplus" xlink:href="#zoomPlus" x="17" y="9" onmousedown="handleZoom(evt,'in')"/>
                <use id="zoomminus" xlink:href="#zoomMin" x="42" y="9" onmousedown="handleZoom(evt,'out')"/>
                <use id="reset" xlink:href="#resetDef" x="30" y="36" onmousedown="handleReset()"/>
                <g id="arrowUp" xlink:href="#dirArrow" transform="translate(30 24)" onmousedown="handlePan(0,-1)">
                  <use xlink:href="#rim" fill="#404040">
                        <set attributeName="fill" to="#808080" begin="arrowUp.mouseover" end="arrowUp.mouseout"/>
                  </use>
                  <path fill="none" stroke="white" stroke-width="1.5" d="M0,-3.0v7 M-2.5,-0.5L0,-3.0L2.5,-0.5"/>
                </g>
                <g id="arrowRight" xlink:href="#dirArrow" transform="rotate(90) translate(36 -43)" onmousedown="handlePan(1,0)">
                  <use xlink:href="#rim" fill="#404040">
                        <set attributeName="fill" to="#808080" begin="arrowRight.mouseover" end="arrowRight.mouseout"/>
                  </use>
                  <path fill="none" stroke="white" stroke-width="1.5" d="M0,-3.0v7 M-2.5,-0.5L0,-3.0L2.5,-0.5"/>
                </g>
                <g id="arrowDown" xlink:href="#dirArrow" transform="rotate(180) translate(-30 -48)" onmousedown="handlePan(0,1)">
                  <use xlink:href="#rim" fill="#404040">
                        <set attributeName="fill" to="#808080" begin="arrowDown.mouseover" end="arrowDown.mouseout"/>
                  </use>
                  <path fill="none" stroke="white" stroke-width="1.5" d="M0,-3.0v7 M-2.5,-0.5L0,-3.0L2.5,-0.5"/>
                </g>
                <g id="arrowLeft" xlink:href="#dirArrow" transform="rotate(270) translate(-36 17)" onmousedown="handlePan(-1,0)">
                  <use xlink:href="#rim" fill="#404040">
                        <set attributeName="fill" to="#808080" begin="arrowLeft.mouseover" end="arrowLeft.mouseout"/>
                  </use>
                  <path fill="none" stroke="white" stroke-width="1.5" d="M0,-3.0v7 M-2.5,-0.5L0,-3.0L2.5,-0.5"/>
                </g>
        </g>
        <svg viewBox="0 0 15 15" width="100%" height="30px" preserveAspectRatio="xMaxYMin meet">
         <g id="arrow_out" transform="scale(0.3 0.3)">
          <a xlink:href="classMezzanine_1_1ManagerBase__inherit__graph_org.svg" target="_base">
           <rect id="button" ry="5" rx="5" y="6" x="6" height="38" width="38"
                fill="#f2f5e9" fill-opacity="0.5" stroke="#606060" stroke-width="1.0"/>
           <path id="arrow"
             d="M 11.500037,31.436501 C 11.940474,20.09759 22.043105,11.32322 32.158766,21.979434 L 37.068811,17.246167 C 37.068811,17.246167 37.088388,32 37.088388,32 L 22.160133,31.978069 C 22.160133,31.978069 26.997745,27.140456 26.997745,27.140456 C 18.528582,18.264221 13.291696,25.230495 11.500037,31.436501 z"
             style="fill:#404040;"/>
          </a>
         </g>
        </svg>
</svg>
