<?xml version="1.0" encoding="UTF-8" standalone="no"?>
<!DOCTYPE svg PUBLIC "-//W3C//DTD SVG 1.1//EN"
 "http://www.w3.org/Graphics/SVG/1.1/DTD/svg11.dtd">
<!-- Generated by graphviz version 2.26.3 (20100126.1600)
 -->
<!-- Title: Mezzanine::Physics::CompoundCollisionShape Pages: 1 -->
<svg width="832pt" height="72pt"
 viewBox="0.00 0.00 832.00 72.00" xmlns="http://www.w3.org/2000/svg" xmlns:xlink="http://www.w3.org/1999/xlink">
<g id="graph1" class="graph" transform="scale(1 1) rotate(0) translate(4 68)">
<title>Mezzanine::Physics::CompoundCollisionShape</title>
<polygon fill="white" stroke="white" points="-4,5 -4,-68 829,-68 829,5 -4,5"/>
<!-- Node1 -->
<g id="node1" class="node"><title>Node1</title>
<polygon fill="#bfbfbf" stroke="black" points="688.5,-27 688.5,-61 823.5,-61 823.5,-27 688.5,-27"/>
<text text-anchor="start" x="696.5" y="-48" font-family="Helvetica,sans-Serif" font-size="10.00">Mezzanine::Physics</text>
<text text-anchor="middle" x="756" y="-35" font-family="Helvetica,sans-Serif" font-size="10.00">::CompoundCollisionShape</text>
</g>
<!-- Node2 -->
<g id="node2" class="node"><title>Node2</title>
<a xlink:href="classMezzanine_1_1Physics_1_1CollisionShape.html" target="_top" xlink:title="This is the base class for all collision shapes. ">
<polygon fill="white" stroke="black" points="260.5,-30 260.5,-64 365.5,-64 365.5,-30 260.5,-30"/>
<text text-anchor="start" x="268.5" y="-51" font-family="Helvetica,sans-Serif" font-size="10.00">Mezzanine::Physics</text>
<text text-anchor="middle" x="313" y="-38" font-family="Helvetica,sans-Serif" font-size="10.00">::CollisionShape</text>
</a>
</g>
<!-- Node2&#45;&gt;Node1 -->
<g id="edge2" class="edge"><title>Node2&#45;&gt;Node1</title>
<path fill="none" stroke="midnightblue" d="M375.796,-48.164C447.108,-49.2562 566.943,-50.3954 670,-48 675.977,-47.8611 682.186,-47.6679 688.408,-47.4408"/>
<polygon fill="midnightblue" stroke="midnightblue" points="375.688,-44.662 365.634,-48.0037 375.578,-51.6611 375.688,-44.662"/>
</g>
<!-- Node5 -->
<g id="node8" class="node"><title>Node5</title>
<polygon fill="white" stroke="#bfbfbf" points="446.5,-0 446.5,-34 591.5,-34 591.5,-0 446.5,-0"/>
<text text-anchor="start" x="454.5" y="-21" font-family="Helvetica,sans-Serif" font-size="10.00">std::vector&lt; Mezzanine</text>
<text text-anchor="middle" x="519" y="-8" font-family="Helvetica,sans-Serif" font-size="10.00">::Physics::CollisionShape * &gt;</text>
</g>
<!-- Node2&#45;&gt;Node5 -->
<g id="edge10" class="edge"><title>Node2&#45;&gt;Node5</title>
<path fill="none" stroke="#9a32cd" stroke-dasharray="5,2" d="M375.796,-36.2657C378.567,-35.8302 381.312,-35.4063 384,-35 404.223,-31.9437 426.193,-28.8978 446.42,-26.2041"/>
<polygon fill="#9a32cd" stroke="#9a32cd" points="375.018,-32.8457 365.697,-37.8832 376.125,-39.7576 375.018,-32.8457"/>
<text text-anchor="middle" x="406" y="-39" font-family="Helvetica,sans-Serif" font-size="10.00"> elements</text>
</g>
<!-- Node3 -->
<g id="node4" class="node"><title>Node3</title>
<a xlink:title="STL class. ">
<polygon fill="white" stroke="#bfbfbf" points="134,-36.5 134,-57.5 194,-57.5 194,-36.5 134,-36.5"/>
<text text-anchor="middle" x="164" y="-44.5" font-family="Helvetica,sans-Serif" font-size="10.00">std::string</text>
</a>
</g>
<!-- Node3&#45;&gt;Node2 -->
<g id="edge4" class="edge"><title>Node3&#45;&gt;Node2</title>
<path fill="none" stroke="#9a32cd" stroke-dasharray="5,2" d="M204.419,-47C221.622,-47 241.916,-47 260.275,-47"/>
<polygon fill="#9a32cd" stroke="#9a32cd" points="204.152,-43.5001 194.152,-47 204.152,-50.5001 204.152,-43.5001"/>
<text text-anchor="middle" x="227" y="-51" font-family="Helvetica,sans-Serif" font-size="10.00"> Name</text>
</g>
<!-- Node4 -->
<g id="node6" class="node"><title>Node4</title>
<a xlink:title="STL class. ">
<polygon fill="white" stroke="#bfbfbf" points="0.5,-30 0.5,-64 95.5,-64 95.5,-30 0.5,-30"/>
<text text-anchor="start" x="8.5" y="-51" font-family="Helvetica,sans-Serif" font-size="10.00">std::basic_string&lt;</text>
<text text-anchor="middle" x="48" y="-38" font-family="Helvetica,sans-Serif" font-size="10.00"> char &gt;</text>
</a>
</g>
<!-- Node4&#45;&gt;Node3 -->
<g id="edge6" class="edge"><title>Node4&#45;&gt;Node3</title>
<path fill="none" stroke="midnightblue" d="M105.582,-47C115.29,-47 125.014,-47 133.666,-47"/>
<polygon fill="midnightblue" stroke="midnightblue" points="105.516,-43.5001 95.5163,-47 105.516,-50.5001 105.516,-43.5001"/>
</g>
<!-- Node5&#45;&gt;Node1 -->
<g id="edge8" class="edge"><title>Node5&#45;&gt;Node1</title>
<path fill="none" stroke="#9a32cd" stroke-dasharray="5,2" d="M601.97,-26.4523C630.195,-29.6678 661.384,-33.221 688.272,-36.2842"/>
<polygon fill="#9a32cd" stroke="#9a32cd" points="602.05,-22.9389 591.718,-25.2844 601.258,-29.8939 602.05,-22.9389"/>
<text text-anchor="middle" x="640" y="-38" font-family="Helvetica,sans-Serif" font-size="10.00"> ChildShapes</text>
</g>
</g>
</svg>
