<?xml version="1.0" encoding="UTF-8" standalone="no"?>
<!DOCTYPE svg PUBLIC "-//W3C//DTD SVG 1.1//EN"
 "http://www.w3.org/Graphics/SVG/1.1/DTD/svg11.dtd">
<!-- Generated by graphviz version 2.38.0 (20140413.2041)
 -->
<!-- Title: Mezzanine::Graphics::GraphicsManager Pages: 1 -->
<svg width="462pt" height="127pt"
 viewBox="0.00 0.00 462.00 126.50" xmlns="http://www.w3.org/2000/svg" xmlns:xlink="http://www.w3.org/1999/xlink">
<g id="graph0" class="graph" transform="scale(1 1) rotate(0) translate(4 122.5)">
<title>Mezzanine::Graphics::GraphicsManager</title>
<polygon fill="white" stroke="none" points="-4,4 -4,-122.5 458,-122.5 458,4 -4,4"/>
<!-- Node1 -->
<g id="node1" class="node"><title>Node1</title>
<polygon fill="#bfbfbf" stroke="black" points="345,-49.5 345,-79.5 454,-79.5 454,-49.5 345,-49.5"/>
<text text-anchor="start" x="353" y="-67.5" font-family="Helvetica,sans-Serif" font-size="10.00">Mezzanine::Graphics</text>
<text text-anchor="middle" x="399.5" y="-56.5" font-family="Helvetica,sans-Serif" font-size="10.00">::GraphicsManager</text>
</g>
<!-- Node2 -->
<g id="node2" class="node"><title>Node2</title>
<g id="a_node2"><a xlink:href="classMezzanine_1_1EntresolManager.html" target="_top" xlink:title="This is the base class for all managers that do no describe properties of a single world...">
<polygon fill="white" stroke="black" points="166,-99 166,-118 309,-118 309,-99 166,-99"/>
<text text-anchor="middle" x="237.5" y="-106" font-family="Helvetica,sans-Serif" font-size="10.00">Mezzanine::EntresolManager</text>
</a>
</g>
</g>
<!-- Node2&#45;&gt;Node1 -->
<g id="edge1" class="edge"><title>Node2&#45;&gt;Node1</title>
<path fill="none" stroke="midnightblue" d="M282.926,-96.2828C302.152,-90.9957 324.82,-84.7619 344.965,-79.2221"/>
<polygon fill="midnightblue" stroke="midnightblue" points="281.932,-92.9263 273.218,-98.9527 283.788,-99.6757 281.932,-92.9263"/>
</g>
<!-- Node3 -->
<g id="node3" class="node"><title>Node3</title>
<g id="a_node3"><a xlink:href="classMezzanine_1_1ManagerBase.html" target="_top" xlink:title="This is the base class from which all the Entresol and World Managers inherit. ">
<polygon fill="white" stroke="black" points="0,-99 0,-118 130,-118 130,-99 0,-99"/>
<text text-anchor="middle" x="65" y="-106" font-family="Helvetica,sans-Serif" font-size="10.00">Mezzanine::ManagerBase</text>
</a>
</g>
</g>
<!-- Node3&#45;&gt;Node2 -->
<g id="edge2" class="edge"><title>Node3&#45;&gt;Node2</title>
<path fill="none" stroke="midnightblue" d="M140.632,-108.5C149.048,-108.5 157.604,-108.5 165.965,-108.5"/>
<polygon fill="midnightblue" stroke="midnightblue" points="140.459,-105 130.459,-108.5 140.459,-112 140.459,-105"/>
</g>
<!-- Node4 -->
<g id="node4" class="node"><title>Node4</title>
<g id="a_node4"><a xlink:href="classMezzanine_1_1ObjectSettingsHandler.html" target="_top" xlink:title="An abstract class for other classes that manage groups of settings. ">
<polygon fill="white" stroke="black" points="170.5,-49.5 170.5,-79.5 304.5,-79.5 304.5,-49.5 170.5,-49.5"/>
<text text-anchor="start" x="178.5" y="-67.5" font-family="Helvetica,sans-Serif" font-size="10.00">Mezzanine::ObjectSettings</text>
<text text-anchor="middle" x="237.5" y="-56.5" font-family="Helvetica,sans-Serif" font-size="10.00">Handler</text>
</a>
</g>
</g>
<!-- Node4&#45;&gt;Node1 -->
<g id="edge3" class="edge"><title>Node4&#45;&gt;Node1</title>
<path fill="none" stroke="midnightblue" d="M314.651,-64.5C324.852,-64.5 335.137,-64.5 344.84,-64.5"/>
<polygon fill="midnightblue" stroke="midnightblue" points="314.502,-61.0001 304.502,-64.5 314.502,-68.0001 314.502,-61.0001"/>
</g>
<!-- Node5 -->
<g id="node5" class="node"><title>Node5</title>
<g id="a_node5"><a xlink:href="classMezzanine_1_1Singleton.html" target="_top" xlink:title="Mezzanine::Singleton\l\&lt; GraphicsManager \&gt;">
<polygon fill="white" stroke="black" points="182,-0.5 182,-30.5 293,-30.5 293,-0.5 182,-0.5"/>
<text text-anchor="start" x="190" y="-18.5" font-family="Helvetica,sans-Serif" font-size="10.00">Mezzanine::Singleton</text>
<text text-anchor="middle" x="237.5" y="-7.5" font-family="Helvetica,sans-Serif" font-size="10.00">&lt; GraphicsManager &gt;</text>
</a>
</g>
</g>
<!-- Node5&#45;&gt;Node1 -->
<g id="edge4" class="edge"><title>Node5&#45;&gt;Node1</title>
<path fill="none" stroke="midnightblue" d="M297.644,-33.6129C314.654,-38.8222 333.016,-44.4457 349.352,-49.4484"/>
<polygon fill="midnightblue" stroke="midnightblue" points="298.397,-30.1832 287.811,-30.6014 296.348,-36.8763 298.397,-30.1832"/>
</g>
</g>
</svg>
