<?xml version="1.0" encoding="UTF-8" standalone="no"?>
<!DOCTYPE svg PUBLIC "-//W3C//DTD SVG 1.1//EN"
 "http://www.w3.org/Graphics/SVG/1.1/DTD/svg11.dtd">
<!-- Generated by graphviz version 2.38.0 (20140413.2041)
 -->
<!-- Title: NetworkURLException Pages: 1 -->
<svg width="125pt" height="252pt"
 viewBox="0.00 0.00 125.00 252.00" xmlns="http://www.w3.org/2000/svg" xmlns:xlink="http://www.w3.org/1999/xlink">
<g id="graph0" class="graph" transform="scale(1 1) rotate(0) translate(4 248)">
<title>NetworkURLException</title>
<polygon fill="white" stroke="none" points="-4,4 -4,-248 121,-248 121,4 -4,4"/>
<!-- Node1 -->
<g id="node1" class="node"><title>Node1</title>
<polygon fill="#bfbfbf" stroke="black" points="0,-0.5 0,-19.5 117,-19.5 117,-0.5 0,-0.5"/>
<text text-anchor="middle" x="58.5" y="-7.5" font-family="Helvetica,sans-Serif" font-size="10.00">NetworkURLException</text>
</g>
<!-- Node2 -->
<g id="node2" class="node"><title>Node2</title>
<g id="a_node2"><a xlink:href="classNetworkException.html" target="_top" xlink:title="Thrown when something unknown causes network IO to fail. ">
<polygon fill="white" stroke="black" points="10,-56.5 10,-75.5 107,-75.5 107,-56.5 10,-56.5"/>
<text text-anchor="middle" x="58.5" y="-63.5" font-family="Helvetica,sans-Serif" font-size="10.00">NetworkException</text>
</a>
</g>
</g>
<!-- Node2&#45;&gt;Node1 -->
<g id="edge1" class="edge"><title>Node2&#45;&gt;Node1</title>
<path fill="none" stroke="midnightblue" d="M58.5,-45.8045C58.5,-36.9102 58.5,-26.7798 58.5,-19.7511"/>
<polygon fill="midnightblue" stroke="midnightblue" points="55.0001,-46.083 58.5,-56.083 62.0001,-46.083 55.0001,-46.083"/>
</g>
<!-- Node3 -->
<g id="node3" class="node"><title>Node3</title>
<g id="a_node3"><a xlink:href="classIOException.html" target="_top" xlink:title="Thrown when there was an issue with IO but very little was known about it. ">
<polygon fill="white" stroke="black" points="23,-112.5 23,-131.5 94,-131.5 94,-112.5 23,-112.5"/>
<text text-anchor="middle" x="58.5" y="-119.5" font-family="Helvetica,sans-Serif" font-size="10.00">IOException</text>
</a>
</g>
</g>
<!-- Node3&#45;&gt;Node2 -->
<g id="edge2" class="edge"><title>Node3&#45;&gt;Node2</title>
<path fill="none" stroke="midnightblue" d="M58.5,-101.805C58.5,-92.9102 58.5,-82.7798 58.5,-75.7511"/>
<polygon fill="midnightblue" stroke="midnightblue" points="55.0001,-102.083 58.5,-112.083 62.0001,-102.083 55.0001,-102.083"/>
</g>
<!-- Node4 -->
<g id="node4" class="node"><title>Node4</title>
<g id="a_node4"><a xlink:href="classExceptionBase.html" target="_top" xlink:title="This is the exception thrown by most Mezzanine systems that can throw exceptions. ...">
<polygon fill="white" stroke="black" points="17,-168.5 17,-187.5 100,-187.5 100,-168.5 17,-168.5"/>
<text text-anchor="middle" x="58.5" y="-175.5" font-family="Helvetica,sans-Serif" font-size="10.00">ExceptionBase</text>
</a>
</g>
</g>
<!-- Node4&#45;&gt;Node3 -->
<g id="edge3" class="edge"><title>Node4&#45;&gt;Node3</title>
<path fill="none" stroke="midnightblue" d="M58.5,-157.805C58.5,-148.91 58.5,-138.78 58.5,-131.751"/>
<polygon fill="midnightblue" stroke="midnightblue" points="55.0001,-158.083 58.5,-168.083 62.0001,-158.083 55.0001,-158.083"/>
</g>
<!-- Node5 -->
<g id="node5" class="node"><title>Node5</title>
<g id="a_node5"><a xlink:title="STL class. ">
<polygon fill="white" stroke="#bfbfbf" points="19.5,-224.5 19.5,-243.5 97.5,-243.5 97.5,-224.5 19.5,-224.5"/>
<text text-anchor="middle" x="58.5" y="-231.5" font-family="Helvetica,sans-Serif" font-size="10.00">std::exception</text>
</a>
</g>
</g>
<!-- Node5&#45;&gt;Node4 -->
<g id="edge4" class="edge"><title>Node5&#45;&gt;Node4</title>
<path fill="none" stroke="midnightblue" d="M58.5,-213.805C58.5,-204.91 58.5,-194.78 58.5,-187.751"/>
<polygon fill="midnightblue" stroke="midnightblue" points="55.0001,-214.083 58.5,-224.083 62.0001,-214.083 55.0001,-214.083"/>
</g>
</g>
</svg>
