<?xml version="1.0" encoding="UTF-8" standalone="no"?>
<!DOCTYPE svg PUBLIC "-//W3C//DTD SVG 1.1//EN"
 "http://www.w3.org/Graphics/SVG/1.1/DTD/svg11.dtd">
<!-- Generated by graphviz version 2.26.3 (20100126.1600)
 -->
<!-- Title: Mezzanine::BinaryTools::BinaryBuffer Pages: 1 -->
<svg width="130pt" height="116pt"
 viewBox="0.00 0.00 130.00 116.00" xmlns="http://www.w3.org/2000/svg" xmlns:xlink="http://www.w3.org/1999/xlink">
<g id="graph1" class="graph" transform="scale(1 1) rotate(0) translate(4 112)">
<title>Mezzanine::BinaryTools::BinaryBuffer</title>
<polygon fill="white" stroke="white" points="-4,5 -4,-112 127,-112 127,5 -4,5"/>
<!-- Node1 -->
<g id="node1" class="node"><title>Node1</title>
<polygon fill="#bfbfbf" stroke="black" points="0,-73 0,-107 122,-107 122,-73 0,-73"/>
<text text-anchor="start" x="8" y="-94" font-family="Helvetica,sans-Serif" font-size="10.00">Mezzanine::BinaryTools</text>
<text text-anchor="middle" x="61" y="-81" font-family="Helvetica,sans-Serif" font-size="10.00">::BinaryBuffer</text>
</g>
<!-- Node2 -->
<g id="node3" class="node"><title>Node2</title>
<a xlink:href="classMezzanine_1_1Scripting_1_1Lua_1_1FlaggedBuffer.html" target="_top" xlink:title="An expanded version of the BinaryTools::BinaryBuffer to carry one tiny piece of metadata around with ...">
<polygon fill="white" stroke="black" points="7,-1 7,-35 115,-35 115,-1 7,-1"/>
<text text-anchor="start" x="15" y="-22" font-family="Helvetica,sans-Serif" font-size="10.00">Mezzanine::Scripting</text>
<text text-anchor="middle" x="61" y="-9" font-family="Helvetica,sans-Serif" font-size="10.00">::Lua::FlaggedBuffer</text>
</a>
</g>
<!-- Node1&#45;&gt;Node2 -->
<g id="edge2" class="edge"><title>Node1&#45;&gt;Node2</title>
<path fill="none" stroke="midnightblue" d="M61,-62.7193C61,-53.572 61,-43.6255 61,-35.4407"/>
<polygon fill="midnightblue" stroke="midnightblue" points="57.5001,-62.937 61,-72.937 64.5001,-62.937 57.5001,-62.937"/>
</g>
</g>
</svg>
