<?xml version="1.0" encoding="UTF-8" standalone="no"?>
<!DOCTYPE svg PUBLIC "-//W3C//DTD SVG 1.1//EN"
 "http://www.w3.org/Graphics/SVG/1.1/DTD/svg11.dtd">
<!-- Generated by graphviz version 2.26.3 (20100126.1600)
 -->
<!-- Title: Mezzanine::AttachableBase Pages: 1 -->
<svg width="302pt" height="88pt"
 viewBox="0.00 0.00 302.00 88.00" xmlns="http://www.w3.org/2000/svg" xmlns:xlink="http://www.w3.org/1999/xlink">
<g id="graph1" class="graph" transform="scale(1 1) rotate(0) translate(4 84)">
<title>Mezzanine::AttachableBase</title>
<polygon fill="white" stroke="white" points="-4,5 -4,-84 299,-84 299,5 -4,5"/>
<!-- Node1 -->
<g id="node1" class="node"><title>Node1</title>
<polygon fill="#bfbfbf" stroke="black" points="77.5,-59 77.5,-79 212.5,-79 212.5,-59 77.5,-59"/>
<text text-anchor="middle" x="145" y="-66" font-family="FreeSans" font-size="10.00">Mezzanine::AttachableBase</text>
</g>
<!-- Node2 -->
<g id="node3" class="node"><title>Node2</title>
<a xlink:href="classMezzanine_1_1AttachableChild.html" target="_top" xlink:title="This class is the base class for objects that can be attached to AttachableParent. ">
<polygon fill="white" stroke="black" points="-0.5,-1 -0.5,-21 134.5,-21 134.5,-1 -0.5,-1"/>
<text text-anchor="middle" x="67" y="-8" font-family="FreeSans" font-size="10.00">Mezzanine::AttachableChild</text>
</a>
</g>
<!-- Node1&#45;&gt;Node2 -->
<g id="edge2" class="edge"><title>Node1&#45;&gt;Node2</title>
<path fill="none" stroke="midnightblue" d="M123.061,-52.6866C109.455,-42.5689 92.3973,-29.8852 80.6926,-21.1817"/>
<polygon fill="midnightblue" stroke="midnightblue" points="121.3,-55.7387 131.413,-58.8972 125.477,-50.1215 121.3,-55.7387"/>
</g>
<!-- Node3 -->
<g id="node5" class="node"><title>Node3</title>
<a xlink:href="classMezzanine_1_1AttachableParent.html" target="_top" xlink:title="Base class for objects that can have attachables attached to them. ">
<polygon fill="white" stroke="black" points="152,-1 152,-21 294,-21 294,-1 152,-1"/>
<text text-anchor="middle" x="223" y="-8" font-family="FreeSans" font-size="10.00">Mezzanine::AttachableParent</text>
</a>
</g>
<!-- Node1&#45;&gt;Node3 -->
<g id="edge4" class="edge"><title>Node1&#45;&gt;Node3</title>
<path fill="none" stroke="midnightblue" d="M166.939,-52.6866C180.545,-42.5689 197.603,-29.8852 209.307,-21.1817"/>
<polygon fill="midnightblue" stroke="midnightblue" points="164.523,-50.1215 158.587,-58.8972 168.7,-55.7387 164.523,-50.1215"/>
</g>
</g>
</svg>
