<?xml version="1.0" encoding="UTF-8" standalone="no"?>
<!DOCTYPE svg PUBLIC "-//W3C//DTD SVG 1.1//EN"
 "http://www.w3.org/Graphics/SVG/1.1/DTD/svg11.dtd">
<!-- Generated by graphviz version 2.38.0 (20140413.2041)
 -->
<!-- Title: Mezzanine::Physics::StaticMeshCollisionShape Pages: 1 -->
<svg width="145pt" height="310pt"
 viewBox="0.00 0.00 145.00 310.00" xmlns="http://www.w3.org/2000/svg" xmlns:xlink="http://www.w3.org/1999/xlink">
<g id="graph0" class="graph" transform="scale(1 1) rotate(0) translate(4 306)">
<title>Mezzanine::Physics::StaticMeshCollisionShape</title>
<polygon fill="white" stroke="none" points="-4,4 -4,-306 141,-306 141,4 -4,4"/>
<!-- Node1 -->
<g id="node1" class="node"><title>Node1</title>
<polygon fill="#bfbfbf" stroke="black" points="0,-0.5 0,-30.5 137,-30.5 137,-0.5 0,-0.5"/>
<text text-anchor="start" x="8" y="-18.5" font-family="Helvetica,sans-Serif" font-size="10.00">Mezzanine::Physics</text>
<text text-anchor="middle" x="68.5" y="-7.5" font-family="Helvetica,sans-Serif" font-size="10.00">::StaticMeshCollisionShape</text>
</g>
<!-- Node2 -->
<g id="node2" class="node"><title>Node2</title>
<g id="a_node2"><a xlink:href="classMezzanine_1_1Physics_1_1MeshCollisionShape.html" target="_top" xlink:title="This is the base class for all Mesh shapes. ">
<polygon fill="white" stroke="black" points="12.5,-68.5 12.5,-98.5 124.5,-98.5 124.5,-68.5 12.5,-68.5"/>
<text text-anchor="start" x="20.5" y="-86.5" font-family="Helvetica,sans-Serif" font-size="10.00">Mezzanine::Physics</text>
<text text-anchor="middle" x="68.5" y="-75.5" font-family="Helvetica,sans-Serif" font-size="10.00">::MeshCollisionShape</text>
</a>
</g>
</g>
<!-- Node2&#45;&gt;Node1 -->
<g id="edge1" class="edge"><title>Node2&#45;&gt;Node1</title>
<path fill="none" stroke="midnightblue" d="M68.5,-58.0322C68.5,-48.8606 68.5,-38.7449 68.5,-30.7931"/>
<polygon fill="midnightblue" stroke="midnightblue" points="65.0001,-58.1789 68.5,-68.179 72.0001,-58.179 65.0001,-58.1789"/>
</g>
<!-- Node3 -->
<g id="node3" class="node"><title>Node3</title>
<g id="a_node3"><a xlink:href="classMezzanine_1_1Physics_1_1CollisionShape.html" target="_top" xlink:title="This is the base class for all collision shapes. ">
<polygon fill="white" stroke="black" points="16,-136.5 16,-166.5 121,-166.5 121,-136.5 16,-136.5"/>
<text text-anchor="start" x="24" y="-154.5" font-family="Helvetica,sans-Serif" font-size="10.00">Mezzanine::Physics</text>
<text text-anchor="middle" x="68.5" y="-143.5" font-family="Helvetica,sans-Serif" font-size="10.00">::CollisionShape</text>
</a>
</g>
</g>
<!-- Node3&#45;&gt;Node2 -->
<g id="edge2" class="edge"><title>Node3&#45;&gt;Node2</title>
<path fill="none" stroke="midnightblue" d="M68.5,-126.032C68.5,-116.861 68.5,-106.745 68.5,-98.7931"/>
<polygon fill="midnightblue" stroke="midnightblue" points="65.0001,-126.179 68.5,-136.179 72.0001,-126.179 65.0001,-126.179"/>
</g>
<!-- Node4 -->
<g id="node4" class="node"><title>Node4</title>
<g id="a_node4"><a xlink:title="STL class. ">
<polygon fill="white" stroke="#bfbfbf" points="38.5,-214.5 38.5,-233.5 98.5,-233.5 98.5,-214.5 38.5,-214.5"/>
<text text-anchor="middle" x="68.5" y="-221.5" font-family="Helvetica,sans-Serif" font-size="10.00">std::string</text>
</a>
</g>
</g>
<!-- Node4&#45;&gt;Node3 -->
<g id="edge3" class="edge"><title>Node4&#45;&gt;Node3</title>
<path fill="none" stroke="#9a32cd" stroke-dasharray="5,2" d="M68.5,-204.236C68.5,-192.408 68.5,-177.383 68.5,-166.576"/>
<polygon fill="#9a32cd" stroke="#9a32cd" points="65.0001,-204.355 68.5,-214.355 72.0001,-204.355 65.0001,-204.355"/>
<text text-anchor="middle" x="83.5" y="-188" font-family="Helvetica,sans-Serif" font-size="10.00"> Name</text>
</g>
<!-- Node5 -->
<g id="node5" class="node"><title>Node5</title>
<g id="a_node5"><a xlink:title="STL class. ">
<polygon fill="white" stroke="#bfbfbf" points="21,-271.5 21,-301.5 116,-301.5 116,-271.5 21,-271.5"/>
<text text-anchor="start" x="29" y="-289.5" font-family="Helvetica,sans-Serif" font-size="10.00">std::basic_string&lt;</text>
<text text-anchor="middle" x="68.5" y="-278.5" font-family="Helvetica,sans-Serif" font-size="10.00"> char &gt;</text>
</a>
</g>
</g>
<!-- Node5&#45;&gt;Node4 -->
<g id="edge4" class="edge"><title>Node5&#45;&gt;Node4</title>
<path fill="none" stroke="midnightblue" d="M68.5,-261.352C68.5,-251.513 68.5,-240.775 68.5,-233.54"/>
<polygon fill="midnightblue" stroke="midnightblue" points="65.0001,-261.468 68.5,-271.468 72.0001,-261.468 65.0001,-261.468"/>
</g>
</g>
</svg>
