<?xml version="1.0" encoding="UTF-8" standalone="no"?>
<!DOCTYPE svg PUBLIC "-//W3C//DTD SVG 1.1//EN"
 "http://www.w3.org/Graphics/SVG/1.1/DTD/svg11.dtd">
<!-- Generated by graphviz version 2.38.0 (20140413.2041)
 -->
<!-- Title: Mezzanine::Input::ButtonDevice Pages: 1 -->
<!--zoomable 165 -->
<svg id="main" version="1.1" xmlns="http://www.w3.org/2000/svg" xmlns:xlink="http://www.w3.org/1999/xlink" xml:space="preserve" onload="init(evt)">
<style type="text/css"><![CDATA[
.edge:hover path { stroke: red; }
.edge:hover polygon { stroke: red; fill: red; }
]]></style>
<script type="text/javascript"><![CDATA[
var edges = document.getElementsByTagName('g');
if (edges && edges.length) {
  for (var i=0;i<edges.length;i++) {
    if (edges[i].id.substr(0,4)=='edge') {
      edges[i].setAttribute('class','edge');
    }
  }
}
]]></script>
        <defs>
                <circle id="rim" cx="0" cy="0" r="7"/>
                <circle id="rim2" cx="0" cy="0" r="3.5"/>
                <g id="zoomPlus">
                        <use xlink:href="#rim" fill="#404040">
                                <set attributeName="fill" to="#808080" begin="zoomplus.mouseover" end="zoomplus.mouseout"/>
                        </use>
                        <path d="M-4,0h8M0,-4v8" fill="none" stroke="white" stroke-width="1.5" pointer-events="none"/>
                </g>
                <g id="zoomMin">
                        <use xlink:href="#rim" fill="#404040">
                                <set attributeName="fill" to="#808080" begin="zoomminus.mouseover" end="zoomminus.mouseout"/>
                        </use>
                        <path d="M-4,0h8" fill="none" stroke="white" stroke-width="1.5" pointer-events="none"/>
                </g>
                <g id="dirArrow">
                        <path fill="none" stroke="white" stroke-width="1.5" d="M0,-3.0v7 M-2.5,-0.5L0,-3.0L2.5,-0.5"/>
                </g>
               <g id="resetDef">
                       <use xlink:href="#rim2" fill="#404040">
                               <set attributeName="fill" to="#808080" begin="reset.mouseover" end="reset.mouseout"/>
                       </use>
               </g>
        </defs>

<script type="text/javascript">
var viewWidth = 1220;
var viewHeight = 165;
var sectionId = 'dynsection-1';
</script>
<script xlink:href="svgpan.js"/>
<svg id="graph" class="graph">
<g id="viewport">
<title>Mezzanine::Input::ButtonDevice</title>
<polygon fill="white" stroke="none" points="-4,4 -4,-161 1216,-161 1216,4 -4,4"/>
<!-- Node1 -->
<g id="node1" class="node"><title>Node1</title>
<polygon fill="#bfbfbf" stroke="black" points="1086,-44.5 1086,-74.5 1212,-74.5 1212,-44.5 1086,-44.5"/>
<text text-anchor="start" x="1094" y="-62.5" font-family="Helvetica,sans-Serif" font-size="10.00">Mezzanine::Input::Button</text>
<text text-anchor="middle" x="1149" y="-51.5" font-family="Helvetica,sans-Serif" font-size="10.00">Device</text>
</g>
<!-- Node2 -->
<g id="node2" class="node"><title>Node2</title>
<g id="a_node2"><a xlink:href="classMezzanine_1_1Input_1_1Device.html" target="_top" xlink:title="This is a base class for all input devices. ">
<polygon fill="white" stroke="black" points="828,-88 828,-107 956,-107 956,-88 828,-88"/>
<text text-anchor="middle" x="892" y="-95" font-family="Helvetica,sans-Serif" font-size="10.00">Mezzanine::Input::Device</text>
</a>
</g>
</g>
<!-- Node2&#45;&gt;Node1 -->
<g id="edge1" class="edge"><title>Node2&#45;&gt;Node1</title>
<path fill="none" stroke="midnightblue" d="M966.281,-88.7751C997.663,-84.8043 1034.69,-79.8083 1068,-74.5 1073.72,-73.5883 1079.66,-72.5839 1085.61,-71.5399"/>
<polygon fill="midnightblue" stroke="midnightblue" points="965.788,-85.3094 956.302,-90.0274 966.66,-92.2549 965.788,-85.3094"/>
</g>
<!-- Node3 -->
<g id="node3" class="node"><title>Node3</title>
<g id="a_node3"><a xlink:href="classMezzanine_1_1Input_1_1SequenceContainer.html" target="_top" xlink:title="This class stores and provides utilities for sequenced inputs and their operations. ">
<polygon fill="white" stroke="black" points="599,-82.5 599,-112.5 740,-112.5 740,-82.5 599,-82.5"/>
<text text-anchor="start" x="607" y="-100.5" font-family="Helvetica,sans-Serif" font-size="10.00">Mezzanine::Input::Sequence</text>
<text text-anchor="middle" x="669.5" y="-89.5" font-family="Helvetica,sans-Serif" font-size="10.00">Container</text>
</a>
</g>
</g>
<!-- Node3&#45;&gt;Node2 -->
<g id="edge2" class="edge"><title>Node3&#45;&gt;Node2</title>
<path fill="none" stroke="#9a32cd" stroke-dasharray="5,2" d="M750.606,-97.5C775.972,-97.5 803.645,-97.5 827.666,-97.5"/>
<polygon fill="#9a32cd" stroke="#9a32cd" points="750.268,-94.0001 740.268,-97.5 750.268,-101 750.268,-94.0001"/>
<text text-anchor="middle" x="784" y="-100.5" font-family="Helvetica,sans-Serif" font-size="10.00"> Sequences</text>
</g>
<!-- Node4 -->
<g id="node4" class="node"><title>Node4</title>
<g id="a_node4"><a xlink:href="classMezzanine_1_1Trie.html" target="_top" xlink:title="Mezzanine::Trie\&lt; Input\l::MetaCode, Int32 \&gt;">
<polygon fill="white" stroke="black" points="339,-126.5 339,-156.5 456,-156.5 456,-126.5 339,-126.5"/>
<text text-anchor="start" x="347" y="-144.5" font-family="Helvetica,sans-Serif" font-size="10.00">Mezzanine::Trie&lt; Input</text>
<text text-anchor="middle" x="397.5" y="-133.5" font-family="Helvetica,sans-Serif" font-size="10.00">::MetaCode, Int32 &gt;</text>
</a>
</g>
</g>
<!-- Node4&#45;&gt;Node3 -->
<g id="edge3" class="edge"><title>Node4&#45;&gt;Node3</title>
<path fill="none" stroke="#9a32cd" stroke-dasharray="5,2" d="M466.013,-130.973C500.443,-125.553 542.972,-118.781 581,-112.5 586.778,-111.546 592.769,-110.544 598.782,-109.53"/>
<polygon fill="#9a32cd" stroke="#9a32cd" points="465.401,-127.526 456.066,-132.537 466.488,-134.441 465.401,-127.526"/>
<text text-anchor="middle" x="534" y="-130.5" font-family="Helvetica,sans-Serif" font-size="10.00"> SequencedInputs</text>
</g>
<!-- Node5 -->
<g id="node5" class="node"><title>Node5</title>
<g id="a_node5"><a xlink:href="classMezzanine_1_1StopWatchTimer.html" target="_top" xlink:title="This is a timer class for counting down to a specified time. ">
<polygon fill="white" stroke="black" points="326,-88 326,-107 469,-107 469,-88 326,-88"/>
<text text-anchor="middle" x="397.5" y="-95" font-family="Helvetica,sans-Serif" font-size="10.00">Mezzanine::StopWatchTimer</text>
</a>
</g>
</g>
<!-- Node5&#45;&gt;Node3 -->
<g id="edge4" class="edge"><title>Node5&#45;&gt;Node3</title>
<path fill="none" stroke="#9a32cd" stroke-dasharray="5,2" d="M479.118,-97.5C517.198,-97.5 562.209,-97.5 598.793,-97.5"/>
<polygon fill="#9a32cd" stroke="#9a32cd" points="479.087,-94.0001 469.087,-97.5 479.087,-101 479.087,-94.0001"/>
<text text-anchor="middle" x="534" y="-100.5" font-family="Helvetica,sans-Serif" font-size="10.00"> SequenceTimer</text>
</g>
<!-- Node6 -->
<g id="node6" class="node"><title>Node6</title>
<g id="a_node6"><a xlink:href="classMezzanine_1_1GoalTimer.html" target="_top" xlink:title="This is the base class for timers intended to run only until they reach a specific goal...">
<polygon fill="white" stroke="black" points="132,-88 132,-107 247,-107 247,-88 132,-88"/>
<text text-anchor="middle" x="189.5" y="-95" font-family="Helvetica,sans-Serif" font-size="10.00">Mezzanine::GoalTimer</text>
</a>
</g>
</g>
<!-- Node6&#45;&gt;Node5 -->
<g id="edge5" class="edge"><title>Node6&#45;&gt;Node5</title>
<path fill="none" stroke="midnightblue" d="M257.255,-97.5C279.142,-97.5 303.532,-97.5 325.708,-97.5"/>
<polygon fill="midnightblue" stroke="midnightblue" points="257.063,-94.0001 247.063,-97.5 257.063,-101 257.063,-94.0001"/>
</g>
<!-- Node7 -->
<g id="node7" class="node"><title>Node7</title>
<g id="a_node7"><a xlink:href="classMezzanine_1_1Timer.html" target="_top" xlink:title="A base timer class for the different timers. ">
<polygon fill="white" stroke="black" points="0,-88 0,-107 95,-107 95,-88 0,-88"/>
<text text-anchor="middle" x="47.5" y="-95" font-family="Helvetica,sans-Serif" font-size="10.00">Mezzanine::Timer</text>
</a>
</g>
</g>
<!-- Node7&#45;&gt;Node6 -->
<g id="edge6" class="edge"><title>Node7&#45;&gt;Node6</title>
<path fill="none" stroke="midnightblue" d="M105.253,-97.5C114.028,-97.5 123.093,-97.5 131.866,-97.5"/>
<polygon fill="midnightblue" stroke="midnightblue" points="105.118,-94.0001 95.118,-97.5 105.118,-101 105.118,-94.0001"/>
</g>
<!-- Node8 -->
<g id="node8" class="node"><title>Node8</title>
<g id="a_node8"><a xlink:title="STL class. ">
<polygon fill="white" stroke="#bfbfbf" points="354,-50 354,-69 441,-69 441,-50 354,-50"/>
<text text-anchor="middle" x="397.5" y="-57" font-family="Helvetica,sans-Serif" font-size="10.00">std::vector&lt; T &gt;</text>
</a>
</g>
</g>
<!-- Node8&#45;&gt;Node3 -->
<g id="edge7" class="edge"><title>Node8&#45;&gt;Node3</title>
<path fill="none" stroke="#9a32cd" stroke-dasharray="5,2" d="M451.744,-65.5781C488.19,-69.8935 537.588,-76.0467 581,-82.5 586.793,-83.3612 592.794,-84.2972 598.814,-85.2668"/>
<polygon fill="#9a32cd" stroke="#9a32cd" points="451.688,-62.0475 441.348,-64.3554 450.871,-68.9996 451.688,-62.0475"/>
<text text-anchor="middle" x="534" y="-85.5" font-family="Helvetica,sans-Serif" font-size="10.00"> CurrSequenceCache</text>
</g>
<!-- Node9 -->
<g id="node9" class="node"><title>Node9</title>
<polygon fill="white" stroke="#bfbfbf" points="175,-50 175,-69 204,-69 204,-50 175,-50"/>
<text text-anchor="middle" x="189.5" y="-57" font-family="Helvetica,sans-Serif" font-size="10.00">T</text>
</g>
<!-- Node9&#45;&gt;Node8 -->
<g id="edge8" class="edge"><title>Node9&#45;&gt;Node8</title>
<path fill="none" stroke="#9a32cd" stroke-dasharray="5,2" d="M214.381,-59.5C248.435,-59.5 311.49,-59.5 353.723,-59.5"/>
<polygon fill="#9a32cd" stroke="#9a32cd" points="214.016,-56.0001 204.016,-59.5 214.016,-63.0001 214.016,-56.0001"/>
<text text-anchor="middle" x="286.5" y="-62.5" font-family="Helvetica,sans-Serif" font-size="10.00"> elements</text>
</g>
<!-- Node10 -->
<g id="node10" class="node"><title>Node10</title>
<polygon fill="white" stroke="#bfbfbf" points="837.5,-50 837.5,-69 946.5,-69 946.5,-50 837.5,-50"/>
<text text-anchor="middle" x="892" y="-57" font-family="Helvetica,sans-Serif" font-size="10.00">std::vector&lt; Whole &gt;</text>
</g>
<!-- Node10&#45;&gt;Node1 -->
<g id="edge9" class="edge"><title>Node10&#45;&gt;Node1</title>
<path fill="none" stroke="#9a32cd" stroke-dasharray="5,2" d="M956.804,-59.5C996.246,-59.5 1046.63,-59.5 1085.78,-59.5"/>
<polygon fill="#9a32cd" stroke="#9a32cd" points="956.767,-56.0001 946.767,-59.5 956.767,-63.0001 956.767,-56.0001"/>
<text text-anchor="middle" x="1021" y="-62.5" font-family="Helvetica,sans-Serif" font-size="10.00"> TransitioningIndexes</text>
</g>
<!-- Node11 -->
<g id="node11" class="node"><title>Node11</title>
<polygon fill="white" stroke="#bfbfbf" points="845,-0.5 845,-30.5 939,-30.5 939,-0.5 845,-0.5"/>
<text text-anchor="start" x="853" y="-18.5" font-family="Helvetica,sans-Serif" font-size="10.00">std::vector&lt; Input</text>
<text text-anchor="middle" x="892" y="-7.5" font-family="Helvetica,sans-Serif" font-size="10.00">::ButtonState &gt;</text>
</g>
<!-- Node11&#45;&gt;Node1 -->
<g id="edge10" class="edge"><title>Node11&#45;&gt;Node1</title>
<path fill="none" stroke="#9a32cd" stroke-dasharray="5,2" d="M949.402,-24.5364C983.72,-30.1118 1028.42,-37.5113 1068,-44.5 1073.71,-45.5075 1079.64,-46.577 1085.57,-47.6629"/>
<polygon fill="#9a32cd" stroke="#9a32cd" points="949.534,-21.0121 939.103,-22.8672 948.414,-27.922 949.534,-21.0121"/>
<text text-anchor="middle" x="1021" y="-47.5" font-family="Helvetica,sans-Serif" font-size="10.00"> Buttons</text>
</g>
</g>
</svg>
        <g id="navigator" transform="translate(0 0)" fill="#404254">
                <rect fill="#f2f5e9" fill-opacity="0.5" stroke="#606060" stroke-width=".5" x="0" y="0" width="60" height="60"/>
                <use id="zoomplus" xlink:href="#zoomPlus" x="17" y="9" onmousedown="handleZoom(evt,'in')"/>
                <use id="zoomminus" xlink:href="#zoomMin" x="42" y="9" onmousedown="handleZoom(evt,'out')"/>
                <use id="reset" xlink:href="#resetDef" x="30" y="36" onmousedown="handleReset()"/>
                <g id="arrowUp" xlink:href="#dirArrow" transform="translate(30 24)" onmousedown="handlePan(0,-1)">
                  <use xlink:href="#rim" fill="#404040">
                        <set attributeName="fill" to="#808080" begin="arrowUp.mouseover" end="arrowUp.mouseout"/>
                  </use>
                  <path fill="none" stroke="white" stroke-width="1.5" d="M0,-3.0v7 M-2.5,-0.5L0,-3.0L2.5,-0.5"/>
                </g>
                <g id="arrowRight" xlink:href="#dirArrow" transform="rotate(90) translate(36 -43)" onmousedown="handlePan(1,0)">
                  <use xlink:href="#rim" fill="#404040">
                        <set attributeName="fill" to="#808080" begin="arrowRight.mouseover" end="arrowRight.mouseout"/>
                  </use>
                  <path fill="none" stroke="white" stroke-width="1.5" d="M0,-3.0v7 M-2.5,-0.5L0,-3.0L2.5,-0.5"/>
                </g>
                <g id="arrowDown" xlink:href="#dirArrow" transform="rotate(180) translate(-30 -48)" onmousedown="handlePan(0,1)">
                  <use xlink:href="#rim" fill="#404040">
                        <set attributeName="fill" to="#808080" begin="arrowDown.mouseover" end="arrowDown.mouseout"/>
                  </use>
                  <path fill="none" stroke="white" stroke-width="1.5" d="M0,-3.0v7 M-2.5,-0.5L0,-3.0L2.5,-0.5"/>
                </g>
                <g id="arrowLeft" xlink:href="#dirArrow" transform="rotate(270) translate(-36 17)" onmousedown="handlePan(-1,0)">
                  <use xlink:href="#rim" fill="#404040">
                        <set attributeName="fill" to="#808080" begin="arrowLeft.mouseover" end="arrowLeft.mouseout"/>
                  </use>
                  <path fill="none" stroke="white" stroke-width="1.5" d="M0,-3.0v7 M-2.5,-0.5L0,-3.0L2.5,-0.5"/>
                </g>
        </g>
        <svg viewBox="0 0 15 15" width="100%" height="30px" preserveAspectRatio="xMaxYMin meet">
         <g id="arrow_out" transform="scale(0.3 0.3)">
          <a xlink:href="classMezzanine_1_1Input_1_1ButtonDevice__coll__graph_org.svg" target="_base">
           <rect id="button" ry="5" rx="5" y="6" x="6" height="38" width="38"
                fill="#f2f5e9" fill-opacity="0.5" stroke="#606060" stroke-width="1.0"/>
           <path id="arrow"
             d="M 11.500037,31.436501 C 11.940474,20.09759 22.043105,11.32322 32.158766,21.979434 L 37.068811,17.246167 C 37.068811,17.246167 37.088388,32 37.088388,32 L 22.160133,31.978069 C 22.160133,31.978069 26.997745,27.140456 26.997745,27.140456 C 18.528582,18.264221 13.291696,25.230495 11.500037,31.436501 z"
             style="fill:#404040;"/>
          </a>
         </g>
        </svg>
</svg>
