<?xml version="1.0" encoding="UTF-8" standalone="no"?>
<!DOCTYPE svg PUBLIC "-//W3C//DTD SVG 1.1//EN"
 "http://www.w3.org/Graphics/SVG/1.1/DTD/svg11.dtd">
<!-- Generated by graphviz version 2.38.0 (20140413.2041)
 -->
<!-- Title: Mezzanine::CFunctionSubscriberSlot Pages: 1 -->
<svg width="543pt" height="184pt"
 viewBox="0.00 0.00 543.00 184.00" xmlns="http://www.w3.org/2000/svg" xmlns:xlink="http://www.w3.org/1999/xlink">
<g id="graph0" class="graph" transform="scale(1 1) rotate(0) translate(4 180)">
<title>Mezzanine::CFunctionSubscriberSlot</title>
<polygon fill="white" stroke="none" points="-4,4 -4,-180 539,-180 539,4 -4,4"/>
<!-- Node1 -->
<g id="node1" class="node"><title>Node1</title>
<polygon fill="#bfbfbf" stroke="black" points="0,-73 0,-92 179,-92 179,-73 0,-73"/>
<text text-anchor="middle" x="89.5" y="-80" font-family="Helvetica,sans-Serif" font-size="10.00">Mezzanine::CFunctionSubscriberSlot</text>
</g>
<!-- Node2 -->
<g id="node2" class="node"><title>Node2</title>
<g id="a_node2"><a xlink:href="classMezzanine_1_1EventSubscriberSlot.html" target="_top" xlink:title="This class represents a slot in an event that can be subscribed to via subscribers, functors, or methods. ">
<polygon fill="white" stroke="black" points="190,-151 190,-170 349,-170 349,-151 190,-151"/>
<text text-anchor="middle" x="269.5" y="-158" font-family="Helvetica,sans-Serif" font-size="10.00">Mezzanine::EventSubscriberSlot</text>
</a>
</g>
</g>
<!-- Node2&#45;&gt;Node1 -->
<g id="edge1" class="edge"><title>Node2&#45;&gt;Node1</title>
<path fill="none" stroke="midnightblue" d="M239.523,-146.843C202.736,-131.311 141.361,-105.397 109.724,-92.0391"/>
<polygon fill="midnightblue" stroke="midnightblue" points="238.628,-150.264 249.202,-150.93 241.351,-143.815 238.628,-150.264"/>
</g>
<!-- Node6 -->
<g id="node6" class="node"><title>Node6</title>
<polygon fill="white" stroke="#bfbfbf" points="197.5,-67.5 197.5,-97.5 341.5,-97.5 341.5,-67.5 197.5,-67.5"/>
<text text-anchor="start" x="205.5" y="-85.5" font-family="Helvetica,sans-Serif" font-size="10.00">std::vector&lt; EventSubscriber</text>
<text text-anchor="middle" x="269.5" y="-74.5" font-family="Helvetica,sans-Serif" font-size="10.00">Slot * &gt;</text>
</g>
<!-- Node2&#45;&gt;Node6 -->
<g id="edge6" class="edge"><title>Node2&#45;&gt;Node6</title>
<path fill="none" stroke="#9a32cd" stroke-dasharray="5,2" d="M269.5,-140.782C269.5,-127.404 269.5,-109.688 269.5,-97.5198"/>
<polygon fill="#9a32cd" stroke="#9a32cd" points="266,-140.782 269.5,-150.782 273,-140.782 266,-140.782"/>
<text text-anchor="middle" x="291" y="-119" font-family="Helvetica,sans-Serif" font-size="10.00"> elements</text>
</g>
<!-- Node3 -->
<g id="node3" class="node"><title>Node3</title>
<g id="a_node3"><a xlink:href="classMezzanine_1_1Event.html" target="_top" xlink:title="This class represents a given event that can be subscribed to and/or fired. ">
<polygon fill="white" stroke="black" points="330,-0.5 330,-19.5 425,-19.5 425,-0.5 330,-0.5"/>
<text text-anchor="middle" x="377.5" y="-7.5" font-family="Helvetica,sans-Serif" font-size="10.00">Mezzanine::Event</text>
</a>
</g>
</g>
<!-- Node3&#45;&gt;Node2 -->
<g id="edge2" class="edge"><title>Node3&#45;&gt;Node2</title>
<path fill="none" stroke="#9a32cd" stroke-dasharray="5,2" d="M374.769,-29.9634C371.402,-48.5287 364.338,-77.0048 350.5,-98 334.467,-122.325 305.453,-140.842 286.851,-150.933"/>
<polygon fill="#9a32cd" stroke="#9a32cd" points="378.264,-30.2722 376.414,-19.8401 371.355,-29.1489 378.264,-30.2722"/>
<text text-anchor="middle" x="396.5" y="-80" font-family="Helvetica,sans-Serif" font-size="10.00"> SubbedEvent</text>
</g>
<!-- Node4 -->
<g id="node4" class="node"><title>Node4</title>
<g id="a_node4"><a xlink:title="STL class. ">
<polygon fill="white" stroke="#bfbfbf" points="457.5,-73 457.5,-92 517.5,-92 517.5,-73 457.5,-73"/>
<text text-anchor="middle" x="487.5" y="-80" font-family="Helvetica,sans-Serif" font-size="10.00">std::string</text>
</a>
</g>
</g>
<!-- Node4&#45;&gt;Node3 -->
<g id="edge3" class="edge"><title>Node4&#45;&gt;Node3</title>
<path fill="none" stroke="#9a32cd" stroke-dasharray="5,2" d="M465.553,-67.4341C443.347,-53.2019 409.713,-31.6459 391.098,-19.7154"/>
<polygon fill="#9a32cd" stroke="#9a32cd" points="463.704,-70.406 474.012,-72.8553 467.481,-64.5126 463.704,-70.406"/>
<text text-anchor="middle" x="464" y="-41" font-family="Helvetica,sans-Serif" font-size="10.00"> EventName</text>
</g>
<!-- Node5 -->
<g id="node5" class="node"><title>Node5</title>
<g id="a_node5"><a xlink:title="STL class. ">
<polygon fill="white" stroke="#bfbfbf" points="440,-145.5 440,-175.5 535,-175.5 535,-145.5 440,-145.5"/>
<text text-anchor="start" x="448" y="-163.5" font-family="Helvetica,sans-Serif" font-size="10.00">std::basic_string&lt;</text>
<text text-anchor="middle" x="487.5" y="-152.5" font-family="Helvetica,sans-Serif" font-size="10.00"> char &gt;</text>
</a>
</g>
</g>
<!-- Node5&#45;&gt;Node4 -->
<g id="edge4" class="edge"><title>Node5&#45;&gt;Node4</title>
<path fill="none" stroke="midnightblue" d="M487.5,-135.165C487.5,-120.396 487.5,-102.448 487.5,-92.0635"/>
<polygon fill="midnightblue" stroke="midnightblue" points="484,-135.205 487.5,-145.205 491,-135.205 484,-135.205"/>
</g>
<!-- Node6&#45;&gt;Node3 -->
<g id="edge5" class="edge"><title>Node6&#45;&gt;Node3</title>
<path fill="none" stroke="#9a32cd" stroke-dasharray="5,2" d="M299.507,-61.912C320.834,-47.9905 348.427,-29.9781 364.427,-19.5336"/>
<polygon fill="#9a32cd" stroke="#9a32cd" points="297.556,-59.0056 291.096,-67.4027 301.383,-64.8673 297.556,-59.0056"/>
<text text-anchor="middle" x="346.5" y="-41" font-family="Helvetica,sans-Serif" font-size="10.00"> Slots</text>
</g>
</g>
</svg>
