<?xml version="1.0" encoding="UTF-8" standalone="no"?>
<!DOCTYPE svg PUBLIC "-//W3C//DTD SVG 1.1//EN"
 "http://www.w3.org/Graphics/SVG/1.1/DTD/svg11.dtd">
<!-- Generated by graphviz version 2.38.0 (20140413.2041)
 -->
<!-- Title: Mezzanine::ScriptLuaException Pages: 1 -->
<svg width="785pt" height="137pt"
 viewBox="0.00 0.00 785.00 137.00" xmlns="http://www.w3.org/2000/svg" xmlns:xlink="http://www.w3.org/1999/xlink">
<g id="graph0" class="graph" transform="scale(1 1) rotate(0) translate(4 133)">
<title>Mezzanine::ScriptLuaException</title>
<polygon fill="white" stroke="none" points="-4,4 -4,-133 781,-133 781,4 -4,4"/>
<!-- Node1 -->
<g id="node1" class="node"><title>Node1</title>
<polygon fill="#bfbfbf" stroke="black" points="438,-55 438,-74 593,-74 593,-55 438,-55"/>
<text text-anchor="middle" x="515.5" y="-62" font-family="Helvetica,sans-Serif" font-size="10.00">Mezzanine::ScriptLuaException</text>
</g>
<!-- Node5 -->
<g id="node5" class="node"><title>Node5</title>
<g id="a_node5"><a xlink:href="classMezzanine_1_1ScriptLuaErrErrException.html" target="_top" xlink:title="Thrown when Lua has an error handling an error. ">
<polygon fill="white" stroke="black" points="634.5,-98.5 634.5,-128.5 771.5,-128.5 771.5,-98.5 634.5,-98.5"/>
<text text-anchor="start" x="642.5" y="-116.5" font-family="Helvetica,sans-Serif" font-size="10.00">Mezzanine::ScriptLuaErrErr</text>
<text text-anchor="middle" x="703" y="-105.5" font-family="Helvetica,sans-Serif" font-size="10.00">Exception</text>
</a>
</g>
</g>
<!-- Node1&#45;&gt;Node5 -->
<g id="edge4" class="edge"><title>Node1&#45;&gt;Node5</title>
<path fill="none" stroke="midnightblue" d="M562.646,-76.6896C587.599,-83.2808 618.632,-91.4782 645.074,-98.463"/>
<polygon fill="midnightblue" stroke="midnightblue" points="563.269,-73.2341 552.707,-74.064 561.481,-80.0019 563.269,-73.2341"/>
</g>
<!-- Node6 -->
<g id="node6" class="node"><title>Node6</title>
<g id="a_node6"><a xlink:href="classMezzanine_1_1ScriptLuaRuntimeException.html" target="_top" xlink:title="Thrown when a Lua script has a runtime error. ">
<polygon fill="white" stroke="black" points="629,-49.5 629,-79.5 777,-79.5 777,-49.5 629,-49.5"/>
<text text-anchor="start" x="637" y="-67.5" font-family="Helvetica,sans-Serif" font-size="10.00">Mezzanine::ScriptLuaRuntime</text>
<text text-anchor="middle" x="703" y="-56.5" font-family="Helvetica,sans-Serif" font-size="10.00">Exception</text>
</a>
</g>
</g>
<!-- Node1&#45;&gt;Node6 -->
<g id="edge5" class="edge"><title>Node1&#45;&gt;Node6</title>
<path fill="none" stroke="midnightblue" d="M603.11,-64.5C611.749,-64.5 620.458,-64.5 628.937,-64.5"/>
<polygon fill="midnightblue" stroke="midnightblue" points="603.021,-61.0001 593.021,-64.5 603.021,-68.0001 603.021,-61.0001"/>
</g>
<!-- Node7 -->
<g id="node7" class="node"><title>Node7</title>
<g id="a_node7"><a xlink:href="classMezzanine_1_1ScriptLuaYieldException.html" target="_top" xlink:title="Thrown when Lua returns a yield and it should not have. ">
<polygon fill="white" stroke="black" points="636.5,-0.5 636.5,-30.5 769.5,-30.5 769.5,-0.5 636.5,-0.5"/>
<text text-anchor="start" x="644.5" y="-18.5" font-family="Helvetica,sans-Serif" font-size="10.00">Mezzanine::ScriptLuaYield</text>
<text text-anchor="middle" x="703" y="-7.5" font-family="Helvetica,sans-Serif" font-size="10.00">Exception</text>
</a>
</g>
</g>
<!-- Node1&#45;&gt;Node7 -->
<g id="edge6" class="edge"><title>Node1&#45;&gt;Node7</title>
<path fill="none" stroke="midnightblue" d="M562.646,-52.3104C587.599,-45.7192 618.632,-37.5218 645.074,-30.537"/>
<polygon fill="midnightblue" stroke="midnightblue" points="561.481,-48.9981 552.707,-54.936 563.269,-55.7659 561.481,-48.9981"/>
</g>
<!-- Node2 -->
<g id="node2" class="node"><title>Node2</title>
<g id="a_node2"><a xlink:href="classMezzanine_1_1ScriptException.html" target="_top" xlink:title="Thrown when an unknown error happens with a script. ">
<polygon fill="white" stroke="black" points="263,-55 263,-74 402,-74 402,-55 263,-55"/>
<text text-anchor="middle" x="332.5" y="-62" font-family="Helvetica,sans-Serif" font-size="10.00">Mezzanine::ScriptException</text>
</a>
</g>
</g>
<!-- Node2&#45;&gt;Node1 -->
<g id="edge1" class="edge"><title>Node2&#45;&gt;Node1</title>
<path fill="none" stroke="midnightblue" d="M412.442,-64.5C420.923,-64.5 429.542,-64.5 437.993,-64.5"/>
<polygon fill="midnightblue" stroke="midnightblue" points="412.186,-61.0001 402.186,-64.5 412.186,-68.0001 412.186,-61.0001"/>
</g>
<!-- Node3 -->
<g id="node3" class="node"><title>Node3</title>
<g id="a_node3"><a xlink:href="classMezzanine_1_1Exception.html" target="_top" xlink:title="This is the exception thrown by most Mezzanine system that can throw exceptions. ">
<polygon fill="white" stroke="black" points="114,-55 114,-74 227,-74 227,-55 114,-55"/>
<text text-anchor="middle" x="170.5" y="-62" font-family="Helvetica,sans-Serif" font-size="10.00">Mezzanine::Exception</text>
</a>
</g>
</g>
<!-- Node3&#45;&gt;Node2 -->
<g id="edge2" class="edge"><title>Node3&#45;&gt;Node2</title>
<path fill="none" stroke="midnightblue" d="M237.192,-64.5C245.65,-64.5 254.329,-64.5 262.833,-64.5"/>
<polygon fill="midnightblue" stroke="midnightblue" points="237.011,-61.0001 227.011,-64.5 237.011,-68.0001 237.011,-61.0001"/>
</g>
<!-- Node4 -->
<g id="node4" class="node"><title>Node4</title>
<g id="a_node4"><a xlink:title="STL class. ">
<polygon fill="white" stroke="#bfbfbf" points="0,-55 0,-74 78,-74 78,-55 0,-55"/>
<text text-anchor="middle" x="39" y="-62" font-family="Helvetica,sans-Serif" font-size="10.00">std::exception</text>
</a>
</g>
</g>
<!-- Node4&#45;&gt;Node3 -->
<g id="edge3" class="edge"><title>Node4&#45;&gt;Node3</title>
<path fill="none" stroke="midnightblue" d="M88.4154,-64.5C96.7137,-64.5 105.395,-64.5 113.864,-64.5"/>
<polygon fill="midnightblue" stroke="midnightblue" points="88.1539,-61.0001 78.1539,-64.5 88.1538,-68.0001 88.1539,-61.0001"/>
</g>
</g>
</svg>
