<?xml version="1.0" encoding="UTF-8" standalone="no"?>
<!DOCTYPE svg PUBLIC "-//W3C//DTD SVG 1.1//EN"
 "http://www.w3.org/Graphics/SVG/1.1/DTD/svg11.dtd">
<!-- Generated by graphviz version 2.26.3 (20100126.1600)
 -->
<!-- Title: Mezzanine::IOReadException Pages: 1 -->
<svg width="150pt" height="204pt"
 viewBox="0.00 0.00 150.00 204.00" xmlns="http://www.w3.org/2000/svg" xmlns:xlink="http://www.w3.org/1999/xlink">
<g id="graph1" class="graph" transform="scale(1 1) rotate(0) translate(4 200)">
<title>Mezzanine::IOReadException</title>
<!-- Node1 -->
<g id="node1" class="node"><title>Node1</title>
<polygon fill="#bfbfbf" stroke="black" points="0,-1 0,-21 142,-21 142,-1 0,-1"/>
<text text-anchor="middle" x="71" y="-8" font-family="FreeSans" font-size="10.00">Mezzanine::IOReadException</text>
</g>
<!-- Node2 -->
<g id="node2" class="node"><title>Node2</title>
<a xlink:href="classMezzanine_1_1IOException.xhtml" target="_top" xlink:title="Thrown when there was an issue with IO but very little was known about it.">
<polygon fill="none" stroke="black" points="11.5,-59 11.5,-79 130.5,-79 130.5,-59 11.5,-59"/>
<text text-anchor="middle" x="71" y="-66" font-family="FreeSans" font-size="10.00">Mezzanine::IOException</text>
</a>
</g>
<!-- Node2&#45;&gt;Node1 -->
<g id="edge2" class="edge"><title>Node2&#45;&gt;Node1</title>
<path fill="none" stroke="midnightblue" d="M71,-48.8902C71,-39.6201 71,-29.0083 71,-21.3776"/>
<polygon fill="midnightblue" stroke="midnightblue" points="67.5001,-48.8971 71,-58.8972 74.5001,-48.8972 67.5001,-48.8971"/>
</g>
<!-- Node3 -->
<g id="node4" class="node"><title>Node3</title>
<a xlink:href="classMezzanine_1_1Exception.xhtml" target="_top" xlink:title="This is the exception thrown by most Mezzanine system that can throw exceptions.">
<polygon fill="none" stroke="black" points="16.5,-117 16.5,-137 125.5,-137 125.5,-117 16.5,-117"/>
<text text-anchor="middle" x="71" y="-124" font-family="FreeSans" font-size="10.00">Mezzanine::Exception</text>
</a>
</g>
<!-- Node3&#45;&gt;Node2 -->
<g id="edge4" class="edge"><title>Node3&#45;&gt;Node2</title>
<path fill="none" stroke="midnightblue" d="M71,-106.89C71,-97.6201 71,-87.0083 71,-79.3776"/>
<polygon fill="midnightblue" stroke="midnightblue" points="67.5001,-106.897 71,-116.897 74.5001,-106.897 67.5001,-106.897"/>
</g>
<!-- Node4 -->
<g id="node6" class="node"><title>Node4</title>
<a xlink:title="STL class.">
<polygon fill="none" stroke="#bfbfbf" points="33.5,-175 33.5,-195 108.5,-195 108.5,-175 33.5,-175"/>
<text text-anchor="middle" x="71" y="-182" font-family="FreeSans" font-size="10.00">std::exception</text>
</a>
</g>
<!-- Node4&#45;&gt;Node3 -->
<g id="edge6" class="edge"><title>Node4&#45;&gt;Node3</title>
<path fill="none" stroke="midnightblue" d="M71,-164.89C71,-155.62 71,-145.008 71,-137.378"/>
<polygon fill="midnightblue" stroke="midnightblue" points="67.5001,-164.897 71,-174.897 74.5001,-164.897 67.5001,-164.897"/>
</g>
</g>
</svg>
