<?xml version="1.0" encoding="UTF-8" standalone="no"?>
<!DOCTYPE svg PUBLIC "-//W3C//DTD SVG 1.1//EN"
 "http://www.w3.org/Graphics/SVG/1.1/DTD/svg11.dtd">
<!-- Generated by graphviz version 2.38.0 (20140413.2041)
 -->
<!-- Title: /home/sqeaky/Code/MezzanineFresh/UnitTests/src/consolestringmanipulation.h Pages: 1 -->
<svg width="454pt" height="173pt"
 viewBox="0.00 0.00 454.00 173.00" xmlns="http://www.w3.org/2000/svg" xmlns:xlink="http://www.w3.org/1999/xlink">
<g id="graph0" class="graph" transform="scale(1 1) rotate(0) translate(4 169)">
<title>/home/sqeaky/Code/MezzanineFresh/UnitTests/src/consolestringmanipulation.h</title>
<polygon fill="white" stroke="none" points="-4,4 -4,-169 450,-169 450,4 -4,4"/>
<!-- Node1 -->
<g id="node1" class="node"><title>Node1</title>
<polygon fill="#bfbfbf" stroke="black" points="68,-134.5 68,-164.5 295,-164.5 295,-134.5 68,-134.5"/>
<text text-anchor="start" x="76" y="-152.5" font-family="Helvetica,sans-Serif" font-size="10.00">/home/sqeaky/Code/Mezzanine</text>
<text text-anchor="middle" x="181.5" y="-141.5" font-family="Helvetica,sans-Serif" font-size="10.00">Fresh/UnitTests/src/consolestringmanipulation.h</text>
</g>
<!-- Node2 -->
<g id="node2" class="node"><title>Node2</title>
<g id="a_node2"><a xlink:href="consolelogic_8cpp.html" target="_top" xlink:title="The implementation of items important a commandline tool to work correctly without need to be availab...">
<polygon fill="white" stroke="black" points="0,-67.5 0,-97.5 179,-97.5 179,-67.5 0,-67.5"/>
<text text-anchor="start" x="8" y="-85.5" font-family="Helvetica,sans-Serif" font-size="10.00">/home/sqeaky/Code/Mezzanine</text>
<text text-anchor="middle" x="89.5" y="-74.5" font-family="Helvetica,sans-Serif" font-size="10.00">Fresh/UnitTests/src/consolelogic.cpp</text>
</a>
</g>
</g>
<!-- Node1&#45;&gt;Node2 -->
<g id="edge1" class="edge"><title>Node1&#45;&gt;Node2</title>
<path fill="none" stroke="midnightblue" d="M153.123,-128.451C138.97,-118.452 122.195,-106.6 109.424,-97.5765"/>
<polygon fill="midnightblue" stroke="midnightblue" points="151.351,-131.484 161.537,-134.396 155.39,-125.767 151.351,-131.484"/>
</g>
<!-- Node3 -->
<g id="node3" class="node"><title>Node3</title>
<g id="a_node3"><a xlink:href="mezztest_8h_source.html" target="_top" xlink:title="/home/sqeaky/Code/Mezzanine\lFresh/UnitTests/src/mezztest.h">
<polygon fill="white" stroke="black" points="197,-67.5 197,-97.5 352,-97.5 352,-67.5 197,-67.5"/>
<text text-anchor="start" x="205" y="-85.5" font-family="Helvetica,sans-Serif" font-size="10.00">/home/sqeaky/Code/Mezzanine</text>
<text text-anchor="middle" x="274.5" y="-74.5" font-family="Helvetica,sans-Serif" font-size="10.00">Fresh/UnitTests/src/mezztest.h</text>
</a>
</g>
</g>
<!-- Node1&#45;&gt;Node3 -->
<g id="edge2" class="edge"><title>Node1&#45;&gt;Node3</title>
<path fill="none" stroke="midnightblue" d="M210.185,-128.451C224.492,-118.452 241.45,-106.6 254.36,-97.5765"/>
<polygon fill="midnightblue" stroke="midnightblue" points="207.871,-125.798 201.68,-134.396 211.881,-131.536 207.871,-125.798"/>
</g>
<!-- Node4 -->
<g id="node4" class="node"><title>Node4</title>
<g id="a_node4"><a xlink:href="mezztest_8cpp.html" target="_top" xlink:title="This file is the entry point for the unit test framework. ">
<polygon fill="white" stroke="black" points="100.5,-0.5 100.5,-30.5 266.5,-30.5 266.5,-0.5 100.5,-0.5"/>
<text text-anchor="start" x="108.5" y="-18.5" font-family="Helvetica,sans-Serif" font-size="10.00">/home/sqeaky/Code/Mezzanine</text>
<text text-anchor="middle" x="183.5" y="-7.5" font-family="Helvetica,sans-Serif" font-size="10.00">Fresh/UnitTests/src/mezztest.cpp</text>
</a>
</g>
</g>
<!-- Node3&#45;&gt;Node4 -->
<g id="edge3" class="edge"><title>Node3&#45;&gt;Node4</title>
<path fill="none" stroke="midnightblue" d="M246.432,-61.4511C232.432,-51.4517 215.839,-39.5995 203.207,-30.5765"/>
<polygon fill="midnightblue" stroke="midnightblue" points="244.583,-64.4316 254.754,-67.396 248.651,-58.7355 244.583,-64.4316"/>
</g>
<!-- Node5 -->
<g id="node5" class="node"><title>Node5</title>
<g id="a_node5"><a xlink:href="testdata_8cpp.html" target="_top" xlink:title="The definition of the string manipulation functions the unit tests use. ">
<polygon fill="white" stroke="black" points="285,-0.5 285,-30.5 446,-30.5 446,-0.5 285,-0.5"/>
<text text-anchor="start" x="293" y="-18.5" font-family="Helvetica,sans-Serif" font-size="10.00">/home/sqeaky/Code/Mezzanine</text>
<text text-anchor="middle" x="365.5" y="-7.5" font-family="Helvetica,sans-Serif" font-size="10.00">Fresh/UnitTests/src/testdata.cpp</text>
</a>
</g>
</g>
<!-- Node3&#45;&gt;Node5 -->
<g id="edge4" class="edge"><title>Node3&#45;&gt;Node5</title>
<path fill="none" stroke="midnightblue" d="M302.568,-61.4511C316.568,-51.4517 333.161,-39.5995 345.793,-30.5765"/>
<polygon fill="midnightblue" stroke="midnightblue" points="300.349,-58.7355 294.246,-67.396 304.417,-64.4316 300.349,-58.7355"/>
</g>
</g>
</svg>
