<?xml version="1.0" encoding="UTF-8" standalone="no"?>
<!DOCTYPE svg PUBLIC "-//W3C//DTD SVG 1.1//EN"
 "http://www.w3.org/Graphics/SVG/1.1/DTD/svg11.dtd">
<!-- Generated by graphviz version 2.38.0 (20140413.2041)
 -->
<!-- Title: /home/sqeaky/Code/MezzanineFresh/Mezzanine/src/datatypes.h Pages: 1 -->
<svg width="1141pt" height="95pt"
 viewBox="0.00 0.00 1141.00 95.00" xmlns="http://www.w3.org/2000/svg" xmlns:xlink="http://www.w3.org/1999/xlink">
<g id="graph0" class="graph" transform="scale(1 1) rotate(0) translate(4 91)">
<title>/home/sqeaky/Code/MezzanineFresh/Mezzanine/src/datatypes.h</title>
<polygon fill="white" stroke="none" points="-4,4 -4,-91 1137,-91 1137,4 -4,4"/>
<!-- Node1 -->
<g id="node1" class="node"><title>Node1</title>
<polygon fill="#bfbfbf" stroke="black" points="521.5,-56.5 521.5,-86.5 683.5,-86.5 683.5,-56.5 521.5,-56.5"/>
<text text-anchor="start" x="529.5" y="-74.5" font-family="Helvetica,sans-Serif" font-size="10.00">/home/sqeaky/Code/Mezzanine</text>
<text text-anchor="middle" x="602.5" y="-63.5" font-family="Helvetica,sans-Serif" font-size="10.00">Fresh/Mezzanine/src/datatypes.h</text>
</g>
<!-- Node2 -->
<g id="node2" class="node"><title>Node2</title>
<g id="a_node2"><a xlink:href="crossplatformexport_8h.html" target="_top" xlink:title="This file is used on some platforms to determine what data should be read and written to and from a s...">
<polygon fill="white" stroke="black" points="0,-0.5 0,-19.5 111,-19.5 111,-0.5 0,-0.5"/>
<text text-anchor="middle" x="55.5" y="-7.5" font-family="Helvetica,sans-Serif" font-size="10.00">crossplatformexport.h</text>
</a>
</g>
</g>
<!-- Node1&#45;&gt;Node2 -->
<g id="edge1" class="edge"><title>Node1&#45;&gt;Node2</title>
<path fill="none" stroke="midnightblue" d="M521.214,-62.8905C427.302,-53.8979 267.871,-38.0144 121.407,-20.2013"/>
<polygon fill="midnightblue" stroke="midnightblue" points="121.683,-16.7091 111.332,-18.9704 120.834,-23.6575 121.683,-16.7091"/>
</g>
<!-- Node3 -->
<g id="node3" class="node"><title>Node3</title>
<polygon fill="white" stroke="#bfbfbf" points="129,-0.5 129,-19.5 178,-19.5 178,-0.5 129,-0.5"/>
<text text-anchor="middle" x="153.5" y="-7.5" font-family="Helvetica,sans-Serif" font-size="10.00">stdint.h</text>
</g>
<!-- Node1&#45;&gt;Node3 -->
<g id="edge2" class="edge"><title>Node1&#45;&gt;Node3</title>
<path fill="none" stroke="midnightblue" d="M521.427,-64.1738C439.49,-56.9832 309.167,-43.3675 188.433,-20.1528"/>
<polygon fill="midnightblue" stroke="midnightblue" points="188.76,-16.6506 178.275,-18.1721 187.42,-23.5213 188.76,-16.6506"/>
</g>
<!-- Node4 -->
<g id="node4" class="node"><title>Node4</title>
<polygon fill="white" stroke="#bfbfbf" points="196,-0.5 196,-19.5 245,-19.5 245,-0.5 196,-0.5"/>
<text text-anchor="middle" x="220.5" y="-7.5" font-family="Helvetica,sans-Serif" font-size="10.00">cstddef</text>
</g>
<!-- Node1&#45;&gt;Node4 -->
<g id="edge3" class="edge"><title>Node1&#45;&gt;Node4</title>
<path fill="none" stroke="midnightblue" d="M521.179,-61.3762C452.712,-53.0792 352.07,-39.448 255.264,-19.9475"/>
<polygon fill="midnightblue" stroke="midnightblue" points="255.802,-16.4853 245.305,-17.9175 254.404,-23.3443 255.802,-16.4853"/>
</g>
<!-- Node5 -->
<g id="node5" class="node"><title>Node5</title>
<polygon fill="white" stroke="#bfbfbf" points="263.5,-0.5 263.5,-19.5 319.5,-19.5 319.5,-0.5 263.5,-0.5"/>
<text text-anchor="middle" x="291.5" y="-7.5" font-family="Helvetica,sans-Serif" font-size="10.00">algorithm</text>
</g>
<!-- Node1&#45;&gt;Node5 -->
<g id="edge4" class="edge"><title>Node1&#45;&gt;Node5</title>
<path fill="none" stroke="midnightblue" d="M521.335,-56.7772C469.136,-47.6622 399.645,-34.9916 329.626,-20.1519"/>
<polygon fill="midnightblue" stroke="midnightblue" points="330.254,-16.7073 319.744,-18.0437 328.794,-23.5532 330.254,-16.7073"/>
</g>
<!-- Node6 -->
<g id="node6" class="node"><title>Node6</title>
<polygon fill="white" stroke="#bfbfbf" points="338,-0.5 338,-19.5 397,-19.5 397,-0.5 338,-0.5"/>
<text text-anchor="middle" x="367.5" y="-7.5" font-family="Helvetica,sans-Serif" font-size="10.00">exception</text>
</g>
<!-- Node1&#45;&gt;Node6 -->
<g id="edge5" class="edge"><title>Node1&#45;&gt;Node6</title>
<path fill="none" stroke="midnightblue" d="M547.106,-56.4747C504.007,-45.5623 445.263,-30.6888 406.87,-20.9682"/>
<polygon fill="midnightblue" stroke="midnightblue" points="407.644,-17.5538 397.091,-18.4922 405.926,-24.3396 407.644,-17.5538"/>
</g>
<!-- Node7 -->
<g id="node7" class="node"><title>Node7</title>
<polygon fill="white" stroke="#bfbfbf" points="415,-0.5 415,-19.5 464,-19.5 464,-0.5 415,-0.5"/>
<text text-anchor="middle" x="439.5" y="-7.5" font-family="Helvetica,sans-Serif" font-size="10.00">istream</text>
</g>
<!-- Node1&#45;&gt;Node7 -->
<g id="edge6" class="edge"><title>Node1&#45;&gt;Node7</title>
<path fill="none" stroke="midnightblue" d="M563.871,-56.3993C536.156,-46.2826 499.195,-32.7905 472.783,-23.1493"/>
<polygon fill="midnightblue" stroke="midnightblue" points="473.812,-19.799 463.218,-19.6578 471.411,-26.3746 473.812,-19.799"/>
</g>
<!-- Node8 -->
<g id="node8" class="node"><title>Node8</title>
<polygon fill="white" stroke="#bfbfbf" points="482,-0.5 482,-19.5 511,-19.5 511,-0.5 482,-0.5"/>
<text text-anchor="middle" x="496.5" y="-7.5" font-family="Helvetica,sans-Serif" font-size="10.00">list</text>
</g>
<!-- Node1&#45;&gt;Node8 -->
<g id="edge7" class="edge"><title>Node1&#45;&gt;Node8</title>
<path fill="none" stroke="midnightblue" d="M577.379,-56.3993C559.92,-46.5988 536.817,-33.6308 519.775,-24.0645"/>
<polygon fill="midnightblue" stroke="midnightblue" points="521.438,-20.9845 511.004,-19.1417 518.011,-27.0886 521.438,-20.9845"/>
</g>
<!-- Node9 -->
<g id="node9" class="node"><title>Node9</title>
<polygon fill="white" stroke="#bfbfbf" points="529,-0.5 529,-19.5 564,-19.5 564,-0.5 529,-0.5"/>
<text text-anchor="middle" x="546.5" y="-7.5" font-family="Helvetica,sans-Serif" font-size="10.00">map</text>
</g>
<!-- Node1&#45;&gt;Node9 -->
<g id="edge8" class="edge"><title>Node1&#45;&gt;Node9</title>
<path fill="none" stroke="midnightblue" d="M589.229,-56.3993C580.924,-47.575 570.201,-36.1827 561.576,-27.0178"/>
<polygon fill="midnightblue" stroke="midnightblue" points="564.051,-24.541 554.648,-19.6578 558.953,-29.3386 564.051,-24.541"/>
</g>
<!-- Node10 -->
<g id="node10" class="node"><title>Node10</title>
<polygon fill="white" stroke="#bfbfbf" points="582,-0.5 582,-19.5 623,-19.5 623,-0.5 582,-0.5"/>
<text text-anchor="middle" x="602.5" y="-7.5" font-family="Helvetica,sans-Serif" font-size="10.00">string</text>
</g>
<!-- Node1&#45;&gt;Node10 -->
<g id="edge9" class="edge"><title>Node1&#45;&gt;Node10</title>
<path fill="none" stroke="midnightblue" d="M602.5,-56.3993C602.5,-48.4664 602.5,-38.458 602.5,-29.8583"/>
<polygon fill="midnightblue" stroke="midnightblue" points="606,-29.6577 602.5,-19.6578 599,-29.6578 606,-29.6577"/>
</g>
<!-- Node11 -->
<g id="node11" class="node"><title>Node11</title>
<polygon fill="white" stroke="#bfbfbf" points="641.5,-0.5 641.5,-19.5 693.5,-19.5 693.5,-0.5 641.5,-0.5"/>
<text text-anchor="middle" x="667.5" y="-7.5" font-family="Helvetica,sans-Serif" font-size="10.00">sstream</text>
</g>
<!-- Node1&#45;&gt;Node11 -->
<g id="edge10" class="edge"><title>Node1&#45;&gt;Node11</title>
<path fill="none" stroke="midnightblue" d="M617.904,-56.3993C627.739,-47.3967 640.493,-35.7214 650.605,-26.4652"/>
<polygon fill="midnightblue" stroke="midnightblue" points="653.029,-28.9916 658.042,-19.6578 648.302,-23.8282 653.029,-28.9916"/>
</g>
<!-- Node12 -->
<g id="node12" class="node"><title>Node12</title>
<polygon fill="white" stroke="#bfbfbf" points="711.5,-0.5 711.5,-19.5 761.5,-19.5 761.5,-0.5 711.5,-0.5"/>
<text text-anchor="middle" x="736.5" y="-7.5" font-family="Helvetica,sans-Serif" font-size="10.00">fstream</text>
</g>
<!-- Node1&#45;&gt;Node12 -->
<g id="edge11" class="edge"><title>Node1&#45;&gt;Node12</title>
<path fill="none" stroke="midnightblue" d="M634.256,-56.3993C656.538,-46.5054 686.091,-33.3832 707.691,-23.7919"/>
<polygon fill="midnightblue" stroke="midnightblue" points="709.283,-26.9149 717.002,-19.6578 706.442,-20.5172 709.283,-26.9149"/>
</g>
<!-- Node13 -->
<g id="node13" class="node"><title>Node13</title>
<polygon fill="white" stroke="#bfbfbf" points="779.5,-0.5 779.5,-19.5 809.5,-19.5 809.5,-0.5 779.5,-0.5"/>
<text text-anchor="middle" x="794.5" y="-7.5" font-family="Helvetica,sans-Serif" font-size="10.00">set</text>
</g>
<!-- Node1&#45;&gt;Node13 -->
<g id="edge12" class="edge"><title>Node1&#45;&gt;Node13</title>
<path fill="none" stroke="midnightblue" d="M652.395,-56.4488C683.733,-47.4076 725.164,-35.0626 769.758,-20.0997"/>
<polygon fill="midnightblue" stroke="midnightblue" points="770.967,-23.3856 779.319,-16.8672 768.725,-16.7543 770.967,-23.3856"/>
</g>
<!-- Node14 -->
<g id="node14" class="node"><title>Node14</title>
<polygon fill="white" stroke="#bfbfbf" points="827.5,-0.5 827.5,-19.5 871.5,-19.5 871.5,-0.5 827.5,-0.5"/>
<text text-anchor="middle" x="849.5" y="-7.5" font-family="Helvetica,sans-Serif" font-size="10.00">vector</text>
</g>
<!-- Node1&#45;&gt;Node14 -->
<g id="edge13" class="edge"><title>Node1&#45;&gt;Node14</title>
<path fill="none" stroke="midnightblue" d="M666.515,-56.4665C707.257,-47.3189 761.344,-34.7789 817.435,-20.1839"/>
<polygon fill="midnightblue" stroke="midnightblue" points="818.401,-23.5492 827.188,-17.6305 816.628,-16.7775 818.401,-23.5492"/>
</g>
<!-- Node15 -->
<g id="node15" class="node"><title>Node15</title>
<polygon fill="white" stroke="#bfbfbf" points="889.5,-0.5 889.5,-19.5 929.5,-19.5 929.5,-0.5 889.5,-0.5"/>
<text text-anchor="middle" x="909.5" y="-7.5" font-family="Helvetica,sans-Serif" font-size="10.00">utility</text>
</g>
<!-- Node1&#45;&gt;Node15 -->
<g id="edge14" class="edge"><title>Node1&#45;&gt;Node15</title>
<path fill="none" stroke="midnightblue" d="M683.64,-58.4235C736.874,-49.8805 808.128,-37.2767 879.27,-20.0687"/>
<polygon fill="midnightblue" stroke="midnightblue" points="880.426,-23.389 889.306,-17.6099 878.76,-16.5901 880.426,-23.389"/>
</g>
<!-- Node16 -->
<g id="node16" class="node"><title>Node16</title>
<polygon fill="white" stroke="#bfbfbf" points="947.5,-0.5 947.5,-19.5 999.5,-19.5 999.5,-0.5 947.5,-0.5"/>
<text text-anchor="middle" x="973.5" y="-7.5" font-family="Helvetica,sans-Serif" font-size="10.00">memory</text>
</g>
<!-- Node1&#45;&gt;Node16 -->
<g id="edge15" class="edge"><title>Node1&#45;&gt;Node16</title>
<path fill="none" stroke="midnightblue" d="M683.699,-60.6681C749.604,-52.1418 845.081,-38.5547 937.145,-20.1084"/>
<polygon fill="midnightblue" stroke="midnightblue" points="938.088,-23.4886 947.194,-18.0727 936.698,-16.628 938.088,-23.4886"/>
</g>
<!-- Node17 -->
<g id="node17" class="node"><title>Node17</title>
<polygon fill="white" stroke="#bfbfbf" points="1017.5,-0.5 1017.5,-19.5 1069.5,-19.5 1069.5,-0.5 1017.5,-0.5"/>
<text text-anchor="middle" x="1043.5" y="-7.5" font-family="Helvetica,sans-Serif" font-size="10.00">ostream</text>
</g>
<!-- Node1&#45;&gt;Node17 -->
<g id="edge16" class="edge"><title>Node1&#45;&gt;Node17</title>
<path fill="none" stroke="midnightblue" d="M683.858,-63.4689C763.918,-55.8473 889.739,-41.9925 1007.31,-20.018"/>
<polygon fill="midnightblue" stroke="midnightblue" points="1008.03,-23.4438 1017.21,-18.1454 1006.73,-16.5659 1008.03,-23.4438"/>
</g>
<!-- Node18 -->
<g id="node18" class="node"><title>Node18</title>
<g id="a_node18"><a xlink:href="swig_8h.html" target="_top" xlink:title="Used to give commands specifically to the SWIG preprocessor. ">
<polygon fill="white" stroke="black" points="1088,-0.5 1088,-19.5 1133,-19.5 1133,-0.5 1088,-0.5"/>
<text text-anchor="middle" x="1110.5" y="-7.5" font-family="Helvetica,sans-Serif" font-size="10.00">swig.h</text>
</a>
</g>
</g>
<!-- Node1&#45;&gt;Node18 -->
<g id="edge17" class="edge"><title>Node1&#45;&gt;Node18</title>
<path fill="none" stroke="midnightblue" d="M683.543,-66.0718C776.625,-60.0481 933.931,-47.0003 1077.98,-19.7683"/>
<polygon fill="midnightblue" stroke="midnightblue" points="1078.73,-23.1892 1087.89,-17.8686 1077.41,-16.3144 1078.73,-23.1892"/>
</g>
</g>
</svg>
