<?xml version="1.0" encoding="UTF-8" standalone="no"?>
<!DOCTYPE svg PUBLIC "-//W3C//DTD SVG 1.1//EN"
 "http://www.w3.org/Graphics/SVG/1.1/DTD/svg11.dtd">
<!-- Generated by graphviz version 2.26.3 (20100126.1600)
 -->
<!-- Title: /home/sqeaky/Code/Mezzanine/Mezzanine/src/debris.h Pages: 1 -->
<svg width="1802pt" height="272pt"
 viewBox="0.00 0.00 1802.00 272.00" xmlns="http://www.w3.org/2000/svg" xmlns:xlink="http://www.w3.org/1999/xlink">
<g id="graph1" class="graph" transform="scale(1 1) rotate(0) translate(4 268)">
<title>/home/sqeaky/Code/Mezzanine/Mezzanine/src/debris.h</title>
<polygon fill="white" stroke="white" points="-4,5 -4,-268 1799,-268 1799,5 -4,5"/>
<!-- Node1 -->
<g id="node1" class="node"><title>Node1</title>
<polygon fill="#bfbfbf" stroke="black" points="785.5,-229 785.5,-263 940.5,-263 940.5,-229 785.5,-229"/>
<text text-anchor="start" x="793.5" y="-250" font-family="Helvetica,sans-Serif" font-size="10.00">/home/sqeaky/Code/Mezzanine</text>
<text text-anchor="middle" x="863" y="-237" font-family="Helvetica,sans-Serif" font-size="10.00">/Mezzanine/src/debris.h</text>
</g>
<!-- Node2 -->
<g id="node3" class="node"><title>Node2</title>
<a xlink:href="debris_8cpp.html" target="_top" xlink:title="This file contains the implementation for the debris class used to represent a small loose object in ...">
<polygon fill="white" stroke="black" points="441.5,-157 441.5,-191 596.5,-191 596.5,-157 441.5,-157"/>
<text text-anchor="start" x="449.5" y="-178" font-family="Helvetica,sans-Serif" font-size="10.00">/home/sqeaky/Code/Mezzanine</text>
<text text-anchor="middle" x="519" y="-165" font-family="Helvetica,sans-Serif" font-size="10.00">/Mezzanine/src/debris.cpp</text>
</a>
</g>
<!-- Node1&#45;&gt;Node2 -->
<g id="edge2" class="edge"><title>Node1&#45;&gt;Node2</title>
<path fill="none" stroke="midnightblue" d="M775.267,-227.637C720.158,-216.103 649.721,-201.36 596.644,-190.251"/>
<polygon fill="midnightblue" stroke="midnightblue" points="774.866,-231.129 785.371,-229.752 776.3,-224.278 774.866,-231.129"/>
</g>
<!-- Node3 -->
<g id="node5" class="node"><title>Node3</title>
<a xlink:href="rigiddebris_8h.html" target="_top" xlink:title="This file contains the declaration for the debris class that does not deform. ">
<polygon fill="white" stroke="black" points="785.5,-157 785.5,-191 940.5,-191 940.5,-157 785.5,-157"/>
<text text-anchor="start" x="793.5" y="-178" font-family="Helvetica,sans-Serif" font-size="10.00">/home/sqeaky/Code/Mezzanine</text>
<text text-anchor="middle" x="863" y="-165" font-family="Helvetica,sans-Serif" font-size="10.00">/Mezzanine/src/rigiddebris.h</text>
</a>
</g>
<!-- Node1&#45;&gt;Node3 -->
<g id="edge4" class="edge"><title>Node1&#45;&gt;Node3</title>
<path fill="none" stroke="midnightblue" d="M863,-218.719C863,-209.572 863,-199.625 863,-191.441"/>
<polygon fill="midnightblue" stroke="midnightblue" points="859.5,-218.937 863,-228.937 866.5,-218.937 859.5,-218.937"/>
</g>
<!-- Node5 -->
<g id="node9" class="node"><title>Node5</title>
<a xlink:href="mezzanine_8h.html" target="_top" xlink:title="A single file that includes all of the Mezzanine engine. ">
<polygon fill="white" stroke="black" points="792.5,-85 792.5,-119 947.5,-119 947.5,-85 792.5,-85"/>
<text text-anchor="start" x="800.5" y="-106" font-family="Helvetica,sans-Serif" font-size="10.00">/home/sqeaky/Code/Mezzanine</text>
<text text-anchor="middle" x="870" y="-93" font-family="Helvetica,sans-Serif" font-size="10.00">/Mezzanine/src/mezzanine.h</text>
</a>
</g>
<!-- Node1&#45;&gt;Node5 -->
<g id="edge38" class="edge"><title>Node1&#45;&gt;Node5</title>
<path fill="none" stroke="midnightblue" d="M916.643,-223.777C929.516,-215.747 941.653,-205.288 949,-192 956.742,-177.998 956.468,-170.15 949,-156 940.548,-139.985 924.972,-127.818 909.87,-119.126"/>
<polygon fill="midnightblue" stroke="midnightblue" points="914.58,-220.926 907.664,-228.952 918.075,-226.991 914.58,-220.926"/>
</g>
<!-- Node16 -->
<g id="node31" class="node"><title>Node16</title>
<a xlink:href="softdebris_8h.html" target="_top" xlink:title="This file contains the declaration for the debris class that will compress and deform. ">
<polygon fill="white" stroke="black" points="613.5,-157 613.5,-191 768.5,-191 768.5,-157 613.5,-157"/>
<text text-anchor="start" x="621.5" y="-178" font-family="Helvetica,sans-Serif" font-size="10.00">/home/sqeaky/Code/Mezzanine</text>
<text text-anchor="middle" x="691" y="-165" font-family="Helvetica,sans-Serif" font-size="10.00">/Mezzanine/src/softdebris.h</text>
</a>
</g>
<!-- Node1&#45;&gt;Node16 -->
<g id="edge30" class="edge"><title>Node1&#45;&gt;Node16</title>
<path fill="none" stroke="midnightblue" d="M812.991,-225.066C787.183,-214.263 756.099,-201.251 731.767,-191.065"/>
<polygon fill="midnightblue" stroke="midnightblue" points="811.662,-228.304 822.238,-228.937 814.365,-221.847 811.662,-228.304"/>
</g>
<!-- Node18 -->
<g id="node38" class="node"><title>Node18</title>
<a xlink:href="rayquerytool_8cpp_source.html" target="_top" xlink:title="/home/sqeaky/Code/Mezzanine\l/Mezzanine/src/rayquerytool.cpp">
<polygon fill="white" stroke="black" points="996,-157 996,-191 1154,-191 1154,-157 996,-157"/>
<text text-anchor="start" x="1004" y="-178" font-family="Helvetica,sans-Serif" font-size="10.00">/home/sqeaky/Code/Mezzanine</text>
<text text-anchor="middle" x="1075" y="-165" font-family="Helvetica,sans-Serif" font-size="10.00">/Mezzanine/src/rayquerytool.cpp</text>
</a>
</g>
<!-- Node1&#45;&gt;Node18 -->
<g id="edge40" class="edge"><title>Node1&#45;&gt;Node18</title>
<path fill="none" stroke="midnightblue" d="M922.971,-225.633C955.102,-214.72 994.236,-201.429 1024.75,-191.065"/>
<polygon fill="midnightblue" stroke="midnightblue" points="921.584,-222.407 913.241,-228.937 923.835,-229.035 921.584,-222.407"/>
</g>
<!-- Node4 -->
<g id="node7" class="node"><title>Node4</title>
<a xlink:href="debrismanager_8cpp.html" target="_top" xlink:title="This file contains the implementation for the manager that manages debris objects in a world...">
<polygon fill="white" stroke="black" points="606.5,-85 606.5,-119 775.5,-119 775.5,-85 606.5,-85"/>
<text text-anchor="start" x="614.5" y="-106" font-family="Helvetica,sans-Serif" font-size="10.00">/home/sqeaky/Code/Mezzanine</text>
<text text-anchor="middle" x="691" y="-93" font-family="Helvetica,sans-Serif" font-size="10.00">/Mezzanine/src/debrismanager.cpp</text>
</a>
</g>
<!-- Node3&#45;&gt;Node4 -->
<g id="edge6" class="edge"><title>Node3&#45;&gt;Node4</title>
<path fill="none" stroke="midnightblue" d="M812.991,-153.066C787.183,-142.263 756.099,-129.251 731.767,-119.065"/>
<polygon fill="midnightblue" stroke="midnightblue" points="811.662,-156.304 822.238,-156.937 814.365,-149.847 811.662,-156.304"/>
</g>
<!-- Node3&#45;&gt;Node5 -->
<g id="edge8" class="edge"><title>Node3&#45;&gt;Node5</title>
<path fill="none" stroke="midnightblue" d="M865.652,-146.719C866.542,-137.572 867.509,-127.625 868.304,-119.441"/>
<polygon fill="midnightblue" stroke="midnightblue" points="862.143,-146.645 864.659,-156.937 869.11,-147.323 862.143,-146.645"/>
</g>
<!-- Node15 -->
<g id="node29" class="node"><title>Node15</title>
<a xlink:href="rigiddebris_8cpp.html" target="_top" xlink:title="This file contains the implementation for the debris class that does not deform. ">
<polygon fill="white" stroke="black" points="964.5,-85 964.5,-119 1119.5,-119 1119.5,-85 964.5,-85"/>
<text text-anchor="start" x="972.5" y="-106" font-family="Helvetica,sans-Serif" font-size="10.00">/home/sqeaky/Code/Mezzanine</text>
<text text-anchor="middle" x="1042" y="-93" font-family="Helvetica,sans-Serif" font-size="10.00">/Mezzanine/src/rigiddebris.cpp</text>
</a>
</g>
<!-- Node3&#45;&gt;Node15 -->
<g id="edge28" class="edge"><title>Node3&#45;&gt;Node15</title>
<path fill="none" stroke="midnightblue" d="M915.044,-153.066C941.903,-142.263 974.252,-129.251 999.574,-119.065"/>
<polygon fill="midnightblue" stroke="midnightblue" points="913.392,-149.958 905.421,-156.937 916.004,-156.452 913.392,-149.958"/>
</g>
<!-- Node6 -->
<g id="node11" class="node"><title>Node6</title>
<a xlink:href="entresol_8cpp_source.html" target="_top" xlink:title="/home/sqeaky/Code/Mezzanine\l/Mezzanine/src/entresol.cpp">
<polygon fill="white" stroke="black" points="-0.5,-7 -0.5,-41 154.5,-41 154.5,-7 -0.5,-7"/>
<text text-anchor="start" x="7.5" y="-28" font-family="Helvetica,sans-Serif" font-size="10.00">/home/sqeaky/Code/Mezzanine</text>
<text text-anchor="middle" x="77" y="-15" font-family="Helvetica,sans-Serif" font-size="10.00">/Mezzanine/src/entresol.cpp</text>
</a>
</g>
<!-- Node5&#45;&gt;Node6 -->
<g id="edge10" class="edge"><title>Node5&#45;&gt;Node6</title>
<path fill="none" stroke="midnightblue" d="M782.026,-83.8519C508.104,-48.6866 432.378,-92.8625 163,-48 152.602,-46.2684 141.661,-43.7633 131.198,-41.0179"/>
<polygon fill="midnightblue" stroke="midnightblue" points="781.904,-87.3656 792.273,-85.1923 782.812,-80.4248 781.904,-87.3656"/>
</g>
<!-- Node7 -->
<g id="node13" class="node"><title>Node7</title>
<a xlink:href="scriptbindingmainlua51_8cpp_source.html" target="_top" xlink:title="/home/sqeaky/Code/Mezzanine\l/Mezzanine/src/Scripting\l/Lua51/scriptbindingmainlua51.cpp">
<polygon fill="white" stroke="black" points="171.5,-0.5 171.5,-47.5 338.5,-47.5 338.5,-0.5 171.5,-0.5"/>
<text text-anchor="start" x="179.5" y="-34.5" font-family="Helvetica,sans-Serif" font-size="10.00">/home/sqeaky/Code/Mezzanine</text>
<text text-anchor="start" x="179.5" y="-21.5" font-family="Helvetica,sans-Serif" font-size="10.00">/Mezzanine/src/Scripting</text>
<text text-anchor="middle" x="255" y="-8.5" font-family="Helvetica,sans-Serif" font-size="10.00">/Lua51/scriptbindingmainlua51.cpp</text>
</a>
</g>
<!-- Node5&#45;&gt;Node7 -->
<g id="edge12" class="edge"><title>Node5&#45;&gt;Node7</title>
<path fill="none" stroke="midnightblue" d="M782.079,-83.8229C589.325,-56.8128 535.831,-80.1592 347,-48 344.234,-47.5289 341.429,-47.0145 338.603,-46.4647"/>
<polygon fill="midnightblue" stroke="midnightblue" points="781.867,-87.328 792.261,-85.278 782.857,-80.3984 781.867,-87.328"/>
</g>
<!-- Node8 -->
<g id="node15" class="node"><title>Node8</title>
<a xlink:href="scriptbindingmainlua51unsafe_8cpp_source.html" target="_top" xlink:title="/home/sqeaky/Code/Mezzanine\l/Mezzanine/src/Scripting\l/Lua51/scriptbindingmainlua51unsafe.cpp">
<polygon fill="white" stroke="black" points="356,-0.5 356,-47.5 552,-47.5 552,-0.5 356,-0.5"/>
<text text-anchor="start" x="364" y="-34.5" font-family="Helvetica,sans-Serif" font-size="10.00">/home/sqeaky/Code/Mezzanine</text>
<text text-anchor="start" x="364" y="-21.5" font-family="Helvetica,sans-Serif" font-size="10.00">/Mezzanine/src/Scripting</text>
<text text-anchor="middle" x="454" y="-8.5" font-family="Helvetica,sans-Serif" font-size="10.00">/Lua51/scriptbindingmainlua51unsafe.cpp</text>
</a>
</g>
<!-- Node5&#45;&gt;Node8 -->
<g id="edge14" class="edge"><title>Node5&#45;&gt;Node8</title>
<path fill="none" stroke="midnightblue" d="M782.126,-83.6977C683.553,-65.7732 656.404,-66.3828 561,-48 558.102,-47.4417 555.163,-46.863 552.199,-46.2684"/>
<polygon fill="midnightblue" stroke="midnightblue" points="781.748,-87.1868 792.216,-85.5514 783.013,-80.302 781.748,-87.1868"/>
</g>
<!-- Node9 -->
<g id="node17" class="node"><title>Node9</title>
<a xlink:href="scriptbindingphysicslua51_8cpp_source.html" target="_top" xlink:title="/home/sqeaky/Code/Mezzanine\l/Mezzanine/src/Scripting\l/Lua51/scriptbindingphysicslua51.cpp">
<polygon fill="white" stroke="black" points="569.5,-0.5 569.5,-47.5 748.5,-47.5 748.5,-0.5 569.5,-0.5"/>
<text text-anchor="start" x="577.5" y="-34.5" font-family="Helvetica,sans-Serif" font-size="10.00">/home/sqeaky/Code/Mezzanine</text>
<text text-anchor="start" x="577.5" y="-21.5" font-family="Helvetica,sans-Serif" font-size="10.00">/Mezzanine/src/Scripting</text>
<text text-anchor="middle" x="659" y="-8.5" font-family="Helvetica,sans-Serif" font-size="10.00">/Lua51/scriptbindingphysicslua51.cpp</text>
</a>
</g>
<!-- Node5&#45;&gt;Node9 -->
<g id="edge16" class="edge"><title>Node5&#45;&gt;Node9</title>
<path fill="none" stroke="midnightblue" d="M814.303,-81.4108C786.244,-71.0379 752.084,-58.4101 722.953,-47.6416"/>
<polygon fill="midnightblue" stroke="midnightblue" points="813.363,-84.7944 823.956,-84.979 815.79,-78.2287 813.363,-84.7944"/>
</g>
<!-- Node10 -->
<g id="node19" class="node"><title>Node10</title>
<a xlink:href="scriptbindingphysicslua51unsafe_8cpp_source.html" target="_top" xlink:title="/home/sqeaky/Code/Mezzanine\l/Mezzanine/src/Scripting\l/Lua51/scriptbindingphysicslua51unsafe.cpp">
<polygon fill="white" stroke="black" points="765.5,-0.5 765.5,-47.5 974.5,-47.5 974.5,-0.5 765.5,-0.5"/>
<text text-anchor="start" x="773.5" y="-34.5" font-family="Helvetica,sans-Serif" font-size="10.00">/home/sqeaky/Code/Mezzanine</text>
<text text-anchor="start" x="773.5" y="-21.5" font-family="Helvetica,sans-Serif" font-size="10.00">/Mezzanine/src/Scripting</text>
<text text-anchor="middle" x="870" y="-8.5" font-family="Helvetica,sans-Serif" font-size="10.00">/Lua51/scriptbindingphysicslua51unsafe.cpp</text>
</a>
</g>
<!-- Node5&#45;&gt;Node10 -->
<g id="edge18" class="edge"><title>Node5&#45;&gt;Node10</title>
<path fill="none" stroke="midnightblue" d="M870,-74.5793C870,-65.8339 870,-56.2342 870,-47.77"/>
<polygon fill="midnightblue" stroke="midnightblue" points="866.5,-74.6892 870,-84.6893 873.5,-74.6893 866.5,-74.6892"/>
</g>
<!-- Node11 -->
<g id="node21" class="node"><title>Node11</title>
<a xlink:href="scriptbindingthreadinglua51_8cpp_source.html" target="_top" xlink:title="/home/sqeaky/Code/Mezzanine\l/Mezzanine/src/Scripting\l/Lua51/scriptbindingthreadinglua51.cpp">
<polygon fill="white" stroke="black" points="991.5,-0.5 991.5,-47.5 1176.5,-47.5 1176.5,-0.5 991.5,-0.5"/>
<text text-anchor="start" x="999.5" y="-34.5" font-family="Helvetica,sans-Serif" font-size="10.00">/home/sqeaky/Code/Mezzanine</text>
<text text-anchor="start" x="999.5" y="-21.5" font-family="Helvetica,sans-Serif" font-size="10.00">/Mezzanine/src/Scripting</text>
<text text-anchor="middle" x="1084" y="-8.5" font-family="Helvetica,sans-Serif" font-size="10.00">/Lua51/scriptbindingthreadinglua51.cpp</text>
</a>
</g>
<!-- Node5&#45;&gt;Node11 -->
<g id="edge20" class="edge"><title>Node5&#45;&gt;Node11</title>
<path fill="none" stroke="midnightblue" d="M926.116,-81.5465C954.644,-71.1483 989.464,-58.4572 1019.14,-47.6416"/>
<polygon fill="midnightblue" stroke="midnightblue" points="924.896,-78.266 916.699,-84.979 927.293,-84.8428 924.896,-78.266"/>
</g>
<!-- Node12 -->
<g id="node23" class="node"><title>Node12</title>
<a xlink:href="scriptbindingthreadinglua51unsafe_8cpp_source.html" target="_top" xlink:title="/home/sqeaky/Code/Mezzanine\l/Mezzanine/src/Scripting\l/Lua51/scriptbindingthreadinglua51unsafe.cpp">
<polygon fill="white" stroke="black" points="1193.5,-0.5 1193.5,-47.5 1408.5,-47.5 1408.5,-0.5 1193.5,-0.5"/>
<text text-anchor="start" x="1201.5" y="-34.5" font-family="Helvetica,sans-Serif" font-size="10.00">/home/sqeaky/Code/Mezzanine</text>
<text text-anchor="start" x="1201.5" y="-21.5" font-family="Helvetica,sans-Serif" font-size="10.00">/Mezzanine/src/Scripting</text>
<text text-anchor="middle" x="1301" y="-8.5" font-family="Helvetica,sans-Serif" font-size="10.00">/Lua51/scriptbindingthreadinglua51unsafe.cpp</text>
</a>
</g>
<!-- Node5&#45;&gt;Node12 -->
<g id="edge22" class="edge"><title>Node5&#45;&gt;Node12</title>
<path fill="none" stroke="midnightblue" d="M957.813,-83.7135C1059.06,-65.4844 1086.8,-65.866 1185,-48 1187.73,-47.503 1190.5,-46.9917 1193.29,-46.469"/>
<polygon fill="midnightblue" stroke="midnightblue" points="956.994,-80.305 947.781,-85.537 958.246,-87.1922 956.994,-80.305"/>
</g>
<!-- Node13 -->
<g id="node25" class="node"><title>Node13</title>
<a xlink:href="scriptbindingxmllua51_8cpp_source.html" target="_top" xlink:title="/home/sqeaky/Code/Mezzanine\l/Mezzanine/src/Scripting\l/Lua51/scriptbindingxmllua51.cpp">
<polygon fill="white" stroke="black" points="1425.5,-0.5 1425.5,-47.5 1586.5,-47.5 1586.5,-0.5 1425.5,-0.5"/>
<text text-anchor="start" x="1433.5" y="-34.5" font-family="Helvetica,sans-Serif" font-size="10.00">/home/sqeaky/Code/Mezzanine</text>
<text text-anchor="start" x="1433.5" y="-21.5" font-family="Helvetica,sans-Serif" font-size="10.00">/Mezzanine/src/Scripting</text>
<text text-anchor="middle" x="1506" y="-8.5" font-family="Helvetica,sans-Serif" font-size="10.00">/Lua51/scriptbindingxmllua51.cpp</text>
</a>
</g>
<!-- Node5&#45;&gt;Node13 -->
<g id="edge24" class="edge"><title>Node5&#45;&gt;Node13</title>
<path fill="none" stroke="midnightblue" d="M957.849,-83.8396C1161.25,-55.7755 1217.74,-82.3414 1417,-48 1419.68,-47.5379 1422.4,-47.0314 1425.14,-46.4884"/>
<polygon fill="midnightblue" stroke="midnightblue" points="957.151,-80.4034 947.736,-85.2629 958.127,-87.335 957.151,-80.4034"/>
</g>
<!-- Node14 -->
<g id="node27" class="node"><title>Node14</title>
<a xlink:href="scriptbindingxmllua51unsafe_8cpp_source.html" target="_top" xlink:title="/home/sqeaky/Code/Mezzanine\l/Mezzanine/src/Scripting\l/Lua51/scriptbindingxmllua51unsafe.cpp">
<polygon fill="white" stroke="black" points="1603.5,-0.5 1603.5,-47.5 1794.5,-47.5 1794.5,-0.5 1603.5,-0.5"/>
<text text-anchor="start" x="1611.5" y="-34.5" font-family="Helvetica,sans-Serif" font-size="10.00">/home/sqeaky/Code/Mezzanine</text>
<text text-anchor="start" x="1611.5" y="-21.5" font-family="Helvetica,sans-Serif" font-size="10.00">/Mezzanine/src/Scripting</text>
<text text-anchor="middle" x="1699" y="-8.5" font-family="Helvetica,sans-Serif" font-size="10.00">/Lua51/scriptbindingxmllua51unsafe.cpp</text>
</a>
</g>
<!-- Node5&#45;&gt;Node14 -->
<g id="edge26" class="edge"><title>Node5&#45;&gt;Node14</title>
<path fill="none" stroke="midnightblue" d="M957.843,-83.8682C1239.8,-47.7169 1316.69,-87.6562 1595,-48 1597.75,-47.6079 1600.54,-47.1794 1603.35,-46.72"/>
<polygon fill="midnightblue" stroke="midnightblue" points="957.19,-80.4237 947.726,-85.1866 958.094,-87.365 957.19,-80.4237"/>
</g>
<!-- Node16&#45;&gt;Node4 -->
<g id="edge32" class="edge"><title>Node16&#45;&gt;Node4</title>
<path fill="none" stroke="midnightblue" d="M691,-146.719C691,-137.572 691,-127.625 691,-119.441"/>
<polygon fill="midnightblue" stroke="midnightblue" points="687.5,-146.937 691,-156.937 694.5,-146.937 687.5,-146.937"/>
</g>
<!-- Node16&#45;&gt;Node5 -->
<g id="edge34" class="edge"><title>Node16&#45;&gt;Node5</title>
<path fill="none" stroke="midnightblue" d="M743.044,-153.066C769.903,-142.263 802.252,-129.251 827.574,-119.065"/>
<polygon fill="midnightblue" stroke="midnightblue" points="741.392,-149.958 733.421,-156.937 744.004,-156.452 741.392,-149.958"/>
</g>
<!-- Node17 -->
<g id="node35" class="node"><title>Node17</title>
<a xlink:href="softdebris_8cpp.html" target="_top" xlink:title="This file contains the implementation for the debris class that will compress and deform...">
<polygon fill="white" stroke="black" points="434.5,-85 434.5,-119 589.5,-119 589.5,-85 434.5,-85"/>
<text text-anchor="start" x="442.5" y="-106" font-family="Helvetica,sans-Serif" font-size="10.00">/home/sqeaky/Code/Mezzanine</text>
<text text-anchor="middle" x="512" y="-93" font-family="Helvetica,sans-Serif" font-size="10.00">/Mezzanine/src/softdebris.cpp</text>
</a>
</g>
<!-- Node16&#45;&gt;Node17 -->
<g id="edge36" class="edge"><title>Node16&#45;&gt;Node17</title>
<path fill="none" stroke="midnightblue" d="M638.956,-153.066C612.097,-142.263 579.748,-129.251 554.426,-119.065"/>
<polygon fill="midnightblue" stroke="midnightblue" points="637.996,-156.452 648.579,-156.937 640.608,-149.958 637.996,-156.452"/>
</g>
</g>
</svg>
