<?xml version="1.0" encoding="UTF-8" standalone="no"?>
<!DOCTYPE svg PUBLIC "-//W3C//DTD SVG 1.1//EN"
 "http://www.w3.org/Graphics/SVG/1.1/DTD/svg11.dtd">
<!-- Generated by graphviz version 2.26.3 (20100126.1600)
 -->
<!-- Title: /home/sqeaky/Code/Mezzanine/Mezzanine/src/debrismanager.h Pages: 1 -->
<!--zoomable 182 -->
<svg id="main" version="1.1" xmlns="http://www.w3.org/2000/svg" xmlns:xlink="http://www.w3.org/1999/xlink" xml:space="preserve" onload="init(evt)">
<style type="text/css"><![CDATA[
.edge:hover path { stroke: red; }
.edge:hover polygon { stroke: red; fill: red; }
]]></style>
<script type="text/javascript"><![CDATA[
var edges = document.getElementsByTagName('g');
if (edges && edges.length) {
  for (var i=0;i<edges.length;i++) {
    if (edges[i].id.substr(0,4)=='edge') {
      edges[i].setAttribute('class','edge');
    }
  }
}
]]></script>
        <defs>
                <circle id="rim" cx="0" cy="0" r="7"/>
                <circle id="rim2" cx="0" cy="0" r="3.5"/>
                <g id="zoomPlus">
                        <use xlink:href="#rim" fill="#404040">
                                <set attributeName="fill" to="#808080" begin="zoomplus.mouseover" end="zoomplus.mouseout"/>
                        </use>
                        <path d="M-4,0h8M0,-4v8" fill="none" stroke="white" stroke-width="1.5" pointer-events="none"/>
                </g>
                <g id="zoomMin">
                        <use xlink:href="#rim" fill="#404040">
                                <set attributeName="fill" to="#808080" begin="zoomminus.mouseover" end="zoomminus.mouseout"/>
                        </use>
                        <path d="M-4,0h8" fill="none" stroke="white" stroke-width="1.5" pointer-events="none"/>
                </g>
                <g id="dirArrow">
                        <path fill="none" stroke="white" stroke-width="1.5" d="M0,-3.0v7 M-2.5,-0.5L0,-3.0L2.5,-0.5"/>
                </g>
               <g id="resetDef">
                       <use xlink:href="#rim2" fill="#404040">
                               <set attributeName="fill" to="#808080" begin="reset.mouseover" end="reset.mouseout"/>
                       </use>
               </g>
        </defs>

<script type="text/javascript">
var viewWidth = 736;
var viewHeight = 182;
var sectionId = 'dynsection-1';
</script>
<script xlink:href="svgpan.js"/>
<svg id="graph" class="graph">
<g id="viewport">
<title>/home/sqeaky/Code/Mezzanine/Mezzanine/src/debrismanager.h</title>
<polygon fill="white" stroke="white" points="-4,5 -4,-178 733,-178 733,5 -4,5"/>
<!-- Node1 -->
<g id="node1" class="node"><title>Node1</title>
<polygon fill="#bfbfbf" stroke="black" points="264.5,-141 264.5,-173 419.5,-173 419.5,-141 264.5,-141"/>
<text text-anchor="start" x="272.5" y="-160" font-family="FreeSans" font-size="10.00">/home/sqeaky/Code/Mezzanine</text>
<text text-anchor="middle" x="342" y="-148" font-family="FreeSans" font-size="10.00">/Mezzanine/src/debrismanager.h</text>
</g>
<!-- Node2 -->
<g id="node3" class="node"><title>Node2</title>
<a xlink:href="debrismanager_8cpp.html" target="_top" xlink:title="This file contains the implementation for the manager that manages debris objects in a world...">
<polygon fill="white" stroke="black" points="-0.5,-71 -0.5,-103 164.5,-103 164.5,-71 -0.5,-71"/>
<text text-anchor="start" x="7.5" y="-90" font-family="FreeSans" font-size="10.00">/home/sqeaky/Code/Mezzanine</text>
<text text-anchor="middle" x="82" y="-78" font-family="FreeSans" font-size="10.00">/Mezzanine/src/debrismanager.cpp</text>
</a>
</g>
<!-- Node1&#45;&gt;Node2 -->
<g id="edge2" class="edge"><title>Node1&#45;&gt;Node2</title>
<path fill="none" stroke="midnightblue" d="M272.491,-138.286C231.737,-127.314 180.776,-113.594 141.821,-103.106"/>
<polygon fill="midnightblue" stroke="midnightblue" points="271.785,-141.72 282.351,-140.941 273.605,-134.961 271.785,-141.72"/>
</g>
<!-- Node3 -->
<g id="node5" class="node"><title>Node3</title>
<a xlink:href="mezzanine_8h.html" target="_top" xlink:title="A single file that includes all of the Mezzanine engine. ">
<polygon fill="white" stroke="black" points="181.5,-71 181.5,-103 332.5,-103 332.5,-71 181.5,-71"/>
<text text-anchor="start" x="189.5" y="-90" font-family="FreeSans" font-size="10.00">/home/sqeaky/Code/Mezzanine</text>
<text text-anchor="middle" x="257" y="-78" font-family="FreeSans" font-size="10.00">/Mezzanine/src/mezzanine.h</text>
</a>
</g>
<!-- Node1&#45;&gt;Node3 -->
<g id="edge4" class="edge"><title>Node1&#45;&gt;Node3</title>
<path fill="none" stroke="midnightblue" d="M314.499,-134.352C302.146,-124.179 287.853,-112.408 276.607,-103.147"/>
<polygon fill="midnightblue" stroke="midnightblue" points="312.341,-137.109 322.286,-140.765 316.791,-131.706 312.341,-137.109"/>
</g>
<!-- Node5 -->
<g id="node9" class="node"><title>Node5</title>
<a xlink:href="rayquerytool_8cpp_source.html" target="_top" xlink:title="/home/sqeaky/Code/Mezzanine\l/Mezzanine/src/rayquerytool.cpp">
<polygon fill="white" stroke="black" points="350,-71 350,-103 504,-103 504,-71 350,-71"/>
<text text-anchor="start" x="358" y="-90" font-family="FreeSans" font-size="10.00">/home/sqeaky/Code/Mezzanine</text>
<text text-anchor="middle" x="427" y="-78" font-family="FreeSans" font-size="10.00">/Mezzanine/src/rayquerytool.cpp</text>
</a>
</g>
<!-- Node1&#45;&gt;Node5 -->
<g id="edge8" class="edge"><title>Node1&#45;&gt;Node5</title>
<path fill="none" stroke="midnightblue" d="M369.501,-134.352C381.854,-124.179 396.147,-112.408 407.393,-103.147"/>
<polygon fill="midnightblue" stroke="midnightblue" points="367.209,-131.706 361.714,-140.765 371.659,-137.109 367.209,-131.706"/>
</g>
<!-- Node6 -->
<g id="node11" class="node"><title>Node6</title>
<a xlink:href="physicsmanager_8cpp_source.html" target="_top" xlink:title="/home/sqeaky/Code/Mezzanine\l/Mezzanine/src/Physics/physicsmanager.cpp">
<polygon fill="white" stroke="black" points="521.5,-71 521.5,-103 728.5,-103 728.5,-71 521.5,-71"/>
<text text-anchor="start" x="529.5" y="-90" font-family="FreeSans" font-size="10.00">/home/sqeaky/Code/Mezzanine</text>
<text text-anchor="middle" x="625" y="-78" font-family="FreeSans" font-size="10.00">/Mezzanine/src/Physics/physicsmanager.cpp</text>
</a>
</g>
<!-- Node1&#45;&gt;Node6 -->
<g id="edge10" class="edge"><title>Node1&#45;&gt;Node6</title>
<path fill="none" stroke="midnightblue" d="M416.816,-138.494C461.313,-127.488 517.217,-113.66 559.887,-103.106"/>
<polygon fill="midnightblue" stroke="midnightblue" points="415.793,-135.142 406.926,-140.941 417.474,-141.937 415.793,-135.142"/>
</g>
<!-- Node4 -->
<g id="node7" class="node"><title>Node4</title>
<a xlink:href="entresol_8cpp_source.html" target="_top" xlink:title="/home/sqeaky/Code/Mezzanine\l/Mezzanine/src/entresol.cpp">
<polygon fill="white" stroke="black" points="181.5,-1 181.5,-33 332.5,-33 332.5,-1 181.5,-1"/>
<text text-anchor="start" x="189.5" y="-20" font-family="FreeSans" font-size="10.00">/home/sqeaky/Code/Mezzanine</text>
<text text-anchor="middle" x="257" y="-8" font-family="FreeSans" font-size="10.00">/Mezzanine/src/entresol.cpp</text>
</a>
</g>
<!-- Node3&#45;&gt;Node4 -->
<g id="edge6" class="edge"><title>Node3&#45;&gt;Node4</title>
<path fill="none" stroke="midnightblue" d="M257,-60.5079C257,-51.3027 257,-41.2615 257,-33.1473"/>
<polygon fill="midnightblue" stroke="midnightblue" points="253.5,-60.7646 257,-70.7646 260.5,-60.7647 253.5,-60.7646"/>
</g>
</g>
</svg>
        <g id="navigator" transform="translate(0 0)" fill="#404254">
                <rect fill="#f2f5e9" fill-opacity="0.5" stroke="#606060" stroke-width=".5" x="0" y="0" width="60" height="60"/>
                <use id="zoomplus" xlink:href="#zoomPlus" x="17" y="9" onmousedown="handleZoom(evt,'in')"/>
                <use id="zoomminus" xlink:href="#zoomMin" x="42" y="9" onmousedown="handleZoom(evt,'out')"/>
                <use id="reset" xlink:href="#resetDef" x="30" y="36" onmousedown="handleReset()"/>
                <g id="arrowUp" xlink:href="#dirArrow" transform="translate(30 24)" onmousedown="handlePan(0,-1)">
                  <use xlink:href="#rim" fill="#404040">
                        <set attributeName="fill" to="#808080" begin="arrowUp.mouseover" end="arrowUp.mouseout"/>
                  </use>
                  <path fill="none" stroke="white" stroke-width="1.5" d="M0,-3.0v7 M-2.5,-0.5L0,-3.0L2.5,-0.5"/>
                </g>
                <g id="arrowRight" xlink:href="#dirArrow" transform="rotate(90) translate(36 -43)" onmousedown="handlePan(1,0)">
                  <use xlink:href="#rim" fill="#404040">
                        <set attributeName="fill" to="#808080" begin="arrowRight.mouseover" end="arrowRight.mouseout"/>
                  </use>
                  <path fill="none" stroke="white" stroke-width="1.5" d="M0,-3.0v7 M-2.5,-0.5L0,-3.0L2.5,-0.5"/>
                </g>
                <g id="arrowDown" xlink:href="#dirArrow" transform="rotate(180) translate(-30 -48)" onmousedown="handlePan(0,1)">
                  <use xlink:href="#rim" fill="#404040">
                        <set attributeName="fill" to="#808080" begin="arrowDown.mouseover" end="arrowDown.mouseout"/>
                  </use>
                  <path fill="none" stroke="white" stroke-width="1.5" d="M0,-3.0v7 M-2.5,-0.5L0,-3.0L2.5,-0.5"/>
                </g>
                <g id="arrowLeft" xlink:href="#dirArrow" transform="rotate(270) translate(-36 17)" onmousedown="handlePan(-1,0)">
                  <use xlink:href="#rim" fill="#404040">
                        <set attributeName="fill" to="#808080" begin="arrowLeft.mouseover" end="arrowLeft.mouseout"/>
                  </use>
                  <path fill="none" stroke="white" stroke-width="1.5" d="M0,-3.0v7 M-2.5,-0.5L0,-3.0L2.5,-0.5"/>
                </g>
        </g>
        <svg viewBox="0 0 15 15" width="100%" height="30px" preserveAspectRatio="xMaxYMin meet">
         <g id="arrow_out" transform="scale(0.3 0.3)">
          <a xlink:href="debrismanager_8h__dep__incl_org.svg" target="_base">
           <rect id="button" ry="5" rx="5" y="6" x="6" height="38" width="38"
                fill="#f2f5e9" fill-opacity="0.5" stroke="#606060" stroke-width="1.0"/>
           <path id="arrow"
             d="M 11.500037,31.436501 C 11.940474,20.09759 22.043105,11.32322 32.158766,21.979434 L 37.068811,17.246167 C 37.068811,17.246167 37.088388,32 37.088388,32 L 22.160133,31.978069 C 22.160133,31.978069 26.997745,27.140456 26.997745,27.140456 C 18.528582,18.264221 13.291696,25.230495 11.500037,31.436501 z"
             style="fill:#404040;"/>
          </a>
         </g>
        </svg>
</svg>
