<?xml version="1.0" encoding="UTF-8" standalone="no"?>
<!DOCTYPE svg PUBLIC "-//W3C//DTD SVG 1.1//EN"
 "http://www.w3.org/Graphics/SVG/1.1/DTD/svg11.dtd">
<!-- Generated by graphviz version 2.26.3 (20100126.1600)
 -->
<!-- Title: /home/sqeaky/Code/Mezzanine/Mezzanine/src/Input/device.h Pages: 1 -->
<!--zoomable 404 -->
<svg id="main" version="1.1" xmlns="http://www.w3.org/2000/svg" xmlns:xlink="http://www.w3.org/1999/xlink" xml:space="preserve" onload="init(evt)">
<style type="text/css"><![CDATA[
.edge:hover path { stroke: red; }
.edge:hover polygon { stroke: red; fill: red; }
]]></style>
<script type="text/javascript"><![CDATA[
var edges = document.getElementsByTagName('g');
if (edges && edges.length) {
  for (var i=0;i<edges.length;i++) {
    if (edges[i].id.substr(0,4)=='edge') {
      edges[i].setAttribute('class','edge');
    }
  }
}
]]></script>
        <defs>
                <circle id="rim" cx="0" cy="0" r="7"/>
                <circle id="rim2" cx="0" cy="0" r="3.5"/>
                <g id="zoomPlus">
                        <use xlink:href="#rim" fill="#404040">
                                <set attributeName="fill" to="#808080" begin="zoomplus.mouseover" end="zoomplus.mouseout"/>
                        </use>
                        <path d="M-4,0h8M0,-4v8" fill="none" stroke="white" stroke-width="1.5" pointer-events="none"/>
                </g>
                <g id="zoomMin">
                        <use xlink:href="#rim" fill="#404040">
                                <set attributeName="fill" to="#808080" begin="zoomminus.mouseover" end="zoomminus.mouseout"/>
                        </use>
                        <path d="M-4,0h8" fill="none" stroke="white" stroke-width="1.5" pointer-events="none"/>
                </g>
                <g id="dirArrow">
                        <path fill="none" stroke="white" stroke-width="1.5" d="M0,-3.0v7 M-2.5,-0.5L0,-3.0L2.5,-0.5"/>
                </g>
               <g id="resetDef">
                       <use xlink:href="#rim2" fill="#404040">
                               <set attributeName="fill" to="#808080" begin="reset.mouseover" end="reset.mouseout"/>
                       </use>
               </g>
        </defs>

<script type="text/javascript">
var viewWidth = 1622;
var viewHeight = 404;
var sectionId = 'dynsection-1';
</script>
<script xlink:href="svgpan.js"/>
<svg id="graph" class="graph">
<g id="viewport">
<title>/home/sqeaky/Code/Mezzanine/Mezzanine/src/Input/device.h</title>
<polygon fill="white" stroke="white" points="-4,5 -4,-400 1619,-400 1619,5 -4,5"/>
<!-- Node1 -->
<g id="node1" class="node"><title>Node1</title>
<polygon fill="#bfbfbf" stroke="black" points="470.5,-361 470.5,-395 625.5,-395 625.5,-361 470.5,-361"/>
<text text-anchor="start" x="478.5" y="-382" font-family="Helvetica,sans-Serif" font-size="10.00">/home/sqeaky/Code/Mezzanine</text>
<text text-anchor="middle" x="548" y="-369" font-family="Helvetica,sans-Serif" font-size="10.00">/Mezzanine/src/Input/device.h</text>
</g>
<!-- Node2 -->
<g id="node3" class="node"><title>Node2</title>
<a xlink:href="input_8h_source.html" target="_top" xlink:title="/home/sqeaky/Code/Mezzanine\l/Mezzanine/src/Input/input.h">
<polygon fill="white" stroke="black" points="187.5,-145 187.5,-179 342.5,-179 342.5,-145 187.5,-145"/>
<text text-anchor="start" x="195.5" y="-166" font-family="Helvetica,sans-Serif" font-size="10.00">/home/sqeaky/Code/Mezzanine</text>
<text text-anchor="middle" x="265" y="-153" font-family="Helvetica,sans-Serif" font-size="10.00">/Mezzanine/src/Input/input.h</text>
</a>
</g>
<!-- Node1&#45;&gt;Node2 -->
<g id="edge2" class="edge"><title>Node1&#45;&gt;Node2</title>
<path fill="none" stroke="midnightblue" d="M460.944,-358.05C402.255,-340.078 327.811,-307.666 284,-252 267.408,-230.918 264.41,-198.746 264.31,-179.119"/>
<polygon fill="midnightblue" stroke="midnightblue" points="460.008,-361.423 470.591,-360.919 462.004,-354.714 460.008,-361.423"/>
</g>
<!-- Node5 -->
<g id="node9" class="node"><title>Node5</title>
<a xlink:href="buttondevice_8h_source.html" target="_top" xlink:title="/home/sqeaky/Code/Mezzanine\l/Mezzanine/src/Input/buttondevice.h">
<polygon fill="white" stroke="black" points="460.5,-289 460.5,-323 635.5,-323 635.5,-289 460.5,-289"/>
<text text-anchor="start" x="468.5" y="-310" font-family="Helvetica,sans-Serif" font-size="10.00">/home/sqeaky/Code/Mezzanine</text>
<text text-anchor="middle" x="548" y="-297" font-family="Helvetica,sans-Serif" font-size="10.00">/Mezzanine/src/Input/buttondevice.h</text>
</a>
</g>
<!-- Node1&#45;&gt;Node5 -->
<g id="edge8" class="edge"><title>Node1&#45;&gt;Node5</title>
<path fill="none" stroke="midnightblue" d="M548,-350.719C548,-341.572 548,-331.625 548,-323.441"/>
<polygon fill="midnightblue" stroke="midnightblue" points="544.5,-350.937 548,-360.937 551.5,-350.937 544.5,-350.937"/>
</g>
<!-- Node18 -->
<g id="node40" class="node"><title>Node18</title>
<a xlink:href="device_8cpp_source.html" target="_top" xlink:title="/home/sqeaky/Code/Mezzanine\l/Mezzanine/src/Input/device.cpp">
<polygon fill="white" stroke="black" points="653,-289 653,-323 811,-323 811,-289 653,-289"/>
<text text-anchor="start" x="661" y="-310" font-family="Helvetica,sans-Serif" font-size="10.00">/home/sqeaky/Code/Mezzanine</text>
<text text-anchor="middle" x="732" y="-297" font-family="Helvetica,sans-Serif" font-size="10.00">/Mezzanine/src/Input/device.cpp</text>
</a>
</g>
<!-- Node1&#45;&gt;Node18 -->
<g id="edge44" class="edge"><title>Node1&#45;&gt;Node18</title>
<path fill="none" stroke="midnightblue" d="M601.135,-357.208C628.815,-346.377 662.246,-333.295 688.389,-323.065"/>
<polygon fill="midnightblue" stroke="midnightblue" points="599.642,-354.034 591.605,-360.937 602.193,-360.552 599.642,-354.034"/>
</g>
<!-- Node3 -->
<g id="node5" class="node"><title>Node3</title>
<a xlink:href="mezzanine_8h.html" target="_top" xlink:title="A single file that includes all of the Mezzanine engine. ">
<polygon fill="white" stroke="black" points="187.5,-73 187.5,-107 342.5,-107 342.5,-73 187.5,-73"/>
<text text-anchor="start" x="195.5" y="-94" font-family="Helvetica,sans-Serif" font-size="10.00">/home/sqeaky/Code/Mezzanine</text>
<text text-anchor="middle" x="265" y="-81" font-family="Helvetica,sans-Serif" font-size="10.00">/Mezzanine/src/mezzanine.h</text>
</a>
</g>
<!-- Node2&#45;&gt;Node3 -->
<g id="edge4" class="edge"><title>Node2&#45;&gt;Node3</title>
<path fill="none" stroke="midnightblue" d="M265,-134.719C265,-125.572 265,-115.625 265,-107.441"/>
<polygon fill="midnightblue" stroke="midnightblue" points="261.5,-134.937 265,-144.937 268.5,-134.937 261.5,-134.937"/>
</g>
<!-- Node4 -->
<g id="node7" class="node"><title>Node4</title>
<a xlink:href="entresol_8cpp_source.html" target="_top" xlink:title="/home/sqeaky/Code/Mezzanine\l/Mezzanine/src/entresol.cpp">
<polygon fill="white" stroke="black" points="187.5,-1 187.5,-35 342.5,-35 342.5,-1 187.5,-1"/>
<text text-anchor="start" x="195.5" y="-22" font-family="Helvetica,sans-Serif" font-size="10.00">/home/sqeaky/Code/Mezzanine</text>
<text text-anchor="middle" x="265" y="-9" font-family="Helvetica,sans-Serif" font-size="10.00">/Mezzanine/src/entresol.cpp</text>
</a>
</g>
<!-- Node3&#45;&gt;Node4 -->
<g id="edge6" class="edge"><title>Node3&#45;&gt;Node4</title>
<path fill="none" stroke="midnightblue" d="M265,-62.7193C265,-53.572 265,-43.6255 265,-35.4407"/>
<polygon fill="midnightblue" stroke="midnightblue" points="261.5,-62.937 265,-72.937 268.5,-62.937 261.5,-62.937"/>
</g>
<!-- Node6 -->
<g id="node11" class="node"><title>Node6</title>
<a xlink:href="mouse_8h_source.html" target="_top" xlink:title="/home/sqeaky/Code/Mezzanine\l/Mezzanine/src/Input/mouse.h">
<polygon fill="white" stroke="black" points="755.5,-217 755.5,-251 910.5,-251 910.5,-217 755.5,-217"/>
<text text-anchor="start" x="763.5" y="-238" font-family="Helvetica,sans-Serif" font-size="10.00">/home/sqeaky/Code/Mezzanine</text>
<text text-anchor="middle" x="833" y="-225" font-family="Helvetica,sans-Serif" font-size="10.00">/Mezzanine/src/Input/mouse.h</text>
</a>
</g>
<!-- Node5&#45;&gt;Node6 -->
<g id="edge10" class="edge"><title>Node5&#45;&gt;Node6</title>
<path fill="none" stroke="midnightblue" d="M625.289,-286.474C669.087,-275.409 723.365,-261.697 765.451,-251.065"/>
<polygon fill="midnightblue" stroke="midnightblue" points="624.379,-283.094 615.541,-288.937 626.094,-289.881 624.379,-283.094"/>
</g>
<!-- Node13 -->
<g id="node26" class="node"><title>Node13</title>
<a xlink:href="buttondevice_8cpp_source.html" target="_top" xlink:title="/home/sqeaky/Code/Mezzanine\l/Mezzanine/src/Input/buttondevice.cpp">
<polygon fill="white" stroke="black" points="927.5,-217 927.5,-251 1112.5,-251 1112.5,-217 927.5,-217"/>
<text text-anchor="start" x="935.5" y="-238" font-family="Helvetica,sans-Serif" font-size="10.00">/home/sqeaky/Code/Mezzanine</text>
<text text-anchor="middle" x="1020" y="-225" font-family="Helvetica,sans-Serif" font-size="10.00">/Mezzanine/src/Input/buttondevice.cpp</text>
</a>
</g>
<!-- Node5&#45;&gt;Node13 -->
<g id="edge26" class="edge"><title>Node5&#45;&gt;Node13</title>
<path fill="none" stroke="midnightblue" d="M645.691,-287.776C767.455,-268.735 800.392,-270.322 919,-252 921.728,-251.579 924.497,-251.142 927.29,-250.694"/>
<polygon fill="midnightblue" stroke="midnightblue" points="644.931,-284.352 635.6,-289.369 646.023,-291.267 644.931,-284.352"/>
</g>
<!-- Node14 -->
<g id="node28" class="node"><title>Node14</title>
<a xlink:href="controller_8h_source.html" target="_top" xlink:title="/home/sqeaky/Code/Mezzanine\l/Mezzanine/src/Input/controller.h">
<polygon fill="white" stroke="black" points="292.5,-217 292.5,-251 451.5,-251 451.5,-217 292.5,-217"/>
<text text-anchor="start" x="300.5" y="-238" font-family="Helvetica,sans-Serif" font-size="10.00">/home/sqeaky/Code/Mezzanine</text>
<text text-anchor="middle" x="372" y="-225" font-family="Helvetica,sans-Serif" font-size="10.00">/Mezzanine/src/Input/controller.h</text>
</a>
</g>
<!-- Node5&#45;&gt;Node14 -->
<g id="edge28" class="edge"><title>Node5&#45;&gt;Node14</title>
<path fill="none" stroke="midnightblue" d="M496.828,-285.066C470.42,-274.263 438.612,-261.251 413.715,-251.065"/>
<polygon fill="midnightblue" stroke="midnightblue" points="495.71,-288.39 506.29,-288.937 498.36,-281.911 495.71,-288.39"/>
</g>
<!-- Node16 -->
<g id="node34" class="node"><title>Node16</title>
<a xlink:href="keyboard_8h_source.html" target="_top" xlink:title="/home/sqeaky/Code/Mezzanine\l/Mezzanine/src/Input/keyboard.h">
<polygon fill="white" stroke="black" points="468.5,-217 468.5,-251 627.5,-251 627.5,-217 468.5,-217"/>
<text text-anchor="start" x="476.5" y="-238" font-family="Helvetica,sans-Serif" font-size="10.00">/home/sqeaky/Code/Mezzanine</text>
<text text-anchor="middle" x="548" y="-225" font-family="Helvetica,sans-Serif" font-size="10.00">/Mezzanine/src/Input/keyboard.h</text>
</a>
</g>
<!-- Node5&#45;&gt;Node16 -->
<g id="edge36" class="edge"><title>Node5&#45;&gt;Node16</title>
<path fill="none" stroke="midnightblue" d="M548,-278.719C548,-269.572 548,-259.625 548,-251.441"/>
<polygon fill="midnightblue" stroke="midnightblue" points="544.5,-278.937 548,-288.937 551.5,-278.937 544.5,-278.937"/>
</g>
<!-- Node6&#45;&gt;Node2 -->
<g id="edge12" class="edge"><title>Node6&#45;&gt;Node2</title>
<path fill="none" stroke="midnightblue" d="M745.309,-225.184C627.588,-213.174 424.719,-191.817 351,-180 348.289,-179.565 345.534,-179.103 342.754,-178.619"/>
<polygon fill="midnightblue" stroke="midnightblue" points="745.077,-228.678 755.38,-226.21 745.786,-221.714 745.077,-228.678"/>
</g>
<!-- Node7 -->
<g id="node14" class="node"><title>Node7</title>
<a xlink:href="rayquerytool_8cpp_source.html" target="_top" xlink:title="/home/sqeaky/Code/Mezzanine\l/Mezzanine/src/rayquerytool.cpp">
<polygon fill="white" stroke="black" points="754,-145 754,-179 912,-179 912,-145 754,-145"/>
<text text-anchor="start" x="762" y="-166" font-family="Helvetica,sans-Serif" font-size="10.00">/home/sqeaky/Code/Mezzanine</text>
<text text-anchor="middle" x="833" y="-153" font-family="Helvetica,sans-Serif" font-size="10.00">/Mezzanine/src/rayquerytool.cpp</text>
</a>
</g>
<!-- Node6&#45;&gt;Node7 -->
<g id="edge14" class="edge"><title>Node6&#45;&gt;Node7</title>
<path fill="none" stroke="midnightblue" d="M833,-206.719C833,-197.572 833,-187.625 833,-179.441"/>
<polygon fill="midnightblue" stroke="midnightblue" points="829.5,-206.937 833,-216.937 836.5,-206.937 829.5,-206.937"/>
</g>
<!-- Node8 -->
<g id="node16" class="node"><title>Node8</title>
<a xlink:href="inputmanager_8cpp_source.html" target="_top" xlink:title="/home/sqeaky/Code/Mezzanine\l/Mezzanine/src/Input/inputmanager.cpp">
<polygon fill="white" stroke="black" points="360,-145 360,-179 548,-179 548,-145 360,-145"/>
<text text-anchor="start" x="368" y="-166" font-family="Helvetica,sans-Serif" font-size="10.00">/home/sqeaky/Code/Mezzanine</text>
<text text-anchor="middle" x="454" y="-153" font-family="Helvetica,sans-Serif" font-size="10.00">/Mezzanine/src/Input/inputmanager.cpp</text>
</a>
</g>
<!-- Node6&#45;&gt;Node8 -->
<g id="edge16" class="edge"><title>Node6&#45;&gt;Node8</title>
<path fill="none" stroke="midnightblue" d="M745.479,-217.373C685.002,-205.884 604.789,-190.646 543.821,-179.064"/>
<polygon fill="midnightblue" stroke="midnightblue" points="744.912,-220.828 755.389,-219.256 746.218,-213.951 744.912,-220.828"/>
</g>
<!-- Node9 -->
<g id="node18" class="node"><title>Node9</title>
<a xlink:href="mouse_8cpp_source.html" target="_top" xlink:title="/home/sqeaky/Code/Mezzanine\l/Mezzanine/src/Input/mouse.cpp">
<polygon fill="white" stroke="black" points="929.5,-145 929.5,-179 1088.5,-179 1088.5,-145 929.5,-145"/>
<text text-anchor="start" x="937.5" y="-166" font-family="Helvetica,sans-Serif" font-size="10.00">/home/sqeaky/Code/Mezzanine</text>
<text text-anchor="middle" x="1009" y="-153" font-family="Helvetica,sans-Serif" font-size="10.00">/Mezzanine/src/Input/mouse.cpp</text>
</a>
</g>
<!-- Node6&#45;&gt;Node9 -->
<g id="edge18" class="edge"><title>Node6&#45;&gt;Node9</title>
<path fill="none" stroke="midnightblue" d="M884.172,-213.066C910.58,-202.263 942.388,-189.251 967.285,-179.065"/>
<polygon fill="midnightblue" stroke="midnightblue" points="882.64,-209.911 874.71,-216.937 885.29,-216.39 882.64,-209.911"/>
</g>
<!-- Node10 -->
<g id="node20" class="node"><title>Node10</title>
<a xlink:href="listbox_8cpp_source.html" target="_top" xlink:title="/home/sqeaky/Code/Mezzanine\l/Mezzanine/src/UI/listbox.cpp">
<polygon fill="white" stroke="black" points="1105.5,-145 1105.5,-179 1260.5,-179 1260.5,-145 1105.5,-145"/>
<text text-anchor="start" x="1113.5" y="-166" font-family="Helvetica,sans-Serif" font-size="10.00">/home/sqeaky/Code/Mezzanine</text>
<text text-anchor="middle" x="1183" y="-153" font-family="Helvetica,sans-Serif" font-size="10.00">/Mezzanine/src/UI/listbox.cpp</text>
</a>
</g>
<!-- Node6&#45;&gt;Node10 -->
<g id="edge20" class="edge"><title>Node6&#45;&gt;Node10</title>
<path fill="none" stroke="midnightblue" d="M920.734,-215.65C999.7,-199.442 1021.03,-195.632 1097,-180 1099.69,-179.447 1102.43,-178.882 1105.19,-178.311"/>
<polygon fill="midnightblue" stroke="midnightblue" points="919.901,-212.248 910.811,-217.689 921.311,-219.104 919.901,-212.248"/>
</g>
<!-- Node11 -->
<g id="node22" class="node"><title>Node11</title>
<a xlink:href="tabset_8cpp_source.html" target="_top" xlink:title="/home/sqeaky/Code/Mezzanine\l/Mezzanine/src/UI/tabset.cpp">
<polygon fill="white" stroke="black" points="1277.5,-145 1277.5,-179 1432.5,-179 1432.5,-145 1277.5,-145"/>
<text text-anchor="start" x="1285.5" y="-166" font-family="Helvetica,sans-Serif" font-size="10.00">/home/sqeaky/Code/Mezzanine</text>
<text text-anchor="middle" x="1355" y="-153" font-family="Helvetica,sans-Serif" font-size="10.00">/Mezzanine/src/UI/tabset.cpp</text>
</a>
</g>
<!-- Node6&#45;&gt;Node11 -->
<g id="edge22" class="edge"><title>Node6&#45;&gt;Node11</title>
<path fill="none" stroke="midnightblue" d="M921.074,-215.764C1075.33,-192.453 1117.8,-203.534 1269,-180 1271.71,-179.578 1274.47,-179.126 1277.25,-178.651"/>
<polygon fill="midnightblue" stroke="midnightblue" points="920.102,-212.372 910.749,-217.349 921.165,-219.291 920.102,-212.372"/>
</g>
<!-- Node12 -->
<g id="node24" class="node"><title>Node12</title>
<a xlink:href="uimanager_8cpp_source.html" target="_top" xlink:title="/home/sqeaky/Code/Mezzanine\l/Mezzanine/src/UI/uimanager.cpp">
<polygon fill="white" stroke="black" points="1450,-145 1450,-179 1614,-179 1614,-145 1450,-145"/>
<text text-anchor="start" x="1458" y="-166" font-family="Helvetica,sans-Serif" font-size="10.00">/home/sqeaky/Code/Mezzanine</text>
<text text-anchor="middle" x="1532" y="-153" font-family="Helvetica,sans-Serif" font-size="10.00">/Mezzanine/src/UI/uimanager.cpp</text>
</a>
</g>
<!-- Node6&#45;&gt;Node12 -->
<g id="edge24" class="edge"><title>Node6&#45;&gt;Node12</title>
<path fill="none" stroke="midnightblue" d="M920.763,-215.859C1151.12,-184.844 1213.74,-210.19 1441,-180 1443.87,-179.618 1446.79,-179.201 1449.74,-178.756"/>
<polygon fill="midnightblue" stroke="midnightblue" points="920.166,-212.408 910.732,-217.231 921.114,-219.344 920.166,-212.408"/>
</g>
<!-- Node14&#45;&gt;Node2 -->
<g id="edge30" class="edge"><title>Node14&#45;&gt;Node2</title>
<path fill="none" stroke="midnightblue" d="M337.93,-211.074C322.568,-200.738 304.734,-188.737 290.546,-179.19"/>
<polygon fill="midnightblue" stroke="midnightblue" points="336.392,-214.258 346.642,-216.937 340.3,-208.45 336.392,-214.258"/>
</g>
<!-- Node14&#45;&gt;Node8 -->
<g id="edge34" class="edge"><title>Node14&#45;&gt;Node8</title>
<path fill="none" stroke="midnightblue" d="M399.104,-210.201C410.646,-200.067 423.855,-188.469 434.422,-179.19"/>
<polygon fill="midnightblue" stroke="midnightblue" points="396.638,-207.709 391.433,-216.937 401.257,-212.969 396.638,-207.709"/>
</g>
<!-- Node15 -->
<g id="node31" class="node"><title>Node15</title>
<a xlink:href="controller_8cpp_source.html" target="_top" xlink:title="/home/sqeaky/Code/Mezzanine\l/Mezzanine/src/Input/controller.cpp">
<polygon fill="white" stroke="black" points="0,-145 0,-179 170,-179 170,-145 0,-145"/>
<text text-anchor="start" x="8" y="-166" font-family="Helvetica,sans-Serif" font-size="10.00">/home/sqeaky/Code/Mezzanine</text>
<text text-anchor="middle" x="85" y="-153" font-family="Helvetica,sans-Serif" font-size="10.00">/Mezzanine/src/Input/controller.cpp</text>
</a>
</g>
<!-- Node14&#45;&gt;Node15 -->
<g id="edge32" class="edge"><title>Node14&#45;&gt;Node15</title>
<path fill="none" stroke="midnightblue" d="M294.169,-214.474C250.063,-203.409 195.404,-189.697 153.024,-179.065"/>
<polygon fill="midnightblue" stroke="midnightblue" points="293.434,-217.898 303.985,-216.937 295.137,-211.109 293.434,-217.898"/>
</g>
<!-- Node16&#45;&gt;Node2 -->
<g id="edge38" class="edge"><title>Node16&#45;&gt;Node2</title>
<path fill="none" stroke="midnightblue" d="M470.979,-214.405C427.536,-203.352 373.778,-189.675 332.075,-179.065"/>
<polygon fill="midnightblue" stroke="midnightblue" points="470.379,-217.863 480.933,-216.937 472.105,-211.079 470.379,-217.863"/>
</g>
<!-- Node16&#45;&gt;Node8 -->
<g id="edge40" class="edge"><title>Node16&#45;&gt;Node8</title>
<path fill="none" stroke="midnightblue" d="M517.69,-210.784C504.282,-200.514 488.79,-188.648 476.443,-179.19"/>
<polygon fill="midnightblue" stroke="midnightblue" points="515.656,-213.635 525.723,-216.937 519.913,-208.078 515.656,-213.635"/>
</g>
<!-- Node17 -->
<g id="node38" class="node"><title>Node17</title>
<a xlink:href="keyboard_8cpp_source.html" target="_top" xlink:title="/home/sqeaky/Code/Mezzanine\l/Mezzanine/src/Input/keyboard.cpp">
<polygon fill="white" stroke="black" points="566,-145 566,-179 736,-179 736,-145 566,-145"/>
<text text-anchor="start" x="574" y="-166" font-family="Helvetica,sans-Serif" font-size="10.00">/home/sqeaky/Code/Mezzanine</text>
<text text-anchor="middle" x="651" y="-153" font-family="Helvetica,sans-Serif" font-size="10.00">/Mezzanine/src/Input/keyboard.cpp</text>
</a>
</g>
<!-- Node16&#45;&gt;Node17 -->
<g id="edge42" class="edge"><title>Node16&#45;&gt;Node17</title>
<path fill="none" stroke="midnightblue" d="M580.796,-211.074C595.584,-200.738 612.752,-188.737 626.409,-179.19"/>
<polygon fill="midnightblue" stroke="midnightblue" points="578.6,-208.339 572.41,-216.937 582.611,-214.076 578.6,-208.339"/>
</g>
</g>
</svg>
        <g id="navigator" transform="translate(0 0)" fill="#404254">
                <rect fill="#f2f5e9" fill-opacity="0.5" stroke="#606060" stroke-width=".5" x="0" y="0" width="60" height="60"/>
                <use id="zoomplus" xlink:href="#zoomPlus" x="17" y="9" onmousedown="handleZoom(evt,'in')"/>
                <use id="zoomminus" xlink:href="#zoomMin" x="42" y="9" onmousedown="handleZoom(evt,'out')"/>
                <use id="reset" xlink:href="#resetDef" x="30" y="36" onmousedown="handleReset()"/>
                <g id="arrowUp" xlink:href="#dirArrow" transform="translate(30 24)" onmousedown="handlePan(0,-1)">
                  <use xlink:href="#rim" fill="#404040">
                        <set attributeName="fill" to="#808080" begin="arrowUp.mouseover" end="arrowUp.mouseout"/>
                  </use>
                  <path fill="none" stroke="white" stroke-width="1.5" d="M0,-3.0v7 M-2.5,-0.5L0,-3.0L2.5,-0.5"/>
                </g>
                <g id="arrowRight" xlink:href="#dirArrow" transform="rotate(90) translate(36 -43)" onmousedown="handlePan(1,0)">
                  <use xlink:href="#rim" fill="#404040">
                        <set attributeName="fill" to="#808080" begin="arrowRight.mouseover" end="arrowRight.mouseout"/>
                  </use>
                  <path fill="none" stroke="white" stroke-width="1.5" d="M0,-3.0v7 M-2.5,-0.5L0,-3.0L2.5,-0.5"/>
                </g>
                <g id="arrowDown" xlink:href="#dirArrow" transform="rotate(180) translate(-30 -48)" onmousedown="handlePan(0,1)">
                  <use xlink:href="#rim" fill="#404040">
                        <set attributeName="fill" to="#808080" begin="arrowDown.mouseover" end="arrowDown.mouseout"/>
                  </use>
                  <path fill="none" stroke="white" stroke-width="1.5" d="M0,-3.0v7 M-2.5,-0.5L0,-3.0L2.5,-0.5"/>
                </g>
                <g id="arrowLeft" xlink:href="#dirArrow" transform="rotate(270) translate(-36 17)" onmousedown="handlePan(-1,0)">
                  <use xlink:href="#rim" fill="#404040">
                        <set attributeName="fill" to="#808080" begin="arrowLeft.mouseover" end="arrowLeft.mouseout"/>
                  </use>
                  <path fill="none" stroke="white" stroke-width="1.5" d="M0,-3.0v7 M-2.5,-0.5L0,-3.0L2.5,-0.5"/>
                </g>
        </g>
        <svg viewBox="0 0 15 15" width="100%" height="30px" preserveAspectRatio="xMaxYMin meet">
         <g id="arrow_out" transform="scale(0.3 0.3)">
          <a xlink:href="device_8h__dep__incl_org.svg" target="_base">
           <rect id="button" ry="5" rx="5" y="6" x="6" height="38" width="38"
                fill="#f2f5e9" fill-opacity="0.5" stroke="#606060" stroke-width="1.0"/>
           <path id="arrow"
             d="M 11.500037,31.436501 C 11.940474,20.09759 22.043105,11.32322 32.158766,21.979434 L 37.068811,17.246167 C 37.068811,17.246167 37.088388,32 37.088388,32 L 22.160133,31.978069 C 22.160133,31.978069 26.997745,27.140456 26.997745,27.140456 C 18.528582,18.264221 13.291696,25.230495 11.500037,31.436501 z"
             style="fill:#404040;"/>
          </a>
         </g>
        </svg>
</svg>
