<?xml version="1.0" encoding="UTF-8" standalone="no"?>
<!DOCTYPE svg PUBLIC "-//W3C//DTD SVG 1.1//EN"
 "http://www.w3.org/Graphics/SVG/1.1/DTD/svg11.dtd">
<!-- Generated by graphviz version 2.26.3 (20100126.1600)
 -->
<!-- Title: /home/sqeaky/Code/Mezzanine/Mezzanine/src/Input/device.h Pages: 1 -->
<!--zoomable 322 -->
<svg id="main" version="1.1" xmlns="http://www.w3.org/2000/svg" xmlns:xlink="http://www.w3.org/1999/xlink" xml:space="preserve" onload="init(evt)">
        <defs>
                <circle id="rim" cx="0" cy="0" r="7"/>
                <circle id="rim2" cx="0" cy="0" r="3.5"/>
                <g id="zoomPlus">
                        <use xlink:href="#rim" fill="#404040">
                                <set attributeName="fill" to="#808080" begin="zoomplus.mouseover" end="zoomplus.mouseout"/>
                        </use>
                        <path d="M-4,0h8M0,-4v8" fill="none" stroke="white" stroke-width="1.5" pointer-events="none"/>
                </g>
                <g id="zoomMin">
                        <use xlink:href="#rim" fill="#404040">
                                <set attributeName="fill" to="#808080" begin="zoomminus.mouseover" end="zoomminus.mouseout"/>
                        </use>
                        <path d="M-4,0h8" fill="none" stroke="white" stroke-width="1.5" pointer-events="none"/>
                </g>
                <g id="dirArrow">
                        <path fill="none" stroke="white" stroke-width="1.5" d="M0,-3.0v7 M-2.5,-0.5L0,-3.0L2.5,-0.5"/>
                </g>
               <g id="resetDef">
                       <use xlink:href="#rim2" fill="#404040">
                               <set attributeName="fill" to="#808080" begin="reset.mouseover" end="reset.mouseout"/>
                       </use>
               </g>
        </defs>

<script type="text/javascript">
var viewWidth = 2924;
var viewHeight = 322;
var sectionId = 'dynsection-1';
</script>
<script xlink:href="svgpan.js"/>
<svg id="graph" class="graph">
<g id="viewport">
<title>/home/sqeaky/Code/Mezzanine/Mezzanine/src/Input/device.h</title>
<!-- Node1 -->
<g id="node1" class="node"><title>Node1</title>
<polygon fill="#bfbfbf" stroke="black" points="394.5,-281 394.5,-313 545.5,-313 545.5,-281 394.5,-281"/>
<text text-anchor="start" x="402.5" y="-300" font-family="FreeSans" font-size="10.00">/home/sqeaky/Code/Mezzanine</text>
<text text-anchor="middle" x="470" y="-288" font-family="FreeSans" font-size="10.00">/Mezzanine/src/Input/device.h</text>
</g>
<!-- Node2 -->
<g id="node3" class="node"><title>Node2</title>
<a xlink:href="controller_8h_source.xhtml" target="_top" xlink:title="/home/sqeaky/Code/Mezzanine\l/Mezzanine/src/Input/controller.h">
<polygon fill="none" stroke="black" points="392,-211 392,-243 548,-243 548,-211 392,-211"/>
<text text-anchor="start" x="400" y="-230" font-family="FreeSans" font-size="10.00">/home/sqeaky/Code/Mezzanine</text>
<text text-anchor="middle" x="470" y="-218" font-family="FreeSans" font-size="10.00">/Mezzanine/src/Input/controller.h</text>
</a>
</g>
<!-- Node1&#45;&gt;Node2 -->
<g id="edge2" class="edge"><title>Node1&#45;&gt;Node2</title>
<path fill="none" stroke="midnightblue" d="M470,-270.508C470,-261.303 470,-251.262 470,-243.147"/>
<polygon fill="midnightblue" stroke="midnightblue" points="466.5,-270.765 470,-280.765 473.5,-270.765 466.5,-270.765"/>
</g>
<!-- Node3 -->
<g id="node5" class="node"><title>Node3</title>
<a xlink:href="input_8h_source.xhtml" target="_top" xlink:title="/home/sqeaky/Code/Mezzanine\l/Mezzanine/src/input.h">
<polygon fill="none" stroke="black" points="183.5,-141 183.5,-173 334.5,-173 334.5,-141 183.5,-141"/>
<text text-anchor="start" x="191.5" y="-160" font-family="FreeSans" font-size="10.00">/home/sqeaky/Code/Mezzanine</text>
<text text-anchor="middle" x="259" y="-148" font-family="FreeSans" font-size="10.00">/Mezzanine/src/input.h</text>
</a>
</g>
<!-- Node1&#45;&gt;Node3 -->
<g id="edge14" class="edge"><title>Node1&#45;&gt;Node3</title>
<path fill="none" stroke="midnightblue" d="M431.696,-275.713C416.164,-266.562 398.314,-255.367 383,-244 364.803,-230.493 363.162,-223.554 345,-210 326.868,-196.469 305.173,-183.117 288.109,-173.199"/>
<polygon fill="midnightblue" stroke="midnightblue" points="430.131,-278.852 440.536,-280.85 433.649,-272.8 430.131,-278.852"/>
</g>
<!-- Node8 -->
<g id="node16" class="node"><title>Node8</title>
<a xlink:href="keyboard_8h_source.xhtml" target="_top" xlink:title="/home/sqeaky/Code/Mezzanine\l/Mezzanine/src/Input/keyboard.h">
<polygon fill="none" stroke="black" points="181.5,-211 181.5,-243 336.5,-243 336.5,-211 181.5,-211"/>
<text text-anchor="start" x="189.5" y="-230" font-family="FreeSans" font-size="10.00">/home/sqeaky/Code/Mezzanine</text>
<text text-anchor="middle" x="259" y="-218" font-family="FreeSans" font-size="10.00">/Mezzanine/src/Input/keyboard.h</text>
</a>
</g>
<!-- Node1&#45;&gt;Node8 -->
<g id="edge16" class="edge"><title>Node1&#45;&gt;Node8</title>
<path fill="none" stroke="midnightblue" d="M411.694,-277.657C378.947,-266.793 338.559,-253.394 307.547,-243.106"/>
<polygon fill="midnightblue" stroke="midnightblue" points="410.999,-281.114 421.592,-280.941 413.203,-274.47 410.999,-281.114"/>
</g>
<!-- Node10 -->
<g id="node22" class="node"><title>Node10</title>
<a xlink:href="mouse_8h_source.xhtml" target="_top" xlink:title="/home/sqeaky/Code/Mezzanine\l/Mezzanine/src/Input/mouse.h">
<polygon fill="none" stroke="black" points="1393.5,-211 1393.5,-243 1544.5,-243 1544.5,-211 1393.5,-211"/>
<text text-anchor="start" x="1401.5" y="-230" font-family="FreeSans" font-size="10.00">/home/sqeaky/Code/Mezzanine</text>
<text text-anchor="middle" x="1469" y="-218" font-family="FreeSans" font-size="10.00">/Mezzanine/src/Input/mouse.h</text>
</a>
</g>
<!-- Node1&#45;&gt;Node10 -->
<g id="edge24" class="edge"><title>Node1&#45;&gt;Node10</title>
<path fill="none" stroke="midnightblue" d="M555.97,-290.976C748.324,-277.498 1210.82,-245.091 1393.21,-232.311"/>
<polygon fill="midnightblue" stroke="midnightblue" points="555.638,-287.491 545.907,-291.681 556.128,-294.474 555.638,-287.491"/>
</g>
<!-- Node24 -->
<g id="node52" class="node"><title>Node24</title>
<a xlink:href="device_8cpp_source.xhtml" target="_top" xlink:title="/home/sqeaky/Code/Mezzanine\l/Mezzanine/src/Input/device.cpp">
<polygon fill="none" stroke="black" points="1561.5,-211 1561.5,-243 1716.5,-243 1716.5,-211 1561.5,-211"/>
<text text-anchor="start" x="1569.5" y="-230" font-family="FreeSans" font-size="10.00">/home/sqeaky/Code/Mezzanine</text>
<text text-anchor="middle" x="1639" y="-218" font-family="FreeSans" font-size="10.00">/Mezzanine/src/Input/device.cpp</text>
</a>
</g>
<!-- Node1&#45;&gt;Node24 -->
<g id="edge56" class="edge"><title>Node1&#45;&gt;Node24</title>
<path fill="none" stroke="midnightblue" d="M555.84,-294.423C776.668,-287.534 1360.57,-267.6 1553,-244 1555.72,-243.667 1558.48,-243.296 1561.27,-242.895"/>
<polygon fill="midnightblue" stroke="midnightblue" points="555.488,-290.933 545.602,-294.742 555.706,-297.929 555.488,-290.933"/>
</g>
<!-- Node2&#45;&gt;Node3 -->
<g id="edge4" class="edge"><title>Node2&#45;&gt;Node3</title>
<path fill="none" stroke="midnightblue" d="M411.694,-207.657C378.947,-196.793 338.559,-183.394 307.547,-173.106"/>
<polygon fill="midnightblue" stroke="midnightblue" points="410.999,-211.114 421.592,-210.941 413.203,-204.47 410.999,-211.114"/>
</g>
<!-- Node6 -->
<g id="node11" class="node"><title>Node6</title>
<a xlink:href="inputmanager_8cpp_source.xhtml" target="_top" xlink:title="/home/sqeaky/Code/Mezzanine\l/Mezzanine/src/inputmanager.cpp">
<polygon fill="none" stroke="black" points="535.5,-141 535.5,-173 696.5,-173 696.5,-141 535.5,-141"/>
<text text-anchor="start" x="543.5" y="-160" font-family="FreeSans" font-size="10.00">/home/sqeaky/Code/Mezzanine</text>
<text text-anchor="middle" x="616" y="-148" font-family="FreeSans" font-size="10.00">/Mezzanine/src/inputmanager.cpp</text>
</a>
</g>
<!-- Node2&#45;&gt;Node6 -->
<g id="edge10" class="edge"><title>Node2&#45;&gt;Node6</title>
<path fill="none" stroke="midnightblue" d="M512.707,-206.524C534.923,-195.872 561.689,-183.039 582.408,-173.106"/>
<polygon fill="midnightblue" stroke="midnightblue" points="510.999,-203.461 503.495,-210.941 514.026,-209.773 510.999,-203.461"/>
</g>
<!-- Node7 -->
<g id="node13" class="node"><title>Node7</title>
<a xlink:href="controller_8cpp_source.xhtml" target="_top" xlink:title="/home/sqeaky/Code/Mezzanine\l/Mezzanine/src/Input/controller.cpp">
<polygon fill="none" stroke="black" points="351.5,-141 351.5,-173 518.5,-173 518.5,-141 351.5,-141"/>
<text text-anchor="start" x="359.5" y="-160" font-family="FreeSans" font-size="10.00">/home/sqeaky/Code/Mezzanine</text>
<text text-anchor="middle" x="435" y="-148" font-family="FreeSans" font-size="10.00">/Mezzanine/src/Input/controller.cpp</text>
</a>
</g>
<!-- Node2&#45;&gt;Node7 -->
<g id="edge12" class="edge"><title>Node2&#45;&gt;Node7</title>
<path fill="none" stroke="midnightblue" d="M457.352,-201.704C452.59,-192.179 447.307,-181.614 443.074,-173.147"/>
<polygon fill="midnightblue" stroke="midnightblue" points="454.28,-203.386 461.882,-210.765 460.541,-200.255 454.28,-203.386"/>
</g>
<!-- Node4 -->
<g id="node7" class="node"><title>Node4</title>
<a xlink:href="mezzanine_8h.xhtml" target="_top" xlink:title="A single file that includes all of the Mezzanine engine.">
<polygon fill="none" stroke="black" points="183.5,-71 183.5,-103 334.5,-103 334.5,-71 183.5,-71"/>
<text text-anchor="start" x="191.5" y="-90" font-family="FreeSans" font-size="10.00">/home/sqeaky/Code/Mezzanine</text>
<text text-anchor="middle" x="259" y="-78" font-family="FreeSans" font-size="10.00">/Mezzanine/src/mezzanine.h</text>
</a>
</g>
<!-- Node3&#45;&gt;Node4 -->
<g id="edge6" class="edge"><title>Node3&#45;&gt;Node4</title>
<path fill="none" stroke="midnightblue" d="M259,-130.508C259,-121.303 259,-111.262 259,-103.147"/>
<polygon fill="midnightblue" stroke="midnightblue" points="255.5,-130.765 259,-140.765 262.5,-130.765 255.5,-130.765"/>
</g>
<!-- Node5 -->
<g id="node9" class="node"><title>Node5</title>
<a xlink:href="entresol_8cpp_source.xhtml" target="_top" xlink:title="/home/sqeaky/Code/Mezzanine\l/Mezzanine/src/entresol.cpp">
<polygon fill="none" stroke="black" points="183.5,-1 183.5,-33 334.5,-33 334.5,-1 183.5,-1"/>
<text text-anchor="start" x="191.5" y="-20" font-family="FreeSans" font-size="10.00">/home/sqeaky/Code/Mezzanine</text>
<text text-anchor="middle" x="259" y="-8" font-family="FreeSans" font-size="10.00">/Mezzanine/src/entresol.cpp</text>
</a>
</g>
<!-- Node4&#45;&gt;Node5 -->
<g id="edge8" class="edge"><title>Node4&#45;&gt;Node5</title>
<path fill="none" stroke="midnightblue" d="M259,-60.5079C259,-51.3027 259,-41.2615 259,-33.1473"/>
<polygon fill="midnightblue" stroke="midnightblue" points="255.5,-60.7646 259,-70.7646 262.5,-60.7647 255.5,-60.7646"/>
</g>
<!-- Node8&#45;&gt;Node3 -->
<g id="edge18" class="edge"><title>Node8&#45;&gt;Node3</title>
<path fill="none" stroke="midnightblue" d="M259,-200.508C259,-191.303 259,-181.262 259,-173.147"/>
<polygon fill="midnightblue" stroke="midnightblue" points="255.5,-200.765 259,-210.765 262.5,-200.765 255.5,-200.765"/>
</g>
<!-- Node8&#45;&gt;Node6 -->
<g id="edge20" class="edge"><title>Node8&#45;&gt;Node6</title>
<path fill="none" stroke="midnightblue" d="M346.734,-209.797C404.413,-198.488 479.319,-183.8 535.478,-172.789"/>
<polygon fill="midnightblue" stroke="midnightblue" points="346.044,-206.366 336.904,-211.725 347.391,-213.235 346.044,-206.366"/>
</g>
<!-- Node9 -->
<g id="node20" class="node"><title>Node9</title>
<a xlink:href="keyboard_8cpp_source.xhtml" target="_top" xlink:title="/home/sqeaky/Code/Mezzanine\l/Mezzanine/src/Input/keyboard.cpp">
<polygon fill="none" stroke="black" points="0,-141 0,-173 166,-173 166,-141 0,-141"/>
<text text-anchor="start" x="8" y="-160" font-family="FreeSans" font-size="10.00">/home/sqeaky/Code/Mezzanine</text>
<text text-anchor="middle" x="83" y="-148" font-family="FreeSans" font-size="10.00">/Mezzanine/src/Input/keyboard.cpp</text>
</a>
</g>
<!-- Node8&#45;&gt;Node9 -->
<g id="edge22" class="edge"><title>Node8&#45;&gt;Node9</title>
<path fill="none" stroke="midnightblue" d="M209.303,-207.234C182.181,-196.447 149.028,-183.261 123.494,-173.106"/>
<polygon fill="midnightblue" stroke="midnightblue" points="208.036,-210.497 218.622,-210.941 210.624,-203.993 208.036,-210.497"/>
</g>
<!-- Node10&#45;&gt;Node3 -->
<g id="edge26" class="edge"><title>Node10&#45;&gt;Node3</title>
<path fill="none" stroke="midnightblue" d="M1382.94,-224.652C1155.83,-218.183 543.959,-198.917 343,-174 340.342,-173.67 337.643,-173.303 334.921,-172.905"/>
<polygon fill="midnightblue" stroke="midnightblue" points="1383.05,-228.156 1393.14,-224.941 1383.24,-221.159 1383.05,-228.156"/>
</g>
<!-- Node10&#45;&gt;Node6 -->
<g id="edge28" class="edge"><title>Node10&#45;&gt;Node6</title>
<path fill="none" stroke="midnightblue" d="M1382.98,-224.383C1241.19,-219.319 949.726,-205.746 705,-174 702.348,-173.656 699.656,-173.283 696.94,-172.886"/>
<polygon fill="midnightblue" stroke="midnightblue" points="1383.22,-227.893 1393.34,-224.747 1383.47,-220.898 1383.22,-227.893"/>
</g>
<!-- Node11 -->
<g id="node26" class="node"><title>Node11</title>
<a xlink:href="rayquerytool_8cpp_source.xhtml" target="_top" xlink:title="/home/sqeaky/Code/Mezzanine\l/Mezzanine/src/rayquerytool.cpp">
<polygon fill="none" stroke="black" points="882,-141 882,-173 1036,-173 1036,-141 882,-141"/>
<text text-anchor="start" x="890" y="-160" font-family="FreeSans" font-size="10.00">/home/sqeaky/Code/Mezzanine</text>
<text text-anchor="middle" x="959" y="-148" font-family="FreeSans" font-size="10.00">/Mezzanine/src/rayquerytool.cpp</text>
</a>
</g>
<!-- Node10&#45;&gt;Node11 -->
<g id="edge30" class="edge"><title>Node10&#45;&gt;Node11</title>
<path fill="none" stroke="midnightblue" d="M1383.37,-218.097C1297.55,-208.752 1161.77,-192.815 1045,-174 1042.15,-173.54 1039.24,-173.055 1036.31,-172.55"/>
<polygon fill="midnightblue" stroke="midnightblue" points="1383.01,-221.578 1393.33,-219.176 1383.76,-214.619 1383.01,-221.578"/>
</g>
<!-- Node12 -->
<g id="node28" class="node"><title>Node12</title>
<a xlink:href="uimanager_8cpp_source.xhtml" target="_top" xlink:title="/home/sqeaky/Code/Mezzanine\l/Mezzanine/src/uimanager.cpp">
<polygon fill="none" stroke="black" points="1053.5,-141 1053.5,-173 1204.5,-173 1204.5,-141 1053.5,-141"/>
<text text-anchor="start" x="1061.5" y="-160" font-family="FreeSans" font-size="10.00">/home/sqeaky/Code/Mezzanine</text>
<text text-anchor="middle" x="1129" y="-148" font-family="FreeSans" font-size="10.00">/Mezzanine/src/uimanager.cpp</text>
</a>
</g>
<!-- Node10&#45;&gt;Node12 -->
<g id="edge32" class="edge"><title>Node10&#45;&gt;Node12</title>
<path fill="none" stroke="midnightblue" d="M1383.05,-209.304C1328.09,-197.989 1257.47,-183.451 1204.65,-172.574"/>
<polygon fill="midnightblue" stroke="midnightblue" points="1382.62,-212.789 1393.12,-211.378 1384.03,-205.933 1382.62,-212.789"/>
</g>
<!-- Node13 -->
<g id="node30" class="node"><title>Node13</title>
<a xlink:href="mouse_8cpp_source.xhtml" target="_top" xlink:title="/home/sqeaky/Code/Mezzanine\l/Mezzanine/src/Input/mouse.cpp">
<polygon fill="none" stroke="black" points="1221.5,-141 1221.5,-173 1376.5,-173 1376.5,-141 1221.5,-141"/>
<text text-anchor="start" x="1229.5" y="-160" font-family="FreeSans" font-size="10.00">/home/sqeaky/Code/Mezzanine</text>
<text text-anchor="middle" x="1299" y="-148" font-family="FreeSans" font-size="10.00">/Mezzanine/src/Input/mouse.cpp</text>
</a>
</g>
<!-- Node10&#45;&gt;Node13 -->
<g id="edge34" class="edge"><title>Node10&#45;&gt;Node13</title>
<path fill="none" stroke="midnightblue" d="M1420.65,-207.093C1394.52,-196.332 1362.67,-183.217 1338.11,-173.106"/>
<polygon fill="midnightblue" stroke="midnightblue" points="1419.42,-210.369 1430,-210.941 1422.08,-203.897 1419.42,-210.369"/>
</g>
<!-- Node14 -->
<g id="node32" class="node"><title>Node14</title>
<a xlink:href="cellgrid_8cpp_source.xhtml" target="_top" xlink:title="/home/sqeaky/Code/Mezzanine\l/Mezzanine/src/UI/cellgrid.cpp">
<polygon fill="none" stroke="black" points="1393.5,-141 1393.5,-173 1544.5,-173 1544.5,-141 1393.5,-141"/>
<text text-anchor="start" x="1401.5" y="-160" font-family="FreeSans" font-size="10.00">/home/sqeaky/Code/Mezzanine</text>
<text text-anchor="middle" x="1469" y="-148" font-family="FreeSans" font-size="10.00">/Mezzanine/src/UI/cellgrid.cpp</text>
</a>
</g>
<!-- Node10&#45;&gt;Node14 -->
<g id="edge36" class="edge"><title>Node10&#45;&gt;Node14</title>
<path fill="none" stroke="midnightblue" d="M1469,-200.508C1469,-191.303 1469,-181.262 1469,-173.147"/>
<polygon fill="midnightblue" stroke="midnightblue" points="1465.5,-200.765 1469,-210.765 1472.5,-200.765 1465.5,-200.765"/>
</g>
<!-- Node15 -->
<g id="node34" class="node"><title>Node15</title>
<a xlink:href="checkbox_8cpp_source.xhtml" target="_top" xlink:title="/home/sqeaky/Code/Mezzanine\l/Mezzanine/src/UI/checkbox.cpp">
<polygon fill="none" stroke="black" points="1562,-141 1562,-173 1718,-173 1718,-141 1562,-141"/>
<text text-anchor="start" x="1570" y="-160" font-family="FreeSans" font-size="10.00">/home/sqeaky/Code/Mezzanine</text>
<text text-anchor="middle" x="1640" y="-148" font-family="FreeSans" font-size="10.00">/Mezzanine/src/UI/checkbox.cpp</text>
</a>
</g>
<!-- Node10&#45;&gt;Node15 -->
<g id="edge38" class="edge"><title>Node10&#45;&gt;Node15</title>
<path fill="none" stroke="midnightblue" d="M1517.63,-207.093C1543.92,-196.332 1575.96,-183.217 1600.66,-173.106"/>
<polygon fill="midnightblue" stroke="midnightblue" points="1516.16,-203.913 1508.23,-210.941 1518.81,-210.391 1516.16,-203.913"/>
</g>
<!-- Node16 -->
<g id="node36" class="node"><title>Node16</title>
<a xlink:href="dropdownlist_8cpp_source.xhtml" target="_top" xlink:title="/home/sqeaky/Code/Mezzanine\l/Mezzanine/src/UI/dropdownlist.cpp">
<polygon fill="none" stroke="black" points="1736,-141 1736,-173 1904,-173 1904,-141 1736,-141"/>
<text text-anchor="start" x="1744" y="-160" font-family="FreeSans" font-size="10.00">/home/sqeaky/Code/Mezzanine</text>
<text text-anchor="middle" x="1820" y="-148" font-family="FreeSans" font-size="10.00">/Mezzanine/src/UI/dropdownlist.cpp</text>
</a>
</g>
<!-- Node10&#45;&gt;Node16 -->
<g id="edge40" class="edge"><title>Node10&#45;&gt;Node16</title>
<path fill="none" stroke="midnightblue" d="M1554.5,-209.702C1621.9,-196.204 1688.34,-183.022 1738.78,-173.041"/>
<polygon fill="midnightblue" stroke="midnightblue" points="1553.67,-206.299 1544.55,-211.696 1555.05,-213.163 1553.67,-206.299"/>
</g>
<!-- Node17 -->
<g id="node38" class="node"><title>Node17</title>
<a xlink:href="listbox_8cpp_source.xhtml" target="_top" xlink:title="/home/sqeaky/Code/Mezzanine\l/Mezzanine/src/UI/listbox.cpp">
<polygon fill="none" stroke="black" points="1921.5,-141 1921.5,-173 2072.5,-173 2072.5,-141 1921.5,-141"/>
<text text-anchor="start" x="1929.5" y="-160" font-family="FreeSans" font-size="10.00">/home/sqeaky/Code/Mezzanine</text>
<text text-anchor="middle" x="1997" y="-148" font-family="FreeSans" font-size="10.00">/Mezzanine/src/UI/listbox.cpp</text>
</a>
</g>
<!-- Node10&#45;&gt;Node17 -->
<g id="edge42" class="edge"><title>Node10&#45;&gt;Node17</title>
<path fill="none" stroke="midnightblue" d="M1555.07,-209.768C1713.77,-186.497 1757.26,-197.486 1913,-174 1915.65,-173.601 1918.34,-173.173 1921.05,-172.724"/>
<polygon fill="midnightblue" stroke="midnightblue" points="1554.32,-206.341 1544.95,-211.276 1555.35,-213.265 1554.32,-206.341"/>
</g>
<!-- Node18 -->
<g id="node40" class="node"><title>Node18</title>
<a xlink:href="menu_8cpp_source.xhtml" target="_top" xlink:title="/home/sqeaky/Code/Mezzanine\l/Mezzanine/src/UI/menu.cpp">
<polygon fill="none" stroke="black" points="2089.5,-141 2089.5,-173 2240.5,-173 2240.5,-141 2089.5,-141"/>
<text text-anchor="start" x="2097.5" y="-160" font-family="FreeSans" font-size="10.00">/home/sqeaky/Code/Mezzanine</text>
<text text-anchor="middle" x="2165" y="-148" font-family="FreeSans" font-size="10.00">/Mezzanine/src/UI/menu.cpp</text>
</a>
</g>
<!-- Node10&#45;&gt;Node18 -->
<g id="edge44" class="edge"><title>Node10&#45;&gt;Node18</title>
<path fill="none" stroke="midnightblue" d="M1555.07,-209.819C1787.89,-179.351 1851.19,-204.952 2081,-174 2083.65,-173.643 2086.35,-173.251 2089.07,-172.833"/>
<polygon fill="midnightblue" stroke="midnightblue" points="1554.38,-206.38 1544.93,-211.167 1555.3,-213.319 1554.38,-206.38"/>
</g>
<!-- Node19 -->
<g id="node42" class="node"><title>Node19</title>
<a xlink:href="rectangle_8cpp_source.xhtml" target="_top" xlink:title="/home/sqeaky/Code/Mezzanine\l/Mezzanine/src/UI/rectangle.cpp">
<polygon fill="none" stroke="black" points="2257.5,-141 2257.5,-173 2412.5,-173 2412.5,-141 2257.5,-141"/>
<text text-anchor="start" x="2265.5" y="-160" font-family="FreeSans" font-size="10.00">/home/sqeaky/Code/Mezzanine</text>
<text text-anchor="middle" x="2335" y="-148" font-family="FreeSans" font-size="10.00">/Mezzanine/src/UI/rectangle.cpp</text>
</a>
</g>
<!-- Node10&#45;&gt;Node19 -->
<g id="edge46" class="edge"><title>Node10&#45;&gt;Node19</title>
<path fill="none" stroke="midnightblue" d="M1555.01,-209.852C1862.08,-172.044 1944.91,-211.722 2249,-174 2251.72,-173.663 2254.48,-173.289 2257.27,-172.885"/>
<polygon fill="midnightblue" stroke="midnightblue" points="1554.41,-206.398 1544.92,-211.111 1555.28,-213.345 1554.41,-206.398"/>
</g>
<!-- Node20 -->
<g id="node44" class="node"><title>Node20</title>
<a xlink:href="scrollbar_8cpp_source.xhtml" target="_top" xlink:title="/home/sqeaky/Code/Mezzanine\l/Mezzanine/src/UI/scrollbar.cpp">
<polygon fill="none" stroke="black" points="2429.5,-141 2429.5,-173 2580.5,-173 2580.5,-141 2429.5,-141"/>
<text text-anchor="start" x="2437.5" y="-160" font-family="FreeSans" font-size="10.00">/home/sqeaky/Code/Mezzanine</text>
<text text-anchor="middle" x="2505" y="-148" font-family="FreeSans" font-size="10.00">/Mezzanine/src/UI/scrollbar.cpp</text>
</a>
</g>
<!-- Node10&#45;&gt;Node20 -->
<g id="edge48" class="edge"><title>Node10&#45;&gt;Node20</title>
<path fill="none" stroke="midnightblue" d="M1554.89,-209.88C1938.06,-164.525 2040.97,-220.043 2421,-174 2423.66,-173.678 2426.36,-173.317 2429.08,-172.924"/>
<polygon fill="midnightblue" stroke="midnightblue" points="1554.43,-206.41 1544.92,-211.076 1555.26,-213.36 1554.43,-206.41"/>
</g>
<!-- Node21 -->
<g id="node46" class="node"><title>Node21</title>
<a xlink:href="spinner_8cpp_source.xhtml" target="_top" xlink:title="/home/sqeaky/Code/Mezzanine\l/Mezzanine/src/UI/spinner.cpp">
<polygon fill="none" stroke="black" points="2597.5,-141 2597.5,-173 2748.5,-173 2748.5,-141 2597.5,-141"/>
<text text-anchor="start" x="2605.5" y="-160" font-family="FreeSans" font-size="10.00">/home/sqeaky/Code/Mezzanine</text>
<text text-anchor="middle" x="2673" y="-148" font-family="FreeSans" font-size="10.00">/Mezzanine/src/UI/spinner.cpp</text>
</a>
</g>
<!-- Node10&#45;&gt;Node21 -->
<g id="edge50" class="edge"><title>Node10&#45;&gt;Node21</title>
<path fill="none" stroke="midnightblue" d="M1555.09,-209.866C2012.35,-157.167 2134.79,-227.483 2589,-174 2591.66,-173.687 2594.36,-173.334 2597.08,-172.948"/>
<polygon fill="midnightblue" stroke="midnightblue" points="1554.44,-206.418 1544.92,-211.052 1555.25,-213.371 1554.44,-206.418"/>
</g>
<!-- Node22 -->
<g id="node48" class="node"><title>Node22</title>
<a xlink:href="tabset_8cpp_source.xhtml" target="_top" xlink:title="/home/sqeaky/Code/Mezzanine\l/Mezzanine/src/UI/tabset.cpp">
<polygon fill="none" stroke="black" points="2765.5,-141 2765.5,-173 2916.5,-173 2916.5,-141 2765.5,-141"/>
<text text-anchor="start" x="2773.5" y="-160" font-family="FreeSans" font-size="10.00">/home/sqeaky/Code/Mezzanine</text>
<text text-anchor="middle" x="2841" y="-148" font-family="FreeSans" font-size="10.00">/Mezzanine/src/UI/tabset.cpp</text>
</a>
</g>
<!-- Node10&#45;&gt;Node22 -->
<g id="edge52" class="edge"><title>Node10&#45;&gt;Node22</title>
<path fill="none" stroke="midnightblue" d="M1555.15,-209.866C2086.62,-149.777 2228.55,-234.928 2757,-174 2759.66,-173.693 2762.36,-173.346 2765.09,-172.964"/>
<polygon fill="midnightblue" stroke="midnightblue" points="1554.45,-206.423 1544.91,-211.036 1555.25,-213.378 1554.45,-206.423"/>
</g>
<!-- Node23 -->
<g id="node50" class="node"><title>Node23</title>
<a xlink:href="widget_8cpp_source.xhtml" target="_top" xlink:title="/home/sqeaky/Code/Mezzanine\l/Mezzanine/src/UI/widget.cpp">
<polygon fill="none" stroke="black" points="713.5,-141 713.5,-173 864.5,-173 864.5,-141 713.5,-141"/>
<text text-anchor="start" x="721.5" y="-160" font-family="FreeSans" font-size="10.00">/home/sqeaky/Code/Mezzanine</text>
<text text-anchor="middle" x="789" y="-148" font-family="FreeSans" font-size="10.00">/Mezzanine/src/UI/widget.cpp</text>
</a>
</g>
<!-- Node10&#45;&gt;Node23 -->
<g id="edge54" class="edge"><title>Node10&#45;&gt;Node23</title>
<path fill="none" stroke="midnightblue" d="M1383.18,-222.368C1267.05,-215.418 1053.62,-200.225 873,-174 870.35,-173.615 867.657,-173.2 864.94,-172.762"/>
<polygon fill="midnightblue" stroke="midnightblue" points="1383.23,-225.877 1393.42,-222.975 1383.65,-218.89 1383.23,-225.877"/>
</g>
</g>
</svg>
        <g id="navigator" transform="translate(0 0)" fill="#404254">
                <rect fill="#f2f5e9" fill-opacity="0.5" stroke="#606060" stroke-width=".5" x="0" y="0" width="60" height="60"/>
                <use id="zoomplus" xlink:href="#zoomPlus" x="17" y="9" onmousedown="handleZoom(evt,'in')"/>
                <use id="zoomminus" xlink:href="#zoomMin" x="42" y="9" onmousedown="handleZoom(evt,'out')"/>
                <use id="reset" xlink:href="#resetDef" x="30" y="36" onmousedown="handleReset()"/>
                <g id="arrowUp" xlink:href="#dirArrow" transform="translate(30 24)" onmousedown="handlePan(0,-1)">
                  <use xlink:href="#rim" fill="#404040">
                        <set attributeName="fill" to="#808080" begin="arrowUp.mouseover" end="arrowUp.mouseout"/>
                  </use>
                  <path fill="none" stroke="white" stroke-width="1.5" d="M0,-3.0v7 M-2.5,-0.5L0,-3.0L2.5,-0.5"/>
                </g>
                <g id="arrowRight" xlink:href="#dirArrow" transform="rotate(90) translate(36 -43)" onmousedown="handlePan(1,0)">
                  <use xlink:href="#rim" fill="#404040">
                        <set attributeName="fill" to="#808080" begin="arrowRight.mouseover" end="arrowRight.mouseout"/>
                  </use>
                  <path fill="none" stroke="white" stroke-width="1.5" d="M0,-3.0v7 M-2.5,-0.5L0,-3.0L2.5,-0.5"/>
                </g>
                <g id="arrowDown" xlink:href="#dirArrow" transform="rotate(180) translate(-30 -48)" onmousedown="handlePan(0,1)">
                  <use xlink:href="#rim" fill="#404040">
                        <set attributeName="fill" to="#808080" begin="arrowDown.mouseover" end="arrowDown.mouseout"/>
                  </use>
                  <path fill="none" stroke="white" stroke-width="1.5" d="M0,-3.0v7 M-2.5,-0.5L0,-3.0L2.5,-0.5"/>
                </g>
                <g id="arrowLeft" xlink:href="#dirArrow" transform="rotate(270) translate(-36 17)" onmousedown="handlePan(-1,0)">
                  <use xlink:href="#rim" fill="#404040">
                        <set attributeName="fill" to="#808080" begin="arrowLeft.mouseover" end="arrowLeft.mouseout"/>
                  </use>
                  <path fill="none" stroke="white" stroke-width="1.5" d="M0,-3.0v7 M-2.5,-0.5L0,-3.0L2.5,-0.5"/>
                </g>
        </g>
        <svg viewBox="0 0 15 15" width="100%" height="30px" preserveAspectRatio="xMaxYMin meet">
         <g id="arrow_out" transform="scale(0.3 0.3)">
          <a xlink:href="device_8h__dep__incl_org.svg" target="_base">
           <rect id="button" ry="5" rx="5" y="6" x="6" height="38" width="38"
                fill="#f2f5e9" fill-opacity="0.5" stroke="#606060" stroke-width="1.0"/>
           <path id="arrow"
             d="M 11.500037,31.436501 C 11.940474,20.09759 22.043105,11.32322 32.158766,21.979434 L 37.068811,17.246167 C 37.068811,17.246167 37.088388,32 37.088388,32 L 22.160133,31.978069 C 22.160133,31.978069 26.997745,27.140456 26.997745,27.140456 C 18.528582,18.264221 13.291696,25.230495 11.500037,31.436501 z"
             style="fill:#404040;"/>
          </a>
         </g>
        </svg>
</svg>
