<?xml version="1.0" encoding="UTF-8" standalone="no"?>
<!DOCTYPE svg PUBLIC "-//W3C//DTD SVG 1.1//EN"
 "http://www.w3.org/Graphics/SVG/1.1/DTD/svg11.dtd">
<!-- Generated by graphviz version 2.26.3 (20100126.1600)
 -->
<!-- Title: /home/sqeaky/Code/Mezzanine/Mezzanine/src/Input/device.h Pages: 1 -->
<!--zoomable 392 -->
<svg id="main" version="1.1" xmlns="http://www.w3.org/2000/svg" xmlns:xlink="http://www.w3.org/1999/xlink" xml:space="preserve" onload="init(evt)">
<style type="text/css"><![CDATA[
.edge:hover path { stroke: red; }
.edge:hover polygon { stroke: red; fill: red; }
]]></style>
<script type="text/javascript"><![CDATA[
var edges = document.getElementsByTagName('g');
if (edges && edges.length) {
  for (var i=0;i<edges.length;i++) {
    if (edges[i].id.substr(0,4)=='edge') {
      edges[i].setAttribute('class','edge');
    }
  }
}
]]></script>
        <defs>
                <circle id="rim" cx="0" cy="0" r="7"/>
                <circle id="rim2" cx="0" cy="0" r="3.5"/>
                <g id="zoomPlus">
                        <use xlink:href="#rim" fill="#404040">
                                <set attributeName="fill" to="#808080" begin="zoomplus.mouseover" end="zoomplus.mouseout"/>
                        </use>
                        <path d="M-4,0h8M0,-4v8" fill="none" stroke="white" stroke-width="1.5" pointer-events="none"/>
                </g>
                <g id="zoomMin">
                        <use xlink:href="#rim" fill="#404040">
                                <set attributeName="fill" to="#808080" begin="zoomminus.mouseover" end="zoomminus.mouseout"/>
                        </use>
                        <path d="M-4,0h8" fill="none" stroke="white" stroke-width="1.5" pointer-events="none"/>
                </g>
                <g id="dirArrow">
                        <path fill="none" stroke="white" stroke-width="1.5" d="M0,-3.0v7 M-2.5,-0.5L0,-3.0L2.5,-0.5"/>
                </g>
               <g id="resetDef">
                       <use xlink:href="#rim2" fill="#404040">
                               <set attributeName="fill" to="#808080" begin="reset.mouseover" end="reset.mouseout"/>
                       </use>
               </g>
        </defs>

<script type="text/javascript">
var viewWidth = 1754;
var viewHeight = 392;
var sectionId = 'dynsection-1';
</script>
<script xlink:href="svgpan.js"/>
<svg id="graph" class="graph">
<g id="viewport">
<title>/home/sqeaky/Code/Mezzanine/Mezzanine/src/Input/device.h</title>
<polygon fill="white" stroke="white" points="-4,5 -4,-388 1751,-388 1751,5 -4,5"/>
<!-- Node1 -->
<g id="node1" class="node"><title>Node1</title>
<polygon fill="#bfbfbf" stroke="black" points="462.5,-351 462.5,-383 613.5,-383 613.5,-351 462.5,-351"/>
<text text-anchor="start" x="470.5" y="-370" font-family="FreeSans" font-size="10.00">/home/sqeaky/Code/Mezzanine</text>
<text text-anchor="middle" x="538" y="-358" font-family="FreeSans" font-size="10.00">/Mezzanine/src/Input/device.h</text>
</g>
<!-- Node2 -->
<g id="node3" class="node"><title>Node2</title>
<a xlink:href="input_8h_source.html" target="_top" xlink:title="/home/sqeaky/Code/Mezzanine\l/Mezzanine/src/Input/input.h">
<polygon fill="white" stroke="black" points="183.5,-141 183.5,-173 334.5,-173 334.5,-141 183.5,-141"/>
<text text-anchor="start" x="191.5" y="-160" font-family="FreeSans" font-size="10.00">/home/sqeaky/Code/Mezzanine</text>
<text text-anchor="middle" x="259" y="-148" font-family="FreeSans" font-size="10.00">/Mezzanine/src/Input/input.h</text>
</a>
</g>
<!-- Node1&#45;&gt;Node2 -->
<g id="edge2" class="edge"><title>Node1&#45;&gt;Node2</title>
<path fill="none" stroke="midnightblue" d="M453.796,-348.052C395.847,-330.645 321.712,-298.951 278,-244 261.735,-223.553 258.664,-192.187 258.456,-173.23"/>
<polygon fill="midnightblue" stroke="midnightblue" points="453.102,-351.496 463.682,-350.932 455.06,-344.775 453.102,-351.496"/>
</g>
<!-- Node5 -->
<g id="node9" class="node"><title>Node5</title>
<a xlink:href="buttondevice_8h_source.html" target="_top" xlink:title="/home/sqeaky/Code/Mezzanine\l/Mezzanine/src/Input/buttondevice.h">
<polygon fill="white" stroke="black" points="452.5,-281 452.5,-313 623.5,-313 623.5,-281 452.5,-281"/>
<text text-anchor="start" x="460.5" y="-300" font-family="FreeSans" font-size="10.00">/home/sqeaky/Code/Mezzanine</text>
<text text-anchor="middle" x="538" y="-288" font-family="FreeSans" font-size="10.00">/Mezzanine/src/Input/buttondevice.h</text>
</a>
</g>
<!-- Node1&#45;&gt;Node5 -->
<g id="edge8" class="edge"><title>Node1&#45;&gt;Node5</title>
<path fill="none" stroke="midnightblue" d="M538,-340.508C538,-331.303 538,-321.262 538,-313.147"/>
<polygon fill="midnightblue" stroke="midnightblue" points="534.5,-340.765 538,-350.765 541.5,-340.765 534.5,-340.765"/>
</g>
<!-- Node19 -->
<g id="node42" class="node"><title>Node19</title>
<a xlink:href="device_8cpp_source.html" target="_top" xlink:title="/home/sqeaky/Code/Mezzanine\l/Mezzanine/src/Input/device.cpp">
<polygon fill="white" stroke="black" points="640.5,-281 640.5,-313 795.5,-313 795.5,-281 640.5,-281"/>
<text text-anchor="start" x="648.5" y="-300" font-family="FreeSans" font-size="10.00">/home/sqeaky/Code/Mezzanine</text>
<text text-anchor="middle" x="718" y="-288" font-family="FreeSans" font-size="10.00">/Mezzanine/src/Input/device.cpp</text>
</a>
</g>
<!-- Node1&#45;&gt;Node19 -->
<g id="edge46" class="edge"><title>Node1&#45;&gt;Node19</title>
<path fill="none" stroke="midnightblue" d="M588.827,-347.234C616.565,-336.447 650.472,-323.261 676.585,-313.106"/>
<polygon fill="midnightblue" stroke="midnightblue" points="587.347,-344.054 579.296,-350.941 589.884,-350.578 587.347,-344.054"/>
</g>
<!-- Node3 -->
<g id="node5" class="node"><title>Node3</title>
<a xlink:href="mezzanine_8h.html" target="_top" xlink:title="A single file that includes all of the Mezzanine engine. ">
<polygon fill="white" stroke="black" points="183.5,-71 183.5,-103 334.5,-103 334.5,-71 183.5,-71"/>
<text text-anchor="start" x="191.5" y="-90" font-family="FreeSans" font-size="10.00">/home/sqeaky/Code/Mezzanine</text>
<text text-anchor="middle" x="259" y="-78" font-family="FreeSans" font-size="10.00">/Mezzanine/src/mezzanine.h</text>
</a>
</g>
<!-- Node2&#45;&gt;Node3 -->
<g id="edge4" class="edge"><title>Node2&#45;&gt;Node3</title>
<path fill="none" stroke="midnightblue" d="M259,-130.508C259,-121.303 259,-111.262 259,-103.147"/>
<polygon fill="midnightblue" stroke="midnightblue" points="255.5,-130.765 259,-140.765 262.5,-130.765 255.5,-130.765"/>
</g>
<!-- Node4 -->
<g id="node7" class="node"><title>Node4</title>
<a xlink:href="entresol_8cpp_source.html" target="_top" xlink:title="/home/sqeaky/Code/Mezzanine\l/Mezzanine/src/entresol.cpp">
<polygon fill="white" stroke="black" points="183.5,-1 183.5,-33 334.5,-33 334.5,-1 183.5,-1"/>
<text text-anchor="start" x="191.5" y="-20" font-family="FreeSans" font-size="10.00">/home/sqeaky/Code/Mezzanine</text>
<text text-anchor="middle" x="259" y="-8" font-family="FreeSans" font-size="10.00">/Mezzanine/src/entresol.cpp</text>
</a>
</g>
<!-- Node3&#45;&gt;Node4 -->
<g id="edge6" class="edge"><title>Node3&#45;&gt;Node4</title>
<path fill="none" stroke="midnightblue" d="M259,-60.5079C259,-51.3027 259,-41.2615 259,-33.1473"/>
<polygon fill="midnightblue" stroke="midnightblue" points="255.5,-60.7646 259,-70.7646 262.5,-60.7647 255.5,-60.7646"/>
</g>
<!-- Node6 -->
<g id="node11" class="node"><title>Node6</title>
<a xlink:href="mouse_8h_source.html" target="_top" xlink:title="/home/sqeaky/Code/Mezzanine\l/Mezzanine/src/Input/mouse.h">
<polygon fill="white" stroke="black" points="825.5,-211 825.5,-243 976.5,-243 976.5,-211 825.5,-211"/>
<text text-anchor="start" x="833.5" y="-230" font-family="FreeSans" font-size="10.00">/home/sqeaky/Code/Mezzanine</text>
<text text-anchor="middle" x="901" y="-218" font-family="FreeSans" font-size="10.00">/Mezzanine/src/Input/mouse.h</text>
</a>
</g>
<!-- Node5&#45;&gt;Node6 -->
<g id="edge10" class="edge"><title>Node5&#45;&gt;Node6</title>
<path fill="none" stroke="midnightblue" d="M631.171,-279.033C691.394,-267.42 768.775,-252.498 825.217,-241.614"/>
<polygon fill="midnightblue" stroke="midnightblue" points="630.436,-275.61 621.28,-280.941 631.761,-282.484 630.436,-275.61"/>
</g>
<!-- Node14 -->
<g id="node28" class="node"><title>Node14</title>
<a xlink:href="buttondevice_8cpp_source.html" target="_top" xlink:title="/home/sqeaky/Code/Mezzanine\l/Mezzanine/src/Input/buttondevice.cpp">
<polygon fill="white" stroke="black" points="994,-211 994,-243 1176,-243 1176,-211 994,-211"/>
<text text-anchor="start" x="1002" y="-230" font-family="FreeSans" font-size="10.00">/home/sqeaky/Code/Mezzanine</text>
<text text-anchor="middle" x="1085" y="-218" font-family="FreeSans" font-size="10.00">/Mezzanine/src/Input/buttondevice.cpp</text>
</a>
</g>
<!-- Node5&#45;&gt;Node14 -->
<g id="edge28" class="edge"><title>Node5&#45;&gt;Node14</title>
<path fill="none" stroke="midnightblue" d="M633.487,-279.851C789.867,-258.237 831.937,-264.792 985,-244 987.879,-243.609 990.803,-243.198 993.753,-242.77"/>
<polygon fill="midnightblue" stroke="midnightblue" points="632.931,-276.394 623.512,-281.246 633.9,-283.327 632.931,-276.394"/>
</g>
<!-- Node15 -->
<g id="node30" class="node"><title>Node15</title>
<a xlink:href="controller_8h_source.html" target="_top" xlink:title="/home/sqeaky/Code/Mezzanine\l/Mezzanine/src/Input/controller.h">
<polygon fill="white" stroke="black" points="287,-211 287,-243 443,-243 443,-211 287,-211"/>
<text text-anchor="start" x="295" y="-230" font-family="FreeSans" font-size="10.00">/home/sqeaky/Code/Mezzanine</text>
<text text-anchor="middle" x="365" y="-218" font-family="FreeSans" font-size="10.00">/Mezzanine/src/Input/controller.h</text>
</a>
</g>
<!-- Node5&#45;&gt;Node15 -->
<g id="edge30" class="edge"><title>Node5&#45;&gt;Node15</title>
<path fill="none" stroke="midnightblue" d="M488.8,-277.093C462.206,-266.332 429.793,-253.217 404.804,-243.106"/>
<polygon fill="midnightblue" stroke="midnightblue" points="487.728,-280.434 498.31,-280.941 490.353,-273.945 487.728,-280.434"/>
</g>
<!-- Node17 -->
<g id="node36" class="node"><title>Node17</title>
<a xlink:href="keyboard_8h_source.html" target="_top" xlink:title="/home/sqeaky/Code/Mezzanine\l/Mezzanine/src/Input/keyboard.h">
<polygon fill="white" stroke="black" points="460.5,-211 460.5,-243 615.5,-243 615.5,-211 460.5,-211"/>
<text text-anchor="start" x="468.5" y="-230" font-family="FreeSans" font-size="10.00">/home/sqeaky/Code/Mezzanine</text>
<text text-anchor="middle" x="538" y="-218" font-family="FreeSans" font-size="10.00">/Mezzanine/src/Input/keyboard.h</text>
</a>
</g>
<!-- Node5&#45;&gt;Node17 -->
<g id="edge38" class="edge"><title>Node5&#45;&gt;Node17</title>
<path fill="none" stroke="midnightblue" d="M538,-270.508C538,-261.303 538,-251.262 538,-243.147"/>
<polygon fill="midnightblue" stroke="midnightblue" points="534.5,-270.765 538,-280.765 541.5,-270.765 534.5,-270.765"/>
</g>
<!-- Node6&#45;&gt;Node2 -->
<g id="edge12" class="edge"><title>Node6&#45;&gt;Node2</title>
<path fill="none" stroke="midnightblue" d="M815.304,-221.666C705.479,-214.188 509.387,-198.669 343,-174 340.351,-173.607 337.659,-173.186 334.943,-172.741"/>
<polygon fill="midnightblue" stroke="midnightblue" points="815.121,-225.161 825.334,-222.343 815.592,-218.177 815.121,-225.161"/>
</g>
<!-- Node7 -->
<g id="node14" class="node"><title>Node7</title>
<a xlink:href="rayquerytool_8cpp_source.html" target="_top" xlink:title="/home/sqeaky/Code/Mezzanine\l/Mezzanine/src/rayquerytool.cpp">
<polygon fill="white" stroke="black" points="738,-141 738,-173 892,-173 892,-141 738,-141"/>
<text text-anchor="start" x="746" y="-160" font-family="FreeSans" font-size="10.00">/home/sqeaky/Code/Mezzanine</text>
<text text-anchor="middle" x="815" y="-148" font-family="FreeSans" font-size="10.00">/Mezzanine/src/rayquerytool.cpp</text>
</a>
</g>
<!-- Node6&#45;&gt;Node7 -->
<g id="edge14" class="edge"><title>Node6&#45;&gt;Node7</title>
<path fill="none" stroke="midnightblue" d="M873.176,-204.352C860.677,-194.179 846.216,-182.408 834.838,-173.147"/>
<polygon fill="midnightblue" stroke="midnightblue" points="871.089,-207.166 881.054,-210.765 875.508,-201.737 871.089,-207.166"/>
</g>
<!-- Node8 -->
<g id="node16" class="node"><title>Node8</title>
<a xlink:href="inputmanager_8cpp_source.html" target="_top" xlink:title="/home/sqeaky/Code/Mezzanine\l/Mezzanine/src/Input/inputmanager.cpp">
<polygon fill="white" stroke="black" points="351.5,-141 351.5,-173 536.5,-173 536.5,-141 351.5,-141"/>
<text text-anchor="start" x="359.5" y="-160" font-family="FreeSans" font-size="10.00">/home/sqeaky/Code/Mezzanine</text>
<text text-anchor="middle" x="444" y="-148" font-family="FreeSans" font-size="10.00">/Mezzanine/src/Input/inputmanager.cpp</text>
</a>
</g>
<!-- Node6&#45;&gt;Node8 -->
<g id="edge16" class="edge"><title>Node6&#45;&gt;Node8</title>
<path fill="none" stroke="midnightblue" d="M815.287,-214.704C743.134,-204.243 637.246,-188.629 545,-174 542.278,-173.568 539.515,-173.127 536.727,-172.678"/>
<polygon fill="midnightblue" stroke="midnightblue" points="814.84,-218.176 825.239,-216.146 815.844,-211.248 814.84,-218.176"/>
</g>
<!-- Node9 -->
<g id="node18" class="node"><title>Node9</title>
<a xlink:href="mouse_8cpp_source.html" target="_top" xlink:title="/home/sqeaky/Code/Mezzanine\l/Mezzanine/src/Input/mouse.cpp">
<polygon fill="white" stroke="black" points="909.5,-141 909.5,-173 1064.5,-173 1064.5,-141 909.5,-141"/>
<text text-anchor="start" x="917.5" y="-160" font-family="FreeSans" font-size="10.00">/home/sqeaky/Code/Mezzanine</text>
<text text-anchor="middle" x="987" y="-148" font-family="FreeSans" font-size="10.00">/Mezzanine/src/Input/mouse.cpp</text>
</a>
</g>
<!-- Node6&#45;&gt;Node9 -->
<g id="edge18" class="edge"><title>Node6&#45;&gt;Node9</title>
<path fill="none" stroke="midnightblue" d="M928.824,-204.352C941.323,-194.179 955.784,-182.408 967.162,-173.147"/>
<polygon fill="midnightblue" stroke="midnightblue" points="926.492,-201.737 920.946,-210.765 930.911,-207.166 926.492,-201.737"/>
</g>
<!-- Node10 -->
<g id="node20" class="node"><title>Node10</title>
<a xlink:href="listbox_8cpp_source.html" target="_top" xlink:title="/home/sqeaky/Code/Mezzanine\l/Mezzanine/src/UI/listbox.cpp">
<polygon fill="white" stroke="black" points="1081.5,-141 1081.5,-173 1232.5,-173 1232.5,-141 1081.5,-141"/>
<text text-anchor="start" x="1089.5" y="-160" font-family="FreeSans" font-size="10.00">/home/sqeaky/Code/Mezzanine</text>
<text text-anchor="middle" x="1157" y="-148" font-family="FreeSans" font-size="10.00">/Mezzanine/src/UI/listbox.cpp</text>
</a>
</g>
<!-- Node6&#45;&gt;Node10 -->
<g id="edge20" class="edge"><title>Node6&#45;&gt;Node10</title>
<path fill="none" stroke="midnightblue" d="M969.44,-208.286C1009.57,-197.314 1059.74,-183.594 1098.1,-173.106"/>
<polygon fill="midnightblue" stroke="midnightblue" points="968.454,-204.927 959.732,-210.941 970.301,-211.679 968.454,-204.927"/>
</g>
<!-- Node11 -->
<g id="node22" class="node"><title>Node11</title>
<a xlink:href="tabset_8cpp_source.html" target="_top" xlink:title="/home/sqeaky/Code/Mezzanine\l/Mezzanine/src/UI/tabset.cpp">
<polygon fill="white" stroke="black" points="1249.5,-141 1249.5,-173 1400.5,-173 1400.5,-141 1249.5,-141"/>
<text text-anchor="start" x="1257.5" y="-160" font-family="FreeSans" font-size="10.00">/home/sqeaky/Code/Mezzanine</text>
<text text-anchor="middle" x="1325" y="-148" font-family="FreeSans" font-size="10.00">/Mezzanine/src/UI/tabset.cpp</text>
</a>
</g>
<!-- Node6&#45;&gt;Node11 -->
<g id="edge22" class="edge"><title>Node6&#45;&gt;Node11</title>
<path fill="none" stroke="midnightblue" d="M986.641,-209.775C1099.99,-190.737 1130.96,-192.855 1241,-174 1243.79,-173.523 1246.62,-173.022 1249.48,-172.505"/>
<polygon fill="midnightblue" stroke="midnightblue" points="985.789,-206.369 976.516,-211.495 986.961,-213.271 985.789,-206.369"/>
</g>
<!-- Node12 -->
<g id="node24" class="node"><title>Node12</title>
<a xlink:href="uimanager_8cpp_source.html" target="_top" xlink:title="/home/sqeaky/Code/Mezzanine\l/Mezzanine/src/UI/uimanager.cpp">
<polygon fill="white" stroke="black" points="1418,-141 1418,-173 1578,-173 1578,-141 1418,-141"/>
<text text-anchor="start" x="1426" y="-160" font-family="FreeSans" font-size="10.00">/home/sqeaky/Code/Mezzanine</text>
<text text-anchor="middle" x="1498" y="-148" font-family="FreeSans" font-size="10.00">/Mezzanine/src/UI/uimanager.cpp</text>
</a>
</g>
<!-- Node6&#45;&gt;Node12 -->
<g id="edge24" class="edge"><title>Node6&#45;&gt;Node12</title>
<path fill="none" stroke="midnightblue" d="M987.102,-209.787C1173.99,-183.768 1224.94,-199.323 1409,-174 1411.81,-173.614 1414.66,-173.198 1417.53,-172.759"/>
<polygon fill="midnightblue" stroke="midnightblue" points="986.35,-206.359 976.938,-211.224 987.33,-213.29 986.35,-206.359"/>
</g>
<!-- Node13 -->
<g id="node26" class="node"><title>Node13</title>
<a xlink:href="widget_8cpp_source.html" target="_top" xlink:title="/home/sqeaky/Code/Mezzanine\l/Mezzanine/src/UI/widget.cpp">
<polygon fill="white" stroke="black" points="1595.5,-141 1595.5,-173 1746.5,-173 1746.5,-141 1595.5,-141"/>
<text text-anchor="start" x="1603.5" y="-160" font-family="FreeSans" font-size="10.00">/home/sqeaky/Code/Mezzanine</text>
<text text-anchor="middle" x="1671" y="-148" font-family="FreeSans" font-size="10.00">/Mezzanine/src/UI/widget.cpp</text>
</a>
</g>
<!-- Node6&#45;&gt;Node13 -->
<g id="edge26" class="edge"><title>Node6&#45;&gt;Node13</title>
<path fill="none" stroke="midnightblue" d="M986.865,-209.858C1252.53,-176.135 1324.46,-208.245 1587,-174 1589.66,-173.654 1592.35,-173.272 1595.07,-172.861"/>
<polygon fill="midnightblue" stroke="midnightblue" points="986.397,-206.389 976.926,-211.139 987.292,-213.332 986.397,-206.389"/>
</g>
<!-- Node15&#45;&gt;Node2 -->
<g id="edge32" class="edge"><title>Node15&#45;&gt;Node2</title>
<path fill="none" stroke="midnightblue" d="M332.284,-205.395C316.573,-195.02 298.06,-182.794 283.572,-173.227"/>
<polygon fill="midnightblue" stroke="midnightblue" points="330.408,-208.351 340.681,-210.941 334.266,-202.509 330.408,-208.351"/>
</g>
<!-- Node15&#45;&gt;Node8 -->
<g id="edge36" class="edge"><title>Node15&#45;&gt;Node8</title>
<path fill="none" stroke="midnightblue" d="M390.888,-204.061C402.294,-193.955 415.425,-182.32 425.777,-173.147"/>
<polygon fill="midnightblue" stroke="midnightblue" points="388.486,-201.513 383.323,-210.765 393.128,-206.752 388.486,-201.513"/>
</g>
<!-- Node16 -->
<g id="node33" class="node"><title>Node16</title>
<a xlink:href="controller_8cpp_source.html" target="_top" xlink:title="/home/sqeaky/Code/Mezzanine\l/Mezzanine/src/Input/controller.cpp">
<polygon fill="white" stroke="black" points="-0.5,-141 -0.5,-173 166.5,-173 166.5,-141 -0.5,-141"/>
<text text-anchor="start" x="7.5" y="-160" font-family="FreeSans" font-size="10.00">/home/sqeaky/Code/Mezzanine</text>
<text text-anchor="middle" x="83" y="-148" font-family="FreeSans" font-size="10.00">/Mezzanine/src/Input/controller.cpp</text>
</a>
</g>
<!-- Node15&#45;&gt;Node16 -->
<g id="edge34" class="edge"><title>Node15&#45;&gt;Node16</title>
<path fill="none" stroke="midnightblue" d="M290.449,-208.494C246.109,-197.488 190.402,-183.66 147.883,-173.106"/>
<polygon fill="midnightblue" stroke="midnightblue" points="289.755,-211.928 300.304,-210.941 291.441,-205.134 289.755,-211.928"/>
</g>
<!-- Node17&#45;&gt;Node2 -->
<g id="edge40" class="edge"><title>Node17&#45;&gt;Node2</title>
<path fill="none" stroke="midnightblue" d="M464.242,-208.494C420.373,-197.488 365.26,-183.66 323.193,-173.106"/>
<polygon fill="midnightblue" stroke="midnightblue" points="463.441,-211.902 473.992,-210.941 465.144,-205.112 463.441,-211.902"/>
</g>
<!-- Node17&#45;&gt;Node8 -->
<g id="edge42" class="edge"><title>Node17&#45;&gt;Node8</title>
<path fill="none" stroke="midnightblue" d="M507.977,-204.643C494.227,-194.403 478.238,-182.496 465.684,-173.147"/>
<polygon fill="midnightblue" stroke="midnightblue" points="506.087,-207.599 516.198,-210.765 510.268,-201.985 506.087,-207.599"/>
</g>
<!-- Node18 -->
<g id="node40" class="node"><title>Node18</title>
<a xlink:href="keyboard_8cpp_source.html" target="_top" xlink:title="/home/sqeaky/Code/Mezzanine\l/Mezzanine/src/Input/keyboard.cpp">
<polygon fill="white" stroke="black" points="554,-141 554,-173 720,-173 720,-141 554,-141"/>
<text text-anchor="start" x="562" y="-160" font-family="FreeSans" font-size="10.00">/home/sqeaky/Code/Mezzanine</text>
<text text-anchor="middle" x="637" y="-148" font-family="FreeSans" font-size="10.00">/Mezzanine/src/Input/keyboard.cpp</text>
</a>
</g>
<!-- Node17&#45;&gt;Node18 -->
<g id="edge44" class="edge"><title>Node17&#45;&gt;Node18</title>
<path fill="none" stroke="midnightblue" d="M569.211,-204.932C583.783,-194.628 600.816,-182.584 614.163,-173.147"/>
<polygon fill="midnightblue" stroke="midnightblue" points="567.106,-202.134 560.961,-210.765 571.147,-207.849 567.106,-202.134"/>
</g>
</g>
</svg>
        <g id="navigator" transform="translate(0 0)" fill="#404254">
                <rect fill="#f2f5e9" fill-opacity="0.5" stroke="#606060" stroke-width=".5" x="0" y="0" width="60" height="60"/>
                <use id="zoomplus" xlink:href="#zoomPlus" x="17" y="9" onmousedown="handleZoom(evt,'in')"/>
                <use id="zoomminus" xlink:href="#zoomMin" x="42" y="9" onmousedown="handleZoom(evt,'out')"/>
                <use id="reset" xlink:href="#resetDef" x="30" y="36" onmousedown="handleReset()"/>
                <g id="arrowUp" xlink:href="#dirArrow" transform="translate(30 24)" onmousedown="handlePan(0,-1)">
                  <use xlink:href="#rim" fill="#404040">
                        <set attributeName="fill" to="#808080" begin="arrowUp.mouseover" end="arrowUp.mouseout"/>
                  </use>
                  <path fill="none" stroke="white" stroke-width="1.5" d="M0,-3.0v7 M-2.5,-0.5L0,-3.0L2.5,-0.5"/>
                </g>
                <g id="arrowRight" xlink:href="#dirArrow" transform="rotate(90) translate(36 -43)" onmousedown="handlePan(1,0)">
                  <use xlink:href="#rim" fill="#404040">
                        <set attributeName="fill" to="#808080" begin="arrowRight.mouseover" end="arrowRight.mouseout"/>
                  </use>
                  <path fill="none" stroke="white" stroke-width="1.5" d="M0,-3.0v7 M-2.5,-0.5L0,-3.0L2.5,-0.5"/>
                </g>
                <g id="arrowDown" xlink:href="#dirArrow" transform="rotate(180) translate(-30 -48)" onmousedown="handlePan(0,1)">
                  <use xlink:href="#rim" fill="#404040">
                        <set attributeName="fill" to="#808080" begin="arrowDown.mouseover" end="arrowDown.mouseout"/>
                  </use>
                  <path fill="none" stroke="white" stroke-width="1.5" d="M0,-3.0v7 M-2.5,-0.5L0,-3.0L2.5,-0.5"/>
                </g>
                <g id="arrowLeft" xlink:href="#dirArrow" transform="rotate(270) translate(-36 17)" onmousedown="handlePan(-1,0)">
                  <use xlink:href="#rim" fill="#404040">
                        <set attributeName="fill" to="#808080" begin="arrowLeft.mouseover" end="arrowLeft.mouseout"/>
                  </use>
                  <path fill="none" stroke="white" stroke-width="1.5" d="M0,-3.0v7 M-2.5,-0.5L0,-3.0L2.5,-0.5"/>
                </g>
        </g>
        <svg viewBox="0 0 15 15" width="100%" height="30px" preserveAspectRatio="xMaxYMin meet">
         <g id="arrow_out" transform="scale(0.3 0.3)">
          <a xlink:href="device_8h__dep__incl_org.svg" target="_base">
           <rect id="button" ry="5" rx="5" y="6" x="6" height="38" width="38"
                fill="#f2f5e9" fill-opacity="0.5" stroke="#606060" stroke-width="1.0"/>
           <path id="arrow"
             d="M 11.500037,31.436501 C 11.940474,20.09759 22.043105,11.32322 32.158766,21.979434 L 37.068811,17.246167 C 37.068811,17.246167 37.088388,32 37.088388,32 L 22.160133,31.978069 C 22.160133,31.978069 26.997745,27.140456 26.997745,27.140456 C 18.528582,18.264221 13.291696,25.230495 11.500037,31.436501 z"
             style="fill:#404040;"/>
          </a>
         </g>
        </svg>
</svg>
