<?xml version="1.0" encoding="UTF-8" standalone="no"?>
<!DOCTYPE svg PUBLIC "-//W3C//DTD SVG 1.1//EN"
 "http://www.w3.org/Graphics/SVG/1.1/DTD/svg11.dtd">
<!-- Generated by graphviz version 2.26.3 (20100126.1600)
 -->
<!-- Title: /home/sqeaky/Code/Mezzanine/Mezzanine/src Pages: 1 -->
<svg width="614pt" height="184pt"
 viewBox="0.00 0.00 614.00 184.00" xmlns="http://www.w3.org/2000/svg" xmlns:xlink="http://www.w3.org/1999/xlink">
<g id="graph1" class="graph" transform="scale(1 1) rotate(0) translate(4 180)">
<title>/home/sqeaky/Code/Mezzanine/Mezzanine/src</title>
<g id="graph2" class="cluster"><title>clusterdir_282391f6f4177160a7bfc5213c65158e</title>
<a xlink:href="dir_282391f6f4177160a7bfc5213c65158e.xhtml" target="_top" xlink:title="Mezzanine">
<polygon fill="#ddddee" stroke="black" points="8,-8 8,-168 598,-168 598,-8 8,-8"/>
<text text-anchor="middle" x="303" y="-155" font-family="FreeSans" font-size="10.00">Mezzanine</text>
</a>
</g>
<g id="graph3" class="cluster"><title>clusterdir_b044052e4980a71349e081a68f99b09b</title>
<a xlink:href="dir_b044052e4980a71349e081a68f99b09b.xhtml" target="_top">
<polygon fill="#eeeeff" stroke="black" points="16,-16 16,-140 590,-140 590,-16 16,-16"/>
</a>
</g>
<!-- dir_b044052e4980a71349e081a68f99b09b -->
<g id="node3" class="node"><title>dir_b044052e4980a71349e081a68f99b09b</title>
<text text-anchor="middle" x="555" y="-111" font-family="FreeSans" font-size="10.00">src</text>
</g>
<!-- dir_1a8bf512ac1e8674f397238bb15ffede -->
<g id="node10" class="node"><title>dir_1a8bf512ac1e8674f397238bb15ffede</title>
<a xlink:href="dir_1a8bf512ac1e8674f397238bb15ffede.xhtml" target="_top" xlink:title="Scripting">
<polygon fill="white" stroke="black" points="582,-60 528,-60 528,-24 582,-24 582,-60"/>
<text text-anchor="middle" x="555" y="-39" font-family="FreeSans" font-size="10.00">Scripting</text>
</a>
</g>
<!-- dir_b044052e4980a71349e081a68f99b09b&#45;&gt;dir_1a8bf512ac1e8674f397238bb15ffede -->
<g id="edge4" class="edge"><title>dir_b044052e4980a71349e081a68f99b09b&#45;&gt;dir_1a8bf512ac1e8674f397238bb15ffede</title>
<path fill="none" stroke="black" d="M555,-95.8314C555,-88.131 555,-78.9743 555,-70.4166"/>
<polygon fill="black" stroke="black" points="558.5,-70.4132 555,-60.4133 551.5,-70.4133 558.5,-70.4132"/>
<a xlink:href="dir_000001_000008.xhtml" target="_top" xlink:title="4">
<text text-anchor="middle" x="561.339" y="-71.0079" font-family="FreeSans" font-size="10.00">4</text>
</a>
</g>
<!-- dir_71ddc9d13dd987de7c5d58d0d602157d -->
<g id="node4" class="node"><title>dir_71ddc9d13dd987de7c5d58d0d602157d</title>
<a xlink:href="dir_71ddc9d13dd987de7c5d58d0d602157d.xhtml" target="_top" xlink:title="Audio">
<polygon fill="white" stroke="black" points="510,-132 456,-132 456,-96 510,-96 510,-132"/>
<text text-anchor="middle" x="483" y="-111" font-family="FreeSans" font-size="10.00">Audio</text>
</a>
</g>
<!-- dir_556416e301e6755c9a735453abbe624e -->
<g id="node9" class="node"><title>dir_556416e301e6755c9a735453abbe624e</title>
<a xlink:href="dir_556416e301e6755c9a735453abbe624e.xhtml" target="_top" xlink:title="Resource">
<polygon fill="white" stroke="black" points="295,-60 239,-60 239,-24 295,-24 295,-60"/>
<text text-anchor="middle" x="267" y="-39" font-family="FreeSans" font-size="10.00">Resource</text>
</a>
</g>
<!-- dir_71ddc9d13dd987de7c5d58d0d602157d&#45;&gt;dir_556416e301e6755c9a735453abbe624e -->
<g id="edge8" class="edge"><title>dir_71ddc9d13dd987de7c5d58d0d602157d&#45;&gt;dir_556416e301e6755c9a735453abbe624e</title>
<path fill="none" stroke="black" d="M455.705,-99.7443C452.797,-98.409 449.858,-97.1334 447,-96 399.18,-77.0356 341.982,-60.947 305.099,-51.386"/>
<polygon fill="black" stroke="black" points="305.816,-47.9565 295.26,-48.8654 304.079,-54.7376 305.816,-47.9565"/>
<a xlink:href="dir_000002_000007.xhtml" target="_top" xlink:title="3">
<text text-anchor="middle" x="310.002" y="-43.098" font-family="FreeSans" font-size="10.00">3</text>
</a>
</g>
<!-- dir_0353bf437d0ddd26ea7714b9bd779086 -->
<g id="node5" class="node"><title>dir_0353bf437d0ddd26ea7714b9bd779086</title>
<a xlink:href="dir_0353bf437d0ddd26ea7714b9bd779086.xhtml" target="_top" xlink:title="Graphics">
<polygon fill="white" stroke="black" points="438,-132 384,-132 384,-96 438,-96 438,-132"/>
<text text-anchor="middle" x="411" y="-111" font-family="FreeSans" font-size="10.00">Graphics</text>
</a>
</g>
<!-- dir_4358ccd54f293adf03e83e7f75aaa22b -->
<g id="node6" class="node"><title>dir_4358ccd54f293adf03e83e7f75aaa22b</title>
<a xlink:href="dir_4358ccd54f293adf03e83e7f75aaa22b.xhtml" target="_top" xlink:title="Input">
<polygon fill="white" stroke="black" points="366,-132 312,-132 312,-96 366,-96 366,-132"/>
<text text-anchor="middle" x="339" y="-111" font-family="FreeSans" font-size="10.00">Input</text>
</a>
</g>
<!-- dir_021ff684230c64ff4bdf0656aac7b9d4 -->
<g id="node7" class="node"><title>dir_021ff684230c64ff4bdf0656aac7b9d4</title>
<a xlink:href="dir_021ff684230c64ff4bdf0656aac7b9d4.xhtml" target="_top" xlink:title="Network">
<polygon fill="white" stroke="black" points="294,-132 240,-132 240,-96 294,-96 294,-132"/>
<text text-anchor="middle" x="267" y="-111" font-family="FreeSans" font-size="10.00">Network</text>
</a>
</g>
<!-- dir_f4a558a26acb75b95d8d3b9eaf634b1d -->
<g id="node8" class="node"><title>dir_f4a558a26acb75b95d8d3b9eaf634b1d</title>
<a xlink:href="dir_f4a558a26acb75b95d8d3b9eaf634b1d.xhtml" target="_top" xlink:title="Physics">
<polygon fill="white" stroke="black" points="222,-132 168,-132 168,-96 222,-96 222,-132"/>
<text text-anchor="middle" x="195" y="-111" font-family="FreeSans" font-size="10.00">Physics</text>
</a>
</g>
<!-- dir_21a8013b59e784a746e4b784a76b76a9 -->
<g id="node11" class="node"><title>dir_21a8013b59e784a746e4b784a76b76a9</title>
<a xlink:href="dir_21a8013b59e784a746e4b784a76b76a9.xhtml" target="_top" xlink:title="UI">
<polygon fill="white" stroke="black" points="150,-132 96,-132 96,-96 150,-96 150,-132"/>
<text text-anchor="middle" x="123" y="-111" font-family="FreeSans" font-size="10.00">UI</text>
</a>
</g>
<!-- dir_43445b99f94304686df16ba09a203f55 -->
<g id="node12" class="node"><title>dir_43445b99f94304686df16ba09a203f55</title>
<a xlink:href="dir_43445b99f94304686df16ba09a203f55.xhtml" target="_top" xlink:title="XML">
<polygon fill="white" stroke="black" points="78,-132 24,-132 24,-96 78,-96 78,-132"/>
<text text-anchor="middle" x="51" y="-111" font-family="FreeSans" font-size="10.00">XML</text>
</a>
</g>
<!-- dir_43445b99f94304686df16ba09a203f55&#45;&gt;dir_556416e301e6755c9a735453abbe624e -->
<g id="edge6" class="edge"><title>dir_43445b99f94304686df16ba09a203f55&#45;&gt;dir_556416e301e6755c9a735453abbe624e</title>
<path fill="none" stroke="black" d="M78.2951,-99.7443C81.2029,-98.409 84.142,-97.1334 87,-96 134.82,-77.0356 192.018,-60.947 228.901,-51.386"/>
<polygon fill="black" stroke="black" points="229.921,-54.7376 238.74,-48.8654 228.184,-47.9565 229.921,-54.7376"/>
<a xlink:href="dir_000010_000007.xhtml" target="_top" xlink:title="1">
<text text-anchor="middle" x="227.144" y="-55.38" font-family="FreeSans" font-size="10.00">1</text>
</a>
</g>
</g>
</svg>
