<?xml version="1.0" encoding="UTF-8" standalone="no"?>
<!DOCTYPE svg PUBLIC "-//W3C//DTD SVG 1.1//EN"
 "http://www.w3.org/Graphics/SVG/1.1/DTD/svg11.dtd">
<!-- Generated by graphviz version 2.26.3 (20100126.1600)
 -->
<!-- Title: /home/sqeaky/Code/Mezzanine/UnitTests Pages: 1 -->
<svg width="240pt" height="132pt"
 viewBox="0.00 0.00 240.00 132.00" xmlns="http://www.w3.org/2000/svg" xmlns:xlink="http://www.w3.org/1999/xlink">
<g id="graph1" class="graph" transform="scale(1 1) rotate(0) translate(4 128)">
<title>/home/sqeaky/Code/Mezzanine/UnitTests</title>
<g id="graph2" class="cluster"><title>clusterdir_0b4cbdaab449d5f7091aab9921025b36</title>
<a xlink:href="dir_0b4cbdaab449d5f7091aab9921025b36.xhtml" target="_top">
<polygon fill="#eeeeff" stroke="black" points="8,-64 8,-116 224,-116 224,-64 8,-64"/>
</a>
</g>
<!-- dir_0b4cbdaab449d5f7091aab9921025b36 -->
<g id="node2" class="node"><title>dir_0b4cbdaab449d5f7091aab9921025b36</title>
<text text-anchor="middle" x="188" y="-87" font-family="FreeSans" font-size="10.00">UnitTests</text>
</g>
<!-- dir_78906e90f1c58b005b19c921c69faa9a -->
<g id="node3" class="node"><title>dir_78906e90f1c58b005b19c921c69faa9a</title>
<a xlink:href="dir_78906e90f1c58b005b19c921c69faa9a.xhtml" target="_top" xlink:title="src">
<polygon fill="white" stroke="black" points="142,-108 88,-108 88,-72 142,-72 142,-108"/>
<text text-anchor="middle" x="115" y="-87" font-family="FreeSans" font-size="10.00">src</text>
</a>
</g>
<!-- dir_282391f6f4177160a7bfc5213c65158e -->
<g id="node5" class="node"><title>dir_282391f6f4177160a7bfc5213c65158e</title>
<a xlink:href="dir_282391f6f4177160a7bfc5213c65158e.xhtml" target="_top" xlink:title="Mezzanine">
<polygon fill="none" stroke="red" points="146,-36 84,-36 84,-1.77636e-14 146,-3.55271e-15 146,-36"/>
<text text-anchor="middle" x="115" y="-15" font-family="FreeSans" font-size="10.00">Mezzanine</text>
</a>
</g>
<!-- dir_78906e90f1c58b005b19c921c69faa9a&#45;&gt;dir_282391f6f4177160a7bfc5213c65158e -->
<g id="edge3" class="edge"><title>dir_78906e90f1c58b005b19c921c69faa9a&#45;&gt;dir_282391f6f4177160a7bfc5213c65158e</title>
<path fill="none" stroke="black" d="M115,-71.8314C115,-64.131 115,-54.9743 115,-46.4166"/>
<polygon fill="black" stroke="black" points="118.5,-46.4132 115,-36.4133 111.5,-46.4133 118.5,-46.4132"/>
<a xlink:href="dir_000012_000000.xhtml" target="_top" xlink:title="5">
<text text-anchor="middle" x="121.339" y="-47.0079" font-family="FreeSans" font-size="10.00">5</text>
</a>
</g>
<!-- dir_5cf7925284949b697f49fbc7acb6ed3c -->
<g id="node4" class="node"><title>dir_5cf7925284949b697f49fbc7acb6ed3c</title>
<a xlink:href="dir_5cf7925284949b697f49fbc7acb6ed3c.xhtml" target="_top" xlink:title="tests">
<polygon fill="white" stroke="black" points="70,-108 16,-108 16,-72 70,-72 70,-108"/>
<text text-anchor="middle" x="43" y="-87" font-family="FreeSans" font-size="10.00">tests</text>
</a>
</g>
</g>
</svg>
