<?xml version="1.0" encoding="UTF-8" standalone="no"?>
<!DOCTYPE svg PUBLIC "-//W3C//DTD SVG 1.1//EN"
 "http://www.w3.org/Graphics/SVG/1.1/DTD/svg11.dtd">
<!-- Generated by graphviz version 2.26.3 (20100126.1600)
 -->
<!-- Title: /home/sqeaky/Code/Mezzanine/Mezzanine/src Pages: 1 -->
<svg width="470pt" height="184pt"
 viewBox="0.00 0.00 470.00 184.00" xmlns="http://www.w3.org/2000/svg" xmlns:xlink="http://www.w3.org/1999/xlink">
<g id="graph1" class="graph" transform="scale(1 1) rotate(0) translate(4 180)">
<title>/home/sqeaky/Code/Mezzanine/Mezzanine/src</title>
<g id="graph2" class="cluster"><title>clusterdir_282391f6f4177160a7bfc5213c65158e</title>
<a xlink:href="dir_282391f6f4177160a7bfc5213c65158e.xhtml" target="_top" xlink:title="Mezzanine">
<polygon fill="#ddddee" stroke="black" points="8,-8 8,-168 454,-168 454,-8 8,-8"/>
<text text-anchor="middle" x="231" y="-155" font-family="FreeSans" font-size="10.00">Mezzanine</text>
</a>
</g>
<g id="graph3" class="cluster"><title>clusterdir_b044052e4980a71349e081a68f99b09b</title>
<a xlink:href="dir_b044052e4980a71349e081a68f99b09b.xhtml" target="_top">
<polygon fill="#eeeeff" stroke="black" points="16,-16 16,-140 446,-140 446,-16 16,-16"/>
</a>
</g>
<!-- dir_b044052e4980a71349e081a68f99b09b -->
<g id="node3" class="node"><title>dir_b044052e4980a71349e081a68f99b09b</title>
<text text-anchor="middle" x="411" y="-111" font-family="FreeSans" font-size="10.00">src</text>
</g>
<!-- dir_71ddc9d13dd987de7c5d58d0d602157d -->
<g id="node4" class="node"><title>dir_71ddc9d13dd987de7c5d58d0d602157d</title>
<a xlink:href="dir_71ddc9d13dd987de7c5d58d0d602157d.xhtml" target="_top" xlink:title="Audio">
<polygon fill="white" stroke="black" points="294,-60 240,-60 240,-24 294,-24 294,-60"/>
<text text-anchor="middle" x="267" y="-39" font-family="FreeSans" font-size="10.00">Audio</text>
</a>
</g>
<!-- dir_b044052e4980a71349e081a68f99b09b&#45;&gt;dir_71ddc9d13dd987de7c5d58d0d602157d -->
<g id="edge8" class="edge"><title>dir_b044052e4980a71349e081a68f99b09b&#45;&gt;dir_71ddc9d13dd987de7c5d58d0d602157d</title>
<path fill="none" stroke="black" d="M383.915,-100.457C361.231,-89.1153 328.643,-72.8217 303.632,-60.316"/>
<polygon fill="black" stroke="black" points="304.963,-57.0684 294.453,-55.7267 301.832,-63.3294 304.963,-57.0684"/>
<a xlink:href="dir_000001_000002.xhtml" target="_top" xlink:title="2">
<text text-anchor="middle" x="309.448" y="-53.1364" font-family="FreeSans" font-size="10.00">2</text>
</a>
</g>
<!-- dir_4358ccd54f293adf03e83e7f75aaa22b -->
<g id="node6" class="node"><title>dir_4358ccd54f293adf03e83e7f75aaa22b</title>
<a xlink:href="dir_4358ccd54f293adf03e83e7f75aaa22b.xhtml" target="_top" xlink:title="Input">
<polygon fill="white" stroke="black" points="366,-60 312,-60 312,-24 366,-24 366,-60"/>
<text text-anchor="middle" x="339" y="-39" font-family="FreeSans" font-size="10.00">Input</text>
</a>
</g>
<!-- dir_b044052e4980a71349e081a68f99b09b&#45;&gt;dir_4358ccd54f293adf03e83e7f75aaa22b -->
<g id="edge4" class="edge"><title>dir_b044052e4980a71349e081a68f99b09b&#45;&gt;dir_4358ccd54f293adf03e83e7f75aaa22b</title>
<path fill="none" stroke="black" d="M392.831,-95.8314C384.285,-87.2848 373.944,-76.9443 364.62,-67.6198"/>
<polygon fill="black" stroke="black" points="366.959,-65.0095 357.413,-60.4133 362.009,-69.9592 366.959,-65.0095"/>
<a xlink:href="dir_000001_000004.xhtml" target="_top" xlink:title="1">
<text text-anchor="middle" x="371.509" y="-62.5436" font-family="FreeSans" font-size="10.00">1</text>
</a>
</g>
<!-- dir_556416e301e6755c9a735453abbe624e -->
<g id="node9" class="node"><title>dir_556416e301e6755c9a735453abbe624e</title>
<a xlink:href="dir_556416e301e6755c9a735453abbe624e.xhtml" target="_top" xlink:title="Resource">
<polygon fill="white" stroke="black" points="151,-60 95,-60 95,-24 151,-24 151,-60"/>
<text text-anchor="middle" x="123" y="-39" font-family="FreeSans" font-size="10.00">Resource</text>
</a>
</g>
<!-- dir_b044052e4980a71349e081a68f99b09b&#45;&gt;dir_556416e301e6755c9a735453abbe624e -->
<g id="edge10" class="edge"><title>dir_b044052e4980a71349e081a68f99b09b&#45;&gt;dir_556416e301e6755c9a735453abbe624e</title>
<path fill="none" stroke="black" d="M383.794,-99.5062C380.869,-98.2173 377.901,-97.0177 375,-96 335.886,-82.2796 221.387,-60.1333 161.112,-48.9447"/>
<polygon fill="black" stroke="black" points="161.69,-45.4923 151.221,-47.1166 160.418,-52.3758 161.69,-45.4923"/>
<a xlink:href="dir_000001_000007.xhtml" target="_top" xlink:title="2">
<text text-anchor="middle" x="165.741" y="-40.3535" font-family="FreeSans" font-size="10.00">2</text>
</a>
</g>
<!-- dir_1a8bf512ac1e8674f397238bb15ffede -->
<g id="node10" class="node"><title>dir_1a8bf512ac1e8674f397238bb15ffede</title>
<a xlink:href="dir_1a8bf512ac1e8674f397238bb15ffede.xhtml" target="_top" xlink:title="Scripting">
<polygon fill="white" stroke="black" points="438,-60 384,-60 384,-24 438,-24 438,-60"/>
<text text-anchor="middle" x="411" y="-39" font-family="FreeSans" font-size="10.00">Scripting</text>
</a>
</g>
<!-- dir_b044052e4980a71349e081a68f99b09b&#45;&gt;dir_1a8bf512ac1e8674f397238bb15ffede -->
<g id="edge6" class="edge"><title>dir_b044052e4980a71349e081a68f99b09b&#45;&gt;dir_1a8bf512ac1e8674f397238bb15ffede</title>
<path fill="none" stroke="black" d="M411,-95.8314C411,-88.131 411,-78.9743 411,-70.4166"/>
<polygon fill="black" stroke="black" points="414.5,-70.4132 411,-60.4133 407.5,-70.4133 414.5,-70.4132"/>
<a xlink:href="dir_000001_000008.xhtml" target="_top" xlink:title="3">
<text text-anchor="middle" x="417.339" y="-71.0079" font-family="FreeSans" font-size="10.00">3</text>
</a>
</g>
<!-- dir_0353bf437d0ddd26ea7714b9bd779086 -->
<g id="node5" class="node"><title>dir_0353bf437d0ddd26ea7714b9bd779086</title>
<a xlink:href="dir_0353bf437d0ddd26ea7714b9bd779086.xhtml" target="_top" xlink:title="Graphics">
<polygon fill="white" stroke="black" points="366,-132 312,-132 312,-96 366,-96 366,-132"/>
<text text-anchor="middle" x="339" y="-111" font-family="FreeSans" font-size="10.00">Graphics</text>
</a>
</g>
<!-- dir_021ff684230c64ff4bdf0656aac7b9d4 -->
<g id="node7" class="node"><title>dir_021ff684230c64ff4bdf0656aac7b9d4</title>
<a xlink:href="dir_021ff684230c64ff4bdf0656aac7b9d4.xhtml" target="_top" xlink:title="Network">
<polygon fill="white" stroke="black" points="294,-132 240,-132 240,-96 294,-96 294,-132"/>
<text text-anchor="middle" x="267" y="-111" font-family="FreeSans" font-size="10.00">Network</text>
</a>
</g>
<!-- dir_f4a558a26acb75b95d8d3b9eaf634b1d -->
<g id="node8" class="node"><title>dir_f4a558a26acb75b95d8d3b9eaf634b1d</title>
<a xlink:href="dir_f4a558a26acb75b95d8d3b9eaf634b1d.xhtml" target="_top" xlink:title="Physics">
<polygon fill="white" stroke="black" points="222,-132 168,-132 168,-96 222,-96 222,-132"/>
<text text-anchor="middle" x="195" y="-111" font-family="FreeSans" font-size="10.00">Physics</text>
</a>
</g>
<!-- dir_21a8013b59e784a746e4b784a76b76a9 -->
<g id="node11" class="node"><title>dir_21a8013b59e784a746e4b784a76b76a9</title>
<a xlink:href="dir_21a8013b59e784a746e4b784a76b76a9.xhtml" target="_top" xlink:title="UI">
<polygon fill="white" stroke="black" points="150,-132 96,-132 96,-96 150,-96 150,-132"/>
<text text-anchor="middle" x="123" y="-111" font-family="FreeSans" font-size="10.00">UI</text>
</a>
</g>
<!-- dir_43445b99f94304686df16ba09a203f55 -->
<g id="node12" class="node"><title>dir_43445b99f94304686df16ba09a203f55</title>
<a xlink:href="dir_43445b99f94304686df16ba09a203f55.xhtml" target="_top" xlink:title="XML">
<polygon fill="white" stroke="black" points="78,-132 24,-132 24,-96 78,-96 78,-132"/>
<text text-anchor="middle" x="51" y="-111" font-family="FreeSans" font-size="10.00">XML</text>
</a>
</g>
<!-- dir_43445b99f94304686df16ba09a203f55&#45;&gt;dir_556416e301e6755c9a735453abbe624e -->
<g id="edge12" class="edge"><title>dir_43445b99f94304686df16ba09a203f55&#45;&gt;dir_556416e301e6755c9a735453abbe624e</title>
<path fill="none" stroke="black" d="M69.1686,-95.8314C77.7152,-87.2848 88.0557,-76.9443 97.3802,-67.6198"/>
<polygon fill="black" stroke="black" points="99.9905,-69.9592 104.587,-60.4133 95.0408,-65.0095 99.9905,-69.9592"/>
<a xlink:href="dir_000010_000007.xhtml" target="_top" xlink:title="1">
<text text-anchor="middle" x="99.4564" y="-71.5087" font-family="FreeSans" font-size="10.00">1</text>
</a>
</g>
</g>
</svg>
