<?xml version="1.0" encoding="UTF-8" standalone="no"?>
<!DOCTYPE svg PUBLIC "-//W3C//DTD SVG 1.1//EN"
 "http://www.w3.org/Graphics/SVG/1.1/DTD/svg11.dtd">
<!-- Generated by graphviz version 2.26.3 (20100126.1600)
 -->
<!-- Title: /home/sqeaky/Code/Mezzanine/Mezzanine/src/Resource/filestream.h Pages: 1 -->
<!--zoomable 284 -->
<svg id="main" version="1.1" xmlns="http://www.w3.org/2000/svg" xmlns:xlink="http://www.w3.org/1999/xlink" xml:space="preserve" onload="init(evt)">
<style type="text/css"><![CDATA[
.edge:hover path { stroke: red; }
.edge:hover polygon { stroke: red; fill: red; }
]]></style>
<script type="text/javascript"><![CDATA[
var edges = document.getElementsByTagName('g');
if (edges && edges.length) {
  for (var i=0;i<edges.length;i++) {
    if (edges[i].id.substr(0,4)=='edge') {
      edges[i].setAttribute('class','edge');
    }
  }
}
]]></script>
        <defs>
                <circle id="rim" cx="0" cy="0" r="7"/>
                <circle id="rim2" cx="0" cy="0" r="3.5"/>
                <g id="zoomPlus">
                        <use xlink:href="#rim" fill="#404040">
                                <set attributeName="fill" to="#808080" begin="zoomplus.mouseover" end="zoomplus.mouseout"/>
                        </use>
                        <path d="M-4,0h8M0,-4v8" fill="none" stroke="white" stroke-width="1.5" pointer-events="none"/>
                </g>
                <g id="zoomMin">
                        <use xlink:href="#rim" fill="#404040">
                                <set attributeName="fill" to="#808080" begin="zoomminus.mouseover" end="zoomminus.mouseout"/>
                        </use>
                        <path d="M-4,0h8" fill="none" stroke="white" stroke-width="1.5" pointer-events="none"/>
                </g>
                <g id="dirArrow">
                        <path fill="none" stroke="white" stroke-width="1.5" d="M0,-3.0v7 M-2.5,-0.5L0,-3.0L2.5,-0.5"/>
                </g>
               <g id="resetDef">
                       <use xlink:href="#rim2" fill="#404040">
                               <set attributeName="fill" to="#808080" begin="reset.mouseover" end="reset.mouseout"/>
                       </use>
               </g>
        </defs>

<script type="text/javascript">
var viewWidth = 1122;
var viewHeight = 284;
var sectionId = 'dynsection-1';
</script>
<script xlink:href="svgpan.js"/>
<svg id="graph" class="graph">
<g id="viewport">
<title>/home/sqeaky/Code/Mezzanine/Mezzanine/src/Resource/filestream.h</title>
<polygon fill="white" stroke="white" points="-4,5 -4,-280 1119,-280 1119,5 -4,5"/>
<!-- Node1 -->
<g id="node1" class="node"><title>Node1</title>
<polygon fill="#bfbfbf" stroke="black" points="507.5,-228.5 507.5,-275.5 662.5,-275.5 662.5,-228.5 507.5,-228.5"/>
<text text-anchor="start" x="515.5" y="-262.5" font-family="Helvetica,sans-Serif" font-size="10.00">/home/sqeaky/Code/Mezzanine</text>
<text text-anchor="start" x="515.5" y="-249.5" font-family="Helvetica,sans-Serif" font-size="10.00">/Mezzanine/src/Resource</text>
<text text-anchor="middle" x="585" y="-236.5" font-family="Helvetica,sans-Serif" font-size="10.00">/filestream.h</text>
</g>
<!-- Node2 -->
<g id="node3" class="node"><title>Node2</title>
<a xlink:href="resource_8h_source.html" target="_top" xlink:title="/home/sqeaky/Code/Mezzanine\l/Mezzanine/src/Resource\l/resource.h">
<polygon fill="white" stroke="black" points="-0.5,-144.5 -0.5,-191.5 154.5,-191.5 154.5,-144.5 -0.5,-144.5"/>
<text text-anchor="start" x="7.5" y="-178.5" font-family="Helvetica,sans-Serif" font-size="10.00">/home/sqeaky/Code/Mezzanine</text>
<text text-anchor="start" x="7.5" y="-165.5" font-family="Helvetica,sans-Serif" font-size="10.00">/Mezzanine/src/Resource</text>
<text text-anchor="middle" x="77" y="-152.5" font-family="Helvetica,sans-Serif" font-size="10.00">/resource.h</text>
</a>
</g>
<!-- Node1&#45;&gt;Node2 -->
<g id="edge2" class="edge"><title>Node1&#45;&gt;Node2</title>
<path fill="none" stroke="midnightblue" d="M497.512,-242.946C411.759,-233.277 277.603,-216.03 163,-192 160.269,-191.427 157.497,-190.817 154.703,-190.176"/>
<polygon fill="midnightblue" stroke="midnightblue" points="497.139,-246.426 507.466,-244.059 497.917,-239.469 497.139,-246.426"/>
</g>
<!-- Node5 -->
<g id="node9" class="node"><title>Node5</title>
<a xlink:href="objectsettings_8cpp_source.html" target="_top" xlink:title="/home/sqeaky/Code/Mezzanine\l/Mezzanine/src/objectsettings.cpp">
<polygon fill="white" stroke="black" points="172,-151 172,-185 338,-185 338,-151 172,-151"/>
<text text-anchor="start" x="180" y="-172" font-family="Helvetica,sans-Serif" font-size="10.00">/home/sqeaky/Code/Mezzanine</text>
<text text-anchor="middle" x="255" y="-159" font-family="Helvetica,sans-Serif" font-size="10.00">/Mezzanine/src/objectsettings.cpp</text>
</a>
</g>
<!-- Node1&#45;&gt;Node5 -->
<g id="edge8" class="edge"><title>Node1&#45;&gt;Node5</title>
<path fill="none" stroke="midnightblue" d="M497.521,-230.129C452.52,-218.832 396.799,-204.772 347,-192 338.366,-189.785 329.281,-187.437 320.319,-185.111"/>
<polygon fill="midnightblue" stroke="midnightblue" points="496.696,-233.531 507.247,-232.57 498.4,-226.741 496.696,-233.531"/>
</g>
<!-- Node6 -->
<g id="node11" class="node"><title>Node6</title>
<a xlink:href="collisionshapemanager_8cpp_source.html" target="_top" xlink:title="/home/sqeaky/Code/Mezzanine\l/Mezzanine/src/Physics/collisionshapemanager.cpp">
<polygon fill="white" stroke="black" points="356,-151 356,-185 598,-185 598,-151 356,-151"/>
<text text-anchor="start" x="364" y="-172" font-family="Helvetica,sans-Serif" font-size="10.00">/home/sqeaky/Code/Mezzanine</text>
<text text-anchor="middle" x="477" y="-159" font-family="Helvetica,sans-Serif" font-size="10.00">/Mezzanine/src/Physics/collisionshapemanager.cpp</text>
</a>
</g>
<!-- Node1&#45;&gt;Node6 -->
<g id="edge10" class="edge"><title>Node1&#45;&gt;Node6</title>
<path fill="none" stroke="midnightblue" d="M546.492,-222.049C530.525,-209.63 512.583,-195.676 498.931,-185.057"/>
<polygon fill="midnightblue" stroke="midnightblue" points="544.586,-225.001 554.629,-228.378 548.884,-219.476 544.586,-225.001"/>
</g>
<!-- Node7 -->
<g id="node13" class="node"><title>Node7</title>
<a xlink:href="assetgroup_8cpp_source.html" target="_top" xlink:title="/home/sqeaky/Code/Mezzanine\l/Mezzanine/src/Resource\l/assetgroup.cpp">
<polygon fill="white" stroke="black" points="615.5,-144.5 615.5,-191.5 770.5,-191.5 770.5,-144.5 615.5,-144.5"/>
<text text-anchor="start" x="623.5" y="-178.5" font-family="Helvetica,sans-Serif" font-size="10.00">/home/sqeaky/Code/Mezzanine</text>
<text text-anchor="start" x="623.5" y="-165.5" font-family="Helvetica,sans-Serif" font-size="10.00">/Mezzanine/src/Resource</text>
<text text-anchor="middle" x="693" y="-152.5" font-family="Helvetica,sans-Serif" font-size="10.00">/assetgroup.cpp</text>
</a>
</g>
<!-- Node1&#45;&gt;Node7 -->
<g id="edge12" class="edge"><title>Node1&#45;&gt;Node7</title>
<path fill="none" stroke="midnightblue" d="M623.558,-222.011C636.342,-212.067 650.388,-201.142 662.482,-191.736"/>
<polygon fill="midnightblue" stroke="midnightblue" points="621.116,-219.476 615.371,-228.378 625.414,-225.001 621.116,-219.476"/>
</g>
<!-- Node8 -->
<g id="node15" class="node"><title>Node8</title>
<a xlink:href="filestream_8cpp_source.html" target="_top" xlink:title="/home/sqeaky/Code/Mezzanine\l/Mezzanine/src/Resource\l/filestream.cpp">
<polygon fill="white" stroke="black" points="787.5,-144.5 787.5,-191.5 942.5,-191.5 942.5,-144.5 787.5,-144.5"/>
<text text-anchor="start" x="795.5" y="-178.5" font-family="Helvetica,sans-Serif" font-size="10.00">/home/sqeaky/Code/Mezzanine</text>
<text text-anchor="start" x="795.5" y="-165.5" font-family="Helvetica,sans-Serif" font-size="10.00">/Mezzanine/src/Resource</text>
<text text-anchor="middle" x="865" y="-152.5" font-family="Helvetica,sans-Serif" font-size="10.00">/filestream.cpp</text>
</a>
</g>
<!-- Node1&#45;&gt;Node8 -->
<g id="edge14" class="edge"><title>Node1&#45;&gt;Node8</title>
<path fill="none" stroke="midnightblue" d="M672.336,-225.799C709.106,-214.768 751.55,-202.035 787.225,-191.332"/>
<polygon fill="midnightblue" stroke="midnightblue" points="671.196,-222.487 662.624,-228.713 673.208,-229.192 671.196,-222.487"/>
</g>
<!-- Node9 -->
<g id="node17" class="node"><title>Node9</title>
<a xlink:href="resourcemanager_8cpp_source.html" target="_top" xlink:title="/home/sqeaky/Code/Mezzanine\l/Mezzanine/src/Resource\l/resourcemanager.cpp">
<polygon fill="white" stroke="black" points="959.5,-144.5 959.5,-191.5 1114.5,-191.5 1114.5,-144.5 959.5,-144.5"/>
<text text-anchor="start" x="967.5" y="-178.5" font-family="Helvetica,sans-Serif" font-size="10.00">/home/sqeaky/Code/Mezzanine</text>
<text text-anchor="start" x="967.5" y="-165.5" font-family="Helvetica,sans-Serif" font-size="10.00">/Mezzanine/src/Resource</text>
<text text-anchor="middle" x="1037" y="-152.5" font-family="Helvetica,sans-Serif" font-size="10.00">/resourcemanager.cpp</text>
</a>
</g>
<!-- Node1&#45;&gt;Node9 -->
<g id="edge16" class="edge"><title>Node1&#45;&gt;Node9</title>
<path fill="none" stroke="midnightblue" d="M672.854,-240.358C747.318,-229.833 856.72,-212.817 951,-192 953.725,-191.398 956.491,-190.763 959.28,-190.101"/>
<polygon fill="midnightblue" stroke="midnightblue" points="672,-236.944 662.584,-241.8 672.974,-243.876 672,-236.944"/>
</g>
<!-- Node3 -->
<g id="node5" class="node"><title>Node3</title>
<a xlink:href="mezzanine_8h.html" target="_top" xlink:title="A single file that includes all of the Mezzanine engine. ">
<polygon fill="white" stroke="black" points="-0.5,-73 -0.5,-107 154.5,-107 154.5,-73 -0.5,-73"/>
<text text-anchor="start" x="7.5" y="-94" font-family="Helvetica,sans-Serif" font-size="10.00">/home/sqeaky/Code/Mezzanine</text>
<text text-anchor="middle" x="77" y="-81" font-family="Helvetica,sans-Serif" font-size="10.00">/Mezzanine/src/mezzanine.h</text>
</a>
</g>
<!-- Node2&#45;&gt;Node3 -->
<g id="edge4" class="edge"><title>Node2&#45;&gt;Node3</title>
<path fill="none" stroke="midnightblue" d="M77,-133.93C77,-124.611 77,-114.911 77,-107.003"/>
<polygon fill="midnightblue" stroke="midnightblue" points="73.5001,-134.174 77,-144.174 80.5001,-134.174 73.5001,-134.174"/>
</g>
<!-- Node4 -->
<g id="node7" class="node"><title>Node4</title>
<a xlink:href="entresol_8cpp_source.html" target="_top" xlink:title="/home/sqeaky/Code/Mezzanine\l/Mezzanine/src/entresol.cpp">
<polygon fill="white" stroke="black" points="-0.5,-1 -0.5,-35 154.5,-35 154.5,-1 -0.5,-1"/>
<text text-anchor="start" x="7.5" y="-22" font-family="Helvetica,sans-Serif" font-size="10.00">/home/sqeaky/Code/Mezzanine</text>
<text text-anchor="middle" x="77" y="-9" font-family="Helvetica,sans-Serif" font-size="10.00">/Mezzanine/src/entresol.cpp</text>
</a>
</g>
<!-- Node3&#45;&gt;Node4 -->
<g id="edge6" class="edge"><title>Node3&#45;&gt;Node4</title>
<path fill="none" stroke="midnightblue" d="M77,-62.7193C77,-53.572 77,-43.6255 77,-35.4407"/>
<polygon fill="midnightblue" stroke="midnightblue" points="73.5001,-62.937 77,-72.937 80.5001,-62.937 73.5001,-62.937"/>
</g>
</g>
</svg>
        <g id="navigator" transform="translate(0 0)" fill="#404254">
                <rect fill="#f2f5e9" fill-opacity="0.5" stroke="#606060" stroke-width=".5" x="0" y="0" width="60" height="60"/>
                <use id="zoomplus" xlink:href="#zoomPlus" x="17" y="9" onmousedown="handleZoom(evt,'in')"/>
                <use id="zoomminus" xlink:href="#zoomMin" x="42" y="9" onmousedown="handleZoom(evt,'out')"/>
                <use id="reset" xlink:href="#resetDef" x="30" y="36" onmousedown="handleReset()"/>
                <g id="arrowUp" xlink:href="#dirArrow" transform="translate(30 24)" onmousedown="handlePan(0,-1)">
                  <use xlink:href="#rim" fill="#404040">
                        <set attributeName="fill" to="#808080" begin="arrowUp.mouseover" end="arrowUp.mouseout"/>
                  </use>
                  <path fill="none" stroke="white" stroke-width="1.5" d="M0,-3.0v7 M-2.5,-0.5L0,-3.0L2.5,-0.5"/>
                </g>
                <g id="arrowRight" xlink:href="#dirArrow" transform="rotate(90) translate(36 -43)" onmousedown="handlePan(1,0)">
                  <use xlink:href="#rim" fill="#404040">
                        <set attributeName="fill" to="#808080" begin="arrowRight.mouseover" end="arrowRight.mouseout"/>
                  </use>
                  <path fill="none" stroke="white" stroke-width="1.5" d="M0,-3.0v7 M-2.5,-0.5L0,-3.0L2.5,-0.5"/>
                </g>
                <g id="arrowDown" xlink:href="#dirArrow" transform="rotate(180) translate(-30 -48)" onmousedown="handlePan(0,1)">
                  <use xlink:href="#rim" fill="#404040">
                        <set attributeName="fill" to="#808080" begin="arrowDown.mouseover" end="arrowDown.mouseout"/>
                  </use>
                  <path fill="none" stroke="white" stroke-width="1.5" d="M0,-3.0v7 M-2.5,-0.5L0,-3.0L2.5,-0.5"/>
                </g>
                <g id="arrowLeft" xlink:href="#dirArrow" transform="rotate(270) translate(-36 17)" onmousedown="handlePan(-1,0)">
                  <use xlink:href="#rim" fill="#404040">
                        <set attributeName="fill" to="#808080" begin="arrowLeft.mouseover" end="arrowLeft.mouseout"/>
                  </use>
                  <path fill="none" stroke="white" stroke-width="1.5" d="M0,-3.0v7 M-2.5,-0.5L0,-3.0L2.5,-0.5"/>
                </g>
        </g>
        <svg viewBox="0 0 15 15" width="100%" height="30px" preserveAspectRatio="xMaxYMin meet">
         <g id="arrow_out" transform="scale(0.3 0.3)">
          <a xlink:href="filestream_8h__dep__incl_org.svg" target="_base">
           <rect id="button" ry="5" rx="5" y="6" x="6" height="38" width="38"
                fill="#f2f5e9" fill-opacity="0.5" stroke="#606060" stroke-width="1.0"/>
           <path id="arrow"
             d="M 11.500037,31.436501 C 11.940474,20.09759 22.043105,11.32322 32.158766,21.979434 L 37.068811,17.246167 C 37.068811,17.246167 37.088388,32 37.088388,32 L 22.160133,31.978069 C 22.160133,31.978069 26.997745,27.140456 26.997745,27.140456 C 18.528582,18.264221 13.291696,25.230495 11.500037,31.436501 z"
             style="fill:#404040;"/>
          </a>
         </g>
        </svg>
</svg>
