<?xml version="1.0" encoding="UTF-8" standalone="no"?>
<!DOCTYPE svg PUBLIC "-//W3C//DTD SVG 1.1//EN"
 "http://www.w3.org/Graphics/SVG/1.1/DTD/svg11.dtd">
<!-- Generated by graphviz version 2.26.3 (20100126.1600)
 -->
<!-- Title: /home/Code/Mezzanine/Mezzanine/src/Threading/framescheduler.cpp Pages: 1 -->
<!--zoomable 520 -->
<svg id="main" version="1.1" xmlns="http://www.w3.org/2000/svg" xmlns:xlink="http://www.w3.org/1999/xlink" xml:space="preserve" onload="init(evt)">
        <defs>
                <circle id="rim" cx="0" cy="0" r="7"/>
                <circle id="rim2" cx="0" cy="0" r="3.5"/>
                <g id="zoomPlus">
                        <use xlink:href="#rim" fill="#404040">
                                <set attributeName="fill" to="#808080" begin="zoomplus.mouseover" end="zoomplus.mouseout"/>
                        </use>
                        <path d="M-4,0h8M0,-4v8" fill="none" stroke="white" stroke-width="1.5" pointer-events="none"/>
                </g>
                <g id="zoomMin">
                        <use xlink:href="#rim" fill="#404040">
                                <set attributeName="fill" to="#808080" begin="zoomminus.mouseover" end="zoomminus.mouseout"/>
                        </use>
                        <path d="M-4,0h8" fill="none" stroke="white" stroke-width="1.5" pointer-events="none"/>
                </g>
                <g id="dirArrow">
                        <path fill="none" stroke="white" stroke-width="1.5" d="M0,-3.0v7 M-2.5,-0.5L0,-3.0L2.5,-0.5"/>
                </g>
               <g id="resetDef">
                       <use xlink:href="#rim2" fill="#404040">
                               <set attributeName="fill" to="#808080" begin="reset.mouseover" end="reset.mouseout"/>
                       </use>
               </g>
        </defs>

<script type="text/javascript">
var viewWidth = 1169;
var viewHeight = 520;
var sectionId = 'dynsection-0';
</script>
<script xlink:href="svgpan.js"/>
<svg id="graph" class="graph">
<g id="viewport">
<title>/home/Code/Mezzanine/Mezzanine/src/Threading/framescheduler.cpp</title>
<polygon fill="white" stroke="white" points="-4,5 -4,-516 1166,-516 1166,5 -4,5"/>
<!-- Node1 -->
<g id="node1" class="node"><title>Node1</title>
<polygon fill="#bfbfbf" stroke="black" points="194,-464.5 194,-511.5 332,-511.5 332,-464.5 194,-464.5"/>
<text text-anchor="start" x="202" y="-498.5" font-family="FreeSans" font-size="10.00">/home/Code/Mezzanine</text>
<text text-anchor="start" x="202" y="-485.5" font-family="FreeSans" font-size="10.00">/Mezzanine/src/Threading</text>
<text text-anchor="middle" x="263" y="-472.5" font-family="FreeSans" font-size="10.00">/framescheduler.cpp</text>
</g>
<!-- Node2 -->
<g id="node3" class="node"><title>Node2</title>
<a xlink:href="framescheduler_8h.xhtml" target="_top" xlink:title="This file has the Declarations for the main FrameScheduler class.">
<polygon fill="white" stroke="black" points="403,-290.5 403,-311.5 503,-311.5 503,-290.5 403,-290.5"/>
<text text-anchor="middle" x="453" y="-298.5" font-family="FreeSans" font-size="10.00">framescheduler.h</text>
</a>
</g>
<!-- Node1&#45;&gt;Node2 -->
<g id="edge2" class="edge"><title>Node1&#45;&gt;Node2</title>
<path fill="none" stroke="midnightblue" d="M287.064,-464.316C325.521,-426.466 400.01,-353.153 434.566,-319.143"/>
<polygon fill="midnightblue" stroke="midnightblue" points="437.396,-321.269 442.068,-311.76 432.485,-316.28 437.396,-321.269"/>
</g>
<!-- Node7 -->
<g id="node13" class="node"><title>Node7</title>
<polygon fill="white" stroke="#bfbfbf" points="0,-0.5 0,-21.5 62,-21.5 62,-0.5 0,-0.5"/>
<text text-anchor="middle" x="31" y="-8.5" font-family="FreeSans" font-size="10.00">algorithm</text>
</g>
<!-- Node1&#45;&gt;Node7 -->
<g id="edge132" class="edge"><title>Node1&#45;&gt;Node7</title>
<path fill="none" stroke="midnightblue" d="M193.707,-479.097C125.344,-465.974 31,-434.235 31,-359 31,-359 31,-359 31,-127 31,-93.5978 31,-54.7853 31,-31.5939"/>
<polygon fill="midnightblue" stroke="midnightblue" points="34.5001,-31.5561 31,-21.5561 27.5001,-31.5561 34.5001,-31.5561"/>
</g>
<!-- Node8 -->
<g id="node15" class="node"><title>Node8</title>
<polygon fill="white" stroke="#bfbfbf" points="79.5,-0.5 79.5,-21.5 142.5,-21.5 142.5,-0.5 79.5,-0.5"/>
<text text-anchor="middle" x="111" y="-8.5" font-family="FreeSans" font-size="10.00">exception</text>
</g>
<!-- Node1&#45;&gt;Node8 -->
<g id="edge128" class="edge"><title>Node1&#45;&gt;Node8</title>
<path fill="none" stroke="midnightblue" d="M199.099,-464.376C156.017,-443.858 107,-409.431 107,-359 107,-359 107,-359 107,-127 107,-93.5779 108.679,-54.7713 109.861,-31.5866"/>
<polygon fill="midnightblue" stroke="midnightblue" points="113.359,-31.7229 110.392,-21.5519 106.369,-31.3529 113.359,-31.7229"/>
</g>
<!-- Node20 -->
<g id="node39" class="node"><title>Node20</title>
<a xlink:href="doublebufferedresource_8h.xhtml" target="_top" xlink:title="This file defines the template double buffered resources that can be attached to a thread...">
<polygon fill="white" stroke="black" points="134.5,-116.5 134.5,-137.5 273.5,-137.5 273.5,-116.5 134.5,-116.5"/>
<text text-anchor="middle" x="204" y="-124.5" font-family="FreeSans" font-size="10.00">doublebufferedresource.h</text>
</a>
</g>
<!-- Node1&#45;&gt;Node20 -->
<g id="edge90" class="edge"><title>Node1&#45;&gt;Node20</title>
<path fill="none" stroke="midnightblue" d="M222.487,-464.364C189.72,-441.875 149,-404.728 149,-359 149,-359 149,-359 149,-243 149,-205.781 172.403,-167.759 188.677,-145.819"/>
<polygon fill="midnightblue" stroke="midnightblue" points="191.592,-147.77 194.918,-137.711 186.045,-143.501 191.592,-147.77"/>
</g>
<!-- Node29 -->
<g id="node75" class="node"><title>Node29</title>
<a xlink:href="monopoly_8h.xhtml" target="_top" xlink:title="Contains an interface for a kind of WorkUnit that consumes time on multiple thread.">
<polygon fill="white" stroke="black" points="227.5,-406.5 227.5,-427.5 298.5,-427.5 298.5,-406.5 227.5,-406.5"/>
<text text-anchor="middle" x="263" y="-414.5" font-family="FreeSans" font-size="10.00">monopoly.h</text>
</a>
</g>
<!-- Node1&#45;&gt;Node29 -->
<g id="edge92" class="edge"><title>Node1&#45;&gt;Node29</title>
<path fill="none" stroke="midnightblue" d="M263,-464.358C263,-455.719 263,-446.022 263,-437.662"/>
<polygon fill="midnightblue" stroke="midnightblue" points="266.5,-437.646 263,-427.646 259.5,-437.646 266.5,-437.646"/>
</g>
<!-- Node32 -->
<g id="node91" class="node"><title>Node32</title>
<a xlink:href="frameschedulerworkunits_8h.xhtml" target="_top" xlink:title="This defines a number of workunits that are required for doing some tasks that the Framescheduler req...">
<polygon fill="white" stroke="black" points="481.5,-406.5 481.5,-427.5 626.5,-427.5 626.5,-406.5 481.5,-406.5"/>
<text text-anchor="middle" x="554" y="-414.5" font-family="FreeSans" font-size="10.00">frameschedulerworkunits.h</text>
</a>
</g>
<!-- Node1&#45;&gt;Node32 -->
<g id="edge118" class="edge"><title>Node1&#45;&gt;Node32</title>
<path fill="none" stroke="midnightblue" d="M332.332,-471.084C384.124,-458.447 453.848,-441.436 501.17,-429.89"/>
<polygon fill="midnightblue" stroke="midnightblue" points="502.029,-433.283 510.914,-427.512 500.369,-426.483 502.029,-433.283"/>
</g>
<!-- Node33 -->
<g id="node98" class="node"><title>Node33</title>
<polygon fill="white" stroke="#bfbfbf" points="643.5,-406.5 643.5,-427.5 702.5,-427.5 702.5,-406.5 643.5,-406.5"/>
<text text-anchor="middle" x="673" y="-414.5" font-family="FreeSans" font-size="10.00">iostream</text>
</g>
<!-- Node1&#45;&gt;Node33 -->
<g id="edge130" class="edge"><title>Node1&#45;&gt;Node33</title>
<path fill="none" stroke="midnightblue" d="M332.042,-479.428C404.894,-469.806 523.141,-452.55 633.27,-428.216"/>
<polygon fill="midnightblue" stroke="midnightblue" points="634.222,-431.589 643.218,-425.993 632.696,-424.758 634.222,-431.589"/>
</g>
<!-- Node3 -->
<g id="node5" class="node"><title>Node3</title>
<a xlink:href="datatypes_8h.xhtml" target="_top" xlink:title="All the definitions for datatypes as well as some basic conversion functions are defined here...">
<polygon fill="white" stroke="black" points="582,-58.5 582,-79.5 656,-79.5 656,-58.5 582,-58.5"/>
<text text-anchor="middle" x="619" y="-66.5" font-family="FreeSans" font-size="10.00">datatypes.h</text>
</a>
</g>
<!-- Node2&#45;&gt;Node3 -->
<g id="edge4" class="edge"><title>Node2&#45;&gt;Node3</title>
<path fill="none" stroke="midnightblue" d="M450.304,-290.303C445.136,-267.35 436.098,-212.352 457,-174 482.209,-127.743 537.533,-98.7058 576.487,-83.1806"/>
<polygon fill="midnightblue" stroke="midnightblue" points="577.93,-86.3757 586.01,-79.5224 575.42,-79.8413 577.93,-86.3757"/>
</g>
<!-- Node11 -->
<g id="node21" class="node"><title>Node11</title>
<polygon fill="white" stroke="#bfbfbf" points="234,-0.5 234,-21.5 272,-21.5 272,-0.5 234,-0.5"/>
<text text-anchor="middle" x="253" y="-8.5" font-family="FreeSans" font-size="10.00">map</text>
</g>
<!-- Node2&#45;&gt;Node11 -->
<g id="edge84" class="edge"><title>Node2&#45;&gt;Node11</title>
<path fill="none" stroke="midnightblue" d="M402.851,-294.774C374.875,-288.78 341.448,-277.028 320,-254 298.321,-230.724 301,-216.808 301,-185 301,-185 301,-185 301,-127 301,-90.5752 280.543,-52.271 266.339,-30.0651"/>
<polygon fill="midnightblue" stroke="midnightblue" points="269.158,-27.9831 260.712,-21.5863 263.325,-31.8538 269.158,-27.9831"/>
</g>
<!-- Node14 -->
<g id="node27" class="node"><title>Node14</title>
<polygon fill="white" stroke="#bfbfbf" points="290,-0.5 290,-21.5 322,-21.5 322,-0.5 290,-0.5"/>
<text text-anchor="middle" x="306" y="-8.5" font-family="FreeSans" font-size="10.00">set</text>
</g>
<!-- Node2&#45;&gt;Node14 -->
<g id="edge86" class="edge"><title>Node2&#45;&gt;Node14</title>
<path fill="none" stroke="midnightblue" d="M447.594,-290.335C425.849,-247.437 344.575,-87.0997 316.007,-30.7412"/>
<polygon fill="midnightblue" stroke="midnightblue" points="319.098,-29.0992 311.455,-21.7622 312.855,-32.2642 319.098,-29.0992"/>
</g>
<!-- Node2&#45;&gt;Node20 -->
<g id="edge38" class="edge"><title>Node2&#45;&gt;Node20</title>
<path fill="none" stroke="midnightblue" d="M402.825,-296.153C367.597,-290.649 320.907,-278.926 287,-254 249.176,-226.194 223.788,-175.547 211.853,-147.342"/>
<polygon fill="midnightblue" stroke="midnightblue" points="214.951,-145.668 207.94,-137.725 208.467,-148.307 214.951,-145.668"/>
</g>
<!-- Node21 -->
<g id="node45" class="node"><title>Node21</title>
<a xlink:href="thread_8h.xhtml" target="_top" xlink:title="This file defines a minimalistic cross&#45;platform thread that the scheduler uses to schedule tasks...">
<polygon fill="white" stroke="black" points="850.5,-232.5 850.5,-253.5 907.5,-253.5 907.5,-232.5 850.5,-232.5"/>
<text text-anchor="middle" x="879" y="-240.5" font-family="FreeSans" font-size="10.00">thread.h</text>
</a>
</g>
<!-- Node2&#45;&gt;Node21 -->
<g id="edge48" class="edge"><title>Node2&#45;&gt;Node21</title>
<path fill="none" stroke="midnightblue" d="M503.12,-294.176C589.035,-282.479 762.647,-258.842 840.13,-248.292"/>
<polygon fill="midnightblue" stroke="midnightblue" points="840.97,-251.71 850.406,-246.893 840.025,-244.774 840.97,-251.71"/>
</g>
<!-- Node22 -->
<g id="node47" class="node"><title>Node22</title>
<a xlink:href="systemcalls_8h.xhtml" target="_top" xlink:title="This file defines a minimalistic cross&#45;platform thread that the scheduler uses to schedule tasks...">
<polygon fill="white" stroke="black" points="540,-174.5 540,-195.5 622,-195.5 622,-174.5 540,-174.5"/>
<text text-anchor="middle" x="581" y="-182.5" font-family="FreeSans" font-size="10.00">systemcalls.h</text>
</a>
</g>
<!-- Node2&#45;&gt;Node22 -->
<g id="edge70" class="edge"><title>Node2&#45;&gt;Node22</title>
<path fill="none" stroke="midnightblue" d="M464.812,-290.295C486.911,-270.268 534.695,-226.964 561.591,-202.589"/>
<polygon fill="midnightblue" stroke="midnightblue" points="564.156,-204.988 569.216,-195.679 559.456,-199.801 564.156,-204.988"/>
</g>
<!-- Node25 -->
<g id="node58" class="node"><title>Node25</title>
<a xlink:href="workunitkey_8h.xhtml" target="_top" xlink:title="This file defines the metadata used to sort workunits.">
<polygon fill="white" stroke="black" points="553,-232.5 553,-253.5 633,-253.5 633,-232.5 553,-232.5"/>
<text text-anchor="middle" x="593" y="-240.5" font-family="FreeSans" font-size="10.00">workunitkey.h</text>
</a>
</g>
<!-- Node2&#45;&gt;Node25 -->
<g id="edge66" class="edge"><title>Node2&#45;&gt;Node25</title>
<path fill="none" stroke="midnightblue" d="M478.353,-290.497C500.613,-281.275 533.212,-267.769 557.963,-257.515"/>
<polygon fill="midnightblue" stroke="midnightblue" points="559.464,-260.682 567.363,-253.621 556.784,-254.215 559.464,-260.682"/>
</g>
<!-- Node26 -->
<g id="node62" class="node"><title>Node26</title>
<a xlink:href="rollingaverage_8h.xhtml" target="_top" xlink:title="This stores the implementation and the declaration of the RollingAverage, BufferedRollingAverage, WeightedRollingAverage and the DefaultRollingAverage.">
<polygon fill="white" stroke="black" points="964.5,-116.5 964.5,-137.5 1057.5,-137.5 1057.5,-116.5 964.5,-116.5"/>
<text text-anchor="middle" x="1011" y="-124.5" font-family="FreeSans" font-size="10.00">rollingaverage.h</text>
</a>
</g>
<!-- Node2&#45;&gt;Node26 -->
<g id="edge72" class="edge"><title>Node2&#45;&gt;Node26</title>
<path fill="none" stroke="midnightblue" d="M503.31,-296.984C619.548,-287.559 898.222,-264.058 916,-254 959.518,-229.379 989.098,-175.786 1002.62,-146.711"/>
<polygon fill="midnightblue" stroke="midnightblue" points="1005.83,-148.094 1006.73,-137.537 999.444,-145.233 1005.83,-148.094"/>
</g>
<!-- Node27 -->
<g id="node66" class="node"><title>Node27</title>
<a xlink:href="barrier_8h.xhtml" target="_top" xlink:title="The declaration of the Mezzanine::Threading::Barrier Barrier synchronization primitive.">
<polygon fill="white" stroke="black" points="466,-174.5 466,-195.5 522,-195.5 522,-174.5 466,-174.5"/>
<text text-anchor="middle" x="494" y="-182.5" font-family="FreeSans" font-size="10.00">barrier.h</text>
</a>
</g>
<!-- Node2&#45;&gt;Node27 -->
<g id="edge78" class="edge"><title>Node2&#45;&gt;Node27</title>
<path fill="none" stroke="midnightblue" d="M456.784,-290.295C463.618,-270.959 478.122,-229.923 486.869,-205.177"/>
<polygon fill="midnightblue" stroke="midnightblue" points="490.193,-206.274 490.225,-195.679 483.593,-203.941 490.193,-206.274"/>
</g>
<!-- Node28 -->
<g id="node72" class="node"><title>Node28</title>
<polygon fill="white" stroke="#bfbfbf" points="329,-232.5 329,-253.5 383,-253.5 383,-232.5 329,-232.5"/>
<text text-anchor="middle" x="356" y="-240.5" font-family="FreeSans" font-size="10.00">fstream</text>
</g>
<!-- Node2&#45;&gt;Node28 -->
<g id="edge88" class="edge"><title>Node2&#45;&gt;Node28</title>
<path fill="none" stroke="midnightblue" d="M435.209,-290.362C420.441,-281.532 399.222,-268.844 382.462,-258.822"/>
<polygon fill="midnightblue" stroke="midnightblue" points="384.057,-255.699 373.679,-253.571 380.465,-261.707 384.057,-255.699"/>
</g>
<!-- Node4 -->
<g id="node7" class="node"><title>Node4</title>
<a xlink:href="crossplatformexport_8h.xhtml" target="_top" xlink:title="This file is used on some platforms to determine what data should be read and written to and from a s...">
<polygon fill="white" stroke="black" points="340,-0.5 340,-21.5 462,-21.5 462,-0.5 340,-0.5"/>
<text text-anchor="middle" x="401" y="-8.5" font-family="FreeSans" font-size="10.00">crossplatformexport.h</text>
</a>
</g>
<!-- Node3&#45;&gt;Node4 -->
<g id="edge6" class="edge"><title>Node3&#45;&gt;Node4</title>
<path fill="none" stroke="midnightblue" d="M581.524,-59.0294C545.275,-49.3852 490.131,-34.7137 450.33,-24.1244"/>
<polygon fill="midnightblue" stroke="midnightblue" points="451.126,-20.7145 440.562,-21.5257 449.326,-27.4792 451.126,-20.7145"/>
</g>
<!-- Node5 -->
<g id="node9" class="node"><title>Node5</title>
<polygon fill="white" stroke="#bfbfbf" points="479.5,-0.5 479.5,-21.5 532.5,-21.5 532.5,-0.5 479.5,-0.5"/>
<text text-anchor="middle" x="506" y="-8.5" font-family="FreeSans" font-size="10.00">stdint.h</text>
</g>
<!-- Node3&#45;&gt;Node5 -->
<g id="edge8" class="edge"><title>Node3&#45;&gt;Node5</title>
<path fill="none" stroke="midnightblue" d="M598.537,-58.4966C580.967,-49.4786 555.418,-36.3649 535.615,-26.2006"/>
<polygon fill="midnightblue" stroke="midnightblue" points="537.188,-23.0738 526.693,-21.6212 533.991,-29.3014 537.188,-23.0738"/>
</g>
<!-- Node6 -->
<g id="node11" class="node"><title>Node6</title>
<polygon fill="white" stroke="#bfbfbf" points="550,-0.5 550,-21.5 602,-21.5 602,-0.5 550,-0.5"/>
<text text-anchor="middle" x="576" y="-8.5" font-family="FreeSans" font-size="10.00">cstddef</text>
</g>
<!-- Node3&#45;&gt;Node6 -->
<g id="edge10" class="edge"><title>Node3&#45;&gt;Node6</title>
<path fill="none" stroke="midnightblue" d="M611.113,-58.3619C605.173,-50.3496 596.878,-39.1605 589.841,-29.6696"/>
<polygon fill="midnightblue" stroke="midnightblue" points="592.604,-27.5193 583.837,-21.5707 586.981,-31.6883 592.604,-27.5193"/>
</g>
<!-- Node3&#45;&gt;Node7 -->
<g id="edge12" class="edge"><title>Node3&#45;&gt;Node7</title>
<path fill="none" stroke="midnightblue" d="M581.813,-68.1505C494.348,-65.6541 268.765,-56.3149 72.2459,-21.9567"/>
<polygon fill="midnightblue" stroke="midnightblue" points="72.7765,-18.4962 62.3187,-20.1951 71.5534,-25.3886 72.7765,-18.4962"/>
</g>
<!-- Node3&#45;&gt;Node8 -->
<g id="edge14" class="edge"><title>Node3&#45;&gt;Node8</title>
<path fill="none" stroke="midnightblue" d="M581.993,-67.4019C504.126,-63.5864 317.606,-52.0671 153.069,-22.1571"/>
<polygon fill="midnightblue" stroke="midnightblue" points="153.234,-18.6284 142.764,-20.2541 151.963,-25.512 153.234,-18.6284"/>
</g>
<!-- Node9 -->
<g id="node17" class="node"><title>Node9</title>
<polygon fill="white" stroke="#bfbfbf" points="619.5,-0.5 619.5,-21.5 672.5,-21.5 672.5,-0.5 619.5,-0.5"/>
<text text-anchor="middle" x="646" y="-8.5" font-family="FreeSans" font-size="10.00">istream</text>
</g>
<!-- Node3&#45;&gt;Node9 -->
<g id="edge16" class="edge"><title>Node3&#45;&gt;Node9</title>
<path fill="none" stroke="midnightblue" d="M623.952,-58.3619C627.53,-50.6766 632.468,-40.0686 636.764,-30.8399"/>
<polygon fill="midnightblue" stroke="midnightblue" points="640.032,-32.1136 641.079,-21.5707 633.686,-29.1594 640.032,-32.1136"/>
</g>
<!-- Node10 -->
<g id="node19" class="node"><title>Node10</title>
<polygon fill="white" stroke="#bfbfbf" points="690,-0.5 690,-21.5 720,-21.5 720,-0.5 690,-0.5"/>
<text text-anchor="middle" x="705" y="-8.5" font-family="FreeSans" font-size="10.00">list</text>
</g>
<!-- Node3&#45;&gt;Node10 -->
<g id="edge18" class="edge"><title>Node3&#45;&gt;Node10</title>
<path fill="none" stroke="midnightblue" d="M634.774,-58.3619C647.785,-49.5872 666.445,-37.0024 681.26,-27.0106"/>
<polygon fill="midnightblue" stroke="midnightblue" points="683.569,-29.6749 689.903,-21.1817 679.655,-23.8714 683.569,-29.6749"/>
</g>
<!-- Node3&#45;&gt;Node11 -->
<g id="edge20" class="edge"><title>Node3&#45;&gt;Node11</title>
<path fill="none" stroke="midnightblue" d="M581.929,-66.7171C520.902,-62.3428 395.533,-50.7611 281.978,-21.7641"/>
<polygon fill="midnightblue" stroke="midnightblue" points="282.64,-18.3199 272.081,-19.1841 280.874,-25.0936 282.64,-18.3199"/>
</g>
<!-- Node12 -->
<g id="node23" class="node"><title>Node12</title>
<polygon fill="white" stroke="#bfbfbf" points="1010,-0.5 1010,-21.5 1054,-21.5 1054,-0.5 1010,-0.5"/>
<text text-anchor="middle" x="1032" y="-8.5" font-family="FreeSans" font-size="10.00">string</text>
</g>
<!-- Node3&#45;&gt;Node12 -->
<g id="edge22" class="edge"><title>Node3&#45;&gt;Node12</title>
<path fill="none" stroke="midnightblue" d="M656.081,-67.1327C723.203,-63.175 869.263,-51.9135 1000.04,-21.8187"/>
<polygon fill="midnightblue" stroke="midnightblue" points="1000.89,-25.2142 1009.82,-19.5237 999.289,-18.3991 1000.89,-25.2142"/>
</g>
<!-- Node13 -->
<g id="node25" class="node"><title>Node13</title>
<polygon fill="white" stroke="#bfbfbf" points="160,-0.5 160,-21.5 216,-21.5 216,-0.5 160,-0.5"/>
<text text-anchor="middle" x="188" y="-8.5" font-family="FreeSans" font-size="10.00">sstream</text>
</g>
<!-- Node3&#45;&gt;Node13 -->
<g id="edge24" class="edge"><title>Node3&#45;&gt;Node13</title>
<path fill="none" stroke="midnightblue" d="M581.998,-66.6957C513.51,-61.9775 362.314,-49.4431 226.334,-21.9974"/>
<polygon fill="midnightblue" stroke="midnightblue" points="226.655,-18.4903 216.156,-19.9087 225.248,-25.3475 226.655,-18.4903"/>
</g>
<!-- Node3&#45;&gt;Node14 -->
<g id="edge26" class="edge"><title>Node3&#45;&gt;Node14</title>
<path fill="none" stroke="midnightblue" d="M581.964,-65.9711C528.325,-60.9359 426.003,-48.8928 331.853,-21.6834"/>
<polygon fill="midnightblue" stroke="midnightblue" points="332.766,-18.3036 322.184,-18.826 330.782,-25.0166 332.766,-18.3036"/>
</g>
<!-- Node15 -->
<g id="node29" class="node"><title>Node15</title>
<polygon fill="white" stroke="#bfbfbf" points="1071.5,-0.5 1071.5,-21.5 1118.5,-21.5 1118.5,-0.5 1071.5,-0.5"/>
<text text-anchor="middle" x="1095" y="-8.5" font-family="FreeSans" font-size="10.00">vector</text>
</g>
<!-- Node3&#45;&gt;Node15 -->
<g id="edge28" class="edge"><title>Node3&#45;&gt;Node15</title>
<path fill="none" stroke="midnightblue" d="M656.294,-67.8866C731.557,-65.035 906.928,-55.3294 1061.27,-22.0049"/>
<polygon fill="midnightblue" stroke="midnightblue" points="1062.39,-25.3423 1071.41,-19.7755 1060.89,-18.5057 1062.39,-25.3423"/>
</g>
<!-- Node16 -->
<g id="node31" class="node"><title>Node16</title>
<polygon fill="white" stroke="#bfbfbf" points="738,-0.5 738,-21.5 780,-21.5 780,-0.5 738,-0.5"/>
<text text-anchor="middle" x="759" y="-8.5" font-family="FreeSans" font-size="10.00">utility</text>
</g>
<!-- Node3&#45;&gt;Node16 -->
<g id="edge30" class="edge"><title>Node3&#45;&gt;Node16</title>
<path fill="none" stroke="midnightblue" d="M644.353,-58.4966C668.004,-48.6982 703.327,-34.0646 728.508,-23.6325"/>
<polygon fill="midnightblue" stroke="midnightblue" points="730.049,-26.7824 737.948,-19.7214 727.37,-20.3154 730.049,-26.7824"/>
</g>
<!-- Node17 -->
<g id="node33" class="node"><title>Node17</title>
<polygon fill="white" stroke="#bfbfbf" points="797.5,-0.5 797.5,-21.5 854.5,-21.5 854.5,-0.5 797.5,-0.5"/>
<text text-anchor="middle" x="826" y="-8.5" font-family="FreeSans" font-size="10.00">memory</text>
</g>
<!-- Node3&#45;&gt;Node17 -->
<g id="edge32" class="edge"><title>Node3&#45;&gt;Node17</title>
<path fill="none" stroke="midnightblue" d="M656.2,-58.9365C688.592,-50.1243 737.063,-36.8206 787.55,-22.386"/>
<polygon fill="midnightblue" stroke="midnightblue" points="788.684,-25.7019 797.333,-19.5819 786.755,-18.9728 788.684,-25.7019"/>
</g>
<!-- Node18 -->
<g id="node35" class="node"><title>Node18</title>
<polygon fill="white" stroke="#bfbfbf" points="935.5,-0.5 935.5,-21.5 992.5,-21.5 992.5,-0.5 935.5,-0.5"/>
<text text-anchor="middle" x="964" y="-8.5" font-family="FreeSans" font-size="10.00">ostream</text>
</g>
<!-- Node3&#45;&gt;Node18 -->
<g id="edge34" class="edge"><title>Node3&#45;&gt;Node18</title>
<path fill="none" stroke="midnightblue" d="M656.287,-64.9887C712.701,-58.5556 823.217,-44.5339 925.544,-22.1158"/>
<polygon fill="midnightblue" stroke="midnightblue" points="926.417,-25.5072 935.419,-19.9201 924.898,-18.6741 926.417,-25.5072"/>
</g>
<!-- Node19 -->
<g id="node37" class="node"><title>Node19</title>
<a xlink:href="swig_8h.xhtml" target="_top" xlink:title="Used to give commands specifically to the SWIG preprocessor.">
<polygon fill="white" stroke="black" points="872,-0.5 872,-21.5 918,-21.5 918,-0.5 872,-0.5"/>
<text text-anchor="middle" x="895" y="-8.5" font-family="FreeSans" font-size="10.00">swig.h</text>
</a>
</g>
<!-- Node3&#45;&gt;Node19 -->
<g id="edge36" class="edge"><title>Node3&#45;&gt;Node19</title>
<path fill="none" stroke="midnightblue" d="M656.157,-63.5132C702.338,-56.3298 783.661,-42.4883 861.706,-22.0879"/>
<polygon fill="midnightblue" stroke="midnightblue" points="862.932,-25.3837 871.698,-19.4344 861.135,-18.6181 862.932,-25.3837"/>
</g>
<!-- Node20&#45;&gt;Node3 -->
<g id="edge40" class="edge"><title>Node20&#45;&gt;Node3</title>
<path fill="none" stroke="midnightblue" d="M273.93,-117.227C358.586,-105.395 498.843,-85.793 571.734,-75.6058"/>
<polygon fill="midnightblue" stroke="midnightblue" points="572.566,-79.0237 581.985,-74.1732 571.597,-72.0911 572.566,-79.0237"/>
</g>
<!-- Node20&#45;&gt;Node7 -->
<g id="edge42" class="edge"><title>Node20&#45;&gt;Node7</title>
<path fill="none" stroke="midnightblue" d="M188.035,-116.295C157.652,-95.9229 91.3471,-51.4639 55.3776,-27.3457"/>
<polygon fill="midnightblue" stroke="midnightblue" points="57.1817,-24.3414 46.9267,-21.6792 53.2832,-30.1554 57.1817,-24.3414"/>
</g>
<!-- Node20&#45;&gt;Node13 -->
<g id="edge44" class="edge"><title>Node20&#45;&gt;Node13</title>
<path fill="none" stroke="midnightblue" d="M202.523,-116.295C199.88,-97.1314 194.297,-56.654 190.875,-31.8434"/>
<polygon fill="midnightblue" stroke="midnightblue" points="194.307,-31.1072 189.473,-21.6792 187.372,-32.0637 194.307,-31.1072"/>
</g>
<!-- Node20&#45;&gt;Node15 -->
<g id="edge46" class="edge"><title>Node20&#45;&gt;Node15</title>
<path fill="none" stroke="midnightblue" d="M273.733,-123.968C419.629,-116.446 767.255,-92.3453 1061.38,-22.0809"/>
<polygon fill="midnightblue" stroke="midnightblue" points="1062.48,-25.4159 1071.38,-19.6688 1060.84,-18.6111 1062.48,-25.4159"/>
</g>
<!-- Node21&#45;&gt;Node15 -->
<g id="edge64" class="edge"><title>Node21&#45;&gt;Node15</title>
<path fill="none" stroke="midnightblue" d="M883.798,-232.232C894.435,-209.142 921.785,-153.892 956,-116 989.614,-78.7737 1038.01,-45.7134 1067.93,-27.0446"/>
<polygon fill="midnightblue" stroke="midnightblue" points="1069.9,-29.9426 1076.59,-21.7241 1066.23,-23.9792 1069.9,-29.9426"/>
</g>
<!-- Node21&#45;&gt;Node18 -->
<g id="edge62" class="edge"><title>Node21&#45;&gt;Node18</title>
<path fill="none" stroke="midnightblue" d="M879.746,-232.367C882.167,-203.024 891.57,-119.054 923,-58 928.483,-47.3483 936.885,-37.1246 944.659,-28.9487"/>
<polygon fill="midnightblue" stroke="midnightblue" points="947.217,-31.3406 951.804,-21.7902 942.262,-26.3956 947.217,-31.3406"/>
</g>
<!-- Node21&#45;&gt;Node22 -->
<g id="edge50" class="edge"><title>Node21&#45;&gt;Node22</title>
<path fill="none" stroke="midnightblue" d="M850.427,-237.439C800.196,-227.662 695.428,-207.271 632.359,-194.996"/>
<polygon fill="midnightblue" stroke="midnightblue" points="632.715,-191.5 622.23,-193.025 631.377,-198.371 632.715,-191.5"/>
</g>
<!-- Node23 -->
<g id="node50" class="node"><title>Node23</title>
<a xlink:href="mutex_8h.xhtml" target="_top" xlink:title="This file declares and defines a mutex that is a partial implementation.">
<polygon fill="white" stroke="black" points="813,-174.5 813,-195.5 869,-195.5 869,-174.5 813,-174.5"/>
<text text-anchor="middle" x="841" y="-182.5" font-family="FreeSans" font-size="10.00">mutex.h</text>
</a>
</g>
<!-- Node21&#45;&gt;Node23 -->
<g id="edge54" class="edge"><title>Node21&#45;&gt;Node23</title>
<path fill="none" stroke="midnightblue" d="M872.03,-232.362C866.834,-224.431 859.599,-213.389 853.422,-203.961"/>
<polygon fill="midnightblue" stroke="midnightblue" points="856.334,-202.017 847.926,-195.571 850.478,-205.853 856.334,-202.017"/>
</g>
<!-- Node22&#45;&gt;Node3 -->
<g id="edge52" class="edge"><title>Node22&#45;&gt;Node3</title>
<path fill="none" stroke="midnightblue" d="M584.507,-174.295C590.813,-155.045 604.164,-114.289 612.282,-89.5091"/>
<polygon fill="midnightblue" stroke="midnightblue" points="615.715,-90.2719 615.502,-79.6792 609.062,-88.0927 615.715,-90.2719"/>
</g>
<!-- Node23&#45;&gt;Node12 -->
<g id="edge60" class="edge"><title>Node23&#45;&gt;Node12</title>
<path fill="none" stroke="midnightblue" d="M845.303,-174.295C855.421,-150.349 882.931,-91.9069 923,-58 935.189,-47.6853 972.564,-32.6356 1000.16,-22.3634"/>
<polygon fill="midnightblue" stroke="midnightblue" points="1001.65,-25.5473 1009.83,-18.8126 999.233,-18.9769 1001.65,-25.5473"/>
</g>
<!-- Node24 -->
<g id="node52" class="node"><title>Node24</title>
<a xlink:href="atomicoperations_8h.xhtml" target="_top" xlink:title="Simple thread safe ways to check and change a specified variable atomically.">
<polygon fill="white" stroke="black" points="685,-116.5 685,-137.5 795,-137.5 795,-116.5 685,-116.5"/>
<text text-anchor="middle" x="740" y="-124.5" font-family="FreeSans" font-size="10.00">atomicoperations.h</text>
</a>
</g>
<!-- Node23&#45;&gt;Node24 -->
<g id="edge56" class="edge"><title>Node23&#45;&gt;Node24</title>
<path fill="none" stroke="midnightblue" d="M822.475,-174.362C807.099,-165.532 785.004,-152.844 767.553,-142.822"/>
<polygon fill="midnightblue" stroke="midnightblue" points="768.822,-139.515 758.408,-137.571 765.336,-145.586 768.822,-139.515"/>
</g>
<!-- Node24&#45;&gt;Node3 -->
<g id="edge58" class="edge"><title>Node24&#45;&gt;Node3</title>
<path fill="none" stroke="midnightblue" d="M718.088,-116.497C699.189,-107.438 671.669,-94.2462 650.424,-84.0628"/>
<polygon fill="midnightblue" stroke="midnightblue" points="651.689,-80.7876 641.158,-79.6212 648.663,-87.0999 651.689,-80.7876"/>
</g>
<!-- Node25&#45;&gt;Node3 -->
<g id="edge68" class="edge"><title>Node25&#45;&gt;Node3</title>
<path fill="none" stroke="midnightblue" d="M605.189,-232.424C614.25,-223.699 625.892,-210.443 631,-196 643.729,-160.009 633.876,-114.906 626.08,-89.2803"/>
<polygon fill="midnightblue" stroke="midnightblue" points="629.347,-88.0088 622.937,-79.5735 622.688,-90.1654 629.347,-88.0088"/>
</g>
<!-- Node26&#45;&gt;Node3 -->
<g id="edge76" class="edge"><title>Node26&#45;&gt;Node3</title>
<path fill="none" stroke="midnightblue" d="M964.493,-120.119C889.339,-108.999 741.989,-87.1974 666.319,-76.0013"/>
<polygon fill="midnightblue" stroke="midnightblue" points="666.537,-72.4955 656.132,-74.4941 665.512,-79.4201 666.537,-72.4955"/>
</g>
<!-- Node26&#45;&gt;Node15 -->
<g id="edge74" class="edge"><title>Node26&#45;&gt;Node15</title>
<path fill="none" stroke="midnightblue" d="M1018.75,-116.295C1033,-96.6135 1063.54,-54.4504 1081.34,-29.8668"/>
<polygon fill="midnightblue" stroke="midnightblue" points="1084.24,-31.8314 1087.27,-21.6792 1078.57,-27.7258 1084.24,-31.8314"/>
</g>
<!-- Node27&#45;&gt;Node3 -->
<g id="edge80" class="edge"><title>Node27&#45;&gt;Node3</title>
<path fill="none" stroke="midnightblue" d="M505.536,-174.295C527.116,-154.268 573.78,-110.964 600.046,-86.5893"/>
<polygon fill="midnightblue" stroke="midnightblue" points="602.543,-89.047 607.492,-79.6792 597.781,-83.916 602.543,-89.047"/>
</g>
<!-- Node27&#45;&gt;Node24 -->
<g id="edge82" class="edge"><title>Node27&#45;&gt;Node24</title>
<path fill="none" stroke="midnightblue" d="M522.227,-176.394C525.181,-175.557 528.147,-174.744 531,-174 580.371,-161.126 636.847,-148.552 678.636,-139.655"/>
<polygon fill="midnightblue" stroke="midnightblue" points="679.603,-143.027 688.66,-137.531 678.152,-136.18 679.603,-143.027"/>
</g>
<!-- Node29&#45;&gt;Node3 -->
<g id="edge94" class="edge"><title>Node29&#45;&gt;Node3</title>
<path fill="none" stroke="midnightblue" d="M263.899,-406.34C266.906,-376.213 278.869,-288.939 320,-232 382.32,-145.729 504.834,-100.19 572.077,-80.7559"/>
<polygon fill="midnightblue" stroke="midnightblue" points="573.303,-84.0469 581.98,-77.9674 571.406,-77.3089 573.303,-84.0469"/>
</g>
<!-- Node29&#45;&gt;Node20 -->
<g id="edge96" class="edge"><title>Node29&#45;&gt;Node20</title>
<path fill="none" stroke="midnightblue" d="M249.762,-406.375C227.987,-387.606 187,-346.263 187,-301 187,-301 187,-301 187,-243 187,-209.416 194.062,-170.935 199.083,-147.821"/>
<polygon fill="midnightblue" stroke="midnightblue" points="202.558,-148.323 201.344,-137.798 195.729,-146.782 202.558,-148.323"/>
</g>
<!-- Node30 -->
<g id="node79" class="node"><title>Node30</title>
<a xlink:href="workunit_8h.xhtml" target="_top" xlink:title="This file has the definition of the workunit.">
<polygon fill="white" stroke="black" points="704.5,-348.5 704.5,-369.5 769.5,-369.5 769.5,-348.5 704.5,-348.5"/>
<text text-anchor="middle" x="737" y="-356.5" font-family="FreeSans" font-size="10.00">workunit.h</text>
</a>
</g>
<!-- Node29&#45;&gt;Node30 -->
<g id="edge98" class="edge"><title>Node29&#45;&gt;Node30</title>
<path fill="none" stroke="midnightblue" d="M298.627,-412.641C384.35,-402.151 601.848,-375.538 694.332,-364.221"/>
<polygon fill="midnightblue" stroke="midnightblue" points="694.953,-367.671 704.454,-362.982 694.103,-360.723 694.953,-367.671"/>
</g>
<!-- Node30&#45;&gt;Node2 -->
<g id="edge102" class="edge"><title>Node30&#45;&gt;Node2</title>
<path fill="none" stroke="midnightblue" d="M704.422,-352.347C657.8,-342.825 571.249,-325.149 512.888,-313.231"/>
<polygon fill="midnightblue" stroke="midnightblue" points="513.554,-309.795 503.056,-311.223 512.153,-316.653 513.554,-309.795"/>
</g>
<!-- Node30&#45;&gt;Node3 -->
<g id="edge100" class="edge"><title>Node30&#45;&gt;Node3</title>
<path fill="none" stroke="midnightblue" d="M745.028,-348.358C751.583,-339.179 760.613,-325.335 766,-312 774.309,-291.432 817.619,-133.511 804,-116 787.239,-94.448 715.408,-81.1681 666.344,-74.4406"/>
<polygon fill="midnightblue" stroke="midnightblue" points="666.621,-70.9468 656.248,-73.1038 665.703,-77.8862 666.621,-70.9468"/>
</g>
<!-- Node30&#45;&gt;Node15 -->
<g id="edge116" class="edge"><title>Node30&#45;&gt;Node15</title>
<path fill="none" stroke="midnightblue" d="M769.577,-351.719C862.637,-329.986 1123,-262.275 1123,-185 1123,-185 1123,-185 1123,-127 1123,-92.6611 1111.26,-54.1606 1102.99,-31.2824"/>
<polygon fill="midnightblue" stroke="midnightblue" points="1106.17,-29.7978 1099.38,-21.6668 1099.61,-32.2589 1106.17,-29.7978"/>
</g>
<!-- Node30&#45;&gt;Node21 -->
<g id="edge112" class="edge"><title>Node30&#45;&gt;Node21</title>
<path fill="none" stroke="midnightblue" d="M769.523,-349.19C790.579,-341.606 817.589,-329.431 837,-312 852.091,-298.449 863.535,-278.187 870.637,-263.122"/>
<polygon fill="midnightblue" stroke="midnightblue" points="873.977,-264.227 874.852,-253.668 867.583,-261.377 873.977,-264.227"/>
</g>
<!-- Node30&#45;&gt;Node23 -->
<g id="edge104" class="edge"><title>Node30&#45;&gt;Node23</title>
<path fill="none" stroke="midnightblue" d="M756.587,-348.446C770.239,-340.176 787.922,-327.492 799,-312 822.403,-279.272 833.365,-232.676 838.008,-205.972"/>
<polygon fill="midnightblue" stroke="midnightblue" points="841.504,-206.271 839.628,-195.843 834.592,-205.165 841.504,-206.271"/>
</g>
<!-- Node30&#45;&gt;Node25 -->
<g id="edge114" class="edge"><title>Node30&#45;&gt;Node25</title>
<path fill="none" stroke="midnightblue" d="M704.348,-355.47C675.443,-350.602 634.194,-339.092 610,-312 598.344,-298.947 594.385,-279.176 593.173,-264.138"/>
<polygon fill="midnightblue" stroke="midnightblue" points="596.651,-263.582 592.699,-253.752 589.658,-263.901 596.651,-263.582"/>
</g>
<!-- Node30&#45;&gt;Node26 -->
<g id="edge106" class="edge"><title>Node30&#45;&gt;Node26</title>
<path fill="none" stroke="midnightblue" d="M769.54,-348.997C794.897,-340.632 830.613,-327.579 860,-312 899.762,-290.921 909.312,-283.84 943,-254 968.916,-231.044 979.032,-226.719 995,-196 1002.79,-181.02 1006.82,-162.261 1008.89,-148.085"/>
<polygon fill="midnightblue" stroke="midnightblue" points="1012.4,-148.215 1010.16,-137.859 1005.46,-147.351 1012.4,-148.215"/>
</g>
<!-- Node31 -->
<g id="node85" class="node"><title>Node31</title>
<a xlink:href="threadingenumerations_8h.xhtml" target="_top" xlink:title="Any enumerations the threading library requires are all declared here.">
<polygon fill="white" stroke="black" points="619,-290.5 619,-311.5 757,-311.5 757,-290.5 619,-290.5"/>
<text text-anchor="middle" x="688" y="-298.5" font-family="FreeSans" font-size="10.00">threadingenumerations.h</text>
</a>
</g>
<!-- Node30&#45;&gt;Node31 -->
<g id="edge108" class="edge"><title>Node30&#45;&gt;Node31</title>
<path fill="none" stroke="midnightblue" d="M728.013,-348.362C721.175,-340.268 711.598,-328.932 703.528,-319.38"/>
<polygon fill="midnightblue" stroke="midnightblue" points="706.058,-316.951 696.93,-311.571 700.71,-321.468 706.058,-316.951"/>
</g>
<!-- Node31&#45;&gt;Node3 -->
<g id="edge110" class="edge"><title>Node31&#45;&gt;Node3</title>
<path fill="none" stroke="midnightblue" d="M686.302,-290.312C681.536,-261.514 666.807,-180.148 643,-116 639.517,-106.616 634.636,-96.6816 630.185,-88.3756"/>
<polygon fill="midnightblue" stroke="midnightblue" points="633.176,-86.5522 625.266,-79.5038 627.054,-89.9466 633.176,-86.5522"/>
</g>
<!-- Node32&#45;&gt;Node3 -->
<g id="edge120" class="edge"><title>Node32&#45;&gt;Node3</title>
<path fill="none" stroke="midnightblue" d="M626.671,-406.679C671.15,-399.16 728.78,-387.243 778,-370 933.121,-315.656 1009.92,-292.5 1066,-138 1069.34,-128.809 1072.54,-123.266 1066,-116 1039.6,-86.6821 775.975,-74.3546 666.388,-70.4693"/>
<polygon fill="midnightblue" stroke="midnightblue" points="666.392,-66.9675 656.277,-70.1194 666.15,-73.9633 666.392,-66.9675"/>
</g>
<!-- Node32&#45;&gt;Node15 -->
<g id="edge126" class="edge"><title>Node32&#45;&gt;Node15</title>
<path fill="none" stroke="midnightblue" d="M626.615,-406.885C787.733,-383.954 1161,-327.923 1161,-301 1161,-301 1161,-301 1161,-127 1161,-88.1687 1132.71,-50.4657 1113.18,-29.0553"/>
<polygon fill="midnightblue" stroke="midnightblue" points="1115.61,-26.5355 1106.2,-21.679 1110.53,-31.3475 1115.61,-26.5355"/>
</g>
<!-- Node32&#45;&gt;Node25 -->
<g id="edge124" class="edge"><title>Node32&#45;&gt;Node25</title>
<path fill="none" stroke="midnightblue" d="M556.381,-406.377C562.703,-378.172 579.997,-301.012 588.356,-263.72"/>
<polygon fill="midnightblue" stroke="midnightblue" points="591.779,-264.451 590.551,-253.928 584.948,-262.92 591.779,-264.451"/>
</g>
<!-- Node32&#45;&gt;Node30 -->
<g id="edge122" class="edge"><title>Node32&#45;&gt;Node30</title>
<path fill="none" stroke="midnightblue" d="M587.14,-406.497C617.29,-396.941 661.948,-382.787 694.671,-372.416"/>
<polygon fill="midnightblue" stroke="midnightblue" points="695.939,-375.685 704.414,-369.328 693.824,-369.013 695.939,-375.685"/>
</g>
</g>
</svg>
        <g id="navigator" transform="translate(0 0)" fill="#404254">
                <rect fill="#f2f5e9" fill-opacity="0.5" stroke="#606060" stroke-width=".5" x="0" y="0" width="60" height="60"/>
                <use id="zoomplus" xlink:href="#zoomPlus" x="17" y="9" onmousedown="handleZoom(evt,'in')"/>
                <use id="zoomminus" xlink:href="#zoomMin" x="42" y="9" onmousedown="handleZoom(evt,'out')"/>
                <use id="reset" xlink:href="#resetDef" x="30" y="36" onmousedown="handleReset()"/>
                <g id="arrowUp" xlink:href="#dirArrow" transform="translate(30 24)" onmousedown="handlePan(0,-1)">
                  <use xlink:href="#rim" fill="#404040">
                        <set attributeName="fill" to="#808080" begin="arrowUp.mouseover" end="arrowUp.mouseout"/>
                  </use>
                  <path fill="none" stroke="white" stroke-width="1.5" d="M0,-3.0v7 M-2.5,-0.5L0,-3.0L2.5,-0.5"/>
                </g>
                <g id="arrowRight" xlink:href="#dirArrow" transform="rotate(90) translate(36 -43)" onmousedown="handlePan(1,0)">
                  <use xlink:href="#rim" fill="#404040">
                        <set attributeName="fill" to="#808080" begin="arrowRight.mouseover" end="arrowRight.mouseout"/>
                  </use>
                  <path fill="none" stroke="white" stroke-width="1.5" d="M0,-3.0v7 M-2.5,-0.5L0,-3.0L2.5,-0.5"/>
                </g>
                <g id="arrowDown" xlink:href="#dirArrow" transform="rotate(180) translate(-30 -48)" onmousedown="handlePan(0,1)">
                  <use xlink:href="#rim" fill="#404040">
                        <set attributeName="fill" to="#808080" begin="arrowDown.mouseover" end="arrowDown.mouseout"/>
                  </use>
                  <path fill="none" stroke="white" stroke-width="1.5" d="M0,-3.0v7 M-2.5,-0.5L0,-3.0L2.5,-0.5"/>
                </g>
                <g id="arrowLeft" xlink:href="#dirArrow" transform="rotate(270) translate(-36 17)" onmousedown="handlePan(-1,0)">
                  <use xlink:href="#rim" fill="#404040">
                        <set attributeName="fill" to="#808080" begin="arrowLeft.mouseover" end="arrowLeft.mouseout"/>
                  </use>
                  <path fill="none" stroke="white" stroke-width="1.5" d="M0,-3.0v7 M-2.5,-0.5L0,-3.0L2.5,-0.5"/>
                </g>
        </g>
        <svg viewBox="0 0 15 15" width="100%" height="30px" preserveAspectRatio="xMaxYMin meet">
         <g id="arrow_out" transform="scale(0.3 0.3)">
          <a xlink:href="framescheduler_8cpp__incl_org.svg" target="_base">
           <rect id="button" ry="5" rx="5" y="6" x="6" height="38" width="38"
                fill="#f2f5e9" fill-opacity="0.5" stroke="#606060" stroke-width="1.0"/>
           <path id="arrow"
             d="M 11.500037,31.436501 C 11.940474,20.09759 22.043105,11.32322 32.158766,21.979434 L 37.068811,17.246167 C 37.068811,17.246167 37.088388,32 37.088388,32 L 22.160133,31.978069 C 22.160133,31.978069 26.997745,27.140456 26.997745,27.140456 C 18.528582,18.264221 13.291696,25.230495 11.500037,31.436501 z"
             style="fill:#404040;"/>
          </a>
         </g>
        </svg>
</svg>
