<?xml version="1.0" encoding="UTF-8" standalone="no"?>
<!DOCTYPE svg PUBLIC "-//W3C//DTD SVG 1.1//EN"
 "http://www.w3.org/Graphics/SVG/1.1/DTD/svg11.dtd">
<!-- Generated by graphviz version 2.26.3 (20100126.1600)
 -->
<!-- Title: /home/sqeaky/Code/Mezzanine/Mezzanine/src/Threading/frameschedulerworkunits.h Pages: 1 -->
<!--zoomable 460 -->
<svg id="main" version="1.1" xmlns="http://www.w3.org/2000/svg" xmlns:xlink="http://www.w3.org/1999/xlink" xml:space="preserve" onload="init(evt)">
        <defs>
                <circle id="rim" cx="0" cy="0" r="7"/>
                <circle id="rim2" cx="0" cy="0" r="3.5"/>
                <g id="zoomPlus">
                        <use xlink:href="#rim" fill="#404040">
                                <set attributeName="fill" to="#808080" begin="zoomplus.mouseover" end="zoomplus.mouseout"/>
                        </use>
                        <path d="M-4,0h8M0,-4v8" fill="none" stroke="white" stroke-width="1.5" pointer-events="none"/>
                </g>
                <g id="zoomMin">
                        <use xlink:href="#rim" fill="#404040">
                                <set attributeName="fill" to="#808080" begin="zoomminus.mouseover" end="zoomminus.mouseout"/>
                        </use>
                        <path d="M-4,0h8" fill="none" stroke="white" stroke-width="1.5" pointer-events="none"/>
                </g>
                <g id="dirArrow">
                        <path fill="none" stroke="white" stroke-width="1.5" d="M0,-3.0v7 M-2.5,-0.5L0,-3.0L2.5,-0.5"/>
                </g>
               <g id="resetDef">
                       <use xlink:href="#rim2" fill="#404040">
                               <set attributeName="fill" to="#808080" begin="reset.mouseover" end="reset.mouseout"/>
                       </use>
               </g>
        </defs>

<script type="text/javascript">
var viewWidth = 1110;
var viewHeight = 460;
var sectionId = 'dynsection-0';
</script>
<script xlink:href="svgpan.js"/>
<svg id="graph" class="graph">
<g id="viewport">
<title>/home/sqeaky/Code/Mezzanine/Mezzanine/src/Threading/frameschedulerworkunits.h</title>
<polygon fill="white" stroke="white" points="-4,5 -4,-456 1107,-456 1107,5 -4,5"/>
<!-- Node1 -->
<g id="node1" class="node"><title>Node1</title>
<polygon fill="#bfbfbf" stroke="black" points="254.5,-407 254.5,-451 405.5,-451 405.5,-407 254.5,-407"/>
<text text-anchor="start" x="262.5" y="-438" font-family="FreeSans" font-size="10.00">/home/sqeaky/Code/Mezzanine</text>
<text text-anchor="start" x="262.5" y="-426" font-family="FreeSans" font-size="10.00">/Mezzanine/src/Threading</text>
<text text-anchor="middle" x="330" y="-414" font-family="FreeSans" font-size="10.00">/frameschedulerworkunits.h</text>
</g>
<!-- Node2 -->
<g id="node3" class="node"><title>Node2</title>
<a xlink:href="datatypes_8h.html" target="_top" xlink:title="All the definitions for datatypes as well as some basic conversion functions are defined here...">
<polygon fill="white" stroke="black" points="557.5,-59 557.5,-79 622.5,-79 622.5,-59 557.5,-59"/>
<text text-anchor="middle" x="590" y="-66" font-family="FreeSans" font-size="10.00">datatypes.h</text>
</a>
</g>
<!-- Node1&#45;&gt;Node2 -->
<g id="edge2" class="edge"><title>Node1&#45;&gt;Node2</title>
<path fill="none" stroke="midnightblue" d="M308.998,-406.941C288.379,-382.889 260,-342.285 260,-301 260,-301 260,-301 260,-185 260,-138.046 297.696,-136.371 340,-116 375.922,-98.7024 485.532,-82.425 547.018,-74.3332"/>
<polygon fill="midnightblue" stroke="midnightblue" points="547.717,-77.7719 557.182,-73.0124 546.815,-70.8303 547.717,-77.7719"/>
</g>
<!-- Node20 -->
<g id="node39" class="node"><title>Node20</title>
<a xlink:href="workunit_8h.html" target="_top" xlink:title="This file has the definition of the workunit.">
<polygon fill="white" stroke="black" points="623,-349 623,-369 683,-369 683,-349 623,-349"/>
<text text-anchor="middle" x="653" y="-356" font-family="FreeSans" font-size="10.00">workunit.h</text>
</a>
</g>
<!-- Node1&#45;&gt;Node20 -->
<g id="edge38" class="edge"><title>Node1&#45;&gt;Node20</title>
<path fill="none" stroke="midnightblue" d="M405.729,-412.588C470.583,-398.533 561.434,-378.844 613.032,-367.662"/>
<polygon fill="midnightblue" stroke="midnightblue" points="613.777,-371.082 622.809,-365.543 612.295,-364.24 613.777,-371.082"/>
</g>
<!-- Node27 -->
<g id="node58" class="node"><title>Node27</title>
<a xlink:href="workunitkey_8h.html" target="_top" xlink:title="This file defines the metadata used to sort workunits.">
<polygon fill="white" stroke="black" points="292.5,-233 292.5,-253 367.5,-253 367.5,-233 292.5,-233"/>
<text text-anchor="middle" x="330" y="-240" font-family="FreeSans" font-size="10.00">workunitkey.h</text>
</a>
</g>
<!-- Node1&#45;&gt;Node27 -->
<g id="edge94" class="edge"><title>Node1&#45;&gt;Node27</title>
<path fill="none" stroke="midnightblue" d="M330,-406.933C330,-370.621 330,-298.79 330,-263.518"/>
<polygon fill="midnightblue" stroke="midnightblue" points="333.5,-263.062 330,-253.062 326.5,-263.062 333.5,-263.062"/>
</g>
<!-- Node3 -->
<g id="node5" class="node"><title>Node3</title>
<a xlink:href="crossplatformexport_8h.html" target="_top" xlink:title="This file is used on some platforms to determine what data should be read and written to and from a s...">
<polygon fill="white" stroke="black" points="0,-1 0,-21 108,-21 108,-1 0,-1"/>
<text text-anchor="middle" x="54" y="-8" font-family="FreeSans" font-size="10.00">crossplatformexport.h</text>
</a>
</g>
<!-- Node2&#45;&gt;Node3 -->
<g id="edge4" class="edge"><title>Node2&#45;&gt;Node3</title>
<path fill="none" stroke="midnightblue" d="M557.216,-66.5808C481.657,-60.8258 289.262,-45.1491 118.194,-22.0867"/>
<polygon fill="midnightblue" stroke="midnightblue" points="118.637,-18.6148 108.256,-20.7352 117.694,-25.5509 118.637,-18.6148"/>
</g>
<!-- Node4 -->
<g id="node7" class="node"><title>Node4</title>
<polygon fill="white" stroke="#bfbfbf" points="125.5,-1 125.5,-21 172.5,-21 172.5,-1 125.5,-1"/>
<text text-anchor="middle" x="149" y="-8" font-family="FreeSans" font-size="10.00">stdint.h</text>
</g>
<!-- Node2&#45;&gt;Node4 -->
<g id="edge6" class="edge"><title>Node2&#45;&gt;Node4</title>
<path fill="none" stroke="midnightblue" d="M557.256,-67.6441C488.923,-64.3031 326.201,-53.6771 182.476,-21.9703"/>
<polygon fill="midnightblue" stroke="midnightblue" points="183.124,-18.5288 172.6,-19.7511 181.59,-25.3585 183.124,-18.5288"/>
</g>
<!-- Node5 -->
<g id="node9" class="node"><title>Node5</title>
<polygon fill="white" stroke="#bfbfbf" points="190,-1 190,-21 238,-21 238,-1 190,-1"/>
<text text-anchor="middle" x="214" y="-8" font-family="FreeSans" font-size="10.00">cstddef</text>
</g>
<!-- Node2&#45;&gt;Node5 -->
<g id="edge8" class="edge"><title>Node2&#45;&gt;Node5</title>
<path fill="none" stroke="midnightblue" d="M557.479,-66.5674C497.81,-61.6714 366.812,-48.916 247.993,-21.8873"/>
<polygon fill="midnightblue" stroke="midnightblue" points="248.534,-18.4201 238.003,-19.5737 246.955,-25.2397 248.534,-18.4201"/>
</g>
<!-- Node6 -->
<g id="node11" class="node"><title>Node6</title>
<polygon fill="white" stroke="#bfbfbf" points="256,-1 256,-21 312,-21 312,-1 256,-1"/>
<text text-anchor="middle" x="284" y="-8" font-family="FreeSans" font-size="10.00">algorithm</text>
</g>
<!-- Node2&#45;&gt;Node6 -->
<g id="edge10" class="edge"><title>Node2&#45;&gt;Node6</title>
<path fill="none" stroke="midnightblue" d="M557.456,-64.5593C508.412,-57.5979 412.506,-42.9397 322.054,-22.0557"/>
<polygon fill="midnightblue" stroke="midnightblue" points="322.726,-18.6183 312.191,-19.7481 321.131,-25.4342 322.726,-18.6183"/>
</g>
<!-- Node7 -->
<g id="node13" class="node"><title>Node7</title>
<polygon fill="white" stroke="#bfbfbf" points="330,-1 330,-21 388,-21 388,-1 330,-1"/>
<text text-anchor="middle" x="359" y="-8" font-family="FreeSans" font-size="10.00">exception</text>
</g>
<!-- Node2&#45;&gt;Node7 -->
<g id="edge12" class="edge"><title>Node2&#45;&gt;Node7</title>
<path fill="none" stroke="midnightblue" d="M557.451,-61.5231C520.951,-53.0401 459.768,-38.527 397.936,-22.1759"/>
<polygon fill="midnightblue" stroke="midnightblue" points="398.574,-18.724 388.01,-19.5366 396.775,-25.489 398.574,-18.724"/>
</g>
<!-- Node8 -->
<g id="node15" class="node"><title>Node8</title>
<polygon fill="white" stroke="#bfbfbf" points="406,-1 406,-21 454,-21 454,-1 406,-1"/>
<text text-anchor="middle" x="430" y="-8" font-family="FreeSans" font-size="10.00">istream</text>
</g>
<!-- Node2&#45;&gt;Node8 -->
<g id="edge14" class="edge"><title>Node2&#45;&gt;Node8</title>
<path fill="none" stroke="midnightblue" d="M562.13,-58.8972C534.819,-48.997 493.152,-33.8925 463.928,-23.2989"/>
<polygon fill="midnightblue" stroke="midnightblue" points="464.748,-19.8734 454.154,-19.7558 462.363,-26.4543 464.748,-19.8734"/>
</g>
<!-- Node9 -->
<g id="node17" class="node"><title>Node9</title>
<polygon fill="white" stroke="#bfbfbf" points="471.5,-1 471.5,-21 500.5,-21 500.5,-1 471.5,-1"/>
<text text-anchor="middle" x="486" y="-8" font-family="FreeSans" font-size="10.00">list</text>
</g>
<!-- Node2&#45;&gt;Node9 -->
<g id="edge16" class="edge"><title>Node2&#45;&gt;Node9</title>
<path fill="none" stroke="midnightblue" d="M571.885,-58.8972C554.559,-49.235 528.345,-34.6156 509.437,-24.0705"/>
<polygon fill="midnightblue" stroke="midnightblue" points="510.995,-20.932 500.557,-19.1181 507.585,-27.0456 510.995,-20.932"/>
</g>
<!-- Node10 -->
<g id="node19" class="node"><title>Node10</title>
<polygon fill="white" stroke="#bfbfbf" points="517.5,-1 517.5,-21 552.5,-21 552.5,-1 517.5,-1"/>
<text text-anchor="middle" x="535" y="-8" font-family="FreeSans" font-size="10.00">map</text>
</g>
<!-- Node2&#45;&gt;Node10 -->
<g id="edge18" class="edge"><title>Node2&#45;&gt;Node10</title>
<path fill="none" stroke="midnightblue" d="M580.42,-58.8972C572.551,-50.5996 561.216,-38.6463 551.838,-28.7569"/>
<polygon fill="midnightblue" stroke="midnightblue" points="554.261,-26.2255 544.841,-21.3776 549.182,-31.0422 554.261,-26.2255"/>
</g>
<!-- Node11 -->
<g id="node21" class="node"><title>Node11</title>
<polygon fill="white" stroke="#bfbfbf" points="570,-1 570,-21 610,-21 610,-1 570,-1"/>
<text text-anchor="middle" x="590" y="-8" font-family="FreeSans" font-size="10.00">string</text>
</g>
<!-- Node2&#45;&gt;Node11 -->
<g id="edge20" class="edge"><title>Node2&#45;&gt;Node11</title>
<path fill="none" stroke="midnightblue" d="M590,-58.8972C590,-51.339 590,-40.7476 590,-31.4458"/>
<polygon fill="midnightblue" stroke="midnightblue" points="593.5,-31.3776 590,-21.3776 586.5,-31.3776 593.5,-31.3776"/>
</g>
<!-- Node12 -->
<g id="node23" class="node"><title>Node12</title>
<polygon fill="white" stroke="#bfbfbf" points="628,-1 628,-21 678,-21 678,-1 628,-1"/>
<text text-anchor="middle" x="653" y="-8" font-family="FreeSans" font-size="10.00">sstream</text>
</g>
<!-- Node2&#45;&gt;Node12 -->
<g id="edge22" class="edge"><title>Node2&#45;&gt;Node12</title>
<path fill="none" stroke="midnightblue" d="M600.974,-58.8972C610.165,-50.4353 623.486,-38.1715 634.348,-28.1719"/>
<polygon fill="midnightblue" stroke="midnightblue" points="636.741,-30.7257 641.728,-21.3776 632,-25.5758 636.741,-30.7257"/>
</g>
<!-- Node13 -->
<g id="node25" class="node"><title>Node13</title>
<polygon fill="white" stroke="#bfbfbf" points="695.5,-1 695.5,-21 744.5,-21 744.5,-1 695.5,-1"/>
<text text-anchor="middle" x="720" y="-8" font-family="FreeSans" font-size="10.00">fstream</text>
</g>
<!-- Node2&#45;&gt;Node13 -->
<g id="edge24" class="edge"><title>Node2&#45;&gt;Node13</title>
<path fill="none" stroke="midnightblue" d="M612.644,-58.8972C633.488,-49.5978 664.623,-35.7066 688.004,-25.2752"/>
<polygon fill="midnightblue" stroke="midnightblue" points="689.473,-28.4524 697.179,-21.1817 686.621,-22.0598 689.473,-28.4524"/>
</g>
<!-- Node14 -->
<g id="node27" class="node"><title>Node14</title>
<polygon fill="white" stroke="#bfbfbf" points="761.5,-1 761.5,-21 790.5,-21 790.5,-1 761.5,-1"/>
<text text-anchor="middle" x="776" y="-8" font-family="FreeSans" font-size="10.00">set</text>
</g>
<!-- Node2&#45;&gt;Node14 -->
<g id="edge26" class="edge"><title>Node2&#45;&gt;Node14</title>
<path fill="none" stroke="midnightblue" d="M622.681,-61.273C653.95,-53.5111 702.489,-40.5017 751.57,-22.1888"/>
<polygon fill="midnightblue" stroke="midnightblue" points="752.957,-25.4059 761.062,-18.582 750.471,-18.8624 752.957,-25.4059"/>
</g>
<!-- Node15 -->
<g id="node29" class="node"><title>Node15</title>
<polygon fill="white" stroke="#bfbfbf" points="807.5,-1 807.5,-21 850.5,-21 850.5,-1 807.5,-1"/>
<text text-anchor="middle" x="829" y="-8" font-family="FreeSans" font-size="10.00">vector</text>
</g>
<!-- Node2&#45;&gt;Node15 -->
<g id="edge28" class="edge"><title>Node2&#45;&gt;Node15</title>
<path fill="none" stroke="midnightblue" d="M622.558,-63.0441C662.017,-55.5294 730.637,-41.5132 797.616,-22.1641"/>
<polygon fill="midnightblue" stroke="midnightblue" points="798.871,-25.4434 807.482,-19.2708 796.901,-18.7263 798.871,-25.4434"/>
</g>
<!-- Node16 -->
<g id="node31" class="node"><title>Node16</title>
<polygon fill="white" stroke="#bfbfbf" points="867.5,-1 867.5,-21 906.5,-21 906.5,-1 867.5,-1"/>
<text text-anchor="middle" x="887" y="-8" font-family="FreeSans" font-size="10.00">utility</text>
</g>
<!-- Node2&#45;&gt;Node16 -->
<g id="edge30" class="edge"><title>Node2&#45;&gt;Node16</title>
<path fill="none" stroke="midnightblue" d="M622.769,-65.4339C672.105,-59.6015 768.391,-46.4171 857.567,-22.0256"/>
<polygon fill="midnightblue" stroke="midnightblue" points="858.592,-25.3732 867.284,-19.3145 856.711,-18.6307 858.592,-25.3732"/>
</g>
<!-- Node17 -->
<g id="node33" class="node"><title>Node17</title>
<polygon fill="white" stroke="#bfbfbf" points="923.5,-1 923.5,-21 974.5,-21 974.5,-1 923.5,-1"/>
<text text-anchor="middle" x="949" y="-8" font-family="FreeSans" font-size="10.00">memory</text>
</g>
<!-- Node2&#45;&gt;Node17 -->
<g id="edge32" class="edge"><title>Node2&#45;&gt;Node17</title>
<path fill="none" stroke="midnightblue" d="M622.628,-66.1265C679.846,-60.6921 802.054,-47.3251 913.115,-22.1754"/>
<polygon fill="midnightblue" stroke="midnightblue" points="914.18,-25.522 923.138,-19.866 912.608,-18.7007 914.18,-25.522"/>
</g>
<!-- Node18 -->
<g id="node35" class="node"><title>Node18</title>
<polygon fill="white" stroke="#bfbfbf" points="991.5,-1 991.5,-21 1042.5,-21 1042.5,-1 991.5,-1"/>
<text text-anchor="middle" x="1017" y="-8" font-family="FreeSans" font-size="10.00">ostream</text>
</g>
<!-- Node2&#45;&gt;Node18 -->
<g id="edge34" class="edge"><title>Node2&#45;&gt;Node18</title>
<path fill="none" stroke="midnightblue" d="M622.706,-67.2368C688.965,-63.207 843.796,-51.4658 981.286,-22.0798"/>
<polygon fill="midnightblue" stroke="midnightblue" points="982.126,-25.4789 991.154,-19.9334 980.638,-18.6389 982.126,-25.4789"/>
</g>
<!-- Node19 -->
<g id="node37" class="node"><title>Node19</title>
<a xlink:href="swig_8h.html" target="_top" xlink:title="Used to give commands specifically to the SWIG preprocessor.">
<polygon fill="white" stroke="black" points="1059.5,-1 1059.5,-21 1102.5,-21 1102.5,-1 1059.5,-1"/>
<text text-anchor="middle" x="1081" y="-8" font-family="FreeSans" font-size="10.00">swig.h</text>
</a>
</g>
<!-- Node2&#45;&gt;Node19 -->
<g id="edge36" class="edge"><title>Node2&#45;&gt;Node19</title>
<path fill="none" stroke="midnightblue" d="M622.59,-68.4598C697.132,-66.636 885.674,-58.6817 1049.48,-21.926"/>
<polygon fill="midnightblue" stroke="midnightblue" points="1050.27,-25.3357 1059.24,-19.6949 1048.71,-18.5118 1050.27,-25.3357"/>
</g>
<!-- Node20&#45;&gt;Node2 -->
<g id="edge40" class="edge"><title>Node20&#45;&gt;Node2</title>
<path fill="none" stroke="midnightblue" d="M683.1,-356.399C736.758,-351.16 845.869,-337.595 873,-312 896.137,-290.173 892,-274.808 892,-243 892,-243 892,-243 892,-185 892,-134.244 847.051,-137.341 801,-116 746.149,-90.5805 676.782,-78.5416 632.886,-73.1087"/>
<polygon fill="midnightblue" stroke="midnightblue" points="633.181,-69.6194 622.84,-71.926 632.363,-76.5714 633.181,-69.6194"/>
</g>
<!-- Node21 -->
<g id="node42" class="node"><title>Node21</title>
<a xlink:href="framescheduler_8h.html" target="_top" xlink:title="This file has the Declarations for the main FrameScheduler class.">
<polygon fill="white" stroke="black" points="487,-291 487,-311 577,-311 577,-291 487,-291"/>
<text text-anchor="middle" x="532" y="-298" font-family="FreeSans" font-size="10.00">framescheduler.h</text>
</a>
</g>
<!-- Node20&#45;&gt;Node21 -->
<g id="edge42" class="edge"><title>Node20&#45;&gt;Node21</title>
<path fill="none" stroke="midnightblue" d="M631.923,-348.897C612.695,-339.68 584.058,-325.953 562.363,-315.554"/>
<polygon fill="midnightblue" stroke="midnightblue" points="563.771,-312.348 553.241,-311.182 560.746,-318.66 563.771,-312.348"/>
</g>
<!-- Node23 -->
<g id="node48" class="node"><title>Node23</title>
<a xlink:href="thread_8h.html" target="_top" xlink:title="This file defines a minimalistic cross&#45;platform thread that the scheduler uses to schedule tasks...">
<polygon fill="white" stroke="black" points="597.5,-233 597.5,-253 648.5,-253 648.5,-233 597.5,-233"/>
<text text-anchor="middle" x="623" y="-240" font-family="FreeSans" font-size="10.00">thread.h</text>
</a>
</g>
<!-- Node20&#45;&gt;Node23 -->
<g id="edge90" class="edge"><title>Node20&#45;&gt;Node23</title>
<path fill="none" stroke="midnightblue" d="M650.338,-348.706C645.366,-329.482 634.593,-287.825 628.154,-262.929"/>
<polygon fill="midnightblue" stroke="midnightblue" points="631.506,-261.911 625.613,-253.106 624.729,-263.663 631.506,-261.911"/>
</g>
<!-- Node25 -->
<g id="node53" class="node"><title>Node25</title>
<a xlink:href="mutex_8h.html" target="_top" xlink:title="Declares a Mutex, Mutex tools.">
<polygon fill="white" stroke="black" points="680,-175 680,-195 730,-195 730,-175 680,-175"/>
<text text-anchor="middle" x="705" y="-182" font-family="FreeSans" font-size="10.00">mutex.h</text>
</a>
</g>
<!-- Node20&#45;&gt;Node25 -->
<g id="edge82" class="edge"><title>Node20&#45;&gt;Node25</title>
<path fill="none" stroke="midnightblue" d="M656.021,-348.893C664.385,-320.903 687.966,-241.999 699.073,-204.832"/>
<polygon fill="midnightblue" stroke="midnightblue" points="702.461,-205.718 701.971,-195.135 695.754,-203.714 702.461,-205.718"/>
</g>
<!-- Node20&#45;&gt;Node27 -->
<g id="edge92" class="edge"><title>Node20&#45;&gt;Node27</title>
<path fill="none" stroke="midnightblue" d="M622.784,-352.569C587.507,-344.677 527.659,-330.088 478,-312 434.922,-296.309 387.209,-272.907 357.907,-257.798"/>
<polygon fill="midnightblue" stroke="midnightblue" points="359.196,-254.523 348.709,-253.015 355.967,-260.734 359.196,-254.523"/>
</g>
<!-- Node29 -->
<g id="node65" class="node"><title>Node29</title>
<a xlink:href="rollingaverage_8h.html" target="_top" xlink:title="This stores the implementation and the declaration of the RollingAverage, BufferedRollingAverage, WeightedRollingAverage and the DefaultRollingAverage.">
<polygon fill="white" stroke="black" points="703.5,-233 703.5,-253 786.5,-253 786.5,-233 703.5,-233"/>
<text text-anchor="middle" x="745" y="-240" font-family="FreeSans" font-size="10.00">rollingaverage.h</text>
</a>
</g>
<!-- Node20&#45;&gt;Node29 -->
<g id="edge84" class="edge"><title>Node20&#45;&gt;Node29</title>
<path fill="none" stroke="midnightblue" d="M661.164,-348.706C676.821,-328.965 711.24,-285.567 730.758,-260.957"/>
<polygon fill="midnightblue" stroke="midnightblue" points="733.514,-263.115 736.985,-253.106 728.029,-258.766 733.514,-263.115"/>
</g>
<!-- Node31 -->
<g id="node74" class="node"><title>Node31</title>
<a xlink:href="threadingenumerations_8h.html" target="_top" xlink:title="Any enumerations the threading library requires are all declared here.">
<polygon fill="white" stroke="black" points="742,-291 742,-311 864,-311 864,-291 742,-291"/>
<text text-anchor="middle" x="803" y="-298" font-family="FreeSans" font-size="10.00">threadingenumerations.h</text>
</a>
</g>
<!-- Node20&#45;&gt;Node31 -->
<g id="edge86" class="edge"><title>Node20&#45;&gt;Node31</title>
<path fill="none" stroke="midnightblue" d="M679.128,-348.897C703.573,-339.445 740.288,-325.249 767.405,-314.764"/>
<polygon fill="midnightblue" stroke="midnightblue" points="768.855,-317.955 776.92,-311.084 766.331,-311.426 768.855,-317.955"/>
</g>
<!-- Node21&#45;&gt;Node2 -->
<g id="edge44" class="edge"><title>Node21&#45;&gt;Node2</title>
<path fill="none" stroke="midnightblue" d="M508.179,-290.887C447.664,-263.825 296.806,-186.985 355,-116 378.813,-86.9523 485.934,-75.4993 547.004,-71.2716"/>
<polygon fill="midnightblue" stroke="midnightblue" points="547.366,-74.7554 557.115,-70.6084 546.908,-67.7704 547.366,-74.7554"/>
</g>
<!-- Node22 -->
<g id="node45" class="node"><title>Node22</title>
<a xlink:href="doublebufferedresource_8h.html" target="_top" xlink:title="This file defines the template double buffered resources that can be attached to a thread...">
<polygon fill="white" stroke="black" points="439.5,-117 439.5,-137 562.5,-137 562.5,-117 439.5,-117"/>
<text text-anchor="middle" x="501" y="-124" font-family="FreeSans" font-size="10.00">doublebufferedresource.h</text>
</a>
</g>
<!-- Node21&#45;&gt;Node22 -->
<g id="edge46" class="edge"><title>Node21&#45;&gt;Node22</title>
<path fill="none" stroke="midnightblue" d="M529.792,-290.897C525.752,-272.218 517.03,-230.991 511,-196 508.206,-179.785 505.559,-161.335 503.692,-147.595"/>
<polygon fill="midnightblue" stroke="midnightblue" points="507.112,-146.764 502.32,-137.314 500.173,-147.69 507.112,-146.764"/>
</g>
<!-- Node21&#45;&gt;Node23 -->
<g id="edge50" class="edge"><title>Node21&#45;&gt;Node23</title>
<path fill="none" stroke="midnightblue" d="M547.851,-290.897C561.728,-282.052 582.122,-269.054 598.165,-258.829"/>
<polygon fill="midnightblue" stroke="midnightblue" points="600.474,-261.508 607.025,-253.182 596.711,-255.605 600.474,-261.508"/>
</g>
<!-- Node24 -->
<g id="node50" class="node"><title>Node24</title>
<a xlink:href="systemcalls_8h.html" target="_top" xlink:title="This file defines a minimalistic cross&#45;platform thread that the scheduler uses to schedule tasks...">
<polygon fill="white" stroke="black" points="588,-175 588,-195 662,-195 662,-175 588,-175"/>
<text text-anchor="middle" x="625" y="-182" font-family="FreeSans" font-size="10.00">systemcalls.h</text>
</a>
</g>
<!-- Node21&#45;&gt;Node24 -->
<g id="edge70" class="edge"><title>Node21&#45;&gt;Node24</title>
<path fill="none" stroke="midnightblue" d="M540.253,-290.706C556.08,-270.965 590.873,-227.567 610.603,-202.957"/>
<polygon fill="midnightblue" stroke="midnightblue" points="613.374,-205.097 616.898,-195.106 607.912,-200.718 613.374,-205.097"/>
</g>
<!-- Node21&#45;&gt;Node27 -->
<g id="edge62" class="edge"><title>Node21&#45;&gt;Node27</title>
<path fill="none" stroke="midnightblue" d="M496.814,-290.897C463.028,-281.196 411.838,-266.498 375.08,-255.944"/>
<polygon fill="midnightblue" stroke="midnightblue" points="375.698,-252.48 365.121,-253.084 373.766,-259.208 375.698,-252.48"/>
</g>
<!-- Node28 -->
<g id="node61" class="node"><title>Node28</title>
<a xlink:href="spinlock_8h.html" target="_top" xlink:title="Declares a Mutex, Mutex tools, and at least one MutexLike object.">
<polygon fill="white" stroke="black" points="363.5,-117 363.5,-137 422.5,-137 422.5,-117 363.5,-117"/>
<text text-anchor="middle" x="393" y="-124" font-family="FreeSans" font-size="10.00">spinlock.h</text>
</a>
</g>
<!-- Node21&#45;&gt;Node28 -->
<g id="edge66" class="edge"><title>Node21&#45;&gt;Node28</title>
<path fill="none" stroke="midnightblue" d="M523.926,-290.893C501.182,-262.422 436.357,-181.275 407.344,-144.955"/>
<polygon fill="midnightblue" stroke="midnightblue" points="410.072,-142.764 401.096,-137.135 404.603,-147.133 410.072,-142.764"/>
</g>
<!-- Node21&#45;&gt;Node29 -->
<g id="edge72" class="edge"><title>Node21&#45;&gt;Node29</title>
<path fill="none" stroke="midnightblue" d="M569.102,-290.897C604.88,-281.155 659.167,-266.372 697.962,-255.809"/>
<polygon fill="midnightblue" stroke="midnightblue" points="699.238,-259.089 707.967,-253.084 697.398,-252.335 699.238,-259.089"/>
</g>
<!-- Node30 -->
<g id="node68" class="node"><title>Node30</title>
<a xlink:href="barrier_8h.html" target="_top" xlink:title="The declaration of the Mezzanine::Threading::Barrier Barrier synchronization primitive.">
<polygon fill="white" stroke="black" points="519.5,-175 519.5,-195 570.5,-195 570.5,-175 519.5,-175"/>
<text text-anchor="middle" x="545" y="-182" font-family="FreeSans" font-size="10.00">barrier.h</text>
</a>
</g>
<!-- Node21&#45;&gt;Node30 -->
<g id="edge76" class="edge"><title>Node21&#45;&gt;Node30</title>
<path fill="none" stroke="midnightblue" d="M533.154,-290.706C535.298,-271.568 539.935,-230.198 542.729,-205.265"/>
<polygon fill="midnightblue" stroke="midnightblue" points="546.232,-205.433 543.867,-195.106 539.275,-204.653 546.232,-205.433"/>
</g>
<!-- Node22&#45;&gt;Node2 -->
<g id="edge48" class="edge"><title>Node22&#45;&gt;Node2</title>
<path fill="none" stroke="midnightblue" d="M516.503,-116.897C530.075,-108.052 550.021,-95.0539 565.711,-84.829"/>
<polygon fill="midnightblue" stroke="midnightblue" points="567.909,-87.5738 574.376,-79.1817 564.087,-81.7092 567.909,-87.5738"/>
</g>
<!-- Node23&#45;&gt;Node24 -->
<g id="edge52" class="edge"><title>Node23&#45;&gt;Node24</title>
<path fill="none" stroke="midnightblue" d="M623.348,-232.897C623.609,-225.339 623.974,-214.748 624.295,-205.446"/>
<polygon fill="midnightblue" stroke="midnightblue" points="627.795,-205.492 624.642,-195.378 620.8,-205.251 627.795,-205.492"/>
</g>
<!-- Node23&#45;&gt;Node25 -->
<g id="edge56" class="edge"><title>Node23&#45;&gt;Node25</title>
<path fill="none" stroke="midnightblue" d="M637.283,-232.897C649.671,-224.135 667.822,-211.297 682.215,-201.116"/>
<polygon fill="midnightblue" stroke="midnightblue" points="684.462,-203.814 690.605,-195.182 680.42,-198.099 684.462,-203.814"/>
</g>
<!-- Node24&#45;&gt;Node2 -->
<g id="edge54" class="edge"><title>Node24&#45;&gt;Node2</title>
<path fill="none" stroke="midnightblue" d="M621.894,-174.706C616.094,-155.482 603.525,-113.825 596.013,-88.9294"/>
<polygon fill="midnightblue" stroke="midnightblue" points="599.289,-87.6682 593.049,-79.1055 592.587,-89.6903 599.289,-87.6682"/>
</g>
<!-- Node26 -->
<g id="node55" class="node"><title>Node26</title>
<a xlink:href="atomicoperations_8h.html" target="_top" xlink:title="Simple thread safe ways to check and change a specified variable atomically.">
<polygon fill="white" stroke="black" points="656,-117 656,-137 754,-137 754,-117 656,-117"/>
<text text-anchor="middle" x="705" y="-124" font-family="FreeSans" font-size="10.00">atomicoperations.h</text>
</a>
</g>
<!-- Node25&#45;&gt;Node26 -->
<g id="edge58" class="edge"><title>Node25&#45;&gt;Node26</title>
<path fill="none" stroke="midnightblue" d="M705,-174.897C705,-167.339 705,-156.748 705,-147.446"/>
<polygon fill="midnightblue" stroke="midnightblue" points="708.5,-147.378 705,-137.378 701.5,-147.378 708.5,-147.378"/>
</g>
<!-- Node26&#45;&gt;Node2 -->
<g id="edge60" class="edge"><title>Node26&#45;&gt;Node2</title>
<path fill="none" stroke="midnightblue" d="M684.969,-116.897C666.776,-107.722 639.72,-94.0762 619.135,-83.6943"/>
<polygon fill="midnightblue" stroke="midnightblue" points="620.693,-80.5598 610.188,-79.1817 617.54,-86.8099 620.693,-80.5598"/>
</g>
<!-- Node27&#45;&gt;Node2 -->
<g id="edge64" class="edge"><title>Node27&#45;&gt;Node2</title>
<path fill="none" stroke="midnightblue" d="M328.59,-232.722C325.914,-208.634 322.951,-148.146 355,-116 381.45,-89.4696 486.974,-77.0073 547.235,-71.949"/>
<polygon fill="midnightblue" stroke="midnightblue" points="547.529,-75.4368 557.215,-71.1442 546.966,-68.4594 547.529,-75.4368"/>
</g>
<!-- Node28&#45;&gt;Node2 -->
<g id="edge68" class="edge"><title>Node28&#45;&gt;Node2</title>
<path fill="none" stroke="midnightblue" d="M422.92,-118.191C456.218,-108.388 510.274,-92.4726 547.847,-81.4104"/>
<polygon fill="midnightblue" stroke="midnightblue" points="548.894,-84.7508 557.499,-78.5689 546.917,-78.0357 548.894,-84.7508"/>
</g>
<!-- Node29&#45;&gt;Node2 -->
<g id="edge74" class="edge"><title>Node29&#45;&gt;Node2</title>
<path fill="none" stroke="midnightblue" d="M750.9,-232.857C763.585,-209.571 790.187,-151.558 763,-116 747.227,-95.3698 678.504,-81.6641 632.567,-74.6216"/>
<polygon fill="midnightblue" stroke="midnightblue" points="632.973,-71.1437 622.568,-73.138 631.946,-78.0679 632.973,-71.1437"/>
</g>
<!-- Node30&#45;&gt;Node2 -->
<g id="edge78" class="edge"><title>Node30&#45;&gt;Node2</title>
<path fill="none" stroke="midnightblue" d="M551.512,-174.895C557.272,-165.606 565.58,-151.299 571,-138 577.512,-122.021 582.55,-103.073 585.797,-89.0794"/>
<polygon fill="midnightblue" stroke="midnightblue" points="589.269,-89.5905 588.011,-79.0706 582.434,-88.0786 589.269,-89.5905"/>
</g>
<!-- Node30&#45;&gt;Node26 -->
<g id="edge80" class="edge"><title>Node30&#45;&gt;Node26</title>
<path fill="none" stroke="midnightblue" d="M570.707,-175.681C596.897,-166.187 637.787,-151.365 667.57,-140.568"/>
<polygon fill="midnightblue" stroke="midnightblue" points="668.999,-143.773 677.207,-137.075 666.613,-137.192 668.999,-143.773"/>
</g>
<!-- Node31&#45;&gt;Node2 -->
<g id="edge88" class="edge"><title>Node31&#45;&gt;Node2</title>
<path fill="none" stroke="midnightblue" d="M805.394,-290.597C811.853,-259.639 826.247,-167.091 781,-116 761.619,-94.116 682.736,-80.4818 632.605,-73.8507"/>
<polygon fill="midnightblue" stroke="midnightblue" points="633.046,-70.3786 622.682,-72.5795 632.156,-77.3219 633.046,-70.3786"/>
</g>
</g>
</svg>
        <g id="navigator" transform="translate(0 0)" fill="#404254">
                <rect fill="#f2f5e9" fill-opacity="0.5" stroke="#606060" stroke-width=".5" x="0" y="0" width="60" height="60"/>
                <use id="zoomplus" xlink:href="#zoomPlus" x="17" y="9" onmousedown="handleZoom(evt,'in')"/>
                <use id="zoomminus" xlink:href="#zoomMin" x="42" y="9" onmousedown="handleZoom(evt,'out')"/>
                <use id="reset" xlink:href="#resetDef" x="30" y="36" onmousedown="handleReset()"/>
                <g id="arrowUp" xlink:href="#dirArrow" transform="translate(30 24)" onmousedown="handlePan(0,-1)">
                  <use xlink:href="#rim" fill="#404040">
                        <set attributeName="fill" to="#808080" begin="arrowUp.mouseover" end="arrowUp.mouseout"/>
                  </use>
                  <path fill="none" stroke="white" stroke-width="1.5" d="M0,-3.0v7 M-2.5,-0.5L0,-3.0L2.5,-0.5"/>
                </g>
                <g id="arrowRight" xlink:href="#dirArrow" transform="rotate(90) translate(36 -43)" onmousedown="handlePan(1,0)">
                  <use xlink:href="#rim" fill="#404040">
                        <set attributeName="fill" to="#808080" begin="arrowRight.mouseover" end="arrowRight.mouseout"/>
                  </use>
                  <path fill="none" stroke="white" stroke-width="1.5" d="M0,-3.0v7 M-2.5,-0.5L0,-3.0L2.5,-0.5"/>
                </g>
                <g id="arrowDown" xlink:href="#dirArrow" transform="rotate(180) translate(-30 -48)" onmousedown="handlePan(0,1)">
                  <use xlink:href="#rim" fill="#404040">
                        <set attributeName="fill" to="#808080" begin="arrowDown.mouseover" end="arrowDown.mouseout"/>
                  </use>
                  <path fill="none" stroke="white" stroke-width="1.5" d="M0,-3.0v7 M-2.5,-0.5L0,-3.0L2.5,-0.5"/>
                </g>
                <g id="arrowLeft" xlink:href="#dirArrow" transform="rotate(270) translate(-36 17)" onmousedown="handlePan(-1,0)">
                  <use xlink:href="#rim" fill="#404040">
                        <set attributeName="fill" to="#808080" begin="arrowLeft.mouseover" end="arrowLeft.mouseout"/>
                  </use>
                  <path fill="none" stroke="white" stroke-width="1.5" d="M0,-3.0v7 M-2.5,-0.5L0,-3.0L2.5,-0.5"/>
                </g>
        </g>
        <svg viewBox="0 0 15 15" width="100%" height="30px" preserveAspectRatio="xMaxYMin meet">
         <g id="arrow_out" transform="scale(0.3 0.3)">
          <a xlink:href="frameschedulerworkunits_8h__incl_org.svg" target="_base">
           <rect id="button" ry="5" rx="5" y="6" x="6" height="38" width="38"
                fill="#f2f5e9" fill-opacity="0.5" stroke="#606060" stroke-width="1.0"/>
           <path id="arrow"
             d="M 11.500037,31.436501 C 11.940474,20.09759 22.043105,11.32322 32.158766,21.979434 L 37.068811,17.246167 C 37.068811,17.246167 37.088388,32 37.088388,32 L 22.160133,31.978069 C 22.160133,31.978069 26.997745,27.140456 26.997745,27.140456 C 18.528582,18.264221 13.291696,25.230495 11.500037,31.436501 z"
             style="fill:#404040;"/>
          </a>
         </g>
        </svg>
</svg>
