<?xml version="1.0" encoding="UTF-8" standalone="no"?>
<!DOCTYPE svg PUBLIC "-//W3C//DTD SVG 1.1//EN"
 "http://www.w3.org/Graphics/SVG/1.1/DTD/svg11.dtd">
<!-- Generated by graphviz version 2.26.3 (20100126.1600)
 -->
<!-- Title: Graphical Class Hierarchy Pages: 1 -->
<svg width="346pt" height="718pt"
 viewBox="0.00 0.00 346.00 718.00" xmlns="http://www.w3.org/2000/svg" xmlns:xlink="http://www.w3.org/1999/xlink">
<g id="graph1" class="graph" transform="scale(1 1) rotate(0) translate(4 714)">
<title>Graphical Class Hierarchy</title>
<polygon fill="white" stroke="white" points="-4,5 -4,-714 343,-714 343,5 -4,5"/>
<!-- Node1 -->
<g id="node1" class="node"><title>Node1</title>
<a xlink:href="classMezzanine_1_1UI_1_1WidgetFactory.html" target="_top" xlink:title="This is a base class for factories that construct the widgets available to the UI subsystem...">
<polygon fill="white" stroke="black" points="0.5,-348 0.5,-368 143.5,-368 143.5,-348 0.5,-348"/>
<text text-anchor="middle" x="72" y="-355" font-family="FreeSans" font-size="10.00">Mezzanine::UI::WidgetFactory</text>
</a>
</g>
<!-- Node2 -->
<g id="node3" class="node"><title>Node2</title>
<a xlink:href="classMezzanine_1_1UI_1_1ButtonFactory.html" target="_top" xlink:title="This is the factory implementation for Button widgets. ">
<polygon fill="white" stroke="black" points="188,-690 188,-710 330,-710 330,-690 188,-690"/>
<text text-anchor="middle" x="259" y="-697" font-family="FreeSans" font-size="10.00">Mezzanine::UI::ButtonFactory</text>
</a>
</g>
<!-- Node1&#45;&gt;Node2 -->
<g id="edge2" class="edge"><title>Node1&#45;&gt;Node2</title>
<path fill="none" stroke="midnightblue" d="M76.0628,-378.071C89.3651,-441.866 133.439,-638.309 180,-681 183.847,-684.527 188.232,-687.432 192.92,-689.82"/>
<polygon fill="midnightblue" stroke="midnightblue" points="79.4499,-377.165 74.0057,-368.076 72.5936,-378.576 79.4499,-377.165"/>
</g>
<!-- Node3 -->
<g id="node5" class="node"><title>Node3</title>
<a xlink:href="classMezzanine_1_1UI_1_1CheckBoxFactory.html" target="_top" xlink:title="This is the factory implementation for CheckBox widgets. ">
<polygon fill="white" stroke="black" points="180,-652 180,-672 338,-672 338,-652 180,-652"/>
<text text-anchor="middle" x="259" y="-659" font-family="FreeSans" font-size="10.00">Mezzanine::UI::CheckBoxFactory</text>
</a>
</g>
<!-- Node1&#45;&gt;Node3 -->
<g id="edge4" class="edge"><title>Node1&#45;&gt;Node3</title>
<path fill="none" stroke="midnightblue" d="M73.3985,-378.204C78.1427,-430.454 98.261,-570.977 180,-643 184.022,-646.544 188.59,-649.454 193.455,-651.841"/>
<polygon fill="midnightblue" stroke="midnightblue" points="76.8833,-377.873 72.5843,-368.19 69.9063,-378.441 76.8833,-377.873"/>
</g>
<!-- Node4 -->
<g id="node7" class="node"><title>Node4</title>
<a xlink:href="classMezzanine_1_1UI_1_1DropDownListFactory.html" target="_top" xlink:title="This is the factory implementation for DropDownList widgets. ">
<polygon fill="white" stroke="black" points="189,-602 189,-634 329,-634 329,-602 189,-602"/>
<text text-anchor="start" x="197" y="-621" font-family="FreeSans" font-size="10.00">Mezzanine::UI::DropDownList</text>
<text text-anchor="middle" x="259" y="-609" font-family="FreeSans" font-size="10.00">Factory</text>
</a>
</g>
<!-- Node1&#45;&gt;Node4 -->
<g id="edge6" class="edge"><title>Node1&#45;&gt;Node4</title>
<path fill="none" stroke="midnightblue" d="M75.5723,-378.252C84.616,-423.514 112.663,-533.553 180,-593 183.882,-596.427 188.235,-599.385 192.849,-601.938"/>
<polygon fill="midnightblue" stroke="midnightblue" points="78.9703,-377.384 73.6702,-368.211 72.0926,-378.687 78.9703,-377.384"/>
</g>
<!-- Node5 -->
<g id="node9" class="node"><title>Node5</title>
<a xlink:href="classMezzanine_1_1UI_1_1EditBoxFactory.html" target="_top" xlink:title="This is the factory implementation for EditBox widgets. ">
<polygon fill="white" stroke="black" points="186,-564 186,-584 332,-584 332,-564 186,-564"/>
<text text-anchor="middle" x="259" y="-571" font-family="FreeSans" font-size="10.00">Mezzanine::UI::EditBoxFactory</text>
</a>
</g>
<!-- Node1&#45;&gt;Node5 -->
<g id="edge8" class="edge"><title>Node1&#45;&gt;Node5</title>
<path fill="none" stroke="midnightblue" d="M77.0754,-377.981C88.3468,-418.121 119.386,-508.665 180,-555 184.707,-558.598 189.996,-561.527 195.549,-563.909"/>
<polygon fill="midnightblue" stroke="midnightblue" points="80.3885,-376.823 74.4124,-368.074 73.6285,-378.64 80.3885,-376.823"/>
</g>
<!-- Node6 -->
<g id="node11" class="node"><title>Node6</title>
<a xlink:href="classMezzanine_1_1UI_1_1GenericWidgetFactory.html" target="_top" xlink:title="This is the factory implementation for generic widgets. ">
<polygon fill="white" stroke="black" points="186.5,-514 186.5,-546 331.5,-546 331.5,-514 186.5,-514"/>
<text text-anchor="start" x="194.5" y="-533" font-family="FreeSans" font-size="10.00">Mezzanine::UI::GenericWidget</text>
<text text-anchor="middle" x="259" y="-521" font-family="FreeSans" font-size="10.00">Factory</text>
</a>
</g>
<!-- Node1&#45;&gt;Node6 -->
<g id="edge10" class="edge"><title>Node1&#45;&gt;Node6</title>
<path fill="none" stroke="midnightblue" d="M81.0996,-377.325C96.8492,-408.714 132.153,-470.71 180,-505 184.794,-508.436 190.079,-511.412 195.574,-513.988"/>
<polygon fill="midnightblue" stroke="midnightblue" points="84.2166,-375.732 76.682,-368.283 77.9272,-378.805 84.2166,-375.732"/>
</g>
<!-- Node7 -->
<g id="node13" class="node"><title>Node7</title>
<a xlink:href="classMezzanine_1_1UI_1_1GridContainerFactory.html" target="_top" xlink:title="This is the factory implementation for GridContainer widgets. ">
<polygon fill="white" stroke="black" points="189,-464 189,-496 329,-496 329,-464 189,-464"/>
<text text-anchor="start" x="197" y="-483" font-family="FreeSans" font-size="10.00">Mezzanine::UI::GridContainer</text>
<text text-anchor="middle" x="259" y="-471" font-family="FreeSans" font-size="10.00">Factory</text>
</a>
</g>
<!-- Node1&#45;&gt;Node7 -->
<g id="edge12" class="edge"><title>Node1&#45;&gt;Node7</title>
<path fill="none" stroke="midnightblue" d="M87.3464,-375.808C106.854,-397.41 142.524,-433.586 180,-455 185.87,-458.354 192.248,-461.32 198.749,-463.926"/>
<polygon fill="midnightblue" stroke="midnightblue" points="89.718,-373.207 80.4659,-368.044 84.4793,-377.85 89.718,-373.207"/>
</g>
<!-- Node8 -->
<g id="node15" class="node"><title>Node8</title>
<a xlink:href="classMezzanine_1_1UI_1_1HorizontalContainerFactory.html" target="_top" xlink:title="This is the factory implementation for HorizontalContainer widgets. ">
<polygon fill="white" stroke="black" points="197,-414 197,-446 321,-446 321,-414 197,-414"/>
<text text-anchor="start" x="205" y="-433" font-family="FreeSans" font-size="10.00">Mezzanine::UI::Horizontal</text>
<text text-anchor="middle" x="259" y="-421" font-family="FreeSans" font-size="10.00">ContainerFactory</text>
</a>
</g>
<!-- Node1&#45;&gt;Node8 -->
<g id="edge14" class="edge"><title>Node1&#45;&gt;Node8</title>
<path fill="none" stroke="midnightblue" d="M102.493,-372.282C123.937,-382.075 153.431,-395.046 180,-405 188.217,-408.079 197.004,-411.11 205.622,-413.941"/>
<polygon fill="midnightblue" stroke="midnightblue" points="103.794,-369.028 93.2465,-368.028 100.869,-375.387 103.794,-369.028"/>
</g>
<!-- Node9 -->
<g id="node17" class="node"><title>Node9</title>
<a xlink:href="classMezzanine_1_1UI_1_1HorizontalScrollbarFactory.html" target="_top" xlink:title="This is the factory implementation for HorizontalScrollbar widgets. ">
<polygon fill="white" stroke="black" points="197,-364 197,-396 321,-396 321,-364 197,-364"/>
<text text-anchor="start" x="205" y="-383" font-family="FreeSans" font-size="10.00">Mezzanine::UI::Horizontal</text>
<text text-anchor="middle" x="259" y="-371" font-family="FreeSans" font-size="10.00">ScrollbarFactory</text>
</a>
</g>
<!-- Node1&#45;&gt;Node9 -->
<g id="edge16" class="edge"><title>Node1&#45;&gt;Node9</title>
<path fill="none" stroke="midnightblue" d="M153.71,-367.613C168.189,-369.316 183.051,-371.065 196.878,-372.692"/>
<polygon fill="midnightblue" stroke="midnightblue" points="154.105,-364.135 143.764,-366.443 153.287,-371.087 154.105,-364.135"/>
</g>
<!-- Node10 -->
<g id="node19" class="node"><title>Node10</title>
<a xlink:href="classMezzanine_1_1UI_1_1ListBoxFactory.html" target="_top" xlink:title="This is the factory implementation for ListBox widgets. ">
<polygon fill="white" stroke="black" points="186.5,-326 186.5,-346 331.5,-346 331.5,-326 186.5,-326"/>
<text text-anchor="middle" x="259" y="-333" font-family="FreeSans" font-size="10.00">Mezzanine::UI::ListBoxFactory</text>
</a>
</g>
<!-- Node1&#45;&gt;Node10 -->
<g id="edge18" class="edge"><title>Node1&#45;&gt;Node10</title>
<path fill="none" stroke="midnightblue" d="M153.968,-348.357C164.695,-347.095 175.628,-345.808 186.191,-344.566"/>
<polygon fill="midnightblue" stroke="midnightblue" points="153.287,-344.913 143.764,-349.557 154.105,-351.865 153.287,-344.913"/>
</g>
<!-- Node11 -->
<g id="node21" class="node"><title>Node11</title>
<a xlink:href="classMezzanine_1_1UI_1_1MenuEntryFactory.html" target="_top" xlink:title="This is the factory implementation for MenuEntry widgets. ">
<polygon fill="white" stroke="black" points="195.5,-276 195.5,-308 322.5,-308 322.5,-276 195.5,-276"/>
<text text-anchor="start" x="203.5" y="-295" font-family="FreeSans" font-size="10.00">Mezzanine::UI::MenuEntry</text>
<text text-anchor="middle" x="259" y="-283" font-family="FreeSans" font-size="10.00">Factory</text>
</a>
</g>
<!-- Node1&#45;&gt;Node11 -->
<g id="edge20" class="edge"><title>Node1&#45;&gt;Node11</title>
<path fill="none" stroke="midnightblue" d="M106.665,-344.271C127.758,-336.059 155.307,-325.587 180,-317 188.56,-314.023 197.692,-310.998 206.595,-308.127"/>
<polygon fill="midnightblue" stroke="midnightblue" points="105.204,-341.084 97.166,-347.986 107.754,-347.603 105.204,-341.084"/>
</g>
<!-- Node12 -->
<g id="node23" class="node"><title>Node12</title>
<a xlink:href="classMezzanine_1_1UI_1_1RadioButtonFactory.html" target="_top" xlink:title="This is the factory implementation for RadioButton widgets. ">
<polygon fill="white" stroke="black" points="192,-226 192,-258 326,-258 326,-226 192,-226"/>
<text text-anchor="start" x="200" y="-245" font-family="FreeSans" font-size="10.00">Mezzanine::UI::RadioButton</text>
<text text-anchor="middle" x="259" y="-233" font-family="FreeSans" font-size="10.00">Factory</text>
</a>
</g>
<!-- Node1&#45;&gt;Node12 -->
<g id="edge22" class="edge"><title>Node1&#45;&gt;Node12</title>
<path fill="none" stroke="midnightblue" d="M88.5011,-340.401C108.423,-320.092 143.785,-286.941 180,-267 186.049,-263.669 192.607,-260.709 199.27,-258.097"/>
<polygon fill="midnightblue" stroke="midnightblue" points="85.8386,-338.119 81.4181,-347.748 90.8783,-342.978 85.8386,-338.119"/>
</g>
<!-- Node13 -->
<g id="node25" class="node"><title>Node13</title>
<a xlink:href="classMezzanine_1_1UI_1_1SpinnerFactory.html" target="_top" xlink:title="This is the factory implementation for Spinner widgets. ">
<polygon fill="white" stroke="black" points="186,-188 186,-208 332,-208 332,-188 186,-188"/>
<text text-anchor="middle" x="259" y="-195" font-family="FreeSans" font-size="10.00">Mezzanine::UI::SpinnerFactory</text>
</a>
</g>
<!-- Node1&#45;&gt;Node13 -->
<g id="edge24" class="edge"><title>Node1&#45;&gt;Node13</title>
<path fill="none" stroke="midnightblue" d="M81.2586,-338.694C97.0431,-307.935 132.158,-248.112 180,-217 185.558,-213.386 191.738,-210.458 198.124,-208.087"/>
<polygon fill="midnightblue" stroke="midnightblue" points="77.9848,-337.417 76.6563,-347.928 84.2497,-340.539 77.9848,-337.417"/>
</g>
<!-- Node14 -->
<g id="node27" class="node"><title>Node14</title>
<a xlink:href="classMezzanine_1_1UI_1_1StackButtonFactory.html" target="_top" xlink:title="This is the factory implementation for StackButton widgets. ">
<polygon fill="white" stroke="black" points="191.5,-138 191.5,-170 326.5,-170 326.5,-138 191.5,-138"/>
<text text-anchor="start" x="199.5" y="-157" font-family="FreeSans" font-size="10.00">Mezzanine::UI::StackButton</text>
<text text-anchor="middle" x="259" y="-145" font-family="FreeSans" font-size="10.00">Factory</text>
</a>
</g>
<!-- Node1&#45;&gt;Node14 -->
<g id="edge26" class="edge"><title>Node1&#45;&gt;Node14</title>
<path fill="none" stroke="midnightblue" d="M78.6019,-338.141C91.864,-301.283 125.246,-222.13 180,-179 184.294,-175.617 189.054,-172.688 194.047,-170.152"/>
<polygon fill="midnightblue" stroke="midnightblue" points="75.2412,-337.15 75.2615,-347.744 81.8526,-339.449 75.2412,-337.15"/>
</g>
<!-- Node15 -->
<g id="node29" class="node"><title>Node15</title>
<a xlink:href="classMezzanine_1_1UI_1_1TabSetFactory.html" target="_top" xlink:title="This is the factory implementation for TabSet widgets. ">
<polygon fill="white" stroke="black" points="186.5,-100 186.5,-120 331.5,-120 331.5,-100 186.5,-100"/>
<text text-anchor="middle" x="259" y="-107" font-family="FreeSans" font-size="10.00">Mezzanine::UI::TabSetFactory</text>
</a>
</g>
<!-- Node1&#45;&gt;Node15 -->
<g id="edge28" class="edge"><title>Node1&#45;&gt;Node15</title>
<path fill="none" stroke="midnightblue" d="M75.4479,-337.917C84.2365,-293.098 111.795,-184.502 180,-129 184.377,-125.439 189.314,-122.526 194.531,-120.147"/>
<polygon fill="midnightblue" stroke="midnightblue" points="71.9849,-337.397 73.6046,-347.867 78.8678,-338.672 71.9849,-337.397"/>
</g>
<!-- Node16 -->
<g id="node31" class="node"><title>Node16</title>
<a xlink:href="classMezzanine_1_1UI_1_1VerticalContainerFactory.html" target="_top" xlink:title="This is the factory implementation for VerticalContainer widgets. ">
<polygon fill="white" stroke="black" points="181.5,-50 181.5,-82 336.5,-82 336.5,-50 181.5,-50"/>
<text text-anchor="start" x="189.5" y="-69" font-family="FreeSans" font-size="10.00">Mezzanine::UI::VerticalContainer</text>
<text text-anchor="middle" x="259" y="-57" font-family="FreeSans" font-size="10.00">Factory</text>
</a>
</g>
<!-- Node1&#45;&gt;Node16 -->
<g id="edge30" class="edge"><title>Node1&#45;&gt;Node16</title>
<path fill="none" stroke="midnightblue" d="M74.3249,-337.737C81.0838,-288.231 105.251,-160.143 180,-91 183.696,-87.5811 187.858,-84.6297 192.29,-82.0819"/>
<polygon fill="midnightblue" stroke="midnightblue" points="70.8334,-337.449 73.0467,-347.81 77.7778,-338.33 70.8334,-337.449"/>
</g>
<!-- Node17 -->
<g id="node33" class="node"><title>Node17</title>
<a xlink:href="classMezzanine_1_1UI_1_1VerticalScrollbarFactory.html" target="_top" xlink:title="This is the factory implementation for VerticalScrollbar widgets. ">
<polygon fill="white" stroke="black" points="183,-0 183,-32 335,-32 335,-0 183,-0"/>
<text text-anchor="start" x="191" y="-19" font-family="FreeSans" font-size="10.00">Mezzanine::UI::VerticalScrollbar</text>
<text text-anchor="middle" x="259" y="-7" font-family="FreeSans" font-size="10.00">Factory</text>
</a>
</g>
<!-- Node1&#45;&gt;Node17 -->
<g id="edge32" class="edge"><title>Node1&#45;&gt;Node17</title>
<path fill="none" stroke="midnightblue" d="M72.8419,-337.793C76.2606,-282.224 93.4908,-125.637 180,-41 183.496,-37.5795 187.457,-34.6266 191.698,-32.0774"/>
<polygon fill="midnightblue" stroke="midnightblue" points="69.3466,-337.612 72.3138,-347.783 76.3369,-337.982 69.3466,-337.612"/>
</g>
</g>
</svg>
