<?xml version="1.0" encoding="UTF-8" standalone="no"?>
<!DOCTYPE svg PUBLIC "-//W3C//DTD SVG 1.1//EN"
 "http://www.w3.org/Graphics/SVG/1.1/DTD/svg11.dtd">
<!-- Generated by graphviz version 2.36.0 (20140111.2315)
 -->
<!-- Title: Graphical Class Hierarchy Pages: 1 -->
<svg width="354pt" height="87pt"
 viewBox="0.00 0.00 354.00 87.00" xmlns="http://www.w3.org/2000/svg" xmlns:xlink="http://www.w3.org/1999/xlink">
<g id="graph0" class="graph" transform="scale(1 1) rotate(0) translate(4 83)">
<title>Graphical Class Hierarchy</title>
<polygon fill="white" stroke="none" points="-4,4 -4,-83 350,-83 350,4 -4,4"/>
<!-- Node1 -->
<g id="node1" class="node"><title>Node1</title>
<g id="a_node1"><a xlink:href="classMezzanine_1_1RollingAverage.html" target="_top" xlink:title="The interface for rolling averages used in the Mezzanine, and threading library. ">
<polygon fill="white" stroke="black" points="0,-24 0,-54 136,-54 136,-24 0,-24"/>
<text text-anchor="start" x="8" y="-42" font-family="Helvetica,sans-Serif" font-size="10.00">Mezzanine::RollingAverage</text>
<text text-anchor="middle" x="68" y="-31" font-family="Helvetica,sans-Serif" font-size="10.00">&lt; RecordType &gt;</text>
</a>
</g>
</g>
<!-- Node2 -->
<g id="node2" class="node"><title>Node2</title>
<g id="a_node2"><a xlink:href="classMezzanine_1_1BufferedRollingAverage.html" target="_top" xlink:title="A RollingAverage that stores a copy of each record. and does the math when queried. ">
<polygon fill="white" stroke="black" points="190.5,-49 190.5,-79 327.5,-79 327.5,-49 190.5,-49"/>
<text text-anchor="start" x="198.5" y="-67" font-family="Helvetica,sans-Serif" font-size="10.00">Mezzanine::BufferedRolling</text>
<text text-anchor="middle" x="259" y="-56" font-family="Helvetica,sans-Serif" font-size="10.00">Average&lt; RecordType &gt;</text>
</a>
</g>
</g>
<!-- Node1&#45;&gt;Node2 -->
<g id="edge1" class="edge"><title>Node1&#45;&gt;Node2</title>
<path fill="none" stroke="midnightblue" d="M146.202,-49.2119C160.856,-51.1503 176.085,-53.1647 190.413,-55.0599"/>
<polygon fill="midnightblue" stroke="midnightblue" points="146.539,-45.7261 136.166,-47.8845 145.621,-52.6656 146.539,-45.7261"/>
</g>
<!-- Node3 -->
<g id="node3" class="node"><title>Node3</title>
<g id="a_node3"><a xlink:href="classMezzanine_1_1WeightedRollingAverage.html" target="_top" xlink:title="A weighted average that does math with every insertion and stores nothing. ">
<polygon fill="white" stroke="black" points="172.5,-0 172.5,-30 345.5,-30 345.5,-0 172.5,-0"/>
<text text-anchor="start" x="180.5" y="-18" font-family="Helvetica,sans-Serif" font-size="10.00">Mezzanine::WeightedRolling</text>
<text text-anchor="middle" x="259" y="-7" font-family="Helvetica,sans-Serif" font-size="10.00">Average&lt; RecordType, MathType &gt;</text>
</a>
</g>
</g>
<!-- Node1&#45;&gt;Node3 -->
<g id="edge2" class="edge"><title>Node1&#45;&gt;Node3</title>
<path fill="none" stroke="midnightblue" d="M146.141,-29.2044C154.73,-28.1137 163.517,-26.9978 172.206,-25.8945"/>
<polygon fill="midnightblue" stroke="midnightblue" points="145.646,-25.739 136.166,-30.4709 146.528,-32.6832 145.646,-25.739"/>
</g>
</g>
</svg>
