<?xml version="1.0" encoding="UTF-8" standalone="no"?>
<!DOCTYPE svg PUBLIC "-//W3C//DTD SVG 1.1//EN"
 "http://www.w3.org/Graphics/SVG/1.1/DTD/svg11.dtd">
<!-- Generated by graphviz version 2.26.3 (20100126.1600)
 -->
<!-- Title: Graphical Class Hierarchy Pages: 1 -->
<svg width="440pt" height="66pt"
 viewBox="0.00 0.00 440.00 66.00" xmlns="http://www.w3.org/2000/svg" xmlns:xlink="http://www.w3.org/1999/xlink">
<g id="graph1" class="graph" transform="scale(1 1) rotate(0) translate(4 62)">
<title>Graphical Class Hierarchy</title>
<!-- Node1 -->
<g id="node1" class="node"><title>Node1</title>
<a xlink:href="classMezzanine_1_1FooInternal.xhtml" target="_top" xlink:title="A class to point at that uses its ownreferencing counting internal mechanism.">
<polygon fill="none" stroke="black" points="0,-19 0,-39 116,-39 116,-19 0,-19"/>
<text text-anchor="middle" x="58" y="-26" font-family="FreeSans" font-size="10.00">Mezzanine::FooInternal</text>
</a>
</g>
<!-- Node2 -->
<g id="node3" class="node"><title>Node2</title>
<a xlink:href="classMezzanine_1_1FooDerived1.xhtml" target="_top" xlink:title="Mezzanine::FooDerived1">
<polygon fill="none" stroke="black" points="152.5,-38 152.5,-58 273.5,-58 273.5,-38 152.5,-38"/>
<text text-anchor="middle" x="213" y="-45" font-family="FreeSans" font-size="10.00">Mezzanine::FooDerived1</text>
</a>
</g>
<!-- Node1&#45;&gt;Node2 -->
<g id="edge2" class="edge"><title>Node1&#45;&gt;Node2</title>
<path fill="none" stroke="midnightblue" d="M126.286,-37.3705C134.998,-38.4385 143.868,-39.5258 152.447,-40.5774"/>
<polygon fill="midnightblue" stroke="midnightblue" points="126.509,-33.8717 116.157,-36.129 125.657,-40.8197 126.509,-33.8717"/>
</g>
<!-- Node4 -->
<g id="node7" class="node"><title>Node4</title>
<a xlink:href="classMezzanine_1_1FooDerived2.xhtml" target="_top" xlink:title="Mezzanine::FooDerived2">
<polygon fill="none" stroke="black" points="152.5,-0 152.5,-20 273.5,-20 273.5,-0 152.5,-0"/>
<text text-anchor="middle" x="213" y="-7" font-family="FreeSans" font-size="10.00">Mezzanine::FooDerived2</text>
</a>
</g>
<!-- Node1&#45;&gt;Node4 -->
<g id="edge6" class="edge"><title>Node1&#45;&gt;Node4</title>
<path fill="none" stroke="midnightblue" d="M126.286,-20.6295C134.998,-19.5615 143.868,-18.4742 152.447,-17.4226"/>
<polygon fill="midnightblue" stroke="midnightblue" points="125.657,-17.1803 116.157,-21.871 126.509,-24.1283 125.657,-17.1803"/>
</g>
<!-- Node3 -->
<g id="node5" class="node"><title>Node3</title>
<a xlink:href="classMezzanine_1_1FooDiamond.xhtml" target="_top" xlink:title="Mezzanine::FooDiamond">
<polygon fill="none" stroke="black" points="310,-19 310,-39 432,-39 432,-19 310,-19"/>
<text text-anchor="middle" x="371" y="-26" font-family="FreeSans" font-size="10.00">Mezzanine::FooDiamond</text>
</a>
</g>
<!-- Node2&#45;&gt;Node3 -->
<g id="edge4" class="edge"><title>Node2&#45;&gt;Node3</title>
<path fill="none" stroke="midnightblue" d="M283.734,-39.494C292.411,-38.4506 301.222,-37.391 309.743,-36.3663"/>
<polygon fill="midnightblue" stroke="midnightblue" points="283.146,-36.0395 273.635,-40.7084 283.981,-42.9894 283.146,-36.0395"/>
</g>
<!-- Node4&#45;&gt;Node3 -->
<g id="edge8" class="edge"><title>Node4&#45;&gt;Node3</title>
<path fill="none" stroke="midnightblue" d="M283.734,-18.506C292.411,-19.5494 301.222,-20.609 309.743,-21.6337"/>
<polygon fill="midnightblue" stroke="midnightblue" points="283.981,-15.0106 273.635,-17.2916 283.146,-21.9605 283.981,-15.0106"/>
</g>
</g>
</svg>
