<?xml version="1.0" encoding="UTF-8" standalone="no"?>
<!DOCTYPE svg PUBLIC "-//W3C//DTD SVG 1.1//EN"
 "http://www.w3.org/Graphics/SVG/1.1/DTD/svg11.dtd">
<!-- Generated by graphviz version 2.36.0 (20140111.2315)
 -->
<!-- Title: Graphical Class Hierarchy Pages: 1 -->
<svg width="878pt" height="792pt"
 viewBox="0.00 0.00 878.00 792.00" xmlns="http://www.w3.org/2000/svg" xmlns:xlink="http://www.w3.org/1999/xlink">
<g id="graph0" class="graph" transform="scale(1 1) rotate(0) translate(4 788)">
<title>Graphical Class Hierarchy</title>
<polygon fill="white" stroke="none" points="-4,4 -4,-788 874,-788 874,4 -4,4"/>
<!-- Node1 -->
<g id="node1" class="node"><title>Node1</title>
<g id="a_node1"><a xlink:title="STL class. ">
<polygon fill="white" stroke="#bfbfbf" points="0,-359.5 0,-378.5 78,-378.5 78,-359.5 0,-359.5"/>
<text text-anchor="middle" x="39" y="-366.5" font-family="Helvetica,sans-Serif" font-size="10.00">std::exception</text>
</a>
</g>
</g>
<!-- Node2 -->
<g id="node2" class="node"><title>Node2</title>
<g id="a_node2"><a xlink:href="classMezzanine_1_1Exception.html" target="_top" xlink:title="This is the exception thrown by most Mezzanine system that can throw exceptions. ">
<polygon fill="white" stroke="black" points="114.5,-378.5 114.5,-397.5 227.5,-397.5 227.5,-378.5 114.5,-378.5"/>
<text text-anchor="middle" x="171" y="-385.5" font-family="Helvetica,sans-Serif" font-size="10.00">Mezzanine::Exception</text>
</a>
</g>
</g>
<!-- Node1&#45;&gt;Node2 -->
<g id="edge1" class="edge"><title>Node1&#45;&gt;Node2</title>
<path fill="none" stroke="midnightblue" d="M88.3248,-376.063C96.739,-377.293 105.553,-378.581 114.149,-379.837"/>
<polygon fill="midnightblue" stroke="midnightblue" points="88.7022,-372.581 78.3012,-374.598 87.6898,-379.507 88.7022,-372.581"/>
</g>
<!-- Node49 -->
<g id="node49" class="node"><title>Node49</title>
<g id="a_node49"><a xlink:href="classpugi_1_1xpath__exception.html" target="_top" xlink:title="pugi::xpath_exception">
<polygon fill="white" stroke="black" points="115,-340.5 115,-359.5 227,-359.5 227,-340.5 115,-340.5"/>
<text text-anchor="middle" x="171" y="-347.5" font-family="Helvetica,sans-Serif" font-size="10.00">pugi::xpath_exception</text>
</a>
</g>
</g>
<!-- Node1&#45;&gt;Node49 -->
<g id="edge48" class="edge"><title>Node1&#45;&gt;Node49</title>
<path fill="none" stroke="midnightblue" d="M88.4617,-361.917C96.9925,-360.67 105.93,-359.364 114.633,-358.092"/>
<polygon fill="midnightblue" stroke="midnightblue" points="87.6899,-358.493 78.3012,-363.402 88.7022,-365.419 87.6899,-358.493"/>
</g>
<!-- Node3 -->
<g id="node3" class="node"><title>Node3</title>
<g id="a_node3"><a xlink:href="classMezzanine_1_1ArithmeticException.html" target="_top" xlink:title="Thrown when Math has failed. ">
<polygon fill="white" stroke="black" points="272,-700.5 272,-719.5 430,-719.5 430,-700.5 272,-700.5"/>
<text text-anchor="middle" x="351" y="-707.5" font-family="Helvetica,sans-Serif" font-size="10.00">Mezzanine::ArithmeticException</text>
</a>
</g>
</g>
<!-- Node2&#45;&gt;Node3 -->
<g id="edge2" class="edge"><title>Node2&#45;&gt;Node3</title>
<path fill="none" stroke="midnightblue" d="M171.708,-407.848C172.058,-461.789 180.822,-612.233 264,-690 268.591,-694.292 273.917,-697.723 279.625,-700.457"/>
<polygon fill="midnightblue" stroke="midnightblue" points="175.209,-407.611 171.741,-397.6 168.209,-407.589 175.209,-407.611"/>
</g>
<!-- Node4 -->
<g id="node4" class="node"><title>Node4</title>
<g id="a_node4"><a xlink:href="classMezzanine_1_1InstanceIdentityException.html" target="_top" xlink:title="Thrown when an unknown error with using an Identifier and it is invalid. ">
<polygon fill="white" stroke="black" points="281,-651 281,-681 421,-681 421,-651 281,-651"/>
<text text-anchor="start" x="289" y="-669" font-family="Helvetica,sans-Serif" font-size="10.00">Mezzanine::InstanceIdentity</text>
<text text-anchor="middle" x="351" y="-658" font-family="Helvetica,sans-Serif" font-size="10.00">Exception</text>
</a>
</g>
</g>
<!-- Node2&#45;&gt;Node4 -->
<g id="edge3" class="edge"><title>Node2&#45;&gt;Node4</title>
<path fill="none" stroke="midnightblue" d="M177.6,-407.683C189.187,-446.089 218.569,-532.54 264,-593 281.647,-616.485 308.14,-637.511 327.053,-650.897"/>
<polygon fill="midnightblue" stroke="midnightblue" points="180.868,-406.393 174.69,-397.786 174.153,-408.367 180.868,-406.393"/>
</g>
<!-- Node8 -->
<g id="node8" class="node"><title>Node8</title>
<g id="a_node8"><a xlink:href="classMezzanine_1_1InternalException.html" target="_top" xlink:title="Thrown when an unknown internal error occurred. ">
<polygon fill="white" stroke="black" points="278,-564.5 278,-583.5 424,-583.5 424,-564.5 278,-564.5"/>
<text text-anchor="middle" x="351" y="-571.5" font-family="Helvetica,sans-Serif" font-size="10.00">Mezzanine::InternalException</text>
</a>
</g>
</g>
<!-- Node2&#45;&gt;Node8 -->
<g id="edge7" class="edge"><title>Node2&#45;&gt;Node8</title>
<path fill="none" stroke="midnightblue" d="M177.087,-407.843C187.248,-443.275 213.538,-517.244 264,-555 269.142,-558.847 274.912,-561.944 280.965,-564.432"/>
<polygon fill="midnightblue" stroke="midnightblue" points="180.353,-406.514 174.345,-397.788 173.599,-408.356 180.353,-406.514"/>
</g>
<!-- Node9 -->
<g id="node9" class="node"><title>Node9</title>
<g id="a_node9"><a xlink:href="classMezzanine_1_1InvalidAssignment.html" target="_top" xlink:title="Then when a complex class is assigned to itself or other invalid assignments occur. ">
<polygon fill="white" stroke="black" points="276,-526.5 276,-545.5 426,-545.5 426,-526.5 276,-526.5"/>
<text text-anchor="middle" x="351" y="-533.5" font-family="Helvetica,sans-Serif" font-size="10.00">Mezzanine::InvalidAssignment</text>
</a>
</g>
</g>
<!-- Node2&#45;&gt;Node9 -->
<g id="edge8" class="edge"><title>Node2&#45;&gt;Node9</title>
<path fill="none" stroke="midnightblue" d="M180.025,-406.91C193.176,-435.492 222.11,-489.293 264,-517 269.867,-520.88 276.402,-523.979 283.175,-526.453"/>
<polygon fill="midnightblue" stroke="midnightblue" points="183.155,-405.335 175.899,-397.615 176.757,-408.175 183.155,-405.335"/>
</g>
<!-- Node10 -->
<g id="node10" class="node"><title>Node10</title>
<g id="a_node10"><a xlink:href="classMezzanine_1_1InvalidStateException.html" target="_top" xlink:title="Thrown when the available information should have worked but failed for unknown reasons. ">
<polygon fill="white" stroke="black" points="268.5,-488.5 268.5,-507.5 433.5,-507.5 433.5,-488.5 268.5,-488.5"/>
<text text-anchor="middle" x="351" y="-495.5" font-family="Helvetica,sans-Serif" font-size="10.00">Mezzanine::InvalidStateException</text>
</a>
</g>
</g>
<!-- Node2&#45;&gt;Node10 -->
<g id="edge9" class="edge"><title>Node2&#45;&gt;Node10</title>
<path fill="none" stroke="midnightblue" d="M184.966,-405.555C201.138,-426.143 230.741,-459.768 264,-478 271.931,-482.348 280.774,-485.753 289.687,-488.421"/>
<polygon fill="midnightblue" stroke="midnightblue" points="187.744,-403.426 178.886,-397.613 182.186,-407.681 187.744,-403.426"/>
</g>
<!-- Node11 -->
<g id="node11" class="node"><title>Node11</title>
<g id="a_node11"><a xlink:href="classMezzanine_1_1InvalidVersionException.html" target="_top" xlink:title="Thrown when a version is accessed/parsed/required and it cannot work correctly or is missing...">
<polygon fill="white" stroke="black" points="285.5,-439 285.5,-469 416.5,-469 416.5,-439 285.5,-439"/>
<text text-anchor="start" x="293.5" y="-457" font-family="Helvetica,sans-Serif" font-size="10.00">Mezzanine::InvalidVersion</text>
<text text-anchor="middle" x="351" y="-446" font-family="Helvetica,sans-Serif" font-size="10.00">Exception</text>
</a>
</g>
</g>
<!-- Node2&#45;&gt;Node11 -->
<g id="edge10" class="edge"><title>Node2&#45;&gt;Node11</title>
<path fill="none" stroke="midnightblue" d="M200.742,-402.024C218.678,-410.47 242.387,-421.085 264,-429 273.636,-432.529 284.02,-435.9 294.125,-438.96"/>
<polygon fill="midnightblue" stroke="midnightblue" points="201.955,-398.725 191.421,-397.586 198.945,-405.045 201.955,-398.725"/>
</g>
<!-- Node12 -->
<g id="node12" class="node"><title>Node12</title>
<g id="a_node12"><a xlink:href="classMezzanine_1_1IOException.html" target="_top" xlink:title="Thrown when there was an issue with IO but very little was known about it. ">
<polygon fill="white" stroke="black" points="289,-400.5 289,-419.5 413,-419.5 413,-400.5 289,-400.5"/>
<text text-anchor="middle" x="351" y="-407.5" font-family="Helvetica,sans-Serif" font-size="10.00">Mezzanine::IOException</text>
</a>
</g>
</g>
<!-- Node2&#45;&gt;Node12 -->
<g id="edge11" class="edge"><title>Node2&#45;&gt;Node12</title>
<path fill="none" stroke="midnightblue" d="M238.014,-396.159C254.643,-398.214 272.422,-400.412 288.803,-402.436"/>
<polygon fill="midnightblue" stroke="midnightblue" points="238.186,-392.654 227.832,-394.901 237.327,-399.601 238.186,-392.654"/>
</g>
<!-- Node31 -->
<g id="node31" class="node"><title>Node31</title>
<g id="a_node31"><a xlink:href="classMezzanine_1_1MemoryManagementException.html" target="_top" xlink:title="Thrown when an unknown memory management exception occurs. ">
<polygon fill="white" stroke="black" points="270.5,-351 270.5,-381 431.5,-381 431.5,-351 270.5,-351"/>
<text text-anchor="start" x="278.5" y="-369" font-family="Helvetica,sans-Serif" font-size="10.00">Mezzanine::MemoryManagement</text>
<text text-anchor="middle" x="351" y="-358" font-family="Helvetica,sans-Serif" font-size="10.00">Exception</text>
</a>
</g>
</g>
<!-- Node2&#45;&gt;Node31 -->
<g id="edge30" class="edge"><title>Node2&#45;&gt;Node31</title>
<path fill="none" stroke="midnightblue" d="M237.797,-379.868C248.362,-378.562 259.396,-377.198 270.246,-375.857"/>
<polygon fill="midnightblue" stroke="midnightblue" points="237.327,-376.399 227.832,-381.099 238.186,-383.346 237.327,-376.399"/>
</g>
<!-- Node34 -->
<g id="node34" class="node"><title>Node34</title>
<g id="a_node34"><a xlink:href="classMezzanine_1_1NotImplementedException.html" target="_top" xlink:title="Thrown when we just have not coded a thing yet, but we knew what the API should look like...">
<polygon fill="white" stroke="black" points="280,-302 280,-332 422,-332 422,-302 280,-302"/>
<text text-anchor="start" x="288" y="-320" font-family="Helvetica,sans-Serif" font-size="10.00">Mezzanine::NotImplemented</text>
<text text-anchor="middle" x="351" y="-309" font-family="Helvetica,sans-Serif" font-size="10.00">Exception</text>
</a>
</g>
</g>
<!-- Node2&#45;&gt;Node34 -->
<g id="edge33" class="edge"><title>Node2&#45;&gt;Node34</title>
<path fill="none" stroke="midnightblue" d="M215.613,-374.82C219.883,-373.052 224.081,-371.111 228,-369 245.846,-359.388 245.897,-350.118 264,-341 270.645,-337.653 277.822,-334.717 285.097,-332.156"/>
<polygon fill="midnightblue" stroke="midnightblue" points="214.317,-371.568 206.23,-378.413 216.821,-378.105 214.317,-371.568"/>
</g>
<!-- Node35 -->
<g id="node35" class="node"><title>Node35</title>
<g id="a_node35"><a xlink:href="classMezzanine_1_1ParametersException.html" target="_top" xlink:title="Thrown when parameters are checked at runtime and found invalid. ">
<polygon fill="white" stroke="black" points="269,-263.5 269,-282.5 433,-282.5 433,-263.5 269,-263.5"/>
<text text-anchor="middle" x="351" y="-270.5" font-family="Helvetica,sans-Serif" font-size="10.00">Mezzanine::ParametersException</text>
</a>
</g>
</g>
<!-- Node2&#45;&gt;Node35 -->
<g id="edge34" class="edge"><title>Node2&#45;&gt;Node35</title>
<path fill="none" stroke="midnightblue" d="M221.848,-373.68C224.026,-372.263 226.093,-370.708 228,-369 256.144,-343.799 234.517,-315.62 264,-292 268.773,-288.176 274.155,-285.083 279.837,-282.586"/>
<polygon fill="midnightblue" stroke="midnightblue" points="220.121,-370.634 213.004,-378.483 223.462,-376.786 220.121,-370.634"/>
</g>
<!-- Node38 -->
<g id="node38" class="node"><title>Node38</title>
<g id="a_node38"><a xlink:href="classMezzanine_1_1RenderingAPIException.html" target="_top" xlink:title="Thrown when the graphics card/DirectX/OpenGL fail. ">
<polygon fill="white" stroke="black" points="264,-225.5 264,-244.5 438,-244.5 438,-225.5 264,-225.5"/>
<text text-anchor="middle" x="351" y="-232.5" font-family="Helvetica,sans-Serif" font-size="10.00">Mezzanine::RenderingAPIException</text>
</a>
</g>
</g>
<!-- Node2&#45;&gt;Node38 -->
<g id="edge37" class="edge"><title>Node2&#45;&gt;Node38</title>
<path fill="none" stroke="midnightblue" d="M223.401,-373.052C225.033,-371.808 226.574,-370.46 228,-369 265.419,-330.683 224.538,-290.209 264,-254 268.169,-250.175 272.929,-247.059 278.022,-244.526"/>
<polygon fill="midnightblue" stroke="midnightblue" points="221.307,-370.23 214.622,-378.45 224.973,-376.194 221.307,-370.23"/>
</g>
<!-- Node39 -->
<g id="node39" class="node"><title>Node39</title>
<g id="a_node39"><a xlink:href="classMezzanine_1_1RuntimeAssertionException.html" target="_top" xlink:title="Thrown when a rutime assertion could have been thrown. ">
<polygon fill="white" stroke="black" points="277,-176 277,-206 425,-206 425,-176 277,-176"/>
<text text-anchor="start" x="285" y="-194" font-family="Helvetica,sans-Serif" font-size="10.00">Mezzanine::RuntimeAssertion</text>
<text text-anchor="middle" x="351" y="-183" font-family="Helvetica,sans-Serif" font-size="10.00">Exception</text>
</a>
</g>
</g>
<!-- Node2&#45;&gt;Node39 -->
<g id="edge38" class="edge"><title>Node2&#45;&gt;Node39</title>
<path fill="none" stroke="midnightblue" d="M224.098,-372.723C225.483,-371.571 226.79,-370.332 228,-369 274.969,-317.29 215.9,-266.659 264,-216 267.747,-212.054 272.077,-208.719 276.761,-205.903"/>
<polygon fill="midnightblue" stroke="midnightblue" points="221.875,-369.997 215.445,-378.418 225.723,-375.844 221.875,-369.997"/>
</g>
<!-- Node40 -->
<g id="node40" class="node"><title>Node40</title>
<g id="a_node40"><a xlink:href="classMezzanine_1_1ScriptException.html" target="_top" xlink:title="Thrown when an unknown error happens with a script. ">
<polygon fill="white" stroke="black" points="281.5,-137.5 281.5,-156.5 420.5,-156.5 420.5,-137.5 281.5,-137.5"/>
<text text-anchor="middle" x="351" y="-144.5" font-family="Helvetica,sans-Serif" font-size="10.00">Mezzanine::ScriptException</text>
</a>
</g>
</g>
<!-- Node2&#45;&gt;Node40 -->
<g id="edge39" class="edge"><title>Node2&#45;&gt;Node40</title>
<path fill="none" stroke="midnightblue" d="M224.275,-372.74C225.603,-371.583 226.85,-370.339 228,-369 287.7,-299.488 200.58,-232.136 264,-166 268.868,-160.923 274.764,-157.058 281.16,-154.132"/>
<polygon fill="midnightblue" stroke="midnightblue" points="222.202,-369.918 215.929,-378.456 226.157,-375.693 222.202,-369.918"/>
</g>
<!-- Node45 -->
<g id="node45" class="node"><title>Node45</title>
<g id="a_node45"><a xlink:href="classMezzanine_1_1SyntaxErrorException.html" target="_top" xlink:title="Thrown when some kind of syntax exception. ">
<polygon fill="white" stroke="black" points="268.5,-71.5 268.5,-90.5 433.5,-90.5 433.5,-71.5 268.5,-71.5"/>
<text text-anchor="middle" x="351" y="-78.5" font-family="Helvetica,sans-Serif" font-size="10.00">Mezzanine::SyntaxErrorException</text>
</a>
</g>
</g>
<!-- Node2&#45;&gt;Node45 -->
<g id="edge44" class="edge"><title>Node2&#45;&gt;Node45</title>
<path fill="none" stroke="midnightblue" d="M224.75,-372.395C225.904,-371.337 226.992,-370.206 228,-369 297.436,-285.889 202.007,-216.801 264,-128 276.759,-109.724 298.98,-97.8448 317.637,-90.6017"/>
<polygon fill="midnightblue" stroke="midnightblue" points="222.43,-369.75 216.304,-378.394 226.484,-375.457 222.43,-369.75"/>
</g>
<!-- Node5 -->
<g id="node5" class="node"><title>Node5</title>
<g id="a_node5"><a xlink:href="classMezzanine_1_1InstanceIdentityDuplicateException.html" target="_top" xlink:title="Thrown when duplicates of teh same identity string exist. ">
<polygon fill="white" stroke="black" points="497,-749 497,-779 637,-779 637,-749 497,-749"/>
<text text-anchor="start" x="505" y="-767" font-family="Helvetica,sans-Serif" font-size="10.00">Mezzanine::InstanceIdentity</text>
<text text-anchor="middle" x="567" y="-756" font-family="Helvetica,sans-Serif" font-size="10.00">DuplicateException</text>
</a>
</g>
</g>
<!-- Node4&#45;&gt;Node5 -->
<g id="edge4" class="edge"><title>Node4&#45;&gt;Node5</title>
<path fill="none" stroke="midnightblue" d="M428.864,-685.446C432.036,-687.146 435.099,-688.993 438,-691 459.932,-706.169 451.936,-724.024 474,-739 480.984,-743.741 488.837,-747.585 496.935,-750.701"/>
<polygon fill="midnightblue" stroke="midnightblue" points="430.205,-682.207 419.676,-681.032 427.174,-688.517 430.205,-682.207"/>
</g>
<!-- Node6 -->
<g id="node6" class="node"><title>Node6</title>
<g id="a_node6"><a xlink:href="classMezzanine_1_1InstanceIdentityInvalidException.html" target="_top" xlink:title="Thrown when the identity string wasn&#39;t valid at all. ">
<polygon fill="white" stroke="black" points="497,-700 497,-730 637,-730 637,-700 497,-700"/>
<text text-anchor="start" x="505" y="-718" font-family="Helvetica,sans-Serif" font-size="10.00">Mezzanine::InstanceIdentity</text>
<text text-anchor="middle" x="567" y="-707" font-family="Helvetica,sans-Serif" font-size="10.00">InvalidException</text>
</a>
</g>
</g>
<!-- Node4&#45;&gt;Node6 -->
<g id="edge5" class="edge"><title>Node4&#45;&gt;Node6</title>
<path fill="none" stroke="midnightblue" d="M427.69,-683.331C451.45,-688.771 477.467,-694.729 500.463,-699.994"/>
<polygon fill="midnightblue" stroke="midnightblue" points="428.19,-679.855 417.661,-681.035 426.628,-686.678 428.19,-679.855"/>
</g>
<!-- Node7 -->
<g id="node7" class="node"><title>Node7</title>
<g id="a_node7"><a xlink:href="classMezzanine_1_1InstanceIdentityNotFoundException.html" target="_top" xlink:title="Thrown when the requested identity could not be found. ">
<polygon fill="white" stroke="black" points="497,-651 497,-681 637,-681 637,-651 497,-651"/>
<text text-anchor="start" x="505" y="-669" font-family="Helvetica,sans-Serif" font-size="10.00">Mezzanine::InstanceIdentity</text>
<text text-anchor="middle" x="567" y="-658" font-family="Helvetica,sans-Serif" font-size="10.00">NotFoundException</text>
</a>
</g>
</g>
<!-- Node4&#45;&gt;Node7 -->
<g id="edge6" class="edge"><title>Node4&#45;&gt;Node7</title>
<path fill="none" stroke="midnightblue" d="M431.252,-666C452.728,-666 475.806,-666 496.688,-666"/>
<polygon fill="midnightblue" stroke="midnightblue" points="431.184,-662.5 421.184,-666 431.184,-669.5 431.184,-662.5"/>
</g>
<!-- Node13 -->
<g id="node13" class="node"><title>Node13</title>
<g id="a_node13"><a xlink:href="classMezzanine_1_1DirectoryException.html" target="_top" xlink:title="Thrown when there is an unknown issue with a file. ">
<polygon fill="white" stroke="black" points="490.5,-612.5 490.5,-631.5 643.5,-631.5 643.5,-612.5 490.5,-612.5"/>
<text text-anchor="middle" x="567" y="-619.5" font-family="Helvetica,sans-Serif" font-size="10.00">Mezzanine::DirectoryException</text>
</a>
</g>
</g>
<!-- Node12&#45;&gt;Node13 -->
<g id="edge12" class="edge"><title>Node12&#45;&gt;Node13</title>
<path fill="none" stroke="midnightblue" d="M422.614,-419.687C428.139,-422.169 433.364,-425.23 438,-429 468.251,-453.598 453.518,-475.823 474,-509 499.648,-550.545 538.914,-593.674 556.687,-612.386"/>
<polygon fill="midnightblue" stroke="midnightblue" points="423.672,-416.344 413.082,-416.035 421.168,-422.881 423.672,-416.344"/>
</g>
<!-- Node18 -->
<g id="node18" class="node"><title>Node18</title>
<g id="a_node18"><a xlink:href="classMezzanine_1_1FileException.html" target="_top" xlink:title="Thrown when there is an unknown issue with a file. ">
<polygon fill="white" stroke="black" points="502.5,-480.5 502.5,-499.5 631.5,-499.5 631.5,-480.5 502.5,-480.5"/>
<text text-anchor="middle" x="567" y="-487.5" font-family="Helvetica,sans-Serif" font-size="10.00">Mezzanine::FileException</text>
</a>
</g>
</g>
<!-- Node12&#45;&gt;Node18 -->
<g id="edge17" class="edge"><title>Node12&#45;&gt;Node18</title>
<path fill="none" stroke="midnightblue" d="M422.729,-421.795C428.054,-423.827 433.211,-426.209 438,-429 458.664,-441.044 453.378,-456.884 474,-469 482.617,-474.062 492.35,-477.905 502.18,-480.821"/>
<polygon fill="midnightblue" stroke="midnightblue" points="423.601,-418.395 413.006,-418.502 421.355,-425.025 423.601,-418.395"/>
</g>
<!-- Node23 -->
<g id="node23" class="node"><title>Node23</title>
<g id="a_node23"><a xlink:href="classMezzanine_1_1IOReadException.html" target="_top" xlink:title="Thrown when a read is happening but something has prevented the underlying code from knowing what was...">
<polygon fill="white" stroke="black" points="493.5,-440.5 493.5,-459.5 640.5,-459.5 640.5,-440.5 493.5,-440.5"/>
<text text-anchor="middle" x="567" y="-447.5" font-family="Helvetica,sans-Serif" font-size="10.00">Mezzanine::IOReadException</text>
</a>
</g>
</g>
<!-- Node12&#45;&gt;Node23 -->
<g id="edge22" class="edge"><title>Node12&#45;&gt;Node23</title>
<path fill="none" stroke="midnightblue" d="M413.189,-421.437C445.414,-427.461 484.472,-434.761 515.034,-440.474"/>
<polygon fill="midnightblue" stroke="midnightblue" points="413.459,-417.927 402.986,-419.53 412.173,-424.808 413.459,-417.927"/>
</g>
<!-- Node24 -->
<g id="node24" class="node"><title>Node24</title>
<g id="a_node24"><a xlink:href="classMezzanine_1_1IOWriteException.html" target="_top" xlink:title="Thrown when a write is happening but something has prevented the underlying code from knowing what wa...">
<polygon fill="white" stroke="black" points="493.5,-402.5 493.5,-421.5 640.5,-421.5 640.5,-402.5 493.5,-402.5"/>
<text text-anchor="middle" x="567" y="-409.5" font-family="Helvetica,sans-Serif" font-size="10.00">Mezzanine::IOWriteException</text>
</a>
</g>
</g>
<!-- Node12&#45;&gt;Node24 -->
<g id="edge23" class="edge"><title>Node12&#45;&gt;Node24</title>
<path fill="none" stroke="midnightblue" d="M423.182,-410.665C445.662,-410.875 470.527,-411.108 493.124,-411.319"/>
<polygon fill="midnightblue" stroke="midnightblue" points="423.07,-407.164 413.037,-410.57 423.004,-414.164 423.07,-407.164"/>
</g>
<!-- Node25 -->
<g id="node25" class="node"><title>Node25</title>
<g id="a_node25"><a xlink:href="classMezzanine_1_1NetworkException.html" target="_top" xlink:title="Thrown when something unknown causes network IO to fail. ">
<polygon fill="white" stroke="black" points="492,-364.5 492,-383.5 642,-383.5 642,-364.5 492,-364.5"/>
<text text-anchor="middle" x="567" y="-371.5" font-family="Helvetica,sans-Serif" font-size="10.00">Mezzanine::NetworkException</text>
</a>
</g>
</g>
<!-- Node12&#45;&gt;Node25 -->
<g id="edge24" class="edge"><title>Node12&#45;&gt;Node25</title>
<path fill="none" stroke="midnightblue" d="M418.569,-398.801C447.618,-393.915 481.329,-388.244 509.177,-383.559"/>
<polygon fill="midnightblue" stroke="midnightblue" points="417.787,-395.384 408.506,-400.494 418.948,-402.287 417.787,-395.384"/>
</g>
<!-- Node14 -->
<g id="node14" class="node"><title>Node14</title>
<g id="a_node14"><a xlink:href="classMezzanine_1_1DirectoryNotFoundException.html" target="_top" xlink:title="Thrown when a directory was expected to be there, but was not. ">
<polygon fill="white" stroke="black" points="707,-754 707,-784 859,-784 859,-754 707,-754"/>
<text text-anchor="start" x="715" y="-772" font-family="Helvetica,sans-Serif" font-size="10.00">Mezzanine::DirectoryNotFound</text>
<text text-anchor="middle" x="783" y="-761" font-family="Helvetica,sans-Serif" font-size="10.00">Exception</text>
</a>
</g>
</g>
<!-- Node13&#45;&gt;Node14 -->
<g id="edge13" class="edge"><title>Node13&#45;&gt;Node14</title>
<path fill="none" stroke="midnightblue" d="M652.862,-636.596C655.369,-638.227 657.759,-640.023 660,-642 696.054,-673.8 661.062,-710.978 696,-744 700.068,-747.845 704.693,-751.103 709.637,-753.863"/>
<polygon fill="midnightblue" stroke="midnightblue" points="654.384,-633.438 643.94,-631.66 650.996,-639.563 654.384,-633.438"/>
</g>
<!-- Node15 -->
<g id="node15" class="node"><title>Node15</title>
<g id="a_node15"><a xlink:href="classMezzanine_1_1DirectoryPermissionException.html" target="_top" xlink:title="Thrown when permission is denied to a directory. ">
<polygon fill="white" stroke="black" points="704,-705 704,-735 862,-735 862,-705 704,-705"/>
<text text-anchor="start" x="712" y="-723" font-family="Helvetica,sans-Serif" font-size="10.00">Mezzanine::DirectoryPermission</text>
<text text-anchor="middle" x="783" y="-712" font-family="Helvetica,sans-Serif" font-size="10.00">Exception</text>
</a>
</g>
</g>
<!-- Node13&#45;&gt;Node15 -->
<g id="edge14" class="edge"><title>Node13&#45;&gt;Node15</title>
<path fill="none" stroke="midnightblue" d="M648.621,-635.569C652.597,-637.449 656.419,-639.581 660,-642 683.596,-657.94 672.966,-678.258 696,-695 701.282,-698.84 707.146,-702.092 713.259,-704.847"/>
<polygon fill="midnightblue" stroke="midnightblue" points="649.685,-632.221 639.107,-631.627 647.005,-638.688 649.685,-632.221"/>
</g>
<!-- Node16 -->
<g id="node16" class="node"><title>Node16</title>
<g id="a_node16"><a xlink:href="classMezzanine_1_1DirectoryReadException.html" target="_top" xlink:title="Thrown when a directory could be read and it wasn&#39;t a permission issue. ">
<polygon fill="white" stroke="black" points="716.5,-656 716.5,-686 849.5,-686 849.5,-656 716.5,-656"/>
<text text-anchor="start" x="724.5" y="-674" font-family="Helvetica,sans-Serif" font-size="10.00">Mezzanine::DirectoryRead</text>
<text text-anchor="middle" x="783" y="-663" font-family="Helvetica,sans-Serif" font-size="10.00">Exception</text>
</a>
</g>
</g>
<!-- Node13&#45;&gt;Node16 -->
<g id="edge15" class="edge"><title>Node13&#45;&gt;Node16</title>
<path fill="none" stroke="midnightblue" d="M623.011,-633.777C635.201,-636.438 648.047,-639.28 660,-642 679.424,-646.419 700.548,-651.384 719.676,-655.94"/>
<polygon fill="midnightblue" stroke="midnightblue" points="623.476,-630.297 612.96,-631.592 621.989,-637.137 623.476,-630.297"/>
</g>
<!-- Node17 -->
<g id="node17" class="node"><title>Node17</title>
<g id="a_node17"><a xlink:href="classMezzanine_1_1DirectoryWriteException.html" target="_top" xlink:title="Thrown when a directory could be written to and it wasn&#39;t a permission issue. ">
<polygon fill="white" stroke="black" points="716.5,-607 716.5,-637 849.5,-637 849.5,-607 716.5,-607"/>
<text text-anchor="start" x="724.5" y="-625" font-family="Helvetica,sans-Serif" font-size="10.00">Mezzanine::DirectoryWrite</text>
<text text-anchor="middle" x="783" y="-614" font-family="Helvetica,sans-Serif" font-size="10.00">Exception</text>
</a>
</g>
</g>
<!-- Node13&#45;&gt;Node17 -->
<g id="edge16" class="edge"><title>Node13&#45;&gt;Node17</title>
<path fill="none" stroke="midnightblue" d="M653.861,-622C674.669,-622 696.588,-622 716.298,-622"/>
<polygon fill="midnightblue" stroke="midnightblue" points="653.75,-618.5 643.75,-622 653.75,-625.5 653.75,-618.5"/>
</g>
<!-- Node19 -->
<g id="node19" class="node"><title>Node19</title>
<g id="a_node19"><a xlink:href="classMezzanine_1_1FileNotFoundException.html" target="_top" xlink:title="Thrown when a file was expected to be there, but was not. ">
<polygon fill="white" stroke="black" points="697,-568.5 697,-587.5 869,-587.5 869,-568.5 697,-568.5"/>
<text text-anchor="middle" x="783" y="-575.5" font-family="Helvetica,sans-Serif" font-size="10.00">Mezzanine::FileNotFoundException</text>
</a>
</g>
</g>
<!-- Node18&#45;&gt;Node19 -->
<g id="edge18" class="edge"><title>Node18&#45;&gt;Node19</title>
<path fill="none" stroke="midnightblue" d="M591.946,-505.163C617.021,-520.446 657.971,-543.755 696,-558 707.053,-562.14 719.238,-565.6 730.873,-568.413"/>
<polygon fill="midnightblue" stroke="midnightblue" points="593.5,-502.009 583.152,-499.734 589.823,-507.965 593.5,-502.009"/>
</g>
<!-- Node20 -->
<g id="node20" class="node"><title>Node20</title>
<g id="a_node20"><a xlink:href="classMezzanine_1_1FilePermissionException.html" target="_top" xlink:title="Thrown when permission was denied to a file. ">
<polygon fill="white" stroke="black" points="716,-519 716,-549 850,-549 850,-519 716,-519"/>
<text text-anchor="start" x="724" y="-537" font-family="Helvetica,sans-Serif" font-size="10.00">Mezzanine::FilePermission</text>
<text text-anchor="middle" x="783" y="-526" font-family="Helvetica,sans-Serif" font-size="10.00">Exception</text>
</a>
</g>
</g>
<!-- Node18&#45;&gt;Node20 -->
<g id="edge19" class="edge"><title>Node18&#45;&gt;Node20</title>
<path fill="none" stroke="midnightblue" d="M624.467,-501.61C652.489,-507.372 686.514,-514.367 715.761,-520.381"/>
<polygon fill="midnightblue" stroke="midnightblue" points="624.935,-498.133 614.435,-499.547 623.525,-504.99 624.935,-498.133"/>
</g>
<!-- Node21 -->
<g id="node21" class="node"><title>Node21</title>
<g id="a_node21"><a xlink:href="classMezzanine_1_1FileReadException.html" target="_top" xlink:title="Thrown when a file could not be read and permissions seem to not be an issue (Filesystem/hardware iss...">
<polygon fill="white" stroke="black" points="707,-480.5 707,-499.5 859,-499.5 859,-480.5 707,-480.5"/>
<text text-anchor="middle" x="783" y="-487.5" font-family="Helvetica,sans-Serif" font-size="10.00">Mezzanine::FileReadException</text>
</a>
</g>
</g>
<!-- Node18&#45;&gt;Node21 -->
<g id="edge20" class="edge"><title>Node18&#45;&gt;Node21</title>
<path fill="none" stroke="midnightblue" d="M641.793,-490C662.845,-490 685.8,-490 706.928,-490"/>
<polygon fill="midnightblue" stroke="midnightblue" points="641.628,-486.5 631.628,-490 641.628,-493.5 641.628,-486.5"/>
</g>
<!-- Node22 -->
<g id="node22" class="node"><title>Node22</title>
<g id="a_node22"><a xlink:href="classMezzanine_1_1FileWriteException.html" target="_top" xlink:title="Thrown when a file could not be written and perimssions seem not to be an issue. ">
<polygon fill="white" stroke="black" points="707,-442.5 707,-461.5 859,-461.5 859,-442.5 707,-442.5"/>
<text text-anchor="middle" x="783" y="-449.5" font-family="Helvetica,sans-Serif" font-size="10.00">Mezzanine::FileWriteException</text>
</a>
</g>
</g>
<!-- Node18&#45;&gt;Node22 -->
<g id="edge21" class="edge"><title>Node18&#45;&gt;Node22</title>
<path fill="none" stroke="midnightblue" d="M631.901,-478.653C662.605,-473.201 698.994,-466.739 728.253,-461.544"/>
<polygon fill="midnightblue" stroke="midnightblue" points="630.959,-475.266 621.725,-480.46 632.183,-482.158 630.959,-475.266"/>
</g>
<!-- Node26 -->
<g id="node26" class="node"><title>Node26</title>
<g id="a_node26"><a xlink:href="classMezzanine_1_1NetworkNotFoundException.html" target="_top" xlink:title="Thrown when no network connection is available. ">
<polygon fill="white" stroke="black" points="708.5,-393 708.5,-423 857.5,-423 857.5,-393 708.5,-393"/>
<text text-anchor="start" x="716.5" y="-411" font-family="Helvetica,sans-Serif" font-size="10.00">Mezzanine::NetworkNotFound</text>
<text text-anchor="middle" x="783" y="-400" font-family="Helvetica,sans-Serif" font-size="10.00">Exception</text>
</a>
</g>
</g>
<!-- Node25&#45;&gt;Node26 -->
<g id="edge25" class="edge"><title>Node25&#45;&gt;Node26</title>
<path fill="none" stroke="midnightblue" d="M638.057,-385.131C660.591,-388.711 685.618,-392.687 708.399,-396.306"/>
<polygon fill="midnightblue" stroke="midnightblue" points="638.321,-381.629 627.895,-383.516 637.222,-388.542 638.321,-381.629"/>
</g>
<!-- Node27 -->
<g id="node27" class="node"><title>Node27</title>
<g id="a_node27"><a xlink:href="classMezzanine_1_1NetworkPermissionException.html" target="_top" xlink:title="Thrown when permision was denied to a network interface or network resource. ">
<polygon fill="white" stroke="black" points="705.5,-344 705.5,-374 860.5,-374 860.5,-344 705.5,-344"/>
<text text-anchor="start" x="713.5" y="-362" font-family="Helvetica,sans-Serif" font-size="10.00">Mezzanine::NetworkPermission</text>
<text text-anchor="middle" x="783" y="-351" font-family="Helvetica,sans-Serif" font-size="10.00">Exception</text>
</a>
</g>
</g>
<!-- Node25&#45;&gt;Node27 -->
<g id="edge26" class="edge"><title>Node25&#45;&gt;Node27</title>
<path fill="none" stroke="midnightblue" d="M652.415,-368.083C669.875,-366.859 688.176,-365.576 705.342,-364.373"/>
<polygon fill="midnightblue" stroke="midnightblue" points="651.977,-364.605 642.246,-368.796 652.467,-371.588 651.977,-364.605"/>
</g>
<!-- Node28 -->
<g id="node28" class="node"><title>Node28</title>
<g id="a_node28"><a xlink:href="classMezzanine_1_1NetworkReadException.html" target="_top" xlink:title="Thrown when data could not be read from the network (downloads). ">
<polygon fill="white" stroke="black" points="696.5,-305.5 696.5,-324.5 869.5,-324.5 869.5,-305.5 696.5,-305.5"/>
<text text-anchor="middle" x="783" y="-312.5" font-family="Helvetica,sans-Serif" font-size="10.00">Mezzanine::NetworkReadException</text>
</a>
</g>
</g>
<!-- Node25&#45;&gt;Node28 -->
<g id="edge27" class="edge"><title>Node25&#45;&gt;Node28</title>
<path fill="none" stroke="midnightblue" d="M634.493,-361.987C643.188,-359.708 651.888,-357.059 660,-354 677.126,-347.542 678.885,-340.487 696,-334 706.009,-330.207 716.974,-327.067 727.624,-324.508"/>
<polygon fill="midnightblue" stroke="midnightblue" points="633.577,-358.608 624.708,-364.405 635.256,-365.404 633.577,-358.608"/>
</g>
<!-- Node29 -->
<g id="node29" class="node"><title>Node29</title>
<g id="a_node29"><a xlink:href="classMezzanine_1_1NetworkURLException.html" target="_top" xlink:title="Thrown when an address is invalid or could not be found. ">
<polygon fill="white" stroke="black" points="698,-267.5 698,-286.5 868,-286.5 868,-267.5 698,-267.5"/>
<text text-anchor="middle" x="783" y="-274.5" font-family="Helvetica,sans-Serif" font-size="10.00">Mezzanine::NetworkURLException</text>
</a>
</g>
</g>
<!-- Node25&#45;&gt;Node29 -->
<g id="edge28" class="edge"><title>Node25&#45;&gt;Node29</title>
<path fill="none" stroke="midnightblue" d="M648.994,-360.484C652.848,-358.589 656.545,-356.439 660,-354 684.786,-336.503 671.243,-313.539 696,-296 701.49,-292.111 707.633,-288.997 714.043,-286.508"/>
<polygon fill="midnightblue" stroke="midnightblue" points="647.559,-357.292 639.756,-364.459 650.325,-363.722 647.559,-357.292"/>
</g>
<!-- Node30 -->
<g id="node30" class="node"><title>Node30</title>
<g id="a_node30"><a xlink:href="classMezzanine_1_1NetworkWriteException.html" target="_top" xlink:title="Thrown when data could not be read from the network (iloads). ">
<polygon fill="white" stroke="black" points="696.5,-229.5 696.5,-248.5 869.5,-248.5 869.5,-229.5 696.5,-229.5"/>
<text text-anchor="middle" x="783" y="-236.5" font-family="Helvetica,sans-Serif" font-size="10.00">Mezzanine::NetworkWriteException</text>
</a>
</g>
</g>
<!-- Node25&#45;&gt;Node30 -->
<g id="edge29" class="edge"><title>Node25&#45;&gt;Node30</title>
<path fill="none" stroke="midnightblue" d="M651.189,-360.357C654.302,-358.481 657.259,-356.371 660,-354 694.466,-324.192 661.584,-287.866 696,-258 700.388,-254.192 705.369,-251.095 710.669,-248.584"/>
<polygon fill="midnightblue" stroke="midnightblue" points="649.342,-357.371 642.044,-365.052 652.539,-363.598 649.342,-357.371"/>
</g>
<!-- Node32 -->
<g id="node32" class="node"><title>Node32</title>
<g id="a_node32"><a xlink:href="classMezzanine_1_1MemoryOutOfBoundsException.html" target="_top" xlink:title="Thrown when attempted to access something that really should note be accessed. ">
<polygon fill="white" stroke="black" points="485,-315 485,-345 649,-345 649,-315 485,-315"/>
<text text-anchor="start" x="493" y="-333" font-family="Helvetica,sans-Serif" font-size="10.00">Mezzanine::MemoryOutOfBounds</text>
<text text-anchor="middle" x="567" y="-322" font-family="Helvetica,sans-Serif" font-size="10.00">Exception</text>
</a>
</g>
</g>
<!-- Node31&#45;&gt;Node32 -->
<g id="edge31" class="edge"><title>Node31&#45;&gt;Node32</title>
<path fill="none" stroke="midnightblue" d="M441.954,-350.868C456.177,-348.475 470.812,-346.013 484.819,-343.657"/>
<polygon fill="midnightblue" stroke="midnightblue" points="440.966,-347.484 431.686,-352.595 442.128,-354.387 440.966,-347.484"/>
</g>
<!-- Node33 -->
<g id="node33" class="node"><title>Node33</title>
<g id="a_node33"><a xlink:href="classMezzanine_1_1OutOfMemoryException.html" target="_top" xlink:title="Thrown when A memory allocation was attempted and failed. ">
<polygon fill="white" stroke="black" points="479.5,-276.5 479.5,-295.5 654.5,-295.5 654.5,-276.5 479.5,-276.5"/>
<text text-anchor="middle" x="567" y="-283.5" font-family="Helvetica,sans-Serif" font-size="10.00">Mezzanine::OutOfMemoryException</text>
</a>
</g>
</g>
<!-- Node31&#45;&gt;Node33 -->
<g id="edge32" class="edge"><title>Node31&#45;&gt;Node33</title>
<path fill="none" stroke="midnightblue" d="M426.658,-346.906C430.579,-345.102 434.387,-343.137 438,-341 457.475,-329.48 454.084,-315.739 474,-305 481.178,-301.13 489.061,-298.046 497.101,-295.59"/>
<polygon fill="midnightblue" stroke="midnightblue" points="425.198,-343.724 417.342,-350.832 427.916,-350.174 425.198,-343.724"/>
</g>
<!-- Node36 -->
<g id="node36" class="node"><title>Node36</title>
<g id="a_node36"><a xlink:href="classMezzanine_1_1ParametersCastException.html" target="_top" xlink:title="Thrown when a pointer parameter is checked at runtime and cannot be cast as expected. ">
<polygon fill="white" stroke="black" points="496.5,-227 496.5,-257 637.5,-257 637.5,-227 496.5,-227"/>
<text text-anchor="start" x="504.5" y="-245" font-family="Helvetica,sans-Serif" font-size="10.00">Mezzanine::ParametersCast</text>
<text text-anchor="middle" x="567" y="-234" font-family="Helvetica,sans-Serif" font-size="10.00">Exception</text>
</a>
</g>
</g>
<!-- Node35&#45;&gt;Node36 -->
<g id="edge35" class="edge"><title>Node35&#45;&gt;Node36</title>
<path fill="none" stroke="midnightblue" d="M427.771,-262.024C450.112,-258.787 474.445,-255.263 496.38,-252.085"/>
<polygon fill="midnightblue" stroke="midnightblue" points="427.056,-258.591 417.661,-263.488 428.06,-265.518 427.056,-258.591"/>
</g>
<!-- Node37 -->
<g id="node37" class="node"><title>Node37</title>
<g id="a_node37"><a xlink:href="classMezzanine_1_1ParametersRangeException.html" target="_top" xlink:title="Thrown when a passed parameter is checked at runtime and not in the expected range. ">
<polygon fill="white" stroke="black" points="492.5,-178 492.5,-208 641.5,-208 641.5,-178 492.5,-178"/>
<text text-anchor="start" x="500.5" y="-196" font-family="Helvetica,sans-Serif" font-size="10.00">Mezzanine::ParametersRange</text>
<text text-anchor="middle" x="567" y="-185" font-family="Helvetica,sans-Serif" font-size="10.00">Exception</text>
</a>
</g>
</g>
<!-- Node35&#45;&gt;Node37 -->
<g id="edge36" class="edge"><title>Node35&#45;&gt;Node37</title>
<path fill="none" stroke="midnightblue" d="M425.337,-259.952C429.726,-258.211 433.984,-256.237 438,-254 458.043,-242.834 454.171,-228.542 474,-217 479.849,-213.595 486.184,-210.666 492.7,-208.146"/>
<polygon fill="midnightblue" stroke="midnightblue" points="423.827,-256.773 415.564,-263.405 426.159,-263.374 423.827,-256.773"/>
</g>
<!-- Node41 -->
<g id="node41" class="node"><title>Node41</title>
<g id="a_node41"><a xlink:href="classMezzanine_1_1ScriptLuaException.html" target="_top" xlink:title="Thrown when an unknown error happens in a Lua script. ">
<polygon fill="white" stroke="black" points="489.5,-137.5 489.5,-156.5 644.5,-156.5 644.5,-137.5 489.5,-137.5"/>
<text text-anchor="middle" x="567" y="-144.5" font-family="Helvetica,sans-Serif" font-size="10.00">Mezzanine::ScriptLuaException</text>
</a>
</g>
</g>
<!-- Node40&#45;&gt;Node41 -->
<g id="edge40" class="edge"><title>Node40&#45;&gt;Node41</title>
<path fill="none" stroke="midnightblue" d="M430.752,-147C449.853,-147 470.248,-147 489.255,-147"/>
<polygon fill="midnightblue" stroke="midnightblue" points="430.594,-143.5 420.594,-147 430.594,-150.5 430.594,-143.5"/>
</g>
<!-- Node42 -->
<g id="node42" class="node"><title>Node42</title>
<g id="a_node42"><a xlink:href="classMezzanine_1_1ScriptLuaErrErrException.html" target="_top" xlink:title="Thrown when Lua has an error handling an error. ">
<polygon fill="white" stroke="black" points="714.5,-180 714.5,-210 851.5,-210 851.5,-180 714.5,-180"/>
<text text-anchor="start" x="722.5" y="-198" font-family="Helvetica,sans-Serif" font-size="10.00">Mezzanine::ScriptLuaErrErr</text>
<text text-anchor="middle" x="783" y="-187" font-family="Helvetica,sans-Serif" font-size="10.00">Exception</text>
</a>
</g>
</g>
<!-- Node41&#45;&gt;Node42 -->
<g id="edge41" class="edge"><title>Node41&#45;&gt;Node42</title>
<path fill="none" stroke="midnightblue" d="M620.321,-158.736C648.88,-165.141 684.547,-173.141 715.109,-179.996"/>
<polygon fill="midnightblue" stroke="midnightblue" points="621.059,-155.314 610.535,-156.541 619.527,-162.144 621.059,-155.314"/>
</g>
<!-- Node43 -->
<g id="node43" class="node"><title>Node43</title>
<g id="a_node43"><a xlink:href="classMezzanine_1_1ScriptLuaRuntimeException.html" target="_top" xlink:title="Thrown when a Lua script has a runtime error. ">
<polygon fill="white" stroke="black" points="709,-131 709,-161 857,-161 857,-131 709,-131"/>
<text text-anchor="start" x="717" y="-149" font-family="Helvetica,sans-Serif" font-size="10.00">Mezzanine::ScriptLuaRuntime</text>
<text text-anchor="middle" x="783" y="-138" font-family="Helvetica,sans-Serif" font-size="10.00">Exception</text>
</a>
</g>
</g>
<!-- Node41&#45;&gt;Node43 -->
<g id="edge42" class="edge"><title>Node41&#45;&gt;Node43</title>
<path fill="none" stroke="midnightblue" d="M655.045,-146.593C672.87,-146.51 691.461,-146.423 708.744,-146.342"/>
<polygon fill="midnightblue" stroke="midnightblue" points="654.638,-143.095 644.654,-146.642 654.671,-150.095 654.638,-143.095"/>
</g>
<!-- Node44 -->
<g id="node44" class="node"><title>Node44</title>
<g id="a_node44"><a xlink:href="classMezzanine_1_1ScriptLuaYieldException.html" target="_top" xlink:title="Thrown when Lua returns a yield and it should not have. ">
<polygon fill="white" stroke="black" points="716.5,-82 716.5,-112 849.5,-112 849.5,-82 716.5,-82"/>
<text text-anchor="start" x="724.5" y="-100" font-family="Helvetica,sans-Serif" font-size="10.00">Mezzanine::ScriptLuaYield</text>
<text text-anchor="middle" x="783" y="-89" font-family="Helvetica,sans-Serif" font-size="10.00">Exception</text>
</a>
</g>
</g>
<!-- Node41&#45;&gt;Node44 -->
<g id="edge43" class="edge"><title>Node41&#45;&gt;Node44</title>
<path fill="none" stroke="midnightblue" d="M623.027,-135.292C635.216,-132.628 648.057,-129.766 660,-127 680.293,-122.3 702.423,-116.932 722.196,-112.048"/>
<polygon fill="midnightblue" stroke="midnightblue" points="622.005,-131.933 612.976,-137.477 623.492,-138.773 622.005,-131.933"/>
</g>
<!-- Node46 -->
<g id="node46" class="node"><title>Node46</title>
<g id="a_node46"><a xlink:href="classMezzanine_1_1SyntaxErrorLuaException.html" target="_top" xlink:title="Thrown when lua code in incorrect. ">
<polygon fill="white" stroke="black" points="498.5,-88 498.5,-118 635.5,-118 635.5,-88 498.5,-88"/>
<text text-anchor="start" x="506.5" y="-106" font-family="Helvetica,sans-Serif" font-size="10.00">Mezzanine::SyntaxErrorLua</text>
<text text-anchor="middle" x="567" y="-95" font-family="Helvetica,sans-Serif" font-size="10.00">Exception</text>
</a>
</g>
</g>
<!-- Node45&#45;&gt;Node46 -->
<g id="edge45" class="edge"><title>Node45&#45;&gt;Node46</title>
<path fill="none" stroke="midnightblue" d="M443.628,-90.4197C461.971,-92.3054 480.929,-94.2544 498.286,-96.0387"/>
<polygon fill="midnightblue" stroke="midnightblue" points="443.82,-86.9211 433.515,-89.38 443.104,-93.8844 443.82,-86.9211"/>
</g>
<!-- Node47 -->
<g id="node47" class="node"><title>Node47</title>
<g id="a_node47"><a xlink:href="classMezzanine_1_1SyntaxErrorXMLException.html" target="_top" xlink:title="Thrown when and XML document is being parsed but is invalid. ">
<polygon fill="white" stroke="black" points="474.5,-49.5 474.5,-68.5 659.5,-68.5 659.5,-49.5 474.5,-49.5"/>
<text text-anchor="middle" x="567" y="-56.5" font-family="Helvetica,sans-Serif" font-size="10.00">Mezzanine::SyntaxErrorXMLException</text>
</a>
</g>
</g>
<!-- Node45&#45;&gt;Node47 -->
<g id="edge46" class="edge"><title>Node45&#45;&gt;Node47</title>
<path fill="none" stroke="midnightblue" d="M443.616,-71.5815C453.796,-70.535 464.164,-69.4691 474.344,-68.4226"/>
<polygon fill="midnightblue" stroke="midnightblue" points="443.104,-68.1156 433.515,-72.62 443.82,-75.0789 443.104,-68.1156"/>
</g>
<!-- Node48 -->
<g id="node48" class="node"><title>Node48</title>
<g id="a_node48"><a xlink:href="classMezzanine_1_1SyntaxErrorXPathException.html" target="_top" xlink:title="Thrown when an XPath query is being parsed but is invalid. ">
<polygon fill="white" stroke="black" points="492.5,-0 492.5,-30 641.5,-30 641.5,-0 492.5,-0"/>
<text text-anchor="start" x="500.5" y="-18" font-family="Helvetica,sans-Serif" font-size="10.00">Mezzanine::SyntaxErrorXPath</text>
<text text-anchor="middle" x="567" y="-7" font-family="Helvetica,sans-Serif" font-size="10.00">Exception</text>
</a>
</g>
</g>
<!-- Node45&#45;&gt;Node48 -->
<g id="edge47" class="edge"><title>Node45&#45;&gt;Node48</title>
<path fill="none" stroke="midnightblue" d="M388.468,-68.1187C412.619,-59.743 445.061,-48.7864 474,-40 485.086,-36.634 496.988,-33.2396 508.431,-30.084"/>
<polygon fill="midnightblue" stroke="midnightblue" points="387.28,-64.8261 378.988,-71.4213 389.583,-71.4364 387.28,-64.8261"/>
</g>
</g>
</svg>
