<?xml version="1.0" encoding="UTF-8" standalone="no"?>
<!DOCTYPE svg PUBLIC "-//W3C//DTD SVG 1.1//EN"
 "http://www.w3.org/Graphics/SVG/1.1/DTD/svg11.dtd">
<!-- Generated by graphviz version 2.26.3 (20100126.1600)
 -->
<!-- Title: Graphical Class Hierarchy Pages: 1 -->
<svg width="200pt" height="66pt"
 viewBox="0.00 0.00 200.00 66.00" xmlns="http://www.w3.org/2000/svg" xmlns:xlink="http://www.w3.org/1999/xlink">
<g id="graph1" class="graph" transform="scale(1 1) rotate(0) translate(4 62)">
<title>Graphical Class Hierarchy</title>
<!-- Node1 -->
<g id="node1" class="node"><title>Node1</title>
<a xlink:href="classxml__writer.xhtml" target="_top" xlink:title="xml_writer">
<polygon fill="none" stroke="black" points="0,-19 0,-39 60,-39 60,-19 0,-19"/>
<text text-anchor="middle" x="30" y="-26" font-family="FreeSans" font-size="10.00">xml_writer</text>
</a>
</g>
<!-- Node2 -->
<g id="node3" class="node"><title>Node2</title>
<a xlink:href="classxml__writer__file.xhtml" target="_top" xlink:title="xml_writer_file">
<polygon fill="none" stroke="black" points="105.5,-38 105.5,-58 182.5,-58 182.5,-38 105.5,-38"/>
<text text-anchor="middle" x="144" y="-45" font-family="FreeSans" font-size="10.00">xml_writer_file</text>
</a>
</g>
<!-- Node1&#45;&gt;Node2 -->
<g id="edge2" class="edge"><title>Node1&#45;&gt;Node2</title>
<path fill="none" stroke="midnightblue" d="M70.3809,-35.7301C81.7727,-37.6288 94.135,-39.6892 105.418,-41.5697"/>
<polygon fill="midnightblue" stroke="midnightblue" points="70.69,-32.2335 60.2506,-34.0418 69.5391,-39.1382 70.69,-32.2335"/>
</g>
<!-- Node3 -->
<g id="node5" class="node"><title>Node3</title>
<a xlink:href="classxml__writer__stream.xhtml" target="_top" xlink:title="xml_writer_stream">
<polygon fill="none" stroke="black" points="96.5,-0 96.5,-20 191.5,-20 191.5,-0 96.5,-0"/>
<text text-anchor="middle" x="144" y="-7" font-family="FreeSans" font-size="10.00">xml_writer_stream</text>
</a>
</g>
<!-- Node1&#45;&gt;Node3 -->
<g id="edge4" class="edge"><title>Node1&#45;&gt;Node3</title>
<path fill="none" stroke="midnightblue" d="M70.2414,-22.2931C78.698,-20.8837 87.6948,-19.3842 96.3916,-17.9347"/>
<polygon fill="midnightblue" stroke="midnightblue" points="69.5391,-18.8618 60.2506,-23.9582 70.69,-25.7665 69.5391,-18.8618"/>
</g>
</g>
</svg>
