<?xml version="1.0" encoding="UTF-8" standalone="no"?>
<!DOCTYPE svg PUBLIC "-//W3C//DTD SVG 1.1//EN"
 "http://www.w3.org/Graphics/SVG/1.1/DTD/svg11.dtd">
<!-- Generated by graphviz version 2.26.3 (20100126.1600)
 -->
<!-- Title: Graphical Class Hierarchy Pages: 1 -->
<svg width="274pt" height="42pt"
 viewBox="0.00 0.00 274.00 42.00" xmlns="http://www.w3.org/2000/svg" xmlns:xlink="http://www.w3.org/1999/xlink">
<g id="graph1" class="graph" transform="scale(1 1) rotate(0) translate(4 38)">
<title>Graphical Class Hierarchy</title>
<polygon fill="white" stroke="white" points="-4,5 -4,-38 271,-38 271,5 -4,5"/>
<!-- Node1 -->
<g id="node1" class="node"><title>Node1</title>
<a xlink:href="classMezzanine_1_1BinaryTools_1_1BinaryBuffer.html" target="_top" xlink:title="A way to store and pass binary buffers, for example compiled bytecode. ">
<polygon fill="white" stroke="black" points="0,-0 0,-34 122,-34 122,-0 0,-0"/>
<text text-anchor="start" x="8" y="-21" font-family="Helvetica,sans-Serif" font-size="10.00">Mezzanine::BinaryTools</text>
<text text-anchor="middle" x="61" y="-8" font-family="Helvetica,sans-Serif" font-size="10.00">::BinaryBuffer</text>
</a>
</g>
<!-- Node2 -->
<g id="node3" class="node"><title>Node2</title>
<a xlink:href="classMezzanine_1_1Scripting_1_1Lua_1_1FlaggedBuffer.html" target="_top" xlink:title="An expanded version of the BinaryTools::BinaryBuffer to carry one tiny piece of metadata around with ...">
<polygon fill="white" stroke="black" points="158,-0 158,-34 266,-34 266,-0 158,-0"/>
<text text-anchor="start" x="166" y="-21" font-family="Helvetica,sans-Serif" font-size="10.00">Mezzanine::Scripting</text>
<text text-anchor="middle" x="212" y="-8" font-family="Helvetica,sans-Serif" font-size="10.00">::Lua::FlaggedBuffer</text>
</a>
</g>
<!-- Node1&#45;&gt;Node2 -->
<g id="edge2" class="edge"><title>Node1&#45;&gt;Node2</title>
<path fill="none" stroke="midnightblue" d="M132.424,-17C140.997,-17 149.642,-17 157.912,-17"/>
<polygon fill="midnightblue" stroke="midnightblue" points="132.418,-13.5001 122.417,-17 132.417,-20.5001 132.418,-13.5001"/>
</g>
</g>
</svg>
