<?xml version="1.0" encoding="UTF-8" standalone="no"?>
<!DOCTYPE svg PUBLIC "-//W3C//DTD SVG 1.1//EN"
 "http://www.w3.org/Graphics/SVG/1.1/DTD/svg11.dtd">
<!-- Generated by graphviz version 2.38.0 (20140413.2041)
 -->
<!-- Title: Graphical Class Hierarchy Pages: 1 -->
<svg width="329pt" height="66pt"
 viewBox="0.00 0.00 329.00 66.00" xmlns="http://www.w3.org/2000/svg" xmlns:xlink="http://www.w3.org/1999/xlink">
<g id="graph0" class="graph" transform="scale(1 1) rotate(0) translate(4 62)">
<title>Graphical Class Hierarchy</title>
<polygon fill="white" stroke="none" points="-4,4 -4,-62 325,-62 325,4 -4,4"/>
<!-- Node1 -->
<g id="node1" class="node"><title>Node1</title>
<g id="a_node1"><a xlink:href="classMezzanine_1_1DebrisFactory.html" target="_top" xlink:title="A base factory type for the creation of Debris objects. ">
<polygon fill="white" stroke="black" points="0,-19.5 0,-38.5 131,-38.5 131,-19.5 0,-19.5"/>
<text text-anchor="middle" x="65.5" y="-26.5" font-family="Helvetica,sans-Serif" font-size="10.00">Mezzanine::DebrisFactory</text>
</a>
</g>
</g>
<!-- Node2 -->
<g id="node2" class="node"><title>Node2</title>
<g id="a_node2"><a xlink:href="classMezzanine_1_1RigidDebrisFactory.html" target="_top" xlink:title="A base factory type for the creation of non&#45;deformable Debris objects. ">
<polygon fill="white" stroke="black" points="167,-38.5 167,-57.5 321,-57.5 321,-38.5 167,-38.5"/>
<text text-anchor="middle" x="244" y="-45.5" font-family="Helvetica,sans-Serif" font-size="10.00">Mezzanine::RigidDebrisFactory</text>
</a>
</g>
</g>
<!-- Node1&#45;&gt;Node2 -->
<g id="edge1" class="edge"><title>Node1&#45;&gt;Node2</title>
<path fill="none" stroke="midnightblue" d="M141.413,-37.0643C149.855,-37.973 158.463,-38.8997 166.92,-39.81"/>
<polygon fill="midnightblue" stroke="midnightblue" points="141.537,-33.5575 131.22,-35.967 140.788,-40.5173 141.537,-33.5575"/>
</g>
<!-- Node3 -->
<g id="node3" class="node"><title>Node3</title>
<g id="a_node3"><a xlink:href="classMezzanine_1_1SoftDebrisFactory.html" target="_top" xlink:title="A base factory type for the creation of deformable Debris objects. ">
<polygon fill="white" stroke="black" points="169.5,-0.5 169.5,-19.5 318.5,-19.5 318.5,-0.5 169.5,-0.5"/>
<text text-anchor="middle" x="244" y="-7.5" font-family="Helvetica,sans-Serif" font-size="10.00">Mezzanine::SoftDebrisFactory</text>
</a>
</g>
</g>
<!-- Node1&#45;&gt;Node3 -->
<g id="edge2" class="edge"><title>Node1&#45;&gt;Node3</title>
<path fill="none" stroke="midnightblue" d="M141.22,-20.9565C150.528,-19.9545 160.042,-18.9303 169.334,-17.93"/>
<polygon fill="midnightblue" stroke="midnightblue" points="140.788,-17.4827 131.22,-22.033 141.537,-24.4425 140.788,-17.4827"/>
</g>
</g>
</svg>
