<?xml version="1.0" encoding="UTF-8" standalone="no"?>
<!DOCTYPE svg PUBLIC "-//W3C//DTD SVG 1.1//EN"
 "http://www.w3.org/Graphics/SVG/1.1/DTD/svg11.dtd">
<!-- Generated by graphviz version 2.26.3 (20100126.1600)
 -->
<!-- Title: Graphical Class Hierarchy Pages: 1 -->
<svg width="484pt" height="115pt"
 viewBox="0.00 0.00 484.00 115.00" xmlns="http://www.w3.org/2000/svg" xmlns:xlink="http://www.w3.org/1999/xlink">
<g id="graph1" class="graph" transform="scale(1 1) rotate(0) translate(4 111)">
<title>Graphical Class Hierarchy</title>
<polygon fill="white" stroke="white" points="-4,5 -4,-111 481,-111 481,5 -4,5"/>
<!-- Node1 -->
<g id="node1" class="node"><title>Node1</title>
<a xlink:href="classMezzanine_1_1EventArguments.html" target="_top" xlink:title="This is a common class to represent all possible arguments for a given event that is fired...">
<polygon fill="white" stroke="black" points="0.5,-56 0.5,-76 137.5,-76 137.5,-56 0.5,-56"/>
<text text-anchor="middle" x="69" y="-63" font-family="FreeSans" font-size="10.00">Mezzanine::EventArguments</text>
</a>
</g>
<!-- Node2 -->
<g id="node3" class="node"><title>Node2</title>
<a xlink:href="classMezzanine_1_1UI_1_1ActionEventArguments.html" target="_top" xlink:title="This is the base class for action specific event arguments.">
<polygon fill="white" stroke="black" points="175.5,-75 175.5,-107 308.5,-107 308.5,-75 175.5,-75"/>
<text text-anchor="start" x="183.5" y="-94" font-family="FreeSans" font-size="10.00">Mezzanine::UI::ActionEvent</text>
<text text-anchor="middle" x="242" y="-82" font-family="FreeSans" font-size="10.00">Arguments</text>
</a>
</g>
<!-- Node1&#45;&gt;Node2 -->
<g id="edge2" class="edge"><title>Node1&#45;&gt;Node2</title>
<path fill="none" stroke="midnightblue" d="M147.794,-77.3864C156.999,-78.7165 166.321,-80.0637 175.339,-81.3669"/>
<polygon fill="midnightblue" stroke="midnightblue" points="148.269,-73.9188 137.871,-75.9525 147.268,-80.8468 148.269,-73.9188"/>
</g>
<!-- Node3 -->
<g id="node5" class="node"><title>Node3</title>
<a xlink:href="classMezzanine_1_1UI_1_1WidgetEventArguments.html" target="_top" xlink:title="This is the base class for widget specific event arguments.">
<polygon fill="white" stroke="black" points="174.5,-25 174.5,-57 309.5,-57 309.5,-25 174.5,-25"/>
<text text-anchor="start" x="182.5" y="-44" font-family="FreeSans" font-size="10.00">Mezzanine::UI::WidgetEvent</text>
<text text-anchor="middle" x="242" y="-32" font-family="FreeSans" font-size="10.00">Arguments</text>
</a>
</g>
<!-- Node1&#45;&gt;Node3 -->
<g id="edge4" class="edge"><title>Node1&#45;&gt;Node3</title>
<path fill="none" stroke="midnightblue" d="M147.852,-54.6052C156.751,-53.3192 165.759,-52.0176 174.494,-50.7551"/>
<polygon fill="midnightblue" stroke="midnightblue" points="147.268,-51.1532 137.871,-56.0475 148.269,-58.0812 147.268,-51.1532"/>
</g>
<!-- Node4 -->
<g id="node7" class="node"><title>Node4</title>
<a xlink:href="classMezzanine_1_1UI_1_1ChildFocusEventArguments.html" target="_top" xlink:title="Mezzanine::UI::ChildFocus\lEventArguments">
<polygon fill="white" stroke="black" points="346.5,-50 346.5,-82 475.5,-82 475.5,-50 346.5,-50"/>
<text text-anchor="start" x="354.5" y="-69" font-family="FreeSans" font-size="10.00">Mezzanine::UI::ChildFocus</text>
<text text-anchor="middle" x="411" y="-57" font-family="FreeSans" font-size="10.00">EventArguments</text>
</a>
</g>
<!-- Node3&#45;&gt;Node4 -->
<g id="edge6" class="edge"><title>Node3&#45;&gt;Node4</title>
<path fill="none" stroke="midnightblue" d="M319.718,-52.4967C328.59,-53.8091 337.562,-55.1364 346.24,-56.4201"/>
<polygon fill="midnightblue" stroke="midnightblue" points="320.17,-49.0255 309.765,-51.0244 319.145,-55.9502 320.17,-49.0255"/>
</g>
<!-- Node5 -->
<g id="node9" class="node"><title>Node5</title>
<a xlink:href="classMezzanine_1_1UI_1_1ScrollbarValueChangedArguments.html" target="_top" xlink:title="This is the EventArguments class for when the scrollvalue of a scrollbar is updated.">
<polygon fill="white" stroke="black" points="348.5,-0 348.5,-32 473.5,-32 473.5,-0 348.5,-0"/>
<text text-anchor="start" x="356.5" y="-19" font-family="FreeSans" font-size="10.00">Mezzanine::UI::Scrollbar</text>
<text text-anchor="middle" x="411" y="-7" font-family="FreeSans" font-size="10.00">ValueChangedArguments</text>
</a>
</g>
<!-- Node3&#45;&gt;Node5 -->
<g id="edge8" class="edge"><title>Node3&#45;&gt;Node5</title>
<path fill="none" stroke="midnightblue" d="M319.722,-29.5026C329.338,-28.0801 339.072,-26.6402 348.421,-25.2572"/>
<polygon fill="midnightblue" stroke="midnightblue" points="319.145,-26.0498 309.765,-30.9756 320.17,-32.9745 319.145,-26.0498"/>
</g>
</g>
</svg>
