<?xml version="1.0" encoding="UTF-8" standalone="no"?>
<!DOCTYPE svg PUBLIC "-//W3C//DTD SVG 1.1//EN"
 "http://www.w3.org/Graphics/SVG/1.1/DTD/svg11.dtd">
<!-- Generated by graphviz version 2.26.3 (20100126.1600)
 -->
<!-- Title: Graphical Class Hierarchy Pages: 1 -->
<svg width="666pt" height="490pt"
 viewBox="0.00 0.00 666.00 490.00" xmlns="http://www.w3.org/2000/svg" xmlns:xlink="http://www.w3.org/1999/xlink">
<g id="graph1" class="graph" transform="scale(1 1) rotate(0) translate(4 486)">
<title>Graphical Class Hierarchy</title>
<polygon fill="white" stroke="white" points="-4,5 -4,-486 663,-486 663,5 -4,5"/>
<!-- Node1 -->
<g id="node1" class="node"><title>Node1</title>
<a xlink:href="classMezzanine_1_1IntrusiveRefCount.html" target="_top" xlink:title="A sample class that implements a minimal intrusive reference counting scheme. ">
<polygon fill="white" stroke="black" points="0.5,-256.5 0.5,-277.5 149.5,-277.5 149.5,-256.5 0.5,-256.5"/>
<text text-anchor="middle" x="75" y="-264.5" font-family="Helvetica,sans-Serif" font-size="10.00">Mezzanine::IntrusiveRefCount</text>
</a>
</g>
<!-- Node2 -->
<g id="node3" class="node"><title>Node2</title>
<a xlink:href="classMezzanine_1_1Scripting_1_1iScriptArgument.html" target="_top" xlink:title="The interface for a script argument. ">
<polygon fill="white" stroke="black" points="186,-250 186,-284 294,-284 294,-250 186,-250"/>
<text text-anchor="start" x="194" y="-271" font-family="Helvetica,sans-Serif" font-size="10.00">Mezzanine::Scripting</text>
<text text-anchor="middle" x="240" y="-258" font-family="Helvetica,sans-Serif" font-size="10.00">::iScriptArgument</text>
</a>
</g>
<!-- Node1&#45;&gt;Node2 -->
<g id="edge2" class="edge"><title>Node1&#45;&gt;Node2</title>
<path fill="none" stroke="midnightblue" d="M160.021,-267C168.755,-267 177.45,-267 185.716,-267"/>
<polygon fill="midnightblue" stroke="midnightblue" points="159.776,-263.5 149.776,-267 159.776,-270.5 159.776,-263.5"/>
</g>
<!-- Node3 -->
<g id="node5" class="node"><title>Node3</title>
<a xlink:href="classMezzanine_1_1Scripting_1_1ScriptArgumentGeneric.html" target="_top" xlink:title="A generic implementation of a ScriptArgument that is suitable for primitive types in most situations...">
<polygon fill="white" stroke="black" points="330,-250 330,-284 478,-284 478,-250 330,-250"/>
<text text-anchor="start" x="338" y="-271" font-family="Helvetica,sans-Serif" font-size="10.00">Mezzanine::Scripting</text>
<text text-anchor="middle" x="404" y="-258" font-family="Helvetica,sans-Serif" font-size="10.00">::ScriptArgumentGeneric&lt; T &gt;</text>
</a>
</g>
<!-- Node2&#45;&gt;Node3 -->
<g id="edge4" class="edge"><title>Node2&#45;&gt;Node3</title>
<path fill="none" stroke="midnightblue" d="M304.287,-267C312.722,-267 321.42,-267 330,-267"/>
<polygon fill="midnightblue" stroke="midnightblue" points="304.154,-263.5 294.154,-267 304.154,-270.5 304.154,-263.5"/>
</g>
<!-- Node4 -->
<g id="node7" class="node"><title>Node4</title>
<a xlink:href="classMezzanine_1_1Scripting_1_1ScriptArgumentGeneric_3_01Boole_01_4.html" target="_top" xlink:title="A Bool implementation of a ScriptArgument that is suitable for primitive types in most situations...">
<polygon fill="white" stroke="black" points="342,-132.5 342,-179.5 466,-179.5 466,-132.5 342,-132.5"/>
<text text-anchor="start" x="350" y="-166.5" font-family="Helvetica,sans-Serif" font-size="10.00">Mezzanine::Scripting</text>
<text text-anchor="start" x="350" y="-153.5" font-family="Helvetica,sans-Serif" font-size="10.00">::ScriptArgumentGeneric</text>
<text text-anchor="middle" x="404" y="-140.5" font-family="Helvetica,sans-Serif" font-size="10.00">&lt; Boole &gt;</text>
</a>
</g>
<!-- Node2&#45;&gt;Node4 -->
<g id="edge6" class="edge"><title>Node2&#45;&gt;Node4</title>
<path fill="none" stroke="midnightblue" d="M264.113,-242.595C281.392,-226.023 305.797,-204.404 330,-189 335.222,-185.677 340.834,-182.521 346.549,-179.573"/>
<polygon fill="midnightblue" stroke="midnightblue" points="261.424,-240.329 256.702,-249.814 266.308,-245.344 261.424,-240.329"/>
</g>
<!-- Node6 -->
<g id="node11" class="node"><title>Node6</title>
<a xlink:href="classMezzanine_1_1Scripting_1_1ScriptArgumentGeneric_3_01Integer_01_4.html" target="_top" xlink:title="A Integer implementation of a ScriptArgument that is suitable for primitive types in most situations...">
<polygon fill="white" stroke="black" points="342,-66.5 342,-113.5 466,-113.5 466,-66.5 342,-66.5"/>
<text text-anchor="start" x="350" y="-100.5" font-family="Helvetica,sans-Serif" font-size="10.00">Mezzanine::Scripting</text>
<text text-anchor="start" x="350" y="-87.5" font-family="Helvetica,sans-Serif" font-size="10.00">::ScriptArgumentGeneric</text>
<text text-anchor="middle" x="404" y="-74.5" font-family="Helvetica,sans-Serif" font-size="10.00">&lt; Integer &gt;</text>
</a>
</g>
<!-- Node2&#45;&gt;Node6 -->
<g id="edge10" class="edge"><title>Node2&#45;&gt;Node6</title>
<path fill="none" stroke="midnightblue" d="M250.933,-240.1C265.019,-208.376 292.264,-155.82 330,-123 333.927,-119.584 338.265,-116.467 342.813,-113.632"/>
<polygon fill="midnightblue" stroke="midnightblue" points="247.575,-239.048 246.825,-249.616 254.001,-241.822 247.575,-239.048"/>
</g>
<!-- Node8 -->
<g id="node15" class="node"><title>Node8</title>
<a xlink:href="classMezzanine_1_1Scripting_1_1ScriptArgumentGeneric_3_01NullArgument_01_4.html" target="_top" xlink:title="A Null implementation of a ScriptArgument that is suitable for primitive types in most situations...">
<polygon fill="white" stroke="black" points="342,-0.5 342,-47.5 466,-47.5 466,-0.5 342,-0.5"/>
<text text-anchor="start" x="350" y="-34.5" font-family="Helvetica,sans-Serif" font-size="10.00">Mezzanine::Scripting</text>
<text text-anchor="start" x="350" y="-21.5" font-family="Helvetica,sans-Serif" font-size="10.00">::ScriptArgumentGeneric</text>
<text text-anchor="middle" x="404" y="-8.5" font-family="Helvetica,sans-Serif" font-size="10.00">&lt; NullArgument &gt;</text>
</a>
</g>
<!-- Node2&#45;&gt;Node8 -->
<g id="edge14" class="edge"><title>Node2&#45;&gt;Node8</title>
<path fill="none" stroke="midnightblue" d="M244.938,-240.05C254.249,-196.304 278.3,-109.46 330,-57 333.555,-53.3932 337.573,-50.1482 341.854,-47.2346"/>
<polygon fill="midnightblue" stroke="midnightblue" points="241.488,-239.452 242.928,-249.949 248.348,-240.845 241.488,-239.452"/>
</g>
<!-- Node10 -->
<g id="node19" class="node"><title>Node10</title>
<a xlink:href="classMezzanine_1_1Scripting_1_1ScriptArgumentGeneric_3_01Real_01_4.html" target="_top" xlink:title="A Real number implementation of a ScriptArgument that is suitable for primitive types in most situati...">
<polygon fill="white" stroke="black" points="342,-434.5 342,-481.5 466,-481.5 466,-434.5 342,-434.5"/>
<text text-anchor="start" x="350" y="-468.5" font-family="Helvetica,sans-Serif" font-size="10.00">Mezzanine::Scripting</text>
<text text-anchor="start" x="350" y="-455.5" font-family="Helvetica,sans-Serif" font-size="10.00">::ScriptArgumentGeneric</text>
<text text-anchor="middle" x="404" y="-442.5" font-family="Helvetica,sans-Serif" font-size="10.00">&lt; Real &gt;</text>
</a>
</g>
<!-- Node2&#45;&gt;Node10 -->
<g id="edge18" class="edge"><title>Node2&#45;&gt;Node10</title>
<path fill="none" stroke="midnightblue" d="M249.09,-293.449C262.115,-327.863 289.122,-387.955 330,-425 333.752,-428.401 337.913,-431.497 342.292,-434.308"/>
<polygon fill="midnightblue" stroke="midnightblue" points="252.373,-292.237 245.641,-284.056 245.802,-294.65 252.373,-292.237"/>
</g>
<!-- Node12 -->
<g id="node23" class="node"><title>Node12</title>
<a xlink:href="classMezzanine_1_1Scripting_1_1ScriptArgumentGeneric_3_01String_01_4.html" target="_top" xlink:title="A String implementation of a ScriptArgument that is suitable for primitive types in most situations...">
<polygon fill="white" stroke="black" points="342,-368.5 342,-415.5 466,-415.5 466,-368.5 342,-368.5"/>
<text text-anchor="start" x="350" y="-402.5" font-family="Helvetica,sans-Serif" font-size="10.00">Mezzanine::Scripting</text>
<text text-anchor="start" x="350" y="-389.5" font-family="Helvetica,sans-Serif" font-size="10.00">::ScriptArgumentGeneric</text>
<text text-anchor="middle" x="404" y="-376.5" font-family="Helvetica,sans-Serif" font-size="10.00">&lt; String &gt;</text>
</a>
</g>
<!-- Node2&#45;&gt;Node12 -->
<g id="edge22" class="edge"><title>Node2&#45;&gt;Node12</title>
<path fill="none" stroke="midnightblue" d="M259.862,-292.004C276.83,-312.113 302.758,-340.044 330,-359 334.85,-362.375 340.1,-365.53 345.488,-368.448"/>
<polygon fill="midnightblue" stroke="midnightblue" points="262.455,-289.647 253.379,-284.181 257.065,-294.114 262.455,-289.647"/>
</g>
<!-- Node14 -->
<g id="node27" class="node"><title>Node14</title>
<a xlink:href="classMezzanine_1_1Scripting_1_1ScriptArgumentGeneric_3_01Whole_01_4.html" target="_top" xlink:title="A Whole number implementation of a ScriptArgument that is suitable for primitive types in most situat...">
<polygon fill="white" stroke="black" points="342,-302.5 342,-349.5 466,-349.5 466,-302.5 342,-302.5"/>
<text text-anchor="start" x="350" y="-336.5" font-family="Helvetica,sans-Serif" font-size="10.00">Mezzanine::Scripting</text>
<text text-anchor="start" x="350" y="-323.5" font-family="Helvetica,sans-Serif" font-size="10.00">::ScriptArgumentGeneric</text>
<text text-anchor="middle" x="404" y="-310.5" font-family="Helvetica,sans-Serif" font-size="10.00">&lt; Whole &gt;</text>
</a>
</g>
<!-- Node2&#45;&gt;Node14 -->
<g id="edge26" class="edge"><title>Node2&#45;&gt;Node14</title>
<path fill="none" stroke="midnightblue" d="M297.19,-287.574C311.574,-292.749 327.084,-298.329 341.704,-303.589"/>
<polygon fill="midnightblue" stroke="midnightblue" points="298.03,-284.157 287.436,-284.065 295.66,-290.744 298.03,-284.157"/>
</g>
<!-- Node5 -->
<g id="node9" class="node"><title>Node5</title>
<a xlink:href="classMezzanine_1_1Scripting_1_1Lua_1_1Lua51BoolArgument.html" target="_top" xlink:title="No special care is required for Bool Lua Arguments, so a simple typedef is used. ">
<polygon fill="white" stroke="black" points="520,-142 520,-176 652,-176 652,-142 520,-142"/>
<text text-anchor="start" x="528" y="-163" font-family="Helvetica,sans-Serif" font-size="10.00">Mezzanine::Scripting</text>
<text text-anchor="middle" x="586" y="-150" font-family="Helvetica,sans-Serif" font-size="10.00">::Lua::Lua51BoolArgument</text>
</a>
</g>
<!-- Node4&#45;&gt;Node5 -->
<g id="edge8" class="edge"><title>Node4&#45;&gt;Node5</title>
<path fill="none" stroke="midnightblue" d="M476.418,-157.194C490.739,-157.43 505.701,-157.676 519.803,-157.909"/>
<polygon fill="midnightblue" stroke="midnightblue" points="476.181,-153.689 466.125,-157.024 476.066,-160.688 476.181,-153.689"/>
</g>
<!-- Node7 -->
<g id="node13" class="node"><title>Node7</title>
<a xlink:href="classMezzanine_1_1Scripting_1_1Lua_1_1Lua51IntegerArgument.html" target="_top" xlink:title="The implementations in the ScriptArgumentGeneric&lt;Integer&gt; will cover most of what this needs...">
<polygon fill="white" stroke="black" points="514.5,-80 514.5,-114 657.5,-114 657.5,-80 514.5,-80"/>
<text text-anchor="start" x="522.5" y="-101" font-family="Helvetica,sans-Serif" font-size="10.00">Mezzanine::Scripting</text>
<text text-anchor="middle" x="586" y="-88" font-family="Helvetica,sans-Serif" font-size="10.00">::Lua::Lua51IntegerArgument</text>
</a>
</g>
<!-- Node6&#45;&gt;Node7 -->
<g id="edge12" class="edge"><title>Node6&#45;&gt;Node7</title>
<path fill="none" stroke="midnightblue" d="M476.488,-92.788C488.986,-93.2687 501.971,-93.7681 514.445,-94.2479"/>
<polygon fill="midnightblue" stroke="midnightblue" points="476.252,-89.2764 466.125,-92.3894 475.983,-96.2713 476.252,-89.2764"/>
</g>
<!-- Node9 -->
<g id="node17" class="node"><title>Node9</title>
<a xlink:href="classMezzanine_1_1Scripting_1_1Lua_1_1Lua51NilArgument.html" target="_top" xlink:title="Represents not much of anything but will insert and retrieves Nils from Lua51. ">
<polygon fill="white" stroke="black" points="523.5,-14 523.5,-48 648.5,-48 648.5,-14 523.5,-14"/>
<text text-anchor="start" x="531.5" y="-35" font-family="Helvetica,sans-Serif" font-size="10.00">Mezzanine::Scripting</text>
<text text-anchor="middle" x="586" y="-22" font-family="Helvetica,sans-Serif" font-size="10.00">::Lua::Lua51NilArgument</text>
</a>
</g>
<!-- Node8&#45;&gt;Node9 -->
<g id="edge16" class="edge"><title>Node8&#45;&gt;Node9</title>
<path fill="none" stroke="midnightblue" d="M476.212,-26.7774C491.76,-27.3754 508.073,-28.0028 523.228,-28.5857"/>
<polygon fill="midnightblue" stroke="midnightblue" points="476.252,-23.2764 466.125,-26.3894 475.983,-30.2713 476.252,-23.2764"/>
</g>
<!-- Node11 -->
<g id="node21" class="node"><title>Node11</title>
<a xlink:href="classMezzanine_1_1Scripting_1_1Lua_1_1Lua51RealArgument.html" target="_top" xlink:title="A Real that can readily be passed into lua scripts. ">
<polygon fill="white" stroke="black" points="519.5,-421 519.5,-455 652.5,-455 652.5,-421 519.5,-421"/>
<text text-anchor="start" x="527.5" y="-442" font-family="Helvetica,sans-Serif" font-size="10.00">Mezzanine::Scripting</text>
<text text-anchor="middle" x="586" y="-429" font-family="Helvetica,sans-Serif" font-size="10.00">::Lua::Lua51RealArgument</text>
</a>
</g>
<!-- Node10&#45;&gt;Node11 -->
<g id="edge20" class="edge"><title>Node10&#45;&gt;Node11</title>
<path fill="none" stroke="midnightblue" d="M476.356,-450.049C490.59,-448.485 505.46,-446.851 519.49,-445.309"/>
<polygon fill="midnightblue" stroke="midnightblue" points="475.683,-446.602 466.125,-451.173 476.448,-453.56 475.683,-446.602"/>
</g>
<!-- Node13 -->
<g id="node25" class="node"><title>Node13</title>
<a xlink:href="classMezzanine_1_1Scripting_1_1Lua_1_1Lua51StringArgument.html" target="_top" xlink:title="No special care is required for String Lua Arguments, so a simple typedef is used. ">
<polygon fill="white" stroke="black" points="517,-331 517,-365 655,-365 655,-331 517,-331"/>
<text text-anchor="start" x="525" y="-352" font-family="Helvetica,sans-Serif" font-size="10.00">Mezzanine::Scripting</text>
<text text-anchor="middle" x="586" y="-339" font-family="Helvetica,sans-Serif" font-size="10.00">::Lua::Lua51StringArgument</text>
</a>
</g>
<!-- Node12&#45;&gt;Node13 -->
<g id="edge24" class="edge"><title>Node12&#45;&gt;Node13</title>
<path fill="none" stroke="midnightblue" d="M475.86,-374.627C489.397,-371.354 503.527,-367.938 516.976,-364.687"/>
<polygon fill="midnightblue" stroke="midnightblue" points="475.023,-371.229 466.125,-376.981 476.668,-378.033 475.023,-371.229"/>
</g>
<!-- Node15 -->
<g id="node29" class="node"><title>Node15</title>
<a xlink:href="classMezzanine_1_1Scripting_1_1Lua_1_1Lua51WholeArgument.html" target="_top" xlink:title="No special care is required for Whole number Lua Arguments, so a simple typedef is used...">
<polygon fill="white" stroke="black" points="516,-217 516,-251 656,-251 656,-217 516,-217"/>
<text text-anchor="start" x="524" y="-238" font-family="Helvetica,sans-Serif" font-size="10.00">Mezzanine::Scripting</text>
<text text-anchor="middle" x="586" y="-225" font-family="Helvetica,sans-Serif" font-size="10.00">::Lua::Lua51WholeArgument</text>
</a>
</g>
<!-- Node14&#45;&gt;Node15 -->
<g id="edge28" class="edge"><title>Node14&#45;&gt;Node15</title>
<path fill="none" stroke="midnightblue" d="M467.706,-297.987C471.201,-296.327 474.651,-294.658 478,-293 504.806,-279.728 534.593,-263.327 556.083,-251.189"/>
<polygon fill="midnightblue" stroke="midnightblue" points="465.964,-294.938 458.39,-302.347 468.931,-301.279 465.964,-294.938"/>
</g>
<!-- Node16 -->
<g id="node30" class="node"><title>Node16</title>
<a xlink:href="classMezzanine_1_1Scripting_1_1Lua_1_1LuaArgument.html" target="_top" xlink:title="The ScriptArgumentGeneric&lt;T&gt; needs just a bit of Lua specific functionality so we add push/pop for th...">
<polygon fill="white" stroke="black" points="350,-198 350,-232 458,-232 458,-198 350,-198"/>
<text text-anchor="start" x="358" y="-219" font-family="Helvetica,sans-Serif" font-size="10.00">Mezzanine::Scripting</text>
<text text-anchor="middle" x="404" y="-206" font-family="Helvetica,sans-Serif" font-size="10.00">::Lua::LuaArgument</text>
</a>
</g>
<!-- Node16&#45;&gt;Node5 -->
<g id="edge30" class="edge"><title>Node16&#45;&gt;Node5</title>
<path fill="none" stroke="midnightblue" d="M467.673,-195.408C488.155,-189.106 510.674,-182.177 530.519,-176.071"/>
<polygon fill="midnightblue" stroke="midnightblue" points="466.642,-192.064 458.113,-198.35 468.7,-198.754 466.642,-192.064"/>
</g>
<!-- Node16&#45;&gt;Node7 -->
<g id="edge32" class="edge"><title>Node16&#45;&gt;Node7</title>
<path fill="none" stroke="midnightblue" d="M467.354,-196.103C471.107,-193.972 474.694,-191.612 478,-189 501.216,-170.657 491.982,-152.766 514,-133 522.32,-125.531 532.471,-119.215 542.496,-114.06"/>
<polygon fill="midnightblue" stroke="midnightblue" points="465.686,-193.025 458.352,-200.671 468.854,-199.267 465.686,-193.025"/>
</g>
<!-- Node16&#45;&gt;Node9 -->
<g id="edge34" class="edge"><title>Node16&#45;&gt;Node9</title>
<path fill="none" stroke="midnightblue" d="M467.163,-197.817C471.113,-195.273 474.785,-192.352 478,-189 515.953,-149.428 479.527,-113.638 514,-71 521.642,-61.5482 532.147,-53.9632 542.771,-48.0474"/>
<polygon fill="midnightblue" stroke="midnightblue" points="465.197,-194.904 458.141,-202.807 468.585,-201.03 465.197,-194.904"/>
</g>
<!-- Node16&#45;&gt;Node11 -->
<g id="edge36" class="edge"><title>Node16&#45;&gt;Node11</title>
<path fill="none" stroke="midnightblue" d="M467.284,-232.069C471.206,-234.64 474.839,-237.597 478,-241 519.681,-285.864 481.77,-321.929 514,-374 525.707,-392.914 544.683,-409.449 560.216,-420.973"/>
<polygon fill="midnightblue" stroke="midnightblue" points="468.74,-228.873 458.305,-227.037 465.318,-234.979 468.74,-228.873"/>
</g>
<!-- Node16&#45;&gt;Node13 -->
<g id="edge38" class="edge"><title>Node16&#45;&gt;Node13</title>
<path fill="none" stroke="midnightblue" d="M467.477,-235.135C471.118,-236.953 474.655,-238.906 478,-241 517.599,-265.788 554.068,-307.45 572.806,-330.802"/>
<polygon fill="midnightblue" stroke="midnightblue" points="468.806,-231.894 458.258,-230.894 465.88,-238.253 468.806,-231.894"/>
</g>
<!-- Node16&#45;&gt;Node15 -->
<g id="edge40" class="edge"><title>Node16&#45;&gt;Node15</title>
<path fill="none" stroke="midnightblue" d="M468.091,-221.691C483.558,-223.305 500.163,-225.039 515.889,-226.681"/>
<polygon fill="midnightblue" stroke="midnightblue" points="468.423,-218.207 458.113,-220.649 467.696,-225.169 468.423,-218.207"/>
</g>
</g>
</svg>
