<?xml version="1.0" encoding="UTF-8" standalone="no"?>
<!DOCTYPE svg PUBLIC "-//W3C//DTD SVG 1.1//EN"
 "http://www.w3.org/Graphics/SVG/1.1/DTD/svg11.dtd">
<!-- Generated by graphviz version 2.26.3 (20100126.1600)
 -->
<!-- Title: Graphical Class Hierarchy Pages: 1 -->
<svg width="710pt" height="90pt"
 viewBox="0.00 0.00 710.00 90.00" xmlns="http://www.w3.org/2000/svg" xmlns:xlink="http://www.w3.org/1999/xlink">
<g id="graph1" class="graph" transform="scale(1 1) rotate(0) translate(4 86)">
<title>Graphical Class Hierarchy</title>
<polygon fill="white" stroke="white" points="-4,5 -4,-86 707,-86 707,5 -4,5"/>
<!-- Node1 -->
<g id="node1" class="node"><title>Node1</title>
<a xlink:href="classMezzanine_1_1WorldObjectPhysicsSettings.html" target="_top" xlink:title="This is a base helper class for configuring physics settings of a world object.">
<polygon fill="white" stroke="black" points="0.5,-25 0.5,-57 153.5,-57 153.5,-25 0.5,-25"/>
<text text-anchor="start" x="8.5" y="-44" font-family="FreeSans" font-size="10.00">Mezzanine::WorldObjectPhysics</text>
<text text-anchor="middle" x="77" y="-32" font-family="FreeSans" font-size="10.00">Settings</text>
</a>
</g>
<!-- Node2 -->
<g id="node3" class="node"><title>Node2</title>
<a xlink:href="classMezzanine_1_1NonTriggerPhysicsSettings.html" target="_top" xlink:title="This is an extension of the basic WorldObjectPhysicsSettings class for non&#45;trigger objects(I...">
<polygon fill="white" stroke="black" points="190.5,-25 190.5,-57 337.5,-57 337.5,-25 190.5,-25"/>
<text text-anchor="start" x="198.5" y="-44" font-family="FreeSans" font-size="10.00">Mezzanine::NonTriggerPhysics</text>
<text text-anchor="middle" x="264" y="-32" font-family="FreeSans" font-size="10.00">Settings</text>
</a>
</g>
<!-- Node1&#45;&gt;Node2 -->
<g id="edge2" class="edge"><title>Node1&#45;&gt;Node2</title>
<path fill="none" stroke="midnightblue" d="M163.886,-41C172.695,-41 181.583,-41 190.235,-41"/>
<polygon fill="midnightblue" stroke="midnightblue" points="163.6,-37.5001 153.6,-41 163.6,-44.5001 163.6,-37.5001"/>
</g>
<!-- Node3 -->
<g id="node5" class="node"><title>Node3</title>
<a xlink:href="classMezzanine_1_1ActorBasePhysicsSettings.html" target="_top" xlink:title="This is a base helper class for configuring physics settings of an actor.">
<polygon fill="white" stroke="black" points="374.5,-25 374.5,-57 519.5,-57 519.5,-25 374.5,-25"/>
<text text-anchor="start" x="382.5" y="-44" font-family="FreeSans" font-size="10.00">Mezzanine::ActorBasePhysics</text>
<text text-anchor="middle" x="447" y="-32" font-family="FreeSans" font-size="10.00">Settings</text>
</a>
</g>
<!-- Node2&#45;&gt;Node3 -->
<g id="edge4" class="edge"><title>Node2&#45;&gt;Node3</title>
<path fill="none" stroke="midnightblue" d="M347.661,-41C356.589,-41 365.617,-41 374.401,-41"/>
<polygon fill="midnightblue" stroke="midnightblue" points="347.642,-37.5001 337.642,-41 347.642,-44.5001 347.642,-37.5001"/>
</g>
<!-- Node4 -->
<g id="node7" class="node"><title>Node4</title>
<a xlink:href="classMezzanine_1_1ActorRigidPhysicsSettings.html" target="_top" xlink:title="This is a helper class for configuring physics settings of an ActorRigid.">
<polygon fill="white" stroke="black" points="556.5,-50 556.5,-82 701.5,-82 701.5,-50 556.5,-50"/>
<text text-anchor="start" x="564.5" y="-69" font-family="FreeSans" font-size="10.00">Mezzanine::ActorRigidPhysics</text>
<text text-anchor="middle" x="629" y="-57" font-family="FreeSans" font-size="10.00">Settings</text>
</a>
</g>
<!-- Node3&#45;&gt;Node4 -->
<g id="edge6" class="edge"><title>Node3&#45;&gt;Node4</title>
<path fill="none" stroke="midnightblue" d="M529.707,-52.3608C538.613,-53.5842 547.625,-54.8222 556.4,-56.0274"/>
<polygon fill="midnightblue" stroke="midnightblue" points="530.099,-48.8819 519.716,-50.9884 529.147,-55.8168 530.099,-48.8819"/>
</g>
<!-- Node5 -->
<g id="node9" class="node"><title>Node5</title>
<a xlink:href="classMezzanine_1_1ActorSoftPhysicsSettings.html" target="_top" xlink:title="This is a helper class for configuring physics settings of an ActorSoft.">
<polygon fill="white" stroke="black" points="558.5,-0 558.5,-32 699.5,-32 699.5,-0 558.5,-0"/>
<text text-anchor="start" x="566.5" y="-19" font-family="FreeSans" font-size="10.00">Mezzanine::ActorSoftPhysics</text>
<text text-anchor="middle" x="629" y="-7" font-family="FreeSans" font-size="10.00">Settings</text>
</a>
</g>
<!-- Node3&#45;&gt;Node5 -->
<g id="edge8" class="edge"><title>Node3&#45;&gt;Node5</title>
<path fill="none" stroke="midnightblue" d="M529.676,-29.6434C539.295,-28.3221 549.039,-26.9836 558.474,-25.6877"/>
<polygon fill="midnightblue" stroke="midnightblue" points="529.147,-26.1832 519.716,-31.0116 530.099,-33.1181 529.147,-26.1832"/>
</g>
</g>
</svg>
