<?xml version="1.0" encoding="UTF-8" standalone="no"?>
<!DOCTYPE svg PUBLIC "-//W3C//DTD SVG 1.1//EN"
 "http://www.w3.org/Graphics/SVG/1.1/DTD/svg11.dtd">
<!-- Generated by graphviz version 2.36.0 (20140111.2315)
 -->
<!-- Title: Graphical Class Hierarchy Pages: 1 -->
<svg width="348pt" height="66pt"
 viewBox="0.00 0.00 348.00 66.00" xmlns="http://www.w3.org/2000/svg" xmlns:xlink="http://www.w3.org/1999/xlink">
<g id="graph0" class="graph" transform="scale(1 1) rotate(0) translate(4 62)">
<title>Graphical Class Hierarchy</title>
<polygon fill="white" stroke="none" points="-4,4 -4,-62 344,-62 344,4 -4,4"/>
<!-- Node1 -->
<g id="node1" class="node"><title>Node1</title>
<g id="a_node1"><a xlink:href="classMezzanine_1_1UI_1_1MouseHoverStrategy.html" target="_top" xlink:title="This is the base class for a method of finding which quad the mouse is hovered over. ">
<polygon fill="white" stroke="black" points="0,-14 0,-44 142,-44 142,-14 0,-14"/>
<text text-anchor="start" x="8" y="-32" font-family="Helvetica,sans-Serif" font-size="10.00">Mezzanine::UI::MouseHover</text>
<text text-anchor="middle" x="71" y="-21" font-family="Helvetica,sans-Serif" font-size="10.00">Strategy</text>
</a>
</g>
</g>
<!-- Node2 -->
<g id="node2" class="node"><title>Node2</title>
<g id="a_node2"><a xlink:href="classMezzanine_1_1UI_1_1BruteStrategy.html" target="_top" xlink:title="This strategy uses a brute force reverse search for the hovered quad. ">
<polygon fill="white" stroke="black" points="186,-38.5 186,-57.5 332,-57.5 332,-38.5 186,-38.5"/>
<text text-anchor="middle" x="259" y="-45.5" font-family="Helvetica,sans-Serif" font-size="10.00">Mezzanine::UI::BruteStrategy</text>
</a>
</g>
</g>
<!-- Node1&#45;&gt;Node2 -->
<g id="edge1" class="edge"><title>Node1&#45;&gt;Node2</title>
<path fill="none" stroke="midnightblue" d="M152.227,-37.1952C163.402,-38.3367 174.827,-39.5038 185.842,-40.629"/>
<polygon fill="midnightblue" stroke="midnightblue" points="152.358,-33.6904 142.054,-36.156 151.646,-40.6542 152.358,-33.6904"/>
</g>
<!-- Node3 -->
<g id="node3" class="node"><title>Node3</title>
<g id="a_node3"><a xlink:href="classMezzanine_1_1UI_1_1NineBoxStrategy.html" target="_top" xlink:title="This strategy partitions the screen into 9 area&#39;s that track which Quads are in them, allowing a smaller list of quads to be checked. ">
<polygon fill="white" stroke="black" points="178.5,-0.5 178.5,-19.5 339.5,-19.5 339.5,-0.5 178.5,-0.5"/>
<text text-anchor="middle" x="259" y="-7.5" font-family="Helvetica,sans-Serif" font-size="10.00">Mezzanine::UI::NineBoxStrategy</text>
</a>
</g>
</g>
<!-- Node1&#45;&gt;Node3 -->
<g id="edge2" class="edge"><title>Node1&#45;&gt;Node3</title>
<path fill="none" stroke="midnightblue" d="M152.153,-20.8123C160.831,-19.9258 169.662,-19.0238 178.335,-18.1379"/>
<polygon fill="midnightblue" stroke="midnightblue" points="151.646,-17.3458 142.054,-21.844 152.358,-24.3096 151.646,-17.3458"/>
</g>
</g>
</svg>
