<?xml version="1.0" encoding="UTF-8" standalone="no"?>
<!DOCTYPE svg PUBLIC "-//W3C//DTD SVG 1.1//EN"
 "http://www.w3.org/Graphics/SVG/1.1/DTD/svg11.dtd">
<!-- Generated by graphviz version 2.26.3 (20100126.1600)
 -->
<!-- Title: Graphical Class Hierarchy Pages: 1 -->
<svg width="348pt" height="70pt"
 viewBox="0.00 0.00 348.00 70.00" xmlns="http://www.w3.org/2000/svg" xmlns:xlink="http://www.w3.org/1999/xlink">
<g id="graph1" class="graph" transform="scale(1 1) rotate(0) translate(4 66)">
<title>Graphical Class Hierarchy</title>
<polygon fill="white" stroke="white" points="-4,5 -4,-66 345,-66 345,5 -4,5"/>
<!-- Node1 -->
<g id="node1" class="node"><title>Node1</title>
<a xlink:href="classMezzanine_1_1UI_1_1MouseHoverStrategy.html" target="_top" xlink:title="This is the base class for a method of finding which quad the mouse is hovered over. ">
<polygon fill="white" stroke="black" points="0,-14 0,-48 142,-48 142,-14 0,-14"/>
<text text-anchor="start" x="8" y="-35" font-family="Helvetica,sans-Serif" font-size="10.00">Mezzanine::UI::MouseHover</text>
<text text-anchor="middle" x="71" y="-22" font-family="Helvetica,sans-Serif" font-size="10.00">Strategy</text>
</a>
</g>
<!-- Node2 -->
<g id="node3" class="node"><title>Node2</title>
<a xlink:href="classMezzanine_1_1UI_1_1BruteStrategy.html" target="_top" xlink:title="This strategy uses a brute force reverse search for the hovered quad. ">
<polygon fill="white" stroke="black" points="186,-40.5 186,-61.5 332,-61.5 332,-40.5 186,-40.5"/>
<text text-anchor="middle" x="259" y="-48.5" font-family="Helvetica,sans-Serif" font-size="10.00">Mezzanine::UI::BruteStrategy</text>
</a>
</g>
<!-- Node1&#45;&gt;Node2 -->
<g id="edge2" class="edge"><title>Node1&#45;&gt;Node2</title>
<path fill="none" stroke="midnightblue" d="M152.271,-39.6458C163.468,-40.837 174.911,-42.0544 185.948,-43.2286"/>
<polygon fill="midnightblue" stroke="midnightblue" points="152.389,-36.1387 142.075,-38.5611 151.648,-43.0995 152.389,-36.1387"/>
</g>
<!-- Node3 -->
<g id="node5" class="node"><title>Node3</title>
<a xlink:href="classMezzanine_1_1UI_1_1NineBoxStrategy.html" target="_top" xlink:title="This strategy partitions the screen into 9 area&#39;s that track which Quads are in them, allowing a smaller list of quads to be checked. ">
<polygon fill="white" stroke="black" points="178.5,-0.5 178.5,-21.5 339.5,-21.5 339.5,-0.5 178.5,-0.5"/>
<text text-anchor="middle" x="259" y="-8.5" font-family="Helvetica,sans-Serif" font-size="10.00">Mezzanine::UI::NineBoxStrategy</text>
</a>
</g>
<!-- Node1&#45;&gt;Node3 -->
<g id="edge4" class="edge"><title>Node1&#45;&gt;Node3</title>
<path fill="none" stroke="midnightblue" d="M152.181,-22.3637C160.864,-21.44 169.696,-20.5005 178.372,-19.5775"/>
<polygon fill="midnightblue" stroke="midnightblue" points="151.648,-18.9005 142.075,-23.4389 152.389,-25.8613 151.648,-18.9005"/>
</g>
</g>
</svg>
