<?xml version="1.0" encoding="UTF-8" standalone="no"?>
<!DOCTYPE svg PUBLIC "-//W3C//DTD SVG 1.1//EN"
 "http://www.w3.org/Graphics/SVG/1.1/DTD/svg11.dtd">
<!-- Generated by graphviz version 2.26.3 (20100126.1600)
 -->
<!-- Title: Graphical Class Hierarchy Pages: 1 -->
<svg width="744pt" height="755pt"
 viewBox="0.00 0.00 744.00 755.00" xmlns="http://www.w3.org/2000/svg" xmlns:xlink="http://www.w3.org/1999/xlink">
<g id="graph1" class="graph" transform="scale(1 1) rotate(0) translate(4 751)">
<title>Graphical Class Hierarchy</title>
<!-- Node1 -->
<g id="node1" class="node"><title>Node1</title>
<a xlink:href="classMezzanine_1_1Exception.xhtml" target="_top" xlink:title="This is the exception thrown by most Mezzanine system that can throw exceptions.">
<polygon fill="none" stroke="black" points="0.5,-364 0.5,-384 109.5,-384 109.5,-364 0.5,-364"/>
<text text-anchor="middle" x="55" y="-371" font-family="FreeSans" font-size="10.00">Mezzanine::Exception</text>
</a>
</g>
<!-- Node2 -->
<g id="node3" class="node"><title>Node2</title>
<a xlink:href="classMezzanine_1_1ArithmeticException.xhtml" target="_top" xlink:title="Thrown when Math has failed.">
<polygon fill="none" stroke="black" points="154.5,-659 154.5,-679 307.5,-679 307.5,-659 154.5,-659"/>
<text text-anchor="middle" x="231" y="-666" font-family="FreeSans" font-size="10.00">Mezzanine::ArithmeticException</text>
</a>
</g>
<!-- Node1&#45;&gt;Node2 -->
<g id="edge2" class="edge"><title>Node1&#45;&gt;Node2</title>
<path fill="none" stroke="midnightblue" d="M58.9558,-394.086C70.6558,-451.493 106.74,-614.431 146,-650 149.922,-653.553 154.361,-656.49 159.101,-658.913"/>
<polygon fill="midnightblue" stroke="midnightblue" points="62.347,-393.196 56.9471,-384.081 55.484,-394.574 62.347,-393.196"/>
</g>
<!-- Node3 -->
<g id="node5" class="node"><title>Node3</title>
<a xlink:href="classMezzanine_1_1InstanceIdentityException.xhtml" target="_top" xlink:title="Thrown when an unknown error with using an Identifier and it is invalid.">
<polygon fill="none" stroke="black" points="163.5,-609 163.5,-641 298.5,-641 298.5,-609 163.5,-609"/>
<text text-anchor="start" x="171.5" y="-628" font-family="FreeSans" font-size="10.00">Mezzanine::InstanceIdentity</text>
<text text-anchor="middle" x="231" y="-616" font-family="FreeSans" font-size="10.00">Exception</text>
</a>
</g>
<!-- Node1&#45;&gt;Node3 -->
<g id="edge4" class="edge"><title>Node1&#45;&gt;Node3</title>
<path fill="none" stroke="midnightblue" d="M60.4199,-394.265C71.3561,-432.134 99.1015,-514.705 146,-569 160.324,-585.583 180.714,-599.24 197.933,-608.915"/>
<polygon fill="midnightblue" stroke="midnightblue" points="63.7331,-393.117 57.6704,-384.428 56.9914,-395.001 63.7331,-393.117"/>
</g>
<!-- Node7 -->
<g id="node13" class="node"><title>Node7</title>
<a xlink:href="classMezzanine_1_1InternalException.xhtml" target="_top" xlink:title="Thrown when an unknown internal error occurred.">
<polygon fill="none" stroke="black" points="160.5,-540 160.5,-560 301.5,-560 301.5,-540 160.5,-540"/>
<text text-anchor="middle" x="231" y="-547" font-family="FreeSans" font-size="10.00">Mezzanine::InternalException</text>
</a>
</g>
<!-- Node1&#45;&gt;Node7 -->
<g id="edge12" class="edge"><title>Node1&#45;&gt;Node7</title>
<path fill="none" stroke="midnightblue" d="M60.7949,-394.103C71.6374,-427.949 98.3157,-496.035 146,-531 150.878,-534.577 156.306,-537.499 161.994,-539.885"/>
<polygon fill="midnightblue" stroke="midnightblue" points="64.099,-392.939 57.8245,-384.402 57.4058,-394.988 64.099,-392.939"/>
</g>
<!-- Node8 -->
<g id="node15" class="node"><title>Node8</title>
<a xlink:href="classMezzanine_1_1InvalidParametersException.xhtml" target="_top" xlink:title="Thrown when parameters are checked at runtime and found invalid.">
<polygon fill="none" stroke="black" points="159,-490 159,-522 303,-522 303,-490 159,-490"/>
<text text-anchor="start" x="167" y="-509" font-family="FreeSans" font-size="10.00">Mezzanine::InvalidParameters</text>
<text text-anchor="middle" x="231" y="-497" font-family="FreeSans" font-size="10.00">Exception</text>
</a>
</g>
<!-- Node1&#45;&gt;Node8 -->
<g id="edge14" class="edge"><title>Node1&#45;&gt;Node8</title>
<path fill="none" stroke="midnightblue" d="M66.0981,-392.823C81.193,-416.803 110.433,-457.899 146,-481 151.289,-484.435 157.064,-487.411 163.034,-489.987"/>
<polygon fill="midnightblue" stroke="midnightblue" points="69.0611,-390.96 60.8529,-384.261 63.092,-394.616 69.0611,-390.96"/>
</g>
<!-- Node9 -->
<g id="node17" class="node"><title>Node9</title>
<a xlink:href="classMezzanine_1_1InvalidStateException.xhtml" target="_top" xlink:title="Thrown when the available information should have worked but failed for unknown reasons.">
<polygon fill="none" stroke="black" points="151,-452 151,-472 311,-472 311,-452 151,-452"/>
<text text-anchor="middle" x="231" y="-459" font-family="FreeSans" font-size="10.00">Mezzanine::InvalidStateException</text>
</a>
</g>
<!-- Node1&#45;&gt;Node9 -->
<g id="edge16" class="edge"><title>Node1&#45;&gt;Node9</title>
<path fill="none" stroke="midnightblue" d="M72.8295,-391.279C90.1441,-407.091 117.869,-429.951 146,-443 153.819,-446.627 162.37,-449.581 170.939,-451.981"/>
<polygon fill="midnightblue" stroke="midnightblue" points="74.9053,-388.428 65.2097,-384.157 70.1254,-393.542 74.9053,-388.428"/>
</g>
<!-- Node10 -->
<g id="node19" class="node"><title>Node10</title>
<a xlink:href="classMezzanine_1_1InvalidVersionException.xhtml" target="_top" xlink:title="Thrown when a version is accessed/parsed/required and it cannot work correctly or is missing...">
<polygon fill="none" stroke="black" points="168,-402 168,-434 294,-434 294,-402 168,-402"/>
<text text-anchor="start" x="176" y="-421" font-family="FreeSans" font-size="10.00">Mezzanine::InvalidVersion</text>
<text text-anchor="middle" x="231" y="-409" font-family="FreeSans" font-size="10.00">Exception</text>
</a>
</g>
<!-- Node1&#45;&gt;Node10 -->
<g id="edge18" class="edge"><title>Node1&#45;&gt;Node10</title>
<path fill="none" stroke="midnightblue" d="M105.243,-386.561C124.688,-391.422 147.167,-397.042 167.696,-402.174"/>
<polygon fill="midnightblue" stroke="midnightblue" points="105.928,-383.124 95.378,-384.094 104.23,-389.915 105.928,-383.124"/>
</g>
<!-- Node11 -->
<g id="node21" class="node"><title>Node11</title>
<a xlink:href="classMezzanine_1_1IOException.xhtml" target="_top" xlink:title="Thrown when there was an issue with IO but very little was known about it.">
<polygon fill="none" stroke="black" points="171.5,-364 171.5,-384 290.5,-384 290.5,-364 171.5,-364"/>
<text text-anchor="middle" x="231" y="-371" font-family="FreeSans" font-size="10.00">Mezzanine::IOException</text>
</a>
</g>
<!-- Node1&#45;&gt;Node11 -->
<g id="edge20" class="edge"><title>Node1&#45;&gt;Node11</title>
<path fill="none" stroke="midnightblue" d="M120.021,-374C136.849,-374 154.884,-374 171.418,-374"/>
<polygon fill="midnightblue" stroke="midnightblue" points="119.723,-370.5 109.723,-374 119.723,-377.5 119.723,-370.5"/>
</g>
<!-- Node30 -->
<g id="node59" class="node"><title>Node30</title>
<a xlink:href="classMezzanine_1_1MemoryManagementException.xhtml" target="_top" xlink:title="Thrown when an unknown memory management exception occurs.">
<polygon fill="none" stroke="black" points="152,-314 152,-346 310,-346 310,-314 152,-314"/>
<text text-anchor="start" x="160" y="-333" font-family="FreeSans" font-size="10.00">Mezzanine::MemoryManagement</text>
<text text-anchor="middle" x="231" y="-321" font-family="FreeSans" font-size="10.00">Exception</text>
</a>
</g>
<!-- Node1&#45;&gt;Node30 -->
<g id="edge58" class="edge"><title>Node1&#45;&gt;Node30</title>
<path fill="none" stroke="midnightblue" d="M105.099,-361.475C124.252,-356.687 146.367,-351.158 166.666,-346.083"/>
<polygon fill="midnightblue" stroke="midnightblue" points="104.23,-358.085 95.378,-363.906 105.928,-364.876 104.23,-358.085"/>
</g>
<!-- Node33 -->
<g id="node65" class="node"><title>Node33</title>
<a xlink:href="classMezzanine_1_1NotImplementedException.xhtml" target="_top" xlink:title="Thrown when we just have not coded a thing yet, but we knew what the API should look like...">
<polygon fill="none" stroke="black" points="162,-264 162,-296 300,-296 300,-264 162,-264"/>
<text text-anchor="start" x="170" y="-283" font-family="FreeSans" font-size="10.00">Mezzanine::NotImplemented</text>
<text text-anchor="middle" x="231" y="-271" font-family="FreeSans" font-size="10.00">Exception</text>
</a>
</g>
<!-- Node1&#45;&gt;Node33 -->
<g id="edge64" class="edge"><title>Node1&#45;&gt;Node33</title>
<path fill="none" stroke="midnightblue" d="M73.3211,-356.884C90.7975,-341.379 118.468,-318.895 146,-305 152.591,-301.673 159.699,-298.715 166.898,-296.104"/>
<polygon fill="midnightblue" stroke="midnightblue" points="70.6715,-354.561 65.6059,-363.867 75.3688,-359.751 70.6715,-354.561"/>
</g>
<!-- Node34 -->
<g id="node67" class="node"><title>Node34</title>
<a xlink:href="classMezzanine_1_1RenderingAPIException.xhtml" target="_top" xlink:title="Thrown when the graphics card/DirectX/OpenGL fail.">
<polygon fill="none" stroke="black" points="146.5,-226 146.5,-246 315.5,-246 315.5,-226 146.5,-226"/>
<text text-anchor="middle" x="231" y="-233" font-family="FreeSans" font-size="10.00">Mezzanine::RenderingAPIException</text>
</a>
</g>
<!-- Node1&#45;&gt;Node34 -->
<g id="edge66" class="edge"><title>Node1&#45;&gt;Node34</title>
<path fill="none" stroke="midnightblue" d="M64.2797,-354.64C78.1639,-327.853 106.948,-279.973 146,-255 151.605,-251.416 157.795,-248.502 164.202,-246.135"/>
<polygon fill="midnightblue" stroke="midnightblue" points="61.0497,-353.273 59.6977,-363.782 67.3076,-356.41 61.0497,-353.273"/>
</g>
<!-- Node35 -->
<g id="node69" class="node"><title>Node35</title>
<a xlink:href="classMezzanine_1_1RuntimeAssertionException.xhtml" target="_top" xlink:title="Thrown when a rutime assertion could have been thrown.">
<polygon fill="none" stroke="black" points="159.5,-176 159.5,-208 302.5,-208 302.5,-176 159.5,-176"/>
<text text-anchor="start" x="167.5" y="-195" font-family="FreeSans" font-size="10.00">Mezzanine::RuntimeAssertion</text>
<text text-anchor="middle" x="231" y="-183" font-family="FreeSans" font-size="10.00">Exception</text>
</a>
</g>
<!-- Node1&#45;&gt;Node35 -->
<g id="edge68" class="edge"><title>Node1&#45;&gt;Node35</title>
<path fill="none" stroke="midnightblue" d="M61.0474,-354.23C72.2683,-320.882 99.4978,-253.523 146,-217 150.355,-213.58 155.166,-210.627 160.219,-208.078"/>
<polygon fill="midnightblue" stroke="midnightblue" points="57.7059,-353.188 57.9626,-363.78 64.367,-355.34 57.7059,-353.188"/>
</g>
<!-- Node36 -->
<g id="node71" class="node"><title>Node36</title>
<a xlink:href="classMezzanine_1_1ScriptException.xhtml" target="_top" xlink:title="Thrown when an unknown error happens with a script.">
<polygon fill="none" stroke="black" points="164,-138 164,-158 298,-158 298,-138 164,-138"/>
<text text-anchor="middle" x="231" y="-145" font-family="FreeSans" font-size="10.00">Mezzanine::ScriptException</text>
</a>
</g>
<!-- Node1&#45;&gt;Node36 -->
<g id="edge70" class="edge"><title>Node1&#45;&gt;Node36</title>
<path fill="none" stroke="midnightblue" d="M57.7607,-353.875C64.5922,-312.169 86.2867,-216.109 146,-167 151.255,-162.678 157.29,-159.288 163.667,-156.636"/>
<polygon fill="midnightblue" stroke="midnightblue" points="54.2798,-353.485 56.2386,-363.898 61.2004,-354.536 54.2798,-353.485"/>
</g>
<!-- Node41 -->
<g id="node81" class="node"><title>Node41</title>
<a xlink:href="classMezzanine_1_1SyntaxErrorException.xhtml" target="_top" xlink:title="Thrown when some kind of syntax exception.">
<polygon fill="none" stroke="black" points="152,-72 152,-92 310,-92 310,-72 152,-72"/>
<text text-anchor="middle" x="231" y="-79" font-family="FreeSans" font-size="10.00">Mezzanine::SyntaxErrorException</text>
</a>
</g>
<!-- Node1&#45;&gt;Node41 -->
<g id="edge80" class="edge"><title>Node1&#45;&gt;Node41</title>
<path fill="none" stroke="midnightblue" d="M57.6553,-353.864C64.5483,-308.679 86.7877,-197.796 146,-129 160.85,-111.746 183.676,-99.6194 201.936,-92.0104"/>
<polygon fill="midnightblue" stroke="midnightblue" points="54.1754,-353.475 56.2204,-363.87 61.1045,-354.468 54.1754,-353.475"/>
</g>
<!-- Node4 -->
<g id="node7" class="node"><title>Node4</title>
<a xlink:href="classMezzanine_1_1InstanceIdentityDuplicateException.xhtml" target="_top" xlink:title="Thrown when duplicates of teh same identity string exist.">
<polygon fill="none" stroke="black" points="374.5,-709 374.5,-741 509.5,-741 509.5,-709 374.5,-709"/>
<text text-anchor="start" x="382.5" y="-728" font-family="FreeSans" font-size="10.00">Mezzanine::InstanceIdentity</text>
<text text-anchor="middle" x="442" y="-716" font-family="FreeSans" font-size="10.00">DuplicateException</text>
</a>
</g>
<!-- Node3&#45;&gt;Node4 -->
<g id="edge6" class="edge"><title>Node3&#45;&gt;Node4</title>
<path fill="none" stroke="midnightblue" d="M307.984,-644.953C310.762,-646.512 313.447,-648.191 316,-650 338.343,-665.83 329.538,-684.339 352,-700 358.784,-704.73 366.437,-708.568 374.344,-711.681"/>
<polygon fill="midnightblue" stroke="midnightblue" points="309.345,-641.72 298.836,-640.372 306.211,-647.979 309.345,-641.72"/>
</g>
<!-- Node5 -->
<g id="node9" class="node"><title>Node5</title>
<a xlink:href="classMezzanine_1_1InstanceIdentityInvalidException.xhtml" target="_top" xlink:title="Thrown when the identity string wasn&#39;t valid at all.">
<polygon fill="none" stroke="black" points="374.5,-659 374.5,-691 509.5,-691 509.5,-659 374.5,-659"/>
<text text-anchor="start" x="382.5" y="-678" font-family="FreeSans" font-size="10.00">Mezzanine::InstanceIdentity</text>
<text text-anchor="middle" x="442" y="-666" font-family="FreeSans" font-size="10.00">InvalidException</text>
</a>
</g>
<!-- Node3&#45;&gt;Node5 -->
<g id="edge8" class="edge"><title>Node3&#45;&gt;Node5</title>
<path fill="none" stroke="midnightblue" d="M308.434,-643.349C330.059,-648.474 353.379,-654 374.389,-658.978"/>
<polygon fill="midnightblue" stroke="midnightblue" points="309.17,-639.927 298.632,-641.027 307.556,-646.738 309.17,-639.927"/>
</g>
<!-- Node6 -->
<g id="node11" class="node"><title>Node6</title>
<a xlink:href="classMezzanine_1_1InstanceIdentityNotFoundException.xhtml" target="_top" xlink:title="Thrown when the requested identity could not be found.">
<polygon fill="none" stroke="black" points="374.5,-609 374.5,-641 509.5,-641 509.5,-609 374.5,-609"/>
<text text-anchor="start" x="382.5" y="-628" font-family="FreeSans" font-size="10.00">Mezzanine::InstanceIdentity</text>
<text text-anchor="middle" x="442" y="-616" font-family="FreeSans" font-size="10.00">NotFoundException</text>
</a>
</g>
<!-- Node3&#45;&gt;Node6 -->
<g id="edge10" class="edge"><title>Node3&#45;&gt;Node6</title>
<path fill="none" stroke="midnightblue" d="M308.726,-625C330.269,-625 353.474,-625 374.389,-625"/>
<polygon fill="midnightblue" stroke="midnightblue" points="308.632,-621.5 298.632,-625 308.632,-628.5 308.632,-621.5"/>
</g>
<!-- Node12 -->
<g id="node23" class="node"><title>Node12</title>
<a xlink:href="classMezzanine_1_1DirectoryException.xhtml" target="_top" xlink:title="Thrown when there is an unknown issue with a file.">
<polygon fill="none" stroke="black" points="368.5,-571 368.5,-591 515.5,-591 515.5,-571 368.5,-571"/>
<text text-anchor="middle" x="442" y="-578" font-family="FreeSans" font-size="10.00">Mezzanine::DirectoryException</text>
</a>
</g>
<!-- Node11&#45;&gt;Node12 -->
<g id="edge22" class="edge"><title>Node11&#45;&gt;Node12</title>
<path fill="none" stroke="midnightblue" d="M300.429,-383.768C306.01,-386.228 311.298,-389.263 316,-393 344.945,-416.007 332.358,-436.674 352,-468 377.581,-508.797 415.415,-551.961 432.734,-570.993"/>
<polygon fill="midnightblue" stroke="midnightblue" points="301.406,-380.395 290.814,-380.146 298.939,-386.946 301.406,-380.395"/>
</g>
<!-- Node17 -->
<g id="node33" class="node"><title>Node17</title>
<a xlink:href="classMezzanine_1_1FileException.xhtml" target="_top" xlink:title="Thrown when there is an unknown issue with a file.">
<polygon fill="none" stroke="black" points="379.5,-439 379.5,-459 504.5,-459 504.5,-439 379.5,-439"/>
<text text-anchor="middle" x="442" y="-446" font-family="FreeSans" font-size="10.00">Mezzanine::FileException</text>
</a>
</g>
<!-- Node11&#45;&gt;Node17 -->
<g id="edge32" class="edge"><title>Node11&#45;&gt;Node17</title>
<path fill="none" stroke="midnightblue" d="M300.585,-386.442C305.92,-388.33 311.121,-390.502 316,-393 335.054,-402.758 333.148,-414.857 352,-425 363.108,-430.976 375.802,-435.539 388.084,-438.995"/>
<polygon fill="midnightblue" stroke="midnightblue" points="301.469,-383.05 290.879,-383.342 299.34,-389.719 301.469,-383.05"/>
</g>
<!-- Node22 -->
<g id="node43" class="node"><title>Node22</title>
<a xlink:href="classMezzanine_1_1IOReadException.xhtml" target="_top" xlink:title="Thrown when a read is happening but asoemthing has prevented teh underlying code from knowing what wa...">
<polygon fill="none" stroke="black" points="371,-396 371,-416 513,-416 513,-396 371,-396"/>
<text text-anchor="middle" x="442" y="-403" font-family="FreeSans" font-size="10.00">Mezzanine::IOReadException</text>
</a>
</g>
<!-- Node11&#45;&gt;Node22 -->
<g id="edge42" class="edge"><title>Node11&#45;&gt;Node22</title>
<path fill="none" stroke="midnightblue" d="M300.789,-384.584C324.968,-388.251 351.983,-392.348 375.859,-395.969"/>
<polygon fill="midnightblue" stroke="midnightblue" points="301.03,-381.081 290.618,-383.042 299.98,-388.002 301.03,-381.081"/>
</g>
<!-- Node23 -->
<g id="node45" class="node"><title>Node23</title>
<a xlink:href="classMezzanine_1_1IOWriteException.xhtml" target="_top" xlink:title="Thrown when a write is happening but asoemthing has prevented teh underlying code from knowing what w...">
<polygon fill="none" stroke="black" points="371,-358 371,-378 513,-378 513,-358 371,-358"/>
<text text-anchor="middle" x="442" y="-365" font-family="FreeSans" font-size="10.00">Mezzanine::IOWriteException</text>
</a>
</g>
<!-- Node11&#45;&gt;Node23 -->
<g id="edge44" class="edge"><title>Node11&#45;&gt;Node23</title>
<path fill="none" stroke="midnightblue" d="M300.78,-372.016C323.313,-371.375 348.311,-370.664 370.936,-370.021"/>
<polygon fill="midnightblue" stroke="midnightblue" points="300.515,-368.522 290.618,-372.305 300.714,-375.519 300.515,-368.522"/>
</g>
<!-- Node24 -->
<g id="node47" class="node"><title>Node24</title>
<a xlink:href="classMezzanine_1_1NetworkException.xhtml" target="_top" xlink:title="Thrown when something unknown causes network IO to fail.">
<polygon fill="none" stroke="black" points="370,-311 370,-331 514,-331 514,-311 370,-311"/>
<text text-anchor="middle" x="442" y="-318" font-family="FreeSans" font-size="10.00">Mezzanine::NetworkException</text>
</a>
</g>
<!-- Node11&#45;&gt;Node24 -->
<g id="edge46" class="edge"><title>Node11&#45;&gt;Node24</title>
<path fill="none" stroke="midnightblue" d="M287.619,-361.706C297.111,-359.541 306.847,-357.257 316,-355 346.688,-347.434 381.345,-338.017 406.534,-331.014"/>
<polygon fill="midnightblue" stroke="midnightblue" points="286.833,-358.295 277.85,-363.912 288.375,-365.123 286.833,-358.295"/>
</g>
<!-- Node13 -->
<g id="node25" class="node"><title>Node13</title>
<a xlink:href="classMezzanine_1_1DirectoryNotFoundException.xhtml" target="_top" xlink:title="Thrown when a directory was expected to be there, but was not.">
<polygon fill="none" stroke="black" points="578.5,-715 578.5,-747 725.5,-747 725.5,-715 578.5,-715"/>
<text text-anchor="start" x="586.5" y="-734" font-family="FreeSans" font-size="10.00">Mezzanine::DirectoryNotFound</text>
<text text-anchor="middle" x="652" y="-722" font-family="FreeSans" font-size="10.00">Exception</text>
</a>
</g>
<!-- Node12&#45;&gt;Node13 -->
<g id="edge24" class="edge"><title>Node12&#45;&gt;Node13</title>
<path fill="none" stroke="midnightblue" d="M524.851,-594.589C527.366,-596.215 529.76,-598.013 532,-600 569.217,-633.021 532.154,-671.496 568,-706 571.508,-709.377 575.451,-712.3 579.667,-714.83"/>
<polygon fill="midnightblue" stroke="midnightblue" points="526.345,-591.417 515.89,-589.699 522.992,-597.561 526.345,-591.417"/>
</g>
<!-- Node14 -->
<g id="node27" class="node"><title>Node14</title>
<a xlink:href="classMezzanine_1_1DirectoryPermissionException.xhtml" target="_top" xlink:title="Thrown when permission is denied to a directory.">
<polygon fill="none" stroke="black" points="576,-665 576,-697 728,-697 728,-665 576,-665"/>
<text text-anchor="start" x="584" y="-684" font-family="FreeSans" font-size="10.00">Mezzanine::DirectoryPermission</text>
<text text-anchor="middle" x="652" y="-672" font-family="FreeSans" font-size="10.00">Exception</text>
</a>
</g>
<!-- Node12&#45;&gt;Node14 -->
<g id="edge26" class="edge"><title>Node12&#45;&gt;Node14</title>
<path fill="none" stroke="midnightblue" d="M524.003,-595.188C526.776,-596.644 529.453,-598.243 532,-600 556.357,-616.798 544.345,-638.227 568,-656 572.501,-659.382 577.455,-662.308 582.638,-664.84"/>
<polygon fill="midnightblue" stroke="midnightblue" points="525.414,-591.984 514.864,-591.008 522.502,-598.35 525.414,-591.984"/>
</g>
<!-- Node15 -->
<g id="node29" class="node"><title>Node15</title>
<a xlink:href="classMezzanine_1_1DirectoryReadException.xhtml" target="_top" xlink:title="Thrown when a directory could be read and it wasn&#39;t a permission issue.">
<polygon fill="none" stroke="black" points="588,-615 588,-647 716,-647 716,-615 588,-615"/>
<text text-anchor="start" x="596" y="-634" font-family="FreeSans" font-size="10.00">Mezzanine::DirectoryRead</text>
<text text-anchor="middle" x="652" y="-622" font-family="FreeSans" font-size="10.00">Exception</text>
</a>
</g>
<!-- Node12&#45;&gt;Node15 -->
<g id="edge28" class="edge"><title>Node12&#45;&gt;Node15</title>
<path fill="none" stroke="midnightblue" d="M501.63,-593.196C511.781,-595.385 522.205,-597.702 532,-600 551.587,-604.595 572.874,-609.969 592.006,-614.94"/>
<polygon fill="midnightblue" stroke="midnightblue" points="502.113,-589.721 491.603,-591.056 500.652,-596.567 502.113,-589.721"/>
</g>
<!-- Node16 -->
<g id="node31" class="node"><title>Node16</title>
<a xlink:href="classMezzanine_1_1DirectoryWriteException.xhtml" target="_top" xlink:title="Thrown when a directory could be written to and it wasn&#39;t a permission issue.">
<polygon fill="none" stroke="black" points="588,-565 588,-597 716,-597 716,-565 588,-565"/>
<text text-anchor="start" x="596" y="-584" font-family="FreeSans" font-size="10.00">Mezzanine::DirectoryWrite</text>
<text text-anchor="middle" x="652" y="-572" font-family="FreeSans" font-size="10.00">Exception</text>
</a>
</g>
<!-- Node12&#45;&gt;Node16 -->
<g id="edge30" class="edge"><title>Node12&#45;&gt;Node16</title>
<path fill="none" stroke="midnightblue" d="M525.786,-581C546.463,-581 568.285,-581 587.861,-581"/>
<polygon fill="midnightblue" stroke="midnightblue" points="525.743,-577.5 515.743,-581 525.743,-584.5 525.743,-577.5"/>
</g>
<!-- Node18 -->
<g id="node35" class="node"><title>Node18</title>
<a xlink:href="classMezzanine_1_1FileNotFoundException.xhtml" target="_top" xlink:title="Thrown when a file was expected to be there, but was not.">
<polygon fill="none" stroke="black" points="568.5,-527 568.5,-547 735.5,-547 735.5,-527 568.5,-527"/>
<text text-anchor="middle" x="652" y="-534" font-family="FreeSans" font-size="10.00">Mezzanine::FileNotFoundException</text>
</a>
</g>
<!-- Node17&#45;&gt;Node18 -->
<g id="edge34" class="edge"><title>Node17&#45;&gt;Node18</title>
<path fill="none" stroke="midnightblue" d="M465.893,-464.73C490.542,-480.31 530.562,-503.834 568,-518 577.23,-521.492 587.283,-524.447 597.123,-526.909"/>
<polygon fill="midnightblue" stroke="midnightblue" points="467.544,-461.631 457.236,-459.183 463.768,-467.525 467.544,-461.631"/>
</g>
<!-- Node19 -->
<g id="node37" class="node"><title>Node19</title>
<a xlink:href="classMezzanine_1_1FilePermissionException.xhtml" target="_top" xlink:title="Thrown when permission was denied to a file.">
<polygon fill="none" stroke="black" points="587,-477 587,-509 717,-509 717,-477 587,-477"/>
<text text-anchor="start" x="595" y="-496" font-family="FreeSans" font-size="10.00">Mezzanine::FilePermission</text>
<text text-anchor="middle" x="652" y="-484" font-family="FreeSans" font-size="10.00">Exception</text>
</a>
</g>
<!-- Node17&#45;&gt;Node19 -->
<g id="edge36" class="edge"><title>Node17&#45;&gt;Node19</title>
<path fill="none" stroke="midnightblue" d="M499.96,-461.144C526.884,-466.785 559.011,-473.517 586.782,-479.335"/>
<polygon fill="midnightblue" stroke="midnightblue" points="500.42,-457.665 489.915,-459.039 498.985,-464.516 500.42,-457.665"/>
</g>
<!-- Node20 -->
<g id="node39" class="node"><title>Node20</title>
<a xlink:href="classMezzanine_1_1FileReadException.xhtml" target="_top" xlink:title="Thrown when a file could not be read and permissions seem to not be an issue (Filesystem/hardware iss...">
<polygon fill="none" stroke="black" points="578.5,-439 578.5,-459 725.5,-459 725.5,-439 578.5,-439"/>
<text text-anchor="middle" x="652" y="-446" font-family="FreeSans" font-size="10.00">Mezzanine::FileReadException</text>
</a>
</g>
<!-- Node17&#45;&gt;Node20 -->
<g id="edge38" class="edge"><title>Node17&#45;&gt;Node20</title>
<path fill="none" stroke="midnightblue" d="M514.92,-449C535.376,-449 557.629,-449 578.139,-449"/>
<polygon fill="midnightblue" stroke="midnightblue" points="514.723,-445.5 504.722,-449 514.722,-452.5 514.723,-445.5"/>
</g>
<!-- Node21 -->
<g id="node41" class="node"><title>Node21</title>
<a xlink:href="classMezzanine_1_1FileWriteException.xhtml" target="_top" xlink:title="Thrown when a file could not be written and perimssions seem not to be an issue.">
<polygon fill="none" stroke="black" points="578.5,-401 578.5,-421 725.5,-421 725.5,-401 578.5,-401"/>
<text text-anchor="middle" x="652" y="-408" font-family="FreeSans" font-size="10.00">Mezzanine::FileWriteException</text>
</a>
</g>
<!-- Node17&#45;&gt;Node21 -->
<g id="edge40" class="edge"><title>Node17&#45;&gt;Node21</title>
<path fill="none" stroke="midnightblue" d="M507.365,-437.172C535.989,-431.992 569.219,-425.979 596.604,-421.024"/>
<polygon fill="midnightblue" stroke="midnightblue" points="506.667,-433.741 497.45,-438.966 507.913,-440.63 506.667,-433.741"/>
</g>
<!-- Node25 -->
<g id="node49" class="node"><title>Node25</title>
<a xlink:href="classMezzanine_1_1NetworkNotFoundException.xhtml" target="_top" xlink:title="Thrown when no network connection is available.">
<polygon fill="none" stroke="black" points="580,-351 580,-383 724,-383 724,-351 580,-351"/>
<text text-anchor="start" x="588" y="-370" font-family="FreeSans" font-size="10.00">Mezzanine::NetworkNotFound</text>
<text text-anchor="middle" x="652" y="-358" font-family="FreeSans" font-size="10.00">Exception</text>
</a>
</g>
<!-- Node24&#45;&gt;Node25 -->
<g id="edge48" class="edge"><title>Node24&#45;&gt;Node25</title>
<path fill="none" stroke="midnightblue" d="M497.921,-333.249C523.061,-338.756 553.045,-345.324 579.852,-351.196"/>
<polygon fill="midnightblue" stroke="midnightblue" points="498.343,-329.759 487.826,-331.038 496.845,-336.597 498.343,-329.759"/>
</g>
<!-- Node26 -->
<g id="node51" class="node"><title>Node26</title>
<a xlink:href="classMezzanine_1_1NetworkPermissionException.xhtml" target="_top" xlink:title="Thrown when permision was denied to a network interface or network resource.">
<polygon fill="none" stroke="black" points="577.5,-301 577.5,-333 726.5,-333 726.5,-301 577.5,-301"/>
<text text-anchor="start" x="585.5" y="-320" font-family="FreeSans" font-size="10.00">Mezzanine::NetworkPermission</text>
<text text-anchor="middle" x="652" y="-308" font-family="FreeSans" font-size="10.00">Exception</text>
</a>
</g>
<!-- Node24&#45;&gt;Node26 -->
<g id="edge50" class="edge"><title>Node24&#45;&gt;Node26</title>
<path fill="none" stroke="midnightblue" d="M524.446,-319.43C541.928,-319.097 560.286,-318.747 577.454,-318.42"/>
<polygon fill="midnightblue" stroke="midnightblue" points="524.202,-315.934 514.27,-319.623 524.335,-322.932 524.202,-315.934"/>
</g>
<!-- Node27 -->
<g id="node53" class="node"><title>Node27</title>
<a xlink:href="classMezzanine_1_1NetworkReadException.xhtml" target="_top" xlink:title="Thrown when data could not be read from the network (downloads).">
<polygon fill="none" stroke="black" points="568.5,-263 568.5,-283 735.5,-283 735.5,-263 568.5,-263"/>
<text text-anchor="middle" x="652" y="-270" font-family="FreeSans" font-size="10.00">Mezzanine::NetworkReadException</text>
</a>
</g>
<!-- Node24&#45;&gt;Node27 -->
<g id="edge52" class="edge"><title>Node24&#45;&gt;Node27</title>
<path fill="none" stroke="midnightblue" d="M502.391,-308.797C512.308,-306.637 522.459,-304.33 532,-302 548.132,-298.061 551.897,-296.055 568,-292 580.179,-288.933 593.41,-285.833 605.69,-283.052"/>
<polygon fill="midnightblue" stroke="midnightblue" points="501.625,-305.382 492.583,-310.905 503.095,-312.226 501.625,-305.382"/>
</g>
<!-- Node28 -->
<g id="node55" class="node"><title>Node28</title>
<a xlink:href="classMezzanine_1_1NetworkURLException.xhtml" target="_top" xlink:title="Thrown when an address is invalid or could not be found.">
<polygon fill="none" stroke="black" points="570.5,-225 570.5,-245 733.5,-245 733.5,-225 570.5,-225"/>
<text text-anchor="middle" x="652" y="-232" font-family="FreeSans" font-size="10.00">Mezzanine::NetworkURLException</text>
</a>
</g>
<!-- Node24&#45;&gt;Node28 -->
<g id="edge54" class="edge"><title>Node24&#45;&gt;Node28</title>
<path fill="none" stroke="midnightblue" d="M523.134,-306.921C526.203,-305.438 529.172,-303.803 532,-302 554.484,-287.662 545.62,-268.499 568,-254 573.521,-250.423 579.626,-247.514 585.951,-245.15"/>
<polygon fill="midnightblue" stroke="midnightblue" points="521.517,-303.805 513.672,-310.926 524.245,-310.251 521.517,-303.805"/>
</g>
<!-- Node29 -->
<g id="node57" class="node"><title>Node29</title>
<a xlink:href="classMezzanine_1_1NetworkWriteException.xhtml" target="_top" xlink:title="Thrown when data could not be read from the network (i[loads).">
<polygon fill="none" stroke="black" points="568.5,-187 568.5,-207 735.5,-207 735.5,-187 568.5,-187"/>
<text text-anchor="middle" x="652" y="-194" font-family="FreeSans" font-size="10.00">Mezzanine::NetworkWriteException</text>
</a>
</g>
<!-- Node24&#45;&gt;Node29 -->
<g id="edge56" class="edge"><title>Node24&#45;&gt;Node29</title>
<path fill="none" stroke="midnightblue" d="M523.264,-308.052C526.341,-306.266 529.272,-304.257 532,-302 563.925,-275.586 536.265,-242.643 568,-216 572.237,-212.443 577.004,-209.517 582.059,-207.114"/>
<polygon fill="midnightblue" stroke="midnightblue" points="521.654,-304.943 514.247,-312.519 524.762,-311.216 521.654,-304.943"/>
</g>
<!-- Node31 -->
<g id="node61" class="node"><title>Node31</title>
<a xlink:href="classMezzanine_1_1MemoryOutOfBoundsException.xhtml" target="_top" xlink:title="Thrown when attempted to access something that really should note be accessed.">
<polygon fill="none" stroke="black" points="362,-261 362,-293 522,-293 522,-261 362,-261"/>
<text text-anchor="start" x="370" y="-280" font-family="FreeSans" font-size="10.00">Mezzanine::MemoryOutOfBounds</text>
<text text-anchor="middle" x="442" y="-268" font-family="FreeSans" font-size="10.00">Exception</text>
</a>
</g>
<!-- Node30&#45;&gt;Node31 -->
<g id="edge60" class="edge"><title>Node30&#45;&gt;Node31</title>
<path fill="none" stroke="midnightblue" d="M304.608,-311.511C328.512,-305.507 354.827,-298.897 377.974,-293.082"/>
<polygon fill="midnightblue" stroke="midnightblue" points="303.726,-308.124 294.88,-313.954 305.431,-314.913 303.726,-308.124"/>
</g>
<!-- Node32 -->
<g id="node63" class="node"><title>Node32</title>
<a xlink:href="classMezzanine_1_1OutOfMemoryException.xhtml" target="_top" xlink:title="Thrown when A memory allocation was attempted and failed.">
<polygon fill="none" stroke="black" points="357,-223 357,-243 527,-243 527,-223 357,-223"/>
<text text-anchor="middle" x="442" y="-230" font-family="FreeSans" font-size="10.00">Mezzanine::OutOfMemoryException</text>
</a>
</g>
<!-- Node30&#45;&gt;Node32 -->
<g id="edge62" class="edge"><title>Node30&#45;&gt;Node32</title>
<path fill="none" stroke="midnightblue" d="M309.551,-309.255C311.778,-307.923 313.934,-306.507 316,-305 339.008,-288.222 328.356,-267.869 352,-252 357.304,-248.44 363.148,-245.529 369.233,-243.151"/>
<polygon fill="midnightblue" stroke="midnightblue" points="307.849,-306.196 300.663,-313.982 311.136,-312.376 307.849,-306.196"/>
</g>
<!-- Node37 -->
<g id="node73" class="node"><title>Node37</title>
<a xlink:href="classMezzanine_1_1ScriptLuaException.xhtml" target="_top" xlink:title="Thrown when an unknown error happens in a Lua script.">
<polygon fill="none" stroke="black" points="367,-138 367,-158 517,-158 517,-138 367,-138"/>
<text text-anchor="middle" x="442" y="-145" font-family="FreeSans" font-size="10.00">Mezzanine::ScriptLuaException</text>
</a>
</g>
<!-- Node36&#45;&gt;Node37 -->
<g id="edge72" class="edge"><title>Node36&#45;&gt;Node37</title>
<path fill="none" stroke="midnightblue" d="M308.195,-148C327.278,-148 347.695,-148 366.687,-148"/>
<polygon fill="midnightblue" stroke="midnightblue" points="308.052,-144.5 298.052,-148 308.052,-151.5 308.052,-144.5"/>
</g>
<!-- Node38 -->
<g id="node75" class="node"><title>Node38</title>
<a xlink:href="classMezzanine_1_1ScriptLuaErrErrException.xhtml" target="_top" xlink:title="Thrown when Lua has an error handling an error.">
<polygon fill="none" stroke="black" points="586,-137 586,-169 718,-169 718,-137 586,-137"/>
<text text-anchor="start" x="594" y="-156" font-family="FreeSans" font-size="10.00">Mezzanine::ScriptLuaErrErr</text>
<text text-anchor="middle" x="652" y="-144" font-family="FreeSans" font-size="10.00">Exception</text>
</a>
</g>
<!-- Node37&#45;&gt;Node38 -->
<g id="edge74" class="edge"><title>Node37&#45;&gt;Node38</title>
<path fill="none" stroke="midnightblue" d="M527.294,-150.031C546.748,-150.494 567.137,-150.979 585.661,-151.42"/>
<polygon fill="midnightblue" stroke="midnightblue" points="527.302,-146.53 517.222,-149.791 527.135,-153.528 527.302,-146.53"/>
</g>
<!-- Node39 -->
<g id="node77" class="node"><title>Node39</title>
<a xlink:href="classMezzanine_1_1ScriptLuaRuntimeException.xhtml" target="_top" xlink:title="Thrown when a Lua script has a runtime error.">
<polygon fill="none" stroke="black" points="580,-87 580,-119 724,-119 724,-87 580,-87"/>
<text text-anchor="start" x="588" y="-106" font-family="FreeSans" font-size="10.00">Mezzanine::ScriptLuaRuntime</text>
<text text-anchor="middle" x="652" y="-94" font-family="FreeSans" font-size="10.00">Exception</text>
</a>
</g>
<!-- Node37&#45;&gt;Node39 -->
<g id="edge76" class="edge"><title>Node37&#45;&gt;Node39</title>
<path fill="none" stroke="midnightblue" d="M499.443,-135.921C510.261,-133.632 521.479,-131.25 532,-129 547.53,-125.678 564.183,-122.088 579.992,-118.667"/>
<polygon fill="midnightblue" stroke="midnightblue" points="498.713,-132.498 489.652,-137.989 500.16,-139.346 498.713,-132.498"/>
</g>
<!-- Node40 -->
<g id="node79" class="node"><title>Node40</title>
<a xlink:href="classMezzanine_1_1ScriptLuaYieldException.xhtml" target="_top" xlink:title="Thrown when Lua returns a yield and it should not have.">
<polygon fill="none" stroke="black" points="587,-37 587,-69 717,-69 717,-37 587,-37"/>
<text text-anchor="start" x="595" y="-56" font-family="FreeSans" font-size="10.00">Mezzanine::ScriptLuaYield</text>
<text text-anchor="middle" x="652" y="-44" font-family="FreeSans" font-size="10.00">Exception</text>
</a>
</g>
<!-- Node37&#45;&gt;Node40 -->
<g id="edge78" class="edge"><title>Node37&#45;&gt;Node40</title>
<path fill="none" stroke="midnightblue" d="M523.419,-133.915C526.392,-132.433 529.265,-130.8 532,-129 555.176,-113.747 545.463,-94.1817 568,-78 573.685,-73.9179 580.04,-70.4956 586.639,-67.6278"/>
<polygon fill="midnightblue" stroke="midnightblue" points="522.005,-130.713 514.241,-137.923 524.806,-137.128 522.005,-130.713"/>
</g>
<!-- Node42 -->
<g id="node83" class="node"><title>Node42</title>
<a xlink:href="classMezzanine_1_1SyntaxErrorLuaException.xhtml" target="_top" xlink:title="Thrown when lua code in incorrect.">
<polygon fill="none" stroke="black" points="376,-88 376,-120 508,-120 508,-88 376,-88"/>
<text text-anchor="start" x="384" y="-107" font-family="FreeSans" font-size="10.00">Mezzanine::SyntaxErrorLua</text>
<text text-anchor="middle" x="442" y="-95" font-family="FreeSans" font-size="10.00">Exception</text>
</a>
</g>
<!-- Node41&#45;&gt;Node42 -->
<g id="edge82" class="edge"><title>Node41&#45;&gt;Node42</title>
<path fill="none" stroke="midnightblue" d="M320.152,-91.2955C338.819,-93.2418 358.186,-95.2611 375.839,-97.1017"/>
<polygon fill="midnightblue" stroke="midnightblue" points="320.478,-87.8106 310.169,-90.2546 319.752,-94.7728 320.478,-87.8106"/>
</g>
<!-- Node43 -->
<g id="node85" class="node"><title>Node43</title>
<a xlink:href="classMezzanine_1_1SyntaxErrorXMLException.xhtml" target="_top" xlink:title="Thrown when and XML document is being parsed but is invalid.">
<polygon fill="none" stroke="black" points="352.5,-50 352.5,-70 531.5,-70 531.5,-50 352.5,-50"/>
<text text-anchor="middle" x="442" y="-57" font-family="FreeSans" font-size="10.00">Mezzanine::SyntaxErrorXMLException</text>
</a>
</g>
<!-- Node41&#45;&gt;Node43 -->
<g id="edge84" class="edge"><title>Node41&#45;&gt;Node43</title>
<path fill="none" stroke="midnightblue" d="M320.293,-72.6898C330.94,-71.5798 341.812,-70.4462 352.462,-69.3357"/>
<polygon fill="midnightblue" stroke="midnightblue" points="319.752,-69.2272 310.169,-73.7454 320.478,-76.1894 319.752,-69.2272"/>
</g>
<!-- Node44 -->
<g id="node87" class="node"><title>Node44</title>
<a xlink:href="classMezzanine_1_1SyntaxErrorXPathException.xhtml" target="_top" xlink:title="Thrown when an XPath query is being parsed but is invalid.">
<polygon fill="none" stroke="black" points="370.5,-0 370.5,-32 513.5,-32 513.5,-0 370.5,-0"/>
<text text-anchor="start" x="378.5" y="-19" font-family="FreeSans" font-size="10.00">Mezzanine::SyntaxErrorXPath</text>
<text text-anchor="middle" x="442" y="-7" font-family="FreeSans" font-size="10.00">Exception</text>
</a>
</g>
<!-- Node41&#45;&gt;Node44 -->
<g id="edge86" class="edge"><title>Node41&#45;&gt;Node44</title>
<path fill="none" stroke="midnightblue" d="M268.903,-68.5509C292.665,-60.2707 323.993,-49.6274 352,-41 361.764,-37.9923 372.172,-34.9509 382.317,-32.0746"/>
<polygon fill="midnightblue" stroke="midnightblue" points="267.497,-65.3348 259.215,-71.9421 269.81,-71.9417 267.497,-65.3348"/>
</g>
</g>
</svg>
