<?xml version="1.0" encoding="UTF-8" standalone="no"?>
<!DOCTYPE svg PUBLIC "-//W3C//DTD SVG 1.1//EN"
 "http://www.w3.org/Graphics/SVG/1.1/DTD/svg11.dtd">
<!-- Generated by graphviz version 2.26.3 (20100126.1600)
 -->
<!-- Title: Graphical Class Hierarchy Pages: 1 -->
<svg width="330pt" height="104pt"
 viewBox="0.00 0.00 330.00 104.00" xmlns="http://www.w3.org/2000/svg" xmlns:xlink="http://www.w3.org/1999/xlink">
<g id="graph1" class="graph" transform="scale(1 1) rotate(0) translate(4 100)">
<title>Graphical Class Hierarchy</title>
<polygon fill="white" stroke="white" points="-4,5 -4,-100 327,-100 327,5 -4,5"/>
<!-- Node1 -->
<g id="node1" class="node"><title>Node1</title>
<a xlink:href="classMezzanine_1_1UI_1_1MarkupTag.html" target="_top" xlink:title="This is a base class for tags that implement the functionality of a markup language. ">
<polygon fill="white" stroke="black" points="0,-38 0,-58 130,-58 130,-38 0,-38"/>
<text text-anchor="middle" x="65" y="-45" font-family="FreeSans" font-size="10.00">Mezzanine::UI::MarkupTag</text>
</a>
</g>
<!-- Node2 -->
<g id="node3" class="node"><title>Node2</title>
<a xlink:href="classMezzanine_1_1UI_1_1DefaultColourTag.html" target="_top" xlink:title="This class implements a character colour changing tag. ">
<polygon fill="white" stroke="black" points="166,-76 166,-96 322,-96 322,-76 166,-76"/>
<text text-anchor="middle" x="244" y="-83" font-family="FreeSans" font-size="10.00">Mezzanine::UI::DefaultColourTag</text>
</a>
</g>
<!-- Node1&#45;&gt;Node2 -->
<g id="edge2" class="edge"><title>Node1&#45;&gt;Node2</title>
<path fill="none" stroke="midnightblue" d="M122.51,-60.2089C146.428,-65.2864 173.855,-71.1089 196.59,-75.9353"/>
<polygon fill="midnightblue" stroke="midnightblue" points="123.008,-56.7365 112.499,-58.0835 121.554,-63.5839 123.008,-56.7365"/>
</g>
<!-- Node3 -->
<g id="node5" class="node"><title>Node3</title>
<a xlink:href="classMezzanine_1_1UI_1_1DefaultFontTag.html" target="_top" xlink:title="This class implements a character font changing tag. ">
<polygon fill="white" stroke="black" points="170,-38 170,-58 318,-58 318,-38 170,-38"/>
<text text-anchor="middle" x="244" y="-45" font-family="FreeSans" font-size="10.00">Mezzanine::UI::DefaultFontTag</text>
</a>
</g>
<!-- Node1&#45;&gt;Node3 -->
<g id="edge4" class="edge"><title>Node1&#45;&gt;Node3</title>
<path fill="none" stroke="midnightblue" d="M140.228,-48C150.02,-48 160.046,-48 169.82,-48"/>
<polygon fill="midnightblue" stroke="midnightblue" points="140.13,-44.5001 130.129,-48 140.129,-51.5001 140.13,-44.5001"/>
</g>
<!-- Node4 -->
<g id="node7" class="node"><title>Node4</title>
<a xlink:href="classMezzanine_1_1UI_1_1DefaultSpriteTag.html" target="_top" xlink:title="This class implements a sprite inserting tag. ">
<polygon fill="white" stroke="black" points="167,-0 167,-20 321,-20 321,-0 167,-0"/>
<text text-anchor="middle" x="244" y="-7" font-family="FreeSans" font-size="10.00">Mezzanine::UI::DefaultSpriteTag</text>
</a>
</g>
<!-- Node1&#45;&gt;Node4 -->
<g id="edge6" class="edge"><title>Node1&#45;&gt;Node4</title>
<path fill="none" stroke="midnightblue" d="M122.51,-35.7911C146.428,-30.7136 173.855,-24.8911 196.59,-20.0647"/>
<polygon fill="midnightblue" stroke="midnightblue" points="121.554,-32.4161 112.499,-37.9165 123.008,-39.2635 121.554,-32.4161"/>
</g>
</g>
</svg>
