<?xml version="1.0" encoding="UTF-8" standalone="no"?>
<!DOCTYPE svg PUBLIC "-//W3C//DTD SVG 1.1//EN"
 "http://www.w3.org/Graphics/SVG/1.1/DTD/svg11.dtd">
<!-- Generated by graphviz version 2.36.0 (20140111.2315)
 -->
<!-- Title: Graphical Class Hierarchy Pages: 1 -->
<svg width="666pt" height="447pt"
 viewBox="0.00 0.00 666.00 447.00" xmlns="http://www.w3.org/2000/svg" xmlns:xlink="http://www.w3.org/1999/xlink">
<g id="graph0" class="graph" transform="scale(1 1) rotate(0) translate(4 443)">
<title>Graphical Class Hierarchy</title>
<polygon fill="white" stroke="none" points="-4,4 -4,-443 662,-443 662,4 -4,4"/>
<!-- Node1 -->
<g id="node1" class="node"><title>Node1</title>
<g id="a_node1"><a xlink:href="classMezzanine_1_1IntrusiveRefCount.html" target="_top" xlink:title="A sample class that implements a minimal intrusive reference counting scheme. ">
<polygon fill="white" stroke="black" points="0.5,-234.5 0.5,-253.5 149.5,-253.5 149.5,-234.5 0.5,-234.5"/>
<text text-anchor="middle" x="75" y="-241.5" font-family="Helvetica,sans-Serif" font-size="10.00">Mezzanine::IntrusiveRefCount</text>
</a>
</g>
</g>
<!-- Node2 -->
<g id="node2" class="node"><title>Node2</title>
<g id="a_node2"><a xlink:href="classMezzanine_1_1Scripting_1_1iScriptArgument.html" target="_top" xlink:title="The interface for a script argument. ">
<polygon fill="white" stroke="black" points="186,-229 186,-259 294,-259 294,-229 186,-229"/>
<text text-anchor="start" x="194" y="-247" font-family="Helvetica,sans-Serif" font-size="10.00">Mezzanine::Scripting</text>
<text text-anchor="middle" x="240" y="-236" font-family="Helvetica,sans-Serif" font-size="10.00">::iScriptArgument</text>
</a>
</g>
</g>
<!-- Node1&#45;&gt;Node2 -->
<g id="edge1" class="edge"><title>Node1&#45;&gt;Node2</title>
<path fill="none" stroke="midnightblue" d="M160.134,-244C168.882,-244 177.59,-244 185.853,-244"/>
<polygon fill="midnightblue" stroke="midnightblue" points="159.869,-240.5 149.869,-244 159.869,-247.5 159.869,-240.5"/>
</g>
<!-- Node3 -->
<g id="node3" class="node"><title>Node3</title>
<g id="a_node3"><a xlink:href="classMezzanine_1_1Scripting_1_1ScriptArgumentGeneric.html" target="_top" xlink:title="A generic implementation of a ScriptArgument that is suitable for primitive types in most situations...">
<polygon fill="white" stroke="black" points="330,-229 330,-259 478,-259 478,-229 330,-229"/>
<text text-anchor="start" x="338" y="-247" font-family="Helvetica,sans-Serif" font-size="10.00">Mezzanine::Scripting</text>
<text text-anchor="middle" x="404" y="-236" font-family="Helvetica,sans-Serif" font-size="10.00">::ScriptArgumentGeneric&lt; T &gt;</text>
</a>
</g>
</g>
<!-- Node2&#45;&gt;Node3 -->
<g id="edge2" class="edge"><title>Node2&#45;&gt;Node3</title>
<path fill="none" stroke="midnightblue" d="M304.154,-244C312.573,-244 321.263,-244 329.835,-244"/>
<polygon fill="midnightblue" stroke="midnightblue" points="304.045,-240.5 294.045,-244 304.045,-247.5 304.045,-240.5"/>
</g>
<!-- Node4 -->
<g id="node4" class="node"><title>Node4</title>
<g id="a_node4"><a xlink:href="classMezzanine_1_1Scripting_1_1ScriptArgumentGeneric_3_01Boole_01_4.html" target="_top" xlink:title="A Bool implementation of a ScriptArgument that is suitable for primitive types in most situations...">
<polygon fill="white" stroke="black" points="342,-120.5 342,-161.5 466,-161.5 466,-120.5 342,-120.5"/>
<text text-anchor="start" x="350" y="-149.5" font-family="Helvetica,sans-Serif" font-size="10.00">Mezzanine::Scripting</text>
<text text-anchor="start" x="350" y="-138.5" font-family="Helvetica,sans-Serif" font-size="10.00">::ScriptArgumentGeneric</text>
<text text-anchor="middle" x="404" y="-127.5" font-family="Helvetica,sans-Serif" font-size="10.00">&lt; Boole &gt;</text>
</a>
</g>
</g>
<!-- Node2&#45;&gt;Node4 -->
<g id="edge3" class="edge"><title>Node2&#45;&gt;Node4</title>
<path fill="none" stroke="midnightblue" d="M263.553,-221.788C280.69,-205.81 305.428,-184.592 330,-170 335.042,-167.006 340.45,-164.199 345.958,-161.602"/>
<polygon fill="midnightblue" stroke="midnightblue" points="261.093,-219.298 256.243,-228.717 265.908,-224.378 261.093,-219.298"/>
</g>
<!-- Node6 -->
<g id="node6" class="node"><title>Node6</title>
<g id="a_node6"><a xlink:href="classMezzanine_1_1Scripting_1_1ScriptArgumentGeneric_3_01Integer_01_4.html" target="_top" xlink:title="A Integer implementation of a ScriptArgument that is suitable for primitive types in most situations...">
<polygon fill="white" stroke="black" points="342,-60.5 342,-101.5 466,-101.5 466,-60.5 342,-60.5"/>
<text text-anchor="start" x="350" y="-89.5" font-family="Helvetica,sans-Serif" font-size="10.00">Mezzanine::Scripting</text>
<text text-anchor="start" x="350" y="-78.5" font-family="Helvetica,sans-Serif" font-size="10.00">::ScriptArgumentGeneric</text>
<text text-anchor="middle" x="404" y="-67.5" font-family="Helvetica,sans-Serif" font-size="10.00">&lt; Integer &gt;</text>
</a>
</g>
</g>
<!-- Node2&#45;&gt;Node6 -->
<g id="edge5" class="edge"><title>Node2&#45;&gt;Node6</title>
<path fill="none" stroke="midnightblue" d="M251.83,-219.543C265.962,-190.144 293.286,-141.024 330,-111 334.243,-107.53 338.942,-104.413 343.851,-101.621"/>
<polygon fill="midnightblue" stroke="midnightblue" points="248.613,-218.16 247.548,-228.701 254.954,-221.125 248.613,-218.16"/>
</g>
<!-- Node8 -->
<g id="node8" class="node"><title>Node8</title>
<g id="a_node8"><a xlink:href="classMezzanine_1_1Scripting_1_1ScriptArgumentGeneric_3_01NullArgument_01_4.html" target="_top" xlink:title="A Null implementation of a ScriptArgument that is suitable for primitive types in most situations...">
<polygon fill="white" stroke="black" points="342,-0.5 342,-41.5 466,-41.5 466,-0.5 342,-0.5"/>
<text text-anchor="start" x="350" y="-29.5" font-family="Helvetica,sans-Serif" font-size="10.00">Mezzanine::Scripting</text>
<text text-anchor="start" x="350" y="-18.5" font-family="Helvetica,sans-Serif" font-size="10.00">::ScriptArgumentGeneric</text>
<text text-anchor="middle" x="404" y="-7.5" font-family="Helvetica,sans-Serif" font-size="10.00">&lt; NullArgument &gt;</text>
</a>
</g>
</g>
<!-- Node2&#45;&gt;Node8 -->
<g id="edge7" class="edge"><title>Node2&#45;&gt;Node8</title>
<path fill="none" stroke="midnightblue" d="M246.301,-218.881C256.075,-178.365 280.611,-98.3495 330,-51 333.66,-47.4915 337.786,-44.3705 342.169,-41.5983"/>
<polygon fill="midnightblue" stroke="midnightblue" points="242.863,-218.215 244.028,-228.746 249.685,-219.787 242.863,-218.215"/>
</g>
<!-- Node10 -->
<g id="node10" class="node"><title>Node10</title>
<g id="a_node10"><a xlink:href="classMezzanine_1_1Scripting_1_1ScriptArgumentGeneric_3_01Real_01_4.html" target="_top" xlink:title="A Real number implementation of a ScriptArgument that is suitable for primitive types in most situati...">
<polygon fill="white" stroke="black" points="342,-397.5 342,-438.5 466,-438.5 466,-397.5 342,-397.5"/>
<text text-anchor="start" x="350" y="-426.5" font-family="Helvetica,sans-Serif" font-size="10.00">Mezzanine::Scripting</text>
<text text-anchor="start" x="350" y="-415.5" font-family="Helvetica,sans-Serif" font-size="10.00">::ScriptArgumentGeneric</text>
<text text-anchor="middle" x="404" y="-404.5" font-family="Helvetica,sans-Serif" font-size="10.00">&lt; Real &gt;</text>
</a>
</g>
</g>
<!-- Node2&#45;&gt;Node10 -->
<g id="edge9" class="edge"><title>Node2&#45;&gt;Node10</title>
<path fill="none" stroke="midnightblue" d="M250.61,-268.351C264.071,-299.649 291.308,-353.889 330,-387 334.498,-390.85 339.545,-394.281 344.829,-397.325"/>
<polygon fill="midnightblue" stroke="midnightblue" points="253.81,-266.931 246.727,-259.052 247.35,-269.628 253.81,-266.931"/>
</g>
<!-- Node12 -->
<g id="node12" class="node"><title>Node12</title>
<g id="a_node12"><a xlink:href="classMezzanine_1_1Scripting_1_1ScriptArgumentGeneric_3_01String_01_4.html" target="_top" xlink:title="A String implementation of a ScriptArgument that is suitable for primitive types in most situations...">
<polygon fill="white" stroke="black" points="342,-337.5 342,-378.5 466,-378.5 466,-337.5 342,-337.5"/>
<text text-anchor="start" x="350" y="-366.5" font-family="Helvetica,sans-Serif" font-size="10.00">Mezzanine::Scripting</text>
<text text-anchor="start" x="350" y="-355.5" font-family="Helvetica,sans-Serif" font-size="10.00">::ScriptArgumentGeneric</text>
<text text-anchor="middle" x="404" y="-344.5" font-family="Helvetica,sans-Serif" font-size="10.00">&lt; String &gt;</text>
</a>
</g>
</g>
<!-- Node2&#45;&gt;Node12 -->
<g id="edge11" class="edge"><title>Node2&#45;&gt;Node12</title>
<path fill="none" stroke="midnightblue" d="M261.353,-266.971C278.328,-285.083 303.88,-310.034 330,-327 335.773,-330.75 342.076,-334.218 348.482,-337.371"/>
<polygon fill="midnightblue" stroke="midnightblue" points="263.533,-264.171 254.186,-259.183 258.383,-268.912 263.533,-264.171"/>
</g>
<!-- Node14 -->
<g id="node14" class="node"><title>Node14</title>
<g id="a_node14"><a xlink:href="classMezzanine_1_1Scripting_1_1ScriptArgumentGeneric_3_01Whole_01_4.html" target="_top" xlink:title="A Whole number implementation of a ScriptArgument that is suitable for primitive types in most situat...">
<polygon fill="white" stroke="black" points="342,-277.5 342,-318.5 466,-318.5 466,-277.5 342,-277.5"/>
<text text-anchor="start" x="350" y="-306.5" font-family="Helvetica,sans-Serif" font-size="10.00">Mezzanine::Scripting</text>
<text text-anchor="start" x="350" y="-295.5" font-family="Helvetica,sans-Serif" font-size="10.00">::ScriptArgumentGeneric</text>
<text text-anchor="middle" x="404" y="-284.5" font-family="Helvetica,sans-Serif" font-size="10.00">&lt; Whole &gt;</text>
</a>
</g>
</g>
<!-- Node2&#45;&gt;Node14 -->
<g id="edge13" class="edge"><title>Node2&#45;&gt;Node14</title>
<path fill="none" stroke="midnightblue" d="M295.651,-262.217C310.471,-267.157 326.612,-272.537 341.769,-277.59"/>
<polygon fill="midnightblue" stroke="midnightblue" points="296.72,-258.884 286.126,-259.042 294.506,-265.525 296.72,-258.884"/>
</g>
<!-- Node5 -->
<g id="node5" class="node"><title>Node5</title>
<g id="a_node5"><a xlink:href="classMezzanine_1_1Scripting_1_1Lua_1_1Lua51BoolArgument.html" target="_top" xlink:title="No special care is required for Bool Lua Arguments, so a simple typedef is used. ">
<polygon fill="white" stroke="black" points="520,-128 520,-158 652,-158 652,-128 520,-128"/>
<text text-anchor="start" x="528" y="-146" font-family="Helvetica,sans-Serif" font-size="10.00">Mezzanine::Scripting</text>
<text text-anchor="middle" x="586" y="-135" font-family="Helvetica,sans-Serif" font-size="10.00">::Lua::Lua51BoolArgument</text>
</a>
</g>
</g>
<!-- Node4&#45;&gt;Node5 -->
<g id="edge4" class="edge"><title>Node4&#45;&gt;Node5</title>
<path fill="none" stroke="midnightblue" d="M476.503,-141.794C490.855,-141.954 505.862,-142.121 519.979,-142.278"/>
<polygon fill="midnightblue" stroke="midnightblue" points="476.229,-138.291 466.191,-141.68 476.151,-145.291 476.229,-138.291"/>
</g>
<!-- Node7 -->
<g id="node7" class="node"><title>Node7</title>
<g id="a_node7"><a xlink:href="classMezzanine_1_1Scripting_1_1Lua_1_1Lua51IntegerArgument.html" target="_top" xlink:title="The implementations in the ScriptArgumentGeneric&lt;Integer&gt; will cover most of what this needs...">
<polygon fill="white" stroke="black" points="514.5,-71 514.5,-101 657.5,-101 657.5,-71 514.5,-71"/>
<text text-anchor="start" x="522.5" y="-89" font-family="Helvetica,sans-Serif" font-size="10.00">Mezzanine::Scripting</text>
<text text-anchor="middle" x="586" y="-78" font-family="Helvetica,sans-Serif" font-size="10.00">::Lua::Lua51IntegerArgument</text>
</a>
</g>
</g>
<!-- Node6&#45;&gt;Node7 -->
<g id="edge6" class="edge"><title>Node6&#45;&gt;Node7</title>
<path fill="none" stroke="midnightblue" d="M476.518,-82.9866C488.977,-83.3327 501.929,-83.6925 514.364,-84.0379"/>
<polygon fill="midnightblue" stroke="midnightblue" points="476.284,-79.4789 466.191,-82.6997 476.09,-86.4762 476.284,-79.4789"/>
</g>
<!-- Node9 -->
<g id="node9" class="node"><title>Node9</title>
<g id="a_node9"><a xlink:href="classMezzanine_1_1Scripting_1_1Lua_1_1Lua51NilArgument.html" target="_top" xlink:title="Represents not much of anything but will insert and retrieves Nils from Lua51. ">
<polygon fill="white" stroke="black" points="523.5,-11 523.5,-41 648.5,-41 648.5,-11 523.5,-11"/>
<text text-anchor="start" x="531.5" y="-29" font-family="Helvetica,sans-Serif" font-size="10.00">Mezzanine::Scripting</text>
<text text-anchor="middle" x="586" y="-18" font-family="Helvetica,sans-Serif" font-size="10.00">::Lua::Lua51NilArgument</text>
</a>
</g>
</g>
<!-- Node8&#45;&gt;Node9 -->
<g id="edge8" class="edge"><title>Node8&#45;&gt;Node9</title>
<path fill="none" stroke="midnightblue" d="M476.289,-22.9803C491.859,-23.4128 508.211,-23.867 523.367,-24.288"/>
<polygon fill="midnightblue" stroke="midnightblue" points="476.284,-19.4789 466.191,-22.6997 476.09,-26.4762 476.284,-19.4789"/>
</g>
<!-- Node11 -->
<g id="node11" class="node"><title>Node11</title>
<g id="a_node11"><a xlink:href="classMezzanine_1_1Scripting_1_1Lua_1_1Lua51RealArgument.html" target="_top" xlink:title="A Real that can readily be passed into lua scripts. ">
<polygon fill="white" stroke="black" points="519.5,-386 519.5,-416 652.5,-416 652.5,-386 519.5,-386"/>
<text text-anchor="start" x="527.5" y="-404" font-family="Helvetica,sans-Serif" font-size="10.00">Mezzanine::Scripting</text>
<text text-anchor="middle" x="586" y="-393" font-family="Helvetica,sans-Serif" font-size="10.00">::Lua::Lua51RealArgument</text>
</a>
</g>
</g>
<!-- Node10&#45;&gt;Node11 -->
<g id="edge10" class="edge"><title>Node10&#45;&gt;Node11</title>
<path fill="none" stroke="midnightblue" d="M476.38,-411.259C490.559,-409.919 505.383,-408.519 519.359,-407.199"/>
<polygon fill="midnightblue" stroke="midnightblue" points="475.818,-407.796 466.191,-412.221 476.476,-414.765 475.818,-407.796"/>
</g>
<!-- Node13 -->
<g id="node13" class="node"><title>Node13</title>
<g id="a_node13"><a xlink:href="classMezzanine_1_1Scripting_1_1Lua_1_1Lua51StringArgument.html" target="_top" xlink:title="No special care is required for String Lua Arguments, so a simple typedef is used. ">
<polygon fill="white" stroke="black" points="517,-303 517,-333 655,-333 655,-303 517,-303"/>
<text text-anchor="start" x="525" y="-321" font-family="Helvetica,sans-Serif" font-size="10.00">Mezzanine::Scripting</text>
<text text-anchor="middle" x="586" y="-310" font-family="Helvetica,sans-Serif" font-size="10.00">::Lua::Lua51StringArgument</text>
</a>
</g>
</g>
<!-- Node12&#45;&gt;Node13 -->
<g id="edge12" class="edge"><title>Node12&#45;&gt;Node13</title>
<path fill="none" stroke="midnightblue" d="M476.012,-342.22C489.673,-339.184 503.947,-336.012 517.494,-333.001"/>
<polygon fill="midnightblue" stroke="midnightblue" points="475.194,-338.816 466.191,-344.402 476.712,-345.649 475.194,-338.816"/>
</g>
<!-- Node15 -->
<g id="node15" class="node"><title>Node15</title>
<g id="a_node15"><a xlink:href="classMezzanine_1_1Scripting_1_1Lua_1_1Lua51WholeArgument.html" target="_top" xlink:title="No special care is required for Whole number Lua Arguments, so a simple typedef is used...">
<polygon fill="white" stroke="black" points="516,-197 516,-227 656,-227 656,-197 516,-197"/>
<text text-anchor="start" x="524" y="-215" font-family="Helvetica,sans-Serif" font-size="10.00">Mezzanine::Scripting</text>
<text text-anchor="middle" x="586" y="-204" font-family="Helvetica,sans-Serif" font-size="10.00">::Lua::Lua51WholeArgument</text>
</a>
</g>
</g>
<!-- Node14&#45;&gt;Node15 -->
<g id="edge14" class="edge"><title>Node14&#45;&gt;Node15</title>
<path fill="none" stroke="midnightblue" d="M466.15,-273.36C470.178,-271.586 474.158,-269.79 478,-268 505.557,-255.16 536.224,-238.899 557.638,-227.213"/>
<polygon fill="midnightblue" stroke="midnightblue" points="464.494,-270.263 456.706,-277.446 467.274,-276.687 464.494,-270.263"/>
</g>
<!-- Node16 -->
<g id="node16" class="node"><title>Node16</title>
<g id="a_node16"><a xlink:href="classMezzanine_1_1Scripting_1_1Lua_1_1LuaArgument.html" target="_top" xlink:title="The ScriptArgumentGeneric&lt;T&gt; needs just a bit of Lua specific functionality so we add push/pop for th...">
<polygon fill="white" stroke="black" points="350,-180 350,-210 458,-210 458,-180 350,-180"/>
<text text-anchor="start" x="358" y="-198" font-family="Helvetica,sans-Serif" font-size="10.00">Mezzanine::Scripting</text>
<text text-anchor="middle" x="404" y="-187" font-family="Helvetica,sans-Serif" font-size="10.00">::Lua::LuaArgument</text>
</a>
</g>
</g>
<!-- Node16&#45;&gt;Node5 -->
<g id="edge15" class="edge"><title>Node16&#45;&gt;Node5</title>
<path fill="none" stroke="midnightblue" d="M466.789,-177.15C488.369,-170.916 512.357,-163.986 533.054,-158.007"/>
<polygon fill="midnightblue" stroke="midnightblue" points="465.699,-173.821 457.063,-179.959 467.642,-180.546 465.699,-173.821"/>
</g>
<!-- Node16&#45;&gt;Node7 -->
<g id="edge16" class="edge"><title>Node16&#45;&gt;Node7</title>
<path fill="none" stroke="midnightblue" d="M467.192,-176.916C470.992,-174.843 474.635,-172.546 478,-170 500.418,-153.043 492.399,-135.987 514,-118 522.104,-111.252 531.861,-105.645 541.512,-101.111"/>
<polygon fill="midnightblue" stroke="midnightblue" points="465.548,-173.823 458.094,-181.352 468.616,-180.115 465.548,-173.823"/>
</g>
<!-- Node16&#45;&gt;Node9 -->
<g id="edge17" class="edge"><title>Node16&#45;&gt;Node9</title>
<path fill="none" stroke="midnightblue" d="M467.215,-178.535C471.134,-176.075 474.787,-173.249 478,-170 513.877,-133.728 480.517,-99.4935 514,-61 521.215,-52.7048 530.855,-46.1762 540.699,-41.12"/>
<polygon fill="midnightblue" stroke="midnightblue" points="465.42,-175.527 458.281,-183.355 468.744,-181.687 465.42,-175.527"/>
</g>
<!-- Node16&#45;&gt;Node11 -->
<g id="edge18" class="edge"><title>Node16&#45;&gt;Node11</title>
<path fill="none" stroke="midnightblue" d="M467.127,-210.341C471.096,-212.809 474.782,-215.674 478,-219 517.609,-259.934 482.733,-294.389 514,-342 525.789,-359.951 544.689,-375.275 560.026,-385.803"/>
<polygon fill="midnightblue" stroke="midnightblue" points="468.538,-207.128 458.061,-205.547 465.265,-213.316 468.538,-207.128"/>
</g>
<!-- Node16&#45;&gt;Node13 -->
<g id="edge19" class="edge"><title>Node16&#45;&gt;Node13</title>
<path fill="none" stroke="midnightblue" d="M467.339,-213.423C471.022,-215.144 474.605,-217.001 478,-219 517.038,-241.984 553.797,-281.228 572.378,-302.756"/>
<polygon fill="midnightblue" stroke="midnightblue" points="468.599,-210.155 458.03,-209.42 465.834,-216.586 468.599,-210.155"/>
</g>
<!-- Node16&#45;&gt;Node15 -->
<g id="edge20" class="edge"><title>Node16&#45;&gt;Node15</title>
<path fill="none" stroke="midnightblue" d="M468.028,-200.953C483.531,-202.417 500.21,-203.992 515.978,-205.481"/>
<polygon fill="midnightblue" stroke="midnightblue" points="468.317,-197.464 458.032,-200.009 467.659,-204.433 468.317,-197.464"/>
</g>
</g>
</svg>
