<?xml version="1.0" encoding="UTF-8" standalone="no"?>
<!DOCTYPE svg PUBLIC "-//W3C//DTD SVG 1.1//EN"
 "http://www.w3.org/Graphics/SVG/1.1/DTD/svg11.dtd">
<!-- Generated by graphviz version 2.36.0 (20140111.2315)
 -->
<!-- Title: Graphical Class Hierarchy Pages: 1 -->
<svg width="344pt" height="104pt"
 viewBox="0.00 0.00 344.00 104.00" xmlns="http://www.w3.org/2000/svg" xmlns:xlink="http://www.w3.org/1999/xlink">
<g id="graph0" class="graph" transform="scale(1 1) rotate(0) translate(4 100)">
<title>Graphical Class Hierarchy</title>
<polygon fill="white" stroke="none" points="-4,4 -4,-100 340,-100 340,4 -4,4"/>
<!-- Node1 -->
<g id="node1" class="node"><title>Node1</title>
<g id="a_node1"><a xlink:href="classMezzanine_1_1UI_1_1MarkupTag.html" target="_top" xlink:title="This is a base class for tags that implement the functionality of a markup language. ">
<polygon fill="white" stroke="black" points="0.5,-38.5 0.5,-57.5 135.5,-57.5 135.5,-38.5 0.5,-38.5"/>
<text text-anchor="middle" x="68" y="-45.5" font-family="Helvetica,sans-Serif" font-size="10.00">Mezzanine::UI::MarkupTag</text>
</a>
</g>
</g>
<!-- Node2 -->
<g id="node2" class="node"><title>Node2</title>
<g id="a_node2"><a xlink:href="classMezzanine_1_1UI_1_1DefaultColourTag.html" target="_top" xlink:title="This class implements a character colour changing tag. ">
<polygon fill="white" stroke="black" points="172.5,-76.5 172.5,-95.5 335.5,-95.5 335.5,-76.5 172.5,-76.5"/>
<text text-anchor="middle" x="254" y="-83.5" font-family="Helvetica,sans-Serif" font-size="10.00">Mezzanine::UI::DefaultColourTag</text>
</a>
</g>
</g>
<!-- Node1&#45;&gt;Node2 -->
<g id="edge1" class="edge"><title>Node1&#45;&gt;Node2</title>
<path fill="none" stroke="midnightblue" d="M125.561,-59.681C151.654,-65.0699 182.238,-71.3861 206.903,-76.4799"/>
<polygon fill="midnightblue" stroke="midnightblue" points="125.932,-56.184 115.431,-57.589 124.516,-63.0393 125.932,-56.184"/>
</g>
<!-- Node3 -->
<g id="node3" class="node"><title>Node3</title>
<g id="a_node3"><a xlink:href="classMezzanine_1_1UI_1_1DefaultFontTag.html" target="_top" xlink:title="This class implements a character font changing tag. ">
<polygon fill="white" stroke="black" points="177,-38.5 177,-57.5 331,-57.5 331,-38.5 177,-38.5"/>
<text text-anchor="middle" x="254" y="-45.5" font-family="Helvetica,sans-Serif" font-size="10.00">Mezzanine::UI::DefaultFontTag</text>
</a>
</g>
</g>
<!-- Node1&#45;&gt;Node3 -->
<g id="edge2" class="edge"><title>Node1&#45;&gt;Node3</title>
<path fill="none" stroke="midnightblue" d="M145.841,-48C156.1,-48 166.618,-48 176.864,-48"/>
<polygon fill="midnightblue" stroke="midnightblue" points="145.688,-44.5001 135.688,-48 145.688,-51.5001 145.688,-44.5001"/>
</g>
<!-- Node4 -->
<g id="node4" class="node"><title>Node4</title>
<g id="a_node4"><a xlink:href="classMezzanine_1_1UI_1_1DefaultSpriteTag.html" target="_top" xlink:title="This class implements a sprite inserting tag. ">
<polygon fill="white" stroke="black" points="174,-0.5 174,-19.5 334,-19.5 334,-0.5 174,-0.5"/>
<text text-anchor="middle" x="254" y="-7.5" font-family="Helvetica,sans-Serif" font-size="10.00">Mezzanine::UI::DefaultSpriteTag</text>
</a>
</g>
</g>
<!-- Node1&#45;&gt;Node4 -->
<g id="edge3" class="edge"><title>Node1&#45;&gt;Node4</title>
<path fill="none" stroke="midnightblue" d="M125.561,-36.319C151.654,-30.9301 182.238,-24.6139 206.903,-19.5201"/>
<polygon fill="midnightblue" stroke="midnightblue" points="124.516,-32.9607 115.431,-38.411 125.932,-39.816 124.516,-32.9607"/>
</g>
</g>
</svg>
