<?xml version="1.0" encoding="UTF-8" standalone="no"?>
<!DOCTYPE svg PUBLIC "-//W3C//DTD SVG 1.1//EN"
 "http://www.w3.org/Graphics/SVG/1.1/DTD/svg11.dtd">
<!-- Generated by graphviz version 2.26.3 (20100126.1600)
 -->
<!-- Title: Graphical Class Hierarchy Pages: 1 -->
<svg width="678pt" height="42pt"
 viewBox="0.00 0.00 678.00 42.00" xmlns="http://www.w3.org/2000/svg" xmlns:xlink="http://www.w3.org/1999/xlink">
<g id="graph1" class="graph" transform="scale(1 1) rotate(0) translate(4 38)">
<title>Graphical Class Hierarchy</title>
<polygon fill="white" stroke="white" points="-4,5 -4,-38 675,-38 675,5 -4,5"/>
<!-- Node1 -->
<g id="node1" class="node"><title>Node1</title>
<a xlink:title="STL class.">
<polygon fill="white" stroke="#bfbfbf" points="0,-6.5 0,-27.5 80,-27.5 80,-6.5 0,-6.5"/>
<text text-anchor="middle" x="40" y="-14.5" font-family="FreeSans" font-size="10.00">std::ios_base</text>
</a>
</g>
<!-- Node2 -->
<g id="node3" class="node"><title>Node2</title>
<a xlink:title="STL class.">
<polygon fill="white" stroke="#bfbfbf" points="116,-6.5 116,-27.5 242,-27.5 242,-6.5 116,-6.5"/>
<text text-anchor="middle" x="179" y="-14.5" font-family="FreeSans" font-size="10.00">std::basic_ios&lt; Char &gt;</text>
</a>
</g>
<!-- Node1&#45;&gt;Node2 -->
<g id="edge2" class="edge"><title>Node1&#45;&gt;Node2</title>
<path fill="none" stroke="midnightblue" d="M90.4169,-17C98.6745,-17 107.322,-17 115.841,-17"/>
<polygon fill="midnightblue" stroke="midnightblue" points="90.2046,-13.5001 80.2046,-17 90.2045,-20.5001 90.2046,-13.5001"/>
</g>
<!-- Node3 -->
<g id="node5" class="node"><title>Node3</title>
<a xlink:title="STL class.">
<polygon fill="white" stroke="#bfbfbf" points="278,-0 278,-34 382,-34 382,-0 278,-0"/>
<text text-anchor="start" x="286" y="-21" font-family="FreeSans" font-size="10.00">std::basic_istream</text>
<text text-anchor="middle" x="330" y="-8" font-family="FreeSans" font-size="10.00">&lt; Char &gt;</text>
</a>
</g>
<!-- Node2&#45;&gt;Node3 -->
<g id="edge4" class="edge"><title>Node2&#45;&gt;Node3</title>
<path fill="none" stroke="midnightblue" d="M252.19,-17C260.769,-17 269.389,-17 277.605,-17"/>
<polygon fill="midnightblue" stroke="midnightblue" points="252.163,-13.5001 242.163,-17 252.163,-20.5001 252.163,-13.5001"/>
</g>
<!-- Node4 -->
<g id="node7" class="node"><title>Node4</title>
<a xlink:title="STL class.">
<polygon fill="white" stroke="#bfbfbf" points="418,-6.5 418,-27.5 492,-27.5 492,-6.5 418,-6.5"/>
<text text-anchor="middle" x="455" y="-14.5" font-family="FreeSans" font-size="10.00">std::istream</text>
</a>
</g>
<!-- Node3&#45;&gt;Node4 -->
<g id="edge6" class="edge"><title>Node3&#45;&gt;Node4</title>
<path fill="none" stroke="midnightblue" d="M392.415,-17C401.078,-17 409.743,-17 417.744,-17"/>
<polygon fill="midnightblue" stroke="midnightblue" points="392.287,-13.5001 382.287,-17 392.287,-20.5001 392.287,-13.5001"/>
</g>
<!-- Node5 -->
<g id="node9" class="node"><title>Node5</title>
<a xlink:href="classMezzanine_1_1ResourceInputStream.xhtml" target="_top" xlink:title="A stream from a file, can read from zip files as well.">
<polygon fill="white" stroke="black" points="528.5,-0 528.5,-34 669.5,-34 669.5,-0 528.5,-0"/>
<text text-anchor="start" x="536.5" y="-21" font-family="FreeSans" font-size="10.00">Mezzanine::ResourceInput</text>
<text text-anchor="middle" x="599" y="-8" font-family="FreeSans" font-size="10.00">Stream</text>
</a>
</g>
<!-- Node4&#45;&gt;Node5 -->
<g id="edge8" class="edge"><title>Node4&#45;&gt;Node5</title>
<path fill="none" stroke="midnightblue" d="M502.1,-17C510.555,-17 519.533,-17 528.48,-17"/>
<polygon fill="midnightblue" stroke="midnightblue" points="502.084,-13.5001 492.084,-17 502.084,-20.5001 502.084,-13.5001"/>
</g>
</g>
</svg>
