<?xml version="1.0" encoding="UTF-8" standalone="no"?>
<!DOCTYPE svg PUBLIC "-//W3C//DTD SVG 1.1//EN"
 "http://www.w3.org/Graphics/SVG/1.1/DTD/svg11.dtd">
<!-- Generated by graphviz version 2.36.0 (20140111.2315)
 -->
<!-- Title: Graphical Class Hierarchy Pages: 1 -->
<svg width="714pt" height="501pt"
 viewBox="0.00 0.00 714.00 501.00" xmlns="http://www.w3.org/2000/svg" xmlns:xlink="http://www.w3.org/1999/xlink">
<g id="graph0" class="graph" transform="scale(1 1) rotate(0) translate(4 497)">
<title>Graphical Class Hierarchy</title>
<polygon fill="white" stroke="none" points="-4,4 -4,-497 710,-497 710,4 -4,4"/>
<!-- Node1 -->
<g id="node1" class="node"><title>Node1</title>
<g id="a_node1"><a xlink:href="classMezzanine_1_1ManagerBase.html" target="_top" xlink:title="This is the base class from which all the Entresol and World Managers inherit. ">
<polygon fill="white" stroke="black" points="4,-245.5 4,-264.5 134,-264.5 134,-245.5 4,-245.5"/>
<text text-anchor="middle" x="69" y="-252.5" font-family="Helvetica,sans-Serif" font-size="10.00">Mezzanine::ManagerBase</text>
</a>
</g>
</g>
<!-- Node2 -->
<g id="node2" class="node"><title>Node2</title>
<g id="a_node2"><a xlink:href="classMezzanine_1_1Audio_1_1AudioManager.html" target="_top" xlink:title="This is the base manager class for the Audio subsystem and it&#39;s operations. ">
<polygon fill="white" stroke="black" points="174.5,-418.5 174.5,-437.5 337.5,-437.5 337.5,-418.5 174.5,-418.5"/>
<text text-anchor="middle" x="256" y="-425.5" font-family="Helvetica,sans-Serif" font-size="10.00">Mezzanine::Audio::AudioManager</text>
</a>
</g>
</g>
<!-- Node1&#45;&gt;Node2 -->
<g id="edge1" class="edge"><title>Node1&#45;&gt;Node2</title>
<path fill="none" stroke="midnightblue" d="M97.2644,-269.744C111.112,-278.422 127.238,-290.533 138,-305 166.444,-343.236 139.028,-373.628 174,-406 179.668,-411.246 186.46,-415.263 193.67,-418.335"/>
<polygon fill="midnightblue" stroke="midnightblue" points="98.9519,-266.675 88.573,-264.547 95.3595,-272.683 98.9519,-266.675"/>
</g>
<!-- Node3 -->
<g id="node3" class="node"><title>Node3</title>
<g id="a_node3"><a xlink:href="classMezzanine_1_1EventManager.html" target="_top" xlink:title="This is a container for Events and facilitates the transfer of data. ">
<polygon fill="white" stroke="black" points="189.5,-328.5 189.5,-347.5 322.5,-347.5 322.5,-328.5 189.5,-328.5"/>
<text text-anchor="middle" x="256" y="-335.5" font-family="Helvetica,sans-Serif" font-size="10.00">Mezzanine::EventManager</text>
</a>
</g>
</g>
<!-- Node1&#45;&gt;Node3 -->
<g id="edge2" class="edge"><title>Node1&#45;&gt;Node3</title>
<path fill="none" stroke="midnightblue" d="M90.9754,-270.334C111.291,-284.533 143.428,-305.313 174,-318 184.168,-322.219 195.437,-325.696 206.258,-328.5"/>
<polygon fill="midnightblue" stroke="midnightblue" points="92.9557,-267.447 82.7762,-264.51 88.902,-273.154 92.9557,-267.447"/>
</g>
<!-- Node4 -->
<g id="node4" class="node"><title>Node4</title>
<g id="a_node4"><a xlink:href="classMezzanine_1_1Graphics_1_1GraphicsManager.html" target="_top" xlink:title="This is intended to store basic graphics setting for the user. ">
<polygon fill="white" stroke="black" points="201.5,-367 201.5,-397 310.5,-397 310.5,-367 201.5,-367"/>
<text text-anchor="start" x="209.5" y="-385" font-family="Helvetica,sans-Serif" font-size="10.00">Mezzanine::Graphics</text>
<text text-anchor="middle" x="256" y="-374" font-family="Helvetica,sans-Serif" font-size="10.00">::GraphicsManager</text>
</a>
</g>
</g>
<!-- Node1&#45;&gt;Node4 -->
<g id="edge3" class="edge"><title>Node1&#45;&gt;Node4</title>
<path fill="none" stroke="midnightblue" d="M94.4701,-270.095C108.153,-279.216 125.014,-291.639 138,-305 157.591,-325.157 151.325,-340.387 174,-357 182.073,-362.915 191.572,-367.451 201.17,-370.924"/>
<polygon fill="midnightblue" stroke="midnightblue" points="96.3028,-267.112 86.0096,-264.602 92.4906,-272.983 96.3028,-267.112"/>
</g>
<!-- Node5 -->
<g id="node5" class="node"><title>Node5</title>
<g id="a_node5"><a xlink:href="classMezzanine_1_1Graphics_1_1MeshManager.html" target="_top" xlink:title="This manager handles the storage, generation, and query of of Graphics Meshes. ">
<polygon fill="white" stroke="black" points="201.5,-191 201.5,-221 310.5,-221 310.5,-191 201.5,-191"/>
<text text-anchor="start" x="209.5" y="-209" font-family="Helvetica,sans-Serif" font-size="10.00">Mezzanine::Graphics</text>
<text text-anchor="middle" x="256" y="-198" font-family="Helvetica,sans-Serif" font-size="10.00">::MeshManager</text>
</a>
</g>
</g>
<!-- Node1&#45;&gt;Node5 -->
<g id="edge4" class="edge"><title>Node1&#45;&gt;Node5</title>
<path fill="none" stroke="midnightblue" d="M116.05,-242.803C141.954,-235.942 174.422,-227.342 201.457,-220.182"/>
<polygon fill="midnightblue" stroke="midnightblue" points="114.88,-239.492 106.109,-245.436 116.672,-246.259 114.88,-239.492"/>
</g>
<!-- Node6 -->
<g id="node6" class="node"><title>Node6</title>
<g id="a_node6"><a xlink:href="classMezzanine_1_1Input_1_1InputManager.html" target="_top" xlink:title="This is the manager responsible for the handling of input devices and events. ">
<polygon fill="white" stroke="black" points="177.5,-152.5 177.5,-171.5 334.5,-171.5 334.5,-152.5 177.5,-152.5"/>
<text text-anchor="middle" x="256" y="-159.5" font-family="Helvetica,sans-Serif" font-size="10.00">Mezzanine::Input::InputManager</text>
</a>
</g>
</g>
<!-- Node1&#45;&gt;Node6 -->
<g id="edge5" class="edge"><title>Node1&#45;&gt;Node6</title>
<path fill="none" stroke="midnightblue" d="M127.519,-241.359C131.212,-239.502 134.748,-237.393 138,-235 161.232,-217.904 150.302,-197.443 174,-181 179.578,-177.13 185.837,-174.04 192.341,-171.575"/>
<polygon fill="midnightblue" stroke="midnightblue" points="125.852,-238.268 118.087,-245.477 128.652,-244.683 125.852,-238.268"/>
</g>
<!-- Node7 -->
<g id="node7" class="node"><title>Node7</title>
<g id="a_node7"><a xlink:href="classMezzanine_1_1Physics_1_1CollisionShapeManager.html" target="_top" xlink:title="This manager is for the storage of all shapes and creation of mesh shapes. ">
<polygon fill="white" stroke="black" points="193.5,-100 193.5,-130 318.5,-130 318.5,-100 193.5,-100"/>
<text text-anchor="start" x="201.5" y="-118" font-family="Helvetica,sans-Serif" font-size="10.00">Mezzanine::Physics</text>
<text text-anchor="middle" x="256" y="-107" font-family="Helvetica,sans-Serif" font-size="10.00">::CollisionShapeManager</text>
</a>
</g>
</g>
<!-- Node1&#45;&gt;Node7 -->
<g id="edge6" class="edge"><title>Node1&#45;&gt;Node7</title>
<path fill="none" stroke="midnightblue" d="M130.583,-240.65C133.222,-238.97 135.715,-237.094 138,-235 170.367,-205.331 142.335,-173.418 174,-143 179.58,-137.64 186.235,-133.302 193.298,-129.793"/>
<polygon fill="midnightblue" stroke="midnightblue" points="128.907,-237.577 121.737,-245.377 132.206,-243.751 128.907,-237.577"/>
</g>
<!-- Node8 -->
<g id="node8" class="node"><title>Node8</title>
<g id="a_node8"><a xlink:href="classMezzanine_1_1Resource_1_1ResourceManager.html" target="_top" xlink:title="This is the manager responsible for the loading and unloading of files. ">
<polygon fill="white" stroke="black" points="200,-49 200,-79 312,-79 312,-49 200,-49"/>
<text text-anchor="start" x="208" y="-67" font-family="Helvetica,sans-Serif" font-size="10.00">Mezzanine::Resource</text>
<text text-anchor="middle" x="256" y="-56" font-family="Helvetica,sans-Serif" font-size="10.00">::ResourceManager</text>
</a>
</g>
</g>
<!-- Node1&#45;&gt;Node8 -->
<g id="edge7" class="edge"><title>Node1&#45;&gt;Node8</title>
<path fill="none" stroke="midnightblue" d="M132.053,-240.195C134.179,-238.631 136.175,-236.905 138,-235 183.94,-187.056 128.652,-138.504 174,-90 180.96,-82.5559 190.052,-77.2358 199.622,-73.4355"/>
<polygon fill="midnightblue" stroke="midnightblue" points="130.065,-237.306 123.297,-245.457 133.671,-243.305 130.065,-237.306"/>
</g>
<!-- Node9 -->
<g id="node9" class="node"><title>Node9</title>
<g id="a_node9"><a xlink:href="classMezzanine_1_1Scripting_1_1iScriptingManager.html" target="_top" xlink:title="What a scripting manager should look like. ">
<polygon fill="white" stroke="black" points="202,-279 202,-309 310,-309 310,-279 202,-279"/>
<text text-anchor="start" x="210" y="-297" font-family="Helvetica,sans-Serif" font-size="10.00">Mezzanine::Scripting</text>
<text text-anchor="middle" x="256" y="-286" font-family="Helvetica,sans-Serif" font-size="10.00">::iScriptingManager</text>
</a>
</g>
</g>
<!-- Node1&#45;&gt;Node9 -->
<g id="edge8" class="edge"><title>Node1&#45;&gt;Node9</title>
<path fill="none" stroke="midnightblue" d="M125.341,-266.667C149.51,-271.761 177.737,-277.712 201.673,-282.758"/>
<polygon fill="midnightblue" stroke="midnightblue" points="125.763,-263.179 115.256,-264.54 124.319,-270.028 125.763,-263.179"/>
</g>
<!-- Node12 -->
<g id="node12" class="node"><title>Node12</title>
<g id="a_node12"><a xlink:href="classMezzanine_1_1UI_1_1UIManager.html" target="_top" xlink:title="This class is responsible for any and all user interactions with the User interface/HUD. ">
<polygon fill="white" stroke="black" points="189,-7.5 189,-26.5 323,-26.5 323,-7.5 189,-7.5"/>
<text text-anchor="middle" x="256" y="-14.5" font-family="Helvetica,sans-Serif" font-size="10.00">Mezzanine::UI::UIManager</text>
</a>
</g>
</g>
<!-- Node1&#45;&gt;Node12 -->
<g id="edge11" class="edge"><title>Node1&#45;&gt;Node12</title>
<path fill="none" stroke="midnightblue" d="M132.882,-239.803C134.711,-238.343 136.428,-236.746 138,-235 197.274,-169.19 114.043,-104.188 174,-39 178.834,-33.7446 184.784,-29.695 191.248,-26.5822"/>
<polygon fill="midnightblue" stroke="midnightblue" points="130.744,-237.016 124.226,-245.368 134.53,-242.904 130.744,-237.016"/>
</g>
<!-- Node13 -->
<g id="node13" class="node"><title>Node13</title>
<g id="a_node13"><a xlink:href="classMezzanine_1_1WorldManager.html" target="_top" xlink:title="This is the base class for all managers that belong to a single world instance. ">
<polygon fill="white" stroke="black" points="189.5,-240.5 189.5,-259.5 322.5,-259.5 322.5,-240.5 189.5,-240.5"/>
<text text-anchor="middle" x="256" y="-247.5" font-family="Helvetica,sans-Serif" font-size="10.00">Mezzanine::WorldManager</text>
</a>
</g>
</g>
<!-- Node1&#45;&gt;Node13 -->
<g id="edge12" class="edge"><title>Node1&#45;&gt;Node13</title>
<path fill="none" stroke="midnightblue" d="M144.367,-252.99C159.254,-252.588 174.794,-252.168 189.36,-251.774"/>
<polygon fill="midnightblue" stroke="midnightblue" points="144.087,-249.496 134.185,-253.265 144.276,-256.494 144.087,-249.496"/>
</g>
<!-- Node10 -->
<g id="node10" class="node"><title>Node10</title>
<g id="a_node10"><a xlink:href="classMezzanine_1_1Scripting_1_1iScriptCompilationManager.html" target="_top" xlink:title="What a scripting manager should look like. ">
<polygon fill="white" stroke="black" points="382,-415 382,-445 522,-445 522,-415 382,-415"/>
<text text-anchor="start" x="390" y="-433" font-family="Helvetica,sans-Serif" font-size="10.00">Mezzanine::Scripting</text>
<text text-anchor="middle" x="452" y="-422" font-family="Helvetica,sans-Serif" font-size="10.00">::iScriptCompilationManager</text>
</a>
</g>
</g>
<!-- Node9&#45;&gt;Node10 -->
<g id="edge9" class="edge"><title>Node9&#45;&gt;Node10</title>
<path fill="none" stroke="midnightblue" d="M319.555,-307.002C326.268,-310.168 332.605,-314.105 338,-319 368.687,-346.844 343.517,-376.934 374,-405 378.239,-408.903 383.096,-412.197 388.263,-414.978"/>
<polygon fill="midnightblue" stroke="midnightblue" points="320.799,-303.729 310.22,-303.145 318.126,-310.198 320.799,-303.729"/>
</g>
<!-- Node11 -->
<g id="node11" class="node"><title>Node11</title>
<g id="a_node11"><a xlink:href="classMezzanine_1_1Scripting_1_1Lua_1_1Lua51ScriptingEngine.html" target="_top" xlink:title="The workhorse of the Lua scripting system. All scripts come here to be executed. ">
<polygon fill="white" stroke="black" points="566.5,-415 566.5,-445 705.5,-445 705.5,-415 566.5,-415"/>
<text text-anchor="start" x="574.5" y="-433" font-family="Helvetica,sans-Serif" font-size="10.00">Mezzanine::Scripting</text>
<text text-anchor="middle" x="636" y="-422" font-family="Helvetica,sans-Serif" font-size="10.00">::Lua::Lua51ScriptingEngine</text>
</a>
</g>
</g>
<!-- Node10&#45;&gt;Node11 -->
<g id="edge10" class="edge"><title>Node10&#45;&gt;Node11</title>
<path fill="none" stroke="midnightblue" d="M532.357,-430C543.66,-430 555.206,-430 566.283,-430"/>
<polygon fill="midnightblue" stroke="midnightblue" points="532.066,-426.5 522.066,-430 532.066,-433.5 532.066,-426.5"/>
</g>
<!-- Node14 -->
<g id="node14" class="node"><title>Node14</title>
<g id="a_node14"><a xlink:href="classMezzanine_1_1ActorManager.html" target="_top" xlink:title="A manager responsible for the storage and management of all actors that exist in a world...">
<polygon fill="white" stroke="black" points="386.5,-240.5 386.5,-259.5 517.5,-259.5 517.5,-240.5 386.5,-240.5"/>
<text text-anchor="middle" x="452" y="-247.5" font-family="Helvetica,sans-Serif" font-size="10.00">Mezzanine::ActorManager</text>
</a>
</g>
</g>
<!-- Node13&#45;&gt;Node14 -->
<g id="edge13" class="edge"><title>Node13&#45;&gt;Node14</title>
<path fill="none" stroke="midnightblue" d="M332.948,-250C350.611,-250 369.254,-250 386.376,-250"/>
<polygon fill="midnightblue" stroke="midnightblue" points="332.68,-246.5 322.68,-250 332.68,-253.5 332.68,-246.5"/>
</g>
<!-- Node15 -->
<g id="node15" class="node"><title>Node15</title>
<g id="a_node15"><a xlink:href="classMezzanine_1_1AreaEffectManager.html" target="_top" xlink:title="A manager responsible for the storage and management of all areaeffects in use. ">
<polygon fill="white" stroke="black" points="375,-202.5 375,-221.5 529,-221.5 529,-202.5 375,-202.5"/>
<text text-anchor="middle" x="452" y="-209.5" font-family="Helvetica,sans-Serif" font-size="10.00">Mezzanine::AreaEffectManager</text>
</a>
</g>
</g>
<!-- Node13&#45;&gt;Node15 -->
<g id="edge14" class="edge"><title>Node13&#45;&gt;Node15</title>
<path fill="none" stroke="midnightblue" d="M315.905,-238.462C343.575,-233.042 376.162,-226.659 402.398,-221.52"/>
<polygon fill="midnightblue" stroke="midnightblue" points="315.095,-235.054 305.954,-240.411 316.441,-241.923 315.095,-235.054"/>
</g>
<!-- Node16 -->
<g id="node16" class="node"><title>Node16</title>
<g id="a_node16"><a xlink:href="classMezzanine_1_1Audio_1_1SoundScapeManager.html" target="_top" xlink:title="This is the base manager class for audio being played in a 3D environment. ">
<polygon fill="white" stroke="black" points="374,-153 374,-183 530,-183 530,-153 374,-153"/>
<text text-anchor="start" x="382" y="-171" font-family="Helvetica,sans-Serif" font-size="10.00">Mezzanine::Audio::SoundScape</text>
<text text-anchor="middle" x="452" y="-160" font-family="Helvetica,sans-Serif" font-size="10.00">Manager</text>
</a>
</g>
</g>
<!-- Node13&#45;&gt;Node16 -->
<g id="edge15" class="edge"><title>Node13&#45;&gt;Node16</title>
<path fill="none" stroke="midnightblue" d="M322.997,-237.066C328.218,-235.041 333.288,-232.702 338,-230 357.904,-218.588 354.518,-205.12 374,-193 380.086,-189.214 386.804,-185.944 393.659,-183.135"/>
<polygon fill="midnightblue" stroke="midnightblue" points="321.77,-233.787 313.479,-240.383 324.073,-240.397 321.77,-233.787"/>
</g>
<!-- Node17 -->
<g id="node17" class="node"><title>Node17</title>
<g id="a_node17"><a xlink:href="classMezzanine_1_1DebrisManager.html" target="_top" xlink:title="A manager responsible for the storage and management of all Debris that exist in a world...">
<polygon fill="white" stroke="black" points="384,-114.5 384,-133.5 520,-133.5 520,-114.5 384,-114.5"/>
<text text-anchor="middle" x="452" y="-121.5" font-family="Helvetica,sans-Serif" font-size="10.00">Mezzanine::DebrisManager</text>
</a>
</g>
</g>
<!-- Node13&#45;&gt;Node17 -->
<g id="edge16" class="edge"><title>Node13&#45;&gt;Node17</title>
<path fill="none" stroke="midnightblue" d="M329.879,-235.854C332.748,-234.116 335.474,-232.172 338,-230 369.727,-202.715 342.271,-170.283 374,-143 378.489,-139.14 383.643,-136.04 389.111,-133.555"/>
<polygon fill="midnightblue" stroke="midnightblue" points="328.186,-232.788 320.896,-240.476 331.389,-239.013 328.186,-232.788"/>
</g>
<!-- Node18 -->
<g id="node18" class="node"><title>Node18</title>
<g id="a_node18"><a xlink:href="classMezzanine_1_1Graphics_1_1CameraManager.html" target="_top" xlink:title="This is the manager class for all camera functions. ">
<polygon fill="white" stroke="black" points="397.5,-65 397.5,-95 506.5,-95 506.5,-65 397.5,-65"/>
<text text-anchor="start" x="405.5" y="-83" font-family="Helvetica,sans-Serif" font-size="10.00">Mezzanine::Graphics</text>
<text text-anchor="middle" x="452" y="-72" font-family="Helvetica,sans-Serif" font-size="10.00">::CameraManager</text>
</a>
</g>
</g>
<!-- Node13&#45;&gt;Node18 -->
<g id="edge17" class="edge"><title>Node13&#45;&gt;Node18</title>
<path fill="none" stroke="midnightblue" d="M331.696,-235.174C333.924,-233.609 336.037,-231.89 338,-230 379.657,-189.911 333.811,-146.56 374,-105 380.448,-98.3316 388.69,-93.44 397.371,-89.8521"/>
<polygon fill="midnightblue" stroke="midnightblue" points="329.474,-232.418 322.591,-240.473 332.995,-238.468 329.474,-232.418"/>
</g>
<!-- Node19 -->
<g id="node19" class="node"><title>Node19</title>
<g id="a_node19"><a xlink:href="classMezzanine_1_1Graphics_1_1SceneManager.html" target="_top" xlink:title="This class contains utilities and functions to allow the manipulation of the Graphical scene...">
<polygon fill="white" stroke="black" points="397.5,-366 397.5,-396 506.5,-396 506.5,-366 397.5,-366"/>
<text text-anchor="start" x="405.5" y="-384" font-family="Helvetica,sans-Serif" font-size="10.00">Mezzanine::Graphics</text>
<text text-anchor="middle" x="452" y="-373" font-family="Helvetica,sans-Serif" font-size="10.00">::SceneManager</text>
</a>
</g>
</g>
<!-- Node13&#45;&gt;Node19 -->
<g id="edge18" class="edge"><title>Node13&#45;&gt;Node19</title>
<path fill="none" stroke="midnightblue" d="M331.741,-264.38C333.931,-265.786 336.026,-267.322 338,-269 369.886,-296.1 343.273,-327.593 374,-356 380.605,-362.106 388.72,-366.722 397.177,-370.211"/>
<polygon fill="midnightblue" stroke="midnightblue" points="333.343,-261.268 322.884,-259.579 330.007,-267.422 333.343,-261.268"/>
</g>
<!-- Node20 -->
<g id="node20" class="node"><title>Node20</title>
<g id="a_node20"><a xlink:href="classMezzanine_1_1Physics_1_1PhysicsManager.html" target="_top" xlink:title="This is simply a place for storing all the Physics Related functions. ">
<polygon fill="white" stroke="black" points="399.5,-317 399.5,-347 504.5,-347 504.5,-317 399.5,-317"/>
<text text-anchor="start" x="407.5" y="-335" font-family="Helvetica,sans-Serif" font-size="10.00">Mezzanine::Physics</text>
<text text-anchor="middle" x="452" y="-324" font-family="Helvetica,sans-Serif" font-size="10.00">::PhysicsManager</text>
</a>
</g>
</g>
<!-- Node13&#45;&gt;Node20 -->
<g id="edge19" class="edge"><title>Node13&#45;&gt;Node20</title>
<path fill="none" stroke="midnightblue" d="M325.636,-263.026C329.929,-264.773 334.09,-266.754 338,-269 358.173,-280.588 354.328,-294.58 374,-307 381.725,-311.877 390.491,-315.89 399.272,-319.162"/>
<polygon fill="midnightblue" stroke="midnightblue" points="326.669,-259.678 316.075,-259.564 324.286,-266.26 326.669,-259.678"/>
</g>
<!-- Node21 -->
<g id="node21" class="node"><title>Node21</title>
<g id="a_node21"><a xlink:href="classMezzanine_1_1TerrainManager.html" target="_top" xlink:title="This is manager for terrains and their functions. ">
<polygon fill="white" stroke="black" points="383.5,-278.5 383.5,-297.5 520.5,-297.5 520.5,-278.5 383.5,-278.5"/>
<text text-anchor="middle" x="452" y="-285.5" font-family="Helvetica,sans-Serif" font-size="10.00">Mezzanine::TerrainManager</text>
</a>
</g>
</g>
<!-- Node13&#45;&gt;Node21 -->
<g id="edge20" class="edge"><title>Node13&#45;&gt;Node21</title>
<path fill="none" stroke="midnightblue" d="M315.905,-261.538C343.575,-266.958 376.162,-273.341 402.398,-278.48"/>
<polygon fill="midnightblue" stroke="midnightblue" points="316.441,-258.077 305.954,-259.589 315.095,-264.946 316.441,-258.077"/>
</g>
<!-- Node22 -->
<g id="node22" class="node"><title>Node22</title>
<g id="a_node22"><a xlink:href="classMezzanine_1_1ObjectSettingsHandler.html" target="_top" xlink:title="An abstract class for other classes that manage groups of settings. ">
<polygon fill="white" stroke="black" points="2,-413 2,-443 136,-443 136,-413 2,-413"/>
<text text-anchor="start" x="10" y="-431" font-family="Helvetica,sans-Serif" font-size="10.00">Mezzanine::ObjectSettings</text>
<text text-anchor="middle" x="69" y="-420" font-family="Helvetica,sans-Serif" font-size="10.00">Handler</text>
</a>
</g>
</g>
<!-- Node22&#45;&gt;Node2 -->
<g id="edge21" class="edge"><title>Node22&#45;&gt;Node2</title>
<path fill="none" stroke="midnightblue" d="M146.058,-428C155.423,-428 165.02,-428 174.449,-428"/>
<polygon fill="midnightblue" stroke="midnightblue" points="146.006,-424.5 136.006,-428 146.006,-431.5 146.006,-424.5"/>
</g>
<!-- Node22&#45;&gt;Node4 -->
<g id="edge22" class="edge"><title>Node22&#45;&gt;Node4</title>
<path fill="none" stroke="midnightblue" d="M140.381,-410.5C160.637,-405.463 182.396,-400.053 201.455,-395.314"/>
<polygon fill="midnightblue" stroke="midnightblue" points="139.436,-407.128 130.576,-412.938 141.125,-413.921 139.436,-407.128"/>
</g>
<!-- Node23 -->
<g id="node23" class="node"><title>Node23</title>
<g id="a_node23"><a xlink:href="classMezzanine_1_1Singleton.html" target="_top" xlink:title="Mezzanine::Singleton\l\&lt; AudioManager \&gt;">
<polygon fill="white" stroke="black" points="14,-462 14,-492 124,-492 124,-462 14,-462"/>
<text text-anchor="start" x="22" y="-480" font-family="Helvetica,sans-Serif" font-size="10.00">Mezzanine::Singleton</text>
<text text-anchor="middle" x="69" y="-469" font-family="Helvetica,sans-Serif" font-size="10.00">&lt; AudioManager &gt;</text>
</a>
</g>
</g>
<!-- Node23&#45;&gt;Node2 -->
<g id="edge23" class="edge"><title>Node23&#45;&gt;Node2</title>
<path fill="none" stroke="midnightblue" d="M133.9,-460.075C162.4,-452.527 194.917,-443.914 219.076,-437.515"/>
<polygon fill="midnightblue" stroke="midnightblue" points="132.778,-456.752 124.007,-462.695 134.57,-463.518 132.778,-456.752"/>
</g>
<!-- Node24 -->
<g id="node24" class="node"><title>Node24</title>
<g id="a_node24"><a xlink:href="classMezzanine_1_1Singleton.html" target="_top" xlink:title="Mezzanine::Singleton\l\&lt; CollisionShapeManager \&gt;">
<polygon fill="white" stroke="black" points="0.5,-98 0.5,-128 137.5,-128 137.5,-98 0.5,-98"/>
<text text-anchor="start" x="8.5" y="-116" font-family="Helvetica,sans-Serif" font-size="10.00">Mezzanine::Singleton</text>
<text text-anchor="middle" x="69" y="-105" font-family="Helvetica,sans-Serif" font-size="10.00">&lt; CollisionShapeManager &gt;</text>
</a>
</g>
</g>
<!-- Node24&#45;&gt;Node7 -->
<g id="edge24" class="edge"><title>Node24&#45;&gt;Node7</title>
<path fill="none" stroke="midnightblue" d="M147.978,-113.843C163.159,-114.007 178.876,-114.177 193.436,-114.334"/>
<polygon fill="midnightblue" stroke="midnightblue" points="147.612,-110.339 137.575,-113.731 147.536,-117.339 147.612,-110.339"/>
</g>
<!-- Node25 -->
<g id="node25" class="node"><title>Node25</title>
<g id="a_node25"><a xlink:href="classMezzanine_1_1Singleton.html" target="_top" xlink:title="Mezzanine::Singleton\l\&lt; EventManager \&gt;">
<polygon fill="white" stroke="black" points="14,-315 14,-345 124,-345 124,-315 14,-315"/>
<text text-anchor="start" x="22" y="-333" font-family="Helvetica,sans-Serif" font-size="10.00">Mezzanine::Singleton</text>
<text text-anchor="middle" x="69" y="-322" font-family="Helvetica,sans-Serif" font-size="10.00">&lt; EventManager &gt;</text>
</a>
</g>
</g>
<!-- Node25&#45;&gt;Node3 -->
<g id="edge25" class="edge"><title>Node25&#45;&gt;Node3</title>
<path fill="none" stroke="midnightblue" d="M134.06,-332.77C151.97,-333.545 171.456,-334.387 189.45,-335.165"/>
<polygon fill="midnightblue" stroke="midnightblue" points="134.149,-329.271 124.007,-332.335 133.846,-336.264 134.149,-329.271"/>
</g>
<!-- Node26 -->
<g id="node26" class="node"><title>Node26</title>
<g id="a_node26"><a xlink:href="classMezzanine_1_1Singleton.html" target="_top" xlink:title="Mezzanine::Singleton\l\&lt; GraphicsManager \&gt;">
<polygon fill="white" stroke="black" points="13.5,-364 13.5,-394 124.5,-394 124.5,-364 13.5,-364"/>
<text text-anchor="start" x="21.5" y="-382" font-family="Helvetica,sans-Serif" font-size="10.00">Mezzanine::Singleton</text>
<text text-anchor="middle" x="69" y="-371" font-family="Helvetica,sans-Serif" font-size="10.00">&lt; GraphicsManager &gt;</text>
</a>
</g>
</g>
<!-- Node26&#45;&gt;Node4 -->
<g id="edge26" class="edge"><title>Node26&#45;&gt;Node4</title>
<path fill="none" stroke="midnightblue" d="M134.643,-380.048C156.383,-380.401 180.388,-380.79 201.203,-381.128"/>
<polygon fill="midnightblue" stroke="midnightblue" points="134.561,-376.547 124.506,-379.884 134.447,-383.546 134.561,-376.547"/>
</g>
<!-- Node27 -->
<g id="node27" class="node"><title>Node27</title>
<g id="a_node27"><a xlink:href="classMezzanine_1_1Singleton.html" target="_top" xlink:title="Mezzanine::Singleton\l\&lt; InputManager \&gt;">
<polygon fill="white" stroke="black" points="14,-147 14,-177 124,-177 124,-147 14,-147"/>
<text text-anchor="start" x="22" y="-165" font-family="Helvetica,sans-Serif" font-size="10.00">Mezzanine::Singleton</text>
<text text-anchor="middle" x="69" y="-154" font-family="Helvetica,sans-Serif" font-size="10.00">&lt; InputManager &gt;</text>
</a>
</g>
</g>
<!-- Node27&#45;&gt;Node6 -->
<g id="edge27" class="edge"><title>Node27&#45;&gt;Node6</title>
<path fill="none" stroke="midnightblue" d="M134.373,-162C148.194,-162 162.941,-162 177.209,-162"/>
<polygon fill="midnightblue" stroke="midnightblue" points="134.007,-158.5 124.007,-162 134.007,-165.5 134.007,-158.5"/>
</g>
<!-- Node28 -->
<g id="node28" class="node"><title>Node28</title>
<g id="a_node28"><a xlink:href="classMezzanine_1_1Singleton.html" target="_top" xlink:title="Mezzanine::Singleton\l\&lt; MeshManager \&gt;">
<polygon fill="white" stroke="black" points="14,-196 14,-226 124,-226 124,-196 14,-196"/>
<text text-anchor="start" x="22" y="-214" font-family="Helvetica,sans-Serif" font-size="10.00">Mezzanine::Singleton</text>
<text text-anchor="middle" x="69" y="-203" font-family="Helvetica,sans-Serif" font-size="10.00">&lt; MeshManager &gt;</text>
</a>
</g>
</g>
<!-- Node28&#45;&gt;Node5 -->
<g id="edge28" class="edge"><title>Node28&#45;&gt;Node5</title>
<path fill="none" stroke="midnightblue" d="M134.201,-209.265C156.072,-208.674 180.28,-208.019 201.246,-207.453"/>
<polygon fill="midnightblue" stroke="midnightblue" points="133.909,-205.771 124.007,-209.54 134.098,-212.769 133.909,-205.771"/>
</g>
<!-- Node29 -->
<g id="node29" class="node"><title>Node29</title>
<g id="a_node29"><a xlink:href="classMezzanine_1_1Singleton.html" target="_top" xlink:title="Mezzanine::Singleton\l\&lt; ResourceManager \&gt;">
<polygon fill="white" stroke="black" points="12,-49 12,-79 126,-79 126,-49 12,-49"/>
<text text-anchor="start" x="20" y="-67" font-family="Helvetica,sans-Serif" font-size="10.00">Mezzanine::Singleton</text>
<text text-anchor="middle" x="69" y="-56" font-family="Helvetica,sans-Serif" font-size="10.00">&lt; ResourceManager &gt;</text>
</a>
</g>
</g>
<!-- Node29&#45;&gt;Node8 -->
<g id="edge29" class="edge"><title>Node29&#45;&gt;Node8</title>
<path fill="none" stroke="midnightblue" d="M136.078,-64C156.953,-64 179.789,-64 199.819,-64"/>
<polygon fill="midnightblue" stroke="midnightblue" points="136.008,-60.5001 126.008,-64 136.008,-67.5001 136.008,-60.5001"/>
</g>
<!-- Node30 -->
<g id="node30" class="node"><title>Node30</title>
<g id="a_node30"><a xlink:href="classMezzanine_1_1Singleton.html" target="_top" xlink:title="Mezzanine::Singleton\l\&lt; UIManager \&gt;">
<polygon fill="white" stroke="black" points="14,-0 14,-30 124,-30 124,-0 14,-0"/>
<text text-anchor="start" x="22" y="-18" font-family="Helvetica,sans-Serif" font-size="10.00">Mezzanine::Singleton</text>
<text text-anchor="middle" x="69" y="-7" font-family="Helvetica,sans-Serif" font-size="10.00">&lt; UIManager &gt;</text>
</a>
</g>
</g>
<!-- Node30&#45;&gt;Node12 -->
<g id="edge30" class="edge"><title>Node30&#45;&gt;Node12</title>
<path fill="none" stroke="midnightblue" d="M134.201,-15.6941C151.85,-15.8849 171.02,-16.0921 188.78,-16.2841"/>
<polygon fill="midnightblue" stroke="midnightblue" points="134.044,-12.1923 124.007,-15.5839 133.969,-19.1919 134.044,-12.1923"/>
</g>
</g>
</svg>
