<?xml version="1.0" encoding="UTF-8" standalone="no"?>
<!DOCTYPE svg PUBLIC "-//W3C//DTD SVG 1.1//EN"
 "http://www.w3.org/Graphics/SVG/1.1/DTD/svg11.dtd">
<!-- Generated by graphviz version 2.38.0 (20140413.2041)
 -->
<!-- Title: Graphical Class Hierarchy Pages: 1 -->
<svg width="624pt" height="562pt"
 viewBox="0.00 0.00 624.00 561.50" xmlns="http://www.w3.org/2000/svg" xmlns:xlink="http://www.w3.org/1999/xlink">
<g id="graph0" class="graph" transform="scale(1 1) rotate(0) translate(4 557.5)">
<title>Graphical Class Hierarchy</title>
<polygon fill="white" stroke="none" points="-4,4 -4,-557.5 620,-557.5 620,4 -4,4"/>
<!-- Node1 -->
<g id="node1" class="node"><title>Node1</title>
<polygon fill="white" stroke="#bfbfbf" points="0,-294.5 0,-313.5 60,-313.5 60,-294.5 0,-294.5"/>
<text text-anchor="middle" x="30" y="-301.5" font-family="Helvetica,sans-Serif" font-size="10.00">Exception</text>
</g>
<!-- Node2 -->
<g id="node2" class="node"><title>Node2</title>
<g id="a_node2"><a xlink:href="classArithmeticException.html" target="_top" xlink:title="Thrown when Math has failed. ">
<polygon fill="white" stroke="black" points="120,-522.5 120,-541.5 224,-541.5 224,-522.5 120,-522.5"/>
<text text-anchor="middle" x="172" y="-529.5" font-family="Helvetica,sans-Serif" font-size="10.00">ArithmeticException</text>
</a>
</g>
</g>
<!-- Node1&#45;&gt;Node2 -->
<g id="edge1" class="edge"><title>Node1&#45;&gt;Node2</title>
<path fill="none" stroke="midnightblue" d="M31.1004,-323.704C32.4263,-365.07 41.5522,-461.385 96,-513 102.629,-519.284 111.028,-523.57 119.789,-526.476"/>
<polygon fill="midnightblue" stroke="midnightblue" points="34.5973,-323.507 30.902,-313.577 27.5986,-323.644 34.5973,-323.507"/>
</g>
<!-- Node3 -->
<g id="node3" class="node"><title>Node3</title>
<g id="a_node3"><a xlink:href="classInstanceIdentityException.html" target="_top" xlink:title="Thrown when an unknown error with using an Identifier and it is invalid. ">
<polygon fill="white" stroke="black" points="107,-484.5 107,-503.5 237,-503.5 237,-484.5 107,-484.5"/>
<text text-anchor="middle" x="172" y="-491.5" font-family="Helvetica,sans-Serif" font-size="10.00">InstanceIdentityException</text>
</a>
</g>
</g>
<!-- Node1&#45;&gt;Node3 -->
<g id="edge2" class="edge"><title>Node1&#45;&gt;Node3</title>
<path fill="none" stroke="midnightblue" d="M32.7235,-324.009C36.9064,-359.796 50.8525,-434.773 96,-475 100.312,-478.842 105.292,-481.93 110.593,-484.408"/>
<polygon fill="midnightblue" stroke="midnightblue" points="36.1846,-323.451 31.6813,-313.861 29.2213,-324.166 36.1846,-323.451"/>
</g>
<!-- Node7 -->
<g id="node7" class="node"><title>Node7</title>
<g id="a_node7"><a xlink:href="classInternalException.html" target="_top" xlink:title="Thrown when an unknown internal error occurred. ">
<polygon fill="white" stroke="black" points="126,-446.5 126,-465.5 218,-465.5 218,-446.5 126,-446.5"/>
<text text-anchor="middle" x="172" y="-453.5" font-family="Helvetica,sans-Serif" font-size="10.00">InternalException</text>
</a>
</g>
</g>
<!-- Node1&#45;&gt;Node7 -->
<g id="edge6" class="edge"><title>Node1&#45;&gt;Node7</title>
<path fill="none" stroke="midnightblue" d="M35.0787,-323.63C42.1999,-352.863 59.7375,-407.546 96,-437 104.445,-443.86 115.055,-448.28 125.613,-451.119"/>
<polygon fill="midnightblue" stroke="midnightblue" points="38.4692,-322.754 32.8422,-313.777 31.6429,-324.304 38.4692,-322.754"/>
</g>
<!-- Node8 -->
<g id="node8" class="node"><title>Node8</title>
<g id="a_node8"><a xlink:href="classInvalidAssignment.html" target="_top" xlink:title="Thrown when a complex class is assigned to itself or other invalid assignments occur. ">
<polygon fill="white" stroke="black" points="123.5,-408.5 123.5,-427.5 220.5,-427.5 220.5,-408.5 123.5,-408.5"/>
<text text-anchor="middle" x="172" y="-415.5" font-family="Helvetica,sans-Serif" font-size="10.00">InvalidAssignment</text>
</a>
</g>
</g>
<!-- Node1&#45;&gt;Node8 -->
<g id="edge7" class="edge"><title>Node1&#45;&gt;Node8</title>
<path fill="none" stroke="midnightblue" d="M38.7875,-322.682C48.8031,-344.374 68.2736,-379.645 96,-399 104.04,-404.613 113.594,-408.569 123.143,-411.358"/>
<polygon fill="midnightblue" stroke="midnightblue" points="41.9824,-321.252 34.7452,-313.515 35.5774,-324.077 41.9824,-321.252"/>
</g>
<!-- Node9 -->
<g id="node9" class="node"><title>Node9</title>
<g id="a_node9"><a xlink:href="classInvalidStateException.html" target="_top" xlink:title="Thrown when the available information should have worked but failed for unknown reasons. ">
<polygon fill="white" stroke="black" points="116,-370.5 116,-389.5 228,-389.5 228,-370.5 116,-370.5"/>
<text text-anchor="middle" x="172" y="-377.5" font-family="Helvetica,sans-Serif" font-size="10.00">InvalidStateException</text>
</a>
</g>
</g>
<!-- Node1&#45;&gt;Node9 -->
<g id="edge8" class="edge"><title>Node1&#45;&gt;Node9</title>
<path fill="none" stroke="midnightblue" d="M46.3574,-321.309C58.5998,-334.077 76.8197,-350.916 96,-361 103.371,-364.875 111.571,-367.988 119.766,-370.48"/>
<polygon fill="midnightblue" stroke="midnightblue" points="48.5917,-318.571 39.2256,-313.619 43.459,-323.331 48.5917,-318.571"/>
</g>
<!-- Node10 -->
<g id="node10" class="node"><title>Node10</title>
<g id="a_node10"><a xlink:href="classInvalidVersionException.html" target="_top" xlink:title="Thrown when a version is accessed/parsed/required and it cannot work correctly or is missing...">
<polygon fill="white" stroke="black" points="111,-332.5 111,-351.5 233,-351.5 233,-332.5 111,-332.5"/>
<text text-anchor="middle" x="172" y="-339.5" font-family="Helvetica,sans-Serif" font-size="10.00">InvalidVersionException</text>
</a>
</g>
</g>
<!-- Node1&#45;&gt;Node10 -->
<g id="edge9" class="edge"><title>Node1&#45;&gt;Node10</title>
<path fill="none" stroke="midnightblue" d="M69.8604,-315.609C78.4522,-318.106 87.5213,-320.688 96,-323 107.663,-326.181 120.395,-329.473 132.003,-332.406"/>
<polygon fill="midnightblue" stroke="midnightblue" points="70.6381,-312.19 60.0574,-312.738 68.6707,-318.908 70.6381,-312.19"/>
</g>
<!-- Node11 -->
<g id="node11" class="node"><title>Node11</title>
<g id="a_node11"><a xlink:href="classMemoryManagementException.html" target="_top" xlink:title="Thrown when an unknown memory management exception occurs. ">
<polygon fill="white" stroke="black" points="96,-294.5 96,-313.5 248,-313.5 248,-294.5 96,-294.5"/>
<text text-anchor="middle" x="172" y="-301.5" font-family="Helvetica,sans-Serif" font-size="10.00">MemoryManagementException</text>
</a>
</g>
</g>
<!-- Node1&#45;&gt;Node11 -->
<g id="edge10" class="edge"><title>Node1&#45;&gt;Node11</title>
<path fill="none" stroke="midnightblue" d="M70.1601,-304C78.2176,-304 86.9566,-304 95.8068,-304"/>
<polygon fill="midnightblue" stroke="midnightblue" points="70.0081,-300.5 60.0081,-304 70.0081,-307.5 70.0081,-300.5"/>
</g>
<!-- Node14 -->
<g id="node14" class="node"><title>Node14</title>
<g id="a_node14"><a xlink:href="classNotImplementedException.html" target="_top" xlink:title="Thrown when we just have not coded a thing yet, but we knew what the API should look like...">
<polygon fill="white" stroke="black" points="106,-256.5 106,-275.5 238,-275.5 238,-256.5 106,-256.5"/>
<text text-anchor="middle" x="172" y="-263.5" font-family="Helvetica,sans-Serif" font-size="10.00">NotImplementedException</text>
</a>
</g>
</g>
<!-- Node1&#45;&gt;Node14 -->
<g id="edge13" class="edge"><title>Node1&#45;&gt;Node14</title>
<path fill="none" stroke="midnightblue" d="M69.8604,-292.391C78.4522,-289.894 87.5213,-287.312 96,-285 107.663,-281.819 120.395,-278.527 132.003,-275.594"/>
<polygon fill="midnightblue" stroke="midnightblue" points="68.6707,-289.092 60.0574,-295.262 70.6381,-295.81 68.6707,-289.092"/>
</g>
<!-- Node15 -->
<g id="node15" class="node"><title>Node15</title>
<g id="a_node15"><a xlink:href="classParametersException.html" target="_top" xlink:title="Thrown when parameters are checked at runtime and found invalid. ">
<polygon fill="white" stroke="black" points="117,-218.5 117,-237.5 227,-237.5 227,-218.5 117,-218.5"/>
<text text-anchor="middle" x="172" y="-225.5" font-family="Helvetica,sans-Serif" font-size="10.00">ParametersException</text>
</a>
</g>
</g>
<!-- Node1&#45;&gt;Node15 -->
<g id="edge14" class="edge"><title>Node1&#45;&gt;Node15</title>
<path fill="none" stroke="midnightblue" d="M46.3574,-286.691C58.5998,-273.923 76.8197,-257.084 96,-247 103.371,-243.125 111.571,-240.012 119.766,-237.52"/>
<polygon fill="midnightblue" stroke="midnightblue" points="43.459,-284.669 39.2256,-294.381 48.5917,-289.429 43.459,-284.669"/>
</g>
<!-- Node18 -->
<g id="node18" class="node"><title>Node18</title>
<g id="a_node18"><a xlink:href="classRenderingAPIException.html" target="_top" xlink:title="Thrown when the graphics card/DirectX/OpenGL fail. ">
<polygon fill="white" stroke="black" points="111.5,-180.5 111.5,-199.5 232.5,-199.5 232.5,-180.5 111.5,-180.5"/>
<text text-anchor="middle" x="172" y="-187.5" font-family="Helvetica,sans-Serif" font-size="10.00">RenderingAPIException</text>
</a>
</g>
</g>
<!-- Node1&#45;&gt;Node18 -->
<g id="edge17" class="edge"><title>Node1&#45;&gt;Node18</title>
<path fill="none" stroke="midnightblue" d="M38.7875,-285.318C48.8031,-263.626 68.2736,-228.355 96,-209 101.507,-205.156 107.724,-202.088 114.163,-199.641"/>
<polygon fill="midnightblue" stroke="midnightblue" points="35.5774,-283.923 34.7452,-294.485 41.9824,-286.748 35.5774,-283.923"/>
</g>
<!-- Node19 -->
<g id="node19" class="node"><title>Node19</title>
<g id="a_node19"><a xlink:href="classRuntimeAssertionException.html" target="_top" xlink:title="Thrown when a rutime assertion could have been Thrown. ">
<polygon fill="white" stroke="black" points="103,-142.5 103,-161.5 241,-161.5 241,-142.5 103,-142.5"/>
<text text-anchor="middle" x="172" y="-149.5" font-family="Helvetica,sans-Serif" font-size="10.00">RuntimeAssertionException</text>
</a>
</g>
</g>
<!-- Node1&#45;&gt;Node19 -->
<g id="edge18" class="edge"><title>Node1&#45;&gt;Node19</title>
<path fill="none" stroke="midnightblue" d="M35.0787,-284.37C42.1999,-255.137 59.7375,-200.454 96,-171 100.796,-167.104 106.29,-163.995 112.076,-161.516"/>
<polygon fill="midnightblue" stroke="midnightblue" points="31.6429,-283.696 32.8422,-294.223 38.4692,-285.246 31.6429,-283.696"/>
</g>
<!-- Node20 -->
<g id="node20" class="node"><title>Node20</title>
<g id="a_node20"><a xlink:href="classScriptException.html" target="_top" xlink:title="Thrown when an unknown error happens with a script. ">
<polygon fill="white" stroke="black" points="129,-104.5 129,-123.5 215,-123.5 215,-104.5 129,-104.5"/>
<text text-anchor="middle" x="172" y="-111.5" font-family="Helvetica,sans-Serif" font-size="10.00">ScriptException</text>
</a>
</g>
</g>
<!-- Node1&#45;&gt;Node20 -->
<g id="edge19" class="edge"><title>Node1&#45;&gt;Node20</title>
<path fill="none" stroke="midnightblue" d="M32.7235,-283.991C36.9064,-248.204 50.8525,-173.227 96,-133 105.026,-124.958 116.975,-120.222 128.677,-117.462"/>
<polygon fill="midnightblue" stroke="midnightblue" points="29.2213,-283.834 31.6813,-294.139 36.1846,-284.549 29.2213,-283.834"/>
</g>
<!-- Node25 -->
<g id="node25" class="node"><title>Node25</title>
<g id="a_node25"><a xlink:href="classSyntaxErrorException.html" target="_top" xlink:title="Thrown when some kind of syntax exception. ">
<polygon fill="white" stroke="black" points="116,-47.5 116,-66.5 228,-66.5 228,-47.5 116,-47.5"/>
<text text-anchor="middle" x="172" y="-54.5" font-family="Helvetica,sans-Serif" font-size="10.00">SyntaxErrorException</text>
</a>
</g>
</g>
<!-- Node1&#45;&gt;Node25 -->
<g id="edge24" class="edge"><title>Node1&#45;&gt;Node25</title>
<path fill="none" stroke="midnightblue" d="M32.1102,-284.377C35.3495,-244.274 47.8991,-151.914 96,-95 107.212,-81.7334 124.207,-72.5895 139.185,-66.6022"/>
<polygon fill="midnightblue" stroke="midnightblue" points="28.613,-284.217 31.4097,-294.436 35.5961,-284.703 28.613,-284.217"/>
</g>
<!-- Node4 -->
<g id="node4" class="node"><title>Node4</title>
<g id="a_node4"><a xlink:href="classInstanceIdentityDuplicateException.html" target="_top" xlink:title="Thrown when duplicates of teh same identity string exist. ">
<polygon fill="white" stroke="black" points="299,-523 299,-553 427,-553 427,-523 299,-523"/>
<text text-anchor="start" x="307" y="-541" font-family="Helvetica,sans-Serif" font-size="10.00">InstanceIdentityDuplicate</text>
<text text-anchor="middle" x="363" y="-530" font-family="Helvetica,sans-Serif" font-size="10.00">Exception</text>
</a>
</g>
</g>
<!-- Node3&#45;&gt;Node4 -->
<g id="edge3" class="edge"><title>Node3&#45;&gt;Node4</title>
<path fill="none" stroke="midnightblue" d="M223.922,-505.855C246.959,-511.218 274.42,-517.611 298.762,-523.278"/>
<polygon fill="midnightblue" stroke="midnightblue" points="224.543,-502.406 214.01,-503.547 222.956,-509.224 224.543,-502.406"/>
</g>
<!-- Node5 -->
<g id="node5" class="node"><title>Node5</title>
<g id="a_node5"><a xlink:href="classInstanceIdentityInvalidException.html" target="_top" xlink:title="Thrown when the identity string wasn&#39;t valid at all. ">
<polygon fill="white" stroke="black" points="284,-484.5 284,-503.5 442,-503.5 442,-484.5 284,-484.5"/>
<text text-anchor="middle" x="363" y="-491.5" font-family="Helvetica,sans-Serif" font-size="10.00">InstanceIdentityInvalidException</text>
</a>
</g>
</g>
<!-- Node3&#45;&gt;Node5 -->
<g id="edge4" class="edge"><title>Node3&#45;&gt;Node5</title>
<path fill="none" stroke="midnightblue" d="M247.588,-494C259.504,-494 271.862,-494 283.858,-494"/>
<polygon fill="midnightblue" stroke="midnightblue" points="247.251,-490.5 237.251,-494 247.25,-497.5 247.251,-490.5"/>
</g>
<!-- Node6 -->
<g id="node6" class="node"><title>Node6</title>
<g id="a_node6"><a xlink:href="classInstanceIdentityNotFoundException.html" target="_top" xlink:title="Thrown when the requested identity could not be found. ">
<polygon fill="white" stroke="black" points="298.5,-435 298.5,-465 427.5,-465 427.5,-435 298.5,-435"/>
<text text-anchor="start" x="306.5" y="-453" font-family="Helvetica,sans-Serif" font-size="10.00">InstanceIdentityNotFound</text>
<text text-anchor="middle" x="363" y="-442" font-family="Helvetica,sans-Serif" font-size="10.00">Exception</text>
</a>
</g>
</g>
<!-- Node3&#45;&gt;Node6 -->
<g id="edge5" class="edge"><title>Node3&#45;&gt;Node6</title>
<path fill="none" stroke="midnightblue" d="M223.877,-482.156C246.808,-476.817 274.128,-470.457 298.394,-464.808"/>
<polygon fill="midnightblue" stroke="midnightblue" points="222.956,-478.776 214.01,-484.453 224.543,-485.594 222.956,-478.776"/>
</g>
<!-- Node12 -->
<g id="node12" class="node"><title>Node12</title>
<g id="a_node12"><a xlink:href="classMemoryOutOfBoundsException.html" target="_top" xlink:title="Thrown when attempted to access something that really should note be accessed. ">
<polygon fill="white" stroke="black" points="285.5,-323.5 285.5,-342.5 440.5,-342.5 440.5,-323.5 285.5,-323.5"/>
<text text-anchor="middle" x="363" y="-330.5" font-family="Helvetica,sans-Serif" font-size="10.00">MemoryOutOfBoundsException</text>
</a>
</g>
</g>
<!-- Node11&#45;&gt;Node12 -->
<g id="edge11" class="edge"><title>Node11&#45;&gt;Node12</title>
<path fill="none" stroke="midnightblue" d="M245.037,-315.053C263.084,-317.822 282.292,-320.77 299.815,-323.458"/>
<polygon fill="midnightblue" stroke="midnightblue" points="245.563,-311.593 235.147,-313.536 244.501,-318.512 245.563,-311.593"/>
</g>
<!-- Node13 -->
<g id="node13" class="node"><title>Node13</title>
<g id="a_node13"><a xlink:href="classOutOfMemoryException.html" target="_top" xlink:title="Thrown when A memory allocation was attempted and failed. ">
<polygon fill="white" stroke="black" points="302,-285.5 302,-304.5 424,-304.5 424,-285.5 302,-285.5"/>
<text text-anchor="middle" x="363" y="-292.5" font-family="Helvetica,sans-Serif" font-size="10.00">OutOfMemoryException</text>
</a>
</g>
</g>
<!-- Node11&#45;&gt;Node13 -->
<g id="edge12" class="edge"><title>Node11&#45;&gt;Node13</title>
<path fill="none" stroke="midnightblue" d="M258.341,-299.936C273.025,-299.237 288.006,-298.524 301.849,-297.864"/>
<polygon fill="midnightblue" stroke="midnightblue" points="258.063,-296.445 248.241,-300.417 258.396,-303.437 258.063,-296.445"/>
</g>
<!-- Node16 -->
<g id="node16" class="node"><title>Node16</title>
<g id="a_node16"><a xlink:href="classParametersCastException.html" target="_top" xlink:title="Thrown when a pointer parameter is checked at runtime and cannot be cast as expected. ">
<polygon fill="white" stroke="black" points="297.5,-237.5 297.5,-256.5 428.5,-256.5 428.5,-237.5 297.5,-237.5"/>
<text text-anchor="middle" x="363" y="-244.5" font-family="Helvetica,sans-Serif" font-size="10.00">ParametersCastException</text>
</a>
</g>
</g>
<!-- Node15&#45;&gt;Node16 -->
<g id="edge15" class="edge"><title>Node15&#45;&gt;Node16</title>
<path fill="none" stroke="midnightblue" d="M237.139,-234.448C256.595,-236.404 277.973,-238.553 297.456,-240.511"/>
<polygon fill="midnightblue" stroke="midnightblue" points="237.46,-230.963 227.16,-233.445 236.76,-237.927 237.46,-230.963"/>
</g>
<!-- Node17 -->
<g id="node17" class="node"><title>Node17</title>
<g id="a_node17"><a xlink:href="classParametersRangeException.html" target="_top" xlink:title="Thrown when a passed parameter is checked at runtime and not in the expected range. ">
<polygon fill="white" stroke="black" points="293.5,-199.5 293.5,-218.5 432.5,-218.5 432.5,-199.5 293.5,-199.5"/>
<text text-anchor="middle" x="363" y="-206.5" font-family="Helvetica,sans-Serif" font-size="10.00">ParametersRangeException</text>
</a>
</g>
</g>
<!-- Node15&#45;&gt;Node17 -->
<g id="edge16" class="edge"><title>Node15&#45;&gt;Node17</title>
<path fill="none" stroke="midnightblue" d="M237.287,-221.537C255.339,-219.723 275.035,-217.743 293.331,-215.903"/>
<polygon fill="midnightblue" stroke="midnightblue" points="236.76,-218.073 227.16,-222.555 237.46,-225.037 236.76,-218.073"/>
</g>
<!-- Node21 -->
<g id="node21" class="node"><title>Node21</title>
<g id="a_node21"><a xlink:href="classScriptLuaException.html" target="_top" xlink:title="Thrown when an unknown error happens in a Lua script. ">
<polygon fill="white" stroke="black" points="312.5,-114.5 312.5,-133.5 413.5,-133.5 413.5,-114.5 312.5,-114.5"/>
<text text-anchor="middle" x="363" y="-121.5" font-family="Helvetica,sans-Serif" font-size="10.00">ScriptLuaException</text>
</a>
</g>
</g>
<!-- Node20&#45;&gt;Node21 -->
<g id="edge20" class="edge"><title>Node20&#45;&gt;Node21</title>
<path fill="none" stroke="midnightblue" d="M225.514,-116.779C252.672,-118.215 285.637,-119.96 312.366,-121.374"/>
<polygon fill="midnightblue" stroke="midnightblue" points="225.586,-113.278 215.415,-116.244 225.216,-120.268 225.586,-113.278"/>
</g>
<!-- Node22 -->
<g id="node22" class="node"><title>Node22</title>
<g id="a_node22"><a xlink:href="classScriptLuaErrErrException.html" target="_top" xlink:title="Thrown when Lua has an error handling an error. ">
<polygon fill="white" stroke="black" points="483.5,-152.5 483.5,-171.5 610.5,-171.5 610.5,-152.5 483.5,-152.5"/>
<text text-anchor="middle" x="547" y="-159.5" font-family="Helvetica,sans-Serif" font-size="10.00">ScriptLuaErrErrException</text>
</a>
</g>
</g>
<!-- Node21&#45;&gt;Node22 -->
<g id="edge21" class="edge"><title>Node21&#45;&gt;Node22</title>
<path fill="none" stroke="midnightblue" d="M419.946,-135.681C445.756,-141.07 476.007,-147.386 500.404,-152.48"/>
<polygon fill="midnightblue" stroke="midnightblue" points="420.431,-132.207 409.926,-133.589 419,-139.059 420.431,-132.207"/>
</g>
<!-- Node23 -->
<g id="node23" class="node"><title>Node23</title>
<g id="a_node23"><a xlink:href="classScriptLuaRuntimeException.html" target="_top" xlink:title="Thrown when a Lua script has a runtime error. ">
<polygon fill="white" stroke="black" points="478,-114.5 478,-133.5 616,-133.5 616,-114.5 478,-114.5"/>
<text text-anchor="middle" x="547" y="-121.5" font-family="Helvetica,sans-Serif" font-size="10.00">ScriptLuaRuntimeException</text>
</a>
</g>
</g>
<!-- Node21&#45;&gt;Node23 -->
<g id="edge22" class="edge"><title>Node21&#45;&gt;Node23</title>
<path fill="none" stroke="midnightblue" d="M424.202,-124C441.403,-124 460.269,-124 477.906,-124"/>
<polygon fill="midnightblue" stroke="midnightblue" points="423.732,-120.5 413.732,-124 423.732,-127.5 423.732,-120.5"/>
</g>
<!-- Node24 -->
<g id="node24" class="node"><title>Node24</title>
<g id="a_node24"><a xlink:href="classScriptLuaYieldException.html" target="_top" xlink:title="Thrown when Lua returns a yield and it should not have. ">
<polygon fill="white" stroke="black" points="485.5,-76.5 485.5,-95.5 608.5,-95.5 608.5,-76.5 485.5,-76.5"/>
<text text-anchor="middle" x="547" y="-83.5" font-family="Helvetica,sans-Serif" font-size="10.00">ScriptLuaYieldException</text>
</a>
</g>
</g>
<!-- Node21&#45;&gt;Node24 -->
<g id="edge23" class="edge"><title>Node21&#45;&gt;Node24</title>
<path fill="none" stroke="midnightblue" d="M419.946,-112.319C445.756,-106.93 476.007,-100.614 500.404,-95.5201"/>
<polygon fill="midnightblue" stroke="midnightblue" points="419,-108.941 409.926,-114.411 420.431,-115.793 419,-108.941"/>
</g>
<!-- Node26 -->
<g id="node26" class="node"><title>Node26</title>
<g id="a_node26"><a xlink:href="classSyntaxErrorLuaException.html" target="_top" xlink:title="Thrown when lua code in incorrect. ">
<polygon fill="white" stroke="black" points="299,-76.5 299,-95.5 427,-95.5 427,-76.5 299,-76.5"/>
<text text-anchor="middle" x="363" y="-83.5" font-family="Helvetica,sans-Serif" font-size="10.00">SyntaxErrorLuaException</text>
</a>
</g>
</g>
<!-- Node25&#45;&gt;Node26 -->
<g id="edge25" class="edge"><title>Node25&#45;&gt;Node26</title>
<path fill="none" stroke="midnightblue" d="M238.113,-66.9909C258.088,-70.0558 280.009,-73.4193 299.785,-76.4538"/>
<polygon fill="midnightblue" stroke="midnightblue" points="238.59,-63.5232 228.175,-65.466 237.528,-70.4422 238.59,-63.5232"/>
</g>
<!-- Node27 -->
<g id="node27" class="node"><title>Node27</title>
<g id="a_node27"><a xlink:href="classSyntaxErrorXMLException.html" target="_top" xlink:title="Thrown when and XML document is being parsed but is invalid. ">
<polygon fill="white" stroke="black" points="297,-38.5 297,-57.5 429,-57.5 429,-38.5 297,-38.5"/>
<text text-anchor="middle" x="363" y="-45.5" font-family="Helvetica,sans-Serif" font-size="10.00">SyntaxErrorXMLException</text>
</a>
</g>
</g>
<!-- Node25&#45;&gt;Node27 -->
<g id="edge26" class="edge"><title>Node25&#45;&gt;Node27</title>
<path fill="none" stroke="midnightblue" d="M238.194,-53.8955C257.127,-52.994 277.802,-52.0094 296.739,-51.1077"/>
<polygon fill="midnightblue" stroke="midnightblue" points="237.997,-50.4008 228.175,-54.3726 238.33,-57.3929 237.997,-50.4008"/>
</g>
<!-- Node28 -->
<g id="node28" class="node"><title>Node28</title>
<g id="a_node28"><a xlink:href="classSyntaxErrorXPathException.html" target="_top" xlink:title="Thrown when an XPath query is being parsed but is invalid. ">
<polygon fill="white" stroke="black" points="293.5,-0.5 293.5,-19.5 432.5,-19.5 432.5,-0.5 293.5,-0.5"/>
<text text-anchor="middle" x="363" y="-7.5" font-family="Helvetica,sans-Serif" font-size="10.00">SyntaxErrorXPathException</text>
</a>
</g>
</g>
<!-- Node25&#45;&gt;Node28 -->
<g id="edge27" class="edge"><title>Node25&#45;&gt;Node28</title>
<path fill="none" stroke="midnightblue" d="M220.431,-44.9448C240.092,-39.9714 263.138,-34.1721 284,-29 296.581,-25.8809 310.315,-22.5206 322.704,-19.5059"/>
<polygon fill="midnightblue" stroke="midnightblue" points="219.323,-41.615 210.488,-47.4627 221.041,-48.4008 219.323,-41.615"/>
</g>
</g>
</svg>
