<?xml version="1.0" encoding="UTF-8" standalone="no"?>
<!DOCTYPE svg PUBLIC "-//W3C//DTD SVG 1.1//EN"
 "http://www.w3.org/Graphics/SVG/1.1/DTD/svg11.dtd">
<!-- Generated by graphviz version 2.36.0 (20140111.2315)
 -->
<!-- Title: Graphical Class Hierarchy Pages: 1 -->
<svg width="1106pt" height="389pt"
 viewBox="0.00 0.00 1106.00 389.00" xmlns="http://www.w3.org/2000/svg" xmlns:xlink="http://www.w3.org/1999/xlink">
<g id="graph0" class="graph" transform="scale(1 1) rotate(0) translate(4 385)">
<title>Graphical Class Hierarchy</title>
<polygon fill="white" stroke="none" points="-4,4 -4,-385 1102,-385 1102,4 -4,4"/>
<!-- Node1 -->
<g id="node1" class="node"><title>Node1</title>
<g id="a_node1"><a xlink:href="classMezzanine_1_1EventPublisher.html" target="_top" xlink:title="This is the base class for any class that generates and publishes events to subscribers. ">
<polygon fill="white" stroke="black" points="184,-253.5 184,-272.5 320,-272.5 320,-253.5 184,-253.5"/>
<text text-anchor="middle" x="252" y="-260.5" font-family="Helvetica,sans-Serif" font-size="10.00">Mezzanine::EventPublisher</text>
</a>
</g>
</g>
<!-- Node2 -->
<g id="node2" class="node"><title>Node2</title>
<g id="a_node2"><a xlink:href="classMezzanine_1_1UI_1_1Action.html" target="_top" xlink:title="This class represents an action to be taken. Can have multiple inputs bound to it. ">
<polygon fill="white" stroke="black" points="381,-297.5 381,-316.5 495,-316.5 495,-297.5 381,-297.5"/>
<text text-anchor="middle" x="438" y="-304.5" font-family="Helvetica,sans-Serif" font-size="10.00">Mezzanine::UI::Action</text>
</a>
</g>
</g>
<!-- Node1&#45;&gt;Node2 -->
<g id="edge1" class="edge"><title>Node1&#45;&gt;Node2</title>
<path fill="none" stroke="midnightblue" d="M302.665,-274.876C332.305,-281.964 369.442,-290.845 397.153,-297.471"/>
<polygon fill="midnightblue" stroke="midnightblue" points="303.465,-271.469 292.925,-272.547 301.837,-278.277 303.465,-271.469"/>
</g>
<!-- Node3 -->
<g id="node3" class="node"><title>Node3</title>
<g id="a_node3"><a xlink:href="classMezzanine_1_1UI_1_1RadioButtonGroup.html" target="_top" xlink:title="This is a class designed to facilitate operations across an entire group of RadioButtons. ">
<polygon fill="white" stroke="black" points="368,-248 368,-278 508,-278 508,-248 368,-248"/>
<text text-anchor="start" x="376" y="-266" font-family="Helvetica,sans-Serif" font-size="10.00">Mezzanine::UI::RadioButton</text>
<text text-anchor="middle" x="438" y="-255" font-family="Helvetica,sans-Serif" font-size="10.00">Group</text>
</a>
</g>
</g>
<!-- Node1&#45;&gt;Node3 -->
<g id="edge2" class="edge"><title>Node1&#45;&gt;Node3</title>
<path fill="none" stroke="midnightblue" d="M330.508,-263C342.892,-263 355.637,-263 367.812,-263"/>
<polygon fill="midnightblue" stroke="midnightblue" points="330.209,-259.5 320.209,-263 330.209,-266.5 330.209,-259.5"/>
</g>
<!-- Node4 -->
<g id="node4" class="node"><title>Node4</title>
<g id="a_node4"><a xlink:href="classMezzanine_1_1UI_1_1Widget.html" target="_top" xlink:title="This is the base class for all widgets. ">
<polygon fill="white" stroke="black" points="379.5,-209.5 379.5,-228.5 496.5,-228.5 496.5,-209.5 379.5,-209.5"/>
<text text-anchor="middle" x="438" y="-216.5" font-family="Helvetica,sans-Serif" font-size="10.00">Mezzanine::UI::Widget</text>
</a>
</g>
</g>
<!-- Node1&#45;&gt;Node4 -->
<g id="edge3" class="edge"><title>Node1&#45;&gt;Node4</title>
<path fill="none" stroke="midnightblue" d="M302.665,-251.124C332.305,-244.036 369.442,-235.155 397.153,-228.529"/>
<polygon fill="midnightblue" stroke="midnightblue" points="301.837,-247.723 292.925,-253.453 303.465,-254.531 301.837,-247.723"/>
</g>
<!-- Node5 -->
<g id="node5" class="node"><title>Node5</title>
<g id="a_node5"><a xlink:href="classMezzanine_1_1UI_1_1Button.html" target="_top" xlink:title="This class is a helper class, specifically for use as a button. ">
<polygon fill="white" stroke="black" points="568.5,-342.5 568.5,-361.5 683.5,-361.5 683.5,-342.5 568.5,-342.5"/>
<text text-anchor="middle" x="626" y="-349.5" font-family="Helvetica,sans-Serif" font-size="10.00">Mezzanine::UI::Button</text>
</a>
</g>
</g>
<!-- Node4&#45;&gt;Node5 -->
<g id="edge4" class="edge"><title>Node4&#45;&gt;Node5</title>
<path fill="none" stroke="midnightblue" d="M502.525,-233.681C504.449,-235 506.283,-236.437 508,-238 541.385,-268.4 510.039,-303.245 544,-333 550.953,-339.092 559.492,-343.325 568.39,-346.249"/>
<polygon fill="midnightblue" stroke="midnightblue" points="504.011,-230.5 493.586,-228.612 500.558,-236.589 504.011,-230.5"/>
</g>
<!-- Node9 -->
<g id="node9" class="node"><title>Node9</title>
<g id="a_node9"><a xlink:href="classMezzanine_1_1UI_1_1DropDownList.html" target="_top" xlink:title="This is a widget that displays one selection from a list that can have it&#39;s visibility toggled...">
<polygon fill="white" stroke="black" points="551.5,-304.5 551.5,-323.5 700.5,-323.5 700.5,-304.5 551.5,-304.5"/>
<text text-anchor="middle" x="626" y="-311.5" font-family="Helvetica,sans-Serif" font-size="10.00">Mezzanine::UI::DropDownList</text>
</a>
</g>
</g>
<!-- Node4&#45;&gt;Node9 -->
<g id="edge8" class="edge"><title>Node4&#45;&gt;Node9</title>
<path fill="none" stroke="midnightblue" d="M499.997,-232.938C502.799,-234.455 505.486,-236.136 508,-238 532.067,-255.848 519.595,-277.616 544,-295 549.412,-298.855 555.494,-301.938 561.831,-304.402"/>
<polygon fill="midnightblue" stroke="midnightblue" points="501.273,-229.672 490.729,-228.635 498.325,-236.021 501.273,-229.672"/>
</g>
<!-- Node10 -->
<g id="node10" class="node"><title>Node10</title>
<g id="a_node10"><a xlink:href="classMezzanine_1_1UI_1_1EditBox.html" target="_top" xlink:title="Widget for handling the input and manipulation of text. ">
<polygon fill="white" stroke="black" points="565.5,-266.5 565.5,-285.5 686.5,-285.5 686.5,-266.5 565.5,-266.5"/>
<text text-anchor="middle" x="626" y="-273.5" font-family="Helvetica,sans-Serif" font-size="10.00">Mezzanine::UI::EditBox</text>
</a>
</g>
</g>
<!-- Node4&#45;&gt;Node10 -->
<g id="edge9" class="edge"><title>Node4&#45;&gt;Node10</title>
<path fill="none" stroke="midnightblue" d="M489.23,-231.452C495.618,-233.437 502.011,-235.628 508,-238 524.82,-244.663 527.055,-250.66 544,-257 553.876,-260.695 564.706,-263.827 575.142,-266.418"/>
<polygon fill="midnightblue" stroke="midnightblue" points="489.837,-227.981 479.255,-228.504 487.854,-234.694 489.837,-227.981"/>
</g>
<!-- Node11 -->
<g id="node11" class="node"><title>Node11</title>
<g id="a_node11"><a xlink:href="classMezzanine_1_1UI_1_1LayoutContainer.html" target="_top" xlink:title="This is the base class for container objects that automatically position it&#39;s children. ">
<polygon fill="white" stroke="black" points="547,-228.5 547,-247.5 705,-247.5 705,-228.5 547,-228.5"/>
<text text-anchor="middle" x="626" y="-235.5" font-family="Helvetica,sans-Serif" font-size="10.00">Mezzanine::UI::LayoutContainer</text>
</a>
</g>
</g>
<!-- Node4&#45;&gt;Node11 -->
<g id="edge10" class="edge"><title>Node4&#45;&gt;Node11</title>
<path fill="none" stroke="midnightblue" d="M506.833,-225.929C519.837,-227.258 533.55,-228.658 546.848,-230.017"/>
<polygon fill="midnightblue" stroke="midnightblue" points="506.882,-222.416 496.578,-224.882 506.17,-229.38 506.882,-222.416"/>
</g>
<!-- Node12 -->
<g id="node12" class="node"><title>Node12</title>
<g id="a_node12"><a xlink:href="classMezzanine_1_1UI_1_1ListBox.html" target="_top" xlink:title="This is a widget for displaying a list of captions in a box. ">
<polygon fill="white" stroke="black" points="566.5,-190.5 566.5,-209.5 685.5,-209.5 685.5,-190.5 566.5,-190.5"/>
<text text-anchor="middle" x="626" y="-197.5" font-family="Helvetica,sans-Serif" font-size="10.00">Mezzanine::UI::ListBox</text>
</a>
</g>
</g>
<!-- Node4&#45;&gt;Node12 -->
<g id="edge11" class="edge"><title>Node4&#45;&gt;Node12</title>
<path fill="none" stroke="midnightblue" d="M506.649,-212.09C526.23,-210.089 547.434,-207.923 566.412,-205.985"/>
<polygon fill="midnightblue" stroke="midnightblue" points="506.17,-208.62 496.578,-213.118 506.882,-215.584 506.17,-208.62"/>
</g>
<!-- Node13 -->
<g id="node13" class="node"><title>Node13</title>
<g id="a_node13"><a xlink:href="classMezzanine_1_1UI_1_1PagedContainer.html" target="_top" xlink:title="This is the base class for containers that have a render area and work area of different sizes...">
<polygon fill="white" stroke="black" points="548,-152.5 548,-171.5 704,-171.5 704,-152.5 548,-152.5"/>
<text text-anchor="middle" x="626" y="-159.5" font-family="Helvetica,sans-Serif" font-size="10.00">Mezzanine::UI::PagedContainer</text>
</a>
</g>
</g>
<!-- Node4&#45;&gt;Node13 -->
<g id="edge12" class="edge"><title>Node4&#45;&gt;Node13</title>
<path fill="none" stroke="midnightblue" d="M472.419,-205.774C492.886,-197.958 519.726,-188.213 544,-181 555.631,-177.544 568.35,-174.311 580.19,-171.526"/>
<polygon fill="midnightblue" stroke="midnightblue" points="470.993,-202.573 462.922,-209.437 473.512,-209.104 470.993,-202.573"/>
</g>
<!-- Node18 -->
<g id="node18" class="node"><title>Node18</title>
<g id="a_node18"><a xlink:href="classMezzanine_1_1UI_1_1PageProvider.html" target="_top" xlink:title="This is the base class for interpretting widget values to page positions. ">
<polygon fill="white" stroke="black" points="553.5,-114.5 553.5,-133.5 698.5,-133.5 698.5,-114.5 553.5,-114.5"/>
<text text-anchor="middle" x="626" y="-121.5" font-family="Helvetica,sans-Serif" font-size="10.00">Mezzanine::UI::PageProvider</text>
</a>
</g>
</g>
<!-- Node4&#45;&gt;Node18 -->
<g id="edge17" class="edge"><title>Node4&#45;&gt;Node18</title>
<path fill="none" stroke="midnightblue" d="M459.136,-202.949C484.307,-183.151 526.239,-151.113 544,-143 552.409,-139.159 561.675,-136.051 570.846,-133.55"/>
<polygon fill="midnightblue" stroke="midnightblue" points="456.673,-200.434 450.999,-209.382 461.015,-205.926 456.673,-200.434"/>
</g>
<!-- Node23 -->
<g id="node23" class="node"><title>Node23</title>
<g id="a_node23"><a xlink:href="classMezzanine_1_1UI_1_1StackedContainer.html" target="_top" xlink:title="This is the base class for containers that stack their children one on top of the other...">
<polygon fill="white" stroke="black" points="544,-38.5 544,-57.5 708,-57.5 708,-38.5 544,-38.5"/>
<text text-anchor="middle" x="626" y="-45.5" font-family="Helvetica,sans-Serif" font-size="10.00">Mezzanine::UI::StackedContainer</text>
</a>
</g>
</g>
<!-- Node4&#45;&gt;Node23 -->
<g id="edge22" class="edge"><title>Node4&#45;&gt;Node23</title>
<path fill="none" stroke="midnightblue" d="M462.633,-203.783C476.866,-193.866 494.739,-180.011 508,-165 528.589,-141.694 522.825,-127.775 544,-105 562.734,-84.8507 589.691,-67.6224 607.274,-57.5347"/>
<polygon fill="midnightblue" stroke="midnightblue" points="460.627,-200.914 454.315,-209.424 464.556,-206.708 460.627,-200.914"/>
</g>
<!-- Node6 -->
<g id="node6" class="node"><title>Node6</title>
<g id="a_node6"><a xlink:href="classMezzanine_1_1UI_1_1CheckBox.html" target="_top" xlink:title="This is a simple widget for storing a bool value. ">
<polygon fill="white" stroke="black" points="756,-361.5 756,-380.5 888,-380.5 888,-361.5 756,-361.5"/>
<text text-anchor="middle" x="822" y="-368.5" font-family="Helvetica,sans-Serif" font-size="10.00">Mezzanine::UI::CheckBox</text>
</a>
</g>
</g>
<!-- Node5&#45;&gt;Node6 -->
<g id="edge5" class="edge"><title>Node5&#45;&gt;Node6</title>
<path fill="none" stroke="midnightblue" d="M693.634,-358.526C713.726,-360.494 735.752,-362.651 755.753,-364.61"/>
<polygon fill="midnightblue" stroke="midnightblue" points="693.928,-355.038 683.634,-357.547 693.246,-362.005 693.928,-355.038"/>
</g>
<!-- Node8 -->
<g id="node8" class="node"><title>Node8</title>
<g id="a_node8"><a xlink:href="classMezzanine_1_1UI_1_1StackButton.html" target="_top" xlink:title="This is a button with additional data used to track the binding to a StackedContainer which can be se...">
<polygon fill="white" stroke="black" points="752,-323.5 752,-342.5 892,-342.5 892,-323.5 752,-323.5"/>
<text text-anchor="middle" x="822" y="-330.5" font-family="Helvetica,sans-Serif" font-size="10.00">Mezzanine::UI::StackButton</text>
</a>
</g>
</g>
<!-- Node5&#45;&gt;Node8 -->
<g id="edge7" class="edge"><title>Node5&#45;&gt;Node8</title>
<path fill="none" stroke="midnightblue" d="M693.6,-345.477C712.422,-343.634 732.944,-341.624 751.91,-339.767"/>
<polygon fill="midnightblue" stroke="midnightblue" points="693.246,-341.995 683.634,-346.453 693.928,-348.962 693.246,-341.995"/>
</g>
<!-- Node7 -->
<g id="node7" class="node"><title>Node7</title>
<g id="a_node7"><a xlink:href="classMezzanine_1_1UI_1_1RadioButton.html" target="_top" xlink:title="This is a simple widget where only one of it&#39;s selections can be selected at a time. ">
<polygon fill="white" stroke="black" points="947,-361.5 947,-380.5 1087,-380.5 1087,-361.5 947,-361.5"/>
<text text-anchor="middle" x="1017" y="-368.5" font-family="Helvetica,sans-Serif" font-size="10.00">Mezzanine::UI::RadioButton</text>
</a>
</g>
</g>
<!-- Node6&#45;&gt;Node7 -->
<g id="edge6" class="edge"><title>Node6&#45;&gt;Node7</title>
<path fill="none" stroke="midnightblue" d="M898.433,-371C914.408,-371 931.192,-371 946.917,-371"/>
<polygon fill="midnightblue" stroke="midnightblue" points="898.072,-367.5 888.072,-371 898.072,-374.5 898.072,-367.5"/>
</g>
<!-- Node14 -->
<g id="node14" class="node"><title>Node14</title>
<g id="a_node14"><a xlink:href="classMezzanine_1_1UI_1_1GridContainer.html" target="_top" xlink:title="This is a container class for placing child objects on a 2 dimensional grid. ">
<polygon fill="white" stroke="black" points="749,-193.5 749,-212.5 895,-212.5 895,-193.5 749,-193.5"/>
<text text-anchor="middle" x="822" y="-200.5" font-family="Helvetica,sans-Serif" font-size="10.00">Mezzanine::UI::GridContainer</text>
</a>
</g>
</g>
<!-- Node13&#45;&gt;Node14 -->
<g id="edge13" class="edge"><title>Node13&#45;&gt;Node14</title>
<path fill="none" stroke="midnightblue" d="M681.805,-173.582C711.537,-179.866 747.838,-187.538 775.913,-193.471"/>
<polygon fill="midnightblue" stroke="midnightblue" points="682.503,-170.153 671.995,-171.509 681.055,-177.001 682.503,-170.153"/>
</g>
<!-- Node15 -->
<g id="node15" class="node"><title>Node15</title>
<g id="a_node15"><a xlink:href="classMezzanine_1_1UI_1_1LinearContainer.html" target="_top" xlink:title="This is a container class for placing child objects in succession on a single axis. ">
<polygon fill="white" stroke="black" points="744.5,-155.5 744.5,-174.5 899.5,-174.5 899.5,-155.5 744.5,-155.5"/>
<text text-anchor="middle" x="822" y="-162.5" font-family="Helvetica,sans-Serif" font-size="10.00">Mezzanine::UI::LinearContainer</text>
</a>
</g>
</g>
<!-- Node13&#45;&gt;Node15 -->
<g id="edge14" class="edge"><title>Node13&#45;&gt;Node15</title>
<path fill="none" stroke="midnightblue" d="M714.531,-163.354C724.478,-163.507 734.56,-163.663 744.351,-163.815"/>
<polygon fill="midnightblue" stroke="midnightblue" points="714.284,-159.849 704.231,-163.194 714.176,-166.849 714.284,-159.849"/>
</g>
<!-- Node16 -->
<g id="node16" class="node"><title>Node16</title>
<g id="a_node16"><a xlink:href="classMezzanine_1_1UI_1_1HorizontalContainer.html" target="_top" xlink:title="A layout container that aligns it&#39;s children along a common X axis. ">
<polygon fill="white" stroke="black" points="951.5,-196 951.5,-226 1082.5,-226 1082.5,-196 951.5,-196"/>
<text text-anchor="start" x="959.5" y="-214" font-family="Helvetica,sans-Serif" font-size="10.00">Mezzanine::UI::Horizontal</text>
<text text-anchor="middle" x="1017" y="-203" font-family="Helvetica,sans-Serif" font-size="10.00">Container</text>
</a>
</g>
</g>
<!-- Node15&#45;&gt;Node16 -->
<g id="edge15" class="edge"><title>Node15&#45;&gt;Node16</title>
<path fill="none" stroke="midnightblue" d="M872.763,-176.86C897.189,-182.682 926.882,-189.759 952.886,-195.957"/>
<polygon fill="midnightblue" stroke="midnightblue" points="873.529,-173.445 862.99,-174.531 871.906,-180.254 873.529,-173.445"/>
</g>
<!-- Node17 -->
<g id="node17" class="node"><title>Node17</title>
<g id="a_node17"><a xlink:href="classMezzanine_1_1UI_1_1VerticalContainer.html" target="_top" xlink:title="A layout container that aligns it&#39;s children along a common Y axis. ">
<polygon fill="white" stroke="black" points="936.5,-157.5 936.5,-176.5 1097.5,-176.5 1097.5,-157.5 936.5,-157.5"/>
<text text-anchor="middle" x="1017" y="-164.5" font-family="Helvetica,sans-Serif" font-size="10.00">Mezzanine::UI::VerticalContainer</text>
</a>
</g>
</g>
<!-- Node15&#45;&gt;Node17 -->
<g id="edge16" class="edge"><title>Node15&#45;&gt;Node17</title>
<path fill="none" stroke="midnightblue" d="M909.566,-165.897C918.489,-165.99 927.527,-166.083 936.371,-166.175"/>
<polygon fill="midnightblue" stroke="midnightblue" points="909.592,-162.397 899.556,-165.793 909.519,-169.397 909.592,-162.397"/>
</g>
<!-- Node19 -->
<g id="node19" class="node"><title>Node19</title>
<g id="a_node19"><a xlink:href="classMezzanine_1_1UI_1_1Scrollbar.html" target="_top" xlink:title="This is the scrollbar base class. ">
<polygon fill="white" stroke="black" points="759.5,-114.5 759.5,-133.5 884.5,-133.5 884.5,-114.5 759.5,-114.5"/>
<text text-anchor="middle" x="822" y="-121.5" font-family="Helvetica,sans-Serif" font-size="10.00">Mezzanine::UI::Scrollbar</text>
</a>
</g>
</g>
<!-- Node18&#45;&gt;Node19 -->
<g id="edge18" class="edge"><title>Node18&#45;&gt;Node19</title>
<path fill="none" stroke="midnightblue" d="M709.101,-124C725.984,-124 743.484,-124 759.489,-124"/>
<polygon fill="midnightblue" stroke="midnightblue" points="708.687,-120.5 698.687,-124 708.687,-127.5 708.687,-120.5"/>
</g>
<!-- Node22 -->
<g id="node22" class="node"><title>Node22</title>
<g id="a_node22"><a xlink:href="classMezzanine_1_1UI_1_1Spinner.html" target="_top" xlink:title="This is a simple widget for a numeric variable in a box. ">
<polygon fill="white" stroke="black" points="762.5,-76.5 762.5,-95.5 881.5,-95.5 881.5,-76.5 762.5,-76.5"/>
<text text-anchor="middle" x="822" y="-83.5" font-family="Helvetica,sans-Serif" font-size="10.00">Mezzanine::UI::Spinner</text>
</a>
</g>
</g>
<!-- Node18&#45;&gt;Node22 -->
<g id="edge21" class="edge"><title>Node18&#45;&gt;Node22</title>
<path fill="none" stroke="midnightblue" d="M685.905,-112.462C713.575,-107.042 746.162,-100.659 772.398,-95.5201"/>
<polygon fill="midnightblue" stroke="midnightblue" points="685.095,-109.054 675.954,-114.411 686.441,-115.923 685.095,-109.054"/>
</g>
<!-- Node20 -->
<g id="node20" class="node"><title>Node20</title>
<g id="a_node20"><a xlink:href="classMezzanine_1_1UI_1_1HorizontalScrollbar.html" target="_top" xlink:title="This is a scrollbar class aligned on the X axis. ">
<polygon fill="white" stroke="black" points="951.5,-108 951.5,-138 1082.5,-138 1082.5,-108 951.5,-108"/>
<text text-anchor="start" x="959.5" y="-126" font-family="Helvetica,sans-Serif" font-size="10.00">Mezzanine::UI::Horizontal</text>
<text text-anchor="middle" x="1017" y="-115" font-family="Helvetica,sans-Serif" font-size="10.00">Scrollbar</text>
</a>
</g>
</g>
<!-- Node19&#45;&gt;Node20 -->
<g id="edge19" class="edge"><title>Node19&#45;&gt;Node20</title>
<path fill="none" stroke="midnightblue" d="M894.75,-123.628C913.303,-123.532 933.164,-123.429 951.33,-123.335"/>
<polygon fill="midnightblue" stroke="midnightblue" points="894.579,-120.129 884.597,-123.681 894.615,-127.129 894.579,-120.129"/>
</g>
<!-- Node21 -->
<g id="node21" class="node"><title>Node21</title>
<g id="a_node21"><a xlink:href="classMezzanine_1_1UI_1_1VerticalScrollbar.html" target="_top" xlink:title="This is a scrollbar class aligned on the Y axis. ">
<polygon fill="white" stroke="black" points="938,-69.5 938,-88.5 1096,-88.5 1096,-69.5 938,-69.5"/>
<text text-anchor="middle" x="1017" y="-76.5" font-family="Helvetica,sans-Serif" font-size="10.00">Mezzanine::UI::VerticalScrollbar</text>
</a>
</g>
</g>
<!-- Node19&#45;&gt;Node21 -->
<g id="edge20" class="edge"><title>Node19&#45;&gt;Node21</title>
<path fill="none" stroke="midnightblue" d="M873.872,-112.139C905.487,-104.767 945.588,-95.4172 975.129,-88.5296"/>
<polygon fill="midnightblue" stroke="midnightblue" points="872.874,-108.777 863.93,-114.457 874.464,-115.594 872.874,-108.777"/>
</g>
<!-- Node24 -->
<g id="node24" class="node"><title>Node24</title>
<g id="a_node24"><a xlink:href="classMezzanine_1_1UI_1_1MenuEntry.html" target="_top" xlink:title="This class is an entry for a single window/widget in a menu. ">
<polygon fill="white" stroke="black" points="755,-38.5 755,-57.5 889,-57.5 889,-38.5 755,-38.5"/>
<text text-anchor="middle" x="822" y="-45.5" font-family="Helvetica,sans-Serif" font-size="10.00">Mezzanine::UI::MenuEntry</text>
</a>
</g>
</g>
<!-- Node23&#45;&gt;Node24 -->
<g id="edge23" class="edge"><title>Node23&#45;&gt;Node24</title>
<path fill="none" stroke="midnightblue" d="M718.433,-48C730.73,-48 743.147,-48 754.889,-48"/>
<polygon fill="midnightblue" stroke="midnightblue" points="718.149,-44.5001 708.149,-48 718.149,-51.5001 718.149,-44.5001"/>
</g>
<!-- Node25 -->
<g id="node25" class="node"><title>Node25</title>
<g id="a_node25"><a xlink:href="classMezzanine_1_1UI_1_1TabSet.html" target="_top" xlink:title="This is a widget that stores sets of renderables but only displays one at a time. ...">
<polygon fill="white" stroke="black" points="763,-0.5 763,-19.5 881,-19.5 881,-0.5 763,-0.5"/>
<text text-anchor="middle" x="822" y="-7.5" font-family="Helvetica,sans-Serif" font-size="10.00">Mezzanine::UI::TabSet</text>
</a>
</g>
</g>
<!-- Node23&#45;&gt;Node25 -->
<g id="edge24" class="edge"><title>Node23&#45;&gt;Node25</title>
<path fill="none" stroke="midnightblue" d="M685.905,-36.4619C713.575,-31.042 746.162,-24.659 772.398,-19.5201"/>
<polygon fill="midnightblue" stroke="midnightblue" points="685.095,-33.054 675.954,-38.411 686.441,-39.9234 685.095,-33.054"/>
</g>
<!-- Node26 -->
<g id="node26" class="node"><title>Node26</title>
<g id="a_node26"><a xlink:href="classMezzanine_1_1EventSubscriber.html" target="_top" xlink:title="This is a base class for all classes that subscribe to events. ">
<polygon fill="white" stroke="black" points="181,-212.5 181,-231.5 323,-231.5 323,-212.5 181,-212.5"/>
<text text-anchor="middle" x="252" y="-219.5" font-family="Helvetica,sans-Serif" font-size="10.00">Mezzanine::EventSubscriber</text>
</a>
</g>
</g>
<!-- Node26&#45;&gt;Node4 -->
<g id="edge25" class="edge"><title>Node26&#45;&gt;Node4</title>
<path fill="none" stroke="midnightblue" d="M333.21,-220.692C348.742,-220.439 364.73,-220.178 379.364,-219.94"/>
<polygon fill="midnightblue" stroke="midnightblue" points="333.029,-217.195 323.087,-220.857 333.143,-224.194 333.029,-217.195"/>
</g>
<!-- Node27 -->
<g id="node27" class="node"><title>Node27</title>
<g id="a_node27"><a xlink:href="classMezzanine_1_1UI_1_1Renderable.html" target="_top" xlink:title="Basic class for all structures that get inserted into the rendering hierarchy. ">
<polygon fill="white" stroke="black" points="0,-155.5 0,-174.5 136,-174.5 136,-155.5 0,-155.5"/>
<text text-anchor="middle" x="68" y="-162.5" font-family="Helvetica,sans-Serif" font-size="10.00">Mezzanine::UI::Renderable</text>
</a>
</g>
</g>
<!-- Node28 -->
<g id="node28" class="node"><title>Node28</title>
<g id="a_node28"><a xlink:href="classMezzanine_1_1UI_1_1LineList.html" target="_top" xlink:title="This is an object comprised of a series of lines. ">
<polygon fill="white" stroke="black" points="192,-174.5 192,-193.5 312,-193.5 312,-174.5 192,-174.5"/>
<text text-anchor="middle" x="252" y="-181.5" font-family="Helvetica,sans-Serif" font-size="10.00">Mezzanine::UI::LineList</text>
</a>
</g>
</g>
<!-- Node27&#45;&gt;Node28 -->
<g id="edge26" class="edge"><title>Node27&#45;&gt;Node28</title>
<path fill="none" stroke="midnightblue" d="M146.628,-173.104C161.762,-174.684 177.401,-176.317 191.819,-177.822"/>
<polygon fill="midnightblue" stroke="midnightblue" points="146.562,-169.578 136.253,-172.021 145.836,-176.54 146.562,-169.578"/>
</g>
<!-- Node29 -->
<g id="node29" class="node"><title>Node29</title>
<g id="a_node29"><a xlink:href="classMezzanine_1_1UI_1_1QuadRenderable.html" target="_top" xlink:title="This represents a nestable quad for an object in a GUI layout. ">
<polygon fill="white" stroke="black" points="172.5,-136.5 172.5,-155.5 331.5,-155.5 331.5,-136.5 172.5,-136.5"/>
<text text-anchor="middle" x="252" y="-143.5" font-family="Helvetica,sans-Serif" font-size="10.00">Mezzanine::UI::QuadRenderable</text>
</a>
</g>
</g>
<!-- Node27&#45;&gt;Node29 -->
<g id="edge27" class="edge"><title>Node27&#45;&gt;Node29</title>
<path fill="none" stroke="midnightblue" d="M146.279,-156.932C154.902,-156.032 163.694,-155.114 172.334,-154.212"/>
<polygon fill="midnightblue" stroke="midnightblue" points="145.836,-153.46 136.253,-157.979 146.562,-160.422 145.836,-153.46"/>
</g>
<!-- Node29&#45;&gt;Node4 -->
<g id="edge29" class="edge"><title>Node29&#45;&gt;Node4</title>
<path fill="none" stroke="midnightblue" d="M310.631,-158.154C317.904,-160.186 325.181,-162.468 332,-165 365.053,-177.272 401.09,-197.43 421.18,-209.337"/>
<polygon fill="midnightblue" stroke="midnightblue" points="311.32,-154.716 300.757,-155.541 309.528,-161.483 311.32,-154.716"/>
</g>
<!-- Node30 -->
<g id="node30" class="node"><title>Node30</title>
<g id="a_node30"><a xlink:href="classMezzanine_1_1UI_1_1Screen.html" target="_top" xlink:title="This class is a helper class for creating UI&#39;s. It is responsible for storing and keeping track of al...">
<polygon fill="white" stroke="black" points="379.5,-136.5 379.5,-155.5 496.5,-155.5 496.5,-136.5 379.5,-136.5"/>
<text text-anchor="middle" x="438" y="-143.5" font-family="Helvetica,sans-Serif" font-size="10.00">Mezzanine::UI::Screen</text>
</a>
</g>
</g>
<!-- Node29&#45;&gt;Node30 -->
<g id="edge28" class="edge"><title>Node29&#45;&gt;Node30</title>
<path fill="none" stroke="midnightblue" d="M341.759,-146C354.513,-146 367.351,-146 379.29,-146"/>
<polygon fill="midnightblue" stroke="midnightblue" points="341.566,-142.5 331.566,-146 341.566,-149.5 341.566,-142.5"/>
</g>
</g>
</svg>
