<?xml version="1.0" encoding="UTF-8" standalone="no"?>
<!DOCTYPE svg PUBLIC "-//W3C//DTD SVG 1.1//EN"
 "http://www.w3.org/Graphics/SVG/1.1/DTD/svg11.dtd">
<!-- Generated by graphviz version 2.38.0 (20140413.2041)
 -->
<!-- Title: Graphical Class Hierarchy Pages: 1 -->
<svg width="867pt" height="805pt"
 viewBox="0.00 0.00 867.00 805.00" xmlns="http://www.w3.org/2000/svg" xmlns:xlink="http://www.w3.org/1999/xlink">
<g id="graph0" class="graph" transform="scale(1 1) rotate(0) translate(4 801)">
<title>Graphical Class Hierarchy</title>
<polygon fill="white" stroke="none" points="-4,4 -4,-801 863,-801 863,4 -4,4"/>
<!-- Node1 -->
<g id="node1" class="node"><title>Node1</title>
<g id="a_node1"><a xlink:href="classMezzanine_1_1ManagerBase.html" target="_top" xlink:title="This is the base class from which all the Entresol and World Managers inherit. ">
<polygon fill="white" stroke="black" points="0,-354 0,-373 130,-373 130,-354 0,-354"/>
<text text-anchor="middle" x="65" y="-361" font-family="Helvetica,sans-Serif" font-size="10.00">Mezzanine::ManagerBase</text>
</a>
</g>
</g>
<!-- Node2 -->
<g id="node2" class="node"><title>Node2</title>
<g id="a_node2"><a xlink:href="classMezzanine_1_1EntresolManager.html" target="_top" xlink:title="This is the base class for all managers that do no describe properties of a single world...">
<polygon fill="white" stroke="black" points="166,-532 166,-551 309,-551 309,-532 166,-532"/>
<text text-anchor="middle" x="237.5" y="-539" font-family="Helvetica,sans-Serif" font-size="10.00">Mezzanine::EntresolManager</text>
</a>
</g>
</g>
<!-- Node1&#45;&gt;Node2 -->
<g id="edge1" class="edge"><title>Node1&#45;&gt;Node2</title>
<path fill="none" stroke="midnightblue" d="M72.7617,-382.498C85.601,-415.806 116.714,-484.691 166,-521.5 171.81,-525.839 178.528,-529.238 185.462,-531.899"/>
<polygon fill="midnightblue" stroke="midnightblue" points="76.0026,-381.172 69.2353,-373.02 69.442,-383.613 76.0026,-381.172"/>
</g>
<!-- Node15 -->
<g id="node15" class="node"><title>Node15</title>
<g id="a_node15"><a xlink:href="classMezzanine_1_1WorldManager.html" target="_top" xlink:title="This is the base class for all managers that belong to a single world instance. ">
<polygon fill="white" stroke="black" points="171,-157 171,-176 304,-176 304,-157 171,-157"/>
<text text-anchor="middle" x="237.5" y="-164" font-family="Helvetica,sans-Serif" font-size="10.00">Mezzanine::WorldManager</text>
</a>
</g>
</g>
<!-- Node1&#45;&gt;Node15 -->
<g id="edge14" class="edge"><title>Node1&#45;&gt;Node15</title>
<path fill="none" stroke="midnightblue" d="M80.7961,-346.404C115.386,-306.438 200.671,-207.897 227.957,-176.37"/>
<polygon fill="midnightblue" stroke="midnightblue" points="78.1213,-344.146 74.2236,-353.998 83.4143,-348.727 78.1213,-344.146"/>
</g>
<!-- Node3 -->
<g id="node3" class="node"><title>Node3</title>
<g id="a_node3"><a xlink:href="classMezzanine_1_1Audio_1_1AudioManager.html" target="_top" xlink:title="This is the base manager class for the Audio subsystem and it&#39;s operations. ">
<polygon fill="white" stroke="black" points="345,-723 345,-742 508,-742 508,-723 345,-723"/>
<text text-anchor="middle" x="426.5" y="-730" font-family="Helvetica,sans-Serif" font-size="10.00">Mezzanine::Audio::AudioManager</text>
</a>
</g>
</g>
<!-- Node2&#45;&gt;Node3 -->
<g id="edge2" class="edge"><title>Node2&#45;&gt;Node3</title>
<path fill="none" stroke="midnightblue" d="M304.939,-556.826C306.364,-557.967 307.722,-559.19 309,-560.5 356.275,-608.954 298.371,-659.424 345,-708.5 351.027,-714.843 358.651,-719.532 366.792,-722.992"/>
<polygon fill="midnightblue" stroke="midnightblue" points="306.436,-553.627 296.135,-551.145 302.64,-559.508 306.436,-553.627"/>
</g>
<!-- Node4 -->
<g id="node4" class="node"><title>Node4</title>
<g id="a_node4"><a xlink:href="classMezzanine_1_1EventManager.html" target="_top" xlink:title="This is a container for Events and facilitates the transfer of data. ">
<polygon fill="white" stroke="black" points="360,-625 360,-644 493,-644 493,-625 360,-625"/>
<text text-anchor="middle" x="426.5" y="-632" font-family="Helvetica,sans-Serif" font-size="10.00">Mezzanine::EventManager</text>
</a>
</g>
</g>
<!-- Node2&#45;&gt;Node4 -->
<g id="edge3" class="edge"><title>Node2&#45;&gt;Node4</title>
<path fill="none" stroke="midnightblue" d="M300.485,-555.295C303.463,-556.848 306.323,-558.577 309,-560.5 332.425,-577.33 321.41,-597.901 345,-614.5 351.124,-618.809 358.082,-622.193 365.282,-624.849"/>
<polygon fill="midnightblue" stroke="midnightblue" points="301.812,-552.055 291.257,-551.14 298.938,-558.437 301.812,-552.055"/>
</g>
<!-- Node5 -->
<g id="node5" class="node"><title>Node5</title>
<g id="a_node5"><a xlink:href="classMezzanine_1_1Graphics_1_1GraphicsManager.html" target="_top" xlink:title="This is intended to store basic graphics setting for the user. ">
<polygon fill="white" stroke="black" points="372,-668.5 372,-698.5 481,-698.5 481,-668.5 372,-668.5"/>
<text text-anchor="start" x="380" y="-686.5" font-family="Helvetica,sans-Serif" font-size="10.00">Mezzanine::Graphics</text>
<text text-anchor="middle" x="426.5" y="-675.5" font-family="Helvetica,sans-Serif" font-size="10.00">::GraphicsManager</text>
</a>
</g>
</g>
<!-- Node2&#45;&gt;Node5 -->
<g id="edge4" class="edge"><title>Node2&#45;&gt;Node5</title>
<path fill="none" stroke="midnightblue" d="M303.387,-556.128C305.358,-557.462 307.238,-558.916 309,-560.5 341.958,-590.135 313.463,-622.358 345,-653.5 352.535,-660.94 362.082,-666.561 371.946,-670.8"/>
<polygon fill="midnightblue" stroke="midnightblue" points="304.672,-552.836 294.236,-551.009 301.255,-558.946 304.672,-552.836"/>
</g>
<!-- Node6 -->
<g id="node6" class="node"><title>Node6</title>
<g id="a_node6"><a xlink:href="classMezzanine_1_1Graphics_1_1MeshManager.html" target="_top" xlink:title="This manager handles the storage, generation, and query of of Graphics Meshes. ">
<polygon fill="white" stroke="black" points="372,-575.5 372,-605.5 481,-605.5 481,-575.5 372,-575.5"/>
<text text-anchor="start" x="380" y="-593.5" font-family="Helvetica,sans-Serif" font-size="10.00">Mezzanine::Graphics</text>
<text text-anchor="middle" x="426.5" y="-582.5" font-family="Helvetica,sans-Serif" font-size="10.00">::MeshManager</text>
</a>
</g>
</g>
<!-- Node2&#45;&gt;Node6 -->
<g id="edge5" class="edge"><title>Node2&#45;&gt;Node6</title>
<path fill="none" stroke="midnightblue" d="M284.739,-553.616C311.089,-560.521 344.232,-569.205 371.738,-576.413"/>
<polygon fill="midnightblue" stroke="midnightblue" points="285.56,-550.213 274.999,-551.064 283.786,-556.985 285.56,-550.213"/>
</g>
<!-- Node7 -->
<g id="node7" class="node"><title>Node7</title>
<g id="a_node7"><a xlink:href="classMezzanine_1_1Graphics_1_1TextureManager.html" target="_top" xlink:title="This manager handles the storage and query of of Graphics Textures. ">
<polygon fill="white" stroke="black" points="372,-477.5 372,-507.5 481,-507.5 481,-477.5 372,-477.5"/>
<text text-anchor="start" x="380" y="-495.5" font-family="Helvetica,sans-Serif" font-size="10.00">Mezzanine::Graphics</text>
<text text-anchor="middle" x="426.5" y="-484.5" font-family="Helvetica,sans-Serif" font-size="10.00">::TextureManager</text>
</a>
</g>
</g>
<!-- Node2&#45;&gt;Node7 -->
<g id="edge6" class="edge"><title>Node2&#45;&gt;Node7</title>
<path fill="none" stroke="midnightblue" d="M284.739,-529.384C311.089,-522.479 344.232,-513.795 371.738,-506.587"/>
<polygon fill="midnightblue" stroke="midnightblue" points="283.786,-526.015 274.999,-531.936 285.56,-532.787 283.786,-526.015"/>
</g>
<!-- Node8 -->
<g id="node8" class="node"><title>Node8</title>
<g id="a_node8"><a xlink:href="classMezzanine_1_1Input_1_1InputManager.html" target="_top" xlink:title="This is the manager responsible for the handling of input devices and events. ">
<polygon fill="white" stroke="black" points="348,-439 348,-458 505,-458 505,-439 348,-439"/>
<text text-anchor="middle" x="426.5" y="-446" font-family="Helvetica,sans-Serif" font-size="10.00">Mezzanine::Input::InputManager</text>
</a>
</g>
</g>
<!-- Node2&#45;&gt;Node8 -->
<g id="edge7" class="edge"><title>Node2&#45;&gt;Node8</title>
<path fill="none" stroke="midnightblue" d="M298.511,-527.817C302.203,-525.971 305.738,-523.876 309,-521.5 332.314,-504.516 321.313,-483.96 345,-467.5 350.542,-463.649 356.763,-460.571 363.226,-458.113"/>
<polygon fill="midnightblue" stroke="midnightblue" points="296.858,-524.718 289.08,-531.912 299.646,-531.139 296.858,-524.718"/>
</g>
<!-- Node9 -->
<g id="node9" class="node"><title>Node9</title>
<g id="a_node9"><a xlink:href="classMezzanine_1_1Physics_1_1CollisionShapeManager.html" target="_top" xlink:title="This manager is for the storage of all shapes and creation of mesh shapes. ">
<polygon fill="white" stroke="black" points="364,-389.5 364,-419.5 489,-419.5 489,-389.5 364,-389.5"/>
<text text-anchor="start" x="372" y="-407.5" font-family="Helvetica,sans-Serif" font-size="10.00">Mezzanine::Physics</text>
<text text-anchor="middle" x="426.5" y="-396.5" font-family="Helvetica,sans-Serif" font-size="10.00">::CollisionShapeManager</text>
</a>
</g>
</g>
<!-- Node2&#45;&gt;Node9 -->
<g id="edge8" class="edge"><title>Node2&#45;&gt;Node9</title>
<path fill="none" stroke="midnightblue" d="M301.459,-527.196C304.139,-525.504 306.673,-523.613 309,-521.5 341.51,-491.987 312.857,-459.412 345,-429.5 350.464,-424.416 356.945,-420.365 363.822,-417.138"/>
<polygon fill="midnightblue" stroke="midnightblue" points="299.676,-524.18 292.479,-531.955 302.954,-530.365 299.676,-524.18"/>
</g>
<!-- Node10 -->
<g id="node10" class="node"><title>Node10</title>
<g id="a_node10"><a xlink:href="classMezzanine_1_1Resource_1_1ResourceManager.html" target="_top" xlink:title="This is the manager responsible for the loading and unloading of files. ">
<polygon fill="white" stroke="black" points="370.5,-340.5 370.5,-370.5 482.5,-370.5 482.5,-340.5 370.5,-340.5"/>
<text text-anchor="start" x="378.5" y="-358.5" font-family="Helvetica,sans-Serif" font-size="10.00">Mezzanine::Resource</text>
<text text-anchor="middle" x="426.5" y="-347.5" font-family="Helvetica,sans-Serif" font-size="10.00">::ResourceManager</text>
</a>
</g>
</g>
<!-- Node2&#45;&gt;Node10 -->
<g id="edge9" class="edge"><title>Node2&#45;&gt;Node10</title>
<path fill="none" stroke="midnightblue" d="M303.081,-526.626C305.191,-525.079 307.176,-523.376 309,-521.5 354.386,-474.819 299.926,-426.482 345,-379.5 351.865,-372.344 360.763,-367.296 370.13,-363.742"/>
<polygon fill="midnightblue" stroke="midnightblue" points="301.17,-523.691 294.409,-531.848 304.781,-529.688 301.17,-523.691"/>
</g>
<!-- Node11 -->
<g id="node11" class="node"><title>Node11</title>
<g id="a_node11"><a xlink:href="classMezzanine_1_1Scripting_1_1iScriptingManager.html" target="_top" xlink:title="What a scripting manager should look like. ">
<polygon fill="white" stroke="black" points="372.5,-526.5 372.5,-556.5 480.5,-556.5 480.5,-526.5 372.5,-526.5"/>
<text text-anchor="start" x="380.5" y="-544.5" font-family="Helvetica,sans-Serif" font-size="10.00">Mezzanine::Scripting</text>
<text text-anchor="middle" x="426.5" y="-533.5" font-family="Helvetica,sans-Serif" font-size="10.00">::iScriptingManager</text>
</a>
</g>
</g>
<!-- Node2&#45;&gt;Node11 -->
<g id="edge10" class="edge"><title>Node2&#45;&gt;Node11</title>
<path fill="none" stroke="midnightblue" d="M319.391,-541.5C337.365,-541.5 355.972,-541.5 372.49,-541.5"/>
<polygon fill="midnightblue" stroke="midnightblue" points="319.197,-538 309.197,-541.5 319.197,-545 319.197,-538"/>
</g>
<!-- Node14 -->
<g id="node14" class="node"><title>Node14</title>
<g id="a_node14"><a xlink:href="classMezzanine_1_1UI_1_1UIManager.html" target="_top" xlink:title="This class is responsible for any and all user interactions with the User interface/HUD. ">
<polygon fill="white" stroke="black" points="359.5,-302 359.5,-321 493.5,-321 493.5,-302 359.5,-302"/>
<text text-anchor="middle" x="426.5" y="-309" font-family="Helvetica,sans-Serif" font-size="10.00">Mezzanine::UI::UIManager</text>
</a>
</g>
</g>
<!-- Node2&#45;&gt;Node14 -->
<g id="edge13" class="edge"><title>Node2&#45;&gt;Node14</title>
<path fill="none" stroke="midnightblue" d="M303.793,-526.329C305.651,-524.861 307.396,-523.255 309,-521.5 367.269,-457.728 285.322,-392.956 345,-330.5 349.067,-326.243 353.897,-322.863 359.14,-320.187"/>
<polygon fill="midnightblue" stroke="midnightblue" points="301.567,-523.598 295.02,-531.927 305.333,-529.499 301.567,-523.598"/>
</g>
<!-- Node12 -->
<g id="node12" class="node"><title>Node12</title>
<g id="a_node12"><a xlink:href="classMezzanine_1_1Scripting_1_1iScriptCompilationManager.html" target="_top" xlink:title="What a scripting manager should look like. ">
<polygon fill="white" stroke="black" points="544,-526.5 544,-556.5 684,-556.5 684,-526.5 544,-526.5"/>
<text text-anchor="start" x="552" y="-544.5" font-family="Helvetica,sans-Serif" font-size="10.00">Mezzanine::Scripting</text>
<text text-anchor="middle" x="614" y="-533.5" font-family="Helvetica,sans-Serif" font-size="10.00">::iScriptCompilationManager</text>
</a>
</g>
</g>
<!-- Node11&#45;&gt;Node12 -->
<g id="edge11" class="edge"><title>Node11&#45;&gt;Node12</title>
<path fill="none" stroke="midnightblue" d="M491.051,-541.5C508.085,-541.5 526.583,-541.5 543.902,-541.5"/>
<polygon fill="midnightblue" stroke="midnightblue" points="490.657,-538 480.657,-541.5 490.657,-545 490.657,-538"/>
</g>
<!-- Node13 -->
<g id="node13" class="node"><title>Node13</title>
<g id="a_node13"><a xlink:href="classMezzanine_1_1Scripting_1_1Lua_1_1Lua51ScriptingEngine.html" target="_top" xlink:title="The workhorse of the Lua scripting system. All scripts come here to be executed. ">
<polygon fill="white" stroke="black" points="720,-526.5 720,-556.5 859,-556.5 859,-526.5 720,-526.5"/>
<text text-anchor="start" x="728" y="-544.5" font-family="Helvetica,sans-Serif" font-size="10.00">Mezzanine::Scripting</text>
<text text-anchor="middle" x="789.5" y="-533.5" font-family="Helvetica,sans-Serif" font-size="10.00">::Lua::Lua51ScriptingEngine</text>
</a>
</g>
</g>
<!-- Node12&#45;&gt;Node13 -->
<g id="edge12" class="edge"><title>Node12&#45;&gt;Node13</title>
<path fill="none" stroke="midnightblue" d="M694.125,-541.5C702.747,-541.5 711.47,-541.5 719.951,-541.5"/>
<polygon fill="midnightblue" stroke="midnightblue" points="694.07,-538 684.07,-541.5 694.07,-545 694.07,-538"/>
</g>
<!-- Node16 -->
<g id="node16" class="node"><title>Node16</title>
<g id="a_node16"><a xlink:href="classMezzanine_1_1ActorManager.html" target="_top" xlink:title="A manager responsible for the storage and management of all actors that exist in a world...">
<polygon fill="white" stroke="black" points="361,-176 361,-195 492,-195 492,-176 361,-176"/>
<text text-anchor="middle" x="426.5" y="-183" font-family="Helvetica,sans-Serif" font-size="10.00">Mezzanine::ActorManager</text>
</a>
</g>
</g>
<!-- Node15&#45;&gt;Node16 -->
<g id="edge15" class="edge"><title>Node15&#45;&gt;Node16</title>
<path fill="none" stroke="midnightblue" d="M314.229,-174.194C329.718,-175.768 345.883,-177.411 360.937,-178.94"/>
<polygon fill="midnightblue" stroke="midnightblue" points="314.469,-170.701 304.166,-173.172 313.761,-177.665 314.469,-170.701"/>
</g>
<!-- Node17 -->
<g id="node17" class="node"><title>Node17</title>
<g id="a_node17"><a xlink:href="classMezzanine_1_1AreaEffectManager.html" target="_top" xlink:title="A manager responsible for the storage and management of all areaeffects in use. ">
<polygon fill="white" stroke="black" points="349.5,-138 349.5,-157 503.5,-157 503.5,-138 349.5,-138"/>
<text text-anchor="middle" x="426.5" y="-145" font-family="Helvetica,sans-Serif" font-size="10.00">Mezzanine::AreaEffectManager</text>
</a>
</g>
</g>
<!-- Node15&#45;&gt;Node17 -->
<g id="edge16" class="edge"><title>Node15&#45;&gt;Node17</title>
<path fill="none" stroke="midnightblue" d="M314.244,-158.804C325.844,-157.625 337.823,-156.408 349.43,-155.229"/>
<polygon fill="midnightblue" stroke="midnightblue" points="313.761,-155.335 304.166,-159.828 314.469,-162.299 313.761,-155.335"/>
</g>
<!-- Node18 -->
<g id="node18" class="node"><title>Node18</title>
<g id="a_node18"><a xlink:href="classMezzanine_1_1Audio_1_1SoundScapeManager.html" target="_top" xlink:title="This is the base manager class for audio being played in a 3D environment. ">
<polygon fill="white" stroke="black" points="348.5,-88.5 348.5,-118.5 504.5,-118.5 504.5,-88.5 348.5,-88.5"/>
<text text-anchor="start" x="356.5" y="-106.5" font-family="Helvetica,sans-Serif" font-size="10.00">Mezzanine::Audio::SoundScape</text>
<text text-anchor="middle" x="426.5" y="-95.5" font-family="Helvetica,sans-Serif" font-size="10.00">Manager</text>
</a>
</g>
</g>
<!-- Node15&#45;&gt;Node18 -->
<g id="edge17" class="edge"><title>Node15&#45;&gt;Node18</title>
<path fill="none" stroke="midnightblue" d="M273.849,-153.471C294.518,-145.957 321.154,-136.453 345,-128.5 354.995,-125.166 365.736,-121.73 376.012,-118.513"/>
<polygon fill="midnightblue" stroke="midnightblue" points="272.415,-150.268 264.221,-156.984 274.814,-156.844 272.415,-150.268"/>
</g>
<!-- Node19 -->
<g id="node19" class="node"><title>Node19</title>
<g id="a_node19"><a xlink:href="classMezzanine_1_1DebrisManager.html" target="_top" xlink:title="A manager responsible for the storage and management of all Debris that exist in a world...">
<polygon fill="white" stroke="black" points="358.5,-50 358.5,-69 494.5,-69 494.5,-50 358.5,-50"/>
<text text-anchor="middle" x="426.5" y="-57" font-family="Helvetica,sans-Serif" font-size="10.00">Mezzanine::DebrisManager</text>
</a>
</g>
</g>
<!-- Node15&#45;&gt;Node19 -->
<g id="edge18" class="edge"><title>Node15&#45;&gt;Node19</title>
<path fill="none" stroke="midnightblue" d="M254.246,-149.391C273.655,-129.354 308.565,-96.605 345,-78.5 352.716,-74.666 361.237,-71.5854 369.762,-69.1158"/>
<polygon fill="midnightblue" stroke="midnightblue" points="251.487,-147.214 247.143,-156.877 256.565,-152.032 251.487,-147.214"/>
</g>
<!-- Node20 -->
<g id="node20" class="node"><title>Node20</title>
<g id="a_node20"><a xlink:href="classMezzanine_1_1Graphics_1_1SceneManager.html" target="_top" xlink:title="This class contains utilities and functions to allow the manipulation of the Graphical scene...">
<polygon fill="white" stroke="black" points="372,-0.5 372,-30.5 481,-30.5 481,-0.5 372,-0.5"/>
<text text-anchor="start" x="380" y="-18.5" font-family="Helvetica,sans-Serif" font-size="10.00">Mezzanine::Graphics</text>
<text text-anchor="middle" x="426.5" y="-7.5" font-family="Helvetica,sans-Serif" font-size="10.00">::SceneManager</text>
</a>
</g>
</g>
<!-- Node15&#45;&gt;Node20 -->
<g id="edge19" class="edge"><title>Node15&#45;&gt;Node20</title>
<path fill="none" stroke="midnightblue" d="M249.273,-148.033C266.207,-120.596 301.64,-69.2248 345,-40.5 353.052,-35.1658 362.303,-30.9204 371.599,-27.5569"/>
<polygon fill="midnightblue" stroke="midnightblue" points="246.236,-146.292 244.071,-156.663 252.231,-149.905 246.236,-146.292"/>
</g>
<!-- Node21 -->
<g id="node21" class="node"><title>Node21</title>
<g id="a_node21"><a xlink:href="classMezzanine_1_1Physics_1_1PhysicsManager.html" target="_top" xlink:title="This is simply a place for storing all the Physics Related functions. ">
<polygon fill="white" stroke="black" points="374,-252.5 374,-282.5 479,-282.5 479,-252.5 374,-252.5"/>
<text text-anchor="start" x="382" y="-270.5" font-family="Helvetica,sans-Serif" font-size="10.00">Mezzanine::Physics</text>
<text text-anchor="middle" x="426.5" y="-259.5" font-family="Helvetica,sans-Serif" font-size="10.00">::PhysicsManager</text>
</a>
</g>
</g>
<!-- Node15&#45;&gt;Node21 -->
<g id="edge20" class="edge"><title>Node15&#45;&gt;Node21</title>
<path fill="none" stroke="midnightblue" d="M257.415,-182.867C277.829,-199.816 311.882,-226.073 345,-242.5 354.046,-246.987 364.064,-250.871 373.872,-254.152"/>
<polygon fill="midnightblue" stroke="midnightblue" points="259.445,-180 249.544,-176.228 254.932,-185.351 259.445,-180"/>
</g>
<!-- Node22 -->
<g id="node22" class="node"><title>Node22</title>
<g id="a_node22"><a xlink:href="classMezzanine_1_1TerrainManager.html" target="_top" xlink:title="This is manager for terrains and their functions. ">
<polygon fill="white" stroke="black" points="358,-214 358,-233 495,-233 495,-214 358,-214"/>
<text text-anchor="middle" x="426.5" y="-221" font-family="Helvetica,sans-Serif" font-size="10.00">Mezzanine::TerrainManager</text>
</a>
</g>
</g>
<!-- Node15&#45;&gt;Node22 -->
<g id="edge21" class="edge"><title>Node15&#45;&gt;Node22</title>
<path fill="none" stroke="midnightblue" d="M272.134,-179.582C292.936,-187.401 320.296,-197.202 345,-204.5 356.568,-207.917 369.211,-211.138 380.979,-213.923"/>
<polygon fill="midnightblue" stroke="midnightblue" points="273.371,-176.308 262.78,-176.033 270.888,-182.853 273.371,-176.308"/>
</g>
<!-- Node23 -->
<g id="node23" class="node"><title>Node23</title>
<g id="a_node23"><a xlink:href="classMezzanine_1_1ObjectSettingsHandler.html" target="_top" xlink:title="An abstract class for other classes that manage groups of settings. ">
<polygon fill="white" stroke="black" points="170.5,-717.5 170.5,-747.5 304.5,-747.5 304.5,-717.5 170.5,-717.5"/>
<text text-anchor="start" x="178.5" y="-735.5" font-family="Helvetica,sans-Serif" font-size="10.00">Mezzanine::ObjectSettings</text>
<text text-anchor="middle" x="237.5" y="-724.5" font-family="Helvetica,sans-Serif" font-size="10.00">Handler</text>
</a>
</g>
</g>
<!-- Node23&#45;&gt;Node3 -->
<g id="edge22" class="edge"><title>Node23&#45;&gt;Node3</title>
<path fill="none" stroke="midnightblue" d="M314.904,-732.5C324.814,-732.5 334.989,-732.5 344.964,-732.5"/>
<polygon fill="midnightblue" stroke="midnightblue" points="314.692,-729 304.692,-732.5 314.692,-736 314.692,-729"/>
</g>
<!-- Node23&#45;&gt;Node5 -->
<g id="edge23" class="edge"><title>Node23&#45;&gt;Node5</title>
<path fill="none" stroke="midnightblue" d="M305.684,-714.896C327.386,-709.209 351.146,-702.983 371.744,-697.586"/>
<polygon fill="midnightblue" stroke="midnightblue" points="304.663,-711.545 295.877,-717.465 306.438,-718.316 304.663,-711.545"/>
</g>
<!-- Node24 -->
<g id="node24" class="node"><title>Node24</title>
<g id="a_node24"><a xlink:href="classMezzanine_1_1Singleton.html" target="_top" xlink:title="Mezzanine::Singleton\l\&lt; AudioManager \&gt;">
<polygon fill="white" stroke="black" points="182.5,-766.5 182.5,-796.5 292.5,-796.5 292.5,-766.5 182.5,-766.5"/>
<text text-anchor="start" x="190.5" y="-784.5" font-family="Helvetica,sans-Serif" font-size="10.00">Mezzanine::Singleton</text>
<text text-anchor="middle" x="237.5" y="-773.5" font-family="Helvetica,sans-Serif" font-size="10.00">&lt; AudioManager &gt;</text>
</a>
</g>
</g>
<!-- Node24&#45;&gt;Node3 -->
<g id="edge24" class="edge"><title>Node24&#45;&gt;Node3</title>
<path fill="none" stroke="midnightblue" d="M302.598,-764.704C331.447,-757.145 364.453,-748.496 388.992,-742.066"/>
<polygon fill="midnightblue" stroke="midnightblue" points="301.374,-761.407 292.588,-767.327 303.149,-768.178 301.374,-761.407"/>
</g>
<!-- Node25 -->
<g id="node25" class="node"><title>Node25</title>
<g id="a_node25"><a xlink:href="classMezzanine_1_1Singleton.html" target="_top" xlink:title="Mezzanine::Singleton\l\&lt; CollisionShapeManager \&gt;">
<polygon fill="white" stroke="black" points="169,-384.5 169,-414.5 306,-414.5 306,-384.5 169,-384.5"/>
<text text-anchor="start" x="177" y="-402.5" font-family="Helvetica,sans-Serif" font-size="10.00">Mezzanine::Singleton</text>
<text text-anchor="middle" x="237.5" y="-391.5" font-family="Helvetica,sans-Serif" font-size="10.00">&lt; CollisionShapeManager &gt;</text>
</a>
</g>
</g>
<!-- Node25&#45;&gt;Node9 -->
<g id="edge25" class="edge"><title>Node25&#45;&gt;Node9</title>
<path fill="none" stroke="midnightblue" d="M316.348,-401.582C332.245,-402.007 348.764,-402.448 363.994,-402.855"/>
<polygon fill="midnightblue" stroke="midnightblue" points="316.101,-398.074 306.011,-401.305 315.914,-405.071 316.101,-398.074"/>
</g>
<!-- Node26 -->
<g id="node26" class="node"><title>Node26</title>
<g id="a_node26"><a xlink:href="classMezzanine_1_1Singleton.html" target="_top" xlink:title="Mezzanine::Singleton\l\&lt; EventManager \&gt;">
<polygon fill="white" stroke="black" points="182.5,-619.5 182.5,-649.5 292.5,-649.5 292.5,-619.5 182.5,-619.5"/>
<text text-anchor="start" x="190.5" y="-637.5" font-family="Helvetica,sans-Serif" font-size="10.00">Mezzanine::Singleton</text>
<text text-anchor="middle" x="237.5" y="-626.5" font-family="Helvetica,sans-Serif" font-size="10.00">&lt; EventManager &gt;</text>
</a>
</g>
</g>
<!-- Node26&#45;&gt;Node4 -->
<g id="edge26" class="edge"><title>Node26&#45;&gt;Node4</title>
<path fill="none" stroke="midnightblue" d="M302.665,-634.5C321.158,-634.5 341.354,-634.5 359.93,-634.5"/>
<polygon fill="midnightblue" stroke="midnightblue" points="302.588,-631 292.588,-634.5 302.588,-638 302.588,-631"/>
</g>
<!-- Node27 -->
<g id="node27" class="node"><title>Node27</title>
<g id="a_node27"><a xlink:href="classMezzanine_1_1Singleton.html" target="_top" xlink:title="Mezzanine::Singleton\l\&lt; GraphicsManager \&gt;">
<polygon fill="white" stroke="black" points="182,-668.5 182,-698.5 293,-698.5 293,-668.5 182,-668.5"/>
<text text-anchor="start" x="190" y="-686.5" font-family="Helvetica,sans-Serif" font-size="10.00">Mezzanine::Singleton</text>
<text text-anchor="middle" x="237.5" y="-675.5" font-family="Helvetica,sans-Serif" font-size="10.00">&lt; GraphicsManager &gt;</text>
</a>
</g>
</g>
<!-- Node27&#45;&gt;Node5 -->
<g id="edge27" class="edge"><title>Node27&#45;&gt;Node5</title>
<path fill="none" stroke="midnightblue" d="M303.184,-683.5C325.572,-683.5 350.402,-683.5 371.81,-683.5"/>
<polygon fill="midnightblue" stroke="midnightblue" points="303.091,-680 293.091,-683.5 303.091,-687 303.091,-680"/>
</g>
<!-- Node28 -->
<g id="node28" class="node"><title>Node28</title>
<g id="a_node28"><a xlink:href="classMezzanine_1_1Singleton.html" target="_top" xlink:title="Mezzanine::Singleton\l\&lt; InputManager \&gt;">
<polygon fill="white" stroke="black" points="182.5,-433.5 182.5,-463.5 292.5,-463.5 292.5,-433.5 182.5,-433.5"/>
<text text-anchor="start" x="190.5" y="-451.5" font-family="Helvetica,sans-Serif" font-size="10.00">Mezzanine::Singleton</text>
<text text-anchor="middle" x="237.5" y="-440.5" font-family="Helvetica,sans-Serif" font-size="10.00">&lt; InputManager &gt;</text>
</a>
</g>
</g>
<!-- Node28&#45;&gt;Node8 -->
<g id="edge28" class="edge"><title>Node28&#45;&gt;Node8</title>
<path fill="none" stroke="midnightblue" d="M302.929,-448.5C317.412,-448.5 332.929,-448.5 347.887,-448.5"/>
<polygon fill="midnightblue" stroke="midnightblue" points="302.588,-445 292.588,-448.5 302.588,-452 302.588,-445"/>
</g>
<!-- Node29 -->
<g id="node29" class="node"><title>Node29</title>
<g id="a_node29"><a xlink:href="classMezzanine_1_1Singleton.html" target="_top" xlink:title="Mezzanine::Singleton\l\&lt; MeshManager \&gt;">
<polygon fill="white" stroke="black" points="182.5,-570.5 182.5,-600.5 292.5,-600.5 292.5,-570.5 182.5,-570.5"/>
<text text-anchor="start" x="190.5" y="-588.5" font-family="Helvetica,sans-Serif" font-size="10.00">Mezzanine::Singleton</text>
<text text-anchor="middle" x="237.5" y="-577.5" font-family="Helvetica,sans-Serif" font-size="10.00">&lt; MeshManager &gt;</text>
</a>
</g>
</g>
<!-- Node29&#45;&gt;Node6 -->
<g id="edge29" class="edge"><title>Node29&#45;&gt;Node6</title>
<path fill="none" stroke="midnightblue" d="M302.737,-587.218C325.257,-587.82 350.296,-588.489 371.857,-589.066"/>
<polygon fill="midnightblue" stroke="midnightblue" points="302.678,-583.715 292.588,-586.946 302.491,-590.712 302.678,-583.715"/>
</g>
<!-- Node30 -->
<g id="node30" class="node"><title>Node30</title>
<g id="a_node30"><a xlink:href="classMezzanine_1_1Singleton.html" target="_top" xlink:title="Mezzanine::Singleton\l\&lt; ResourceManager \&gt;">
<polygon fill="white" stroke="black" points="180.5,-335.5 180.5,-365.5 294.5,-365.5 294.5,-335.5 180.5,-335.5"/>
<text text-anchor="start" x="188.5" y="-353.5" font-family="Helvetica,sans-Serif" font-size="10.00">Mezzanine::Singleton</text>
<text text-anchor="middle" x="237.5" y="-342.5" font-family="Helvetica,sans-Serif" font-size="10.00">&lt; ResourceManager &gt;</text>
</a>
</g>
</g>
<!-- Node30&#45;&gt;Node10 -->
<g id="edge30" class="edge"><title>Node30&#45;&gt;Node10</title>
<path fill="none" stroke="midnightblue" d="M304.646,-352.269C326.157,-352.844 349.785,-353.476 370.399,-354.027"/>
<polygon fill="midnightblue" stroke="midnightblue" points="304.696,-348.769 294.606,-352 304.509,-355.766 304.696,-348.769"/>
</g>
<!-- Node31 -->
<g id="node31" class="node"><title>Node31</title>
<g id="a_node31"><a xlink:href="classMezzanine_1_1Singleton.html" target="_top" xlink:title="Mezzanine::Singleton\l\&lt; TextureManager \&gt;">
<polygon fill="white" stroke="black" points="182.5,-482.5 182.5,-512.5 292.5,-512.5 292.5,-482.5 182.5,-482.5"/>
<text text-anchor="start" x="190.5" y="-500.5" font-family="Helvetica,sans-Serif" font-size="10.00">Mezzanine::Singleton</text>
<text text-anchor="middle" x="237.5" y="-489.5" font-family="Helvetica,sans-Serif" font-size="10.00">&lt; TextureManager &gt;</text>
</a>
</g>
</g>
<!-- Node31&#45;&gt;Node7 -->
<g id="edge31" class="edge"><title>Node31&#45;&gt;Node7</title>
<path fill="none" stroke="midnightblue" d="M302.737,-495.782C325.257,-495.18 350.296,-494.511 371.857,-493.934"/>
<polygon fill="midnightblue" stroke="midnightblue" points="302.491,-492.288 292.588,-496.054 302.678,-499.285 302.491,-492.288"/>
</g>
<!-- Node32 -->
<g id="node32" class="node"><title>Node32</title>
<g id="a_node32"><a xlink:href="classMezzanine_1_1Singleton.html" target="_top" xlink:title="Mezzanine::Singleton\l\&lt; UIManager \&gt;">
<polygon fill="white" stroke="black" points="182.5,-286.5 182.5,-316.5 292.5,-316.5 292.5,-286.5 182.5,-286.5"/>
<text text-anchor="start" x="190.5" y="-304.5" font-family="Helvetica,sans-Serif" font-size="10.00">Mezzanine::Singleton</text>
<text text-anchor="middle" x="237.5" y="-293.5" font-family="Helvetica,sans-Serif" font-size="10.00">&lt; UIManager &gt;</text>
</a>
</g>
</g>
<!-- Node32&#45;&gt;Node14 -->
<g id="edge32" class="edge"><title>Node32&#45;&gt;Node14</title>
<path fill="none" stroke="midnightblue" d="M302.814,-304.939C321.041,-305.914 340.913,-306.977 359.252,-307.957"/>
<polygon fill="midnightblue" stroke="midnightblue" points="302.761,-301.431 292.588,-304.392 302.387,-308.422 302.761,-301.431"/>
</g>
</g>
</svg>
