<?xml version="1.0" encoding="UTF-8" standalone="no"?>
<!DOCTYPE svg PUBLIC "-//W3C//DTD SVG 1.1//EN"
 "http://www.w3.org/Graphics/SVG/1.1/DTD/svg11.dtd">
<!-- Generated by graphviz version 2.36.0 (20140111.2315)
 -->
<!-- Title: Graphical Class Hierarchy Pages: 1 -->
<svg width="306pt" height="87pt"
 viewBox="0.00 0.00 306.00 87.00" xmlns="http://www.w3.org/2000/svg" xmlns:xlink="http://www.w3.org/1999/xlink">
<g id="graph0" class="graph" transform="scale(1 1) rotate(0) translate(4 83)">
<title>Graphical Class Hierarchy</title>
<polygon fill="white" stroke="none" points="-4,4 -4,-83 302,-83 302,4 -4,4"/>
<!-- Node1 -->
<g id="node1" class="node"><title>Node1</title>
<g id="a_node1"><a xlink:href="classMezzanine_1_1UI_1_1TextLine.html" target="_top" xlink:title="This represents a single line of text to be rendered by a TextLayer. ">
<polygon fill="white" stroke="black" points="0,-29.5 0,-48.5 124,-48.5 124,-29.5 0,-29.5"/>
<text text-anchor="middle" x="62" y="-36.5" font-family="Helvetica,sans-Serif" font-size="10.00">Mezzanine::UI::TextLine</text>
</a>
</g>
</g>
<!-- Node2 -->
<g id="node2" class="node"><title>Node2</title>
<g id="a_node2"><a xlink:href="classMezzanine_1_1UI_1_1LeftToRightTextLine.html" target="_top" xlink:title="This is a TextLine specialization class for text read from the left to the right. ...">
<polygon fill="white" stroke="black" points="160.5,-49 160.5,-79 297.5,-79 297.5,-49 160.5,-49"/>
<text text-anchor="start" x="168.5" y="-67" font-family="Helvetica,sans-Serif" font-size="10.00">Mezzanine::UI::LeftToRight</text>
<text text-anchor="middle" x="229" y="-56" font-family="Helvetica,sans-Serif" font-size="10.00">TextLine</text>
</a>
</g>
</g>
<!-- Node1&#45;&gt;Node2 -->
<g id="edge1" class="edge"><title>Node1&#45;&gt;Node2</title>
<path fill="none" stroke="midnightblue" d="M134.457,-49.8268C143.073,-51.1323 151.853,-52.4626 160.412,-53.7594"/>
<polygon fill="midnightblue" stroke="midnightblue" points="134.851,-46.3467 124.44,-48.3091 133.803,-53.2677 134.851,-46.3467"/>
</g>
<!-- Node3 -->
<g id="node3" class="node"><title>Node3</title>
<g id="a_node3"><a xlink:href="classMezzanine_1_1UI_1_1RightToLeftTextLine.html" target="_top" xlink:title="This is a TextLine specialization class for text read from the right to the left. ...">
<polygon fill="white" stroke="black" points="160.5,-0 160.5,-30 297.5,-30 297.5,-0 160.5,-0"/>
<text text-anchor="start" x="168.5" y="-18" font-family="Helvetica,sans-Serif" font-size="10.00">Mezzanine::UI::RightToLeft</text>
<text text-anchor="middle" x="229" y="-7" font-family="Helvetica,sans-Serif" font-size="10.00">TextLine</text>
</a>
</g>
</g>
<!-- Node1&#45;&gt;Node3 -->
<g id="edge2" class="edge"><title>Node1&#45;&gt;Node3</title>
<path fill="none" stroke="midnightblue" d="M134.457,-28.6063C143.073,-27.353 151.853,-26.0759 160.412,-24.831"/>
<polygon fill="midnightblue" stroke="midnightblue" points="133.832,-25.1602 124.44,-30.0633 134.84,-32.0874 133.832,-25.1602"/>
</g>
</g>
</svg>
