<?xml version="1.0" encoding="UTF-8" standalone="no"?>
<!DOCTYPE svg PUBLIC "-//W3C//DTD SVG 1.1//EN"
 "http://www.w3.org/Graphics/SVG/1.1/DTD/svg11.dtd">
<!-- Generated by graphviz version 2.36.0 (20140111.2315)
 -->
<!-- Title: Graphical Class Hierarchy Pages: 1 -->
<svg width="320pt" height="115pt"
 viewBox="0.00 0.00 320.00 115.00" xmlns="http://www.w3.org/2000/svg" xmlns:xlink="http://www.w3.org/1999/xlink">
<g id="graph0" class="graph" transform="scale(1 1) rotate(0) translate(4 111)">
<title>Graphical Class Hierarchy</title>
<polygon fill="white" stroke="none" points="-4,4 -4,-111 316,-111 316,4 -4,4"/>
<!-- Node1 -->
<g id="node1" class="node"><title>Node1</title>
<g id="a_node1"><a xlink:href="classMezzanine_1_1XML_1_1Writer.html" target="_top" xlink:title="Interface for node printing (see Node::Print) ">
<polygon fill="white" stroke="black" points="0,-49.5 0,-68.5 122,-68.5 122,-49.5 0,-49.5"/>
<text text-anchor="middle" x="61" y="-56.5" font-family="Helvetica,sans-Serif" font-size="10.00">Mezzanine::XML::Writer</text>
</a>
</g>
</g>
<!-- Node2 -->
<g id="node2" class="node"><title>Node2</title>
<g id="a_node2"><a xlink:href="classMezzanine_1_1XML_1_1WriterFile.html" target="_top" xlink:title="An implementation of Writer intended for writing to FILEs as defined in stdio. ">
<polygon fill="white" stroke="black" points="166,-87.5 166,-106.5 304,-106.5 304,-87.5 166,-87.5"/>
<text text-anchor="middle" x="235" y="-94.5" font-family="Helvetica,sans-Serif" font-size="10.00">Mezzanine::XML::WriterFile</text>
</a>
</g>
</g>
<!-- Node1&#45;&gt;Node2 -->
<g id="edge1" class="edge"><title>Node1&#45;&gt;Node2</title>
<path fill="none" stroke="midnightblue" d="M115.196,-70.7526C139.517,-76.1258 167.955,-82.4086 190.909,-87.4799"/>
<polygon fill="midnightblue" stroke="midnightblue" points="115.922,-67.3288 105.403,-68.589 114.412,-74.164 115.922,-67.3288"/>
</g>
<!-- Node3 -->
<g id="node3" class="node"><title>Node3</title>
<g id="a_node3"><a xlink:href="classMezzanine_1_1XML_1_1WriterStream.html" target="_top" xlink:title="An implementation of Writer intended for writing std::ostreams. ">
<polygon fill="white" stroke="black" points="158,-49.5 158,-68.5 312,-68.5 312,-49.5 158,-49.5"/>
<text text-anchor="middle" x="235" y="-56.5" font-family="Helvetica,sans-Serif" font-size="10.00">Mezzanine::XML::WriterStream</text>
</a>
</g>
</g>
<!-- Node1&#45;&gt;Node3 -->
<g id="edge2" class="edge"><title>Node1&#45;&gt;Node3</title>
<path fill="none" stroke="midnightblue" d="M132.303,-59C140.723,-59 149.352,-59 157.85,-59"/>
<polygon fill="midnightblue" stroke="midnightblue" points="132.157,-55.5001 122.157,-59 132.157,-62.5001 132.157,-55.5001"/>
</g>
<!-- Node4 -->
<g id="node4" class="node"><title>Node4</title>
<g id="a_node4"><a xlink:href="classMezzanine_1_1XML_1_1XMLStreamWrapper.html" target="_top" xlink:title="This represents a simple wrapper that makes data streams compatible with the XML API. ">
<polygon fill="white" stroke="black" points="161,-0 161,-30 309,-30 309,-0 161,-0"/>
<text text-anchor="start" x="169" y="-18" font-family="Helvetica,sans-Serif" font-size="10.00">Mezzanine::XML::XMLStream</text>
<text text-anchor="middle" x="235" y="-7" font-family="Helvetica,sans-Serif" font-size="10.00">Wrapper</text>
</a>
</g>
</g>
<!-- Node1&#45;&gt;Node4 -->
<g id="edge3" class="edge"><title>Node1&#45;&gt;Node4</title>
<path fill="none" stroke="midnightblue" d="M109.011,-46.9739C129.413,-41.7547 153.529,-35.5856 175.108,-30.0654"/>
<polygon fill="midnightblue" stroke="midnightblue" points="108.142,-43.5834 99.3214,-49.4527 109.877,-50.3651 108.142,-43.5834"/>
</g>
</g>
</svg>
