<?xml version="1.0" encoding="UTF-8" standalone="no"?>
<!DOCTYPE svg PUBLIC "-//W3C//DTD SVG 1.1//EN"
 "http://www.w3.org/Graphics/SVG/1.1/DTD/svg11.dtd">
<!-- Generated by graphviz version 2.26.3 (20100126.1600)
 -->
<!-- Title: Graphical Class Hierarchy Pages: 1 -->
<svg width="468pt" height="40pt"
 viewBox="0.00 0.00 468.00 40.00" xmlns="http://www.w3.org/2000/svg" xmlns:xlink="http://www.w3.org/1999/xlink">
<g id="graph1" class="graph" transform="scale(1 1) rotate(0) translate(4 36)">
<title>Graphical Class Hierarchy</title>
<polygon fill="white" stroke="white" points="-4,5 -4,-36 465,-36 465,5 -4,5"/>
<!-- Node1 -->
<g id="node1" class="node"><title>Node1</title>
<a xlink:href="classMezzanine_1_1TrackBase.html" target="_top" xlink:title="A base type that provides container features for different tracks.">
<polygon fill="white" stroke="black" points="0.5,-0 0.5,-32 113.5,-32 113.5,-0 0.5,-0"/>
<text text-anchor="start" x="8.5" y="-19" font-family="FreeSans" font-size="10.00">Mezzanine::TrackBase</text>
<text text-anchor="middle" x="57" y="-7" font-family="FreeSans" font-size="10.00">&lt; InterpolatorType &gt;</text>
</a>
</g>
<!-- Node2 -->
<g id="node3" class="node"><title>Node2</title>
<a xlink:href="classMezzanine_1_1Track.html" target="_top" xlink:title="Mezzanine::Track\&lt; Interpolator\lType \&gt;">
<polygon fill="white" stroke="black" points="150.5,-0 150.5,-32 299.5,-32 299.5,-0 150.5,-0"/>
<text text-anchor="start" x="158.5" y="-19" font-family="FreeSans" font-size="10.00">Mezzanine::Track&lt; Interpolator</text>
<text text-anchor="middle" x="225" y="-7" font-family="FreeSans" font-size="10.00">Type &gt;</text>
</a>
</g>
<!-- Node1&#45;&gt;Node2 -->
<g id="edge2" class="edge"><title>Node1&#45;&gt;Node2</title>
<path fill="none" stroke="midnightblue" d="M123.92,-16C132.594,-16 141.521,-16 150.311,-16"/>
<polygon fill="midnightblue" stroke="midnightblue" points="123.877,-12.5001 113.877,-16 123.877,-19.5001 123.877,-12.5001"/>
</g>
<!-- Node3 -->
<g id="node5" class="node"><title>Node3</title>
<a xlink:href="classMezzanine_1_1TrackLooped.html" target="_top" xlink:title="A track that keeps an extra data point in the track to make sure it loops.">
<polygon fill="white" stroke="black" points="336.5,-0 336.5,-32 459.5,-32 459.5,-0 336.5,-0"/>
<text text-anchor="start" x="344.5" y="-19" font-family="FreeSans" font-size="10.00">Mezzanine::TrackLooped</text>
<text text-anchor="middle" x="398" y="-7" font-family="FreeSans" font-size="10.00">&lt; InterpolatorType &gt;</text>
</a>
</g>
<!-- Node2&#45;&gt;Node3 -->
<g id="edge4" class="edge"><title>Node2&#45;&gt;Node3</title>
<path fill="none" stroke="midnightblue" d="M309.727,-16C318.705,-16 327.708,-16 336.349,-16"/>
<polygon fill="midnightblue" stroke="midnightblue" points="309.623,-12.5001 299.623,-16 309.623,-19.5001 309.623,-12.5001"/>
</g>
</g>
</svg>
