<?xml version="1.0" encoding="UTF-8" standalone="no"?>
<!DOCTYPE svg PUBLIC "-//W3C//DTD SVG 1.1//EN"
 "http://www.w3.org/Graphics/SVG/1.1/DTD/svg11.dtd">
<!-- Generated by graphviz version 2.26.3 (20100126.1600)
 -->
<!-- Title: Graphical Class Hierarchy Pages: 1 -->
<svg width="346pt" height="94pt"
 viewBox="0.00 0.00 346.00 94.00" xmlns="http://www.w3.org/2000/svg" xmlns:xlink="http://www.w3.org/1999/xlink">
<g id="graph1" class="graph" transform="scale(1 1) rotate(0) translate(4 90)">
<title>Graphical Class Hierarchy</title>
<polygon fill="white" stroke="white" points="-4,5 -4,-90 343,-90 343,5 -4,5"/>
<!-- Node1 -->
<g id="node1" class="node"><title>Node1</title>
<a xlink:href="classMezzanine_1_1UI_1_1LayoutStrategy.html" target="_top" xlink:title="This is a base class for the algorithms used by QuadRenderables to determine how they should update t...">
<polygon fill="white" stroke="black" points="0,-32.5 0,-53.5 152,-53.5 152,-32.5 0,-32.5"/>
<text text-anchor="middle" x="76" y="-40.5" font-family="Helvetica,sans-Serif" font-size="10.00">Mezzanine::UI::LayoutStrategy</text>
</a>
</g>
<!-- Node2 -->
<g id="node3" class="node"><title>Node2</title>
<a xlink:href="classMezzanine_1_1UI_1_1HorizontalLayoutStrategy.html" target="_top" xlink:title="This is a specialization of a layout strategy where a group of quads are sized and placed in a linear...">
<polygon fill="white" stroke="black" points="197.5,-52 197.5,-86 328.5,-86 328.5,-52 197.5,-52"/>
<text text-anchor="start" x="205.5" y="-73" font-family="Helvetica,sans-Serif" font-size="10.00">Mezzanine::UI::Horizontal</text>
<text text-anchor="middle" x="263" y="-60" font-family="Helvetica,sans-Serif" font-size="10.00">LayoutStrategy</text>
</a>
</g>
<!-- Node1&#45;&gt;Node2 -->
<g id="edge2" class="edge"><title>Node1&#45;&gt;Node2</title>
<path fill="none" stroke="midnightblue" d="M161.576,-54.8983C173.617,-56.5724 185.835,-58.2711 197.422,-59.8822"/>
<polygon fill="midnightblue" stroke="midnightblue" points="161.908,-51.4108 151.521,-53.5003 160.944,-58.3441 161.908,-51.4108"/>
</g>
<!-- Node3 -->
<g id="node5" class="node"><title>Node3</title>
<a xlink:href="classMezzanine_1_1UI_1_1VerticalLayoutStrategy.html" target="_top" xlink:title="This is a specialization of a layout strategy where a group of quads are sized and placed in a linear...">
<polygon fill="white" stroke="black" points="188.5,-0 188.5,-34 337.5,-34 337.5,-0 188.5,-0"/>
<text text-anchor="start" x="196.5" y="-21" font-family="Helvetica,sans-Serif" font-size="10.00">Mezzanine::UI::VerticalLayout</text>
<text text-anchor="middle" x="263" y="-8" font-family="Helvetica,sans-Serif" font-size="10.00">Strategy</text>
</a>
</g>
<!-- Node1&#45;&gt;Node3 -->
<g id="edge4" class="edge"><title>Node1&#45;&gt;Node3</title>
<path fill="none" stroke="midnightblue" d="M161.576,-31.1017C170.535,-29.8561 179.591,-28.597 188.413,-27.3705"/>
<polygon fill="midnightblue" stroke="midnightblue" points="160.944,-27.6559 151.521,-32.4997 161.908,-34.5892 160.944,-27.6559"/>
</g>
</g>
</svg>
