<?xml version="1.0" encoding="UTF-8" standalone="no"?>
<!DOCTYPE svg PUBLIC "-//W3C//DTD SVG 1.1//EN"
 "http://www.w3.org/Graphics/SVG/1.1/DTD/svg11.dtd">
<!-- Generated by graphviz version 2.38.0 (20140413.2041)
 -->
<!-- Title: Graphical Class Hierarchy Pages: 1 -->
<svg width="328pt" height="66pt"
 viewBox="0.00 0.00 328.00 66.00" xmlns="http://www.w3.org/2000/svg" xmlns:xlink="http://www.w3.org/1999/xlink">
<g id="graph0" class="graph" transform="scale(1 1) rotate(0) translate(4 62)">
<title>Graphical Class Hierarchy</title>
<polygon fill="white" stroke="none" points="-4,4 -4,-62 324,-62 324,4 -4,4"/>
<!-- Node1 -->
<g id="node1" class="node"><title>Node1</title>
<g id="a_node1"><a xlink:href="classMezzanine_1_1AttachableBase.html" target="_top" xlink:title="This class is the base class for other attachable classes and is responsible for transform updates to...">
<polygon fill="white" stroke="black" points="0,-19.5 0,-38.5 139,-38.5 139,-19.5 0,-19.5"/>
<text text-anchor="middle" x="69.5" y="-26.5" font-family="Helvetica,sans-Serif" font-size="10.00">Mezzanine::AttachableBase</text>
</a>
</g>
</g>
<!-- Node2 -->
<g id="node2" class="node"><title>Node2</title>
<g id="a_node2"><a xlink:href="classMezzanine_1_1AttachableChild.html" target="_top" xlink:title="This class is the base class for objects that can be attached to AttachableParent. ">
<polygon fill="white" stroke="black" points="178,-38.5 178,-57.5 317,-57.5 317,-38.5 178,-38.5"/>
<text text-anchor="middle" x="247.5" y="-45.5" font-family="Helvetica,sans-Serif" font-size="10.00">Mezzanine::AttachableChild</text>
</a>
</g>
</g>
<!-- Node1&#45;&gt;Node2 -->
<g id="edge1" class="edge"><title>Node1&#45;&gt;Node2</title>
<path fill="none" stroke="midnightblue" d="M148.999,-37.4743C158.617,-38.5127 168.389,-39.5676 177.847,-40.5886"/>
<polygon fill="midnightblue" stroke="midnightblue" points="149.368,-33.9939 139.05,-36.4003 148.617,-40.9535 149.368,-33.9939"/>
</g>
<!-- Node3 -->
<g id="node3" class="node"><title>Node3</title>
<g id="a_node3"><a xlink:href="classMezzanine_1_1AttachableParent.html" target="_top" xlink:title="Base class for objects that can have attachables attached to them. ">
<polygon fill="white" stroke="black" points="175,-0.5 175,-19.5 320,-19.5 320,-0.5 175,-0.5"/>
<text text-anchor="middle" x="247.5" y="-7.5" font-family="Helvetica,sans-Serif" font-size="10.00">Mezzanine::AttachableParent</text>
</a>
</g>
</g>
<!-- Node1&#45;&gt;Node3 -->
<g id="edge2" class="edge"><title>Node1&#45;&gt;Node3</title>
<path fill="none" stroke="midnightblue" d="M149.082,-20.5168C157.692,-19.5873 166.423,-18.6446 174.942,-17.725"/>
<polygon fill="midnightblue" stroke="midnightblue" points="148.617,-17.0465 139.05,-21.5997 149.368,-24.0061 148.617,-17.0465"/>
</g>
</g>
</svg>
