<?xml version="1.0" encoding="UTF-8" standalone="no"?>
<!DOCTYPE svg PUBLIC "-//W3C//DTD SVG 1.1//EN"
 "http://www.w3.org/Graphics/SVG/1.1/DTD/svg11.dtd">
<!-- Generated by graphviz version 2.26.3 (20100126.1600)
 -->
<!-- Title: /home/sqeaky/Code/Mezzanine/Mezzanine/src/Graphics/lightproxy.h Pages: 1 -->
<svg width="506pt" height="284pt"
 viewBox="0.00 0.00 506.00 284.00" xmlns="http://www.w3.org/2000/svg" xmlns:xlink="http://www.w3.org/1999/xlink">
<g id="graph1" class="graph" transform="scale(1 1) rotate(0) translate(4 280)">
<title>/home/sqeaky/Code/Mezzanine/Mezzanine/src/Graphics/lightproxy.h</title>
<polygon fill="white" stroke="white" points="-4,5 -4,-280 503,-280 503,5 -4,5"/>
<!-- Node1 -->
<g id="node1" class="node"><title>Node1</title>
<polygon fill="#bfbfbf" stroke="black" points="171.5,-228.5 171.5,-275.5 326.5,-275.5 326.5,-228.5 171.5,-228.5"/>
<text text-anchor="start" x="179.5" y="-262.5" font-family="Helvetica,sans-Serif" font-size="10.00">/home/sqeaky/Code/Mezzanine</text>
<text text-anchor="start" x="179.5" y="-249.5" font-family="Helvetica,sans-Serif" font-size="10.00">/Mezzanine/src/Graphics</text>
<text text-anchor="middle" x="249" y="-236.5" font-family="Helvetica,sans-Serif" font-size="10.00">/lightproxy.h</text>
</g>
<!-- Node2 -->
<g id="node3" class="node"><title>Node2</title>
<a xlink:href="graphics_8h_source.html" target="_top" xlink:title="/home/sqeaky/Code/Mezzanine\l/Mezzanine/src/Graphics\l/graphics.h">
<polygon fill="white" stroke="black" points="-0.5,-144.5 -0.5,-191.5 154.5,-191.5 154.5,-144.5 -0.5,-144.5"/>
<text text-anchor="start" x="7.5" y="-178.5" font-family="Helvetica,sans-Serif" font-size="10.00">/home/sqeaky/Code/Mezzanine</text>
<text text-anchor="start" x="7.5" y="-165.5" font-family="Helvetica,sans-Serif" font-size="10.00">/Mezzanine/src/Graphics</text>
<text text-anchor="middle" x="77" y="-152.5" font-family="Helvetica,sans-Serif" font-size="10.00">/graphics.h</text>
</a>
</g>
<!-- Node1&#45;&gt;Node2 -->
<g id="edge2" class="edge"><title>Node1&#45;&gt;Node2</title>
<path fill="none" stroke="midnightblue" d="M191.598,-223.967C170.096,-213.465 145.902,-201.65 125.304,-191.59"/>
<polygon fill="midnightblue" stroke="midnightblue" points="190.109,-227.134 200.631,-228.378 193.181,-220.844 190.109,-227.134"/>
</g>
<!-- Node5 -->
<g id="node9" class="node"><title>Node5</title>
<a xlink:href="lightproxy_8cpp.html" target="_top" xlink:title="This file contains the implementation for the World proxy wrapping light functionality. ">
<polygon fill="white" stroke="black" points="171.5,-144.5 171.5,-191.5 326.5,-191.5 326.5,-144.5 171.5,-144.5"/>
<text text-anchor="start" x="179.5" y="-178.5" font-family="Helvetica,sans-Serif" font-size="10.00">/home/sqeaky/Code/Mezzanine</text>
<text text-anchor="start" x="179.5" y="-165.5" font-family="Helvetica,sans-Serif" font-size="10.00">/Mezzanine/src/Graphics</text>
<text text-anchor="middle" x="249" y="-152.5" font-family="Helvetica,sans-Serif" font-size="10.00">/lightproxy.cpp</text>
</a>
</g>
<!-- Node1&#45;&gt;Node5 -->
<g id="edge8" class="edge"><title>Node1&#45;&gt;Node5</title>
<path fill="none" stroke="midnightblue" d="M249,-218.066C249,-209.193 249,-199.821 249,-191.615"/>
<polygon fill="midnightblue" stroke="midnightblue" points="245.5,-218.154 249,-228.154 252.5,-218.154 245.5,-218.154"/>
</g>
<!-- Node6 -->
<g id="node11" class="node"><title>Node6</title>
<a xlink:href="scenemanager_8cpp_source.html" target="_top" xlink:title="/home/sqeaky/Code/Mezzanine\l/Mezzanine/src/Graphics\l/scenemanager.cpp">
<polygon fill="white" stroke="black" points="343.5,-144.5 343.5,-191.5 498.5,-191.5 498.5,-144.5 343.5,-144.5"/>
<text text-anchor="start" x="351.5" y="-178.5" font-family="Helvetica,sans-Serif" font-size="10.00">/home/sqeaky/Code/Mezzanine</text>
<text text-anchor="start" x="351.5" y="-165.5" font-family="Helvetica,sans-Serif" font-size="10.00">/Mezzanine/src/Graphics</text>
<text text-anchor="middle" x="421" y="-152.5" font-family="Helvetica,sans-Serif" font-size="10.00">/scenemanager.cpp</text>
</a>
</g>
<!-- Node1&#45;&gt;Node6 -->
<g id="edge10" class="edge"><title>Node1&#45;&gt;Node6</title>
<path fill="none" stroke="midnightblue" d="M306.402,-223.967C327.904,-213.465 352.098,-201.65 372.696,-191.59"/>
<polygon fill="midnightblue" stroke="midnightblue" points="304.819,-220.844 297.369,-228.378 307.891,-227.134 304.819,-220.844"/>
</g>
<!-- Node3 -->
<g id="node5" class="node"><title>Node3</title>
<a xlink:href="mezzanine_8h.html" target="_top" xlink:title="A single file that includes all of the Mezzanine engine. ">
<polygon fill="white" stroke="black" points="-0.5,-73 -0.5,-107 154.5,-107 154.5,-73 -0.5,-73"/>
<text text-anchor="start" x="7.5" y="-94" font-family="Helvetica,sans-Serif" font-size="10.00">/home/sqeaky/Code/Mezzanine</text>
<text text-anchor="middle" x="77" y="-81" font-family="Helvetica,sans-Serif" font-size="10.00">/Mezzanine/src/mezzanine.h</text>
</a>
</g>
<!-- Node2&#45;&gt;Node3 -->
<g id="edge4" class="edge"><title>Node2&#45;&gt;Node3</title>
<path fill="none" stroke="midnightblue" d="M77,-133.93C77,-124.611 77,-114.911 77,-107.003"/>
<polygon fill="midnightblue" stroke="midnightblue" points="73.5001,-134.174 77,-144.174 80.5001,-134.174 73.5001,-134.174"/>
</g>
<!-- Node4 -->
<g id="node7" class="node"><title>Node4</title>
<a xlink:href="entresol_8cpp_source.html" target="_top" xlink:title="/home/sqeaky/Code/Mezzanine\l/Mezzanine/src/entresol.cpp">
<polygon fill="white" stroke="black" points="-0.5,-1 -0.5,-35 154.5,-35 154.5,-1 -0.5,-1"/>
<text text-anchor="start" x="7.5" y="-22" font-family="Helvetica,sans-Serif" font-size="10.00">/home/sqeaky/Code/Mezzanine</text>
<text text-anchor="middle" x="77" y="-9" font-family="Helvetica,sans-Serif" font-size="10.00">/Mezzanine/src/entresol.cpp</text>
</a>
</g>
<!-- Node3&#45;&gt;Node4 -->
<g id="edge6" class="edge"><title>Node3&#45;&gt;Node4</title>
<path fill="none" stroke="midnightblue" d="M77,-62.7193C77,-53.572 77,-43.6255 77,-35.4407"/>
<polygon fill="midnightblue" stroke="midnightblue" points="73.5001,-62.937 77,-72.937 80.5001,-62.937 73.5001,-62.937"/>
</g>
</g>
</svg>
