<?xml version="1.0" encoding="UTF-8" standalone="no"?>
<!DOCTYPE svg PUBLIC "-//W3C//DTD SVG 1.1//EN"
 "http://www.w3.org/Graphics/SVG/1.1/DTD/svg11.dtd">
<!-- Generated by graphviz version 2.38.0 (20140413.2041)
 -->
<!-- Title: /home/sqeaky/Code/MezzanineFresh/Mezzanine/src/Scripting/Lua51/lua51scriptargument.h Pages: 1 -->
<svg width="690pt" height="195pt"
 viewBox="0.00 0.00 689.50 195.00" xmlns="http://www.w3.org/2000/svg" xmlns:xlink="http://www.w3.org/1999/xlink">
<g id="graph0" class="graph" transform="scale(1 1) rotate(0) translate(4 191)">
<title>/home/sqeaky/Code/MezzanineFresh/Mezzanine/src/Scripting/Lua51/lua51scriptargument.h</title>
<polygon fill="white" stroke="none" points="-4,4 -4,-191 685.5,-191 685.5,4 -4,4"/>
<!-- Node1 -->
<g id="node1" class="node"><title>Node1</title>
<polygon fill="#bfbfbf" stroke="black" points="265,-145.5 265,-186.5 420,-186.5 420,-145.5 265,-145.5"/>
<text text-anchor="start" x="273" y="-174.5" font-family="Helvetica,sans-Serif" font-size="10.00">/home/sqeaky/Code/Mezzanine</text>
<text text-anchor="start" x="273" y="-163.5" font-family="Helvetica,sans-Serif" font-size="10.00">Fresh/Mezzanine/src/Scripting</text>
<text text-anchor="middle" x="342.5" y="-152.5" font-family="Helvetica,sans-Serif" font-size="10.00">/Lua51/lua51scriptargument.h</text>
</g>
<!-- Node2 -->
<g id="node2" class="node"><title>Node2</title>
<g id="a_node2"><a xlink:href="scripting_8h_source.html" target="_top" xlink:title="/home/sqeaky/Code/Mezzanine\lFresh/Mezzanine/src/Scripting\l/scripting.h">
<polygon fill="white" stroke="black" points="6,-67.5 6,-108.5 161,-108.5 161,-67.5 6,-67.5"/>
<text text-anchor="start" x="14" y="-96.5" font-family="Helvetica,sans-Serif" font-size="10.00">/home/sqeaky/Code/Mezzanine</text>
<text text-anchor="start" x="14" y="-85.5" font-family="Helvetica,sans-Serif" font-size="10.00">Fresh/Mezzanine/src/Scripting</text>
<text text-anchor="middle" x="83.5" y="-74.5" font-family="Helvetica,sans-Serif" font-size="10.00">/scripting.h</text>
</a>
</g>
</g>
<!-- Node1&#45;&gt;Node2 -->
<g id="edge1" class="edge"><title>Node1&#45;&gt;Node2</title>
<path fill="none" stroke="midnightblue" d="M266.097,-142.58C229.236,-131.764 185.435,-118.911 149.973,-108.506"/>
<polygon fill="midnightblue" stroke="midnightblue" points="265.22,-145.971 275.801,-145.428 267.191,-139.254 265.22,-145.971"/>
</g>
<!-- Node4 -->
<g id="node4" class="node"><title>Node4</title>
<g id="a_node4"><a xlink:href="lua51script_8cpp.html" target="_top" xlink:title="This file has the implemetation for the Lua script storage. ">
<polygon fill="white" stroke="black" points="179,-67.5 179,-108.5 334,-108.5 334,-67.5 179,-67.5"/>
<text text-anchor="start" x="187" y="-96.5" font-family="Helvetica,sans-Serif" font-size="10.00">/home/sqeaky/Code/Mezzanine</text>
<text text-anchor="start" x="187" y="-85.5" font-family="Helvetica,sans-Serif" font-size="10.00">Fresh/Mezzanine/src/Scripting</text>
<text text-anchor="middle" x="256.5" y="-74.5" font-family="Helvetica,sans-Serif" font-size="10.00">/Lua51/lua51script.cpp</text>
</a>
</g>
</g>
<!-- Node1&#45;&gt;Node4 -->
<g id="edge3" class="edge"><title>Node1&#45;&gt;Node4</title>
<path fill="none" stroke="midnightblue" d="M312.828,-138.779C301.586,-128.843 288.994,-117.716 278.572,-108.506"/>
<polygon fill="midnightblue" stroke="midnightblue" points="310.542,-141.429 320.353,-145.428 315.177,-136.183 310.542,-141.429"/>
</g>
<!-- Node5 -->
<g id="node5" class="node"><title>Node5</title>
<g id="a_node5"><a xlink:href="lua51scriptargument_8cpp.html" target="_top" xlink:title="This file has the implementation for the Lua script argument. ">
<polygon fill="white" stroke="black" points="352,-67.5 352,-108.5 507,-108.5 507,-67.5 352,-67.5"/>
<text text-anchor="start" x="360" y="-96.5" font-family="Helvetica,sans-Serif" font-size="10.00">/home/sqeaky/Code/Mezzanine</text>
<text text-anchor="start" x="360" y="-85.5" font-family="Helvetica,sans-Serif" font-size="10.00">Fresh/Mezzanine/src/Scripting</text>
<text text-anchor="middle" x="429.5" y="-74.5" font-family="Helvetica,sans-Serif" font-size="10.00">/Lua51/lua51scriptargument.cpp</text>
</a>
</g>
</g>
<!-- Node1&#45;&gt;Node5 -->
<g id="edge4" class="edge"><title>Node1&#45;&gt;Node5</title>
<path fill="none" stroke="midnightblue" d="M372.517,-138.779C383.89,-128.843 396.628,-117.716 407.171,-108.506"/>
<polygon fill="midnightblue" stroke="midnightblue" points="370.133,-136.213 364.905,-145.428 374.738,-141.485 370.133,-136.213"/>
</g>
<!-- Node6 -->
<g id="node6" class="node"><title>Node6</title>
<g id="a_node6"><a xlink:href="lua51scriptingengine_8cpp.html" target="_top" xlink:title="This file has the implementation for the Lua based Scripting system. ">
<polygon fill="white" stroke="black" points="525.5,-67.5 525.5,-108.5 681.5,-108.5 681.5,-67.5 525.5,-67.5"/>
<text text-anchor="start" x="533.5" y="-96.5" font-family="Helvetica,sans-Serif" font-size="10.00">/home/sqeaky/Code/Mezzanine</text>
<text text-anchor="start" x="533.5" y="-85.5" font-family="Helvetica,sans-Serif" font-size="10.00">Fresh/Mezzanine/src/Scripting</text>
<text text-anchor="middle" x="603.5" y="-74.5" font-family="Helvetica,sans-Serif" font-size="10.00">/Lua51/lua51scriptingengine.cpp</text>
</a>
</g>
</g>
<!-- Node1&#45;&gt;Node6 -->
<g id="edge5" class="edge"><title>Node1&#45;&gt;Node6</title>
<path fill="none" stroke="midnightblue" d="M419.493,-142.58C456.638,-131.764 500.778,-118.911 536.514,-108.506"/>
<polygon fill="midnightblue" stroke="midnightblue" points="418.337,-139.272 409.714,-145.428 420.294,-145.993 418.337,-139.272"/>
</g>
<!-- Node3 -->
<g id="node3" class="node"><title>Node3</title>
<g id="a_node3"><a xlink:href="mezzanine_8h.html" target="_top" xlink:title="A single file that includes all of the Mezzanine engine. ">
<polygon fill="white" stroke="black" points="-1.42109e-14,-0.5 -1.42109e-14,-30.5 167,-30.5 167,-0.5 -1.42109e-14,-0.5"/>
<text text-anchor="start" x="8" y="-18.5" font-family="Helvetica,sans-Serif" font-size="10.00">/home/sqeaky/Code/Mezzanine</text>
<text text-anchor="middle" x="83.5" y="-7.5" font-family="Helvetica,sans-Serif" font-size="10.00">Fresh/Mezzanine/src/mezzanine.h</text>
</a>
</g>
</g>
<!-- Node2&#45;&gt;Node3 -->
<g id="edge2" class="edge"><title>Node2&#45;&gt;Node3</title>
<path fill="none" stroke="midnightblue" d="M83.5,-57.08C83.5,-48.0061 83.5,-38.4498 83.5,-30.8916"/>
<polygon fill="midnightblue" stroke="midnightblue" points="80.0001,-57.3618 83.5,-67.3618 87.0001,-57.3619 80.0001,-57.3618"/>
</g>
</g>
</svg>
