<?xml version="1.0" encoding="UTF-8" standalone="no"?>
<!DOCTYPE svg PUBLIC "-//W3C//DTD SVG 1.1//EN"
 "http://www.w3.org/Graphics/SVG/1.1/DTD/svg11.dtd">
<!-- Generated by graphviz version 2.38.0 (20140413.2041)
 -->
<!-- Title: /home/sqeaky/Code/MezzanineFresh/Mezzanine/src/Scripting/Lua51/lua51scriptingengine.h Pages: 1 -->
<svg width="907pt" height="262pt"
 viewBox="0.00 0.00 907.00 262.00" xmlns="http://www.w3.org/2000/svg" xmlns:xlink="http://www.w3.org/1999/xlink">
<g id="graph0" class="graph" transform="scale(1 1) rotate(0) translate(4 258)">
<title>/home/sqeaky/Code/MezzanineFresh/Mezzanine/src/Scripting/Lua51/lua51scriptingengine.h</title>
<polygon fill="white" stroke="none" points="-4,4 -4,-258 903,-258 903,4 -4,4"/>
<!-- Node1 -->
<g id="node1" class="node"><title>Node1</title>
<polygon fill="#bfbfbf" stroke="black" points="309,-212.5 309,-253.5 464,-253.5 464,-212.5 309,-212.5"/>
<text text-anchor="start" x="317" y="-241.5" font-family="Helvetica,sans-Serif" font-size="10.00">/home/sqeaky/Code/Mezzanine</text>
<text text-anchor="start" x="317" y="-230.5" font-family="Helvetica,sans-Serif" font-size="10.00">Fresh/Mezzanine/src/Scripting</text>
<text text-anchor="middle" x="386.5" y="-219.5" font-family="Helvetica,sans-Serif" font-size="10.00">/Lua51/lua51scriptingengine.h</text>
</g>
<!-- Node2 -->
<g id="node2" class="node"><title>Node2</title>
<g id="a_node2"><a xlink:href="scripting_8h_source.html" target="_top" xlink:title="/home/sqeaky/Code/Mezzanine\lFresh/Mezzanine/src/Scripting\l/scripting.h">
<polygon fill="white" stroke="black" points="8,-134.5 8,-175.5 163,-175.5 163,-134.5 8,-134.5"/>
<text text-anchor="start" x="16" y="-163.5" font-family="Helvetica,sans-Serif" font-size="10.00">/home/sqeaky/Code/Mezzanine</text>
<text text-anchor="start" x="16" y="-152.5" font-family="Helvetica,sans-Serif" font-size="10.00">Fresh/Mezzanine/src/Scripting</text>
<text text-anchor="middle" x="85.5" y="-141.5" font-family="Helvetica,sans-Serif" font-size="10.00">/scripting.h</text>
</a>
</g>
</g>
<!-- Node1&#45;&gt;Node2 -->
<g id="edge1" class="edge"><title>Node1&#45;&gt;Node2</title>
<path fill="none" stroke="midnightblue" d="M299.071,-209.925C255.954,-199.038 204.404,-186.022 162.752,-175.506"/>
<polygon fill="midnightblue" stroke="midnightblue" points="298.432,-213.373 308.985,-212.428 300.146,-206.586 298.432,-213.373"/>
</g>
<!-- Node4 -->
<g id="node4" class="node"><title>Node4</title>
<g id="a_node4"><a xlink:href="entresol_8cpp_source.html" target="_top" xlink:title="/home/sqeaky/Code/Mezzanine\lFresh/Mezzanine/src/entresol.cpp">
<polygon fill="white" stroke="black" points="56.5,-0.5 56.5,-30.5 220.5,-30.5 220.5,-0.5 56.5,-0.5"/>
<text text-anchor="start" x="64.5" y="-18.5" font-family="Helvetica,sans-Serif" font-size="10.00">/home/sqeaky/Code/Mezzanine</text>
<text text-anchor="middle" x="138.5" y="-7.5" font-family="Helvetica,sans-Serif" font-size="10.00">Fresh/Mezzanine/src/entresol.cpp</text>
</a>
</g>
</g>
<!-- Node1&#45;&gt;Node4 -->
<g id="edge4" class="edge"><title>Node1&#45;&gt;Node4</title>
<path fill="none" stroke="midnightblue" d="M298.778,-219.597C268.867,-211.501 237.266,-198.118 214.5,-176 177.597,-140.146 199.622,-112.447 175.5,-67 168.57,-53.9437 158.561,-40.5072 150.7,-30.7794"/>
<polygon fill="midnightblue" stroke="midnightblue" points="298.288,-223.084 308.841,-222.146 300.006,-216.298 298.288,-223.084"/>
</g>
<!-- Node5 -->
<g id="node5" class="node"><title>Node5</title>
<g id="a_node5"><a xlink:href="lua51script_8cpp.html" target="_top" xlink:title="This file has the implemetation for the Lua script storage. ">
<polygon fill="white" stroke="black" points="223,-134.5 223,-175.5 378,-175.5 378,-134.5 223,-134.5"/>
<text text-anchor="start" x="231" y="-163.5" font-family="Helvetica,sans-Serif" font-size="10.00">/home/sqeaky/Code/Mezzanine</text>
<text text-anchor="start" x="231" y="-152.5" font-family="Helvetica,sans-Serif" font-size="10.00">Fresh/Mezzanine/src/Scripting</text>
<text text-anchor="middle" x="300.5" y="-141.5" font-family="Helvetica,sans-Serif" font-size="10.00">/Lua51/lua51script.cpp</text>
</a>
</g>
</g>
<!-- Node1&#45;&gt;Node5 -->
<g id="edge5" class="edge"><title>Node1&#45;&gt;Node5</title>
<path fill="none" stroke="midnightblue" d="M356.828,-205.779C345.586,-195.843 332.994,-184.716 322.572,-175.506"/>
<polygon fill="midnightblue" stroke="midnightblue" points="354.542,-208.429 364.353,-212.428 359.177,-203.183 354.542,-208.429"/>
</g>
<!-- Node6 -->
<g id="node6" class="node"><title>Node6</title>
<g id="a_node6"><a xlink:href="lua51scriptargument_8cpp.html" target="_top" xlink:title="This file has the implementation for the Lua script argument. ">
<polygon fill="white" stroke="black" points="396,-134.5 396,-175.5 551,-175.5 551,-134.5 396,-134.5"/>
<text text-anchor="start" x="404" y="-163.5" font-family="Helvetica,sans-Serif" font-size="10.00">/home/sqeaky/Code/Mezzanine</text>
<text text-anchor="start" x="404" y="-152.5" font-family="Helvetica,sans-Serif" font-size="10.00">Fresh/Mezzanine/src/Scripting</text>
<text text-anchor="middle" x="473.5" y="-141.5" font-family="Helvetica,sans-Serif" font-size="10.00">/Lua51/lua51scriptargument.cpp</text>
</a>
</g>
</g>
<!-- Node1&#45;&gt;Node6 -->
<g id="edge6" class="edge"><title>Node1&#45;&gt;Node6</title>
<path fill="none" stroke="midnightblue" d="M416.517,-205.779C427.89,-195.843 440.628,-184.716 451.171,-175.506"/>
<polygon fill="midnightblue" stroke="midnightblue" points="414.133,-203.213 408.905,-212.428 418.738,-208.485 414.133,-203.213"/>
</g>
<!-- Node7 -->
<g id="node7" class="node"><title>Node7</title>
<g id="a_node7"><a xlink:href="lua51scriptingengine_8cpp.html" target="_top" xlink:title="This file has the implementation for the Lua based Scripting system. ">
<polygon fill="white" stroke="black" points="569.5,-134.5 569.5,-175.5 725.5,-175.5 725.5,-134.5 569.5,-134.5"/>
<text text-anchor="start" x="577.5" y="-163.5" font-family="Helvetica,sans-Serif" font-size="10.00">/home/sqeaky/Code/Mezzanine</text>
<text text-anchor="start" x="577.5" y="-152.5" font-family="Helvetica,sans-Serif" font-size="10.00">Fresh/Mezzanine/src/Scripting</text>
<text text-anchor="middle" x="647.5" y="-141.5" font-family="Helvetica,sans-Serif" font-size="10.00">/Lua51/lua51scriptingengine.cpp</text>
</a>
</g>
</g>
<!-- Node1&#45;&gt;Node7 -->
<g id="edge7" class="edge"><title>Node1&#45;&gt;Node7</title>
<path fill="none" stroke="midnightblue" d="M463.493,-209.58C500.638,-198.764 544.778,-185.911 580.514,-175.506"/>
<polygon fill="midnightblue" stroke="midnightblue" points="462.337,-206.272 453.714,-212.428 464.294,-212.993 462.337,-206.272"/>
</g>
<!-- Node8 -->
<g id="node8" class="node"><title>Node8</title>
<g id="a_node8"><a xlink:href="lua51workunit_8cpp.html" target="_top" xlink:title="This file has the implementation a workunit that can execute lua script every frame. ">
<polygon fill="white" stroke="black" points="744,-134.5 744,-175.5 899,-175.5 899,-134.5 744,-134.5"/>
<text text-anchor="start" x="752" y="-163.5" font-family="Helvetica,sans-Serif" font-size="10.00">/home/sqeaky/Code/Mezzanine</text>
<text text-anchor="start" x="752" y="-152.5" font-family="Helvetica,sans-Serif" font-size="10.00">Fresh/Mezzanine/src/Scripting</text>
<text text-anchor="middle" x="821.5" y="-141.5" font-family="Helvetica,sans-Serif" font-size="10.00">/Lua51/lua51workunit.cpp</text>
</a>
</g>
</g>
<!-- Node1&#45;&gt;Node8 -->
<g id="edge8" class="edge"><title>Node1&#45;&gt;Node8</title>
<path fill="none" stroke="midnightblue" d="M474.34,-219.514C544.874,-209.092 646.342,-193.207 734.5,-176 737.542,-175.406 740.64,-174.783 743.766,-174.139"/>
<polygon fill="midnightblue" stroke="midnightblue" points="473.547,-216.093 464.163,-221.012 474.566,-223.018 473.547,-216.093"/>
</g>
<!-- Node3 -->
<g id="node3" class="node"><title>Node3</title>
<g id="a_node3"><a xlink:href="mezzanine_8h.html" target="_top" xlink:title="A single file that includes all of the Mezzanine engine. ">
<polygon fill="white" stroke="black" points="0,-67.5 0,-97.5 167,-97.5 167,-67.5 0,-67.5"/>
<text text-anchor="start" x="8" y="-85.5" font-family="Helvetica,sans-Serif" font-size="10.00">/home/sqeaky/Code/Mezzanine</text>
<text text-anchor="middle" x="83.5" y="-74.5" font-family="Helvetica,sans-Serif" font-size="10.00">Fresh/Mezzanine/src/mezzanine.h</text>
</a>
</g>
</g>
<!-- Node2&#45;&gt;Node3 -->
<g id="edge2" class="edge"><title>Node2&#45;&gt;Node3</title>
<path fill="none" stroke="midnightblue" d="M84.6512,-124.08C84.3938,-115.006 84.1227,-105.45 83.9083,-97.8916"/>
<polygon fill="midnightblue" stroke="midnightblue" points="81.1606,-124.465 84.9429,-134.362 88.1578,-124.267 81.1606,-124.465"/>
</g>
<!-- Node3&#45;&gt;Node4 -->
<g id="edge3" class="edge"><title>Node3&#45;&gt;Node4</title>
<path fill="none" stroke="midnightblue" d="M101.916,-59.7362C110.053,-50.119 119.386,-39.0888 126.589,-30.5765"/>
<polygon fill="midnightblue" stroke="midnightblue" points="99.2218,-57.5013 95.4342,-67.396 104.565,-62.0229 99.2218,-57.5013"/>
</g>
</g>
</svg>
