<?xml version="1.0" encoding="UTF-8" standalone="no"?>
<!DOCTYPE svg PUBLIC "-//W3C//DTD SVG 1.1//EN"
 "http://www.w3.org/Graphics/SVG/1.1/DTD/svg11.dtd">
<!-- Generated by graphviz version 2.26.3 (20100126.1600)
 -->
<!-- Title: /home/sqeaky/Code/Mezzanine/Mezzanine/src/Scripting/Lua51/lua51scriptingengine.h Pages: 1 -->
<svg width="1802pt" height="296pt"
 viewBox="0.00 0.00 1802.00 296.00" xmlns="http://www.w3.org/2000/svg" xmlns:xlink="http://www.w3.org/1999/xlink">
<g id="graph1" class="graph" transform="scale(1 1) rotate(0) translate(4 292)">
<title>/home/sqeaky/Code/Mezzanine/Mezzanine/src/Scripting/Lua51/lua51scriptingengine.h</title>
<polygon fill="white" stroke="white" points="-4,5 -4,-292 1799,-292 1799,5 -4,5"/>
<!-- Node1 -->
<g id="node1" class="node"><title>Node1</title>
<polygon fill="#bfbfbf" stroke="black" points="719.5,-240.5 719.5,-287.5 874.5,-287.5 874.5,-240.5 719.5,-240.5"/>
<text text-anchor="start" x="727.5" y="-274.5" font-family="Helvetica,sans-Serif" font-size="10.00">/home/sqeaky/Code/Mezzanine</text>
<text text-anchor="start" x="727.5" y="-261.5" font-family="Helvetica,sans-Serif" font-size="10.00">/Mezzanine/src/Scripting</text>
<text text-anchor="middle" x="797" y="-248.5" font-family="Helvetica,sans-Serif" font-size="10.00">/Lua51/lua51scriptingengine.h</text>
</g>
<!-- Node2 -->
<g id="node3" class="node"><title>Node2</title>
<a xlink:href="scripting_8h_source.html" target="_top" xlink:title="/home/sqeaky/Code/Mezzanine\l/Mezzanine/src/Scripting\l/scripting.h">
<polygon fill="white" stroke="black" points="461.5,-156.5 461.5,-203.5 616.5,-203.5 616.5,-156.5 461.5,-156.5"/>
<text text-anchor="start" x="469.5" y="-190.5" font-family="Helvetica,sans-Serif" font-size="10.00">/home/sqeaky/Code/Mezzanine</text>
<text text-anchor="start" x="469.5" y="-177.5" font-family="Helvetica,sans-Serif" font-size="10.00">/Mezzanine/src/Scripting</text>
<text text-anchor="middle" x="539" y="-164.5" font-family="Helvetica,sans-Serif" font-size="10.00">/scripting.h</text>
</a>
</g>
<!-- Node1&#45;&gt;Node2 -->
<g id="edge2" class="edge"><title>Node1&#45;&gt;Node2</title>
<path fill="none" stroke="midnightblue" d="M715.064,-237.323C681.706,-226.462 643.483,-214.018 611.193,-203.505"/>
<polygon fill="midnightblue" stroke="midnightblue" points="714.197,-240.722 724.79,-240.49 716.364,-234.066 714.197,-240.722"/>
</g>
<!-- Node4 -->
<g id="node7" class="node"><title>Node4</title>
<a xlink:href="entresol_8cpp_source.html" target="_top" xlink:title="/home/sqeaky/Code/Mezzanine\l/Mezzanine/src/entresol.cpp">
<polygon fill="white" stroke="black" points="-0.5,-7 -0.5,-41 154.5,-41 154.5,-7 -0.5,-7"/>
<text text-anchor="start" x="7.5" y="-28" font-family="Helvetica,sans-Serif" font-size="10.00">/home/sqeaky/Code/Mezzanine</text>
<text text-anchor="middle" x="77" y="-15" font-family="Helvetica,sans-Serif" font-size="10.00">/Mezzanine/src/entresol.cpp</text>
</a>
</g>
<!-- Node1&#45;&gt;Node4 -->
<g id="edge24" class="edge"><title>Node1&#45;&gt;Node4</title>
<path fill="none" stroke="midnightblue" d="M709.208,-255.4C638.734,-246.908 537.892,-231.154 453,-204 316.86,-160.453 166.989,-76.9639 105.602,-41.0807"/>
<polygon fill="midnightblue" stroke="midnightblue" points="709.038,-258.904 719.379,-256.601 709.859,-251.953 709.038,-258.904"/>
</g>
<!-- Node13 -->
<g id="node26" class="node"><title>Node13</title>
<a xlink:href="lua51script_8cpp.html" target="_top" xlink:title="This file has the implemetation for the Lua script storage. ">
<polygon fill="white" stroke="black" points="633.5,-156.5 633.5,-203.5 788.5,-203.5 788.5,-156.5 633.5,-156.5"/>
<text text-anchor="start" x="641.5" y="-190.5" font-family="Helvetica,sans-Serif" font-size="10.00">/home/sqeaky/Code/Mezzanine</text>
<text text-anchor="start" x="641.5" y="-177.5" font-family="Helvetica,sans-Serif" font-size="10.00">/Mezzanine/src/Scripting</text>
<text text-anchor="middle" x="711" y="-164.5" font-family="Helvetica,sans-Serif" font-size="10.00">/Lua51/lua51script.cpp</text>
</a>
</g>
<!-- Node1&#45;&gt;Node13 -->
<g id="edge26" class="edge"><title>Node1&#45;&gt;Node13</title>
<path fill="none" stroke="midnightblue" d="M765.2,-232.94C755.274,-223.245 744.492,-212.713 735.177,-203.615"/>
<polygon fill="midnightblue" stroke="midnightblue" points="762.987,-235.67 772.586,-240.154 767.878,-230.662 762.987,-235.67"/>
</g>
<!-- Node14 -->
<g id="node28" class="node"><title>Node14</title>
<a xlink:href="lua51scriptargument_8cpp.html" target="_top" xlink:title="This file has the implementation for the Lua script argument. ">
<polygon fill="white" stroke="black" points="805.5,-156.5 805.5,-203.5 960.5,-203.5 960.5,-156.5 805.5,-156.5"/>
<text text-anchor="start" x="813.5" y="-190.5" font-family="Helvetica,sans-Serif" font-size="10.00">/home/sqeaky/Code/Mezzanine</text>
<text text-anchor="start" x="813.5" y="-177.5" font-family="Helvetica,sans-Serif" font-size="10.00">/Mezzanine/src/Scripting</text>
<text text-anchor="middle" x="883" y="-164.5" font-family="Helvetica,sans-Serif" font-size="10.00">/Lua51/lua51scriptargument.cpp</text>
</a>
</g>
<!-- Node1&#45;&gt;Node14 -->
<g id="edge28" class="edge"><title>Node1&#45;&gt;Node14</title>
<path fill="none" stroke="midnightblue" d="M828.8,-232.94C838.726,-223.245 849.508,-212.713 858.823,-203.615"/>
<polygon fill="midnightblue" stroke="midnightblue" points="826.122,-230.662 821.414,-240.154 831.013,-235.67 826.122,-230.662"/>
</g>
<!-- Node15 -->
<g id="node30" class="node"><title>Node15</title>
<a xlink:href="lua51scriptingengine_8cpp.html" target="_top" xlink:title="This file has the implementation for the Lua based Scripting system. ">
<polygon fill="white" stroke="black" points="978,-156.5 978,-203.5 1134,-203.5 1134,-156.5 978,-156.5"/>
<text text-anchor="start" x="986" y="-190.5" font-family="Helvetica,sans-Serif" font-size="10.00">/home/sqeaky/Code/Mezzanine</text>
<text text-anchor="start" x="986" y="-177.5" font-family="Helvetica,sans-Serif" font-size="10.00">/Mezzanine/src/Scripting</text>
<text text-anchor="middle" x="1056" y="-164.5" font-family="Helvetica,sans-Serif" font-size="10.00">/Lua51/lua51scriptingengine.cpp</text>
</a>
</g>
<!-- Node1&#45;&gt;Node15 -->
<g id="edge30" class="edge"><title>Node1&#45;&gt;Node15</title>
<path fill="none" stroke="midnightblue" d="M879.254,-237.323C912.741,-226.462 951.112,-214.018 983.527,-203.505"/>
<polygon fill="midnightblue" stroke="midnightblue" points="877.923,-234.075 869.49,-240.49 880.082,-240.734 877.923,-234.075"/>
</g>
<!-- Node16 -->
<g id="node32" class="node"><title>Node16</title>
<a xlink:href="lua51workunit_8cpp.html" target="_top" xlink:title="This file has the implementation a workunit that can execute lua script every frame. ">
<polygon fill="white" stroke="black" points="1151.5,-156.5 1151.5,-203.5 1306.5,-203.5 1306.5,-156.5 1151.5,-156.5"/>
<text text-anchor="start" x="1159.5" y="-190.5" font-family="Helvetica,sans-Serif" font-size="10.00">/home/sqeaky/Code/Mezzanine</text>
<text text-anchor="start" x="1159.5" y="-177.5" font-family="Helvetica,sans-Serif" font-size="10.00">/Mezzanine/src/Scripting</text>
<text text-anchor="middle" x="1229" y="-164.5" font-family="Helvetica,sans-Serif" font-size="10.00">/Lua51/lua51workunit.cpp</text>
</a>
</g>
<!-- Node1&#45;&gt;Node16 -->
<g id="edge32" class="edge"><title>Node1&#45;&gt;Node16</title>
<path fill="none" stroke="midnightblue" d="M884.873,-251.258C955.098,-240.477 1055.85,-223.665 1143,-204 1145.72,-203.386 1148.49,-202.739 1151.27,-202.068"/>
<polygon fill="midnightblue" stroke="midnightblue" points="884.097,-247.836 874.739,-252.805 885.153,-254.756 884.097,-247.836"/>
</g>
<!-- Node3 -->
<g id="node5" class="node"><title>Node3</title>
<a xlink:href="mezzanine_8h.html" target="_top" xlink:title="A single file that includes all of the Mezzanine engine. ">
<polygon fill="white" stroke="black" points="686.5,-85 686.5,-119 841.5,-119 841.5,-85 686.5,-85"/>
<text text-anchor="start" x="694.5" y="-106" font-family="Helvetica,sans-Serif" font-size="10.00">/home/sqeaky/Code/Mezzanine</text>
<text text-anchor="middle" x="764" y="-93" font-family="Helvetica,sans-Serif" font-size="10.00">/Mezzanine/src/mezzanine.h</text>
</a>
</g>
<!-- Node2&#45;&gt;Node3 -->
<g id="edge4" class="edge"><title>Node2&#45;&gt;Node3</title>
<path fill="none" stroke="midnightblue" d="M616.347,-153.186C649.018,-141.86 686.086,-129.01 714.909,-119.018"/>
<polygon fill="midnightblue" stroke="midnightblue" points="615.114,-149.909 606.813,-156.492 617.407,-156.523 615.114,-149.909"/>
</g>
<!-- Node3&#45;&gt;Node4 -->
<g id="edge6" class="edge"><title>Node3&#45;&gt;Node4</title>
<path fill="none" stroke="midnightblue" d="M676.028,-99.1204C558.325,-94.1261 343.49,-81.0074 163,-48 153.089,-46.1875 142.666,-43.7481 132.631,-41.1171"/>
<polygon fill="midnightblue" stroke="midnightblue" points="675.932,-102.619 686.068,-99.5366 676.222,-95.6253 675.932,-102.619"/>
</g>
<!-- Node5 -->
<g id="node9" class="node"><title>Node5</title>
<a xlink:href="scriptbindingmainlua51_8cpp_source.html" target="_top" xlink:title="/home/sqeaky/Code/Mezzanine\l/Mezzanine/src/Scripting\l/Lua51/scriptbindingmainlua51.cpp">
<polygon fill="white" stroke="black" points="171.5,-0.5 171.5,-47.5 338.5,-47.5 338.5,-0.5 171.5,-0.5"/>
<text text-anchor="start" x="179.5" y="-34.5" font-family="Helvetica,sans-Serif" font-size="10.00">/home/sqeaky/Code/Mezzanine</text>
<text text-anchor="start" x="179.5" y="-21.5" font-family="Helvetica,sans-Serif" font-size="10.00">/Mezzanine/src/Scripting</text>
<text text-anchor="middle" x="255" y="-8.5" font-family="Helvetica,sans-Serif" font-size="10.00">/Lua51/scriptbindingmainlua51.cpp</text>
</a>
</g>
<!-- Node3&#45;&gt;Node5 -->
<g id="edge8" class="edge"><title>Node3&#45;&gt;Node5</title>
<path fill="none" stroke="midnightblue" d="M676.193,-93.888C591.447,-85.2929 459.758,-69.9174 347,-48 344.245,-47.4646 341.451,-46.8944 338.634,-46.2965"/>
<polygon fill="midnightblue" stroke="midnightblue" points="675.991,-97.3853 686.29,-94.9026 676.691,-90.4203 675.991,-97.3853"/>
</g>
<!-- Node6 -->
<g id="node11" class="node"><title>Node6</title>
<a xlink:href="scriptbindingmainlua51unsafe_8cpp_source.html" target="_top" xlink:title="/home/sqeaky/Code/Mezzanine\l/Mezzanine/src/Scripting\l/Lua51/scriptbindingmainlua51unsafe.cpp">
<polygon fill="white" stroke="black" points="356,-0.5 356,-47.5 552,-47.5 552,-0.5 356,-0.5"/>
<text text-anchor="start" x="364" y="-34.5" font-family="Helvetica,sans-Serif" font-size="10.00">/home/sqeaky/Code/Mezzanine</text>
<text text-anchor="start" x="364" y="-21.5" font-family="Helvetica,sans-Serif" font-size="10.00">/Mezzanine/src/Scripting</text>
<text text-anchor="middle" x="454" y="-8.5" font-family="Helvetica,sans-Serif" font-size="10.00">/Lua51/scriptbindingmainlua51unsafe.cpp</text>
</a>
</g>
<!-- Node3&#45;&gt;Node6 -->
<g id="edge10" class="edge"><title>Node3&#45;&gt;Node6</title>
<path fill="none" stroke="midnightblue" d="M686.437,-82.4842C644.351,-71.8948 592.015,-58.7263 547.666,-47.5676"/>
<polygon fill="midnightblue" stroke="midnightblue" points="685.8,-85.933 696.352,-84.979 687.509,-79.1446 685.8,-85.933"/>
</g>
<!-- Node7 -->
<g id="node13" class="node"><title>Node7</title>
<a xlink:href="scriptbindingphysicslua51_8cpp_source.html" target="_top" xlink:title="/home/sqeaky/Code/Mezzanine\l/Mezzanine/src/Scripting\l/Lua51/scriptbindingphysicslua51.cpp">
<polygon fill="white" stroke="black" points="569.5,-0.5 569.5,-47.5 748.5,-47.5 748.5,-0.5 569.5,-0.5"/>
<text text-anchor="start" x="577.5" y="-34.5" font-family="Helvetica,sans-Serif" font-size="10.00">/home/sqeaky/Code/Mezzanine</text>
<text text-anchor="start" x="577.5" y="-21.5" font-family="Helvetica,sans-Serif" font-size="10.00">/Mezzanine/src/Scripting</text>
<text text-anchor="middle" x="659" y="-8.5" font-family="Helvetica,sans-Serif" font-size="10.00">/Lua51/scriptbindingphysicslua51.cpp</text>
</a>
</g>
<!-- Node3&#45;&gt;Node7 -->
<g id="edge12" class="edge"><title>Node3&#45;&gt;Node7</title>
<path fill="none" stroke="midnightblue" d="M732.619,-78.6881C719.391,-68.8621 704.017,-57.4415 690.751,-47.5861"/>
<polygon fill="midnightblue" stroke="midnightblue" points="730.843,-81.7289 740.957,-84.8826 735.017,-76.1097 730.843,-81.7289"/>
</g>
<!-- Node8 -->
<g id="node15" class="node"><title>Node8</title>
<a xlink:href="scriptbindingphysicslua51unsafe_8cpp_source.html" target="_top" xlink:title="/home/sqeaky/Code/Mezzanine\l/Mezzanine/src/Scripting\l/Lua51/scriptbindingphysicslua51unsafe.cpp">
<polygon fill="white" stroke="black" points="765.5,-0.5 765.5,-47.5 974.5,-47.5 974.5,-0.5 765.5,-0.5"/>
<text text-anchor="start" x="773.5" y="-34.5" font-family="Helvetica,sans-Serif" font-size="10.00">/home/sqeaky/Code/Mezzanine</text>
<text text-anchor="start" x="773.5" y="-21.5" font-family="Helvetica,sans-Serif" font-size="10.00">/Mezzanine/src/Scripting</text>
<text text-anchor="middle" x="870" y="-8.5" font-family="Helvetica,sans-Serif" font-size="10.00">/Lua51/scriptbindingphysicslua51unsafe.cpp</text>
</a>
</g>
<!-- Node3&#45;&gt;Node8 -->
<g id="edge14" class="edge"><title>Node3&#45;&gt;Node8</title>
<path fill="none" stroke="midnightblue" d="M795.68,-78.6881C809.034,-68.8621 824.554,-57.4415 837.947,-47.5861"/>
<polygon fill="midnightblue" stroke="midnightblue" points="793.242,-76.1367 787.262,-84.8826 797.391,-81.7748 793.242,-76.1367"/>
</g>
<!-- Node9 -->
<g id="node17" class="node"><title>Node9</title>
<a xlink:href="scriptbindingthreadinglua51_8cpp_source.html" target="_top" xlink:title="/home/sqeaky/Code/Mezzanine\l/Mezzanine/src/Scripting\l/Lua51/scriptbindingthreadinglua51.cpp">
<polygon fill="white" stroke="black" points="991.5,-0.5 991.5,-47.5 1176.5,-47.5 1176.5,-0.5 991.5,-0.5"/>
<text text-anchor="start" x="999.5" y="-34.5" font-family="Helvetica,sans-Serif" font-size="10.00">/home/sqeaky/Code/Mezzanine</text>
<text text-anchor="start" x="999.5" y="-21.5" font-family="Helvetica,sans-Serif" font-size="10.00">/Mezzanine/src/Scripting</text>
<text text-anchor="middle" x="1084" y="-8.5" font-family="Helvetica,sans-Serif" font-size="10.00">/Lua51/scriptbindingthreadinglua51.cpp</text>
</a>
</g>
<!-- Node3&#45;&gt;Node9 -->
<g id="edge16" class="edge"><title>Node3&#45;&gt;Node9</title>
<path fill="none" stroke="midnightblue" d="M843.778,-82.5541C888.517,-71.649 944.545,-57.9922 991.235,-46.6114"/>
<polygon fill="midnightblue" stroke="midnightblue" points="842.717,-79.2103 833.83,-84.979 844.374,-86.0112 842.717,-79.2103"/>
</g>
<!-- Node10 -->
<g id="node19" class="node"><title>Node10</title>
<a xlink:href="scriptbindingthreadinglua51unsafe_8cpp_source.html" target="_top" xlink:title="/home/sqeaky/Code/Mezzanine\l/Mezzanine/src/Scripting\l/Lua51/scriptbindingthreadinglua51unsafe.cpp">
<polygon fill="white" stroke="black" points="1193.5,-0.5 1193.5,-47.5 1408.5,-47.5 1408.5,-0.5 1193.5,-0.5"/>
<text text-anchor="start" x="1201.5" y="-34.5" font-family="Helvetica,sans-Serif" font-size="10.00">/home/sqeaky/Code/Mezzanine</text>
<text text-anchor="start" x="1201.5" y="-21.5" font-family="Helvetica,sans-Serif" font-size="10.00">/Mezzanine/src/Scripting</text>
<text text-anchor="middle" x="1301" y="-8.5" font-family="Helvetica,sans-Serif" font-size="10.00">/Lua51/scriptbindingthreadinglua51unsafe.cpp</text>
</a>
</g>
<!-- Node3&#45;&gt;Node10 -->
<g id="edge18" class="edge"><title>Node3&#45;&gt;Node10</title>
<path fill="none" stroke="midnightblue" d="M852.026,-92.6926C937.4,-83.1984 1070.46,-67.1654 1185,-48 1187.74,-47.5418 1190.51,-47.0652 1193.3,-46.5734"/>
<polygon fill="midnightblue" stroke="midnightblue" points="851.41,-89.2394 841.855,-93.8178 852.18,-96.1969 851.41,-89.2394"/>
</g>
<!-- Node11 -->
<g id="node21" class="node"><title>Node11</title>
<a xlink:href="scriptbindingxmllua51_8cpp_source.html" target="_top" xlink:title="/home/sqeaky/Code/Mezzanine\l/Mezzanine/src/Scripting\l/Lua51/scriptbindingxmllua51.cpp">
<polygon fill="white" stroke="black" points="1425.5,-0.5 1425.5,-47.5 1586.5,-47.5 1586.5,-0.5 1425.5,-0.5"/>
<text text-anchor="start" x="1433.5" y="-34.5" font-family="Helvetica,sans-Serif" font-size="10.00">/home/sqeaky/Code/Mezzanine</text>
<text text-anchor="start" x="1433.5" y="-21.5" font-family="Helvetica,sans-Serif" font-size="10.00">/Mezzanine/src/Scripting</text>
<text text-anchor="middle" x="1506" y="-8.5" font-family="Helvetica,sans-Serif" font-size="10.00">/Lua51/scriptbindingxmllua51.cpp</text>
</a>
</g>
<!-- Node3&#45;&gt;Node11 -->
<g id="edge20" class="edge"><title>Node3&#45;&gt;Node11</title>
<path fill="none" stroke="midnightblue" d="M852.088,-99.7646C978.139,-95.4255 1216.86,-82.964 1417,-48 1419.68,-47.5318 1422.4,-47.02 1425.13,-46.4723"/>
<polygon fill="midnightblue" stroke="midnightblue" points="851.605,-96.2787 841.728,-100.112 851.839,-103.275 851.605,-96.2787"/>
</g>
<!-- Node12 -->
<g id="node23" class="node"><title>Node12</title>
<a xlink:href="scriptbindingxmllua51unsafe_8cpp_source.html" target="_top" xlink:title="/home/sqeaky/Code/Mezzanine\l/Mezzanine/src/Scripting\l/Lua51/scriptbindingxmllua51unsafe.cpp">
<polygon fill="white" stroke="black" points="1603.5,-0.5 1603.5,-47.5 1794.5,-47.5 1794.5,-0.5 1603.5,-0.5"/>
<text text-anchor="start" x="1611.5" y="-34.5" font-family="Helvetica,sans-Serif" font-size="10.00">/home/sqeaky/Code/Mezzanine</text>
<text text-anchor="start" x="1611.5" y="-21.5" font-family="Helvetica,sans-Serif" font-size="10.00">/Mezzanine/src/Scripting</text>
<text text-anchor="middle" x="1699" y="-8.5" font-family="Helvetica,sans-Serif" font-size="10.00">/Lua51/scriptbindingxmllua51unsafe.cpp</text>
</a>
</g>
<!-- Node3&#45;&gt;Node12 -->
<g id="edge22" class="edge"><title>Node3&#45;&gt;Node12</title>
<path fill="none" stroke="midnightblue" d="M851.993,-100.952C1004.21,-98.0995 1326.18,-87.4861 1595,-48 1597.75,-47.5961 1600.53,-47.1571 1603.34,-46.6885"/>
<polygon fill="midnightblue" stroke="midnightblue" points="851.708,-97.4564 841.772,-101.136 851.834,-104.455 851.708,-97.4564"/>
</g>
</g>
</svg>
