<?xml version="1.0" encoding="UTF-8" standalone="no"?>
<!DOCTYPE svg PUBLIC "-//W3C//DTD SVG 1.1//EN"
 "http://www.w3.org/Graphics/SVG/1.1/DTD/svg11.dtd">
<!-- Generated by graphviz version 2.26.3 (20100126.1600)
 -->
<!-- Title: /home/sqeaky/Code/Mezzanine/Mezzanine/src/managedptr.h Pages: 1 -->
<svg width="500pt" height="182pt"
 viewBox="0.00 0.00 500.00 182.00" xmlns="http://www.w3.org/2000/svg" xmlns:xlink="http://www.w3.org/1999/xlink">
<g id="graph1" class="graph" transform="scale(1 1) rotate(0) translate(4 178)">
<title>/home/sqeaky/Code/Mezzanine/Mezzanine/src/managedptr.h</title>
<polygon fill="white" stroke="white" points="-4,5 -4,-178 497,-178 497,5 -4,5"/>
<!-- Node1 -->
<g id="node1" class="node"><title>Node1</title>
<polygon fill="#bfbfbf" stroke="black" points="168.5,-141 168.5,-173 319.5,-173 319.5,-141 168.5,-141"/>
<text text-anchor="start" x="176.5" y="-160" font-family="FreeSans" font-size="10.00">/home/sqeaky/Code/Mezzanine</text>
<text text-anchor="middle" x="244" y="-148" font-family="FreeSans" font-size="10.00">/Mezzanine/src/managedptr.h</text>
</g>
<!-- Node2 -->
<g id="node3" class="node"><title>Node2</title>
<a xlink:href="mezzanine_8h.html" target="_top" xlink:title="A single file that includes all of the Mezzanine engine.">
<polygon fill="white" stroke="black" points="-0.5,-71 -0.5,-103 150.5,-103 150.5,-71 -0.5,-71"/>
<text text-anchor="start" x="7.5" y="-90" font-family="FreeSans" font-size="10.00">/home/sqeaky/Code/Mezzanine</text>
<text text-anchor="middle" x="75" y="-78" font-family="FreeSans" font-size="10.00">/Mezzanine/src/mezzanine.h</text>
</a>
</g>
<!-- Node1&#45;&gt;Node2 -->
<g id="edge2" class="edge"><title>Node1&#45;&gt;Node2</title>
<path fill="none" stroke="midnightblue" d="M195.938,-137.093C169.958,-126.332 138.295,-113.217 113.884,-103.106"/>
<polygon fill="midnightblue" stroke="midnightblue" points="194.65,-140.347 205.228,-140.941 197.329,-133.88 194.65,-140.347"/>
</g>
<!-- Node4 -->
<g id="node7" class="node"><title>Node4</title>
<a xlink:href="managedptr_8cpp.html" target="_top" xlink:title="implement">
<polygon fill="white" stroke="black" points="167.5,-71 167.5,-103 320.5,-103 320.5,-71 167.5,-71"/>
<text text-anchor="start" x="175.5" y="-90" font-family="FreeSans" font-size="10.00">/home/sqeaky/Code/Mezzanine</text>
<text text-anchor="middle" x="244" y="-78" font-family="FreeSans" font-size="10.00">/Mezzanine/src/managedptr.cpp</text>
</a>
</g>
<!-- Node1&#45;&gt;Node4 -->
<g id="edge6" class="edge"><title>Node1&#45;&gt;Node4</title>
<path fill="none" stroke="midnightblue" d="M244,-130.508C244,-121.303 244,-111.262 244,-103.147"/>
<polygon fill="midnightblue" stroke="midnightblue" points="240.5,-130.765 244,-140.765 247.5,-130.765 240.5,-130.765"/>
</g>
<!-- Node5 -->
<g id="node9" class="node"><title>Node5</title>
<a xlink:href="rayquerytool_8cpp_source.html" target="_top" xlink:title="/home/sqeaky/Code/Mezzanine\l/Mezzanine/src/rayquerytool.cpp">
<polygon fill="white" stroke="black" points="338,-71 338,-103 492,-103 492,-71 338,-71"/>
<text text-anchor="start" x="346" y="-90" font-family="FreeSans" font-size="10.00">/home/sqeaky/Code/Mezzanine</text>
<text text-anchor="middle" x="415" y="-78" font-family="FreeSans" font-size="10.00">/Mezzanine/src/rayquerytool.cpp</text>
</a>
</g>
<!-- Node1&#45;&gt;Node5 -->
<g id="edge8" class="edge"><title>Node1&#45;&gt;Node5</title>
<path fill="none" stroke="midnightblue" d="M292.631,-137.093C318.918,-126.332 350.956,-113.217 375.656,-103.106"/>
<polygon fill="midnightblue" stroke="midnightblue" points="291.159,-133.913 283.231,-140.941 293.811,-140.391 291.159,-133.913"/>
</g>
<!-- Node3 -->
<g id="node5" class="node"><title>Node3</title>
<a xlink:href="entresol_8cpp_source.html" target="_top" xlink:title="/home/sqeaky/Code/Mezzanine\l/Mezzanine/src/entresol.cpp">
<polygon fill="white" stroke="black" points="-0.5,-1 -0.5,-33 150.5,-33 150.5,-1 -0.5,-1"/>
<text text-anchor="start" x="7.5" y="-20" font-family="FreeSans" font-size="10.00">/home/sqeaky/Code/Mezzanine</text>
<text text-anchor="middle" x="75" y="-8" font-family="FreeSans" font-size="10.00">/Mezzanine/src/entresol.cpp</text>
</a>
</g>
<!-- Node2&#45;&gt;Node3 -->
<g id="edge4" class="edge"><title>Node2&#45;&gt;Node3</title>
<path fill="none" stroke="midnightblue" d="M75,-60.5079C75,-51.3027 75,-41.2615 75,-33.1473"/>
<polygon fill="midnightblue" stroke="midnightblue" points="71.5001,-60.7646 75,-70.7646 78.5001,-60.7647 71.5001,-60.7646"/>
</g>
</g>
</svg>
