<?xml version="1.0" encoding="UTF-8" standalone="no"?>
<!DOCTYPE svg PUBLIC "-//W3C//DTD SVG 1.1//EN"
 "http://www.w3.org/Graphics/SVG/1.1/DTD/svg11.dtd">
<!-- Generated by graphviz version 2.26.3 (20100126.1600)
 -->
<!-- Title: /home/sqeaky/Code/Mezzanine/Mezzanine/src/XML/nodeiterator.h Pages: 1 -->
<svg width="1110pt" height="274pt"
 viewBox="0.00 0.00 1110.00 274.00" xmlns="http://www.w3.org/2000/svg" xmlns:xlink="http://www.w3.org/1999/xlink">
<g id="graph1" class="graph" transform="scale(1 1) rotate(0) translate(4 270)">
<title>/home/sqeaky/Code/Mezzanine/Mezzanine/src/XML/nodeiterator.h</title>
<polygon fill="white" stroke="white" points="-4,5 -4,-270 1107,-270 1107,5 -4,5"/>
<!-- Node1 -->
<g id="node1" class="node"><title>Node1</title>
<polygon fill="#bfbfbf" stroke="black" points="330,-233 330,-265 496,-265 496,-233 330,-233"/>
<text text-anchor="start" x="338" y="-252" font-family="FreeSans" font-size="10.00">/home/sqeaky/Code/Mezzanine</text>
<text text-anchor="middle" x="413" y="-240" font-family="FreeSans" font-size="10.00">/Mezzanine/src/XML/nodeiterator.h</text>
</g>
<!-- Node2 -->
<g id="node3" class="node"><title>Node2</title>
<a xlink:href="datatypes_8h.html" target="_top" xlink:title="All the definitions for datatypes as well as some basic conversion functions are defined here...">
<polygon fill="white" stroke="black" points="463.5,-59 463.5,-79 528.5,-79 528.5,-59 463.5,-59"/>
<text text-anchor="middle" x="496" y="-66" font-family="FreeSans" font-size="10.00">datatypes.h</text>
</a>
</g>
<!-- Node1&#45;&gt;Node2 -->
<g id="edge2" class="edge"><title>Node1&#45;&gt;Node2</title>
<path fill="none" stroke="midnightblue" d="M473.125,-232.939C519.311,-217.09 579.952,-187.833 609,-138 627.689,-105.939 577.863,-86.8737 538.507,-77.1642"/>
<polygon fill="midnightblue" stroke="midnightblue" points="539.053,-73.6977 528.52,-74.8388 537.466,-80.5153 539.053,-73.6977"/>
</g>
<!-- Node19 -->
<g id="node37" class="node"><title>Node19</title>
<a xlink:href="swig_8h.html" target="_top" xlink:title="Used to give commands specifically to the SWIG preprocessor.">
<polygon fill="white" stroke="black" points="-0.5,-1 -0.5,-21 42.5,-21 42.5,-1 -0.5,-1"/>
<text text-anchor="middle" x="21" y="-8" font-family="FreeSans" font-size="10.00">swig.h</text>
</a>
</g>
<!-- Node1&#45;&gt;Node19 -->
<g id="edge54" class="edge"><title>Node1&#45;&gt;Node19</title>
<path fill="none" stroke="midnightblue" d="M383.462,-232.99C344.82,-211.882 275.182,-173.282 217,-138 153.716,-99.6244 81.0328,-51.4082 44.5266,-26.894"/>
<polygon fill="midnightblue" stroke="midnightblue" points="46.3033,-23.871 36.0525,-21.1927 42.3957,-29.6789 46.3033,-23.871"/>
</g>
<!-- Node20 -->
<g id="node39" class="node"><title>Node20</title>
<a xlink:href="node_8h.html" target="_top" xlink:title="This defines the Mezzanine::XML::Node one of the central XML classes.">
<polygon fill="white" stroke="black" points="390.5,-175 390.5,-195 435.5,-195 435.5,-175 390.5,-175"/>
<text text-anchor="middle" x="413" y="-182" font-family="FreeSans" font-size="10.00">node.h</text>
</a>
</g>
<!-- Node1&#45;&gt;Node20 -->
<g id="edge38" class="edge"><title>Node1&#45;&gt;Node20</title>
<path fill="none" stroke="midnightblue" d="M413,-232.85C413,-224.518 413,-214.269 413,-205.396"/>
<polygon fill="midnightblue" stroke="midnightblue" points="416.5,-205.141 413,-195.141 409.5,-205.141 416.5,-205.141"/>
</g>
<!-- Node3 -->
<g id="node5" class="node"><title>Node3</title>
<a xlink:href="crossplatformexport_8h.html" target="_top" xlink:title="This file is used on some platforms to determine what data should be read and written to and from a s...">
<polygon fill="white" stroke="black" points="994,-1 994,-21 1102,-21 1102,-1 994,-1"/>
<text text-anchor="middle" x="1048" y="-8" font-family="FreeSans" font-size="10.00">crossplatformexport.h</text>
</a>
</g>
<!-- Node2&#45;&gt;Node3 -->
<g id="edge4" class="edge"><title>Node2&#45;&gt;Node3</title>
<path fill="none" stroke="midnightblue" d="M528.719,-66.7307C606.033,-61.1814 806.236,-45.7199 983.705,-22.095"/>
<polygon fill="midnightblue" stroke="midnightblue" points="984.3,-25.5466 993.745,-20.7464 983.368,-18.6089 984.3,-25.5466"/>
</g>
<!-- Node4 -->
<g id="node7" class="node"><title>Node4</title>
<polygon fill="white" stroke="#bfbfbf" points="59.5,-1 59.5,-21 106.5,-21 106.5,-1 59.5,-1"/>
<text text-anchor="middle" x="83" y="-8" font-family="FreeSans" font-size="10.00">stdint.h</text>
</g>
<!-- Node2&#45;&gt;Node4 -->
<g id="edge6" class="edge"><title>Node2&#45;&gt;Node4</title>
<path fill="none" stroke="midnightblue" d="M463.492,-67.2773C398.822,-63.3632 249.483,-51.8921 116.553,-22.0069"/>
<polygon fill="midnightblue" stroke="midnightblue" points="117.135,-18.5496 106.605,-19.7285 115.572,-25.3729 117.135,-18.5496"/>
</g>
<!-- Node5 -->
<g id="node9" class="node"><title>Node5</title>
<polygon fill="white" stroke="#bfbfbf" points="124,-1 124,-21 172,-21 172,-1 124,-1"/>
<text text-anchor="middle" x="148" y="-8" font-family="FreeSans" font-size="10.00">cstddef</text>
</g>
<!-- Node2&#45;&gt;Node5 -->
<g id="edge8" class="edge"><title>Node2&#45;&gt;Node5</title>
<path fill="none" stroke="midnightblue" d="M463.449,-66.0258C407.578,-60.5172 289.799,-47.1406 181.764,-21.8612"/>
<polygon fill="midnightblue" stroke="midnightblue" points="182.549,-18.4504 172.011,-19.5397 180.928,-25.2602 182.549,-18.4504"/>
</g>
<!-- Node6 -->
<g id="node11" class="node"><title>Node6</title>
<polygon fill="white" stroke="#bfbfbf" points="190,-1 190,-21 246,-21 246,-1 190,-1"/>
<text text-anchor="middle" x="218" y="-8" font-family="FreeSans" font-size="10.00">algorithm</text>
</g>
<!-- Node2&#45;&gt;Node6 -->
<g id="edge10" class="edge"><title>Node2&#45;&gt;Node6</title>
<path fill="none" stroke="midnightblue" d="M463.429,-63.6747C418.819,-56.1585 336.047,-41.4196 256.404,-22.1829"/>
<polygon fill="midnightblue" stroke="midnightblue" points="256.75,-18.6646 246.205,-19.6902 255.088,-25.4645 256.75,-18.6646"/>
</g>
<!-- Node7 -->
<g id="node13" class="node"><title>Node7</title>
<polygon fill="white" stroke="#bfbfbf" points="264,-1 264,-21 322,-21 322,-1 264,-1"/>
<text text-anchor="middle" x="293" y="-8" font-family="FreeSans" font-size="10.00">exception</text>
</g>
<!-- Node2&#45;&gt;Node7 -->
<g id="edge12" class="edge"><title>Node2&#45;&gt;Node7</title>
<path fill="none" stroke="midnightblue" d="M463.429,-59.7665C432.089,-50.8723 383.113,-36.9474 331.673,-22.1859"/>
<polygon fill="midnightblue" stroke="midnightblue" points="332.62,-18.8166 322.042,-19.4208 330.688,-25.5447 332.62,-18.8166"/>
</g>
<!-- Node8 -->
<g id="node15" class="node"><title>Node8</title>
<polygon fill="white" stroke="#bfbfbf" points="340,-1 340,-21 388,-21 388,-1 340,-1"/>
<text text-anchor="middle" x="364" y="-8" font-family="FreeSans" font-size="10.00">istream</text>
</g>
<!-- Node2&#45;&gt;Node8 -->
<g id="edge14" class="edge"><title>Node2&#45;&gt;Node8</title>
<path fill="none" stroke="midnightblue" d="M473.007,-58.8972C451.843,-49.5978 420.229,-35.7066 396.488,-25.2752"/>
<polygon fill="midnightblue" stroke="midnightblue" points="397.735,-22.0001 387.172,-21.1817 394.919,-28.4088 397.735,-22.0001"/>
</g>
<!-- Node9 -->
<g id="node17" class="node"><title>Node9</title>
<polygon fill="white" stroke="#bfbfbf" points="405.5,-1 405.5,-21 434.5,-21 434.5,-1 405.5,-1"/>
<text text-anchor="middle" x="420" y="-8" font-family="FreeSans" font-size="10.00">list</text>
</g>
<!-- Node2&#45;&gt;Node9 -->
<g id="edge16" class="edge"><title>Node2&#45;&gt;Node9</title>
<path fill="none" stroke="midnightblue" d="M482.762,-58.8972C471.389,-50.2178 454.774,-37.5384 441.497,-27.4053"/>
<polygon fill="midnightblue" stroke="midnightblue" points="443.414,-24.4661 433.341,-21.1817 439.168,-30.0308 443.414,-24.4661"/>
</g>
<!-- Node10 -->
<g id="node19" class="node"><title>Node10</title>
<polygon fill="white" stroke="#bfbfbf" points="451.5,-1 451.5,-21 486.5,-21 486.5,-1 451.5,-1"/>
<text text-anchor="middle" x="469" y="-8" font-family="FreeSans" font-size="10.00">map</text>
</g>
<!-- Node2&#45;&gt;Node10 -->
<g id="edge18" class="edge"><title>Node2&#45;&gt;Node10</title>
<path fill="none" stroke="midnightblue" d="M491.297,-58.8972C487.664,-51.0926 482.525,-40.0536 478.096,-30.5401"/>
<polygon fill="midnightblue" stroke="midnightblue" points="481.224,-28.9663 473.831,-21.3776 474.878,-31.9206 481.224,-28.9663"/>
</g>
<!-- Node11 -->
<g id="node21" class="node"><title>Node11</title>
<polygon fill="white" stroke="#bfbfbf" points="504,-1 504,-21 544,-21 544,-1 504,-1"/>
<text text-anchor="middle" x="524" y="-8" font-family="FreeSans" font-size="10.00">string</text>
</g>
<!-- Node2&#45;&gt;Node11 -->
<g id="edge20" class="edge"><title>Node2&#45;&gt;Node11</title>
<path fill="none" stroke="midnightblue" d="M500.877,-58.8972C504.645,-51.0926 509.974,-40.0536 514.567,-30.5401"/>
<polygon fill="midnightblue" stroke="midnightblue" points="517.795,-31.9048 518.99,-21.3776 511.491,-28.8615 517.795,-31.9048"/>
</g>
<!-- Node12 -->
<g id="node23" class="node"><title>Node12</title>
<polygon fill="white" stroke="#bfbfbf" points="562,-1 562,-21 612,-21 612,-1 562,-1"/>
<text text-anchor="middle" x="587" y="-8" font-family="FreeSans" font-size="10.00">sstream</text>
</g>
<!-- Node2&#45;&gt;Node12 -->
<g id="edge22" class="edge"><title>Node2&#45;&gt;Node12</title>
<path fill="none" stroke="midnightblue" d="M511.851,-58.8972C525.728,-50.0524 546.122,-37.0539 562.165,-26.829"/>
<polygon fill="midnightblue" stroke="midnightblue" points="564.474,-29.5079 571.025,-21.1817 560.711,-23.605 564.474,-29.5079"/>
</g>
<!-- Node13 -->
<g id="node25" class="node"><title>Node13</title>
<polygon fill="white" stroke="#bfbfbf" points="629.5,-1 629.5,-21 678.5,-21 678.5,-1 629.5,-1"/>
<text text-anchor="middle" x="654" y="-8" font-family="FreeSans" font-size="10.00">fstream</text>
</g>
<!-- Node2&#45;&gt;Node13 -->
<g id="edge24" class="edge"><title>Node2&#45;&gt;Node13</title>
<path fill="none" stroke="midnightblue" d="M523.521,-58.8972C550.254,-49.0841 590.915,-34.1579 619.732,-23.5795"/>
<polygon fill="midnightblue" stroke="midnightblue" points="621.207,-26.7664 629.388,-20.0346 618.795,-20.1951 621.207,-26.7664"/>
</g>
<!-- Node14 -->
<g id="node27" class="node"><title>Node14</title>
<polygon fill="white" stroke="#bfbfbf" points="695.5,-1 695.5,-21 724.5,-21 724.5,-1 695.5,-1"/>
<text text-anchor="middle" x="710" y="-8" font-family="FreeSans" font-size="10.00">set</text>
</g>
<!-- Node2&#45;&gt;Node14 -->
<g id="edge26" class="edge"><title>Node2&#45;&gt;Node14</title>
<path fill="none" stroke="midnightblue" d="M528.7,-63.0766C565.263,-55.9951 626.231,-42.8168 685.586,-22.0661"/>
<polygon fill="midnightblue" stroke="midnightblue" points="686.854,-25.3298 695.095,-18.6704 684.5,-18.7376 686.854,-25.3298"/>
</g>
<!-- Node15 -->
<g id="node29" class="node"><title>Node15</title>
<polygon fill="white" stroke="#bfbfbf" points="741.5,-1 741.5,-21 784.5,-21 784.5,-1 741.5,-1"/>
<text text-anchor="middle" x="763" y="-8" font-family="FreeSans" font-size="10.00">vector</text>
</g>
<!-- Node2&#45;&gt;Node15 -->
<g id="edge28" class="edge"><title>Node2&#45;&gt;Node15</title>
<path fill="none" stroke="midnightblue" d="M528.577,-64.1881C572.725,-57.311 654.084,-43.3798 731.293,-22.2058"/>
<polygon fill="midnightblue" stroke="midnightblue" points="732.482,-25.5078 741.174,-19.4492 730.601,-18.7652 732.482,-25.5078"/>
</g>
<!-- Node16 -->
<g id="node31" class="node"><title>Node16</title>
<polygon fill="white" stroke="#bfbfbf" points="801.5,-1 801.5,-21 840.5,-21 840.5,-1 801.5,-1"/>
<text text-anchor="middle" x="821" y="-8" font-family="FreeSans" font-size="10.00">utility</text>
</g>
<!-- Node2&#45;&gt;Node16 -->
<g id="edge30" class="edge"><title>Node2&#45;&gt;Node16</title>
<path fill="none" stroke="midnightblue" d="M528.568,-66.1828C581.969,-61.0642 691.449,-48.4751 791.349,-22.0421"/>
<polygon fill="midnightblue" stroke="midnightblue" points="792.554,-25.3422 801.295,-19.3552 790.728,-18.5845 792.554,-25.3422"/>
</g>
<!-- Node17 -->
<g id="node33" class="node"><title>Node17</title>
<polygon fill="white" stroke="#bfbfbf" points="857.5,-1 857.5,-21 908.5,-21 908.5,-1 857.5,-1"/>
<text text-anchor="middle" x="883" y="-8" font-family="FreeSans" font-size="10.00">memory</text>
</g>
<!-- Node2&#45;&gt;Node17 -->
<g id="edge32" class="edge"><title>Node2&#45;&gt;Node17</title>
<path fill="none" stroke="midnightblue" d="M528.957,-66.6097C590.16,-61.7436 725.536,-48.9756 847.286,-22.1106"/>
<polygon fill="midnightblue" stroke="midnightblue" points="848.155,-25.5026 857.145,-19.8968 846.622,-18.6726 848.155,-25.5026"/>
</g>
<!-- Node18 -->
<g id="node35" class="node"><title>Node18</title>
<polygon fill="white" stroke="#bfbfbf" points="925.5,-1 925.5,-21 976.5,-21 976.5,-1 925.5,-1"/>
<text text-anchor="middle" x="951" y="-8" font-family="FreeSans" font-size="10.00">ostream</text>
</g>
<!-- Node2&#45;&gt;Node18 -->
<g id="edge34" class="edge"><title>Node2&#45;&gt;Node18</title>
<path fill="none" stroke="midnightblue" d="M528.577,-67.6017C598.172,-64.1389 766.497,-53.2286 914.958,-22.1306"/>
<polygon fill="midnightblue" stroke="midnightblue" points="916.108,-25.464 925.158,-19.9549 914.648,-18.618 916.108,-25.464"/>
</g>
<!-- Node2&#45;&gt;Node19 -->
<g id="edge36" class="edge"><title>Node2&#45;&gt;Node19</title>
<path fill="none" stroke="midnightblue" d="M463.438,-68.2939C390.805,-66.1407 210.142,-57.5753 52.6276,-21.9583"/>
<polygon fill="midnightblue" stroke="midnightblue" points="53.2962,-18.5207 42.7656,-19.6854 51.724,-25.3419 53.2962,-18.5207"/>
</g>
<!-- Node20&#45;&gt;Node2 -->
<g id="edge40" class="edge"><title>Node20&#45;&gt;Node2</title>
<path fill="none" stroke="midnightblue" d="M420.366,-174.706C434.429,-155.051 465.272,-111.945 482.92,-87.2806"/>
<polygon fill="midnightblue" stroke="midnightblue" points="485.797,-89.2748 488.769,-79.1055 480.104,-85.2015 485.797,-89.2748"/>
</g>
<!-- Node21 -->
<g id="node42" class="node"><title>Node21</title>
<a xlink:href="xmlenumerations_8h.html" target="_top" xlink:title="Enumerations and constant values used primarily in the XML system but useful for interacting with it ...">
<polygon fill="white" stroke="black" points="480,-117 480,-137 600,-137 600,-117 480,-117"/>
<text text-anchor="middle" x="540" y="-124" font-family="FreeSans" font-size="10.00">XML/xmlenumerations.h</text>
</a>
</g>
<!-- Node20&#45;&gt;Node21 -->
<g id="edge42" class="edge"><title>Node20&#45;&gt;Node21</title>
<path fill="none" stroke="midnightblue" d="M435.122,-174.897C455.394,-165.639 485.631,-151.83 508.437,-141.415"/>
<polygon fill="midnightblue" stroke="midnightblue" points="510.063,-144.52 517.706,-137.182 507.155,-138.152 510.063,-144.52"/>
</g>
<!-- Node22 -->
<g id="node45" class="node"><title>Node22</title>
<a xlink:href="attribute_8h.html" target="_top" xlink:title="Contains the definition for the XML::Attribute class.">
<polygon fill="white" stroke="black" points="225.5,-117 225.5,-137 308.5,-137 308.5,-117 225.5,-117"/>
<text text-anchor="middle" x="267" y="-124" font-family="FreeSans" font-size="10.00">XML/attribute.h</text>
</a>
</g>
<!-- Node20&#45;&gt;Node22 -->
<g id="edge46" class="edge"><title>Node20&#45;&gt;Node22</title>
<path fill="none" stroke="midnightblue" d="M390.188,-175.938C366.545,-166.545 329.289,-151.745 301.934,-140.878"/>
<polygon fill="midnightblue" stroke="midnightblue" points="302.934,-137.509 292.348,-137.07 300.349,-144.014 302.934,-137.509"/>
</g>
<!-- Node23 -->
<g id="node48" class="node"><title>Node23</title>
<a xlink:href="objectrange_8h.html" target="_top" xlink:title="Contains the implementation of the ObjectRange class template.">
<polygon fill="white" stroke="black" points="326,-117 326,-137 424,-137 424,-117 326,-117"/>
<text text-anchor="middle" x="375" y="-124" font-family="FreeSans" font-size="10.00">XML/objectrange.h</text>
</a>
</g>
<!-- Node20&#45;&gt;Node23 -->
<g id="edge50" class="edge"><title>Node20&#45;&gt;Node23</title>
<path fill="none" stroke="midnightblue" d="M406.381,-174.897C401.16,-166.928 393.73,-155.587 387.41,-145.941"/>
<polygon fill="midnightblue" stroke="midnightblue" points="390.207,-143.824 381.799,-137.378 384.352,-147.66 390.207,-143.824"/>
</g>
<!-- Node21&#45;&gt;Node2 -->
<g id="edge44" class="edge"><title>Node21&#45;&gt;Node2</title>
<path fill="none" stroke="midnightblue" d="M532.336,-116.897C526.166,-108.764 517.331,-97.1183 509.918,-87.3468"/>
<polygon fill="midnightblue" stroke="midnightblue" points="512.705,-85.2292 503.873,-79.3776 507.128,-89.4599 512.705,-85.2292"/>
</g>
<!-- Node22&#45;&gt;Node2 -->
<g id="edge48" class="edge"><title>Node22&#45;&gt;Node2</title>
<path fill="none" stroke="midnightblue" d="M306.627,-116.963C347.546,-106.6 411.183,-90.4821 453.223,-79.8344"/>
<polygon fill="midnightblue" stroke="midnightblue" points="454.322,-83.1666 463.157,-77.3184 452.603,-76.3809 454.322,-83.1666"/>
</g>
<!-- Node23&#45;&gt;Node2 -->
<g id="edge52" class="edge"><title>Node23&#45;&gt;Node2</title>
<path fill="none" stroke="midnightblue" d="M396.077,-116.897C415.305,-107.68 443.942,-93.9532 465.637,-83.5542"/>
<polygon fill="midnightblue" stroke="midnightblue" points="467.254,-86.6603 474.759,-79.1817 464.229,-80.348 467.254,-86.6603"/>
</g>
</g>
</svg>
