<?xml version="1.0" encoding="UTF-8" standalone="no"?>
<!DOCTYPE svg PUBLIC "-//W3C//DTD SVG 1.1//EN"
 "http://www.w3.org/Graphics/SVG/1.1/DTD/svg11.dtd">
<!-- Generated by graphviz version 2.26.3 (20100126.1600)
 -->
<!-- Title: /home/sqeaky/Code/Mezzanine/Mezzanine/src/Graphics/particlesystemproxy.h Pages: 1 -->
<svg width="678pt" height="284pt"
 viewBox="0.00 0.00 678.00 284.00" xmlns="http://www.w3.org/2000/svg" xmlns:xlink="http://www.w3.org/1999/xlink">
<g id="graph1" class="graph" transform="scale(1 1) rotate(0) translate(4 280)">
<title>/home/sqeaky/Code/Mezzanine/Mezzanine/src/Graphics/particlesystemproxy.h</title>
<polygon fill="white" stroke="white" points="-4,5 -4,-280 675,-280 675,5 -4,5"/>
<!-- Node1 -->
<g id="node1" class="node"><title>Node1</title>
<polygon fill="#bfbfbf" stroke="black" points="257.5,-228.5 257.5,-275.5 412.5,-275.5 412.5,-228.5 257.5,-228.5"/>
<text text-anchor="start" x="265.5" y="-262.5" font-family="Helvetica,sans-Serif" font-size="10.00">/home/sqeaky/Code/Mezzanine</text>
<text text-anchor="start" x="265.5" y="-249.5" font-family="Helvetica,sans-Serif" font-size="10.00">/Mezzanine/src/Graphics</text>
<text text-anchor="middle" x="335" y="-236.5" font-family="Helvetica,sans-Serif" font-size="10.00">/particlesystemproxy.h</text>
</g>
<!-- Node2 -->
<g id="node3" class="node"><title>Node2</title>
<a xlink:href="areaeffect_8cpp_source.html" target="_top" xlink:title="/home/sqeaky/Code/Mezzanine\l/Mezzanine/src/areaeffect.cpp">
<polygon fill="white" stroke="black" points="-0.5,-151 -0.5,-185 154.5,-185 154.5,-151 -0.5,-151"/>
<text text-anchor="start" x="7.5" y="-172" font-family="Helvetica,sans-Serif" font-size="10.00">/home/sqeaky/Code/Mezzanine</text>
<text text-anchor="middle" x="77" y="-159" font-family="Helvetica,sans-Serif" font-size="10.00">/Mezzanine/src/areaeffect.cpp</text>
</a>
</g>
<!-- Node1&#45;&gt;Node2 -->
<g id="edge2" class="edge"><title>Node1&#45;&gt;Node2</title>
<path fill="none" stroke="midnightblue" d="M253.204,-225.369C212.733,-212.192 165.071,-196.674 129.528,-185.102"/>
<polygon fill="midnightblue" stroke="midnightblue" points="252.197,-228.722 262.79,-228.49 254.364,-222.066 252.197,-228.722"/>
</g>
<!-- Node3 -->
<g id="node5" class="node"><title>Node3</title>
<a xlink:href="graphics_8h_source.html" target="_top" xlink:title="/home/sqeaky/Code/Mezzanine\l/Mezzanine/src/Graphics\l/graphics.h">
<polygon fill="white" stroke="black" points="171.5,-144.5 171.5,-191.5 326.5,-191.5 326.5,-144.5 171.5,-144.5"/>
<text text-anchor="start" x="179.5" y="-178.5" font-family="Helvetica,sans-Serif" font-size="10.00">/home/sqeaky/Code/Mezzanine</text>
<text text-anchor="start" x="179.5" y="-165.5" font-family="Helvetica,sans-Serif" font-size="10.00">/Mezzanine/src/Graphics</text>
<text text-anchor="middle" x="249" y="-152.5" font-family="Helvetica,sans-Serif" font-size="10.00">/graphics.h</text>
</a>
</g>
<!-- Node1&#45;&gt;Node3 -->
<g id="edge4" class="edge"><title>Node1&#45;&gt;Node3</title>
<path fill="none" stroke="midnightblue" d="M303.2,-220.94C293.274,-211.245 282.492,-200.713 273.177,-191.615"/>
<polygon fill="midnightblue" stroke="midnightblue" points="300.987,-223.67 310.586,-228.154 305.878,-218.662 300.987,-223.67"/>
</g>
<!-- Node6 -->
<g id="node11" class="node"><title>Node6</title>
<a xlink:href="particlesystemproxy_8cpp.html" target="_top" xlink:title="This file contains the implementation for the World proxy wrapping particle functionality. ">
<polygon fill="white" stroke="black" points="343.5,-144.5 343.5,-191.5 498.5,-191.5 498.5,-144.5 343.5,-144.5"/>
<text text-anchor="start" x="351.5" y="-178.5" font-family="Helvetica,sans-Serif" font-size="10.00">/home/sqeaky/Code/Mezzanine</text>
<text text-anchor="start" x="351.5" y="-165.5" font-family="Helvetica,sans-Serif" font-size="10.00">/Mezzanine/src/Graphics</text>
<text text-anchor="middle" x="421" y="-152.5" font-family="Helvetica,sans-Serif" font-size="10.00">/particlesystemproxy.cpp</text>
</a>
</g>
<!-- Node1&#45;&gt;Node6 -->
<g id="edge10" class="edge"><title>Node1&#45;&gt;Node6</title>
<path fill="none" stroke="midnightblue" d="M366.8,-220.94C376.726,-211.245 387.508,-200.713 396.823,-191.615"/>
<polygon fill="midnightblue" stroke="midnightblue" points="364.122,-218.662 359.414,-228.154 369.013,-223.67 364.122,-218.662"/>
</g>
<!-- Node7 -->
<g id="node13" class="node"><title>Node7</title>
<a xlink:href="scenemanager_8cpp_source.html" target="_top" xlink:title="/home/sqeaky/Code/Mezzanine\l/Mezzanine/src/Graphics\l/scenemanager.cpp">
<polygon fill="white" stroke="black" points="515.5,-144.5 515.5,-191.5 670.5,-191.5 670.5,-144.5 515.5,-144.5"/>
<text text-anchor="start" x="523.5" y="-178.5" font-family="Helvetica,sans-Serif" font-size="10.00">/home/sqeaky/Code/Mezzanine</text>
<text text-anchor="start" x="523.5" y="-165.5" font-family="Helvetica,sans-Serif" font-size="10.00">/Mezzanine/src/Graphics</text>
<text text-anchor="middle" x="593" y="-152.5" font-family="Helvetica,sans-Serif" font-size="10.00">/scenemanager.cpp</text>
</a>
</g>
<!-- Node1&#45;&gt;Node7 -->
<g id="edge12" class="edge"><title>Node1&#45;&gt;Node7</title>
<path fill="none" stroke="midnightblue" d="M416.936,-225.323C450.294,-214.462 488.517,-202.018 520.807,-191.505"/>
<polygon fill="midnightblue" stroke="midnightblue" points="415.636,-222.066 407.21,-228.49 417.803,-228.722 415.636,-222.066"/>
</g>
<!-- Node4 -->
<g id="node7" class="node"><title>Node4</title>
<a xlink:href="mezzanine_8h.html" target="_top" xlink:title="A single file that includes all of the Mezzanine engine. ">
<polygon fill="white" stroke="black" points="171.5,-73 171.5,-107 326.5,-107 326.5,-73 171.5,-73"/>
<text text-anchor="start" x="179.5" y="-94" font-family="Helvetica,sans-Serif" font-size="10.00">/home/sqeaky/Code/Mezzanine</text>
<text text-anchor="middle" x="249" y="-81" font-family="Helvetica,sans-Serif" font-size="10.00">/Mezzanine/src/mezzanine.h</text>
</a>
</g>
<!-- Node3&#45;&gt;Node4 -->
<g id="edge6" class="edge"><title>Node3&#45;&gt;Node4</title>
<path fill="none" stroke="midnightblue" d="M249,-133.93C249,-124.611 249,-114.911 249,-107.003"/>
<polygon fill="midnightblue" stroke="midnightblue" points="245.5,-134.174 249,-144.174 252.5,-134.174 245.5,-134.174"/>
</g>
<!-- Node5 -->
<g id="node9" class="node"><title>Node5</title>
<a xlink:href="entresol_8cpp_source.html" target="_top" xlink:title="/home/sqeaky/Code/Mezzanine\l/Mezzanine/src/entresol.cpp">
<polygon fill="white" stroke="black" points="171.5,-1 171.5,-35 326.5,-35 326.5,-1 171.5,-1"/>
<text text-anchor="start" x="179.5" y="-22" font-family="Helvetica,sans-Serif" font-size="10.00">/home/sqeaky/Code/Mezzanine</text>
<text text-anchor="middle" x="249" y="-9" font-family="Helvetica,sans-Serif" font-size="10.00">/Mezzanine/src/entresol.cpp</text>
</a>
</g>
<!-- Node4&#45;&gt;Node5 -->
<g id="edge8" class="edge"><title>Node4&#45;&gt;Node5</title>
<path fill="none" stroke="midnightblue" d="M249,-62.7193C249,-53.572 249,-43.6255 249,-35.4407"/>
<polygon fill="midnightblue" stroke="midnightblue" points="245.5,-62.937 249,-72.937 252.5,-62.937 245.5,-62.937"/>
</g>
</g>
</svg>
