<?xml version="1.0" encoding="UTF-8" standalone="no"?>
<!DOCTYPE svg PUBLIC "-//W3C//DTD SVG 1.1//EN"
 "http://www.w3.org/Graphics/SVG/1.1/DTD/svg11.dtd">
<!-- Generated by graphviz version 2.26.3 (20100126.1600)
 -->
<!-- Title: /home/sqeaky/Projects/MezzanineCurrent/Mezzanine/Mezzanine/src/Audio/playlist.h Pages: 1 -->
<svg width="156pt" height="218pt"
 viewBox="0.00 0.00 156.00 218.00" xmlns="http://www.w3.org/2000/svg" xmlns:xlink="http://www.w3.org/1999/xlink">
<g id="graph1" class="graph" transform="scale(1 1) rotate(0) translate(4 214)">
<title>/home/sqeaky/Projects/MezzanineCurrent/Mezzanine/Mezzanine/src/Audio/playlist.h</title>
<polygon fill="white" stroke="white" points="-4,5 -4,-214 153,-214 153,5 -4,5"/>
<!-- Node1 -->
<g id="node1" class="node"><title>Node1</title>
<polygon fill="#bfbfbf" stroke="black" points="-0.5,-165 -0.5,-209 148.5,-209 148.5,-165 -0.5,-165"/>
<text text-anchor="start" x="7.5" y="-196" font-family="FreeSans" font-size="10.00">/home/sqeaky/Projects</text>
<text text-anchor="start" x="7.5" y="-184" font-family="FreeSans" font-size="10.00">/MezzanineCurrent/Mezzanine</text>
<text text-anchor="middle" x="74" y="-172" font-family="FreeSans" font-size="10.00">/Mezzanine/src/Audio/playlist.h</text>
</g>
<!-- Node2 -->
<g id="node3" class="node"><title>Node2</title>
<a xlink:href="audio_8h_source.xhtml" target="_top" xlink:title="/home/sqeaky/Projects\l/MezzanineCurrent/Mezzanine\l/Mezzanine/src/audio.h">
<polygon fill="white" stroke="black" points="1,-83 1,-127 147,-127 147,-83 1,-83"/>
<text text-anchor="start" x="9" y="-114" font-family="FreeSans" font-size="10.00">/home/sqeaky/Projects</text>
<text text-anchor="start" x="9" y="-102" font-family="FreeSans" font-size="10.00">/MezzanineCurrent/Mezzanine</text>
<text text-anchor="middle" x="74" y="-90" font-family="FreeSans" font-size="10.00">/Mezzanine/src/audio.h</text>
</a>
</g>
<!-- Node1&#45;&gt;Node2 -->
<g id="edge2" class="edge"><title>Node1&#45;&gt;Node2</title>
<path fill="none" stroke="midnightblue" d="M74,-154.558C74,-145.349 74,-135.538 74,-127.096"/>
<polygon fill="midnightblue" stroke="midnightblue" points="70.5001,-154.593 74,-164.593 77.5001,-154.593 70.5001,-154.593"/>
</g>
<!-- Node3 -->
<g id="node5" class="node"><title>Node3</title>
<a xlink:href="mezzanine_8h.xhtml" target="_top" xlink:title="A single file that includes all of the Mezzanine engine.">
<polygon fill="white" stroke="black" points="1,-1 1,-45 147,-45 147,-1 1,-1"/>
<text text-anchor="start" x="9" y="-32" font-family="FreeSans" font-size="10.00">/home/sqeaky/Projects</text>
<text text-anchor="start" x="9" y="-20" font-family="FreeSans" font-size="10.00">/MezzanineCurrent/Mezzanine</text>
<text text-anchor="middle" x="74" y="-8" font-family="FreeSans" font-size="10.00">/Mezzanine/src/mezzanine.h</text>
</a>
</g>
<!-- Node2&#45;&gt;Node3 -->
<g id="edge4" class="edge"><title>Node2&#45;&gt;Node3</title>
<path fill="none" stroke="midnightblue" d="M74,-72.5577C74,-63.3493 74,-53.5381 74,-45.0959"/>
<polygon fill="midnightblue" stroke="midnightblue" points="70.5001,-72.5931 74,-82.5931 77.5001,-72.5932 70.5001,-72.5931"/>
</g>
</g>
</svg>
