<?xml version="1.0" encoding="UTF-8" standalone="no"?>
<!DOCTYPE svg PUBLIC "-//W3C//DTD SVG 1.1//EN"
 "http://www.w3.org/Graphics/SVG/1.1/DTD/svg11.dtd">
<!-- Generated by graphviz version 2.36.0 (20140111.2315)
 -->
<!-- Title: /home/sqeaky/Code/Mezzanine/UnitTests/src/pugixml.h Pages: 1 -->
<svg width="411pt" height="96pt"
 viewBox="0.00 0.00 411.00 96.00" xmlns="http://www.w3.org/2000/svg" xmlns:xlink="http://www.w3.org/1999/xlink">
<g id="graph0" class="graph" transform="scale(1 1) rotate(0) translate(4 92)">
<title>/home/sqeaky/Code/Mezzanine/UnitTests/src/pugixml.h</title>
<polygon fill="white" stroke="none" points="-4,4 -4,-92 407,-92 407,4 -4,4"/>
<!-- Node1 -->
<g id="node1" class="node"><title>Node1</title>
<polygon fill="#bfbfbf" stroke="black" points="144.5,-57 144.5,-87 299.5,-87 299.5,-57 144.5,-57"/>
<text text-anchor="start" x="152.5" y="-75" font-family="Helvetica,sans-Serif" font-size="10.00">/home/sqeaky/Code/Mezzanine</text>
<text text-anchor="middle" x="222" y="-64" font-family="Helvetica,sans-Serif" font-size="10.00">/UnitTests/src/pugixml.h</text>
</g>
<!-- Node2 -->
<g id="node2" class="node"><title>Node2</title>
<g id="a_node2"><a xlink:href="pugiconfig_8h.html" target="_top" xlink:title="To allow this test harness to be used without the mezzanine it uses pugixml for xml parsing and this ...">
<polygon fill="white" stroke="black" points="-0.5,-0.5 -0.5,-19.5 68.5,-19.5 68.5,-0.5 -0.5,-0.5"/>
<text text-anchor="middle" x="34" y="-7.5" font-family="Helvetica,sans-Serif" font-size="10.00">pugiconfig.h</text>
</a>
</g>
</g>
<!-- Node1&#45;&gt;Node2 -->
<g id="edge1" class="edge"><title>Node1&#45;&gt;Node2</title>
<path fill="none" stroke="midnightblue" d="M177.922,-56.9327C145.257,-46.5077 101.262,-32.4667 70.5455,-22.6635"/>
<polygon fill="midnightblue" stroke="midnightblue" points="71.2639,-19.2189 60.6731,-19.5127 69.1355,-25.8875 71.2639,-19.2189"/>
</g>
<!-- Node3 -->
<g id="node3" class="node"><title>Node3</title>
<polygon fill="white" stroke="#bfbfbf" points="87,-0.5 87,-19.5 139,-19.5 139,-0.5 87,-0.5"/>
<text text-anchor="middle" x="113" y="-7.5" font-family="Helvetica,sans-Serif" font-size="10.00">stddef.h</text>
</g>
<!-- Node1&#45;&gt;Node3 -->
<g id="edge2" class="edge"><title>Node1&#45;&gt;Node3</title>
<path fill="none" stroke="midnightblue" d="M196.444,-56.9327C178.712,-47.1715 155.22,-34.2401 137.68,-24.5856"/>
<polygon fill="midnightblue" stroke="midnightblue" points="139.072,-21.3562 128.623,-19.6 135.696,-27.4885 139.072,-21.3562"/>
</g>
<!-- Node4 -->
<g id="node4" class="node"><title>Node4</title>
<polygon fill="white" stroke="#bfbfbf" points="157.5,-0.5 157.5,-19.5 216.5,-19.5 216.5,-0.5 157.5,-0.5"/>
<text text-anchor="middle" x="187" y="-7.5" font-family="Helvetica,sans-Serif" font-size="10.00">exception</text>
</g>
<!-- Node1&#45;&gt;Node4 -->
<g id="edge3" class="edge"><title>Node1&#45;&gt;Node4</title>
<path fill="none" stroke="midnightblue" d="M213.705,-56.7808C208.777,-48.3318 202.486,-37.5481 197.249,-28.5693"/>
<polygon fill="midnightblue" stroke="midnightblue" points="200.155,-26.6048 192.093,-19.7305 194.108,-30.1319 200.155,-26.6048"/>
</g>
<!-- Node5 -->
<g id="node5" class="node"><title>Node5</title>
<polygon fill="white" stroke="#bfbfbf" points="234.5,-0.5 234.5,-19.5 281.5,-19.5 281.5,-0.5 234.5,-0.5"/>
<text text-anchor="middle" x="258" y="-7.5" font-family="Helvetica,sans-Serif" font-size="10.00">iterator</text>
</g>
<!-- Node1&#45;&gt;Node5 -->
<g id="edge4" class="edge"><title>Node1&#45;&gt;Node5</title>
<path fill="none" stroke="midnightblue" d="M230.531,-56.7808C235.601,-48.3318 242.071,-37.5481 247.458,-28.5693"/>
<polygon fill="midnightblue" stroke="midnightblue" points="250.618,-30.1062 252.762,-19.7305 244.615,-26.5047 250.618,-30.1062"/>
</g>
<!-- Node6 -->
<g id="node6" class="node"><title>Node6</title>
<polygon fill="white" stroke="#bfbfbf" points="299.5,-0.5 299.5,-19.5 344.5,-19.5 344.5,-0.5 299.5,-0.5"/>
<text text-anchor="middle" x="322" y="-7.5" font-family="Helvetica,sans-Serif" font-size="10.00">iosfwd</text>
</g>
<!-- Node1&#45;&gt;Node6 -->
<g id="edge5" class="edge"><title>Node1&#45;&gt;Node6</title>
<path fill="none" stroke="midnightblue" d="M245.446,-56.9327C261.564,-47.2619 282.868,-34.4793 298.909,-24.8546"/>
<polygon fill="midnightblue" stroke="midnightblue" points="300.892,-27.7463 307.667,-19.6 297.291,-21.7438 300.892,-27.7463"/>
</g>
<!-- Node7 -->
<g id="node7" class="node"><title>Node7</title>
<polygon fill="white" stroke="#bfbfbf" points="362.5,-0.5 362.5,-19.5 403.5,-19.5 403.5,-0.5 362.5,-0.5"/>
<text text-anchor="middle" x="383" y="-7.5" font-family="Helvetica,sans-Serif" font-size="10.00">string</text>
</g>
<!-- Node1&#45;&gt;Node7 -->
<g id="edge6" class="edge"><title>Node1&#45;&gt;Node7</title>
<path fill="none" stroke="midnightblue" d="M259.747,-56.9327C288.098,-46.3673 326.415,-32.0877 352.76,-22.2696"/>
<polygon fill="midnightblue" stroke="midnightblue" points="354.077,-25.514 362.225,-18.7422 351.632,-18.9547 354.077,-25.514"/>
</g>
</g>
</svg>
