<?xml version="1.0" encoding="UTF-8" standalone="no"?>
<!DOCTYPE svg PUBLIC "-//W3C//DTD SVG 1.1//EN"
 "http://www.w3.org/Graphics/SVG/1.1/DTD/svg11.dtd">
<!-- Generated by graphviz version 2.26.3 (20100126.1600)
 -->
<!-- Title: /home/sqeaky/Projects/MezzanineCurrent/Mezzanine/Mezzanine/src/resourcemanager.h Pages: 1 -->
<svg width="1347pt" height="518pt"
 viewBox="0.00 0.00 1347.00 518.00" xmlns="http://www.w3.org/2000/svg" xmlns:xlink="http://www.w3.org/1999/xlink">
<g id="graph1" class="graph" transform="scale(1 1) rotate(0) translate(4 514)">
<title>/home/sqeaky/Projects/MezzanineCurrent/Mezzanine/Mezzanine/src/resourcemanager.h</title>
<polygon fill="white" stroke="white" points="-4,5 -4,-514 1344,-514 1344,5 -4,5"/>
<!-- Node1 -->
<g id="node1" class="node"><title>Node1</title>
<polygon fill="#bfbfbf" stroke="black" points="946,-465 946,-509 1112,-509 1112,-465 946,-465"/>
<text text-anchor="start" x="954" y="-496" font-family="FreeSans" font-size="10.00">/home/sqeaky/Projects</text>
<text text-anchor="start" x="954" y="-484" font-family="FreeSans" font-size="10.00">/MezzanineCurrent/Mezzanine</text>
<text text-anchor="middle" x="1029" y="-472" font-family="FreeSans" font-size="10.00">/Mezzanine/src/resourcemanager.h</text>
</g>
<!-- Node2 -->
<g id="node3" class="node"><title>Node2</title>
<a xlink:href="crossplatformexport_8h.html" target="_top" xlink:title="This file is used on some platforms to determine what data should be read and written to and from a s...">
<polygon fill="white" stroke="black" points="98,-1 98,-21 206,-21 206,-1 98,-1"/>
<text text-anchor="middle" x="152" y="-8" font-family="FreeSans" font-size="10.00">crossplatformexport.h</text>
</a>
</g>
<!-- Node1&#45;&gt;Node2 -->
<g id="edge2" class="edge"><title>Node1&#45;&gt;Node2</title>
<path fill="none" stroke="midnightblue" d="M945.75,-485.125C757.209,-480.274 302.473,-465.008 154,-428 81.2261,-409.861 0,-434.001 0,-359 0,-359 0,-359 0,-127 0,-72.8788 61.6505,-40.6442 106.426,-24.3699"/>
<polygon fill="midnightblue" stroke="midnightblue" points="107.686,-27.6374 115.978,-21.043 105.383,-21.0268 107.686,-27.6374"/>
</g>
<!-- Node3 -->
<g id="node5" class="node"><title>Node3</title>
<a xlink:href="datatypes_8h.html" target="_top" xlink:title="All the definitions for datatypes as well as some basic conversion functions are defined here...">
<polygon fill="white" stroke="black" points="928.5,-59 928.5,-79 993.5,-79 993.5,-59 928.5,-59"/>
<text text-anchor="middle" x="961" y="-66" font-family="FreeSans" font-size="10.00">datatypes.h</text>
</a>
</g>
<!-- Node1&#45;&gt;Node3 -->
<g id="edge4" class="edge"><title>Node1&#45;&gt;Node3</title>
<path fill="none" stroke="midnightblue" d="M1112.07,-469.746C1203.9,-448.225 1339,-408.202 1339,-359 1339,-359 1339,-359 1339,-185 1339,-147.128 1321.42,-135.569 1289,-116 1241.84,-87.539 1081.71,-75.3587 1004,-71.0274"/>
<polygon fill="midnightblue" stroke="midnightblue" points="1003.78,-67.5104 993.603,-70.4675 1003.4,-74.5003 1003.78,-67.5104"/>
</g>
<!-- Node15 -->
<g id="node30" class="node"><title>Node15</title>
<a xlink:href="enumerations_8h.html" target="_top" xlink:title="Any global enumerations shared between multiple classes is to be declared here.">
<polygon fill="white" stroke="black" points="66,-175 66,-195 148,-195 148,-175 66,-175"/>
<text text-anchor="middle" x="107" y="-182" font-family="FreeSans" font-size="10.00">enumerations.h</text>
</a>
</g>
<!-- Node1&#45;&gt;Node15 -->
<g id="edge30" class="edge"><title>Node1&#45;&gt;Node15</title>
<path fill="none" stroke="midnightblue" d="M945.679,-484.504C713.474,-476.45 76,-446.381 76,-359 76,-359 76,-359 76,-301 76,-266.088 89.2675,-227.209 98.4432,-204.495"/>
<polygon fill="midnightblue" stroke="midnightblue" points="101.786,-205.576 102.426,-195 95.3303,-202.868 101.786,-205.576"/>
</g>
<!-- Node16 -->
<g id="node32" class="node"><title>Node16</title>
<a xlink:href="managerbase_8h_source.html" target="_top" xlink:title="managerbase.h">
<polygon fill="white" stroke="black" points="864,-233 864,-253 946,-253 946,-233 864,-233"/>
<text text-anchor="middle" x="905" y="-240" font-family="FreeSans" font-size="10.00">managerbase.h</text>
</a>
</g>
<!-- Node1&#45;&gt;Node16 -->
<g id="edge32" class="edge"><title>Node1&#45;&gt;Node16</title>
<path fill="none" stroke="midnightblue" d="M1033.51,-464.731C1040.15,-425.418 1047.99,-342.878 1010,-290 997.131,-272.089 975.826,-260.885 955.758,-253.934"/>
<polygon fill="midnightblue" stroke="midnightblue" points="956.639,-250.541 946.049,-250.853 954.522,-257.213 956.639,-250.541"/>
</g>
<!-- Node25 -->
<g id="node58" class="node"><title>Node25</title>
<a xlink:href="managerfactory_8h_source.html" target="_top" xlink:title="managerfactory.h">
<polygon fill="white" stroke="black" points="1220.5,-349 1220.5,-369 1311.5,-369 1311.5,-349 1220.5,-349"/>
<text text-anchor="middle" x="1266" y="-356" font-family="FreeSans" font-size="10.00">managerfactory.h</text>
</a>
</g>
<!-- Node1&#45;&gt;Node25 -->
<g id="edge66" class="edge"><title>Node1&#45;&gt;Node25</title>
<path fill="none" stroke="midnightblue" d="M1112.12,-469.536C1143.59,-460.419 1178.63,-447.067 1207,-428 1226.5,-414.895 1243.29,-393.658 1253.92,-378.201"/>
<polygon fill="midnightblue" stroke="midnightblue" points="1257.12,-379.72 1259.71,-369.449 1251.28,-375.858 1257.12,-379.72"/>
</g>
<!-- Node26 -->
<g id="node61" class="node"><title>Node26</title>
<a xlink:href="singleton_8h_source.html" target="_top" xlink:title="singleton.h">
<polygon fill="white" stroke="black" points="1162,-291 1162,-311 1224,-311 1224,-291 1162,-291"/>
<text text-anchor="middle" x="1193" y="-298" font-family="FreeSans" font-size="10.00">singleton.h</text>
</a>
</g>
<!-- Node1&#45;&gt;Node26 -->
<g id="edge70" class="edge"><title>Node1&#45;&gt;Node26</title>
<path fill="none" stroke="midnightblue" d="M1048.46,-464.933C1081.31,-427.674 1147.13,-353.018 1177.28,-318.834"/>
<polygon fill="midnightblue" stroke="midnightblue" points="1180.14,-320.877 1184.13,-311.062 1174.89,-316.248 1180.14,-320.877"/>
</g>
<!-- Node27 -->
<g id="node64" class="node"><title>Node27</title>
<a xlink:href="inputstream_8h_source.html" target="_top" xlink:title="Resource/inputstream.h">
<polygon fill="white" stroke="black" points="874,-407 874,-427 992,-427 992,-407 874,-407"/>
<text text-anchor="middle" x="933" y="-414" font-family="FreeSans" font-size="10.00">Resource/inputstream.h</text>
</a>
</g>
<!-- Node1&#45;&gt;Node27 -->
<g id="edge74" class="edge"><title>Node1&#45;&gt;Node27</title>
<path fill="none" stroke="midnightblue" d="M998.625,-464.852C984.521,-454.568 968.06,-442.565 955.152,-433.153"/>
<polygon fill="midnightblue" stroke="midnightblue" points="956.999,-430.168 946.857,-427.104 952.875,-435.824 956.999,-430.168"/>
</g>
<!-- Node3&#45;&gt;Node2 -->
<g id="edge6" class="edge"><title>Node3&#45;&gt;Node2</title>
<path fill="none" stroke="midnightblue" d="M928.284,-66.6545C806.797,-57.9446 380.176,-27.3587 216.551,-15.6279"/>
<polygon fill="midnightblue" stroke="midnightblue" points="216.384,-12.107 206.16,-14.8829 215.884,-19.0891 216.384,-12.107"/>
</g>
<!-- Node4 -->
<g id="node8" class="node"><title>Node4</title>
<polygon fill="white" stroke="#bfbfbf" points="1195.5,-1 1195.5,-21 1242.5,-21 1242.5,-1 1195.5,-1"/>
<text text-anchor="middle" x="1219" y="-8" font-family="FreeSans" font-size="10.00">stdint.h</text>
</g>
<!-- Node3&#45;&gt;Node4 -->
<g id="edge8" class="edge"><title>Node3&#45;&gt;Node4</title>
<path fill="none" stroke="midnightblue" d="M993.868,-63.5067C1036.23,-56.1356 1112.28,-41.9194 1185.5,-22.1955"/>
<polygon fill="midnightblue" stroke="midnightblue" points="1186.61,-25.5185 1195.34,-19.5057 1184.77,-18.7662 1186.61,-25.5185"/>
</g>
<!-- Node5 -->
<g id="node10" class="node"><title>Node5</title>
<polygon fill="white" stroke="#bfbfbf" points="652,-1 652,-21 708,-21 708,-1 652,-1"/>
<text text-anchor="middle" x="680" y="-8" font-family="FreeSans" font-size="10.00">algorithm</text>
</g>
<!-- Node3&#45;&gt;Node5 -->
<g id="edge10" class="edge"><title>Node3&#45;&gt;Node5</title>
<path fill="none" stroke="midnightblue" d="M928.415,-63.7761C883.255,-56.3077 798.934,-41.5406 718.048,-22.0918"/>
<polygon fill="midnightblue" stroke="midnightblue" points="718.748,-18.66 708.204,-19.697 717.093,-25.4617 718.748,-18.66"/>
</g>
<!-- Node6 -->
<g id="node12" class="node"><title>Node6</title>
<polygon fill="white" stroke="#bfbfbf" points="726,-1 726,-21 784,-21 784,-1 726,-1"/>
<text text-anchor="middle" x="755" y="-8" font-family="FreeSans" font-size="10.00">exception</text>
</g>
<!-- Node3&#45;&gt;Node6 -->
<g id="edge12" class="edge"><title>Node3&#45;&gt;Node6</title>
<path fill="none" stroke="midnightblue" d="M928.455,-59.9885C896.577,-51.141 846.366,-37.1508 793.864,-22.2306"/>
<polygon fill="midnightblue" stroke="midnightblue" points="794.615,-18.8052 784.038,-19.4349 792.699,-25.538 794.615,-18.8052"/>
</g>
<!-- Node7 -->
<g id="node14" class="node"><title>Node7</title>
<polygon fill="white" stroke="#bfbfbf" points="802,-1 802,-21 850,-21 850,-1 802,-1"/>
<text text-anchor="middle" x="826" y="-8" font-family="FreeSans" font-size="10.00">istream</text>
</g>
<!-- Node3&#45;&gt;Node7 -->
<g id="edge14" class="edge"><title>Node3&#45;&gt;Node7</title>
<path fill="none" stroke="midnightblue" d="M937.485,-58.8972C915.744,-49.5565 883.219,-35.5831 858.904,-25.1363"/>
<polygon fill="midnightblue" stroke="midnightblue" points="860.268,-21.9133 849.699,-21.1817 857.505,-28.3449 860.268,-21.9133"/>
</g>
<!-- Node8 -->
<g id="node16" class="node"><title>Node8</title>
<polygon fill="white" stroke="#bfbfbf" points="867.5,-1 867.5,-21 896.5,-21 896.5,-1 867.5,-1"/>
<text text-anchor="middle" x="882" y="-8" font-family="FreeSans" font-size="10.00">list</text>
</g>
<!-- Node3&#45;&gt;Node8 -->
<g id="edge16" class="edge"><title>Node3&#45;&gt;Node8</title>
<path fill="none" stroke="midnightblue" d="M947.239,-58.8972C935.305,-50.1351 917.818,-37.2965 903.952,-27.1164"/>
<polygon fill="midnightblue" stroke="midnightblue" points="906,-24.2785 895.868,-21.1817 901.858,-29.921 906,-24.2785"/>
</g>
<!-- Node9 -->
<g id="node18" class="node"><title>Node9</title>
<polygon fill="white" stroke="#bfbfbf" points="913.5,-1 913.5,-21 948.5,-21 948.5,-1 913.5,-1"/>
<text text-anchor="middle" x="931" y="-8" font-family="FreeSans" font-size="10.00">map</text>
</g>
<!-- Node3&#45;&gt;Node9 -->
<g id="edge18" class="edge"><title>Node3&#45;&gt;Node9</title>
<path fill="none" stroke="midnightblue" d="M955.774,-58.8972C951.738,-51.0926 946.028,-40.0536 941.107,-30.5401"/>
<polygon fill="midnightblue" stroke="midnightblue" points="944.071,-28.6518 936.368,-21.3776 937.853,-31.8678 944.071,-28.6518"/>
</g>
<!-- Node10 -->
<g id="node20" class="node"><title>Node10</title>
<polygon fill="white" stroke="#bfbfbf" points="489,-1 489,-21 529,-21 529,-1 489,-1"/>
<text text-anchor="middle" x="509" y="-8" font-family="FreeSans" font-size="10.00">string</text>
</g>
<!-- Node3&#45;&gt;Node10 -->
<g id="edge20" class="edge"><title>Node3&#45;&gt;Node10</title>
<path fill="none" stroke="midnightblue" d="M928.493,-64.8288C844.417,-54.0403 620.683,-25.3311 539.212,-14.8768"/>
<polygon fill="midnightblue" stroke="midnightblue" points="539.489,-11.3836 529.125,-13.5823 538.598,-18.3267 539.489,-11.3836"/>
</g>
<!-- Node11 -->
<g id="node22" class="node"><title>Node11</title>
<polygon fill="white" stroke="#bfbfbf" points="966,-1 966,-21 1016,-21 1016,-1 966,-1"/>
<text text-anchor="middle" x="991" y="-8" font-family="FreeSans" font-size="10.00">sstream</text>
</g>
<!-- Node3&#45;&gt;Node11 -->
<g id="edge22" class="edge"><title>Node3&#45;&gt;Node11</title>
<path fill="none" stroke="midnightblue" d="M966.226,-58.8972C970.262,-51.0926 975.972,-40.0536 980.893,-30.5401"/>
<polygon fill="midnightblue" stroke="midnightblue" points="984.147,-31.8678 985.632,-21.3776 977.929,-28.6518 984.147,-31.8678"/>
</g>
<!-- Node12 -->
<g id="node24" class="node"><title>Node12</title>
<polygon fill="white" stroke="#bfbfbf" points="1033.5,-1 1033.5,-21 1062.5,-21 1062.5,-1 1033.5,-1"/>
<text text-anchor="middle" x="1048" y="-8" font-family="FreeSans" font-size="10.00">set</text>
</g>
<!-- Node3&#45;&gt;Node12 -->
<g id="edge24" class="edge"><title>Node3&#45;&gt;Node12</title>
<path fill="none" stroke="midnightblue" d="M976.154,-58.8972C989.584,-49.9439 1009.4,-36.7343 1024.82,-26.4539"/>
<polygon fill="midnightblue" stroke="midnightblue" points="1026.93,-29.253 1033.31,-20.7938 1023.05,-23.4287 1026.93,-29.253"/>
</g>
<!-- Node13 -->
<g id="node26" class="node"><title>Node13</title>
<polygon fill="white" stroke="#bfbfbf" points="1079.5,-1 1079.5,-21 1122.5,-21 1122.5,-1 1079.5,-1"/>
<text text-anchor="middle" x="1101" y="-8" font-family="FreeSans" font-size="10.00">vector</text>
</g>
<!-- Node3&#45;&gt;Node13 -->
<g id="edge26" class="edge"><title>Node3&#45;&gt;Node13</title>
<path fill="none" stroke="midnightblue" d="M985.386,-58.8972C1008.76,-49.2127 1044.16,-34.5481 1069.63,-23.9975"/>
<polygon fill="midnightblue" stroke="midnightblue" points="1071.29,-27.0956 1079.19,-20.0346 1068.61,-20.6286 1071.29,-27.0956"/>
</g>
<!-- Node14 -->
<g id="node28" class="node"><title>Node14</title>
<polygon fill="white" stroke="#bfbfbf" points="1139.5,-1 1139.5,-21 1178.5,-21 1178.5,-1 1139.5,-1"/>
<text text-anchor="middle" x="1159" y="-8" font-family="FreeSans" font-size="10.00">utility</text>
</g>
<!-- Node3&#45;&gt;Node14 -->
<g id="edge28" class="edge"><title>Node3&#45;&gt;Node14</title>
<path fill="none" stroke="midnightblue" d="M993.578,-61.0733C1026,-52.9472 1077.34,-39.4496 1129.47,-22.3126"/>
<polygon fill="midnightblue" stroke="midnightblue" points="1130.83,-25.5499 1139.21,-19.0709 1128.62,-18.9082 1130.83,-25.5499"/>
</g>
<!-- Node16&#45;&gt;Node2 -->
<g id="edge36" class="edge"><title>Node16&#45;&gt;Node2</title>
<path fill="none" stroke="midnightblue" d="M863.923,-234.388C859.237,-233.524 854.522,-232.706 850,-232 709.03,-209.989 671.925,-218.297 531,-196 499.189,-190.967 274.072,-155.447 247,-138 210.085,-114.21 215.477,-93.0382 189,-58 181.769,-48.4305 173.531,-37.9288 166.667,-29.2841"/>
<polygon fill="midnightblue" stroke="midnightblue" points="169.32,-26.9976 160.349,-21.3616 163.847,-31.3621 169.32,-26.9976"/>
</g>
<!-- Node16&#45;&gt;Node3 -->
<g id="edge34" class="edge"><title>Node16&#45;&gt;Node3</title>
<path fill="none" stroke="midnightblue" d="M914.328,-232.826C936.308,-208.738 989.824,-149.386 994,-138 1000.59,-120.036 989.305,-100.435 978.182,-86.7299"/>
<polygon fill="midnightblue" stroke="midnightblue" points="980.658,-84.2448 971.437,-79.0262 975.391,-88.8558 980.658,-84.2448"/>
</g>
<!-- Node17 -->
<g id="node36" class="node"><title>Node17</title>
<a xlink:href="xml_8h.html" target="_top" xlink:title="This is where bulk of the XML subsystem is declare, there are numerous class that are all tighlty int...">
<polygon fill="white" stroke="black" points="540,-175 540,-195 602,-195 602,-175 540,-175"/>
<text text-anchor="middle" x="571" y="-182" font-family="FreeSans" font-size="10.00">XML/xml.h</text>
</a>
</g>
<!-- Node16&#45;&gt;Node17 -->
<g id="edge38" class="edge"><title>Node16&#45;&gt;Node17</title>
<path fill="none" stroke="midnightblue" d="M863.881,-234.634C859.203,-233.724 854.501,-232.829 850,-232 765.588,-216.453 666.424,-200.232 611.973,-191.501"/>
<polygon fill="midnightblue" stroke="midnightblue" points="612.446,-188.032 602.019,-189.908 611.34,-194.944 612.446,-188.032"/>
</g>
<!-- Node17&#45;&gt;Node10 -->
<g id="edge64" class="edge"><title>Node17&#45;&gt;Node10</title>
<path fill="none" stroke="midnightblue" d="M539.898,-181.075C513.91,-175.973 478.392,-164.343 461,-138 437.782,-102.831 470.407,-54.8406 492.199,-29.0917"/>
<polygon fill="midnightblue" stroke="midnightblue" points="495.106,-31.0852 499.077,-21.2627 489.847,-26.4649 495.106,-31.0852"/>
</g>
<!-- Node18 -->
<g id="node38" class="node"><title>Node18</title>
<a xlink:href="crossplatform_8h_source.html" target="_top" xlink:title="crossplatform.h">
<polygon fill="white" stroke="black" points="256,-117 256,-137 338,-137 338,-117 256,-117"/>
<text text-anchor="middle" x="297" y="-124" font-family="FreeSans" font-size="10.00">crossplatform.h</text>
</a>
</g>
<!-- Node17&#45;&gt;Node18 -->
<g id="edge40" class="edge"><title>Node17&#45;&gt;Node18</title>
<path fill="none" stroke="midnightblue" d="M539.835,-178.403C493.223,-168.536 404.819,-149.823 348.51,-137.904"/>
<polygon fill="midnightblue" stroke="midnightblue" points="348.894,-134.407 338.386,-135.761 347.445,-141.256 348.894,-134.407"/>
</g>
<!-- Node19 -->
<g id="node42" class="node"><title>Node19</title>
<a xlink:href="xmldoc_8h.html" target="_top" xlink:title="This file houses all the documentation for the XML system that is not directly related to a specific ...">
<polygon fill="white" stroke="black" points="664,-117 664,-137 742,-137 742,-117 664,-117"/>
<text text-anchor="middle" x="703" y="-124" font-family="FreeSans" font-size="10.00">XML/xmldoc.h</text>
</a>
</g>
<!-- Node17&#45;&gt;Node19 -->
<g id="edge46" class="edge"><title>Node17&#45;&gt;Node19</title>
<path fill="none" stroke="midnightblue" d="M593.993,-174.897C615.157,-165.598 646.771,-151.707 670.512,-141.275"/>
<polygon fill="midnightblue" stroke="midnightblue" points="672.081,-144.409 679.828,-137.182 669.265,-138 672.081,-144.409"/>
</g>
<!-- Node20 -->
<g id="node45" class="node"><title>Node20</title>
<a xlink:href="exception_8h_source.html" target="_top" xlink:title="exception.h">
<polygon fill="white" stroke="black" points="1159.5,-117 1159.5,-137 1224.5,-137 1224.5,-117 1159.5,-117"/>
<text text-anchor="middle" x="1192" y="-124" font-family="FreeSans" font-size="10.00">exception.h</text>
</a>
</g>
<!-- Node17&#45;&gt;Node20 -->
<g id="edge50" class="edge"><title>Node17&#45;&gt;Node20</title>
<path fill="none" stroke="midnightblue" d="M602.075,-180.227C616.348,-178.135 633.51,-175.761 649,-174 834.81,-152.872 1057.35,-136.354 1149.17,-129.921"/>
<polygon fill="midnightblue" stroke="midnightblue" points="1149.46,-133.409 1159.19,-129.222 1148.97,-126.426 1149.46,-133.409"/>
</g>
<!-- Node21 -->
<g id="node48" class="node"><title>Node21</title>
<a xlink:href="datastream_8h.html" target="_top" xlink:title="Declaration of DataStream, FileStreamDataStream, FileHandleDataStream, MemoryDataStream.">
<polygon fill="white" stroke="black" points="760,-117 760,-137 876,-137 876,-117 760,-117"/>
<text text-anchor="middle" x="818" y="-124" font-family="FreeSans" font-size="10.00">Resource/datastream.h</text>
</a>
</g>
<!-- Node17&#45;&gt;Node21 -->
<g id="edge54" class="edge"><title>Node17&#45;&gt;Node21</title>
<path fill="none" stroke="midnightblue" d="M602.46,-177.262C607.002,-176.159 611.619,-175.045 616,-174 666.207,-162.023 723.525,-148.722 764.247,-139.335"/>
<polygon fill="midnightblue" stroke="midnightblue" points="765.269,-142.692 774.228,-137.036 763.698,-135.87 765.269,-142.692"/>
</g>
<!-- Node22 -->
<g id="node51" class="node"><title>Node22</title>
<polygon fill="white" stroke="#bfbfbf" points="470,-117 470,-137 520,-137 520,-117 470,-117"/>
<text text-anchor="middle" x="495" y="-124" font-family="FreeSans" font-size="10.00">stddef.h</text>
</g>
<!-- Node17&#45;&gt;Node22 -->
<g id="edge58" class="edge"><title>Node17&#45;&gt;Node22</title>
<path fill="none" stroke="midnightblue" d="M557.762,-174.897C546.389,-166.218 529.774,-153.538 516.497,-143.405"/>
<polygon fill="midnightblue" stroke="midnightblue" points="518.414,-140.466 508.341,-137.182 514.168,-146.031 518.414,-140.466"/>
</g>
<!-- Node23 -->
<g id="node53" class="node"><title>Node23</title>
<polygon fill="white" stroke="#bfbfbf" points="537.5,-117 537.5,-137 584.5,-137 584.5,-117 537.5,-117"/>
<text text-anchor="middle" x="561" y="-124" font-family="FreeSans" font-size="10.00">iterator</text>
</g>
<!-- Node17&#45;&gt;Node23 -->
<g id="edge60" class="edge"><title>Node17&#45;&gt;Node23</title>
<path fill="none" stroke="midnightblue" d="M569.258,-174.897C567.955,-167.339 566.129,-156.748 564.525,-147.446"/>
<polygon fill="midnightblue" stroke="midnightblue" points="567.938,-146.638 562.789,-137.378 561.039,-147.827 567.938,-146.638"/>
</g>
<!-- Node24 -->
<g id="node55" class="node"><title>Node24</title>
<polygon fill="white" stroke="#bfbfbf" points="602,-117 602,-137 646,-137 646,-117 602,-117"/>
<text text-anchor="middle" x="624" y="-124" font-family="FreeSans" font-size="10.00">iosfwd</text>
</g>
<!-- Node17&#45;&gt;Node24 -->
<g id="edge62" class="edge"><title>Node17&#45;&gt;Node24</title>
<path fill="none" stroke="midnightblue" d="M580.232,-174.897C587.739,-166.682 598.521,-154.883 607.505,-145.051"/>
<polygon fill="midnightblue" stroke="midnightblue" points="610.355,-147.121 614.517,-137.378 605.188,-142.399 610.355,-147.121"/>
</g>
<!-- Node18&#45;&gt;Node2 -->
<g id="edge42" class="edge"><title>Node18&#45;&gt;Node2</title>
<path fill="none" stroke="midnightblue" d="M290.653,-116.518C281.41,-101.93 263.038,-75.3476 242,-58 225.591,-44.4693 204.657,-33.2526 187.109,-25.1743"/>
<polygon fill="midnightblue" stroke="midnightblue" points="188.318,-21.8814 177.758,-21.0145 185.472,-28.2771 188.318,-21.8814"/>
</g>
<!-- Node18&#45;&gt;Node3 -->
<g id="edge44" class="edge"><title>Node18&#45;&gt;Node3</title>
<path fill="none" stroke="midnightblue" d="M338.054,-118.228C342.743,-117.393 347.466,-116.626 352,-116 563.069,-86.8562 817.976,-74.5075 917.88,-70.5432"/>
<polygon fill="midnightblue" stroke="midnightblue" points="918.317,-74.029 928.174,-70.1429 918.045,-67.0342 918.317,-74.029"/>
</g>
<!-- Node19&#45;&gt;Node3 -->
<g id="edge48" class="edge"><title>Node19&#45;&gt;Node3</title>
<path fill="none" stroke="midnightblue" d="M742.029,-118.038C745.064,-117.347 748.082,-116.661 751,-116 808.898,-102.887 875.828,-87.9448 918.271,-78.4963"/>
<polygon fill="midnightblue" stroke="midnightblue" points="919.25,-81.864 928.251,-76.2753 917.73,-75.0312 919.25,-81.864"/>
</g>
<!-- Node20&#45;&gt;Node3 -->
<g id="edge52" class="edge"><title>Node20&#45;&gt;Node3</title>
<path fill="none" stroke="midnightblue" d="M1159.39,-118.813C1118.58,-108.565 1048.58,-90.989 1003.57,-79.6892"/>
<polygon fill="midnightblue" stroke="midnightblue" points="1004.37,-76.2797 993.814,-77.239 1002.66,-83.069 1004.37,-76.2797"/>
</g>
<!-- Node21&#45;&gt;Node3 -->
<g id="edge56" class="edge"><title>Node21&#45;&gt;Node3</title>
<path fill="none" stroke="midnightblue" d="M842.909,-116.897C866.04,-107.515 900.695,-93.4593 926.488,-82.9979"/>
<polygon fill="midnightblue" stroke="midnightblue" points="927.946,-86.1837 935.897,-79.1817 925.315,-79.6969 927.946,-86.1837"/>
</g>
<!-- Node25&#45;&gt;Node3 -->
<g id="edge68" class="edge"><title>Node25&#45;&gt;Node3</title>
<path fill="none" stroke="midnightblue" d="M1269.54,-348.904C1276.22,-328.942 1290,-282.897 1290,-243 1290,-243 1290,-243 1290,-185 1290,-152.531 1290.95,-136.78 1266,-116 1226.96,-83.4826 1078.34,-73.3496 1003.95,-70.2817"/>
<polygon fill="midnightblue" stroke="midnightblue" points="1003.66,-66.7681 993.536,-69.8785 1003.39,-73.7628 1003.66,-66.7681"/>
</g>
<!-- Node26&#45;&gt;Node20 -->
<g id="edge72" class="edge"><title>Node26&#45;&gt;Node20</title>
<path fill="none" stroke="midnightblue" d="M1192.94,-290.893C1192.78,-263.023 1192.33,-184.675 1192.12,-147.313"/>
<polygon fill="midnightblue" stroke="midnightblue" points="1195.62,-147.115 1192.06,-137.135 1188.62,-147.155 1195.62,-147.115"/>
</g>
<!-- Node27&#45;&gt;Node2 -->
<g id="edge76" class="edge"><title>Node27&#45;&gt;Node2</title>
<path fill="none" stroke="midnightblue" d="M873.883,-412.799C713.491,-400.831 273.113,-364.04 138,-312 87.6107,-292.592 38,-296.998 38,-243 38,-243 38,-243 38,-127 38,-79.5102 87.2054,-44.3517 120.962,-25.8195"/>
<polygon fill="midnightblue" stroke="midnightblue" points="122.811,-28.8012 130.02,-21.0369 119.542,-22.6111 122.811,-28.8012"/>
</g>
<!-- Node27&#45;&gt;Node3 -->
<g id="edge78" class="edge"><title>Node27&#45;&gt;Node3</title>
<path fill="none" stroke="midnightblue" d="M992.239,-412.36C1059.97,-403.864 1169.62,-379.842 1233,-312 1254.71,-288.757 1252,-274.808 1252,-243 1252,-243 1252,-243 1252,-185 1252,-153.192 1256.56,-137.368 1233,-116 1200.06,-86.1297 1071.95,-74.8678 1003.95,-70.9321"/>
<polygon fill="midnightblue" stroke="midnightblue" points="1003.76,-67.4162 993.58,-70.3617 1003.37,-74.4056 1003.76,-67.4162"/>
</g>
<!-- Node28 -->
<g id="node68" class="node"><title>Node28</title>
<a xlink:href="entresol_8h_source.html" target="_top" xlink:title="entresol.h">
<polygon fill="white" stroke="black" points="894,-349 894,-369 952,-369 952,-349 894,-349"/>
<text text-anchor="middle" x="923" y="-356" font-family="FreeSans" font-size="10.00">entresol.h</text>
</a>
</g>
<!-- Node27&#45;&gt;Node28 -->
<g id="edge80" class="edge"><title>Node27&#45;&gt;Node28</title>
<path fill="none" stroke="midnightblue" d="M931.258,-406.897C929.955,-399.339 928.129,-388.748 926.525,-379.446"/>
<polygon fill="midnightblue" stroke="midnightblue" points="929.938,-378.638 924.789,-369.378 923.039,-379.827 929.938,-378.638"/>
</g>
<!-- Node28&#45;&gt;Node3 -->
<g id="edge144" class="edge"><title>Node28&#45;&gt;Node3</title>
<path fill="none" stroke="midnightblue" d="M948.369,-348.962C981.865,-334.075 1039.05,-302.565 1060,-254 1084.31,-197.646 1098.73,-167.276 1065,-116 1051.31,-95.1847 1025.98,-83.4784 1003.74,-76.9546"/>
<polygon fill="midnightblue" stroke="midnightblue" points="1004.36,-73.4975 993.797,-74.3078 1002.56,-80.2621 1004.36,-73.4975"/>
</g>
<!-- Node28&#45;&gt;Node15 -->
<g id="edge142" class="edge"><title>Node28&#45;&gt;Node15</title>
<path fill="none" stroke="midnightblue" d="M893.566,-358.04C757.235,-353.486 192.474,-333.385 162,-312 126.579,-287.144 113.775,-234.408 109.297,-205.319"/>
<polygon fill="midnightblue" stroke="midnightblue" points="112.724,-204.549 107.92,-195.106 105.787,-205.484 112.724,-204.549"/>
</g>
<!-- Node28&#45;&gt;Node16 -->
<g id="edge148" class="edge"><title>Node28&#45;&gt;Node16</title>
<path fill="none" stroke="midnightblue" d="M921.403,-348.706C918.433,-329.568 912.013,-288.198 908.145,-263.265"/>
<polygon fill="midnightblue" stroke="midnightblue" points="911.56,-262.451 906.568,-253.106 904.643,-263.524 911.56,-262.451"/>
</g>
<!-- Node28&#45;&gt;Node18 -->
<g id="edge134" class="edge"><title>Node28&#45;&gt;Node18</title>
<path fill="none" stroke="midnightblue" d="M893.749,-356.567C771.254,-346.086 303.918,-303.102 262,-254 235.184,-222.588 263.617,-172.297 282.696,-145.392"/>
<polygon fill="midnightblue" stroke="midnightblue" points="285.599,-147.352 288.715,-137.226 279.964,-143.2 285.599,-147.352"/>
</g>
<!-- Node28&#45;&gt;Node20 -->
<g id="edge140" class="edge"><title>Node28&#45;&gt;Node20</title>
<path fill="none" stroke="midnightblue" d="M952.03,-354.436C998.004,-346.763 1084.93,-330.311 1110,-312 1165,-271.833 1183.72,-186.409 1189.57,-147.307"/>
<polygon fill="midnightblue" stroke="midnightblue" points="1193.07,-147.55 1190.95,-137.17 1186.14,-146.607 1193.07,-147.55"/>
</g>
<!-- Node28&#45;&gt;Node26 -->
<g id="edge150" class="edge"><title>Node28&#45;&gt;Node26</title>
<path fill="none" stroke="midnightblue" d="M952.194,-353.23C995.169,-344.661 1077.95,-327.874 1148,-312 1149.24,-311.72 1150.49,-311.433 1151.75,-311.141"/>
<polygon fill="midnightblue" stroke="midnightblue" points="1152.63,-314.53 1161.56,-308.829 1151.02,-307.717 1152.63,-314.53"/>
</g>
<!-- Node29 -->
<g id="node70" class="node"><title>Node29</title>
<a xlink:href="stringtool_8h_source.html" target="_top" xlink:title="stringtool.h">
<polygon fill="white" stroke="black" points="639.5,-291 639.5,-311 702.5,-311 702.5,-291 639.5,-291"/>
<text text-anchor="middle" x="671" y="-298" font-family="FreeSans" font-size="10.00">stringtool.h</text>
</a>
</g>
<!-- Node28&#45;&gt;Node29 -->
<g id="edge82" class="edge"><title>Node28&#45;&gt;Node29</title>
<path fill="none" stroke="midnightblue" d="M893.599,-352.233C848.9,-341.945 763.665,-322.328 712.62,-310.579"/>
<polygon fill="midnightblue" stroke="midnightblue" points="713.112,-307.101 702.581,-308.269 711.541,-313.923 713.112,-307.101"/>
</g>
<!-- Node33 -->
<g id="node83" class="node"><title>Node33</title>
<a xlink:href="vector3_8h_source.html" target="_top" xlink:title="vector3.h">
<polygon fill="white" stroke="black" points="643,-233 643,-253 699,-253 699,-233 643,-233"/>
<text text-anchor="middle" x="671" y="-240" font-family="FreeSans" font-size="10.00">vector3.h</text>
</a>
</g>
<!-- Node28&#45;&gt;Node33 -->
<g id="edge146" class="edge"><title>Node28&#45;&gt;Node33</title>
<path fill="none" stroke="midnightblue" d="M901.077,-348.909C856.304,-328.299 754.223,-281.309 702.413,-257.46"/>
<polygon fill="midnightblue" stroke="midnightblue" points="703.599,-254.153 693.051,-253.151 700.672,-260.511 703.599,-254.153"/>
</g>
<!-- Node39 -->
<g id="node107" class="node"><title>Node39</title>
<a xlink:href="eventbase_8h_source.html" target="_top" xlink:title="eventbase.h">
<polygon fill="white" stroke="black" points="933,-291 933,-311 1001,-311 1001,-291 933,-291"/>
<text text-anchor="middle" x="967" y="-298" font-family="FreeSans" font-size="10.00">eventbase.h</text>
</a>
</g>
<!-- Node28&#45;&gt;Node39 -->
<g id="edge136" class="edge"><title>Node28&#45;&gt;Node39</title>
<path fill="none" stroke="midnightblue" d="M930.664,-348.897C936.834,-340.764 945.669,-329.118 953.082,-319.347"/>
<polygon fill="midnightblue" stroke="midnightblue" points="955.872,-321.46 959.127,-311.378 950.295,-317.229 955.872,-321.46"/>
</g>
<!-- Node30 -->
<g id="node72" class="node"><title>Node30</title>
<a xlink:href="metacode_8h_source.html" target="_top" xlink:title="Input/metacode.h">
<polygon fill="white" stroke="black" points="749,-233 749,-253 841,-253 841,-233 749,-233"/>
<text text-anchor="middle" x="795" y="-240" font-family="FreeSans" font-size="10.00">Input/metacode.h</text>
</a>
</g>
<!-- Node29&#45;&gt;Node30 -->
<g id="edge84" class="edge"><title>Node29&#45;&gt;Node30</title>
<path fill="none" stroke="midnightblue" d="M692.599,-290.897C712.304,-281.68 741.652,-267.953 763.884,-257.554"/>
<polygon fill="midnightblue" stroke="midnightblue" points="765.657,-260.589 773.232,-253.182 762.691,-254.248 765.657,-260.589"/>
</g>
<!-- Node32 -->
<g id="node78" class="node"><title>Node32</title>
<a xlink:href="vector2_8h_source.html" target="_top" xlink:title="vector2.h">
<polygon fill="white" stroke="black" points="271,-233 271,-253 327,-253 327,-233 271,-233"/>
<text text-anchor="middle" x="299" y="-240" font-family="FreeSans" font-size="10.00">vector2.h</text>
</a>
</g>
<!-- Node29&#45;&gt;Node32 -->
<g id="edge92" class="edge"><title>Node29&#45;&gt;Node32</title>
<path fill="none" stroke="midnightblue" d="M639.283,-296.055C571.124,-285.428 410.909,-260.448 337.259,-248.965"/>
<polygon fill="midnightblue" stroke="midnightblue" points="337.461,-245.454 327.041,-247.372 336.383,-252.371 337.461,-245.454"/>
</g>
<!-- Node29&#45;&gt;Node33 -->
<g id="edge100" class="edge"><title>Node29&#45;&gt;Node33</title>
<path fill="none" stroke="midnightblue" d="M671,-290.897C671,-283.339 671,-272.748 671,-263.446"/>
<polygon fill="midnightblue" stroke="midnightblue" points="674.5,-263.378 671,-253.378 667.5,-263.378 674.5,-263.378"/>
</g>
<!-- Node35 -->
<g id="node91" class="node"><title>Node35</title>
<a xlink:href="quaternion_8h_source.html" target="_top" xlink:title="quaternion.h">
<polygon fill="white" stroke="black" points="392.5,-233 392.5,-253 461.5,-253 461.5,-233 392.5,-233"/>
<text text-anchor="middle" x="427" y="-240" font-family="FreeSans" font-size="10.00">quaternion.h</text>
</a>
</g>
<!-- Node29&#45;&gt;Node35 -->
<g id="edge112" class="edge"><title>Node29&#45;&gt;Node35</title>
<path fill="none" stroke="midnightblue" d="M639.101,-293.418C596.288,-283.241 520.028,-265.113 471.562,-253.593"/>
<polygon fill="midnightblue" stroke="midnightblue" points="472.202,-250.147 461.664,-251.24 470.583,-256.958 472.202,-250.147"/>
</g>
<!-- Node36 -->
<g id="node96" class="node"><title>Node36</title>
<a xlink:href="colourvalue_8h_source.html" target="_top" xlink:title="colourvalue.h">
<polygon fill="white" stroke="black" points="539.5,-233 539.5,-253 612.5,-253 612.5,-233 539.5,-233"/>
<text text-anchor="middle" x="576" y="-240" font-family="FreeSans" font-size="10.00">colourvalue.h</text>
</a>
</g>
<!-- Node29&#45;&gt;Node36 -->
<g id="edge120" class="edge"><title>Node29&#45;&gt;Node36</title>
<path fill="none" stroke="midnightblue" d="M654.452,-290.897C639.83,-281.97 618.276,-268.811 601.459,-258.543"/>
<polygon fill="midnightblue" stroke="midnightblue" points="603.036,-255.405 592.677,-253.182 599.388,-261.38 603.036,-255.405"/>
</g>
<!-- Node37 -->
<g id="node101" class="node"><title>Node37</title>
<a xlink:href="smartptr_8h.html" target="_top" xlink:title="This file describes and implements any pointers or typedefs to pointers that the Mezzanine uses and e...">
<polygon fill="white" stroke="black" points="973.5,-233 973.5,-253 1032.5,-253 1032.5,-233 973.5,-233"/>
<text text-anchor="middle" x="1003" y="-240" font-family="FreeSans" font-size="10.00">smartptr.h</text>
</a>
</g>
<!-- Node29&#45;&gt;Node37 -->
<g id="edge128" class="edge"><title>Node29&#45;&gt;Node37</title>
<path fill="none" stroke="midnightblue" d="M702.633,-296.412C755.203,-288.643 863.8,-271.979 955,-254 957.792,-253.45 960.669,-252.857 963.562,-252.241"/>
<polygon fill="midnightblue" stroke="midnightblue" points="964.341,-255.653 973.359,-250.092 962.841,-248.816 964.341,-255.653"/>
</g>
<!-- Node30&#45;&gt;Node3 -->
<g id="edge86" class="edge"><title>Node30&#45;&gt;Node3</title>
<path fill="none" stroke="midnightblue" d="M828.261,-232.958C867.699,-218.978 931.204,-189.395 956,-138 963.248,-122.977 964.103,-103.948 963.369,-89.68"/>
<polygon fill="midnightblue" stroke="midnightblue" points="966.834,-89.1074 962.531,-79.4257 959.857,-89.6776 966.834,-89.1074"/>
</g>
<!-- Node30&#45;&gt;Node17 -->
<g id="edge88" class="edge"><title>Node30&#45;&gt;Node17</title>
<path fill="none" stroke="midnightblue" d="M756.238,-232.963C715.866,-222.51 652.884,-206.202 611.778,-195.559"/>
<polygon fill="midnightblue" stroke="midnightblue" points="612.639,-192.166 602.081,-193.048 610.885,-198.943 612.639,-192.166"/>
</g>
<!-- Node31 -->
<g id="node76" class="node"><title>Node31</title>
<a xlink:href="inputenumerations_8h_source.html" target="_top" xlink:title="Input/inputenumerations.h">
<polygon fill="white" stroke="black" points="756,-175 756,-195 884,-195 884,-175 756,-175"/>
<text text-anchor="middle" x="820" y="-182" font-family="FreeSans" font-size="10.00">Input/inputenumerations.h</text>
</a>
</g>
<!-- Node30&#45;&gt;Node31 -->
<g id="edge90" class="edge"><title>Node30&#45;&gt;Node31</title>
<path fill="none" stroke="midnightblue" d="M799.355,-232.897C802.683,-225.175 807.377,-214.286 811.448,-204.841"/>
<polygon fill="midnightblue" stroke="midnightblue" points="814.783,-205.946 815.527,-195.378 808.354,-203.175 814.783,-205.946"/>
</g>
<!-- Node32&#45;&gt;Node2 -->
<g id="edge94" class="edge"><title>Node32&#45;&gt;Node2</title>
<path fill="none" stroke="midnightblue" d="M278.706,-233C229.062,-208.444 105.156,-146.551 100,-138 81.6391,-107.552 85.5691,-90.4953 100,-58 105.518,-45.5752 116.123,-35.0438 126.324,-27.1195"/>
<polygon fill="midnightblue" stroke="midnightblue" points="128.616,-29.7816 134.678,-21.092 124.52,-24.1051 128.616,-29.7816"/>
</g>
<!-- Node32&#45;&gt;Node3 -->
<g id="edge96" class="edge"><title>Node32&#45;&gt;Node3</title>
<path fill="none" stroke="midnightblue" d="M306.465,-232.737C325.441,-207.569 378.405,-142.887 440,-116 525.486,-78.6839 809.216,-70.9919 918.018,-69.4091"/>
<polygon fill="midnightblue" stroke="midnightblue" points="918.339,-72.9052 928.291,-69.2704 918.245,-65.9058 918.339,-72.9052"/>
</g>
<!-- Node32&#45;&gt;Node17 -->
<g id="edge98" class="edge"><title>Node32&#45;&gt;Node17</title>
<path fill="none" stroke="midnightblue" d="M327.084,-237.011C375.257,-226.739 473.847,-205.716 529.81,-193.783"/>
<polygon fill="midnightblue" stroke="midnightblue" points="530.692,-197.174 539.742,-191.665 529.232,-190.328 530.692,-197.174"/>
</g>
<!-- Node33&#45;&gt;Node2 -->
<g id="edge102" class="edge"><title>Node33&#45;&gt;Node2</title>
<path fill="none" stroke="midnightblue" d="M642.74,-236.617C635.651,-235.061 628.055,-233.434 621,-232 535.49,-214.624 513.067,-215.428 428,-196 403.983,-190.515 232.99,-153.694 214,-138 196.328,-123.395 171.419,-62.4383 159.255,-30.5839"/>
<polygon fill="midnightblue" stroke="midnightblue" points="162.447,-29.1303 155.647,-21.0058 155.897,-31.5977 162.447,-29.1303"/>
</g>
<!-- Node33&#45;&gt;Node3 -->
<g id="edge104" class="edge"><title>Node33&#45;&gt;Node3</title>
<path fill="none" stroke="midnightblue" d="M678.931,-232.987C691.601,-217.721 717.958,-188.838 747,-174 816.162,-138.665 854.363,-182.524 918,-138 935.361,-125.853 947.147,-104.226 953.927,-88.4131"/>
<polygon fill="midnightblue" stroke="midnightblue" points="957.22,-89.6053 957.667,-79.0199 950.716,-87.0155 957.22,-89.6053"/>
</g>
<!-- Node33&#45;&gt;Node15 -->
<g id="edge106" class="edge"><title>Node33&#45;&gt;Node15</title>
<path fill="none" stroke="midnightblue" d="M642.823,-236.154C635.732,-234.61 628.114,-233.103 621,-232 452.817,-205.916 251.264,-192.666 158.431,-187.564"/>
<polygon fill="midnightblue" stroke="midnightblue" points="158.364,-184.055 148.19,-187.01 157.986,-191.045 158.364,-184.055"/>
</g>
<!-- Node33&#45;&gt;Node17 -->
<g id="edge110" class="edge"><title>Node33&#45;&gt;Node17</title>
<path fill="none" stroke="midnightblue" d="M653.581,-232.897C638.047,-223.887 615.08,-210.567 597.308,-200.259"/>
<polygon fill="midnightblue" stroke="midnightblue" points="598.961,-197.171 588.555,-195.182 595.449,-203.227 598.961,-197.171"/>
</g>
<!-- Node34 -->
<g id="node88" class="node"><title>Node34</title>
<a xlink:href="swig_8h.html" target="_top" xlink:title="Used to give commands specifically to the SWIG preprocessor.">
<polygon fill="white" stroke="black" points="657.5,-175 657.5,-195 700.5,-195 700.5,-175 657.5,-175"/>
<text text-anchor="middle" x="679" y="-182" font-family="FreeSans" font-size="10.00">swig.h</text>
</a>
</g>
<!-- Node33&#45;&gt;Node34 -->
<g id="edge108" class="edge"><title>Node33&#45;&gt;Node34</title>
<path fill="none" stroke="midnightblue" d="M672.393,-232.897C673.436,-225.339 674.897,-214.748 676.18,-205.446"/>
<polygon fill="midnightblue" stroke="midnightblue" points="679.669,-205.762 677.569,-195.378 672.735,-204.806 679.669,-205.762"/>
</g>
<!-- Node35&#45;&gt;Node2 -->
<g id="edge114" class="edge"><title>Node35&#45;&gt;Node2</title>
<path fill="none" stroke="midnightblue" d="M392.664,-232.937C319.418,-211.133 153.239,-159.751 138,-138 115.414,-105.764 130.865,-57.199 142.474,-30.4298"/>
<polygon fill="midnightblue" stroke="midnightblue" points="145.807,-31.5594 146.796,-21.0109 139.445,-28.64 145.807,-31.5594"/>
</g>
<!-- Node35&#45;&gt;Node3 -->
<g id="edge116" class="edge"><title>Node35&#45;&gt;Node3</title>
<path fill="none" stroke="midnightblue" d="M426.217,-232.768C424.965,-208.239 425.605,-145.902 461,-116 495.594,-86.7748 803.366,-74.0297 918.12,-70.2644"/>
<polygon fill="midnightblue" stroke="midnightblue" points="918.406,-73.7571 928.289,-69.9377 918.181,-66.7607 918.406,-73.7571"/>
</g>
<!-- Node35&#45;&gt;Node17 -->
<g id="edge118" class="edge"><title>Node35&#45;&gt;Node17</title>
<path fill="none" stroke="midnightblue" d="M452.083,-232.897C475.376,-223.515 510.273,-209.459 536.247,-198.998"/>
<polygon fill="midnightblue" stroke="midnightblue" points="537.753,-202.164 545.721,-195.182 535.138,-195.671 537.753,-202.164"/>
</g>
<!-- Node36&#45;&gt;Node2 -->
<g id="edge122" class="edge"><title>Node36&#45;&gt;Node2</title>
<path fill="none" stroke="midnightblue" d="M539.4,-235.724C445.408,-216.718 201.138,-165.177 176,-138 148.949,-108.755 147.875,-58.9917 149.758,-31.2352"/>
<polygon fill="midnightblue" stroke="midnightblue" points="153.258,-31.3945 150.645,-21.1269 146.284,-30.7829 153.258,-31.3945"/>
</g>
<!-- Node36&#45;&gt;Node3 -->
<g id="edge124" class="edge"><title>Node36&#45;&gt;Node3</title>
<path fill="none" stroke="midnightblue" d="M583.427,-232.784C595.342,-217.246 620.324,-188.005 649,-174 744.34,-127.438 789.198,-183.602 885,-138 910.076,-126.064 932.785,-103.091 946.717,-86.9415"/>
<polygon fill="midnightblue" stroke="midnightblue" points="949.447,-89.1327 953.168,-79.2129 944.073,-84.6469 949.447,-89.1327"/>
</g>
<!-- Node36&#45;&gt;Node17 -->
<g id="edge126" class="edge"><title>Node36&#45;&gt;Node17</title>
<path fill="none" stroke="midnightblue" d="M575.129,-232.897C574.478,-225.339 573.564,-214.748 572.763,-205.446"/>
<polygon fill="midnightblue" stroke="midnightblue" points="576.241,-205.04 571.895,-195.378 569.267,-205.641 576.241,-205.04"/>
</g>
<!-- Node37&#45;&gt;Node3 -->
<g id="edge130" class="edge"><title>Node37&#45;&gt;Node3</title>
<path fill="none" stroke="midnightblue" d="M1013.27,-232.891C1021.47,-224.038 1032.35,-210.372 1037,-196 1042.67,-178.476 1039.51,-128.639 1032,-116 1023.72,-102.06 1009.5,-91.4368 995.951,-83.8478"/>
<polygon fill="midnightblue" stroke="midnightblue" points="997.248,-80.5773 986.76,-79.0751 994.022,-86.7897 997.248,-80.5773"/>
</g>
<!-- Node38 -->
<g id="node104" class="node"><title>Node38</title>
<polygon fill="white" stroke="#bfbfbf" points="977.5,-175 977.5,-195 1028.5,-195 1028.5,-175 977.5,-175"/>
<text text-anchor="middle" x="1003" y="-182" font-family="FreeSans" font-size="10.00">memory</text>
</g>
<!-- Node37&#45;&gt;Node38 -->
<g id="edge132" class="edge"><title>Node37&#45;&gt;Node38</title>
<path fill="none" stroke="midnightblue" d="M1003,-232.897C1003,-225.339 1003,-214.748 1003,-205.446"/>
<polygon fill="midnightblue" stroke="midnightblue" points="1006.5,-205.378 1003,-195.378 999.5,-205.378 1006.5,-205.378"/>
</g>
<!-- Node39&#45;&gt;Node3 -->
<g id="edge138" class="edge"><title>Node39&#45;&gt;Node3</title>
<path fill="none" stroke="midnightblue" d="M992.875,-290.99C1009.22,-283.322 1029.38,-271.128 1041,-254 1061.15,-224.302 1053.24,-209.869 1052,-174 1051.11,-148.176 1061.99,-137.724 1048,-116 1037.74,-100.074 1020.16,-89.1452 1003.48,-81.8646"/>
<polygon fill="midnightblue" stroke="midnightblue" points="1004.41,-78.4654 993.825,-77.9892 1001.8,-84.9618 1004.41,-78.4654"/>
</g>
</g>
</svg>
