<?xml version="1.0" encoding="UTF-8" standalone="no"?>
<!DOCTYPE svg PUBLIC "-//W3C//DTD SVG 1.1//EN"
 "http://www.w3.org/Graphics/SVG/1.1/DTD/svg11.dtd">
<!-- Generated by graphviz version 2.26.3 (20100126.1600)
 -->
<!-- Title: /home/Code/Mezzanine/Mezzanine/src/resourcemanager.h Pages: 1 -->
<svg width="1076pt" height="200pt"
 viewBox="0.00 0.00 1076.00 200.00" xmlns="http://www.w3.org/2000/svg" xmlns:xlink="http://www.w3.org/1999/xlink">
<g id="graph1" class="graph" transform="scale(1 1) rotate(0) translate(4 196)">
<title>/home/Code/Mezzanine/Mezzanine/src/resourcemanager.h</title>
<polygon fill="white" stroke="white" points="-4,5 -4,-196 1073,-196 1073,5 -4,5"/>
<!-- Node1 -->
<g id="node1" class="node"><title>Node1</title>
<polygon fill="#bfbfbf" stroke="black" points="461,-157 461,-191 645,-191 645,-157 461,-157"/>
<text text-anchor="start" x="469" y="-178" font-family="FreeSans" font-size="10.00">/home/Code/Mezzanine</text>
<text text-anchor="middle" x="553" y="-165" font-family="FreeSans" font-size="10.00">/Mezzanine/src/resourcemanager.h</text>
</g>
<!-- Node2 -->
<g id="node3" class="node"><title>Node2</title>
<a xlink:href="mezzanine_8h.xhtml" target="_top" xlink:title="A single file that includes all of the Mezzanine engine.">
<polygon fill="white" stroke="black" points="0,-79 0,-113 152,-113 152,-79 0,-79"/>
<text text-anchor="start" x="8" y="-100" font-family="FreeSans" font-size="10.00">/home/Code/Mezzanine</text>
<text text-anchor="middle" x="76" y="-87" font-family="FreeSans" font-size="10.00">/Mezzanine/src/mezzanine.h</text>
</a>
</g>
<!-- Node1&#45;&gt;Node2 -->
<g id="edge2" class="edge"><title>Node1&#45;&gt;Node2</title>
<path fill="none" stroke="midnightblue" d="M450.888,-163.85C371.388,-155.006 258.537,-140.386 161,-120 151.694,-118.055 141.91,-115.644 132.425,-113.108"/>
<polygon fill="midnightblue" stroke="midnightblue" points="450.578,-167.337 460.902,-164.953 451.345,-160.379 450.578,-167.337"/>
</g>
<!-- Node4 -->
<g id="node7" class="node"><title>Node4</title>
<a xlink:href="objectsettings_8cpp_source.xhtml" target="_top" xlink:title="/home/Code/Mezzanine\l/Mezzanine/src/objectsettings.cpp">
<polygon fill="white" stroke="black" points="170,-79 170,-113 348,-113 348,-79 170,-79"/>
<text text-anchor="start" x="178" y="-100" font-family="FreeSans" font-size="10.00">/home/Code/Mezzanine</text>
<text text-anchor="middle" x="259" y="-87" font-family="FreeSans" font-size="10.00">/Mezzanine/src/objectsettings.cpp</text>
</a>
</g>
<!-- Node1&#45;&gt;Node4 -->
<g id="edge6" class="edge"><title>Node1&#45;&gt;Node4</title>
<path fill="none" stroke="midnightblue" d="M479.135,-154.403C431.152,-141.673 369.219,-125.242 323.273,-113.052"/>
<polygon fill="midnightblue" stroke="midnightblue" points="478.281,-157.797 488.844,-156.979 480.076,-151.032 478.281,-157.797"/>
</g>
<!-- Node5 -->
<g id="node9" class="node"><title>Node5</title>
<a xlink:href="resourcemanager_8cpp_source.xhtml" target="_top" xlink:title="/home/Code/Mezzanine\l/Mezzanine/src/resourcemanager.cpp">
<polygon fill="white" stroke="black" points="365.5,-79 365.5,-113 560.5,-113 560.5,-79 365.5,-79"/>
<text text-anchor="start" x="373.5" y="-100" font-family="FreeSans" font-size="10.00">/home/Code/Mezzanine</text>
<text text-anchor="middle" x="463" y="-87" font-family="FreeSans" font-size="10.00">/Mezzanine/src/resourcemanager.cpp</text>
</a>
</g>
<!-- Node1&#45;&gt;Node5 -->
<g id="edge8" class="edge"><title>Node1&#45;&gt;Node5</title>
<path fill="none" stroke="midnightblue" d="M525.299,-149.992C511.598,-138.118 495.374,-124.058 482.918,-113.262"/>
<polygon fill="midnightblue" stroke="midnightblue" points="523.177,-152.785 533.026,-156.689 527.761,-147.495 523.177,-152.785"/>
</g>
<!-- Node6 -->
<g id="node11" class="node"><title>Node6</title>
<a xlink:href="graphicsmanager_8cpp_source.xhtml" target="_top" xlink:title="/home/Code/Mezzanine\l/Mezzanine/src/Graphics\l/graphicsmanager.cpp">
<polygon fill="white" stroke="black" points="577.5,-72.5 577.5,-119.5 710.5,-119.5 710.5,-72.5 577.5,-72.5"/>
<text text-anchor="start" x="585.5" y="-106.5" font-family="FreeSans" font-size="10.00">/home/Code/Mezzanine</text>
<text text-anchor="start" x="585.5" y="-93.5" font-family="FreeSans" font-size="10.00">/Mezzanine/src/Graphics</text>
<text text-anchor="middle" x="644" y="-80.5" font-family="FreeSans" font-size="10.00">/graphicsmanager.cpp</text>
</a>
</g>
<!-- Node1&#45;&gt;Node6 -->
<g id="edge10" class="edge"><title>Node1&#45;&gt;Node6</title>
<path fill="none" stroke="midnightblue" d="M581.012,-149.99C592.217,-140.385 605.091,-129.35 616.268,-119.77"/>
<polygon fill="midnightblue" stroke="midnightblue" points="578.511,-147.524 573.196,-156.689 583.066,-152.839 578.511,-147.524"/>
</g>
<!-- Node7 -->
<g id="node13" class="node"><title>Node7</title>
<a xlink:href="collisionshapemanager_8cpp_source.xhtml" target="_top" xlink:title="/home/Code/Mezzanine\l/Mezzanine/src/Physics\l/collisionshapemanager.cpp">
<polygon fill="white" stroke="black" points="727.5,-72.5 727.5,-119.5 876.5,-119.5 876.5,-72.5 727.5,-72.5"/>
<text text-anchor="start" x="735.5" y="-106.5" font-family="FreeSans" font-size="10.00">/home/Code/Mezzanine</text>
<text text-anchor="start" x="735.5" y="-93.5" font-family="FreeSans" font-size="10.00">/Mezzanine/src/Physics</text>
<text text-anchor="middle" x="802" y="-80.5" font-family="FreeSans" font-size="10.00">/collisionshapemanager.cpp</text>
</a>
</g>
<!-- Node1&#45;&gt;Node7 -->
<g id="edge12" class="edge"><title>Node1&#45;&gt;Node7</title>
<path fill="none" stroke="midnightblue" d="M617.08,-153.927C650.798,-143.364 692.321,-130.357 727.472,-119.346"/>
<polygon fill="midnightblue" stroke="midnightblue" points="615.833,-150.65 607.336,-156.979 617.925,-157.33 615.833,-150.65"/>
</g>
<!-- Node8 -->
<g id="node15" class="node"><title>Node8</title>
<a xlink:href="uimanager_8cpp_source.xhtml" target="_top" xlink:title="/home/Code/Mezzanine\l/Mezzanine/src/UI/uimanager.cpp">
<polygon fill="white" stroke="black" points="894,-79 894,-113 1068,-113 1068,-79 894,-79"/>
<text text-anchor="start" x="902" y="-100" font-family="FreeSans" font-size="10.00">/home/Code/Mezzanine</text>
<text text-anchor="middle" x="981" y="-87" font-family="FreeSans" font-size="10.00">/Mezzanine/src/UI/uimanager.cpp</text>
</a>
</g>
<!-- Node1&#45;&gt;Node8 -->
<g id="edge14" class="edge"><title>Node1&#45;&gt;Node8</title>
<path fill="none" stroke="midnightblue" d="M655.298,-159.625C721.146,-149.814 808.428,-135.77 885,-120 895.096,-117.921 905.733,-115.498 916.102,-113.006"/>
<polygon fill="midnightblue" stroke="midnightblue" points="654.71,-156.173 645.331,-161.102 655.736,-163.098 654.71,-156.173"/>
</g>
<!-- Node3 -->
<g id="node5" class="node"><title>Node3</title>
<a xlink:href="entresol_8cpp_source.xhtml" target="_top" xlink:title="/home/Code/Mezzanine\l/Mezzanine/src/entresol.cpp">
<polygon fill="white" stroke="black" points="1,-1 1,-35 151,-35 151,-1 1,-1"/>
<text text-anchor="start" x="9" y="-22" font-family="FreeSans" font-size="10.00">/home/Code/Mezzanine</text>
<text text-anchor="middle" x="76" y="-9" font-family="FreeSans" font-size="10.00">/Mezzanine/src/entresol.cpp</text>
</a>
</g>
<!-- Node2&#45;&gt;Node3 -->
<g id="edge4" class="edge"><title>Node2&#45;&gt;Node3</title>
<path fill="none" stroke="midnightblue" d="M76,-68.6102C76,-57.5188 76,-45.0489 76,-35.2623"/>
<polygon fill="midnightblue" stroke="midnightblue" points="72.5001,-68.6892 76,-78.6893 79.5001,-68.6893 72.5001,-68.6892"/>
</g>
</g>
</svg>
