<?xml version="1.0" encoding="UTF-8" standalone="no"?>
<!DOCTYPE svg PUBLIC "-//W3C//DTD SVG 1.1//EN"
 "http://www.w3.org/Graphics/SVG/1.1/DTD/svg11.dtd">
<!-- Generated by graphviz version 2.26.3 (20100126.1600)
 -->
<!-- Title: /home/sqeaky/Projects/MezzanineCurrent/Mezzanine/Mezzanine/src/resourcemanager.h Pages: 1 -->
<svg width="1064pt" height="218pt"
 viewBox="0.00 0.00 1064.00 218.00" xmlns="http://www.w3.org/2000/svg" xmlns:xlink="http://www.w3.org/1999/xlink">
<g id="graph1" class="graph" transform="scale(1 1) rotate(0) translate(4 214)">
<title>/home/sqeaky/Projects/MezzanineCurrent/Mezzanine/Mezzanine/src/resourcemanager.h</title>
<polygon fill="white" stroke="white" points="-4,5 -4,-214 1061,-214 1061,5 -4,5"/>
<!-- Node1 -->
<g id="node1" class="node"><title>Node1</title>
<polygon fill="#bfbfbf" stroke="black" points="442,-165 442,-209 608,-209 608,-165 442,-165"/>
<text text-anchor="start" x="450" y="-196" font-family="FreeSans" font-size="10.00">/home/sqeaky/Projects</text>
<text text-anchor="start" x="450" y="-184" font-family="FreeSans" font-size="10.00">/MezzanineCurrent/Mezzanine</text>
<text text-anchor="middle" x="525" y="-172" font-family="FreeSans" font-size="10.00">/Mezzanine/src/resourcemanager.h</text>
</g>
<!-- Node2 -->
<g id="node3" class="node"><title>Node2</title>
<a xlink:href="audiomanager_8cpp_source.html" target="_top" xlink:title="/home/sqeaky/Projects\l/MezzanineCurrent/Mezzanine\l/Mezzanine/src/audiomanager.cpp">
<polygon fill="white" stroke="black" points="-0.5,-83 -0.5,-127 162.5,-127 162.5,-83 -0.5,-83"/>
<text text-anchor="start" x="7.5" y="-114" font-family="FreeSans" font-size="10.00">/home/sqeaky/Projects</text>
<text text-anchor="start" x="7.5" y="-102" font-family="FreeSans" font-size="10.00">/MezzanineCurrent/Mezzanine</text>
<text text-anchor="middle" x="81" y="-90" font-family="FreeSans" font-size="10.00">/Mezzanine/src/audiomanager.cpp</text>
</a>
</g>
<!-- Node1&#45;&gt;Node2 -->
<g id="edge2" class="edge"><title>Node1&#45;&gt;Node2</title>
<path fill="none" stroke="midnightblue" d="M431.75,-173.674C360.131,-162.904 258.925,-146.527 171,-128 168.317,-127.435 165.594,-126.843 162.847,-126.231"/>
<polygon fill="midnightblue" stroke="midnightblue" points="431.247,-177.137 441.655,-175.156 432.283,-170.214 431.247,-177.137"/>
</g>
<!-- Node3 -->
<g id="node5" class="node"><title>Node3</title>
<a xlink:href="mezzanine_8h.html" target="_top" xlink:title="A single file that includes all of the Mezzanine engine.">
<polygon fill="white" stroke="black" points="180,-83 180,-127 326,-127 326,-83 180,-83"/>
<text text-anchor="start" x="188" y="-114" font-family="FreeSans" font-size="10.00">/home/sqeaky/Projects</text>
<text text-anchor="start" x="188" y="-102" font-family="FreeSans" font-size="10.00">/MezzanineCurrent/Mezzanine</text>
<text text-anchor="middle" x="253" y="-90" font-family="FreeSans" font-size="10.00">/Mezzanine/src/mezzanine.h</text>
</a>
</g>
<!-- Node1&#45;&gt;Node3 -->
<g id="edge4" class="edge"><title>Node1&#45;&gt;Node3</title>
<path fill="none" stroke="midnightblue" d="M442.02,-161.984C405.132,-150.863 362.075,-137.883 326.38,-127.122"/>
<polygon fill="midnightblue" stroke="midnightblue" points="441.167,-165.382 451.751,-164.918 443.187,-158.68 441.167,-165.382"/>
</g>
<!-- Node5 -->
<g id="node9" class="node"><title>Node5</title>
<a xlink:href="graphicsmanager_8cpp_source.html" target="_top" xlink:title="/home/sqeaky/Projects\l/MezzanineCurrent/Mezzanine\l/Mezzanine/src/graphicsmanager.cpp">
<polygon fill="white" stroke="black" points="344,-83 344,-127 520,-127 520,-83 344,-83"/>
<text text-anchor="start" x="352" y="-114" font-family="FreeSans" font-size="10.00">/home/sqeaky/Projects</text>
<text text-anchor="start" x="352" y="-102" font-family="FreeSans" font-size="10.00">/MezzanineCurrent/Mezzanine</text>
<text text-anchor="middle" x="432" y="-90" font-family="FreeSans" font-size="10.00">/Mezzanine/src/graphicsmanager.cpp</text>
</a>
</g>
<!-- Node1&#45;&gt;Node5 -->
<g id="edge8" class="edge"><title>Node1&#45;&gt;Node5</title>
<path fill="none" stroke="midnightblue" d="M491.879,-157.797C480.416,-147.689 467.767,-136.537 457.06,-127.096"/>
<polygon fill="midnightblue" stroke="midnightblue" points="489.772,-160.605 499.587,-164.593 494.401,-155.354 489.772,-160.605"/>
</g>
<!-- Node6 -->
<g id="node11" class="node"><title>Node6</title>
<a xlink:href="objectsettings_8cpp_source.html" target="_top" xlink:title="/home/sqeaky/Projects\l/MezzanineCurrent/Mezzanine\l/Mezzanine/src/objectsettings.cpp">
<polygon fill="white" stroke="black" points="537.5,-83 537.5,-127 698.5,-127 698.5,-83 537.5,-83"/>
<text text-anchor="start" x="545.5" y="-114" font-family="FreeSans" font-size="10.00">/home/sqeaky/Projects</text>
<text text-anchor="start" x="545.5" y="-102" font-family="FreeSans" font-size="10.00">/MezzanineCurrent/Mezzanine</text>
<text text-anchor="middle" x="618" y="-90" font-family="FreeSans" font-size="10.00">/Mezzanine/src/objectsettings.cpp</text>
</a>
</g>
<!-- Node1&#45;&gt;Node6 -->
<g id="edge10" class="edge"><title>Node1&#45;&gt;Node6</title>
<path fill="none" stroke="midnightblue" d="M558.121,-157.797C569.584,-147.689 582.233,-136.537 592.94,-127.096"/>
<polygon fill="midnightblue" stroke="midnightblue" points="555.599,-155.354 550.413,-164.593 560.228,-160.605 555.599,-155.354"/>
</g>
<!-- Node7 -->
<g id="node13" class="node"><title>Node7</title>
<a xlink:href="resourcemanager_8cpp_source.html" target="_top" xlink:title="/home/sqeaky/Projects\l/MezzanineCurrent/Mezzanine\l/Mezzanine/src/resourcemanager.cpp">
<polygon fill="white" stroke="black" points="716,-83 716,-127 892,-127 892,-83 716,-83"/>
<text text-anchor="start" x="724" y="-114" font-family="FreeSans" font-size="10.00">/home/sqeaky/Projects</text>
<text text-anchor="start" x="724" y="-102" font-family="FreeSans" font-size="10.00">/MezzanineCurrent/Mezzanine</text>
<text text-anchor="middle" x="804" y="-90" font-family="FreeSans" font-size="10.00">/Mezzanine/src/resourcemanager.cpp</text>
</a>
</g>
<!-- Node1&#45;&gt;Node7 -->
<g id="edge12" class="edge"><title>Node1&#45;&gt;Node7</title>
<path fill="none" stroke="midnightblue" d="M610.116,-161.984C647.953,-150.863 692.118,-137.883 728.732,-127.122"/>
<polygon fill="midnightblue" stroke="midnightblue" points="608.741,-158.74 600.134,-164.918 610.715,-165.456 608.741,-158.74"/>
</g>
<!-- Node8 -->
<g id="node15" class="node"><title>Node8</title>
<a xlink:href="uimanager_8cpp_source.html" target="_top" xlink:title="/home/sqeaky/Projects\l/MezzanineCurrent/Mezzanine\l/Mezzanine/src/uimanager.cpp">
<polygon fill="white" stroke="black" points="909.5,-83 909.5,-127 1056.5,-127 1056.5,-83 909.5,-83"/>
<text text-anchor="start" x="917.5" y="-114" font-family="FreeSans" font-size="10.00">/home/sqeaky/Projects</text>
<text text-anchor="start" x="917.5" y="-102" font-family="FreeSans" font-size="10.00">/MezzanineCurrent/Mezzanine</text>
<text text-anchor="middle" x="983" y="-90" font-family="FreeSans" font-size="10.00">/Mezzanine/src/uimanager.cpp</text>
</a>
</g>
<!-- Node1&#45;&gt;Node8 -->
<g id="edge14" class="edge"><title>Node1&#45;&gt;Node8</title>
<path fill="none" stroke="midnightblue" d="M618.122,-175.496C694.558,-165.31 805.384,-148.835 901,-128 903.745,-127.402 906.534,-126.766 909.346,-126.101"/>
<polygon fill="midnightblue" stroke="midnightblue" points="617.494,-172.048 608.039,-176.83 618.412,-178.988 617.494,-172.048"/>
</g>
<!-- Node4 -->
<g id="node7" class="node"><title>Node4</title>
<a xlink:href="entresol_8cpp_source.html" target="_top" xlink:title="/home/sqeaky/Projects\l/MezzanineCurrent/Mezzanine\l/Mezzanine/src/entresol.cpp">
<polygon fill="white" stroke="black" points="180,-1 180,-45 326,-45 326,-1 180,-1"/>
<text text-anchor="start" x="188" y="-32" font-family="FreeSans" font-size="10.00">/home/sqeaky/Projects</text>
<text text-anchor="start" x="188" y="-20" font-family="FreeSans" font-size="10.00">/MezzanineCurrent/Mezzanine</text>
<text text-anchor="middle" x="253" y="-8" font-family="FreeSans" font-size="10.00">/Mezzanine/src/entresol.cpp</text>
</a>
</g>
<!-- Node3&#45;&gt;Node4 -->
<g id="edge6" class="edge"><title>Node3&#45;&gt;Node4</title>
<path fill="none" stroke="midnightblue" d="M253,-72.5577C253,-63.3493 253,-53.5381 253,-45.0959"/>
<polygon fill="midnightblue" stroke="midnightblue" points="249.5,-72.5931 253,-82.5931 256.5,-72.5932 249.5,-72.5931"/>
</g>
</g>
</svg>
