<?xml version="1.0" encoding="UTF-8" standalone="no"?>
<!DOCTYPE svg PUBLIC "-//W3C//DTD SVG 1.1//EN"
 "http://www.w3.org/Graphics/SVG/1.1/DTD/svg11.dtd">
<!-- Generated by graphviz version 2.26.3 (20100126.1600)
 -->
<!-- Title: /home/sqeaky/Code/Mezzanine/Mezzanine/src/Resource/resourcemanager.h Pages: 1 -->
<!--zoomable 276 -->
<svg id="main" version="1.1" xmlns="http://www.w3.org/2000/svg" xmlns:xlink="http://www.w3.org/1999/xlink" xml:space="preserve" onload="init(evt)">
<style type="text/css"><![CDATA[
.edge:hover path { stroke: red; }
.edge:hover polygon { stroke: red; fill: red; }
]]></style>
<script type="text/javascript"><![CDATA[
var edges = document.getElementsByTagName('g');
if (edges && edges.length) {
  for (var i=0;i<edges.length;i++) {
    if (edges[i].id.substr(0,4)=='edge') {
      edges[i].setAttribute('class','edge');
    }
  }
}
]]></script>
        <defs>
                <circle id="rim" cx="0" cy="0" r="7"/>
                <circle id="rim2" cx="0" cy="0" r="3.5"/>
                <g id="zoomPlus">
                        <use xlink:href="#rim" fill="#404040">
                                <set attributeName="fill" to="#808080" begin="zoomplus.mouseover" end="zoomplus.mouseout"/>
                        </use>
                        <path d="M-4,0h8M0,-4v8" fill="none" stroke="white" stroke-width="1.5" pointer-events="none"/>
                </g>
                <g id="zoomMin">
                        <use xlink:href="#rim" fill="#404040">
                                <set attributeName="fill" to="#808080" begin="zoomminus.mouseover" end="zoomminus.mouseout"/>
                        </use>
                        <path d="M-4,0h8" fill="none" stroke="white" stroke-width="1.5" pointer-events="none"/>
                </g>
                <g id="dirArrow">
                        <path fill="none" stroke="white" stroke-width="1.5" d="M0,-3.0v7 M-2.5,-0.5L0,-3.0L2.5,-0.5"/>
                </g>
               <g id="resetDef">
                       <use xlink:href="#rim2" fill="#404040">
                               <set attributeName="fill" to="#808080" begin="reset.mouseover" end="reset.mouseout"/>
                       </use>
               </g>
        </defs>

<script type="text/javascript">
var viewWidth = 1318;
var viewHeight = 276;
var sectionId = 'dynsection-1';
</script>
<script xlink:href="svgpan.js"/>
<svg id="graph" class="graph">
<g id="viewport">
<title>/home/sqeaky/Code/Mezzanine/Mezzanine/src/Resource/resourcemanager.h</title>
<polygon fill="white" stroke="white" points="-4,5 -4,-272 1315,-272 1315,5 -4,5"/>
<!-- Node1 -->
<g id="node1" class="node"><title>Node1</title>
<polygon fill="#bfbfbf" stroke="black" points="556.5,-223 556.5,-267 707.5,-267 707.5,-223 556.5,-223"/>
<text text-anchor="start" x="564.5" y="-254" font-family="FreeSans" font-size="10.00">/home/sqeaky/Code/Mezzanine</text>
<text text-anchor="start" x="564.5" y="-242" font-family="FreeSans" font-size="10.00">/Mezzanine/src/Resource</text>
<text text-anchor="middle" x="632" y="-230" font-family="FreeSans" font-size="10.00">/resourcemanager.h</text>
</g>
<!-- Node2 -->
<g id="node3" class="node"><title>Node2</title>
<a xlink:href="resource_8h_source.html" target="_top" xlink:title="/home/sqeaky/Code/Mezzanine\l/Mezzanine/src/Resource\l/resource.h">
<polygon fill="white" stroke="black" points="-0.5,-141 -0.5,-185 150.5,-185 150.5,-141 -0.5,-141"/>
<text text-anchor="start" x="7.5" y="-172" font-family="FreeSans" font-size="10.00">/home/sqeaky/Code/Mezzanine</text>
<text text-anchor="start" x="7.5" y="-160" font-family="FreeSans" font-size="10.00">/Mezzanine/src/Resource</text>
<text text-anchor="middle" x="75" y="-148" font-family="FreeSans" font-size="10.00">/resource.h</text>
</a>
</g>
<!-- Node1&#45;&gt;Node2 -->
<g id="edge2" class="edge"><title>Node1&#45;&gt;Node2</title>
<path fill="none" stroke="midnightblue" d="M545.941,-237.997C450.694,-229.382 292.93,-212.547 159,-186 156.33,-185.471 153.621,-184.902 150.89,-184.303"/>
<polygon fill="midnightblue" stroke="midnightblue" points="545.828,-241.5 556.1,-238.906 546.452,-234.528 545.828,-241.5"/>
</g>
<!-- Node5 -->
<g id="node9" class="node"><title>Node5</title>
<a xlink:href="objectsettings_8cpp_source.html" target="_top" xlink:title="/home/sqeaky/Code/Mezzanine\l/Mezzanine/src/objectsettings.cpp">
<polygon fill="white" stroke="black" points="167.5,-147 167.5,-179 328.5,-179 328.5,-147 167.5,-147"/>
<text text-anchor="start" x="175.5" y="-166" font-family="FreeSans" font-size="10.00">/home/sqeaky/Code/Mezzanine</text>
<text text-anchor="middle" x="248" y="-154" font-family="FreeSans" font-size="10.00">/Mezzanine/src/objectsettings.cpp</text>
</a>
</g>
<!-- Node1&#45;&gt;Node5 -->
<g id="edge8" class="edge"><title>Node1&#45;&gt;Node5</title>
<path fill="none" stroke="midnightblue" d="M546.248,-229.152C487.236,-217.928 407.145,-202.065 337,-186 327.666,-183.862 317.819,-181.463 308.211,-179.043"/>
<polygon fill="midnightblue" stroke="midnightblue" points="545.795,-232.629 556.272,-231.053 547.099,-225.751 545.795,-232.629"/>
</g>
<!-- Node6 -->
<g id="node11" class="node"><title>Node6</title>
<a xlink:href="graphicsmanager_8cpp_source.html" target="_top" xlink:title="/home/sqeaky/Code/Mezzanine\l/Mezzanine/src/Graphics\l/graphicsmanager.cpp">
<polygon fill="white" stroke="black" points="345.5,-141 345.5,-185 496.5,-185 496.5,-141 345.5,-141"/>
<text text-anchor="start" x="353.5" y="-172" font-family="FreeSans" font-size="10.00">/home/sqeaky/Code/Mezzanine</text>
<text text-anchor="start" x="353.5" y="-160" font-family="FreeSans" font-size="10.00">/Mezzanine/src/Graphics</text>
<text text-anchor="middle" x="421" y="-148" font-family="FreeSans" font-size="10.00">/graphicsmanager.cpp</text>
</a>
</g>
<!-- Node1&#45;&gt;Node6 -->
<g id="edge10" class="edge"><title>Node1&#45;&gt;Node6</title>
<path fill="none" stroke="midnightblue" d="M565.796,-219.272C537.595,-208.312 505.024,-195.654 477.923,-185.122"/>
<polygon fill="midnightblue" stroke="midnightblue" points="564.59,-222.558 575.178,-222.918 567.125,-216.033 564.59,-222.558"/>
</g>
<!-- Node7 -->
<g id="node13" class="node"><title>Node7</title>
<a xlink:href="collisionshapemanager_8cpp_source.html" target="_top" xlink:title="/home/sqeaky/Code/Mezzanine\l/Mezzanine/src/Physics/collisionshapemanager.cpp">
<polygon fill="white" stroke="black" points="514,-147 514,-179 750,-179 750,-147 514,-147"/>
<text text-anchor="start" x="522" y="-166" font-family="FreeSans" font-size="10.00">/home/sqeaky/Code/Mezzanine</text>
<text text-anchor="middle" x="632" y="-154" font-family="FreeSans" font-size="10.00">/Mezzanine/src/Physics/collisionshapemanager.cpp</text>
</a>
</g>
<!-- Node1&#45;&gt;Node7 -->
<g id="edge12" class="edge"><title>Node1&#45;&gt;Node7</title>
<path fill="none" stroke="midnightblue" d="M632,-212.449C632,-201.004 632,-188.641 632,-179.139"/>
<polygon fill="midnightblue" stroke="midnightblue" points="628.5,-212.593 632,-222.593 635.5,-212.593 628.5,-212.593"/>
</g>
<!-- Node8 -->
<g id="node15" class="node"><title>Node8</title>
<a xlink:href="resourcemanager_8cpp_source.html" target="_top" xlink:title="/home/sqeaky/Code/Mezzanine\l/Mezzanine/src/Resource\l/resourcemanager.cpp">
<polygon fill="white" stroke="black" points="767.5,-141 767.5,-185 918.5,-185 918.5,-141 767.5,-141"/>
<text text-anchor="start" x="775.5" y="-172" font-family="FreeSans" font-size="10.00">/home/sqeaky/Code/Mezzanine</text>
<text text-anchor="start" x="775.5" y="-160" font-family="FreeSans" font-size="10.00">/Mezzanine/src/Resource</text>
<text text-anchor="middle" x="843" y="-148" font-family="FreeSans" font-size="10.00">/resourcemanager.cpp</text>
</a>
</g>
<!-- Node1&#45;&gt;Node8 -->
<g id="edge14" class="edge"><title>Node1&#45;&gt;Node8</title>
<path fill="none" stroke="midnightblue" d="M698.204,-219.272C726.405,-208.312 758.976,-195.654 786.077,-185.122"/>
<polygon fill="midnightblue" stroke="midnightblue" points="696.875,-216.033 688.822,-222.918 699.41,-222.558 696.875,-216.033"/>
</g>
<!-- Node9 -->
<g id="node17" class="node"><title>Node9</title>
<a xlink:href="textureatlashandler_8cpp_source.html" target="_top" xlink:title="/home/sqeaky/Code/Mezzanine\l/Mezzanine/src/UI/textureatlashandler.cpp">
<polygon fill="white" stroke="black" points="936,-147 936,-179 1132,-179 1132,-147 936,-147"/>
<text text-anchor="start" x="944" y="-166" font-family="FreeSans" font-size="10.00">/home/sqeaky/Code/Mezzanine</text>
<text text-anchor="middle" x="1034" y="-154" font-family="FreeSans" font-size="10.00">/Mezzanine/src/UI/textureatlashandler.cpp</text>
</a>
</g>
<!-- Node1&#45;&gt;Node9 -->
<g id="edge16" class="edge"><title>Node1&#45;&gt;Node9</title>
<path fill="none" stroke="midnightblue" d="M717.55,-228.227C776.473,-216.591 856.539,-200.618 927,-186 937.698,-183.781 948.988,-181.398 960.065,-179.037"/>
<polygon fill="midnightblue" stroke="midnightblue" points="716.675,-224.832 707.542,-230.201 718.03,-231.699 716.675,-224.832"/>
</g>
<!-- Node10 -->
<g id="node19" class="node"><title>Node10</title>
<a xlink:href="uimanager_8cpp_source.html" target="_top" xlink:title="/home/sqeaky/Code/Mezzanine\l/Mezzanine/src/UI/uimanager.cpp">
<polygon fill="white" stroke="black" points="1150,-147 1150,-179 1310,-179 1310,-147 1150,-147"/>
<text text-anchor="start" x="1158" y="-166" font-family="FreeSans" font-size="10.00">/home/sqeaky/Code/Mezzanine</text>
<text text-anchor="middle" x="1230" y="-154" font-family="FreeSans" font-size="10.00">/Mezzanine/src/UI/uimanager.cpp</text>
</a>
</g>
<!-- Node1&#45;&gt;Node10 -->
<g id="edge18" class="edge"><title>Node1&#45;&gt;Node10</title>
<path fill="none" stroke="midnightblue" d="M717.723,-238.684C819.324,-230.365 993.457,-213.481 1141,-186 1151.35,-184.071 1162.29,-181.608 1172.81,-179.015"/>
<polygon fill="midnightblue" stroke="midnightblue" points="717.201,-235.215 707.516,-239.511 717.766,-242.192 717.201,-235.215"/>
</g>
<!-- Node3 -->
<g id="node5" class="node"><title>Node3</title>
<a xlink:href="mezzanine_8h.html" target="_top" xlink:title="A single file that includes all of the Mezzanine engine. ">
<polygon fill="white" stroke="black" points="-0.5,-71 -0.5,-103 150.5,-103 150.5,-71 -0.5,-71"/>
<text text-anchor="start" x="7.5" y="-90" font-family="FreeSans" font-size="10.00">/home/sqeaky/Code/Mezzanine</text>
<text text-anchor="middle" x="75" y="-78" font-family="FreeSans" font-size="10.00">/Mezzanine/src/mezzanine.h</text>
</a>
</g>
<!-- Node2&#45;&gt;Node3 -->
<g id="edge4" class="edge"><title>Node2&#45;&gt;Node3</title>
<path fill="none" stroke="midnightblue" d="M75,-130.406C75,-121.095 75,-111.341 75,-103.444"/>
<polygon fill="midnightblue" stroke="midnightblue" points="71.5001,-130.609 75,-140.609 78.5001,-130.609 71.5001,-130.609"/>
</g>
<!-- Node4 -->
<g id="node7" class="node"><title>Node4</title>
<a xlink:href="entresol_8cpp_source.html" target="_top" xlink:title="/home/sqeaky/Code/Mezzanine\l/Mezzanine/src/entresol.cpp">
<polygon fill="white" stroke="black" points="-0.5,-1 -0.5,-33 150.5,-33 150.5,-1 -0.5,-1"/>
<text text-anchor="start" x="7.5" y="-20" font-family="FreeSans" font-size="10.00">/home/sqeaky/Code/Mezzanine</text>
<text text-anchor="middle" x="75" y="-8" font-family="FreeSans" font-size="10.00">/Mezzanine/src/entresol.cpp</text>
</a>
</g>
<!-- Node3&#45;&gt;Node4 -->
<g id="edge6" class="edge"><title>Node3&#45;&gt;Node4</title>
<path fill="none" stroke="midnightblue" d="M75,-60.5079C75,-51.3027 75,-41.2615 75,-33.1473"/>
<polygon fill="midnightblue" stroke="midnightblue" points="71.5001,-60.7646 75,-70.7646 78.5001,-60.7647 71.5001,-60.7646"/>
</g>
</g>
</svg>
        <g id="navigator" transform="translate(0 0)" fill="#404254">
                <rect fill="#f2f5e9" fill-opacity="0.5" stroke="#606060" stroke-width=".5" x="0" y="0" width="60" height="60"/>
                <use id="zoomplus" xlink:href="#zoomPlus" x="17" y="9" onmousedown="handleZoom(evt,'in')"/>
                <use id="zoomminus" xlink:href="#zoomMin" x="42" y="9" onmousedown="handleZoom(evt,'out')"/>
                <use id="reset" xlink:href="#resetDef" x="30" y="36" onmousedown="handleReset()"/>
                <g id="arrowUp" xlink:href="#dirArrow" transform="translate(30 24)" onmousedown="handlePan(0,-1)">
                  <use xlink:href="#rim" fill="#404040">
                        <set attributeName="fill" to="#808080" begin="arrowUp.mouseover" end="arrowUp.mouseout"/>
                  </use>
                  <path fill="none" stroke="white" stroke-width="1.5" d="M0,-3.0v7 M-2.5,-0.5L0,-3.0L2.5,-0.5"/>
                </g>
                <g id="arrowRight" xlink:href="#dirArrow" transform="rotate(90) translate(36 -43)" onmousedown="handlePan(1,0)">
                  <use xlink:href="#rim" fill="#404040">
                        <set attributeName="fill" to="#808080" begin="arrowRight.mouseover" end="arrowRight.mouseout"/>
                  </use>
                  <path fill="none" stroke="white" stroke-width="1.5" d="M0,-3.0v7 M-2.5,-0.5L0,-3.0L2.5,-0.5"/>
                </g>
                <g id="arrowDown" xlink:href="#dirArrow" transform="rotate(180) translate(-30 -48)" onmousedown="handlePan(0,1)">
                  <use xlink:href="#rim" fill="#404040">
                        <set attributeName="fill" to="#808080" begin="arrowDown.mouseover" end="arrowDown.mouseout"/>
                  </use>
                  <path fill="none" stroke="white" stroke-width="1.5" d="M0,-3.0v7 M-2.5,-0.5L0,-3.0L2.5,-0.5"/>
                </g>
                <g id="arrowLeft" xlink:href="#dirArrow" transform="rotate(270) translate(-36 17)" onmousedown="handlePan(-1,0)">
                  <use xlink:href="#rim" fill="#404040">
                        <set attributeName="fill" to="#808080" begin="arrowLeft.mouseover" end="arrowLeft.mouseout"/>
                  </use>
                  <path fill="none" stroke="white" stroke-width="1.5" d="M0,-3.0v7 M-2.5,-0.5L0,-3.0L2.5,-0.5"/>
                </g>
        </g>
        <svg viewBox="0 0 15 15" width="100%" height="30px" preserveAspectRatio="xMaxYMin meet">
         <g id="arrow_out" transform="scale(0.3 0.3)">
          <a xlink:href="resourcemanager_8h__dep__incl_org.svg" target="_base">
           <rect id="button" ry="5" rx="5" y="6" x="6" height="38" width="38"
                fill="#f2f5e9" fill-opacity="0.5" stroke="#606060" stroke-width="1.0"/>
           <path id="arrow"
             d="M 11.500037,31.436501 C 11.940474,20.09759 22.043105,11.32322 32.158766,21.979434 L 37.068811,17.246167 C 37.068811,17.246167 37.088388,32 37.088388,32 L 22.160133,31.978069 C 22.160133,31.978069 26.997745,27.140456 26.997745,27.140456 C 18.528582,18.264221 13.291696,25.230495 11.500037,31.436501 z"
             style="fill:#404040;"/>
          </a>
         </g>
        </svg>
</svg>
