<?xml version="1.0" encoding="UTF-8" standalone="no"?>
<!DOCTYPE svg PUBLIC "-//W3C//DTD SVG 1.1//EN"
 "http://www.w3.org/Graphics/SVG/1.1/DTD/svg11.dtd">
<!-- Generated by graphviz version 2.26.3 (20100126.1600)
 -->
<!-- Title: /home/sqeaky/Code/Mezzanine/Mezzanine/src/Scripting/script.h Pages: 1 -->
<svg width="326pt" height="358pt"
 viewBox="0.00 0.00 326.00 358.00" xmlns="http://www.w3.org/2000/svg" xmlns:xlink="http://www.w3.org/1999/xlink">
<g id="graph1" class="graph" transform="scale(1 1) rotate(0) translate(4 354)">
<title>/home/sqeaky/Code/Mezzanine/Mezzanine/src/Scripting/script.h</title>
<!-- Node1 -->
<g id="node1" class="node"><title>Node1</title>
<polygon fill="#bfbfbf" stroke="black" points="50.5,-305 50.5,-349 201.5,-349 201.5,-305 50.5,-305"/>
<text text-anchor="start" x="58.5" y="-336" font-family="FreeSans" font-size="10.00">/home/sqeaky/Code/Mezzanine</text>
<text text-anchor="start" x="58.5" y="-324" font-family="FreeSans" font-size="10.00">/Mezzanine/src/Scripting</text>
<text text-anchor="middle" x="126" y="-312" font-family="FreeSans" font-size="10.00">/script.h</text>
</g>
<!-- Node2 -->
<g id="node3" class="node"><title>Node2</title>
<a xlink:href="scripting_8h_source.xhtml" target="_top" xlink:title="/home/sqeaky/Code/Mezzanine\l/Mezzanine/src/scripting.h">
<polygon fill="none" stroke="black" points="-0.5,-147 -0.5,-179 150.5,-179 150.5,-147 -0.5,-147"/>
<text text-anchor="start" x="7.5" y="-166" font-family="FreeSans" font-size="10.00">/home/sqeaky/Code/Mezzanine</text>
<text text-anchor="middle" x="75" y="-154" font-family="FreeSans" font-size="10.00">/Mezzanine/src/scripting.h</text>
</a>
</g>
<!-- Node1&#45;&gt;Node2 -->
<g id="edge2" class="edge"><title>Node1&#45;&gt;Node2</title>
<path fill="none" stroke="midnightblue" d="M106.819,-296.038C102.035,-287.236 97.3266,-277.465 94,-268 83.3115,-237.59 78.3751,-200.011 76.3094,-179.057"/>
<polygon fill="midnightblue" stroke="midnightblue" points="103.809,-297.824 111.778,-304.805 109.902,-294.378 103.809,-297.824"/>
</g>
<!-- Node5 -->
<g id="node9" class="node"><title>Node5</title>
<a xlink:href="scriptingmanager_8h.xhtml" target="_top" xlink:title="This file has the interfaces for Scripting managers and the associated dependency chain...">
<polygon fill="none" stroke="black" points="102.5,-223 102.5,-267 253.5,-267 253.5,-223 102.5,-223"/>
<text text-anchor="start" x="110.5" y="-254" font-family="FreeSans" font-size="10.00">/home/sqeaky/Code/Mezzanine</text>
<text text-anchor="start" x="110.5" y="-242" font-family="FreeSans" font-size="10.00">/Mezzanine/src/Scripting</text>
<text text-anchor="middle" x="178" y="-230" font-family="FreeSans" font-size="10.00">/scriptingmanager.h</text>
</a>
</g>
<!-- Node1&#45;&gt;Node5 -->
<g id="edge8" class="edge"><title>Node1&#45;&gt;Node5</title>
<path fill="none" stroke="midnightblue" d="M145.635,-296.037C151.741,-286.408 158.347,-275.992 163.988,-267.096"/>
<polygon fill="midnightblue" stroke="midnightblue" points="142.609,-294.274 140.209,-304.593 148.52,-298.022 142.609,-294.274"/>
</g>
<!-- Node3 -->
<g id="node5" class="node"><title>Node3</title>
<a xlink:href="mezzanine_8h.xhtml" target="_top" xlink:title="A single file that includes all of the Mezzanine engine.">
<polygon fill="none" stroke="black" points="-0.5,-71 -0.5,-103 150.5,-103 150.5,-71 -0.5,-71"/>
<text text-anchor="start" x="7.5" y="-90" font-family="FreeSans" font-size="10.00">/home/sqeaky/Code/Mezzanine</text>
<text text-anchor="middle" x="75" y="-78" font-family="FreeSans" font-size="10.00">/Mezzanine/src/mezzanine.h</text>
</a>
</g>
<!-- Node2&#45;&gt;Node3 -->
<g id="edge4" class="edge"><title>Node2&#45;&gt;Node3</title>
<path fill="none" stroke="midnightblue" d="M75,-136.759C75,-125.566 75,-112.864 75,-103.094"/>
<polygon fill="midnightblue" stroke="midnightblue" points="71.5001,-136.882 75,-146.882 78.5001,-136.882 71.5001,-136.882"/>
</g>
<!-- Node4 -->
<g id="node7" class="node"><title>Node4</title>
<a xlink:href="entresol_8cpp_source.xhtml" target="_top" xlink:title="/home/sqeaky/Code/Mezzanine\l/Mezzanine/src/entresol.cpp">
<polygon fill="none" stroke="black" points="-0.5,-1 -0.5,-33 150.5,-33 150.5,-1 -0.5,-1"/>
<text text-anchor="start" x="7.5" y="-20" font-family="FreeSans" font-size="10.00">/home/sqeaky/Code/Mezzanine</text>
<text text-anchor="middle" x="75" y="-8" font-family="FreeSans" font-size="10.00">/Mezzanine/src/entresol.cpp</text>
</a>
</g>
<!-- Node3&#45;&gt;Node4 -->
<g id="edge6" class="edge"><title>Node3&#45;&gt;Node4</title>
<path fill="none" stroke="midnightblue" d="M75,-60.5079C75,-51.3027 75,-41.2615 75,-33.1473"/>
<polygon fill="midnightblue" stroke="midnightblue" points="71.5001,-60.7646 75,-70.7646 78.5001,-60.7647 71.5001,-60.7646"/>
</g>
<!-- Node5&#45;&gt;Node2 -->
<g id="edge10" class="edge"><title>Node5&#45;&gt;Node2</title>
<path fill="none" stroke="midnightblue" d="M142.168,-216.474C126.511,-204.008 108.717,-189.843 95.3793,-179.224"/>
<polygon fill="midnightblue" stroke="midnightblue" points="140.123,-219.319 150.127,-222.81 144.483,-213.843 140.123,-219.319"/>
</g>
<!-- Node6 -->
<g id="node12" class="node"><title>Node6</title>
<a xlink:href="scriptingmanager_8cpp.xhtml" target="_top" xlink:title="The implementation (WTF!!) of the Interface for Scripting Managers.">
<polygon fill="none" stroke="black" points="167.5,-141 167.5,-185 318.5,-185 318.5,-141 167.5,-141"/>
<text text-anchor="start" x="175.5" y="-172" font-family="FreeSans" font-size="10.00">/home/sqeaky/Code/Mezzanine</text>
<text text-anchor="start" x="175.5" y="-160" font-family="FreeSans" font-size="10.00">/Mezzanine/src/Scripting</text>
<text text-anchor="middle" x="243" y="-148" font-family="FreeSans" font-size="10.00">/scriptingmanager.cpp</text>
</a>
</g>
<!-- Node5&#45;&gt;Node6 -->
<g id="edge12" class="edge"><title>Node5&#45;&gt;Node6</title>
<path fill="none" stroke="midnightblue" d="M202.077,-214.626C209.839,-204.834 218.289,-194.173 225.485,-185.096"/>
<polygon fill="midnightblue" stroke="midnightblue" points="199.231,-212.582 195.762,-222.593 204.716,-216.931 199.231,-212.582"/>
</g>
</g>
</svg>
