<?xml version="1.0" encoding="UTF-8" standalone="no"?>
<!DOCTYPE svg PUBLIC "-//W3C//DTD SVG 1.1//EN"
 "http://www.w3.org/Graphics/SVG/1.1/DTD/svg11.dtd">
<!-- Generated by graphviz version 2.38.0 (20140413.2041)
 -->
<!-- Title: /home/sqeaky/Code/MezzanineFresh/Mezzanine/src/Scripting/scriptargument.h Pages: 1 -->
<svg width="1258pt" height="507pt"
 viewBox="0.00 0.00 1258.09 507.00" xmlns="http://www.w3.org/2000/svg" xmlns:xlink="http://www.w3.org/1999/xlink">
<g id="graph0" class="graph" transform="scale(1 1) rotate(0) translate(4 503)">
<title>/home/sqeaky/Code/MezzanineFresh/Mezzanine/src/Scripting/scriptargument.h</title>
<polygon fill="white" stroke="none" points="-4,4 -4,-503 1254.09,-503 1254.09,4 -4,4"/>
<!-- Node1 -->
<g id="node1" class="node"><title>Node1</title>
<polygon fill="#bfbfbf" stroke="black" points="514.5,-457.5 514.5,-498.5 669.5,-498.5 669.5,-457.5 514.5,-457.5"/>
<text text-anchor="start" x="522.5" y="-486.5" font-family="Helvetica,sans-Serif" font-size="10.00">/home/sqeaky/Code/Mezzanine</text>
<text text-anchor="start" x="522.5" y="-475.5" font-family="Helvetica,sans-Serif" font-size="10.00">Fresh/Mezzanine/src/Scripting</text>
<text text-anchor="middle" x="592" y="-464.5" font-family="Helvetica,sans-Serif" font-size="10.00">/scriptargument.h</text>
</g>
<!-- Node2 -->
<g id="node2" class="node"><title>Node2</title>
<g id="a_node2"><a xlink:href="lua51scriptingengine_8h.html" target="_top" xlink:title="This file has the interface for the Lua based implementation of the Scripting system. ">
<polygon fill="white" stroke="black" points="816.5,-223.5 816.5,-264.5 971.5,-264.5 971.5,-223.5 816.5,-223.5"/>
<text text-anchor="start" x="824.5" y="-252.5" font-family="Helvetica,sans-Serif" font-size="10.00">/home/sqeaky/Code/Mezzanine</text>
<text text-anchor="start" x="824.5" y="-241.5" font-family="Helvetica,sans-Serif" font-size="10.00">Fresh/Mezzanine/src/Scripting</text>
<text text-anchor="middle" x="894" y="-230.5" font-family="Helvetica,sans-Serif" font-size="10.00">/Lua51/lua51scriptingengine.h</text>
</a>
</g>
</g>
<!-- Node1&#45;&gt;Node2 -->
<g id="edge1" class="edge"><title>Node1&#45;&gt;Node2</title>
<path fill="none" stroke="midnightblue" d="M626.554,-451.404C639.304,-441.905 653.846,-431.009 667,-421 740.815,-364.834 827.199,-297.375 868.922,-264.683"/>
<polygon fill="midnightblue" stroke="midnightblue" points="624.401,-448.643 618.467,-457.42 628.579,-454.259 624.401,-448.643"/>
</g>
<!-- Node4 -->
<g id="node4" class="node"><title>Node4</title>
<g id="a_node4"><a xlink:href="scripting_8h_source.html" target="_top" xlink:title="/home/sqeaky/Code/Mezzanine\lFresh/Mezzanine/src/Scripting\l/scripting.h">
<polygon fill="white" stroke="black" points="205.5,-67.5 205.5,-108.5 360.5,-108.5 360.5,-67.5 205.5,-67.5"/>
<text text-anchor="start" x="213.5" y="-96.5" font-family="Helvetica,sans-Serif" font-size="10.00">/home/sqeaky/Code/Mezzanine</text>
<text text-anchor="start" x="213.5" y="-85.5" font-family="Helvetica,sans-Serif" font-size="10.00">Fresh/Mezzanine/src/Scripting</text>
<text text-anchor="middle" x="283" y="-74.5" font-family="Helvetica,sans-Serif" font-size="10.00">/scripting.h</text>
</a>
</g>
</g>
<!-- Node1&#45;&gt;Node4 -->
<g id="edge34" class="edge"><title>Node1&#45;&gt;Node4</title>
<path fill="none" stroke="midnightblue" d="M504.182,-472.372C339.333,-461.269 0,-425.915 0,-323 0,-323 0,-323 0,-243 0,-149.168 121.515,-112.182 205.295,-97.833"/>
<polygon fill="midnightblue" stroke="midnightblue" points="504.094,-475.874 514.302,-473.038 504.554,-468.889 504.094,-475.874"/>
</g>
<!-- Node10 -->
<g id="node10" class="node"><title>Node10</title>
<g id="a_node10"><a xlink:href="script_8h.html" target="_top" xlink:title="This file has the interfaces for Scripts and tag derived classes. ">
<polygon fill="white" stroke="black" points="461.5,-379.5 461.5,-420.5 616.5,-420.5 616.5,-379.5 461.5,-379.5"/>
<text text-anchor="start" x="469.5" y="-408.5" font-family="Helvetica,sans-Serif" font-size="10.00">/home/sqeaky/Code/Mezzanine</text>
<text text-anchor="start" x="469.5" y="-397.5" font-family="Helvetica,sans-Serif" font-size="10.00">Fresh/Mezzanine/src/Scripting</text>
<text text-anchor="middle" x="539" y="-386.5" font-family="Helvetica,sans-Serif" font-size="10.00">/script.h</text>
</a>
</g>
</g>
<!-- Node1&#45;&gt;Node10 -->
<g id="edge9" class="edge"><title>Node1&#45;&gt;Node10</title>
<path fill="none" stroke="midnightblue" d="M572.507,-449.048C565.894,-439.566 558.655,-429.185 552.603,-420.506"/>
<polygon fill="midnightblue" stroke="midnightblue" points="569.76,-451.228 578.351,-457.428 575.502,-447.224 569.76,-451.228"/>
</g>
<!-- Node11 -->
<g id="node11" class="node"><title>Node11</title>
<g id="a_node11"><a xlink:href="scriptingmanager_8h.html" target="_top" xlink:title="This file has the interfaces for Scripting managers and the associated dependency chain...">
<polygon fill="white" stroke="black" points="384.5,-301.5 384.5,-342.5 539.5,-342.5 539.5,-301.5 384.5,-301.5"/>
<text text-anchor="start" x="392.5" y="-330.5" font-family="Helvetica,sans-Serif" font-size="10.00">/home/sqeaky/Code/Mezzanine</text>
<text text-anchor="start" x="392.5" y="-319.5" font-family="Helvetica,sans-Serif" font-size="10.00">Fresh/Mezzanine/src/Scripting</text>
<text text-anchor="middle" x="462" y="-308.5" font-family="Helvetica,sans-Serif" font-size="10.00">/scriptingmanager.h</text>
</a>
</g>
</g>
<!-- Node1&#45;&gt;Node11 -->
<g id="edge35" class="edge"><title>Node1&#45;&gt;Node11</title>
<path fill="none" stroke="midnightblue" d="M504.74,-460.08C484.092,-451.784 464.472,-439.422 452,-421 436.276,-397.775 444.802,-364.088 452.961,-342.874"/>
<polygon fill="midnightblue" stroke="midnightblue" points="503.684,-463.421 514.277,-463.613 506.115,-456.857 503.684,-463.421"/>
</g>
<!-- Node12 -->
<g id="node12" class="node"><title>Node12</title>
<g id="a_node12"><a xlink:href="lua51script_8h.html" target="_top" xlink:title="This file has the interface for the Lua scripts. ">
<polygon fill="white" stroke="black" points="470.5,-223.5 470.5,-264.5 625.5,-264.5 625.5,-223.5 470.5,-223.5"/>
<text text-anchor="start" x="478.5" y="-252.5" font-family="Helvetica,sans-Serif" font-size="10.00">/home/sqeaky/Code/Mezzanine</text>
<text text-anchor="start" x="478.5" y="-241.5" font-family="Helvetica,sans-Serif" font-size="10.00">Fresh/Mezzanine/src/Scripting</text>
<text text-anchor="middle" x="548" y="-230.5" font-family="Helvetica,sans-Serif" font-size="10.00">/Lua51/lua51script.h</text>
</a>
</g>
</g>
<!-- Node1&#45;&gt;Node12 -->
<g id="edge36" class="edge"><title>Node1&#45;&gt;Node12</title>
<path fill="none" stroke="midnightblue" d="M612.423,-448.987C617.557,-440.424 622.356,-430.696 625,-421 629.912,-402.991 629.813,-397.036 625,-379 613.17,-334.67 582.788,-289.774 563.917,-264.847"/>
<polygon fill="midnightblue" stroke="midnightblue" points="609.458,-447.127 607.028,-457.44 615.359,-450.894 609.458,-447.127"/>
</g>
<!-- Node14 -->
<g id="node14" class="node"><title>Node14</title>
<g id="a_node14"><a xlink:href="lua51scriptargument_8h.html" target="_top" xlink:title="This file has the definition of the Script Arguments for Lua 51. ">
<polygon fill="white" stroke="black" points="643.5,-223.5 643.5,-264.5 798.5,-264.5 798.5,-223.5 643.5,-223.5"/>
<text text-anchor="start" x="651.5" y="-252.5" font-family="Helvetica,sans-Serif" font-size="10.00">/home/sqeaky/Code/Mezzanine</text>
<text text-anchor="start" x="651.5" y="-241.5" font-family="Helvetica,sans-Serif" font-size="10.00">Fresh/Mezzanine/src/Scripting</text>
<text text-anchor="middle" x="721" y="-230.5" font-family="Helvetica,sans-Serif" font-size="10.00">/Lua51/lua51scriptargument.h</text>
</a>
</g>
</g>
<!-- Node1&#45;&gt;Node14 -->
<g id="edge37" class="edge"><title>Node1&#45;&gt;Node14</title>
<path fill="none" stroke="midnightblue" d="M618.665,-449.761C626.441,-441.003 634.568,-430.975 641,-421 675.105,-368.11 702.167,-298.282 714.207,-264.7"/>
<polygon fill="midnightblue" stroke="midnightblue" points="615.84,-447.665 611.681,-457.409 621.009,-452.385 615.84,-447.665"/>
</g>
<!-- Node3 -->
<g id="node3" class="node"><title>Node3</title>
<g id="a_node3"><a xlink:href="entresol_8cpp_source.html" target="_top" xlink:title="/home/sqeaky/Code/Mezzanine\lFresh/Mezzanine/src/entresol.cpp">
<polygon fill="white" stroke="black" points="1068,-151 1068,-181 1232,-181 1232,-151 1068,-151"/>
<text text-anchor="start" x="1076" y="-169" font-family="Helvetica,sans-Serif" font-size="10.00">/home/sqeaky/Code/Mezzanine</text>
<text text-anchor="middle" x="1150" y="-158" font-family="Helvetica,sans-Serif" font-size="10.00">Fresh/Mezzanine/src/entresol.cpp</text>
</a>
</g>
</g>
<!-- Node2&#45;&gt;Node3 -->
<g id="edge2" class="edge"><title>Node2&#45;&gt;Node3</title>
<path fill="none" stroke="midnightblue" d="M969.518,-220.58C1012.57,-207.801 1065.19,-192.177 1102.48,-181.106"/>
<polygon fill="midnightblue" stroke="midnightblue" points="968.517,-217.227 959.926,-223.428 970.509,-223.937 968.517,-217.227"/>
</g>
<!-- Node2&#45;&gt;Node4 -->
<g id="edge3" class="edge"><title>Node2&#45;&gt;Node4</title>
<path fill="none" stroke="midnightblue" d="M980.953,-220.297C996.412,-212.296 1010.57,-201.514 1020,-187 1030.17,-171.348 1032.69,-158.69 1020,-145 997.824,-121.075 545.744,-99.8208 360.816,-92.0934"/>
<polygon fill="midnightblue" stroke="midnightblue" points="979.248,-217.233 971.726,-224.694 982.259,-223.552 979.248,-217.233"/>
</g>
<!-- Node6 -->
<g id="node6" class="node"><title>Node6</title>
<g id="a_node6"><a xlink:href="lua51script_8cpp.html" target="_top" xlink:title="This file has the implemetation for the Lua script storage. ">
<polygon fill="white" stroke="black" points="856.5,-145.5 856.5,-186.5 1011.5,-186.5 1011.5,-145.5 856.5,-145.5"/>
<text text-anchor="start" x="864.5" y="-174.5" font-family="Helvetica,sans-Serif" font-size="10.00">/home/sqeaky/Code/Mezzanine</text>
<text text-anchor="start" x="864.5" y="-163.5" font-family="Helvetica,sans-Serif" font-size="10.00">Fresh/Mezzanine/src/Scripting</text>
<text text-anchor="middle" x="934" y="-152.5" font-family="Helvetica,sans-Serif" font-size="10.00">/Lua51/lua51script.cpp</text>
</a>
</g>
</g>
<!-- Node2&#45;&gt;Node6 -->
<g id="edge5" class="edge"><title>Node2&#45;&gt;Node6</title>
<path fill="none" stroke="midnightblue" d="M909.018,-214.466C913.925,-205.143 919.259,-195.007 923.734,-186.506"/>
<polygon fill="midnightblue" stroke="midnightblue" points="905.861,-212.949 904.301,-223.428 912.056,-216.209 905.861,-212.949"/>
</g>
<!-- Node7 -->
<g id="node7" class="node"><title>Node7</title>
<g id="a_node7"><a xlink:href="lua51scriptargument_8cpp.html" target="_top" xlink:title="This file has the implementation for the Lua script argument. ">
<polygon fill="white" stroke="black" points="470.5,-145.5 470.5,-186.5 625.5,-186.5 625.5,-145.5 470.5,-145.5"/>
<text text-anchor="start" x="478.5" y="-174.5" font-family="Helvetica,sans-Serif" font-size="10.00">/home/sqeaky/Code/Mezzanine</text>
<text text-anchor="start" x="478.5" y="-163.5" font-family="Helvetica,sans-Serif" font-size="10.00">Fresh/Mezzanine/src/Scripting</text>
<text text-anchor="middle" x="548" y="-152.5" font-family="Helvetica,sans-Serif" font-size="10.00">/Lua51/lua51scriptargument.cpp</text>
</a>
</g>
</g>
<!-- Node2&#45;&gt;Node7 -->
<g id="edge6" class="edge"><title>Node2&#45;&gt;Node7</title>
<path fill="none" stroke="midnightblue" d="M806.032,-222.81C729.027,-206.021 708.155,-203.063 635,-187 631.972,-186.335 628.887,-185.652 625.771,-184.958"/>
<polygon fill="midnightblue" stroke="midnightblue" points="805.712,-226.323 816.229,-225.042 807.209,-219.484 805.712,-226.323"/>
</g>
<!-- Node8 -->
<g id="node8" class="node"><title>Node8</title>
<g id="a_node8"><a xlink:href="lua51scriptingengine_8cpp.html" target="_top" xlink:title="This file has the implementation for the Lua based Scripting system. ">
<polygon fill="white" stroke="black" points="644,-145.5 644,-186.5 800,-186.5 800,-145.5 644,-145.5"/>
<text text-anchor="start" x="652" y="-174.5" font-family="Helvetica,sans-Serif" font-size="10.00">/home/sqeaky/Code/Mezzanine</text>
<text text-anchor="start" x="652" y="-163.5" font-family="Helvetica,sans-Serif" font-size="10.00">Fresh/Mezzanine/src/Scripting</text>
<text text-anchor="middle" x="722" y="-152.5" font-family="Helvetica,sans-Serif" font-size="10.00">/Lua51/lua51scriptingengine.cpp</text>
</a>
</g>
</g>
<!-- Node2&#45;&gt;Node8 -->
<g id="edge7" class="edge"><title>Node2&#45;&gt;Node8</title>
<path fill="none" stroke="midnightblue" d="M840.429,-219.329C816.563,-208.783 788.792,-196.513 766.144,-186.506"/>
<polygon fill="midnightblue" stroke="midnightblue" points="839.144,-222.588 849.706,-223.428 841.973,-216.185 839.144,-222.588"/>
</g>
<!-- Node9 -->
<g id="node9" class="node"><title>Node9</title>
<g id="a_node9"><a xlink:href="lua51workunit_8cpp.html" target="_top" xlink:title="This file has the implementation a workunit that can execute lua script every frame. ">
<polygon fill="white" stroke="black" points="806.5,-67.5 806.5,-108.5 961.5,-108.5 961.5,-67.5 806.5,-67.5"/>
<text text-anchor="start" x="814.5" y="-96.5" font-family="Helvetica,sans-Serif" font-size="10.00">/home/sqeaky/Code/Mezzanine</text>
<text text-anchor="start" x="814.5" y="-85.5" font-family="Helvetica,sans-Serif" font-size="10.00">Fresh/Mezzanine/src/Scripting</text>
<text text-anchor="middle" x="884" y="-74.5" font-family="Helvetica,sans-Serif" font-size="10.00">/Lua51/lua51workunit.cpp</text>
</a>
</g>
</g>
<!-- Node2&#45;&gt;Node9 -->
<g id="edge8" class="edge"><title>Node2&#45;&gt;Node9</title>
<path fill="none" stroke="midnightblue" d="M981.89,-241.336C1073.54,-237.522 1208.35,-225.344 1241,-187 1253.1,-172.788 1253.13,-159.185 1241,-145 1205.78,-103.82 1055.53,-92.7169 961.531,-89.8502"/>
<polygon fill="midnightblue" stroke="midnightblue" points="981.628,-237.844 971.772,-241.731 981.901,-244.839 981.628,-237.844"/>
</g>
<!-- Node5 -->
<g id="node5" class="node"><title>Node5</title>
<g id="a_node5"><a xlink:href="mezzanine_8h.html" target="_top" xlink:title="A single file that includes all of the Mezzanine engine. ">
<polygon fill="white" stroke="black" points="199.5,-0.5 199.5,-30.5 366.5,-30.5 366.5,-0.5 199.5,-0.5"/>
<text text-anchor="start" x="207.5" y="-18.5" font-family="Helvetica,sans-Serif" font-size="10.00">/home/sqeaky/Code/Mezzanine</text>
<text text-anchor="middle" x="283" y="-7.5" font-family="Helvetica,sans-Serif" font-size="10.00">Fresh/Mezzanine/src/mezzanine.h</text>
</a>
</g>
</g>
<!-- Node4&#45;&gt;Node5 -->
<g id="edge4" class="edge"><title>Node4&#45;&gt;Node5</title>
<path fill="none" stroke="midnightblue" d="M283,-57.08C283,-48.0061 283,-38.4498 283,-30.8916"/>
<polygon fill="midnightblue" stroke="midnightblue" points="279.5,-57.3618 283,-67.3618 286.5,-57.3619 279.5,-57.3618"/>
</g>
<!-- Node10&#45;&gt;Node2 -->
<g id="edge10" class="edge"><title>Node10&#45;&gt;Node2</title>
<path fill="none" stroke="midnightblue" d="M593.494,-375.361C663.49,-344.996 783.695,-292.851 848.845,-264.588"/>
<polygon fill="midnightblue" stroke="midnightblue" points="591.742,-372.305 583.961,-379.496 594.528,-378.727 591.742,-372.305"/>
</g>
<!-- Node10&#45;&gt;Node4 -->
<g id="edge11" class="edge"><title>Node10&#45;&gt;Node4</title>
<path fill="none" stroke="midnightblue" d="M451.068,-387.304C325.454,-368.589 104.519,-327.532 57,-265 3.51688,-194.62 133.259,-137.125 217.572,-108.552"/>
<polygon fill="midnightblue" stroke="midnightblue" points="450.655,-390.781 461.058,-388.775 451.675,-383.856 450.655,-390.781"/>
</g>
<!-- Node10&#45;&gt;Node11 -->
<g id="edge12" class="edge"><title>Node10&#45;&gt;Node11</title>
<path fill="none" stroke="midnightblue" d="M511.851,-372.204C501.935,-362.416 490.914,-351.539 481.762,-342.506"/>
<polygon fill="midnightblue" stroke="midnightblue" points="509.595,-374.894 519.171,-379.428 514.512,-369.912 509.595,-374.894"/>
</g>
<!-- Node10&#45;&gt;Node12 -->
<g id="edge32" class="edge"><title>Node10&#45;&gt;Node12</title>
<path fill="none" stroke="midnightblue" d="M544.642,-369.508C546.027,-360.987 547.309,-351.653 548,-343 550.167,-315.864 549.625,-284.367 548.914,-264.56"/>
<polygon fill="midnightblue" stroke="midnightblue" points="541.187,-368.946 542.936,-379.396 548.085,-370.137 541.187,-368.946"/>
</g>
<!-- Node10&#45;&gt;Node14 -->
<g id="edge33" class="edge"><title>Node10&#45;&gt;Node14</title>
<path fill="none" stroke="midnightblue" d="M569.853,-372.894C606.08,-342.24 665.337,-292.099 697.85,-264.588"/>
<polygon fill="midnightblue" stroke="midnightblue" points="567.424,-370.364 562.05,-379.496 571.945,-375.708 567.424,-370.364"/>
</g>
<!-- Node16 -->
<g id="node16" class="node"><title>Node16</title>
<g id="a_node16"><a xlink:href="scriptworkunit_8h.html" target="_top" xlink:title="This file has the interfaces for ScriptsWorkUnit. ">
<polygon fill="white" stroke="black" points="278.5,-223.5 278.5,-264.5 433.5,-264.5 433.5,-223.5 278.5,-223.5"/>
<text text-anchor="start" x="286.5" y="-252.5" font-family="Helvetica,sans-Serif" font-size="10.00">/home/sqeaky/Code/Mezzanine</text>
<text text-anchor="start" x="286.5" y="-241.5" font-family="Helvetica,sans-Serif" font-size="10.00">Fresh/Mezzanine/src/Scripting</text>
<text text-anchor="middle" x="356" y="-230.5" font-family="Helvetica,sans-Serif" font-size="10.00">/scriptworkunit.h</text>
</a>
</g>
</g>
<!-- Node10&#45;&gt;Node16 -->
<g id="edge29" class="edge"><title>Node10&#45;&gt;Node16</title>
<path fill="none" stroke="midnightblue" d="M451.553,-386.951C423.433,-378.88 394.534,-365.424 375,-343 356.103,-321.307 353.724,-286.541 354.387,-264.777"/>
<polygon fill="midnightblue" stroke="midnightblue" points="450.887,-390.395 461.451,-389.587 452.688,-383.631 450.887,-390.395"/>
</g>
<!-- Node11&#45;&gt;Node2 -->
<g id="edge13" class="edge"><title>Node11&#45;&gt;Node2</title>
<path fill="none" stroke="midnightblue" d="M549.76,-308.366C619.655,-297.916 719.878,-282.066 807,-265 810.042,-264.404 813.139,-263.779 816.265,-263.134"/>
<polygon fill="midnightblue" stroke="midnightblue" points="549.049,-304.933 539.673,-309.868 550.08,-311.857 549.049,-304.933"/>
</g>
<!-- Node11&#45;&gt;Node4 -->
<g id="edge14" class="edge"><title>Node11&#45;&gt;Node4</title>
<path fill="none" stroke="midnightblue" d="M374.201,-312.927C337.798,-305.517 297.504,-291.481 269,-265 228.802,-227.655 222.354,-196.954 240,-145 244.612,-131.42 253.99,-118.556 262.815,-108.59"/>
<polygon fill="midnightblue" stroke="midnightblue" points="373.876,-316.427 384.352,-314.845 375.176,-309.549 373.876,-316.427"/>
</g>
<!-- Node11&#45;&gt;Node12 -->
<g id="edge15" class="edge"><title>Node11&#45;&gt;Node12</title>
<path fill="none" stroke="midnightblue" d="M491.672,-294.779C502.914,-284.843 515.506,-273.716 525.928,-264.506"/>
<polygon fill="midnightblue" stroke="midnightblue" points="489.323,-292.183 484.147,-301.428 493.958,-297.429 489.323,-292.183"/>
</g>
<!-- Node11&#45;&gt;Node14 -->
<g id="edge23" class="edge"><title>Node11&#45;&gt;Node14</title>
<path fill="none" stroke="midnightblue" d="M538.403,-298.58C575.264,-287.764 619.065,-274.911 654.527,-264.506"/>
<polygon fill="midnightblue" stroke="midnightblue" points="537.309,-295.254 528.699,-301.428 539.28,-301.971 537.309,-295.254"/>
</g>
<!-- Node15 -->
<g id="node15" class="node"><title>Node15</title>
<g id="a_node15"><a xlink:href="scriptingmanager_8cpp.html" target="_top" xlink:title="The implementation (WTF!!) of the Interface for Scripting Managers. ">
<polygon fill="white" stroke="black" points="66.5,-223.5 66.5,-264.5 221.5,-264.5 221.5,-223.5 66.5,-223.5"/>
<text text-anchor="start" x="74.5" y="-252.5" font-family="Helvetica,sans-Serif" font-size="10.00">/home/sqeaky/Code/Mezzanine</text>
<text text-anchor="start" x="74.5" y="-241.5" font-family="Helvetica,sans-Serif" font-size="10.00">Fresh/Mezzanine/src/Scripting</text>
<text text-anchor="middle" x="144" y="-230.5" font-family="Helvetica,sans-Serif" font-size="10.00">/scriptingmanager.cpp</text>
</a>
</g>
</g>
<!-- Node11&#45;&gt;Node15 -->
<g id="edge28" class="edge"><title>Node11&#45;&gt;Node15</title>
<path fill="none" stroke="midnightblue" d="M374.474,-300.082C326.583,-288.636 267.767,-274.58 221.539,-263.531"/>
<polygon fill="midnightblue" stroke="midnightblue" points="373.669,-303.488 384.208,-302.408 375.296,-296.68 373.669,-303.488"/>
</g>
<!-- Node12&#45;&gt;Node4 -->
<g id="edge16" class="edge"><title>Node12&#45;&gt;Node4</title>
<path fill="none" stroke="midnightblue" d="M504.417,-217.943C490.048,-208.912 474.343,-198.174 461,-187 441.471,-170.645 442.985,-159.44 422,-145 399.71,-129.662 372.59,-117.544 348.243,-108.561"/>
<polygon fill="midnightblue" stroke="midnightblue" points="502.808,-221.063 513.157,-223.334 506.483,-215.105 502.808,-221.063"/>
</g>
<!-- Node12&#45;&gt;Node6 -->
<g id="edge20" class="edge"><title>Node12&#45;&gt;Node6</title>
<path fill="none" stroke="midnightblue" d="M635.583,-222.703C716.035,-205.985 798.119,-190.896 856.43,-180.514"/>
<polygon fill="midnightblue" stroke="midnightblue" points="634.855,-219.28 625.782,-224.75 636.286,-226.132 634.855,-219.28"/>
</g>
<!-- Node12&#45;&gt;Node7 -->
<g id="edge21" class="edge"><title>Node12&#45;&gt;Node7</title>
<path fill="none" stroke="midnightblue" d="M548,-213.297C548,-204.301 548,-194.653 548,-186.506"/>
<polygon fill="midnightblue" stroke="midnightblue" points="544.5,-213.428 548,-223.428 551.5,-213.428 544.5,-213.428"/>
</g>
<!-- Node12&#45;&gt;Node8 -->
<g id="edge22" class="edge"><title>Node12&#45;&gt;Node8</title>
<path fill="none" stroke="midnightblue" d="M602.194,-219.329C626.338,-208.783 654.431,-196.513 677.343,-186.506"/>
<polygon fill="midnightblue" stroke="midnightblue" points="600.572,-216.218 592.809,-223.428 603.374,-222.633 600.572,-216.218"/>
</g>
<!-- Node13 -->
<g id="node13" class="node"><title>Node13</title>
<g id="a_node13"><a xlink:href="lua51workunit_8h.html" target="_top" xlink:title="This file has the declaration for a workunit that can execute lua script every frame. ">
<polygon fill="white" stroke="black" points="258.5,-145.5 258.5,-186.5 413.5,-186.5 413.5,-145.5 258.5,-145.5"/>
<text text-anchor="start" x="266.5" y="-174.5" font-family="Helvetica,sans-Serif" font-size="10.00">/home/sqeaky/Code/Mezzanine</text>
<text text-anchor="start" x="266.5" y="-163.5" font-family="Helvetica,sans-Serif" font-size="10.00">Fresh/Mezzanine/src/Scripting</text>
<text text-anchor="middle" x="336" y="-152.5" font-family="Helvetica,sans-Serif" font-size="10.00">/Lua51/lua51workunit.h</text>
</a>
</g>
</g>
<!-- Node12&#45;&gt;Node13 -->
<g id="edge17" class="edge"><title>Node12&#45;&gt;Node13</title>
<path fill="none" stroke="midnightblue" d="M483.916,-220.026C454.072,-209.328 418.943,-196.734 390.41,-186.506"/>
<polygon fill="midnightblue" stroke="midnightblue" points="482.81,-223.348 493.405,-223.428 485.172,-216.759 482.81,-223.348"/>
</g>
<!-- Node13&#45;&gt;Node4 -->
<g id="edge18" class="edge"><title>Node13&#45;&gt;Node4</title>
<path fill="none" stroke="midnightblue" d="M316.507,-137.048C309.894,-127.566 302.655,-117.185 296.603,-108.506"/>
<polygon fill="midnightblue" stroke="midnightblue" points="313.76,-139.228 322.351,-145.428 319.502,-135.224 313.76,-139.228"/>
</g>
<!-- Node13&#45;&gt;Node9 -->
<g id="edge19" class="edge"><title>Node13&#45;&gt;Node9</title>
<path fill="none" stroke="midnightblue" d="M423.625,-150.672C436.161,-148.712 448.903,-146.768 461,-145 581.394,-127.402 721.427,-109.334 806.338,-98.6423"/>
<polygon fill="midnightblue" stroke="midnightblue" points="422.967,-147.233 413.632,-152.245 424.055,-154.148 422.967,-147.233"/>
</g>
<!-- Node14&#45;&gt;Node4 -->
<g id="edge24" class="edge"><title>Node14&#45;&gt;Node4</title>
<path fill="none" stroke="midnightblue" d="M778.506,-218.128C790.698,-210.042 801.991,-199.769 809,-187 817.983,-170.637 821.481,-158.88 809,-145 779.603,-112.307 499.851,-97.1896 360.748,-91.6473"/>
<polygon fill="midnightblue" stroke="midnightblue" points="776.649,-215.161 769.963,-223.38 780.315,-221.124 776.649,-215.161"/>
</g>
<!-- Node14&#45;&gt;Node6 -->
<g id="edge25" class="edge"><title>Node14&#45;&gt;Node6</title>
<path fill="none" stroke="midnightblue" d="M785.387,-220.026C815.372,-209.328 850.666,-196.734 879.333,-186.506"/>
<polygon fill="midnightblue" stroke="midnightblue" points="784.095,-216.771 775.853,-223.428 786.447,-223.364 784.095,-216.771"/>
</g>
<!-- Node14&#45;&gt;Node7 -->
<g id="edge26" class="edge"><title>Node14&#45;&gt;Node7</title>
<path fill="none" stroke="midnightblue" d="M667.117,-219.329C643.112,-208.783 615.181,-196.513 592.401,-186.506"/>
<polygon fill="midnightblue" stroke="midnightblue" points="665.885,-222.61 676.448,-223.428 668.7,-216.202 665.885,-222.61"/>
</g>
<!-- Node14&#45;&gt;Node8 -->
<g id="edge27" class="edge"><title>Node14&#45;&gt;Node8</title>
<path fill="none" stroke="midnightblue" d="M721.391,-213.297C721.509,-204.301 721.636,-194.653 721.743,-186.506"/>
<polygon fill="midnightblue" stroke="midnightblue" points="717.889,-213.383 721.258,-223.428 724.889,-213.475 717.889,-213.383"/>
</g>
<!-- Node16&#45;&gt;Node4 -->
<g id="edge30" class="edge"><title>Node16&#45;&gt;Node4</title>
<path fill="none" stroke="midnightblue" d="M282.966,-218.535C269.444,-210.618 257.06,-200.316 249,-187 233.893,-162.042 251.521,-129.427 266.504,-108.841"/>
<polygon fill="midnightblue" stroke="midnightblue" points="281.519,-221.731 291.982,-223.4 284.844,-215.571 281.519,-221.731"/>
</g>
<!-- Node16&#45;&gt;Node13 -->
<g id="edge31" class="edge"><title>Node16&#45;&gt;Node13</title>
<path fill="none" stroke="midnightblue" d="M348.26,-213.59C345.871,-204.511 343.3,-194.742 341.133,-186.506"/>
<polygon fill="midnightblue" stroke="midnightblue" points="344.92,-214.648 350.85,-223.428 351.689,-212.867 344.92,-214.648"/>
</g>
</g>
</svg>
