<?xml version="1.0" encoding="UTF-8" standalone="no"?>
<!DOCTYPE svg PUBLIC "-//W3C//DTD SVG 1.1//EN"
 "http://www.w3.org/Graphics/SVG/1.1/DTD/svg11.dtd">
<!-- Generated by graphviz version 2.26.3 (20100126.1600)
 -->
<!-- Title: /home/sqeaky/Code/Mezzanine/Mezzanine/src/Scripting/script.h Pages: 1 -->
<!--zoomable 536 -->
<svg id="main" version="1.1" xmlns="http://www.w3.org/2000/svg" xmlns:xlink="http://www.w3.org/1999/xlink" xml:space="preserve" onload="init(evt)">
<style type="text/css"><![CDATA[
.edge:hover path { stroke: red; }
.edge:hover polygon { stroke: red; fill: red; }
]]></style>
<script type="text/javascript"><![CDATA[
var edges = document.getElementsByTagName('g');
if (edges && edges.length) {
  for (var i=0;i<edges.length;i++) {
    if (edges[i].id.substr(0,4)=='edge') {
      edges[i].setAttribute('class','edge');
    }
  }
}
]]></script>
        <defs>
                <circle id="rim" cx="0" cy="0" r="7"/>
                <circle id="rim2" cx="0" cy="0" r="3.5"/>
                <g id="zoomPlus">
                        <use xlink:href="#rim" fill="#404040">
                                <set attributeName="fill" to="#808080" begin="zoomplus.mouseover" end="zoomplus.mouseout"/>
                        </use>
                        <path d="M-4,0h8M0,-4v8" fill="none" stroke="white" stroke-width="1.5" pointer-events="none"/>
                </g>
                <g id="zoomMin">
                        <use xlink:href="#rim" fill="#404040">
                                <set attributeName="fill" to="#808080" begin="zoomminus.mouseover" end="zoomminus.mouseout"/>
                        </use>
                        <path d="M-4,0h8" fill="none" stroke="white" stroke-width="1.5" pointer-events="none"/>
                </g>
                <g id="dirArrow">
                        <path fill="none" stroke="white" stroke-width="1.5" d="M0,-3.0v7 M-2.5,-0.5L0,-3.0L2.5,-0.5"/>
                </g>
               <g id="resetDef">
                       <use xlink:href="#rim2" fill="#404040">
                               <set attributeName="fill" to="#808080" begin="reset.mouseover" end="reset.mouseout"/>
                       </use>
               </g>
        </defs>

<script type="text/javascript">
var viewWidth = 984;
var viewHeight = 536;
var sectionId = 'dynsection-1';
</script>
<script xlink:href="svgpan.js"/>
<svg id="graph" class="graph">
<g id="viewport">
<title>/home/sqeaky/Code/Mezzanine/Mezzanine/src/Scripting/script.h</title>
<polygon fill="white" stroke="white" points="-4,5 -4,-532 980.857,-532 980.857,5 -4,5"/>
<!-- Node1 -->
<g id="node1" class="node"><title>Node1</title>
<polygon fill="#bfbfbf" stroke="black" points="320.829,-480.5 320.829,-527.5 475.829,-527.5 475.829,-480.5 320.829,-480.5"/>
<text text-anchor="start" x="328.829" y="-514.5" font-family="Helvetica,sans-Serif" font-size="10.00">/home/sqeaky/Code/Mezzanine</text>
<text text-anchor="start" x="328.829" y="-501.5" font-family="Helvetica,sans-Serif" font-size="10.00">/Mezzanine/src/Scripting</text>
<text text-anchor="middle" x="398.329" y="-488.5" font-family="Helvetica,sans-Serif" font-size="10.00">/script.h</text>
</g>
<!-- Node2 -->
<g id="node3" class="node"><title>Node2</title>
<a xlink:href="scripting_8h_source.html" target="_top" xlink:title="/home/sqeaky/Code/Mezzanine\l/Mezzanine/src/Scripting\l/scripting.h">
<polygon fill="white" stroke="black" points="144.829,-144.5 144.829,-191.5 299.829,-191.5 299.829,-144.5 144.829,-144.5"/>
<text text-anchor="start" x="152.829" y="-178.5" font-family="Helvetica,sans-Serif" font-size="10.00">/home/sqeaky/Code/Mezzanine</text>
<text text-anchor="start" x="152.829" y="-165.5" font-family="Helvetica,sans-Serif" font-size="10.00">/Mezzanine/src/Scripting</text>
<text text-anchor="middle" x="222.329" y="-152.5" font-family="Helvetica,sans-Serif" font-size="10.00">/scripting.h</text>
</a>
</g>
<!-- Node1&#45;&gt;Node2 -->
<g id="edge2" class="edge"><title>Node1&#45;&gt;Node2</title>
<path fill="none" stroke="midnightblue" d="M310.691,-484.04C207.324,-458.468 45.2096,-411.279 11.3286,-360 -36.5876,-287.478 80.3585,-224.156 158.645,-191.503"/>
<polygon fill="midnightblue" stroke="midnightblue" points="309.958,-487.464 320.504,-486.447 311.626,-480.666 309.958,-487.464"/>
</g>
<!-- Node5 -->
<g id="node9" class="node"><title>Node5</title>
<a xlink:href="scriptingmanager_8h.html" target="_top" xlink:title="This file has the interfaces for Scripting managers and the associated dependency chain...">
<polygon fill="white" stroke="black" points="389.829,-396.5 389.829,-443.5 544.829,-443.5 544.829,-396.5 389.829,-396.5"/>
<text text-anchor="start" x="397.829" y="-430.5" font-family="Helvetica,sans-Serif" font-size="10.00">/home/sqeaky/Code/Mezzanine</text>
<text text-anchor="start" x="397.829" y="-417.5" font-family="Helvetica,sans-Serif" font-size="10.00">/Mezzanine/src/Scripting</text>
<text text-anchor="middle" x="467.329" y="-404.5" font-family="Helvetica,sans-Serif" font-size="10.00">/scriptingmanager.h</text>
</a>
</g>
<!-- Node1&#45;&gt;Node5 -->
<g id="edge8" class="edge"><title>Node1&#45;&gt;Node5</title>
<path fill="none" stroke="midnightblue" d="M424.311,-472.369C432.145,-462.832 440.604,-452.535 447.93,-443.615"/>
<polygon fill="midnightblue" stroke="midnightblue" points="421.56,-470.205 417.917,-480.154 426.969,-474.648 421.56,-470.205"/>
</g>
<!-- Node6 -->
<g id="node12" class="node"><title>Node6</title>
<a xlink:href="lua51script_8h.html" target="_top" xlink:title="This file has the interface for the Lua scripts. ">
<polygon fill="white" stroke="black" points="234.829,-312.5 234.829,-359.5 389.829,-359.5 389.829,-312.5 234.829,-312.5"/>
<text text-anchor="start" x="242.829" y="-346.5" font-family="Helvetica,sans-Serif" font-size="10.00">/home/sqeaky/Code/Mezzanine</text>
<text text-anchor="start" x="242.829" y="-333.5" font-family="Helvetica,sans-Serif" font-size="10.00">/Mezzanine/src/Scripting</text>
<text text-anchor="middle" x="312.329" y="-320.5" font-family="Helvetica,sans-Serif" font-size="10.00">/Lua51/lua51script.h</text>
</a>
</g>
<!-- Node1&#45;&gt;Node6 -->
<g id="edge60" class="edge"><title>Node1&#45;&gt;Node6</title>
<path fill="none" stroke="midnightblue" d="M381.484,-471.094C364.684,-438.276 339.295,-388.679 324.406,-359.593"/>
<polygon fill="midnightblue" stroke="midnightblue" points="378.517,-472.979 386.189,-480.286 384.748,-469.79 378.517,-472.979"/>
</g>
<!-- Node12 -->
<g id="node26" class="node"><title>Node12</title>
<a xlink:href="lua51scriptargument_8h.html" target="_top" xlink:title="This file has the definition of the Script Arguments for Lua 51. ">
<polygon fill="white" stroke="black" points="578.829,-312.5 578.829,-359.5 733.829,-359.5 733.829,-312.5 578.829,-312.5"/>
<text text-anchor="start" x="586.829" y="-346.5" font-family="Helvetica,sans-Serif" font-size="10.00">/home/sqeaky/Code/Mezzanine</text>
<text text-anchor="start" x="586.829" y="-333.5" font-family="Helvetica,sans-Serif" font-size="10.00">/Mezzanine/src/Scripting</text>
<text text-anchor="middle" x="656.329" y="-320.5" font-family="Helvetica,sans-Serif" font-size="10.00">/Lua51/lua51scriptargument.h</text>
</a>
</g>
<!-- Node1&#45;&gt;Node12 -->
<g id="edge62" class="edge"><title>Node1&#45;&gt;Node12</title>
<path fill="none" stroke="midnightblue" d="M485.558,-477.912C508.608,-469.006 532.771,-457.741 553.329,-444 588.225,-420.675 620.202,-383.622 638.98,-359.556"/>
<polygon fill="midnightblue" stroke="midnightblue" points="484.238,-474.669 476.106,-481.46 486.698,-481.223 484.238,-474.669"/>
</g>
<!-- Node13 -->
<g id="node32" class="node"><title>Node13</title>
<a xlink:href="lua51scriptingengine_8h.html" target="_top" xlink:title="This file has the interface for the Lua based implementation of the Scripting system. ">
<polygon fill="white" stroke="black" points="753.829,-312.5 753.829,-359.5 908.829,-359.5 908.829,-312.5 753.829,-312.5"/>
<text text-anchor="start" x="761.829" y="-346.5" font-family="Helvetica,sans-Serif" font-size="10.00">/home/sqeaky/Code/Mezzanine</text>
<text text-anchor="start" x="761.829" y="-333.5" font-family="Helvetica,sans-Serif" font-size="10.00">/Mezzanine/src/Scripting</text>
<text text-anchor="middle" x="831.329" y="-320.5" font-family="Helvetica,sans-Serif" font-size="10.00">/Lua51/lua51scriptingengine.h</text>
</a>
</g>
<!-- Node1&#45;&gt;Node13 -->
<g id="edge64" class="edge"><title>Node1&#45;&gt;Node13</title>
<path fill="none" stroke="midnightblue" d="M485.848,-479.661C519.744,-469.563 558.661,-457.138 593.329,-444 661.004,-418.353 736.738,-382.74 784.218,-359.536"/>
<polygon fill="midnightblue" stroke="midnightblue" points="484.564,-476.391 475.966,-482.582 486.548,-483.104 484.564,-476.391"/>
</g>
<!-- Node15 -->
<g id="node42" class="node"><title>Node15</title>
<a xlink:href="scriptworkunit_8h.html" target="_top" xlink:title="This file has the interfaces for ScriptsWorkUnit. ">
<polygon fill="white" stroke="black" points="19.8286,-312.5 19.8286,-359.5 174.829,-359.5 174.829,-312.5 19.8286,-312.5"/>
<text text-anchor="start" x="27.8286" y="-346.5" font-family="Helvetica,sans-Serif" font-size="10.00">/home/sqeaky/Code/Mezzanine</text>
<text text-anchor="start" x="27.8286" y="-333.5" font-family="Helvetica,sans-Serif" font-size="10.00">/Mezzanine/src/Scripting</text>
<text text-anchor="middle" x="97.3286" y="-320.5" font-family="Helvetica,sans-Serif" font-size="10.00">/scriptworkunit.h</text>
</a>
</g>
<!-- Node1&#45;&gt;Node15 -->
<g id="edge54" class="edge"><title>Node1&#45;&gt;Node15</title>
<path fill="none" stroke="midnightblue" d="M347.1,-475.408C288.658,-442.789 194.163,-390.047 139.698,-359.648"/>
<polygon fill="midnightblue" stroke="midnightblue" points="345.721,-478.646 356.159,-480.463 349.133,-472.534 345.721,-478.646"/>
</g>
<!-- Node3 -->
<g id="node5" class="node"><title>Node3</title>
<a xlink:href="mezzanine_8h.html" target="_top" xlink:title="A single file that includes all of the Mezzanine engine. ">
<polygon fill="white" stroke="black" points="461.829,-73 461.829,-107 616.829,-107 616.829,-73 461.829,-73"/>
<text text-anchor="start" x="469.829" y="-94" font-family="Helvetica,sans-Serif" font-size="10.00">/home/sqeaky/Code/Mezzanine</text>
<text text-anchor="middle" x="539.329" y="-81" font-family="Helvetica,sans-Serif" font-size="10.00">/Mezzanine/src/mezzanine.h</text>
</a>
</g>
<!-- Node2&#45;&gt;Node3 -->
<g id="edge4" class="edge"><title>Node2&#45;&gt;Node3</title>
<path fill="none" stroke="midnightblue" d="M309.814,-146.474C360.36,-134.036 423.051,-118.611 470.135,-107.026"/>
<polygon fill="midnightblue" stroke="midnightblue" points="308.75,-143.131 299.876,-148.919 310.422,-149.928 308.75,-143.131"/>
</g>
<!-- Node4 -->
<g id="node7" class="node"><title>Node4</title>
<a xlink:href="entresol_8cpp_source.html" target="_top" xlink:title="/home/sqeaky/Code/Mezzanine\l/Mezzanine/src/entresol.cpp">
<polygon fill="white" stroke="black" points="697.829,-1 697.829,-35 852.829,-35 852.829,-1 697.829,-1"/>
<text text-anchor="start" x="705.829" y="-22" font-family="Helvetica,sans-Serif" font-size="10.00">/home/sqeaky/Code/Mezzanine</text>
<text text-anchor="middle" x="775.329" y="-9" font-family="Helvetica,sans-Serif" font-size="10.00">/Mezzanine/src/entresol.cpp</text>
</a>
</g>
<!-- Node3&#45;&gt;Node4 -->
<g id="edge6" class="edge"><title>Node3&#45;&gt;Node4</title>
<path fill="none" stroke="midnightblue" d="M605.165,-69.9143C641.105,-58.9494 685.129,-45.5186 719.393,-35.0651"/>
<polygon fill="midnightblue" stroke="midnightblue" points="603.801,-66.6712 595.257,-72.937 605.843,-73.3665 603.801,-66.6712"/>
</g>
<!-- Node5&#45;&gt;Node2 -->
<g id="edge10" class="edge"><title>Node5&#45;&gt;Node2</title>
<path fill="none" stroke="midnightblue" d="M379.562,-405.691C320.992,-394.746 250.459,-378.433 226.329,-360 192.333,-334.031 190.122,-317.396 179.329,-276 173.946,-255.357 172.802,-248.311 179.329,-228 183.563,-214.823 191.878,-202.085 200.076,-191.761"/>
<polygon fill="midnightblue" stroke="midnightblue" points="379.127,-409.17 389.595,-407.536 380.393,-402.285 379.127,-409.17"/>
</g>
<!-- Node5&#45;&gt;Node6 -->
<g id="edge12" class="edge"><title>Node5&#45;&gt;Node6</title>
<path fill="none" stroke="midnightblue" d="M414.821,-391.544C395.64,-381.149 374.172,-369.515 355.858,-359.59"/>
<polygon fill="midnightblue" stroke="midnightblue" points="413.28,-394.69 423.74,-396.378 416.616,-388.536 413.28,-394.69"/>
</g>
<!-- Node5&#45;&gt;Node12 -->
<g id="edge28" class="edge"><title>Node5&#45;&gt;Node12</title>
<path fill="none" stroke="midnightblue" d="M529.564,-392.34C553.467,-381.716 580.5,-369.702 603.443,-359.505"/>
<polygon fill="midnightblue" stroke="midnightblue" points="527.944,-389.23 520.227,-396.49 530.787,-395.627 527.944,-389.23"/>
</g>
<!-- Node5&#45;&gt;Node13 -->
<g id="edge38" class="edge"><title>Node5&#45;&gt;Node13</title>
<path fill="none" stroke="midnightblue" d="M554.817,-402.045C608.977,-390.649 679.869,-375.226 742.329,-360 746.06,-359.09 749.874,-358.14 753.723,-357.166"/>
<polygon fill="midnightblue" stroke="midnightblue" points="553.972,-398.645 544.904,-404.125 555.41,-405.496 553.972,-398.645"/>
</g>
<!-- Node14 -->
<g id="node40" class="node"><title>Node14</title>
<a xlink:href="scriptingmanager_8cpp.html" target="_top" xlink:title="The implementation (WTF!!) of the Interface for Scripting Managers. ">
<polygon fill="white" stroke="black" points="406.829,-312.5 406.829,-359.5 561.829,-359.5 561.829,-312.5 406.829,-312.5"/>
<text text-anchor="start" x="414.829" y="-346.5" font-family="Helvetica,sans-Serif" font-size="10.00">/home/sqeaky/Code/Mezzanine</text>
<text text-anchor="start" x="414.829" y="-333.5" font-family="Helvetica,sans-Serif" font-size="10.00">/Mezzanine/src/Scripting</text>
<text text-anchor="middle" x="484.329" y="-320.5" font-family="Helvetica,sans-Serif" font-size="10.00">/scriptingmanager.cpp</text>
</a>
</g>
<!-- Node5&#45;&gt;Node14 -->
<g id="edge52" class="edge"><title>Node5&#45;&gt;Node14</title>
<path fill="none" stroke="midnightblue" d="M474.196,-386.066C475.992,-377.193 477.889,-367.821 479.549,-359.615"/>
<polygon fill="midnightblue" stroke="midnightblue" points="470.708,-385.658 472.155,-396.154 477.569,-387.047 470.708,-385.658"/>
</g>
<!-- Node6&#45;&gt;Node2 -->
<g id="edge14" class="edge"><title>Node6&#45;&gt;Node2</title>
<path fill="none" stroke="midnightblue" d="M225.574,-309.185C211.167,-300.846 198.087,-290.016 189.329,-276 172.914,-249.729 189.332,-214.747 204.307,-191.814"/>
<polygon fill="midnightblue" stroke="midnightblue" points="224.22,-312.43 234.689,-314.062 227.523,-306.258 224.22,-312.43"/>
</g>
<!-- Node7 -->
<g id="node15" class="node"><title>Node7</title>
<a xlink:href="lua51workunit_8h.html" target="_top" xlink:title="This file has the declaration for a workunit that can execute lua script every frame. ">
<polygon fill="white" stroke="black" points="197.829,-228.5 197.829,-275.5 352.829,-275.5 352.829,-228.5 197.829,-228.5"/>
<text text-anchor="start" x="205.829" y="-262.5" font-family="Helvetica,sans-Serif" font-size="10.00">/home/sqeaky/Code/Mezzanine</text>
<text text-anchor="start" x="205.829" y="-249.5" font-family="Helvetica,sans-Serif" font-size="10.00">/Mezzanine/src/Scripting</text>
<text text-anchor="middle" x="275.329" y="-236.5" font-family="Helvetica,sans-Serif" font-size="10.00">/Lua51/lua51workunit.h</text>
</a>
</g>
<!-- Node6&#45;&gt;Node7 -->
<g id="edge16" class="edge"><title>Node6&#45;&gt;Node7</title>
<path fill="none" stroke="midnightblue" d="M297.763,-302.933C293.743,-293.806 289.463,-284.089 285.731,-275.615"/>
<polygon fill="midnightblue" stroke="midnightblue" points="294.591,-304.413 301.825,-312.154 300.997,-301.591 294.591,-304.413"/>
</g>
<!-- Node9 -->
<g id="node20" class="node"><title>Node9</title>
<a xlink:href="lua51script_8cpp.html" target="_top" xlink:title="This file has the implemetation for the Lua script storage. ">
<polygon fill="white" stroke="black" points="753.829,-228.5 753.829,-275.5 908.829,-275.5 908.829,-228.5 753.829,-228.5"/>
<text text-anchor="start" x="761.829" y="-262.5" font-family="Helvetica,sans-Serif" font-size="10.00">/home/sqeaky/Code/Mezzanine</text>
<text text-anchor="start" x="761.829" y="-249.5" font-family="Helvetica,sans-Serif" font-size="10.00">/Mezzanine/src/Scripting</text>
<text text-anchor="middle" x="831.329" y="-236.5" font-family="Helvetica,sans-Serif" font-size="10.00">/Lua51/lua51script.cpp</text>
</a>
</g>
<!-- Node6&#45;&gt;Node9 -->
<g id="edge22" class="edge"><title>Node6&#45;&gt;Node9</title>
<path fill="none" stroke="midnightblue" d="M400.198,-311.787C552.524,-283.975 596.276,-304.32 745.329,-276 748.07,-275.479 750.851,-274.913 753.652,-274.31"/>
<polygon fill="midnightblue" stroke="midnightblue" points="399.193,-308.414 390.005,-313.69 400.478,-315.295 399.193,-308.414"/>
</g>
<!-- Node10 -->
<g id="node22" class="node"><title>Node10</title>
<a xlink:href="lua51scriptargument_8cpp.html" target="_top" xlink:title="This file has the implementation for the Lua script argument. ">
<polygon fill="white" stroke="black" points="369.829,-228.5 369.829,-275.5 524.829,-275.5 524.829,-228.5 369.829,-228.5"/>
<text text-anchor="start" x="377.829" y="-262.5" font-family="Helvetica,sans-Serif" font-size="10.00">/home/sqeaky/Code/Mezzanine</text>
<text text-anchor="start" x="377.829" y="-249.5" font-family="Helvetica,sans-Serif" font-size="10.00">/Mezzanine/src/Scripting</text>
<text text-anchor="middle" x="447.329" y="-236.5" font-family="Helvetica,sans-Serif" font-size="10.00">/Lua51/lua51scriptargument.cpp</text>
</a>
</g>
<!-- Node6&#45;&gt;Node10 -->
<g id="edge24" class="edge"><title>Node6&#45;&gt;Node10</title>
<path fill="none" stroke="midnightblue" d="M359.16,-306.861C375.501,-296.692 393.632,-285.411 409.182,-275.736"/>
<polygon fill="midnightblue" stroke="midnightblue" points="356.934,-304.123 350.293,-312.378 360.633,-310.066 356.934,-304.123"/>
</g>
<!-- Node11 -->
<g id="node24" class="node"><title>Node11</title>
<a xlink:href="lua51scriptingengine_8cpp.html" target="_top" xlink:title="This file has the implementation for the Lua based Scripting system. ">
<polygon fill="white" stroke="black" points="580.329,-228.5 580.329,-275.5 736.329,-275.5 736.329,-228.5 580.329,-228.5"/>
<text text-anchor="start" x="588.329" y="-262.5" font-family="Helvetica,sans-Serif" font-size="10.00">/home/sqeaky/Code/Mezzanine</text>
<text text-anchor="start" x="588.329" y="-249.5" font-family="Helvetica,sans-Serif" font-size="10.00">/Mezzanine/src/Scripting</text>
<text text-anchor="middle" x="658.329" y="-236.5" font-family="Helvetica,sans-Serif" font-size="10.00">/Lua51/lua51scriptingengine.cpp</text>
</a>
</g>
<!-- Node6&#45;&gt;Node11 -->
<g id="edge26" class="edge"><title>Node6&#45;&gt;Node11</title>
<path fill="none" stroke="midnightblue" d="M399.812,-311.659C465.612,-295.021 530.858,-280.06 580.172,-269.065"/>
<polygon fill="midnightblue" stroke="midnightblue" points="398.932,-308.271 390.102,-314.126 400.656,-315.056 398.932,-308.271"/>
</g>
<!-- Node7&#45;&gt;Node2 -->
<g id="edge18" class="edge"><title>Node7&#45;&gt;Node2</title>
<path fill="none" stroke="midnightblue" d="M254.828,-219.508C248.965,-210.215 242.688,-200.267 237.229,-191.615"/>
<polygon fill="midnightblue" stroke="midnightblue" points="251.986,-221.564 260.283,-228.154 257.907,-217.829 251.986,-221.564"/>
</g>
<!-- Node8 -->
<g id="node18" class="node"><title>Node8</title>
<a xlink:href="lua51workunit_8cpp.html" target="_top" xlink:title="This file has the implementation a workunit that can execute lua script every frame. ">
<polygon fill="white" stroke="black" points="547.829,-144.5 547.829,-191.5 702.829,-191.5 702.829,-144.5 547.829,-144.5"/>
<text text-anchor="start" x="555.829" y="-178.5" font-family="Helvetica,sans-Serif" font-size="10.00">/home/sqeaky/Code/Mezzanine</text>
<text text-anchor="start" x="555.829" y="-165.5" font-family="Helvetica,sans-Serif" font-size="10.00">/Mezzanine/src/Scripting</text>
<text text-anchor="middle" x="625.329" y="-152.5" font-family="Helvetica,sans-Serif" font-size="10.00">/Lua51/lua51workunit.cpp</text>
</a>
</g>
<!-- Node7&#45;&gt;Node8 -->
<g id="edge20" class="edge"><title>Node7&#45;&gt;Node8</title>
<path fill="none" stroke="midnightblue" d="M363.037,-227.608C430.391,-210.709 497.444,-195.592 547.694,-184.603"/>
<polygon fill="midnightblue" stroke="midnightblue" points="361.94,-224.275 353.099,-230.114 363.651,-231.062 361.94,-224.275"/>
</g>
<!-- Node12&#45;&gt;Node2 -->
<g id="edge30" class="edge"><title>Node12&#45;&gt;Node2</title>
<path fill="none" stroke="midnightblue" d="M609.733,-306.696C596.709,-297.573 582.951,-287 571.329,-276 551.567,-257.296 556.584,-242.126 533.329,-228 494.967,-204.698 379.062,-186.716 300.111,-176.744"/>
<polygon fill="midnightblue" stroke="midnightblue" points="607.928,-309.703 618.155,-312.472 611.887,-303.93 607.928,-309.703"/>
</g>
<!-- Node12&#45;&gt;Node9 -->
<g id="edge32" class="edge"><title>Node12&#45;&gt;Node9</title>
<path fill="none" stroke="midnightblue" d="M714.731,-307.967C736.609,-297.465 761.225,-285.65 782.182,-275.59"/>
<polygon fill="midnightblue" stroke="midnightblue" points="713.042,-304.895 705.542,-312.378 716.071,-311.206 713.042,-304.895"/>
</g>
<!-- Node12&#45;&gt;Node10 -->
<g id="edge34" class="edge"><title>Node12&#45;&gt;Node10</title>
<path fill="none" stroke="midnightblue" d="M588.209,-308.622C561.605,-297.929 531.406,-285.792 505.811,-275.505"/>
<polygon fill="midnightblue" stroke="midnightblue" points="587.249,-312.008 597.833,-312.49 589.859,-305.513 587.249,-312.008"/>
</g>
<!-- Node12&#45;&gt;Node11 -->
<g id="edge36" class="edge"><title>Node12&#45;&gt;Node11</title>
<path fill="none" stroke="midnightblue" d="M657.137,-302.066C657.348,-293.193 657.571,-283.821 657.766,-275.615"/>
<polygon fill="midnightblue" stroke="midnightblue" points="653.636,-302.073 656.896,-312.154 660.634,-302.24 653.636,-302.073"/>
</g>
<!-- Node13&#45;&gt;Node2 -->
<g id="edge40" class="edge"><title>Node13&#45;&gt;Node2</title>
<path fill="none" stroke="midnightblue" d="M890.43,-306.29C901.254,-298.027 911.089,-287.962 917.329,-276 927.195,-257.085 931.75,-243.72 917.329,-228 912.148,-222.353 480.298,-188.097 300.024,-174.026"/>
<polygon fill="midnightblue" stroke="midnightblue" points="888.139,-303.623 882.002,-312.259 892.185,-309.335 888.139,-303.623"/>
</g>
<!-- Node13&#45;&gt;Node4 -->
<g id="edge42" class="edge"><title>Node13&#45;&gt;Node4</title>
<path fill="none" stroke="midnightblue" d="M918.396,-315.505C938.045,-306.65 956.554,-294.012 968.329,-276 980.002,-258.144 976.075,-247.877 968.329,-228 934.165,-140.34 844.4,-67.1234 800.386,-35.1976"/>
<polygon fill="midnightblue" stroke="midnightblue" points="916.873,-312.348 908.997,-319.435 919.573,-318.807 916.873,-312.348"/>
</g>
<!-- Node13&#45;&gt;Node8 -->
<g id="edge50" class="edge"><title>Node13&#45;&gt;Node8</title>
<path fill="none" stroke="midnightblue" d="M917.426,-307.409C930.522,-299.301 942.318,-289.01 950.329,-276 961.514,-257.834 963.976,-244.397 950.329,-228 919.497,-190.955 789.166,-176.692 703.207,-171.263"/>
<polygon fill="midnightblue" stroke="midnightblue" points="915.599,-304.422 908.66,-312.429 919.077,-310.497 915.599,-304.422"/>
</g>
<!-- Node13&#45;&gt;Node9 -->
<g id="edge44" class="edge"><title>Node13&#45;&gt;Node9</title>
<path fill="none" stroke="midnightblue" d="M831.329,-302.066C831.329,-293.193 831.329,-283.821 831.329,-275.615"/>
<polygon fill="midnightblue" stroke="midnightblue" points="827.829,-302.154 831.329,-312.154 834.829,-302.154 827.829,-302.154"/>
</g>
<!-- Node13&#45;&gt;Node10 -->
<g id="edge46" class="edge"><title>Node13&#45;&gt;Node10</title>
<path fill="none" stroke="midnightblue" d="M743.734,-312.333C743.264,-312.222 742.796,-312.11 742.329,-312 701.892,-302.446 597.887,-281.614 524.876,-267.2"/>
<polygon fill="midnightblue" stroke="midnightblue" points="743.194,-315.804 753.738,-314.769 744.85,-309.003 743.194,-315.804"/>
</g>
<!-- Node13&#45;&gt;Node11 -->
<g id="edge48" class="edge"><title>Node13&#45;&gt;Node11</title>
<path fill="none" stroke="midnightblue" d="M773.593,-307.967C751.966,-297.465 727.631,-285.65 706.913,-275.59"/>
<polygon fill="midnightblue" stroke="midnightblue" points="772.154,-311.158 782.678,-312.378 775.211,-304.861 772.154,-311.158"/>
</g>
<!-- Node15&#45;&gt;Node2 -->
<g id="edge56" class="edge"><title>Node15&#45;&gt;Node2</title>
<path fill="none" stroke="midnightblue" d="M96.838,-302.054C98.1024,-279.218 103.004,-249.476 118.329,-228 129.286,-212.644 145.494,-200.647 161.87,-191.553"/>
<polygon fill="midnightblue" stroke="midnightblue" points="93.3307,-302.209 96.484,-312.323 100.327,-302.45 93.3307,-302.209"/>
</g>
<!-- Node15&#45;&gt;Node7 -->
<g id="edge58" class="edge"><title>Node15&#45;&gt;Node7</title>
<path fill="none" stroke="midnightblue" d="M156.435,-308.107C178.762,-297.571 203.928,-285.695 225.34,-275.59"/>
<polygon fill="midnightblue" stroke="midnightblue" points="154.935,-304.945 147.385,-312.378 157.923,-311.275 154.935,-304.945"/>
</g>
</g>
</svg>
        <g id="navigator" transform="translate(0 0)" fill="#404254">
                <rect fill="#f2f5e9" fill-opacity="0.5" stroke="#606060" stroke-width=".5" x="0" y="0" width="60" height="60"/>
                <use id="zoomplus" xlink:href="#zoomPlus" x="17" y="9" onmousedown="handleZoom(evt,'in')"/>
                <use id="zoomminus" xlink:href="#zoomMin" x="42" y="9" onmousedown="handleZoom(evt,'out')"/>
                <use id="reset" xlink:href="#resetDef" x="30" y="36" onmousedown="handleReset()"/>
                <g id="arrowUp" xlink:href="#dirArrow" transform="translate(30 24)" onmousedown="handlePan(0,-1)">
                  <use xlink:href="#rim" fill="#404040">
                        <set attributeName="fill" to="#808080" begin="arrowUp.mouseover" end="arrowUp.mouseout"/>
                  </use>
                  <path fill="none" stroke="white" stroke-width="1.5" d="M0,-3.0v7 M-2.5,-0.5L0,-3.0L2.5,-0.5"/>
                </g>
                <g id="arrowRight" xlink:href="#dirArrow" transform="rotate(90) translate(36 -43)" onmousedown="handlePan(1,0)">
                  <use xlink:href="#rim" fill="#404040">
                        <set attributeName="fill" to="#808080" begin="arrowRight.mouseover" end="arrowRight.mouseout"/>
                  </use>
                  <path fill="none" stroke="white" stroke-width="1.5" d="M0,-3.0v7 M-2.5,-0.5L0,-3.0L2.5,-0.5"/>
                </g>
                <g id="arrowDown" xlink:href="#dirArrow" transform="rotate(180) translate(-30 -48)" onmousedown="handlePan(0,1)">
                  <use xlink:href="#rim" fill="#404040">
                        <set attributeName="fill" to="#808080" begin="arrowDown.mouseover" end="arrowDown.mouseout"/>
                  </use>
                  <path fill="none" stroke="white" stroke-width="1.5" d="M0,-3.0v7 M-2.5,-0.5L0,-3.0L2.5,-0.5"/>
                </g>
                <g id="arrowLeft" xlink:href="#dirArrow" transform="rotate(270) translate(-36 17)" onmousedown="handlePan(-1,0)">
                  <use xlink:href="#rim" fill="#404040">
                        <set attributeName="fill" to="#808080" begin="arrowLeft.mouseover" end="arrowLeft.mouseout"/>
                  </use>
                  <path fill="none" stroke="white" stroke-width="1.5" d="M0,-3.0v7 M-2.5,-0.5L0,-3.0L2.5,-0.5"/>
                </g>
        </g>
        <svg viewBox="0 0 15 15" width="100%" height="30px" preserveAspectRatio="xMaxYMin meet">
         <g id="arrow_out" transform="scale(0.3 0.3)">
          <a xlink:href="script_8h__dep__incl_org.svg" target="_base">
           <rect id="button" ry="5" rx="5" y="6" x="6" height="38" width="38"
                fill="#f2f5e9" fill-opacity="0.5" stroke="#606060" stroke-width="1.0"/>
           <path id="arrow"
             d="M 11.500037,31.436501 C 11.940474,20.09759 22.043105,11.32322 32.158766,21.979434 L 37.068811,17.246167 C 37.068811,17.246167 37.088388,32 37.088388,32 L 22.160133,31.978069 C 22.160133,31.978069 26.997745,27.140456 26.997745,27.140456 C 18.528582,18.264221 13.291696,25.230495 11.500037,31.436501 z"
             style="fill:#404040;"/>
          </a>
         </g>
        </svg>
</svg>
