<?xml version="1.0" encoding="UTF-8" standalone="no"?>
<!DOCTYPE svg PUBLIC "-//W3C//DTD SVG 1.1//EN"
 "http://www.w3.org/Graphics/SVG/1.1/DTD/svg11.dtd">
<!-- Generated by graphviz version 2.26.3 (20100126.1600)
 -->
<!-- Title: /home/Code/Mezzanine/Mezzanine/src/Scripting/scriptargument.h Pages: 1 -->
<svg width="349pt" height="452pt"
 viewBox="0.00 0.00 349.00 452.00" xmlns="http://www.w3.org/2000/svg" xmlns:xlink="http://www.w3.org/1999/xlink">
<g id="graph1" class="graph" transform="scale(1 1) rotate(0) translate(4 448)">
<title>/home/Code/Mezzanine/Mezzanine/src/Scripting/scriptargument.h</title>
<polygon fill="white" stroke="white" points="-4,5 -4,-448 346,-448 346,5 -4,5"/>
<!-- Node1 -->
<g id="node1" class="node"><title>Node1</title>
<polygon fill="#bfbfbf" stroke="black" points="58.5,-396.5 58.5,-443.5 191.5,-443.5 191.5,-396.5 58.5,-396.5"/>
<text text-anchor="start" x="66.5" y="-430.5" font-family="FreeSans" font-size="10.00">/home/Code/Mezzanine</text>
<text text-anchor="start" x="66.5" y="-417.5" font-family="FreeSans" font-size="10.00">/Mezzanine/src/Scripting</text>
<text text-anchor="middle" x="125" y="-404.5" font-family="FreeSans" font-size="10.00">/scriptargument.h</text>
</g>
<!-- Node2 -->
<g id="node3" class="node"><title>Node2</title>
<a xlink:href="script_8h.html" target="_top" xlink:title="This file has the interfaces for Scripts and tag derived classes.">
<polygon fill="white" stroke="black" points="58.5,-312.5 58.5,-359.5 191.5,-359.5 191.5,-312.5 58.5,-312.5"/>
<text text-anchor="start" x="66.5" y="-346.5" font-family="FreeSans" font-size="10.00">/home/Code/Mezzanine</text>
<text text-anchor="start" x="66.5" y="-333.5" font-family="FreeSans" font-size="10.00">/Mezzanine/src/Scripting</text>
<text text-anchor="middle" x="125" y="-320.5" font-family="FreeSans" font-size="10.00">/script.h</text>
</a>
</g>
<!-- Node1&#45;&gt;Node2 -->
<g id="edge2" class="edge"><title>Node1&#45;&gt;Node2</title>
<path fill="none" stroke="midnightblue" d="M125,-386.066C125,-377.193 125,-367.821 125,-359.615"/>
<polygon fill="midnightblue" stroke="midnightblue" points="121.5,-386.154 125,-396.154 128.5,-386.154 121.5,-386.154"/>
</g>
<!-- Node3 -->
<g id="node5" class="node"><title>Node3</title>
<a xlink:href="scripting_8h_source.html" target="_top" xlink:title="/home/Code/Mezzanine\l/Mezzanine/src/scripting.h">
<polygon fill="white" stroke="black" points="6,-151 6,-185 146,-185 146,-151 6,-151"/>
<text text-anchor="start" x="14" y="-172" font-family="FreeSans" font-size="10.00">/home/Code/Mezzanine</text>
<text text-anchor="middle" x="76" y="-159" font-family="FreeSans" font-size="10.00">/Mezzanine/src/scripting.h</text>
</a>
</g>
<!-- Node1&#45;&gt;Node3 -->
<g id="edge20" class="edge"><title>Node1&#45;&gt;Node3</title>
<path fill="none" stroke="midnightblue" d="M75.7573,-389.896C65.6843,-381.461 56.2609,-371.423 50,-360 21.7364,-308.435 25.6536,-284.765 41,-228 45.2488,-212.284 54.7497,-196.458 62.7817,-185.008"/>
<polygon fill="midnightblue" stroke="midnightblue" points="73.9008,-392.888 83.9268,-396.313 78.2247,-387.384 73.9008,-392.888"/>
</g>
<!-- Node6 -->
<g id="node11" class="node"><title>Node6</title>
<a xlink:href="scriptingmanager_8h.html" target="_top" xlink:title="This file has the interfaces for Scripting managers and the associated dependency chain...">
<polygon fill="white" stroke="black" points="208.5,-228.5 208.5,-275.5 341.5,-275.5 341.5,-228.5 208.5,-228.5"/>
<text text-anchor="start" x="216.5" y="-262.5" font-family="FreeSans" font-size="10.00">/home/Code/Mezzanine</text>
<text text-anchor="start" x="216.5" y="-249.5" font-family="FreeSans" font-size="10.00">/Mezzanine/src/Scripting</text>
<text text-anchor="middle" x="275" y="-236.5" font-family="FreeSans" font-size="10.00">/scriptingmanager.h</text>
</a>
</g>
<!-- Node1&#45;&gt;Node6 -->
<g id="edge22" class="edge"><title>Node1&#45;&gt;Node6</title>
<path fill="none" stroke="midnightblue" d="M166.988,-389.908C178.286,-380.902 190.106,-370.588 200,-360 224.625,-333.647 247.423,-298.684 261.268,-275.778"/>
<polygon fill="midnightblue" stroke="midnightblue" points="164.625,-387.312 158.889,-396.219 168.928,-392.833 164.625,-387.312"/>
</g>
<!-- Node2&#45;&gt;Node3 -->
<g id="edge4" class="edge"><title>Node2&#45;&gt;Node3</title>
<path fill="none" stroke="midnightblue" d="M74.5579,-306.1C64.64,-297.697 55.5857,-287.622 50,-276 35.547,-245.929 52.5018,-207.179 65.0152,-185.214"/>
<polygon fill="midnightblue" stroke="midnightblue" points="72.6274,-309.034 82.6473,-312.477 76.9614,-303.537 72.6274,-309.034"/>
</g>
<!-- Node2&#45;&gt;Node6 -->
<g id="edge10" class="edge"><title>Node2&#45;&gt;Node6</title>
<path fill="none" stroke="midnightblue" d="M176.066,-307.403C194.564,-297.044 215.232,-285.47 232.874,-275.59"/>
<polygon fill="midnightblue" stroke="midnightblue" points="174.197,-304.438 167.183,-312.378 177.618,-310.545 174.197,-304.438"/>
</g>
<!-- Node8 -->
<g id="node16" class="node"><title>Node8</title>
<a xlink:href="scriptworkunit_8h.html" target="_top" xlink:title="This file has the interfaces for ScriptsWorkUnit.">
<polygon fill="white" stroke="black" points="58.5,-228.5 58.5,-275.5 191.5,-275.5 191.5,-228.5 58.5,-228.5"/>
<text text-anchor="start" x="66.5" y="-262.5" font-family="FreeSans" font-size="10.00">/home/Code/Mezzanine</text>
<text text-anchor="start" x="66.5" y="-249.5" font-family="FreeSans" font-size="10.00">/Mezzanine/src/Scripting</text>
<text text-anchor="middle" x="125" y="-236.5" font-family="FreeSans" font-size="10.00">/scriptworkunit.h</text>
</a>
</g>
<!-- Node2&#45;&gt;Node8 -->
<g id="edge16" class="edge"><title>Node2&#45;&gt;Node8</title>
<path fill="none" stroke="midnightblue" d="M125,-302.066C125,-293.193 125,-283.821 125,-275.615"/>
<polygon fill="midnightblue" stroke="midnightblue" points="121.5,-302.154 125,-312.154 128.5,-302.154 121.5,-302.154"/>
</g>
<!-- Node4 -->
<g id="node7" class="node"><title>Node4</title>
<a xlink:href="mezzanine_8h.html" target="_top" xlink:title="A single file that includes all of the Mezzanine engine.">
<polygon fill="white" stroke="black" points="0,-73 0,-107 152,-107 152,-73 0,-73"/>
<text text-anchor="start" x="8" y="-94" font-family="FreeSans" font-size="10.00">/home/Code/Mezzanine</text>
<text text-anchor="middle" x="76" y="-81" font-family="FreeSans" font-size="10.00">/Mezzanine/src/mezzanine.h</text>
</a>
</g>
<!-- Node3&#45;&gt;Node4 -->
<g id="edge6" class="edge"><title>Node3&#45;&gt;Node4</title>
<path fill="none" stroke="midnightblue" d="M76,-140.61C76,-129.519 76,-117.049 76,-107.262"/>
<polygon fill="midnightblue" stroke="midnightblue" points="72.5001,-140.689 76,-150.689 79.5001,-140.689 72.5001,-140.689"/>
</g>
<!-- Node5 -->
<g id="node9" class="node"><title>Node5</title>
<a xlink:href="entresol_8cpp_source.html" target="_top" xlink:title="/home/Code/Mezzanine\l/Mezzanine/src/entresol.cpp">
<polygon fill="white" stroke="black" points="1,-1 1,-35 151,-35 151,-1 1,-1"/>
<text text-anchor="start" x="9" y="-22" font-family="FreeSans" font-size="10.00">/home/Code/Mezzanine</text>
<text text-anchor="middle" x="76" y="-9" font-family="FreeSans" font-size="10.00">/Mezzanine/src/entresol.cpp</text>
</a>
</g>
<!-- Node4&#45;&gt;Node5 -->
<g id="edge8" class="edge"><title>Node4&#45;&gt;Node5</title>
<path fill="none" stroke="midnightblue" d="M76,-62.7193C76,-53.572 76,-43.6255 76,-35.4407"/>
<polygon fill="midnightblue" stroke="midnightblue" points="72.5001,-62.937 76,-72.937 79.5001,-62.937 72.5001,-62.937"/>
</g>
<!-- Node6&#45;&gt;Node3 -->
<g id="edge12" class="edge"><title>Node6&#45;&gt;Node3</title>
<path fill="none" stroke="midnightblue" d="M209.927,-224.532C179.146,-211.539 143.352,-196.43 116.516,-185.102"/>
<polygon fill="midnightblue" stroke="midnightblue" points="208.729,-227.825 219.303,-228.49 211.451,-221.376 208.729,-227.825"/>
</g>
<!-- Node7 -->
<g id="node14" class="node"><title>Node7</title>
<a xlink:href="scriptingmanager_8cpp.html" target="_top" xlink:title="The implementation (WTF!!) of the Interface for Scripting Managers.">
<polygon fill="white" stroke="black" points="208.5,-144.5 208.5,-191.5 341.5,-191.5 341.5,-144.5 208.5,-144.5"/>
<text text-anchor="start" x="216.5" y="-178.5" font-family="FreeSans" font-size="10.00">/home/Code/Mezzanine</text>
<text text-anchor="start" x="216.5" y="-165.5" font-family="FreeSans" font-size="10.00">/Mezzanine/src/Scripting</text>
<text text-anchor="middle" x="275" y="-152.5" font-family="FreeSans" font-size="10.00">/scriptingmanager.cpp</text>
</a>
</g>
<!-- Node6&#45;&gt;Node7 -->
<g id="edge14" class="edge"><title>Node6&#45;&gt;Node7</title>
<path fill="none" stroke="midnightblue" d="M275,-218.066C275,-209.193 275,-199.821 275,-191.615"/>
<polygon fill="midnightblue" stroke="midnightblue" points="271.5,-218.154 275,-228.154 278.5,-218.154 271.5,-218.154"/>
</g>
<!-- Node8&#45;&gt;Node3 -->
<g id="edge18" class="edge"><title>Node8&#45;&gt;Node3</title>
<path fill="none" stroke="midnightblue" d="M106.035,-219.489C99.2231,-207.811 91.8086,-195.1 86.0508,-185.23"/>
<polygon fill="midnightblue" stroke="midnightblue" points="103.028,-221.279 111.09,-228.154 109.074,-217.752 103.028,-221.279"/>
</g>
</g>
</svg>
