<?xml version="1.0" encoding="UTF-8" standalone="no"?>
<!DOCTYPE svg PUBLIC "-//W3C//DTD SVG 1.1//EN"
 "http://www.w3.org/Graphics/SVG/1.1/DTD/svg11.dtd">
<!-- Generated by graphviz version 2.26.3 (20100126.1600)
 -->
<!-- Title: /home/sqeaky/Projects/MezzanineCurrent/Mezzanine/Mezzanine/src/serialization.h Pages: 1 -->
<svg width="782pt" height="286pt"
 viewBox="0.00 0.00 782.00 286.00" xmlns="http://www.w3.org/2000/svg" xmlns:xlink="http://www.w3.org/1999/xlink">
<g id="graph1" class="graph" transform="scale(1 1) rotate(0) translate(4 282)">
<title>/home/sqeaky/Projects/MezzanineCurrent/Mezzanine/Mezzanine/src/serialization.h</title>
<polygon fill="white" stroke="white" points="-4,5 -4,-282 779,-282 779,5 -4,5"/>
<!-- Node1 -->
<g id="node1" class="node"><title>Node1</title>
<polygon fill="#bfbfbf" stroke="black" points="296,-233 296,-277 442,-277 442,-233 296,-233"/>
<text text-anchor="start" x="304" y="-264" font-family="FreeSans" font-size="10.00">/home/sqeaky/Projects</text>
<text text-anchor="start" x="304" y="-252" font-family="FreeSans" font-size="10.00">/MezzanineCurrent/Mezzanine</text>
<text text-anchor="middle" x="369" y="-240" font-family="FreeSans" font-size="10.00">/Mezzanine/src/serialization.h</text>
</g>
<!-- Node2 -->
<g id="node3" class="node"><title>Node2</title>
<a xlink:href="datatypes_8h_source.html" target="_top" xlink:title="datatypes.h">
<polygon fill="white" stroke="black" points="324.5,-59 324.5,-79 389.5,-79 389.5,-59 324.5,-59"/>
<text text-anchor="middle" x="357" y="-66" font-family="FreeSans" font-size="10.00">datatypes.h</text>
</a>
</g>
<!-- Node1&#45;&gt;Node2 -->
<g id="edge2" class="edge"><title>Node1&#45;&gt;Node2</title>
<path fill="none" stroke="midnightblue" d="M295.756,-241.594C207.092,-222.174 75.8465,-181.228 129,-116 151.88,-87.9219 254.489,-76.1217 313.967,-71.5696"/>
<polygon fill="midnightblue" stroke="midnightblue" points="314.467,-75.0425 324.187,-70.8261 313.959,-68.061 314.467,-75.0425"/>
</g>
<!-- Node15 -->
<g id="node29" class="node"><title>Node15</title>
<a xlink:href="xml_8h.html" target="_top" xlink:title="This is where bulk of the XML subsystem is declare, there are numerous class that are all tighlty int...">
<polygon fill="white" stroke="black" points="338,-175 338,-195 400,-195 400,-175 338,-175"/>
<text text-anchor="middle" x="369" y="-182" font-family="FreeSans" font-size="10.00">XML/xml.h</text>
</a>
</g>
<!-- Node1&#45;&gt;Node15 -->
<g id="edge28" class="edge"><title>Node1&#45;&gt;Node15</title>
<path fill="none" stroke="midnightblue" d="M369,-232.852C369,-224.051 369,-213.991 369,-205.374"/>
<polygon fill="midnightblue" stroke="midnightblue" points="372.5,-205.104 369,-195.104 365.5,-205.104 372.5,-205.104"/>
</g>
<!-- Node17 -->
<g id="node35" class="node"><title>Node17</title>
<a xlink:href="xmldoc_8h.html" target="_top" xlink:title="The Doxygen documentation and minor tools to assist with the XML system.">
<polygon fill="white" stroke="black" points="138,-117 138,-137 216,-137 216,-117 138,-117"/>
<text text-anchor="middle" x="177" y="-124" font-family="FreeSans" font-size="10.00">XML/xmldoc.h</text>
</a>
</g>
<!-- Node1&#45;&gt;Node17 -->
<g id="edge56" class="edge"><title>Node1&#45;&gt;Node17</title>
<path fill="none" stroke="midnightblue" d="M335.994,-232.996C297.412,-207.275 234.527,-165.351 200.557,-142.705"/>
<polygon fill="midnightblue" stroke="midnightblue" points="202.443,-139.756 192.181,-137.121 198.56,-145.58 202.443,-139.756"/>
</g>
<!-- Node23 -->
<g id="node52" class="node"><title>Node23</title>
<polygon fill="white" stroke="#bfbfbf" points="417.5,-175 417.5,-195 468.5,-195 468.5,-175 417.5,-175"/>
<text text-anchor="middle" x="443" y="-182" font-family="FreeSans" font-size="10.00">ostream</text>
</g>
<!-- Node1&#45;&gt;Node23 -->
<g id="edge58" class="edge"><title>Node1&#45;&gt;Node23</title>
<path fill="none" stroke="midnightblue" d="M392.414,-232.852C402.868,-222.963 415.001,-211.485 424.764,-202.25"/>
<polygon fill="midnightblue" stroke="midnightblue" points="427.459,-204.519 432.319,-195.104 422.649,-199.433 427.459,-204.519"/>
</g>
<!-- Node24 -->
<g id="node54" class="node"><title>Node24</title>
<polygon fill="white" stroke="#bfbfbf" points="485.5,-175 485.5,-195 536.5,-195 536.5,-175 485.5,-175"/>
<text text-anchor="middle" x="511" y="-182" font-family="FreeSans" font-size="10.00">memory</text>
</g>
<!-- Node1&#45;&gt;Node24 -->
<g id="edge60" class="edge"><title>Node1&#45;&gt;Node24</title>
<path fill="none" stroke="midnightblue" d="M413.93,-232.852C435.995,-221.974 461.961,-209.174 481.483,-199.551"/>
<polygon fill="midnightblue" stroke="midnightblue" points="483.082,-202.665 490.504,-195.104 479.987,-196.386 483.082,-202.665"/>
</g>
<!-- Node3 -->
<g id="node5" class="node"><title>Node3</title>
<a xlink:href="crossplatformexport_8h.html" target="_top" xlink:title="This file is used on some platforms to determine what data should be read and written to and from a s...">
<polygon fill="white" stroke="black" points="608,-1 608,-21 716,-21 716,-1 608,-1"/>
<text text-anchor="middle" x="662" y="-8" font-family="FreeSans" font-size="10.00">crossplatformexport.h</text>
</a>
</g>
<!-- Node2&#45;&gt;Node3 -->
<g id="edge4" class="edge"><title>Node2&#45;&gt;Node3</title>
<path fill="none" stroke="midnightblue" d="M389.64,-62.793C439.528,-53.3061 535.647,-35.0278 599.315,-22.9204"/>
<polygon fill="midnightblue" stroke="midnightblue" points="600.073,-26.3391 609.243,-21.0325 598.765,-19.4623 600.073,-26.3391"/>
</g>
<!-- Node4 -->
<g id="node7" class="node"><title>Node4</title>
<polygon fill="white" stroke="#bfbfbf" points="393.5,-1 393.5,-21 440.5,-21 440.5,-1 393.5,-1"/>
<text text-anchor="middle" x="417" y="-8" font-family="FreeSans" font-size="10.00">stdint.h</text>
</g>
<!-- Node2&#45;&gt;Node4 -->
<g id="edge6" class="edge"><title>Node2&#45;&gt;Node4</title>
<path fill="none" stroke="midnightblue" d="M367.451,-58.8972C376.12,-50.5175 388.646,-38.4093 398.934,-28.4638"/>
<polygon fill="midnightblue" stroke="midnightblue" points="401.507,-30.8443 406.265,-21.3776 396.642,-25.8114 401.507,-30.8443"/>
</g>
<!-- Node5 -->
<g id="node9" class="node"><title>Node5</title>
<polygon fill="white" stroke="#bfbfbf" points="458,-1 458,-21 514,-21 514,-1 458,-1"/>
<text text-anchor="middle" x="486" y="-8" font-family="FreeSans" font-size="10.00">algorithm</text>
</g>
<!-- Node2&#45;&gt;Node5 -->
<g id="edge8" class="edge"><title>Node2&#45;&gt;Node5</title>
<path fill="none" stroke="midnightblue" d="M379.47,-58.8972C400.061,-49.6391 430.775,-35.83 453.94,-25.4145"/>
<polygon fill="midnightblue" stroke="midnightblue" points="455.669,-28.4746 463.355,-21.1817 452.799,-22.0902 455.669,-28.4746"/>
</g>
<!-- Node6 -->
<g id="node11" class="node"><title>Node6</title>
<polygon fill="white" stroke="#bfbfbf" points="532,-1 532,-21 590,-21 590,-1 532,-1"/>
<text text-anchor="middle" x="561" y="-8" font-family="FreeSans" font-size="10.00">exception</text>
</g>
<!-- Node2&#45;&gt;Node6 -->
<g id="edge10" class="edge"><title>Node2&#45;&gt;Node6</title>
<path fill="none" stroke="midnightblue" d="M389.773,-59.782C421.306,-50.8994 470.581,-36.9836 522.281,-22.1959"/>
<polygon fill="midnightblue" stroke="midnightblue" points="523.308,-25.5425 531.959,-19.4256 521.382,-18.8128 523.308,-25.5425"/>
</g>
<!-- Node7 -->
<g id="node13" class="node"><title>Node7</title>
<polygon fill="white" stroke="#bfbfbf" points="0,-1 0,-21 48,-21 48,-1 0,-1"/>
<text text-anchor="middle" x="24" y="-8" font-family="FreeSans" font-size="10.00">istream</text>
</g>
<!-- Node2&#45;&gt;Node7 -->
<g id="edge12" class="edge"><title>Node2&#45;&gt;Node7</title>
<path fill="none" stroke="midnightblue" d="M324.243,-65.6748C270.448,-59.8259 159.978,-46.1855 57.8689,-21.9022"/>
<polygon fill="midnightblue" stroke="midnightblue" points="58.5583,-18.4681 48.0157,-19.5189 56.9125,-25.2719 58.5583,-18.4681"/>
</g>
<!-- Node8 -->
<g id="node15" class="node"><title>Node8</title>
<polygon fill="white" stroke="#bfbfbf" points="65.5,-1 65.5,-21 94.5,-21 94.5,-1 65.5,-1"/>
<text text-anchor="middle" x="80" y="-8" font-family="FreeSans" font-size="10.00">list</text>
</g>
<!-- Node2&#45;&gt;Node8 -->
<g id="edge14" class="edge"><title>Node2&#45;&gt;Node8</title>
<path fill="none" stroke="midnightblue" d="M324.246,-65.7278C277.021,-60.4141 187.177,-48.074 104.397,-21.8916"/>
<polygon fill="midnightblue" stroke="midnightblue" points="105.452,-18.5544 94.8604,-18.8023 103.295,-25.2138 105.452,-18.5544"/>
</g>
<!-- Node9 -->
<g id="node17" class="node"><title>Node9</title>
<polygon fill="white" stroke="#bfbfbf" points="111.5,-1 111.5,-21 146.5,-21 146.5,-1 111.5,-1"/>
<text text-anchor="middle" x="129" y="-8" font-family="FreeSans" font-size="10.00">map</text>
</g>
<!-- Node2&#45;&gt;Node9 -->
<g id="edge16" class="edge"><title>Node2&#45;&gt;Node9</title>
<path fill="none" stroke="midnightblue" d="M324.345,-63.1941C285.981,-55.9856 220.361,-42.4484 156.557,-22.1618"/>
<polygon fill="midnightblue" stroke="midnightblue" points="157.341,-18.7368 146.749,-18.9842 155.184,-25.396 157.341,-18.7368"/>
</g>
<!-- Node10 -->
<g id="node19" class="node"><title>Node10</title>
<polygon fill="white" stroke="#bfbfbf" points="734,-1 734,-21 774,-21 774,-1 734,-1"/>
<text text-anchor="middle" x="754" y="-8" font-family="FreeSans" font-size="10.00">string</text>
</g>
<!-- Node2&#45;&gt;Node10 -->
<g id="edge18" class="edge"><title>Node2&#45;&gt;Node10</title>
<path fill="none" stroke="midnightblue" d="M389.968,-67.3935C453.296,-63.7538 596.27,-52.8547 723.965,-21.7828"/>
<polygon fill="midnightblue" stroke="midnightblue" points="725.051,-25.1197 733.913,-19.3131 723.364,-18.3259 725.051,-25.1197"/>
</g>
<!-- Node11 -->
<g id="node21" class="node"><title>Node11</title>
<polygon fill="white" stroke="#bfbfbf" points="164,-1 164,-21 214,-21 214,-1 164,-1"/>
<text text-anchor="middle" x="189" y="-8" font-family="FreeSans" font-size="10.00">sstream</text>
</g>
<!-- Node2&#45;&gt;Node11 -->
<g id="edge20" class="edge"><title>Node2&#45;&gt;Node11</title>
<path fill="none" stroke="midnightblue" d="M327.737,-58.8972C298.725,-48.8813 254.284,-33.5386 223.553,-22.9292"/>
<polygon fill="midnightblue" stroke="midnightblue" points="224.689,-19.6186 214.095,-19.6636 222.405,-26.2354 224.689,-19.6186"/>
</g>
<!-- Node12 -->
<g id="node23" class="node"><title>Node12</title>
<polygon fill="white" stroke="#bfbfbf" points="231.5,-1 231.5,-21 260.5,-21 260.5,-1 231.5,-1"/>
<text text-anchor="middle" x="246" y="-8" font-family="FreeSans" font-size="10.00">set</text>
</g>
<!-- Node2&#45;&gt;Node12 -->
<g id="edge22" class="edge"><title>Node2&#45;&gt;Node12</title>
<path fill="none" stroke="midnightblue" d="M337.665,-58.8972C318.683,-48.9786 289.704,-33.8364 269.425,-23.2399"/>
<polygon fill="midnightblue" stroke="midnightblue" points="271.002,-20.1153 260.518,-18.5862 267.761,-26.3194 271.002,-20.1153"/>
</g>
<!-- Node13 -->
<g id="node25" class="node"><title>Node13</title>
<polygon fill="white" stroke="#bfbfbf" points="277.5,-1 277.5,-21 320.5,-21 320.5,-1 277.5,-1"/>
<text text-anchor="middle" x="299" y="-8" font-family="FreeSans" font-size="10.00">vector</text>
</g>
<!-- Node2&#45;&gt;Node13 -->
<g id="edge24" class="edge"><title>Node2&#45;&gt;Node13</title>
<path fill="none" stroke="midnightblue" d="M346.897,-58.8972C338.517,-50.5175 326.409,-38.4093 316.464,-28.4638"/>
<polygon fill="midnightblue" stroke="midnightblue" points="318.924,-25.9738 309.378,-21.3776 313.974,-30.9236 318.924,-25.9738"/>
</g>
<!-- Node14 -->
<g id="node27" class="node"><title>Node14</title>
<polygon fill="white" stroke="#bfbfbf" points="337.5,-1 337.5,-21 376.5,-21 376.5,-1 337.5,-1"/>
<text text-anchor="middle" x="357" y="-8" font-family="FreeSans" font-size="10.00">utility</text>
</g>
<!-- Node2&#45;&gt;Node14 -->
<g id="edge26" class="edge"><title>Node2&#45;&gt;Node14</title>
<path fill="none" stroke="midnightblue" d="M357,-58.8972C357,-51.339 357,-40.7476 357,-31.4458"/>
<polygon fill="midnightblue" stroke="midnightblue" points="360.5,-31.3776 357,-21.3776 353.5,-31.3776 360.5,-31.3776"/>
</g>
<!-- Node15&#45;&gt;Node10 -->
<g id="edge54" class="edge"><title>Node15&#45;&gt;Node10</title>
<path fill="none" stroke="midnightblue" d="M400.332,-175.879C403.249,-175.183 406.17,-174.542 409,-174 480.585,-160.294 682.48,-188.535 735,-138 763.79,-110.298 761.583,-59.1436 757.668,-30.9478"/>
<polygon fill="midnightblue" stroke="midnightblue" points="761.12,-30.3651 756.087,-21.0416 754.207,-31.4682 761.12,-30.3651"/>
</g>
<!-- Node16 -->
<g id="node31" class="node"><title>Node16</title>
<a xlink:href="crossplatform_8h_source.html" target="_top" xlink:title="crossplatform.h">
<polygon fill="white" stroke="black" points="576,-117 576,-137 658,-137 658,-117 576,-117"/>
<text text-anchor="middle" x="617" y="-124" font-family="FreeSans" font-size="10.00">crossplatform.h</text>
</a>
</g>
<!-- Node15&#45;&gt;Node16 -->
<g id="edge30" class="edge"><title>Node15&#45;&gt;Node16</title>
<path fill="none" stroke="midnightblue" d="M400.407,-176.216C403.307,-175.449 406.205,-174.7 409,-174 438.208,-166.688 514.27,-149.694 565.855,-138.273"/>
<polygon fill="midnightblue" stroke="midnightblue" points="566.816,-141.645 575.824,-136.068 565.304,-134.81 566.816,-141.645"/>
</g>
<!-- Node15&#45;&gt;Node17 -->
<g id="edge36" class="edge"><title>Node15&#45;&gt;Node17</title>
<path fill="none" stroke="midnightblue" d="M337.725,-175.552C305.672,-165.87 255.601,-150.744 219.867,-139.949"/>
<polygon fill="midnightblue" stroke="midnightblue" points="220.78,-136.569 210.196,-137.028 218.756,-143.27 220.78,-136.569"/>
</g>
<!-- Node18 -->
<g id="node38" class="node"><title>Node18</title>
<a xlink:href="exception_8h_source.html" target="_top" xlink:title="exception.h">
<polygon fill="white" stroke="black" points="493.5,-117 493.5,-137 558.5,-137 558.5,-117 493.5,-117"/>
<text text-anchor="middle" x="526" y="-124" font-family="FreeSans" font-size="10.00">exception.h</text>
</a>
</g>
<!-- Node15&#45;&gt;Node18 -->
<g id="edge40" class="edge"><title>Node15&#45;&gt;Node18</title>
<path fill="none" stroke="midnightblue" d="M396.347,-174.897C422.046,-165.403 460.699,-151.124 489.116,-140.626"/>
<polygon fill="midnightblue" stroke="midnightblue" points="490.536,-143.833 498.703,-137.084 488.11,-137.266 490.536,-143.833"/>
</g>
<!-- Node19 -->
<g id="node41" class="node"><title>Node19</title>
<a xlink:href="datastream_8h_source.html" target="_top" xlink:title="Resource/datastream.h">
<polygon fill="white" stroke="black" points="360,-117 360,-137 476,-137 476,-117 360,-117"/>
<text text-anchor="middle" x="418" y="-124" font-family="FreeSans" font-size="10.00">Resource/datastream.h</text>
</a>
</g>
<!-- Node15&#45;&gt;Node19 -->
<g id="edge44" class="edge"><title>Node15&#45;&gt;Node19</title>
<path fill="none" stroke="midnightblue" d="M377.535,-174.897C384.476,-166.682 394.444,-154.883 402.75,-145.051"/>
<polygon fill="midnightblue" stroke="midnightblue" points="405.453,-147.275 409.233,-137.378 400.106,-142.758 405.453,-147.275"/>
</g>
<!-- Node20 -->
<g id="node44" class="node"><title>Node20</title>
<polygon fill="white" stroke="#bfbfbf" points="676,-117 676,-137 726,-137 726,-117 676,-117"/>
<text text-anchor="middle" x="701" y="-124" font-family="FreeSans" font-size="10.00">stddef.h</text>
</g>
<!-- Node15&#45;&gt;Node20 -->
<g id="edge48" class="edge"><title>Node15&#45;&gt;Node20</title>
<path fill="none" stroke="midnightblue" d="M400.35,-175.965C403.262,-175.251 406.179,-174.582 409,-174 519.288,-151.241 552.362,-163.217 666.099,-137.891"/>
<polygon fill="midnightblue" stroke="midnightblue" points="666.911,-141.295 675.886,-135.665 665.358,-134.47 666.911,-141.295"/>
</g>
<!-- Node21 -->
<g id="node46" class="node"><title>Node21</title>
<polygon fill="white" stroke="#bfbfbf" points="233.5,-117 233.5,-137 280.5,-137 280.5,-117 233.5,-117"/>
<text text-anchor="middle" x="257" y="-124" font-family="FreeSans" font-size="10.00">iterator</text>
</g>
<!-- Node15&#45;&gt;Node21 -->
<g id="edge50" class="edge"><title>Node15&#45;&gt;Node21</title>
<path fill="none" stroke="midnightblue" d="M349.491,-174.897C331.853,-165.763 305.66,-152.199 285.647,-141.835"/>
<polygon fill="midnightblue" stroke="midnightblue" points="287.151,-138.672 276.661,-137.182 283.932,-144.888 287.151,-138.672"/>
</g>
<!-- Node22 -->
<g id="node48" class="node"><title>Node22</title>
<polygon fill="white" stroke="#bfbfbf" points="298,-117 298,-137 342,-137 342,-117 298,-117"/>
<text text-anchor="middle" x="320" y="-124" font-family="FreeSans" font-size="10.00">iosfwd</text>
</g>
<!-- Node15&#45;&gt;Node22 -->
<g id="edge52" class="edge"><title>Node15&#45;&gt;Node22</title>
<path fill="none" stroke="midnightblue" d="M360.465,-174.897C353.524,-166.682 343.556,-154.883 335.25,-145.051"/>
<polygon fill="midnightblue" stroke="midnightblue" points="337.894,-142.758 328.767,-137.378 332.547,-147.275 337.894,-142.758"/>
</g>
<!-- Node16&#45;&gt;Node2 -->
<g id="edge34" class="edge"><title>Node16&#45;&gt;Node2</title>
<path fill="none" stroke="midnightblue" d="M575.802,-117.81C527.677,-107.074 448.451,-89.4006 399.693,-78.5237"/>
<polygon fill="midnightblue" stroke="midnightblue" points="400.295,-75.0721 389.773,-76.3108 398.771,-81.9042 400.295,-75.0721"/>
</g>
<!-- Node16&#45;&gt;Node3 -->
<g id="edge32" class="edge"><title>Node16&#45;&gt;Node3</title>
<path fill="none" stroke="midnightblue" d="M620.993,-116.706C628.484,-97.3959 644.756,-55.4506 654.398,-30.5955"/>
<polygon fill="midnightblue" stroke="midnightblue" points="657.726,-31.6945 658.08,-21.1055 651.2,-29.1627 657.726,-31.6945"/>
</g>
<!-- Node17&#45;&gt;Node2 -->
<g id="edge38" class="edge"><title>Node17&#45;&gt;Node2</title>
<path fill="none" stroke="midnightblue" d="M208.354,-116.897C238.203,-107.279 283.296,-92.749 315.987,-82.2152"/>
<polygon fill="midnightblue" stroke="midnightblue" points="317.26,-85.4825 325.704,-79.0842 315.113,-78.8199 317.26,-85.4825"/>
</g>
<!-- Node18&#45;&gt;Node2 -->
<g id="edge42" class="edge"><title>Node18&#45;&gt;Node2</title>
<path fill="none" stroke="midnightblue" d="M496.562,-116.897C468.658,-107.321 426.564,-92.8742 395.904,-82.3516"/>
<polygon fill="midnightblue" stroke="midnightblue" points="396.978,-79.0199 386.383,-79.0842 394.706,-85.6408 396.978,-79.0199"/>
</g>
<!-- Node19&#45;&gt;Node2 -->
<g id="edge46" class="edge"><title>Node19&#45;&gt;Node2</title>
<path fill="none" stroke="midnightblue" d="M407.375,-116.897C398.561,-108.517 385.827,-96.4093 375.367,-86.4638"/>
<polygon fill="midnightblue" stroke="midnightblue" points="377.573,-83.7318 367.914,-79.3776 372.75,-88.8047 377.573,-83.7318"/>
</g>
</g>
</svg>
