<?xml version="1.0" encoding="UTF-8" standalone="no"?>
<!DOCTYPE svg PUBLIC "-//W3C//DTD SVG 1.1//EN"
 "http://www.w3.org/Graphics/SVG/1.1/DTD/svg11.dtd">
<!-- Generated by graphviz version 2.26.3 (20100126.1600)
 -->
<!-- Title: /home/sqeaky/Code/Mezzanine/Mezzanine/src/smartptr.h Pages: 1 -->
<!--zoomable 778 -->
<svg id="main" version="1.1" xmlns="http://www.w3.org/2000/svg" xmlns:xlink="http://www.w3.org/1999/xlink" xml:space="preserve" onload="init(evt)">
        <defs>
                <circle id="rim" cx="0" cy="0" r="7"/>
                <circle id="rim2" cx="0" cy="0" r="3.5"/>
                <g id="zoomPlus">
                        <use xlink:href="#rim" fill="#404040">
                                <set attributeName="fill" to="#808080" begin="zoomplus.mouseover" end="zoomplus.mouseout"/>
                        </use>
                        <path d="M-4,0h8M0,-4v8" fill="none" stroke="white" stroke-width="1.5" pointer-events="none"/>
                </g>
                <g id="zoomMin">
                        <use xlink:href="#rim" fill="#404040">
                                <set attributeName="fill" to="#808080" begin="zoomminus.mouseover" end="zoomminus.mouseout"/>
                        </use>
                        <path d="M-4,0h8" fill="none" stroke="white" stroke-width="1.5" pointer-events="none"/>
                </g>
                <g id="dirArrow">
                        <path fill="none" stroke="white" stroke-width="1.5" d="M0,-3.0v7 M-2.5,-0.5L0,-3.0L2.5,-0.5"/>
                </g>
               <g id="resetDef">
                       <use xlink:href="#rim2" fill="#404040">
                               <set attributeName="fill" to="#808080" begin="reset.mouseover" end="reset.mouseout"/>
                       </use>
               </g>
        </defs>

<script type="text/javascript">
var viewWidth = 792;
var viewHeight = 778;
var sectionId = 'dynsection-1';
</script>
<script xlink:href="svgpan.js"/>
<svg id="graph" class="graph">
<g id="viewport">
<title>/home/sqeaky/Code/Mezzanine/Mezzanine/src/smartptr.h</title>
<!-- Node1 -->
<g id="node1" class="node"><title>Node1</title>
<polygon fill="#bfbfbf" stroke="black" points="389.5,-737 389.5,-769 540.5,-769 540.5,-737 389.5,-737"/>
<text text-anchor="start" x="397.5" y="-756" font-family="FreeSans" font-size="10.00">/home/sqeaky/Code/Mezzanine</text>
<text text-anchor="middle" x="465" y="-744" font-family="FreeSans" font-size="10.00">/Mezzanine/src/smartptr.h</text>
</g>
<!-- Node2 -->
<g id="node3" class="node"><title>Node2</title>
<a xlink:href="objectsettings_8h_source.xhtml" target="_top" xlink:title="/home/sqeaky/Code/Mezzanine\l/Mezzanine/src/objectsettings.h">
<polygon fill="none" stroke="black" points="176.5,-497 176.5,-529 327.5,-529 327.5,-497 176.5,-497"/>
<text text-anchor="start" x="184.5" y="-516" font-family="FreeSans" font-size="10.00">/home/sqeaky/Code/Mezzanine</text>
<text text-anchor="middle" x="252" y="-504" font-family="FreeSans" font-size="10.00">/Mezzanine/src/objectsettings.h</text>
</a>
</g>
<!-- Node1&#45;&gt;Node2 -->
<g id="edge2" class="edge"><title>Node1&#45;&gt;Node2</title>
<path fill="none" stroke="midnightblue" d="M401,-733.136C382.31,-725.063 362.92,-714.207 348,-700 295.407,-649.921 266.571,-564.702 256.336,-529.235"/>
<polygon fill="midnightblue" stroke="midnightblue" points="399.809,-736.43 410.389,-736.992 402.468,-729.955 399.809,-736.43"/>
</g>
<!-- Node4 -->
<g id="node7" class="node"><title>Node4</title>
<a xlink:href="mezzanine_8h.xhtml" target="_top" xlink:title="A single file that includes all of the Mezzanine engine.">
<polygon fill="none" stroke="black" points="305.5,-351 305.5,-383 456.5,-383 456.5,-351 305.5,-351"/>
<text text-anchor="start" x="313.5" y="-370" font-family="FreeSans" font-size="10.00">/home/sqeaky/Code/Mezzanine</text>
<text text-anchor="middle" x="381" y="-358" font-family="FreeSans" font-size="10.00">/Mezzanine/src/mezzanine.h</text>
</a>
</g>
<!-- Node1&#45;&gt;Node4 -->
<g id="edge72" class="edge"><title>Node1&#45;&gt;Node4</title>
<path fill="none" stroke="midnightblue" d="M437.347,-729.785C406.838,-701.413 362,-650.307 362,-595 362,-595 362,-595 362,-513 362,-465.457 372.03,-409.927 377.515,-383.114"/>
<polygon fill="midnightblue" stroke="midnightblue" points="435.376,-732.722 445.141,-736.834 440.071,-727.53 435.376,-732.722"/>
</g>
<!-- Node16 -->
<g id="node39" class="node"><title>Node16</title>
<a xlink:href="stringtool_8h_source.xhtml" target="_top" xlink:title="/home/sqeaky/Code/Mezzanine\l/Mezzanine/src/stringtool.h">
<polygon fill="none" stroke="black" points="389.5,-497 389.5,-529 540.5,-529 540.5,-497 389.5,-497"/>
<text text-anchor="start" x="397.5" y="-516" font-family="FreeSans" font-size="10.00">/home/sqeaky/Code/Mezzanine</text>
<text text-anchor="middle" x="465" y="-504" font-family="FreeSans" font-size="10.00">/Mezzanine/src/stringtool.h</text>
</a>
</g>
<!-- Node1&#45;&gt;Node16 -->
<g id="edge46" class="edge"><title>Node1&#45;&gt;Node16</title>
<path fill="none" stroke="midnightblue" d="M465,-726.573C465,-676.598 465,-569.62 465,-529.05"/>
<polygon fill="midnightblue" stroke="midnightblue" points="461.5,-726.88 465,-736.88 468.5,-726.88 461.5,-726.88"/>
</g>
<!-- Node18 -->
<g id="node45" class="node"><title>Node18</title>
<a xlink:href="scriptargument_8h.xhtml" target="_top" xlink:title="This file has the interfaces for Script Arguments and the associated dependency chain.">
<polygon fill="none" stroke="black" points="511.5,-655 511.5,-699 662.5,-699 662.5,-655 511.5,-655"/>
<text text-anchor="start" x="519.5" y="-686" font-family="FreeSans" font-size="10.00">/home/sqeaky/Code/Mezzanine</text>
<text text-anchor="start" x="519.5" y="-674" font-family="FreeSans" font-size="10.00">/Mezzanine/src/Scripting</text>
<text text-anchor="middle" x="587" y="-662" font-family="FreeSans" font-size="10.00">/scriptargument.h</text>
</a>
</g>
<!-- Node1&#45;&gt;Node18 -->
<g id="edge54" class="edge"><title>Node1&#45;&gt;Node18</title>
<path fill="none" stroke="midnightblue" d="M499.532,-731.489C515.76,-721.379 535.09,-709.337 551.446,-699.148"/>
<polygon fill="midnightblue" stroke="midnightblue" points="497.51,-728.624 490.873,-736.882 501.212,-734.566 497.51,-728.624"/>
</g>
<!-- Node20 -->
<g id="node50" class="node"><title>Node20</title>
<a xlink:href="script_8h.xhtml" target="_top" xlink:title="This file has the interfaces for Scripts and tag derived classes.">
<polygon fill="none" stroke="black" points="633.5,-573 633.5,-617 784.5,-617 784.5,-573 633.5,-573"/>
<text text-anchor="start" x="641.5" y="-604" font-family="FreeSans" font-size="10.00">/home/sqeaky/Code/Mezzanine</text>
<text text-anchor="start" x="641.5" y="-592" font-family="FreeSans" font-size="10.00">/Mezzanine/src/Scripting</text>
<text text-anchor="middle" x="709" y="-580" font-family="FreeSans" font-size="10.00">/script.h</text>
</a>
</g>
<!-- Node1&#45;&gt;Node20 -->
<g id="edge70" class="edge"><title>Node1&#45;&gt;Node20</title>
<path fill="none" stroke="midnightblue" d="M550.575,-739.261C598.83,-729.953 652.975,-716.382 671,-700 694.671,-678.486 703.615,-641.086 706.982,-617.215"/>
<polygon fill="midnightblue" stroke="midnightblue" points="549.877,-735.831 540.699,-741.124 551.174,-742.71 549.877,-735.831"/>
</g>
<!-- Node3 -->
<g id="node5" class="node"><title>Node3</title>
<a xlink:href="audiomanager_8h_source.xhtml" target="_top" xlink:title="/home/sqeaky/Code/Mezzanine\l/Mezzanine/src/audiomanager.h">
<polygon fill="none" stroke="black" points="0,-421 0,-453 152,-453 152,-421 0,-421"/>
<text text-anchor="start" x="8" y="-440" font-family="FreeSans" font-size="10.00">/home/sqeaky/Code/Mezzanine</text>
<text text-anchor="middle" x="76" y="-428" font-family="FreeSans" font-size="10.00">/Mezzanine/src/audiomanager.h</text>
</a>
</g>
<!-- Node2&#45;&gt;Node3 -->
<g id="edge4" class="edge"><title>Node2&#45;&gt;Node3</title>
<path fill="none" stroke="midnightblue" d="M205.234,-492.805C176.462,-480.382 140.093,-464.676 113.271,-453.094"/>
<polygon fill="midnightblue" stroke="midnightblue" points="204.107,-496.131 214.675,-496.882 206.882,-489.705 204.107,-496.131"/>
</g>
<!-- Node15 -->
<g id="node36" class="node"><title>Node15</title>
<a xlink:href="graphicsmanager_8h_source.xhtml" target="_top" xlink:title="/home/sqeaky/Code/Mezzanine\l/Mezzanine/src/graphicsmanager.h">
<polygon fill="none" stroke="black" points="169.5,-421 169.5,-453 334.5,-453 334.5,-421 169.5,-421"/>
<text text-anchor="start" x="177.5" y="-440" font-family="FreeSans" font-size="10.00">/home/sqeaky/Code/Mezzanine</text>
<text text-anchor="middle" x="252" y="-428" font-family="FreeSans" font-size="10.00">/Mezzanine/src/graphicsmanager.h</text>
</a>
</g>
<!-- Node2&#45;&gt;Node15 -->
<g id="edge42" class="edge"><title>Node2&#45;&gt;Node15</title>
<path fill="none" stroke="midnightblue" d="M252,-486.759C252,-475.566 252,-462.864 252,-453.094"/>
<polygon fill="midnightblue" stroke="midnightblue" points="248.5,-486.882 252,-496.882 255.5,-486.882 248.5,-486.882"/>
</g>
<!-- Node3&#45;&gt;Node4 -->
<g id="edge6" class="edge"><title>Node3&#45;&gt;Node4</title>
<path fill="none" stroke="midnightblue" d="M155.744,-418.698C203.935,-407.638 264.785,-393.672 311.089,-383.045"/>
<polygon fill="midnightblue" stroke="midnightblue" points="154.937,-415.292 145.973,-420.941 156.503,-422.115 154.937,-415.292"/>
</g>
<!-- Node5 -->
<g id="node9" class="node"><title>Node5</title>
<a xlink:href="consolelogic_8h.xhtml" target="_top" xlink:title="The defintion of items important a commandline tool to work correctly without need to be available to...">
<polygon fill="none" stroke="black" points="164.5,-141 164.5,-173 315.5,-173 315.5,-141 164.5,-141"/>
<text text-anchor="start" x="172.5" y="-160" font-family="FreeSans" font-size="10.00">/home/sqeaky/Code/Mezzanine</text>
<text text-anchor="middle" x="240" y="-148" font-family="FreeSans" font-size="10.00">/UnitTests/src/consolelogic.h</text>
</a>
</g>
<!-- Node4&#45;&gt;Node5 -->
<g id="edge8" class="edge"><title>Node4&#45;&gt;Node5</title>
<path fill="none" stroke="midnightblue" d="M320.783,-347.143C275.693,-328.538 217.852,-295.722 194,-244 187.672,-230.278 188.713,-224.156 194,-210 199.285,-195.847 210.243,-182.97 220.138,-173.453"/>
<polygon fill="midnightblue" stroke="midnightblue" points="319.609,-350.443 330.194,-350.899 322.204,-343.941 319.609,-350.443"/>
</g>
<!-- Node11 -->
<g id="node21" class="node"><title>Node11</title>
<a xlink:href="testdata_8h.xhtml" target="_top" xlink:title="TestData, TestDataStorage and UnitTestGroup class definitions.">
<polygon fill="none" stroke="black" points="202.5,-211 202.5,-243 353.5,-243 353.5,-211 202.5,-211"/>
<text text-anchor="start" x="210.5" y="-230" font-family="FreeSans" font-size="10.00">/home/sqeaky/Code/Mezzanine</text>
<text text-anchor="middle" x="278" y="-218" font-family="FreeSans" font-size="10.00">/UnitTests/src/testdata.h</text>
</a>
</g>
<!-- Node4&#45;&gt;Node11 -->
<g id="edge20" class="edge"><title>Node4&#45;&gt;Node11</title>
<path fill="none" stroke="midnightblue" d="M328.846,-345.998C314.865,-337.969 301.117,-327.424 292,-314 277.56,-292.739 276.043,-261.915 276.707,-243.236"/>
<polygon fill="midnightblue" stroke="midnightblue" points="327.553,-349.276 338.02,-350.915 330.86,-343.106 327.553,-349.276"/>
</g>
<!-- Node12 -->
<g id="node25" class="node"><title>Node12</title>
<a xlink:href="testenumerations_8h.xhtml" target="_top" xlink:title="Enumerations and constant values associated with the Unit tests.">
<polygon fill="none" stroke="black" points="301,-281 301,-313 461,-313 461,-281 301,-281"/>
<text text-anchor="start" x="309" y="-300" font-family="FreeSans" font-size="10.00">/home/sqeaky/Code/Mezzanine</text>
<text text-anchor="middle" x="381" y="-288" font-family="FreeSans" font-size="10.00">/UnitTests/src/testenumerations.h</text>
</a>
</g>
<!-- Node4&#45;&gt;Node12 -->
<g id="edge26" class="edge"><title>Node4&#45;&gt;Node12</title>
<path fill="none" stroke="midnightblue" d="M381,-340.508C381,-331.303 381,-321.262 381,-313.147"/>
<polygon fill="midnightblue" stroke="midnightblue" points="377.5,-340.765 381,-350.765 384.5,-340.765 377.5,-340.765"/>
</g>
<!-- Node13 -->
<g id="node29" class="node"><title>Node13</title>
<a xlink:href="testtools_8h.xhtml" target="_top" xlink:title="Some random function to ease the lives of test developers.">
<polygon fill="none" stroke="black" points="408.5,-211 408.5,-243 559.5,-243 559.5,-211 408.5,-211"/>
<text text-anchor="start" x="416.5" y="-230" font-family="FreeSans" font-size="10.00">/home/sqeaky/Code/Mezzanine</text>
<text text-anchor="middle" x="484" y="-218" font-family="FreeSans" font-size="10.00">/UnitTests/src/testtools.h</text>
</a>
</g>
<!-- Node4&#45;&gt;Node13 -->
<g id="edge40" class="edge"><title>Node4&#45;&gt;Node13</title>
<path fill="none" stroke="midnightblue" d="M433.154,-345.998C447.135,-337.969 460.883,-327.424 470,-314 484.44,-292.739 485.957,-261.915 485.293,-243.236"/>
<polygon fill="midnightblue" stroke="midnightblue" points="431.14,-343.106 423.98,-350.915 434.447,-349.276 431.14,-343.106"/>
</g>
<!-- Node14 -->
<g id="node32" class="node"><title>Node14</title>
<a xlink:href="consolestringmanipulation_8h.xhtml" target="_top" xlink:title="Some string manipulation functions geared towards console output for use in the Unit Tests...">
<polygon fill="none" stroke="black" points="477.5,-141 477.5,-173 674.5,-173 674.5,-141 477.5,-141"/>
<text text-anchor="start" x="485.5" y="-160" font-family="FreeSans" font-size="10.00">/home/sqeaky/Code/Mezzanine</text>
<text text-anchor="middle" x="576" y="-148" font-family="FreeSans" font-size="10.00">/UnitTests/src/consolestringmanipulation.h</text>
</a>
</g>
<!-- Node4&#45;&gt;Node14 -->
<g id="edge36" class="edge"><title>Node4&#45;&gt;Node14</title>
<path fill="none" stroke="midnightblue" d="M439.426,-347.048C484.104,-328.25 542.269,-295.219 568,-244 579.371,-221.365 579.311,-191.239 577.895,-173.027"/>
<polygon fill="midnightblue" stroke="midnightblue" points="438.052,-343.829 430.114,-350.845 440.695,-350.311 438.052,-343.829"/>
</g>
<!-- Node6 -->
<g id="node11" class="node"><title>Node6</title>
<a xlink:href="main_8h_source.xhtml" target="_top" xlink:title="/home/sqeaky/Code/Mezzanine\l/UnitTests/src/main.h">
<polygon fill="none" stroke="black" points="305.5,-71 305.5,-103 456.5,-103 456.5,-71 305.5,-71"/>
<text text-anchor="start" x="313.5" y="-90" font-family="FreeSans" font-size="10.00">/home/sqeaky/Code/Mezzanine</text>
<text text-anchor="middle" x="381" y="-78" font-family="FreeSans" font-size="10.00">/UnitTests/src/main.h</text>
</a>
</g>
<!-- Node5&#45;&gt;Node6 -->
<g id="edge10" class="edge"><title>Node5&#45;&gt;Node6</title>
<path fill="none" stroke="midnightblue" d="M281.498,-136.398C302.816,-125.815 328.418,-113.104 348.314,-103.227"/>
<polygon fill="midnightblue" stroke="midnightblue" points="279.749,-133.359 272.348,-140.941 282.862,-139.629 279.749,-133.359"/>
</g>
<!-- Node7 -->
<g id="node13" class="node"><title>Node7</title>
<a xlink:href="boilerplatetests_8h_source.xhtml" target="_top" xlink:title="/home/sqeaky/Code/Mezzanine\l/UnitTests/tests/boilerplatetests.h">
<polygon fill="none" stroke="black" points="34,-1 34,-33 192,-33 192,-1 34,-1"/>
<text text-anchor="start" x="42" y="-20" font-family="FreeSans" font-size="10.00">/home/sqeaky/Code/Mezzanine</text>
<text text-anchor="middle" x="113" y="-8" font-family="FreeSans" font-size="10.00">/UnitTests/tests/boilerplatetests.h</text>
</a>
</g>
<!-- Node6&#45;&gt;Node7 -->
<g id="edge12" class="edge"><title>Node6&#45;&gt;Node7</title>
<path fill="none" stroke="midnightblue" d="M309.618,-68.3555C267.566,-57.3718 214.9,-43.6158 174.662,-33.1057"/>
<polygon fill="midnightblue" stroke="midnightblue" points="308.955,-71.7997 319.515,-70.9406 310.725,-65.027 308.955,-71.7997"/>
</g>
<!-- Node8 -->
<g id="node15" class="node"><title>Node8</title>
<a xlink:href="compilerflagtests_8h_source.xhtml" target="_top" xlink:title="/home/sqeaky/Code/Mezzanine\l/UnitTests/tests/compilerflagtests.h">
<polygon fill="none" stroke="black" points="210,-1 210,-33 376,-33 376,-1 210,-1"/>
<text text-anchor="start" x="218" y="-20" font-family="FreeSans" font-size="10.00">/home/sqeaky/Code/Mezzanine</text>
<text text-anchor="middle" x="293" y="-8" font-family="FreeSans" font-size="10.00">/UnitTests/tests/compilerflagtests.h</text>
</a>
</g>
<!-- Node6&#45;&gt;Node8 -->
<g id="edge14" class="edge"><title>Node6&#45;&gt;Node8</title>
<path fill="none" stroke="midnightblue" d="M352.529,-64.3523C339.739,-54.1788 324.942,-42.4081 313.299,-33.1473"/>
<polygon fill="midnightblue" stroke="midnightblue" points="350.585,-67.2785 360.59,-70.7646 354.943,-61.8003 350.585,-67.2785"/>
</g>
<!-- Node9 -->
<g id="node17" class="node"><title>Node9</title>
<a xlink:href="lua51tests_8h_source.xhtml" target="_top" xlink:title="/home/sqeaky/Code/Mezzanine\l/UnitTests/tests/lua51tests.h">
<polygon fill="none" stroke="black" points="393.5,-1 393.5,-33 544.5,-33 544.5,-1 393.5,-1"/>
<text text-anchor="start" x="401.5" y="-20" font-family="FreeSans" font-size="10.00">/home/sqeaky/Code/Mezzanine</text>
<text text-anchor="middle" x="469" y="-8" font-family="FreeSans" font-size="10.00">/UnitTests/tests/lua51tests.h</text>
</a>
</g>
<!-- Node6&#45;&gt;Node9 -->
<g id="edge16" class="edge"><title>Node6&#45;&gt;Node9</title>
<path fill="none" stroke="midnightblue" d="M409.471,-64.3523C422.261,-54.1788 437.058,-42.4081 448.701,-33.1473"/>
<polygon fill="midnightblue" stroke="midnightblue" points="407.057,-61.8003 401.41,-70.7646 411.415,-67.2785 407.057,-61.8003"/>
</g>
<!-- Node10 -->
<g id="node19" class="node"><title>Node10</title>
<a xlink:href="vector3tests_8h_source.xhtml" target="_top" xlink:title="/home/sqeaky/Code/Mezzanine\l/UnitTests/tests/vector3tests.h">
<polygon fill="none" stroke="black" points="561.5,-1 561.5,-33 712.5,-33 712.5,-1 561.5,-1"/>
<text text-anchor="start" x="569.5" y="-20" font-family="FreeSans" font-size="10.00">/home/sqeaky/Code/Mezzanine</text>
<text text-anchor="middle" x="637" y="-8" font-family="FreeSans" font-size="10.00">/UnitTests/tests/vector3tests.h</text>
</a>
</g>
<!-- Node6&#45;&gt;Node10 -->
<g id="edge18" class="edge"><title>Node6&#45;&gt;Node10</title>
<path fill="none" stroke="midnightblue" d="M449.44,-68.2859C489.567,-57.3138 539.743,-43.5936 578.099,-33.1057"/>
<polygon fill="midnightblue" stroke="midnightblue" points="448.454,-64.9269 439.732,-70.9406 450.301,-71.679 448.454,-64.9269"/>
</g>
<!-- Node11&#45;&gt;Node5 -->
<g id="edge22" class="edge"><title>Node11&#45;&gt;Node5</title>
<path fill="none" stroke="midnightblue" d="M264.268,-201.704C259.097,-192.179 253.362,-181.614 248.766,-173.147"/>
<polygon fill="midnightblue" stroke="midnightblue" points="261.34,-203.646 269.187,-210.765 267.492,-200.306 261.34,-203.646"/>
</g>
<!-- Node11&#45;&gt;Node6 -->
<g id="edge24" class="edge"><title>Node11&#45;&gt;Node6</title>
<path fill="none" stroke="midnightblue" d="M299.993,-203.051C307.842,-194.149 316.574,-183.822 324,-174 341.97,-150.234 360.454,-120.963 371.325,-103.155"/>
<polygon fill="midnightblue" stroke="midnightblue" points="297.148,-200.982 293.095,-210.771 302.368,-205.646 297.148,-200.982"/>
</g>
<!-- Node12&#45;&gt;Node6 -->
<g id="edge30" class="edge"><title>Node12&#45;&gt;Node6</title>
<path fill="none" stroke="midnightblue" d="M381,-270.661C381,-226.61 381,-139.272 381,-103.185"/>
<polygon fill="midnightblue" stroke="midnightblue" points="377.5,-270.87 381,-280.87 384.5,-270.87 377.5,-270.87"/>
</g>
<!-- Node12&#45;&gt;Node11 -->
<g id="edge28" class="edge"><title>Node12&#45;&gt;Node11</title>
<path fill="none" stroke="midnightblue" d="M348.785,-275.107C333.61,-264.793 315.824,-252.706 301.877,-243.227"/>
<polygon fill="midnightblue" stroke="midnightblue" points="347.132,-278.214 357.37,-280.941 351.066,-272.425 347.132,-278.214"/>
</g>
<!-- Node12&#45;&gt;Node13 -->
<g id="edge32" class="edge"><title>Node12&#45;&gt;Node13</title>
<path fill="none" stroke="midnightblue" d="M413.215,-275.107C428.39,-264.793 446.176,-252.706 460.123,-243.227"/>
<polygon fill="midnightblue" stroke="midnightblue" points="410.934,-272.425 404.63,-280.941 414.868,-278.214 410.934,-272.425"/>
</g>
<!-- Node13&#45;&gt;Node6 -->
<g id="edge34" class="edge"><title>Node13&#45;&gt;Node6</title>
<path fill="none" stroke="midnightblue" d="M466.137,-202.721C445.18,-174.235 411.013,-127.794 392.995,-103.304"/>
<polygon fill="midnightblue" stroke="midnightblue" points="463.439,-204.959 472.185,-210.94 469.078,-200.811 463.439,-204.959"/>
</g>
<!-- Node14&#45;&gt;Node6 -->
<g id="edge38" class="edge"><title>Node14&#45;&gt;Node6</title>
<path fill="none" stroke="midnightblue" d="M521.723,-137.516C491.53,-126.677 454.403,-113.35 425.866,-103.106"/>
<polygon fill="midnightblue" stroke="midnightblue" points="520.669,-140.856 531.263,-140.941 523.034,-134.268 520.669,-140.856"/>
</g>
<!-- Node15&#45;&gt;Node4 -->
<g id="edge44" class="edge"><title>Node15&#45;&gt;Node4</title>
<path fill="none" stroke="midnightblue" d="M290.492,-416.113C309.89,-405.587 333.057,-393.016 351.096,-383.227"/>
<polygon fill="midnightblue" stroke="midnightblue" points="288.715,-413.095 281.595,-420.941 292.054,-419.247 288.715,-413.095"/>
</g>
<!-- Node16&#45;&gt;Node4 -->
<g id="edge52" class="edge"><title>Node16&#45;&gt;Node4</title>
<path fill="none" stroke="midnightblue" d="M444.055,-488.982C435.638,-478.641 426.235,-466.152 419,-454 405.088,-430.633 393.323,-401.246 386.717,-383.306"/>
<polygon fill="midnightblue" stroke="midnightblue" points="441.447,-491.319 450.534,-496.766 446.827,-486.841 441.447,-491.319"/>
</g>
<!-- Node17 -->
<g id="node41" class="node"><title>Node17</title>
<a xlink:href="entresol_8h_source.xhtml" target="_top" xlink:title="/home/sqeaky/Code/Mezzanine\l/Mezzanine/src/entresol.h">
<polygon fill="none" stroke="black" points="427.5,-421 427.5,-453 578.5,-453 578.5,-421 427.5,-421"/>
<text text-anchor="start" x="435.5" y="-440" font-family="FreeSans" font-size="10.00">/home/sqeaky/Code/Mezzanine</text>
<text text-anchor="middle" x="503" y="-428" font-family="FreeSans" font-size="10.00">/Mezzanine/src/entresol.h</text>
</a>
</g>
<!-- Node16&#45;&gt;Node17 -->
<g id="edge48" class="edge"><title>Node16&#45;&gt;Node17</title>
<path fill="none" stroke="midnightblue" d="M477.604,-487.793C483.323,-476.355 489.917,-463.166 494.953,-453.094"/>
<polygon fill="midnightblue" stroke="midnightblue" points="474.401,-486.373 473.059,-496.882 480.662,-489.503 474.401,-486.373"/>
</g>
<!-- Node17&#45;&gt;Node4 -->
<g id="edge50" class="edge"><title>Node17&#45;&gt;Node4</title>
<path fill="none" stroke="midnightblue" d="M465.848,-415.683C447.658,-405.246 426.11,-392.883 409.282,-383.227"/>
<polygon fill="midnightblue" stroke="midnightblue" points="464.595,-419 475.011,-420.941 468.079,-412.928 464.595,-419"/>
</g>
<!-- Node19 -->
<g id="node47" class="node"><title>Node19</title>
<a xlink:href="scripting_8h_source.xhtml" target="_top" xlink:title="/home/sqeaky/Code/Mezzanine\l/Mezzanine/src/scripting.h">
<polygon fill="none" stroke="black" points="595.5,-421 595.5,-453 746.5,-453 746.5,-421 595.5,-421"/>
<text text-anchor="start" x="603.5" y="-440" font-family="FreeSans" font-size="10.00">/home/sqeaky/Code/Mezzanine</text>
<text text-anchor="middle" x="671" y="-428" font-family="FreeSans" font-size="10.00">/Mezzanine/src/scripting.h</text>
</a>
</g>
<!-- Node18&#45;&gt;Node19 -->
<g id="edge56" class="edge"><title>Node18&#45;&gt;Node19</title>
<path fill="none" stroke="midnightblue" d="M578.165,-645.059C569.219,-605.877 560.16,-538.671 587,-490 596.076,-473.541 612.652,-461.49 628.695,-453.076"/>
<polygon fill="midnightblue" stroke="midnightblue" points="574.782,-645.962 580.535,-654.859 581.586,-644.317 574.782,-645.962"/>
</g>
<!-- Node18&#45;&gt;Node20 -->
<g id="edge60" class="edge"><title>Node18&#45;&gt;Node20</title>
<path fill="none" stroke="midnightblue" d="M628.406,-649.17C643.912,-638.748 661.308,-627.055 675.959,-617.208"/>
<polygon fill="midnightblue" stroke="midnightblue" points="626.362,-646.326 620.015,-654.81 630.267,-652.136 626.362,-646.326"/>
</g>
<!-- Node21 -->
<g id="node53" class="node"><title>Node21</title>
<a xlink:href="scriptingmanager_8h.xhtml" target="_top" xlink:title="This file has the interfaces for Scripting managers and the associated dependency chain...">
<polygon fill="none" stroke="black" points="595.5,-491 595.5,-535 746.5,-535 746.5,-491 595.5,-491"/>
<text text-anchor="start" x="603.5" y="-522" font-family="FreeSans" font-size="10.00">/home/sqeaky/Code/Mezzanine</text>
<text text-anchor="start" x="603.5" y="-510" font-family="FreeSans" font-size="10.00">/Mezzanine/src/Scripting</text>
<text text-anchor="middle" x="671" y="-498" font-family="FreeSans" font-size="10.00">/scriptingmanager.h</text>
</a>
</g>
<!-- Node18&#45;&gt;Node21 -->
<g id="edge68" class="edge"><title>Node18&#45;&gt;Node21</title>
<path fill="none" stroke="midnightblue" d="M595.637,-645.22C602.139,-623.793 612.132,-595.292 625,-572 632.223,-558.926 642.239,-545.692 651.082,-535.08"/>
<polygon fill="midnightblue" stroke="midnightblue" points="592.277,-644.239 592.813,-654.82 598.993,-646.214 592.277,-644.239"/>
</g>
<!-- Node19&#45;&gt;Node4 -->
<g id="edge58" class="edge"><title>Node19&#45;&gt;Node4</title>
<path fill="none" stroke="midnightblue" d="M594.603,-418.559C548.874,-407.521 491.316,-393.628 447.473,-383.045"/>
<polygon fill="midnightblue" stroke="midnightblue" points="593.926,-421.996 604.468,-420.941 595.569,-415.192 593.926,-421.996"/>
</g>
<!-- Node20&#45;&gt;Node19 -->
<g id="edge62" class="edge"><title>Node20&#45;&gt;Node19</title>
<path fill="none" stroke="midnightblue" d="M738.561,-564.897C745.264,-556.244 751.448,-546.332 755,-536 761.646,-516.666 764.873,-507.903 755,-490 745.924,-473.541 729.348,-461.49 713.305,-453.076"/>
<polygon fill="midnightblue" stroke="midnightblue" points="735.718,-562.842 732.044,-572.78 741.114,-567.303 735.718,-562.842"/>
</g>
<!-- Node20&#45;&gt;Node21 -->
<g id="edge64" class="edge"><title>Node20&#45;&gt;Node21</title>
<path fill="none" stroke="midnightblue" d="M694.378,-563.447C689.992,-553.984 685.278,-543.81 681.24,-535.096"/>
<polygon fill="midnightblue" stroke="midnightblue" points="691.236,-564.992 698.616,-572.593 697.587,-562.048 691.236,-564.992"/>
</g>
<!-- Node21&#45;&gt;Node19 -->
<g id="edge66" class="edge"><title>Node21&#45;&gt;Node19</title>
<path fill="none" stroke="midnightblue" d="M671,-480.406C671,-471.095 671,-461.341 671,-453.444"/>
<polygon fill="midnightblue" stroke="midnightblue" points="667.5,-480.609 671,-490.609 674.5,-480.609 667.5,-480.609"/>
</g>
</g>
</svg>
        <g id="navigator" transform="translate(0 0)" fill="#404254">
                <rect fill="#f2f5e9" fill-opacity="0.5" stroke="#606060" stroke-width=".5" x="0" y="0" width="60" height="60"/>
                <use id="zoomplus" xlink:href="#zoomPlus" x="17" y="9" onmousedown="handleZoom(evt,'in')"/>
                <use id="zoomminus" xlink:href="#zoomMin" x="42" y="9" onmousedown="handleZoom(evt,'out')"/>
                <use id="reset" xlink:href="#resetDef" x="30" y="36" onmousedown="handleReset()"/>
                <g id="arrowUp" xlink:href="#dirArrow" transform="translate(30 24)" onmousedown="handlePan(0,-1)">
                  <use xlink:href="#rim" fill="#404040">
                        <set attributeName="fill" to="#808080" begin="arrowUp.mouseover" end="arrowUp.mouseout"/>
                  </use>
                  <path fill="none" stroke="white" stroke-width="1.5" d="M0,-3.0v7 M-2.5,-0.5L0,-3.0L2.5,-0.5"/>
                </g>
                <g id="arrowRight" xlink:href="#dirArrow" transform="rotate(90) translate(36 -43)" onmousedown="handlePan(1,0)">
                  <use xlink:href="#rim" fill="#404040">
                        <set attributeName="fill" to="#808080" begin="arrowRight.mouseover" end="arrowRight.mouseout"/>
                  </use>
                  <path fill="none" stroke="white" stroke-width="1.5" d="M0,-3.0v7 M-2.5,-0.5L0,-3.0L2.5,-0.5"/>
                </g>
                <g id="arrowDown" xlink:href="#dirArrow" transform="rotate(180) translate(-30 -48)" onmousedown="handlePan(0,1)">
                  <use xlink:href="#rim" fill="#404040">
                        <set attributeName="fill" to="#808080" begin="arrowDown.mouseover" end="arrowDown.mouseout"/>
                  </use>
                  <path fill="none" stroke="white" stroke-width="1.5" d="M0,-3.0v7 M-2.5,-0.5L0,-3.0L2.5,-0.5"/>
                </g>
                <g id="arrowLeft" xlink:href="#dirArrow" transform="rotate(270) translate(-36 17)" onmousedown="handlePan(-1,0)">
                  <use xlink:href="#rim" fill="#404040">
                        <set attributeName="fill" to="#808080" begin="arrowLeft.mouseover" end="arrowLeft.mouseout"/>
                  </use>
                  <path fill="none" stroke="white" stroke-width="1.5" d="M0,-3.0v7 M-2.5,-0.5L0,-3.0L2.5,-0.5"/>
                </g>
        </g>
        <svg viewBox="0 0 15 15" width="100%" height="30px" preserveAspectRatio="xMaxYMin meet">
         <g id="arrow_out" transform="scale(0.3 0.3)">
          <a xlink:href="smartptr_8h__dep__incl_org.svg" target="_base">
           <rect id="button" ry="5" rx="5" y="6" x="6" height="38" width="38"
                fill="#f2f5e9" fill-opacity="0.5" stroke="#606060" stroke-width="1.0"/>
           <path id="arrow"
             d="M 11.500037,31.436501 C 11.940474,20.09759 22.043105,11.32322 32.158766,21.979434 L 37.068811,17.246167 C 37.068811,17.246167 37.088388,32 37.088388,32 L 22.160133,31.978069 C 22.160133,31.978069 26.997745,27.140456 26.997745,27.140456 C 18.528582,18.264221 13.291696,25.230495 11.500037,31.436501 z"
             style="fill:#404040;"/>
          </a>
         </g>
        </svg>
</svg>
