<?xml version="1.0" encoding="UTF-8" standalone="no"?>
<!DOCTYPE svg PUBLIC "-//W3C//DTD SVG 1.1//EN"
 "http://www.w3.org/Graphics/SVG/1.1/DTD/svg11.dtd">
<!-- Generated by graphviz version 2.38.0 (20140413.2041)
 -->
<!-- Title: /home/sqeaky/Code/MezzanineFresh/Mezzanine/src/softdebris.h Pages: 1 -->
<svg width="578pt" height="173pt"
 viewBox="0.00 0.00 577.50 173.00" xmlns="http://www.w3.org/2000/svg" xmlns:xlink="http://www.w3.org/1999/xlink">
<g id="graph0" class="graph" transform="scale(1 1) rotate(0) translate(4 169)">
<title>/home/sqeaky/Code/MezzanineFresh/Mezzanine/src/softdebris.h</title>
<polygon fill="white" stroke="none" points="-4,4 -4,-169 573.5,-169 573.5,4 -4,4"/>
<!-- Node1 -->
<g id="node1" class="node"><title>Node1</title>
<polygon fill="#bfbfbf" stroke="black" points="214,-134.5 214,-164.5 376,-164.5 376,-134.5 214,-134.5"/>
<text text-anchor="start" x="222" y="-152.5" font-family="Helvetica,sans-Serif" font-size="10.00">/home/sqeaky/Code/Mezzanine</text>
<text text-anchor="middle" x="295" y="-141.5" font-family="Helvetica,sans-Serif" font-size="10.00">Fresh/Mezzanine/src/softdebris.h</text>
</g>
<!-- Node2 -->
<g id="node2" class="node"><title>Node2</title>
<g id="a_node2"><a xlink:href="debrismanager_8cpp.html" target="_top" xlink:title="This file contains the implementation for the manager that manages debris objects in a world...">
<polygon fill="white" stroke="black" points="-1.42109e-14,-67.5 -1.42109e-14,-97.5 194,-97.5 194,-67.5 -1.42109e-14,-67.5"/>
<text text-anchor="start" x="8" y="-85.5" font-family="Helvetica,sans-Serif" font-size="10.00">/home/sqeaky/Code/Mezzanine</text>
<text text-anchor="middle" x="97" y="-74.5" font-family="Helvetica,sans-Serif" font-size="10.00">Fresh/Mezzanine/src/debrismanager.cpp</text>
</a>
</g>
</g>
<!-- Node1&#45;&gt;Node2 -->
<g id="edge1" class="edge"><title>Node1&#45;&gt;Node2</title>
<path fill="none" stroke="midnightblue" d="M242.386,-131.228C210.357,-120.713 169.958,-107.451 139.879,-97.5765"/>
<polygon fill="midnightblue" stroke="midnightblue" points="241.444,-134.602 252.037,-134.396 243.628,-127.951 241.444,-134.602"/>
</g>
<!-- Node3 -->
<g id="node3" class="node"><title>Node3</title>
<g id="a_node3"><a xlink:href="mezzanine_8h.html" target="_top" xlink:title="A single file that includes all of the Mezzanine engine. ">
<polygon fill="white" stroke="black" points="211.5,-67.5 211.5,-97.5 378.5,-97.5 378.5,-67.5 211.5,-67.5"/>
<text text-anchor="start" x="219.5" y="-85.5" font-family="Helvetica,sans-Serif" font-size="10.00">/home/sqeaky/Code/Mezzanine</text>
<text text-anchor="middle" x="295" y="-74.5" font-family="Helvetica,sans-Serif" font-size="10.00">Fresh/Mezzanine/src/mezzanine.h</text>
</a>
</g>
</g>
<!-- Node1&#45;&gt;Node3 -->
<g id="edge2" class="edge"><title>Node1&#45;&gt;Node3</title>
<path fill="none" stroke="midnightblue" d="M295,-124.108C295,-115.154 295,-105.323 295,-97.5765"/>
<polygon fill="midnightblue" stroke="midnightblue" points="291.5,-124.396 295,-134.396 298.5,-124.396 291.5,-124.396"/>
</g>
<!-- Node5 -->
<g id="node5" class="node"><title>Node5</title>
<g id="a_node5"><a xlink:href="softdebris_8cpp.html" target="_top" xlink:title="This file contains the implementation for the debris class that will compress and deform...">
<polygon fill="white" stroke="black" points="396.5,-67.5 396.5,-97.5 569.5,-97.5 569.5,-67.5 396.5,-67.5"/>
<text text-anchor="start" x="404.5" y="-85.5" font-family="Helvetica,sans-Serif" font-size="10.00">/home/sqeaky/Code/Mezzanine</text>
<text text-anchor="middle" x="483" y="-74.5" font-family="Helvetica,sans-Serif" font-size="10.00">Fresh/Mezzanine/src/softdebris.cpp</text>
</a>
</g>
</g>
<!-- Node1&#45;&gt;Node5 -->
<g id="edge4" class="edge"><title>Node1&#45;&gt;Node5</title>
<path fill="none" stroke="midnightblue" d="M345.35,-131.092C375.699,-120.599 413.85,-107.408 442.286,-97.5765"/>
<polygon fill="midnightblue" stroke="midnightblue" points="344.101,-127.82 335.793,-134.396 346.388,-134.436 344.101,-127.82"/>
</g>
<!-- Node4 -->
<g id="node4" class="node"><title>Node4</title>
<g id="a_node4"><a xlink:href="entresol_8cpp_source.html" target="_top" xlink:title="/home/sqeaky/Code/Mezzanine\lFresh/Mezzanine/src/entresol.cpp">
<polygon fill="white" stroke="black" points="213,-0.5 213,-30.5 377,-30.5 377,-0.5 213,-0.5"/>
<text text-anchor="start" x="221" y="-18.5" font-family="Helvetica,sans-Serif" font-size="10.00">/home/sqeaky/Code/Mezzanine</text>
<text text-anchor="middle" x="295" y="-7.5" font-family="Helvetica,sans-Serif" font-size="10.00">Fresh/Mezzanine/src/entresol.cpp</text>
</a>
</g>
</g>
<!-- Node3&#45;&gt;Node4 -->
<g id="edge3" class="edge"><title>Node3&#45;&gt;Node4</title>
<path fill="none" stroke="midnightblue" d="M295,-57.1081C295,-48.1539 295,-38.3227 295,-30.5765"/>
<polygon fill="midnightblue" stroke="midnightblue" points="291.5,-57.3959 295,-67.396 298.5,-57.396 291.5,-57.3959"/>
</g>
</g>
</svg>
