<?xml version="1.0" encoding="UTF-8" standalone="no"?>
<!DOCTYPE svg PUBLIC "-//W3C//DTD SVG 1.1//EN"
 "http://www.w3.org/Graphics/SVG/1.1/DTD/svg11.dtd">
<!-- Generated by graphviz version 2.26.3 (20100126.1600)
 -->
<!-- Title: /home/sqeaky/Code/Mezzanine/Mezzanine/src/Threading/spinlock.cpp Pages: 1 -->
<!--zoomable 228 -->
<svg id="main" version="1.1" xmlns="http://www.w3.org/2000/svg" xmlns:xlink="http://www.w3.org/1999/xlink" xml:space="preserve" onload="init(evt)">
        <defs>
                <circle id="rim" cx="0" cy="0" r="7"/>
                <circle id="rim2" cx="0" cy="0" r="3.5"/>
                <g id="zoomPlus">
                        <use xlink:href="#rim" fill="#404040">
                                <set attributeName="fill" to="#808080" begin="zoomplus.mouseover" end="zoomplus.mouseout"/>
                        </use>
                        <path d="M-4,0h8M0,-4v8" fill="none" stroke="white" stroke-width="1.5" pointer-events="none"/>
                </g>
                <g id="zoomMin">
                        <use xlink:href="#rim" fill="#404040">
                                <set attributeName="fill" to="#808080" begin="zoomminus.mouseover" end="zoomminus.mouseout"/>
                        </use>
                        <path d="M-4,0h8" fill="none" stroke="white" stroke-width="1.5" pointer-events="none"/>
                </g>
                <g id="dirArrow">
                        <path fill="none" stroke="white" stroke-width="1.5" d="M0,-3.0v7 M-2.5,-0.5L0,-3.0L2.5,-0.5"/>
                </g>
               <g id="resetDef">
                       <use xlink:href="#rim2" fill="#404040">
                               <set attributeName="fill" to="#808080" begin="reset.mouseover" end="reset.mouseout"/>
                       </use>
               </g>
        </defs>

<script type="text/javascript">
var viewWidth = 1110;
var viewHeight = 228;
var sectionId = 'dynsection-0';
</script>
<script xlink:href="svgpan.js"/>
<svg id="graph" class="graph">
<g id="viewport">
<title>/home/sqeaky/Code/Mezzanine/Mezzanine/src/Threading/spinlock.cpp</title>
<polygon fill="white" stroke="white" points="-4,5 -4,-224 1107,-224 1107,5 -4,5"/>
<!-- Node1 -->
<g id="node1" class="node"><title>Node1</title>
<polygon fill="#bfbfbf" stroke="black" points="561.5,-175 561.5,-219 712.5,-219 712.5,-175 561.5,-175"/>
<text text-anchor="start" x="569.5" y="-206" font-family="FreeSans" font-size="10.00">/home/sqeaky/Code/Mezzanine</text>
<text text-anchor="start" x="569.5" y="-194" font-family="FreeSans" font-size="10.00">/Mezzanine/src/Threading</text>
<text text-anchor="middle" x="637" y="-182" font-family="FreeSans" font-size="10.00">/spinlock.cpp</text>
</g>
<!-- Node2 -->
<g id="node3" class="node"><title>Node2</title>
<a xlink:href="spinlock_8h.html" target="_top" xlink:title="Declares a Mutex, Mutex tools, and at least one MutexLike object.">
<polygon fill="white" stroke="black" points="511.5,-117 511.5,-137 570.5,-137 570.5,-117 511.5,-117"/>
<text text-anchor="middle" x="541" y="-124" font-family="FreeSans" font-size="10.00">spinlock.h</text>
</a>
</g>
<!-- Node1&#45;&gt;Node2 -->
<g id="edge2" class="edge"><title>Node1&#45;&gt;Node2</title>
<path fill="none" stroke="midnightblue" d="M606.625,-174.852C592.521,-164.568 576.06,-152.565 563.152,-143.153"/>
<polygon fill="midnightblue" stroke="midnightblue" points="564.999,-140.168 554.857,-137.104 560.875,-145.824 564.999,-140.168"/>
</g>
<!-- Node21 -->
<g id="node41" class="node"><title>Node21</title>
<a xlink:href="atomicoperations_8h.html" target="_top" xlink:title="Simple thread safe ways to check and change a specified variable atomically.">
<polygon fill="white" stroke="black" points="588,-117 588,-137 686,-137 686,-117 588,-117"/>
<text text-anchor="middle" x="637" y="-124" font-family="FreeSans" font-size="10.00">atomicoperations.h</text>
</a>
</g>
<!-- Node1&#45;&gt;Node21 -->
<g id="edge40" class="edge"><title>Node1&#45;&gt;Node21</title>
<path fill="none" stroke="midnightblue" d="M637,-174.852C637,-166.051 637,-155.991 637,-147.374"/>
<polygon fill="midnightblue" stroke="midnightblue" points="640.5,-147.104 637,-137.104 633.5,-147.104 640.5,-147.104"/>
</g>
<!-- Node22 -->
<g id="node44" class="node"><title>Node22</title>
<a xlink:href="crossplatformincludes_8h.html" target="_top" xlink:title="This file determines what features are offered by the compiler that this library can take advantage o...">
<polygon fill="white" stroke="black" points="731.5,-117 731.5,-137 848.5,-137 848.5,-117 731.5,-117"/>
<text text-anchor="middle" x="790" y="-124" font-family="FreeSans" font-size="10.00">crossplatformincludes.h</text>
</a>
</g>
<!-- Node1&#45;&gt;Node22 -->
<g id="edge44" class="edge"><title>Node1&#45;&gt;Node22</title>
<path fill="none" stroke="midnightblue" d="M685.41,-174.852C709.401,-163.875 737.672,-150.941 758.769,-141.289"/>
<polygon fill="midnightblue" stroke="midnightblue" points="760.279,-144.447 767.916,-137.104 757.366,-138.082 760.279,-144.447"/>
</g>
<!-- Node3 -->
<g id="node5" class="node"><title>Node3</title>
<a xlink:href="datatypes_8h.html" target="_top" xlink:title="All the definitions for datatypes as well as some basic conversion functions are defined here...">
<polygon fill="white" stroke="black" points="508.5,-59 508.5,-79 573.5,-79 573.5,-59 508.5,-59"/>
<text text-anchor="middle" x="541" y="-66" font-family="FreeSans" font-size="10.00">datatypes.h</text>
</a>
</g>
<!-- Node2&#45;&gt;Node3 -->
<g id="edge4" class="edge"><title>Node2&#45;&gt;Node3</title>
<path fill="none" stroke="midnightblue" d="M541,-116.897C541,-109.339 541,-98.7476 541,-89.4458"/>
<polygon fill="midnightblue" stroke="midnightblue" points="544.5,-89.3776 541,-79.3776 537.5,-89.3776 544.5,-89.3776"/>
</g>
<!-- Node4 -->
<g id="node7" class="node"><title>Node4</title>
<a xlink:href="crossplatformexport_8h.html" target="_top" xlink:title="This file is used on some platforms to determine what data should be read and written to and from a s...">
<polygon fill="white" stroke="black" points="994,-1 994,-21 1102,-21 1102,-1 994,-1"/>
<text text-anchor="middle" x="1048" y="-8" font-family="FreeSans" font-size="10.00">crossplatformexport.h</text>
</a>
</g>
<!-- Node3&#45;&gt;Node4 -->
<g id="edge6" class="edge"><title>Node3&#45;&gt;Node4</title>
<path fill="none" stroke="midnightblue" d="M573.581,-65.6796C663.913,-56.4564 914.926,-30.7064 983.701,-22.0392"/>
<polygon fill="midnightblue" stroke="midnightblue" points="984.285,-25.4925 993.74,-20.713 983.368,-18.5528 984.285,-25.4925"/>
</g>
<!-- Node5 -->
<g id="node9" class="node"><title>Node5</title>
<polygon fill="white" stroke="#bfbfbf" points="-0.5,-1 -0.5,-21 46.5,-21 46.5,-1 -0.5,-1"/>
<text text-anchor="middle" x="23" y="-8" font-family="FreeSans" font-size="10.00">stdint.h</text>
</g>
<!-- Node3&#45;&gt;Node5 -->
<g id="edge8" class="edge"><title>Node3&#45;&gt;Node5</title>
<path fill="none" stroke="midnightblue" d="M508.465,-68.4776C431.178,-66.6819 230.586,-58.7598 56.4371,-21.9208"/>
<polygon fill="midnightblue" stroke="midnightblue" points="57.1021,-18.4838 46.5894,-19.8002 55.6285,-25.327 57.1021,-18.4838"/>
</g>
<!-- Node6 -->
<g id="node11" class="node"><title>Node6</title>
<polygon fill="white" stroke="#bfbfbf" points="64,-1 64,-21 112,-21 112,-1 64,-1"/>
<text text-anchor="middle" x="88" y="-8" font-family="FreeSans" font-size="10.00">cstddef</text>
</g>
<!-- Node3&#45;&gt;Node6 -->
<g id="edge10" class="edge"><title>Node3&#45;&gt;Node6</title>
<path fill="none" stroke="midnightblue" d="M508.48,-67.6889C439.01,-64.3939 271.012,-53.7907 122.549,-21.9778"/>
<polygon fill="midnightblue" stroke="midnightblue" points="122.864,-18.4642 112.348,-19.7511 121.371,-25.3032 122.864,-18.4642"/>
</g>
<!-- Node7 -->
<g id="node13" class="node"><title>Node7</title>
<polygon fill="white" stroke="#bfbfbf" points="130,-1 130,-21 186,-21 186,-1 130,-1"/>
<text text-anchor="middle" x="158" y="-8" font-family="FreeSans" font-size="10.00">algorithm</text>
</g>
<!-- Node3&#45;&gt;Node7 -->
<g id="edge12" class="edge"><title>Node3&#45;&gt;Node7</title>
<path fill="none" stroke="midnightblue" d="M508.273,-66.2481C448.207,-60.8347 316.262,-47.2598 196.257,-22.0171"/>
<polygon fill="midnightblue" stroke="midnightblue" points="196.677,-18.5278 186.166,-19.8604 195.214,-25.3732 196.677,-18.5278"/>
</g>
<!-- Node8 -->
<g id="node15" class="node"><title>Node8</title>
<polygon fill="white" stroke="#bfbfbf" points="204,-1 204,-21 262,-21 262,-1 204,-1"/>
<text text-anchor="middle" x="233" y="-8" font-family="FreeSans" font-size="10.00">exception</text>
</g>
<!-- Node3&#45;&gt;Node8 -->
<g id="edge14" class="edge"><title>Node3&#45;&gt;Node8</title>
<path fill="none" stroke="midnightblue" d="M508.352,-64.4958C459.147,-57.4524 362.912,-42.6872 272.26,-22.119"/>
<polygon fill="midnightblue" stroke="midnightblue" points="272.905,-18.6761 262.375,-19.8476 271.337,-25.4983 272.905,-18.6761"/>
</g>
<!-- Node9 -->
<g id="node17" class="node"><title>Node9</title>
<polygon fill="white" stroke="#bfbfbf" points="280,-1 280,-21 328,-21 328,-1 280,-1"/>
<text text-anchor="middle" x="304" y="-8" font-family="FreeSans" font-size="10.00">istream</text>
</g>
<!-- Node3&#45;&gt;Node9 -->
<g id="edge16" class="edge"><title>Node3&#45;&gt;Node9</title>
<path fill="none" stroke="midnightblue" d="M508.252,-62.46C469.65,-54.5315 403.411,-40.2431 337.749,-22.0324"/>
<polygon fill="midnightblue" stroke="midnightblue" points="338.642,-18.6479 328.069,-19.3174 336.752,-25.3879 338.642,-18.6479"/>
</g>
<!-- Node10 -->
<g id="node19" class="node"><title>Node10</title>
<polygon fill="white" stroke="#bfbfbf" points="345.5,-1 345.5,-21 374.5,-21 374.5,-1 345.5,-1"/>
<text text-anchor="middle" x="360" y="-8" font-family="FreeSans" font-size="10.00">list</text>
</g>
<!-- Node3&#45;&gt;Node10 -->
<g id="edge18" class="edge"><title>Node3&#45;&gt;Node10</title>
<path fill="none" stroke="midnightblue" d="M508.427,-60.9139C478.147,-53.048 431.725,-40.1023 384.415,-22.208"/>
<polygon fill="midnightblue" stroke="midnightblue" points="385.535,-18.8891 374.945,-18.5632 383.021,-25.4218 385.535,-18.8891"/>
</g>
<!-- Node11 -->
<g id="node21" class="node"><title>Node11</title>
<polygon fill="white" stroke="#bfbfbf" points="391.5,-1 391.5,-21 426.5,-21 426.5,-1 391.5,-1"/>
<text text-anchor="middle" x="409" y="-8" font-family="FreeSans" font-size="10.00">map</text>
</g>
<!-- Node3&#45;&gt;Node11 -->
<g id="edge20" class="edge"><title>Node3&#45;&gt;Node11</title>
<path fill="none" stroke="midnightblue" d="M518.007,-58.8972C495.155,-48.8561 460.12,-33.4617 435.968,-22.8495"/>
<polygon fill="midnightblue" stroke="midnightblue" points="437.228,-19.5804 426.665,-18.762 434.412,-25.9891 437.228,-19.5804"/>
</g>
<!-- Node12 -->
<g id="node23" class="node"><title>Node12</title>
<polygon fill="white" stroke="#bfbfbf" points="444,-1 444,-21 484,-21 484,-1 444,-1"/>
<text text-anchor="middle" x="464" y="-8" font-family="FreeSans" font-size="10.00">string</text>
</g>
<!-- Node3&#45;&gt;Node12 -->
<g id="edge22" class="edge"><title>Node3&#45;&gt;Node12</title>
<path fill="none" stroke="midnightblue" d="M527.588,-58.8972C516.065,-50.2178 499.232,-37.5384 485.779,-27.4053"/>
<polygon fill="midnightblue" stroke="midnightblue" points="487.61,-24.4026 477.517,-21.1817 483.399,-29.9939 487.61,-24.4026"/>
</g>
<!-- Node13 -->
<g id="node25" class="node"><title>Node13</title>
<polygon fill="white" stroke="#bfbfbf" points="502,-1 502,-21 552,-21 552,-1 502,-1"/>
<text text-anchor="middle" x="527" y="-8" font-family="FreeSans" font-size="10.00">sstream</text>
</g>
<!-- Node3&#45;&gt;Node13 -->
<g id="edge24" class="edge"><title>Node3&#45;&gt;Node13</title>
<path fill="none" stroke="midnightblue" d="M538.561,-58.8972C536.717,-51.2569 534.125,-40.517 531.862,-31.1429"/>
<polygon fill="midnightblue" stroke="midnightblue" points="535.254,-30.2772 529.505,-21.3776 528.449,-31.9197 535.254,-30.2772"/>
</g>
<!-- Node14 -->
<g id="node27" class="node"><title>Node14</title>
<polygon fill="white" stroke="#bfbfbf" points="569.5,-1 569.5,-21 618.5,-21 618.5,-1 569.5,-1"/>
<text text-anchor="middle" x="594" y="-8" font-family="FreeSans" font-size="10.00">fstream</text>
</g>
<!-- Node3&#45;&gt;Node14 -->
<g id="edge26" class="edge"><title>Node3&#45;&gt;Node14</title>
<path fill="none" stroke="midnightblue" d="M550.232,-58.8972C557.739,-50.6818 568.521,-38.8827 577.505,-29.0513"/>
<polygon fill="midnightblue" stroke="midnightblue" points="580.355,-31.1207 584.517,-21.3776 575.188,-26.3987 580.355,-31.1207"/>
</g>
<!-- Node15 -->
<g id="node29" class="node"><title>Node15</title>
<polygon fill="white" stroke="#bfbfbf" points="635.5,-1 635.5,-21 664.5,-21 664.5,-1 635.5,-1"/>
<text text-anchor="middle" x="650" y="-8" font-family="FreeSans" font-size="10.00">set</text>
</g>
<!-- Node3&#45;&gt;Node15 -->
<g id="edge28" class="edge"><title>Node3&#45;&gt;Node15</title>
<path fill="none" stroke="midnightblue" d="M559.986,-58.8972C578.437,-49.0793 606.507,-34.1432 626.388,-23.5639"/>
<polygon fill="midnightblue" stroke="midnightblue" points="628.229,-26.5493 635.413,-18.762 624.941,-20.3697 628.229,-26.5493"/>
</g>
<!-- Node16 -->
<g id="node31" class="node"><title>Node16</title>
<polygon fill="white" stroke="#bfbfbf" points="681.5,-1 681.5,-21 724.5,-21 724.5,-1 681.5,-1"/>
<text text-anchor="middle" x="703" y="-8" font-family="FreeSans" font-size="10.00">vector</text>
</g>
<!-- Node3&#45;&gt;Node16 -->
<g id="edge30" class="edge"><title>Node3&#45;&gt;Node16</title>
<path fill="none" stroke="midnightblue" d="M569.352,-58.9916C594.168,-50.2123 631.43,-36.9845 671.874,-22.3893"/>
<polygon fill="midnightblue" stroke="midnightblue" points="673.163,-25.6451 681.379,-18.9552 670.784,-19.0616 673.163,-25.6451"/>
</g>
<!-- Node17 -->
<g id="node33" class="node"><title>Node17</title>
<polygon fill="white" stroke="#bfbfbf" points="741.5,-1 741.5,-21 780.5,-21 780.5,-1 741.5,-1"/>
<text text-anchor="middle" x="761" y="-8" font-family="FreeSans" font-size="10.00">utility</text>
</g>
<!-- Node3&#45;&gt;Node17 -->
<g id="edge32" class="edge"><title>Node3&#45;&gt;Node17</title>
<path fill="none" stroke="midnightblue" d="M573.641,-62.4095C610.186,-54.7262 671.276,-40.9746 731.568,-22.2012"/>
<polygon fill="midnightblue" stroke="midnightblue" points="732.754,-25.497 741.233,-19.1452 730.643,-18.8226 732.754,-25.497"/>
</g>
<!-- Node18 -->
<g id="node35" class="node"><title>Node18</title>
<polygon fill="white" stroke="#bfbfbf" points="797.5,-1 797.5,-21 848.5,-21 848.5,-1 797.5,-1"/>
<text text-anchor="middle" x="823" y="-8" font-family="FreeSans" font-size="10.00">memory</text>
</g>
<!-- Node3&#45;&gt;Node18 -->
<g id="edge34" class="edge"><title>Node3&#45;&gt;Node18</title>
<path fill="none" stroke="midnightblue" d="M573.785,-64.1328C619.659,-57.0312 705.723,-42.6496 787.529,-22.1646"/>
<polygon fill="midnightblue" stroke="midnightblue" points="788.65,-25.4909 797.481,-19.6363 786.927,-18.7064 788.65,-25.4909"/>
</g>
<!-- Node19 -->
<g id="node37" class="node"><title>Node19</title>
<polygon fill="white" stroke="#bfbfbf" points="865.5,-1 865.5,-21 916.5,-21 916.5,-1 865.5,-1"/>
<text text-anchor="middle" x="891" y="-8" font-family="FreeSans" font-size="10.00">ostream</text>
</g>
<!-- Node3&#45;&gt;Node19 -->
<g id="edge36" class="edge"><title>Node3&#45;&gt;Node19</title>
<path fill="none" stroke="midnightblue" d="M573.633,-65.9438C629.592,-60.3175 747.516,-46.7796 855.093,-22.1903"/>
<polygon fill="midnightblue" stroke="midnightblue" points="856.188,-25.5291 865.136,-19.855 854.603,-18.711 856.188,-25.5291"/>
</g>
<!-- Node20 -->
<g id="node39" class="node"><title>Node20</title>
<a xlink:href="swig_8h.html" target="_top" xlink:title="Used to give commands specifically to the SWIG preprocessor.">
<polygon fill="white" stroke="black" points="933.5,-1 933.5,-21 976.5,-21 976.5,-1 933.5,-1"/>
<text text-anchor="middle" x="955" y="-8" font-family="FreeSans" font-size="10.00">swig.h</text>
</a>
</g>
<!-- Node3&#45;&gt;Node20 -->
<g id="edge38" class="edge"><title>Node3&#45;&gt;Node20</title>
<path fill="none" stroke="midnightblue" d="M573.792,-65.4234C655.025,-56.5054 862.892,-33.3133 923.209,-21.7846"/>
<polygon fill="midnightblue" stroke="midnightblue" points="924.178,-25.1567 933.224,-19.642 922.713,-18.3115 924.178,-25.1567"/>
</g>
<!-- Node21&#45;&gt;Node3 -->
<g id="edge42" class="edge"><title>Node21&#45;&gt;Node3</title>
<path fill="none" stroke="midnightblue" d="M620.278,-116.897C605.502,-107.97 583.721,-94.8106 566.726,-84.5431"/>
<polygon fill="midnightblue" stroke="midnightblue" points="568.221,-81.3572 557.852,-79.1817 564.602,-87.3486 568.221,-81.3572"/>
</g>
<!-- Node22&#45;&gt;Node4 -->
<g id="edge46" class="edge"><title>Node22&#45;&gt;Node4</title>
<path fill="none" stroke="midnightblue" d="M824.208,-116.928C851.891,-108.344 891.623,-95.0307 925,-80 960.435,-64.0424 999.213,-41.3481 1023.57,-26.405"/>
<polygon fill="midnightblue" stroke="midnightblue" points="1025.5,-29.3269 1032.16,-21.0876 1021.81,-23.3748 1025.5,-29.3269"/>
</g>
<!-- Node23 -->
<g id="node47" class="node"><title>Node23</title>
<polygon fill="white" stroke="#bfbfbf" points="658,-59 658,-79 714,-79 714,-59 658,-59"/>
<text text-anchor="middle" x="686" y="-66" font-family="FreeSans" font-size="10.00">pthread.h</text>
</g>
<!-- Node22&#45;&gt;Node23 -->
<g id="edge48" class="edge"><title>Node22&#45;&gt;Node23</title>
<path fill="none" stroke="midnightblue" d="M771.885,-116.897C755.655,-107.846 731.624,-94.4442 713.106,-84.117"/>
<polygon fill="midnightblue" stroke="midnightblue" points="714.695,-80.9956 704.257,-79.1817 711.286,-87.1092 714.695,-80.9956"/>
</g>
<!-- Node24 -->
<g id="node49" class="node"><title>Node24</title>
<polygon fill="white" stroke="#bfbfbf" points="731.5,-59 731.5,-79 780.5,-79 780.5,-59 731.5,-59"/>
<text text-anchor="middle" x="756" y="-66" font-family="FreeSans" font-size="10.00">signal.h</text>
</g>
<!-- Node22&#45;&gt;Node24 -->
<g id="edge50" class="edge"><title>Node22&#45;&gt;Node24</title>
<path fill="none" stroke="midnightblue" d="M784.078,-116.897C779.454,-109.01 772.895,-97.8209 767.279,-88.2401"/>
<polygon fill="midnightblue" stroke="midnightblue" points="770.16,-86.2346 762.083,-79.3776 764.121,-89.7746 770.16,-86.2346"/>
</g>
<!-- Node25 -->
<g id="node51" class="node"><title>Node25</title>
<polygon fill="white" stroke="#bfbfbf" points="798,-59 798,-79 848,-79 848,-59 798,-59"/>
<text text-anchor="middle" x="823" y="-66" font-family="FreeSans" font-size="10.00">sched.h</text>
</g>
<!-- Node22&#45;&gt;Node25 -->
<g id="edge52" class="edge"><title>Node22&#45;&gt;Node25</title>
<path fill="none" stroke="midnightblue" d="M795.748,-116.897C800.235,-109.01 806.602,-97.8209 812.053,-88.2401"/>
<polygon fill="midnightblue" stroke="midnightblue" points="815.192,-89.8001 817.096,-79.3776 809.108,-86.3384 815.192,-89.8001"/>
</g>
<!-- Node26 -->
<g id="node53" class="node"><title>Node26</title>
<polygon fill="white" stroke="#bfbfbf" points="866,-59 866,-79 916,-79 916,-59 866,-59"/>
<text text-anchor="middle" x="891" y="-66" font-family="FreeSans" font-size="10.00">unistd.h</text>
</g>
<!-- Node22&#45;&gt;Node26 -->
<g id="edge54" class="edge"><title>Node22&#45;&gt;Node26</title>
<path fill="none" stroke="midnightblue" d="M807.593,-116.897C823.283,-107.887 846.479,-94.5665 864.429,-84.2586"/>
<polygon fill="midnightblue" stroke="midnightblue" points="866.341,-87.1967 873.27,-79.1817 862.855,-81.1264 866.341,-87.1967"/>
</g>
</g>
</svg>
        <g id="navigator" transform="translate(0 0)" fill="#404254">
                <rect fill="#f2f5e9" fill-opacity="0.5" stroke="#606060" stroke-width=".5" x="0" y="0" width="60" height="60"/>
                <use id="zoomplus" xlink:href="#zoomPlus" x="17" y="9" onmousedown="handleZoom(evt,'in')"/>
                <use id="zoomminus" xlink:href="#zoomMin" x="42" y="9" onmousedown="handleZoom(evt,'out')"/>
                <use id="reset" xlink:href="#resetDef" x="30" y="36" onmousedown="handleReset()"/>
                <g id="arrowUp" xlink:href="#dirArrow" transform="translate(30 24)" onmousedown="handlePan(0,-1)">
                  <use xlink:href="#rim" fill="#404040">
                        <set attributeName="fill" to="#808080" begin="arrowUp.mouseover" end="arrowUp.mouseout"/>
                  </use>
                  <path fill="none" stroke="white" stroke-width="1.5" d="M0,-3.0v7 M-2.5,-0.5L0,-3.0L2.5,-0.5"/>
                </g>
                <g id="arrowRight" xlink:href="#dirArrow" transform="rotate(90) translate(36 -43)" onmousedown="handlePan(1,0)">
                  <use xlink:href="#rim" fill="#404040">
                        <set attributeName="fill" to="#808080" begin="arrowRight.mouseover" end="arrowRight.mouseout"/>
                  </use>
                  <path fill="none" stroke="white" stroke-width="1.5" d="M0,-3.0v7 M-2.5,-0.5L0,-3.0L2.5,-0.5"/>
                </g>
                <g id="arrowDown" xlink:href="#dirArrow" transform="rotate(180) translate(-30 -48)" onmousedown="handlePan(0,1)">
                  <use xlink:href="#rim" fill="#404040">
                        <set attributeName="fill" to="#808080" begin="arrowDown.mouseover" end="arrowDown.mouseout"/>
                  </use>
                  <path fill="none" stroke="white" stroke-width="1.5" d="M0,-3.0v7 M-2.5,-0.5L0,-3.0L2.5,-0.5"/>
                </g>
                <g id="arrowLeft" xlink:href="#dirArrow" transform="rotate(270) translate(-36 17)" onmousedown="handlePan(-1,0)">
                  <use xlink:href="#rim" fill="#404040">
                        <set attributeName="fill" to="#808080" begin="arrowLeft.mouseover" end="arrowLeft.mouseout"/>
                  </use>
                  <path fill="none" stroke="white" stroke-width="1.5" d="M0,-3.0v7 M-2.5,-0.5L0,-3.0L2.5,-0.5"/>
                </g>
        </g>
        <svg viewBox="0 0 15 15" width="100%" height="30px" preserveAspectRatio="xMaxYMin meet">
         <g id="arrow_out" transform="scale(0.3 0.3)">
          <a xlink:href="spinlock_8cpp__incl_org.svg" target="_base">
           <rect id="button" ry="5" rx="5" y="6" x="6" height="38" width="38"
                fill="#f2f5e9" fill-opacity="0.5" stroke="#606060" stroke-width="1.0"/>
           <path id="arrow"
             d="M 11.500037,31.436501 C 11.940474,20.09759 22.043105,11.32322 32.158766,21.979434 L 37.068811,17.246167 C 37.068811,17.246167 37.088388,32 37.088388,32 L 22.160133,31.978069 C 22.160133,31.978069 26.997745,27.140456 26.997745,27.140456 C 18.528582,18.264221 13.291696,25.230495 11.500037,31.436501 z"
             style="fill:#404040;"/>
          </a>
         </g>
        </svg>
</svg>
