<?xml version="1.0" encoding="UTF-8" standalone="no"?>
<!DOCTYPE svg PUBLIC "-//W3C//DTD SVG 1.1//EN"
 "http://www.w3.org/Graphics/SVG/1.1/DTD/svg11.dtd">
<!-- Generated by graphviz version 2.26.3 (20100126.1600)
 -->
<!-- Title: /home/sqeaky/Code/Mezzanine/Mezzanine/src/Threading/spinlock.h Pages: 1 -->
<svg width="1110pt" height="170pt"
 viewBox="0.00 0.00 1110.00 170.00" xmlns="http://www.w3.org/2000/svg" xmlns:xlink="http://www.w3.org/1999/xlink">
<g id="graph1" class="graph" transform="scale(1 1) rotate(0) translate(4 166)">
<title>/home/sqeaky/Code/Mezzanine/Mezzanine/src/Threading/spinlock.h</title>
<polygon fill="white" stroke="white" points="-4,5 -4,-166 1107,-166 1107,5 -4,5"/>
<!-- Node1 -->
<g id="node1" class="node"><title>Node1</title>
<polygon fill="#bfbfbf" stroke="black" points="514.5,-117 514.5,-161 665.5,-161 665.5,-117 514.5,-117"/>
<text text-anchor="start" x="522.5" y="-148" font-family="FreeSans" font-size="10.00">/home/sqeaky/Code/Mezzanine</text>
<text text-anchor="start" x="522.5" y="-136" font-family="FreeSans" font-size="10.00">/Mezzanine/src/Threading</text>
<text text-anchor="middle" x="590" y="-124" font-family="FreeSans" font-size="10.00">/spinlock.h</text>
</g>
<!-- Node2 -->
<g id="node3" class="node"><title>Node2</title>
<a xlink:href="datatypes_8h.html" target="_top" xlink:title="All the definitions for datatypes as well as some basic conversion functions are defined here...">
<polygon fill="white" stroke="black" points="557.5,-59 557.5,-79 622.5,-79 622.5,-59 557.5,-59"/>
<text text-anchor="middle" x="590" y="-66" font-family="FreeSans" font-size="10.00">datatypes.h</text>
</a>
</g>
<!-- Node1&#45;&gt;Node2 -->
<g id="edge2" class="edge"><title>Node1&#45;&gt;Node2</title>
<path fill="none" stroke="midnightblue" d="M590,-116.852C590,-108.051 590,-97.9913 590,-89.374"/>
<polygon fill="midnightblue" stroke="midnightblue" points="593.5,-89.1038 590,-79.1038 586.5,-89.1039 593.5,-89.1038"/>
</g>
<!-- Node3 -->
<g id="node5" class="node"><title>Node3</title>
<a xlink:href="crossplatformexport_8h.html" target="_top" xlink:title="This file is used on some platforms to determine what data should be read and written to and from a s...">
<polygon fill="white" stroke="black" points="0,-1 0,-21 108,-21 108,-1 0,-1"/>
<text text-anchor="middle" x="54" y="-8" font-family="FreeSans" font-size="10.00">crossplatformexport.h</text>
</a>
</g>
<!-- Node2&#45;&gt;Node3 -->
<g id="edge4" class="edge"><title>Node2&#45;&gt;Node3</title>
<path fill="none" stroke="midnightblue" d="M557.216,-66.5808C481.657,-60.8258 289.262,-45.1491 118.194,-22.0867"/>
<polygon fill="midnightblue" stroke="midnightblue" points="118.637,-18.6148 108.256,-20.7352 117.694,-25.5509 118.637,-18.6148"/>
</g>
<!-- Node4 -->
<g id="node7" class="node"><title>Node4</title>
<polygon fill="white" stroke="#bfbfbf" points="125.5,-1 125.5,-21 172.5,-21 172.5,-1 125.5,-1"/>
<text text-anchor="middle" x="149" y="-8" font-family="FreeSans" font-size="10.00">stdint.h</text>
</g>
<!-- Node2&#45;&gt;Node4 -->
<g id="edge6" class="edge"><title>Node2&#45;&gt;Node4</title>
<path fill="none" stroke="midnightblue" d="M557.256,-67.6441C488.923,-64.3031 326.201,-53.6771 182.476,-21.9703"/>
<polygon fill="midnightblue" stroke="midnightblue" points="183.124,-18.5288 172.6,-19.7511 181.59,-25.3585 183.124,-18.5288"/>
</g>
<!-- Node5 -->
<g id="node9" class="node"><title>Node5</title>
<polygon fill="white" stroke="#bfbfbf" points="190,-1 190,-21 238,-21 238,-1 190,-1"/>
<text text-anchor="middle" x="214" y="-8" font-family="FreeSans" font-size="10.00">cstddef</text>
</g>
<!-- Node2&#45;&gt;Node5 -->
<g id="edge8" class="edge"><title>Node2&#45;&gt;Node5</title>
<path fill="none" stroke="midnightblue" d="M557.479,-66.5674C497.81,-61.6714 366.812,-48.916 247.993,-21.8873"/>
<polygon fill="midnightblue" stroke="midnightblue" points="248.534,-18.4201 238.003,-19.5737 246.955,-25.2397 248.534,-18.4201"/>
</g>
<!-- Node6 -->
<g id="node11" class="node"><title>Node6</title>
<polygon fill="white" stroke="#bfbfbf" points="256,-1 256,-21 312,-21 312,-1 256,-1"/>
<text text-anchor="middle" x="284" y="-8" font-family="FreeSans" font-size="10.00">algorithm</text>
</g>
<!-- Node2&#45;&gt;Node6 -->
<g id="edge10" class="edge"><title>Node2&#45;&gt;Node6</title>
<path fill="none" stroke="midnightblue" d="M557.456,-64.5593C508.412,-57.5979 412.506,-42.9397 322.054,-22.0557"/>
<polygon fill="midnightblue" stroke="midnightblue" points="322.726,-18.6183 312.191,-19.7481 321.131,-25.4342 322.726,-18.6183"/>
</g>
<!-- Node7 -->
<g id="node13" class="node"><title>Node7</title>
<polygon fill="white" stroke="#bfbfbf" points="330,-1 330,-21 388,-21 388,-1 330,-1"/>
<text text-anchor="middle" x="359" y="-8" font-family="FreeSans" font-size="10.00">exception</text>
</g>
<!-- Node2&#45;&gt;Node7 -->
<g id="edge12" class="edge"><title>Node2&#45;&gt;Node7</title>
<path fill="none" stroke="midnightblue" d="M557.451,-61.5231C520.951,-53.0401 459.768,-38.527 397.936,-22.1759"/>
<polygon fill="midnightblue" stroke="midnightblue" points="398.574,-18.724 388.01,-19.5366 396.775,-25.489 398.574,-18.724"/>
</g>
<!-- Node8 -->
<g id="node15" class="node"><title>Node8</title>
<polygon fill="white" stroke="#bfbfbf" points="406,-1 406,-21 454,-21 454,-1 406,-1"/>
<text text-anchor="middle" x="430" y="-8" font-family="FreeSans" font-size="10.00">istream</text>
</g>
<!-- Node2&#45;&gt;Node8 -->
<g id="edge14" class="edge"><title>Node2&#45;&gt;Node8</title>
<path fill="none" stroke="midnightblue" d="M562.13,-58.8972C534.819,-48.997 493.152,-33.8925 463.928,-23.2989"/>
<polygon fill="midnightblue" stroke="midnightblue" points="464.748,-19.8734 454.154,-19.7558 462.363,-26.4543 464.748,-19.8734"/>
</g>
<!-- Node9 -->
<g id="node17" class="node"><title>Node9</title>
<polygon fill="white" stroke="#bfbfbf" points="471.5,-1 471.5,-21 500.5,-21 500.5,-1 471.5,-1"/>
<text text-anchor="middle" x="486" y="-8" font-family="FreeSans" font-size="10.00">list</text>
</g>
<!-- Node2&#45;&gt;Node9 -->
<g id="edge16" class="edge"><title>Node2&#45;&gt;Node9</title>
<path fill="none" stroke="midnightblue" d="M571.885,-58.8972C554.559,-49.235 528.345,-34.6156 509.437,-24.0705"/>
<polygon fill="midnightblue" stroke="midnightblue" points="510.995,-20.932 500.557,-19.1181 507.585,-27.0456 510.995,-20.932"/>
</g>
<!-- Node10 -->
<g id="node19" class="node"><title>Node10</title>
<polygon fill="white" stroke="#bfbfbf" points="517.5,-1 517.5,-21 552.5,-21 552.5,-1 517.5,-1"/>
<text text-anchor="middle" x="535" y="-8" font-family="FreeSans" font-size="10.00">map</text>
</g>
<!-- Node2&#45;&gt;Node10 -->
<g id="edge18" class="edge"><title>Node2&#45;&gt;Node10</title>
<path fill="none" stroke="midnightblue" d="M580.42,-58.8972C572.551,-50.5996 561.216,-38.6463 551.838,-28.7569"/>
<polygon fill="midnightblue" stroke="midnightblue" points="554.261,-26.2255 544.841,-21.3776 549.182,-31.0422 554.261,-26.2255"/>
</g>
<!-- Node11 -->
<g id="node21" class="node"><title>Node11</title>
<polygon fill="white" stroke="#bfbfbf" points="570,-1 570,-21 610,-21 610,-1 570,-1"/>
<text text-anchor="middle" x="590" y="-8" font-family="FreeSans" font-size="10.00">string</text>
</g>
<!-- Node2&#45;&gt;Node11 -->
<g id="edge20" class="edge"><title>Node2&#45;&gt;Node11</title>
<path fill="none" stroke="midnightblue" d="M590,-58.8972C590,-51.339 590,-40.7476 590,-31.4458"/>
<polygon fill="midnightblue" stroke="midnightblue" points="593.5,-31.3776 590,-21.3776 586.5,-31.3776 593.5,-31.3776"/>
</g>
<!-- Node12 -->
<g id="node23" class="node"><title>Node12</title>
<polygon fill="white" stroke="#bfbfbf" points="628,-1 628,-21 678,-21 678,-1 628,-1"/>
<text text-anchor="middle" x="653" y="-8" font-family="FreeSans" font-size="10.00">sstream</text>
</g>
<!-- Node2&#45;&gt;Node12 -->
<g id="edge22" class="edge"><title>Node2&#45;&gt;Node12</title>
<path fill="none" stroke="midnightblue" d="M600.974,-58.8972C610.165,-50.4353 623.486,-38.1715 634.348,-28.1719"/>
<polygon fill="midnightblue" stroke="midnightblue" points="636.741,-30.7257 641.728,-21.3776 632,-25.5758 636.741,-30.7257"/>
</g>
<!-- Node13 -->
<g id="node25" class="node"><title>Node13</title>
<polygon fill="white" stroke="#bfbfbf" points="695.5,-1 695.5,-21 744.5,-21 744.5,-1 695.5,-1"/>
<text text-anchor="middle" x="720" y="-8" font-family="FreeSans" font-size="10.00">fstream</text>
</g>
<!-- Node2&#45;&gt;Node13 -->
<g id="edge24" class="edge"><title>Node2&#45;&gt;Node13</title>
<path fill="none" stroke="midnightblue" d="M612.644,-58.8972C633.488,-49.5978 664.623,-35.7066 688.004,-25.2752"/>
<polygon fill="midnightblue" stroke="midnightblue" points="689.473,-28.4524 697.179,-21.1817 686.621,-22.0598 689.473,-28.4524"/>
</g>
<!-- Node14 -->
<g id="node27" class="node"><title>Node14</title>
<polygon fill="white" stroke="#bfbfbf" points="761.5,-1 761.5,-21 790.5,-21 790.5,-1 761.5,-1"/>
<text text-anchor="middle" x="776" y="-8" font-family="FreeSans" font-size="10.00">set</text>
</g>
<!-- Node2&#45;&gt;Node14 -->
<g id="edge26" class="edge"><title>Node2&#45;&gt;Node14</title>
<path fill="none" stroke="midnightblue" d="M622.681,-61.273C653.95,-53.5111 702.489,-40.5017 751.57,-22.1888"/>
<polygon fill="midnightblue" stroke="midnightblue" points="752.957,-25.4059 761.062,-18.582 750.471,-18.8624 752.957,-25.4059"/>
</g>
<!-- Node15 -->
<g id="node29" class="node"><title>Node15</title>
<polygon fill="white" stroke="#bfbfbf" points="807.5,-1 807.5,-21 850.5,-21 850.5,-1 807.5,-1"/>
<text text-anchor="middle" x="829" y="-8" font-family="FreeSans" font-size="10.00">vector</text>
</g>
<!-- Node2&#45;&gt;Node15 -->
<g id="edge28" class="edge"><title>Node2&#45;&gt;Node15</title>
<path fill="none" stroke="midnightblue" d="M622.558,-63.0441C662.017,-55.5294 730.637,-41.5132 797.616,-22.1641"/>
<polygon fill="midnightblue" stroke="midnightblue" points="798.871,-25.4434 807.482,-19.2708 796.901,-18.7263 798.871,-25.4434"/>
</g>
<!-- Node16 -->
<g id="node31" class="node"><title>Node16</title>
<polygon fill="white" stroke="#bfbfbf" points="867.5,-1 867.5,-21 906.5,-21 906.5,-1 867.5,-1"/>
<text text-anchor="middle" x="887" y="-8" font-family="FreeSans" font-size="10.00">utility</text>
</g>
<!-- Node2&#45;&gt;Node16 -->
<g id="edge30" class="edge"><title>Node2&#45;&gt;Node16</title>
<path fill="none" stroke="midnightblue" d="M622.769,-65.4339C672.105,-59.6015 768.391,-46.4171 857.567,-22.0256"/>
<polygon fill="midnightblue" stroke="midnightblue" points="858.592,-25.3732 867.284,-19.3145 856.711,-18.6307 858.592,-25.3732"/>
</g>
<!-- Node17 -->
<g id="node33" class="node"><title>Node17</title>
<polygon fill="white" stroke="#bfbfbf" points="923.5,-1 923.5,-21 974.5,-21 974.5,-1 923.5,-1"/>
<text text-anchor="middle" x="949" y="-8" font-family="FreeSans" font-size="10.00">memory</text>
</g>
<!-- Node2&#45;&gt;Node17 -->
<g id="edge32" class="edge"><title>Node2&#45;&gt;Node17</title>
<path fill="none" stroke="midnightblue" d="M622.628,-66.1265C679.846,-60.6921 802.054,-47.3251 913.115,-22.1754"/>
<polygon fill="midnightblue" stroke="midnightblue" points="914.18,-25.522 923.138,-19.866 912.608,-18.7007 914.18,-25.522"/>
</g>
<!-- Node18 -->
<g id="node35" class="node"><title>Node18</title>
<polygon fill="white" stroke="#bfbfbf" points="991.5,-1 991.5,-21 1042.5,-21 1042.5,-1 991.5,-1"/>
<text text-anchor="middle" x="1017" y="-8" font-family="FreeSans" font-size="10.00">ostream</text>
</g>
<!-- Node2&#45;&gt;Node18 -->
<g id="edge34" class="edge"><title>Node2&#45;&gt;Node18</title>
<path fill="none" stroke="midnightblue" d="M622.706,-67.2368C688.965,-63.207 843.796,-51.4658 981.286,-22.0798"/>
<polygon fill="midnightblue" stroke="midnightblue" points="982.126,-25.4789 991.154,-19.9334 980.638,-18.6389 982.126,-25.4789"/>
</g>
<!-- Node19 -->
<g id="node37" class="node"><title>Node19</title>
<a xlink:href="swig_8h.html" target="_top" xlink:title="Used to give commands specifically to the SWIG preprocessor.">
<polygon fill="white" stroke="black" points="1059.5,-1 1059.5,-21 1102.5,-21 1102.5,-1 1059.5,-1"/>
<text text-anchor="middle" x="1081" y="-8" font-family="FreeSans" font-size="10.00">swig.h</text>
</a>
</g>
<!-- Node2&#45;&gt;Node19 -->
<g id="edge36" class="edge"><title>Node2&#45;&gt;Node19</title>
<path fill="none" stroke="midnightblue" d="M622.59,-68.4598C697.132,-66.636 885.674,-58.6817 1049.48,-21.926"/>
<polygon fill="midnightblue" stroke="midnightblue" points="1050.27,-25.3357 1059.24,-19.6949 1048.71,-18.5118 1050.27,-25.3357"/>
</g>
</g>
</svg>
