<?xml version="1.0" encoding="UTF-8" standalone="no"?>
<!DOCTYPE svg PUBLIC "-//W3C//DTD SVG 1.1//EN"
 "http://www.w3.org/Graphics/SVG/1.1/DTD/svg11.dtd">
<!-- Generated by graphviz version 2.26.3 (20100126.1600)
 -->
<!-- Title: Mezzanine::Physics::StickyData Pages: 1 -->
<!--zoomable 1074 -->
<svg id="main" version="1.1" xmlns="http://www.w3.org/2000/svg" xmlns:xlink="http://www.w3.org/1999/xlink" xml:space="preserve" onload="init(evt)">
        <defs>
                <circle id="rim" cx="0" cy="0" r="7"/>
                <circle id="rim2" cx="0" cy="0" r="3.5"/>
                <g id="zoomPlus">
                        <use xlink:href="#rim" fill="#404040">
                                <set attributeName="fill" to="#808080" begin="zoomplus.mouseover" end="zoomplus.mouseout"/>
                        </use>
                        <path d="M-4,0h8M0,-4v8" fill="none" stroke="white" stroke-width="1.5" pointer-events="none"/>
                </g>
                <g id="zoomMin">
                        <use xlink:href="#rim" fill="#404040">
                                <set attributeName="fill" to="#808080" begin="zoomminus.mouseover" end="zoomminus.mouseout"/>
                        </use>
                        <path d="M-4,0h8" fill="none" stroke="white" stroke-width="1.5" pointer-events="none"/>
                </g>
                <g id="dirArrow">
                        <path fill="none" stroke="white" stroke-width="1.5" d="M0,-3.0v7 M-2.5,-0.5L0,-3.0L2.5,-0.5"/>
                </g>
               <g id="resetDef">
                       <use xlink:href="#rim2" fill="#404040">
                               <set attributeName="fill" to="#808080" begin="reset.mouseover" end="reset.mouseout"/>
                       </use>
               </g>
        </defs>

<script type="text/javascript">
var viewWidth = 1617;
var viewHeight = 1074;
var sectionId = 'dynsection-0';
</script>
<script xlink:href="svgpan.js"/>
<svg id="graph" class="graph">
<g id="viewport">
<title>Mezzanine::Physics::StickyData</title>
<!-- Node1 -->
<g id="node1" class="node"><title>Node1</title>
<polygon fill="#bfbfbf" stroke="black" points="1411,-1 1411,-33 1511,-33 1511,-1 1411,-1"/>
<text text-anchor="start" x="1419" y="-20" font-family="FreeSans" font-size="10.00">Mezzanine::Physics</text>
<text text-anchor="middle" x="1461" y="-8" font-family="FreeSans" font-size="10.00">::StickyData</text>
</g>
<!-- Node2 -->
<g id="node2" class="node"><title>Node2</title>
<polygon fill="none" stroke="#bfbfbf" points="1422.5,-217 1422.5,-261 1605.5,-261 1605.5,-217 1422.5,-217"/>
<text text-anchor="start" x="1430.5" y="-248" font-family="FreeSans" font-size="10.00">std::vector&lt; Mezzanine</text>
<text text-anchor="start" x="1430.5" y="-236" font-family="FreeSans" font-size="10.00">::Physics::StickyConstraintConstruction</text>
<text text-anchor="middle" x="1514" y="-224" font-family="FreeSans" font-size="10.00">Info &gt;</text>
</g>
<!-- Node2&#45;&gt;Node1 -->
<g id="edge2" class="edge"><title>Node2&#45;&gt;Node1</title>
<path fill="none" stroke="#9a32cd" stroke-dasharray="5,2" d="M1518.27,-206.731C1521.9,-167.919 1523.25,-101.782 1499,-52 1495.54,-44.9041 1489.97,-38.5509 1484.15,-33.2683"/>
<polygon fill="#9a32cd" stroke="#9a32cd" points="1514.76,-206.607 1517.2,-216.917 1521.72,-207.337 1514.76,-206.607"/>
<text text-anchor="middle" x="1552.5" y="-137" font-family="FreeSans" font-size="10.00"> CreationQueue</text>
</g>
<!-- Node3 -->
<g id="node4" class="node"><title>Node3</title>
<a xlink:href="structMezzanine_1_1Physics_1_1StickyConstraintConstructionInfo.xhtml" target="_top" xlink:title="Simple struct for holding information on how sticky constraints should be constructed.">
<polygon fill="none" stroke="black" points="1438,-363 1438,-395 1600,-395 1600,-363 1438,-363"/>
<text text-anchor="start" x="1446" y="-382" font-family="FreeSans" font-size="10.00">Mezzanine::Physics</text>
<text text-anchor="middle" x="1519" y="-370" font-family="FreeSans" font-size="10.00">::StickyConstraintConstructionInfo</text>
</a>
</g>
<!-- Node3&#45;&gt;Node2 -->
<g id="edge4" class="edge"><title>Node3&#45;&gt;Node2</title>
<path fill="none" stroke="#9a32cd" stroke-dasharray="5,2" d="M1518.07,-352.913C1517.13,-326.546 1515.69,-286.236 1514.8,-261.309"/>
<polygon fill="#9a32cd" stroke="#9a32cd" points="1514.57,-353.072 1518.43,-362.94 1521.57,-352.822 1514.57,-353.072"/>
<text text-anchor="middle" x="1538" y="-335" font-family="FreeSans" font-size="10.00"> elements</text>
</g>
<!-- Node4 -->
<g id="node6" class="node"><title>Node4</title>
<a xlink:href="classMezzanine_1_1Transform.xhtml" target="_top" xlink:title="Stores information about relative location and rotation in 3d space.">
<polygon fill="none" stroke="black" points="1435,-975 1435,-995 1545,-995 1545,-975 1435,-975"/>
<text text-anchor="middle" x="1490" y="-982" font-family="FreeSans" font-size="10.00">Mezzanine::Transform</text>
</a>
</g>
<!-- Node4&#45;&gt;Node3 -->
<g id="edge6" class="edge"><title>Node4&#45;&gt;Node3</title>
<path fill="none" stroke="#9a32cd" stroke-dasharray="5,2" d="M1503.76,-966.155C1513.19,-951.371 1524,-929.869 1524,-909 1524,-909 1524,-909 1524,-467 1524,-441.904 1521.95,-412.847 1520.47,-395.203"/>
<polygon fill="#9a32cd" stroke="#9a32cd" points="1500.59,-964.583 1497.89,-974.826 1506.39,-968.507 1500.59,-964.583"/>
<text text-anchor="middle" x="1541" y="-665" font-family="FreeSans" font-size="10.00"> TransA</text>
<text text-anchor="middle" x="1541" y="-653" font-family="FreeSans" font-size="10.00">TransB</text>
</g>
<!-- Node38 -->
<g id="node79" class="node"><title>Node38</title>
<a xlink:href="classMezzanine_1_1AttachableChild.xhtml" target="_top" xlink:title="This class is the base class for objects that can be attached to AttachableParent.">
<polygon fill="none" stroke="black" points="1297.5,-899 1297.5,-919 1432.5,-919 1432.5,-899 1297.5,-899"/>
<text text-anchor="middle" x="1365" y="-906" font-family="FreeSans" font-size="10.00">Mezzanine::AttachableChild</text>
</a>
</g>
<!-- Node4&#45;&gt;Node38 -->
<g id="edge88" class="edge"><title>Node4&#45;&gt;Node38</title>
<path fill="none" stroke="#9a32cd" stroke-dasharray="5,2" d="M1464.57,-969.536C1439.81,-954.483 1402.9,-932.044 1381.67,-919.134"/>
<polygon fill="#9a32cd" stroke="#9a32cd" points="1463.04,-972.703 1473.4,-974.908 1466.67,-966.722 1463.04,-972.703"/>
<text text-anchor="middle" x="1464" y="-947" font-family="FreeSans" font-size="10.00"> LocalXform</text>
</g>
<!-- Node5 -->
<g id="node8" class="node"><title>Node5</title>
<a xlink:href="classMezzanine_1_1Vector3.xhtml" target="_top" xlink:title="This is used to represent a point in space, or a vector through space.">
<polygon fill="none" stroke="black" points="1377,-1045 1377,-1065 1477,-1065 1477,-1045 1377,-1045"/>
<text text-anchor="middle" x="1427" y="-1052" font-family="FreeSans" font-size="10.00">Mezzanine::Vector3</text>
</a>
</g>
<!-- Node5&#45;&gt;Node4 -->
<g id="edge8" class="edge"><title>Node5&#45;&gt;Node4</title>
<path fill="none" stroke="#9a32cd" stroke-dasharray="5,2" d="M1442.91,-1037.32C1454.96,-1023.93 1471.08,-1006.02 1480.99,-995.011"/>
<polygon fill="#9a32cd" stroke="#9a32cd" points="1440.11,-1035.2 1436.03,-1044.97 1445.32,-1039.88 1440.11,-1035.2"/>
<text text-anchor="middle" x="1482" y="-1017" font-family="FreeSans" font-size="10.00"> Location</text>
</g>
<!-- Node6 -->
<g id="node10" class="node"><title>Node6</title>
<a xlink:href="classMezzanine_1_1Quaternion.xhtml" target="_top" xlink:title="This is used to store information about rotation in 3d space.">
<polygon fill="none" stroke="black" points="1495,-1045 1495,-1065 1609,-1065 1609,-1045 1495,-1045"/>
<text text-anchor="middle" x="1552" y="-1052" font-family="FreeSans" font-size="10.00">Mezzanine::Quaternion</text>
</a>
</g>
<!-- Node6&#45;&gt;Node4 -->
<g id="edge10" class="edge"><title>Node6&#45;&gt;Node4</title>
<path fill="none" stroke="#9a32cd" stroke-dasharray="5,2" d="M1536.34,-1037.32C1524.48,-1023.93 1508.62,-1006.02 1498.87,-995.011"/>
<polygon fill="#9a32cd" stroke="#9a32cd" points="1533.87,-1039.81 1543.12,-1044.97 1539.11,-1035.16 1533.87,-1039.81"/>
<text text-anchor="middle" x="1543.5" y="-1017" font-family="FreeSans" font-size="10.00"> Rotation</text>
</g>
<!-- Node7 -->
<g id="node12" class="node"><title>Node7</title>
<a xlink:href="classMezzanine_1_1ActorRigid.xhtml" target="_top" xlink:title="This is the actor class for Rigid Objects.">
<polygon fill="none" stroke="black" points="1314,-457 1314,-477 1426,-477 1426,-457 1314,-457"/>
<text text-anchor="middle" x="1370" y="-464" font-family="FreeSans" font-size="10.00">Mezzanine::ActorRigid</text>
</a>
</g>
<!-- Node7&#45;&gt;Node3 -->
<g id="edge12" class="edge"><title>Node7&#45;&gt;Node3</title>
<path fill="none" stroke="#9a32cd" stroke-dasharray="5,2" d="M1395.91,-451.696C1422.74,-435.849 1464.49,-411.196 1491.79,-395.072"/>
<polygon fill="#9a32cd" stroke="#9a32cd" points="1393.92,-448.806 1387.09,-456.905 1397.48,-454.834 1393.92,-448.806"/>
<text text-anchor="middle" x="1469.5" y="-429" font-family="FreeSans" font-size="10.00"> ActA</text>
<text text-anchor="middle" x="1469.5" y="-417" font-family="FreeSans" font-size="10.00">ActB</text>
</g>
<!-- Node42 -->
<g id="node90" class="node"><title>Node42</title>
<a xlink:href="classMezzanine_1_1Physics_1_1Constraint.xhtml" target="_top" xlink:title="This is the base class for all constraints supported.">
<polygon fill="none" stroke="black" points="1320,-363 1320,-395 1420,-395 1420,-363 1320,-363"/>
<text text-anchor="start" x="1328" y="-382" font-family="FreeSans" font-size="10.00">Mezzanine::Physics</text>
<text text-anchor="middle" x="1370" y="-370" font-family="FreeSans" font-size="10.00">::Constraint</text>
</a>
</g>
<!-- Node7&#45;&gt;Node42 -->
<g id="edge100" class="edge"><title>Node7&#45;&gt;Node42</title>
<path fill="none" stroke="#9a32cd" stroke-dasharray="5,2" d="M1370,-446.706C1370,-431.072 1370,-409.746 1370,-395.233"/>
<polygon fill="#9a32cd" stroke="#9a32cd" points="1366.5,-446.905 1370,-456.905 1373.5,-446.905 1366.5,-446.905"/>
<text text-anchor="middle" x="1382.5" y="-429" font-family="FreeSans" font-size="10.00"> ActA</text>
<text text-anchor="middle" x="1382.5" y="-417" font-family="FreeSans" font-size="10.00">ActB</text>
</g>
<!-- Node8 -->
<g id="node14" class="node"><title>Node8</title>
<a xlink:href="classMezzanine_1_1ActorBase.xhtml" target="_top" xlink:title="This is the base class from which all the actors inherit.">
<polygon fill="none" stroke="black" points="1285,-523 1285,-543 1397,-543 1397,-523 1285,-523"/>
<text text-anchor="middle" x="1341" y="-530" font-family="FreeSans" font-size="10.00">Mezzanine::ActorBase</text>
</a>
</g>
<!-- Node8&#45;&gt;Node7 -->
<g id="edge14" class="edge"><title>Node8&#45;&gt;Node7</title>
<path fill="none" stroke="midnightblue" d="M1349.45,-513.78C1354.71,-501.791 1361.28,-486.844 1365.55,-477.118"/>
<polygon fill="midnightblue" stroke="midnightblue" points="1346.22,-512.413 1345.4,-522.976 1352.63,-515.229 1346.22,-512.413"/>
</g>
<!-- Node9 -->
<g id="node16" class="node"><title>Node9</title>
<a xlink:href="classMezzanine_1_1NonStaticWorldObject.xhtml" target="_top" xlink:title="This is a small extention of the WorldObject class that adds features common to non&#45;static objects...">
<polygon fill="none" stroke="black" points="1230,-599 1230,-631 1364,-631 1364,-599 1230,-599"/>
<text text-anchor="start" x="1238" y="-618" font-family="FreeSans" font-size="10.00">Mezzanine::NonStaticWorld</text>
<text text-anchor="middle" x="1297" y="-606" font-family="FreeSans" font-size="10.00">Object</text>
</a>
</g>
<!-- Node9&#45;&gt;Node8 -->
<g id="edge16" class="edge"><title>Node9&#45;&gt;Node8</title>
<path fill="none" stroke="midnightblue" d="M1310.59,-589.673C1318.94,-574.121 1329.18,-555.027 1335.39,-543.448"/>
<polygon fill="midnightblue" stroke="midnightblue" points="1307.34,-588.333 1305.69,-598.799 1313.51,-591.643 1307.34,-588.333"/>
</g>
<!-- Node10 -->
<g id="node18" class="node"><title>Node10</title>
<a xlink:href="classMezzanine_1_1WorldObject.xhtml" target="_top" xlink:title="This is the base class from which classes that are insertable into the physical world.">
<polygon fill="none" stroke="black" points="671,-705 671,-725 791,-725 791,-705 671,-705"/>
<text text-anchor="middle" x="731" y="-712" font-family="FreeSans" font-size="10.00">Mezzanine::WorldObject</text>
</a>
</g>
<!-- Node10&#45;&gt;Node9 -->
<g id="edge18" class="edge"><title>Node10&#45;&gt;Node9</title>
<path fill="none" stroke="midnightblue" d="M775.097,-702.38C789.619,-698.587 805.912,-694.717 821,-692 895.34,-678.614 918.656,-698.813 990,-674 1008.87,-667.438 1009.21,-656.781 1028,-650 1063.99,-637.01 1162.68,-626.409 1229.96,-620.398"/>
<polygon fill="midnightblue" stroke="midnightblue" points="774.121,-699.018 765.362,-704.979 775.927,-705.781 774.121,-699.018"/>
</g>
<!-- Node14 -->
<g id="node26" class="node"><title>Node14</title>
<a xlink:href="classMezzanine_1_1WorldObjectPhysicsSettings.xhtml" target="_top" xlink:title="This is a base helper class for configuring physics settings of a world object.">
<polygon fill="none" stroke="black" points="559.5,-599 559.5,-631 712.5,-631 712.5,-599 559.5,-599"/>
<text text-anchor="start" x="567.5" y="-618" font-family="FreeSans" font-size="10.00">Mezzanine::WorldObjectPhysics</text>
<text text-anchor="middle" x="636" y="-606" font-family="FreeSans" font-size="10.00">Settings</text>
</a>
</g>
<!-- Node10&#45;&gt;Node14 -->
<g id="edge28" class="edge"><title>Node10&#45;&gt;Node14</title>
<path fill="none" stroke="#9a32cd" stroke-dasharray="5,2" d="M728.019,-694.89C725.035,-680.883 719.202,-662.537 708,-650 701.055,-642.227 691.999,-636.004 682.666,-631.091"/>
<polygon fill="#9a32cd" stroke="#9a32cd" points="724.624,-695.783 729.849,-704.999 731.512,-694.536 724.624,-695.783"/>
<text text-anchor="middle" x="737.5" y="-659" font-family="FreeSans" font-size="10.00"> Parent</text>
</g>
<!-- Node19 -->
<g id="node38" class="node"><title>Node19</title>
<a xlink:href="classMezzanine_1_1Physics_1_1Collision.xhtml" target="_top" xlink:title="This is an event class used to track collsions in the physics world.">
<polygon fill="none" stroke="black" points="391,-599 391,-631 491,-631 491,-599 391,-599"/>
<text text-anchor="start" x="399" y="-618" font-family="FreeSans" font-size="10.00">Mezzanine::Physics</text>
<text text-anchor="middle" x="441" y="-606" font-family="FreeSans" font-size="10.00">::Collision</text>
</a>
</g>
<!-- Node10&#45;&gt;Node19 -->
<g id="edge44" class="edge"><title>Node10&#45;&gt;Node19</title>
<path fill="none" stroke="#9a32cd" stroke-dasharray="5,2" d="M672.85,-702.507C646.564,-695.783 615.52,-686.309 589,-674 571.558,-665.904 570.353,-658.285 553,-650 533.513,-640.696 510.962,-633.096 491.224,-627.384"/>
<polygon fill="#9a32cd" stroke="#9a32cd" points="672.123,-705.933 682.672,-704.95 673.813,-699.14 672.123,-705.933"/>
<text text-anchor="middle" x="608" y="-665" font-family="FreeSans" font-size="10.00"> ObjectA</text>
<text text-anchor="middle" x="608" y="-653" font-family="FreeSans" font-size="10.00">ObjectB</text>
</g>
<!-- Node22 -->
<g id="node45" class="node"><title>Node22</title>
<a xlink:href="classMezzanine_1_1WorldObjectGraphicsSettings.xhtml" target="_top" xlink:title="This is a helper class for configuring graphics settings of a World Object.">
<polygon fill="none" stroke="black" points="876,-599 876,-631 1034,-631 1034,-599 876,-599"/>
<text text-anchor="start" x="884" y="-618" font-family="FreeSans" font-size="10.00">Mezzanine::WorldObjectGraphics</text>
<text text-anchor="middle" x="955" y="-606" font-family="FreeSans" font-size="10.00">Settings</text>
</a>
</g>
<!-- Node10&#45;&gt;Node22 -->
<g id="edge50" class="edge"><title>Node10&#45;&gt;Node22</title>
<path fill="none" stroke="#9a32cd" stroke-dasharray="5,2" d="M779.919,-702.449C824.472,-690.96 883.686,-675.515 886,-674 897.381,-666.546 895.101,-659.332 905,-650 912.247,-643.168 920.914,-636.634 928.98,-631.1"/>
<polygon fill="#9a32cd" stroke="#9a32cd" points="778.904,-699.097 770.093,-704.981 780.65,-705.875 778.904,-699.097"/>
<text text-anchor="middle" x="920.5" y="-659" font-family="FreeSans" font-size="10.00"> Parent</text>
</g>
<!-- Node11 -->
<g id="node20" class="node"><title>Node11</title>
<a xlink:href="classMezzanine_1_1Audio_1_1SoundSet.xhtml" target="_top" xlink:title="This is a vector that stores sounds.">
<polygon fill="none" stroke="black" points="661.5,-817 661.5,-837 800.5,-837 800.5,-817 661.5,-817"/>
<text text-anchor="middle" x="731" y="-824" font-family="FreeSans" font-size="10.00">Mezzanine::Audio::SoundSet</text>
</a>
</g>
<!-- Node11&#45;&gt;Node10 -->
<g id="edge20" class="edge"><title>Node11&#45;&gt;Node10</title>
<path fill="none" stroke="#9a32cd" stroke-dasharray="5,2" d="M731,-806.518C731,-782.523 731,-743.712 731,-725.311"/>
<polygon fill="#9a32cd" stroke="#9a32cd" points="727.5,-806.664 731,-816.664 734.5,-806.664 727.5,-806.664"/>
<text text-anchor="middle" x="763" y="-771" font-family="FreeSans" font-size="10.00"> ObjectSounds</text>
</g>
<!-- Node12 -->
<g id="node22" class="node"><title>Node12</title>
<a xlink:title="STL class.">
<polygon fill="none" stroke="#bfbfbf" points="674.5,-899 674.5,-919 787.5,-919 787.5,-899 674.5,-899"/>
<text text-anchor="middle" x="731" y="-906" font-family="FreeSans" font-size="10.00">std::vector&lt; iSound * &gt;</text>
</a>
</g>
<!-- Node12&#45;&gt;Node11 -->
<g id="edge22" class="edge"><title>Node12&#45;&gt;Node11</title>
<path fill="none" stroke="midnightblue" d="M731,-888.75C731,-872.361 731,-849.965 731,-837.137"/>
<polygon fill="midnightblue" stroke="midnightblue" points="727.5,-888.945 731,-898.945 734.5,-888.945 727.5,-888.945"/>
</g>
<!-- Node13 -->
<g id="node24" class="node"><title>Node13</title>
<polygon fill="none" stroke="#bfbfbf" points="716.5,-975 716.5,-995 745.5,-995 745.5,-975 716.5,-975"/>
<text text-anchor="middle" x="731" y="-982" font-family="FreeSans" font-size="10.00">T</text>
</g>
<!-- Node13&#45;&gt;Node12 -->
<g id="edge24" class="edge"><title>Node13&#45;&gt;Node12</title>
<path fill="none" stroke="#9a32cd" stroke-dasharray="5,2" d="M731,-964.579C731,-949.864 731,-930.639 731,-919.087"/>
<polygon fill="#9a32cd" stroke="#9a32cd" points="727.5,-964.75 731,-974.75 734.5,-964.75 727.5,-964.75"/>
<text text-anchor="middle" x="752" y="-947" font-family="FreeSans" font-size="10.00"> elements</text>
</g>
<!-- Node14&#45;&gt;Node10 -->
<g id="edge26" class="edge"><title>Node14&#45;&gt;Node10</title>
<path fill="none" stroke="#9a32cd" stroke-dasharray="5,2" d="M630.535,-641.12C629.657,-652.102 630.668,-664.506 637,-674 647.176,-689.256 664.38,-698.873 681.31,-704.919"/>
<polygon fill="#9a32cd" stroke="#9a32cd" points="634.011,-641.537 631.845,-631.166 627.07,-640.624 634.011,-641.537"/>
<text text-anchor="middle" x="672.5" y="-659" font-family="FreeSans" font-size="10.00"> PhysicsSettings</text>
</g>
<!-- Node15 -->
<g id="node29" class="node"><title>Node15</title>
<a xlink:href="classMezzanine_1_1Physics_1_1CollisionShape.xhtml" target="_top" xlink:title="This is the base class for all collision shapes.">
<polygon fill="none" stroke="black" points="479,-699 479,-731 579,-731 579,-699 479,-699"/>
<text text-anchor="start" x="487" y="-718" font-family="FreeSans" font-size="10.00">Mezzanine::Physics</text>
<text text-anchor="middle" x="529" y="-706" font-family="FreeSans" font-size="10.00">::CollisionShape</text>
</a>
</g>
<!-- Node15&#45;&gt;Node14 -->
<g id="edge30" class="edge"><title>Node15&#45;&gt;Node14</title>
<path fill="none" stroke="#9a32cd" stroke-dasharray="5,2" d="M488.636,-693.202C471.025,-680.867 456.852,-664.957 469,-650 480.719,-635.571 521.083,-626.877 559.19,-621.764"/>
<polygon fill="#9a32cd" stroke="#9a32cd" points="487.168,-696.423 497.457,-698.951 490.99,-690.559 487.168,-696.423"/>
<text text-anchor="middle" x="511" y="-659" font-family="FreeSans" font-size="10.00"> WorldObjectShape</text>
</g>
<!-- Node16 -->
<g id="node31" class="node"><title>Node16</title>
<a xlink:title="STL class.">
<polygon fill="none" stroke="#bfbfbf" points="561.5,-817 561.5,-837 618.5,-837 618.5,-817 561.5,-817"/>
<text text-anchor="middle" x="590" y="-824" font-family="FreeSans" font-size="10.00">std::string</text>
</a>
</g>
<!-- Node16&#45;&gt;Node10 -->
<g id="edge36" class="edge"><title>Node16&#45;&gt;Node10</title>
<path fill="none" stroke="#9a32cd" stroke-dasharray="5,2" d="M611.036,-810.29C640.612,-786.798 693.596,-744.711 718.019,-725.311"/>
<polygon fill="#9a32cd" stroke="#9a32cd" points="608.666,-807.704 603.012,-816.664 613.019,-813.185 608.666,-807.704"/>
<text text-anchor="middle" x="692" y="-771" font-family="FreeSans" font-size="10.00"> Name</text>
</g>
<!-- Node16&#45;&gt;Node15 -->
<g id="edge32" class="edge"><title>Node16&#45;&gt;Node15</title>
<path fill="none" stroke="#9a32cd" stroke-dasharray="5,2" d="M579.505,-807.73C567.702,-786.059 548.747,-751.257 537.724,-731.017"/>
<polygon fill="#9a32cd" stroke="#9a32cd" points="576.514,-809.556 584.371,-816.664 582.661,-806.208 576.514,-809.556"/>
<text text-anchor="middle" x="585" y="-771" font-family="FreeSans" font-size="10.00"> Name</text>
</g>
<!-- Node17 -->
<g id="node33" class="node"><title>Node17</title>
<a xlink:title="STL class.">
<polygon fill="none" stroke="#bfbfbf" points="544.5,-893 544.5,-925 635.5,-925 635.5,-893 544.5,-893"/>
<text text-anchor="start" x="552.5" y="-912" font-family="FreeSans" font-size="10.00">std::basic_string&lt;</text>
<text text-anchor="middle" x="590" y="-900" font-family="FreeSans" font-size="10.00"> char &gt;</text>
</a>
</g>
<!-- Node17&#45;&gt;Node16 -->
<g id="edge34" class="edge"><title>Node17&#45;&gt;Node16</title>
<path fill="none" stroke="midnightblue" d="M590,-882.789C590,-867.403 590,-848.809 590,-837.448"/>
<polygon fill="midnightblue" stroke="midnightblue" points="586.5,-882.799 590,-892.799 593.5,-882.799 586.5,-882.799"/>
</g>
<!-- Node18 -->
<g id="node36" class="node"><title>Node18</title>
<polygon fill="none" stroke="#bfbfbf" points="637,-517 637,-549 729,-549 729,-517 637,-517"/>
<text text-anchor="start" x="645" y="-536" font-family="FreeSans" font-size="10.00">std::set&lt; Physics::</text>
<text text-anchor="middle" x="683" y="-524" font-family="FreeSans" font-size="10.00">Collision * &gt;</text>
</g>
<!-- Node18&#45;&gt;Node10 -->
<g id="edge38" class="edge"><title>Node18&#45;&gt;Node10</title>
<path fill="none" stroke="#9a32cd" stroke-dasharray="5,2" d="M704.187,-557.25C722.205,-579.603 746.741,-614.587 757,-650 759.968,-660.245 759.974,-663.756 757,-674 753.663,-685.494 746.028,-696.852 739.89,-704.688"/>
<polygon fill="#9a32cd" stroke="#9a32cd" points="706.71,-554.809 697.644,-549.327 701.313,-559.266 706.71,-554.809"/>
<text text-anchor="middle" x="787.5" y="-612" font-family="FreeSans" font-size="10.00"> CurrentCollisions</text>
</g>
<!-- Node19&#45;&gt;Node18 -->
<g id="edge40" class="edge"><title>Node19&#45;&gt;Node18</title>
<path fill="none" stroke="#9a32cd" stroke-dasharray="5,2" d="M497.837,-595.741C540.141,-581.407 597.167,-562.084 636.707,-548.686"/>
<polygon fill="#9a32cd" stroke="#9a32cd" points="496.582,-592.471 488.235,-598.995 498.829,-599.101 496.582,-592.471"/>
<text text-anchor="middle" x="588" y="-571" font-family="FreeSans" font-size="10.00"> keys</text>
</g>
<!-- Node20 -->
<g id="node40" class="node"><title>Node20</title>
<polygon fill="none" stroke="#bfbfbf" points="223,-705 223,-725 319,-725 319,-705 223,-705"/>
<text text-anchor="middle" x="271" y="-712" font-family="FreeSans" font-size="10.00">std::vector&lt; Real &gt;</text>
</g>
<!-- Node20&#45;&gt;Node19 -->
<g id="edge42" class="edge"><title>Node20&#45;&gt;Node19</title>
<path fill="none" stroke="#9a32cd" stroke-dasharray="5,2" d="M271.075,-694.198C272.265,-679.86 276.238,-661.404 288,-650 302.575,-635.869 352.014,-626.331 390.796,-620.826"/>
<polygon fill="#9a32cd" stroke="#9a32cd" points="267.56,-694.456 270.621,-704.599 274.554,-694.761 267.56,-694.456"/>
<text text-anchor="middle" x="335" y="-659" font-family="FreeSans" font-size="10.00"> PenetrationDistances</text>
</g>
<!-- Node21 -->
<g id="node43" class="node"><title>Node21</title>
<a xlink:href="structMezzanine_1_1Physics_1_1CollisionInternalData.xhtml" target="_top" xlink:title="Used to insulate the interface from the implementation details for bullet.">
<polygon fill="none" stroke="black" points="337,-699 337,-731 447,-731 447,-699 337,-699"/>
<text text-anchor="start" x="345" y="-718" font-family="FreeSans" font-size="10.00">Mezzanine::Physics</text>
<text text-anchor="middle" x="392" y="-706" font-family="FreeSans" font-size="10.00">::CollisionInternalData</text>
</a>
</g>
<!-- Node21&#45;&gt;Node19 -->
<g id="edge46" class="edge"><title>Node21&#45;&gt;Node19</title>
<path fill="none" stroke="#9a32cd" stroke-dasharray="5,2" d="M386.034,-688.613C384.588,-676.243 384.913,-661.691 391,-650 394.964,-642.387 401.425,-636.088 408.406,-631.033"/>
<polygon fill="#9a32cd" stroke="#9a32cd" points="382.627,-689.472 387.661,-698.794 389.54,-688.367 382.627,-689.472"/>
<text text-anchor="middle" x="418.5" y="-659" font-family="FreeSans" font-size="10.00"> InternalData</text>
</g>
<!-- Node22&#45;&gt;Node10 -->
<g id="edge48" class="edge"><title>Node22&#45;&gt;Node10</title>
<path fill="none" stroke="#9a32cd" stroke-dasharray="5,2" d="M865.991,-632.249C842.3,-637.775 820.409,-644.016 810,-650 797.192,-657.363 798.114,-664.266 787,-674 773.948,-685.432 757.86,-696.976 746.282,-704.888"/>
<polygon fill="#9a32cd" stroke="#9a32cd" points="866.883,-635.635 875.86,-630.007 865.333,-628.809 866.883,-635.635"/>
<text text-anchor="middle" x="848" y="-659" font-family="FreeSans" font-size="10.00"> GraphicsSettings</text>
</g>
<!-- Node23 -->
<g id="node48" class="node"><title>Node23</title>
<a xlink:href="classMezzanine_1_1Graphics_1_1Mesh.xhtml" target="_top" xlink:title="This class is used to check and modify the properties of a graphics mesh.">
<polygon fill="none" stroke="black" points="992.5,-699 992.5,-731 1097.5,-731 1097.5,-699 992.5,-699"/>
<text text-anchor="start" x="1000.5" y="-718" font-family="FreeSans" font-size="10.00">Mezzanine::Graphics</text>
<text text-anchor="middle" x="1045" y="-706" font-family="FreeSans" font-size="10.00">::Mesh</text>
</a>
</g>
<!-- Node23&#45;&gt;Node22 -->
<g id="edge52" class="edge"><title>Node23&#45;&gt;Node22</title>
<path fill="none" stroke="#9a32cd" stroke-dasharray="5,2" d="M1025.66,-691.194C1015.32,-678.713 1002.23,-663.296 990,-650 984.181,-643.676 977.568,-636.952 971.669,-631.106"/>
<polygon fill="#9a32cd" stroke="#9a32cd" points="1022.97,-693.425 1032.02,-698.921 1028.37,-688.976 1022.97,-693.425"/>
<text text-anchor="middle" x="1050.5" y="-659" font-family="FreeSans" font-size="10.00"> WorldObjectMesh</text>
</g>
<!-- Node24 -->
<g id="node50" class="node"><title>Node24</title>
<a xlink:href="classMezzanine_1_1Graphics_1_1InternalMeshData.xhtml" target="_top" xlink:title="This class is used to store the internal structures needed by the Mesh class.">
<polygon fill="none" stroke="black" points="978.5,-811 978.5,-843 1083.5,-843 1083.5,-811 978.5,-811"/>
<text text-anchor="start" x="986.5" y="-830" font-family="FreeSans" font-size="10.00">Mezzanine::Graphics</text>
<text text-anchor="middle" x="1031" y="-818" font-family="FreeSans" font-size="10.00">::InternalMeshData</text>
</a>
</g>
<!-- Node24&#45;&gt;Node23 -->
<g id="edge54" class="edge"><title>Node24&#45;&gt;Node23</title>
<path fill="none" stroke="#9a32cd" stroke-dasharray="5,2" d="M1034.27,-800.811C1036.98,-779.196 1040.72,-749.218 1043,-731.017"/>
<polygon fill="#9a32cd" stroke="#9a32cd" points="1030.77,-800.596 1033.01,-810.953 1037.72,-801.465 1030.77,-800.596"/>
<text text-anchor="middle" x="1050.5" y="-771" font-family="FreeSans" font-size="10.00"> IMD</text>
</g>
<!-- Node25 -->
<g id="node52" class="node"><title>Node25</title>
<a xlink:href="classMezzanine_1_1Graphics_1_1Skeleton.xhtml" target="_top" xlink:title="This class encapsulates the Skeletal animation functionality of a Mesh.">
<polygon fill="none" stroke="black" points="145.5,-811 145.5,-843 250.5,-843 250.5,-811 145.5,-811"/>
<text text-anchor="start" x="153.5" y="-830" font-family="FreeSans" font-size="10.00">Mezzanine::Graphics</text>
<text text-anchor="middle" x="198" y="-818" font-family="FreeSans" font-size="10.00">::Skeleton</text>
</a>
</g>
<!-- Node25&#45;&gt;Node23 -->
<g id="edge56" class="edge"><title>Node25&#45;&gt;Node23</title>
<path fill="none" stroke="#9a32cd" stroke-dasharray="5,2" d="M260.692,-823.805C411.776,-816.044 784.509,-796.503 797,-792 822.422,-782.835 820.926,-766.077 846,-756 902.983,-733.099 923.391,-752.773 983,-738 990.466,-736.15 998.271,-733.692 1005.73,-731.073"/>
<polygon fill="#9a32cd" stroke="#9a32cd" points="260.443,-820.313 250.636,-824.321 260.802,-827.304 260.443,-820.313"/>
<text text-anchor="middle" x="869" y="-771" font-family="FreeSans" font-size="10.00"> MeshSkel</text>
</g>
<!-- Node27 -->
<g id="node56" class="node"><title>Node27</title>
<a xlink:href="classMezzanine_1_1Graphics_1_1Bone.xhtml" target="_top" xlink:title="This class encapsulates the bones contained in a skeleton used for animation.">
<polygon fill="none" stroke="black" points="34.5,-699 34.5,-731 139.5,-731 139.5,-699 34.5,-699"/>
<text text-anchor="start" x="42.5" y="-718" font-family="FreeSans" font-size="10.00">Mezzanine::Graphics</text>
<text text-anchor="middle" x="87" y="-706" font-family="FreeSans" font-size="10.00">::Bone</text>
</a>
</g>
<!-- Node25&#45;&gt;Node27 -->
<g id="edge64" class="edge"><title>Node25&#45;&gt;Node27</title>
<path fill="none" stroke="#9a32cd" stroke-dasharray="5,2" d="M156.077,-805.311C150.026,-801.298 144.123,-796.831 139,-792 119.989,-774.071 104.215,-747.998 95.1946,-731.269"/>
<polygon fill="#9a32cd" stroke="#9a32cd" points="154.635,-808.536 164.973,-810.854 158.337,-802.595 154.635,-808.536"/>
<text text-anchor="middle" x="150" y="-771" font-family="FreeSans" font-size="10.00"> Host</text>
</g>
<!-- Node26 -->
<g id="node54" class="node"><title>Node26</title>
<polygon fill="none" stroke="#bfbfbf" points="86.5,-605 86.5,-625 191.5,-625 191.5,-605 86.5,-605"/>
<text text-anchor="middle" x="139" y="-612" font-family="FreeSans" font-size="10.00">std::vector&lt; Bone * &gt;</text>
</g>
<!-- Node26&#45;&gt;Node25 -->
<g id="edge58" class="edge"><title>Node26&#45;&gt;Node25</title>
<path fill="none" stroke="#9a32cd" stroke-dasharray="5,2" d="M152.421,-633.643C155.618,-638.753 158.75,-644.426 161,-650 172.897,-679.476 189.124,-773.07 195.386,-810.902"/>
<polygon fill="#9a32cd" stroke="#9a32cd" points="155.241,-631.563 146.775,-625.194 149.421,-635.453 155.241,-631.563"/>
<text text-anchor="middle" x="198" y="-712" font-family="FreeSans" font-size="10.00"> Bones</text>
</g>
<!-- Node27&#45;&gt;Node26 -->
<g id="edge60" class="edge"><title>Node27&#45;&gt;Node26</title>
<path fill="none" stroke="#9a32cd" stroke-dasharray="5,2" d="M98.9842,-689.747C104.846,-677.635 112.109,-662.972 119,-650 123.531,-641.471 128.989,-631.967 133.057,-625.017"/>
<polygon fill="#9a32cd" stroke="#9a32cd" points="95.7948,-688.304 94.6175,-698.833 102.104,-691.336 95.7948,-688.304"/>
<text text-anchor="middle" x="140" y="-659" font-family="FreeSans" font-size="10.00"> elements</text>
</g>
<!-- Node28 -->
<g id="node58" class="node"><title>Node28</title>
<a xlink:href="classMezzanine_1_1TransformableChildObject.xhtml" target="_top" xlink:title="This is an interface for all child 3D objects that can have their full transforms manipulated...">
<polygon fill="none" stroke="black" points="0,-811 0,-843 128,-843 128,-811 0,-811"/>
<text text-anchor="start" x="8" y="-830" font-family="FreeSans" font-size="10.00">Mezzanine::Transformable</text>
<text text-anchor="middle" x="64" y="-818" font-family="FreeSans" font-size="10.00">ChildObject</text>
</a>
</g>
<!-- Node28&#45;&gt;Node27 -->
<g id="edge62" class="edge"><title>Node28&#45;&gt;Node27</title>
<path fill="none" stroke="midnightblue" d="M69.3174,-801.107C73.7606,-779.47 79.956,-749.301 83.7108,-731.017"/>
<polygon fill="midnightblue" stroke="midnightblue" points="65.8786,-800.453 67.2953,-810.953 72.7355,-801.862 65.8786,-800.453"/>
</g>
<!-- Node29 -->
<g id="node61" class="node"><title>Node29</title>
<a xlink:href="classMezzanine_1_1Graphics_1_1InternalSkeletonData.xhtml" target="_top" xlink:title="This class is used to store the internal structures needed by the Skeleton class.">
<polygon fill="none" stroke="black" points="142,-893 142,-925 254,-925 254,-893 142,-893"/>
<text text-anchor="start" x="150" y="-912" font-family="FreeSans" font-size="10.00">Mezzanine::Graphics</text>
<text text-anchor="middle" x="198" y="-900" font-family="FreeSans" font-size="10.00">::InternalSkeletonData</text>
</a>
</g>
<!-- Node29&#45;&gt;Node25 -->
<g id="edge66" class="edge"><title>Node29&#45;&gt;Node25</title>
<path fill="none" stroke="#9a32cd" stroke-dasharray="5,2" d="M198,-882.567C198,-869.596 198,-854.39 198,-843.167"/>
<polygon fill="#9a32cd" stroke="#9a32cd" points="194.5,-882.799 198,-892.799 201.5,-882.799 194.5,-882.799"/>
<text text-anchor="middle" x="207.5" y="-865" font-family="FreeSans" font-size="10.00"> ISD</text>
</g>
<!-- Node30 -->
<g id="node63" class="node"><title>Node30</title>
<polygon fill="none" stroke="#bfbfbf" points="1100.5,-817 1100.5,-837 1223.5,-837 1223.5,-817 1100.5,-817"/>
<text text-anchor="middle" x="1162" y="-824" font-family="FreeSans" font-size="10.00">std::vector&lt; SubMesh * &gt;</text>
</g>
<!-- Node30&#45;&gt;Node23 -->
<g id="edge68" class="edge"><title>Node30&#45;&gt;Node23</title>
<path fill="none" stroke="#9a32cd" stroke-dasharray="5,2" d="M1143.97,-809.74C1121.54,-788.268 1083.54,-751.895 1061.73,-731.017"/>
<polygon fill="#9a32cd" stroke="#9a32cd" points="1141.56,-812.277 1151.2,-816.664 1146.4,-807.221 1141.56,-812.277"/>
<text text-anchor="middle" x="1151.5" y="-771" font-family="FreeSans" font-size="10.00"> SubMeshes</text>
</g>
<!-- Node31 -->
<g id="node65" class="node"><title>Node31</title>
<a xlink:href="classMezzanine_1_1Graphics_1_1SubMesh.xhtml" target="_top" xlink:title="This class represents a sub&#45;section of an overall mesh.">
<polygon fill="none" stroke="black" points="1109.5,-893 1109.5,-925 1214.5,-925 1214.5,-893 1109.5,-893"/>
<text text-anchor="start" x="1117.5" y="-912" font-family="FreeSans" font-size="10.00">Mezzanine::Graphics</text>
<text text-anchor="middle" x="1162" y="-900" font-family="FreeSans" font-size="10.00">::SubMesh</text>
</a>
</g>
<!-- Node31&#45;&gt;Node30 -->
<g id="edge70" class="edge"><title>Node31&#45;&gt;Node30</title>
<path fill="none" stroke="#9a32cd" stroke-dasharray="5,2" d="M1162,-882.789C1162,-867.403 1162,-848.809 1162,-837.448"/>
<polygon fill="#9a32cd" stroke="#9a32cd" points="1158.5,-882.799 1162,-892.799 1165.5,-882.799 1158.5,-882.799"/>
<text text-anchor="middle" x="1183" y="-865" font-family="FreeSans" font-size="10.00"> elements</text>
</g>
<!-- Node32 -->
<g id="node67" class="node"><title>Node32</title>
<a xlink:href="classMezzanine_1_1Internal_1_1InternalWorldObjectGraphicsSettings.xhtml" target="_top" xlink:title="Used to store internal data about an world objects.">
<polygon fill="none" stroke="black" points="829.5,-693 829.5,-737 974.5,-737 974.5,-693 829.5,-693"/>
<text text-anchor="start" x="837.5" y="-724" font-family="FreeSans" font-size="10.00">Mezzanine::Internal</text>
<text text-anchor="start" x="837.5" y="-712" font-family="FreeSans" font-size="10.00">::InternalWorldObjectGraphics</text>
<text text-anchor="middle" x="902" y="-700" font-family="FreeSans" font-size="10.00">Settings</text>
</a>
</g>
<!-- Node32&#45;&gt;Node22 -->
<g id="edge72" class="edge"><title>Node32&#45;&gt;Node22</title>
<path fill="none" stroke="#9a32cd" stroke-dasharray="5,2" d="M932.843,-684.905C935.512,-681.403 937.965,-677.741 940,-674 947.323,-660.538 951.163,-643.398 953.116,-631.065"/>
<polygon fill="#9a32cd" stroke="#9a32cd" points="930.026,-682.818 926.32,-692.744 935.407,-687.296 930.026,-682.818"/>
<text text-anchor="middle" x="967.5" y="-659" font-family="FreeSans" font-size="10.00"> IWOGS</text>
</g>
<!-- Node33 -->
<g id="node69" class="node"><title>Node33</title>
<polygon fill="none" stroke="#bfbfbf" points="822.5,-811 822.5,-843 961.5,-843 961.5,-811 822.5,-811"/>
<text text-anchor="start" x="830.5" y="-830" font-family="FreeSans" font-size="10.00">std::map&lt; Whole, Mezzanine</text>
<text text-anchor="middle" x="892" y="-818" font-family="FreeSans" font-size="10.00">::ColourValue &gt;</text>
</g>
<!-- Node33&#45;&gt;Node32 -->
<g id="edge74" class="edge"><title>Node33&#45;&gt;Node32</title>
<path fill="none" stroke="#9a32cd" stroke-dasharray="5,2" d="M894.346,-800.73C896.07,-781.421 898.387,-755.47 900.018,-737.195"/>
<polygon fill="#9a32cd" stroke="#9a32cd" points="890.836,-800.681 893.433,-810.953 897.808,-801.304 890.836,-800.681"/>
<text text-anchor="middle" x="919.5" y="-783" font-family="FreeSans" font-size="10.00"> Specular</text>
<text text-anchor="middle" x="919.5" y="-771" font-family="FreeSans" font-size="10.00">Ambient</text>
<text text-anchor="middle" x="919.5" y="-759" font-family="FreeSans" font-size="10.00">Diffuse</text>
</g>
<!-- Node34 -->
<g id="node71" class="node"><title>Node34</title>
<a xlink:href="classMezzanine_1_1ColourValue.xhtml" target="_top" xlink:title="This is a simple class for holding 4 reals representing the colour any give object or lightsource can...">
<polygon fill="none" stroke="black" points="832.5,-899 832.5,-919 951.5,-919 951.5,-899 832.5,-899"/>
<text text-anchor="middle" x="892" y="-906" font-family="FreeSans" font-size="10.00">Mezzanine::ColourValue</text>
</a>
</g>
<!-- Node34&#45;&gt;Node33 -->
<g id="edge76" class="edge"><title>Node34&#45;&gt;Node33</title>
<path fill="none" stroke="#9a32cd" stroke-dasharray="5,2" d="M892,-888.789C892,-874.697 892,-856.15 892,-843.066"/>
<polygon fill="#9a32cd" stroke="#9a32cd" points="888.5,-888.945 892,-898.945 895.5,-888.945 888.5,-888.945"/>
<text text-anchor="middle" x="913" y="-865" font-family="FreeSans" font-size="10.00"> elements</text>
</g>
<!-- Node35 -->
<g id="node73" class="node"><title>Node35</title>
<a xlink:href="classMezzanine_1_1AttachableParent.xhtml" target="_top" xlink:title="Base class for objects that can have attachables attached to them.">
<polygon fill="none" stroke="black" points="1226,-705 1226,-725 1368,-725 1368,-705 1226,-705"/>
<text text-anchor="middle" x="1297" y="-712" font-family="FreeSans" font-size="10.00">Mezzanine::AttachableParent</text>
</a>
</g>
<!-- Node35&#45;&gt;Node9 -->
<g id="edge78" class="edge"><title>Node35&#45;&gt;Node9</title>
<path fill="none" stroke="midnightblue" d="M1297,-694.504C1297,-675.703 1297,-648.238 1297,-631.006"/>
<polygon fill="midnightblue" stroke="midnightblue" points="1293.5,-694.675 1297,-704.675 1300.5,-694.675 1293.5,-694.675"/>
</g>
<!-- Node35&#45;&gt;Node38 -->
<g id="edge90" class="edge"><title>Node35&#45;&gt;Node38</title>
<path fill="none" stroke="#9a32cd" stroke-dasharray="5,2" d="M1294.43,-735.464C1292.01,-761.738 1290.72,-808.206 1306,-844 1315.87,-867.128 1337.53,-887.445 1351.68,-898.967"/>
<polygon fill="#9a32cd" stroke="#9a32cd" points="1297.94,-735.543 1295.53,-725.227 1290.98,-734.795 1297.94,-735.543"/>
<text text-anchor="middle" x="1321.5" y="-824" font-family="FreeSans" font-size="10.00"> Parent</text>
</g>
<!-- Node36 -->
<g id="node75" class="node"><title>Node36</title>
<a xlink:href="classMezzanine_1_1AttachableBase.xhtml" target="_top" xlink:title="This class is the base class for other attachable classes and is responsible for transform updates to...">
<polygon fill="none" stroke="black" points="1232.5,-975 1232.5,-995 1367.5,-995 1367.5,-975 1232.5,-975"/>
<text text-anchor="middle" x="1300" y="-982" font-family="FreeSans" font-size="10.00">Mezzanine::AttachableBase</text>
</a>
</g>
<!-- Node36&#45;&gt;Node35 -->
<g id="edge80" class="edge"><title>Node36&#45;&gt;Node35</title>
<path fill="none" stroke="midnightblue" d="M1295.33,-964.864C1292.93,-953.518 1290.25,-939.047 1289,-926 1281.77,-850.79 1279.85,-831.116 1288,-756 1289.16,-745.277 1291.99,-733.249 1294.17,-725.009"/>
<polygon fill="midnightblue" stroke="midnightblue" points="1291.92,-965.626 1297.49,-974.635 1298.75,-964.115 1291.92,-965.626"/>
</g>
<!-- Node36&#45;&gt;Node38 -->
<g id="edge86" class="edge"><title>Node36&#45;&gt;Node38</title>
<path fill="none" stroke="midnightblue" d="M1315.29,-967.126C1328.09,-952.153 1345.91,-931.319 1356.37,-919.087"/>
<polygon fill="midnightblue" stroke="midnightblue" points="1312.61,-964.876 1308.77,-974.75 1317.93,-969.426 1312.61,-964.876"/>
</g>
<!-- Node37 -->
<g id="node77" class="node"><title>Node37</title>
<polygon fill="none" stroke="#bfbfbf" points="1345.5,-817 1345.5,-837 1496.5,-837 1496.5,-817 1345.5,-817"/>
<text text-anchor="middle" x="1421" y="-824" font-family="FreeSans" font-size="10.00">std::vector&lt; AttachableChild * &gt;</text>
</g>
<!-- Node37&#45;&gt;Node35 -->
<g id="edge82" class="edge"><title>Node37&#45;&gt;Node35</title>
<path fill="none" stroke="#9a32cd" stroke-dasharray="5,2" d="M1401.83,-809.681C1375.69,-786.077 1329.71,-744.544 1308.42,-725.311"/>
<polygon fill="#9a32cd" stroke="#9a32cd" points="1399.79,-812.559 1409.56,-816.664 1404.48,-807.364 1399.79,-812.559"/>
<text text-anchor="middle" x="1401" y="-771" font-family="FreeSans" font-size="10.00"> Attached</text>
</g>
<!-- Node38&#45;&gt;Node37 -->
<g id="edge84" class="edge"><title>Node38&#45;&gt;Node37</title>
<path fill="none" stroke="#9a32cd" stroke-dasharray="5,2" d="M1377.56,-890.614C1388.84,-874.098 1404.98,-850.459 1414.08,-837.137"/>
<polygon fill="#9a32cd" stroke="#9a32cd" points="1374.62,-888.713 1371.87,-898.945 1380.4,-892.661 1374.62,-888.713"/>
<text text-anchor="middle" x="1417" y="-865" font-family="FreeSans" font-size="10.00"> elements</text>
</g>
<!-- Node39 -->
<g id="node84" class="node"><title>Node39</title>
<polygon fill="none" stroke="#bfbfbf" points="1315,-83 1315,-115 1485,-115 1485,-83 1315,-83"/>
<text text-anchor="start" x="1323" y="-102" font-family="FreeSans" font-size="10.00">std::vector&lt; Mezzanine</text>
<text text-anchor="middle" x="1400" y="-90" font-family="FreeSans" font-size="10.00">::Physics::Generic6DofConstraint * &gt;</text>
</g>
<!-- Node39&#45;&gt;Node1 -->
<g id="edge92" class="edge"><title>Node39&#45;&gt;Node1</title>
<path fill="none" stroke="#9a32cd" stroke-dasharray="5,2" d="M1409.08,-73.3522C1412.26,-66.093 1416.25,-58.4255 1421,-52 1426.04,-45.1709 1432.63,-38.73 1438.99,-33.2802"/>
<polygon fill="#9a32cd" stroke="#9a32cd" points="1405.74,-72.2602 1405.24,-82.843 1412.23,-74.8856 1405.74,-72.2602"/>
<text text-anchor="middle" x="1460" y="-55" font-family="FreeSans" font-size="10.00"> StickyConstraints</text>
</g>
<!-- Node40 -->
<g id="node86" class="node"><title>Node40</title>
<a xlink:href="classMezzanine_1_1Physics_1_1Generic6DofConstraint.xhtml" target="_top" xlink:title="Create simple but specific limits on any axis of movement or rotation.">
<polygon fill="none" stroke="black" points="1340.5,-165 1340.5,-197 1459.5,-197 1459.5,-165 1340.5,-165"/>
<text text-anchor="start" x="1348.5" y="-184" font-family="FreeSans" font-size="10.00">Mezzanine::Physics</text>
<text text-anchor="middle" x="1400" y="-172" font-family="FreeSans" font-size="10.00">::Generic6DofConstraint</text>
</a>
</g>
<!-- Node40&#45;&gt;Node39 -->
<g id="edge94" class="edge"><title>Node40&#45;&gt;Node39</title>
<path fill="none" stroke="#9a32cd" stroke-dasharray="5,2" d="M1400,-154.567C1400,-141.596 1400,-126.39 1400,-115.167"/>
<polygon fill="#9a32cd" stroke="#9a32cd" points="1396.5,-154.799 1400,-164.799 1403.5,-154.799 1396.5,-154.799"/>
<text text-anchor="middle" x="1421" y="-137" font-family="FreeSans" font-size="10.00"> elements</text>
</g>
<!-- Node41 -->
<g id="node88" class="node"><title>Node41</title>
<a xlink:href="classMezzanine_1_1Physics_1_1DualTransformConstraint.xhtml" target="_top" xlink:title="All constraints that track rotation and location of the Pivot relative to each Actor inherit from thi...">
<polygon fill="none" stroke="black" points="1333,-281 1333,-313 1461,-313 1461,-281 1333,-281"/>
<text text-anchor="start" x="1341" y="-300" font-family="FreeSans" font-size="10.00">Mezzanine::Physics</text>
<text text-anchor="middle" x="1397" y="-288" font-family="FreeSans" font-size="10.00">::DualTransformConstraint</text>
</a>
</g>
<!-- Node41&#45;&gt;Node40 -->
<g id="edge96" class="edge"><title>Node41&#45;&gt;Node40</title>
<path fill="none" stroke="midnightblue" d="M1397.68,-270.645C1398.26,-248.117 1399.08,-216.411 1399.58,-197.366"/>
<polygon fill="midnightblue" stroke="midnightblue" points="1394.18,-270.784 1397.42,-280.871 1401.17,-270.965 1394.18,-270.784"/>
</g>
<!-- Node42&#45;&gt;Node41 -->
<g id="edge98" class="edge"><title>Node42&#45;&gt;Node41</title>
<path fill="none" stroke="midnightblue" d="M1378.58,-352.955C1382.87,-339.901 1387.94,-324.502 1391.68,-313.167"/>
<polygon fill="midnightblue" stroke="midnightblue" points="1375.14,-352.206 1375.33,-362.799 1381.79,-354.396 1375.14,-352.206"/>
</g>
</g>
</svg>
        <g id="navigator" transform="translate(0 0)" fill="#404254">
                <rect fill="#f2f5e9" fill-opacity="0.5" stroke="#606060" stroke-width=".5" x="0" y="0" width="60" height="60"/>
                <use id="zoomplus" xlink:href="#zoomPlus" x="17" y="9" onmousedown="handleZoom(evt,'in')"/>
                <use id="zoomminus" xlink:href="#zoomMin" x="42" y="9" onmousedown="handleZoom(evt,'out')"/>
                <use id="reset" xlink:href="#resetDef" x="30" y="36" onmousedown="handleReset()"/>
                <g id="arrowUp" xlink:href="#dirArrow" transform="translate(30 24)" onmousedown="handlePan(0,-1)">
                  <use xlink:href="#rim" fill="#404040">
                        <set attributeName="fill" to="#808080" begin="arrowUp.mouseover" end="arrowUp.mouseout"/>
                  </use>
                  <path fill="none" stroke="white" stroke-width="1.5" d="M0,-3.0v7 M-2.5,-0.5L0,-3.0L2.5,-0.5"/>
                </g>
                <g id="arrowRight" xlink:href="#dirArrow" transform="rotate(90) translate(36 -43)" onmousedown="handlePan(1,0)">
                  <use xlink:href="#rim" fill="#404040">
                        <set attributeName="fill" to="#808080" begin="arrowRight.mouseover" end="arrowRight.mouseout"/>
                  </use>
                  <path fill="none" stroke="white" stroke-width="1.5" d="M0,-3.0v7 M-2.5,-0.5L0,-3.0L2.5,-0.5"/>
                </g>
                <g id="arrowDown" xlink:href="#dirArrow" transform="rotate(180) translate(-30 -48)" onmousedown="handlePan(0,1)">
                  <use xlink:href="#rim" fill="#404040">
                        <set attributeName="fill" to="#808080" begin="arrowDown.mouseover" end="arrowDown.mouseout"/>
                  </use>
                  <path fill="none" stroke="white" stroke-width="1.5" d="M0,-3.0v7 M-2.5,-0.5L0,-3.0L2.5,-0.5"/>
                </g>
                <g id="arrowLeft" xlink:href="#dirArrow" transform="rotate(270) translate(-36 17)" onmousedown="handlePan(-1,0)">
                  <use xlink:href="#rim" fill="#404040">
                        <set attributeName="fill" to="#808080" begin="arrowLeft.mouseover" end="arrowLeft.mouseout"/>
                  </use>
                  <path fill="none" stroke="white" stroke-width="1.5" d="M0,-3.0v7 M-2.5,-0.5L0,-3.0L2.5,-0.5"/>
                </g>
        </g>
        <svg viewBox="0 0 15 15" width="100%" height="30px" preserveAspectRatio="xMaxYMin meet">
         <g id="arrow_out" transform="scale(0.3 0.3)">
          <a xlink:href="structMezzanine_1_1Physics_1_1StickyData__coll__graph_org.svg" target="_base">
           <rect id="button" ry="5" rx="5" y="6" x="6" height="38" width="38"
                fill="#f2f5e9" fill-opacity="0.5" stroke="#606060" stroke-width="1.0"/>
           <path id="arrow"
             d="M 11.500037,31.436501 C 11.940474,20.09759 22.043105,11.32322 32.158766,21.979434 L 37.068811,17.246167 C 37.068811,17.246167 37.088388,32 37.088388,32 L 22.160133,31.978069 C 22.160133,31.978069 26.997745,27.140456 26.997745,27.140456 C 18.528582,18.264221 13.291696,25.230495 11.500037,31.436501 z"
             style="fill:#404040;"/>
          </a>
         </g>
        </svg>
</svg>
