<?xml version="1.0" encoding="UTF-8" standalone="no"?>
<!DOCTYPE svg PUBLIC "-//W3C//DTD SVG 1.1//EN"
 "http://www.w3.org/Graphics/SVG/1.1/DTD/svg11.dtd">
<!-- Generated by graphviz version 2.26.3 (20100126.1600)
 -->
<!-- Title: Mezzanine::Physics::StickyData Pages: 1 -->
<svg width="1828pt" height="1118pt"
 viewBox="0.00 0.00 1828.00 1118.00" xmlns="http://www.w3.org/2000/svg" xmlns:xlink="http://www.w3.org/1999/xlink">
<g id="graph1" class="graph" transform="scale(1 1) rotate(0) translate(4 1114)">
<title>Mezzanine::Physics::StickyData</title>
<polygon fill="white" stroke="white" points="-4,5 -4,-1114 1825,-1114 1825,5 -4,5"/>
<!-- Node1 -->
<g id="node1" class="node"><title>Node1</title>
<polygon fill="#bfbfbf" stroke="black" points="1607.5,-1 1607.5,-35 1716.5,-35 1716.5,-1 1607.5,-1"/>
<text text-anchor="start" x="1615.5" y="-22" font-family="FreeSans" font-size="10.00">Mezzanine::Physics</text>
<text text-anchor="middle" x="1662" y="-9" font-family="FreeSans" font-size="10.00">::StickyData</text>
</g>
<!-- Node2 -->
<g id="node2" class="node"><title>Node2</title>
<polygon fill="white" stroke="#bfbfbf" points="1618,-226.5 1618,-273.5 1820,-273.5 1820,-226.5 1618,-226.5"/>
<text text-anchor="start" x="1626" y="-260.5" font-family="FreeSans" font-size="10.00">std::vector&lt; Mezzanine</text>
<text text-anchor="start" x="1626" y="-247.5" font-family="FreeSans" font-size="10.00">::Physics::StickyConstraintConstruction</text>
<text text-anchor="middle" x="1719" y="-234.5" font-family="FreeSans" font-size="10.00">Info &gt;</text>
</g>
<!-- Node2&#45;&gt;Node1 -->
<g id="edge2" class="edge"><title>Node2&#45;&gt;Node1</title>
<path fill="none" stroke="#9a32cd" stroke-dasharray="5,2" d="M1723.89,-216.486C1728.23,-175.725 1730.34,-105.941 1704,-54 1700.35,-46.805 1694.58,-40.4557 1688.46,-35.1718"/>
<polygon fill="#9a32cd" stroke="#9a32cd" points="1720.41,-216.1 1722.73,-226.44 1727.37,-216.914 1720.41,-216.1"/>
<text text-anchor="middle" x="1763.5" y="-144.5" font-family="FreeSans" font-size="10.00"> CreationQueue</text>
</g>
<!-- Node3 -->
<g id="node4" class="node"><title>Node3</title>
<a xlink:href="structMezzanine_1_1Physics_1_1StickyConstraintConstructionInfo.xhtml" target="_top" xlink:title="Simple struct for holding information on how sticky constraints should be constructed.">
<polygon fill="white" stroke="black" points="1636,-379 1636,-413 1814,-413 1814,-379 1636,-379"/>
<text text-anchor="start" x="1644" y="-400" font-family="FreeSans" font-size="10.00">Mezzanine::Physics</text>
<text text-anchor="middle" x="1725" y="-387" font-family="FreeSans" font-size="10.00">::StickyConstraintConstructionInfo</text>
</a>
</g>
<!-- Node3&#45;&gt;Node2 -->
<g id="edge4" class="edge"><title>Node3&#45;&gt;Node2</title>
<path fill="none" stroke="#9a32cd" stroke-dasharray="5,2" d="M1723.89,-368.91C1722.76,-341.558 1721.04,-299.734 1719.97,-273.672"/>
<polygon fill="#9a32cd" stroke="#9a32cd" points="1720.39,-369.118 1724.3,-378.966 1727.39,-368.831 1720.39,-369.118"/>
<text text-anchor="middle" x="1747.5" y="-350.5" font-family="FreeSans" font-size="10.00"> elements</text>
</g>
<!-- Node4 -->
<g id="node6" class="node"><title>Node4</title>
<a xlink:href="classMezzanine_1_1Transform.xhtml" target="_top" xlink:title="Stores information about relative location and rotation in 3d space.">
<polygon fill="white" stroke="black" points="1535.5,-1016.5 1535.5,-1037.5 1656.5,-1037.5 1656.5,-1016.5 1535.5,-1016.5"/>
<text text-anchor="middle" x="1596" y="-1024.5" font-family="FreeSans" font-size="10.00">Mezzanine::Transform</text>
</a>
</g>
<!-- Node4&#45;&gt;Node3 -->
<g id="edge6" class="edge"><title>Node4&#45;&gt;Node3</title>
<path fill="none" stroke="#9a32cd" stroke-dasharray="5,2" d="M1666.77,-1016.35C1704.81,-1006.17 1744,-986.367 1744,-948 1744,-948 1744,-948 1744,-487 1744,-460.854 1736.39,-431.358 1730.8,-413.222"/>
<polygon fill="#9a32cd" stroke="#9a32cd" points="1665.49,-1013.06 1656.62,-1018.85 1667.17,-1019.85 1665.49,-1013.06"/>
<text text-anchor="middle" x="1761.5" y="-693" font-family="FreeSans" font-size="10.00"> TransA</text>
<text text-anchor="middle" x="1761.5" y="-680" font-family="FreeSans" font-size="10.00">TransB</text>
</g>
<!-- Node41 -->
<g id="node87" class="node"><title>Node41</title>
<a xlink:href="classMezzanine_1_1AttachableChild.xhtml" target="_top" xlink:title="This class is the base class for objects that can be attached to AttachableParent.">
<polygon fill="white" stroke="black" points="1097,-937.5 1097,-958.5 1245,-958.5 1245,-937.5 1097,-937.5"/>
<text text-anchor="middle" x="1171" y="-945.5" font-family="FreeSans" font-size="10.00">Mezzanine::AttachableChild</text>
</a>
</g>
<!-- Node4&#45;&gt;Node41 -->
<g id="edge98" class="edge"><title>Node4&#45;&gt;Node41</title>
<path fill="none" stroke="#9a32cd" stroke-dasharray="5,2" d="M1525.4,-1015.19C1456.15,-1003.43 1347.62,-984.493 1254,-966 1242.43,-963.714 1229.98,-961.099 1218.34,-958.584"/>
<polygon fill="#9a32cd" stroke="#9a32cd" points="1524.89,-1018.66 1535.33,-1016.88 1526.06,-1011.75 1524.89,-1018.66"/>
<text text-anchor="middle" x="1450" y="-988.5" font-family="FreeSans" font-size="10.00"> LocalXform</text>
</g>
<!-- Node5 -->
<g id="node8" class="node"><title>Node5</title>
<a xlink:href="classMezzanine_1_1Vector3.xhtml" target="_top" xlink:title="This is used to represent a point in space, or a vector through space.">
<polygon fill="white" stroke="black" points="1473,-1088.5 1473,-1109.5 1583,-1109.5 1583,-1088.5 1473,-1088.5"/>
<text text-anchor="middle" x="1528" y="-1096.5" font-family="FreeSans" font-size="10.00">Mezzanine::Vector3</text>
</a>
</g>
<!-- Node5&#45;&gt;Node4 -->
<g id="edge8" class="edge"><title>Node5&#45;&gt;Node4</title>
<path fill="none" stroke="#9a32cd" stroke-dasharray="5,2" d="M1545.03,-1080.97C1557.91,-1067.33 1575.16,-1049.06 1585.93,-1037.67"/>
<polygon fill="#9a32cd" stroke="#9a32cd" points="1542.36,-1078.7 1538.03,-1088.38 1547.44,-1083.51 1542.36,-1078.7"/>
<text text-anchor="middle" x="1590" y="-1060.5" font-family="FreeSans" font-size="10.00"> Location</text>
</g>
<!-- Node6 -->
<g id="node10" class="node"><title>Node6</title>
<a xlink:href="classMezzanine_1_1Quaternion.xhtml" target="_top" xlink:title="This is used to store information about rotation in 3d space.">
<polygon fill="white" stroke="black" points="1600.5,-1088.5 1600.5,-1109.5 1727.5,-1109.5 1727.5,-1088.5 1600.5,-1088.5"/>
<text text-anchor="middle" x="1664" y="-1096.5" font-family="FreeSans" font-size="10.00">Mezzanine::Quaternion</text>
</a>
</g>
<!-- Node6&#45;&gt;Node4 -->
<g id="edge10" class="edge"><title>Node6&#45;&gt;Node4</title>
<path fill="none" stroke="#9a32cd" stroke-dasharray="5,2" d="M1646.97,-1080.97C1634.09,-1067.33 1616.84,-1049.06 1606.07,-1037.67"/>
<polygon fill="#9a32cd" stroke="#9a32cd" points="1644.56,-1083.51 1653.97,-1088.38 1649.64,-1078.7 1644.56,-1083.51"/>
<text text-anchor="middle" x="1657.5" y="-1060.5" font-family="FreeSans" font-size="10.00"> Rotation</text>
</g>
<!-- Node7 -->
<g id="node12" class="node"><title>Node7</title>
<a xlink:href="classMezzanine_1_1ActorRigid.xhtml" target="_top" xlink:title="This is the actor class for Rigid Objects.">
<polygon fill="white" stroke="black" points="1503.5,-476.5 1503.5,-497.5 1624.5,-497.5 1624.5,-476.5 1503.5,-476.5"/>
<text text-anchor="middle" x="1564" y="-484.5" font-family="FreeSans" font-size="10.00">Mezzanine::ActorRigid</text>
</a>
</g>
<!-- Node7&#45;&gt;Node3 -->
<g id="edge12" class="edge"><title>Node7&#45;&gt;Node3</title>
<path fill="none" stroke="#9a32cd" stroke-dasharray="5,2" d="M1591.5,-471.456C1620.23,-455.22 1665.16,-429.824 1694.84,-413.048"/>
<polygon fill="#9a32cd" stroke="#9a32cd" points="1589.77,-468.415 1582.78,-476.383 1593.21,-474.509 1589.77,-468.415"/>
<text text-anchor="middle" x="1671" y="-449" font-family="FreeSans" font-size="10.00"> ActA</text>
<text text-anchor="middle" x="1671" y="-436" font-family="FreeSans" font-size="10.00">ActB</text>
</g>
<!-- Node45 -->
<g id="node98" class="node"><title>Node45</title>
<a xlink:href="classMezzanine_1_1Physics_1_1Constraint.xhtml" target="_top" xlink:title="This is the base class for all constraints supported.">
<polygon fill="white" stroke="black" points="1509.5,-379 1509.5,-413 1618.5,-413 1618.5,-379 1509.5,-379"/>
<text text-anchor="start" x="1517.5" y="-400" font-family="FreeSans" font-size="10.00">Mezzanine::Physics</text>
<text text-anchor="middle" x="1564" y="-387" font-family="FreeSans" font-size="10.00">::Constraint</text>
</a>
</g>
<!-- Node7&#45;&gt;Node45 -->
<g id="edge110" class="edge"><title>Node7&#45;&gt;Node45</title>
<path fill="none" stroke="#9a32cd" stroke-dasharray="5,2" d="M1564,-465.755C1564,-449.799 1564,-428.221 1564,-413.309"/>
<polygon fill="#9a32cd" stroke="#9a32cd" points="1560.5,-466.204 1564,-476.204 1567.5,-466.204 1560.5,-466.204"/>
<text text-anchor="middle" x="1577" y="-449" font-family="FreeSans" font-size="10.00"> ActA</text>
<text text-anchor="middle" x="1577" y="-436" font-family="FreeSans" font-size="10.00">ActB</text>
</g>
<!-- Node8 -->
<g id="node14" class="node"><title>Node8</title>
<a xlink:href="classMezzanine_1_1ActorBase.xhtml" target="_top" xlink:title="This is the base class from which all the actors inherit.">
<polygon fill="white" stroke="black" points="1388.5,-543.5 1388.5,-564.5 1511.5,-564.5 1511.5,-543.5 1388.5,-543.5"/>
<text text-anchor="middle" x="1450" y="-551.5" font-family="FreeSans" font-size="10.00">Mezzanine::ActorBase</text>
</a>
</g>
<!-- Node8&#45;&gt;Node7 -->
<g id="edge14" class="edge"><title>Node8&#45;&gt;Node7</title>
<path fill="none" stroke="midnightblue" d="M1476.95,-538.158C1498.28,-525.626 1527.46,-508.476 1546.02,-497.567"/>
<polygon fill="midnightblue" stroke="midnightblue" points="1474.91,-535.299 1468.06,-543.384 1478.46,-541.334 1474.91,-535.299"/>
</g>
<!-- Node9 -->
<g id="node16" class="node"><title>Node9</title>
<a xlink:href="classMezzanine_1_1NonStaticWorldObject.xhtml" target="_top" xlink:title="This is a small extention of the WorldObject class that adds features common to non&#45;static objects...">
<polygon fill="white" stroke="black" points="1205,-623 1205,-657 1351,-657 1351,-623 1205,-623"/>
<text text-anchor="start" x="1213" y="-644" font-family="FreeSans" font-size="10.00">Mezzanine::NonStaticWorld</text>
<text text-anchor="middle" x="1278" y="-631" font-family="FreeSans" font-size="10.00">Object</text>
</a>
</g>
<!-- Node9&#45;&gt;Node8 -->
<g id="edge16" class="edge"><title>Node9&#45;&gt;Node8</title>
<path fill="none" stroke="midnightblue" d="M1321.71,-618.146C1355.95,-601.026 1402.09,-577.953 1428.69,-564.655"/>
<polygon fill="midnightblue" stroke="midnightblue" points="1319.77,-615.201 1312.39,-622.803 1322.9,-621.462 1319.77,-615.201"/>
</g>
<!-- Node10 -->
<g id="node18" class="node"><title>Node10</title>
<a xlink:href="classMezzanine_1_1WorldObject.xhtml" target="_top" xlink:title="This is the base class from which classes that are insertable into the physical world.">
<polygon fill="white" stroke="black" points="867,-733.5 867,-754.5 997,-754.5 997,-733.5 867,-733.5"/>
<text text-anchor="middle" x="932" y="-741.5" font-family="FreeSans" font-size="10.00">Mezzanine::WorldObject</text>
</a>
</g>
<!-- Node10&#45;&gt;Node9 -->
<g id="edge18" class="edge"><title>Node10&#45;&gt;Node9</title>
<path fill="none" stroke="midnightblue" d="M974.359,-730.481C987.868,-726.591 1002.96,-722.68 1017,-720 1094.24,-705.262 1119.58,-730.145 1193,-702 1219.09,-691.997 1244.36,-671.805 1260.47,-657.176"/>
<polygon fill="midnightblue" stroke="midnightblue" points="972.976,-727.24 964.379,-733.431 974.961,-733.953 972.976,-727.24"/>
</g>
<!-- Node17 -->
<g id="node34" class="node"><title>Node17</title>
<a xlink:href="classMezzanine_1_1WorldObjectPhysicsSettings.xhtml" target="_top" xlink:title="This is a base helper class for configuring physics settings of a world object.">
<polygon fill="white" stroke="black" points="1022.5,-623 1022.5,-657 1187.5,-657 1187.5,-623 1022.5,-623"/>
<text text-anchor="start" x="1030.5" y="-644" font-family="FreeSans" font-size="10.00">Mezzanine::WorldObjectPhysics</text>
<text text-anchor="middle" x="1105" y="-631" font-family="FreeSans" font-size="10.00">Settings</text>
</a>
</g>
<!-- Node10&#45;&gt;Node17 -->
<g id="edge38" class="edge"><title>Node10&#45;&gt;Node17</title>
<path fill="none" stroke="#9a32cd" stroke-dasharray="5,2" d="M932.743,-723.349C934.408,-708.185 939.127,-688.184 952,-676 957.698,-670.607 989.151,-662.795 1022.07,-655.825"/>
<polygon fill="#9a32cd" stroke="#9a32cd" points="929.251,-723.122 931.998,-733.355 936.231,-723.642 929.251,-723.122"/>
<text text-anchor="middle" x="969" y="-686.5" font-family="FreeSans" font-size="10.00"> Parent</text>
</g>
<!-- Node22 -->
<g id="node46" class="node"><title>Node22</title>
<a xlink:href="classMezzanine_1_1Physics_1_1Collision.xhtml" target="_top" xlink:title="This is an event class used to track collsions in the physics world.">
<polygon fill="white" stroke="black" points="449.5,-623 449.5,-657 558.5,-657 558.5,-623 449.5,-623"/>
<text text-anchor="start" x="457.5" y="-644" font-family="FreeSans" font-size="10.00">Mezzanine::Physics</text>
<text text-anchor="middle" x="504" y="-631" font-family="FreeSans" font-size="10.00">::Collision</text>
</a>
</g>
<!-- Node10&#45;&gt;Node22 -->
<g id="edge54" class="edge"><title>Node10&#45;&gt;Node22</title>
<path fill="none" stroke="#9a32cd" stroke-dasharray="5,2" d="M873.221,-731.394C853.502,-727.419 831.354,-723.227 811,-720 744.247,-709.417 723.546,-725.017 660,-702 640.064,-694.779 639.196,-685.005 620,-676 600.624,-666.91 578.377,-659.369 558.582,-653.577"/>
<polygon fill="#9a32cd" stroke="#9a32cd" points="872.79,-734.879 883.288,-733.447 874.189,-728.02 872.79,-734.879"/>
<text text-anchor="middle" x="680.5" y="-693" font-family="FreeSans" font-size="10.00"> ObjectA</text>
<text text-anchor="middle" x="680.5" y="-680" font-family="FreeSans" font-size="10.00">ObjectB</text>
</g>
<!-- Node25 -->
<g id="node53" class="node"><title>Node25</title>
<a xlink:href="classMezzanine_1_1WorldObjectGraphicsSettings.xhtml" target="_top" xlink:title="This is a helper class for configuring graphics settings of a World Object.">
<polygon fill="white" stroke="black" points="650,-623 650,-657 822,-657 822,-623 650,-623"/>
<text text-anchor="start" x="658" y="-644" font-family="FreeSans" font-size="10.00">Mezzanine::WorldObjectGraphics</text>
<text text-anchor="middle" x="736" y="-631" font-family="FreeSans" font-size="10.00">Settings</text>
</a>
</g>
<!-- Node10&#45;&gt;Node25 -->
<g id="edge60" class="edge"><title>Node10&#45;&gt;Node25</title>
<path fill="none" stroke="#9a32cd" stroke-dasharray="5,2" d="M907.077,-727.751C896.47,-720.388 884.216,-711.266 874,-702 862.572,-691.635 863.947,-684.39 851,-676 838.974,-668.207 825.149,-662.007 811.351,-657.105"/>
<polygon fill="#9a32cd" stroke="#9a32cd" points="905.28,-730.762 915.518,-733.487 909.214,-724.972 905.28,-730.762"/>
<text text-anchor="middle" x="891" y="-686.5" font-family="FreeSans" font-size="10.00"> Parent</text>
</g>
<!-- Node11 -->
<g id="node20" class="node"><title>Node11</title>
<a xlink:href="classMezzanine_1_1World.xhtml" target="_top" xlink:title="This class represents a world for objects to interact within.">
<polygon fill="white" stroke="black" points="1609.5,-851.5 1609.5,-872.5 1708.5,-872.5 1708.5,-851.5 1609.5,-851.5"/>
<text text-anchor="middle" x="1659" y="-859.5" font-family="FreeSans" font-size="10.00">Mezzanine::World</text>
</a>
</g>
<!-- Node11&#45;&gt;Node10 -->
<g id="edge20" class="edge"><title>Node11&#45;&gt;Node10</title>
<path fill="none" stroke="#9a32cd" stroke-dasharray="5,2" d="M1618.57,-848.581C1612.71,-846.893 1606.73,-845.304 1601,-844 1547.56,-831.841 1533.04,-835.153 1479,-826 1385.75,-810.205 1363.78,-798.266 1270,-786 1158.22,-771.379 1128.04,-787.417 1017,-768 999.025,-764.857 979.395,-759.45 963.532,-754.563"/>
<polygon fill="#9a32cd" stroke="#9a32cd" points="1617.65,-851.96 1628.24,-851.484 1619.67,-845.256 1617.65,-851.96"/>
<text text-anchor="middle" x="1509" y="-803.5" font-family="FreeSans" font-size="10.00"> ParentWorld</text>
</g>
<!-- Node13 -->
<g id="node24" class="node"><title>Node13</title>
<a xlink:href="classMezzanine_1_1WorldManager.xhtml" target="_top" xlink:title="This is the base class for all managers that belong to a single world instance.">
<polygon fill="white" stroke="black" points="1463.5,-733.5 1463.5,-754.5 1604.5,-754.5 1604.5,-733.5 1463.5,-733.5"/>
<text text-anchor="middle" x="1534" y="-741.5" font-family="FreeSans" font-size="10.00">Mezzanine::WorldManager</text>
</a>
</g>
<!-- Node11&#45;&gt;Node13 -->
<g id="edge34" class="edge"><title>Node11&#45;&gt;Node13</title>
<path fill="none" stroke="#9a32cd" stroke-dasharray="5,2" d="M1613.67,-848.285C1593.76,-841.508 1573.27,-833.249 1566,-826 1545.87,-805.929 1538.1,-771.736 1535.35,-754.538"/>
<polygon fill="#9a32cd" stroke="#9a32cd" points="1612.74,-851.664 1623.33,-851.482 1614.94,-845.018 1612.74,-851.664"/>
<text text-anchor="middle" x="1596" y="-803.5" font-family="FreeSans" font-size="10.00"> ParentWorld</text>
</g>
<!-- Node12 -->
<g id="node22" class="node"><title>Node12</title>
<polygon fill="white" stroke="#bfbfbf" points="1511,-629.5 1511,-650.5 1677,-650.5 1677,-629.5 1511,-629.5"/>
<text text-anchor="middle" x="1594" y="-637.5" font-family="FreeSans" font-size="10.00">std::vector&lt; WorldManager * &gt;</text>
</g>
<!-- Node12&#45;&gt;Node11 -->
<g id="edge22" class="edge"><title>Node12&#45;&gt;Node11</title>
<path fill="none" stroke="#9a32cd" stroke-dasharray="5,2" d="M1612.92,-658.204C1617.51,-663.536 1621.97,-669.651 1625,-676 1654.44,-737.605 1658.49,-821.891 1658.97,-851.332"/>
<polygon fill="#9a32cd" stroke="#9a32cd" points="1615.16,-655.472 1605.78,-650.548 1610.04,-660.247 1615.16,-655.472"/>
<text text-anchor="middle" x="1689" y="-741.5" font-family="FreeSans" font-size="10.00"> WorldManagers</text>
</g>
<!-- Node13&#45;&gt;Node12 -->
<g id="edge24" class="edge"><title>Node13&#45;&gt;Node12</title>
<path fill="none" stroke="#9a32cd" stroke-dasharray="5,2" d="M1545.26,-724.476C1557.9,-702.567 1577.94,-667.833 1587.93,-650.525"/>
<polygon fill="#9a32cd" stroke="#9a32cd" points="1542.16,-722.851 1540.2,-733.262 1548.22,-726.349 1542.16,-722.851"/>
<text text-anchor="middle" x="1596.5" y="-686.5" font-family="FreeSans" font-size="10.00"> elements</text>
</g>
<!-- Node14 -->
<g id="node26" class="node"><title>Node14</title>
<a xlink:href="classMezzanine_1_1ManagerBase.xhtml" target="_top" xlink:title="This is the base class from which all the Entresol and World Managers inherit.">
<polygon fill="white" stroke="black" points="1452,-851.5 1452,-872.5 1592,-872.5 1592,-851.5 1452,-851.5"/>
<text text-anchor="middle" x="1522" y="-859.5" font-family="FreeSans" font-size="10.00">Mezzanine::ManagerBase</text>
</a>
</g>
<!-- Node14&#45;&gt;Node13 -->
<g id="edge26" class="edge"><title>Node14&#45;&gt;Node13</title>
<path fill="none" stroke="midnightblue" d="M1524.13,-841.047C1526.71,-815.672 1530.96,-773.927 1532.93,-754.524"/>
<polygon fill="midnightblue" stroke="midnightblue" points="1520.64,-840.808 1523.11,-851.11 1527.6,-841.516 1520.64,-840.808"/>
</g>
<!-- Node15 -->
<g id="node28" class="node"><title>Node15</title>
<a xlink:href="classMezzanine_1_1Entresol.xhtml" target="_top" xlink:title="This is the main entry point for the entire library.">
<polygon fill="white" stroke="black" points="1263,-937.5 1263,-958.5 1375,-958.5 1375,-937.5 1263,-937.5"/>
<text text-anchor="middle" x="1319" y="-945.5" font-family="FreeSans" font-size="10.00">Mezzanine::Entresol</text>
</a>
</g>
<!-- Node15&#45;&gt;Node14 -->
<g id="edge28" class="edge"><title>Node15&#45;&gt;Node14</title>
<path fill="none" stroke="#9a32cd" stroke-dasharray="5,2" d="M1353.13,-933.54C1393.78,-916.319 1460.72,-887.961 1496.9,-872.632"/>
<polygon fill="#9a32cd" stroke="#9a32cd" points="1351.73,-930.331 1343.89,-937.455 1354.46,-936.777 1351.73,-930.331"/>
<text text-anchor="middle" x="1462" y="-902.5" font-family="FreeSans" font-size="10.00"> TheEntresol</text>
</g>
<!-- Node16 -->
<g id="node30" class="node"><title>Node16</title>
<a xlink:href="classMezzanine_1_1Singleton.xhtml" target="_top" xlink:title="Mezzanine::Singleton\l\&lt; Entresol \&gt;">
<polygon fill="white" stroke="black" points="1277.5,-845 1277.5,-879 1396.5,-879 1396.5,-845 1277.5,-845"/>
<text text-anchor="start" x="1285.5" y="-866" font-family="FreeSans" font-size="10.00">Mezzanine::Singleton</text>
<text text-anchor="middle" x="1337" y="-853" font-family="FreeSans" font-size="10.00">&lt; Entresol &gt;</text>
</a>
</g>
<!-- Node15&#45;&gt;Node16 -->
<g id="edge32" class="edge"><title>Node15&#45;&gt;Node16</title>
<path fill="none" stroke="#9a32cd" stroke-dasharray="5,2" d="M1280.67,-932.858C1264.45,-924.056 1251.12,-911.954 1260,-898 1264.99,-890.157 1272.19,-883.993 1280.21,-879.158"/>
<polygon fill="#9a32cd" stroke="#9a32cd" points="1279.34,-936.105 1289.85,-937.399 1282.44,-929.83 1279.34,-936.105"/>
<text text-anchor="middle" x="1291" y="-902.5" font-family="FreeSans" font-size="10.00"> SingletonPtr</text>
</g>
<!-- Node16&#45;&gt;Node15 -->
<g id="edge30" class="edge"><title>Node16&#45;&gt;Node15</title>
<path fill="none" stroke="midnightblue" d="M1331.29,-889.296C1327.86,-905.657 1323.7,-925.534 1321.21,-937.455"/>
<polygon fill="midnightblue" stroke="midnightblue" points="1334.78,-889.676 1333.41,-879.171 1327.93,-888.242 1334.78,-889.676"/>
</g>
<!-- Node17&#45;&gt;Node10 -->
<g id="edge36" class="edge"><title>Node17&#45;&gt;Node10</title>
<path fill="none" stroke="#9a32cd" stroke-dasharray="5,2" d="M1034.03,-661.148C1025.17,-665.331 1016.58,-670.249 1009,-676 997.6,-684.653 1000.14,-691.902 990,-702 977.754,-714.193 961.707,-725.527 949.597,-733.341"/>
<polygon fill="#9a32cd" stroke="#9a32cd" points="1035.59,-664.286 1043.33,-657.05 1032.77,-657.88 1035.59,-664.286"/>
<text text-anchor="middle" x="1048.5" y="-686.5" font-family="FreeSans" font-size="10.00"> PhysicsSettings</text>
</g>
<!-- Node18 -->
<g id="node37" class="node"><title>Node18</title>
<a xlink:href="classMezzanine_1_1Physics_1_1CollisionShape.xhtml" target="_top" xlink:title="This is the base class for all collision shapes.">
<polygon fill="white" stroke="black" points="1025.5,-727 1025.5,-761 1134.5,-761 1134.5,-727 1025.5,-727"/>
<text text-anchor="start" x="1033.5" y="-748" font-family="FreeSans" font-size="10.00">Mezzanine::Physics</text>
<text text-anchor="middle" x="1080" y="-735" font-family="FreeSans" font-size="10.00">::CollisionShape</text>
</a>
</g>
<!-- Node18&#45;&gt;Node17 -->
<g id="edge40" class="edge"><title>Node18&#45;&gt;Node17</title>
<path fill="none" stroke="#9a32cd" stroke-dasharray="5,2" d="M1088,-717.077C1089.4,-712.082 1090.79,-706.895 1092,-702 1095.72,-686.947 1099.29,-669.667 1101.74,-657.18"/>
<polygon fill="#9a32cd" stroke="#9a32cd" points="1084.57,-716.332 1085.18,-726.909 1091.3,-718.26 1084.57,-716.332"/>
<text text-anchor="middle" x="1143.5" y="-686.5" font-family="FreeSans" font-size="10.00"> WorldObjectShape</text>
</g>
<!-- Node19 -->
<g id="node39" class="node"><title>Node19</title>
<a xlink:title="STL class.">
<polygon fill="white" stroke="#bfbfbf" points="917.5,-851.5 917.5,-872.5 982.5,-872.5 982.5,-851.5 917.5,-851.5"/>
<text text-anchor="middle" x="950" y="-859.5" font-family="FreeSans" font-size="10.00">std::string</text>
</a>
</g>
<!-- Node19&#45;&gt;Node10 -->
<g id="edge46" class="edge"><title>Node19&#45;&gt;Node10</title>
<path fill="none" stroke="#9a32cd" stroke-dasharray="5,2" d="M938.85,-842.304C936.457,-837.153 934.268,-831.5 933,-826 927.208,-800.89 929.107,-770.296 930.716,-754.525"/>
<polygon fill="#9a32cd" stroke="#9a32cd" points="935.842,-844.108 943.515,-851.414 942.073,-840.918 935.842,-844.108"/>
<text text-anchor="middle" x="949.5" y="-803.5" font-family="FreeSans" font-size="10.00"> Name</text>
</g>
<!-- Node19&#45;&gt;Node18 -->
<g id="edge42" class="edge"><title>Node19&#45;&gt;Node18</title>
<path fill="none" stroke="#9a32cd" stroke-dasharray="5,2" d="M959.313,-842.237C969.367,-821.178 984.542,-790.276 989,-786 999.925,-775.521 1013.93,-767.314 1027.67,-761.045"/>
<polygon fill="#9a32cd" stroke="#9a32cd" points="956.111,-840.822 954.985,-851.357 962.435,-843.824 956.111,-840.822"/>
<text text-anchor="middle" x="1005.5" y="-803.5" font-family="FreeSans" font-size="10.00"> Name</text>
</g>
<!-- Node20 -->
<g id="node41" class="node"><title>Node20</title>
<a xlink:title="STL class.">
<polygon fill="white" stroke="#bfbfbf" points="898.5,-931 898.5,-965 1001.5,-965 1001.5,-931 898.5,-931"/>
<text text-anchor="start" x="906.5" y="-952" font-family="FreeSans" font-size="10.00">std::basic_string&lt;</text>
<text text-anchor="middle" x="950" y="-939" font-family="FreeSans" font-size="10.00"> char &gt;</text>
</a>
</g>
<!-- Node20&#45;&gt;Node19 -->
<g id="edge44" class="edge"><title>Node20&#45;&gt;Node19</title>
<path fill="none" stroke="midnightblue" d="M950,-920.56C950,-904.365 950,-884.766 950,-872.848"/>
<polygon fill="midnightblue" stroke="midnightblue" points="946.5,-920.597 950,-930.597 953.5,-920.597 946.5,-920.597"/>
</g>
<!-- Node21 -->
<g id="node44" class="node"><title>Node21</title>
<polygon fill="white" stroke="#bfbfbf" points="754.5,-537 754.5,-571 859.5,-571 859.5,-537 754.5,-537"/>
<text text-anchor="start" x="762.5" y="-558" font-family="FreeSans" font-size="10.00">std::set&lt; Physics::</text>
<text text-anchor="middle" x="807" y="-545" font-family="FreeSans" font-size="10.00">Collision * &gt;</text>
</g>
<!-- Node21&#45;&gt;Node10 -->
<g id="edge48" class="edge"><title>Node21&#45;&gt;Node10</title>
<path fill="none" stroke="#9a32cd" stroke-dasharray="5,2" d="M831.763,-578.475C854.218,-601.81 886.935,-638.813 908,-676 918.737,-694.954 925.966,-719.557 929.495,-733.373"/>
<polygon fill="#9a32cd" stroke="#9a32cd" points="834.061,-575.819 824.572,-571.105 829.05,-580.707 834.061,-575.819"/>
<text text-anchor="middle" x="938.5" y="-637.5" font-family="FreeSans" font-size="10.00"> CurrentCollisions</text>
</g>
<!-- Node22&#45;&gt;Node21 -->
<g id="edge50" class="edge"><title>Node22&#45;&gt;Node21</title>
<path fill="none" stroke="#9a32cd" stroke-dasharray="5,2" d="M568.236,-621.768C623.657,-606.038 702.719,-583.598 754.439,-568.918"/>
<polygon fill="#9a32cd" stroke="#9a32cd" points="567.185,-618.428 558.52,-624.526 569.096,-625.162 567.185,-618.428"/>
<text text-anchor="middle" x="686.5" y="-594.5" font-family="FreeSans" font-size="10.00"> keys</text>
</g>
<!-- Node23 -->
<g id="node48" class="node"><title>Node23</title>
<polygon fill="white" stroke="#bfbfbf" points="242,-733.5 242,-754.5 352,-754.5 352,-733.5 242,-733.5"/>
<text text-anchor="middle" x="297" y="-741.5" font-family="FreeSans" font-size="10.00">std::vector&lt; Real &gt;</text>
</g>
<!-- Node23&#45;&gt;Node22 -->
<g id="edge52" class="edge"><title>Node23&#45;&gt;Node22</title>
<path fill="none" stroke="#9a32cd" stroke-dasharray="5,2" d="M300.823,-723.303C304.755,-707.949 312.444,-687.723 327,-676 345.562,-661.052 404.481,-651.163 449.289,-645.596"/>
<polygon fill="#9a32cd" stroke="#9a32cd" points="297.325,-722.91 298.579,-733.431 304.16,-724.425 297.325,-722.91"/>
<text text-anchor="middle" x="380" y="-686.5" font-family="FreeSans" font-size="10.00"> PenetrationDistances</text>
</g>
<!-- Node24 -->
<g id="node51" class="node"><title>Node24</title>
<a xlink:href="structMezzanine_1_1Physics_1_1CollisionInternalData.xhtml" target="_top" xlink:title="Used to insulate the interface from the implementation details for bullet.">
<polygon fill="white" stroke="black" points="369.5,-727 369.5,-761 490.5,-761 490.5,-727 369.5,-727"/>
<text text-anchor="start" x="377.5" y="-748" font-family="FreeSans" font-size="10.00">Mezzanine::Physics</text>
<text text-anchor="middle" x="430" y="-735" font-family="FreeSans" font-size="10.00">::CollisionInternalData</text>
</a>
</g>
<!-- Node24&#45;&gt;Node22 -->
<g id="edge56" class="edge"><title>Node24&#45;&gt;Node22</title>
<path fill="none" stroke="#9a32cd" stroke-dasharray="5,2" d="M433.038,-716.845C435.599,-703.536 440.317,-687.863 449,-676 454.46,-668.541 461.971,-662.198 469.688,-657.011"/>
<polygon fill="#9a32cd" stroke="#9a32cd" points="429.554,-716.464 431.411,-726.894 436.464,-717.582 429.554,-716.464"/>
<text text-anchor="middle" x="480.5" y="-686.5" font-family="FreeSans" font-size="10.00"> InternalData</text>
</g>
<!-- Node25&#45;&gt;Node10 -->
<g id="edge58" class="edge"><title>Node25&#45;&gt;Node10</title>
<path fill="none" stroke="#9a32cd" stroke-dasharray="5,2" d="M743.316,-667.108C747.935,-679.406 755.139,-693.145 766,-702 775.072,-709.396 835.815,-723.589 881.215,-733.416"/>
<polygon fill="#9a32cd" stroke="#9a32cd" points="746.512,-665.63 740.02,-657.257 739.874,-667.851 746.512,-665.63"/>
<text text-anchor="middle" x="808.5" y="-686.5" font-family="FreeSans" font-size="10.00"> GraphicsSettings</text>
</g>
<!-- Node26 -->
<g id="node56" class="node"><title>Node26</title>
<a xlink:href="classMezzanine_1_1Graphics_1_1Mesh.xhtml" target="_top" xlink:title="This class is used to check and modify the properties of a graphics mesh.">
<polygon fill="white" stroke="black" points="508,-727 508,-761 624,-761 624,-727 508,-727"/>
<text text-anchor="start" x="516" y="-748" font-family="FreeSans" font-size="10.00">Mezzanine::Graphics</text>
<text text-anchor="middle" x="566" y="-735" font-family="FreeSans" font-size="10.00">::Mesh</text>
</a>
</g>
<!-- Node26&#45;&gt;Node25 -->
<g id="edge62" class="edge"><title>Node26&#45;&gt;Node25</title>
<path fill="none" stroke="#9a32cd" stroke-dasharray="5,2" d="M541.99,-718.862C531.84,-705.173 524.519,-688.525 535,-676 549.93,-658.158 602.385,-649.148 649.963,-644.604"/>
<polygon fill="#9a32cd" stroke="#9a32cd" points="539.524,-721.377 548.542,-726.939 544.961,-716.968 539.524,-721.377"/>
<text text-anchor="middle" x="577.5" y="-686.5" font-family="FreeSans" font-size="10.00"> WorldObjectMesh</text>
</g>
<!-- Node27 -->
<g id="node58" class="node"><title>Node27</title>
<a xlink:href="classMezzanine_1_1Graphics_1_1InternalMeshData.xhtml" target="_top" xlink:title="This class is used to store the internal structures needed by the Mesh class.">
<polygon fill="white" stroke="black" points="361,-845 361,-879 477,-879 477,-845 361,-845"/>
<text text-anchor="start" x="369" y="-866" font-family="FreeSans" font-size="10.00">Mezzanine::Graphics</text>
<text text-anchor="middle" x="419" y="-853" font-family="FreeSans" font-size="10.00">::InternalMeshData</text>
</a>
</g>
<!-- Node27&#45;&gt;Node26 -->
<g id="edge64" class="edge"><title>Node27&#45;&gt;Node26</title>
<path fill="none" stroke="#9a32cd" stroke-dasharray="5,2" d="M448.356,-838.435C476.789,-815.612 519.221,-781.55 544.599,-761.179"/>
<polygon fill="#9a32cd" stroke="#9a32cd" points="445.982,-835.852 440.375,-844.842 450.364,-841.311 445.982,-835.852"/>
<text text-anchor="middle" x="521" y="-803.5" font-family="FreeSans" font-size="10.00"> IMD</text>
</g>
<!-- Node28 -->
<g id="node60" class="node"><title>Node28</title>
<a xlink:href="classMezzanine_1_1Graphics_1_1Skeleton.xhtml" target="_top" xlink:title="This class encapsulates the Skeletal animation functionality of a Mesh.">
<polygon fill="white" stroke="black" points="158,-845 158,-879 274,-879 274,-845 158,-845"/>
<text text-anchor="start" x="166" y="-866" font-family="FreeSans" font-size="10.00">Mezzanine::Graphics</text>
<text text-anchor="middle" x="216" y="-853" font-family="FreeSans" font-size="10.00">::Skeleton</text>
</a>
</g>
<!-- Node28&#45;&gt;Node26 -->
<g id="edge66" class="edge"><title>Node28&#45;&gt;Node26</title>
<path fill="none" stroke="#9a32cd" stroke-dasharray="5,2" d="M264.607,-840.867C304.241,-824.241 361.973,-801.389 414,-786 451.03,-775.047 461.849,-778.535 499,-768 506.132,-765.977 513.602,-763.585 520.858,-761.106"/>
<polygon fill="#9a32cd" stroke="#9a32cd" points="263.037,-837.731 255.186,-844.845 265.76,-844.18 263.037,-837.731"/>
<text text-anchor="middle" x="438.5" y="-803.5" font-family="FreeSans" font-size="10.00"> MeshSkel</text>
</g>
<!-- Node30 -->
<g id="node64" class="node"><title>Node30</title>
<a xlink:href="classMezzanine_1_1Graphics_1_1Bone.xhtml" target="_top" xlink:title="This class encapsulates the bones contained in a skeleton used for animation.">
<polygon fill="white" stroke="black" points="38,-727 38,-761 154,-761 154,-727 38,-727"/>
<text text-anchor="start" x="46" y="-748" font-family="FreeSans" font-size="10.00">Mezzanine::Graphics</text>
<text text-anchor="middle" x="96" y="-735" font-family="FreeSans" font-size="10.00">::Bone</text>
</a>
</g>
<!-- Node28&#45;&gt;Node30 -->
<g id="edge74" class="edge"><title>Node28&#45;&gt;Node30</title>
<path fill="none" stroke="#9a32cd" stroke-dasharray="5,2" d="M168.304,-839.705C161.797,-835.627 155.48,-831.043 150,-826 129.555,-807.185 113.253,-779.086 104.107,-761.154"/>
<polygon fill="#9a32cd" stroke="#9a32cd" points="166.84,-842.904 177.236,-844.949 170.384,-836.868 166.84,-842.904"/>
<text text-anchor="middle" x="163" y="-803.5" font-family="FreeSans" font-size="10.00"> Host</text>
</g>
<!-- Node29 -->
<g id="node62" class="node"><title>Node29</title>
<polygon fill="white" stroke="#bfbfbf" points="89.5,-629.5 89.5,-650.5 212.5,-650.5 212.5,-629.5 89.5,-629.5"/>
<text text-anchor="middle" x="151" y="-637.5" font-family="FreeSans" font-size="10.00">std::vector&lt; Bone * &gt;</text>
</g>
<!-- Node29&#45;&gt;Node28 -->
<g id="edge68" class="edge"><title>Node29&#45;&gt;Node28</title>
<path fill="none" stroke="#9a32cd" stroke-dasharray="5,2" d="M166.173,-658.869C169.842,-664.166 173.439,-670.097 176,-676 182.755,-691.567 204.44,-801.997 212.733,-844.959"/>
<polygon fill="#9a32cd" stroke="#9a32cd" points="168.865,-656.624 160.1,-650.671 163.24,-660.79 168.865,-656.624"/>
<text text-anchor="middle" x="215" y="-741.5" font-family="FreeSans" font-size="10.00"> Bones</text>
</g>
<!-- Node30&#45;&gt;Node29 -->
<g id="edge70" class="edge"><title>Node30&#45;&gt;Node29</title>
<path fill="none" stroke="#9a32cd" stroke-dasharray="5,2" d="M106.995,-717.288C112.535,-704.55 119.631,-689.239 127,-676 131.895,-667.205 138.241,-657.754 143.178,-650.743"/>
<polygon fill="#9a32cd" stroke="#9a32cd" points="103.615,-716.291 102.911,-726.863 110.054,-719.038 103.615,-716.291"/>
<text text-anchor="middle" x="151.5" y="-686.5" font-family="FreeSans" font-size="10.00"> elements</text>
</g>
<!-- Node31 -->
<g id="node66" class="node"><title>Node31</title>
<a xlink:href="classMezzanine_1_1TransformableChildObject.xhtml" target="_top" xlink:title="This is an interface for all child 3D objects that can have their full transforms manipulated...">
<polygon fill="white" stroke="black" points="-0.5,-845 -0.5,-879 140.5,-879 140.5,-845 -0.5,-845"/>
<text text-anchor="start" x="7.5" y="-866" font-family="FreeSans" font-size="10.00">Mezzanine::Transformable</text>
<text text-anchor="middle" x="70" y="-853" font-family="FreeSans" font-size="10.00">ChildObject</text>
</a>
</g>
<!-- Node31&#45;&gt;Node30 -->
<g id="edge72" class="edge"><title>Node31&#45;&gt;Node30</title>
<path fill="none" stroke="midnightblue" d="M75.9882,-834.823C80.9862,-812.14 87.9574,-780.501 92.2148,-761.179"/>
<polygon fill="midnightblue" stroke="midnightblue" points="72.5145,-834.323 73.7806,-844.842 79.3505,-835.829 72.5145,-834.323"/>
</g>
<!-- Node32 -->
<g id="node69" class="node"><title>Node32</title>
<a xlink:href="classMezzanine_1_1Graphics_1_1InternalSkeletonData.xhtml" target="_top" xlink:title="This class is used to store the internal structures needed by the Skeleton class.">
<polygon fill="white" stroke="black" points="154.5,-931 154.5,-965 277.5,-965 277.5,-931 154.5,-931"/>
<text text-anchor="start" x="162.5" y="-952" font-family="FreeSans" font-size="10.00">Mezzanine::Graphics</text>
<text text-anchor="middle" x="216" y="-939" font-family="FreeSans" font-size="10.00">::InternalSkeletonData</text>
</a>
</g>
<!-- Node32&#45;&gt;Node28 -->
<g id="edge76" class="edge"><title>Node32&#45;&gt;Node28</title>
<path fill="none" stroke="#9a32cd" stroke-dasharray="5,2" d="M216,-920.342C216,-906.774 216,-890.861 216,-879.084"/>
<polygon fill="#9a32cd" stroke="#9a32cd" points="212.5,-920.597 216,-930.597 219.5,-920.597 212.5,-920.597"/>
<text text-anchor="middle" x="226" y="-902.5" font-family="FreeSans" font-size="10.00"> ISD</text>
</g>
<!-- Node33 -->
<g id="node71" class="node"><title>Node33</title>
<polygon fill="white" stroke="#bfbfbf" points="494.5,-851.5 494.5,-872.5 637.5,-872.5 637.5,-851.5 494.5,-851.5"/>
<text text-anchor="middle" x="566" y="-859.5" font-family="FreeSans" font-size="10.00">std::vector&lt; SubMesh * &gt;</text>
</g>
<!-- Node33&#45;&gt;Node26 -->
<g id="edge78" class="edge"><title>Node33&#45;&gt;Node26</title>
<path fill="none" stroke="#9a32cd" stroke-dasharray="5,2" d="M566,-840.829C566,-818.092 566,-782.395 566,-761.285"/>
<polygon fill="#9a32cd" stroke="#9a32cd" points="562.5,-841.11 566,-851.11 569.5,-841.11 562.5,-841.11"/>
<text text-anchor="middle" x="595.5" y="-803.5" font-family="FreeSans" font-size="10.00"> SubMeshes</text>
</g>
<!-- Node34 -->
<g id="node73" class="node"><title>Node34</title>
<a xlink:href="classMezzanine_1_1Graphics_1_1SubMesh.xhtml" target="_top" xlink:title="This class represents a sub&#45;section of an overall mesh.">
<polygon fill="white" stroke="black" points="508,-931 508,-965 624,-965 624,-931 508,-931"/>
<text text-anchor="start" x="516" y="-952" font-family="FreeSans" font-size="10.00">Mezzanine::Graphics</text>
<text text-anchor="middle" x="566" y="-939" font-family="FreeSans" font-size="10.00">::SubMesh</text>
</a>
</g>
<!-- Node34&#45;&gt;Node33 -->
<g id="edge80" class="edge"><title>Node34&#45;&gt;Node33</title>
<path fill="none" stroke="#9a32cd" stroke-dasharray="5,2" d="M566,-920.56C566,-904.365 566,-884.766 566,-872.848"/>
<polygon fill="#9a32cd" stroke="#9a32cd" points="562.5,-920.597 566,-930.597 569.5,-920.597 562.5,-920.597"/>
<text text-anchor="middle" x="590.5" y="-902.5" font-family="FreeSans" font-size="10.00"> elements</text>
</g>
<!-- Node35 -->
<g id="node75" class="node"><title>Node35</title>
<a xlink:href="classMezzanine_1_1Internal_1_1InternalWorldObjectGraphicsSettings.xhtml" target="_top" xlink:title="Used to store internal data about an world objects.">
<polygon fill="white" stroke="black" points="645.5,-720.5 645.5,-767.5 802.5,-767.5 802.5,-720.5 645.5,-720.5"/>
<text text-anchor="start" x="653.5" y="-754.5" font-family="FreeSans" font-size="10.00">Mezzanine::Internal</text>
<text text-anchor="start" x="653.5" y="-741.5" font-family="FreeSans" font-size="10.00">::InternalWorldObjectGraphics</text>
<text text-anchor="middle" x="724" y="-728.5" font-family="FreeSans" font-size="10.00">Settings</text>
</a>
</g>
<!-- Node35&#45;&gt;Node25 -->
<g id="edge82" class="edge"><title>Node35&#45;&gt;Node25</title>
<path fill="none" stroke="#9a32cd" stroke-dasharray="5,2" d="M707.976,-710.929C704.578,-699.707 703.056,-687.184 707,-676 709.402,-669.188 713.7,-662.716 718.263,-657.188"/>
<polygon fill="#9a32cd" stroke="#9a32cd" points="704.696,-712.15 711.356,-720.39 711.288,-709.795 704.696,-712.15"/>
<text text-anchor="middle" x="725" y="-686.5" font-family="FreeSans" font-size="10.00"> IWOGS</text>
</g>
<!-- Node36 -->
<g id="node77" class="node"><title>Node36</title>
<polygon fill="white" stroke="#bfbfbf" points="655,-845 655,-879 811,-879 811,-845 655,-845"/>
<text text-anchor="start" x="663" y="-866" font-family="FreeSans" font-size="10.00">std::map&lt; Whole, Mezzanine</text>
<text text-anchor="middle" x="733" y="-853" font-family="FreeSans" font-size="10.00">::ColourValue &gt;</text>
</g>
<!-- Node36&#45;&gt;Node35 -->
<g id="edge84" class="edge"><title>Node36&#45;&gt;Node35</title>
<path fill="none" stroke="#9a32cd" stroke-dasharray="5,2" d="M730.917,-834.689C729.371,-814.421 727.284,-787.06 725.808,-767.707"/>
<polygon fill="#9a32cd" stroke="#9a32cd" points="727.441,-835.137 731.691,-844.842 734.421,-834.605 727.441,-835.137"/>
<text text-anchor="middle" x="754" y="-816.5" font-family="FreeSans" font-size="10.00"> Specular</text>
<text text-anchor="middle" x="754" y="-803.5" font-family="FreeSans" font-size="10.00">Ambient</text>
<text text-anchor="middle" x="754" y="-790.5" font-family="FreeSans" font-size="10.00">Diffuse</text>
</g>
<!-- Node37 -->
<g id="node79" class="node"><title>Node37</title>
<a xlink:href="classMezzanine_1_1ColourValue.xhtml" target="_top" xlink:title="This is a simple class for holding 4 reals representing the colour any give object or lightsource can...">
<polygon fill="white" stroke="black" points="668,-937.5 668,-958.5 798,-958.5 798,-937.5 668,-937.5"/>
<text text-anchor="middle" x="733" y="-945.5" font-family="FreeSans" font-size="10.00">Mezzanine::ColourValue</text>
</a>
</g>
<!-- Node37&#45;&gt;Node36 -->
<g id="edge86" class="edge"><title>Node37&#45;&gt;Node36</title>
<path fill="none" stroke="#9a32cd" stroke-dasharray="5,2" d="M733,-927.31C733,-912.585 733,-893.033 733,-879.171"/>
<polygon fill="#9a32cd" stroke="#9a32cd" points="729.5,-927.455 733,-937.455 736.5,-927.455 729.5,-927.455"/>
<text text-anchor="middle" x="757.5" y="-902.5" font-family="FreeSans" font-size="10.00"> elements</text>
</g>
<!-- Node38 -->
<g id="node81" class="node"><title>Node38</title>
<a xlink:href="classMezzanine_1_1AttachableParent.xhtml" target="_top" xlink:title="Base class for objects that can have attachables attached to them.">
<polygon fill="white" stroke="black" points="1170,-733.5 1170,-754.5 1326,-754.5 1326,-733.5 1170,-733.5"/>
<text text-anchor="middle" x="1248" y="-741.5" font-family="FreeSans" font-size="10.00">Mezzanine::AttachableParent</text>
</a>
</g>
<!-- Node38&#45;&gt;Node9 -->
<g id="edge88" class="edge"><title>Node38&#45;&gt;Node9</title>
<path fill="none" stroke="midnightblue" d="M1253.89,-723.567C1259.5,-704.132 1267.84,-675.234 1273.09,-657.017"/>
<polygon fill="midnightblue" stroke="midnightblue" points="1250.51,-722.684 1251.1,-733.262 1257.23,-724.624 1250.51,-722.684"/>
</g>
<!-- Node38&#45;&gt;Node41 -->
<g id="edge100" class="edge"><title>Node38&#45;&gt;Node41</title>
<path fill="none" stroke="#9a32cd" stroke-dasharray="5,2" d="M1182.37,-757.153C1135.19,-770.409 1074.84,-796.04 1045,-844 1018.03,-887.35 1091.28,-921.155 1137.15,-937.406"/>
<polygon fill="#9a32cd" stroke="#9a32cd" points="1183.47,-760.482 1192.22,-754.509 1181.66,-753.721 1183.47,-760.482"/>
<text text-anchor="middle" x="1062" y="-859.5" font-family="FreeSans" font-size="10.00"> Parent</text>
</g>
<!-- Node39 -->
<g id="node83" class="node"><title>Node39</title>
<a xlink:href="classMezzanine_1_1AttachableBase.xhtml" target="_top" xlink:title="This class is the base class for other attachable classes and is responsible for transform updates to...">
<polygon fill="white" stroke="black" points="1186.5,-1016.5 1186.5,-1037.5 1335.5,-1037.5 1335.5,-1016.5 1186.5,-1016.5"/>
<text text-anchor="middle" x="1261" y="-1024.5" font-family="FreeSans" font-size="10.00">Mezzanine::AttachableBase</text>
</a>
</g>
<!-- Node39&#45;&gt;Node38 -->
<g id="edge90" class="edge"><title>Node39&#45;&gt;Node38</title>
<path fill="none" stroke="midnightblue" d="M1345.92,-1020.26C1375.59,-1016 1403.81,-1009.11 1413,-998 1441.33,-963.755 1416.27,-942.324 1413,-898 1411.22,-873.804 1418.2,-864.356 1405,-844 1375.02,-797.772 1315.33,-768.763 1278.81,-754.543"/>
<polygon fill="midnightblue" stroke="midnightblue" points="1345.28,-1016.82 1335.83,-1021.61 1346.21,-1023.75 1345.28,-1016.82"/>
</g>
<!-- Node39&#45;&gt;Node41 -->
<g id="edge96" class="edge"><title>Node39&#45;&gt;Node41</title>
<path fill="none" stroke="midnightblue" d="M1241.34,-1009.74C1223.64,-994.205 1198.17,-971.852 1183.23,-958.738"/>
<polygon fill="midnightblue" stroke="midnightblue" points="1239.04,-1012.38 1248.86,-1016.35 1243.66,-1007.12 1239.04,-1012.38"/>
</g>
<!-- Node40 -->
<g id="node85" class="node"><title>Node40</title>
<polygon fill="white" stroke="#bfbfbf" points="1087.5,-851.5 1087.5,-872.5 1260.5,-872.5 1260.5,-851.5 1087.5,-851.5"/>
<text text-anchor="middle" x="1174" y="-859.5" font-family="FreeSans" font-size="10.00">std::vector&lt; AttachableChild * &gt;</text>
</g>
<!-- Node40&#45;&gt;Node38 -->
<g id="edge92" class="edge"><title>Node40&#45;&gt;Node38</title>
<path fill="none" stroke="#9a32cd" stroke-dasharray="5,2" d="M1186.29,-842.396C1202.11,-817.177 1229.01,-774.275 1241.4,-754.524"/>
<polygon fill="#9a32cd" stroke="#9a32cd" points="1183.18,-840.779 1180.83,-851.11 1189.11,-844.498 1183.18,-840.779"/>
<text text-anchor="middle" x="1242.5" y="-803.5" font-family="FreeSans" font-size="10.00"> Attached</text>
</g>
<!-- Node41&#45;&gt;Node40 -->
<g id="edge94" class="edge"><title>Node41&#45;&gt;Node40</title>
<path fill="none" stroke="#9a32cd" stroke-dasharray="5,2" d="M1170.61,-926.994C1170.55,-918.053 1170.6,-907.513 1171,-898 1171.35,-889.478 1172.18,-879.85 1172.87,-872.697"/>
<polygon fill="#9a32cd" stroke="#9a32cd" points="1167.12,-927.311 1170.74,-937.266 1174.12,-927.222 1167.12,-927.311"/>
<text text-anchor="middle" x="1195.5" y="-902.5" font-family="FreeSans" font-size="10.00"> elements</text>
</g>
<!-- Node42 -->
<g id="node92" class="node"><title>Node42</title>
<polygon fill="white" stroke="#bfbfbf" points="1498,-87 1498,-121 1690,-121 1690,-87 1498,-87"/>
<text text-anchor="start" x="1506" y="-108" font-family="FreeSans" font-size="10.00">std::vector&lt; Mezzanine</text>
<text text-anchor="middle" x="1594" y="-95" font-family="FreeSans" font-size="10.00">::Physics::Generic6DofConstraint * &gt;</text>
</g>
<!-- Node42&#45;&gt;Node1 -->
<g id="edge102" class="edge"><title>Node42&#45;&gt;Node1</title>
<path fill="none" stroke="#9a32cd" stroke-dasharray="5,2" d="M1604.14,-77.414C1607.84,-69.4571 1612.5,-60.9957 1618,-54 1623.37,-47.1722 1630.25,-40.7845 1636.96,-35.3413"/>
<polygon fill="#9a32cd" stroke="#9a32cd" points="1600.86,-76.17 1600.1,-86.7372 1607.28,-78.9539 1600.86,-76.17"/>
<text text-anchor="middle" x="1661" y="-58.5" font-family="FreeSans" font-size="10.00"> StickyConstraints</text>
</g>
<!-- Node43 -->
<g id="node94" class="node"><title>Node43</title>
<a xlink:href="classMezzanine_1_1Physics_1_1Generic6DofConstraint.xhtml" target="_top" xlink:title="Create simple but specific limits on any axis of movement or rotation.">
<polygon fill="white" stroke="black" points="1528.5,-173 1528.5,-207 1659.5,-207 1659.5,-173 1528.5,-173"/>
<text text-anchor="start" x="1536.5" y="-194" font-family="FreeSans" font-size="10.00">Mezzanine::Physics</text>
<text text-anchor="middle" x="1594" y="-181" font-family="FreeSans" font-size="10.00">::Generic6DofConstraint</text>
</a>
</g>
<!-- Node43&#45;&gt;Node42 -->
<g id="edge104" class="edge"><title>Node43&#45;&gt;Node42</title>
<path fill="none" stroke="#9a32cd" stroke-dasharray="5,2" d="M1594,-162.342C1594,-148.774 1594,-132.861 1594,-121.084"/>
<polygon fill="#9a32cd" stroke="#9a32cd" points="1590.5,-162.597 1594,-172.597 1597.5,-162.597 1590.5,-162.597"/>
<text text-anchor="middle" x="1618.5" y="-144.5" font-family="FreeSans" font-size="10.00"> elements</text>
</g>
<!-- Node44 -->
<g id="node96" class="node"><title>Node44</title>
<a xlink:href="classMezzanine_1_1Physics_1_1DualTransformConstraint.xhtml" target="_top" xlink:title="All constraints that track rotation and location of the Pivot relative to each Actor inherit from thi...">
<polygon fill="white" stroke="black" points="1520.5,-293 1520.5,-327 1661.5,-327 1661.5,-293 1520.5,-293"/>
<text text-anchor="start" x="1528.5" y="-314" font-family="FreeSans" font-size="10.00">Mezzanine::Physics</text>
<text text-anchor="middle" x="1591" y="-301" font-family="FreeSans" font-size="10.00">::DualTransformConstraint</text>
</a>
</g>
<!-- Node44&#45;&gt;Node43 -->
<g id="edge106" class="edge"><title>Node44&#45;&gt;Node43</title>
<path fill="none" stroke="midnightblue" d="M1591.69,-282.573C1592.27,-259.369 1593.08,-226.84 1593.57,-207.161"/>
<polygon fill="midnightblue" stroke="midnightblue" points="1588.18,-282.723 1591.43,-292.807 1595.18,-282.898 1588.18,-282.723"/>
</g>
<!-- Node45&#45;&gt;Node44 -->
<g id="edge108" class="edge"><title>Node45&#45;&gt;Node44</title>
<path fill="none" stroke="midnightblue" d="M1572.56,-368.744C1576.84,-355.09 1581.9,-338.977 1585.64,-327.084"/>
<polygon fill="midnightblue" stroke="midnightblue" points="1569.12,-368.007 1569.46,-378.597 1575.8,-370.104 1569.12,-368.007"/>
</g>
</g>
</svg>
