<?xml version="1.0" encoding="UTF-8" standalone="no"?>
<!DOCTYPE svg PUBLIC "-//W3C//DTD SVG 1.1//EN"
 "http://www.w3.org/Graphics/SVG/1.1/DTD/svg11.dtd">
<!-- Generated by graphviz version 2.26.3 (20100126.1600)
 -->
<!-- Title: Mezzanine::StickyConstraintConstructionInfo Pages: 1 -->
<svg width="1838pt" height="504pt"
 viewBox="0.00 0.00 1838.00 504.00" xmlns="http://www.w3.org/2000/svg" xmlns:xlink="http://www.w3.org/1999/xlink">
<g id="graph1" class="graph" transform="scale(1 1) rotate(0) translate(4 500)">
<title>Mezzanine::StickyConstraintConstructionInfo</title>
<!-- Node1 -->
<g id="node1" class="node"><title>Node1</title>
<polygon fill="#bfbfbf" stroke="black" points="1692.5,-3 1692.5,-35 1829.5,-35 1829.5,-3 1692.5,-3"/>
<text text-anchor="start" x="1700.5" y="-22" font-family="FreeSans" font-size="10.00">Mezzanine::StickyConstraint</text>
<text text-anchor="middle" x="1761" y="-10" font-family="FreeSans" font-size="10.00">ConstructionInfo</text>
</g>
<!-- Node2 -->
<g id="node2" class="node"><title>Node2</title>
<a xlink:href="classMezzanine_1_1Transform.xhtml" target="_top" xlink:title="Stores information about relative location and rotation in 3d space.">
<polygon fill="none" stroke="black" points="203,-115 203,-135 313,-135 313,-115 203,-115"/>
<text text-anchor="middle" x="258" y="-122" font-family="FreeSans" font-size="10.00">Mezzanine::Transform</text>
</a>
</g>
<!-- Node2&#45;&gt;Node1 -->
<g id="edge2" class="edge"><title>Node2&#45;&gt;Node1</title>
<path fill="none" stroke="#9a32cd" stroke-dasharray="5,2" d="M275.117,-107.271C310.352,-72.78 395.007,-0 482,-0 482,-0 482,-0 1574,-0 1613.32,-0 1657.06,-4.20967 1692.34,-8.66599"/>
<polygon fill="#9a32cd" stroke="#9a32cd" points="272.215,-105.224 267.62,-114.771 277.165,-110.173 272.215,-105.224"/>
<text text-anchor="middle" x="1087" y="-15" font-family="FreeSans" font-size="10.00"> TransA</text>
<text text-anchor="middle" x="1087" y="-3" font-family="FreeSans" font-size="10.00">TransB</text>
</g>
<!-- Node30 -->
<g id="node63" class="node"><title>Node30</title>
<a xlink:href="classMezzanine_1_1AttachableChild.xhtml" target="_top" xlink:title="This class is the base class for objects that can be attached to AttachableParent.">
<polygon fill="none" stroke="black" points="414.5,-154 414.5,-174 549.5,-174 549.5,-154 414.5,-154"/>
<text text-anchor="middle" x="482" y="-161" font-family="FreeSans" font-size="10.00">Mezzanine::AttachableChild</text>
</a>
</g>
<!-- Node2&#45;&gt;Node30 -->
<g id="edge72" class="edge"><title>Node2&#45;&gt;Node30</title>
<path fill="none" stroke="#9a32cd" stroke-dasharray="5,2" d="M323.241,-136.359C355.252,-141.932 393.474,-148.587 424.392,-153.97"/>
<polygon fill="#9a32cd" stroke="#9a32cd" points="323.536,-132.858 313.083,-134.59 322.335,-139.754 323.536,-132.858"/>
<text text-anchor="middle" x="370" y="-150" font-family="FreeSans" font-size="10.00"> LocalXform</text>
</g>
<!-- Node3 -->
<g id="node4" class="node"><title>Node3</title>
<a xlink:href="classMezzanine_1_1Vector3.xhtml" target="_top" xlink:title="This is used to represent a point in space, or a vector through space.">
<polygon fill="none" stroke="black" points="7,-134 7,-154 107,-154 107,-134 7,-134"/>
<text text-anchor="middle" x="57" y="-141" font-family="FreeSans" font-size="10.00">Mezzanine::Vector3</text>
</a>
</g>
<!-- Node3&#45;&gt;Node2 -->
<g id="edge4" class="edge"><title>Node3&#45;&gt;Node2</title>
<path fill="none" stroke="#9a32cd" stroke-dasharray="5,2" d="M117.352,-138.295C144.485,-135.73 176.291,-132.724 202.787,-130.219"/>
<polygon fill="#9a32cd" stroke="#9a32cd" points="116.829,-134.829 107.202,-139.255 117.487,-141.798 116.829,-134.829"/>
<text text-anchor="middle" x="152" y="-139" font-family="FreeSans" font-size="10.00"> Location</text>
</g>
<!-- Node4 -->
<g id="node6" class="node"><title>Node4</title>
<a xlink:href="classMezzanine_1_1Quaternion.xhtml" target="_top" xlink:title="This is used to store information about rotation in 3d space.">
<polygon fill="none" stroke="black" points="0,-96 0,-116 114,-116 114,-96 0,-96"/>
<text text-anchor="middle" x="57" y="-103" font-family="FreeSans" font-size="10.00">Mezzanine::Quaternion</text>
</a>
</g>
<!-- Node4&#45;&gt;Node2 -->
<g id="edge6" class="edge"><title>Node4&#45;&gt;Node2</title>
<path fill="none" stroke="#9a32cd" stroke-dasharray="5,2" d="M124.063,-112.339C149.657,-114.759 178.518,-117.487 202.877,-119.789"/>
<polygon fill="#9a32cd" stroke="#9a32cd" points="124.346,-108.851 114.061,-111.394 123.687,-115.819 124.346,-108.851"/>
<text text-anchor="middle" x="152" y="-119" font-family="FreeSans" font-size="10.00"> Rotation</text>
</g>
<!-- Node5 -->
<g id="node8" class="node"><title>Node5</title>
<a xlink:href="classMezzanine_1_1ActorRigid.xhtml" target="_top" xlink:title="This is the actor class for Rigid Objects.">
<polygon fill="none" stroke="black" points="1518,-35 1518,-55 1630,-55 1630,-35 1518,-35"/>
<text text-anchor="middle" x="1574" y="-42" font-family="FreeSans" font-size="10.00">Mezzanine::ActorRigid</text>
</a>
</g>
<!-- Node5&#45;&gt;Node1 -->
<g id="edge8" class="edge"><title>Node5&#45;&gt;Node1</title>
<path fill="none" stroke="#9a32cd" stroke-dasharray="5,2" d="M1640.41,-35.7662C1657.27,-33.4229 1675.41,-30.9008 1692.37,-28.5424"/>
<polygon fill="#9a32cd" stroke="#9a32cd" points="1639.53,-32.3553 1630.11,-37.1991 1640.49,-39.2886 1639.53,-32.3553"/>
<text text-anchor="middle" x="1661" y="-50" font-family="FreeSans" font-size="10.00"> ActA</text>
<text text-anchor="middle" x="1661" y="-38" font-family="FreeSans" font-size="10.00">ActB</text>
</g>
<!-- Node6 -->
<g id="node10" class="node"><title>Node6</title>
<a xlink:href="classMezzanine_1_1ActorBase.xhtml" target="_top" xlink:title="This is the base class from which all the actors inherit.">
<polygon fill="none" stroke="black" points="1368,-55 1368,-75 1480,-75 1480,-55 1368,-55"/>
<text text-anchor="middle" x="1424" y="-62" font-family="FreeSans" font-size="10.00">Mezzanine::ActorBase</text>
</a>
</g>
<!-- Node6&#45;&gt;Node5 -->
<g id="edge10" class="edge"><title>Node6&#45;&gt;Node5</title>
<path fill="none" stroke="midnightblue" d="M1490.21,-56.1719C1499.45,-54.9399 1508.87,-53.6837 1517.9,-52.4797"/>
<polygon fill="midnightblue" stroke="midnightblue" points="1489.73,-52.7048 1480.28,-57.4958 1490.66,-59.6434 1489.73,-52.7048"/>
</g>
<!-- Node7 -->
<g id="node12" class="node"><title>Node7</title>
<a xlink:href="classMezzanine_1_1NonStaticWorldObject.xhtml" target="_top" xlink:title="This is a small extention of the WorldObject class that adds features common to non&#45;static objects...">
<polygon fill="none" stroke="black" points="1164,-130 1164,-162 1298,-162 1298,-130 1164,-130"/>
<text text-anchor="start" x="1172" y="-149" font-family="FreeSans" font-size="10.00">Mezzanine::NonStaticWorld</text>
<text text-anchor="middle" x="1231" y="-137" font-family="FreeSans" font-size="10.00">Object</text>
</a>
</g>
<!-- Node7&#45;&gt;Node6 -->
<g id="edge12" class="edge"><title>Node7&#45;&gt;Node6</title>
<path fill="none" stroke="midnightblue" d="M1278.59,-126.025C1317.1,-109.865 1369.73,-87.7769 1399.97,-75.086"/>
<polygon fill="midnightblue" stroke="midnightblue" points="1277,-122.9 1269.13,-129.997 1279.71,-129.354 1277,-122.9"/>
</g>
<!-- Node8 -->
<g id="node14" class="node"><title>Node8</title>
<a xlink:href="classMezzanine_1_1WorldObject.xhtml" target="_top" xlink:title="This is the base class from which classes that are insertable into the physical world.">
<polygon fill="none" stroke="black" points="891,-345 891,-365 1011,-365 1011,-345 891,-345"/>
<text text-anchor="middle" x="951" y="-352" font-family="FreeSans" font-size="10.00">Mezzanine::WorldObject</text>
</a>
</g>
<!-- Node8&#45;&gt;Node7 -->
<g id="edge14" class="edge"><title>Node8&#45;&gt;Node7</title>
<path fill="none" stroke="midnightblue" d="M987.675,-340.485C1000.24,-333.84 1013.31,-324.774 1022,-313 1042.36,-285.424 1018.33,-264.563 1040,-238 1069.16,-202.256 1092.44,-214.008 1134,-194 1155.67,-183.568 1179.92,-171.568 1198.75,-162.176"/>
<polygon fill="midnightblue" stroke="midnightblue" points="986.119,-337.35 978.685,-344.9 989.204,-343.633 986.119,-337.35"/>
</g>
<!-- Node12 -->
<g id="node22" class="node"><title>Node12</title>
<a xlink:href="classMezzanine_1_1WorldObjectPhysicsSettings.xhtml" target="_top" xlink:title="This is a base helper class for configuring physics settings of a world object.">
<polygon fill="none" stroke="black" points="1154.5,-437 1154.5,-469 1307.5,-469 1307.5,-437 1154.5,-437"/>
<text text-anchor="start" x="1162.5" y="-456" font-family="FreeSans" font-size="10.00">Mezzanine::WorldObjectPhysics</text>
<text text-anchor="middle" x="1231" y="-444" font-family="FreeSans" font-size="10.00">Settings</text>
</a>
</g>
<!-- Node8&#45;&gt;Node12 -->
<g id="edge24" class="edge"><title>Node8&#45;&gt;Node12</title>
<path fill="none" stroke="#9a32cd" stroke-dasharray="5,2" d="M965.672,-372.557C981.846,-390.571 1009.63,-417.774 1040,-431 1060.2,-439.796 1110.35,-445.37 1154.19,-448.707"/>
<polygon fill="#9a32cd" stroke="#9a32cd" points="968.3,-370.246 959.09,-365.01 963.025,-374.847 968.3,-370.246"/>
<text text-anchor="middle" x="1087" y="-449" font-family="FreeSans" font-size="10.00"> Parent</text>
</g>
<!-- Node17 -->
<g id="node34" class="node"><title>Node17</title>
<a xlink:href="classMezzanine_1_1Physics_1_1Collision.xhtml" target="_top" xlink:title="This is an event class used to track collsions in the physics world.">
<polygon fill="none" stroke="black" points="1181,-225 1181,-257 1281,-257 1281,-225 1181,-225"/>
<text text-anchor="start" x="1189" y="-244" font-family="FreeSans" font-size="10.00">Mezzanine::Physics</text>
<text text-anchor="middle" x="1231" y="-232" font-family="FreeSans" font-size="10.00">::Collision</text>
</a>
</g>
<!-- Node8&#45;&gt;Node17 -->
<g id="edge40" class="edge"><title>Node8&#45;&gt;Node17</title>
<path fill="none" stroke="#9a32cd" stroke-dasharray="5,2" d="M984.532,-340.277C997.429,-333.392 1011.55,-324.214 1022,-313 1034.2,-299.913 1025.72,-287.779 1040,-277 1080.39,-246.5 1139.03,-239.383 1180.66,-238.718"/>
<polygon fill="#9a32cd" stroke="#9a32cd" points="982.772,-337.245 975.428,-344.881 985.931,-343.491 982.772,-337.245"/>
<text text-anchor="middle" x="1087" y="-292" font-family="FreeSans" font-size="10.00"> ObjectA</text>
<text text-anchor="middle" x="1087" y="-280" font-family="FreeSans" font-size="10.00">ObjectB</text>
</g>
<!-- Node19 -->
<g id="node39" class="node"><title>Node19</title>
<a xlink:href="classMezzanine_1_1WorldObjectGraphicsSettings.xhtml" target="_top" xlink:title="This is a helper class for configuring graphics settings of a World Object.">
<polygon fill="none" stroke="black" points="1152,-345 1152,-377 1310,-377 1310,-345 1152,-345"/>
<text text-anchor="start" x="1160" y="-364" font-family="FreeSans" font-size="10.00">Mezzanine::WorldObjectGraphics</text>
<text text-anchor="middle" x="1231" y="-352" font-family="FreeSans" font-size="10.00">Settings</text>
</a>
</g>
<!-- Node8&#45;&gt;Node19 -->
<g id="edge44" class="edge"><title>Node8&#45;&gt;Node19</title>
<path fill="none" stroke="#9a32cd" stroke-dasharray="5,2" d="M1021.67,-347.199C1027.86,-346.714 1034.04,-346.301 1040,-346 1081.72,-343.896 1092.35,-342.798 1134,-346 1139.86,-346.451 1145.91,-347.052 1151.97,-347.756"/>
<polygon fill="#9a32cd" stroke="#9a32cd" points="1020.93,-343.749 1011.26,-348.077 1021.52,-350.724 1020.93,-343.749"/>
<text text-anchor="middle" x="1087" y="-349" font-family="FreeSans" font-size="10.00"> Parent</text>
</g>
<!-- Node9 -->
<g id="node16" class="node"><title>Node9</title>
<a xlink:href="classMezzanine_1_1Audio_1_1SoundSet.xhtml" target="_top" xlink:title="This is a vector that stores sounds.">
<polygon fill="none" stroke="black" points="634.5,-345 634.5,-365 773.5,-365 773.5,-345 634.5,-345"/>
<text text-anchor="middle" x="704" y="-352" font-family="FreeSans" font-size="10.00">Mezzanine::Audio::SoundSet</text>
</a>
</g>
<!-- Node9&#45;&gt;Node8 -->
<g id="edge16" class="edge"><title>Node9&#45;&gt;Node8</title>
<path fill="none" stroke="#9a32cd" stroke-dasharray="5,2" d="M783.889,-355C818.553,-355 858.477,-355 890.608,-355"/>
<polygon fill="#9a32cd" stroke="#9a32cd" points="783.79,-351.5 773.79,-355 783.79,-358.5 783.79,-351.5"/>
<text text-anchor="middle" x="830" y="-358" font-family="FreeSans" font-size="10.00"> ObjectSounds</text>
</g>
<!-- Node10 -->
<g id="node18" class="node"><title>Node10</title>
<a xlink:title="STL class.">
<polygon fill="none" stroke="#bfbfbf" points="427,-345 427,-365 537,-365 537,-345 427,-345"/>
<text text-anchor="middle" x="482" y="-352" font-family="FreeSans" font-size="10.00">std::vector&lt; Sound * &gt;</text>
</a>
</g>
<!-- Node10&#45;&gt;Node9 -->
<g id="edge18" class="edge"><title>Node10&#45;&gt;Node9</title>
<path fill="none" stroke="midnightblue" d="M547.41,-355C574.767,-355 606.596,-355 634.385,-355"/>
<polygon fill="midnightblue" stroke="midnightblue" points="547.162,-351.5 537.162,-355 547.162,-358.5 547.162,-351.5"/>
</g>
<!-- Node11 -->
<g id="node20" class="node"><title>Node11</title>
<polygon fill="none" stroke="#bfbfbf" points="243.5,-345 243.5,-365 272.5,-365 272.5,-345 243.5,-345"/>
<text text-anchor="middle" x="258" y="-352" font-family="FreeSans" font-size="10.00">T</text>
</g>
<!-- Node11&#45;&gt;Node10 -->
<g id="edge20" class="edge"><title>Node11&#45;&gt;Node10</title>
<path fill="none" stroke="#9a32cd" stroke-dasharray="5,2" d="M282.844,-355C317.413,-355 380.955,-355 426.988,-355"/>
<polygon fill="#9a32cd" stroke="#9a32cd" points="282.697,-351.5 272.697,-355 282.697,-358.5 282.697,-351.5"/>
<text text-anchor="middle" x="370" y="-358" font-family="FreeSans" font-size="10.00"> elements</text>
</g>
<!-- Node12&#45;&gt;Node8 -->
<g id="edge22" class="edge"><title>Node12&#45;&gt;Node8</title>
<path fill="none" stroke="#9a32cd" stroke-dasharray="5,2" d="M1175.43,-433.515C1161.88,-428.764 1147.42,-423.698 1134,-419 1079.52,-399.925 1015.9,-377.685 979.845,-365.081"/>
<polygon fill="#9a32cd" stroke="#9a32cd" points="1174.52,-436.904 1185.11,-436.909 1176.83,-430.298 1174.52,-436.904"/>
<text text-anchor="middle" x="1087" y="-422" font-family="FreeSans" font-size="10.00"> PhysicsSettings</text>
</g>
<!-- Node13 -->
<g id="node25" class="node"><title>Node13</title>
<a xlink:href="classMezzanine_1_1Physics_1_1CollisionShape.xhtml" target="_top" xlink:title="This is the base class for all collision shapes.">
<polygon fill="none" stroke="black" points="901,-464 901,-496 1001,-496 1001,-464 901,-464"/>
<text text-anchor="start" x="909" y="-483" font-family="FreeSans" font-size="10.00">Mezzanine::Physics</text>
<text text-anchor="middle" x="951" y="-471" font-family="FreeSans" font-size="10.00">::CollisionShape</text>
</a>
</g>
<!-- Node13&#45;&gt;Node12 -->
<g id="edge26" class="edge"><title>Node13&#45;&gt;Node12</title>
<path fill="none" stroke="#9a32cd" stroke-dasharray="5,2" d="M1011.42,-476.244C1047.13,-473.809 1093.19,-470.292 1134,-466 1140.59,-465.307 1147.42,-464.523 1154.27,-463.693"/>
<polygon fill="#9a32cd" stroke="#9a32cd" points="1010.91,-472.771 1001.17,-476.934 1011.38,-479.755 1010.91,-472.771"/>
<text text-anchor="middle" x="1087" y="-476" font-family="FreeSans" font-size="10.00"> WorldObjectShape</text>
</g>
<!-- Node14 -->
<g id="node27" class="node"><title>Node14</title>
<a xlink:title="STL class.">
<polygon fill="none" stroke="#bfbfbf" points="675.5,-402 675.5,-422 732.5,-422 732.5,-402 675.5,-402"/>
<text text-anchor="middle" x="704" y="-409" font-family="FreeSans" font-size="10.00">std::string</text>
</a>
</g>
<!-- Node14&#45;&gt;Node8 -->
<g id="edge32" class="edge"><title>Node14&#45;&gt;Node8</title>
<path fill="none" stroke="#9a32cd" stroke-dasharray="5,2" d="M742.716,-403.065C787.42,-392.749 860.773,-375.822 907.434,-365.054"/>
<polygon fill="#9a32cd" stroke="#9a32cd" points="741.774,-399.691 732.817,-405.35 743.348,-406.512 741.774,-399.691"/>
<text text-anchor="middle" x="830" y="-393" font-family="FreeSans" font-size="10.00"> Name</text>
</g>
<!-- Node14&#45;&gt;Node13 -->
<g id="edge28" class="edge"><title>Node14&#45;&gt;Node13</title>
<path fill="none" stroke="#9a32cd" stroke-dasharray="5,2" d="M742.523,-422.605C785.074,-434.32 853.75,-453.227 900.561,-466.114"/>
<polygon fill="#9a32cd" stroke="#9a32cd" points="743.388,-419.213 732.817,-419.934 741.53,-425.962 743.388,-419.213"/>
<text text-anchor="middle" x="830" y="-457" font-family="FreeSans" font-size="10.00"> Name</text>
</g>
<!-- Node15 -->
<g id="node29" class="node"><title>Node15</title>
<a xlink:title="STL class.">
<polygon fill="none" stroke="#bfbfbf" points="436.5,-396 436.5,-428 527.5,-428 527.5,-396 436.5,-396"/>
<text text-anchor="start" x="444.5" y="-415" font-family="FreeSans" font-size="10.00">std::basic_string&lt;</text>
<text text-anchor="middle" x="482" y="-403" font-family="FreeSans" font-size="10.00"> char &gt;</text>
</a>
</g>
<!-- Node15&#45;&gt;Node14 -->
<g id="edge30" class="edge"><title>Node15&#45;&gt;Node14</title>
<path fill="none" stroke="midnightblue" d="M537.928,-412C581.64,-412 640.613,-412 675.248,-412"/>
<polygon fill="midnightblue" stroke="midnightblue" points="537.729,-408.5 527.729,-412 537.729,-415.5 537.729,-408.5"/>
</g>
<!-- Node16 -->
<g id="node32" class="node"><title>Node16</title>
<polygon fill="none" stroke="#bfbfbf" points="1379,-280 1379,-312 1469,-312 1469,-280 1379,-280"/>
<text text-anchor="start" x="1387" y="-299" font-family="FreeSans" font-size="10.00">std::set&lt; Physics:</text>
<text text-anchor="middle" x="1424" y="-287" font-family="FreeSans" font-size="10.00">:Collision * &gt;</text>
</g>
<!-- Node16&#45;&gt;Node8 -->
<g id="edge34" class="edge"><title>Node16&#45;&gt;Node8</title>
<path fill="none" stroke="#9a32cd" stroke-dasharray="5,2" d="M1368.77,-300.646C1293.99,-307.288 1156.47,-320.741 1040,-339 1028.52,-340.799 1016.24,-342.895 1004.59,-344.966"/>
<polygon fill="#9a32cd" stroke="#9a32cd" points="1369.24,-304.118 1378.9,-299.754 1368.63,-297.145 1369.24,-304.118"/>
<text text-anchor="middle" x="1231" y="-325" font-family="FreeSans" font-size="10.00"> CurrentCollisions</text>
</g>
<!-- Node17&#45;&gt;Node16 -->
<g id="edge36" class="edge"><title>Node17&#45;&gt;Node16</title>
<path fill="none" stroke="#9a32cd" stroke-dasharray="5,2" d="M1291.03,-258.106C1319.44,-266.202 1352.79,-275.708 1378.99,-283.173"/>
<polygon fill="#9a32cd" stroke="#9a32cd" points="1291.78,-254.682 1281.2,-255.307 1289.86,-261.414 1291.78,-254.682"/>
<text text-anchor="middle" x="1339" y="-276" font-family="FreeSans" font-size="10.00"> keys</text>
</g>
<!-- Node18 -->
<g id="node36" class="node"><title>Node18</title>
<polygon fill="none" stroke="#bfbfbf" points="903,-174 903,-194 999,-194 999,-174 903,-174"/>
<text text-anchor="middle" x="951" y="-181" font-family="FreeSans" font-size="10.00">std::vector&lt; Real &gt;</text>
</g>
<!-- Node18&#45;&gt;Node17 -->
<g id="edge38" class="edge"><title>Node18&#45;&gt;Node17</title>
<path fill="none" stroke="#9a32cd" stroke-dasharray="5,2" d="M1009.65,-188.184C1045.83,-191.55 1093.01,-197.355 1134,-207 1153.28,-211.537 1174.08,-218.531 1191.45,-224.999"/>
<polygon fill="#9a32cd" stroke="#9a32cd" points="1009.54,-184.661 999.273,-187.258 1008.92,-191.633 1009.54,-184.661"/>
<text text-anchor="middle" x="1087" y="-210" font-family="FreeSans" font-size="10.00"> PenetrationDistances</text>
</g>
<!-- Node19&#45;&gt;Node8 -->
<g id="edge42" class="edge"><title>Node19&#45;&gt;Node8</title>
<path fill="none" stroke="#9a32cd" stroke-dasharray="5,2" d="M1141.74,-362.243C1109.65,-362.361 1073.19,-362.118 1040,-361 1030.71,-360.687 1020.89,-360.192 1011.29,-359.616"/>
<polygon fill="#9a32cd" stroke="#9a32cd" points="1142.01,-365.741 1151.99,-362.192 1141.97,-358.741 1142.01,-365.741"/>
<text text-anchor="middle" x="1087" y="-365" font-family="FreeSans" font-size="10.00"> GraphicsSettings</text>
</g>
<!-- Node20 -->
<g id="node42" class="node"><title>Node20</title>
<a xlink:href="classMezzanine_1_1Graphics_1_1Mesh.xhtml" target="_top" xlink:title="This class is used to check and modify the properties of a graphics mesh.">
<polygon fill="none" stroke="black" points="898.5,-272 898.5,-304 1003.5,-304 1003.5,-272 898.5,-272"/>
<text text-anchor="start" x="906.5" y="-291" font-family="FreeSans" font-size="10.00">Mezzanine::Graphics</text>
<text text-anchor="middle" x="951" y="-279" font-family="FreeSans" font-size="10.00">::Mesh</text>
</a>
</g>
<!-- Node20&#45;&gt;Node19 -->
<g id="edge46" class="edge"><title>Node20&#45;&gt;Node19</title>
<path fill="none" stroke="#9a32cd" stroke-dasharray="5,2" d="M1014.11,-299.393C1049.6,-306.313 1094.57,-315.938 1134,-327 1152.21,-332.11 1171.97,-338.818 1188.88,-344.924"/>
<polygon fill="#9a32cd" stroke="#9a32cd" points="1014.37,-295.879 1003.89,-297.424 1013.05,-302.753 1014.37,-295.879"/>
<text text-anchor="middle" x="1087" y="-330" font-family="FreeSans" font-size="10.00"> WorldObjectMesh</text>
</g>
<!-- Node21 -->
<g id="node44" class="node"><title>Node21</title>
<a xlink:href="classMezzanine_1_1Graphics_1_1Skeleton.xhtml" target="_top" xlink:title="This class encapsulates the Skeletal animation functionality of a Mesh.">
<polygon fill="none" stroke="black" points="651.5,-78 651.5,-110 756.5,-110 756.5,-78 651.5,-78"/>
<text text-anchor="start" x="659.5" y="-97" font-family="FreeSans" font-size="10.00">Mezzanine::Graphics</text>
<text text-anchor="middle" x="704" y="-85" font-family="FreeSans" font-size="10.00">::Skeleton</text>
</a>
</g>
<!-- Node21&#45;&gt;Node20 -->
<g id="edge48" class="edge"><title>Node21&#45;&gt;Node20</title>
<path fill="none" stroke="#9a32cd" stroke-dasharray="5,2" d="M765.787,-112.397C771.039,-115.663 775.9,-119.498 780,-124 799.32,-145.214 781.034,-162.86 798,-186 827.448,-226.163 877.821,-255.253 912.681,-271.852"/>
<polygon fill="#9a32cd" stroke="#9a32cd" points="767.1,-109.127 756.644,-107.421 763.754,-115.275 767.1,-109.127"/>
<text text-anchor="middle" x="830" y="-245" font-family="FreeSans" font-size="10.00"> MeshSkel</text>
</g>
<!-- Node23 -->
<g id="node48" class="node"><title>Node23</title>
<a xlink:href="classMezzanine_1_1Graphics_1_1Bone.xhtml" target="_top" xlink:title="This class encapsulates the bones contained in a skeleton used for animation.">
<polygon fill="none" stroke="black" points="898.5,-36 898.5,-68 1003.5,-68 1003.5,-36 898.5,-36"/>
<text text-anchor="start" x="906.5" y="-55" font-family="FreeSans" font-size="10.00">Mezzanine::Graphics</text>
<text text-anchor="middle" x="951" y="-43" font-family="FreeSans" font-size="10.00">::Bone</text>
</a>
</g>
<!-- Node21&#45;&gt;Node23 -->
<g id="edge56" class="edge"><title>Node21&#45;&gt;Node23</title>
<path fill="none" stroke="#9a32cd" stroke-dasharray="5,2" d="M766.627,-83.3377C777.102,-81.5549 787.859,-79.7248 798,-78 831.335,-72.3306 868.757,-65.9713 898.247,-60.961"/>
<polygon fill="#9a32cd" stroke="#9a32cd" points="765.969,-79.8992 756.698,-85.0275 767.144,-86.7999 765.969,-79.8992"/>
<text text-anchor="middle" x="830" y="-81" font-family="FreeSans" font-size="10.00"> Host</text>
</g>
<!-- Node22 -->
<g id="node46" class="node"><title>Node22</title>
<polygon fill="none" stroke="#bfbfbf" points="1178.5,-73 1178.5,-93 1283.5,-93 1283.5,-73 1178.5,-73"/>
<text text-anchor="middle" x="1231" y="-80" font-family="FreeSans" font-size="10.00">std::vector&lt; Bone * &gt;</text>
</g>
<!-- Node22&#45;&gt;Node21 -->
<g id="edge50" class="edge"><title>Node22&#45;&gt;Node21</title>
<path fill="none" stroke="#9a32cd" stroke-dasharray="5,2" d="M1168.13,-87.3501C1156.77,-88.0044 1145.04,-88.5947 1134,-89 998.028,-93.9927 837.723,-94.4108 756.645,-94.2373"/>
<polygon fill="#9a32cd" stroke="#9a32cd" points="1168.64,-90.8256 1178.42,-86.7348 1168.23,-83.8381 1168.64,-90.8256"/>
<text text-anchor="middle" x="951" y="-97" font-family="FreeSans" font-size="10.00"> Bones</text>
</g>
<!-- Node23&#45;&gt;Node22 -->
<g id="edge52" class="edge"><title>Node23&#45;&gt;Node22</title>
<path fill="none" stroke="#9a32cd" stroke-dasharray="5,2" d="M1013.61,-58.9317C1063.07,-64.4083 1131.34,-71.9658 1178.1,-77.1427"/>
<polygon fill="#9a32cd" stroke="#9a32cd" points="1013.99,-55.4526 1003.67,-57.8309 1013.22,-62.4101 1013.99,-55.4526"/>
<text text-anchor="middle" x="1087" y="-76" font-family="FreeSans" font-size="10.00"> elements</text>
</g>
<!-- Node24 -->
<g id="node50" class="node"><title>Node24</title>
<a xlink:href="classMezzanine_1_1TransformableObject.xhtml" target="_top" xlink:title="This is an interface for all 3D objects that can have their full transforms manipulated.">
<polygon fill="none" stroke="black" points="640,-28 640,-60 768,-60 768,-28 640,-28"/>
<text text-anchor="start" x="648" y="-47" font-family="FreeSans" font-size="10.00">Mezzanine::Transformable</text>
<text text-anchor="middle" x="704" y="-35" font-family="FreeSans" font-size="10.00">Object</text>
</a>
</g>
<!-- Node24&#45;&gt;Node23 -->
<g id="edge54" class="edge"><title>Node24&#45;&gt;Node23</title>
<path fill="none" stroke="midnightblue" d="M778.417,-46.4103C817.072,-47.6623 863.39,-49.1624 898.305,-50.2933"/>
<polygon fill="midnightblue" stroke="midnightblue" points="778.36,-42.9067 768.252,-46.081 778.133,-49.903 778.36,-42.9067"/>
</g>
<!-- Node25 -->
<g id="node53" class="node"><title>Node25</title>
<polygon fill="none" stroke="#bfbfbf" points="642.5,-278 642.5,-298 765.5,-298 765.5,-278 642.5,-278"/>
<text text-anchor="middle" x="704" y="-285" font-family="FreeSans" font-size="10.00">std::vector&lt; SubMesh * &gt;</text>
</g>
<!-- Node25&#45;&gt;Node20 -->
<g id="edge58" class="edge"><title>Node25&#45;&gt;Node20</title>
<path fill="none" stroke="#9a32cd" stroke-dasharray="5,2" d="M775.729,-288C814.96,-288 862.702,-288 898.445,-288"/>
<polygon fill="#9a32cd" stroke="#9a32cd" points="775.691,-284.5 765.691,-288 775.691,-291.5 775.691,-284.5"/>
<text text-anchor="middle" x="830" y="-291" font-family="FreeSans" font-size="10.00"> SubMeshes</text>
</g>
<!-- Node26 -->
<g id="node55" class="node"><title>Node26</title>
<a xlink:href="classMezzanine_1_1Graphics_1_1SubMesh.xhtml" target="_top" xlink:title="This class represents a sub&#45;section of an overall mesh.">
<polygon fill="none" stroke="black" points="429.5,-272 429.5,-304 534.5,-304 534.5,-272 429.5,-272"/>
<text text-anchor="start" x="437.5" y="-291" font-family="FreeSans" font-size="10.00">Mezzanine::Graphics</text>
<text text-anchor="middle" x="482" y="-279" font-family="FreeSans" font-size="10.00">::SubMesh</text>
</a>
</g>
<!-- Node26&#45;&gt;Node25 -->
<g id="edge60" class="edge"><title>Node26&#45;&gt;Node25</title>
<path fill="none" stroke="#9a32cd" stroke-dasharray="5,2" d="M544.724,-288C575.281,-288 611.9,-288 642.317,-288"/>
<polygon fill="#9a32cd" stroke="#9a32cd" points="544.611,-284.5 534.611,-288 544.611,-291.5 544.611,-284.5"/>
<text text-anchor="middle" x="589" y="-291" font-family="FreeSans" font-size="10.00"> elements</text>
</g>
<!-- Node27 -->
<g id="node57" class="node"><title>Node27</title>
<a xlink:href="classMezzanine_1_1AttachableParent.xhtml" target="_top" xlink:title="Base class for objects that can have attachables attached to them.">
<polygon fill="none" stroke="black" points="880,-136 880,-156 1022,-156 1022,-136 880,-136"/>
<text text-anchor="middle" x="951" y="-143" font-family="FreeSans" font-size="10.00">Mezzanine::AttachableParent</text>
</a>
</g>
<!-- Node27&#45;&gt;Node7 -->
<g id="edge62" class="edge"><title>Node27&#45;&gt;Node7</title>
<path fill="none" stroke="midnightblue" d="M1032.17,-146C1073.98,-146 1124.34,-146 1163.91,-146"/>
<polygon fill="midnightblue" stroke="midnightblue" points="1032.02,-142.5 1022.02,-146 1032.02,-149.5 1032.02,-142.5"/>
</g>
<!-- Node27&#45;&gt;Node30 -->
<g id="edge74" class="edge"><title>Node27&#45;&gt;Node30</title>
<path fill="none" stroke="#9a32cd" stroke-dasharray="5,2" d="M869.538,-147.511C804.212,-148.905 710.188,-151.323 628,-155 602.376,-156.146 574.246,-157.789 549.575,-159.358"/>
<polygon fill="#9a32cd" stroke="#9a32cd" points="869.846,-151.005 879.77,-147.296 869.699,-144.007 869.846,-151.005"/>
<text text-anchor="middle" x="704" y="-158" font-family="FreeSans" font-size="10.00"> Parent</text>
</g>
<!-- Node28 -->
<g id="node59" class="node"><title>Node28</title>
<a xlink:href="classMezzanine_1_1AttachableBase.xhtml" target="_top" xlink:title="This class is the base class for other attachable classes and is responsible for transform updates to...">
<polygon fill="none" stroke="black" points="190.5,-207 190.5,-227 325.5,-227 325.5,-207 190.5,-207"/>
<text text-anchor="middle" x="258" y="-214" font-family="FreeSans" font-size="10.00">Mezzanine::AttachableBase</text>
</a>
</g>
<!-- Node28&#45;&gt;Node27 -->
<g id="edge64" class="edge"><title>Node28&#45;&gt;Node27</title>
<path fill="none" stroke="midnightblue" d="M328.766,-228.611C469.901,-250.128 779.879,-288.67 862,-227 884.944,-209.77 859.498,-185.074 880,-165 883.647,-161.429 887.888,-158.51 892.447,-156.127"/>
<polygon fill="midnightblue" stroke="midnightblue" points="328.91,-225.092 318.494,-227.029 327.845,-232.01 328.91,-225.092"/>
</g>
<!-- Node28&#45;&gt;Node30 -->
<g id="edge70" class="edge"><title>Node28&#45;&gt;Node30</title>
<path fill="none" stroke="midnightblue" d="M310.318,-204.621C349.592,-195.329 402.698,-182.763 439.397,-174.08"/>
<polygon fill="midnightblue" stroke="midnightblue" points="309.321,-201.26 300.396,-206.969 310.933,-208.072 309.321,-201.26"/>
</g>
<!-- Node29 -->
<g id="node61" class="node"><title>Node29</title>
<polygon fill="none" stroke="#bfbfbf" points="628.5,-176 628.5,-196 779.5,-196 779.5,-176 628.5,-176"/>
<text text-anchor="middle" x="704" y="-183" font-family="FreeSans" font-size="10.00">std::vector&lt; AttachableChild * &gt;</text>
</g>
<!-- Node29&#45;&gt;Node27 -->
<g id="edge66" class="edge"><title>Node29&#45;&gt;Node27</title>
<path fill="none" stroke="#9a32cd" stroke-dasharray="5,2" d="M775.912,-174.354C811.731,-168.554 854.607,-161.61 888.965,-156.046"/>
<polygon fill="#9a32cd" stroke="#9a32cd" points="775.322,-170.904 766.01,-175.958 776.441,-177.814 775.322,-170.904"/>
<text text-anchor="middle" x="830" y="-173" font-family="FreeSans" font-size="10.00"> Attached</text>
</g>
<!-- Node30&#45;&gt;Node29 -->
<g id="edge68" class="edge"><title>Node30&#45;&gt;Node29</title>
<path fill="none" stroke="#9a32cd" stroke-dasharray="5,2" d="M559.591,-171.689C581.865,-173.896 606.117,-176.3 628.276,-178.496"/>
<polygon fill="#9a32cd" stroke="#9a32cd" points="559.808,-168.194 549.512,-170.69 559.118,-175.16 559.808,-168.194"/>
<text text-anchor="middle" x="589" y="-179" font-family="FreeSans" font-size="10.00"> elements</text>
</g>
</g>
</svg>
