<?xml version="1.0" encoding="UTF-8" standalone="no"?>
<!DOCTYPE svg PUBLIC "-//W3C//DTD SVG 1.1//EN"
 "http://www.w3.org/Graphics/SVG/1.1/DTD/svg11.dtd">
<!-- Generated by graphviz version 2.26.3 (20100126.1600)
 -->
<!-- Title: Mezzanine::Physics::StickyConstraintConstructionInfo Pages: 1 -->
<svg width="1862pt" height="469pt"
 viewBox="0.00 0.00 1862.00 469.00" xmlns="http://www.w3.org/2000/svg" xmlns:xlink="http://www.w3.org/1999/xlink">
<g id="graph1" class="graph" transform="scale(1 1) rotate(0) translate(4 465)">
<title>Mezzanine::Physics::StickyConstraintConstructionInfo</title>
<polygon fill="white" stroke="white" points="-4,5 -4,-465 1859,-465 1859,5 -4,5"/>
<!-- Node1 -->
<g id="node1" class="node"><title>Node1</title>
<polygon fill="#bfbfbf" stroke="black" points="1692,-401 1692,-433 1854,-433 1854,-401 1692,-401"/>
<text text-anchor="start" x="1700" y="-420" font-family="FreeSans" font-size="10.00">Mezzanine::Physics</text>
<text text-anchor="middle" x="1773" y="-408" font-family="FreeSans" font-size="10.00">::StickyConstraintConstructionInfo</text>
</g>
<!-- Node2 -->
<g id="node2" class="node"><title>Node2</title>
<a xlink:href="classMezzanine_1_1Transform.xhtml" target="_top" xlink:title="Stores information about relative location and rotation in 3d space.">
<polygon fill="white" stroke="black" points="203,-413 203,-433 313,-433 313,-413 203,-413"/>
<text text-anchor="middle" x="258" y="-420" font-family="FreeSans" font-size="10.00">Mezzanine::Transform</text>
</a>
</g>
<!-- Node2&#45;&gt;Node1 -->
<g id="edge2" class="edge"><title>Node2&#45;&gt;Node1</title>
<path fill="none" stroke="#9a32cd" stroke-dasharray="5,2" d="M323.305,-429.238C367.951,-432.973 428.5,-437 482,-437 482,-437 482,-437 1574,-437 1612.89,-437 1655.84,-433.172 1691.86,-428.865"/>
<polygon fill="#9a32cd" stroke="#9a32cd" points="323.434,-425.736 313.173,-428.373 322.839,-432.711 323.434,-425.736"/>
<text text-anchor="middle" x="1087" y="-452" font-family="FreeSans" font-size="10.00"> TransA</text>
<text text-anchor="middle" x="1087" y="-440" font-family="FreeSans" font-size="10.00">TransB</text>
</g>
<!-- Node24 -->
<g id="node50" class="node"><title>Node24</title>
<a xlink:href="classMezzanine_1_1AttachableChild.xhtml" target="_top" xlink:title="This class is the base class for objects that can be attached to AttachableParent.">
<polygon fill="white" stroke="black" points="414.5,-329 414.5,-349 549.5,-349 549.5,-329 414.5,-329"/>
<text text-anchor="middle" x="482" y="-336" font-family="FreeSans" font-size="10.00">Mezzanine::AttachableChild</text>
</a>
</g>
<!-- Node2&#45;&gt;Node24 -->
<g id="edge58" class="edge"><title>Node2&#45;&gt;Node24</title>
<path fill="none" stroke="#9a32cd" stroke-dasharray="5,2" d="M294.42,-409.343C339.487,-392.442 415.163,-364.064 455.233,-349.038"/>
<polygon fill="#9a32cd" stroke="#9a32cd" points="293.154,-406.079 285.02,-412.868 295.612,-412.633 293.154,-406.079"/>
<text text-anchor="middle" x="370" y="-392" font-family="FreeSans" font-size="10.00"> LocalXform</text>
</g>
<!-- Node3 -->
<g id="node4" class="node"><title>Node3</title>
<a xlink:href="classMezzanine_1_1Vector3.xhtml" target="_top" xlink:title="This is used to represent a point in space, or a vector through space.">
<polygon fill="white" stroke="black" points="7,-432 7,-452 107,-452 107,-432 7,-432"/>
<text text-anchor="middle" x="57" y="-439" font-family="FreeSans" font-size="10.00">Mezzanine::Vector3</text>
</a>
</g>
<!-- Node3&#45;&gt;Node2 -->
<g id="edge4" class="edge"><title>Node3&#45;&gt;Node2</title>
<path fill="none" stroke="#9a32cd" stroke-dasharray="5,2" d="M117.352,-436.295C144.485,-433.73 176.291,-430.724 202.787,-428.219"/>
<polygon fill="#9a32cd" stroke="#9a32cd" points="116.829,-432.829 107.202,-437.255 117.487,-439.798 116.829,-432.829"/>
<text text-anchor="middle" x="152" y="-437" font-family="FreeSans" font-size="10.00"> Location</text>
</g>
<!-- Node4 -->
<g id="node6" class="node"><title>Node4</title>
<a xlink:href="classMezzanine_1_1Quaternion.xhtml" target="_top" xlink:title="This is used to store information about rotation in 3d space.">
<polygon fill="white" stroke="black" points="0,-394 0,-414 114,-414 114,-394 0,-394"/>
<text text-anchor="middle" x="57" y="-401" font-family="FreeSans" font-size="10.00">Mezzanine::Quaternion</text>
</a>
</g>
<!-- Node4&#45;&gt;Node2 -->
<g id="edge6" class="edge"><title>Node4&#45;&gt;Node2</title>
<path fill="none" stroke="#9a32cd" stroke-dasharray="5,2" d="M124.063,-410.339C149.657,-412.759 178.518,-415.487 202.877,-417.789"/>
<polygon fill="#9a32cd" stroke="#9a32cd" points="124.346,-406.851 114.061,-409.394 123.687,-413.819 124.346,-406.851"/>
<text text-anchor="middle" x="152" y="-417" font-family="FreeSans" font-size="10.00"> Rotation</text>
</g>
<!-- Node5 -->
<g id="node8" class="node"><title>Node5</title>
<a xlink:href="classMezzanine_1_1ActorRigid.xhtml" target="_top" xlink:title="This is the actor class for Rigid Objects.">
<polygon fill="white" stroke="black" points="1518,-385 1518,-405 1630,-405 1630,-385 1518,-385"/>
<text text-anchor="middle" x="1574" y="-392" font-family="FreeSans" font-size="10.00">Mezzanine::ActorRigid</text>
</a>
</g>
<!-- Node5&#45;&gt;Node1 -->
<g id="edge8" class="edge"><title>Node5&#45;&gt;Node1</title>
<path fill="none" stroke="#9a32cd" stroke-dasharray="5,2" d="M1640.38,-396.351C1651.62,-396.953 1663.16,-397.803 1674,-399 1679.82,-399.642 1685.81,-400.424 1691.82,-401.299"/>
<polygon fill="#9a32cd" stroke="#9a32cd" points="1640.32,-392.845 1630.17,-395.866 1639.99,-399.837 1640.32,-392.845"/>
<text text-anchor="middle" x="1661" y="-414" font-family="FreeSans" font-size="10.00"> ActA</text>
<text text-anchor="middle" x="1661" y="-402" font-family="FreeSans" font-size="10.00">ActB</text>
</g>
<!-- Node6 -->
<g id="node10" class="node"><title>Node6</title>
<a xlink:href="classMezzanine_1_1ActorBase.xhtml" target="_top" xlink:title="This is the base class from which all the actors inherit.">
<polygon fill="white" stroke="black" points="1368,-371 1368,-391 1480,-391 1480,-371 1368,-371"/>
<text text-anchor="middle" x="1424" y="-378" font-family="FreeSans" font-size="10.00">Mezzanine::ActorBase</text>
</a>
</g>
<!-- Node6&#45;&gt;Node5 -->
<g id="edge10" class="edge"><title>Node6&#45;&gt;Node5</title>
<path fill="none" stroke="midnightblue" d="M1490.51,-387.207C1499.65,-388.061 1508.97,-388.93 1517.9,-389.764"/>
<polygon fill="midnightblue" stroke="midnightblue" points="1490.56,-383.697 1480.28,-386.253 1489.91,-390.667 1490.56,-383.697"/>
</g>
<!-- Node7 -->
<g id="node12" class="node"><title>Node7</title>
<a xlink:href="classMezzanine_1_1NonStaticWorldObject.xhtml" target="_top" xlink:title="This is a small extention of the WorldObject class that adds features common to non&#45;static objects...">
<polygon fill="white" stroke="black" points="1164,-345 1164,-377 1298,-377 1298,-345 1164,-345"/>
<text text-anchor="start" x="1172" y="-364" font-family="FreeSans" font-size="10.00">Mezzanine::NonStaticWorld</text>
<text text-anchor="middle" x="1231" y="-352" font-family="FreeSans" font-size="10.00">Object</text>
</a>
</g>
<!-- Node7&#45;&gt;Node6 -->
<g id="edge12" class="edge"><title>Node7&#45;&gt;Node6</title>
<path fill="none" stroke="midnightblue" d="M1308.22,-369.002C1328.16,-371.069 1349.25,-373.254 1367.88,-375.185"/>
<polygon fill="midnightblue" stroke="midnightblue" points="1308.54,-365.516 1298.23,-367.967 1307.82,-372.479 1308.54,-365.516"/>
</g>
<!-- Node8 -->
<g id="node14" class="node"><title>Node8</title>
<a xlink:href="classMezzanine_1_1WorldObject.xhtml" target="_top" xlink:title="This is the base class from which classes that are insertable into the physical world.">
<polygon fill="white" stroke="black" points="891,-172 891,-192 1011,-192 1011,-172 891,-172"/>
<text text-anchor="middle" x="951" y="-179" font-family="FreeSans" font-size="10.00">Mezzanine::WorldObject</text>
</a>
</g>
<!-- Node8&#45;&gt;Node7 -->
<g id="edge14" class="edge"><title>Node8&#45;&gt;Node7</title>
<path fill="none" stroke="midnightblue" d="M964.648,-200.031C980.626,-219.932 1008.89,-251.579 1040,-270 1077.51,-292.211 1094.43,-279.719 1134,-298 1161.89,-310.885 1191.09,-330.871 1210.07,-344.868"/>
<polygon fill="midnightblue" stroke="midnightblue" points="967.316,-197.761 958.393,-192.049 961.806,-202.079 967.316,-197.761"/>
</g>
<!-- Node12 -->
<g id="node22" class="node"><title>Node12</title>
<a xlink:href="classMezzanine_1_1WorldObjectPhysicsSettings.xhtml" target="_top" xlink:title="This is a base helper class for configuring physics settings of a world object.">
<polygon fill="white" stroke="black" points="1154.5,-113 1154.5,-145 1307.5,-145 1307.5,-113 1154.5,-113"/>
<text text-anchor="start" x="1162.5" y="-132" font-family="FreeSans" font-size="10.00">Mezzanine::WorldObjectPhysics</text>
<text text-anchor="middle" x="1231" y="-120" font-family="FreeSans" font-size="10.00">Settings</text>
</a>
</g>
<!-- Node8&#45;&gt;Node12 -->
<g id="edge24" class="edge"><title>Node8&#45;&gt;Node12</title>
<path fill="none" stroke="#9a32cd" stroke-dasharray="5,2" d="M1006.64,-169.816C1017.68,-167.485 1029.2,-165.114 1040,-163 1077.52,-155.659 1119.31,-148.144 1154.22,-142.052"/>
<polygon fill="#9a32cd" stroke="#9a32cd" points="1005.73,-166.432 996.673,-171.937 1007.18,-173.279 1005.73,-166.432"/>
<text text-anchor="middle" x="1087" y="-166" font-family="FreeSans" font-size="10.00"> Parent</text>
</g>
<!-- Node17 -->
<g id="node34" class="node"><title>Node17</title>
<a xlink:href="classMezzanine_1_1Physics_1_1Collision.xhtml" target="_top" xlink:title="This is an event class used to track collsions in the physics world.">
<polygon fill="white" stroke="black" points="1181,-63 1181,-95 1281,-95 1281,-63 1181,-63"/>
<text text-anchor="start" x="1189" y="-82" font-family="FreeSans" font-size="10.00">Mezzanine::Physics</text>
<text text-anchor="middle" x="1231" y="-70" font-family="FreeSans" font-size="10.00">::Collision</text>
</a>
</g>
<!-- Node8&#45;&gt;Node17 -->
<g id="edge40" class="edge"><title>Node8&#45;&gt;Node17</title>
<path fill="none" stroke="#9a32cd" stroke-dasharray="5,2" d="M962.887,-163.293C977.889,-141.54 1005.9,-106.625 1040,-91 1084.4,-70.6562 1140.79,-69.7193 1180.76,-72.6095"/>
<polygon fill="#9a32cd" stroke="#9a32cd" points="959.907,-161.452 957.274,-171.715 965.732,-165.334 959.907,-161.452"/>
<text text-anchor="middle" x="1087" y="-106" font-family="FreeSans" font-size="10.00"> ObjectA</text>
<text text-anchor="middle" x="1087" y="-94" font-family="FreeSans" font-size="10.00">ObjectB</text>
</g>
<!-- Node19 -->
<g id="node39" class="node"><title>Node19</title>
<a xlink:href="classMezzanine_1_1WorldObjectGraphicsSettings.xhtml" target="_top" xlink:title="This is a helper class for configuring graphics settings of a World Object.">
<polygon fill="white" stroke="black" points="1152,-241 1152,-273 1310,-273 1310,-241 1152,-241"/>
<text text-anchor="start" x="1160" y="-260" font-family="FreeSans" font-size="10.00">Mezzanine::WorldObjectGraphics</text>
<text text-anchor="middle" x="1231" y="-248" font-family="FreeSans" font-size="10.00">Settings</text>
</a>
</g>
<!-- Node8&#45;&gt;Node19 -->
<g id="edge44" class="edge"><title>Node8&#45;&gt;Node19</title>
<path fill="none" stroke="#9a32cd" stroke-dasharray="5,2" d="M1010.54,-194.127C1061.62,-204.567 1127.94,-218.228 1134,-220 1153.89,-225.819 1175.49,-233.877 1193.24,-240.987"/>
<polygon fill="#9a32cd" stroke="#9a32cd" points="1011.05,-190.659 1000.55,-192.087 1009.65,-197.517 1011.05,-190.659"/>
<text text-anchor="middle" x="1087" y="-223" font-family="FreeSans" font-size="10.00"> Parent</text>
</g>
<!-- Node9 -->
<g id="node16" class="node"><title>Node9</title>
<a xlink:href="classMezzanine_1_1Audio_1_1SoundSet.xhtml" target="_top" xlink:title="This is a vector that stores sounds.">
<polygon fill="white" stroke="black" points="634.5,-172 634.5,-192 773.5,-192 773.5,-172 634.5,-172"/>
<text text-anchor="middle" x="704" y="-179" font-family="FreeSans" font-size="10.00">Mezzanine::Audio::SoundSet</text>
</a>
</g>
<!-- Node9&#45;&gt;Node8 -->
<g id="edge16" class="edge"><title>Node9&#45;&gt;Node8</title>
<path fill="none" stroke="#9a32cd" stroke-dasharray="5,2" d="M783.889,-182C818.553,-182 858.477,-182 890.608,-182"/>
<polygon fill="#9a32cd" stroke="#9a32cd" points="783.79,-178.5 773.79,-182 783.79,-185.5 783.79,-178.5"/>
<text text-anchor="middle" x="830" y="-185" font-family="FreeSans" font-size="10.00"> ObjectSounds</text>
</g>
<!-- Node10 -->
<g id="node18" class="node"><title>Node10</title>
<a xlink:title="STL class.">
<polygon fill="white" stroke="#bfbfbf" points="427,-172 427,-192 537,-192 537,-172 427,-172"/>
<text text-anchor="middle" x="482" y="-179" font-family="FreeSans" font-size="10.00">std::vector&lt; Sound * &gt;</text>
</a>
</g>
<!-- Node10&#45;&gt;Node9 -->
<g id="edge18" class="edge"><title>Node10&#45;&gt;Node9</title>
<path fill="none" stroke="midnightblue" d="M547.41,-182C574.767,-182 606.596,-182 634.385,-182"/>
<polygon fill="midnightblue" stroke="midnightblue" points="547.162,-178.5 537.162,-182 547.162,-185.5 547.162,-178.5"/>
</g>
<!-- Node11 -->
<g id="node20" class="node"><title>Node11</title>
<polygon fill="white" stroke="#bfbfbf" points="243.5,-172 243.5,-192 272.5,-192 272.5,-172 243.5,-172"/>
<text text-anchor="middle" x="258" y="-179" font-family="FreeSans" font-size="10.00">T</text>
</g>
<!-- Node11&#45;&gt;Node10 -->
<g id="edge20" class="edge"><title>Node11&#45;&gt;Node10</title>
<path fill="none" stroke="#9a32cd" stroke-dasharray="5,2" d="M282.844,-182C317.413,-182 380.955,-182 426.988,-182"/>
<polygon fill="#9a32cd" stroke="#9a32cd" points="282.697,-178.5 272.697,-182 282.697,-185.5 282.697,-178.5"/>
<text text-anchor="middle" x="370" y="-185" font-family="FreeSans" font-size="10.00"> elements</text>
</g>
<!-- Node12&#45;&gt;Node8 -->
<g id="edge22" class="edge"><title>Node12&#45;&gt;Node8</title>
<path fill="none" stroke="#9a32cd" stroke-dasharray="5,2" d="M1144.29,-118.547C1111.12,-117.129 1073.28,-118.693 1040,-128 1009.37,-136.567 978.788,-158.878 962.667,-171.985"/>
<polygon fill="#9a32cd" stroke="#9a32cd" points="1144.25,-122.05 1154.42,-119.077 1144.62,-115.059 1144.25,-122.05"/>
<text text-anchor="middle" x="1087" y="-131" font-family="FreeSans" font-size="10.00"> PhysicsSettings</text>
</g>
<!-- Node13 -->
<g id="node25" class="node"><title>Node13</title>
<a xlink:href="classMezzanine_1_1Physics_1_1CollisionShape.xhtml" target="_top" xlink:title="This is the base class for all collision shapes.">
<polygon fill="white" stroke="black" points="901,-52 901,-84 1001,-84 1001,-52 901,-52"/>
<text text-anchor="start" x="909" y="-71" font-family="FreeSans" font-size="10.00">Mezzanine::Physics</text>
<text text-anchor="middle" x="951" y="-59" font-family="FreeSans" font-size="10.00">::CollisionShape</text>
</a>
</g>
<!-- Node13&#45;&gt;Node12 -->
<g id="edge26" class="edge"><title>Node13&#45;&gt;Node12</title>
<path fill="none" stroke="#9a32cd" stroke-dasharray="5,2" d="M992.089,-47.9921C1032.18,-31.6641 1092.98,-15.7776 1134,-46 1155.73,-62.0089 1132.97,-84.8617 1152,-104 1155.35,-107.366 1159.14,-110.28 1163.22,-112.802"/>
<polygon fill="#9a32cd" stroke="#9a32cd" points="990.705,-44.7772 982.866,-51.9041 993.439,-51.2215 990.705,-44.7772"/>
<text text-anchor="middle" x="1087" y="-49" font-family="FreeSans" font-size="10.00"> WorldObjectShape</text>
</g>
<!-- Node14 -->
<g id="node27" class="node"><title>Node14</title>
<a xlink:title="STL class.">
<polygon fill="white" stroke="#bfbfbf" points="675.5,-106 675.5,-126 732.5,-126 732.5,-106 675.5,-106"/>
<text text-anchor="middle" x="704" y="-113" font-family="FreeSans" font-size="10.00">std::string</text>
</a>
</g>
<!-- Node14&#45;&gt;Node8 -->
<g id="edge32" class="edge"><title>Node14&#45;&gt;Node8</title>
<path fill="none" stroke="#9a32cd" stroke-dasharray="5,2" d="M742.561,-126.304C789.243,-138.777 867.329,-159.642 913.52,-171.985"/>
<polygon fill="#9a32cd" stroke="#9a32cd" points="743.382,-122.9 732.817,-123.7 741.575,-129.663 743.382,-122.9"/>
<text text-anchor="middle" x="830" y="-160" font-family="FreeSans" font-size="10.00"> Name</text>
</g>
<!-- Node14&#45;&gt;Node13 -->
<g id="edge28" class="edge"><title>Node14&#45;&gt;Node13</title>
<path fill="none" stroke="#9a32cd" stroke-dasharray="5,2" d="M740.451,-102.568C757.69,-96.6822 778.685,-90.1778 798,-86 831.984,-78.6493 870.907,-74.1225 900.99,-71.447"/>
<polygon fill="#9a32cd" stroke="#9a32cd" points="739.067,-99.3438 730.776,-105.94 741.371,-105.954 739.067,-99.3438"/>
<text text-anchor="middle" x="830" y="-89" font-family="FreeSans" font-size="10.00"> Name</text>
</g>
<!-- Node15 -->
<g id="node29" class="node"><title>Node15</title>
<a xlink:title="STL class.">
<polygon fill="white" stroke="#bfbfbf" points="436.5,-100 436.5,-132 527.5,-132 527.5,-100 436.5,-100"/>
<text text-anchor="start" x="444.5" y="-119" font-family="FreeSans" font-size="10.00">std::basic_string&lt;</text>
<text text-anchor="middle" x="482" y="-107" font-family="FreeSans" font-size="10.00"> char &gt;</text>
</a>
</g>
<!-- Node15&#45;&gt;Node14 -->
<g id="edge30" class="edge"><title>Node15&#45;&gt;Node14</title>
<path fill="none" stroke="midnightblue" d="M537.928,-116C581.64,-116 640.613,-116 675.248,-116"/>
<polygon fill="midnightblue" stroke="midnightblue" points="537.729,-112.5 527.729,-116 537.729,-119.5 537.729,-112.5"/>
</g>
<!-- Node16 -->
<g id="node32" class="node"><title>Node16</title>
<polygon fill="white" stroke="#bfbfbf" points="1379,-138 1379,-170 1469,-170 1469,-138 1379,-138"/>
<text text-anchor="start" x="1387" y="-157" font-family="FreeSans" font-size="10.00">std::set&lt; Physics:</text>
<text text-anchor="middle" x="1424" y="-145" font-family="FreeSans" font-size="10.00">:Collision * &gt;</text>
</g>
<!-- Node16&#45;&gt;Node8 -->
<g id="edge34" class="edge"><title>Node16&#45;&gt;Node8</title>
<path fill="none" stroke="#9a32cd" stroke-dasharray="5,2" d="M1368.72,-158.566C1310.39,-163.251 1215.78,-170.476 1134,-175 1093.05,-177.265 1046.9,-179.025 1011.19,-180.214"/>
<polygon fill="#9a32cd" stroke="#9a32cd" points="1369.14,-162.043 1378.82,-157.75 1368.57,-155.066 1369.14,-162.043"/>
<text text-anchor="middle" x="1231" y="-177" font-family="FreeSans" font-size="10.00"> CurrentCollisions</text>
</g>
<!-- Node17&#45;&gt;Node16 -->
<g id="edge36" class="edge"><title>Node17&#45;&gt;Node16</title>
<path fill="none" stroke="#9a32cd" stroke-dasharray="5,2" d="M1290.61,-97.112C1297.19,-99.3333 1303.76,-101.651 1310,-104 1337.31,-114.275 1367.52,-127.618 1389.97,-137.935"/>
<polygon fill="#9a32cd" stroke="#9a32cd" points="1291.6,-93.753 1281.01,-93.9345 1289.4,-100.399 1291.6,-93.753"/>
<text text-anchor="middle" x="1339" y="-123" font-family="FreeSans" font-size="10.00"> keys</text>
</g>
<!-- Node18 -->
<g id="node36" class="node"><title>Node18</title>
<polygon fill="white" stroke="#bfbfbf" points="903,-0 903,-20 999,-20 999,-0 903,-0"/>
<text text-anchor="middle" x="951" y="-7" font-family="FreeSans" font-size="10.00">std::vector&lt; Real &gt;</text>
</g>
<!-- Node18&#45;&gt;Node17 -->
<g id="edge38" class="edge"><title>Node18&#45;&gt;Node17</title>
<path fill="none" stroke="#9a32cd" stroke-dasharray="5,2" d="M1009.24,-2.56927C1045.9,0.0792014 1093.72,-0.232134 1134,-13 1165.46,-22.9695 1195.94,-46.7512 1214.09,-62.8717"/>
<polygon fill="#9a32cd" stroke="#9a32cd" points="1008.9,0.914421 999.219,-3.38687 1009.47,-6.06242 1008.9,0.914421"/>
<text text-anchor="middle" x="1087" y="-16" font-family="FreeSans" font-size="10.00"> PenetrationDistances</text>
</g>
<!-- Node19&#45;&gt;Node8 -->
<g id="edge42" class="edge"><title>Node19&#45;&gt;Node8</title>
<path fill="none" stroke="#9a32cd" stroke-dasharray="5,2" d="M1141.77,-254.524C1109.09,-251.602 1072.24,-245.895 1040,-235 1010.7,-225.097 980.593,-204.576 963.993,-192.175"/>
<polygon fill="#9a32cd" stroke="#9a32cd" points="1141.52,-258.015 1151.77,-255.344 1142.09,-251.038 1141.52,-258.015"/>
<text text-anchor="middle" x="1087" y="-257" font-family="FreeSans" font-size="10.00"> GraphicsSettings</text>
</g>
<!-- Node20 -->
<g id="node42" class="node"><title>Node20</title>
<a xlink:href="classMezzanine_1_1Graphics_1_1Mesh.xhtml" target="_top" xlink:title="This class is used to check and modify the properties of a graphics mesh.">
<polygon fill="white" stroke="black" points="898.5,-301 898.5,-333 1003.5,-333 1003.5,-301 898.5,-301"/>
<text text-anchor="start" x="906.5" y="-320" font-family="FreeSans" font-size="10.00">Mezzanine::Graphics</text>
<text text-anchor="middle" x="951" y="-308" font-family="FreeSans" font-size="10.00">::Mesh</text>
</a>
</g>
<!-- Node20&#45;&gt;Node19 -->
<g id="edge46" class="edge"><title>Node20&#45;&gt;Node19</title>
<path fill="none" stroke="#9a32cd" stroke-dasharray="5,2" d="M1013.53,-303.6C1055.71,-294.563 1111.57,-282.593 1156.11,-273.047"/>
<polygon fill="#9a32cd" stroke="#9a32cd" points="1012.71,-300.197 1003.67,-305.714 1014.18,-307.041 1012.71,-300.197"/>
<text text-anchor="middle" x="1087" y="-301" font-family="FreeSans" font-size="10.00"> WorldObjectMesh</text>
</g>
<!-- Node21 -->
<g id="node44" class="node"><title>Node21</title>
<a xlink:href="classMezzanine_1_1AttachableParent.xhtml" target="_top" xlink:title="Base class for objects that can have attachables attached to them.">
<polygon fill="white" stroke="black" points="880,-351 880,-371 1022,-371 1022,-351 880,-351"/>
<text text-anchor="middle" x="951" y="-358" font-family="FreeSans" font-size="10.00">Mezzanine::AttachableParent</text>
</a>
</g>
<!-- Node21&#45;&gt;Node7 -->
<g id="edge48" class="edge"><title>Node21&#45;&gt;Node7</title>
<path fill="none" stroke="midnightblue" d="M1032.17,-361C1073.98,-361 1124.34,-361 1163.91,-361"/>
<polygon fill="midnightblue" stroke="midnightblue" points="1032.02,-357.5 1022.02,-361 1032.02,-364.5 1032.02,-357.5"/>
</g>
<!-- Node21&#45;&gt;Node24 -->
<g id="edge60" class="edge"><title>Node21&#45;&gt;Node24</title>
<path fill="none" stroke="#9a32cd" stroke-dasharray="5,2" d="M901.633,-348.241C894.357,-346.23 886.968,-344.114 880,-342 835.079,-328.369 826.314,-315.658 780,-308 713.349,-296.979 695.186,-300.946 628,-308 590.375,-311.95 548.178,-321.478 518.863,-328.936"/>
<polygon fill="#9a32cd" stroke="#9a32cd" points="900.867,-351.66 911.435,-350.91 902.706,-344.906 900.867,-351.66"/>
<text text-anchor="middle" x="704" y="-311" font-family="FreeSans" font-size="10.00"> Parent</text>
</g>
<!-- Node22 -->
<g id="node46" class="node"><title>Node22</title>
<a xlink:href="classMezzanine_1_1AttachableBase.xhtml" target="_top" xlink:title="This class is the base class for other attachable classes and is responsible for transform updates to...">
<polygon fill="white" stroke="black" points="190.5,-346 190.5,-366 325.5,-366 325.5,-346 190.5,-346"/>
<text text-anchor="middle" x="258" y="-353" font-family="FreeSans" font-size="10.00">Mezzanine::AttachableBase</text>
</a>
</g>
<!-- Node22&#45;&gt;Node21 -->
<g id="edge50" class="edge"><title>Node22&#45;&gt;Node21</title>
<path fill="none" stroke="midnightblue" d="M335.746,-361.662C338.531,-361.789 341.289,-361.903 344,-362 545.648,-369.248 596.222,-362.778 798,-363 826.444,-363.031 833.557,-363.32 862,-363 867.718,-362.936 873.642,-362.848 879.594,-362.746"/>
<polygon fill="midnightblue" stroke="midnightblue" points="335.744,-358.157 325.579,-361.147 335.39,-365.148 335.744,-358.157"/>
</g>
<!-- Node22&#45;&gt;Node24 -->
<g id="edge56" class="edge"><title>Node22&#45;&gt;Node24</title>
<path fill="none" stroke="midnightblue" d="M335.553,-350.114C361.159,-348.171 389.426,-346.026 414.241,-344.142"/>
<polygon fill="midnightblue" stroke="midnightblue" points="335.218,-346.63 325.511,-350.876 335.747,-353.61 335.218,-346.63"/>
</g>
<!-- Node23 -->
<g id="node48" class="node"><title>Node23</title>
<polygon fill="white" stroke="#bfbfbf" points="628.5,-329 628.5,-349 779.5,-349 779.5,-329 628.5,-329"/>
<text text-anchor="middle" x="704" y="-336" font-family="FreeSans" font-size="10.00">std::vector&lt; AttachableChild * &gt;</text>
</g>
<!-- Node23&#45;&gt;Node21 -->
<g id="edge52" class="edge"><title>Node23&#45;&gt;Node21</title>
<path fill="none" stroke="#9a32cd" stroke-dasharray="5,2" d="M789.847,-344.954C813.262,-346.732 838.619,-348.799 862,-351 867.728,-351.539 873.659,-352.131 879.615,-352.75"/>
<polygon fill="#9a32cd" stroke="#9a32cd" points="789.826,-341.442 779.592,-344.184 789.302,-348.423 789.826,-341.442"/>
<text text-anchor="middle" x="830" y="-354" font-family="FreeSans" font-size="10.00"> Attached</text>
</g>
<!-- Node24&#45;&gt;Node23 -->
<g id="edge54" class="edge"><title>Node24&#45;&gt;Node23</title>
<path fill="none" stroke="#9a32cd" stroke-dasharray="5,2" d="M559.591,-339C581.865,-339 606.117,-339 628.276,-339"/>
<polygon fill="#9a32cd" stroke="#9a32cd" points="559.512,-335.5 549.512,-339 559.511,-342.5 559.512,-335.5"/>
<text text-anchor="middle" x="589" y="-342" font-family="FreeSans" font-size="10.00"> elements</text>
</g>
</g>
</svg>
