<?xml version="1.0" encoding="UTF-8" standalone="no"?>
<!DOCTYPE svg PUBLIC "-//W3C//DTD SVG 1.1//EN"
 "http://www.w3.org/Graphics/SVG/1.1/DTD/svg11.dtd">
<!-- Generated by graphviz version 2.26.3 (20100126.1600)
 -->
<!-- Title: Mezzanine::UI::Vertex Pages: 1 -->
<svg width="362pt" height="100pt"
 viewBox="0.00 0.00 362.00 100.00" xmlns="http://www.w3.org/2000/svg" xmlns:xlink="http://www.w3.org/1999/xlink">
<g id="graph1" class="graph" transform="scale(1 1) rotate(0) translate(4 96)">
<title>Mezzanine::UI::Vertex</title>
<polygon fill="white" stroke="white" points="-4,5 -4,-96 359,-96 359,5 -4,5"/>
<!-- Node1 -->
<g id="node1" class="node"><title>Node1</title>
<polygon fill="#bfbfbf" stroke="black" points="123,-1 123,-21 231,-21 231,-1 123,-1"/>
<text text-anchor="middle" x="177" y="-8" font-family="FreeSans" font-size="10.00">Mezzanine::UI::Vertex</text>
</g>
<!-- Node2 -->
<g id="node2" class="node"><title>Node2</title>
<a xlink:href="classMezzanine_1_1Vector2.xhtml" target="_top" xlink:title="This is used to represent a point on a 2 dimentional area, such as a screen.">
<polygon fill="white" stroke="black" points="0,-71 0,-91 100,-91 100,-71 0,-71"/>
<text text-anchor="middle" x="50" y="-78" font-family="FreeSans" font-size="10.00">Mezzanine::Vector2</text>
</a>
</g>
<!-- Node2&#45;&gt;Node1 -->
<g id="edge2" class="edge"><title>Node2&#45;&gt;Node1</title>
<path fill="none" stroke="#9a32cd" stroke-dasharray="5,2" d="M77.0496,-66.0908C101.705,-52.5013 137.445,-32.8019 158.838,-21.0107"/>
<polygon fill="#9a32cd" stroke="#9a32cd" points="75.2643,-63.0783 68.196,-70.9707 78.6433,-69.2088 75.2643,-63.0783"/>
<text text-anchor="middle" x="130" y="-43" font-family="FreeSans" font-size="10.00"> UV</text>
</g>
<!-- Node3 -->
<g id="node4" class="node"><title>Node3</title>
<a xlink:href="classMezzanine_1_1ColourValue.xhtml" target="_top" xlink:title="This is a simple class for holding 4 reals representing the colour any give object or lightsource can...">
<polygon fill="white" stroke="black" points="117.5,-71 117.5,-91 236.5,-91 236.5,-71 117.5,-71"/>
<text text-anchor="middle" x="177" y="-78" font-family="FreeSans" font-size="10.00">Mezzanine::ColourValue</text>
</a>
</g>
<!-- Node3&#45;&gt;Node1 -->
<g id="edge4" class="edge"><title>Node3&#45;&gt;Node1</title>
<path fill="none" stroke="#9a32cd" stroke-dasharray="5,2" d="M177,-60.6126C177,-47.5971 177,-31.2956 177,-21.0107"/>
<polygon fill="#9a32cd" stroke="#9a32cd" points="173.5,-60.9707 177,-70.9707 180.5,-60.9707 173.5,-60.9707"/>
<text text-anchor="middle" x="192.5" y="-43" font-family="FreeSans" font-size="10.00"> Colour</text>
</g>
<!-- Node4 -->
<g id="node6" class="node"><title>Node4</title>
<a xlink:href="classMezzanine_1_1Vector3.xhtml" target="_top" xlink:title="This is used to represent a point in space, or a vector through space.">
<polygon fill="white" stroke="black" points="254,-71 254,-91 354,-91 354,-71 254,-71"/>
<text text-anchor="middle" x="304" y="-78" font-family="FreeSans" font-size="10.00">Mezzanine::Vector3</text>
</a>
</g>
<!-- Node4&#45;&gt;Node1 -->
<g id="edge6" class="edge"><title>Node4&#45;&gt;Node1</title>
<path fill="none" stroke="#9a32cd" stroke-dasharray="5,2" d="M276.95,-66.0908C252.295,-52.5013 216.555,-32.8019 195.162,-21.0107"/>
<polygon fill="#9a32cd" stroke="#9a32cd" points="275.357,-69.2088 285.804,-70.9707 278.736,-63.0783 275.357,-69.2088"/>
<text text-anchor="middle" x="266.5" y="-43" font-family="FreeSans" font-size="10.00"> Position</text>
</g>
</g>
</svg>
