<?xml version="1.0" encoding="UTF-8" standalone="no"?>
<!DOCTYPE svg PUBLIC "-//W3C//DTD SVG 1.1//EN"
 "http://www.w3.org/Graphics/SVG/1.1/DTD/svg11.dtd">
<!-- Generated by graphviz version 2.26.3 (20100126.1600)
 -->
<!-- Title: Mezzanine::Threading::_thread_start_info Pages: 1 -->
<svg width="120pt" height="130pt"
 viewBox="0.00 0.00 120.00 130.00" xmlns="http://www.w3.org/2000/svg" xmlns:xlink="http://www.w3.org/1999/xlink">
<g id="graph1" class="graph" transform="scale(1 1) rotate(0) translate(4 126)">
<title>Mezzanine::Threading::_thread_start_info</title>
<polygon fill="white" stroke="white" points="-4,5 -4,-126 117,-126 117,5 -4,5"/>
<!-- Node1 -->
<g id="node1" class="node"><title>Node1</title>
<polygon fill="#bfbfbf" stroke="black" points="-0.5,-1 -0.5,-35 112.5,-35 112.5,-1 -0.5,-1"/>
<text text-anchor="start" x="7.5" y="-22" font-family="Helvetica,sans-Serif" font-size="10.00">Mezzanine::Threading</text>
<text text-anchor="middle" x="56" y="-9" font-family="Helvetica,sans-Serif" font-size="10.00">::_thread_start_info</text>
</g>
<!-- Node2 -->
<g id="node2" class="node"><title>Node2</title>
<a xlink:href="classMezzanine_1_1Threading_1_1Thread.html" target="_top" xlink:title="A small wrapper around the system thread. ">
<polygon fill="white" stroke="black" points="-0.5,-87 -0.5,-121 112.5,-121 112.5,-87 -0.5,-87"/>
<text text-anchor="start" x="7.5" y="-108" font-family="Helvetica,sans-Serif" font-size="10.00">Mezzanine::Threading</text>
<text text-anchor="middle" x="56" y="-95" font-family="Helvetica,sans-Serif" font-size="10.00">::Thread</text>
</a>
</g>
<!-- Node2&#45;&gt;Node1 -->
<g id="edge2" class="edge"><title>Node2&#45;&gt;Node1</title>
<path fill="none" stroke="#9a32cd" stroke-dasharray="5,2" d="M56,-76.342C56,-62.7741 56,-46.8607 56,-35.084"/>
<polygon fill="#9a32cd" stroke="#9a32cd" points="52.5001,-76.5966 56,-86.5966 59.5001,-76.5967 52.5001,-76.5966"/>
<text text-anchor="middle" x="77" y="-58.5" font-family="Helvetica,sans-Serif" font-size="10.00"> mThread</text>
</g>
</g>
</svg>
