<?xml version="1.0" encoding="UTF-8" standalone="no"?>
<!DOCTYPE svg PUBLIC "-//W3C//DTD SVG 1.1//EN"
 "http://www.w3.org/Graphics/SVG/1.1/DTD/svg11.dtd">
<!-- Generated by graphviz version 2.26.3 (20100126.1600)
 -->
<!-- Title: Mezzanine::Internal::EntityInternalData Pages: 1 -->
<!--zoomable 864 -->
<svg id="main" version="1.1" xmlns="http://www.w3.org/2000/svg" xmlns:xlink="http://www.w3.org/1999/xlink" xml:space="preserve" onload="init(evt)">
        <defs>
                <circle id="rim" cx="0" cy="0" r="7"/>
                <circle id="rim2" cx="0" cy="0" r="3.5"/>
                <g id="zoomPlus">
                        <use xlink:href="#rim" fill="#404040">
                                <set attributeName="fill" to="#808080" begin="zoomplus.mouseover" end="zoomplus.mouseout"/>
                        </use>
                        <path d="M-4,0h8M0,-4v8" fill="none" stroke="white" stroke-width="1.5" pointer-events="none"/>
                </g>
                <g id="zoomMin">
                        <use xlink:href="#rim" fill="#404040">
                                <set attributeName="fill" to="#808080" begin="zoomminus.mouseover" end="zoomminus.mouseout"/>
                        </use>
                        <path d="M-4,0h8" fill="none" stroke="white" stroke-width="1.5" pointer-events="none"/>
                </g>
                <g id="dirArrow">
                        <path fill="none" stroke="white" stroke-width="1.5" d="M0,-3.0v7 M-2.5,-0.5L0,-3.0L2.5,-0.5"/>
                </g>
               <g id="resetDef">
                       <use xlink:href="#rim2" fill="#404040">
                               <set attributeName="fill" to="#808080" begin="reset.mouseover" end="reset.mouseout"/>
                       </use>
               </g>
        </defs>

<script type="text/javascript">
var viewWidth = 2022;
var viewHeight = 864;
var sectionId = 'dynsection-0';
</script>
<script xlink:href="svgpan.js"/>
<svg id="graph" class="graph">
<g id="viewport">
<title>Mezzanine::Internal::EntityInternalData</title>
<polygon fill="white" stroke="white" points="-4,5 -4,-860 2019,-860 2019,5 -4,5"/>
<!-- Node1 -->
<g id="node1" class="node"><title>Node1</title>
<polygon fill="#bfbfbf" stroke="black" points="513.5,-196 513.5,-230 622.5,-230 622.5,-196 513.5,-196"/>
<text text-anchor="start" x="521.5" y="-217" font-family="FreeSans" font-size="10.00">Mezzanine::Internal</text>
<text text-anchor="middle" x="568" y="-204" font-family="FreeSans" font-size="10.00">::EntityInternalData</text>
</g>
<!-- Node30 -->
<g id="node76" class="node"><title>Node30</title>
<a xlink:href="classMezzanine_1_1Entity.xhtml" target="_top" xlink:title="This class is useful for representing graphical bodies without a physics representation.">
<polygon fill="white" stroke="black" points="776.5,-259.5 776.5,-280.5 877.5,-280.5 877.5,-259.5 776.5,-259.5"/>
<text text-anchor="middle" x="827" y="-267.5" font-family="FreeSans" font-size="10.00">Mezzanine::Entity</text>
</a>
</g>
<!-- Node1&#45;&gt;Node30 -->
<g id="edge98" class="edge"><title>Node1&#45;&gt;Node30</title>
<path fill="none" stroke="#9a32cd" stroke-dasharray="5,2" d="M632.653,-227.229C678.058,-237.221 737.8,-250.369 779,-259.436"/>
<polygon fill="#9a32cd" stroke="#9a32cd" points="633.129,-223.75 622.611,-225.019 631.625,-230.586 633.129,-223.75"/>
<text text-anchor="middle" x="691" y="-250" font-family="FreeSans" font-size="10.00"> EID</text>
</g>
<!-- Node2 -->
<g id="node2" class="node"><title>Node2</title>
<a xlink:href="classMezzanine_1_1SceneManager.xhtml" target="_top" xlink:title="This class contains utilities and functions to allow the manipulation of the Graphical scene...">
<polygon fill="white" stroke="black" points="1286,-259.5 1286,-280.5 1432,-280.5 1432,-259.5 1286,-259.5"/>
<text text-anchor="middle" x="1359" y="-267.5" font-family="FreeSans" font-size="10.00">Mezzanine::SceneManager</text>
</a>
</g>
<!-- Node2&#45;&gt;Node1 -->
<g id="edge2" class="edge"><title>Node2&#45;&gt;Node1</title>
<path fill="none" stroke="#9a32cd" stroke-dasharray="5,2" d="M1318.7,-256.127C1254.66,-234.896 1125.33,-195.303 1012,-181 856.681,-161.399 815.316,-174.372 660,-194 647.865,-195.534 634.943,-197.799 622.738,-200.237"/>
<polygon fill="#9a32cd" stroke="#9a32cd" points="1317.81,-259.52 1328.4,-259.37 1320.03,-252.881 1317.81,-259.52"/>
<text text-anchor="middle" x="972" y="-185" font-family="FreeSans" font-size="10.00"> Manager</text>
</g>
<!-- Node9 -->
<g id="node18" class="node"><title>Node9</title>
<a xlink:href="classMezzanine_1_1Internal_1_1SceneManagerData.xhtml" target="_top" xlink:title="Stores internal data for the SCeneManager to keep it from cluttering the Header file.">
<polygon fill="white" stroke="black" points="1632,-399 1632,-433 1750,-433 1750,-399 1632,-399"/>
<text text-anchor="start" x="1640" y="-420" font-family="FreeSans" font-size="10.00">Mezzanine::Internal</text>
<text text-anchor="middle" x="1691" y="-407" font-family="FreeSans" font-size="10.00">::SceneManagerData</text>
</a>
</g>
<!-- Node2&#45;&gt;Node9 -->
<g id="edge32" class="edge"><title>Node2&#45;&gt;Node9</title>
<path fill="none" stroke="#9a32cd" stroke-dasharray="5,2" d="M1373.01,-288.763C1390.68,-310.982 1423.26,-347.322 1460,-366 1510.75,-391.795 1530.4,-376.793 1586,-389 1600.89,-392.269 1616.87,-396.173 1631.76,-399.982"/>
<polygon fill="#9a32cd" stroke="#9a32cd" points="1375.67,-286.492 1366.78,-280.736 1370.14,-290.783 1375.67,-286.492"/>
<text text-anchor="middle" x="1523" y="-393" font-family="FreeSans" font-size="10.00"> SM</text>
</g>
<!-- Node15 -->
<g id="node31" class="node"><title>Node15</title>
<a xlink:href="classMezzanine_1_1TrackingNodeUpdateWorkUnit.xhtml" target="_top" xlink:title="This is a Mezzanine::Threading::iWorkUnit for the updating of tracking world nodes in the world...">
<polygon fill="white" stroke="black" points="1604.5,-127 1604.5,-161 1777.5,-161 1777.5,-127 1604.5,-127"/>
<text text-anchor="start" x="1612.5" y="-148" font-family="FreeSans" font-size="10.00">Mezzanine::TrackingNodeUpdate</text>
<text text-anchor="middle" x="1691" y="-135" font-family="FreeSans" font-size="10.00">WorkUnit</text>
</a>
</g>
<!-- Node2&#45;&gt;Node15 -->
<g id="edge38" class="edge"><title>Node2&#45;&gt;Node15</title>
<path fill="none" stroke="#9a32cd" stroke-dasharray="5,2" d="M1368.45,-250.131C1383.34,-221.452 1415.22,-169.536 1460,-148 1504.37,-126.66 1559.3,-124.865 1604.46,-128.778"/>
<polygon fill="#9a32cd" stroke="#9a32cd" points="1365.25,-248.71 1363.9,-259.219 1371.51,-251.843 1365.25,-248.71"/>
<text text-anchor="middle" x="1523" y="-152" font-family="FreeSans" font-size="10.00"> TargetManager</text>
</g>
<!-- Node18 -->
<g id="node38" class="node"><title>Node18</title>
<a xlink:href="classMezzanine_1_1WorldNode.xhtml" target="_top" xlink:title="This is a helper class which non&#45;physics objects, such as lights, cameras, ribbon trails...">
<polygon fill="white" stroke="black" points="1628.5,-576.5 1628.5,-597.5 1753.5,-597.5 1753.5,-576.5 1628.5,-576.5"/>
<text text-anchor="middle" x="1691" y="-584.5" font-family="FreeSans" font-size="10.00">Mezzanine::WorldNode</text>
</a>
</g>
<!-- Node2&#45;&gt;Node18 -->
<g id="edge72" class="edge"><title>Node2&#45;&gt;Node18</title>
<path fill="none" stroke="#9a32cd" stroke-dasharray="5,2" d="M1369.81,-289.876C1386.18,-318.533 1419.7,-371.767 1460,-406 1508.03,-446.793 1536.05,-432.581 1586,-471 1628.2,-503.462 1667.33,-554.214 1683.35,-576.22"/>
<polygon fill="#9a32cd" stroke="#9a32cd" points="1372.68,-287.851 1364.74,-280.836 1366.58,-291.271 1372.68,-287.851"/>
<text text-anchor="middle" x="1523" y="-475" font-family="FreeSans" font-size="10.00"> Manager</text>
</g>
<!-- Node28 -->
<g id="node70" class="node"><title>Node28</title>
<a xlink:href="classMezzanine_1_1Light.xhtml" target="_top" xlink:title="This class is the class used for dynamic lighting within the scene.">
<polygon fill="white" stroke="black" points="1642.5,-236.5 1642.5,-257.5 1739.5,-257.5 1739.5,-236.5 1642.5,-236.5"/>
<text text-anchor="middle" x="1691" y="-244.5" font-family="FreeSans" font-size="10.00">Mezzanine::Light</text>
</a>
</g>
<!-- Node2&#45;&gt;Node28 -->
<g id="edge90" class="edge"><title>Node2&#45;&gt;Node28</title>
<path fill="none" stroke="#9a32cd" stroke-dasharray="5,2" d="M1442.58,-264.21C1505.51,-259.85 1589.64,-254.022 1642.06,-250.391"/>
<polygon fill="#9a32cd" stroke="#9a32cd" points="1442,-260.741 1432.27,-264.924 1442.49,-267.725 1442,-260.741"/>
<text text-anchor="middle" x="1523" y="-266" font-family="FreeSans" font-size="10.00"> Manager</text>
</g>
<!-- Node3 -->
<g id="node4" class="node"><title>Node3</title>
<a xlink:href="classMezzanine_1_1WorldManager.xhtml" target="_top" xlink:title="This is the base class for all managers that belong to a single world instance.">
<polygon fill="white" stroke="black" points="1039.5,-60.5 1039.5,-81.5 1180.5,-81.5 1180.5,-60.5 1039.5,-60.5"/>
<text text-anchor="middle" x="1110" y="-68.5" font-family="FreeSans" font-size="10.00">Mezzanine::WorldManager</text>
</a>
</g>
<!-- Node3&#45;&gt;Node2 -->
<g id="edge4" class="edge"><title>Node3&#45;&gt;Node2</title>
<path fill="none" stroke="midnightblue" d="M1142.69,-85.9234C1174.02,-101.085 1221.77,-126.491 1258,-156 1297.98,-188.564 1335.65,-237.663 1351.34,-259.213"/>
<polygon fill="midnightblue" stroke="midnightblue" points="1144.06,-82.6977 1133.52,-81.5538 1141.04,-89.0164 1144.06,-82.6977"/>
</g>
<!-- Node8 -->
<g id="node15" class="node"><title>Node8</title>
<polygon fill="white" stroke="#bfbfbf" points="1276,-60.5 1276,-81.5 1442,-81.5 1442,-60.5 1276,-60.5"/>
<text text-anchor="middle" x="1359" y="-68.5" font-family="FreeSans" font-size="10.00">std::vector&lt; WorldManager * &gt;</text>
</g>
<!-- Node3&#45;&gt;Node8 -->
<g id="edge18" class="edge"><title>Node3&#45;&gt;Node8</title>
<path fill="none" stroke="#9a32cd" stroke-dasharray="5,2" d="M1190.93,-71C1218.11,-71 1248.45,-71 1275.79,-71"/>
<polygon fill="#9a32cd" stroke="#9a32cd" points="1190.69,-67.5001 1180.69,-71 1190.69,-74.5001 1190.69,-67.5001"/>
<text text-anchor="middle" x="1233" y="-75" font-family="FreeSans" font-size="10.00"> elements</text>
</g>
<!-- Node4 -->
<g id="node6" class="node"><title>Node4</title>
<a xlink:href="classMezzanine_1_1ManagerBase.xhtml" target="_top" xlink:title="This is the base class from which all the Entresol and World Managers inherit.">
<polygon fill="white" stroke="black" points="757,-60.5 757,-81.5 897,-81.5 897,-60.5 757,-60.5"/>
<text text-anchor="middle" x="827" y="-68.5" font-family="FreeSans" font-size="10.00">Mezzanine::ManagerBase</text>
</a>
</g>
<!-- Node4&#45;&gt;Node3 -->
<g id="edge6" class="edge"><title>Node4&#45;&gt;Node3</title>
<path fill="none" stroke="midnightblue" d="M907.392,-71C948.875,-71 999.031,-71 1039.06,-71"/>
<polygon fill="midnightblue" stroke="midnightblue" points="907.319,-67.5001 897.319,-71 907.319,-74.5001 907.319,-67.5001"/>
</g>
<!-- Node5 -->
<g id="node8" class="node"><title>Node5</title>
<a xlink:href="classMezzanine_1_1Entresol.xhtml" target="_top" xlink:title="This is the main entry point for the entire library.">
<polygon fill="white" stroke="black" points="512,-27.5 512,-48.5 624,-48.5 624,-27.5 512,-27.5"/>
<text text-anchor="middle" x="568" y="-35.5" font-family="FreeSans" font-size="10.00">Mezzanine::Entresol</text>
</a>
</g>
<!-- Node5&#45;&gt;Node4 -->
<g id="edge8" class="edge"><title>Node5&#45;&gt;Node4</title>
<path fill="none" stroke="#9a32cd" stroke-dasharray="5,2" d="M634.486,-46.4712C671.881,-51.2358 718.546,-57.1816 756.567,-62.0259"/>
<polygon fill="#9a32cd" stroke="#9a32cd" points="634.561,-42.9526 624.199,-45.1605 633.677,-49.8964 634.561,-42.9526"/>
<text text-anchor="middle" x="691" y="-62" font-family="FreeSans" font-size="10.00"> TheEntresol</text>
</g>
<!-- Node6 -->
<g id="node10" class="node"><title>Node6</title>
<a xlink:href="classMezzanine_1_1Singleton.xhtml" target="_top" xlink:title="Mezzanine::Singleton\l\&lt; Entresol \&gt;">
<polygon fill="white" stroke="black" points="767.5,-0 767.5,-34 886.5,-34 886.5,-0 767.5,-0"/>
<text text-anchor="start" x="775.5" y="-21" font-family="FreeSans" font-size="10.00">Mezzanine::Singleton</text>
<text text-anchor="middle" x="827" y="-8" font-family="FreeSans" font-size="10.00">&lt; Entresol &gt;</text>
</a>
</g>
<!-- Node5&#45;&gt;Node6 -->
<g id="edge12" class="edge"><title>Node5&#45;&gt;Node6</title>
<path fill="none" stroke="#9a32cd" stroke-dasharray="5,2" d="M603.503,-24.0194C620.338,-18.1171 640.906,-11.9382 660,-9 695.287,-3.57014 735.217,-5.20484 767.183,-8.36898"/>
<polygon fill="#9a32cd" stroke="#9a32cd" points="602.273,-20.7422 594.061,-27.4361 604.655,-27.3245 602.273,-20.7422"/>
<text text-anchor="middle" x="691" y="-13" font-family="FreeSans" font-size="10.00"> SingletonPtr</text>
</g>
<!-- Node6&#45;&gt;Node5 -->
<g id="edge10" class="edge"><title>Node6&#45;&gt;Node5</title>
<path fill="none" stroke="midnightblue" d="M757.219,-22.6579C715.516,-26.0392 663.233,-30.2784 624.199,-33.4433"/>
<polygon fill="midnightblue" stroke="midnightblue" points="757.621,-26.1369 767.306,-21.8401 757.056,-19.1598 757.621,-26.1369"/>
</g>
<!-- Node7 -->
<g id="node13" class="node"><title>Node7</title>
<a xlink:href="classMezzanine_1_1World.xhtml" target="_top" xlink:title="This class represents a world for objects to interact within.">
<polygon fill="white" stroke="black" points="1641.5,-37.5 1641.5,-58.5 1740.5,-58.5 1740.5,-37.5 1641.5,-37.5"/>
<text text-anchor="middle" x="1691" y="-45.5" font-family="FreeSans" font-size="10.00">Mezzanine::World</text>
</a>
</g>
<!-- Node7&#45;&gt;Node3 -->
<g id="edge14" class="edge"><title>Node7&#45;&gt;Node3</title>
<path fill="none" stroke="#9a32cd" stroke-dasharray="5,2" d="M1631.36,-42.0082C1550.6,-34.9322 1402.04,-25.5932 1276,-38 1233.01,-42.2313 1184.66,-52.4842 1151.28,-60.4481"/>
<polygon fill="#9a32cd" stroke="#9a32cd" points="1631.07,-45.4963 1641.35,-42.9018 1631.7,-38.5242 1631.07,-45.4963"/>
<text text-anchor="middle" x="1359" y="-42" font-family="FreeSans" font-size="10.00"> ParentWorld</text>
</g>
<!-- Node8&#45;&gt;Node7 -->
<g id="edge16" class="edge"><title>Node8&#45;&gt;Node7</title>
<path fill="none" stroke="#9a32cd" stroke-dasharray="5,2" d="M1452.42,-64.5279C1513.71,-60.2824 1591.42,-54.8985 1641.19,-51.4508"/>
<polygon fill="#9a32cd" stroke="#9a32cd" points="1452.08,-61.043 1442.35,-65.2258 1452.57,-68.0262 1452.08,-61.043"/>
<text text-anchor="middle" x="1523" y="-68" font-family="FreeSans" font-size="10.00"> WorldManagers</text>
</g>
<!-- Node9&#45;&gt;Node2 -->
<g id="edge20" class="edge"><title>Node9&#45;&gt;Node2</title>
<path fill="none" stroke="#9a32cd" stroke-dasharray="5,2" d="M1650.57,-393.92C1635.72,-385.511 1618.91,-375.629 1604,-366 1595.71,-360.645 1595.08,-356.87 1586,-353 1533.64,-330.674 1513.31,-349.963 1460,-330 1426.77,-317.555 1392.05,-294.309 1373.22,-280.694"/>
<polygon fill="#9a32cd" stroke="#9a32cd" points="1649.09,-397.105 1659.53,-398.951 1652.52,-391.002 1649.09,-397.105"/>
<text text-anchor="middle" x="1523" y="-357" font-family="FreeSans" font-size="10.00"> SMD</text>
</g>
<!-- Node10 -->
<g id="node20" class="node"><title>Node10</title>
<a xlink:href="classMezzanine_1_1Plane.xhtml" target="_top" xlink:title="This is used to represent a flat infinite slice of the game world.">
<polygon fill="white" stroke="black" points="376,-386.5 376,-407.5 476,-407.5 476,-386.5 376,-386.5"/>
<text text-anchor="middle" x="426" y="-394.5" font-family="FreeSans" font-size="10.00">Mezzanine::Plane</text>
</a>
</g>
<!-- Node10&#45;&gt;Node9 -->
<g id="edge22" class="edge"><title>Node10&#45;&gt;Node9</title>
<path fill="none" stroke="#9a32cd" stroke-dasharray="5,2" d="M486.26,-403.788C539.914,-409.243 620.585,-416 691,-416 691,-416 691,-416 1359,-416 1454.54,-416 1565.54,-416 1631.93,-416"/>
<polygon fill="#9a32cd" stroke="#9a32cd" points="486.539,-400.299 476.232,-402.752 485.82,-407.262 486.539,-400.299"/>
<text text-anchor="middle" x="972" y="-420" font-family="FreeSans" font-size="10.00"> SkyThePlane</text>
</g>
<!-- Node11 -->
<g id="node22" class="node"><title>Node11</title>
<a xlink:href="classMezzanine_1_1Vector3.xhtml" target="_top" xlink:title="This is used to represent a point in space, or a vector through space.">
<polygon fill="white" stroke="black" points="9,-416.5 9,-437.5 119,-437.5 119,-416.5 9,-416.5"/>
<text text-anchor="middle" x="64" y="-424.5" font-family="FreeSans" font-size="10.00">Mezzanine::Vector3</text>
</a>
</g>
<!-- Node11&#45;&gt;Node10 -->
<g id="edge24" class="edge"><title>Node11&#45;&gt;Node10</title>
<path fill="none" stroke="#9a32cd" stroke-dasharray="5,2" d="M110.327,-413.962C121.89,-411.19 134.324,-408.615 146,-407 225.864,-395.952 319.688,-395.018 375.915,-395.733"/>
<polygon fill="#9a32cd" stroke="#9a32cd" points="109.287,-410.614 100.431,-416.429 110.98,-417.406 109.287,-410.614"/>
<text text-anchor="middle" x="168" y="-411" font-family="FreeSans" font-size="10.00"> Normal</text>
</g>
<!-- Node11&#45;&gt;Node18 -->
<g id="edge64" class="edge"><title>Node11&#45;&gt;Node18</title>
<path fill="none" stroke="#9a32cd" stroke-dasharray="5,2" d="M94.5253,-442.743C106.271,-450.032 119.008,-459.618 128,-471 214.017,-579.874 144.246,-742 283,-742 283,-742 283,-742 1359,-742 1464.19,-742 1493.3,-724.717 1586,-675 1625.62,-653.754 1663.97,-615.914 1681.33,-597.562"/>
<polygon fill="#9a32cd" stroke="#9a32cd" points="96.2095,-439.673 85.8146,-437.624 92.6632,-445.708 96.2095,-439.673"/>
<text text-anchor="middle" x="827" y="-798" font-family="FreeSans" font-size="10.00"> AutoTrackDirection</text>
<text text-anchor="middle" x="827" y="-785" font-family="FreeSans" font-size="10.00">NodeLoc</text>
<text text-anchor="middle" x="827" y="-772" font-family="FreeSans" font-size="10.00">AutoTrackOffset</text>
<text text-anchor="middle" x="827" y="-759" font-family="FreeSans" font-size="10.00">FixedYawAxis</text>
<text text-anchor="middle" x="827" y="-746" font-family="FreeSans" font-size="10.00">NodeScale</text>
</g>
<!-- Node23 -->
<g id="node49" class="node"><title>Node23</title>
<a xlink:href="classMezzanine_1_1Transform.xhtml" target="_top" xlink:title="Stores information about relative location and rotation in 3d space.">
<polygon fill="white" stroke="black" points="222.5,-441.5 222.5,-462.5 343.5,-462.5 343.5,-441.5 222.5,-441.5"/>
<text text-anchor="middle" x="283" y="-449.5" font-family="FreeSans" font-size="10.00">Mezzanine::Transform</text>
</a>
</g>
<!-- Node11&#45;&gt;Node23 -->
<g id="edge56" class="edge"><title>Node11&#45;&gt;Node23</title>
<path fill="none" stroke="#9a32cd" stroke-dasharray="5,2" d="M129.157,-424.489C148.782,-424.547 170.329,-425.423 190,-428 210.336,-430.664 232.6,-436.308 250.244,-441.454"/>
<polygon fill="#9a32cd" stroke="#9a32cd" points="129.076,-420.989 119.09,-424.529 129.103,-427.989 129.076,-420.989"/>
<text text-anchor="middle" x="168" y="-432" font-family="FreeSans" font-size="10.00"> Location</text>
</g>
<!-- Node12 -->
<g id="node24" class="node"><title>Node12</title>
<a xlink:href="classMezzanine_1_1Quaternion.xhtml" target="_top" xlink:title="This is used to store information about rotation in 3d space.">
<polygon fill="white" stroke="black" points="0.5,-480.5 0.5,-501.5 127.5,-501.5 127.5,-480.5 0.5,-480.5"/>
<text text-anchor="middle" x="64" y="-488.5" font-family="FreeSans" font-size="10.00">Mezzanine::Quaternion</text>
</a>
</g>
<!-- Node12&#45;&gt;Node9 -->
<g id="edge26" class="edge"><title>Node12&#45;&gt;Node9</title>
<path fill="none" stroke="#9a32cd" stroke-dasharray="5,2" d="M137.858,-488.745C274.078,-484.785 574.079,-477 827,-477 827,-477 827,-477 1359,-477 1460.08,-477 1487.85,-487.148 1586,-463 1612.38,-456.511 1640.36,-443.652 1660.8,-433.022"/>
<polygon fill="#9a32cd" stroke="#9a32cd" points="137.442,-485.255 127.549,-489.046 137.647,-492.252 137.442,-485.255"/>
<text text-anchor="middle" x="827" y="-481" font-family="FreeSans" font-size="10.00"> SkyOrientation</text>
</g>
<!-- Node12&#45;&gt;Node18 -->
<g id="edge68" class="edge"><title>Node12&#45;&gt;Node18</title>
<path fill="none" stroke="#9a32cd" stroke-dasharray="5,2" d="M65.5648,-511.535C70.1327,-559.162 87.1171,-678.952 146,-756 189.798,-813.309 210.871,-843 283,-843 283,-843 283,-843 1359,-843 1467.04,-843 1502.7,-824.81 1586,-756 1641.39,-710.243 1676.09,-627.275 1687.15,-597.77"/>
<polygon fill="#9a32cd" stroke="#9a32cd" points="69.0479,-511.188 64.6904,-501.531 62.0745,-511.798 69.0479,-511.188"/>
<text text-anchor="middle" x="827" y="-847" font-family="FreeSans" font-size="10.00"> NodeOri</text>
</g>
<!-- Node12&#45;&gt;Node23 -->
<g id="edge58" class="edge"><title>Node12&#45;&gt;Node23</title>
<path fill="none" stroke="#9a32cd" stroke-dasharray="5,2" d="M100.655,-476.926C114.651,-472.086 130.879,-467.108 146,-464 170.673,-458.928 198.277,-455.999 222.207,-454.307"/>
<polygon fill="#9a32cd" stroke="#9a32cd" points="99.1529,-473.746 90.9062,-480.397 101.501,-480.34 99.1529,-473.746"/>
<text text-anchor="middle" x="168" y="-468" font-family="FreeSans" font-size="10.00"> Rotation</text>
</g>
<!-- Node13 -->
<g id="node26" class="node"><title>Node13</title>
<a xlink:title="STL class.">
<polygon fill="white" stroke="#bfbfbf" points="1326.5,-514.5 1326.5,-535.5 1391.5,-535.5 1391.5,-514.5 1326.5,-514.5"/>
<text text-anchor="middle" x="1359" y="-522.5" font-family="FreeSans" font-size="10.00">std::string</text>
</a>
</g>
<!-- Node13&#45;&gt;Node9 -->
<g id="edge28" class="edge"><title>Node13&#45;&gt;Node9</title>
<path fill="none" stroke="#9a32cd" stroke-dasharray="5,2" d="M1401.65,-517.73C1419.65,-514.686 1440.84,-511.133 1460,-508 1515.96,-498.85 1533.33,-508.992 1586,-488 1618.85,-474.907 1651.65,-450.055 1671.64,-433.258"/>
<polygon fill="#9a32cd" stroke="#9a32cd" points="1401.01,-514.289 1391.74,-519.41 1402.18,-521.19 1401.01,-514.289"/>
<text text-anchor="middle" x="1523" y="-525" font-family="FreeSans" font-size="10.00"> SkyMaterialGroupName</text>
<text text-anchor="middle" x="1523" y="-512" font-family="FreeSans" font-size="10.00">SkyMaterialName</text>
</g>
<!-- Node13&#45;&gt;Node18 -->
<g id="edge70" class="edge"><title>Node13&#45;&gt;Node18</title>
<path fill="none" stroke="#9a32cd" stroke-dasharray="5,2" d="M1401.66,-530.299C1447.45,-536.284 1522.22,-546.916 1586,-560 1608.68,-564.652 1633.8,-571.067 1653.79,-576.477"/>
<polygon fill="#9a32cd" stroke="#9a32cd" points="1401.87,-526.797 1391.51,-528.986 1400.98,-533.739 1401.87,-526.797"/>
<text text-anchor="middle" x="1523" y="-564" font-family="FreeSans" font-size="10.00"> NodeName</text>
</g>
<!-- Node14 -->
<g id="node28" class="node"><title>Node14</title>
<a xlink:title="STL class.">
<polygon fill="white" stroke="#bfbfbf" points="1058.5,-508 1058.5,-542 1161.5,-542 1161.5,-508 1058.5,-508"/>
<text text-anchor="start" x="1066.5" y="-529" font-family="FreeSans" font-size="10.00">std::basic_string&lt;</text>
<text text-anchor="middle" x="1110" y="-516" font-family="FreeSans" font-size="10.00"> char &gt;</text>
</a>
</g>
<!-- Node14&#45;&gt;Node13 -->
<g id="edge30" class="edge"><title>Node14&#45;&gt;Node13</title>
<path fill="none" stroke="midnightblue" d="M1171.77,-525C1220.77,-525 1287.33,-525 1326.47,-525"/>
<polygon fill="midnightblue" stroke="midnightblue" points="1171.59,-521.5 1161.59,-525 1171.59,-528.5 1171.59,-521.5"/>
</g>
<!-- Node15&#45;&gt;Node2 -->
<g id="edge34" class="edge"><title>Node15&#45;&gt;Node2</title>
<path fill="none" stroke="#9a32cd" stroke-dasharray="5,2" d="M1594.67,-162.975C1552.35,-173.044 1502.68,-187.27 1460,-206 1426.54,-220.681 1391.35,-245.426 1372.62,-259.457"/>
<polygon fill="#9a32cd" stroke="#9a32cd" points="1595.48,-166.38 1604.42,-160.697 1593.88,-159.564 1595.48,-166.38"/>
<text text-anchor="middle" x="1523" y="-210" font-family="FreeSans" font-size="10.00"> TrackingNodeUpdateWork</text>
</g>
<!-- Node16 -->
<g id="node33" class="node"><title>Node16</title>
<polygon fill="white" stroke="#bfbfbf" points="1312.5,-100.5 1312.5,-121.5 1405.5,-121.5 1405.5,-100.5 1312.5,-100.5"/>
<text text-anchor="middle" x="1359" y="-108.5" font-family="FreeSans" font-size="10.00">DefaultWorkUnit</text>
</g>
<!-- Node16&#45;&gt;Node15 -->
<g id="edge36" class="edge"><title>Node16&#45;&gt;Node15</title>
<path fill="none" stroke="midnightblue" d="M1415.74,-112.651C1461.76,-114.435 1528.24,-118.017 1586,-125 1591.98,-125.723 1598.13,-126.568 1604.31,-127.493"/>
<polygon fill="midnightblue" stroke="midnightblue" points="1415.79,-109.151 1405.66,-112.277 1415.53,-116.146 1415.79,-109.151"/>
</g>
<!-- Node17 -->
<g id="node36" class="node"><title>Node17</title>
<polygon fill="white" stroke="#bfbfbf" points="1881.5,-293 1881.5,-327 1996.5,-327 1996.5,-293 1881.5,-293"/>
<text text-anchor="start" x="1889.5" y="-314" font-family="FreeSans" font-size="10.00">std::set&lt; Mezzanine</text>
<text text-anchor="middle" x="1939" y="-301" font-family="FreeSans" font-size="10.00">::WorldNode * &gt;</text>
</g>
<!-- Node17&#45;&gt;Node2 -->
<g id="edge40" class="edge"><title>Node17&#45;&gt;Node2</title>
<path fill="none" stroke="#9a32cd" stroke-dasharray="5,2" d="M1871.36,-306.141C1778.56,-300.727 1606.56,-290.271 1460,-279 1450.96,-278.305 1441.47,-277.525 1432.08,-276.723"/>
<polygon fill="#9a32cd" stroke="#9a32cd" points="1871.27,-309.641 1881.46,-306.728 1871.68,-302.653 1871.27,-309.641"/>
<text text-anchor="middle" x="1691" y="-304" font-family="FreeSans" font-size="10.00"> TrackingNodes</text>
</g>
<!-- Node18&#45;&gt;Node17 -->
<g id="edge42" class="edge"><title>Node18&#45;&gt;Node17</title>
<path fill="none" stroke="#9a32cd" stroke-dasharray="5,2" d="M1706.97,-568.513C1727.46,-544.861 1764.15,-502.68 1796,-467 1841.67,-415.844 1896.46,-356.145 1923.02,-327.322"/>
<polygon fill="#9a32cd" stroke="#9a32cd" points="1704.1,-566.491 1700.2,-576.343 1709.39,-571.071 1704.1,-566.491"/>
<text text-anchor="middle" x="1821" y="-471" font-family="FreeSans" font-size="10.00"> keys</text>
</g>
<!-- Node26 -->
<g id="node65" class="node"><title>Node26</title>
<polygon fill="white" stroke="#bfbfbf" points="1864.5,-410.5 1864.5,-431.5 2013.5,-431.5 2013.5,-410.5 1864.5,-410.5"/>
<text text-anchor="middle" x="1939" y="-418.5" font-family="FreeSans" font-size="10.00">std::vector&lt; WorldNode * &gt;</text>
</g>
<!-- Node18&#45;&gt;Node26 -->
<g id="edge82" class="edge"><title>Node18&#45;&gt;Node26</title>
<path fill="none" stroke="#9a32cd" stroke-dasharray="5,2" d="M1715.26,-570.76C1765.8,-536.933 1881.14,-459.73 1923.24,-431.548"/>
<polygon fill="#9a32cd" stroke="#9a32cd" points="1713.25,-567.892 1706.89,-576.363 1717.15,-573.709 1713.25,-567.892"/>
<text text-anchor="middle" x="1821" y="-517" font-family="FreeSans" font-size="10.00"> elements</text>
</g>
<!-- Node19 -->
<g id="node40" class="node"><title>Node19</title>
<a xlink:href="classMezzanine_1_1AttachableParent.xhtml" target="_top" xlink:title="Base class for objects that can have attachables attached to them.">
<polygon fill="white" stroke="black" points="1032,-603.5 1032,-624.5 1188,-624.5 1188,-603.5 1032,-603.5"/>
<text text-anchor="middle" x="1110" y="-611.5" font-family="FreeSans" font-size="10.00">Mezzanine::AttachableParent</text>
</a>
</g>
<!-- Node19&#45;&gt;Node18 -->
<g id="edge44" class="edge"><title>Node19&#45;&gt;Node18</title>
<path fill="none" stroke="midnightblue" d="M1198.22,-613.389C1293.87,-612.221 1450.94,-608.829 1586,-599 1599.72,-598.001 1614.42,-596.558 1628.34,-595.016"/>
<polygon fill="midnightblue" stroke="midnightblue" points="1197.98,-609.892 1188.02,-613.508 1198.06,-616.891 1197.98,-609.892"/>
</g>
<!-- Node22 -->
<g id="node46" class="node"><title>Node22</title>
<a xlink:href="classMezzanine_1_1AttachableChild.xhtml" target="_top" xlink:title="This class is the base class for objects that can be attached to AttachableParent.">
<polygon fill="white" stroke="black" points="494,-529.5 494,-550.5 642,-550.5 642,-529.5 494,-529.5"/>
<text text-anchor="middle" x="568" y="-537.5" font-family="FreeSans" font-size="10.00">Mezzanine::AttachableChild</text>
</a>
</g>
<!-- Node19&#45;&gt;Node22 -->
<g id="edge60" class="edge"><title>Node19&#45;&gt;Node22</title>
<path fill="none" stroke="#9a32cd" stroke-dasharray="5,2" d="M1032.59,-602.002C996.587,-596.664 953.166,-590.568 914,-586 801.412,-572.869 771.762,-581.913 660,-563 641.657,-559.896 621.582,-555.051 604.878,-550.606"/>
<polygon fill="#9a32cd" stroke="#9a32cd" points="1032.13,-605.472 1042.53,-603.486 1033.16,-598.549 1032.13,-605.472"/>
<text text-anchor="middle" x="827" y="-590" font-family="FreeSans" font-size="10.00"> Parent</text>
</g>
<!-- Node20 -->
<g id="node42" class="node"><title>Node20</title>
<a xlink:href="classMezzanine_1_1AttachableBase.xhtml" target="_top" xlink:title="This class is the base class for other attachable classes and is responsible for transform updates to...">
<polygon fill="white" stroke="black" points="208.5,-647.5 208.5,-668.5 357.5,-668.5 357.5,-647.5 208.5,-647.5"/>
<text text-anchor="middle" x="283" y="-655.5" font-family="FreeSans" font-size="10.00">Mezzanine::AttachableBase</text>
</a>
</g>
<!-- Node20&#45;&gt;Node18 -->
<g id="edge66" class="edge"><title>Node20&#45;&gt;Node18</title>
<path fill="none" stroke="#9a32cd" stroke-dasharray="5,2" d="M341.889,-670.49C399.308,-681.566 489.242,-696 568,-696 568,-696 568,-696 1359,-696 1484.27,-696 1623.47,-625.077 1672.61,-597.65"/>
<polygon fill="#9a32cd" stroke="#9a32cd" points="342.394,-667.022 331.908,-668.535 341.049,-673.892 342.394,-667.022"/>
<text text-anchor="middle" x="972" y="-700" font-family="FreeSans" font-size="10.00"> AutoTrackTarget</text>
</g>
<!-- Node20&#45;&gt;Node19 -->
<g id="edge46" class="edge"><title>Node20&#45;&gt;Node19</title>
<path fill="none" stroke="midnightblue" d="M368.133,-656C489.375,-653.024 718.743,-646.92 914,-639 957.576,-637.232 968.734,-639.487 1012,-634 1029.57,-631.772 1048.7,-628.144 1065.35,-624.586"/>
<polygon fill="midnightblue" stroke="midnightblue" points="367.722,-652.509 357.811,-656.253 367.893,-659.507 367.722,-652.509"/>
</g>
<!-- Node20&#45;&gt;Node22 -->
<g id="edge52" class="edge"><title>Node20&#45;&gt;Node22</title>
<path fill="none" stroke="midnightblue" d="M318.037,-643.493C376.173,-619.423 491.229,-571.786 542.412,-550.594"/>
<polygon fill="midnightblue" stroke="midnightblue" points="316.443,-640.365 308.543,-647.424 319.121,-646.833 316.443,-640.365"/>
</g>
<!-- Node21 -->
<g id="node44" class="node"><title>Node21</title>
<polygon fill="white" stroke="#bfbfbf" points="740.5,-608.5 740.5,-629.5 913.5,-629.5 913.5,-608.5 740.5,-608.5"/>
<text text-anchor="middle" x="827" y="-616.5" font-family="FreeSans" font-size="10.00">std::vector&lt; AttachableChild * &gt;</text>
</g>
<!-- Node21&#45;&gt;Node19 -->
<g id="edge48" class="edge"><title>Node21&#45;&gt;Node19</title>
<path fill="none" stroke="#9a32cd" stroke-dasharray="5,2" d="M924.131,-617.284C959.342,-616.662 998.631,-615.968 1031.98,-615.378"/>
<polygon fill="#9a32cd" stroke="#9a32cd" points="923.769,-613.79 913.833,-617.466 923.893,-620.789 923.769,-613.79"/>
<text text-anchor="middle" x="972" y="-621" font-family="FreeSans" font-size="10.00"> Attached</text>
</g>
<!-- Node22&#45;&gt;Node18 -->
<g id="edge62" class="edge"><title>Node22&#45;&gt;Node18</title>
<path fill="none" stroke="midnightblue" d="M652.131,-543.521C868.112,-552.56 1438.46,-576.431 1628.44,-584.382"/>
<polygon fill="midnightblue" stroke="midnightblue" points="652.255,-540.023 642.117,-543.102 651.962,-547.017 652.255,-540.023"/>
</g>
<!-- Node22&#45;&gt;Node21 -->
<g id="edge50" class="edge"><title>Node22&#45;&gt;Node21</title>
<path fill="none" stroke="#9a32cd" stroke-dasharray="5,2" d="M591.839,-556.193C609.814,-567.646 635.483,-582.433 660,-591 685.393,-599.873 713.969,-605.98 740.208,-610.165"/>
<polygon fill="#9a32cd" stroke="#9a32cd" points="593.477,-553.083 583.188,-550.559 589.657,-558.949 593.477,-553.083"/>
<text text-anchor="middle" x="691" y="-610" font-family="FreeSans" font-size="10.00"> elements</text>
</g>
<!-- Node25 -->
<g id="node62" class="node"><title>Node25</title>
<a xlink:href="classMezzanine_1_1ParticleEffect.xhtml" target="_top" xlink:title="This class is responsible for creating visual particle effects, such as rain, smoke, sparks, and explosions.">
<polygon fill="white" stroke="black" points="759.5,-331.5 759.5,-352.5 894.5,-352.5 894.5,-331.5 759.5,-331.5"/>
<text text-anchor="middle" x="827" y="-339.5" font-family="FreeSans" font-size="10.00">Mezzanine::ParticleEffect</text>
</a>
</g>
<!-- Node22&#45;&gt;Node25 -->
<g id="edge78" class="edge"><title>Node22&#45;&gt;Node25</title>
<path fill="none" stroke="midnightblue" d="M652.265,-541.454C677.213,-537.907 702.927,-529.786 722,-513 742.261,-495.168 727.572,-478.959 740,-455 761.547,-413.462 798.699,-371.666 816.669,-352.633"/>
<polygon fill="midnightblue" stroke="midnightblue" points="651.533,-538.017 642.016,-542.671 652.359,-544.968 651.533,-538.017"/>
</g>
<!-- Node22&#45;&gt;Node28 -->
<g id="edge88" class="edge"><title>Node22&#45;&gt;Node28</title>
<path fill="none" stroke="midnightblue" d="M571.172,-519.327C581.269,-456.329 614.687,-268.684 660,-230 716.937,-181.392 752.137,-208 827,-208 827,-208 827,-208 1359,-208 1460.27,-208 1577.74,-226.121 1642.27,-237.659"/>
<polygon fill="midnightblue" stroke="midnightblue" points="567.704,-518.845 569.607,-529.268 574.619,-519.933 567.704,-518.845"/>
</g>
<!-- Node22&#45;&gt;Node30 -->
<g id="edge96" class="edge"><title>Node22&#45;&gt;Node30</title>
<path fill="none" stroke="midnightblue" d="M579.753,-520.705C605.133,-480.17 668.579,-384.738 740,-322 759.698,-304.697 785.939,-289.92 804.433,-280.59"/>
<polygon fill="midnightblue" stroke="midnightblue" points="576.688,-519.006 574.398,-529.35 582.639,-522.692 576.688,-519.006"/>
</g>
<!-- Node23&#45;&gt;Node22 -->
<g id="edge54" class="edge"><title>Node23&#45;&gt;Node22</title>
<path fill="none" stroke="#9a32cd" stroke-dasharray="5,2" d="M326.893,-465.553C383.876,-483.148 482.132,-513.486 533.866,-529.46"/>
<polygon fill="#9a32cd" stroke="#9a32cd" points="327.682,-462.134 317.095,-462.527 325.617,-468.822 327.682,-462.134"/>
<text text-anchor="middle" x="426" y="-515" font-family="FreeSans" font-size="10.00"> LocalXform</text>
</g>
<!-- Node24 -->
<g id="node60" class="node"><title>Node24</title>
<polygon fill="white" stroke="#bfbfbf" points="1030,-308.5 1030,-329.5 1190,-329.5 1190,-308.5 1030,-308.5"/>
<text text-anchor="middle" x="1110" y="-316.5" font-family="FreeSans" font-size="10.00">std::vector&lt; ParticleEffect * &gt;</text>
</g>
<!-- Node24&#45;&gt;Node2 -->
<g id="edge74" class="edge"><title>Node24&#45;&gt;Node2</title>
<path fill="none" stroke="#9a32cd" stroke-dasharray="5,2" d="M1173.25,-306.553C1214.03,-298.528 1266.48,-288.206 1305.24,-280.579"/>
<polygon fill="#9a32cd" stroke="#9a32cd" points="1172.55,-303.123 1163.42,-308.488 1173.9,-309.991 1172.55,-303.123"/>
<text text-anchor="middle" x="1233" y="-302" font-family="FreeSans" font-size="10.00"> Particles</text>
</g>
<!-- Node25&#45;&gt;Node24 -->
<g id="edge76" class="edge"><title>Node25&#45;&gt;Node24</title>
<path fill="none" stroke="#9a32cd" stroke-dasharray="5,2" d="M905.001,-335.661C943.871,-332.502 990.807,-328.687 1029.95,-325.506"/>
<polygon fill="#9a32cd" stroke="#9a32cd" points="904.469,-332.192 894.786,-336.491 905.036,-339.169 904.469,-332.192"/>
<text text-anchor="middle" x="972" y="-337" font-family="FreeSans" font-size="10.00"> elements</text>
</g>
<!-- Node26&#45;&gt;Node2 -->
<g id="edge80" class="edge"><title>Node26&#45;&gt;Node2</title>
<path fill="none" stroke="#9a32cd" stroke-dasharray="5,2" d="M1891.34,-407.703C1859.33,-398.839 1816.19,-387.021 1778,-377 1637.04,-340.01 1601.07,-333.598 1460,-297 1439.44,-291.667 1416.58,-285.569 1397.81,-280.519"/>
<polygon fill="#9a32cd" stroke="#9a32cd" points="1890.75,-411.171 1901.32,-410.471 1892.62,-404.425 1890.75,-411.171"/>
<text text-anchor="middle" x="1691" y="-381" font-family="FreeSans" font-size="10.00"> WorldNodes</text>
</g>
<!-- Node27 -->
<g id="node68" class="node"><title>Node27</title>
<polygon fill="white" stroke="#bfbfbf" points="1878,-211.5 1878,-232.5 2000,-232.5 2000,-211.5 1878,-211.5"/>
<text text-anchor="middle" x="1939" y="-219.5" font-family="FreeSans" font-size="10.00">std::vector&lt; Light * &gt;</text>
</g>
<!-- Node27&#45;&gt;Node2 -->
<g id="edge84" class="edge"><title>Node27&#45;&gt;Node2</title>
<path fill="none" stroke="#9a32cd" stroke-dasharray="5,2" d="M1867.77,-217.699C1839.8,-216.209 1807.4,-214.73 1778,-214 1700.69,-212.08 1680.62,-203.555 1604,-214 1595.77,-215.121 1594.05,-216.978 1586,-219 1525.47,-234.196 1455.32,-249.626 1409.21,-259.472"/>
<polygon fill="#9a32cd" stroke="#9a32cd" points="1867.69,-221.199 1877.87,-218.247 1868.07,-214.21 1867.69,-221.199"/>
<text text-anchor="middle" x="1691" y="-218" font-family="FreeSans" font-size="10.00"> Lights</text>
</g>
<!-- Node28&#45;&gt;Node27 -->
<g id="edge86" class="edge"><title>Node28&#45;&gt;Node27</title>
<path fill="none" stroke="#9a32cd" stroke-dasharray="5,2" d="M1749.74,-241.079C1788.28,-237.194 1838.59,-232.122 1877.65,-228.184"/>
<polygon fill="#9a32cd" stroke="#9a32cd" points="1749.3,-237.605 1739.7,-242.091 1750,-244.57 1749.3,-237.605"/>
<text text-anchor="middle" x="1821" y="-239" font-family="FreeSans" font-size="10.00"> elements</text>
</g>
<!-- Node29 -->
<g id="node74" class="node"><title>Node29</title>
<polygon fill="white" stroke="#bfbfbf" points="1047.5,-259.5 1047.5,-280.5 1172.5,-280.5 1172.5,-259.5 1047.5,-259.5"/>
<text text-anchor="middle" x="1110" y="-267.5" font-family="FreeSans" font-size="10.00">std::vector&lt; Entity * &gt;</text>
</g>
<!-- Node29&#45;&gt;Node2 -->
<g id="edge92" class="edge"><title>Node29&#45;&gt;Node2</title>
<path fill="none" stroke="#9a32cd" stroke-dasharray="5,2" d="M1182.83,-270C1215.26,-270 1253.38,-270 1285.85,-270"/>
<polygon fill="#9a32cd" stroke="#9a32cd" points="1182.51,-266.5 1172.51,-270 1182.51,-273.5 1182.51,-266.5"/>
<text text-anchor="middle" x="1233" y="-274" font-family="FreeSans" font-size="10.00"> Entities</text>
</g>
<!-- Node30&#45;&gt;Node29 -->
<g id="edge94" class="edge"><title>Node30&#45;&gt;Node29</title>
<path fill="none" stroke="#9a32cd" stroke-dasharray="5,2" d="M887.662,-270C934.782,-270 999.897,-270 1047.48,-270"/>
<polygon fill="#9a32cd" stroke="#9a32cd" points="887.595,-266.5 877.595,-270 887.595,-273.5 887.595,-266.5"/>
<text text-anchor="middle" x="972" y="-274" font-family="FreeSans" font-size="10.00"> elements</text>
</g>
</g>
</svg>
        <g id="navigator" transform="translate(0 0)" fill="#404254">
                <rect fill="#f2f5e9" fill-opacity="0.5" stroke="#606060" stroke-width=".5" x="0" y="0" width="60" height="60"/>
                <use id="zoomplus" xlink:href="#zoomPlus" x="17" y="9" onmousedown="handleZoom(evt,'in')"/>
                <use id="zoomminus" xlink:href="#zoomMin" x="42" y="9" onmousedown="handleZoom(evt,'out')"/>
                <use id="reset" xlink:href="#resetDef" x="30" y="36" onmousedown="handleReset()"/>
                <g id="arrowUp" xlink:href="#dirArrow" transform="translate(30 24)" onmousedown="handlePan(0,-1)">
                  <use xlink:href="#rim" fill="#404040">
                        <set attributeName="fill" to="#808080" begin="arrowUp.mouseover" end="arrowUp.mouseout"/>
                  </use>
                  <path fill="none" stroke="white" stroke-width="1.5" d="M0,-3.0v7 M-2.5,-0.5L0,-3.0L2.5,-0.5"/>
                </g>
                <g id="arrowRight" xlink:href="#dirArrow" transform="rotate(90) translate(36 -43)" onmousedown="handlePan(1,0)">
                  <use xlink:href="#rim" fill="#404040">
                        <set attributeName="fill" to="#808080" begin="arrowRight.mouseover" end="arrowRight.mouseout"/>
                  </use>
                  <path fill="none" stroke="white" stroke-width="1.5" d="M0,-3.0v7 M-2.5,-0.5L0,-3.0L2.5,-0.5"/>
                </g>
                <g id="arrowDown" xlink:href="#dirArrow" transform="rotate(180) translate(-30 -48)" onmousedown="handlePan(0,1)">
                  <use xlink:href="#rim" fill="#404040">
                        <set attributeName="fill" to="#808080" begin="arrowDown.mouseover" end="arrowDown.mouseout"/>
                  </use>
                  <path fill="none" stroke="white" stroke-width="1.5" d="M0,-3.0v7 M-2.5,-0.5L0,-3.0L2.5,-0.5"/>
                </g>
                <g id="arrowLeft" xlink:href="#dirArrow" transform="rotate(270) translate(-36 17)" onmousedown="handlePan(-1,0)">
                  <use xlink:href="#rim" fill="#404040">
                        <set attributeName="fill" to="#808080" begin="arrowLeft.mouseover" end="arrowLeft.mouseout"/>
                  </use>
                  <path fill="none" stroke="white" stroke-width="1.5" d="M0,-3.0v7 M-2.5,-0.5L0,-3.0L2.5,-0.5"/>
                </g>
        </g>
        <svg viewBox="0 0 15 15" width="100%" height="30px" preserveAspectRatio="xMaxYMin meet">
         <g id="arrow_out" transform="scale(0.3 0.3)">
          <a xlink:href="structMezzanine_1_1Internal_1_1EntityInternalData__coll__graph_org.svg" target="_base">
           <rect id="button" ry="5" rx="5" y="6" x="6" height="38" width="38"
                fill="#f2f5e9" fill-opacity="0.5" stroke="#606060" stroke-width="1.0"/>
           <path id="arrow"
             d="M 11.500037,31.436501 C 11.940474,20.09759 22.043105,11.32322 32.158766,21.979434 L 37.068811,17.246167 C 37.068811,17.246167 37.088388,32 37.088388,32 L 22.160133,31.978069 C 22.160133,31.978069 26.997745,27.140456 26.997745,27.140456 C 18.528582,18.264221 13.291696,25.230495 11.500037,31.436501 z"
             style="fill:#404040;"/>
          </a>
         </g>
        </svg>
</svg>
