<?xml version="1.0" encoding="UTF-8" standalone="no"?>
<!DOCTYPE svg PUBLIC "-//W3C//DTD SVG 1.1//EN"
 "http://www.w3.org/Graphics/SVG/1.1/DTD/svg11.dtd">
<!-- Generated by graphviz version 2.38.0 (20140413.2041)
 -->
<!-- Title: Mezzanine::Graphics::VertexInfo Pages: 1 -->
<svg width="385pt" height="195pt"
 viewBox="0.00 0.00 385.00 195.00" xmlns="http://www.w3.org/2000/svg" xmlns:xlink="http://www.w3.org/1999/xlink">
<g id="graph0" class="graph" transform="scale(1 1) rotate(0) translate(4 191)">
<title>Mezzanine::Graphics::VertexInfo</title>
<polygon fill="white" stroke="none" points="-4,4 -4,-191 381,-191 381,4 -4,4"/>
<!-- Node1 -->
<g id="node1" class="node"><title>Node1</title>
<polygon fill="#bfbfbf" stroke="black" points="132,-0.5 132,-30.5 241,-30.5 241,-0.5 132,-0.5"/>
<text text-anchor="start" x="140" y="-18.5" font-family="Helvetica,sans-Serif" font-size="10.00">Mezzanine::Graphics</text>
<text text-anchor="middle" x="186.5" y="-7.5" font-family="Helvetica,sans-Serif" font-size="10.00">::VertexInfo</text>
</g>
<!-- Node2 -->
<g id="node2" class="node"><title>Node2</title>
<polygon fill="white" stroke="#bfbfbf" points="0,-100.5 0,-119.5 111,-119.5 111,-100.5 0,-100.5"/>
<text text-anchor="middle" x="55.5" y="-107.5" font-family="Helvetica,sans-Serif" font-size="10.00">std::vector&lt; Integer &gt;</text>
</g>
<!-- Node2&#45;&gt;Node1 -->
<g id="edge1" class="edge"><title>Node2&#45;&gt;Node1</title>
<path fill="none" stroke="#9a32cd" stroke-dasharray="5,2" d="M75.8643,-94.6206C100.535,-77.2007 141.834,-48.0388 166.39,-30.6999"/>
<polygon fill="#9a32cd" stroke="#9a32cd" points="73.7394,-91.8364 67.5894,-100.464 77.777,-97.5546 73.7394,-91.8364"/>
<text text-anchor="middle" x="157" y="-63" font-family="Helvetica,sans-Serif" font-size="10.00"> Indices</text>
</g>
<!-- Node3 -->
<g id="node3" class="node"><title>Node3</title>
<polygon fill="white" stroke="#bfbfbf" points="129,-100.5 129,-119.5 244,-119.5 244,-100.5 129,-100.5"/>
<text text-anchor="middle" x="186.5" y="-107.5" font-family="Helvetica,sans-Serif" font-size="10.00">std::vector&lt; Vector2 &gt;</text>
</g>
<!-- Node3&#45;&gt;Node1 -->
<g id="edge2" class="edge"><title>Node3&#45;&gt;Node1</title>
<path fill="none" stroke="#9a32cd" stroke-dasharray="5,2" d="M186.5,-90.2869C186.5,-72.6698 186.5,-46.6699 186.5,-30.6999"/>
<polygon fill="#9a32cd" stroke="#9a32cd" points="183,-90.4636 186.5,-100.464 190,-90.4637 183,-90.4636"/>
<text text-anchor="middle" x="198" y="-63" font-family="Helvetica,sans-Serif" font-size="10.00"> UVs</text>
</g>
<!-- Node4 -->
<g id="node4" class="node"><title>Node4</title>
<g id="a_node4"><a xlink:href="classMezzanine_1_1Vector2.html" target="_top" xlink:title="This is used to represent a point on a 2 dimentional area, such as a screen. ">
<polygon fill="white" stroke="black" points="134.5,-167.5 134.5,-186.5 238.5,-186.5 238.5,-167.5 134.5,-167.5"/>
<text text-anchor="middle" x="186.5" y="-174.5" font-family="Helvetica,sans-Serif" font-size="10.00">Mezzanine::Vector2</text>
</a>
</g>
</g>
<!-- Node4&#45;&gt;Node3 -->
<g id="edge3" class="edge"><title>Node4&#45;&gt;Node3</title>
<path fill="none" stroke="#9a32cd" stroke-dasharray="5,2" d="M186.5,-157.037C186.5,-144.67 186.5,-129.12 186.5,-119.627"/>
<polygon fill="#9a32cd" stroke="#9a32cd" points="183,-157.234 186.5,-167.234 190,-157.234 183,-157.234"/>
<text text-anchor="middle" x="208" y="-141" font-family="Helvetica,sans-Serif" font-size="10.00"> elements</text>
</g>
<!-- Node5 -->
<g id="node5" class="node"><title>Node5</title>
<polygon fill="white" stroke="#bfbfbf" points="262,-100.5 262,-119.5 377,-119.5 377,-100.5 262,-100.5"/>
<text text-anchor="middle" x="319.5" y="-107.5" font-family="Helvetica,sans-Serif" font-size="10.00">std::vector&lt; Vector3 &gt;</text>
</g>
<!-- Node5&#45;&gt;Node1 -->
<g id="edge4" class="edge"><title>Node5&#45;&gt;Node1</title>
<path fill="none" stroke="#9a32cd" stroke-dasharray="5,2" d="M298.825,-94.6206C273.778,-77.2007 231.848,-48.0388 206.917,-30.6999"/>
<polygon fill="#9a32cd" stroke="#9a32cd" points="297.018,-97.6272 307.226,-100.464 301.015,-91.8804 297.018,-97.6272"/>
<text text-anchor="middle" x="301.5" y="-74" font-family="Helvetica,sans-Serif" font-size="10.00"> Tangents</text>
<text text-anchor="middle" x="301.5" y="-63" font-family="Helvetica,sans-Serif" font-size="10.00">Normals</text>
<text text-anchor="middle" x="301.5" y="-52" font-family="Helvetica,sans-Serif" font-size="10.00">Positions</text>
</g>
<!-- Node6 -->
<g id="node6" class="node"><title>Node6</title>
<g id="a_node6"><a xlink:href="classMezzanine_1_1Vector3.html" target="_top" xlink:title="This is used to represent a point in space, or a vector through space. ">
<polygon fill="white" stroke="black" points="267.5,-167.5 267.5,-186.5 371.5,-186.5 371.5,-167.5 267.5,-167.5"/>
<text text-anchor="middle" x="319.5" y="-174.5" font-family="Helvetica,sans-Serif" font-size="10.00">Mezzanine::Vector3</text>
</a>
</g>
</g>
<!-- Node6&#45;&gt;Node5 -->
<g id="edge5" class="edge"><title>Node6&#45;&gt;Node5</title>
<path fill="none" stroke="#9a32cd" stroke-dasharray="5,2" d="M319.5,-157.037C319.5,-144.67 319.5,-129.12 319.5,-119.627"/>
<polygon fill="#9a32cd" stroke="#9a32cd" points="316,-157.234 319.5,-167.234 323,-157.234 316,-157.234"/>
<text text-anchor="middle" x="341" y="-141" font-family="Helvetica,sans-Serif" font-size="10.00"> elements</text>
</g>
</g>
</svg>
