<?xml version="1.0" encoding="UTF-8" standalone="no"?>
<!DOCTYPE svg PUBLIC "-//W3C//DTD SVG 1.1//EN"
 "http://www.w3.org/Graphics/SVG/1.1/DTD/svg11.dtd">
<!-- Generated by graphviz version 2.26.3 (20100126.1600)
 -->
<!-- Title: Mezzanine::Internal::EventManagerInternalData Pages: 1 -->
<!--zoomable 200 -->
<svg id="main" version="1.1" xmlns="http://www.w3.org/2000/svg" xmlns:xlink="http://www.w3.org/1999/xlink" xml:space="preserve" onload="init(evt)">
        <defs>
                <circle id="rim" cx="0" cy="0" r="7"/>
                <circle id="rim2" cx="0" cy="0" r="3.5"/>
                <g id="zoomPlus">
                        <use xlink:href="#rim" fill="#404040">
                                <set attributeName="fill" to="#808080" begin="zoomplus.mouseover" end="zoomplus.mouseout"/>
                        </use>
                        <path d="M-4,0h8M0,-4v8" fill="none" stroke="white" stroke-width="1.5" pointer-events="none"/>
                </g>
                <g id="zoomMin">
                        <use xlink:href="#rim" fill="#404040">
                                <set attributeName="fill" to="#808080" begin="zoomminus.mouseover" end="zoomminus.mouseout"/>
                        </use>
                        <path d="M-4,0h8" fill="none" stroke="white" stroke-width="1.5" pointer-events="none"/>
                </g>
                <g id="dirArrow">
                        <path fill="none" stroke="white" stroke-width="1.5" d="M0,-3.0v7 M-2.5,-0.5L0,-3.0L2.5,-0.5"/>
                </g>
               <g id="resetDef">
                       <use xlink:href="#rim2" fill="#404040">
                               <set attributeName="fill" to="#808080" begin="reset.mouseover" end="reset.mouseout"/>
                       </use>
               </g>
        </defs>

<script type="text/javascript">
var viewWidth = 1002;
var viewHeight = 200;
var sectionId = 'dynsection-0';
</script>
<script xlink:href="svgpan.js"/>
<svg id="graph" class="graph">
<g id="viewport">
<title>Mezzanine::Internal::EventManagerInternalData</title>
<polygon fill="white" stroke="white" points="-4,5 -4,-196 999,-196 999,5 -4,5"/>
<!-- Node1 -->
<g id="node1" class="node"><title>Node1</title>
<polygon fill="#bfbfbf" stroke="black" points="858.5,-50 858.5,-82 993.5,-82 993.5,-50 858.5,-50"/>
<text text-anchor="start" x="866.5" y="-69" font-family="FreeSans" font-size="10.00">Mezzanine::Internal</text>
<text text-anchor="middle" x="926" y="-57" font-family="FreeSans" font-size="10.00">::EventManagerInternalData</text>
</g>
<!-- Node2 -->
<g id="node2" class="node"><title>Node2</title>
<a xlink:href="classMezzanine_1_1EventPumpWorkUnit.xhtml" target="_top" xlink:title="Every frame the OS must be queried for changes to the state, this does that querying on behalf of an ...">
<polygon fill="white" stroke="black" points="590,-150 590,-170 746,-170 746,-150 590,-150"/>
<text text-anchor="middle" x="668" y="-157" font-family="FreeSans" font-size="10.00">Mezzanine::EventPumpWorkUnit</text>
</a>
</g>
<!-- Node2&#45;&gt;Node1 -->
<g id="edge2" class="edge"><title>Node2&#45;&gt;Node1</title>
<path fill="none" stroke="#9a32cd" stroke-dasharray="5,2" d="M724.428,-147.364C731.736,-145.403 739.08,-143.269 746,-141 797.953,-123.964 855.993,-98.5739 891.763,-82.1503"/>
<polygon fill="#9a32cd" stroke="#9a32cd" points="723.334,-144.031 714.53,-149.925 725.088,-150.808 723.334,-144.031"/>
<text text-anchor="middle" x="802" y="-137" font-family="FreeSans" font-size="10.00"> EventPumpWork</text>
</g>
<!-- Node3 -->
<g id="node4" class="node"><title>Node3</title>
<polygon fill="white" stroke="#bfbfbf" points="378.5,-172 378.5,-192 465.5,-192 465.5,-172 378.5,-172"/>
<text text-anchor="middle" x="422" y="-179" font-family="FreeSans" font-size="10.00">DefaultWorkUnit</text>
</g>
<!-- Node3&#45;&gt;Node2 -->
<g id="edge4" class="edge"><title>Node3&#45;&gt;Node2</title>
<path fill="none" stroke="midnightblue" d="M475.727,-177.195C509.155,-174.206 552.712,-170.31 589.914,-166.983"/>
<polygon fill="midnightblue" stroke="midnightblue" points="475.345,-173.715 465.696,-178.092 475.968,-180.687 475.345,-173.715"/>
</g>
<!-- Node4 -->
<g id="node6" class="node"><title>Node4</title>
<a xlink:href="classMezzanine_1_1EventManager.xhtml" target="_top" xlink:title="This is a container for Events and facilitates the transfer of data.">
<polygon fill="white" stroke="black" points="358,-110 358,-130 486,-130 486,-110 358,-110"/>
<text text-anchor="middle" x="422" y="-117" font-family="FreeSans" font-size="10.00">Mezzanine::EventManager</text>
</a>
</g>
<!-- Node4&#45;&gt;Node2 -->
<g id="edge6" class="edge"><title>Node4&#45;&gt;Node2</title>
<path fill="none" stroke="#9a32cd" stroke-dasharray="5,2" d="M494.079,-131.72C529.659,-137.506 572.143,-144.414 606.216,-149.954"/>
<polygon fill="#9a32cd" stroke="#9a32cd" points="494.191,-128.192 483.759,-130.042 493.067,-135.102 494.191,-128.192"/>
<text text-anchor="middle" x="538" y="-146" font-family="FreeSans" font-size="10.00"> TargetManager</text>
</g>
<!-- Node8 -->
<g id="node15" class="node"><title>Node8</title>
<a xlink:href="classMezzanine_1_1Singleton.xhtml" target="_top" xlink:title="Mezzanine::Singleton\l\&lt; EventManager \&gt;">
<polygon fill="white" stroke="black" points="614.5,-100 614.5,-132 721.5,-132 721.5,-100 614.5,-100"/>
<text text-anchor="start" x="622.5" y="-119" font-family="FreeSans" font-size="10.00">Mezzanine::Singleton</text>
<text text-anchor="middle" x="668" y="-107" font-family="FreeSans" font-size="10.00">&lt; EventManager &gt;</text>
</a>
</g>
<!-- Node4&#45;&gt;Node8 -->
<g id="edge18" class="edge"><title>Node4&#45;&gt;Node8</title>
<path fill="none" stroke="#9a32cd" stroke-dasharray="5,2" d="M496.325,-118.791C534.387,-118.173 579.864,-117.433 614.446,-116.871"/>
<polygon fill="#9a32cd" stroke="#9a32cd" points="496.254,-115.292 486.312,-118.954 496.368,-122.291 496.254,-115.292"/>
<text text-anchor="middle" x="538" y="-121" font-family="FreeSans" font-size="10.00"> SingletonPtr</text>
</g>
<!-- Node5 -->
<g id="node8" class="node"><title>Node5</title>
<a xlink:href="classMezzanine_1_1ManagerBase.xhtml" target="_top" xlink:title="This is the base class from which all the Entresol and World Managers inherit.">
<polygon fill="white" stroke="black" points="194,-110 194,-130 320,-130 320,-110 194,-110"/>
<text text-anchor="middle" x="257" y="-117" font-family="FreeSans" font-size="10.00">Mezzanine::ManagerBase</text>
</a>
</g>
<!-- Node5&#45;&gt;Node4 -->
<g id="edge8" class="edge"><title>Node5&#45;&gt;Node4</title>
<path fill="none" stroke="midnightblue" d="M330.496,-120C339.585,-120 348.821,-120 357.756,-120"/>
<polygon fill="midnightblue" stroke="midnightblue" points="330.321,-116.5 320.321,-120 330.321,-123.5 330.321,-116.5"/>
</g>
<!-- Node6 -->
<g id="node10" class="node"><title>Node6</title>
<a xlink:href="classMezzanine_1_1Entresol.xhtml" target="_top" xlink:title="This is the main entry point for the entire library.">
<polygon fill="white" stroke="black" points="0.5,-75 0.5,-95 101.5,-95 101.5,-75 0.5,-75"/>
<text text-anchor="middle" x="51" y="-82" font-family="FreeSans" font-size="10.00">Mezzanine::Entresol</text>
</a>
</g>
<!-- Node6&#45;&gt;Node5 -->
<g id="edge10" class="edge"><title>Node6&#45;&gt;Node5</title>
<path fill="none" stroke="#9a32cd" stroke-dasharray="5,2" d="M111.85,-95.3386C139.105,-99.9694 171.12,-105.409 198.137,-109.999"/>
<polygon fill="#9a32cd" stroke="#9a32cd" points="112.102,-91.8313 101.657,-93.6068 110.93,-98.7324 112.102,-91.8313"/>
<text text-anchor="middle" x="148" y="-108" font-family="FreeSans" font-size="10.00"> TheEntresol</text>
</g>
<!-- Node7 -->
<g id="node12" class="node"><title>Node7</title>
<a xlink:href="classMezzanine_1_1Singleton.xhtml" target="_top" xlink:title="Mezzanine::Singleton\l\&lt; Entresol \&gt;">
<polygon fill="white" stroke="black" points="203.5,-48 203.5,-80 310.5,-80 310.5,-48 203.5,-48"/>
<text text-anchor="start" x="211.5" y="-67" font-family="FreeSans" font-size="10.00">Mezzanine::Singleton</text>
<text text-anchor="middle" x="257" y="-55" font-family="FreeSans" font-size="10.00">&lt; Entresol &gt;</text>
</a>
</g>
<!-- Node6&#45;&gt;Node7 -->
<g id="edge14" class="edge"><title>Node6&#45;&gt;Node7</title>
<path fill="none" stroke="#9a32cd" stroke-dasharray="5,2" d="M111.685,-78.8136C140.732,-75.8526 175.213,-72.3375 203.296,-69.4747"/>
<polygon fill="#9a32cd" stroke="#9a32cd" points="111.251,-75.3397 101.657,-79.8359 111.961,-82.3036 111.251,-75.3397"/>
<text text-anchor="middle" x="148" y="-80" font-family="FreeSans" font-size="10.00"> SingletonPtr</text>
</g>
<!-- Node7&#45;&gt;Node6 -->
<g id="edge12" class="edge"><title>Node7&#45;&gt;Node6</title>
<path fill="none" stroke="midnightblue" d="M193.338,-61.5815C170.151,-61.5805 143.796,-62.6066 120,-66 106.961,-67.8594 92.8905,-71.4365 80.8776,-74.99"/>
<polygon fill="midnightblue" stroke="midnightblue" points="193.383,-65.0817 203.405,-61.6451 193.427,-58.0819 193.383,-65.0817"/>
</g>
<!-- Node8&#45;&gt;Node4 -->
<g id="edge16" class="edge"><title>Node8&#45;&gt;Node4</title>
<path fill="none" stroke="midnightblue" d="M604.339,-104.105C573.933,-99.9754 537.05,-97.2211 504,-101 488.465,-102.776 471.591,-106.387 457.211,-109.988"/>
<polygon fill="midnightblue" stroke="midnightblue" points="603.991,-107.591 614.388,-105.551 604.988,-100.662 603.991,-107.591"/>
</g>
<!-- Node9 -->
<g id="node18" class="node"><title>Node9</title>
<polygon fill="white" stroke="#bfbfbf" points="601,-50 601,-82 735,-82 735,-50 601,-50"/>
<text text-anchor="start" x="609" y="-69" font-family="FreeSans" font-size="10.00">std::map&lt; Input::InputCode,</text>
<text text-anchor="middle" x="668" y="-57" font-family="FreeSans" font-size="10.00"> PollingType &gt;</text>
</g>
<!-- Node9&#45;&gt;Node1 -->
<g id="edge20" class="edge"><title>Node9&#45;&gt;Node1</title>
<path fill="none" stroke="#9a32cd" stroke-dasharray="5,2" d="M745.547,-66C781.456,-66 823.727,-66 858.327,-66"/>
<polygon fill="#9a32cd" stroke="#9a32cd" points="745.113,-62.5001 735.113,-66 745.113,-69.5001 745.113,-62.5001"/>
<text text-anchor="middle" x="802" y="-69" font-family="FreeSans" font-size="10.00"> ManualCheck</text>
</g>
<!-- Node10 -->
<g id="node20" class="node"><title>Node10</title>
<polygon fill="white" stroke="#bfbfbf" points="618,-0 618,-32 718,-32 718,-0 618,-0"/>
<text text-anchor="start" x="626" y="-19" font-family="FreeSans" font-size="10.00">std::list&lt; Mezzanine</text>
<text text-anchor="middle" x="668" y="-7" font-family="FreeSans" font-size="10.00">::EventBase * &gt;</text>
</g>
<!-- Node10&#45;&gt;Node1 -->
<g id="edge22" class="edge"><title>Node10&#45;&gt;Node1</title>
<path fill="none" stroke="#9a32cd" stroke-dasharray="5,2" d="M728.174,-27.6616C767.047,-35.1951 817.71,-45.0137 858.034,-52.8284"/>
<polygon fill="#9a32cd" stroke="#9a32cd" points="728.534,-24.1664 718.051,-25.6998 727.202,-31.0385 728.534,-24.1664"/>
<text text-anchor="middle" x="802" y="-51" font-family="FreeSans" font-size="10.00"> EventQ</text>
</g>
<!-- Node11 -->
<g id="node22" class="node"><title>Node11</title>
<a xlink:href="classMezzanine_1_1EventBase.xhtml" target="_top" xlink:title="The base class for all events.">
<polygon fill="white" stroke="black" points="365.5,-6 365.5,-26 478.5,-26 478.5,-6 365.5,-6"/>
<text text-anchor="middle" x="422" y="-13" font-family="FreeSans" font-size="10.00">Mezzanine::EventBase</text>
</a>
</g>
<!-- Node11&#45;&gt;Node10 -->
<g id="edge24" class="edge"><title>Node11&#45;&gt;Node10</title>
<path fill="none" stroke="#9a32cd" stroke-dasharray="5,2" d="M488.844,-16C529.505,-16 580.591,-16 617.796,-16"/>
<polygon fill="#9a32cd" stroke="#9a32cd" points="488.746,-12.5001 478.746,-16 488.746,-19.5001 488.746,-12.5001"/>
<text text-anchor="middle" x="538" y="-19" font-family="FreeSans" font-size="10.00"> elements</text>
</g>
</g>
</svg>
        <g id="navigator" transform="translate(0 0)" fill="#404254">
                <rect fill="#f2f5e9" fill-opacity="0.5" stroke="#606060" stroke-width=".5" x="0" y="0" width="60" height="60"/>
                <use id="zoomplus" xlink:href="#zoomPlus" x="17" y="9" onmousedown="handleZoom(evt,'in')"/>
                <use id="zoomminus" xlink:href="#zoomMin" x="42" y="9" onmousedown="handleZoom(evt,'out')"/>
                <use id="reset" xlink:href="#resetDef" x="30" y="36" onmousedown="handleReset()"/>
                <g id="arrowUp" xlink:href="#dirArrow" transform="translate(30 24)" onmousedown="handlePan(0,-1)">
                  <use xlink:href="#rim" fill="#404040">
                        <set attributeName="fill" to="#808080" begin="arrowUp.mouseover" end="arrowUp.mouseout"/>
                  </use>
                  <path fill="none" stroke="white" stroke-width="1.5" d="M0,-3.0v7 M-2.5,-0.5L0,-3.0L2.5,-0.5"/>
                </g>
                <g id="arrowRight" xlink:href="#dirArrow" transform="rotate(90) translate(36 -43)" onmousedown="handlePan(1,0)">
                  <use xlink:href="#rim" fill="#404040">
                        <set attributeName="fill" to="#808080" begin="arrowRight.mouseover" end="arrowRight.mouseout"/>
                  </use>
                  <path fill="none" stroke="white" stroke-width="1.5" d="M0,-3.0v7 M-2.5,-0.5L0,-3.0L2.5,-0.5"/>
                </g>
                <g id="arrowDown" xlink:href="#dirArrow" transform="rotate(180) translate(-30 -48)" onmousedown="handlePan(0,1)">
                  <use xlink:href="#rim" fill="#404040">
                        <set attributeName="fill" to="#808080" begin="arrowDown.mouseover" end="arrowDown.mouseout"/>
                  </use>
                  <path fill="none" stroke="white" stroke-width="1.5" d="M0,-3.0v7 M-2.5,-0.5L0,-3.0L2.5,-0.5"/>
                </g>
                <g id="arrowLeft" xlink:href="#dirArrow" transform="rotate(270) translate(-36 17)" onmousedown="handlePan(-1,0)">
                  <use xlink:href="#rim" fill="#404040">
                        <set attributeName="fill" to="#808080" begin="arrowLeft.mouseover" end="arrowLeft.mouseout"/>
                  </use>
                  <path fill="none" stroke="white" stroke-width="1.5" d="M0,-3.0v7 M-2.5,-0.5L0,-3.0L2.5,-0.5"/>
                </g>
        </g>
        <svg viewBox="0 0 15 15" width="100%" height="30px" preserveAspectRatio="xMaxYMin meet">
         <g id="arrow_out" transform="scale(0.3 0.3)">
          <a xlink:href="structMezzanine_1_1Internal_1_1EventManagerInternalData__coll__graph_org.svg" target="_base">
           <rect id="button" ry="5" rx="5" y="6" x="6" height="38" width="38"
                fill="#f2f5e9" fill-opacity="0.5" stroke="#606060" stroke-width="1.0"/>
           <path id="arrow"
             d="M 11.500037,31.436501 C 11.940474,20.09759 22.043105,11.32322 32.158766,21.979434 L 37.068811,17.246167 C 37.068811,17.246167 37.088388,32 37.088388,32 L 22.160133,31.978069 C 22.160133,31.978069 26.997745,27.140456 26.997745,27.140456 C 18.528582,18.264221 13.291696,25.230495 11.500037,31.436501 z"
             style="fill:#404040;"/>
          </a>
         </g>
        </svg>
</svg>
