<?xml version="1.0" encoding="UTF-8" standalone="no"?>
<!DOCTYPE svg PUBLIC "-//W3C//DTD SVG 1.1//EN"
 "http://www.w3.org/Graphics/SVG/1.1/DTD/svg11.dtd">
<!-- Generated by graphviz version 2.38.0 (20140413.2041)
 -->
<!-- Title: Mezzanine::Graphics::Procedural::Vertex Pages: 1 -->
<svg width="234pt" height="117pt"
 viewBox="0.00 0.00 234.00 117.00" xmlns="http://www.w3.org/2000/svg" xmlns:xlink="http://www.w3.org/1999/xlink">
<g id="graph0" class="graph" transform="scale(1 1) rotate(0) translate(4 113)">
<title>Mezzanine::Graphics::Procedural::Vertex</title>
<polygon fill="white" stroke="none" points="-4,4 -4,-113 230,-113 230,4 -4,4"/>
<!-- Node1 -->
<g id="node1" class="node"><title>Node1</title>
<polygon fill="#bfbfbf" stroke="black" points="58.5,-0.5 58.5,-30.5 167.5,-30.5 167.5,-0.5 58.5,-0.5"/>
<text text-anchor="start" x="66.5" y="-18.5" font-family="Helvetica,sans-Serif" font-size="10.00">Mezzanine::Graphics</text>
<text text-anchor="middle" x="113" y="-7.5" font-family="Helvetica,sans-Serif" font-size="10.00">::Procedural::Vertex</text>
</g>
<!-- Node2 -->
<g id="node2" class="node"><title>Node2</title>
<g id="a_node2"><a xlink:href="classMezzanine_1_1Vector2.html" target="_top" xlink:title="This is used to represent a point on a 2 dimentional area, such as a screen. ">
<polygon fill="white" stroke="black" points="0,-89.5 0,-108.5 104,-108.5 104,-89.5 0,-89.5"/>
<text text-anchor="middle" x="52" y="-96.5" font-family="Helvetica,sans-Serif" font-size="10.00">Mezzanine::Vector2</text>
</a>
</g>
</g>
<!-- Node2&#45;&gt;Node1 -->
<g id="edge1" class="edge"><title>Node2&#45;&gt;Node1</title>
<path fill="none" stroke="#9a32cd" stroke-dasharray="5,2" d="M64.764,-80.9464C75.9399,-66.0148 91.9845,-44.5781 102.449,-30.5974"/>
<polygon fill="#9a32cd" stroke="#9a32cd" points="61.7182,-79.1749 58.5281,-89.2781 67.3223,-83.3694 61.7182,-79.1749"/>
<text text-anchor="middle" x="97" y="-57.5" font-family="Helvetica,sans-Serif" font-size="10.00"> UV</text>
</g>
<!-- Node3 -->
<g id="node3" class="node"><title>Node3</title>
<g id="a_node3"><a xlink:href="classMezzanine_1_1Vector3.html" target="_top" xlink:title="This is used to represent a point in space, or a vector through space. ">
<polygon fill="white" stroke="black" points="122,-89.5 122,-108.5 226,-108.5 226,-89.5 122,-89.5"/>
<text text-anchor="middle" x="174" y="-96.5" font-family="Helvetica,sans-Serif" font-size="10.00">Mezzanine::Vector3</text>
</a>
</g>
</g>
<!-- Node3&#45;&gt;Node1 -->
<g id="edge2" class="edge"><title>Node3&#45;&gt;Node1</title>
<path fill="none" stroke="#9a32cd" stroke-dasharray="5,2" d="M161.236,-80.9464C150.06,-66.0148 134.016,-44.5781 123.551,-30.5974"/>
<polygon fill="#9a32cd" stroke="#9a32cd" points="158.678,-83.3694 167.472,-89.2781 164.282,-79.1749 158.678,-83.3694"/>
<text text-anchor="middle" x="170" y="-63" font-family="Helvetica,sans-Serif" font-size="10.00"> Normal</text>
<text text-anchor="middle" x="170" y="-52" font-family="Helvetica,sans-Serif" font-size="10.00">Position</text>
</g>
</g>
</svg>
