<?xml version="1.0" encoding="UTF-8" standalone="no"?>
<!DOCTYPE svg PUBLIC "-//W3C//DTD SVG 1.1//EN"
 "http://www.w3.org/Graphics/SVG/1.1/DTD/svg11.dtd">
<!-- Generated by graphviz version 2.38.0 (20140413.2041)
 -->
<!-- Title: Mezzanine::Graphics::Procedural::DelaunayTriangle Pages: 1 -->
<svg width="159pt" height="173pt"
 viewBox="0.00 0.00 159.00 173.00" xmlns="http://www.w3.org/2000/svg" xmlns:xlink="http://www.w3.org/1999/xlink">
<g id="graph0" class="graph" transform="scale(1 1) rotate(0) translate(4 169)">
<title>Mezzanine::Graphics::Procedural::DelaunayTriangle</title>
<polygon fill="white" stroke="none" points="-4,4 -4,-169 155,-169 155,4 -4,4"/>
<!-- Node1 -->
<g id="node1" class="node"><title>Node1</title>
<polygon fill="#bfbfbf" stroke="black" points="0,-0.5 0,-30.5 151,-30.5 151,-0.5 0,-0.5"/>
<text text-anchor="start" x="8" y="-18.5" font-family="Helvetica,sans-Serif" font-size="10.00">Mezzanine::Graphics</text>
<text text-anchor="middle" x="75.5" y="-7.5" font-family="Helvetica,sans-Serif" font-size="10.00">::Procedural::DelaunayTriangle</text>
</g>
<!-- Node2 -->
<g id="node2" class="node"><title>Node2</title>
<g id="a_node2"><a xlink:title="STL class. ">
<polygon fill="white" stroke="#bfbfbf" points="32,-78.5 32,-97.5 119,-97.5 119,-78.5 32,-78.5"/>
<text text-anchor="middle" x="75.5" y="-85.5" font-family="Helvetica,sans-Serif" font-size="10.00">std::vector&lt; T &gt;</text>
</a>
</g>
</g>
<!-- Node2&#45;&gt;Node1 -->
<g id="edge1" class="edge"><title>Node2&#45;&gt;Node1</title>
<path fill="none" stroke="#9a32cd" stroke-dasharray="5,2" d="M75.5,-68.2362C75.5,-56.4079 75.5,-41.3829 75.5,-30.5762"/>
<polygon fill="#9a32cd" stroke="#9a32cd" points="72.0001,-68.3553 75.5,-78.3553 79.0001,-68.3554 72.0001,-68.3553"/>
<text text-anchor="middle" x="91" y="-52" font-family="Helvetica,sans-Serif" font-size="10.00"> Points</text>
</g>
<!-- Node3 -->
<g id="node3" class="node"><title>Node3</title>
<polygon fill="white" stroke="#bfbfbf" points="61,-145.5 61,-164.5 90,-164.5 90,-145.5 61,-145.5"/>
<text text-anchor="middle" x="75.5" y="-152.5" font-family="Helvetica,sans-Serif" font-size="10.00">T</text>
</g>
<!-- Node3&#45;&gt;Node2 -->
<g id="edge2" class="edge"><title>Node3&#45;&gt;Node2</title>
<path fill="none" stroke="#9a32cd" stroke-dasharray="5,2" d="M75.5,-135.037C75.5,-122.67 75.5,-107.12 75.5,-97.6273"/>
<polygon fill="#9a32cd" stroke="#9a32cd" points="72.0001,-135.234 75.5,-145.234 79.0001,-135.234 72.0001,-135.234"/>
<text text-anchor="middle" x="97" y="-119" font-family="Helvetica,sans-Serif" font-size="10.00"> elements</text>
</g>
</g>
</svg>
