<?xml version="1.0" encoding="UTF-8" standalone="no"?>
<!DOCTYPE svg PUBLIC "-//W3C//DTD SVG 1.1//EN"
 "http://www.w3.org/Graphics/SVG/1.1/DTD/svg11.dtd">
<!-- Generated by graphviz version 2.38.0 (20140413.2041)
 -->
<!-- Title: /home/sqeaky/Code/MezzanineFresh/UnitTests/src/testdatatools.h Pages: 1 -->
<!--zoomable 263 -->
<svg id="main" version="1.1" xmlns="http://www.w3.org/2000/svg" xmlns:xlink="http://www.w3.org/1999/xlink" xml:space="preserve" onload="init(evt)">
<style type="text/css"><![CDATA[
.edge:hover path { stroke: red; }
.edge:hover polygon { stroke: red; fill: red; }
]]></style>
<script type="text/javascript"><![CDATA[
var edges = document.getElementsByTagName('g');
if (edges && edges.length) {
  for (var i=0;i<edges.length;i++) {
    if (edges[i].id.substr(0,4)=='edge') {
      edges[i].setAttribute('class','edge');
    }
  }
}
]]></script>
        <defs>
                <circle id="rim" cx="0" cy="0" r="7"/>
                <circle id="rim2" cx="0" cy="0" r="3.5"/>
                <g id="zoomPlus">
                        <use xlink:href="#rim" fill="#404040">
                                <set attributeName="fill" to="#808080" begin="zoomplus.mouseover" end="zoomplus.mouseout"/>
                        </use>
                        <path d="M-4,0h8M0,-4v8" fill="none" stroke="white" stroke-width="1.5" pointer-events="none"/>
                </g>
                <g id="zoomMin">
                        <use xlink:href="#rim" fill="#404040">
                                <set attributeName="fill" to="#808080" begin="zoomminus.mouseover" end="zoomminus.mouseout"/>
                        </use>
                        <path d="M-4,0h8" fill="none" stroke="white" stroke-width="1.5" pointer-events="none"/>
                </g>
                <g id="dirArrow">
                        <path fill="none" stroke="white" stroke-width="1.5" d="M0,-3.0v7 M-2.5,-0.5L0,-3.0L2.5,-0.5"/>
                </g>
               <g id="resetDef">
                       <use xlink:href="#rim2" fill="#404040">
                               <set attributeName="fill" to="#808080" begin="reset.mouseover" end="reset.mouseout"/>
                       </use>
               </g>
        </defs>

<script type="text/javascript">
var viewWidth = 1428;
var viewHeight = 263;
var sectionId = 'dynsection-0';
</script>
<script xlink:href="svgpan.js"/>
<svg id="graph" class="graph">
<g id="viewport">
<title>/home/sqeaky/Code/MezzanineFresh/UnitTests/src/testdatatools.h</title>
<polygon fill="white" stroke="none" points="-4,4 -4,-259 1423.5,-259 1423.5,4 -4,4"/>
<!-- Node1 -->
<g id="node1" class="node"><title>Node1</title>
<polygon fill="#bfbfbf" stroke="black" points="824,-224.5 824,-254.5 995,-254.5 995,-224.5 824,-224.5"/>
<text text-anchor="start" x="832" y="-242.5" font-family="Helvetica,sans-Serif" font-size="10.00">/home/sqeaky/Code/Mezzanine</text>
<text text-anchor="middle" x="909.5" y="-231.5" font-family="Helvetica,sans-Serif" font-size="10.00">Fresh/UnitTests/src/testdatatools.h</text>
</g>
<!-- Node2 -->
<g id="node2" class="node"><title>Node2</title>
<g id="a_node2"><a xlink:href="datatypes_8h.html" target="_top" xlink:title="All the definitions for datatypes as well as some basic conversion functions are defined here...">
<polygon fill="white" stroke="black" points="860.5,-56.5 860.5,-75.5 928.5,-75.5 928.5,-56.5 860.5,-56.5"/>
<text text-anchor="middle" x="894.5" y="-63.5" font-family="Helvetica,sans-Serif" font-size="10.00">datatypes.h</text>
</a>
</g>
</g>
<!-- Node1&#45;&gt;Node2 -->
<g id="edge1" class="edge"><title>Node1&#45;&gt;Node2</title>
<path fill="none" stroke="midnightblue" d="M894.237,-224.174C885.443,-214.833 875.222,-201.839 870.5,-188 858.392,-152.511 874.073,-108.966 885.195,-84.9852"/>
<polygon fill="midnightblue" stroke="midnightblue" points="888.48,-86.235 889.728,-75.714 882.191,-83.1602 888.48,-86.235"/>
</g>
<!-- Node20 -->
<g id="node20" class="node"><title>Node20</title>
<g id="a_node20"><a xlink:href="testdata_8h.html" target="_top" xlink:title="TestData, TestDataStorage and UnitTestGroup class definitions. ">
<polygon fill="white" stroke="black" points="879.5,-168.5 879.5,-187.5 939.5,-187.5 939.5,-168.5 879.5,-168.5"/>
<text text-anchor="middle" x="909.5" y="-175.5" font-family="Helvetica,sans-Serif" font-size="10.00">testdata.h</text>
</a>
</g>
</g>
<!-- Node1&#45;&gt;Node20 -->
<g id="edge19" class="edge"><title>Node1&#45;&gt;Node20</title>
<path fill="none" stroke="midnightblue" d="M909.5,-224.399C909.5,-216.466 909.5,-206.458 909.5,-197.858"/>
<polygon fill="midnightblue" stroke="midnightblue" points="913,-197.658 909.5,-187.658 906,-197.658 913,-197.658"/>
</g>
<!-- Node28 -->
<g id="node28" class="node"><title>Node28</title>
<polygon fill="white" stroke="#bfbfbf" points="957.5,-168.5 957.5,-187.5 997.5,-187.5 997.5,-168.5 957.5,-168.5"/>
<text text-anchor="middle" x="977.5" y="-175.5" font-family="Helvetica,sans-Serif" font-size="10.00">limits</text>
</g>
<!-- Node1&#45;&gt;Node28 -->
<g id="edge34" class="edge"><title>Node1&#45;&gt;Node28</title>
<path fill="none" stroke="midnightblue" d="M925.615,-224.399C935.904,-215.397 949.247,-203.721 959.826,-194.465"/>
<polygon fill="midnightblue" stroke="midnightblue" points="962.384,-196.877 967.605,-187.658 957.775,-191.609 962.384,-196.877"/>
</g>
<!-- Node3 -->
<g id="node3" class="node"><title>Node3</title>
<g id="a_node3"><a xlink:href="crossplatformexport_8h.html" target="_top" xlink:title="This file is used on some platforms to determine what data should be read and written to and from a s...">
<polygon fill="white" stroke="black" points="475,-0.5 475,-19.5 586,-19.5 586,-0.5 475,-0.5"/>
<text text-anchor="middle" x="530.5" y="-7.5" font-family="Helvetica,sans-Serif" font-size="10.00">crossplatformexport.h</text>
</a>
</g>
</g>
<!-- Node2&#45;&gt;Node3 -->
<g id="edge2" class="edge"><title>Node2&#45;&gt;Node3</title>
<path fill="none" stroke="midnightblue" d="M860.444,-58.4236C855.765,-57.5758 851.017,-56.7448 846.5,-56 834.292,-53.9873 685.287,-32.8766 596.32,-20.2979"/>
<polygon fill="midnightblue" stroke="midnightblue" points="596.704,-16.8174 586.312,-18.8831 595.724,-23.7485 596.704,-16.8174"/>
</g>
<!-- Node4 -->
<g id="node4" class="node"><title>Node4</title>
<polygon fill="white" stroke="#bfbfbf" points="604,-0.5 604,-19.5 653,-19.5 653,-0.5 604,-0.5"/>
<text text-anchor="middle" x="628.5" y="-7.5" font-family="Helvetica,sans-Serif" font-size="10.00">stdint.h</text>
</g>
<!-- Node2&#45;&gt;Node4 -->
<g id="edge3" class="edge"><title>Node2&#45;&gt;Node4</title>
<path fill="none" stroke="midnightblue" d="M860.299,-58.5427C805.927,-48.2571 702.528,-28.6099 663.303,-20.2073"/>
<polygon fill="midnightblue" stroke="midnightblue" points="663.837,-16.7406 653.315,-17.9834 662.316,-23.5732 663.837,-16.7406"/>
</g>
<!-- Node5 -->
<g id="node5" class="node"><title>Node5</title>
<polygon fill="white" stroke="#bfbfbf" points="671,-0.5 671,-19.5 720,-19.5 720,-0.5 671,-0.5"/>
<text text-anchor="middle" x="695.5" y="-7.5" font-family="Helvetica,sans-Serif" font-size="10.00">cstddef</text>
</g>
<!-- Node2&#45;&gt;Node5 -->
<g id="edge4" class="edge"><title>Node2&#45;&gt;Node5</title>
<path fill="none" stroke="midnightblue" d="M862.968,-56.4435C826.804,-46.6303 767.695,-30.5905 730.237,-20.4261"/>
<polygon fill="midnightblue" stroke="midnightblue" points="730.851,-16.9662 720.283,-17.7251 729.017,-23.7218 730.851,-16.9662"/>
</g>
<!-- Node6 -->
<g id="node6" class="node"><title>Node6</title>
<polygon fill="white" stroke="#bfbfbf" points="738.5,-0.5 738.5,-19.5 794.5,-19.5 794.5,-0.5 738.5,-0.5"/>
<text text-anchor="middle" x="766.5" y="-7.5" font-family="Helvetica,sans-Serif" font-size="10.00">algorithm</text>
</g>
<!-- Node2&#45;&gt;Node6 -->
<g id="edge5" class="edge"><title>Node2&#45;&gt;Node6</title>
<path fill="none" stroke="midnightblue" d="M874.218,-56.4435C853.153,-47.5566 819.983,-33.5632 796.014,-23.4514"/>
<polygon fill="midnightblue" stroke="midnightblue" points="797.261,-20.1787 786.687,-19.5164 794.54,-26.6283 797.261,-20.1787"/>
</g>
<!-- Node7 -->
<g id="node7" class="node"><title>Node7</title>
<polygon fill="white" stroke="#bfbfbf" points="286,-0.5 286,-19.5 345,-19.5 345,-0.5 286,-0.5"/>
<text text-anchor="middle" x="315.5" y="-7.5" font-family="Helvetica,sans-Serif" font-size="10.00">exception</text>
</g>
<!-- Node2&#45;&gt;Node7 -->
<g id="edge6" class="edge"><title>Node2&#45;&gt;Node7</title>
<path fill="none" stroke="midnightblue" d="M860.422,-63.9347C776.166,-60.9245 551.245,-50.5964 355.191,-20.0632"/>
<polygon fill="midnightblue" stroke="midnightblue" points="355.71,-16.602 345.287,-18.4995 354.619,-23.5163 355.71,-16.602"/>
</g>
<!-- Node8 -->
<g id="node8" class="node"><title>Node8</title>
<polygon fill="white" stroke="#bfbfbf" points="813,-0.5 813,-19.5 862,-19.5 862,-0.5 813,-0.5"/>
<text text-anchor="middle" x="837.5" y="-7.5" font-family="Helvetica,sans-Serif" font-size="10.00">istream</text>
</g>
<!-- Node2&#45;&gt;Node8 -->
<g id="edge7" class="edge"><title>Node2&#45;&gt;Node8</title>
<path fill="none" stroke="midnightblue" d="M885.342,-56.324C876.999,-48.4196 864.468,-36.5482 854.323,-26.9377"/>
<polygon fill="midnightblue" stroke="midnightblue" points="856.491,-24.1705 846.825,-19.8339 851.677,-29.2522 856.491,-24.1705"/>
</g>
<!-- Node9 -->
<g id="node9" class="node"><title>Node9</title>
<polygon fill="white" stroke="#bfbfbf" points="880,-0.5 880,-19.5 909,-19.5 909,-0.5 880,-0.5"/>
<text text-anchor="middle" x="894.5" y="-7.5" font-family="Helvetica,sans-Serif" font-size="10.00">list</text>
</g>
<!-- Node2&#45;&gt;Node9 -->
<g id="edge8" class="edge"><title>Node2&#45;&gt;Node9</title>
<path fill="none" stroke="midnightblue" d="M894.5,-56.083C894.5,-49.0059 894.5,-38.8611 894.5,-29.9865"/>
<polygon fill="midnightblue" stroke="midnightblue" points="898,-29.751 894.5,-19.7511 891,-29.7511 898,-29.751"/>
</g>
<!-- Node10 -->
<g id="node10" class="node"><title>Node10</title>
<polygon fill="white" stroke="#bfbfbf" points="422,-0.5 422,-19.5 457,-19.5 457,-0.5 422,-0.5"/>
<text text-anchor="middle" x="439.5" y="-7.5" font-family="Helvetica,sans-Serif" font-size="10.00">map</text>
</g>
<!-- Node2&#45;&gt;Node10 -->
<g id="edge9" class="edge"><title>Node2&#45;&gt;Node10</title>
<path fill="none" stroke="midnightblue" d="M860.475,-58.2239C855.791,-57.4071 851.034,-56.6379 846.5,-56 681.361,-32.7656 633.575,-55.1655 467.321,-19.9432"/>
<polygon fill="midnightblue" stroke="midnightblue" points="467.755,-16.4565 457.242,-17.7688 466.279,-23.2991 467.755,-16.4565"/>
</g>
<!-- Node11 -->
<g id="node11" class="node"><title>Node11</title>
<polygon fill="white" stroke="#bfbfbf" points="363,-0.5 363,-19.5 404,-19.5 404,-0.5 363,-0.5"/>
<text text-anchor="middle" x="383.5" y="-7.5" font-family="Helvetica,sans-Serif" font-size="10.00">string</text>
</g>
<!-- Node2&#45;&gt;Node11 -->
<g id="edge10" class="edge"><title>Node2&#45;&gt;Node11</title>
<path fill="none" stroke="midnightblue" d="M860.255,-64.2398C782.334,-61.9925 585.836,-53.4011 414.24,-19.9888"/>
<polygon fill="midnightblue" stroke="midnightblue" points="414.765,-16.5249 404.275,-18.0147 413.405,-23.3914 414.765,-16.5249"/>
</g>
<!-- Node12 -->
<g id="node12" class="node"><title>Node12</title>
<polygon fill="white" stroke="#bfbfbf" points="1319.5,-0.5 1319.5,-19.5 1371.5,-19.5 1371.5,-0.5 1319.5,-0.5"/>
<text text-anchor="middle" x="1345.5" y="-7.5" font-family="Helvetica,sans-Serif" font-size="10.00">sstream</text>
</g>
<!-- Node2&#45;&gt;Node12 -->
<g id="edge11" class="edge"><title>Node2&#45;&gt;Node12</title>
<path fill="none" stroke="midnightblue" d="M928.73,-61.9385C1011.28,-54.4558 1220.48,-34.8793 1309.25,-19.9425"/>
<polygon fill="midnightblue" stroke="midnightblue" points="1309.97,-23.3697 1319.22,-18.1912 1308.76,-16.4754 1309.97,-23.3697"/>
</g>
<!-- Node13 -->
<g id="node13" class="node"><title>Node13</title>
<polygon fill="white" stroke="#bfbfbf" points="927.5,-0.5 927.5,-19.5 977.5,-19.5 977.5,-0.5 927.5,-0.5"/>
<text text-anchor="middle" x="952.5" y="-7.5" font-family="Helvetica,sans-Serif" font-size="10.00">fstream</text>
</g>
<!-- Node2&#45;&gt;Node13 -->
<g id="edge12" class="edge"><title>Node2&#45;&gt;Node13</title>
<path fill="none" stroke="midnightblue" d="M903.819,-56.324C912.393,-48.3414 925.312,-36.3128 935.688,-26.6529"/>
<polygon fill="midnightblue" stroke="midnightblue" points="938.078,-29.2098 943.012,-19.8339 933.308,-24.0865 938.078,-29.2098"/>
</g>
<!-- Node14 -->
<g id="node14" class="node"><title>Node14</title>
<polygon fill="white" stroke="#bfbfbf" points="1389.5,-0.5 1389.5,-19.5 1419.5,-19.5 1419.5,-0.5 1389.5,-0.5"/>
<text text-anchor="middle" x="1404.5" y="-7.5" font-family="Helvetica,sans-Serif" font-size="10.00">set</text>
</g>
<!-- Node2&#45;&gt;Node14 -->
<g id="edge13" class="edge"><title>Node2&#45;&gt;Node14</title>
<path fill="none" stroke="midnightblue" d="M928.558,-63.0296C1021.06,-57.4967 1276.36,-40.9748 1379.39,-19.5608"/>
<polygon fill="midnightblue" stroke="midnightblue" points="1380.44,-22.9124 1389.45,-17.3374 1378.93,-16.0773 1380.44,-22.9124"/>
</g>
<!-- Node15 -->
<g id="node15" class="node"><title>Node15</title>
<polygon fill="white" stroke="#bfbfbf" points="995.5,-0.5 995.5,-19.5 1039.5,-19.5 1039.5,-0.5 995.5,-0.5"/>
<text text-anchor="middle" x="1017.5" y="-7.5" font-family="Helvetica,sans-Serif" font-size="10.00">vector</text>
</g>
<!-- Node2&#45;&gt;Node15 -->
<g id="edge14" class="edge"><title>Node2&#45;&gt;Node15</title>
<path fill="none" stroke="midnightblue" d="M913.99,-56.4435C934.142,-47.5961 965.823,-33.6875 988.831,-23.5865"/>
<polygon fill="midnightblue" stroke="midnightblue" points="990.352,-26.7411 998.101,-19.5164 987.538,-20.3316 990.352,-26.7411"/>
</g>
<!-- Node16 -->
<g id="node16" class="node"><title>Node16</title>
<polygon fill="white" stroke="#bfbfbf" points="1057.5,-0.5 1057.5,-19.5 1097.5,-19.5 1097.5,-0.5 1057.5,-0.5"/>
<text text-anchor="middle" x="1077.5" y="-7.5" font-family="Helvetica,sans-Serif" font-size="10.00">utility</text>
</g>
<!-- Node2&#45;&gt;Node16 -->
<g id="edge15" class="edge"><title>Node2&#45;&gt;Node16</title>
<path fill="none" stroke="midnightblue" d="M924.354,-56.4357C953.47,-48.0482 999.25,-34.7681 1047.54,-20.2552"/>
<polygon fill="midnightblue" stroke="midnightblue" points="1048.67,-23.5725 1057.23,-17.3372 1046.65,-16.8699 1048.67,-23.5725"/>
</g>
<!-- Node17 -->
<g id="node17" class="node"><title>Node17</title>
<polygon fill="white" stroke="#bfbfbf" points="1115.5,-0.5 1115.5,-19.5 1167.5,-19.5 1167.5,-0.5 1115.5,-0.5"/>
<text text-anchor="middle" x="1141.5" y="-7.5" font-family="Helvetica,sans-Serif" font-size="10.00">memory</text>
</g>
<!-- Node2&#45;&gt;Node17 -->
<g id="edge16" class="edge"><title>Node2&#45;&gt;Node17</title>
<path fill="none" stroke="midnightblue" d="M928.747,-58.1972C968.774,-50.1439 1037.24,-36.0523 1105.15,-20.246"/>
<polygon fill="midnightblue" stroke="midnightblue" points="1106.22,-23.5897 1115.16,-17.902 1104.62,-16.774 1106.22,-23.5897"/>
</g>
<!-- Node18 -->
<g id="node18" class="node"><title>Node18</title>
<polygon fill="white" stroke="#bfbfbf" points="1185.5,-0.5 1185.5,-19.5 1237.5,-19.5 1237.5,-0.5 1185.5,-0.5"/>
<text text-anchor="middle" x="1211.5" y="-7.5" font-family="Helvetica,sans-Serif" font-size="10.00">ostream</text>
</g>
<!-- Node2&#45;&gt;Node18 -->
<g id="edge17" class="edge"><title>Node2&#45;&gt;Node18</title>
<path fill="none" stroke="midnightblue" d="M928.545,-60.6141C979.92,-53.7687 1080.49,-39.4862 1175.16,-20.1217"/>
<polygon fill="midnightblue" stroke="midnightblue" points="1176.11,-23.5008 1185.19,-18.0468 1174.69,-16.646 1176.11,-23.5008"/>
</g>
<!-- Node19 -->
<g id="node19" class="node"><title>Node19</title>
<g id="a_node19"><a xlink:href="swig_8h.html" target="_top" xlink:title="Used to give commands specifically to the SWIG preprocessor. ">
<polygon fill="white" stroke="black" points="1256,-0.5 1256,-19.5 1301,-19.5 1301,-0.5 1256,-0.5"/>
<text text-anchor="middle" x="1278.5" y="-7.5" font-family="Helvetica,sans-Serif" font-size="10.00">swig.h</text>
</a>
</g>
</g>
<!-- Node2&#45;&gt;Node19 -->
<g id="edge18" class="edge"><title>Node2&#45;&gt;Node19</title>
<path fill="none" stroke="midnightblue" d="M928.753,-62.3061C990.333,-57.1007 1123.9,-44.1604 1245.98,-19.8108"/>
<polygon fill="midnightblue" stroke="midnightblue" points="1246.77,-23.2229 1255.87,-17.8074 1245.38,-16.3622 1246.77,-23.2229"/>
</g>
<!-- Node20&#45;&gt;Node2 -->
<g id="edge20" class="edge"><title>Node20&#45;&gt;Node2</title>
<path fill="none" stroke="midnightblue" d="M904.37,-168.407C899.442,-159.614 892.34,-145.381 889.5,-132 886.229,-116.586 887.994,-98.714 890.286,-85.6156"/>
<polygon fill="midnightblue" stroke="midnightblue" points="893.777,-86.01 892.321,-75.5156 886.915,-84.6269 893.777,-86.01"/>
</g>
<!-- Node20&#45;&gt;Node10 -->
<g id="edge31" class="edge"><title>Node20&#45;&gt;Node10</title>
<path fill="none" stroke="midnightblue" d="M885.22,-168.425C805.282,-140.191 550.641,-50.2542 466.659,-20.5923"/>
<polygon fill="midnightblue" stroke="midnightblue" points="467.661,-17.2344 457.066,-17.2042 465.33,-23.8348 467.661,-17.2344"/>
</g>
<!-- Node20&#45;&gt;Node12 -->
<g id="edge33" class="edge"><title>Node20&#45;&gt;Node12</title>
<path fill="none" stroke="midnightblue" d="M939.742,-168.579C960.701,-161.531 988.201,-149.735 1007.5,-132 1036.08,-105.74 1018.4,-77.8092 1050.5,-56 1144.36,7.76414 1193.33,-39.8007 1309.26,-19.9443"/>
<polygon fill="midnightblue" stroke="midnightblue" points="1310,-23.3664 1319.2,-18.1058 1308.73,-16.4832 1310,-23.3664"/>
</g>
<!-- Node20&#45;&gt;Node14 -->
<g id="edge30" class="edge"><title>Node20&#45;&gt;Node14</title>
<path fill="none" stroke="midnightblue" d="M931.819,-168.481C971.842,-153.235 1054.36,-121.949 1083.5,-112 1211.21,-68.4047 1248.03,-64.8706 1379.67,-20.1407"/>
<polygon fill="midnightblue" stroke="midnightblue" points="1380.98,-23.3914 1389.31,-16.8478 1378.72,-16.7669 1380.98,-23.3914"/>
</g>
<!-- Node21 -->
<g id="node21" class="node"><title>Node21</title>
<g id="a_node21"><a xlink:href="testenumerations_8h.html" target="_top" xlink:title="Enumerations and constant values associated with the Unit tests. ">
<polygon fill="white" stroke="black" points="898.5,-112.5 898.5,-131.5 998.5,-131.5 998.5,-112.5 898.5,-112.5"/>
<text text-anchor="middle" x="948.5" y="-119.5" font-family="Helvetica,sans-Serif" font-size="10.00">testenumerations.h</text>
</a>
</g>
</g>
<!-- Node20&#45;&gt;Node21 -->
<g id="edge21" class="edge"><title>Node20&#45;&gt;Node21</title>
<path fill="none" stroke="midnightblue" d="M915.94,-168.083C921.449,-160.455 929.531,-149.264 936.265,-139.941"/>
<polygon fill="midnightblue" stroke="midnightblue" points="939.162,-141.907 942.18,-131.751 933.487,-137.809 939.162,-141.907"/>
</g>
<!-- Node22 -->
<g id="node22" class="node"><title>Node22</title>
<g id="a_node22"><a xlink:href="pugixml_8h.html" target="_top" xlink:title="To allow this test harness to be used without the mezzanine it uses pugixml for xml parsing and this ...">
<polygon fill="white" stroke="black" points="216,-56.5 216,-75.5 275,-75.5 275,-56.5 216,-56.5"/>
<text text-anchor="middle" x="245.5" y="-63.5" font-family="Helvetica,sans-Serif" font-size="10.00">pugixml.h</text>
</a>
</g>
</g>
<!-- Node20&#45;&gt;Node22 -->
<g id="edge23" class="edge"><title>Node20&#45;&gt;Node22</title>
<path fill="none" stroke="midnightblue" d="M879.244,-171.988C771.514,-154.141 406.578,-93.6846 285.159,-73.5699"/>
<polygon fill="midnightblue" stroke="midnightblue" points="285.613,-70.0975 275.175,-71.916 284.468,-77.0034 285.613,-70.0975"/>
</g>
<!-- Node27 -->
<g id="node27" class="node"><title>Node27</title>
<polygon fill="white" stroke="#bfbfbf" points="1092.5,-112.5 1092.5,-131.5 1146.5,-131.5 1146.5,-112.5 1092.5,-112.5"/>
<text text-anchor="middle" x="1119.5" y="-119.5" font-family="Helvetica,sans-Serif" font-size="10.00">iostream</text>
</g>
<!-- Node20&#45;&gt;Node27 -->
<g id="edge32" class="edge"><title>Node20&#45;&gt;Node27</title>
<path fill="none" stroke="midnightblue" d="M939.588,-169.263C977.331,-159.558 1042.02,-142.923 1082.68,-132.468"/>
<polygon fill="midnightblue" stroke="midnightblue" points="1083.65,-135.831 1092.47,-129.951 1081.91,-129.052 1083.65,-135.831"/>
</g>
<!-- Node21&#45;&gt;Node2 -->
<g id="edge22" class="edge"><title>Node21&#45;&gt;Node2</title>
<path fill="none" stroke="midnightblue" d="M939.583,-112.083C931.72,-104.22 920.069,-92.5688 910.581,-83.0813"/>
<polygon fill="midnightblue" stroke="midnightblue" points="912.797,-80.3473 903.251,-75.7511 907.847,-85.2971 912.797,-80.3473"/>
</g>
<!-- Node22&#45;&gt;Node7 -->
<g id="edge26" class="edge"><title>Node22&#45;&gt;Node7</title>
<path fill="none" stroke="midnightblue" d="M256.747,-56.324C267.297,-48.1849 283.301,-35.8395 295.942,-26.0874"/>
<polygon fill="midnightblue" stroke="midnightblue" points="298.269,-28.7132 304.049,-19.8339 293.993,-23.1707 298.269,-28.7132"/>
</g>
<!-- Node22&#45;&gt;Node11 -->
<g id="edge29" class="edge"><title>Node22&#45;&gt;Node11</title>
<path fill="none" stroke="midnightblue" d="M267.367,-56.4435C290.549,-47.3721 327.329,-32.98 353.276,-22.8268"/>
<polygon fill="midnightblue" stroke="midnightblue" points="354.602,-26.0664 362.639,-19.1629 352.051,-19.5477 354.602,-26.0664"/>
</g>
<!-- Node23 -->
<g id="node23" class="node"><title>Node23</title>
<g id="a_node23"><a xlink:href="pugiconfig_8h.html" target="_top" xlink:title="To allow this test harness to be used without the mezzanine it uses pugixml for xml parsing and this ...">
<polygon fill="white" stroke="black" points="0,-0.5 0,-19.5 69,-19.5 69,-0.5 0,-0.5"/>
<text text-anchor="middle" x="34.5" y="-7.5" font-family="Helvetica,sans-Serif" font-size="10.00">pugiconfig.h</text>
</a>
</g>
</g>
<!-- Node22&#45;&gt;Node23 -->
<g id="edge24" class="edge"><title>Node22&#45;&gt;Node23</title>
<path fill="none" stroke="midnightblue" d="M215.716,-57.3776C179.72,-48.1653 118.869,-32.592 77.7148,-22.0597"/>
<polygon fill="midnightblue" stroke="midnightblue" points="78.5174,-18.6524 67.9618,-19.5637 76.7818,-25.4338 78.5174,-18.6524"/>
</g>
<!-- Node24 -->
<g id="node24" class="node"><title>Node24</title>
<polygon fill="white" stroke="#bfbfbf" points="87.5,-0.5 87.5,-19.5 139.5,-19.5 139.5,-0.5 87.5,-0.5"/>
<text text-anchor="middle" x="113.5" y="-7.5" font-family="Helvetica,sans-Serif" font-size="10.00">stddef.h</text>
</g>
<!-- Node22&#45;&gt;Node24 -->
<g id="edge25" class="edge"><title>Node22&#45;&gt;Node24</title>
<path fill="none" stroke="midnightblue" d="M224.584,-56.4435C202.764,-47.5171 168.35,-33.4387 143.608,-23.3168"/>
<polygon fill="midnightblue" stroke="midnightblue" points="144.899,-20.0634 134.318,-19.5164 142.248,-26.5422 144.899,-20.0634"/>
</g>
<!-- Node25 -->
<g id="node25" class="node"><title>Node25</title>
<polygon fill="white" stroke="#bfbfbf" points="158,-0.5 158,-19.5 205,-19.5 205,-0.5 158,-0.5"/>
<text text-anchor="middle" x="181.5" y="-7.5" font-family="Helvetica,sans-Serif" font-size="10.00">iterator</text>
</g>
<!-- Node22&#45;&gt;Node25 -->
<g id="edge27" class="edge"><title>Node22&#45;&gt;Node25</title>
<path fill="none" stroke="midnightblue" d="M235.217,-56.324C225.664,-48.2631 211.22,-36.0765 199.716,-26.3695"/>
<polygon fill="midnightblue" stroke="midnightblue" points="201.87,-23.6076 191.97,-19.8339 197.356,-28.9577 201.87,-23.6076"/>
</g>
<!-- Node26 -->
<g id="node26" class="node"><title>Node26</title>
<polygon fill="white" stroke="#bfbfbf" points="223,-0.5 223,-19.5 268,-19.5 268,-0.5 223,-0.5"/>
<text text-anchor="middle" x="245.5" y="-7.5" font-family="Helvetica,sans-Serif" font-size="10.00">iosfwd</text>
</g>
<!-- Node22&#45;&gt;Node26 -->
<g id="edge28" class="edge"><title>Node22&#45;&gt;Node26</title>
<path fill="none" stroke="midnightblue" d="M245.5,-56.083C245.5,-49.0059 245.5,-38.8611 245.5,-29.9865"/>
<polygon fill="midnightblue" stroke="midnightblue" points="249,-29.751 245.5,-19.7511 242,-29.7511 249,-29.751"/>
</g>
</g>
</svg>
        <g id="navigator" transform="translate(0 0)" fill="#404254">
                <rect fill="#f2f5e9" fill-opacity="0.5" stroke="#606060" stroke-width=".5" x="0" y="0" width="60" height="60"/>
                <use id="zoomplus" xlink:href="#zoomPlus" x="17" y="9" onmousedown="handleZoom(evt,'in')"/>
                <use id="zoomminus" xlink:href="#zoomMin" x="42" y="9" onmousedown="handleZoom(evt,'out')"/>
                <use id="reset" xlink:href="#resetDef" x="30" y="36" onmousedown="handleReset()"/>
                <g id="arrowUp" xlink:href="#dirArrow" transform="translate(30 24)" onmousedown="handlePan(0,-1)">
                  <use xlink:href="#rim" fill="#404040">
                        <set attributeName="fill" to="#808080" begin="arrowUp.mouseover" end="arrowUp.mouseout"/>
                  </use>
                  <path fill="none" stroke="white" stroke-width="1.5" d="M0,-3.0v7 M-2.5,-0.5L0,-3.0L2.5,-0.5"/>
                </g>
                <g id="arrowRight" xlink:href="#dirArrow" transform="rotate(90) translate(36 -43)" onmousedown="handlePan(1,0)">
                  <use xlink:href="#rim" fill="#404040">
                        <set attributeName="fill" to="#808080" begin="arrowRight.mouseover" end="arrowRight.mouseout"/>
                  </use>
                  <path fill="none" stroke="white" stroke-width="1.5" d="M0,-3.0v7 M-2.5,-0.5L0,-3.0L2.5,-0.5"/>
                </g>
                <g id="arrowDown" xlink:href="#dirArrow" transform="rotate(180) translate(-30 -48)" onmousedown="handlePan(0,1)">
                  <use xlink:href="#rim" fill="#404040">
                        <set attributeName="fill" to="#808080" begin="arrowDown.mouseover" end="arrowDown.mouseout"/>
                  </use>
                  <path fill="none" stroke="white" stroke-width="1.5" d="M0,-3.0v7 M-2.5,-0.5L0,-3.0L2.5,-0.5"/>
                </g>
                <g id="arrowLeft" xlink:href="#dirArrow" transform="rotate(270) translate(-36 17)" onmousedown="handlePan(-1,0)">
                  <use xlink:href="#rim" fill="#404040">
                        <set attributeName="fill" to="#808080" begin="arrowLeft.mouseover" end="arrowLeft.mouseout"/>
                  </use>
                  <path fill="none" stroke="white" stroke-width="1.5" d="M0,-3.0v7 M-2.5,-0.5L0,-3.0L2.5,-0.5"/>
                </g>
        </g>
        <svg viewBox="0 0 15 15" width="100%" height="30px" preserveAspectRatio="xMaxYMin meet">
         <g id="arrow_out" transform="scale(0.3 0.3)">
          <a xlink:href="testdatatools_8h__incl_org.svg" target="_base">
           <rect id="button" ry="5" rx="5" y="6" x="6" height="38" width="38"
                fill="#f2f5e9" fill-opacity="0.5" stroke="#606060" stroke-width="1.0"/>
           <path id="arrow"
             d="M 11.500037,31.436501 C 11.940474,20.09759 22.043105,11.32322 32.158766,21.979434 L 37.068811,17.246167 C 37.068811,17.246167 37.088388,32 37.088388,32 L 22.160133,31.978069 C 22.160133,31.978069 26.997745,27.140456 26.997745,27.140456 C 18.528582,18.264221 13.291696,25.230495 11.500037,31.436501 z"
             style="fill:#404040;"/>
          </a>
         </g>
        </svg>
</svg>
