<?xml version="1.0" encoding="UTF-8" standalone="no"?>
<!DOCTYPE svg PUBLIC "-//W3C//DTD SVG 1.1//EN"
 "http://www.w3.org/Graphics/SVG/1.1/DTD/svg11.dtd">
<!-- Generated by graphviz version 2.36.0 (20140111.2315)
 -->
<!-- Title: /home/sqeaky/Code/Mezzanine/UnitTests/src/testenumerations.h Pages: 1 -->
<!--zoomable 312 -->
<svg id="main" version="1.1" xmlns="http://www.w3.org/2000/svg" xmlns:xlink="http://www.w3.org/1999/xlink" xml:space="preserve" onload="init(evt)">
<style type="text/css"><![CDATA[
.edge:hover path { stroke: red; }
.edge:hover polygon { stroke: red; fill: red; }
]]></style>
<script type="text/javascript"><![CDATA[
var edges = document.getElementsByTagName('g');
if (edges && edges.length) {
  for (var i=0;i<edges.length;i++) {
    if (edges[i].id.substr(0,4)=='edge') {
      edges[i].setAttribute('class','edge');
    }
  }
}
]]></script>
        <defs>
                <circle id="rim" cx="0" cy="0" r="7"/>
                <circle id="rim2" cx="0" cy="0" r="3.5"/>
                <g id="zoomPlus">
                        <use xlink:href="#rim" fill="#404040">
                                <set attributeName="fill" to="#808080" begin="zoomplus.mouseover" end="zoomplus.mouseout"/>
                        </use>
                        <path d="M-4,0h8M0,-4v8" fill="none" stroke="white" stroke-width="1.5" pointer-events="none"/>
                </g>
                <g id="zoomMin">
                        <use xlink:href="#rim" fill="#404040">
                                <set attributeName="fill" to="#808080" begin="zoomminus.mouseover" end="zoomminus.mouseout"/>
                        </use>
                        <path d="M-4,0h8" fill="none" stroke="white" stroke-width="1.5" pointer-events="none"/>
                </g>
                <g id="dirArrow">
                        <path fill="none" stroke="white" stroke-width="1.5" d="M0,-3.0v7 M-2.5,-0.5L0,-3.0L2.5,-0.5"/>
                </g>
               <g id="resetDef">
                       <use xlink:href="#rim2" fill="#404040">
                               <set attributeName="fill" to="#808080" begin="reset.mouseover" end="reset.mouseout"/>
                       </use>
               </g>
        </defs>

<script type="text/javascript">
var viewWidth = 1013;
var viewHeight = 312;
var sectionId = 'dynsection-1';
</script>
<script xlink:href="svgpan.js"/>
<svg id="graph" class="graph">
<g id="viewport">
<title>/home/sqeaky/Code/Mezzanine/UnitTests/src/testenumerations.h</title>
<polygon fill="white" stroke="none" points="-4,4 -4,-308 1009,-308 1009,4 -4,4"/>
<!-- Node1 -->
<g id="node1" class="node"><title>Node1</title>
<polygon fill="#bfbfbf" stroke="black" points="554.5,-273 554.5,-303 719.5,-303 719.5,-273 554.5,-273"/>
<text text-anchor="start" x="562.5" y="-291" font-family="Helvetica,sans-Serif" font-size="10.00">/home/sqeaky/Code/Mezzanine</text>
<text text-anchor="middle" x="637" y="-280" font-family="Helvetica,sans-Serif" font-size="10.00">/UnitTests/src/testenumerations.h</text>
</g>
<!-- Node2 -->
<g id="node2" class="node"><title>Node2</title>
<g id="a_node2"><a xlink:href="testdata_8h.html" target="_top" xlink:title="TestData, TestDataStorage and UnitTestGroup class definitions. ">
<polygon fill="white" stroke="black" points="211.5,-205 211.5,-235 366.5,-235 366.5,-205 211.5,-205"/>
<text text-anchor="start" x="219.5" y="-223" font-family="Helvetica,sans-Serif" font-size="10.00">/home/sqeaky/Code/Mezzanine</text>
<text text-anchor="middle" x="289" y="-212" font-family="Helvetica,sans-Serif" font-size="10.00">/UnitTests/src/testdata.h</text>
</a>
</g>
</g>
<!-- Node1&#45;&gt;Node2 -->
<g id="edge1" class="edge"><title>Node1&#45;&gt;Node2</title>
<path fill="none" stroke="midnightblue" d="M552.912,-271.052C494.995,-260.068 418.752,-245.608 363.114,-235.056"/>
<polygon fill="midnightblue" stroke="midnightblue" points="552.295,-274.498 562.772,-272.922 553.599,-267.62 552.295,-274.498"/>
</g>
<!-- Node5 -->
<g id="node5" class="node"><title>Node5</title>
<g id="a_node5"><a xlink:href="mezztest_8h_source.html" target="_top" xlink:title="/home/sqeaky/Code/Mezzanine\l/UnitTests/src/mezztest.h">
<polygon fill="white" stroke="black" points="191.5,-69 191.5,-99 346.5,-99 346.5,-69 191.5,-69"/>
<text text-anchor="start" x="199.5" y="-87" font-family="Helvetica,sans-Serif" font-size="10.00">/home/sqeaky/Code/Mezzanine</text>
<text text-anchor="middle" x="269" y="-76" font-family="Helvetica,sans-Serif" font-size="10.00">/UnitTests/src/mezztest.h</text>
</a>
</g>
</g>
<!-- Node1&#45;&gt;Node5 -->
<g id="edge12" class="edge"><title>Node1&#45;&gt;Node5</title>
<path fill="none" stroke="midnightblue" d="M613.693,-265.264C605.445,-256.714 596.588,-246.449 590,-236 564.47,-195.509 587.073,-166.282 550,-136 519.52,-111.103 418.785,-97.4726 346.649,-90.7093"/>
<polygon fill="midnightblue" stroke="midnightblue" points="611.47,-267.991 621.014,-272.591 616.421,-263.043 611.47,-267.991"/>
</g>
<!-- Node10 -->
<g id="node10" class="node"><title>Node10</title>
<g id="a_node10"><a xlink:href="consolestringmanipulation_8cpp.html" target="_top" xlink:title="The implementation of the string manipulation functions the unit tests use. ">
<polygon fill="white" stroke="black" points="598.5,-205 598.5,-235 811.5,-235 811.5,-205 598.5,-205"/>
<text text-anchor="start" x="606.5" y="-223" font-family="Helvetica,sans-Serif" font-size="10.00">/home/sqeaky/Code/Mezzanine</text>
<text text-anchor="middle" x="705" y="-212" font-family="Helvetica,sans-Serif" font-size="10.00">/UnitTests/src/consolestringmanipulation.cpp</text>
</a>
</g>
</g>
<!-- Node1&#45;&gt;Node10 -->
<g id="edge11" class="edge"><title>Node1&#45;&gt;Node10</title>
<path fill="none" stroke="midnightblue" d="M659.166,-265.485C669.367,-255.585 681.191,-244.109 690.274,-235.293"/>
<polygon fill="midnightblue" stroke="midnightblue" points="656.493,-263.203 651.755,-272.679 661.368,-268.226 656.493,-263.203"/>
</g>
<!-- Node11 -->
<g id="node11" class="node"><title>Node11</title>
<g id="a_node11"><a xlink:href="testenumerations_8cpp.html" target="_top" xlink:title="The implmentation of a few functions used with the enumuration in the unit tests. ...">
<polygon fill="white" stroke="black" points="829,-205 829,-235 1005,-235 1005,-205 829,-205"/>
<text text-anchor="start" x="837" y="-223" font-family="Helvetica,sans-Serif" font-size="10.00">/home/sqeaky/Code/Mezzanine</text>
<text text-anchor="middle" x="917" y="-212" font-family="Helvetica,sans-Serif" font-size="10.00">/UnitTests/src/testenumerations.cpp</text>
</a>
</g>
</g>
<!-- Node1&#45;&gt;Node11 -->
<g id="edge13" class="edge"><title>Node1&#45;&gt;Node11</title>
<path fill="none" stroke="midnightblue" d="M706.688,-270.574C753.028,-259.651 813.249,-245.456 857.368,-235.056"/>
<polygon fill="midnightblue" stroke="midnightblue" points="705.654,-267.221 696.724,-272.922 707.26,-274.035 705.654,-267.221"/>
</g>
<!-- Node3 -->
<g id="node3" class="node"><title>Node3</title>
<g id="a_node3"><a xlink:href="consolelogic_8h.html" target="_top" xlink:title="The definition of a few command line tools. ">
<polygon fill="white" stroke="black" points="-0.5,-137 -0.5,-167 154.5,-167 154.5,-137 -0.5,-137"/>
<text text-anchor="start" x="7.5" y="-155" font-family="Helvetica,sans-Serif" font-size="10.00">/home/sqeaky/Code/Mezzanine</text>
<text text-anchor="middle" x="77" y="-144" font-family="Helvetica,sans-Serif" font-size="10.00">/UnitTests/src/consolelogic.h</text>
</a>
</g>
</g>
<!-- Node2&#45;&gt;Node3 -->
<g id="edge2" class="edge"><title>Node2&#45;&gt;Node3</title>
<path fill="none" stroke="midnightblue" d="M233.792,-201.813C199.054,-190.998 154.784,-177.216 122.15,-167.056"/>
<polygon fill="midnightblue" stroke="midnightblue" points="233.192,-205.292 243.781,-204.922 235.273,-198.608 233.192,-205.292"/>
</g>
<!-- Node2&#45;&gt;Node5 -->
<g id="edge7" class="edge"><title>Node2&#45;&gt;Node5</title>
<path fill="none" stroke="midnightblue" d="M237.434,-200.202C223.459,-192.465 209.997,-181.957 202,-168 194.93,-155.66 195.685,-148.743 202,-136 209.919,-120.02 225.507,-107.688 239.655,-99.1568"/>
<polygon fill="midnightblue" stroke="midnightblue" points="236.141,-203.471 246.639,-204.894 239.32,-197.234 236.141,-203.471"/>
</g>
<!-- Node8 -->
<g id="node8" class="node"><title>Node8</title>
<g id="a_node8"><a xlink:href="testdatatools_8h.html" target="_top" xlink:title="TestData, TestDataStorage and UnitTestGroup class definitions. ">
<polygon fill="white" stroke="black" points="211.5,-137 211.5,-167 366.5,-167 366.5,-137 211.5,-137"/>
<text text-anchor="start" x="219.5" y="-155" font-family="Helvetica,sans-Serif" font-size="10.00">/home/sqeaky/Code/Mezzanine</text>
<text text-anchor="middle" x="289" y="-144" font-family="Helvetica,sans-Serif" font-size="10.00">/UnitTests/src/testdatatools.h</text>
</a>
</g>
</g>
<!-- Node2&#45;&gt;Node8 -->
<g id="edge8" class="edge"><title>Node2&#45;&gt;Node8</title>
<path fill="none" stroke="midnightblue" d="M289,-194.532C289,-185.361 289,-175.245 289,-167.293"/>
<polygon fill="midnightblue" stroke="midnightblue" points="285.5,-194.679 289,-204.679 292.5,-194.679 285.5,-194.679"/>
</g>
<!-- Node9 -->
<g id="node9" class="node"><title>Node9</title>
<g id="a_node9"><a xlink:href="testdatatools_8cpp.html" target="_top" xlink:title="The implementation of stuff that must be run in the context of a TestData. ">
<polygon fill="white" stroke="black" points="384.5,-137 384.5,-167 541.5,-167 541.5,-137 384.5,-137"/>
<text text-anchor="start" x="392.5" y="-155" font-family="Helvetica,sans-Serif" font-size="10.00">/home/sqeaky/Code/Mezzanine</text>
<text text-anchor="middle" x="463" y="-144" font-family="Helvetica,sans-Serif" font-size="10.00">/UnitTests/src/testdatatools.cpp</text>
</a>
</g>
</g>
<!-- Node2&#45;&gt;Node9 -->
<g id="edge10" class="edge"><title>Node2&#45;&gt;Node9</title>
<path fill="none" stroke="midnightblue" d="M336.002,-201.171C364.281,-190.445 399.766,-176.985 426.033,-167.022"/>
<polygon fill="midnightblue" stroke="midnightblue" points="334.436,-198.022 326.327,-204.841 336.919,-204.567 334.436,-198.022"/>
</g>
<!-- Node4 -->
<g id="node4" class="node"><title>Node4</title>
<g id="a_node4"><a xlink:href="consolelogic_8cpp.html" target="_top" xlink:title="The implementation of items important a commandline tool to work correctly without need to be availab...">
<polygon fill="white" stroke="black" points="-0.5,-69 -0.5,-99 154.5,-99 154.5,-69 -0.5,-69"/>
<text text-anchor="start" x="7.5" y="-87" font-family="Helvetica,sans-Serif" font-size="10.00">/home/sqeaky/Code/Mezzanine</text>
<text text-anchor="middle" x="77" y="-76" font-family="Helvetica,sans-Serif" font-size="10.00">/UnitTests/src/consolelogic.cpp</text>
</a>
</g>
</g>
<!-- Node3&#45;&gt;Node4 -->
<g id="edge3" class="edge"><title>Node3&#45;&gt;Node4</title>
<path fill="none" stroke="midnightblue" d="M77,-126.532C77,-117.361 77,-107.245 77,-99.2931"/>
<polygon fill="midnightblue" stroke="midnightblue" points="73.5001,-126.679 77,-136.679 80.5001,-126.679 73.5001,-126.679"/>
</g>
<!-- Node3&#45;&gt;Node5 -->
<g id="edge4" class="edge"><title>Node3&#45;&gt;Node5</title>
<path fill="none" stroke="midnightblue" d="M128.049,-133.452C159.384,-122.68 198.972,-109.072 228.209,-99.0218"/>
<polygon fill="midnightblue" stroke="midnightblue" points="126.508,-130.281 118.189,-136.841 128.783,-136.9 126.508,-130.281"/>
</g>
<!-- Node6 -->
<g id="node6" class="node"><title>Node6</title>
<g id="a_node6"><a xlink:href="mezztest_8cpp.html" target="_top" xlink:title="This file is the entry point for the unit test framework. ">
<polygon fill="white" stroke="black" points="104.5,-1 104.5,-31 259.5,-31 259.5,-1 104.5,-1"/>
<text text-anchor="start" x="112.5" y="-19" font-family="Helvetica,sans-Serif" font-size="10.00">/home/sqeaky/Code/Mezzanine</text>
<text text-anchor="middle" x="182" y="-8" font-family="Helvetica,sans-Serif" font-size="10.00">/UnitTests/src/mezztest.cpp</text>
</a>
</g>
</g>
<!-- Node5&#45;&gt;Node6 -->
<g id="edge5" class="edge"><title>Node5&#45;&gt;Node6</title>
<path fill="none" stroke="midnightblue" d="M242.108,-62.5994C228.626,-52.3712 212.638,-40.2428 200.542,-31.0663"/>
<polygon fill="midnightblue" stroke="midnightblue" points="240.04,-65.4235 250.122,-68.679 244.271,-59.8467 240.04,-65.4235"/>
</g>
<!-- Node7 -->
<g id="node7" class="node"><title>Node7</title>
<g id="a_node7"><a xlink:href="testdata_8cpp.html" target="_top" xlink:title="The definition of the string manipulation functions the unit tests use. ">
<polygon fill="white" stroke="black" points="277.5,-1 277.5,-31 432.5,-31 432.5,-1 277.5,-1"/>
<text text-anchor="start" x="285.5" y="-19" font-family="Helvetica,sans-Serif" font-size="10.00">/home/sqeaky/Code/Mezzanine</text>
<text text-anchor="middle" x="355" y="-8" font-family="Helvetica,sans-Serif" font-size="10.00">/UnitTests/src/testdata.cpp</text>
</a>
</g>
</g>
<!-- Node5&#45;&gt;Node7 -->
<g id="edge6" class="edge"><title>Node5&#45;&gt;Node7</title>
<path fill="none" stroke="midnightblue" d="M295.96,-62.3094C309.208,-52.1426 324.827,-40.1562 336.671,-31.0663"/>
<polygon fill="midnightblue" stroke="midnightblue" points="293.463,-59.8142 287.661,-68.679 297.725,-65.3673 293.463,-59.8142"/>
</g>
<!-- Node8&#45;&gt;Node5 -->
<g id="edge9" class="edge"><title>Node8&#45;&gt;Node5</title>
<path fill="none" stroke="midnightblue" d="M281.676,-126.831C278.873,-117.581 275.767,-107.331 273.331,-99.2931"/>
<polygon fill="midnightblue" stroke="midnightblue" points="278.411,-128.124 284.66,-136.679 285.11,-126.094 278.411,-128.124"/>
</g>
</g>
</svg>
        <g id="navigator" transform="translate(0 0)" fill="#404254">
                <rect fill="#f2f5e9" fill-opacity="0.5" stroke="#606060" stroke-width=".5" x="0" y="0" width="60" height="60"/>
                <use id="zoomplus" xlink:href="#zoomPlus" x="17" y="9" onmousedown="handleZoom(evt,'in')"/>
                <use id="zoomminus" xlink:href="#zoomMin" x="42" y="9" onmousedown="handleZoom(evt,'out')"/>
                <use id="reset" xlink:href="#resetDef" x="30" y="36" onmousedown="handleReset()"/>
                <g id="arrowUp" xlink:href="#dirArrow" transform="translate(30 24)" onmousedown="handlePan(0,-1)">
                  <use xlink:href="#rim" fill="#404040">
                        <set attributeName="fill" to="#808080" begin="arrowUp.mouseover" end="arrowUp.mouseout"/>
                  </use>
                  <path fill="none" stroke="white" stroke-width="1.5" d="M0,-3.0v7 M-2.5,-0.5L0,-3.0L2.5,-0.5"/>
                </g>
                <g id="arrowRight" xlink:href="#dirArrow" transform="rotate(90) translate(36 -43)" onmousedown="handlePan(1,0)">
                  <use xlink:href="#rim" fill="#404040">
                        <set attributeName="fill" to="#808080" begin="arrowRight.mouseover" end="arrowRight.mouseout"/>
                  </use>
                  <path fill="none" stroke="white" stroke-width="1.5" d="M0,-3.0v7 M-2.5,-0.5L0,-3.0L2.5,-0.5"/>
                </g>
                <g id="arrowDown" xlink:href="#dirArrow" transform="rotate(180) translate(-30 -48)" onmousedown="handlePan(0,1)">
                  <use xlink:href="#rim" fill="#404040">
                        <set attributeName="fill" to="#808080" begin="arrowDown.mouseover" end="arrowDown.mouseout"/>
                  </use>
                  <path fill="none" stroke="white" stroke-width="1.5" d="M0,-3.0v7 M-2.5,-0.5L0,-3.0L2.5,-0.5"/>
                </g>
                <g id="arrowLeft" xlink:href="#dirArrow" transform="rotate(270) translate(-36 17)" onmousedown="handlePan(-1,0)">
                  <use xlink:href="#rim" fill="#404040">
                        <set attributeName="fill" to="#808080" begin="arrowLeft.mouseover" end="arrowLeft.mouseout"/>
                  </use>
                  <path fill="none" stroke="white" stroke-width="1.5" d="M0,-3.0v7 M-2.5,-0.5L0,-3.0L2.5,-0.5"/>
                </g>
        </g>
        <svg viewBox="0 0 15 15" width="100%" height="30px" preserveAspectRatio="xMaxYMin meet">
         <g id="arrow_out" transform="scale(0.3 0.3)">
          <a xlink:href="testenumerations_8h__dep__incl_org.svg" target="_base">
           <rect id="button" ry="5" rx="5" y="6" x="6" height="38" width="38"
                fill="#f2f5e9" fill-opacity="0.5" stroke="#606060" stroke-width="1.0"/>
           <path id="arrow"
             d="M 11.500037,31.436501 C 11.940474,20.09759 22.043105,11.32322 32.158766,21.979434 L 37.068811,17.246167 C 37.068811,17.246167 37.088388,32 37.088388,32 L 22.160133,31.978069 C 22.160133,31.978069 26.997745,27.140456 26.997745,27.140456 C 18.528582,18.264221 13.291696,25.230495 11.500037,31.436501 z"
             style="fill:#404040;"/>
          </a>
         </g>
        </svg>
</svg>
