<?xml version="1.0" encoding="UTF-8" standalone="no"?>
<!DOCTYPE svg PUBLIC "-//W3C//DTD SVG 1.1//EN"
 "http://www.w3.org/Graphics/SVG/1.1/DTD/svg11.dtd">
<!-- Generated by graphviz version 2.36.0 (20140111.2315)
 -->
<!-- Title: /home/sqeaky/Code/Mezzanine/UnitTests/src/testenumerations.cpp Pages: 1 -->
<!--zoomable 208 -->
<svg id="main" version="1.1" xmlns="http://www.w3.org/2000/svg" xmlns:xlink="http://www.w3.org/1999/xlink" xml:space="preserve" onload="init(evt)">
<style type="text/css"><![CDATA[
.edge:hover path { stroke: red; }
.edge:hover polygon { stroke: red; fill: red; }
]]></style>
<script type="text/javascript"><![CDATA[
var edges = document.getElementsByTagName('g');
if (edges && edges.length) {
  for (var i=0;i<edges.length;i++) {
    if (edges[i].id.substr(0,4)=='edge') {
      edges[i].setAttribute('class','edge');
    }
  }
}
]]></script>
        <defs>
                <circle id="rim" cx="0" cy="0" r="7"/>
                <circle id="rim2" cx="0" cy="0" r="3.5"/>
                <g id="zoomPlus">
                        <use xlink:href="#rim" fill="#404040">
                                <set attributeName="fill" to="#808080" begin="zoomplus.mouseover" end="zoomplus.mouseout"/>
                        </use>
                        <path d="M-4,0h8M0,-4v8" fill="none" stroke="white" stroke-width="1.5" pointer-events="none"/>
                </g>
                <g id="zoomMin">
                        <use xlink:href="#rim" fill="#404040">
                                <set attributeName="fill" to="#808080" begin="zoomminus.mouseover" end="zoomminus.mouseout"/>
                        </use>
                        <path d="M-4,0h8" fill="none" stroke="white" stroke-width="1.5" pointer-events="none"/>
                </g>
                <g id="dirArrow">
                        <path fill="none" stroke="white" stroke-width="1.5" d="M0,-3.0v7 M-2.5,-0.5L0,-3.0L2.5,-0.5"/>
                </g>
               <g id="resetDef">
                       <use xlink:href="#rim2" fill="#404040">
                               <set attributeName="fill" to="#808080" begin="reset.mouseover" end="reset.mouseout"/>
                       </use>
               </g>
        </defs>

<script type="text/javascript">
var viewWidth = 1140;
var viewHeight = 208;
var sectionId = 'dynsection-0';
</script>
<script xlink:href="svgpan.js"/>
<svg id="graph" class="graph">
<g id="viewport">
<title>/home/sqeaky/Code/Mezzanine/UnitTests/src/testenumerations.cpp</title>
<polygon fill="white" stroke="none" points="-4,4 -4,-204 1136,-204 1136,4 -4,4"/>
<!-- Node1 -->
<g id="node1" class="node"><title>Node1</title>
<polygon fill="#bfbfbf" stroke="black" points="553,-169 553,-199 729,-199 729,-169 553,-169"/>
<text text-anchor="start" x="561" y="-187" font-family="Helvetica,sans-Serif" font-size="10.00">/home/sqeaky/Code/Mezzanine</text>
<text text-anchor="middle" x="641" y="-176" font-family="Helvetica,sans-Serif" font-size="10.00">/UnitTests/src/testenumerations.cpp</text>
</g>
<!-- Node2 -->
<g id="node2" class="node"><title>Node2</title>
<g id="a_node2"><a xlink:href="datatypes_8h.html" target="_top" xlink:title="All the definitions for datatypes as well as some basic conversion functions are defined here...">
<polygon fill="white" stroke="black" points="568,-56.5 568,-75.5 636,-75.5 636,-56.5 568,-56.5"/>
<text text-anchor="middle" x="602" y="-63.5" font-family="Helvetica,sans-Serif" font-size="10.00">datatypes.h</text>
</a>
</g>
</g>
<!-- Node1&#45;&gt;Node2 -->
<g id="edge1" class="edge"><title>Node1&#45;&gt;Node2</title>
<path fill="none" stroke="midnightblue" d="M616.298,-168.904C603.5,-160.111 589.096,-147.514 582,-132 574.886,-116.448 582.225,-97.6866 589.939,-84.3259"/>
<polygon fill="midnightblue" stroke="midnightblue" points="593.025,-85.9951 595.421,-75.6748 587.112,-82.2482 593.025,-85.9951"/>
</g>
<!-- Node20 -->
<g id="node20" class="node"><title>Node20</title>
<g id="a_node20"><a xlink:href="testenumerations_8h.html" target="_top" xlink:title="Enumerations and constant values associated with the Unit tests. ">
<polygon fill="white" stroke="black" points="591,-112.5 591,-131.5 691,-131.5 691,-112.5 591,-112.5"/>
<text text-anchor="middle" x="641" y="-119.5" font-family="Helvetica,sans-Serif" font-size="10.00">testenumerations.h</text>
</a>
</g>
</g>
<!-- Node1&#45;&gt;Node20 -->
<g id="edge19" class="edge"><title>Node1&#45;&gt;Node20</title>
<path fill="none" stroke="midnightblue" d="M641,-168.781C641,-160.781 641,-150.689 641,-142.017"/>
<polygon fill="midnightblue" stroke="midnightblue" points="644.5,-141.73 641,-131.731 637.5,-141.731 644.5,-141.73"/>
</g>
<!-- Node21 -->
<g id="node21" class="node"><title>Node21</title>
<polygon fill="white" stroke="#bfbfbf" points="709.5,-112.5 709.5,-131.5 768.5,-131.5 768.5,-112.5 709.5,-112.5"/>
<text text-anchor="middle" x="739" y="-119.5" font-family="Helvetica,sans-Serif" font-size="10.00">stdexcept</text>
</g>
<!-- Node1&#45;&gt;Node21 -->
<g id="edge21" class="edge"><title>Node1&#45;&gt;Node21</title>
<path fill="none" stroke="midnightblue" d="M664.225,-168.781C680.028,-159.105 700.832,-146.368 716.483,-136.786"/>
<polygon fill="midnightblue" stroke="midnightblue" points="718.325,-139.762 725.026,-131.556 714.67,-133.792 718.325,-139.762"/>
</g>
<!-- Node3 -->
<g id="node3" class="node"><title>Node3</title>
<g id="a_node3"><a xlink:href="crossplatformexport_8h.html" target="_top" xlink:title="This file is used on some platforms to determine what data should be read and written to and from a s...">
<polygon fill="white" stroke="black" points="-0.5,-0.5 -0.5,-19.5 110.5,-19.5 110.5,-0.5 -0.5,-0.5"/>
<text text-anchor="middle" x="55" y="-7.5" font-family="Helvetica,sans-Serif" font-size="10.00">crossplatformexport.h</text>
</a>
</g>
</g>
<!-- Node2&#45;&gt;Node3 -->
<g id="edge2" class="edge"><title>Node2&#45;&gt;Node3</title>
<path fill="none" stroke="midnightblue" d="M567.979,-62.3813C490.504,-56.2997 294.777,-40.2694 120.927,-20.182"/>
<polygon fill="midnightblue" stroke="midnightblue" points="121.165,-16.6862 110.828,-19.0076 120.357,-23.6394 121.165,-16.6862"/>
</g>
<!-- Node4 -->
<g id="node4" class="node"><title>Node4</title>
<polygon fill="white" stroke="#bfbfbf" points="128.5,-0.5 128.5,-19.5 177.5,-19.5 177.5,-0.5 128.5,-0.5"/>
<text text-anchor="middle" x="153" y="-7.5" font-family="Helvetica,sans-Serif" font-size="10.00">stdint.h</text>
</g>
<!-- Node2&#45;&gt;Node4 -->
<g id="edge3" class="edge"><title>Node2&#45;&gt;Node4</title>
<path fill="none" stroke="midnightblue" d="M567.759,-63.1381C497.9,-58.9455 333.845,-47.0873 187.805,-20.0923"/>
<polygon fill="midnightblue" stroke="midnightblue" points="188.242,-16.6133 177.768,-18.2074 186.95,-23.4931 188.242,-16.6133"/>
</g>
<!-- Node5 -->
<g id="node5" class="node"><title>Node5</title>
<polygon fill="white" stroke="#bfbfbf" points="195.5,-0.5 195.5,-19.5 244.5,-19.5 244.5,-0.5 195.5,-0.5"/>
<text text-anchor="middle" x="220" y="-7.5" font-family="Helvetica,sans-Serif" font-size="10.00">cstddef</text>
</g>
<!-- Node2&#45;&gt;Node5 -->
<g id="edge4" class="edge"><title>Node2&#45;&gt;Node5</title>
<path fill="none" stroke="midnightblue" d="M567.679,-62.0567C506.693,-56.5049 375.324,-43.0972 254.922,-19.9389"/>
<polygon fill="midnightblue" stroke="midnightblue" points="255.281,-16.4429 244.796,-17.9626 253.94,-23.3133 255.281,-16.4429"/>
</g>
<!-- Node6 -->
<g id="node6" class="node"><title>Node6</title>
<polygon fill="white" stroke="#bfbfbf" points="263,-0.5 263,-19.5 319,-19.5 319,-0.5 263,-0.5"/>
<text text-anchor="middle" x="291" y="-7.5" font-family="Helvetica,sans-Serif" font-size="10.00">algorithm</text>
</g>
<!-- Node2&#45;&gt;Node6 -->
<g id="edge5" class="edge"><title>Node2&#45;&gt;Node6</title>
<path fill="none" stroke="midnightblue" d="M567.675,-60.2165C517.461,-53.0333 420.842,-38.5103 329.225,-20.1256"/>
<polygon fill="midnightblue" stroke="midnightblue" points="329.728,-16.6566 319.232,-18.1008 328.338,-23.5172 329.728,-16.6566"/>
</g>
<!-- Node7 -->
<g id="node7" class="node"><title>Node7</title>
<polygon fill="white" stroke="#bfbfbf" points="337.5,-0.5 337.5,-19.5 396.5,-19.5 396.5,-0.5 337.5,-0.5"/>
<text text-anchor="middle" x="367" y="-7.5" font-family="Helvetica,sans-Serif" font-size="10.00">exception</text>
</g>
<!-- Node2&#45;&gt;Node7 -->
<g id="edge6" class="edge"><title>Node2&#45;&gt;Node7</title>
<path fill="none" stroke="midnightblue" d="M567.816,-57.2784C530.507,-48.8318 468.742,-34.7929 406.804,-20.408"/>
<polygon fill="midnightblue" stroke="midnightblue" points="407.398,-16.9529 396.865,-18.0972 405.813,-23.771 407.398,-16.9529"/>
</g>
<!-- Node8 -->
<g id="node8" class="node"><title>Node8</title>
<polygon fill="white" stroke="#bfbfbf" points="414.5,-0.5 414.5,-19.5 463.5,-19.5 463.5,-0.5 414.5,-0.5"/>
<text text-anchor="middle" x="439" y="-7.5" font-family="Helvetica,sans-Serif" font-size="10.00">istream</text>
</g>
<!-- Node2&#45;&gt;Node8 -->
<g id="edge7" class="edge"><title>Node2&#45;&gt;Node8</title>
<path fill="none" stroke="midnightblue" d="M576.172,-56.4435C548.428,-47.2522 504.196,-32.5987 473.491,-22.4265"/>
<polygon fill="midnightblue" stroke="midnightblue" points="474.233,-18.9854 463.64,-19.1629 472.032,-25.6302 474.233,-18.9854"/>
</g>
<!-- Node9 -->
<g id="node9" class="node"><title>Node9</title>
<polygon fill="white" stroke="#bfbfbf" points="481.5,-0.5 481.5,-19.5 510.5,-19.5 510.5,-0.5 481.5,-0.5"/>
<text text-anchor="middle" x="496" y="-7.5" font-family="Helvetica,sans-Serif" font-size="10.00">list</text>
</g>
<!-- Node2&#45;&gt;Node9 -->
<g id="edge8" class="edge"><title>Node2&#45;&gt;Node9</title>
<path fill="none" stroke="midnightblue" d="M584.969,-56.324C567.266,-47.3054 539.425,-33.1223 519.606,-23.0255"/>
<polygon fill="midnightblue" stroke="midnightblue" points="521.099,-19.8583 510.6,-18.4376 517.921,-26.0956 521.099,-19.8583"/>
</g>
<!-- Node10 -->
<g id="node10" class="node"><title>Node10</title>
<polygon fill="white" stroke="#bfbfbf" points="528.5,-0.5 528.5,-19.5 563.5,-19.5 563.5,-0.5 528.5,-0.5"/>
<text text-anchor="middle" x="546" y="-7.5" font-family="Helvetica,sans-Serif" font-size="10.00">map</text>
</g>
<!-- Node2&#45;&gt;Node10 -->
<g id="edge9" class="edge"><title>Node2&#45;&gt;Node10</title>
<path fill="none" stroke="midnightblue" d="M593.003,-56.324C584.806,-48.4196 572.494,-36.5482 562.528,-26.9377"/>
<polygon fill="midnightblue" stroke="midnightblue" points="564.789,-24.2558 555.161,-19.8339 559.93,-29.2947 564.789,-24.2558"/>
</g>
<!-- Node11 -->
<g id="node11" class="node"><title>Node11</title>
<polygon fill="white" stroke="#bfbfbf" points="581.5,-0.5 581.5,-19.5 622.5,-19.5 622.5,-0.5 581.5,-0.5"/>
<text text-anchor="middle" x="602" y="-7.5" font-family="Helvetica,sans-Serif" font-size="10.00">string</text>
</g>
<!-- Node2&#45;&gt;Node11 -->
<g id="edge10" class="edge"><title>Node2&#45;&gt;Node11</title>
<path fill="none" stroke="midnightblue" d="M602,-56.083C602,-49.0059 602,-38.8611 602,-29.9865"/>
<polygon fill="midnightblue" stroke="midnightblue" points="605.5,-29.751 602,-19.7511 598.5,-29.7511 605.5,-29.751"/>
</g>
<!-- Node12 -->
<g id="node12" class="node"><title>Node12</title>
<polygon fill="white" stroke="#bfbfbf" points="641,-0.5 641,-19.5 693,-19.5 693,-0.5 641,-0.5"/>
<text text-anchor="middle" x="667" y="-7.5" font-family="Helvetica,sans-Serif" font-size="10.00">sstream</text>
</g>
<!-- Node2&#45;&gt;Node12 -->
<g id="edge11" class="edge"><title>Node2&#45;&gt;Node12</title>
<path fill="none" stroke="midnightblue" d="M612.443,-56.324C622.146,-48.2631 636.815,-36.0765 648.5,-26.3695"/>
<polygon fill="midnightblue" stroke="midnightblue" points="650.911,-28.9163 656.367,-19.8339 646.438,-23.532 650.911,-28.9163"/>
</g>
<!-- Node13 -->
<g id="node13" class="node"><title>Node13</title>
<polygon fill="white" stroke="#bfbfbf" points="711,-0.5 711,-19.5 761,-19.5 761,-0.5 711,-0.5"/>
<text text-anchor="middle" x="736" y="-7.5" font-family="Helvetica,sans-Serif" font-size="10.00">fstream</text>
</g>
<!-- Node2&#45;&gt;Node13 -->
<g id="edge12" class="edge"><title>Node2&#45;&gt;Node13</title>
<path fill="none" stroke="midnightblue" d="M623.233,-56.4435C645.384,-47.5171 680.319,-33.4387 705.436,-23.3168"/>
<polygon fill="midnightblue" stroke="midnightblue" points="706.9,-26.5006 714.867,-19.5164 704.283,-20.0079 706.9,-26.5006"/>
</g>
<!-- Node14 -->
<g id="node14" class="node"><title>Node14</title>
<polygon fill="white" stroke="#bfbfbf" points="779,-0.5 779,-19.5 809,-19.5 809,-0.5 779,-0.5"/>
<text text-anchor="middle" x="794" y="-7.5" font-family="Helvetica,sans-Serif" font-size="10.00">set</text>
</g>
<!-- Node2&#45;&gt;Node14 -->
<g id="edge13" class="edge"><title>Node2&#45;&gt;Node14</title>
<path fill="none" stroke="midnightblue" d="M636.068,-56.9056C668.209,-49.0425 717.887,-36.3072 769.238,-20.0198"/>
<polygon fill="midnightblue" stroke="midnightblue" points="770.39,-23.326 778.843,-16.9377 768.251,-16.6608 770.39,-23.326"/>
</g>
<!-- Node15 -->
<g id="node15" class="node"><title>Node15</title>
<polygon fill="white" stroke="#bfbfbf" points="827,-0.5 827,-19.5 871,-19.5 871,-0.5 827,-0.5"/>
<text text-anchor="middle" x="849" y="-7.5" font-family="Helvetica,sans-Serif" font-size="10.00">vector</text>
</g>
<!-- Node2&#45;&gt;Node15 -->
<g id="edge14" class="edge"><title>Node2&#45;&gt;Node15</title>
<path fill="none" stroke="midnightblue" d="M636.047,-58.6146C676.663,-50.8349 746.812,-36.8875 816.8,-19.9046"/>
<polygon fill="midnightblue" stroke="midnightblue" points="817.79,-23.2656 826.672,-17.4884 816.126,-16.4663 817.79,-23.2656"/>
</g>
<!-- Node16 -->
<g id="node16" class="node"><title>Node16</title>
<polygon fill="white" stroke="#bfbfbf" points="889,-0.5 889,-19.5 929,-19.5 929,-0.5 889,-0.5"/>
<text text-anchor="middle" x="909" y="-7.5" font-family="Helvetica,sans-Serif" font-size="10.00">utility</text>
</g>
<!-- Node2&#45;&gt;Node16 -->
<g id="edge15" class="edge"><title>Node2&#45;&gt;Node16</title>
<path fill="none" stroke="midnightblue" d="M636.394,-60.8798C689.038,-54.2442 792.588,-39.8915 879,-20 879.099,-19.9771 879.199,-19.9541 879.299,-19.9309"/>
<polygon fill="midnightblue" stroke="midnightblue" points="879.97,-23.373 888.763,-17.4615 878.203,-16.5997 879.97,-23.373"/>
</g>
<!-- Node17 -->
<g id="node17" class="node"><title>Node17</title>
<polygon fill="white" stroke="#bfbfbf" points="947,-0.5 947,-19.5 999,-19.5 999,-0.5 947,-0.5"/>
<text text-anchor="middle" x="973" y="-7.5" font-family="Helvetica,sans-Serif" font-size="10.00">memory</text>
</g>
<!-- Node2&#45;&gt;Node17 -->
<g id="edge16" class="edge"><title>Node2&#45;&gt;Node17</title>
<path fill="none" stroke="midnightblue" d="M636.078,-61.7854C695.291,-55.9091 821.137,-42.1369 936.632,-20.0692"/>
<polygon fill="midnightblue" stroke="midnightblue" points="937.551,-23.4565 946.703,-18.1185 936.22,-16.5842 937.551,-23.4565"/>
</g>
<!-- Node18 -->
<g id="node18" class="node"><title>Node18</title>
<polygon fill="white" stroke="#bfbfbf" points="1017,-0.5 1017,-19.5 1069,-19.5 1069,-0.5 1017,-0.5"/>
<text text-anchor="middle" x="1043" y="-7.5" font-family="Helvetica,sans-Serif" font-size="10.00">ostream</text>
</g>
<!-- Node2&#45;&gt;Node18 -->
<g id="edge17" class="edge"><title>Node2&#45;&gt;Node18</title>
<path fill="none" stroke="midnightblue" d="M636.189,-62.849C704.697,-58.188 863.76,-45.6036 1006.47,-20.0463"/>
<polygon fill="midnightblue" stroke="midnightblue" points="1007.5,-23.416 1016.72,-18.1836 1006.25,-16.5289 1007.5,-23.416"/>
</g>
<!-- Node19 -->
<g id="node19" class="node"><title>Node19</title>
<g id="a_node19"><a xlink:href="swig_8h.html" target="_top" xlink:title="Used to give commands specifically to the SWIG preprocessor. ">
<polygon fill="white" stroke="black" points="1087.5,-0.5 1087.5,-19.5 1132.5,-19.5 1132.5,-0.5 1087.5,-0.5"/>
<text text-anchor="middle" x="1110" y="-7.5" font-family="Helvetica,sans-Serif" font-size="10.00">swig.h</text>
</a>
</g>
</g>
<!-- Node2&#45;&gt;Node19 -->
<g id="edge18" class="edge"><title>Node2&#45;&gt;Node19</title>
<path fill="none" stroke="midnightblue" d="M636.053,-63.8818C713.084,-60.9051 906.624,-50.9139 1077.47,-19.7408"/>
<polygon fill="midnightblue" stroke="midnightblue" points="1078.2,-23.1655 1087.39,-17.9013 1076.92,-16.2828 1078.2,-23.1655"/>
</g>
<!-- Node20&#45;&gt;Node2 -->
<g id="edge20" class="edge"><title>Node20&#45;&gt;Node2</title>
<path fill="none" stroke="midnightblue" d="M634.56,-112.083C629.051,-104.455 620.969,-93.2645 614.235,-83.9408"/>
<polygon fill="midnightblue" stroke="midnightblue" points="617.013,-81.8087 608.32,-75.7511 611.338,-85.9071 617.013,-81.8087"/>
</g>
</g>
</svg>
        <g id="navigator" transform="translate(0 0)" fill="#404254">
                <rect fill="#f2f5e9" fill-opacity="0.5" stroke="#606060" stroke-width=".5" x="0" y="0" width="60" height="60"/>
                <use id="zoomplus" xlink:href="#zoomPlus" x="17" y="9" onmousedown="handleZoom(evt,'in')"/>
                <use id="zoomminus" xlink:href="#zoomMin" x="42" y="9" onmousedown="handleZoom(evt,'out')"/>
                <use id="reset" xlink:href="#resetDef" x="30" y="36" onmousedown="handleReset()"/>
                <g id="arrowUp" xlink:href="#dirArrow" transform="translate(30 24)" onmousedown="handlePan(0,-1)">
                  <use xlink:href="#rim" fill="#404040">
                        <set attributeName="fill" to="#808080" begin="arrowUp.mouseover" end="arrowUp.mouseout"/>
                  </use>
                  <path fill="none" stroke="white" stroke-width="1.5" d="M0,-3.0v7 M-2.5,-0.5L0,-3.0L2.5,-0.5"/>
                </g>
                <g id="arrowRight" xlink:href="#dirArrow" transform="rotate(90) translate(36 -43)" onmousedown="handlePan(1,0)">
                  <use xlink:href="#rim" fill="#404040">
                        <set attributeName="fill" to="#808080" begin="arrowRight.mouseover" end="arrowRight.mouseout"/>
                  </use>
                  <path fill="none" stroke="white" stroke-width="1.5" d="M0,-3.0v7 M-2.5,-0.5L0,-3.0L2.5,-0.5"/>
                </g>
                <g id="arrowDown" xlink:href="#dirArrow" transform="rotate(180) translate(-30 -48)" onmousedown="handlePan(0,1)">
                  <use xlink:href="#rim" fill="#404040">
                        <set attributeName="fill" to="#808080" begin="arrowDown.mouseover" end="arrowDown.mouseout"/>
                  </use>
                  <path fill="none" stroke="white" stroke-width="1.5" d="M0,-3.0v7 M-2.5,-0.5L0,-3.0L2.5,-0.5"/>
                </g>
                <g id="arrowLeft" xlink:href="#dirArrow" transform="rotate(270) translate(-36 17)" onmousedown="handlePan(-1,0)">
                  <use xlink:href="#rim" fill="#404040">
                        <set attributeName="fill" to="#808080" begin="arrowLeft.mouseover" end="arrowLeft.mouseout"/>
                  </use>
                  <path fill="none" stroke="white" stroke-width="1.5" d="M0,-3.0v7 M-2.5,-0.5L0,-3.0L2.5,-0.5"/>
                </g>
        </g>
        <svg viewBox="0 0 15 15" width="100%" height="30px" preserveAspectRatio="xMaxYMin meet">
         <g id="arrow_out" transform="scale(0.3 0.3)">
          <a xlink:href="testenumerations_8cpp__incl_org.svg" target="_base">
           <rect id="button" ry="5" rx="5" y="6" x="6" height="38" width="38"
                fill="#f2f5e9" fill-opacity="0.5" stroke="#606060" stroke-width="1.0"/>
           <path id="arrow"
             d="M 11.500037,31.436501 C 11.940474,20.09759 22.043105,11.32322 32.158766,21.979434 L 37.068811,17.246167 C 37.068811,17.246167 37.088388,32 37.088388,32 L 22.160133,31.978069 C 22.160133,31.978069 26.997745,27.140456 26.997745,27.140456 C 18.528582,18.264221 13.291696,25.230495 11.500037,31.436501 z"
             style="fill:#404040;"/>
          </a>
         </g>
        </svg>
</svg>
