<?xml version="1.0" encoding="UTF-8" standalone="no"?>
<!DOCTYPE svg PUBLIC "-//W3C//DTD SVG 1.1//EN"
 "http://www.w3.org/Graphics/SVG/1.1/DTD/svg11.dtd">
<!-- Generated by graphviz version 2.36.0 (20140111.2315)
 -->
<!-- Title: /home/sqeaky/Code/Mezzanine/UnitTests/src/dagframescheduler.h Pages: 1 -->
<svg width="1299pt" height="600pt"
 viewBox="0.00 0.00 1299.00 600.00" xmlns="http://www.w3.org/2000/svg" xmlns:xlink="http://www.w3.org/1999/xlink">
<g id="graph0" class="graph" transform="scale(1 1) rotate(0) translate(4 596)">
<title>/home/sqeaky/Code/Mezzanine/UnitTests/src/dagframescheduler.h</title>
<polygon fill="white" stroke="none" points="-4,4 -4,-596 1295,-596 1295,4 -4,4"/>
<!-- Node1 -->
<g id="node1" class="node"><title>Node1</title>
<polygon fill="#bfbfbf" stroke="black" points="682.5,-561 682.5,-591 855.5,-591 855.5,-561 682.5,-561"/>
<text text-anchor="start" x="690.5" y="-579" font-family="Helvetica,sans-Serif" font-size="10.00">/home/sqeaky/Code/Mezzanine</text>
<text text-anchor="middle" x="769" y="-568" font-family="Helvetica,sans-Serif" font-size="10.00">/UnitTests/src/dagframescheduler.h</text>
</g>
<!-- Node2 -->
<g id="node2" class="node"><title>Node2</title>
<g id="a_node2"><a xlink:href="Mezzanine_2src_2Threading_2dagframescheduler_8h.html" target="_top" xlink:title="This is the file that code using this library should include. It includes all the required components...">
<polygon fill="white" stroke="black" points="692.5,-504.5 692.5,-523.5 845.5,-523.5 845.5,-504.5 692.5,-504.5"/>
<text text-anchor="middle" x="769" y="-511.5" font-family="Helvetica,sans-Serif" font-size="10.00">Threading/dagframescheduler.h</text>
</a>
</g>
</g>
<!-- Node1&#45;&gt;Node2 -->
<g id="edge1" class="edge"><title>Node1&#45;&gt;Node2</title>
<path fill="none" stroke="midnightblue" d="M769,-560.781C769,-552.781 769,-542.689 769,-534.017"/>
<polygon fill="midnightblue" stroke="midnightblue" points="772.5,-533.73 769,-523.731 765.5,-533.731 772.5,-533.73"/>
</g>
<!-- Node3 -->
<g id="node3" class="node"><title>Node3</title>
<g id="a_node3"><a xlink:href="datatypes_8h.html" target="_top" xlink:title="All the definitions for datatypes as well as some basic conversion functions are defined here...">
<polygon fill="white" stroke="black" points="621,-56.5 621,-75.5 689,-75.5 689,-56.5 621,-56.5"/>
<text text-anchor="middle" x="655" y="-63.5" font-family="Helvetica,sans-Serif" font-size="10.00">datatypes.h</text>
</a>
</g>
</g>
<!-- Node2&#45;&gt;Node3 -->
<g id="edge2" class="edge"><title>Node2&#45;&gt;Node3</title>
<path fill="none" stroke="midnightblue" d="M845.728,-512.639C954.652,-510.873 1147.51,-502.748 1207,-468 1237.56,-450.15 1253,-438.391 1253,-403 1253,-403 1253,-403 1253,-177 1253,-93.1966 1157.61,-131.041 1076,-112 941.143,-80.5361 776.778,-71.0111 699.366,-68.1745"/>
<polygon fill="midnightblue" stroke="midnightblue" points="699.147,-64.665 689.032,-67.8171 698.905,-71.6608 699.147,-64.665"/>
</g>
<!-- Node4 -->
<g id="node4" class="node"><title>Node4</title>
<g id="a_node4"><a xlink:href="crossplatformexport_8h.html" target="_top" xlink:title="This file is used on some platforms to determine what data should be read and written to and from a s...">
<polygon fill="white" stroke="black" points="-0.5,-0.5 -0.5,-19.5 110.5,-19.5 110.5,-0.5 -0.5,-0.5"/>
<text text-anchor="middle" x="55" y="-7.5" font-family="Helvetica,sans-Serif" font-size="10.00">crossplatformexport.h</text>
</a>
</g>
</g>
<!-- Node2&#45;&gt;Node4 -->
<g id="edge55" class="edge"><title>Node2&#45;&gt;Node4</title>
<path fill="none" stroke="midnightblue" d="M692.288,-511.147C521.592,-506.586 120.972,-493.306 65,-468 27.773,-451.169 0,-443.855 0,-403 0,-403 0,-403 0,-121 0,-84.5693 24.4325,-47.836 40.7288,-27.387"/>
<polygon fill="midnightblue" stroke="midnightblue" points="43.438,-29.603 47.1198,-19.6684 38.0463,-25.1386 43.438,-29.603"/>
</g>
<!-- Node20 -->
<g id="node20" class="node"><title>Node20</title>
<g id="a_node20"><a xlink:href="swig_8h.html" target="_top" xlink:title="Used to give commands specifically to the SWIG preprocessor. ">
<polygon fill="white" stroke="black" points="1204.5,-0.5 1204.5,-19.5 1249.5,-19.5 1249.5,-0.5 1204.5,-0.5"/>
<text text-anchor="middle" x="1227" y="-7.5" font-family="Helvetica,sans-Serif" font-size="10.00">swig.h</text>
</a>
</g>
</g>
<!-- Node2&#45;&gt;Node20 -->
<g id="edge20" class="edge"><title>Node2&#45;&gt;Node20</title>
<path fill="none" stroke="midnightblue" d="M845.627,-512.534C960.28,-510.687 1170.06,-502.521 1236,-468 1269.53,-450.448 1291,-440.843 1291,-403 1291,-403 1291,-403 1291,-121 1291,-83.3274 1262.61,-47.0403 1243.65,-27.0052"/>
<polygon fill="midnightblue" stroke="midnightblue" points="1245.95,-24.3599 1236.44,-19.6885 1240.96,-29.2705 1245.95,-24.3599"/>
</g>
<!-- Node21 -->
<g id="node21" class="node"><title>Node21</title>
<g id="a_node21"><a xlink:href="asynchronousfileloadingworkunit_8h.html" target="_top" xlink:title="The declaration of the AsynchronousFileLoadWorkUnit a workunit that loads a listing of files asynchro...">
<polygon fill="white" stroke="black" points="433,-448.5 433,-467.5 599,-467.5 599,-448.5 433,-448.5"/>
<text text-anchor="middle" x="516" y="-455.5" font-family="Helvetica,sans-Serif" font-size="10.00">asynchronousfileloadingworkunit.h</text>
</a>
</g>
</g>
<!-- Node2&#45;&gt;Node21 -->
<g id="edge21" class="edge"><title>Node2&#45;&gt;Node21</title>
<path fill="none" stroke="midnightblue" d="M728.911,-504.444C684.684,-495.004 613.461,-479.802 565.715,-469.611"/>
<polygon fill="midnightblue" stroke="midnightblue" points="566.411,-466.181 555.901,-467.516 564.95,-473.027 566.411,-466.181"/>
</g>
<!-- Node22 -->
<g id="node22" class="node"><title>Node22</title>
<g id="a_node22"><a xlink:href="asynchronousworkunit_8h.html" target="_top" xlink:title="Contains an interface for a kind of WorkUnit that loads or does other work even when the frame schedu...">
<polygon fill="white" stroke="black" points="429,-392.5 429,-411.5 551,-411.5 551,-392.5 429,-392.5"/>
<text text-anchor="middle" x="490" y="-399.5" font-family="Helvetica,sans-Serif" font-size="10.00">asynchronousworkunit.h</text>
</a>
</g>
</g>
<!-- Node2&#45;&gt;Node22 -->
<g id="edge50" class="edge"><title>Node2&#45;&gt;Node22</title>
<path fill="none" stroke="midnightblue" d="M748.21,-504.457C717.584,-491.905 658.507,-467.824 608,-448 579.248,-436.715 546.407,-424.223 522.684,-415.27"/>
<polygon fill="midnightblue" stroke="midnightblue" points="523.706,-411.915 513.114,-411.663 521.237,-418.465 523.706,-411.915"/>
</g>
<!-- Node23 -->
<g id="node23" class="node"><title>Node23</title>
<g id="a_node23"><a xlink:href="doublebufferedresource_8h.html" target="_top" xlink:title="This file defines the template double buffered resources that can be attached to a thread...">
<polygon fill="white" stroke="black" points="28,-224.5 28,-243.5 154,-243.5 154,-224.5 28,-224.5"/>
<text text-anchor="middle" x="91" y="-231.5" font-family="Helvetica,sans-Serif" font-size="10.00">doublebufferedresource.h</text>
</a>
</g>
</g>
<!-- Node2&#45;&gt;Node23 -->
<g id="edge56" class="edge"><title>Node2&#45;&gt;Node23</title>
<path fill="none" stroke="midnightblue" d="M692.411,-512.358C547.304,-510.353 237.819,-502.086 137,-468 87.1366,-451.141 38,-455.636 38,-403 38,-403 38,-403 38,-345 38,-308.992 61.3343,-272.339 77.037,-251.75"/>
<polygon fill="midnightblue" stroke="midnightblue" points="79.9345,-253.729 83.4064,-243.719 74.4501,-249.379 79.9345,-253.729"/>
</g>
<!-- Node24 -->
<g id="node24" class="node"><title>Node24</title>
<g id="a_node24"><a xlink:href="workunit_8h.html" target="_top" xlink:title="This file has the definition of the workunit. ">
<polygon fill="white" stroke="black" points="400,-336.5 400,-355.5 462,-355.5 462,-336.5 400,-336.5"/>
<text text-anchor="middle" x="431" y="-343.5" font-family="Helvetica,sans-Serif" font-size="10.00">workunit.h</text>
</a>
</g>
</g>
<!-- Node2&#45;&gt;Node24 -->
<g id="edge81" class="edge"><title>Node2&#45;&gt;Node24</title>
<path fill="none" stroke="midnightblue" d="M692.27,-513.84C601.881,-513.048 459.488,-505.624 424,-468 397.986,-440.42 412.057,-391.725 422.675,-365.299"/>
<polygon fill="midnightblue" stroke="midnightblue" points="426.041,-366.328 426.753,-355.757 419.604,-363.577 426.041,-366.328"/>
</g>
<!-- Node25 -->
<g id="node25" class="node"><title>Node25</title>
<g id="a_node25"><a xlink:href="framescheduler_8h.html" target="_top" xlink:title="This file has the Declarations for the main FrameScheduler class. ">
<polygon fill="white" stroke="black" points="256,-280.5 256,-299.5 348,-299.5 348,-280.5 256,-280.5"/>
<text text-anchor="middle" x="302" y="-287.5" font-family="Helvetica,sans-Serif" font-size="10.00">framescheduler.h</text>
</a>
</g>
</g>
<!-- Node2&#45;&gt;Node25 -->
<g id="edge57" class="edge"><title>Node2&#45;&gt;Node25</title>
<path fill="none" stroke="midnightblue" d="M692.429,-510.52C571.121,-505.832 345.778,-493.74 320,-468 277.597,-425.659 289.125,-345.841 297.195,-309.664"/>
<polygon fill="midnightblue" stroke="midnightblue" points="300.691,-310.096 299.621,-299.555 293.884,-308.462 300.691,-310.096"/>
</g>
<!-- Node26 -->
<g id="node26" class="node"><title>Node26</title>
<g id="a_node26"><a xlink:href="thread_8h.html" target="_top" xlink:title="This file defines a minimalistic cross&#45;platform thread that the scheduler uses to schedule tasks...">
<polygon fill="white" stroke="black" points="663,-224.5 663,-243.5 715,-243.5 715,-224.5 663,-224.5"/>
<text text-anchor="middle" x="689" y="-231.5" font-family="Helvetica,sans-Serif" font-size="10.00">thread.h</text>
</a>
</g>
</g>
<!-- Node2&#45;&gt;Node26 -->
<g id="edge79" class="edge"><title>Node2&#45;&gt;Node26</title>
<path fill="none" stroke="midnightblue" d="M768.969,-504.483C768.546,-473.036 764.281,-361.092 726,-280 720.948,-269.299 712.786,-258.98 705.411,-250.929"/>
<polygon fill="midnightblue" stroke="midnightblue" points="707.904,-248.472 698.443,-243.703 702.866,-253.331 707.904,-248.472"/>
</g>
<!-- Node27 -->
<g id="node27" class="node"><title>Node27</title>
<g id="a_node27"><a xlink:href="systemcalls_8h.html" target="_top" xlink:title="This file defines a minimalistic cross&#45;platform thread that the scheduler uses to schedule tasks...">
<polygon fill="white" stroke="black" points="650.5,-168.5 650.5,-187.5 727.5,-187.5 727.5,-168.5 650.5,-168.5"/>
<text text-anchor="middle" x="689" y="-175.5" font-family="Helvetica,sans-Serif" font-size="10.00">systemcalls.h</text>
</a>
</g>
</g>
<!-- Node2&#45;&gt;Node27 -->
<g id="edge78" class="edge"><title>Node2&#45;&gt;Node27</title>
<path fill="none" stroke="midnightblue" d="M783.621,-504.482C809.344,-488.272 860,-450.339 860,-403 860,-403 860,-403 860,-345 860,-267.615 768.727,-214.699 719.547,-191.804"/>
<polygon fill="midnightblue" stroke="midnightblue" points="720.865,-188.559 710.312,-187.626 717.98,-194.937 720.865,-188.559"/>
</g>
<!-- Node28 -->
<g id="node28" class="node"><title>Node28</title>
<g id="a_node28"><a xlink:href="mutex_8h.html" target="_top" xlink:title="This file declares and defines a mutex that is a partial implementation. ">
<polygon fill="white" stroke="black" points="784,-168.5 784,-187.5 836,-187.5 836,-168.5 784,-168.5"/>
<text text-anchor="middle" x="810" y="-175.5" font-family="Helvetica,sans-Serif" font-size="10.00">mutex.h</text>
</a>
</g>
</g>
<!-- Node2&#45;&gt;Node28 -->
<g id="edge71" class="edge"><title>Node2&#45;&gt;Node28</title>
<path fill="none" stroke="midnightblue" d="M807.874,-504.458C829.854,-497.829 856.378,-486.548 874,-468 895.211,-445.674 898,-433.795 898,-403 898,-403 898,-403 898,-345 898,-284.105 851.201,-223.746 825.86,-195.525"/>
<polygon fill="midnightblue" stroke="midnightblue" points="828.114,-192.808 818.759,-187.834 822.971,-197.556 828.114,-192.808"/>
</g>
<!-- Node29 -->
<g id="node29" class="node"><title>Node29</title>
<g id="a_node29"><a xlink:href="atomicoperations_8h.html" target="_top" xlink:title="Simple thread safe ways to check and change a specified variable atomically. ">
<polygon fill="white" stroke="black" points="894.5,-112.5 894.5,-131.5 993.5,-131.5 993.5,-112.5 894.5,-112.5"/>
<text text-anchor="middle" x="944" y="-119.5" font-family="Helvetica,sans-Serif" font-size="10.00">atomicoperations.h</text>
</a>
</g>
</g>
<!-- Node2&#45;&gt;Node29 -->
<g id="edge51" class="edge"><title>Node2&#45;&gt;Node29</title>
<path fill="none" stroke="midnightblue" d="M838.976,-504.491C898.363,-492.899 974,-465.807 974,-403 974,-403 974,-403 974,-233 974,-199.64 960.999,-162.532 952.114,-141.067"/>
<polygon fill="midnightblue" stroke="midnightblue" points="955.216,-139.421 948.046,-131.621 948.787,-142.19 955.216,-139.421"/>
</g>
<!-- Node30 -->
<g id="node30" class="node"><title>Node30</title>
<g id="a_node30"><a xlink:href="workunitkey_8h.html" target="_top" xlink:title="This file defines the metadata used to sort workunits. ">
<polygon fill="white" stroke="black" points="390.5,-224.5 390.5,-243.5 467.5,-243.5 467.5,-224.5 390.5,-224.5"/>
<text text-anchor="middle" x="429" y="-231.5" font-family="Helvetica,sans-Serif" font-size="10.00">workunitkey.h</text>
</a>
</g>
</g>
<!-- Node2&#45;&gt;Node30 -->
<g id="edge82" class="edge"><title>Node2&#45;&gt;Node30</title>
<path fill="none" stroke="midnightblue" d="M692.371,-513.811C598.82,-513.091 448.194,-505.845 409,-468 349.389,-410.439 397.543,-296.557 419.518,-252.748"/>
<polygon fill="midnightblue" stroke="midnightblue" points="422.636,-254.338 424.113,-243.846 416.416,-251.127 422.636,-254.338"/>
</g>
<!-- Node31 -->
<g id="node31" class="node"><title>Node31</title>
<g id="a_node31"><a xlink:href="spinlock_8h.html" target="_top" xlink:title="Declares a Mutex, Mutex tools, and at least one MutexLike object. ">
<polygon fill="white" stroke="black" points="1040.5,-224.5 1040.5,-243.5 1101.5,-243.5 1101.5,-224.5 1040.5,-224.5"/>
<text text-anchor="middle" x="1071" y="-231.5" font-family="Helvetica,sans-Serif" font-size="10.00">spinlock.h</text>
</a>
</g>
</g>
<!-- Node2&#45;&gt;Node31 -->
<g id="edge77" class="edge"><title>Node2&#45;&gt;Node31</title>
<path fill="none" stroke="midnightblue" d="M845.811,-507.93C911.37,-502.126 999.173,-490.378 1026,-468 1049.65,-448.274 1050,-433.795 1050,-403 1050,-403 1050,-403 1050,-345 1050,-312.384 1059.02,-275.278 1065.23,-253.573"/>
<polygon fill="midnightblue" stroke="midnightblue" points="1068.67,-254.315 1068.17,-243.732 1061.96,-252.316 1068.67,-254.315"/>
</g>
<!-- Node32 -->
<g id="node32" class="node"><title>Node32</title>
<g id="a_node32"><a xlink:href="rollingaverage_8h.html" target="_top" xlink:title="This stores the implementation and the declaration of the RollingAverage, BufferedRollingAverage, WeightedRollingAverage and the DefaultRollingAverage. ">
<polygon fill="white" stroke="black" points="210.5,-224.5 210.5,-243.5 295.5,-243.5 295.5,-224.5 210.5,-224.5"/>
<text text-anchor="middle" x="253" y="-231.5" font-family="Helvetica,sans-Serif" font-size="10.00">rollingaverage.h</text>
</a>
</g>
</g>
<!-- Node2&#45;&gt;Node32 -->
<g id="edge76" class="edge"><title>Node2&#45;&gt;Node32</title>
<path fill="none" stroke="midnightblue" d="M692.199,-509.801C568.188,-504.059 329.508,-490.461 248,-468 184.186,-450.415 114,-469.192 114,-403 114,-403 114,-403 114,-345 114,-293.575 173.225,-262.416 214.357,-246.978"/>
<polygon fill="midnightblue" stroke="midnightblue" points="215.632,-250.239 223.861,-243.565 213.267,-243.65 215.632,-250.239"/>
</g>
<!-- Node33 -->
<g id="node33" class="node"><title>Node33</title>
<g id="a_node33"><a xlink:href="threadingenumerations_8h.html" target="_top" xlink:title="Any enumerations the threading library requires are all declared here. ">
<polygon fill="white" stroke="black" points="594.5,-280.5 594.5,-299.5 717.5,-299.5 717.5,-280.5 594.5,-280.5"/>
<text text-anchor="middle" x="656" y="-287.5" font-family="Helvetica,sans-Serif" font-size="10.00">threadingenumerations.h</text>
</a>
</g>
</g>
<!-- Node2&#45;&gt;Node33 -->
<g id="edge80" class="edge"><title>Node2&#45;&gt;Node33</title>
<path fill="none" stroke="midnightblue" d="M765.183,-504.397C756.28,-484.444 733.273,-433.545 712,-392 696.756,-362.23 677.6,-328.371 666.104,-308.394"/>
<polygon fill="midnightblue" stroke="midnightblue" points="669.023,-306.45 660.988,-299.543 662.962,-309.953 669.023,-306.45"/>
</g>
<!-- Node34 -->
<g id="node34" class="node"><title>Node34</title>
<g id="a_node34"><a xlink:href="barrier_8h.html" target="_top" xlink:title="The declaration of the Mezzanine::Threading::Barrier Barrier synchronization primitive. ">
<polygon fill="white" stroke="black" points="1002,-168.5 1002,-187.5 1054,-187.5 1054,-168.5 1002,-168.5"/>
<text text-anchor="middle" x="1028" y="-175.5" font-family="Helvetica,sans-Serif" font-size="10.00">barrier.h</text>
</a>
</g>
</g>
<!-- Node2&#45;&gt;Node34 -->
<g id="edge52" class="edge"><title>Node2&#45;&gt;Node34</title>
<path fill="none" stroke="midnightblue" d="M845.622,-505.192C899.929,-498.217 966.767,-486.246 988,-468 1011.36,-447.93 1012,-433.795 1012,-403 1012,-403 1012,-403 1012,-289 1012,-256.626 1018.87,-219.445 1023.61,-197.659"/>
<polygon fill="midnightblue" stroke="midnightblue" points="1027.05,-198.303 1025.84,-187.777 1020.22,-196.759 1027.05,-198.303"/>
</g>
<!-- Node35 -->
<g id="node35" class="node"><title>Node35</title>
<g id="a_node35"><a xlink:href="frameschedulerworkunits_8h.html" target="_top" xlink:title="This defines a number of workunits that are required for doing some tasks that the Framescheduler req...">
<polygon fill="white" stroke="black" points="569,-392.5 569,-411.5 703,-411.5 703,-392.5 569,-392.5"/>
<text text-anchor="middle" x="636" y="-399.5" font-family="Helvetica,sans-Serif" font-size="10.00">frameschedulerworkunits.h</text>
</a>
</g>
</g>
<!-- Node2&#45;&gt;Node35 -->
<g id="edge58" class="edge"><title>Node2&#45;&gt;Node35</title>
<path fill="none" stroke="midnightblue" d="M758.564,-504.368C736.032,-485.733 682.589,-441.532 654.298,-418.134"/>
<polygon fill="midnightblue" stroke="midnightblue" points="656.324,-415.268 646.388,-411.591 651.863,-420.662 656.324,-415.268"/>
</g>
<!-- Node36 -->
<g id="node36" class="node"><title>Node36</title>
<g id="a_node36"><a xlink:href="lockguard_8h.html" target="_top" xlink:title="Declares a tool for automatically unlocking a mutex in an exception safe way. ">
<polygon fill="white" stroke="black" points="1157.5,-392.5 1157.5,-411.5 1224.5,-411.5 1224.5,-392.5 1157.5,-392.5"/>
<text text-anchor="middle" x="1191" y="-399.5" font-family="Helvetica,sans-Serif" font-size="10.00">lockguard.h</text>
</a>
</g>
</g>
<!-- Node2&#45;&gt;Node36 -->
<g id="edge62" class="edge"><title>Node2&#45;&gt;Node36</title>
<path fill="none" stroke="midnightblue" d="M845.716,-510.077C960.251,-504.932 1165.03,-492.41 1188,-468 1199.35,-455.937 1198.68,-436.369 1196.04,-421.85"/>
<polygon fill="midnightblue" stroke="midnightblue" points="1199.42,-420.923 1193.8,-411.94 1192.59,-422.466 1199.42,-420.923"/>
</g>
<!-- Node37 -->
<g id="node37" class="node"><title>Node37</title>
<g id="a_node37"><a xlink:href="logtools_8h.html" target="_top" xlink:title="The definitions of the logging tools. ">
<polygon fill="white" stroke="black" points="886.5,-224.5 886.5,-243.5 945.5,-243.5 945.5,-224.5 886.5,-224.5"/>
<text text-anchor="middle" x="916" y="-231.5" font-family="Helvetica,sans-Serif" font-size="10.00">logtools.h</text>
</a>
</g>
</g>
<!-- Node2&#45;&gt;Node37 -->
<g id="edge63" class="edge"><title>Node2&#45;&gt;Node37</title>
<path fill="none" stroke="midnightblue" d="M837.809,-504.442C863.807,-498.114 891.928,-487.116 912,-468 934.301,-446.763 936,-433.795 936,-403 936,-403 936,-403 936,-345 936,-312.438 927.412,-275.315 921.491,-253.592"/>
<polygon fill="midnightblue" stroke="midnightblue" points="924.793,-252.408 918.697,-243.742 918.058,-254.317 924.793,-252.408"/>
</g>
<!-- Node39 -->
<g id="node39" class="node"><title>Node39</title>
<g id="a_node39"><a xlink:href="monopoly_8h.html" target="_top" xlink:title="Contains an interface for a kind of WorkUnit that consumes time on multiple thread. ">
<polygon fill="white" stroke="black" points="178.5,-392.5 178.5,-411.5 245.5,-411.5 245.5,-392.5 178.5,-392.5"/>
<text text-anchor="middle" x="212" y="-399.5" font-family="Helvetica,sans-Serif" font-size="10.00">monopoly.h</text>
</a>
</g>
</g>
<!-- Node2&#45;&gt;Node39 -->
<g id="edge67" class="edge"><title>Node2&#45;&gt;Node39</title>
<path fill="none" stroke="midnightblue" d="M692.026,-511.887C573.702,-509.175 353.319,-499.871 282,-468 258.205,-457.366 237.245,-435.292 224.606,-419.832"/>
<polygon fill="midnightblue" stroke="midnightblue" points="227.095,-417.335 218.168,-411.63 221.589,-421.657 227.095,-417.335"/>
</g>
<!-- Node40 -->
<g id="node40" class="node"><title>Node40</title>
<g id="a_node40"><a xlink:href="readwritespinlock_8h.html" target="_top" xlink:title="Declares a Mutex, Mutex tools, and at least one MutexLike object. ">
<polygon fill="white" stroke="black" points="1078.5,-448.5 1078.5,-467.5 1179.5,-467.5 1179.5,-448.5 1078.5,-448.5"/>
<text text-anchor="middle" x="1129" y="-455.5" font-family="Helvetica,sans-Serif" font-size="10.00">readwritespinlock.h</text>
</a>
</g>
</g>
<!-- Node2&#45;&gt;Node40 -->
<g id="edge72" class="edge"><title>Node2&#45;&gt;Node40</title>
<path fill="none" stroke="midnightblue" d="M826.043,-504.444C892.141,-494.529 1000.61,-478.258 1068.25,-468.113"/>
<polygon fill="midnightblue" stroke="midnightblue" points="1068.96,-471.545 1078.33,-466.601 1067.92,-464.623 1068.96,-471.545"/>
</g>
<!-- Node3&#45;&gt;Node4 -->
<g id="edge3" class="edge"><title>Node3&#45;&gt;Node4</title>
<path fill="none" stroke="midnightblue" d="M620.586,-61.9028C523.731,-53.1857 247.613,-28.3351 120.503,-16.8953"/>
<polygon fill="midnightblue" stroke="midnightblue" points="120.784,-13.4065 110.511,-15.996 120.157,-20.3784 120.784,-13.4065"/>
</g>
<!-- Node5 -->
<g id="node5" class="node"><title>Node5</title>
<polygon fill="white" stroke="#bfbfbf" points="1006.5,-0.5 1006.5,-19.5 1055.5,-19.5 1055.5,-0.5 1006.5,-0.5"/>
<text text-anchor="middle" x="1031" y="-7.5" font-family="Helvetica,sans-Serif" font-size="10.00">stdint.h</text>
</g>
<!-- Node3&#45;&gt;Node5 -->
<g id="edge4" class="edge"><title>Node3&#45;&gt;Node5</title>
<path fill="none" stroke="midnightblue" d="M689.215,-61.961C749.36,-56.3037 878.076,-42.7912 996.262,-19.9083"/>
<polygon fill="midnightblue" stroke="midnightblue" points="997.065,-23.3176 1006.2,-17.9561 995.716,-16.4488 997.065,-23.3176"/>
</g>
<!-- Node6 -->
<g id="node6" class="node"><title>Node6</title>
<polygon fill="white" stroke="#bfbfbf" points="1073.5,-0.5 1073.5,-19.5 1122.5,-19.5 1122.5,-0.5 1073.5,-0.5"/>
<text text-anchor="middle" x="1098" y="-7.5" font-family="Helvetica,sans-Serif" font-size="10.00">cstddef</text>
</g>
<!-- Node3&#45;&gt;Node6 -->
<g id="edge5" class="edge"><title>Node3&#45;&gt;Node6</title>
<path fill="none" stroke="midnightblue" d="M689.186,-62.9686C758.146,-58.5004 918.918,-46.2106 1063.29,-19.8569"/>
<polygon fill="midnightblue" stroke="midnightblue" points="1064.02,-23.2814 1073.21,-18.018 1062.74,-16.3986 1064.02,-23.2814"/>
</g>
<!-- Node7 -->
<g id="node7" class="node"><title>Node7</title>
<polygon fill="white" stroke="#bfbfbf" points="182,-0.5 182,-19.5 238,-19.5 238,-0.5 182,-0.5"/>
<text text-anchor="middle" x="210" y="-7.5" font-family="Helvetica,sans-Serif" font-size="10.00">algorithm</text>
</g>
<!-- Node3&#45;&gt;Node7 -->
<g id="edge6" class="edge"><title>Node3&#45;&gt;Node7</title>
<path fill="none" stroke="midnightblue" d="M620.939,-62.7331C552.223,-57.8403 391.973,-44.8155 248.093,-19.9866"/>
<polygon fill="midnightblue" stroke="midnightblue" points="248.656,-16.532 238.203,-18.2564 247.45,-23.4273 248.656,-16.532"/>
</g>
<!-- Node8 -->
<g id="node8" class="node"><title>Node8</title>
<polygon fill="white" stroke="#bfbfbf" points="256.5,-0.5 256.5,-19.5 315.5,-19.5 315.5,-0.5 256.5,-0.5"/>
<text text-anchor="middle" x="286" y="-7.5" font-family="Helvetica,sans-Serif" font-size="10.00">exception</text>
</g>
<!-- Node3&#45;&gt;Node8 -->
<g id="edge7" class="edge"><title>Node3&#45;&gt;Node8</title>
<path fill="none" stroke="midnightblue" d="M620.994,-61.4838C562.525,-55.199 439.016,-40.8787 325.693,-20.177"/>
<polygon fill="midnightblue" stroke="midnightblue" points="326.282,-16.7266 315.812,-18.3507 325.01,-23.61 326.282,-16.7266"/>
</g>
<!-- Node9 -->
<g id="node9" class="node"><title>Node9</title>
<polygon fill="white" stroke="#bfbfbf" points="333.5,-0.5 333.5,-19.5 382.5,-19.5 382.5,-0.5 333.5,-0.5"/>
<text text-anchor="middle" x="358" y="-7.5" font-family="Helvetica,sans-Serif" font-size="10.00">istream</text>
</g>
<!-- Node3&#45;&gt;Node9 -->
<g id="edge8" class="edge"><title>Node3&#45;&gt;Node9</title>
<path fill="none" stroke="midnightblue" d="M620.619,-60.2325C571.865,-53.2344 479.689,-39.1303 392.575,-20.1925"/>
<polygon fill="midnightblue" stroke="midnightblue" points="393.32,-16.7728 382.802,-18.0425 391.816,-23.6094 393.32,-16.7728"/>
</g>
<!-- Node10 -->
<g id="node10" class="node"><title>Node10</title>
<polygon fill="white" stroke="#bfbfbf" points="400.5,-0.5 400.5,-19.5 429.5,-19.5 429.5,-0.5 400.5,-0.5"/>
<text text-anchor="middle" x="415" y="-7.5" font-family="Helvetica,sans-Serif" font-size="10.00">list</text>
</g>
<!-- Node3&#45;&gt;Node10 -->
<g id="edge9" class="edge"><title>Node3&#45;&gt;Node10</title>
<path fill="none" stroke="midnightblue" d="M620.732,-59.7309C579.526,-52.9962 508.213,-40.0725 439.624,-20.1351"/>
<polygon fill="midnightblue" stroke="midnightblue" points="440.549,-16.759 429.967,-17.2752 438.561,-23.4708 440.549,-16.759"/>
</g>
<!-- Node11 -->
<g id="node11" class="node"><title>Node11</title>
<polygon fill="white" stroke="#bfbfbf" points="447.5,-0.5 447.5,-19.5 482.5,-19.5 482.5,-0.5 447.5,-0.5"/>
<text text-anchor="middle" x="465" y="-7.5" font-family="Helvetica,sans-Serif" font-size="10.00">map</text>
</g>
<!-- Node3&#45;&gt;Node11 -->
<g id="edge10" class="edge"><title>Node3&#45;&gt;Node11</title>
<path fill="none" stroke="midnightblue" d="M621.52,-56.4993C590.259,-48.4112 542.116,-35.5711 492.233,-20.2494"/>
<polygon fill="midnightblue" stroke="midnightblue" points="493.159,-16.8721 482.571,-17.2567 491.087,-23.5587 493.159,-16.8721"/>
</g>
<!-- Node12 -->
<g id="node12" class="node"><title>Node12</title>
<polygon fill="white" stroke="#bfbfbf" points="500.5,-0.5 500.5,-19.5 541.5,-19.5 541.5,-0.5 500.5,-0.5"/>
<text text-anchor="middle" x="521" y="-7.5" font-family="Helvetica,sans-Serif" font-size="10.00">string</text>
</g>
<!-- Node3&#45;&gt;Node12 -->
<g id="edge11" class="edge"><title>Node3&#45;&gt;Node12</title>
<path fill="none" stroke="midnightblue" d="M633.767,-56.4435C611.486,-47.4646 576.27,-33.2729 551.122,-23.1386"/>
<polygon fill="midnightblue" stroke="midnightblue" points="552.276,-19.8305 541.693,-19.339 549.66,-26.3231 552.276,-19.8305"/>
</g>
<!-- Node13 -->
<g id="node13" class="node"><title>Node13</title>
<polygon fill="white" stroke="#bfbfbf" points="560,-0.5 560,-19.5 612,-19.5 612,-0.5 560,-0.5"/>
<text text-anchor="middle" x="586" y="-7.5" font-family="Helvetica,sans-Serif" font-size="10.00">sstream</text>
</g>
<!-- Node3&#45;&gt;Node13 -->
<g id="edge12" class="edge"><title>Node3&#45;&gt;Node13</title>
<path fill="none" stroke="midnightblue" d="M643.914,-56.324C633.514,-48.1849 617.739,-35.8395 605.278,-26.0874"/>
<polygon fill="midnightblue" stroke="midnightblue" points="607.32,-23.2407 597.288,-19.8339 603.006,-28.7533 607.32,-23.2407"/>
</g>
<!-- Node14 -->
<g id="node14" class="node"><title>Node14</title>
<polygon fill="white" stroke="#bfbfbf" points="630,-0.5 630,-19.5 680,-19.5 680,-0.5 630,-0.5"/>
<text text-anchor="middle" x="655" y="-7.5" font-family="Helvetica,sans-Serif" font-size="10.00">fstream</text>
</g>
<!-- Node3&#45;&gt;Node14 -->
<g id="edge13" class="edge"><title>Node3&#45;&gt;Node14</title>
<path fill="none" stroke="midnightblue" d="M655,-56.083C655,-49.0059 655,-38.8611 655,-29.9865"/>
<polygon fill="midnightblue" stroke="midnightblue" points="658.5,-29.751 655,-19.7511 651.5,-29.7511 658.5,-29.751"/>
</g>
<!-- Node15 -->
<g id="node15" class="node"><title>Node15</title>
<polygon fill="white" stroke="#bfbfbf" points="698,-0.5 698,-19.5 728,-19.5 728,-0.5 698,-0.5"/>
<text text-anchor="middle" x="713" y="-7.5" font-family="Helvetica,sans-Serif" font-size="10.00">set</text>
</g>
<!-- Node3&#45;&gt;Node15 -->
<g id="edge14" class="edge"><title>Node3&#45;&gt;Node15</title>
<path fill="none" stroke="midnightblue" d="M664.319,-56.324C672.893,-48.3414 685.812,-36.3128 696.188,-26.6529"/>
<polygon fill="midnightblue" stroke="midnightblue" points="698.578,-29.2098 703.512,-19.8339 693.808,-24.0865 698.578,-29.2098"/>
</g>
<!-- Node16 -->
<g id="node16" class="node"><title>Node16</title>
<polygon fill="white" stroke="#bfbfbf" points="746,-0.5 746,-19.5 790,-19.5 790,-0.5 746,-0.5"/>
<text text-anchor="middle" x="768" y="-7.5" font-family="Helvetica,sans-Serif" font-size="10.00">vector</text>
</g>
<!-- Node3&#45;&gt;Node16 -->
<g id="edge15" class="edge"><title>Node3&#45;&gt;Node16</title>
<path fill="none" stroke="midnightblue" d="M672.905,-56.4435C691.254,-47.6751 720.005,-33.9355 741.094,-23.8579"/>
<polygon fill="midnightblue" stroke="midnightblue" points="742.665,-26.9862 750.179,-19.5164 739.647,-20.6703 742.665,-26.9862"/>
</g>
<!-- Node17 -->
<g id="node17" class="node"><title>Node17</title>
<polygon fill="white" stroke="#bfbfbf" points="808,-0.5 808,-19.5 848,-19.5 848,-0.5 808,-0.5"/>
<text text-anchor="middle" x="828" y="-7.5" font-family="Helvetica,sans-Serif" font-size="10.00">utility</text>
</g>
<!-- Node3&#45;&gt;Node17 -->
<g id="edge16" class="edge"><title>Node3&#45;&gt;Node17</title>
<path fill="none" stroke="midnightblue" d="M682.412,-56.4435C713.964,-46.5951 765.607,-30.4754 798.151,-20.3169"/>
<polygon fill="midnightblue" stroke="midnightblue" points="799.494,-23.5644 807.997,-17.2437 797.408,-16.8824 799.494,-23.5644"/>
</g>
<!-- Node18 -->
<g id="node18" class="node"><title>Node18</title>
<polygon fill="white" stroke="#bfbfbf" points="866,-0.5 866,-19.5 918,-19.5 918,-0.5 866,-0.5"/>
<text text-anchor="middle" x="892" y="-7.5" font-family="Helvetica,sans-Serif" font-size="10.00">memory</text>
</g>
<!-- Node3&#45;&gt;Node18 -->
<g id="edge17" class="edge"><title>Node3&#45;&gt;Node18</title>
<path fill="none" stroke="midnightblue" d="M689.032,-57.7719C727.28,-49.5704 791.471,-35.5746 855.753,-20.2444"/>
<polygon fill="midnightblue" stroke="midnightblue" points="856.74,-23.607 865.65,-17.8736 855.109,-16.7996 856.74,-23.607"/>
</g>
<!-- Node19 -->
<g id="node19" class="node"><title>Node19</title>
<polygon fill="white" stroke="#bfbfbf" points="936,-0.5 936,-19.5 988,-19.5 988,-0.5 936,-0.5"/>
<text text-anchor="middle" x="962" y="-7.5" font-family="Helvetica,sans-Serif" font-size="10.00">ostream</text>
</g>
<!-- Node3&#45;&gt;Node19 -->
<g id="edge18" class="edge"><title>Node3&#45;&gt;Node19</title>
<path fill="none" stroke="midnightblue" d="M689.103,-60.3391C738.984,-53.3085 834.942,-38.9786 925.778,-20.1109"/>
<polygon fill="midnightblue" stroke="midnightblue" points="926.618,-23.5111 935.685,-18.0305 925.179,-16.6605 926.618,-23.5111"/>
</g>
<!-- Node3&#45;&gt;Node20 -->
<g id="edge19" class="edge"><title>Node3&#45;&gt;Node20</title>
<path fill="none" stroke="midnightblue" d="M689.068,-61.7838C791.172,-52.1446 1093.79,-23.5759 1194.2,-14.0961"/>
<polygon fill="midnightblue" stroke="midnightblue" points="1194.73,-17.5621 1204.36,-13.1377 1194.07,-10.5931 1194.73,-17.5621"/>
</g>
<!-- Node21&#45;&gt;Node22 -->
<g id="edge22" class="edge"><title>Node21&#45;&gt;Node22</title>
<path fill="none" stroke="midnightblue" d="M511.707,-448.083C508.148,-440.691 502.978,-429.953 498.576,-420.811"/>
<polygon fill="midnightblue" stroke="midnightblue" points="501.705,-419.243 494.213,-411.751 495.398,-422.279 501.705,-419.243"/>
</g>
<!-- Node22&#45;&gt;Node3 -->
<g id="edge23" class="edge"><title>Node22&#45;&gt;Node3</title>
<path fill="none" stroke="midnightblue" d="M494.244,-392.408C516.084,-348.201 615.938,-146.072 646.25,-84.7129"/>
<polygon fill="midnightblue" stroke="midnightblue" points="649.492,-86.0509 650.784,-75.5351 643.216,-82.9505 649.492,-86.0509"/>
</g>
<!-- Node22&#45;&gt;Node23 -->
<g id="edge24" class="edge"><title>Node22&#45;&gt;Node23</title>
<path fill="none" stroke="midnightblue" d="M467.544,-392.374C423.238,-375.282 321.532,-335.674 237,-300 195.66,-282.554 148.287,-261.211 119.001,-247.856"/>
<polygon fill="midnightblue" stroke="midnightblue" points="120.347,-244.623 109.797,-243.651 117.438,-250.99 120.347,-244.623"/>
</g>
<!-- Node22&#45;&gt;Node24 -->
<g id="edge26" class="edge"><title>Node22&#45;&gt;Node24</title>
<path fill="none" stroke="midnightblue" d="M480.521,-392.324C471.799,-384.341 458.657,-372.313 448.102,-362.653"/>
<polygon fill="midnightblue" stroke="midnightblue" points="450.392,-360.004 440.652,-355.834 445.666,-365.167 450.392,-360.004"/>
</g>
<!-- Node23&#45;&gt;Node3 -->
<g id="edge25" class="edge"><title>Node23&#45;&gt;Node3</title>
<path fill="none" stroke="midnightblue" d="M93.5479,-224.35C100.815,-201.394 124.008,-138.857 168,-112 241.642,-67.0415 505.286,-65.1052 610.843,-66.2171"/>
<polygon fill="midnightblue" stroke="midnightblue" points="610.808,-69.7168 620.849,-66.3369 610.892,-62.7174 610.808,-69.7168"/>
</g>
<!-- Node24&#45;&gt;Node3 -->
<g id="edge27" class="edge"><title>Node24&#45;&gt;Node3</title>
<path fill="none" stroke="midnightblue" d="M435.139,-336.473C443.432,-319.231 462.448,-278.894 476,-244 498.388,-186.355 476.272,-155.728 520,-112 544.143,-87.8566 581.565,-76.6661 610.891,-71.4796"/>
<polygon fill="midnightblue" stroke="midnightblue" points="611.567,-74.916 620.891,-69.884 610.464,-68.0034 611.567,-74.916"/>
</g>
<!-- Node24&#45;&gt;Node25 -->
<g id="edge28" class="edge"><title>Node24&#45;&gt;Node25</title>
<path fill="none" stroke="midnightblue" d="M410.56,-336.444C389.33,-327.557 355.901,-313.563 331.745,-303.451"/>
<polygon fill="midnightblue" stroke="midnightblue" points="332.921,-300.149 322.345,-299.516 330.218,-306.606 332.921,-300.149"/>
</g>
<!-- Node24&#45;&gt;Node26 -->
<g id="edge48" class="edge"><title>Node24&#45;&gt;Node26</title>
<path fill="none" stroke="midnightblue" d="M451.245,-336.368C496.554,-317.051 606.301,-270.259 659.335,-247.648"/>
<polygon fill="midnightblue" stroke="midnightblue" points="661.023,-250.733 668.849,-243.591 658.278,-244.294 661.023,-250.733"/>
</g>
<!-- Node24&#45;&gt;Node28 -->
<g id="edge44" class="edge"><title>Node24&#45;&gt;Node28</title>
<path fill="none" stroke="midnightblue" d="M462.108,-343.343C528.652,-339.31 682.316,-327.246 726,-300 765.652,-275.269 791.497,-224.189 803.042,-196.979"/>
<polygon fill="midnightblue" stroke="midnightblue" points="806.362,-198.105 806.882,-187.523 799.877,-195.471 806.362,-198.105"/>
</g>
<!-- Node24&#45;&gt;Node30 -->
<g id="edge49" class="edge"><title>Node24&#45;&gt;Node30</title>
<path fill="none" stroke="midnightblue" d="M430.843,-336.368C430.52,-318.617 429.776,-277.666 429.338,-253.597"/>
<polygon fill="midnightblue" stroke="midnightblue" points="432.838,-253.526 429.156,-243.591 425.839,-253.653 432.838,-253.526"/>
</g>
<!-- Node24&#45;&gt;Node32 -->
<g id="edge45" class="edge"><title>Node24&#45;&gt;Node32</title>
<path fill="none" stroke="midnightblue" d="M399.96,-338.448C348.767,-327.498 251.772,-306.079 247,-300 236.74,-286.929 240.202,-267.508 245.032,-253.299"/>
<polygon fill="midnightblue" stroke="midnightblue" points="248.425,-254.229 248.788,-243.64 241.901,-251.692 248.425,-254.229"/>
</g>
<!-- Node24&#45;&gt;Node33 -->
<g id="edge46" class="edge"><title>Node24&#45;&gt;Node33</title>
<path fill="none" stroke="midnightblue" d="M462.285,-337.492C500.821,-328.243 566.581,-312.461 610.653,-301.883"/>
<polygon fill="midnightblue" stroke="midnightblue" points="611.627,-305.249 620.534,-299.512 609.994,-298.442 611.627,-305.249"/>
</g>
<!-- Node25&#45;&gt;Node3 -->
<g id="edge29" class="edge"><title>Node25&#45;&gt;Node3</title>
<path fill="none" stroke="midnightblue" d="M306.932,-280.111C323.888,-250.484 383.064,-154.582 461,-112 508.271,-86.1724 569.857,-75.1145 610.827,-70.415"/>
<polygon fill="midnightblue" stroke="midnightblue" points="611.206,-73.8945 620.778,-69.352 610.463,-66.9341 611.206,-73.8945"/>
</g>
<!-- Node25&#45;&gt;Node23 -->
<g id="edge30" class="edge"><title>Node25&#45;&gt;Node23</title>
<path fill="none" stroke="midnightblue" d="M268.566,-280.444C232.144,-271.122 173.77,-256.183 133.971,-245.997"/>
<polygon fill="midnightblue" stroke="midnightblue" points="134.833,-242.605 124.277,-243.516 133.097,-249.387 134.833,-242.605"/>
</g>
<!-- Node25&#45;&gt;Node26 -->
<g id="edge31" class="edge"><title>Node25&#45;&gt;Node26</title>
<path fill="none" stroke="midnightblue" d="M348.297,-282.54C426.157,-271.676 581.724,-249.969 652.469,-240.097"/>
<polygon fill="midnightblue" stroke="midnightblue" points="653.251,-243.522 662.671,-238.674 652.283,-236.589 653.251,-243.522"/>
</g>
<!-- Node25&#45;&gt;Node27 -->
<g id="edge41" class="edge"><title>Node25&#45;&gt;Node27</title>
<path fill="none" stroke="midnightblue" d="M309.714,-280.078C322.777,-265.627 350.792,-237.373 381,-224 466.659,-186.078 577.537,-178.879 640.203,-178.184"/>
<polygon fill="midnightblue" stroke="midnightblue" points="640.229,-181.684 650.208,-178.125 640.187,-174.685 640.229,-181.684"/>
</g>
<!-- Node25&#45;&gt;Node30 -->
<g id="edge37" class="edge"><title>Node25&#45;&gt;Node30</title>
<path fill="none" stroke="midnightblue" d="M322.124,-280.444C343.024,-271.557 375.935,-257.563 399.716,-247.451"/>
<polygon fill="midnightblue" stroke="midnightblue" points="401.138,-250.65 408.971,-243.516 398.398,-244.208 401.138,-250.65"/>
</g>
<!-- Node25&#45;&gt;Node31 -->
<g id="edge39" class="edge"><title>Node25&#45;&gt;Node31</title>
<path fill="none" stroke="midnightblue" d="M348.255,-285.933C455.003,-278.827 726.826,-260.577 954,-244 979.258,-242.157 1007.58,-239.982 1030.02,-238.231"/>
<polygon fill="midnightblue" stroke="midnightblue" points="1030.52,-241.704 1040.21,-237.435 1029.97,-234.725 1030.52,-241.704"/>
</g>
<!-- Node25&#45;&gt;Node32 -->
<g id="edge42" class="edge"><title>Node25&#45;&gt;Node32</title>
<path fill="none" stroke="midnightblue" d="M293.909,-280.083C286.845,-272.298 276.412,-260.801 267.851,-251.367"/>
<polygon fill="midnightblue" stroke="midnightblue" points="270.253,-248.805 260.941,-243.751 265.069,-253.509 270.253,-248.805"/>
</g>
<!-- Node26&#45;&gt;Node27 -->
<g id="edge32" class="edge"><title>Node26&#45;&gt;Node27</title>
<path fill="none" stroke="midnightblue" d="M689,-224.083C689,-217.006 689,-206.861 689,-197.986"/>
<polygon fill="midnightblue" stroke="midnightblue" points="692.5,-197.751 689,-187.751 685.5,-197.751 692.5,-197.751"/>
</g>
<!-- Node26&#45;&gt;Node28 -->
<g id="edge34" class="edge"><title>Node26&#45;&gt;Node28</title>
<path fill="none" stroke="midnightblue" d="M708.173,-224.444C727.909,-215.636 758.885,-201.812 781.493,-191.722"/>
<polygon fill="midnightblue" stroke="midnightblue" points="783.211,-194.788 790.917,-187.516 780.359,-188.396 783.211,-194.788"/>
</g>
<!-- Node27&#45;&gt;Node3 -->
<g id="edge33" class="edge"><title>Node27&#45;&gt;Node3</title>
<path fill="none" stroke="midnightblue" d="M686.332,-168.368C680.82,-150.537 668.073,-109.295 660.648,-85.2717"/>
<polygon fill="midnightblue" stroke="midnightblue" points="663.953,-84.1119 657.656,-75.5914 657.265,-86.179 663.953,-84.1119"/>
</g>
<!-- Node28&#45;&gt;Node29 -->
<g id="edge35" class="edge"><title>Node28&#45;&gt;Node29</title>
<path fill="none" stroke="midnightblue" d="M831.233,-168.444C853.384,-159.517 888.319,-145.439 913.436,-135.317"/>
<polygon fill="midnightblue" stroke="midnightblue" points="914.9,-138.501 922.867,-131.516 912.283,-132.008 914.9,-138.501"/>
</g>
<!-- Node29&#45;&gt;Node3 -->
<g id="edge36" class="edge"><title>Node29&#45;&gt;Node3</title>
<path fill="none" stroke="midnightblue" d="M898.207,-112.444C843.631,-102.246 753.07,-85.3245 699.204,-75.2596"/>
<polygon fill="midnightblue" stroke="midnightblue" points="699.739,-71.799 689.266,-73.4026 698.453,-78.6799 699.739,-71.799"/>
</g>
<!-- Node30&#45;&gt;Node3 -->
<g id="edge38" class="edge"><title>Node30&#45;&gt;Node3</title>
<path fill="none" stroke="midnightblue" d="M430.162,-224.464C433.641,-202.326 446.056,-142.659 482,-112 517.935,-81.3488 572.286,-71.2375 610.457,-68.0772"/>
<polygon fill="midnightblue" stroke="midnightblue" points="611.032,-71.5457 620.765,-67.3589 610.546,-64.5626 611.032,-71.5457"/>
</g>
<!-- Node31&#45;&gt;Node3 -->
<g id="edge40" class="edge"><title>Node31&#45;&gt;Node3</title>
<path fill="none" stroke="midnightblue" d="M1071.24,-224.269C1071.3,-211.484 1070.31,-187.115 1063,-168 1052.16,-139.672 1049.98,-127.643 1024,-112 970.26,-79.6467 785.368,-70.4808 699.489,-67.9429"/>
<polygon fill="midnightblue" stroke="midnightblue" points="699.37,-64.4384 689.277,-67.6588 699.176,-71.4357 699.37,-64.4384"/>
</g>
<!-- Node32&#45;&gt;Node3 -->
<g id="edge43" class="edge"><title>Node32&#45;&gt;Node3</title>
<path fill="none" stroke="midnightblue" d="M254.251,-224.181C257.994,-201.361 271.351,-140.187 310,-112 357.035,-77.6967 528.833,-69.5387 610.847,-67.6015"/>
<polygon fill="midnightblue" stroke="midnightblue" points="610.939,-71.1005 620.861,-67.3855 610.788,-64.1021 610.939,-71.1005"/>
</g>
<!-- Node33&#45;&gt;Node3 -->
<g id="edge47" class="edge"><title>Node33&#45;&gt;Node3</title>
<path fill="none" stroke="midnightblue" d="M654.285,-280.401C650.917,-263.031 643.546,-222.474 641,-188 638.311,-151.587 645.617,-109.252 650.66,-85.5458"/>
<polygon fill="midnightblue" stroke="midnightblue" points="654.076,-86.3039 652.836,-75.7819 647.244,-84.7808 654.076,-86.3039"/>
</g>
<!-- Node34&#45;&gt;Node3 -->
<g id="edge53" class="edge"><title>Node34&#45;&gt;Node3</title>
<path fill="none" stroke="midnightblue" d="M1027.24,-168.185C1025.49,-153.889 1019.86,-125.854 1002,-112 955.677,-76.0764 781.982,-68.7419 699.291,-67.3076"/>
<polygon fill="midnightblue" stroke="midnightblue" points="699.25,-63.8067 689.198,-67.1542 699.143,-70.8059 699.25,-63.8067"/>
</g>
<!-- Node34&#45;&gt;Node29 -->
<g id="edge54" class="edge"><title>Node34&#45;&gt;Node29</title>
<path fill="none" stroke="midnightblue" d="M1014.5,-168.324C1001.4,-159.9 981.288,-146.971 965.893,-137.074"/>
<polygon fill="midnightblue" stroke="midnightblue" points="967.767,-134.118 957.463,-131.655 963.982,-140.006 967.767,-134.118"/>
</g>
<!-- Node35&#45;&gt;Node3 -->
<g id="edge59" class="edge"><title>Node35&#45;&gt;Node3</title>
<path fill="none" stroke="midnightblue" d="M647.327,-392.488C667.285,-376.751 708.276,-340.953 726,-300 745.85,-254.136 733.776,-237.926 736,-188 736.396,-179.12 738.947,-176.386 736,-168 723.554,-132.588 692.879,-100.399 673.053,-82.296"/>
<polygon fill="midnightblue" stroke="midnightblue" points="675.356,-79.6604 665.552,-75.6441 670.711,-84.8977 675.356,-79.6604"/>
</g>
<!-- Node35&#45;&gt;Node24 -->
<g id="edge60" class="edge"><title>Node35&#45;&gt;Node24</title>
<path fill="none" stroke="midnightblue" d="M603.517,-392.444C567.969,-383.08 510.9,-368.047 472.222,-357.859"/>
<polygon fill="midnightblue" stroke="midnightblue" points="472.884,-354.414 462.322,-355.251 471.101,-361.183 472.884,-354.414"/>
</g>
<!-- Node35&#45;&gt;Node30 -->
<g id="edge61" class="edge"><title>Node35&#45;&gt;Node30</title>
<path fill="none" stroke="midnightblue" d="M625.162,-392.309C591.697,-365.472 489.72,-283.694 447.552,-249.878"/>
<polygon fill="midnightblue" stroke="midnightblue" points="449.721,-247.131 439.73,-243.605 445.342,-252.592 449.721,-247.131"/>
</g>
<!-- Node37&#45;&gt;Node3 -->
<g id="edge64" class="edge"><title>Node37&#45;&gt;Node3</title>
<path fill="none" stroke="midnightblue" d="M907.07,-224.286C893.861,-211.522 868.174,-187.179 845,-168 812.952,-141.477 806.363,-132.206 770,-112 745.35,-98.3028 715.67,-86.8011 692.638,-78.8548"/>
<polygon fill="midnightblue" stroke="midnightblue" points="693.481,-75.4456 682.887,-75.5651 691.243,-82.0783 693.481,-75.4456"/>
</g>
<!-- Node37&#45;&gt;Node27 -->
<g id="edge65" class="edge"><title>Node37&#45;&gt;Node27</title>
<path fill="none" stroke="midnightblue" d="M886.324,-225.94C847.778,-216.771 780.088,-200.669 734.896,-189.918"/>
<polygon fill="midnightblue" stroke="midnightblue" points="735.59,-186.485 725.051,-187.576 733.97,-193.295 735.59,-186.485"/>
</g>
<!-- Node38 -->
<g id="node38" class="node"><title>Node38</title>
<polygon fill="white" stroke="#bfbfbf" points="892,-168.5 892,-187.5 946,-187.5 946,-168.5 892,-168.5"/>
<text text-anchor="middle" x="919" y="-175.5" font-family="Helvetica,sans-Serif" font-size="10.00">iostream</text>
</g>
<!-- Node37&#45;&gt;Node38 -->
<g id="edge66" class="edge"><title>Node37&#45;&gt;Node38</title>
<path fill="none" stroke="midnightblue" d="M916.495,-224.083C916.889,-217.006 917.452,-206.861 917.945,-197.986"/>
<polygon fill="midnightblue" stroke="midnightblue" points="921.454,-197.93 918.514,-187.751 914.464,-197.542 921.454,-197.93"/>
</g>
<!-- Node39&#45;&gt;Node3 -->
<g id="edge68" class="edge"><title>Node39&#45;&gt;Node3</title>
<path fill="none" stroke="midnightblue" d="M209.163,-392.217C201.128,-365.868 180.108,-285.513 201,-224 221.183,-164.574 232.499,-143.12 287,-112 341.327,-80.9792 525.338,-71.1222 610.759,-68.1744"/>
<polygon fill="midnightblue" stroke="midnightblue" points="611.037,-71.6673 620.916,-67.8406 610.807,-64.6711 611.037,-71.6673"/>
</g>
<!-- Node39&#45;&gt;Node23 -->
<g id="edge69" class="edge"><title>Node39&#45;&gt;Node23</title>
<path fill="none" stroke="midnightblue" d="M204.937,-392.498C197.558,-383.542 185.726,-368.966 176,-356 148.786,-319.72 118.654,-275.891 102.591,-252.208"/>
<polygon fill="midnightblue" stroke="midnightblue" points="105.298,-249.963 96.7968,-243.639 99.4987,-253.884 105.298,-249.963"/>
</g>
<!-- Node39&#45;&gt;Node24 -->
<g id="edge70" class="edge"><title>Node39&#45;&gt;Node24</title>
<path fill="none" stroke="midnightblue" d="M245.739,-392.681C284.534,-383.115 348.215,-367.413 389.878,-357.14"/>
<polygon fill="midnightblue" stroke="midnightblue" points="390.837,-360.508 399.708,-354.716 389.161,-353.712 390.837,-360.508"/>
</g>
<!-- Node40&#45;&gt;Node3 -->
<g id="edge73" class="edge"><title>Node40&#45;&gt;Node3</title>
<path fill="none" stroke="midnightblue" d="M1130.53,-448.344C1138.02,-402.867 1165.93,-190.666 1050,-112 993.759,-73.8352 790.259,-67.759 699.374,-66.9865"/>
<polygon fill="midnightblue" stroke="midnightblue" points="699.147,-63.485 689.124,-66.918 699.101,-70.4849 699.147,-63.485"/>
</g>
<!-- Node40&#45;&gt;Node31 -->
<g id="edge75" class="edge"><title>Node40&#45;&gt;Node31</title>
<path fill="none" stroke="midnightblue" d="M1126.17,-448.417C1123.23,-439.395 1118.57,-424.765 1115,-412 1098.91,-354.442 1082.63,-285.541 1075.18,-253.312"/>
<polygon fill="midnightblue" stroke="midnightblue" points="1078.58,-252.483 1072.93,-243.52 1071.76,-254.05 1078.58,-252.483"/>
</g>
<!-- Node40&#45;&gt;Node36 -->
<g id="edge74" class="edge"><title>Node40&#45;&gt;Node36</title>
<path fill="none" stroke="midnightblue" d="M1138.96,-448.324C1148.13,-440.341 1161.94,-428.313 1173.03,-418.653"/>
<polygon fill="midnightblue" stroke="midnightblue" points="1175.62,-421.041 1180.86,-411.834 1171.02,-415.762 1175.62,-421.041"/>
</g>
</g>
</svg>
