<?xml version="1.0" encoding="UTF-8" standalone="no"?>
<!DOCTYPE svg PUBLIC "-//W3C//DTD SVG 1.1//EN"
 "http://www.w3.org/Graphics/SVG/1.1/DTD/svg11.dtd">
<!-- Generated by graphviz version 2.36.0 (20140111.2315)
 -->
<!-- Title: /home/sqeaky/Code/Mezzanine/Mezzanine/src/Threading/workunit.h Pages: 1 -->
<!--zoomable 386 -->
<svg id="main" version="1.1" xmlns="http://www.w3.org/2000/svg" xmlns:xlink="http://www.w3.org/1999/xlink" xml:space="preserve" onload="init(evt)">
<style type="text/css"><![CDATA[
.edge:hover path { stroke: red; }
.edge:hover polygon { stroke: red; fill: red; }
]]></style>
<script type="text/javascript"><![CDATA[
var edges = document.getElementsByTagName('g');
if (edges && edges.length) {
  for (var i=0;i<edges.length;i++) {
    if (edges[i].id.substr(0,4)=='edge') {
      edges[i].setAttribute('class','edge');
    }
  }
}
]]></script>
        <defs>
                <circle id="rim" cx="0" cy="0" r="7"/>
                <circle id="rim2" cx="0" cy="0" r="3.5"/>
                <g id="zoomPlus">
                        <use xlink:href="#rim" fill="#404040">
                                <set attributeName="fill" to="#808080" begin="zoomplus.mouseover" end="zoomplus.mouseout"/>
                        </use>
                        <path d="M-4,0h8M0,-4v8" fill="none" stroke="white" stroke-width="1.5" pointer-events="none"/>
                </g>
                <g id="zoomMin">
                        <use xlink:href="#rim" fill="#404040">
                                <set attributeName="fill" to="#808080" begin="zoomminus.mouseover" end="zoomminus.mouseout"/>
                        </use>
                        <path d="M-4,0h8" fill="none" stroke="white" stroke-width="1.5" pointer-events="none"/>
                </g>
                <g id="dirArrow">
                        <path fill="none" stroke="white" stroke-width="1.5" d="M0,-3.0v7 M-2.5,-0.5L0,-3.0L2.5,-0.5"/>
                </g>
               <g id="resetDef">
                       <use xlink:href="#rim2" fill="#404040">
                               <set attributeName="fill" to="#808080" begin="reset.mouseover" end="reset.mouseout"/>
                       </use>
               </g>
        </defs>

<script type="text/javascript">
var viewWidth = 1140;
var viewHeight = 386;
var sectionId = 'dynsection-0';
</script>
<script xlink:href="svgpan.js"/>
<svg id="graph" class="graph">
<g id="viewport">
<title>/home/sqeaky/Code/Mezzanine/Mezzanine/src/Threading/workunit.h</title>
<polygon fill="white" stroke="none" points="-4,4 -4,-382 1136,-382 1136,4 -4,4"/>
<!-- Node1 -->
<g id="node1" class="node"><title>Node1</title>
<polygon fill="#bfbfbf" stroke="black" points="540.5,-336.5 540.5,-377.5 695.5,-377.5 695.5,-336.5 540.5,-336.5"/>
<text text-anchor="start" x="548.5" y="-365.5" font-family="Helvetica,sans-Serif" font-size="10.00">/home/sqeaky/Code/Mezzanine</text>
<text text-anchor="start" x="548.5" y="-354.5" font-family="Helvetica,sans-Serif" font-size="10.00">/Mezzanine/src/Threading</text>
<text text-anchor="middle" x="618" y="-343.5" font-family="Helvetica,sans-Serif" font-size="10.00">/workunit.h</text>
</g>
<!-- Node2 -->
<g id="node2" class="node"><title>Node2</title>
<g id="a_node2"><a xlink:href="datatypes_8h.html" target="_top" xlink:title="All the definitions for datatypes as well as some basic conversion functions are defined here...">
<polygon fill="white" stroke="black" points="568,-56.5 568,-75.5 636,-75.5 636,-56.5 568,-56.5"/>
<text text-anchor="middle" x="602" y="-63.5" font-family="Helvetica,sans-Serif" font-size="10.00">datatypes.h</text>
</a>
</g>
</g>
<!-- Node1&#45;&gt;Node2 -->
<g id="edge1" class="edge"><title>Node1&#45;&gt;Node2</title>
<path fill="none" stroke="midnightblue" d="M540.453,-351.191C465.431,-341.836 363,-314.506 363,-235 363,-235 363,-235 363,-177 363,-146.902 359.857,-132.385 382,-112 407.111,-88.8825 500.796,-76.3363 557.499,-70.7155"/>
<polygon fill="midnightblue" stroke="midnightblue" points="558.011,-74.1826 567.632,-69.7456 557.344,-67.2145 558.011,-74.1826"/>
</g>
<!-- Node20 -->
<g id="node20" class="node"><title>Node20</title>
<g id="a_node20"><a xlink:href="framescheduler_8h.html" target="_top" xlink:title="This file has the Declarations for the main FrameScheduler class. ">
<polygon fill="white" stroke="black" points="572,-280.5 572,-299.5 664,-299.5 664,-280.5 572,-280.5"/>
<text text-anchor="middle" x="618" y="-287.5" font-family="Helvetica,sans-Serif" font-size="10.00">framescheduler.h</text>
</a>
</g>
</g>
<!-- Node1&#45;&gt;Node20 -->
<g id="edge19" class="edge"><title>Node1&#45;&gt;Node20</title>
<path fill="none" stroke="midnightblue" d="M618,-336.498C618,-328.065 618,-318.235 618,-309.874"/>
<polygon fill="midnightblue" stroke="midnightblue" points="621.5,-309.652 618,-299.652 614.5,-309.653 621.5,-309.652"/>
</g>
<!-- Node22 -->
<g id="node22" class="node"><title>Node22</title>
<g id="a_node22"><a xlink:href="thread_8h.html" target="_top" xlink:title="This file defines a minimalistic cross&#45;platform thread that the scheduler uses to schedule tasks...">
<polygon fill="white" stroke="black" points="462,-224.5 462,-243.5 514,-243.5 514,-224.5 462,-224.5"/>
<text text-anchor="middle" x="488" y="-231.5" font-family="Helvetica,sans-Serif" font-size="10.00">thread.h</text>
</a>
</g>
</g>
<!-- Node1&#45;&gt;Node22 -->
<g id="edge40" class="edge"><title>Node1&#45;&gt;Node22</title>
<path fill="none" stroke="midnightblue" d="M596.824,-336.29C571.08,-312.329 528.17,-272.389 504.659,-250.506"/>
<polygon fill="midnightblue" stroke="midnightblue" points="506.917,-247.826 497.213,-243.575 502.148,-252.95 506.917,-247.826"/>
</g>
<!-- Node24 -->
<g id="node24" class="node"><title>Node24</title>
<g id="a_node24"><a xlink:href="mutex_8h.html" target="_top" xlink:title="This file declares and defines a mutex that is a partial implementation. ">
<polygon fill="white" stroke="black" points="415,-168.5 415,-187.5 467,-187.5 467,-168.5 415,-168.5"/>
<text text-anchor="middle" x="441" y="-175.5" font-family="Helvetica,sans-Serif" font-size="10.00">mutex.h</text>
</a>
</g>
</g>
<!-- Node1&#45;&gt;Node24 -->
<g id="edge36" class="edge"><title>Node1&#45;&gt;Node24</title>
<path fill="none" stroke="midnightblue" d="M570.306,-336.357C532.319,-318.148 481.021,-287.313 453,-244 444.137,-230.3 441.418,-211.767 440.751,-197.995"/>
<polygon fill="midnightblue" stroke="midnightblue" points="444.247,-197.7 440.585,-187.758 437.248,-197.814 444.247,-197.7"/>
</g>
<!-- Node26 -->
<g id="node26" class="node"><title>Node26</title>
<g id="a_node26"><a xlink:href="workunitkey_8h.html" target="_top" xlink:title="This file defines the metadata used to sort workunits. ">
<polygon fill="white" stroke="black" points="684.5,-224.5 684.5,-243.5 761.5,-243.5 761.5,-224.5 684.5,-224.5"/>
<text text-anchor="middle" x="723" y="-231.5" font-family="Helvetica,sans-Serif" font-size="10.00">workunitkey.h</text>
</a>
</g>
</g>
<!-- Node1&#45;&gt;Node26 -->
<g id="edge41" class="edge"><title>Node1&#45;&gt;Node26</title>
<path fill="none" stroke="midnightblue" d="M638.462,-336.342C649.085,-325.848 662.087,-312.542 673,-300 686.668,-284.292 701.037,-265.317 710.846,-251.935"/>
<polygon fill="midnightblue" stroke="midnightblue" points="713.802,-253.822 716.844,-243.673 708.137,-249.71 713.802,-253.822"/>
</g>
<!-- Node28 -->
<g id="node28" class="node"><title>Node28</title>
<g id="a_node28"><a xlink:href="rollingaverage_8h.html" target="_top" xlink:title="This stores the implementation and the declaration of the RollingAverage, BufferedRollingAverage, WeightedRollingAverage and the DefaultRollingAverage. ">
<polygon fill="white" stroke="black" points="779.5,-224.5 779.5,-243.5 864.5,-243.5 864.5,-224.5 779.5,-224.5"/>
<text text-anchor="middle" x="822" y="-231.5" font-family="Helvetica,sans-Serif" font-size="10.00">rollingaverage.h</text>
</a>
</g>
</g>
<!-- Node1&#45;&gt;Node28 -->
<g id="edge37" class="edge"><title>Node1&#45;&gt;Node28</title>
<path fill="none" stroke="midnightblue" d="M651.23,-336.29C692.686,-311.701 762.512,-270.285 798.694,-248.824"/>
<polygon fill="midnightblue" stroke="midnightblue" points="800.728,-251.687 807.543,-243.575 797.157,-245.666 800.728,-251.687"/>
</g>
<!-- Node29 -->
<g id="node29" class="node"><title>Node29</title>
<g id="a_node29"><a xlink:href="threadingenumerations_8h.html" target="_top" xlink:title="Any enumerations the threading library requires are all declared here. ">
<polygon fill="white" stroke="black" points="821.5,-280.5 821.5,-299.5 944.5,-299.5 944.5,-280.5 821.5,-280.5"/>
<text text-anchor="middle" x="883" y="-287.5" font-family="Helvetica,sans-Serif" font-size="10.00">threadingenumerations.h</text>
</a>
</g>
</g>
<!-- Node1&#45;&gt;Node29 -->
<g id="edge38" class="edge"><title>Node1&#45;&gt;Node29</title>
<path fill="none" stroke="midnightblue" d="M695.718,-336.937C742.123,-325.555 799.407,-311.504 838.316,-301.96"/>
<polygon fill="midnightblue" stroke="midnightblue" points="839.407,-305.296 848.285,-299.515 837.739,-298.498 839.407,-305.296"/>
</g>
<!-- Node3 -->
<g id="node3" class="node"><title>Node3</title>
<g id="a_node3"><a xlink:href="crossplatformexport_8h.html" target="_top" xlink:title="This file is used on some platforms to determine what data should be read and written to and from a s...">
<polygon fill="white" stroke="black" points="-0.5,-0.5 -0.5,-19.5 110.5,-19.5 110.5,-0.5 -0.5,-0.5"/>
<text text-anchor="middle" x="55" y="-7.5" font-family="Helvetica,sans-Serif" font-size="10.00">crossplatformexport.h</text>
</a>
</g>
</g>
<!-- Node2&#45;&gt;Node3 -->
<g id="edge2" class="edge"><title>Node2&#45;&gt;Node3</title>
<path fill="none" stroke="midnightblue" d="M567.979,-62.3813C490.504,-56.2997 294.777,-40.2694 120.927,-20.182"/>
<polygon fill="midnightblue" stroke="midnightblue" points="121.165,-16.6862 110.828,-19.0076 120.357,-23.6394 121.165,-16.6862"/>
</g>
<!-- Node4 -->
<g id="node4" class="node"><title>Node4</title>
<polygon fill="white" stroke="#bfbfbf" points="128.5,-0.5 128.5,-19.5 177.5,-19.5 177.5,-0.5 128.5,-0.5"/>
<text text-anchor="middle" x="153" y="-7.5" font-family="Helvetica,sans-Serif" font-size="10.00">stdint.h</text>
</g>
<!-- Node2&#45;&gt;Node4 -->
<g id="edge3" class="edge"><title>Node2&#45;&gt;Node4</title>
<path fill="none" stroke="midnightblue" d="M567.759,-63.1381C497.9,-58.9455 333.845,-47.0873 187.805,-20.0923"/>
<polygon fill="midnightblue" stroke="midnightblue" points="188.242,-16.6133 177.768,-18.2074 186.95,-23.4931 188.242,-16.6133"/>
</g>
<!-- Node5 -->
<g id="node5" class="node"><title>Node5</title>
<polygon fill="white" stroke="#bfbfbf" points="195.5,-0.5 195.5,-19.5 244.5,-19.5 244.5,-0.5 195.5,-0.5"/>
<text text-anchor="middle" x="220" y="-7.5" font-family="Helvetica,sans-Serif" font-size="10.00">cstddef</text>
</g>
<!-- Node2&#45;&gt;Node5 -->
<g id="edge4" class="edge"><title>Node2&#45;&gt;Node5</title>
<path fill="none" stroke="midnightblue" d="M567.679,-62.0567C506.693,-56.5049 375.324,-43.0972 254.922,-19.9389"/>
<polygon fill="midnightblue" stroke="midnightblue" points="255.281,-16.4429 244.796,-17.9626 253.94,-23.3133 255.281,-16.4429"/>
</g>
<!-- Node6 -->
<g id="node6" class="node"><title>Node6</title>
<polygon fill="white" stroke="#bfbfbf" points="263,-0.5 263,-19.5 319,-19.5 319,-0.5 263,-0.5"/>
<text text-anchor="middle" x="291" y="-7.5" font-family="Helvetica,sans-Serif" font-size="10.00">algorithm</text>
</g>
<!-- Node2&#45;&gt;Node6 -->
<g id="edge5" class="edge"><title>Node2&#45;&gt;Node6</title>
<path fill="none" stroke="midnightblue" d="M567.675,-60.2165C517.461,-53.0333 420.842,-38.5103 329.225,-20.1256"/>
<polygon fill="midnightblue" stroke="midnightblue" points="329.728,-16.6566 319.232,-18.1008 328.338,-23.5172 329.728,-16.6566"/>
</g>
<!-- Node7 -->
<g id="node7" class="node"><title>Node7</title>
<polygon fill="white" stroke="#bfbfbf" points="337.5,-0.5 337.5,-19.5 396.5,-19.5 396.5,-0.5 337.5,-0.5"/>
<text text-anchor="middle" x="367" y="-7.5" font-family="Helvetica,sans-Serif" font-size="10.00">exception</text>
</g>
<!-- Node2&#45;&gt;Node7 -->
<g id="edge6" class="edge"><title>Node2&#45;&gt;Node7</title>
<path fill="none" stroke="midnightblue" d="M567.816,-57.2784C530.507,-48.8318 468.742,-34.7929 406.804,-20.408"/>
<polygon fill="midnightblue" stroke="midnightblue" points="407.398,-16.9529 396.865,-18.0972 405.813,-23.771 407.398,-16.9529"/>
</g>
<!-- Node8 -->
<g id="node8" class="node"><title>Node8</title>
<polygon fill="white" stroke="#bfbfbf" points="414.5,-0.5 414.5,-19.5 463.5,-19.5 463.5,-0.5 414.5,-0.5"/>
<text text-anchor="middle" x="439" y="-7.5" font-family="Helvetica,sans-Serif" font-size="10.00">istream</text>
</g>
<!-- Node2&#45;&gt;Node8 -->
<g id="edge7" class="edge"><title>Node2&#45;&gt;Node8</title>
<path fill="none" stroke="midnightblue" d="M576.172,-56.4435C548.428,-47.2522 504.196,-32.5987 473.491,-22.4265"/>
<polygon fill="midnightblue" stroke="midnightblue" points="474.233,-18.9854 463.64,-19.1629 472.032,-25.6302 474.233,-18.9854"/>
</g>
<!-- Node9 -->
<g id="node9" class="node"><title>Node9</title>
<polygon fill="white" stroke="#bfbfbf" points="481.5,-0.5 481.5,-19.5 510.5,-19.5 510.5,-0.5 481.5,-0.5"/>
<text text-anchor="middle" x="496" y="-7.5" font-family="Helvetica,sans-Serif" font-size="10.00">list</text>
</g>
<!-- Node2&#45;&gt;Node9 -->
<g id="edge8" class="edge"><title>Node2&#45;&gt;Node9</title>
<path fill="none" stroke="midnightblue" d="M584.969,-56.324C567.266,-47.3054 539.425,-33.1223 519.606,-23.0255"/>
<polygon fill="midnightblue" stroke="midnightblue" points="521.099,-19.8583 510.6,-18.4376 517.921,-26.0956 521.099,-19.8583"/>
</g>
<!-- Node10 -->
<g id="node10" class="node"><title>Node10</title>
<polygon fill="white" stroke="#bfbfbf" points="528.5,-0.5 528.5,-19.5 563.5,-19.5 563.5,-0.5 528.5,-0.5"/>
<text text-anchor="middle" x="546" y="-7.5" font-family="Helvetica,sans-Serif" font-size="10.00">map</text>
</g>
<!-- Node2&#45;&gt;Node10 -->
<g id="edge9" class="edge"><title>Node2&#45;&gt;Node10</title>
<path fill="none" stroke="midnightblue" d="M593.003,-56.324C584.806,-48.4196 572.494,-36.5482 562.528,-26.9377"/>
<polygon fill="midnightblue" stroke="midnightblue" points="564.789,-24.2558 555.161,-19.8339 559.93,-29.2947 564.789,-24.2558"/>
</g>
<!-- Node11 -->
<g id="node11" class="node"><title>Node11</title>
<polygon fill="white" stroke="#bfbfbf" points="581.5,-0.5 581.5,-19.5 622.5,-19.5 622.5,-0.5 581.5,-0.5"/>
<text text-anchor="middle" x="602" y="-7.5" font-family="Helvetica,sans-Serif" font-size="10.00">string</text>
</g>
<!-- Node2&#45;&gt;Node11 -->
<g id="edge10" class="edge"><title>Node2&#45;&gt;Node11</title>
<path fill="none" stroke="midnightblue" d="M602,-56.083C602,-49.0059 602,-38.8611 602,-29.9865"/>
<polygon fill="midnightblue" stroke="midnightblue" points="605.5,-29.751 602,-19.7511 598.5,-29.7511 605.5,-29.751"/>
</g>
<!-- Node12 -->
<g id="node12" class="node"><title>Node12</title>
<polygon fill="white" stroke="#bfbfbf" points="641,-0.5 641,-19.5 693,-19.5 693,-0.5 641,-0.5"/>
<text text-anchor="middle" x="667" y="-7.5" font-family="Helvetica,sans-Serif" font-size="10.00">sstream</text>
</g>
<!-- Node2&#45;&gt;Node12 -->
<g id="edge11" class="edge"><title>Node2&#45;&gt;Node12</title>
<path fill="none" stroke="midnightblue" d="M612.443,-56.324C622.146,-48.2631 636.815,-36.0765 648.5,-26.3695"/>
<polygon fill="midnightblue" stroke="midnightblue" points="650.911,-28.9163 656.367,-19.8339 646.438,-23.532 650.911,-28.9163"/>
</g>
<!-- Node13 -->
<g id="node13" class="node"><title>Node13</title>
<polygon fill="white" stroke="#bfbfbf" points="711,-0.5 711,-19.5 761,-19.5 761,-0.5 711,-0.5"/>
<text text-anchor="middle" x="736" y="-7.5" font-family="Helvetica,sans-Serif" font-size="10.00">fstream</text>
</g>
<!-- Node2&#45;&gt;Node13 -->
<g id="edge12" class="edge"><title>Node2&#45;&gt;Node13</title>
<path fill="none" stroke="midnightblue" d="M623.233,-56.4435C645.384,-47.5171 680.319,-33.4387 705.436,-23.3168"/>
<polygon fill="midnightblue" stroke="midnightblue" points="706.9,-26.5006 714.867,-19.5164 704.283,-20.0079 706.9,-26.5006"/>
</g>
<!-- Node14 -->
<g id="node14" class="node"><title>Node14</title>
<polygon fill="white" stroke="#bfbfbf" points="779,-0.5 779,-19.5 809,-19.5 809,-0.5 779,-0.5"/>
<text text-anchor="middle" x="794" y="-7.5" font-family="Helvetica,sans-Serif" font-size="10.00">set</text>
</g>
<!-- Node2&#45;&gt;Node14 -->
<g id="edge13" class="edge"><title>Node2&#45;&gt;Node14</title>
<path fill="none" stroke="midnightblue" d="M636.068,-56.9056C668.209,-49.0425 717.887,-36.3072 769.238,-20.0198"/>
<polygon fill="midnightblue" stroke="midnightblue" points="770.39,-23.326 778.843,-16.9377 768.251,-16.6608 770.39,-23.326"/>
</g>
<!-- Node15 -->
<g id="node15" class="node"><title>Node15</title>
<polygon fill="white" stroke="#bfbfbf" points="827,-0.5 827,-19.5 871,-19.5 871,-0.5 827,-0.5"/>
<text text-anchor="middle" x="849" y="-7.5" font-family="Helvetica,sans-Serif" font-size="10.00">vector</text>
</g>
<!-- Node2&#45;&gt;Node15 -->
<g id="edge14" class="edge"><title>Node2&#45;&gt;Node15</title>
<path fill="none" stroke="midnightblue" d="M636.047,-58.6146C676.663,-50.8349 746.812,-36.8875 816.8,-19.9046"/>
<polygon fill="midnightblue" stroke="midnightblue" points="817.79,-23.2656 826.672,-17.4884 816.126,-16.4663 817.79,-23.2656"/>
</g>
<!-- Node16 -->
<g id="node16" class="node"><title>Node16</title>
<polygon fill="white" stroke="#bfbfbf" points="889,-0.5 889,-19.5 929,-19.5 929,-0.5 889,-0.5"/>
<text text-anchor="middle" x="909" y="-7.5" font-family="Helvetica,sans-Serif" font-size="10.00">utility</text>
</g>
<!-- Node2&#45;&gt;Node16 -->
<g id="edge15" class="edge"><title>Node2&#45;&gt;Node16</title>
<path fill="none" stroke="midnightblue" d="M636.394,-60.8798C689.038,-54.2442 792.588,-39.8915 879,-20 879.099,-19.9771 879.199,-19.9541 879.299,-19.9309"/>
<polygon fill="midnightblue" stroke="midnightblue" points="879.97,-23.373 888.763,-17.4615 878.203,-16.5997 879.97,-23.373"/>
</g>
<!-- Node17 -->
<g id="node17" class="node"><title>Node17</title>
<polygon fill="white" stroke="#bfbfbf" points="947,-0.5 947,-19.5 999,-19.5 999,-0.5 947,-0.5"/>
<text text-anchor="middle" x="973" y="-7.5" font-family="Helvetica,sans-Serif" font-size="10.00">memory</text>
</g>
<!-- Node2&#45;&gt;Node17 -->
<g id="edge16" class="edge"><title>Node2&#45;&gt;Node17</title>
<path fill="none" stroke="midnightblue" d="M636.078,-61.7854C695.291,-55.9091 821.137,-42.1369 936.632,-20.0692"/>
<polygon fill="midnightblue" stroke="midnightblue" points="937.551,-23.4565 946.703,-18.1185 936.22,-16.5842 937.551,-23.4565"/>
</g>
<!-- Node18 -->
<g id="node18" class="node"><title>Node18</title>
<polygon fill="white" stroke="#bfbfbf" points="1017,-0.5 1017,-19.5 1069,-19.5 1069,-0.5 1017,-0.5"/>
<text text-anchor="middle" x="1043" y="-7.5" font-family="Helvetica,sans-Serif" font-size="10.00">ostream</text>
</g>
<!-- Node2&#45;&gt;Node18 -->
<g id="edge17" class="edge"><title>Node2&#45;&gt;Node18</title>
<path fill="none" stroke="midnightblue" d="M636.189,-62.849C704.697,-58.188 863.76,-45.6036 1006.47,-20.0463"/>
<polygon fill="midnightblue" stroke="midnightblue" points="1007.5,-23.416 1016.72,-18.1836 1006.25,-16.5289 1007.5,-23.416"/>
</g>
<!-- Node19 -->
<g id="node19" class="node"><title>Node19</title>
<g id="a_node19"><a xlink:href="swig_8h.html" target="_top" xlink:title="Used to give commands specifically to the SWIG preprocessor. ">
<polygon fill="white" stroke="black" points="1087.5,-0.5 1087.5,-19.5 1132.5,-19.5 1132.5,-0.5 1087.5,-0.5"/>
<text text-anchor="middle" x="1110" y="-7.5" font-family="Helvetica,sans-Serif" font-size="10.00">swig.h</text>
</a>
</g>
</g>
<!-- Node2&#45;&gt;Node19 -->
<g id="edge18" class="edge"><title>Node2&#45;&gt;Node19</title>
<path fill="none" stroke="midnightblue" d="M636.053,-63.8818C713.084,-60.9051 906.624,-50.9139 1077.47,-19.7408"/>
<polygon fill="midnightblue" stroke="midnightblue" points="1078.2,-23.1655 1087.39,-17.9013 1076.92,-16.2828 1078.2,-23.1655"/>
</g>
<!-- Node20&#45;&gt;Node2 -->
<g id="edge20" class="edge"><title>Node20&#45;&gt;Node2</title>
<path fill="none" stroke="midnightblue" d="M605.849,-280.424C584.972,-264.848 542.993,-229.643 527,-188 511.169,-146.779 553.966,-104.159 581.268,-82.1701"/>
<polygon fill="midnightblue" stroke="midnightblue" points="583.741,-84.681 589.493,-75.7839 579.448,-79.1517 583.741,-84.681"/>
</g>
<!-- Node21 -->
<g id="node21" class="node"><title>Node21</title>
<g id="a_node21"><a xlink:href="doublebufferedresource_8h.html" target="_top" xlink:title="This file defines the template double buffered resources that can be attached to a thread...">
<polygon fill="white" stroke="black" points="630,-112.5 630,-131.5 756,-131.5 756,-112.5 630,-112.5"/>
<text text-anchor="middle" x="693" y="-119.5" font-family="Helvetica,sans-Serif" font-size="10.00">doublebufferedresource.h</text>
</a>
</g>
</g>
<!-- Node20&#45;&gt;Node21 -->
<g id="edge21" class="edge"><title>Node20&#45;&gt;Node21</title>
<path fill="none" stroke="midnightblue" d="M625.811,-280.206C645.716,-257.698 697.059,-199.004 701,-188 706.391,-172.948 703.446,-154.819 699.695,-141.535"/>
<polygon fill="midnightblue" stroke="midnightblue" points="702.921,-140.134 696.521,-131.691 696.259,-142.282 702.921,-140.134"/>
</g>
<!-- Node20&#45;&gt;Node22 -->
<g id="edge23" class="edge"><title>Node20&#45;&gt;Node22</title>
<path fill="none" stroke="midnightblue" d="M597.401,-280.444C576.007,-271.557 542.319,-257.563 517.976,-247.451"/>
<polygon fill="midnightblue" stroke="midnightblue" points="519.08,-244.12 508.503,-243.516 516.395,-250.585 519.08,-244.12"/>
</g>
<!-- Node23 -->
<g id="node23" class="node"><title>Node23</title>
<g id="a_node23"><a xlink:href="systemcalls_8h.html" target="_top" xlink:title="This file defines a minimalistic cross&#45;platform thread that the scheduler uses to schedule tasks...">
<polygon fill="white" stroke="black" points="536.5,-168.5 536.5,-187.5 613.5,-187.5 613.5,-168.5 536.5,-168.5"/>
<text text-anchor="middle" x="575" y="-175.5" font-family="Helvetica,sans-Serif" font-size="10.00">systemcalls.h</text>
</a>
</g>
</g>
<!-- Node20&#45;&gt;Node23 -->
<g id="edge33" class="edge"><title>Node20&#45;&gt;Node23</title>
<path fill="none" stroke="midnightblue" d="M614.626,-280.368C607.624,-262.456 591.388,-220.923 582.016,-196.948"/>
<polygon fill="midnightblue" stroke="midnightblue" points="585.259,-195.631 578.358,-187.591 578.74,-198.179 585.259,-195.631"/>
</g>
<!-- Node20&#45;&gt;Node26 -->
<g id="edge29" class="edge"><title>Node20&#45;&gt;Node26</title>
<path fill="none" stroke="midnightblue" d="M634.87,-280.324C651.709,-271.664 677.807,-258.242 697.238,-248.249"/>
<polygon fill="midnightblue" stroke="midnightblue" points="698.88,-251.341 706.172,-243.655 695.678,-245.116 698.88,-251.341"/>
</g>
<!-- Node27 -->
<g id="node27" class="node"><title>Node27</title>
<g id="a_node27"><a xlink:href="spinlock_8h.html" target="_top" xlink:title="Declares a Mutex, Mutex tools, and at least one MutexLike object. ">
<polygon fill="white" stroke="black" points="631.5,-168.5 631.5,-187.5 692.5,-187.5 692.5,-168.5 631.5,-168.5"/>
<text text-anchor="middle" x="662" y="-175.5" font-family="Helvetica,sans-Serif" font-size="10.00">spinlock.h</text>
</a>
</g>
</g>
<!-- Node20&#45;&gt;Node27 -->
<g id="edge31" class="edge"><title>Node20&#45;&gt;Node27</title>
<path fill="none" stroke="midnightblue" d="M621.081,-280.099C625.485,-267.513 633.939,-243.837 642,-224 645.666,-214.978 650.029,-205.076 653.743,-196.863"/>
<polygon fill="midnightblue" stroke="midnightblue" points="657.023,-198.106 658,-187.556 650.658,-195.194 657.023,-198.106"/>
</g>
<!-- Node20&#45;&gt;Node28 -->
<g id="edge34" class="edge"><title>Node20&#45;&gt;Node28</title>
<path fill="none" stroke="midnightblue" d="M650.324,-280.444C685.389,-271.162 741.498,-256.309 779.965,-246.127"/>
<polygon fill="midnightblue" stroke="midnightblue" points="781.055,-249.459 789.827,-243.516 779.264,-242.692 781.055,-249.459"/>
</g>
<!-- Node21&#45;&gt;Node2 -->
<g id="edge22" class="edge"><title>Node21&#45;&gt;Node2</title>
<path fill="none" stroke="midnightblue" d="M678.379,-112.324C664.051,-103.822 641.987,-90.7288 625.251,-80.7975"/>
<polygon fill="midnightblue" stroke="midnightblue" points="626.97,-77.7478 616.584,-75.6545 623.398,-83.7677 626.97,-77.7478"/>
</g>
<!-- Node22&#45;&gt;Node23 -->
<g id="edge24" class="edge"><title>Node22&#45;&gt;Node23</title>
<path fill="none" stroke="midnightblue" d="M501.978,-224.324C515.55,-215.9 536.38,-202.971 552.325,-193.074"/>
<polygon fill="midnightblue" stroke="midnightblue" points="554.406,-195.902 561.057,-187.655 550.714,-189.954 554.406,-195.902"/>
</g>
<!-- Node22&#45;&gt;Node24 -->
<g id="edge26" class="edge"><title>Node22&#45;&gt;Node24</title>
<path fill="none" stroke="midnightblue" d="M480.239,-224.083C473.463,-216.298 463.457,-204.801 455.245,-195.367"/>
<polygon fill="midnightblue" stroke="midnightblue" points="457.822,-192.996 448.617,-187.751 452.542,-197.592 457.822,-192.996"/>
</g>
<!-- Node23&#45;&gt;Node2 -->
<g id="edge25" class="edge"><title>Node23&#45;&gt;Node2</title>
<path fill="none" stroke="midnightblue" d="M576.476,-168.103C578.633,-155.521 582.942,-131.85 588,-112 590.276,-103.069 593.259,-93.2856 595.887,-85.1285"/>
<polygon fill="midnightblue" stroke="midnightblue" points="599.238,-86.1439 599.047,-75.5508 592.59,-83.9505 599.238,-86.1439"/>
</g>
<!-- Node25 -->
<g id="node25" class="node"><title>Node25</title>
<g id="a_node25"><a xlink:href="atomicoperations_8h.html" target="_top" xlink:title="Simple thread safe ways to check and change a specified variable atomically. ">
<polygon fill="white" stroke="black" points="391.5,-112.5 391.5,-131.5 490.5,-131.5 490.5,-112.5 391.5,-112.5"/>
<text text-anchor="middle" x="441" y="-119.5" font-family="Helvetica,sans-Serif" font-size="10.00">atomicoperations.h</text>
</a>
</g>
</g>
<!-- Node24&#45;&gt;Node25 -->
<g id="edge27" class="edge"><title>Node24&#45;&gt;Node25</title>
<path fill="none" stroke="midnightblue" d="M441,-168.083C441,-161.006 441,-150.861 441,-141.986"/>
<polygon fill="midnightblue" stroke="midnightblue" points="444.5,-141.751 441,-131.751 437.5,-141.751 444.5,-141.751"/>
</g>
<!-- Node25&#45;&gt;Node2 -->
<g id="edge28" class="edge"><title>Node25&#45;&gt;Node2</title>
<path fill="none" stroke="midnightblue" d="M466.511,-112.444C493.596,-103.359 536.59,-88.9388 566.869,-78.7831"/>
<polygon fill="midnightblue" stroke="midnightblue" points="568.24,-82.0148 576.608,-75.5164 566.014,-75.3781 568.24,-82.0148"/>
</g>
<!-- Node26&#45;&gt;Node2 -->
<g id="edge30" class="edge"><title>Node26&#45;&gt;Node2</title>
<path fill="none" stroke="midnightblue" d="M731.171,-224.207C749.912,-202.956 792.344,-147.916 765,-112 750.636,-93.1326 689.49,-80.1577 646.326,-73.1518"/>
<polygon fill="midnightblue" stroke="midnightblue" points="646.747,-69.675 636.325,-71.5819 645.661,-76.5904 646.747,-69.675"/>
</g>
<!-- Node27&#45;&gt;Node2 -->
<g id="edge32" class="edge"><title>Node27&#45;&gt;Node2</title>
<path fill="none" stroke="midnightblue" d="M651.815,-168.346C642.532,-159.941 629.073,-146.376 621,-132 612.905,-117.584 607.97,-99.3923 605.166,-85.923"/>
<polygon fill="midnightblue" stroke="midnightblue" points="608.571,-85.0904 603.29,-75.9059 601.691,-86.3795 608.571,-85.0904"/>
</g>
<!-- Node28&#45;&gt;Node2 -->
<g id="edge35" class="edge"><title>Node28&#45;&gt;Node2</title>
<path fill="none" stroke="midnightblue" d="M821.992,-224.187C821.472,-201.909 816.89,-142.914 784,-112 764.28,-93.4643 693.38,-80.0211 646.114,-72.8759"/>
<polygon fill="midnightblue" stroke="midnightblue" points="646.524,-69.3986 636.121,-71.4052 645.505,-76.324 646.524,-69.3986"/>
</g>
<!-- Node29&#45;&gt;Node2 -->
<g id="edge39" class="edge"><title>Node29&#45;&gt;Node2</title>
<path fill="none" stroke="midnightblue" d="M882.721,-280.327C882.081,-267.615 879.967,-243.334 873,-224 853.335,-169.43 853.06,-145.91 806,-112 758.873,-78.0416 690.867,-68.9604 646.552,-66.9203"/>
<polygon fill="midnightblue" stroke="midnightblue" points="646.493,-63.416 636.374,-66.5562 646.242,-70.4115 646.493,-63.416"/>
</g>
</g>
</svg>
        <g id="navigator" transform="translate(0 0)" fill="#404254">
                <rect fill="#f2f5e9" fill-opacity="0.5" stroke="#606060" stroke-width=".5" x="0" y="0" width="60" height="60"/>
                <use id="zoomplus" xlink:href="#zoomPlus" x="17" y="9" onmousedown="handleZoom(evt,'in')"/>
                <use id="zoomminus" xlink:href="#zoomMin" x="42" y="9" onmousedown="handleZoom(evt,'out')"/>
                <use id="reset" xlink:href="#resetDef" x="30" y="36" onmousedown="handleReset()"/>
                <g id="arrowUp" xlink:href="#dirArrow" transform="translate(30 24)" onmousedown="handlePan(0,-1)">
                  <use xlink:href="#rim" fill="#404040">
                        <set attributeName="fill" to="#808080" begin="arrowUp.mouseover" end="arrowUp.mouseout"/>
                  </use>
                  <path fill="none" stroke="white" stroke-width="1.5" d="M0,-3.0v7 M-2.5,-0.5L0,-3.0L2.5,-0.5"/>
                </g>
                <g id="arrowRight" xlink:href="#dirArrow" transform="rotate(90) translate(36 -43)" onmousedown="handlePan(1,0)">
                  <use xlink:href="#rim" fill="#404040">
                        <set attributeName="fill" to="#808080" begin="arrowRight.mouseover" end="arrowRight.mouseout"/>
                  </use>
                  <path fill="none" stroke="white" stroke-width="1.5" d="M0,-3.0v7 M-2.5,-0.5L0,-3.0L2.5,-0.5"/>
                </g>
                <g id="arrowDown" xlink:href="#dirArrow" transform="rotate(180) translate(-30 -48)" onmousedown="handlePan(0,1)">
                  <use xlink:href="#rim" fill="#404040">
                        <set attributeName="fill" to="#808080" begin="arrowDown.mouseover" end="arrowDown.mouseout"/>
                  </use>
                  <path fill="none" stroke="white" stroke-width="1.5" d="M0,-3.0v7 M-2.5,-0.5L0,-3.0L2.5,-0.5"/>
                </g>
                <g id="arrowLeft" xlink:href="#dirArrow" transform="rotate(270) translate(-36 17)" onmousedown="handlePan(-1,0)">
                  <use xlink:href="#rim" fill="#404040">
                        <set attributeName="fill" to="#808080" begin="arrowLeft.mouseover" end="arrowLeft.mouseout"/>
                  </use>
                  <path fill="none" stroke="white" stroke-width="1.5" d="M0,-3.0v7 M-2.5,-0.5L0,-3.0L2.5,-0.5"/>
                </g>
        </g>
        <svg viewBox="0 0 15 15" width="100%" height="30px" preserveAspectRatio="xMaxYMin meet">
         <g id="arrow_out" transform="scale(0.3 0.3)">
          <a xlink:href="workunit_8h__incl_org.svg" target="_base">
           <rect id="button" ry="5" rx="5" y="6" x="6" height="38" width="38"
                fill="#f2f5e9" fill-opacity="0.5" stroke="#606060" stroke-width="1.0"/>
           <path id="arrow"
             d="M 11.500037,31.436501 C 11.940474,20.09759 22.043105,11.32322 32.158766,21.979434 L 37.068811,17.246167 C 37.068811,17.246167 37.088388,32 37.088388,32 L 22.160133,31.978069 C 22.160133,31.978069 26.997745,27.140456 26.997745,27.140456 C 18.528582,18.264221 13.291696,25.230495 11.500037,31.436501 z"
             style="fill:#404040;"/>
          </a>
         </g>
        </svg>
</svg>
