<?xml version="1.0" encoding="UTF-8" standalone="no"?>
<!DOCTYPE svg PUBLIC "-//W3C//DTD SVG 1.1//EN"
 "http://www.w3.org/Graphics/SVG/1.1/DTD/svg11.dtd">
<!-- Generated by graphviz version 2.26.3 (20100126.1600)
 -->
<!-- Title: /home/sqeaky/Code/Mezzanine/Mezzanine/src/Threading/workunit.h Pages: 1 -->
<svg width="1044pt" height="402pt"
 viewBox="0.00 0.00 1044.00 402.00" xmlns="http://www.w3.org/2000/svg" xmlns:xlink="http://www.w3.org/1999/xlink">
<g id="graph1" class="graph" transform="scale(1 1) rotate(0) translate(4 398)">
<title>/home/sqeaky/Code/Mezzanine/Mezzanine/src/Threading/workunit.h</title>
<polygon fill="white" stroke="white" points="-4,5 -4,-398 1041,-398 1041,5 -4,5"/>
<!-- Node1 -->
<g id="node1" class="node"><title>Node1</title>
<polygon fill="#bfbfbf" stroke="black" points="506.5,-349 506.5,-393 657.5,-393 657.5,-349 506.5,-349"/>
<text text-anchor="start" x="514.5" y="-380" font-family="FreeSans" font-size="10.00">/home/sqeaky/Code/Mezzanine</text>
<text text-anchor="start" x="514.5" y="-368" font-family="FreeSans" font-size="10.00">/Mezzanine/src/Threading</text>
<text text-anchor="middle" x="582" y="-356" font-family="FreeSans" font-size="10.00">/workunit.h</text>
</g>
<!-- Node2 -->
<g id="node3" class="node"><title>Node2</title>
<a xlink:href="datatypes_8h.html" target="_top" xlink:title="All the definitions for datatypes as well as some basic conversion functions are defined here...">
<polygon fill="white" stroke="black" points="496.5,-59 496.5,-79 561.5,-79 561.5,-59 496.5,-59"/>
<text text-anchor="middle" x="529" y="-66" font-family="FreeSans" font-size="10.00">datatypes.h</text>
</a>
</g>
<!-- Node1&#45;&gt;Node2 -->
<g id="edge2" class="edge"><title>Node1&#45;&gt;Node2</title>
<path fill="none" stroke="midnightblue" d="M641.85,-348.917C694.955,-325.428 760.729,-284.443 737,-232 702.779,-156.371 613.026,-106.223 563.335,-83.3167"/>
<polygon fill="midnightblue" stroke="midnightblue" points="564.514,-80.0097 553.959,-79.0993 561.643,-86.3936 564.514,-80.0097"/>
</g>
<!-- Node14 -->
<g id="node27" class="node"><title>Node14</title>
<polygon fill="white" stroke="#bfbfbf" points="993.5,-1 993.5,-21 1036.5,-21 1036.5,-1 993.5,-1"/>
<text text-anchor="middle" x="1015" y="-8" font-family="FreeSans" font-size="10.00">vector</text>
</g>
<!-- Node1&#45;&gt;Node14 -->
<g id="edge104" class="edge"><title>Node1&#45;&gt;Node14</title>
<path fill="none" stroke="midnightblue" d="M657.934,-363.216C777.452,-348.833 996,-312.966 996,-243 996,-243 996,-243 996,-127 996,-92.9773 1004.06,-54.0709 1009.68,-31.0715"/>
<polygon fill="midnightblue" stroke="midnightblue" points="1013.13,-31.7034 1012.2,-21.1498 1006.34,-29.9818 1013.13,-31.7034"/>
</g>
<!-- Node19 -->
<g id="node37" class="node"><title>Node19</title>
<a xlink:href="framescheduler_8h.html" target="_top" xlink:title="This file has the Declarations for the main FrameScheduler class.">
<polygon fill="white" stroke="black" points="477,-291 477,-311 567,-311 567,-291 477,-291"/>
<text text-anchor="middle" x="522" y="-298" font-family="FreeSans" font-size="10.00">framescheduler.h</text>
</a>
</g>
<!-- Node1&#45;&gt;Node19 -->
<g id="edge36" class="edge"><title>Node1&#45;&gt;Node19</title>
<path fill="none" stroke="midnightblue" d="M563.016,-348.852C554.709,-339.161 545.095,-327.944 537.263,-318.807"/>
<polygon fill="midnightblue" stroke="midnightblue" points="539.826,-316.419 530.66,-311.104 534.511,-320.974 539.826,-316.419"/>
</g>
<!-- Node21 -->
<g id="node46" class="node"><title>Node21</title>
<a xlink:href="thread_8h.html" target="_top" xlink:title="This file defines a minimalistic cross&#45;platform thread that the scheduler uses to schedule tasks...">
<polygon fill="white" stroke="black" points="285.5,-233 285.5,-253 336.5,-253 336.5,-233 285.5,-233"/>
<text text-anchor="middle" x="311" y="-240" font-family="FreeSans" font-size="10.00">thread.h</text>
</a>
</g>
<!-- Node1&#45;&gt;Node21 -->
<g id="edge100" class="edge"><title>Node1&#45;&gt;Node21</title>
<path fill="none" stroke="midnightblue" d="M535.413,-348.996C479.914,-322.782 388.784,-279.74 341.541,-257.425"/>
<polygon fill="midnightblue" stroke="midnightblue" points="342.965,-254.227 332.428,-253.121 339.975,-260.556 342.965,-254.227"/>
</g>
<!-- Node23 -->
<g id="node51" class="node"><title>Node23</title>
<a xlink:href="mutex_8h.html" target="_top" xlink:title="This file declares and defines a mutex that is a partial implementation.">
<polygon fill="white" stroke="black" points="233,-175 233,-195 283,-195 283,-175 233,-175"/>
<text text-anchor="middle" x="258" y="-182" font-family="FreeSans" font-size="10.00">mutex.h</text>
</a>
</g>
<!-- Node1&#45;&gt;Node23 -->
<g id="edge92" class="edge"><title>Node1&#45;&gt;Node23</title>
<path fill="none" stroke="midnightblue" d="M506.271,-362.17C436.497,-349.954 335.226,-321.177 277,-254 265.327,-240.533 260.77,-220.495 259.019,-205.478"/>
<polygon fill="midnightblue" stroke="midnightblue" points="262.478,-204.838 258.156,-195.165 255.503,-205.422 262.478,-204.838"/>
</g>
<!-- Node25 -->
<g id="node59" class="node"><title>Node25</title>
<a xlink:href="workunitkey_8h.html" target="_top" xlink:title="This file defines the metadata used to sort workunits.">
<polygon fill="white" stroke="black" points="653.5,-233 653.5,-253 728.5,-253 728.5,-233 653.5,-233"/>
<text text-anchor="middle" x="691" y="-240" font-family="FreeSans" font-size="10.00">workunitkey.h</text>
</a>
</g>
<!-- Node1&#45;&gt;Node25 -->
<g id="edge102" class="edge"><title>Node1&#45;&gt;Node25</title>
<path fill="none" stroke="midnightblue" d="M600.738,-348.996C621.989,-324.041 656.227,-283.834 675.86,-260.779"/>
<polygon fill="midnightblue" stroke="midnightblue" points="678.563,-263.004 682.382,-253.121 673.233,-258.465 678.563,-263.004"/>
</g>
<!-- Node26 -->
<g id="node63" class="node"><title>Node26</title>
<a xlink:href="rollingaverage_8h.html" target="_top" xlink:title="This stores the implementation and the declaration of the RollingAverage, BufferedRollingAverage, WeightedRollingAverage and the DefaultRollingAverage.">
<polygon fill="white" stroke="black" points="848.5,-117 848.5,-137 931.5,-137 931.5,-117 848.5,-117"/>
<text text-anchor="middle" x="890" y="-124" font-family="FreeSans" font-size="10.00">rollingaverage.h</text>
</a>
</g>
<!-- Node1&#45;&gt;Node26 -->
<g id="edge94" class="edge"><title>Node1&#45;&gt;Node26</title>
<path fill="none" stroke="midnightblue" d="M657.539,-359.596C694.263,-351.15 737.394,-336.656 770,-312 829.172,-267.255 867.521,-184.248 882.666,-146.542"/>
<polygon fill="midnightblue" stroke="midnightblue" points="885.946,-147.767 886.321,-137.178 879.425,-145.222 885.946,-147.767"/>
</g>
<!-- Node29 -->
<g id="node77" class="node"><title>Node29</title>
<a xlink:href="threadingenumerations_8h.html" target="_top" xlink:title="Any enumerations the threading library requires are all declared here.">
<polygon fill="white" stroke="black" points="107,-291 107,-311 229,-311 229,-291 107,-291"/>
<text text-anchor="middle" x="168" y="-298" font-family="FreeSans" font-size="10.00">threadingenumerations.h</text>
</a>
</g>
<!-- Node1&#45;&gt;Node29 -->
<g id="edge96" class="edge"><title>Node1&#45;&gt;Node29</title>
<path fill="none" stroke="midnightblue" d="M506.066,-358.161C429.372,-345.193 311.901,-325.331 237.565,-312.762"/>
<polygon fill="midnightblue" stroke="midnightblue" points="237.815,-309.255 227.371,-311.039 236.648,-316.157 237.815,-309.255"/>
</g>
<!-- Node3 -->
<g id="node5" class="node"><title>Node3</title>
<a xlink:href="crossplatformexport_8h.html" target="_top" xlink:title="This file is used on some platforms to determine what data should be read and written to and from a s...">
<polygon fill="white" stroke="black" points="726,-1 726,-21 834,-21 834,-1 726,-1"/>
<text text-anchor="middle" x="780" y="-8" font-family="FreeSans" font-size="10.00">crossplatformexport.h</text>
</a>
</g>
<!-- Node2&#45;&gt;Node3 -->
<g id="edge4" class="edge"><title>Node2&#45;&gt;Node3</title>
<path fill="none" stroke="midnightblue" d="M561.557,-61.477C603.377,-51.8133 676.523,-34.9109 726.558,-23.349"/>
<polygon fill="midnightblue" stroke="midnightblue" points="727.598,-26.7012 736.553,-21.0396 726.022,-19.8809 727.598,-26.7012"/>
</g>
<!-- Node4 -->
<g id="node7" class="node"><title>Node4</title>
<polygon fill="white" stroke="#bfbfbf" points="223.5,-1 223.5,-21 270.5,-21 270.5,-1 223.5,-1"/>
<text text-anchor="middle" x="247" y="-8" font-family="FreeSans" font-size="10.00">stdint.h</text>
</g>
<!-- Node2&#45;&gt;Node4 -->
<g id="edge6" class="edge"><title>Node2&#45;&gt;Node4</title>
<path fill="none" stroke="midnightblue" d="M496.302,-64.4047C450.059,-57.5706 362.825,-43.448 280.412,-22.1242"/>
<polygon fill="midnightblue" stroke="midnightblue" points="281.209,-18.715 270.648,-19.5575 279.429,-25.485 281.209,-18.715"/>
</g>
<!-- Node5 -->
<g id="node9" class="node"><title>Node5</title>
<polygon fill="white" stroke="#bfbfbf" points="288,-1 288,-21 336,-21 336,-1 288,-1"/>
<text text-anchor="middle" x="312" y="-8" font-family="FreeSans" font-size="10.00">cstddef</text>
</g>
<!-- Node2&#45;&gt;Node5 -->
<g id="edge8" class="edge"><title>Node2&#45;&gt;Node5</title>
<path fill="none" stroke="midnightblue" d="M496.235,-61.3809C461.235,-53.0779 403.955,-39.0192 345.804,-22.1021"/>
<polygon fill="midnightblue" stroke="midnightblue" points="346.669,-18.7083 336.088,-19.2507 344.697,-25.4251 346.669,-18.7083"/>
</g>
<!-- Node6 -->
<g id="node11" class="node"><title>Node6</title>
<polygon fill="white" stroke="#bfbfbf" points="852,-1 852,-21 908,-21 908,-1 852,-1"/>
<text text-anchor="middle" x="880" y="-8" font-family="FreeSans" font-size="10.00">algorithm</text>
</g>
<!-- Node2&#45;&gt;Node6 -->
<g id="edge10" class="edge"><title>Node2&#45;&gt;Node6</title>
<path fill="none" stroke="midnightblue" d="M561.824,-65.6238C617.53,-59.5636 734.228,-45.4404 841.781,-22.039"/>
<polygon fill="midnightblue" stroke="midnightblue" points="842.816,-25.395 851.825,-19.8202 841.306,-18.5598 842.816,-25.395"/>
</g>
<!-- Node7 -->
<g id="node13" class="node"><title>Node7</title>
<polygon fill="white" stroke="#bfbfbf" points="354,-1 354,-21 412,-21 412,-1 354,-1"/>
<text text-anchor="middle" x="383" y="-8" font-family="FreeSans" font-size="10.00">exception</text>
</g>
<!-- Node2&#45;&gt;Node7 -->
<g id="edge12" class="edge"><title>Node2&#45;&gt;Node7</title>
<path fill="none" stroke="midnightblue" d="M503.569,-58.8972C479.952,-49.5152 444.57,-35.4593 418.236,-24.9979"/>
<polygon fill="midnightblue" stroke="midnightblue" points="419.215,-21.6209 408.63,-21.1817 416.631,-28.1264 419.215,-21.6209"/>
</g>
<!-- Node8 -->
<g id="node15" class="node"><title>Node8</title>
<polygon fill="white" stroke="#bfbfbf" points="430,-1 430,-21 478,-21 478,-1 430,-1"/>
<text text-anchor="middle" x="454" y="-8" font-family="FreeSans" font-size="10.00">istream</text>
</g>
<!-- Node2&#45;&gt;Node8 -->
<g id="edge14" class="edge"><title>Node2&#45;&gt;Node8</title>
<path fill="none" stroke="midnightblue" d="M515.936,-58.8972C504.713,-50.2178 488.317,-37.5384 475.214,-27.4053"/>
<polygon fill="midnightblue" stroke="midnightblue" points="477.218,-24.5305 467.166,-21.1817 472.935,-30.0679 477.218,-24.5305"/>
</g>
<!-- Node9 -->
<g id="node17" class="node"><title>Node9</title>
<polygon fill="white" stroke="#bfbfbf" points="495.5,-1 495.5,-21 524.5,-21 524.5,-1 495.5,-1"/>
<text text-anchor="middle" x="510" y="-8" font-family="FreeSans" font-size="10.00">list</text>
</g>
<!-- Node2&#45;&gt;Node9 -->
<g id="edge16" class="edge"><title>Node2&#45;&gt;Node9</title>
<path fill="none" stroke="midnightblue" d="M525.69,-58.8972C523.188,-51.2569 519.669,-40.517 516.599,-31.1429"/>
<polygon fill="midnightblue" stroke="midnightblue" points="519.839,-29.7911 513.4,-21.3776 513.187,-31.9703 519.839,-29.7911"/>
</g>
<!-- Node10 -->
<g id="node19" class="node"><title>Node10</title>
<polygon fill="white" stroke="#bfbfbf" points="-0.5,-1 -0.5,-21 34.5,-21 34.5,-1 -0.5,-1"/>
<text text-anchor="middle" x="17" y="-8" font-family="FreeSans" font-size="10.00">map</text>
</g>
<!-- Node2&#45;&gt;Node10 -->
<g id="edge18" class="edge"><title>Node2&#45;&gt;Node10</title>
<path fill="none" stroke="midnightblue" d="M496.259,-67.1318C404.829,-61.7165 147.267,-45.0596 44.6655,-21.7347"/>
<polygon fill="midnightblue" stroke="midnightblue" points="45.199,-18.2627 34.6558,-19.3081 43.5497,-25.0656 45.199,-18.2627"/>
</g>
<!-- Node11 -->
<g id="node21" class="node"><title>Node11</title>
<polygon fill="white" stroke="#bfbfbf" points="52,-1 52,-21 92,-21 92,-1 52,-1"/>
<text text-anchor="middle" x="72" y="-8" font-family="FreeSans" font-size="10.00">string</text>
</g>
<!-- Node2&#45;&gt;Node11 -->
<g id="edge20" class="edge"><title>Node2&#45;&gt;Node11</title>
<path fill="none" stroke="midnightblue" d="M496.305,-68.2195C425.585,-65.9366 253.251,-57.1642 102.006,-21.733"/>
<polygon fill="midnightblue" stroke="midnightblue" points="102.615,-18.28 92.0756,-19.3604 100.988,-25.0884 102.615,-18.28"/>
</g>
<!-- Node12 -->
<g id="node23" class="node"><title>Node12</title>
<polygon fill="white" stroke="#bfbfbf" points="926,-1 926,-21 976,-21 976,-1 926,-1"/>
<text text-anchor="middle" x="951" y="-8" font-family="FreeSans" font-size="10.00">sstream</text>
</g>
<!-- Node2&#45;&gt;Node12 -->
<g id="edge22" class="edge"><title>Node2&#45;&gt;Node12</title>
<path fill="none" stroke="midnightblue" d="M561.546,-67.1776C627.106,-63.0546 779.742,-51.1725 916.109,-21.8576"/>
<polygon fill="midnightblue" stroke="midnightblue" points="916.876,-25.2725 925.897,-19.7167 915.381,-18.4342 916.876,-25.2725"/>
</g>
<!-- Node13 -->
<g id="node25" class="node"><title>Node13</title>
<polygon fill="white" stroke="#bfbfbf" points="177.5,-1 177.5,-21 206.5,-21 206.5,-1 177.5,-1"/>
<text text-anchor="middle" x="192" y="-8" font-family="FreeSans" font-size="10.00">set</text>
</g>
<!-- Node2&#45;&gt;Node13 -->
<g id="edge24" class="edge"><title>Node2&#45;&gt;Node13</title>
<path fill="none" stroke="midnightblue" d="M496.203,-67.2991C440.04,-63.7065 322.036,-53.186 216.665,-21.8744"/>
<polygon fill="midnightblue" stroke="midnightblue" points="217.422,-18.4462 206.836,-18.8807 215.382,-25.1425 217.422,-18.4462"/>
</g>
<!-- Node2&#45;&gt;Node14 -->
<g id="edge26" class="edge"><title>Node2&#45;&gt;Node14</title>
<path fill="none" stroke="midnightblue" d="M561.517,-68.4108C635.372,-66.4889 821.304,-58.3568 983.106,-22.0122"/>
<polygon fill="midnightblue" stroke="midnightblue" points="984.27,-25.3363 993.236,-19.692 982.707,-18.513 984.27,-25.3363"/>
</g>
<!-- Node15 -->
<g id="node29" class="node"><title>Node15</title>
<polygon fill="white" stroke="#bfbfbf" points="541.5,-1 541.5,-21 580.5,-21 580.5,-1 541.5,-1"/>
<text text-anchor="middle" x="561" y="-8" font-family="FreeSans" font-size="10.00">utility</text>
</g>
<!-- Node2&#45;&gt;Node15 -->
<g id="edge28" class="edge"><title>Node2&#45;&gt;Node15</title>
<path fill="none" stroke="midnightblue" d="M534.574,-58.8972C538.925,-51.0104 545.099,-39.8209 550.385,-30.2401"/>
<polygon fill="midnightblue" stroke="midnightblue" points="553.508,-31.8242 555.274,-21.3776 547.379,-28.4426 553.508,-31.8242"/>
</g>
<!-- Node16 -->
<g id="node31" class="node"><title>Node16</title>
<polygon fill="white" stroke="#bfbfbf" points="597.5,-1 597.5,-21 648.5,-21 648.5,-1 597.5,-1"/>
<text text-anchor="middle" x="623" y="-8" font-family="FreeSans" font-size="10.00">memory</text>
</g>
<!-- Node2&#45;&gt;Node16 -->
<g id="edge30" class="edge"><title>Node2&#45;&gt;Node16</title>
<path fill="none" stroke="midnightblue" d="M545.374,-58.8972C559.842,-49.9698 581.169,-36.8106 597.809,-26.5431"/>
<polygon fill="midnightblue" stroke="midnightblue" points="599.826,-29.4114 606.499,-21.1817 596.15,-23.4541 599.826,-29.4114"/>
</g>
<!-- Node17 -->
<g id="node33" class="node"><title>Node17</title>
<polygon fill="white" stroke="#bfbfbf" points="109.5,-1 109.5,-21 160.5,-21 160.5,-1 109.5,-1"/>
<text text-anchor="middle" x="135" y="-8" font-family="FreeSans" font-size="10.00">ostream</text>
</g>
<!-- Node2&#45;&gt;Node17 -->
<g id="edge32" class="edge"><title>Node2&#45;&gt;Node17</title>
<path fill="none" stroke="midnightblue" d="M496.381,-66.7519C434.453,-62.0547 295.567,-49.4658 170.945,-22.1551"/>
<polygon fill="midnightblue" stroke="midnightblue" points="171.375,-18.6652 160.853,-19.9038 169.851,-25.4973 171.375,-18.6652"/>
</g>
<!-- Node18 -->
<g id="node35" class="node"><title>Node18</title>
<a xlink:href="swig_8h.html" target="_top" xlink:title="Used to give commands specifically to the SWIG preprocessor.">
<polygon fill="white" stroke="black" points="665.5,-1 665.5,-21 708.5,-21 708.5,-1 665.5,-1"/>
<text text-anchor="middle" x="687" y="-8" font-family="FreeSans" font-size="10.00">swig.h</text>
</a>
</g>
<!-- Node2&#45;&gt;Node18 -->
<g id="edge34" class="edge"><title>Node2&#45;&gt;Node18</title>
<path fill="none" stroke="midnightblue" d="M556.521,-58.8972C584.203,-48.7357 626.82,-33.0916 655.755,-22.4697"/>
<polygon fill="midnightblue" stroke="midnightblue" points="657.191,-25.671 665.372,-18.9393 654.779,-19.0997 657.191,-25.671"/>
</g>
<!-- Node19&#45;&gt;Node2 -->
<g id="edge38" class="edge"><title>Node19&#45;&gt;Node2</title>
<path fill="none" stroke="midnightblue" d="M522.9,-290.875C524.514,-272.159 527.839,-230.876 529,-196 530.253,-158.354 529.834,-114.396 529.416,-89.3151"/>
<polygon fill="midnightblue" stroke="midnightblue" points="532.914,-89.1442 529.23,-79.2102 525.915,-89.2729 532.914,-89.1442"/>
</g>
<!-- Node19&#45;&gt;Node10 -->
<g id="edge86" class="edge"><title>Node19&#45;&gt;Node10</title>
<path fill="none" stroke="midnightblue" d="M476.908,-295.463C416.022,-287.459 311.198,-271.666 277,-254 237.622,-233.658 205,-229.322 205,-185 205,-185 205,-185 205,-127 205,-108.271 95.5368,-50.5832 43.663,-24.297"/>
<polygon fill="midnightblue" stroke="midnightblue" points="45.1915,-21.148 34.6866,-19.7707 42.0398,-27.3984 45.1915,-21.148"/>
</g>
<!-- Node19&#45;&gt;Node13 -->
<g id="edge88" class="edge"><title>Node19&#45;&gt;Node13</title>
<path fill="none" stroke="midnightblue" d="M503.713,-290.965C473.602,-273.918 412.583,-237.123 369,-196 312.551,-142.738 318.719,-110.974 262,-58 247.871,-44.8042 229.69,-32.7147 215.398,-24.102"/>
<polygon fill="midnightblue" stroke="midnightblue" points="217.045,-21.0106 206.649,-18.9677 213.502,-27.0478 217.045,-21.0106"/>
</g>
<!-- Node20 -->
<g id="node40" class="node"><title>Node20</title>
<a xlink:href="doublebufferedresource_8h.html" target="_top" xlink:title="This file defines the template double buffered resources that can be attached to a thread...">
<polygon fill="white" stroke="black" points="670.5,-117 670.5,-137 793.5,-137 793.5,-117 670.5,-117"/>
<text text-anchor="middle" x="732" y="-124" font-family="FreeSans" font-size="10.00">doublebufferedresource.h</text>
</a>
</g>
<!-- Node19&#45;&gt;Node20 -->
<g id="edge40" class="edge"><title>Node19&#45;&gt;Node20</title>
<path fill="none" stroke="midnightblue" d="M544.368,-290.844C562.159,-282.259 587.255,-268.986 607,-254 651.28,-220.393 694.983,-171.394 717.104,-145.169"/>
<polygon fill="midnightblue" stroke="midnightblue" points="720.03,-147.124 723.748,-137.203 714.655,-142.64 720.03,-147.124"/>
</g>
<!-- Node19&#45;&gt;Node21 -->
<g id="edge50" class="edge"><title>Node19&#45;&gt;Node21</title>
<path fill="none" stroke="midnightblue" d="M484.733,-290.911C449.878,-281.452 396.382,-266.878 350,-254 348.78,-253.661 347.538,-253.316 346.285,-252.966"/>
<polygon fill="midnightblue" stroke="midnightblue" points="347.159,-249.576 336.585,-250.249 345.27,-256.317 347.159,-249.576"/>
</g>
<!-- Node22 -->
<g id="node48" class="node"><title>Node22</title>
<a xlink:href="systemcalls_8h.html" target="_top" xlink:title="This file defines a minimalistic cross&#45;platform thread that the scheduler uses to schedule tasks...">
<polygon fill="white" stroke="black" points="378,-175 378,-195 452,-195 452,-175 378,-175"/>
<text text-anchor="middle" x="415" y="-182" font-family="FreeSans" font-size="10.00">systemcalls.h</text>
</a>
</g>
<!-- Node19&#45;&gt;Node22 -->
<g id="edge72" class="edge"><title>Node19&#45;&gt;Node22</title>
<path fill="none" stroke="midnightblue" d="M512.504,-290.706C494.216,-270.879 453.914,-227.187 431.268,-202.636"/>
<polygon fill="midnightblue" stroke="midnightblue" points="433.674,-200.083 424.321,-195.106 428.529,-204.829 433.674,-200.083"/>
</g>
<!-- Node19&#45;&gt;Node25 -->
<g id="edge68" class="edge"><title>Node19&#45;&gt;Node25</title>
<path fill="none" stroke="midnightblue" d="M551.438,-290.897C579.342,-281.321 621.436,-266.874 652.096,-256.352"/>
<polygon fill="midnightblue" stroke="midnightblue" points="653.294,-259.641 661.617,-253.084 651.022,-253.02 653.294,-259.641"/>
</g>
<!-- Node19&#45;&gt;Node26 -->
<g id="edge74" class="edge"><title>Node19&#45;&gt;Node26</title>
<path fill="none" stroke="midnightblue" d="M567.272,-297.393C612.25,-292.395 682.232,-280.727 737,-254 794.32,-226.027 848.597,-172.279 874.367,-144.532"/>
<polygon fill="midnightblue" stroke="midnightblue" points="876.974,-146.866 881.14,-137.124 871.809,-142.142 876.974,-146.866"/>
</g>
<!-- Node27 -->
<g id="node67" class="node"><title>Node27</title>
<a xlink:href="barrier_8h.html" target="_top" xlink:title="The declaration of the Mezzanine::Threading::Barrier Barrier synchronization primitive.">
<polygon fill="white" stroke="black" points="469.5,-175 469.5,-195 520.5,-195 520.5,-175 469.5,-175"/>
<text text-anchor="middle" x="495" y="-182" font-family="FreeSans" font-size="10.00">barrier.h</text>
</a>
</g>
<!-- Node19&#45;&gt;Node27 -->
<g id="edge80" class="edge"><title>Node19&#45;&gt;Node27</title>
<path fill="none" stroke="midnightblue" d="M518.693,-290.997C515.644,-281.537 511.13,-266.908 508,-254 504.056,-237.735 500.604,-219.069 498.249,-205.257"/>
<polygon fill="midnightblue" stroke="midnightblue" points="501.697,-204.651 496.609,-195.358 494.791,-205.796 501.697,-204.651"/>
</g>
<!-- Node28 -->
<g id="node73" class="node"><title>Node28</title>
<polygon fill="white" stroke="#bfbfbf" points="549.5,-233 549.5,-253 598.5,-253 598.5,-233 549.5,-233"/>
<text text-anchor="middle" x="574" y="-240" font-family="FreeSans" font-size="10.00">fstream</text>
</g>
<!-- Node19&#45;&gt;Node28 -->
<g id="edge90" class="edge"><title>Node19&#45;&gt;Node28</title>
<path fill="none" stroke="midnightblue" d="M531.058,-290.897C538.423,-282.682 549.002,-270.883 557.816,-261.051"/>
<polygon fill="midnightblue" stroke="midnightblue" points="560.626,-263.16 564.696,-253.378 555.414,-258.487 560.626,-263.16"/>
</g>
<!-- Node20&#45;&gt;Node2 -->
<g id="edge42" class="edge"><title>Node20&#45;&gt;Node2</title>
<path fill="none" stroke="midnightblue" d="M696.64,-116.897C661.856,-106.959 608.716,-91.776 571.618,-81.1766"/>
<polygon fill="midnightblue" stroke="midnightblue" points="572.185,-77.6986 561.608,-78.3167 570.262,-84.4293 572.185,-77.6986"/>
</g>
<!-- Node20&#45;&gt;Node6 -->
<g id="edge44" class="edge"><title>Node20&#45;&gt;Node6</title>
<path fill="none" stroke="midnightblue" d="M728.417,-116.965C723.924,-102.439 718.25,-75.3916 731,-58 732.711,-55.6661 798.391,-35.5469 841.969,-22.399"/>
<polygon fill="midnightblue" stroke="midnightblue" points="843.143,-25.7005 851.709,-19.4651 841.124,-18.9979 843.143,-25.7005"/>
</g>
<!-- Node20&#45;&gt;Node12 -->
<g id="edge46" class="edge"><title>Node20&#45;&gt;Node12</title>
<path fill="none" stroke="midnightblue" d="M734.583,-116.832C738.988,-101.628 749.435,-73.1404 769,-58 820.132,-18.4308 849.178,-38.4197 916.11,-21.9543"/>
<polygon fill="midnightblue" stroke="midnightblue" points="917.045,-25.3275 925.813,-19.3791 915.249,-18.5618 917.045,-25.3275"/>
</g>
<!-- Node20&#45;&gt;Node14 -->
<g id="edge48" class="edge"><title>Node20&#45;&gt;Node14</title>
<path fill="none" stroke="midnightblue" d="M739.782,-116.957C752.225,-101.649 778.157,-72.7114 807,-58 876.092,-22.7597 905.043,-42.2788 983.659,-22.0041"/>
<polygon fill="midnightblue" stroke="midnightblue" points="984.768,-25.3298 993.499,-19.3279 982.931,-18.5751 984.768,-25.3298"/>
</g>
<!-- Node21&#45;&gt;Node14 -->
<g id="edge66" class="edge"><title>Node21&#45;&gt;Node14</title>
<path fill="none" stroke="midnightblue" d="M336.623,-240.5C410.892,-232.634 631.81,-204.827 802,-138 806.996,-136.038 933.512,-60.0361 989.152,-26.5608"/>
<polygon fill="midnightblue" stroke="midnightblue" points="991.296,-29.3555 998.059,-21.2006 987.686,-23.3577 991.296,-29.3555"/>
</g>
<!-- Node21&#45;&gt;Node17 -->
<g id="edge64" class="edge"><title>Node21&#45;&gt;Node17</title>
<path fill="none" stroke="midnightblue" d="M309.949,-232.617C306.283,-201.717 291.342,-109.314 240,-58 229.666,-47.6717 196.848,-33.7973 170.621,-23.8036"/>
<polygon fill="midnightblue" stroke="midnightblue" points="171.545,-20.4122 160.953,-20.179 169.087,-26.9667 171.545,-20.4122"/>
</g>
<!-- Node21&#45;&gt;Node22 -->
<g id="edge52" class="edge"><title>Node21&#45;&gt;Node22</title>
<path fill="none" stroke="midnightblue" d="M329.115,-232.897C345.345,-223.846 369.376,-210.444 387.894,-200.117"/>
<polygon fill="midnightblue" stroke="midnightblue" points="389.714,-203.109 396.743,-195.182 386.305,-196.996 389.714,-203.109"/>
</g>
<!-- Node21&#45;&gt;Node23 -->
<g id="edge56" class="edge"><title>Node21&#45;&gt;Node23</title>
<path fill="none" stroke="midnightblue" d="M301.768,-232.897C294.261,-224.682 283.479,-212.883 274.495,-203.051"/>
<polygon fill="midnightblue" stroke="midnightblue" points="276.812,-200.399 267.483,-195.378 271.645,-205.121 276.812,-200.399"/>
</g>
<!-- Node22&#45;&gt;Node2 -->
<g id="edge54" class="edge"><title>Node22&#45;&gt;Node2</title>
<path fill="none" stroke="midnightblue" d="M428.75,-174.854C440.699,-165.765 458.208,-151.779 472,-138 488.021,-121.994 504.275,-101.847 515.304,-87.4636"/>
<polygon fill="midnightblue" stroke="midnightblue" points="518.207,-89.428 521.448,-79.3408 512.624,-85.2055 518.207,-89.428"/>
</g>
<!-- Node23&#45;&gt;Node11 -->
<g id="edge62" class="edge"><title>Node23&#45;&gt;Node11</title>
<path fill="none" stroke="midnightblue" d="M257.928,-174.825C257.193,-150.959 251.975,-90.9146 219,-58 182.316,-21.3826 155.906,-37.6711 101.88,-21.9346"/>
<polygon fill="midnightblue" stroke="midnightblue" points="102.81,-18.5576 92.2193,-18.8655 100.69,-25.229 102.81,-18.5576"/>
</g>
<!-- Node24 -->
<g id="node53" class="node"><title>Node24</title>
<a xlink:href="atomicoperations_8h.html" target="_top" xlink:title="Simple thread safe ways to check and change a specified variable atomically.">
<polygon fill="white" stroke="black" points="365,-117 365,-137 463,-137 463,-117 365,-117"/>
<text text-anchor="middle" x="414" y="-124" font-family="FreeSans" font-size="10.00">atomicoperations.h</text>
</a>
</g>
<!-- Node23&#45;&gt;Node24 -->
<g id="edge58" class="edge"><title>Node23&#45;&gt;Node24</title>
<path fill="none" stroke="midnightblue" d="M283.064,-175.681C308.6,-166.187 348.467,-151.365 377.506,-140.568"/>
<polygon fill="midnightblue" stroke="midnightblue" points="378.749,-143.84 386.902,-137.075 376.309,-137.279 378.749,-143.84"/>
</g>
<!-- Node24&#45;&gt;Node2 -->
<g id="edge60" class="edge"><title>Node24&#45;&gt;Node2</title>
<path fill="none" stroke="midnightblue" d="M434.031,-116.897C452.224,-107.722 479.28,-94.0762 499.865,-83.6943"/>
<polygon fill="midnightblue" stroke="midnightblue" points="501.46,-86.8099 508.812,-79.1817 498.307,-80.5598 501.46,-86.8099"/>
</g>
<!-- Node25&#45;&gt;Node2 -->
<g id="edge70" class="edge"><title>Node25&#45;&gt;Node2</title>
<path fill="none" stroke="midnightblue" d="M682.841,-232.752C665.111,-210.672 621.405,-157.269 581,-116 570.757,-105.539 558.657,-94.5293 548.707,-85.7977"/>
<polygon fill="midnightblue" stroke="midnightblue" points="550.79,-82.9711 540.943,-79.0609 546.202,-88.2583 550.79,-82.9711"/>
</g>
<!-- Node26&#45;&gt;Node2 -->
<g id="edge78" class="edge"><title>Node26&#45;&gt;Node2</title>
<path fill="none" stroke="midnightblue" d="M848.236,-120.29C779.122,-109.186 641.673,-87.1025 571.85,-75.8845"/>
<polygon fill="midnightblue" stroke="midnightblue" points="572.079,-72.3765 561.65,-74.2457 570.968,-79.2878 572.079,-72.3765"/>
</g>
<!-- Node26&#45;&gt;Node14 -->
<g id="edge76" class="edge"><title>Node26&#45;&gt;Node14</title>
<path fill="none" stroke="midnightblue" d="M901.093,-116.706C922.644,-96.7063 970.36,-52.4256 996.681,-27.9997"/>
<polygon fill="midnightblue" stroke="midnightblue" points="999.161,-30.4733 1004.11,-21.1055 994.4,-25.3423 999.161,-30.4733"/>
</g>
<!-- Node27&#45;&gt;Node2 -->
<g id="edge82" class="edge"><title>Node27&#45;&gt;Node2</title>
<path fill="none" stroke="midnightblue" d="M498.017,-174.706C503.652,-155.482 515.862,-113.825 523.159,-88.9294"/>
<polygon fill="midnightblue" stroke="midnightblue" points="526.584,-89.6863 526.038,-79.1055 519.867,-87.7173 526.584,-89.6863"/>
</g>
<!-- Node27&#45;&gt;Node24 -->
<g id="edge84" class="edge"><title>Node27&#45;&gt;Node24</title>
<path fill="none" stroke="midnightblue" d="M480.891,-174.897C468.654,-166.135 450.724,-153.297 436.507,-143.116"/>
<polygon fill="midnightblue" stroke="midnightblue" points="438.387,-140.158 428.219,-137.182 434.312,-145.849 438.387,-140.158"/>
</g>
<!-- Node29&#45;&gt;Node2 -->
<g id="edge98" class="edge"><title>Node29&#45;&gt;Node2</title>
<path fill="none" stroke="midnightblue" d="M169.598,-290.783C173.883,-266.824 187.85,-206.596 224,-174 299.642,-105.793 421.75,-81.5039 486.12,-73.1563"/>
<polygon fill="midnightblue" stroke="midnightblue" points="486.817,-76.5972 496.316,-71.9055 485.964,-69.6493 486.817,-76.5972"/>
</g>
</g>
</svg>
