<?xml version="1.0" encoding="UTF-8" standalone="no"?>
<!DOCTYPE svg PUBLIC "-//W3C//DTD SVG 1.1//EN"
 "http://www.w3.org/Graphics/SVG/1.1/DTD/svg11.dtd">
<!-- Generated by graphviz version 2.26.3 (20100126.1600)
 -->
<!-- Title: /home/Code/Mezzanine/Mezzanine/src/XML/writer.cpp Pages: 1 -->
<svg width="1227pt" height="450pt"
 viewBox="0.00 0.00 1227.00 450.00" xmlns="http://www.w3.org/2000/svg" xmlns:xlink="http://www.w3.org/1999/xlink">
<g id="graph1" class="graph" transform="scale(1 1) rotate(0) translate(4 446)">
<title>/home/Code/Mezzanine/Mezzanine/src/XML/writer.cpp</title>
<polygon fill="white" stroke="white" points="-4,5 -4,-446 1224,-446 1224,5 -4,5"/>
<!-- Node1 -->
<g id="node1" class="node"><title>Node1</title>
<polygon fill="#bfbfbf" stroke="black" points="307.5,-407 307.5,-441 466.5,-441 466.5,-407 307.5,-407"/>
<text text-anchor="start" x="315.5" y="-428" font-family="FreeSans" font-size="10.00">/home/Code/Mezzanine</text>
<text text-anchor="middle" x="387" y="-415" font-family="FreeSans" font-size="10.00">/Mezzanine/src/XML/writer.cpp</text>
</g>
<!-- Node2 -->
<g id="node3" class="node"><title>Node2</title>
<a xlink:href="writer_8h.xhtml" target="_top" xlink:title="The definitions for all of the XML::Writer inheritance hierarchy.">
<polygon fill="white" stroke="black" points="350.5,-348.5 350.5,-369.5 423.5,-369.5 423.5,-348.5 350.5,-348.5"/>
<text text-anchor="middle" x="387" y="-356.5" font-family="FreeSans" font-size="10.00">XML/writer.h</text>
</a>
</g>
<!-- Node1&#45;&gt;Node2 -->
<g id="edge2" class="edge"><title>Node1&#45;&gt;Node2</title>
<path fill="none" stroke="midnightblue" d="M387,-406.922C387,-398.67 387,-388.692 387,-379.982"/>
<polygon fill="midnightblue" stroke="midnightblue" points="390.5,-379.852 387,-369.852 383.5,-379.852 390.5,-379.852"/>
</g>
<!-- Node3 -->
<g id="node5" class="node"><title>Node3</title>
<a xlink:href="datatypes_8h.xhtml" target="_top" xlink:title="All the definitions for datatypes as well as some basic conversion functions are defined here...">
<polygon fill="white" stroke="black" points="449,-58.5 449,-79.5 523,-79.5 523,-58.5 449,-58.5"/>
<text text-anchor="middle" x="486" y="-66.5" font-family="FreeSans" font-size="10.00">datatypes.h</text>
</a>
</g>
<!-- Node2&#45;&gt;Node3 -->
<g id="edge4" class="edge"><title>Node2&#45;&gt;Node3</title>
<path fill="none" stroke="midnightblue" d="M350.205,-354.752C260.344,-343.358 37,-308.455 37,-243 37,-243 37,-243 37,-185 37,-102.73 323.154,-77.8871 438.577,-71.2127"/>
<polygon fill="midnightblue" stroke="midnightblue" points="439.084,-74.69 448.874,-70.6396 438.695,-67.7008 439.084,-74.69"/>
</g>
<!-- Node20 -->
<g id="node39" class="node"><title>Node20</title>
<a xlink:href="resource_8h_source.xhtml" target="_top" xlink:title="resource.h">
<polygon fill="white" stroke="black" points="704.5,-290.5 704.5,-311.5 771.5,-311.5 771.5,-290.5 704.5,-290.5"/>
<text text-anchor="middle" x="738" y="-298.5" font-family="FreeSans" font-size="10.00">resource.h</text>
</a>
</g>
<!-- Node2&#45;&gt;Node20 -->
<g id="edge38" class="edge"><title>Node2&#45;&gt;Node20</title>
<path fill="none" stroke="midnightblue" d="M423.57,-352.957C488.621,-342.208 624.164,-319.811 694.123,-308.25"/>
<polygon fill="midnightblue" stroke="midnightblue" points="695.064,-311.642 704.36,-306.559 693.923,-304.736 695.064,-311.642"/>
</g>
<!-- Node4 -->
<g id="node7" class="node"><title>Node4</title>
<a xlink:href="crossplatformexport_8h.xhtml" target="_top" xlink:title="This file is used on some platforms to determine what data should be read and written to and from a s...">
<polygon fill="white" stroke="black" points="940,-0.5 940,-21.5 1062,-21.5 1062,-0.5 940,-0.5"/>
<text text-anchor="middle" x="1001" y="-8.5" font-family="FreeSans" font-size="10.00">crossplatformexport.h</text>
</a>
</g>
<!-- Node3&#45;&gt;Node4 -->
<g id="edge6" class="edge"><title>Node3&#45;&gt;Node4</title>
<path fill="none" stroke="midnightblue" d="M523.289,-65.7049C598.198,-58.9469 772.52,-42.5222 929.621,-22.13"/>
<polygon fill="midnightblue" stroke="midnightblue" points="930.481,-25.5475 939.943,-20.7811 929.574,-18.6065 930.481,-25.5475"/>
</g>
<!-- Node5 -->
<g id="node9" class="node"><title>Node5</title>
<polygon fill="white" stroke="#bfbfbf" points="459.5,-0.5 459.5,-21.5 512.5,-21.5 512.5,-0.5 459.5,-0.5"/>
<text text-anchor="middle" x="486" y="-8.5" font-family="FreeSans" font-size="10.00">stdint.h</text>
</g>
<!-- Node3&#45;&gt;Node5 -->
<g id="edge8" class="edge"><title>Node3&#45;&gt;Node5</title>
<path fill="none" stroke="midnightblue" d="M486,-58.3619C486,-50.9219 486,-40.7427 486,-31.7276"/>
<polygon fill="midnightblue" stroke="midnightblue" points="489.5,-31.5706 486,-21.5707 482.5,-31.5707 489.5,-31.5706"/>
</g>
<!-- Node6 -->
<g id="node11" class="node"><title>Node6</title>
<polygon fill="white" stroke="#bfbfbf" points="530,-0.5 530,-21.5 582,-21.5 582,-0.5 530,-0.5"/>
<text text-anchor="middle" x="556" y="-8.5" font-family="FreeSans" font-size="10.00">cstddef</text>
</g>
<!-- Node3&#45;&gt;Node6 -->
<g id="edge10" class="edge"><title>Node3&#45;&gt;Node6</title>
<path fill="none" stroke="midnightblue" d="M498.839,-58.3619C509.002,-49.9408 523.401,-38.0105 535.204,-28.2308"/>
<polygon fill="midnightblue" stroke="midnightblue" points="537.775,-30.6459 543.242,-21.5707 533.309,-25.2558 537.775,-30.6459"/>
</g>
<!-- Node7 -->
<g id="node13" class="node"><title>Node7</title>
<polygon fill="white" stroke="#bfbfbf" points="600,-0.5 600,-21.5 662,-21.5 662,-0.5 600,-0.5"/>
<text text-anchor="middle" x="631" y="-8.5" font-family="FreeSans" font-size="10.00">algorithm</text>
</g>
<!-- Node3&#45;&gt;Node7 -->
<g id="edge12" class="edge"><title>Node3&#45;&gt;Node7</title>
<path fill="none" stroke="midnightblue" d="M512.258,-58.4966C535.416,-49.2337 569.375,-35.6499 595.052,-25.3793"/>
<polygon fill="midnightblue" stroke="midnightblue" points="596.462,-28.5849 604.447,-21.6212 593.862,-22.0855 596.462,-28.5849"/>
</g>
<!-- Node8 -->
<g id="node15" class="node"><title>Node8</title>
<polygon fill="white" stroke="#bfbfbf" points="679.5,-0.5 679.5,-21.5 742.5,-21.5 742.5,-0.5 679.5,-0.5"/>
<text text-anchor="middle" x="711" y="-8.5" font-family="FreeSans" font-size="10.00">exception</text>
</g>
<!-- Node3&#45;&gt;Node8 -->
<g id="edge14" class="edge"><title>Node3&#45;&gt;Node8</title>
<path fill="none" stroke="midnightblue" d="M523.261,-59.7611C558.617,-50.9443 613.488,-37.1305 669.423,-22.3893"/>
<polygon fill="midnightblue" stroke="midnightblue" points="670.364,-25.7609 679.138,-19.8224 668.576,-18.9931 670.364,-25.7609"/>
</g>
<!-- Node9 -->
<g id="node17" class="node"><title>Node9</title>
<polygon fill="white" stroke="#bfbfbf" points="759.5,-0.5 759.5,-21.5 812.5,-21.5 812.5,-0.5 759.5,-0.5"/>
<text text-anchor="middle" x="786" y="-8.5" font-family="FreeSans" font-size="10.00">istream</text>
</g>
<!-- Node3&#45;&gt;Node9 -->
<g id="edge16" class="edge"><title>Node3&#45;&gt;Node9</title>
<path fill="none" stroke="midnightblue" d="M523.182,-63.9518C572.825,-56.875 663.609,-42.759 749.447,-22.1749"/>
<polygon fill="midnightblue" stroke="midnightblue" points="750.458,-25.5311 759.347,-19.7662 748.803,-18.7296 750.458,-25.5311"/>
</g>
<!-- Node10 -->
<g id="node19" class="node"><title>Node10</title>
<polygon fill="white" stroke="#bfbfbf" points="830,-0.5 830,-21.5 860,-21.5 860,-0.5 830,-0.5"/>
<text text-anchor="middle" x="845" y="-8.5" font-family="FreeSans" font-size="10.00">list</text>
</g>
<!-- Node3&#45;&gt;Node10 -->
<g id="edge18" class="edge"><title>Node3&#45;&gt;Node10</title>
<path fill="none" stroke="midnightblue" d="M523.17,-67.3026C584.003,-63.7732 708.427,-53.4022 820.037,-21.6145"/>
<polygon fill="midnightblue" stroke="midnightblue" points="821.14,-24.9386 829.761,-18.7801 819.181,-18.2183 821.14,-24.9386"/>
</g>
<!-- Node11 -->
<g id="node21" class="node"><title>Node11</title>
<polygon fill="white" stroke="#bfbfbf" points="1087,-0.5 1087,-21.5 1125,-21.5 1125,-0.5 1087,-0.5"/>
<text text-anchor="middle" x="1106" y="-8.5" font-family="FreeSans" font-size="10.00">map</text>
</g>
<!-- Node3&#45;&gt;Node11 -->
<g id="edge20" class="edge"><title>Node3&#45;&gt;Node11</title>
<path fill="none" stroke="midnightblue" d="M523.297,-67.1003C634.934,-61.2409 965.239,-42.5968 1071,-22 1073.05,-21.6005 1075.15,-21.1227 1077.26,-20.5932"/>
<polygon fill="midnightblue" stroke="midnightblue" points="1078.28,-23.9401 1086.94,-17.8392 1076.37,-17.2068 1078.28,-23.9401"/>
</g>
<!-- Node12 -->
<g id="node23" class="node"><title>Node12</title>
<polygon fill="white" stroke="#bfbfbf" points="878,-0.5 878,-21.5 922,-21.5 922,-0.5 878,-0.5"/>
<text text-anchor="middle" x="900" y="-8.5" font-family="FreeSans" font-size="10.00">string</text>
</g>
<!-- Node3&#45;&gt;Node12 -->
<g id="edge22" class="edge"><title>Node3&#45;&gt;Node12</title>
<path fill="none" stroke="midnightblue" d="M523.178,-67.1434C590.476,-63.2029 736.918,-51.9681 868.012,-21.8234"/>
<polygon fill="midnightblue" stroke="midnightblue" points="868.886,-25.2136 877.824,-19.5246 867.289,-18.3982 868.886,-25.2136"/>
</g>
<!-- Node13 -->
<g id="node25" class="node"><title>Node13</title>
<polygon fill="white" stroke="#bfbfbf" points="74,-0.5 74,-21.5 130,-21.5 130,-0.5 74,-0.5"/>
<text text-anchor="middle" x="102" y="-8.5" font-family="FreeSans" font-size="10.00">sstream</text>
</g>
<!-- Node3&#45;&gt;Node13 -->
<g id="edge24" class="edge"><title>Node3&#45;&gt;Node13</title>
<path fill="none" stroke="midnightblue" d="M448.954,-65.8758C386.886,-60.2326 257.894,-46.7583 140.074,-21.9783"/>
<polygon fill="midnightblue" stroke="midnightblue" points="140.676,-18.528 130.166,-19.8615 139.214,-25.3736 140.676,-18.528"/>
</g>
<!-- Node14 -->
<g id="node27" class="node"><title>Node14</title>
<polygon fill="white" stroke="#bfbfbf" points="148,-0.5 148,-21.5 180,-21.5 180,-0.5 148,-0.5"/>
<text text-anchor="middle" x="164" y="-8.5" font-family="FreeSans" font-size="10.00">set</text>
</g>
<!-- Node3&#45;&gt;Node14 -->
<g id="edge26" class="edge"><title>Node3&#45;&gt;Node14</title>
<path fill="none" stroke="midnightblue" d="M448.749,-66.2017C393.65,-61.3972 287.299,-49.5747 189.88,-21.6784"/>
<polygon fill="midnightblue" stroke="midnightblue" points="190.761,-18.2894 180.18,-18.8378 188.793,-25.0072 190.761,-18.2894"/>
</g>
<!-- Node15 -->
<g id="node29" class="node"><title>Node15</title>
<polygon fill="white" stroke="#bfbfbf" points="197.5,-0.5 197.5,-21.5 244.5,-21.5 244.5,-0.5 197.5,-0.5"/>
<text text-anchor="middle" x="221" y="-8.5" font-family="FreeSans" font-size="10.00">vector</text>
</g>
<!-- Node3&#45;&gt;Node15 -->
<g id="edge28" class="edge"><title>Node3&#45;&gt;Node15</title>
<path fill="none" stroke="midnightblue" d="M448.925,-63.0784C404.646,-55.6658 328.227,-41.7988 254.56,-22.1967"/>
<polygon fill="midnightblue" stroke="midnightblue" points="255.224,-18.7507 244.657,-19.5218 253.399,-25.5085 255.224,-18.7507"/>
</g>
<!-- Node16 -->
<g id="node31" class="node"><title>Node16</title>
<polygon fill="white" stroke="#bfbfbf" points="262,-0.5 262,-21.5 304,-21.5 304,-0.5 262,-0.5"/>
<text text-anchor="middle" x="283" y="-8.5" font-family="FreeSans" font-size="10.00">utility</text>
</g>
<!-- Node3&#45;&gt;Node16 -->
<g id="edge30" class="edge"><title>Node3&#45;&gt;Node16</title>
<path fill="none" stroke="midnightblue" d="M448.945,-59.9184C415.794,-51.5754 365.711,-38.4368 313.915,-22.1227"/>
<polygon fill="midnightblue" stroke="midnightblue" points="314.818,-18.7371 304.227,-19.04 312.695,-25.4076 314.818,-18.7371"/>
</g>
<!-- Node17 -->
<g id="node33" class="node"><title>Node17</title>
<polygon fill="white" stroke="#bfbfbf" points="-0.5,-0.5 -0.5,-21.5 56.5,-21.5 56.5,-0.5 -0.5,-0.5"/>
<text text-anchor="middle" x="28" y="-8.5" font-family="FreeSans" font-size="10.00">memory</text>
</g>
<!-- Node3&#45;&gt;Node17 -->
<g id="edge32" class="edge"><title>Node3&#45;&gt;Node17</title>
<path fill="none" stroke="midnightblue" d="M448.771,-67.0713C376.598,-62.8549 212.595,-50.9441 66.5907,-22.0546"/>
<polygon fill="midnightblue" stroke="midnightblue" points="67.0501,-18.577 56.5563,-20.0362 65.6697,-25.4395 67.0501,-18.577"/>
</g>
<!-- Node18 -->
<g id="node35" class="node"><title>Node18</title>
<polygon fill="white" stroke="#bfbfbf" points="321.5,-0.5 321.5,-21.5 378.5,-21.5 378.5,-0.5 321.5,-0.5"/>
<text text-anchor="middle" x="350" y="-8.5" font-family="FreeSans" font-size="10.00">ostream</text>
</g>
<!-- Node3&#45;&gt;Node18 -->
<g id="edge34" class="edge"><title>Node3&#45;&gt;Node18</title>
<path fill="none" stroke="midnightblue" d="M461.371,-58.4966C439.843,-49.3154 408.36,-35.8889 384.355,-25.6516"/>
<polygon fill="midnightblue" stroke="midnightblue" points="385.476,-22.3247 374.905,-21.6212 382.73,-28.7636 385.476,-22.3247"/>
</g>
<!-- Node19 -->
<g id="node37" class="node"><title>Node19</title>
<a xlink:href="swig_8h.xhtml" target="_top" xlink:title="Used to give commands specifically to the SWIG preprocessor.">
<polygon fill="white" stroke="black" points="396,-0.5 396,-21.5 442,-21.5 442,-0.5 396,-0.5"/>
<text text-anchor="middle" x="419" y="-8.5" font-family="FreeSans" font-size="10.00">swig.h</text>
</a>
</g>
<!-- Node3&#45;&gt;Node19 -->
<g id="edge36" class="edge"><title>Node3&#45;&gt;Node19</title>
<path fill="none" stroke="midnightblue" d="M473.711,-58.3619C463.983,-49.9408 450.202,-38.0105 438.905,-28.2308"/>
<polygon fill="midnightblue" stroke="midnightblue" points="441.062,-25.4695 431.211,-21.5707 436.481,-30.7619 441.062,-25.4695"/>
</g>
<!-- Node21 -->
<g id="node41" class="node"><title>Node21</title>
<a xlink:href="resourceenumerations_8h_source.xhtml" target="_top" xlink:title="Resource/resourceenumerations.h">
<polygon fill="white" stroke="black" points="367,-232.5 367,-253.5 547,-253.5 547,-232.5 367,-232.5"/>
<text text-anchor="middle" x="457" y="-240.5" font-family="FreeSans" font-size="10.00">Resource/resourceenumerations.h</text>
</a>
</g>
<!-- Node20&#45;&gt;Node21 -->
<g id="edge40" class="edge"><title>Node20&#45;&gt;Node21</title>
<path fill="none" stroke="midnightblue" d="M704.384,-294.061C658.415,-284.573 575.141,-267.385 518.007,-255.592"/>
<polygon fill="midnightblue" stroke="midnightblue" points="518.513,-252.123 508.012,-253.529 517.098,-258.978 518.513,-252.123"/>
</g>
<!-- Node22 -->
<g id="node43" class="node"><title>Node22</title>
<a xlink:href="archive_8h_source.xhtml" target="_top" xlink:title="Resource/archive.h">
<polygon fill="white" stroke="black" points="565,-232.5 565,-253.5 671,-253.5 671,-232.5 565,-232.5"/>
<text text-anchor="middle" x="618" y="-240.5" font-family="FreeSans" font-size="10.00">Resource/archive.h</text>
</a>
</g>
<!-- Node20&#45;&gt;Node22 -->
<g id="edge42" class="edge"><title>Node20&#45;&gt;Node22</title>
<path fill="none" stroke="midnightblue" d="M716.269,-290.497C697.526,-281.438 670.233,-268.246 649.164,-258.063"/>
<polygon fill="midnightblue" stroke="midnightblue" points="650.502,-254.822 639.975,-253.621 647.455,-261.124 650.502,-254.822"/>
</g>
<!-- Node23 -->
<g id="node45" class="node"><title>Node23</title>
<a xlink:href="asset_8h_source.xhtml" target="_top" xlink:title="Resource/asset.h">
<polygon fill="white" stroke="black" points="689,-232.5 689,-253.5 787,-253.5 787,-232.5 689,-232.5"/>
<text text-anchor="middle" x="738" y="-240.5" font-family="FreeSans" font-size="10.00">Resource/asset.h</text>
</a>
</g>
<!-- Node20&#45;&gt;Node23 -->
<g id="edge44" class="edge"><title>Node20&#45;&gt;Node23</title>
<path fill="none" stroke="midnightblue" d="M738,-290.362C738,-282.922 738,-272.743 738,-263.728"/>
<polygon fill="midnightblue" stroke="midnightblue" points="741.5,-263.571 738,-253.571 734.5,-263.571 741.5,-263.571"/>
</g>
<!-- Node24 -->
<g id="node47" class="node"><title>Node24</title>
<a xlink:href="assetgroup_8h_source.xhtml" target="_top" xlink:title="Resource/assetgroup.h">
<polygon fill="white" stroke="black" points="805,-232.5 805,-253.5 931,-253.5 931,-232.5 805,-232.5"/>
<text text-anchor="middle" x="868" y="-240.5" font-family="FreeSans" font-size="10.00">Resource/assetgroup.h</text>
</a>
</g>
<!-- Node20&#45;&gt;Node24 -->
<g id="edge46" class="edge"><title>Node20&#45;&gt;Node24</title>
<path fill="none" stroke="midnightblue" d="M761.542,-290.497C782.029,-281.356 811.947,-268.008 834.854,-257.788"/>
<polygon fill="midnightblue" stroke="midnightblue" points="836.488,-260.892 844.194,-253.621 833.635,-254.499 836.488,-260.892"/>
</g>
<!-- Node25 -->
<g id="node49" class="node"><title>Node25</title>
<a xlink:href="assethandler_8h_source.xhtml" target="_top" xlink:title="Resource/assethandler.h">
<polygon fill="white" stroke="black" points="948.5,-232.5 948.5,-253.5 1081.5,-253.5 1081.5,-232.5 948.5,-232.5"/>
<text text-anchor="middle" x="1015" y="-240.5" font-family="FreeSans" font-size="10.00">Resource/assethandler.h</text>
</a>
</g>
<!-- Node20&#45;&gt;Node25 -->
<g id="edge48" class="edge"><title>Node20&#45;&gt;Node25</title>
<path fill="none" stroke="midnightblue" d="M771.689,-293.946C817.118,-284.434 898.778,-267.335 954.872,-255.59"/>
<polygon fill="midnightblue" stroke="midnightblue" points="955.615,-259.01 964.686,-253.535 954.181,-252.159 955.615,-259.01"/>
</g>
<!-- Node26 -->
<g id="node51" class="node"><title>Node26</title>
<a xlink:href="datastream_8h.xhtml" target="_top" xlink:title="Declaration of DataStream.">
<polygon fill="white" stroke="black" points="292,-174.5 292,-195.5 420,-195.5 420,-174.5 292,-174.5"/>
<text text-anchor="middle" x="356" y="-182.5" font-family="FreeSans" font-size="10.00">Resource/datastream.h</text>
</a>
</g>
<!-- Node20&#45;&gt;Node26 -->
<g id="edge50" class="edge"><title>Node20&#45;&gt;Node26</title>
<path fill="none" stroke="midnightblue" d="M771.559,-298.998C855.467,-293.65 1069.16,-277.804 1090,-254 1096.44,-246.643 1096.69,-239.131 1090,-232 1067.65,-208.178 612.046,-192.409 430.102,-187.04"/>
<polygon fill="midnightblue" stroke="midnightblue" points="430.179,-183.541 420.081,-186.747 429.974,-190.538 430.179,-183.541"/>
</g>
<!-- Node29 -->
<g id="node60" class="node"><title>Node29</title>
<a xlink:href="filestream_8h.xhtml" target="_top" xlink:title="Declaration of FileStream.">
<polygon fill="white" stroke="black" points="229,-232.5 229,-253.5 349,-253.5 349,-232.5 229,-232.5"/>
<text text-anchor="middle" x="289" y="-240.5" font-family="FreeSans" font-size="10.00">Resource/filestream.h</text>
</a>
</g>
<!-- Node20&#45;&gt;Node29 -->
<g id="edge62" class="edge"><title>Node20&#45;&gt;Node29</title>
<path fill="none" stroke="midnightblue" d="M704.398,-297.244C639.695,-289.926 493.079,-272.926 359.216,-254.137"/>
<polygon fill="midnightblue" stroke="midnightblue" points="359.583,-250.654 349.192,-252.723 358.605,-257.585 359.583,-250.654"/>
</g>
<!-- Node30 -->
<g id="node63" class="node"><title>Node30</title>
<a xlink:href="inputstream_8h_source.xhtml" target="_top" xlink:title="Resource/inputstream.h">
<polygon fill="white" stroke="black" points="929,-116.5 929,-137.5 1059,-137.5 1059,-116.5 929,-116.5"/>
<text text-anchor="middle" x="994" y="-124.5" font-family="FreeSans" font-size="10.00">Resource/inputstream.h</text>
</a>
</g>
<!-- Node20&#45;&gt;Node30 -->
<g id="edge66" class="edge"><title>Node20&#45;&gt;Node30</title>
<path fill="none" stroke="midnightblue" d="M771.806,-299.189C858.604,-294.196 1084.05,-278.926 1106,-254 1141.55,-213.625 1069.05,-166.082 1024.81,-142.247"/>
<polygon fill="midnightblue" stroke="midnightblue" points="1026.33,-139.09 1015.85,-137.532 1023.07,-145.285 1026.33,-139.09"/>
</g>
<!-- Node31 -->
<g id="node67" class="node"><title>Node31</title>
<a xlink:href="memorystream_8h.xhtml" target="_top" xlink:title="Declaration of MemoryStream.">
<polygon fill="white" stroke="black" points="64.5,-232.5 64.5,-253.5 211.5,-253.5 211.5,-232.5 64.5,-232.5"/>
<text text-anchor="middle" x="138" y="-240.5" font-family="FreeSans" font-size="10.00">Resource/memorystream.h</text>
</a>
</g>
<!-- Node20&#45;&gt;Node31 -->
<g id="edge72" class="edge"><title>Node20&#45;&gt;Node31</title>
<path fill="none" stroke="midnightblue" d="M704.315,-298.447C623.137,-292.186 410.054,-275.112 221.818,-254.171"/>
<polygon fill="midnightblue" stroke="midnightblue" points="222.066,-250.677 211.739,-253.044 221.288,-257.634 222.066,-250.677"/>
</g>
<!-- Node32 -->
<g id="node70" class="node"><title>Node32</title>
<a xlink:href="textsettingsfile_8h_source.xhtml" target="_top" xlink:title="Resource/textsettingsfile.h">
<polygon fill="white" stroke="black" points="1077,-116.5 1077,-137.5 1219,-137.5 1219,-116.5 1077,-116.5"/>
<text text-anchor="middle" x="1148" y="-124.5" font-family="FreeSans" font-size="10.00">Resource/textsettingsfile.h</text>
</a>
</g>
<!-- Node20&#45;&gt;Node32 -->
<g id="edge76" class="edge"><title>Node20&#45;&gt;Node32</title>
<path fill="none" stroke="midnightblue" d="M771.562,-299.156C860.718,-293.948 1098.44,-277.938 1124,-254 1153.06,-226.784 1153.37,-176.28 1150.82,-147.848"/>
<polygon fill="midnightblue" stroke="midnightblue" points="1154.28,-147.356 1149.71,-137.798 1147.33,-148.121 1154.28,-147.356"/>
</g>
<!-- Node26&#45;&gt;Node3 -->
<g id="edge52" class="edge"><title>Node26&#45;&gt;Node3</title>
<path fill="none" stroke="midnightblue" d="M361.768,-174.102C369.9,-159.505 385.896,-133.427 405,-116 419.025,-103.206 437.108,-92.3049 452.628,-84.2319"/>
<polygon fill="midnightblue" stroke="midnightblue" points="454.533,-87.192 461.902,-79.5791 451.394,-80.9353 454.533,-87.192"/>
</g>
<!-- Node27 -->
<g id="node54" class="node"><title>Node27</title>
<a xlink:href="smartptr_8h.xhtml" target="_top" xlink:title="This file describes and implements any pointers or typedefs to pointers that the Mezzanine uses and e...">
<polygon fill="white" stroke="black" points="291.5,-116.5 291.5,-137.5 358.5,-137.5 358.5,-116.5 291.5,-116.5"/>
<text text-anchor="middle" x="325" y="-124.5" font-family="FreeSans" font-size="10.00">smartptr.h</text>
</a>
</g>
<!-- Node26&#45;&gt;Node27 -->
<g id="edge54" class="edge"><title>Node26&#45;&gt;Node27</title>
<path fill="none" stroke="midnightblue" d="M350.314,-174.362C346.163,-166.595 340.416,-155.843 335.447,-146.546"/>
<polygon fill="midnightblue" stroke="midnightblue" points="338.45,-144.74 330.65,-137.571 332.277,-148.04 338.45,-144.74"/>
</g>
<!-- Node28 -->
<g id="node58" class="node"><title>Node28</title>
<polygon fill="white" stroke="#bfbfbf" points="413.5,-116.5 413.5,-137.5 472.5,-137.5 472.5,-116.5 413.5,-116.5"/>
<text text-anchor="middle" x="443" y="-124.5" font-family="FreeSans" font-size="10.00">iostream</text>
</g>
<!-- Node26&#45;&gt;Node28 -->
<g id="edge60" class="edge"><title>Node26&#45;&gt;Node28</title>
<path fill="none" stroke="midnightblue" d="M371.957,-174.362C384.957,-165.696 403.531,-153.313 418.427,-143.382"/>
<polygon fill="midnightblue" stroke="midnightblue" points="420.765,-146.03 427.144,-137.571 416.882,-140.206 420.765,-146.03"/>
</g>
<!-- Node27&#45;&gt;Node3 -->
<g id="edge56" class="edge"><title>Node27&#45;&gt;Node3</title>
<path fill="none" stroke="midnightblue" d="M354.156,-116.497C380.176,-107.123 418.479,-93.3242 447.104,-83.0122"/>
<polygon fill="midnightblue" stroke="midnightblue" points="448.568,-86.2052 456.789,-79.5231 446.195,-79.6195 448.568,-86.2052"/>
</g>
<!-- Node27&#45;&gt;Node17 -->
<g id="edge58" class="edge"><title>Node27&#45;&gt;Node17</title>
<path fill="none" stroke="midnightblue" d="M297.856,-116.398C244.275,-95.4711 124.886,-48.8411 64.4903,-25.2521"/>
<polygon fill="midnightblue" stroke="midnightblue" points="65.5617,-21.9131 54.9736,-21.5352 63.015,-28.4335 65.5617,-21.9131"/>
</g>
<!-- Node29&#45;&gt;Node26 -->
<g id="edge64" class="edge"><title>Node29&#45;&gt;Node26</title>
<path fill="none" stroke="midnightblue" d="M301.289,-232.362C311.017,-223.941 324.798,-212.011 336.095,-202.231"/>
<polygon fill="midnightblue" stroke="midnightblue" points="338.519,-204.762 343.789,-195.571 333.938,-199.469 338.519,-204.762"/>
</g>
<!-- Node30&#45;&gt;Node3 -->
<g id="edge70" class="edge"><title>Node30&#45;&gt;Node3</title>
<path fill="none" stroke="midnightblue" d="M928.887,-119.566C824.996,-107.704 624.183,-84.7768 533.039,-74.3706"/>
<polygon fill="midnightblue" stroke="midnightblue" points="533.334,-70.8816 523.001,-73.2246 532.54,-77.8364 533.334,-70.8816"/>
</g>
<!-- Node30&#45;&gt;Node4 -->
<g id="edge68" class="edge"><title>Node30&#45;&gt;Node4</title>
<path fill="none" stroke="midnightblue" d="M994.646,-116.295C995.802,-97.1314 998.245,-56.654 999.742,-31.8434"/>
<polygon fill="midnightblue" stroke="midnightblue" points="1003.25,-31.8719 1000.36,-21.6792 996.259,-31.4502 1003.25,-31.8719"/>
</g>
<!-- Node31&#45;&gt;Node26 -->
<g id="edge74" class="edge"><title>Node31&#45;&gt;Node26</title>
<path fill="none" stroke="midnightblue" d="M177.478,-232.497C213.633,-222.877 267.304,-208.598 306.353,-198.209"/>
<polygon fill="midnightblue" stroke="midnightblue" points="307.684,-201.477 316.448,-195.523 305.884,-194.712 307.684,-201.477"/>
</g>
<!-- Node32&#45;&gt;Node3 -->
<g id="edge78" class="edge"><title>Node32&#45;&gt;Node3</title>
<path fill="none" stroke="midnightblue" d="M1076.93,-117.017C1073.91,-116.66 1070.93,-116.319 1068,-116 869.692,-94.3763 632.362,-78.2247 533.18,-71.9098"/>
<polygon fill="midnightblue" stroke="midnightblue" points="533.378,-68.4154 523.177,-71.2765 532.936,-75.4014 533.378,-68.4154"/>
</g>
<!-- Node32&#45;&gt;Node11 -->
<g id="edge80" class="edge"><title>Node32&#45;&gt;Node11</title>
<path fill="none" stroke="midnightblue" d="M1144.12,-116.295C1137.12,-96.9588 1122.27,-55.9229 1113.31,-31.1767"/>
<polygon fill="midnightblue" stroke="midnightblue" points="1116.56,-29.8903 1109.87,-21.6792 1109.98,-32.2734 1116.56,-29.8903"/>
</g>
</g>
</svg>
