<?xml version="1.0" encoding="UTF-8" standalone="no"?>
<!DOCTYPE svg PUBLIC "-//W3C//DTD SVG 1.1//EN"
 "http://www.w3.org/Graphics/SVG/1.1/DTD/svg11.dtd">
<!-- Generated by graphviz version 2.26.3 (20100126.1600)
 -->
<!-- Title: /home/sqeaky/Code/Mezzanine/Mezzanine/src/XML/writer.cpp Pages: 1 -->
<!--zoomable 448 -->
<svg id="main" version="1.1" xmlns="http://www.w3.org/2000/svg" xmlns:xlink="http://www.w3.org/1999/xlink" xml:space="preserve" onload="init(evt)">
<style type="text/css"><![CDATA[
.edge:hover path { stroke: red; }
.edge:hover polygon { stroke: red; fill: red; }
]]></style>
<script type="text/javascript"><![CDATA[
var edges = document.getElementsByTagName('g');
if (edges && edges.length) {
  for (var i=0;i<edges.length;i++) {
    if (edges[i].id.substr(0,4)=='edge') {
      edges[i].setAttribute('class','edge');
    }
  }
}
]]></script>
        <defs>
                <circle id="rim" cx="0" cy="0" r="7"/>
                <circle id="rim2" cx="0" cy="0" r="3.5"/>
                <g id="zoomPlus">
                        <use xlink:href="#rim" fill="#404040">
                                <set attributeName="fill" to="#808080" begin="zoomplus.mouseover" end="zoomplus.mouseout"/>
                        </use>
                        <path d="M-4,0h8M0,-4v8" fill="none" stroke="white" stroke-width="1.5" pointer-events="none"/>
                </g>
                <g id="zoomMin">
                        <use xlink:href="#rim" fill="#404040">
                                <set attributeName="fill" to="#808080" begin="zoomminus.mouseover" end="zoomminus.mouseout"/>
                        </use>
                        <path d="M-4,0h8" fill="none" stroke="white" stroke-width="1.5" pointer-events="none"/>
                </g>
                <g id="dirArrow">
                        <path fill="none" stroke="white" stroke-width="1.5" d="M0,-3.0v7 M-2.5,-0.5L0,-3.0L2.5,-0.5"/>
                </g>
               <g id="resetDef">
                       <use xlink:href="#rim2" fill="#404040">
                               <set attributeName="fill" to="#808080" begin="reset.mouseover" end="reset.mouseout"/>
                       </use>
               </g>
        </defs>

<script type="text/javascript">
var viewWidth = 1116;
var viewHeight = 448;
var sectionId = 'dynsection-0';
</script>
<script xlink:href="svgpan.js"/>
<svg id="graph" class="graph">
<g id="viewport">
<title>/home/sqeaky/Code/Mezzanine/Mezzanine/src/XML/writer.cpp</title>
<polygon fill="white" stroke="white" points="-4,5 -4,-444 1113,-444 1113,5 -4,5"/>
<!-- Node1 -->
<g id="node1" class="node"><title>Node1</title>
<polygon fill="#bfbfbf" stroke="black" points="191.5,-407 191.5,-439 342.5,-439 342.5,-407 191.5,-407"/>
<text text-anchor="start" x="199.5" y="-426" font-family="FreeSans" font-size="10.00">/home/sqeaky/Code/Mezzanine</text>
<text text-anchor="middle" x="267" y="-414" font-family="FreeSans" font-size="10.00">/Mezzanine/src/XML/writer.cpp</text>
</g>
<!-- Node2 -->
<g id="node3" class="node"><title>Node2</title>
<a xlink:href="writer_8h.html" target="_top" xlink:title="The definitions for all of the XML::Writer inheritance hierarchy. ">
<polygon fill="white" stroke="black" points="231.5,-349 231.5,-369 302.5,-369 302.5,-349 231.5,-349"/>
<text text-anchor="middle" x="267" y="-356" font-family="FreeSans" font-size="10.00">XML/writer.h</text>
</a>
</g>
<!-- Node1&#45;&gt;Node2 -->
<g id="edge2" class="edge"><title>Node1&#45;&gt;Node2</title>
<path fill="none" stroke="midnightblue" d="M267,-406.85C267,-398.518 267,-388.269 267,-379.396"/>
<polygon fill="midnightblue" stroke="midnightblue" points="270.5,-379.141 267,-369.141 263.5,-379.141 270.5,-379.141"/>
</g>
<!-- Node3 -->
<g id="node5" class="node"><title>Node3</title>
<a xlink:href="datatypes_8h.html" target="_top" xlink:title="All the definitions for datatypes as well as some basic conversion functions are defined here...">
<polygon fill="white" stroke="black" points="533.5,-59 533.5,-79 598.5,-79 598.5,-59 533.5,-59"/>
<text text-anchor="middle" x="566" y="-66" font-family="FreeSans" font-size="10.00">datatypes.h</text>
</a>
</g>
<!-- Node2&#45;&gt;Node3 -->
<g id="edge4" class="edge"><title>Node2&#45;&gt;Node3</title>
<path fill="none" stroke="midnightblue" d="M231.268,-351.352C158.513,-334.745 0,-292.845 0,-243 0,-243 0,-243 0,-185 0,-131.652 390.868,-86.8625 522.973,-73.248"/>
<polygon fill="midnightblue" stroke="midnightblue" points="523.531,-76.7093 533.123,-72.2109 522.819,-69.7455 523.531,-76.7093"/>
</g>
<!-- Node21 -->
<g id="node41" class="node"><title>Node21</title>
<a xlink:href="resource_8h_source.html" target="_top" xlink:title="resource.h">
<polygon fill="white" stroke="black" points="503.5,-291 503.5,-311 564.5,-311 564.5,-291 503.5,-291"/>
<text text-anchor="middle" x="534" y="-298" font-family="FreeSans" font-size="10.00">resource.h</text>
</a>
</g>
<!-- Node2&#45;&gt;Node21 -->
<g id="edge40" class="edge"><title>Node2&#45;&gt;Node21</title>
<path fill="none" stroke="midnightblue" d="M302.732,-351.238C352.289,-340.473 441.635,-321.064 493.573,-309.782"/>
<polygon fill="midnightblue" stroke="midnightblue" points="494.41,-313.182 503.439,-307.639 492.924,-306.341 494.41,-313.182"/>
</g>
<!-- Node4 -->
<g id="node7" class="node"><title>Node4</title>
<a xlink:href="crossplatformexport_8h.html" target="_top" xlink:title="This file is used on some platforms to determine what data should be read and written to and from a s...">
<polygon fill="white" stroke="black" points="1000,-1 1000,-21 1108,-21 1108,-1 1000,-1"/>
<text text-anchor="middle" x="1054" y="-8" font-family="FreeSans" font-size="10.00">crossplatformexport.h</text>
</a>
</g>
<!-- Node3&#45;&gt;Node4 -->
<g id="edge6" class="edge"><title>Node3&#45;&gt;Node4</title>
<path fill="none" stroke="midnightblue" d="M598.612,-66.097C668.411,-59.733 837.638,-43.499 989.745,-22.1129"/>
<polygon fill="midnightblue" stroke="midnightblue" points="990.328,-25.5653 999.738,-20.6968 989.346,-18.6345 990.328,-25.5653"/>
</g>
<!-- Node5 -->
<g id="node9" class="node"><title>Node5</title>
<polygon fill="white" stroke="#bfbfbf" points="5.5,-1 5.5,-21 52.5,-21 52.5,-1 5.5,-1"/>
<text text-anchor="middle" x="29" y="-8" font-family="FreeSans" font-size="10.00">stdint.h</text>
</g>
<!-- Node3&#45;&gt;Node5 -->
<g id="edge8" class="edge"><title>Node3&#45;&gt;Node5</title>
<path fill="none" stroke="midnightblue" d="M533.437,-66.9871C439.69,-61.0366 169.537,-42.7573 62.4319,-21.842"/>
<polygon fill="midnightblue" stroke="midnightblue" points="63.0884,-18.4038 52.5873,-19.8101 61.6733,-25.2593 63.0884,-18.4038"/>
</g>
<!-- Node6 -->
<g id="node11" class="node"><title>Node6</title>
<polygon fill="white" stroke="#bfbfbf" points="70,-1 70,-21 118,-21 118,-1 70,-1"/>
<text text-anchor="middle" x="94" y="-8" font-family="FreeSans" font-size="10.00">cstddef</text>
</g>
<!-- Node3&#45;&gt;Node6 -->
<g id="edge10" class="edge"><title>Node3&#45;&gt;Node6</title>
<path fill="none" stroke="midnightblue" d="M533.399,-67.9037C461.598,-64.9816 284.441,-54.9886 128.579,-21.9727"/>
<polygon fill="midnightblue" stroke="midnightblue" points="128.858,-18.4524 118.345,-19.7645 127.382,-25.295 128.858,-18.4524"/>
</g>
<!-- Node7 -->
<g id="node13" class="node"><title>Node7</title>
<polygon fill="white" stroke="#bfbfbf" points="136,-1 136,-21 192,-21 192,-1 136,-1"/>
<text text-anchor="middle" x="164" y="-8" font-family="FreeSans" font-size="10.00">algorithm</text>
</g>
<!-- Node3&#45;&gt;Node7 -->
<g id="edge12" class="edge"><title>Node3&#45;&gt;Node7</title>
<path fill="none" stroke="midnightblue" d="M533.481,-66.58C470.978,-61.5507 329.68,-48.3521 202.103,-21.9699"/>
<polygon fill="midnightblue" stroke="midnightblue" points="202.668,-18.5122 192.162,-19.881 201.228,-25.3626 202.668,-18.5122"/>
</g>
<!-- Node8 -->
<g id="node15" class="node"><title>Node8</title>
<polygon fill="white" stroke="#bfbfbf" points="210,-1 210,-21 268,-21 268,-1 210,-1"/>
<text text-anchor="middle" x="239" y="-8" font-family="FreeSans" font-size="10.00">exception</text>
</g>
<!-- Node3&#45;&gt;Node8 -->
<g id="edge14" class="edge"><title>Node3&#45;&gt;Node8</title>
<path fill="none" stroke="midnightblue" d="M533.248,-64.983C481.197,-58.3164 376.261,-43.7269 278.421,-22.1303"/>
<polygon fill="midnightblue" stroke="midnightblue" points="278.891,-18.649 268.368,-19.8804 277.362,-25.48 278.891,-18.649"/>
</g>
<!-- Node9 -->
<g id="node17" class="node"><title>Node9</title>
<polygon fill="white" stroke="#bfbfbf" points="286,-1 286,-21 334,-21 334,-1 286,-1"/>
<text text-anchor="middle" x="310" y="-8" font-family="FreeSans" font-size="10.00">istream</text>
</g>
<!-- Node3&#45;&gt;Node9 -->
<g id="edge16" class="edge"><title>Node3&#45;&gt;Node9</title>
<path fill="none" stroke="midnightblue" d="M533.223,-63.3029C491.376,-55.7662 416.608,-41.4191 343.84,-22.0144"/>
<polygon fill="midnightblue" stroke="midnightblue" points="344.621,-18.5999 334.054,-19.3703 342.795,-25.3576 344.621,-18.5999"/>
</g>
<!-- Node10 -->
<g id="node19" class="node"><title>Node10</title>
<polygon fill="white" stroke="#bfbfbf" points="351.5,-1 351.5,-21 380.5,-21 380.5,-1 351.5,-1"/>
<text text-anchor="middle" x="366" y="-8" font-family="FreeSans" font-size="10.00">list</text>
</g>
<!-- Node3&#45;&gt;Node10 -->
<g id="edge18" class="edge"><title>Node3&#45;&gt;Node10</title>
<path fill="none" stroke="midnightblue" d="M533.466,-62.2774C499.493,-54.8425 444.645,-41.6709 390.336,-22.0919"/>
<polygon fill="midnightblue" stroke="midnightblue" points="391.514,-18.7959 380.92,-18.6294 389.098,-25.3657 391.514,-18.7959"/>
</g>
<!-- Node11 -->
<g id="node21" class="node"><title>Node11</title>
<polygon fill="white" stroke="#bfbfbf" points="397.5,-1 397.5,-21 432.5,-21 432.5,-1 397.5,-1"/>
<text text-anchor="middle" x="415" y="-8" font-family="FreeSans" font-size="10.00">map</text>
</g>
<!-- Node3&#45;&gt;Node11 -->
<g id="edge20" class="edge"><title>Node3&#45;&gt;Node11</title>
<path fill="none" stroke="midnightblue" d="M538.073,-58.8681C514.643,-50.2874 480.094,-37.4483 442.265,-22.4194"/>
<polygon fill="midnightblue" stroke="midnightblue" points="443.167,-19.0108 432.582,-18.5526 440.571,-25.5116 443.167,-19.0108"/>
</g>
<!-- Node12 -->
<g id="node23" class="node"><title>Node12</title>
<polygon fill="white" stroke="#bfbfbf" points="450,-1 450,-21 490,-21 490,-1 450,-1"/>
<text text-anchor="middle" x="470" y="-8" font-family="FreeSans" font-size="10.00">string</text>
</g>
<!-- Node3&#45;&gt;Node12 -->
<g id="edge22" class="edge"><title>Node3&#45;&gt;Node12</title>
<path fill="none" stroke="midnightblue" d="M549.278,-58.8972C534.502,-49.9698 512.721,-36.8106 495.726,-26.5431"/>
<polygon fill="midnightblue" stroke="midnightblue" points="497.221,-23.3572 486.852,-21.1817 493.602,-29.3486 497.221,-23.3572"/>
</g>
<!-- Node13 -->
<g id="node25" class="node"><title>Node13</title>
<polygon fill="white" stroke="#bfbfbf" points="508,-1 508,-21 558,-21 558,-1 508,-1"/>
<text text-anchor="middle" x="533" y="-8" font-family="FreeSans" font-size="10.00">sstream</text>
</g>
<!-- Node3&#45;&gt;Node13 -->
<g id="edge24" class="edge"><title>Node3&#45;&gt;Node13</title>
<path fill="none" stroke="midnightblue" d="M560.252,-58.8972C555.765,-51.0104 549.398,-39.8209 543.947,-30.2401"/>
<polygon fill="midnightblue" stroke="midnightblue" points="546.892,-28.3384 538.904,-21.3776 540.808,-31.8001 546.892,-28.3384"/>
</g>
<!-- Node14 -->
<g id="node27" class="node"><title>Node14</title>
<polygon fill="white" stroke="#bfbfbf" points="575.5,-1 575.5,-21 624.5,-21 624.5,-1 575.5,-1"/>
<text text-anchor="middle" x="600" y="-8" font-family="FreeSans" font-size="10.00">fstream</text>
</g>
<!-- Node3&#45;&gt;Node14 -->
<g id="edge26" class="edge"><title>Node3&#45;&gt;Node14</title>
<path fill="none" stroke="midnightblue" d="M571.922,-58.8972C576.546,-51.0104 583.105,-39.8209 588.721,-30.2401"/>
<polygon fill="midnightblue" stroke="midnightblue" points="591.879,-31.7746 593.917,-21.3776 585.84,-28.2346 591.879,-31.7746"/>
</g>
<!-- Node15 -->
<g id="node29" class="node"><title>Node15</title>
<polygon fill="white" stroke="#bfbfbf" points="641.5,-1 641.5,-21 670.5,-21 670.5,-1 641.5,-1"/>
<text text-anchor="middle" x="656" y="-8" font-family="FreeSans" font-size="10.00">set</text>
</g>
<!-- Node3&#45;&gt;Node15 -->
<g id="edge28" class="edge"><title>Node3&#45;&gt;Node15</title>
<path fill="none" stroke="midnightblue" d="M581.677,-58.8972C595.738,-49.8354 616.565,-36.4134 632.598,-26.0814"/>
<polygon fill="midnightblue" stroke="midnightblue" points="634.886,-28.7705 641.396,-20.4114 631.094,-22.8865 634.886,-28.7705"/>
</g>
<!-- Node16 -->
<g id="node31" class="node"><title>Node16</title>
<polygon fill="white" stroke="#bfbfbf" points="687.5,-1 687.5,-21 730.5,-21 730.5,-1 687.5,-1"/>
<text text-anchor="middle" x="709" y="-8" font-family="FreeSans" font-size="10.00">vector</text>
</g>
<!-- Node3&#45;&gt;Node16 -->
<g id="edge30" class="edge"><title>Node3&#45;&gt;Node16</title>
<path fill="none" stroke="midnightblue" d="M590.909,-58.8972C615.034,-49.1122 651.693,-34.2434 677.76,-23.6706"/>
<polygon fill="midnightblue" stroke="midnightblue" points="679.233,-26.8504 687.184,-19.8484 676.602,-20.3636 679.233,-26.8504"/>
</g>
<!-- Node17 -->
<g id="node33" class="node"><title>Node17</title>
<polygon fill="white" stroke="#bfbfbf" points="747.5,-1 747.5,-21 786.5,-21 786.5,-1 747.5,-1"/>
<text text-anchor="middle" x="767" y="-8" font-family="FreeSans" font-size="10.00">utility</text>
</g>
<!-- Node3&#45;&gt;Node17 -->
<g id="edge32" class="edge"><title>Node3&#45;&gt;Node17</title>
<path fill="none" stroke="midnightblue" d="M598.517,-61.2916C631.541,-53.2171 684.288,-39.6471 737.607,-22.2556"/>
<polygon fill="midnightblue" stroke="midnightblue" points="738.816,-25.5424 747.213,-19.082 736.62,-18.8958 738.816,-25.5424"/>
</g>
<!-- Node18 -->
<g id="node35" class="node"><title>Node18</title>
<polygon fill="white" stroke="#bfbfbf" points="803.5,-1 803.5,-21 854.5,-21 854.5,-1 803.5,-1"/>
<text text-anchor="middle" x="829" y="-8" font-family="FreeSans" font-size="10.00">memory</text>
</g>
<!-- Node3&#45;&gt;Node18 -->
<g id="edge34" class="edge"><title>Node3&#45;&gt;Node18</title>
<path fill="none" stroke="midnightblue" d="M598.877,-63.4318C641.67,-55.9281 718.921,-41.5108 793.451,-22.2215"/>
<polygon fill="midnightblue" stroke="midnightblue" points="794.685,-25.5164 803.47,-19.5941 792.909,-18.7453 794.685,-25.5164"/>
</g>
<!-- Node19 -->
<g id="node37" class="node"><title>Node19</title>
<polygon fill="white" stroke="#bfbfbf" points="871.5,-1 871.5,-21 922.5,-21 922.5,-1 871.5,-1"/>
<text text-anchor="middle" x="897" y="-8" font-family="FreeSans" font-size="10.00">ostream</text>
</g>
<!-- Node3&#45;&gt;Node19 -->
<g id="edge36" class="edge"><title>Node3&#45;&gt;Node19</title>
<path fill="none" stroke="midnightblue" d="M598.848,-65.4996C652.184,-59.451 761.005,-45.5941 861.156,-22.1986"/>
<polygon fill="midnightblue" stroke="midnightblue" points="862.209,-25.5458 871.13,-19.8296 860.592,-18.7353 862.209,-25.5458"/>
</g>
<!-- Node20 -->
<g id="node39" class="node"><title>Node20</title>
<a xlink:href="swig_8h.html" target="_top" xlink:title="Used to give commands specifically to the SWIG preprocessor. ">
<polygon fill="white" stroke="black" points="939.5,-1 939.5,-21 982.5,-21 982.5,-1 939.5,-1"/>
<text text-anchor="middle" x="961" y="-8" font-family="FreeSans" font-size="10.00">swig.h</text>
</a>
</g>
<!-- Node3&#45;&gt;Node20 -->
<g id="edge38" class="edge"><title>Node3&#45;&gt;Node20</title>
<path fill="none" stroke="midnightblue" d="M598.67,-67.2442C661.432,-63.3494 803.158,-52.0283 929.388,-22.01"/>
<polygon fill="midnightblue" stroke="midnightblue" points="930.327,-25.3838 939.22,-19.6256 928.677,-18.581 930.327,-25.3838"/>
</g>
<!-- Node22 -->
<g id="node43" class="node"><title>Node22</title>
<a xlink:href="resourceenumerations_8h_source.html" target="_top" xlink:title="Resource/resourceenumerations.h">
<polygon fill="white" stroke="black" points="912,-233 912,-253 1074,-253 1074,-233 912,-233"/>
<text text-anchor="middle" x="993" y="-240" font-family="FreeSans" font-size="10.00">Resource/resourceenumerations.h</text>
</a>
</g>
<!-- Node21&#45;&gt;Node22 -->
<g id="edge42" class="edge"><title>Node21&#45;&gt;Node22</title>
<path fill="none" stroke="midnightblue" d="M564.829,-297.104C633.107,-288.477 799.255,-267.482 903.355,-254.328"/>
<polygon fill="midnightblue" stroke="midnightblue" points="904.059,-257.767 913.542,-253.04 903.182,-250.822 904.059,-257.767"/>
</g>
<!-- Node23 -->
<g id="node45" class="node"><title>Node23</title>
<a xlink:href="archive_8h_source.html" target="_top" xlink:title="Resource/archive.h">
<polygon fill="white" stroke="black" points="28,-233 28,-253 126,-253 126,-233 28,-233"/>
<text text-anchor="middle" x="77" y="-240" font-family="FreeSans" font-size="10.00">Resource/archive.h</text>
</a>
</g>
<!-- Node21&#45;&gt;Node23 -->
<g id="edge44" class="edge"><title>Node21&#45;&gt;Node23</title>
<path fill="none" stroke="midnightblue" d="M503.367,-298.132C437.937,-291.847 279.508,-275.787 136.29,-254.115"/>
<polygon fill="midnightblue" stroke="midnightblue" points="136.42,-250.594 126.006,-252.545 135.363,-257.514 136.42,-250.594"/>
</g>
<!-- Node24 -->
<g id="node47" class="node"><title>Node24</title>
<a xlink:href="asset_8h_source.html" target="_top" xlink:title="Resource/asset.h">
<polygon fill="white" stroke="black" points="144,-233 144,-253 234,-253 234,-233 144,-233"/>
<text text-anchor="middle" x="189" y="-240" font-family="FreeSans" font-size="10.00">Resource/asset.h</text>
</a>
</g>
<!-- Node21&#45;&gt;Node24 -->
<g id="edge46" class="edge"><title>Node21&#45;&gt;Node24</title>
<path fill="none" stroke="midnightblue" d="M503.345,-296.47C451.931,-288.781 344.84,-272.378 244.096,-254.148"/>
<polygon fill="midnightblue" stroke="midnightblue" points="244.52,-250.668 234.055,-252.321 243.267,-257.555 244.52,-250.668"/>
</g>
<!-- Node25 -->
<g id="node49" class="node"><title>Node25</title>
<a xlink:href="assetgroup_8h_source.html" target="_top" xlink:title="Resource/assetgroup.h">
<polygon fill="white" stroke="black" points="252,-233 252,-253 366,-253 366,-233 252,-233"/>
<text text-anchor="middle" x="309" y="-240" font-family="FreeSans" font-size="10.00">Resource/assetgroup.h</text>
</a>
</g>
<!-- Node21&#45;&gt;Node25 -->
<g id="edge48" class="edge"><title>Node21&#45;&gt;Node25</title>
<path fill="none" stroke="midnightblue" d="M503.186,-293.057C465.781,-283.415 402.236,-267.034 358.068,-255.649"/>
<polygon fill="midnightblue" stroke="midnightblue" points="358.678,-252.191 348.121,-253.084 356.93,-258.97 358.678,-252.191"/>
</g>
<!-- Node26 -->
<g id="node51" class="node"><title>Node26</title>
<a xlink:href="assethandler_8h_source.html" target="_top" xlink:title="Resource/assethandler.h">
<polygon fill="white" stroke="black" points="384,-233 384,-253 506,-253 506,-233 384,-233"/>
<text text-anchor="middle" x="445" y="-240" font-family="FreeSans" font-size="10.00">Resource/assethandler.h</text>
</a>
</g>
<!-- Node21&#45;&gt;Node26 -->
<g id="edge50" class="edge"><title>Node21&#45;&gt;Node26</title>
<path fill="none" stroke="midnightblue" d="M518.497,-290.897C504.925,-282.052 484.979,-269.054 469.289,-258.829"/>
<polygon fill="midnightblue" stroke="midnightblue" points="470.913,-255.709 460.624,-253.182 467.091,-261.574 470.913,-255.709"/>
</g>
<!-- Node27 -->
<g id="node53" class="node"><title>Node27</title>
<a xlink:href="datastream_8h.html" target="_top" xlink:title="Declaration of DataStream. ">
<polygon fill="white" stroke="black" points="640,-175 640,-195 756,-195 756,-175 640,-175"/>
<text text-anchor="middle" x="698" y="-182" font-family="FreeSans" font-size="10.00">Resource/datastream.h</text>
</a>
</g>
<!-- Node21&#45;&gt;Node27 -->
<g id="edge52" class="edge"><title>Node21&#45;&gt;Node27</title>
<path fill="none" stroke="midnightblue" d="M564.726,-296.801C608.298,-290.147 684.588,-275.669 701,-254 711.486,-240.155 709.146,-219.889 705.137,-204.899"/>
<polygon fill="midnightblue" stroke="midnightblue" points="708.395,-203.592 702.082,-195.084 701.712,-205.672 708.395,-203.592"/>
</g>
<!-- Node30 -->
<g id="node61" class="node"><title>Node30</title>
<a xlink:href="filestream_8h.html" target="_top" xlink:title="Declaration of FileStream. ">
<polygon fill="white" stroke="black" points="747.5,-233 747.5,-253 856.5,-253 856.5,-233 747.5,-233"/>
<text text-anchor="middle" x="802" y="-240" font-family="FreeSans" font-size="10.00">Resource/filestream.h</text>
</a>
</g>
<!-- Node21&#45;&gt;Node30 -->
<g id="edge62" class="edge"><title>Node21&#45;&gt;Node30</title>
<path fill="none" stroke="midnightblue" d="M564.743,-294.347C608.751,-284.823 690.459,-267.139 745.532,-255.221"/>
<polygon fill="midnightblue" stroke="midnightblue" points="746.457,-258.602 755.49,-253.066 744.976,-251.76 746.457,-258.602"/>
</g>
<!-- Node31 -->
<g id="node64" class="node"><title>Node31</title>
<a xlink:href="inputstream_8h_source.html" target="_top" xlink:title="Resource/inputstream.h">
<polygon fill="white" stroke="black" points="825,-117 825,-137 943,-137 943,-117 825,-117"/>
<text text-anchor="middle" x="884" y="-124" font-family="FreeSans" font-size="10.00">Resource/inputstream.h</text>
</a>
</g>
<!-- Node21&#45;&gt;Node31 -->
<g id="edge66" class="edge"><title>Node21&#45;&gt;Node31</title>
<path fill="none" stroke="midnightblue" d="M564.52,-298.731C642.383,-292.659 843.785,-275.058 865,-254 893.217,-225.993 891.342,-175.379 887.607,-147.244"/>
<polygon fill="midnightblue" stroke="midnightblue" points="891.062,-146.688 886.087,-137.334 884.143,-147.749 891.062,-146.688"/>
</g>
<!-- Node32 -->
<g id="node68" class="node"><title>Node32</title>
<a xlink:href="memorystream_8h.html" target="_top" xlink:title="Declaration of MemoryStream. ">
<polygon fill="white" stroke="black" points="561.5,-233 561.5,-253 692.5,-253 692.5,-233 561.5,-233"/>
<text text-anchor="middle" x="627" y="-240" font-family="FreeSans" font-size="10.00">Resource/memorystream.h</text>
</a>
</g>
<!-- Node21&#45;&gt;Node32 -->
<g id="edge72" class="edge"><title>Node21&#45;&gt;Node32</title>
<path fill="none" stroke="midnightblue" d="M550.199,-290.897C564.514,-281.97 585.614,-268.811 602.077,-258.543"/>
<polygon fill="midnightblue" stroke="midnightblue" points="604.041,-261.443 610.674,-253.182 600.337,-255.504 604.041,-261.443"/>
</g>
<!-- Node33 -->
<g id="node71" class="node"><title>Node33</title>
<a xlink:href="textsettingsfile_8h_source.html" target="_top" xlink:title="Resource/textsettingsfile.h">
<polygon fill="white" stroke="black" points="470,-175 470,-195 598,-195 598,-175 470,-175"/>
<text text-anchor="middle" x="534" y="-182" font-family="FreeSans" font-size="10.00">Resource/textsettingsfile.h</text>
</a>
</g>
<!-- Node21&#45;&gt;Node33 -->
<g id="edge76" class="edge"><title>Node21&#45;&gt;Node33</title>
<path fill="none" stroke="midnightblue" d="M534,-290.706C534,-271.568 534,-230.198 534,-205.265"/>
<polygon fill="midnightblue" stroke="midnightblue" points="537.5,-205.105 534,-195.106 530.5,-205.106 537.5,-205.105"/>
</g>
<!-- Node27&#45;&gt;Node3 -->
<g id="edge54" class="edge"><title>Node27&#45;&gt;Node3</title>
<path fill="none" stroke="midnightblue" d="M704.439,-174.574C712.491,-160.053 723.76,-133.55 711,-116 698.75,-99.152 646.73,-85.2513 608.487,-77.0445"/>
<polygon fill="midnightblue" stroke="midnightblue" points="609.107,-73.5986 598.603,-74.9828 607.678,-80.4511 609.107,-73.5986"/>
</g>
<!-- Node28 -->
<g id="node56" class="node"><title>Node28</title>
<a xlink:href="countedptr_8h.html" target="_top" xlink:title="This file describes and implements a reference counted pointer that is NOT threadsafe. ">
<polygon fill="white" stroke="black" points="562,-117 562,-137 632,-137 632,-117 562,-117"/>
<text text-anchor="middle" x="597" y="-124" font-family="FreeSans" font-size="10.00">countedptr.h</text>
</a>
</g>
<!-- Node27&#45;&gt;Node28 -->
<g id="edge56" class="edge"><title>Node27&#45;&gt;Node28</title>
<path fill="none" stroke="midnightblue" d="M680.407,-174.897C664.717,-165.887 641.521,-152.567 623.571,-142.259"/>
<polygon fill="midnightblue" stroke="midnightblue" points="625.145,-139.126 614.73,-137.182 621.659,-145.197 625.145,-139.126"/>
</g>
<!-- Node29 -->
<g id="node59" class="node"><title>Node29</title>
<polygon fill="white" stroke="#bfbfbf" points="649.5,-117 649.5,-137 702.5,-137 702.5,-117 649.5,-117"/>
<text text-anchor="middle" x="676" y="-124" font-family="FreeSans" font-size="10.00">iostream</text>
</g>
<!-- Node27&#45;&gt;Node29 -->
<g id="edge60" class="edge"><title>Node27&#45;&gt;Node29</title>
<path fill="none" stroke="midnightblue" d="M694.168,-174.897C691.239,-167.175 687.108,-156.286 683.526,-146.841"/>
<polygon fill="midnightblue" stroke="midnightblue" points="686.755,-145.486 679.936,-137.378 680.21,-147.969 686.755,-145.486"/>
</g>
<!-- Node28&#45;&gt;Node3 -->
<g id="edge58" class="edge"><title>Node28&#45;&gt;Node3</title>
<path fill="none" stroke="midnightblue" d="M591.6,-116.897C587.385,-109.01 581.404,-97.8209 576.284,-88.2401"/>
<polygon fill="midnightblue" stroke="midnightblue" points="579.347,-86.5471 571.547,-79.3776 573.174,-89.8468 579.347,-86.5471"/>
</g>
<!-- Node30&#45;&gt;Node27 -->
<g id="edge64" class="edge"><title>Node30&#45;&gt;Node27</title>
<path fill="none" stroke="midnightblue" d="M783.885,-232.897C767.655,-223.846 743.624,-210.444 725.106,-200.117"/>
<polygon fill="midnightblue" stroke="midnightblue" points="726.695,-196.996 716.257,-195.182 723.286,-203.109 726.695,-196.996"/>
</g>
<!-- Node31&#45;&gt;Node3 -->
<g id="edge70" class="edge"><title>Node31&#45;&gt;Node3</title>
<path fill="none" stroke="midnightblue" d="M828.972,-116.963C766.383,-105.548 665.519,-87.1512 608.618,-76.7731"/>
<polygon fill="midnightblue" stroke="midnightblue" points="608.99,-73.2833 598.524,-74.9321 607.734,-80.1697 608.99,-73.2833"/>
</g>
<!-- Node31&#45;&gt;Node4 -->
<g id="edge68" class="edge"><title>Node31&#45;&gt;Node4</title>
<path fill="none" stroke="midnightblue" d="M898.789,-116.909C928.428,-96.6844 995.294,-51.0582 1030.81,-26.8228"/>
<polygon fill="midnightblue" stroke="midnightblue" points="1032.84,-29.6781 1039.12,-21.1506 1028.89,-23.8959 1032.84,-29.6781"/>
</g>
<!-- Node32&#45;&gt;Node27 -->
<g id="edge74" class="edge"><title>Node32&#45;&gt;Node27</title>
<path fill="none" stroke="midnightblue" d="M639.367,-232.897C649.826,-224.353 665.03,-211.933 677.335,-201.881"/>
<polygon fill="midnightblue" stroke="midnightblue" points="679.766,-204.415 685.296,-195.378 675.338,-198.994 679.766,-204.415"/>
</g>
<!-- Node33&#45;&gt;Node3 -->
<g id="edge78" class="edge"><title>Node33&#45;&gt;Node3</title>
<path fill="none" stroke="midnightblue" d="M536.829,-174.712C540.538,-161.227 547.248,-136.84 553,-116 555.47,-107.048 558.21,-97.1393 560.536,-88.7365"/>
<polygon fill="midnightblue" stroke="midnightblue" points="563.913,-89.6555 563.207,-79.0842 557.166,-87.7882 563.913,-89.6555"/>
</g>
</g>
</svg>
        <g id="navigator" transform="translate(0 0)" fill="#404254">
                <rect fill="#f2f5e9" fill-opacity="0.5" stroke="#606060" stroke-width=".5" x="0" y="0" width="60" height="60"/>
                <use id="zoomplus" xlink:href="#zoomPlus" x="17" y="9" onmousedown="handleZoom(evt,'in')"/>
                <use id="zoomminus" xlink:href="#zoomMin" x="42" y="9" onmousedown="handleZoom(evt,'out')"/>
                <use id="reset" xlink:href="#resetDef" x="30" y="36" onmousedown="handleReset()"/>
                <g id="arrowUp" xlink:href="#dirArrow" transform="translate(30 24)" onmousedown="handlePan(0,-1)">
                  <use xlink:href="#rim" fill="#404040">
                        <set attributeName="fill" to="#808080" begin="arrowUp.mouseover" end="arrowUp.mouseout"/>
                  </use>
                  <path fill="none" stroke="white" stroke-width="1.5" d="M0,-3.0v7 M-2.5,-0.5L0,-3.0L2.5,-0.5"/>
                </g>
                <g id="arrowRight" xlink:href="#dirArrow" transform="rotate(90) translate(36 -43)" onmousedown="handlePan(1,0)">
                  <use xlink:href="#rim" fill="#404040">
                        <set attributeName="fill" to="#808080" begin="arrowRight.mouseover" end="arrowRight.mouseout"/>
                  </use>
                  <path fill="none" stroke="white" stroke-width="1.5" d="M0,-3.0v7 M-2.5,-0.5L0,-3.0L2.5,-0.5"/>
                </g>
                <g id="arrowDown" xlink:href="#dirArrow" transform="rotate(180) translate(-30 -48)" onmousedown="handlePan(0,1)">
                  <use xlink:href="#rim" fill="#404040">
                        <set attributeName="fill" to="#808080" begin="arrowDown.mouseover" end="arrowDown.mouseout"/>
                  </use>
                  <path fill="none" stroke="white" stroke-width="1.5" d="M0,-3.0v7 M-2.5,-0.5L0,-3.0L2.5,-0.5"/>
                </g>
                <g id="arrowLeft" xlink:href="#dirArrow" transform="rotate(270) translate(-36 17)" onmousedown="handlePan(-1,0)">
                  <use xlink:href="#rim" fill="#404040">
                        <set attributeName="fill" to="#808080" begin="arrowLeft.mouseover" end="arrowLeft.mouseout"/>
                  </use>
                  <path fill="none" stroke="white" stroke-width="1.5" d="M0,-3.0v7 M-2.5,-0.5L0,-3.0L2.5,-0.5"/>
                </g>
        </g>
        <svg viewBox="0 0 15 15" width="100%" height="30px" preserveAspectRatio="xMaxYMin meet">
         <g id="arrow_out" transform="scale(0.3 0.3)">
          <a xlink:href="writer_8cpp__incl_org.svg" target="_base">
           <rect id="button" ry="5" rx="5" y="6" x="6" height="38" width="38"
                fill="#f2f5e9" fill-opacity="0.5" stroke="#606060" stroke-width="1.0"/>
           <path id="arrow"
             d="M 11.500037,31.436501 C 11.940474,20.09759 22.043105,11.32322 32.158766,21.979434 L 37.068811,17.246167 C 37.068811,17.246167 37.088388,32 37.088388,32 L 22.160133,31.978069 C 22.160133,31.978069 26.997745,27.140456 26.997745,27.140456 C 18.528582,18.264221 13.291696,25.230495 11.500037,31.436501 z"
             style="fill:#404040;"/>
          </a>
         </g>
        </svg>
</svg>
