<?xml version="1.0" encoding="UTF-8" standalone="no"?>
<!DOCTYPE svg PUBLIC "-//W3C//DTD SVG 1.1//EN"
 "http://www.w3.org/Graphics/SVG/1.1/DTD/svg11.dtd">
<!-- Generated by graphviz version 2.26.3 (20100126.1600)
 -->
<!-- Title: /home/Code/Mezzanine/Mezzanine/src/XML/xmlstring.cpp Pages: 1 -->
<svg width="1742pt" height="508pt"
 viewBox="0.00 0.00 1741.97 508.00" xmlns="http://www.w3.org/2000/svg" xmlns:xlink="http://www.w3.org/1999/xlink">
<g id="graph1" class="graph" transform="scale(1 1) rotate(0) translate(4 504)">
<title>/home/Code/Mezzanine/Mezzanine/src/XML/xmlstring.cpp</title>
<polygon fill="white" stroke="white" points="-4,5 -4,-504 1738.97,-504 1738.97,5 -4,5"/>
<!-- Node1 -->
<g id="node1" class="node"><title>Node1</title>
<polygon fill="#bfbfbf" stroke="black" points="1534.97,-465 1534.97,-499 1712.97,-499 1712.97,-465 1534.97,-465"/>
<text text-anchor="start" x="1542.97" y="-486" font-family="FreeSans" font-size="10.00">/home/Code/Mezzanine</text>
<text text-anchor="middle" x="1623.97" y="-473" font-family="FreeSans" font-size="10.00">/Mezzanine/src/XML/xmlstring.cpp</text>
</g>
<!-- Node2 -->
<g id="node3" class="node"><title>Node2</title>
<a xlink:href="document_8h.xhtml" target="_top" xlink:title="The definition of the XML::Document Class.">
<polygon fill="white" stroke="black" points="1287.47,-406.5 1287.47,-427.5 1384.47,-427.5 1384.47,-406.5 1287.47,-406.5"/>
<text text-anchor="middle" x="1335.97" y="-414.5" font-family="FreeSans" font-size="10.00">XML/document.h</text>
</a>
</g>
<!-- Node1&#45;&gt;Node2 -->
<g id="edge2" class="edge"><title>Node1&#45;&gt;Node2</title>
<path fill="none" stroke="midnightblue" d="M1548.3,-464.922C1499.49,-453.907 1437.05,-439.814 1392.54,-429.769"/>
<polygon fill="midnightblue" stroke="midnightblue" points="1393.29,-426.35 1382.77,-427.562 1391.75,-433.178 1393.29,-426.35"/>
</g>
<!-- Node39 -->
<g id="node95" class="node"><title>Node39</title>
<a xlink:href="xmlstring_8h.xhtml" target="_top" xlink:title="A few functions to help the XML system perform conversions between UTF8 and the native wide character...">
<polygon fill="white" stroke="black" points="1577.97,-348.5 1577.97,-369.5 1669.97,-369.5 1669.97,-348.5 1577.97,-348.5"/>
<text text-anchor="middle" x="1623.97" y="-356.5" font-family="FreeSans" font-size="10.00">XML/xmlstring.h</text>
</a>
</g>
<!-- Node1&#45;&gt;Node39 -->
<g id="edge112" class="edge"><title>Node1&#45;&gt;Node39</title>
<path fill="none" stroke="midnightblue" d="M1623.97,-464.897C1623.97,-442.673 1623.97,-403.886 1623.97,-379.929"/>
<polygon fill="midnightblue" stroke="midnightblue" points="1627.47,-379.787 1623.97,-369.787 1620.47,-379.787 1627.47,-379.787"/>
</g>
<!-- Node40 -->
<g id="node98" class="node"><title>Node40</title>
<a xlink:href="exception_8h_source.xhtml" target="_top" xlink:title="exception.h">
<polygon fill="white" stroke="black" points="1661.97,-290.5 1661.97,-311.5 1733.97,-311.5 1733.97,-290.5 1661.97,-290.5"/>
<text text-anchor="middle" x="1697.97" y="-298.5" font-family="FreeSans" font-size="10.00">exception.h</text>
</a>
</g>
<!-- Node1&#45;&gt;Node40 -->
<g id="edge116" class="edge"><title>Node1&#45;&gt;Node40</title>
<path fill="none" stroke="midnightblue" d="M1633.58,-464.99C1645.47,-443.42 1665.75,-404.837 1678.97,-370 1684.95,-354.233 1689.93,-335.791 1693.29,-321.941"/>
<polygon fill="midnightblue" stroke="midnightblue" points="1696.75,-322.492 1695.62,-311.958 1689.94,-320.898 1696.75,-322.492"/>
</g>
<!-- Node3 -->
<g id="node5" class="node"><title>Node3</title>
<a xlink:href="datatypes_8h.xhtml" target="_top" xlink:title="All the definitions for datatypes as well as some basic conversion functions are defined here...">
<polygon fill="white" stroke="black" points="1176.97,-58.5 1176.97,-79.5 1250.97,-79.5 1250.97,-58.5 1176.97,-58.5"/>
<text text-anchor="middle" x="1213.97" y="-66.5" font-family="FreeSans" font-size="10.00">datatypes.h</text>
</a>
</g>
<!-- Node2&#45;&gt;Node3 -->
<g id="edge4" class="edge"><title>Node2&#45;&gt;Node3</title>
<path fill="none" stroke="midnightblue" d="M1287.01,-409.53C1229.54,-397.659 1141.97,-368.497 1141.97,-301 1141.97,-301 1141.97,-301 1141.97,-185 1141.97,-153.192 1144.15,-143 1160.97,-116 1168.23,-104.337 1179.25,-93.903 1189.36,-85.8459"/>
<polygon fill="midnightblue" stroke="midnightblue" points="1191.67,-88.4852 1197.54,-79.6623 1187.45,-82.9015 1191.67,-88.4852"/>
</g>
<!-- Node20 -->
<g id="node39" class="node"><title>Node20</title>
<a xlink:href="xmlenumerations_8h.xhtml" target="_top" xlink:title="Enumerations and constant values used primarily in the XML system but useful for interacting with it ...">
<polygon fill="white" stroke="black" points="1435.97,-116.5 1435.97,-137.5 1567.97,-137.5 1567.97,-116.5 1435.97,-116.5"/>
<text text-anchor="middle" x="1501.97" y="-124.5" font-family="FreeSans" font-size="10.00">XML/xmlenumerations.h</text>
</a>
</g>
<!-- Node2&#45;&gt;Node20 -->
<g id="edge38" class="edge"><title>Node2&#45;&gt;Node20</title>
<path fill="none" stroke="midnightblue" d="M1349.73,-406.49C1372.36,-387.895 1414.97,-346.807 1414.97,-301 1414.97,-301 1414.97,-301 1414.97,-243 1414.97,-210.069 1422.31,-200.421 1441.97,-174 1450.97,-161.903 1463.85,-151.262 1475.36,-143.179"/>
<polygon fill="midnightblue" stroke="midnightblue" points="1477.46,-145.988 1483.82,-137.514 1473.56,-140.172 1477.46,-145.988"/>
</g>
<!-- Node21 -->
<g id="node42" class="node"><title>Node21</title>
<a xlink:href="parseresult_8h.xhtml" target="_top" xlink:title="XML/parseresult.h">
<polygon fill="white" stroke="black" points="1450.97,-174.5 1450.97,-195.5 1552.97,-195.5 1552.97,-174.5 1450.97,-174.5"/>
<text text-anchor="middle" x="1501.97" y="-182.5" font-family="FreeSans" font-size="10.00">XML/parseresult.h</text>
</a>
</g>
<!-- Node2&#45;&gt;Node21 -->
<g id="edge42" class="edge"><title>Node2&#45;&gt;Node21</title>
<path fill="none" stroke="midnightblue" d="M1370.77,-406.333C1390.12,-398.86 1413.37,-387.11 1428.97,-370 1473.25,-321.445 1492.03,-242.841 1498.76,-205.7"/>
<polygon fill="midnightblue" stroke="midnightblue" points="1502.26,-206.028 1500.48,-195.583 1495.35,-204.857 1502.26,-206.028"/>
</g>
<!-- Node22 -->
<g id="node46" class="node"><title>Node22</title>
<a xlink:href="node_8h.xhtml" target="_top" xlink:title="This defines the Mezzanine::XML::Node one of the central XML classes.">
<polygon fill="white" stroke="black" points="1299.97,-174.5 1299.97,-195.5 1371.97,-195.5 1371.97,-174.5 1299.97,-174.5"/>
<text text-anchor="middle" x="1335.97" y="-182.5" font-family="FreeSans" font-size="10.00">XML/node.h</text>
</a>
</g>
<!-- Node2&#45;&gt;Node22 -->
<g id="edge48" class="edge"><title>Node2&#45;&gt;Node22</title>
<path fill="none" stroke="midnightblue" d="M1335.97,-406.429C1335.97,-370.648 1335.97,-253.663 1335.97,-205.748"/>
<polygon fill="midnightblue" stroke="midnightblue" points="1339.47,-205.633 1335.97,-195.634 1332.47,-205.634 1339.47,-205.633"/>
</g>
<!-- Node25 -->
<g id="node56" class="node"><title>Node25</title>
<a xlink:href="writer_8h.xhtml" target="_top" xlink:title="The definitions for all of the XML::Writer inheritance hierarchy.">
<polygon fill="white" stroke="black" points="1041.47,-348.5 1041.47,-369.5 1114.47,-369.5 1114.47,-348.5 1041.47,-348.5"/>
<text text-anchor="middle" x="1077.97" y="-356.5" font-family="FreeSans" font-size="10.00">XML/writer.h</text>
</a>
</g>
<!-- Node2&#45;&gt;Node25 -->
<g id="edge62" class="edge"><title>Node2&#45;&gt;Node25</title>
<path fill="none" stroke="midnightblue" d="M1289.25,-406.497C1242.57,-396.004 1171.24,-379.967 1124.6,-369.482"/>
<polygon fill="midnightblue" stroke="midnightblue" points="1125.27,-366.047 1114.75,-367.268 1123.74,-372.877 1125.27,-366.047"/>
</g>
<!-- Node32 -->
<g id="node71" class="node"><title>Node32</title>
<a xlink:href="datastream_8h.xhtml" target="_top" xlink:title="Declaration of DataStream.">
<polygon fill="white" stroke="black" points="704.969,-174.5 704.969,-195.5 832.969,-195.5 832.969,-174.5 704.969,-174.5"/>
<text text-anchor="middle" x="768.969" y="-182.5" font-family="FreeSans" font-size="10.00">Resource/datastream.h</text>
</a>
</g>
<!-- Node2&#45;&gt;Node32 -->
<g id="edge110" class="edge"><title>Node2&#45;&gt;Node32</title>
<path fill="none" stroke="midnightblue" d="M1287.11,-414.777C1057.36,-403.837 91.8927,-352.233 4.96904,-254 -1.5105,-246.677 -1.72927,-239.123 4.96904,-232 28.3785,-207.106 507.505,-191.871 694.827,-186.846"/>
<polygon fill="midnightblue" stroke="midnightblue" points="694.962,-190.344 704.865,-186.579 694.776,-183.347 694.962,-190.344"/>
</g>
<!-- Node4 -->
<g id="node7" class="node"><title>Node4</title>
<a xlink:href="crossplatformexport_8h.xhtml" target="_top" xlink:title="This file is used on some platforms to determine what data should be read and written to and from a s...">
<polygon fill="white" stroke="black" points="598.969,-0.5 598.969,-21.5 720.969,-21.5 720.969,-0.5 598.969,-0.5"/>
<text text-anchor="middle" x="659.969" y="-8.5" font-family="FreeSans" font-size="10.00">crossplatformexport.h</text>
</a>
</g>
<!-- Node3&#45;&gt;Node4 -->
<g id="edge6" class="edge"><title>Node3&#45;&gt;Node4</title>
<path fill="none" stroke="midnightblue" d="M1176.7,-66.0613C1095.65,-59.5182 897.364,-42.6827 731.969,-22 731.749,-21.9725 731.53,-21.9449 731.309,-21.9172"/>
<polygon fill="midnightblue" stroke="midnightblue" points="731.584,-18.4233 721.213,-20.5886 730.671,-25.3635 731.584,-18.4233"/>
</g>
<!-- Node5 -->
<g id="node9" class="node"><title>Node5</title>
<polygon fill="white" stroke="#bfbfbf" points="1132.47,-0.5 1132.47,-21.5 1185.47,-21.5 1185.47,-0.5 1132.47,-0.5"/>
<text text-anchor="middle" x="1158.97" y="-8.5" font-family="FreeSans" font-size="10.00">stdint.h</text>
</g>
<!-- Node3&#45;&gt;Node5 -->
<g id="edge8" class="edge"><title>Node3&#45;&gt;Node5</title>
<path fill="none" stroke="midnightblue" d="M1203.88,-58.3619C1196.13,-50.1861 1185.24,-38.7025 1176.12,-29.0907"/>
<polygon fill="midnightblue" stroke="midnightblue" points="1178.41,-26.4186 1168.99,-21.5707 1173.33,-31.2352 1178.41,-26.4186"/>
</g>
<!-- Node6 -->
<g id="node11" class="node"><title>Node6</title>
<polygon fill="white" stroke="#bfbfbf" points="1202.97,-0.5 1202.97,-21.5 1254.97,-21.5 1254.97,-0.5 1202.97,-0.5"/>
<text text-anchor="middle" x="1228.97" y="-8.5" font-family="FreeSans" font-size="10.00">cstddef</text>
</g>
<!-- Node3&#45;&gt;Node6 -->
<g id="edge10" class="edge"><title>Node3&#45;&gt;Node6</title>
<path fill="none" stroke="midnightblue" d="M1216.72,-58.3619C1218.67,-50.8401 1221.33,-40.5187 1223.69,-31.4308"/>
<polygon fill="midnightblue" stroke="midnightblue" points="1227.12,-32.1285 1226.24,-21.5707 1220.34,-30.3758 1227.12,-32.1285"/>
</g>
<!-- Node7 -->
<g id="node13" class="node"><title>Node7</title>
<polygon fill="white" stroke="#bfbfbf" points="1272.97,-0.5 1272.97,-21.5 1334.97,-21.5 1334.97,-0.5 1272.97,-0.5"/>
<text text-anchor="middle" x="1303.97" y="-8.5" font-family="FreeSans" font-size="10.00">algorithm</text>
</g>
<!-- Node3&#45;&gt;Node7 -->
<g id="edge12" class="edge"><title>Node3&#45;&gt;Node7</title>
<path fill="none" stroke="midnightblue" d="M1230.48,-58.3619C1244.05,-49.6138 1263.5,-37.0786 1278.98,-27.1015"/>
<polygon fill="midnightblue" stroke="midnightblue" points="1281.06,-29.9297 1287.57,-21.5707 1277.26,-24.0457 1281.06,-29.9297"/>
</g>
<!-- Node8 -->
<g id="node15" class="node"><title>Node8</title>
<polygon fill="white" stroke="#bfbfbf" points="1352.47,-0.5 1352.47,-21.5 1415.47,-21.5 1415.47,-0.5 1352.47,-0.5"/>
<text text-anchor="middle" x="1383.97" y="-8.5" font-family="FreeSans" font-size="10.00">exception</text>
</g>
<!-- Node3&#45;&gt;Node8 -->
<g id="edge14" class="edge"><title>Node3&#45;&gt;Node8</title>
<path fill="none" stroke="midnightblue" d="M1244.75,-58.4966C1272.35,-49.082 1313.03,-35.2036 1343.29,-24.8773"/>
<polygon fill="midnightblue" stroke="midnightblue" points="1344.79,-28.0646 1353.13,-21.5231 1342.53,-21.4396 1344.79,-28.0646"/>
</g>
<!-- Node9 -->
<g id="node17" class="node"><title>Node9</title>
<polygon fill="white" stroke="#bfbfbf" points="1432.47,-0.5 1432.47,-21.5 1485.47,-21.5 1485.47,-0.5 1432.47,-0.5"/>
<text text-anchor="middle" x="1458.97" y="-8.5" font-family="FreeSans" font-size="10.00">istream</text>
</g>
<!-- Node3&#45;&gt;Node9 -->
<g id="edge16" class="edge"><title>Node3&#45;&gt;Node9</title>
<path fill="none" stroke="midnightblue" d="M1251,-61.6983C1291.07,-53.5785 1357.05,-39.5848 1422.25,-22.325"/>
<polygon fill="midnightblue" stroke="midnightblue" points="1423.53,-25.6069 1432.28,-19.6415 1421.72,-18.8447 1423.53,-25.6069"/>
</g>
<!-- Node10 -->
<g id="node19" class="node"><title>Node10</title>
<polygon fill="white" stroke="#bfbfbf" points="1502.97,-0.5 1502.97,-21.5 1532.97,-21.5 1532.97,-0.5 1502.97,-0.5"/>
<text text-anchor="middle" x="1517.97" y="-8.5" font-family="FreeSans" font-size="10.00">list</text>
</g>
<!-- Node3&#45;&gt;Node10 -->
<g id="edge18" class="edge"><title>Node3&#45;&gt;Node10</title>
<path fill="none" stroke="midnightblue" d="M1251.38,-65.8774C1303.9,-60.8139 1402.37,-48.8371 1493.11,-21.6586"/>
<polygon fill="midnightblue" stroke="midnightblue" points="1494.18,-24.9923 1502.71,-18.7156 1492.12,-18.2996 1494.18,-24.9923"/>
</g>
<!-- Node11 -->
<g id="node21" class="node"><title>Node11</title>
<polygon fill="white" stroke="#bfbfbf" points="814.969,-0.5 814.969,-21.5 852.969,-21.5 852.969,-0.5 814.969,-0.5"/>
<text text-anchor="middle" x="833.969" y="-8.5" font-family="FreeSans" font-size="10.00">map</text>
</g>
<!-- Node3&#45;&gt;Node11 -->
<g id="edge20" class="edge"><title>Node3&#45;&gt;Node11</title>
<path fill="none" stroke="midnightblue" d="M1176.92,-67.0003C1113.91,-62.9681 981.945,-51.7849 863.041,-21.7743"/>
<polygon fill="midnightblue" stroke="midnightblue" points="863.603,-18.3048 853.046,-19.1984 861.856,-25.0833 863.603,-18.3048"/>
</g>
<!-- Node12 -->
<g id="node23" class="node"><title>Node12</title>
<polygon fill="white" stroke="#bfbfbf" points="1550.97,-0.5 1550.97,-21.5 1594.97,-21.5 1594.97,-0.5 1550.97,-0.5"/>
<text text-anchor="middle" x="1572.97" y="-8.5" font-family="FreeSans" font-size="10.00">string</text>
</g>
<!-- Node3&#45;&gt;Node12 -->
<g id="edge22" class="edge"><title>Node3&#45;&gt;Node12</title>
<path fill="none" stroke="midnightblue" d="M1251.32,-66.0799C1310.89,-60.8992 1431.05,-48.3036 1540.87,-21.8978"/>
<polygon fill="midnightblue" stroke="midnightblue" points="1541.9,-25.2483 1550.78,-19.469 1540.23,-18.4494 1541.9,-25.2483"/>
</g>
<!-- Node13 -->
<g id="node25" class="node"><title>Node13</title>
<polygon fill="white" stroke="#bfbfbf" points="1612.97,-0.5 1612.97,-21.5 1668.97,-21.5 1668.97,-0.5 1612.97,-0.5"/>
<text text-anchor="middle" x="1640.97" y="-8.5" font-family="FreeSans" font-size="10.00">sstream</text>
</g>
<!-- Node3&#45;&gt;Node13 -->
<g id="edge24" class="edge"><title>Node3&#45;&gt;Node13</title>
<path fill="none" stroke="midnightblue" d="M1251.14,-66.6218C1319.19,-61.8162 1468.4,-49.1877 1602.76,-21.9756"/>
<polygon fill="midnightblue" stroke="midnightblue" points="1603.72,-25.3498 1612.81,-19.9052 1602.31,-18.4935 1603.72,-25.3498"/>
</g>
<!-- Node14 -->
<g id="node27" class="node"><title>Node14</title>
<polygon fill="white" stroke="#bfbfbf" points="1686.97,-0.5 1686.97,-21.5 1718.97,-21.5 1718.97,-0.5 1686.97,-0.5"/>
<text text-anchor="middle" x="1702.97" y="-8.5" font-family="FreeSans" font-size="10.00">set</text>
</g>
<!-- Node3&#45;&gt;Node14 -->
<g id="edge26" class="edge"><title>Node3&#45;&gt;Node14</title>
<path fill="none" stroke="midnightblue" d="M1251.27,-66.7323C1343.37,-60.9008 1580.46,-44.4112 1677.11,-21.439"/>
<polygon fill="midnightblue" stroke="midnightblue" points="1677.99,-24.8251 1686.83,-18.9759 1676.27,-18.0396 1677.99,-24.8251"/>
</g>
<!-- Node15 -->
<g id="node29" class="node"><title>Node15</title>
<polygon fill="white" stroke="#bfbfbf" points="870.469,-0.5 870.469,-21.5 917.469,-21.5 917.469,-0.5 870.469,-0.5"/>
<text text-anchor="middle" x="893.969" y="-8.5" font-family="FreeSans" font-size="10.00">vector</text>
</g>
<!-- Node3&#45;&gt;Node15 -->
<g id="edge28" class="edge"><title>Node3&#45;&gt;Node15</title>
<path fill="none" stroke="midnightblue" d="M1176.74,-64.9681C1123.34,-58.7435 1021.89,-45.27 927.583,-22.1171"/>
<polygon fill="midnightblue" stroke="midnightblue" points="928.15,-18.6512 917.6,-19.6225 926.453,-25.4424 928.15,-18.6512"/>
</g>
<!-- Node16 -->
<g id="node31" class="node"><title>Node16</title>
<polygon fill="white" stroke="#bfbfbf" points="934.969,-0.5 934.969,-21.5 976.969,-21.5 976.969,-0.5 934.969,-0.5"/>
<text text-anchor="middle" x="955.969" y="-8.5" font-family="FreeSans" font-size="10.00">utility</text>
</g>
<!-- Node3&#45;&gt;Node16 -->
<g id="edge30" class="edge"><title>Node3&#45;&gt;Node16</title>
<path fill="none" stroke="midnightblue" d="M1176.84,-63.0882C1133.33,-55.7801 1058.98,-42.1094 986.846,-21.9593"/>
<polygon fill="midnightblue" stroke="midnightblue" points="987.722,-18.5697 977.146,-19.206 985.81,-25.3037 987.722,-18.5697"/>
</g>
<!-- Node17 -->
<g id="node33" class="node"><title>Node17</title>
<polygon fill="white" stroke="#bfbfbf" points="740.469,-0.5 740.469,-21.5 797.469,-21.5 797.469,-0.5 740.469,-0.5"/>
<text text-anchor="middle" x="768.969" y="-8.5" font-family="FreeSans" font-size="10.00">memory</text>
</g>
<!-- Node3&#45;&gt;Node17 -->
<g id="edge32" class="edge"><title>Node3&#45;&gt;Node17</title>
<path fill="none" stroke="midnightblue" d="M1176.78,-66.8916C1106.34,-62.4313 948.585,-50.2132 807.645,-22.0793"/>
<polygon fill="midnightblue" stroke="midnightblue" points="808.024,-18.585 797.527,-20.0261 806.631,-25.4451 808.024,-18.585"/>
</g>
<!-- Node18 -->
<g id="node35" class="node"><title>Node18</title>
<polygon fill="white" stroke="#bfbfbf" points="994.469,-0.5 994.469,-21.5 1051.47,-21.5 1051.47,-0.5 994.469,-0.5"/>
<text text-anchor="middle" x="1022.97" y="-8.5" font-family="FreeSans" font-size="10.00">ostream</text>
</g>
<!-- Node3&#45;&gt;Node18 -->
<g id="edge34" class="edge"><title>Node3&#45;&gt;Node18</title>
<path fill="none" stroke="midnightblue" d="M1179.38,-58.4966C1146.11,-48.3947 1095.92,-33.1535 1061.42,-22.6756"/>
<polygon fill="midnightblue" stroke="midnightblue" points="1062.28,-19.2781 1051.69,-19.7214 1060.24,-25.9761 1062.28,-19.2781"/>
</g>
<!-- Node19 -->
<g id="node37" class="node"><title>Node19</title>
<a xlink:href="swig_8h.xhtml" target="_top" xlink:title="Used to give commands specifically to the SWIG preprocessor.">
<polygon fill="white" stroke="black" points="1068.97,-0.5 1068.97,-21.5 1114.97,-21.5 1114.97,-0.5 1068.97,-0.5"/>
<text text-anchor="middle" x="1091.97" y="-8.5" font-family="FreeSans" font-size="10.00">swig.h</text>
</a>
</g>
<!-- Node3&#45;&gt;Node19 -->
<g id="edge36" class="edge"><title>Node3&#45;&gt;Node19</title>
<path fill="none" stroke="midnightblue" d="M1191.88,-58.4966C1172.74,-49.397 1144.82,-36.1273 1123.36,-25.9253"/>
<polygon fill="midnightblue" stroke="midnightblue" points="1124.84,-22.7539 1114.31,-21.6212 1121.84,-29.0758 1124.84,-22.7539"/>
</g>
<!-- Node20&#45;&gt;Node3 -->
<g id="edge40" class="edge"><title>Node20&#45;&gt;Node3</title>
<path fill="none" stroke="midnightblue" d="M1449.81,-116.497C1396.02,-105.663 1312.87,-88.9178 1261.03,-78.4768"/>
<polygon fill="midnightblue" stroke="midnightblue" points="1261.59,-75.0195 1251.09,-76.4762 1260.2,-81.8817 1261.59,-75.0195"/>
</g>
<!-- Node21&#45;&gt;Node3 -->
<g id="edge44" class="edge"><title>Node21&#45;&gt;Node3</title>
<path fill="none" stroke="midnightblue" d="M1528.65,-174.406C1557.47,-161.472 1596.77,-138.526 1576.97,-116 1556.42,-92.6224 1354.74,-77.5005 1261.19,-71.6892"/>
<polygon fill="midnightblue" stroke="midnightblue" points="1261.33,-68.1916 1251.14,-71.0749 1260.91,-75.1785 1261.33,-68.1916"/>
</g>
<!-- Node21&#45;&gt;Node20 -->
<g id="edge46" class="edge"><title>Node21&#45;&gt;Node20</title>
<path fill="none" stroke="midnightblue" d="M1501.97,-174.362C1501.97,-166.922 1501.97,-156.743 1501.97,-147.728"/>
<polygon fill="midnightblue" stroke="midnightblue" points="1505.47,-147.571 1501.97,-137.571 1498.47,-147.571 1505.47,-147.571"/>
</g>
<!-- Node22&#45;&gt;Node3 -->
<g id="edge50" class="edge"><title>Node22&#45;&gt;Node3</title>
<path fill="none" stroke="midnightblue" d="M1354.08,-174.483C1375.08,-160.957 1404.87,-136.736 1388.97,-116 1373.49,-95.8089 1307.69,-82.3684 1261.36,-75.2093"/>
<polygon fill="midnightblue" stroke="midnightblue" points="1261.61,-71.709 1251.21,-73.6925 1260.58,-78.6322 1261.61,-71.709"/>
</g>
<!-- Node22&#45;&gt;Node20 -->
<g id="edge52" class="edge"><title>Node22&#45;&gt;Node20</title>
<path fill="none" stroke="midnightblue" d="M1366.03,-174.497C1392.98,-165.082 1432.7,-151.204 1462.25,-140.877"/>
<polygon fill="midnightblue" stroke="midnightblue" points="1463.57,-144.126 1471.85,-137.523 1461.26,-137.517 1463.57,-144.126"/>
</g>
<!-- Node23 -->
<g id="node50" class="node"><title>Node23</title>
<a xlink:href="attribute_8h.xhtml" target="_top" xlink:title="Contains the definition for the XML::Attribute class.">
<polygon fill="white" stroke="black" points="1169.47,-116.5 1169.47,-137.5 1258.47,-137.5 1258.47,-116.5 1169.47,-116.5"/>
<text text-anchor="middle" x="1213.97" y="-124.5" font-family="FreeSans" font-size="10.00">XML/attribute.h</text>
</a>
</g>
<!-- Node22&#45;&gt;Node23 -->
<g id="edge54" class="edge"><title>Node22&#45;&gt;Node23</title>
<path fill="none" stroke="midnightblue" d="M1313.88,-174.497C1294.74,-165.397 1266.82,-152.127 1245.36,-141.925"/>
<polygon fill="midnightblue" stroke="midnightblue" points="1246.84,-138.754 1236.31,-137.621 1243.84,-145.076 1246.84,-138.754"/>
</g>
<!-- Node24 -->
<g id="node53" class="node"><title>Node24</title>
<a xlink:href="objectrange_8h.xhtml" target="_top" xlink:title="Contains the implementation of the ObjectRange class template.">
<polygon fill="white" stroke="black" points="1275.47,-116.5 1275.47,-137.5 1380.47,-137.5 1380.47,-116.5 1275.47,-116.5"/>
<text text-anchor="middle" x="1327.97" y="-124.5" font-family="FreeSans" font-size="10.00">XML/objectrange.h</text>
</a>
</g>
<!-- Node22&#45;&gt;Node24 -->
<g id="edge58" class="edge"><title>Node22&#45;&gt;Node24</title>
<path fill="none" stroke="midnightblue" d="M1334.5,-174.362C1333.48,-166.922 1332.07,-156.743 1330.83,-147.728"/>
<polygon fill="midnightblue" stroke="midnightblue" points="1334.26,-146.999 1329.43,-137.571 1327.33,-147.955 1334.26,-146.999"/>
</g>
<!-- Node23&#45;&gt;Node3 -->
<g id="edge56" class="edge"><title>Node23&#45;&gt;Node3</title>
<path fill="none" stroke="midnightblue" d="M1213.97,-116.362C1213.97,-108.922 1213.97,-98.7427 1213.97,-89.7276"/>
<polygon fill="midnightblue" stroke="midnightblue" points="1217.47,-89.5706 1213.97,-79.5707 1210.47,-89.5707 1217.47,-89.5706"/>
</g>
<!-- Node24&#45;&gt;Node3 -->
<g id="edge60" class="edge"><title>Node24&#45;&gt;Node3</title>
<path fill="none" stroke="midnightblue" d="M1307.32,-116.497C1289.6,-107.479 1263.82,-94.3649 1243.85,-84.2006"/>
<polygon fill="midnightblue" stroke="midnightblue" points="1245.35,-81.0364 1234.85,-79.6212 1242.17,-87.2753 1245.35,-81.0364"/>
</g>
<!-- Node25&#45;&gt;Node3 -->
<g id="edge64" class="edge"><title>Node25&#45;&gt;Node3</title>
<path fill="none" stroke="midnightblue" d="M1082.03,-348.305C1089.34,-328.063 1103.97,-282.626 1103.97,-243 1103.97,-243 1103.97,-243 1103.97,-185 1103.97,-152.531 1106.99,-140.777 1127.97,-116 1140.01,-101.781 1157.49,-91.127 1173.54,-83.5893"/>
<polygon fill="midnightblue" stroke="midnightblue" points="1175.05,-86.7504 1182.78,-79.508 1172.22,-80.3473 1175.05,-86.7504"/>
</g>
<!-- Node26 -->
<g id="node59" class="node"><title>Node26</title>
<a xlink:href="resource_8h_source.xhtml" target="_top" xlink:title="resource.h">
<polygon fill="white" stroke="black" points="486.469,-290.5 486.469,-311.5 553.469,-311.5 553.469,-290.5 486.469,-290.5"/>
<text text-anchor="middle" x="519.969" y="-298.5" font-family="FreeSans" font-size="10.00">resource.h</text>
</a>
</g>
<!-- Node25&#45;&gt;Node26 -->
<g id="edge66" class="edge"><title>Node25&#45;&gt;Node26</title>
<path fill="none" stroke="midnightblue" d="M1041.36,-355.194C942.453,-344.914 670.194,-316.615 563.587,-305.534"/>
<polygon fill="midnightblue" stroke="midnightblue" points="563.809,-302.038 553.501,-304.485 563.086,-309.001 563.809,-302.038"/>
</g>
<!-- Node27 -->
<g id="node61" class="node"><title>Node27</title>
<a xlink:href="resourceenumerations_8h_source.xhtml" target="_top" xlink:title="Resource/resourceenumerations.h">
<polygon fill="white" stroke="black" points="21.969,-232.5 21.969,-253.5 201.969,-253.5 201.969,-232.5 21.969,-232.5"/>
<text text-anchor="middle" x="111.969" y="-240.5" font-family="FreeSans" font-size="10.00">Resource/resourceenumerations.h</text>
</a>
</g>
<!-- Node26&#45;&gt;Node27 -->
<g id="edge68" class="edge"><title>Node26&#45;&gt;Node27</title>
<path fill="none" stroke="midnightblue" d="M486.234,-296.204C423.178,-287.24 285.739,-267.703 196.118,-254.962"/>
<polygon fill="midnightblue" stroke="midnightblue" points="196.369,-251.463 185.976,-253.521 195.384,-258.393 196.369,-251.463"/>
</g>
<!-- Node28 -->
<g id="node63" class="node"><title>Node28</title>
<a xlink:href="archive_8h_source.xhtml" target="_top" xlink:title="Resource/archive.h">
<polygon fill="white" stroke="black" points="219.969,-232.5 219.969,-253.5 325.969,-253.5 325.969,-232.5 219.969,-232.5"/>
<text text-anchor="middle" x="272.969" y="-240.5" font-family="FreeSans" font-size="10.00">Resource/archive.h</text>
</a>
</g>
<!-- Node26&#45;&gt;Node28 -->
<g id="edge70" class="edge"><title>Node26&#45;&gt;Node28</title>
<path fill="none" stroke="midnightblue" d="M486.4,-293.118C445.64,-283.546 376.333,-267.272 327.787,-255.872"/>
<polygon fill="midnightblue" stroke="midnightblue" points="328.296,-252.397 317.761,-253.518 326.696,-259.211 328.296,-252.397"/>
</g>
<!-- Node29 -->
<g id="node65" class="node"><title>Node29</title>
<a xlink:href="asset_8h_source.xhtml" target="_top" xlink:title="Resource/asset.h">
<polygon fill="white" stroke="black" points="343.969,-232.5 343.969,-253.5 441.969,-253.5 441.969,-232.5 343.969,-232.5"/>
<text text-anchor="middle" x="392.969" y="-240.5" font-family="FreeSans" font-size="10.00">Resource/asset.h</text>
</a>
</g>
<!-- Node26&#45;&gt;Node29 -->
<g id="edge72" class="edge"><title>Node26&#45;&gt;Node29</title>
<path fill="none" stroke="midnightblue" d="M496.97,-290.497C476.956,-281.356 447.728,-268.008 425.35,-257.788"/>
<polygon fill="midnightblue" stroke="midnightblue" points="426.776,-254.592 416.226,-253.621 423.868,-260.959 426.776,-254.592"/>
</g>
<!-- Node30 -->
<g id="node67" class="node"><title>Node30</title>
<a xlink:href="assetgroup_8h_source.xhtml" target="_top" xlink:title="Resource/assetgroup.h">
<polygon fill="white" stroke="black" points="597.969,-232.5 597.969,-253.5 723.969,-253.5 723.969,-232.5 597.969,-232.5"/>
<text text-anchor="middle" x="660.969" y="-240.5" font-family="FreeSans" font-size="10.00">Resource/assetgroup.h</text>
</a>
</g>
<!-- Node26&#45;&gt;Node30 -->
<g id="edge74" class="edge"><title>Node26&#45;&gt;Node30</title>
<path fill="none" stroke="midnightblue" d="M545.503,-290.497C567.922,-281.275 600.754,-267.769 625.682,-257.515"/>
<polygon fill="midnightblue" stroke="midnightblue" points="627.232,-260.662 635.148,-253.621 624.569,-254.189 627.232,-260.662"/>
</g>
<!-- Node31 -->
<g id="node69" class="node"><title>Node31</title>
<a xlink:href="assethandler_8h_source.xhtml" target="_top" xlink:title="Resource/assethandler.h">
<polygon fill="white" stroke="black" points="741.469,-232.5 741.469,-253.5 874.469,-253.5 874.469,-232.5 741.469,-232.5"/>
<text text-anchor="middle" x="807.969" y="-240.5" font-family="FreeSans" font-size="10.00">Resource/assethandler.h</text>
</a>
</g>
<!-- Node26&#45;&gt;Node31 -->
<g id="edge76" class="edge"><title>Node26&#45;&gt;Node31</title>
<path fill="none" stroke="midnightblue" d="M553.57,-294.233C600.559,-284.77 686.745,-267.413 745.663,-255.548"/>
<polygon fill="midnightblue" stroke="midnightblue" points="746.49,-258.952 755.602,-253.546 745.108,-252.089 746.49,-258.952"/>
</g>
<!-- Node26&#45;&gt;Node32 -->
<g id="edge78" class="edge"><title>Node26&#45;&gt;Node32</title>
<path fill="none" stroke="midnightblue" d="M486.458,-300.45C378.489,-298.333 44.8667,-288.991 12.969,-254 6.38193,-246.774 6.27304,-239.125 12.969,-232 36.0872,-207.4 508.639,-192.022 694.66,-186.901"/>
<polygon fill="midnightblue" stroke="midnightblue" points="694.998,-190.394 704.898,-186.622 694.806,-183.396 694.998,-190.394"/>
</g>
<!-- Node35 -->
<g id="node80" class="node"><title>Node35</title>
<a xlink:href="filestream_8h.xhtml" target="_top" xlink:title="Declaration of FileStream.">
<polygon fill="white" stroke="black" points="459.969,-232.5 459.969,-253.5 579.969,-253.5 579.969,-232.5 459.969,-232.5"/>
<text text-anchor="middle" x="519.969" y="-240.5" font-family="FreeSans" font-size="10.00">Resource/filestream.h</text>
</a>
</g>
<!-- Node26&#45;&gt;Node35 -->
<g id="edge90" class="edge"><title>Node26&#45;&gt;Node35</title>
<path fill="none" stroke="midnightblue" d="M519.969,-290.362C519.969,-282.922 519.969,-272.743 519.969,-263.728"/>
<polygon fill="midnightblue" stroke="midnightblue" points="523.469,-263.571 519.969,-253.571 516.469,-263.571 523.469,-263.571"/>
</g>
<!-- Node36 -->
<g id="node83" class="node"><title>Node36</title>
<a xlink:href="inputstream_8h_source.xhtml" target="_top" xlink:title="Resource/inputstream.h">
<polygon fill="white" stroke="black" points="587.969,-116.5 587.969,-137.5 717.969,-137.5 717.969,-116.5 587.969,-116.5"/>
<text text-anchor="middle" x="652.969" y="-124.5" font-family="FreeSans" font-size="10.00">Resource/inputstream.h</text>
</a>
</g>
<!-- Node26&#45;&gt;Node36 -->
<g id="edge94" class="edge"><title>Node26&#45;&gt;Node36</title>
<path fill="none" stroke="midnightblue" d="M486.314,-300.498C377.054,-298.525 37.429,-289.557 4.96904,-254 -1.62323,-246.779 -1.36787,-239.446 4.96904,-232 41.7839,-188.74 414.286,-149.176 577.28,-133.79"/>
<polygon fill="midnightblue" stroke="midnightblue" points="578.079,-137.23 587.708,-132.812 577.425,-130.261 578.079,-137.23"/>
</g>
<!-- Node37 -->
<g id="node87" class="node"><title>Node37</title>
<a xlink:href="memorystream_8h.xhtml" target="_top" xlink:title="Declaration of MemoryStream.">
<polygon fill="white" stroke="black" points="891.469,-232.5 891.469,-253.5 1038.47,-253.5 1038.47,-232.5 891.469,-232.5"/>
<text text-anchor="middle" x="964.969" y="-240.5" font-family="FreeSans" font-size="10.00">Resource/memorystream.h</text>
</a>
</g>
<!-- Node26&#45;&gt;Node37 -->
<g id="edge100" class="edge"><title>Node26&#45;&gt;Node37</title>
<path fill="none" stroke="midnightblue" d="M553.506,-296.71C615.862,-288.722 754.145,-270.955 880.94,-254.264"/>
<polygon fill="midnightblue" stroke="midnightblue" points="881.757,-257.686 891.214,-252.91 880.842,-250.746 881.757,-257.686"/>
</g>
<!-- Node38 -->
<g id="node90" class="node"><title>Node38</title>
<a xlink:href="textsettingsfile_8h_source.xhtml" target="_top" xlink:title="Resource/textsettingsfile.h">
<polygon fill="white" stroke="black" points="895.969,-116.5 895.969,-137.5 1037.97,-137.5 1037.97,-116.5 895.969,-116.5"/>
<text text-anchor="middle" x="966.969" y="-124.5" font-family="FreeSans" font-size="10.00">Resource/textsettingsfile.h</text>
</a>
</g>
<!-- Node26&#45;&gt;Node38 -->
<g id="edge104" class="edge"><title>Node26&#45;&gt;Node38</title>
<path fill="none" stroke="midnightblue" d="M553.628,-300.573C664.582,-298.82 1013.64,-290.429 1046.97,-254 1079.07,-218.905 1024.73,-169.291 990.887,-143.705"/>
<polygon fill="midnightblue" stroke="midnightblue" points="992.918,-140.854 982.79,-137.741 988.766,-146.49 992.918,-140.854"/>
</g>
<!-- Node32&#45;&gt;Node3 -->
<g id="edge80" class="edge"><title>Node32&#45;&gt;Node3</title>
<path fill="none" stroke="midnightblue" d="M833.242,-179.745C890.468,-173.756 975.884,-161.572 1046.97,-138 1067.35,-131.243 1070.35,-124.706 1089.97,-116 1117.43,-103.813 1149.13,-91.8363 1173.6,-83.0228"/>
<polygon fill="midnightblue" stroke="midnightblue" points="1175.03,-86.2277 1183.27,-79.5678 1172.67,-79.6356 1175.03,-86.2277"/>
</g>
<!-- Node33 -->
<g id="node74" class="node"><title>Node33</title>
<a xlink:href="smartptr_8h.xhtml" target="_top" xlink:title="This file describes and implements any pointers or typedefs to pointers that the Mezzanine uses and e...">
<polygon fill="white" stroke="black" points="735.469,-116.5 735.469,-137.5 802.469,-137.5 802.469,-116.5 735.469,-116.5"/>
<text text-anchor="middle" x="768.969" y="-124.5" font-family="FreeSans" font-size="10.00">smartptr.h</text>
</a>
</g>
<!-- Node32&#45;&gt;Node33 -->
<g id="edge82" class="edge"><title>Node32&#45;&gt;Node33</title>
<path fill="none" stroke="midnightblue" d="M768.969,-174.362C768.969,-166.922 768.969,-156.743 768.969,-147.728"/>
<polygon fill="midnightblue" stroke="midnightblue" points="772.469,-147.571 768.969,-137.571 765.469,-147.571 772.469,-147.571"/>
</g>
<!-- Node34 -->
<g id="node78" class="node"><title>Node34</title>
<polygon fill="white" stroke="#bfbfbf" points="819.469,-116.5 819.469,-137.5 878.469,-137.5 878.469,-116.5 819.469,-116.5"/>
<text text-anchor="middle" x="848.969" y="-124.5" font-family="FreeSans" font-size="10.00">iostream</text>
</g>
<!-- Node32&#45;&gt;Node34 -->
<g id="edge88" class="edge"><title>Node32&#45;&gt;Node34</title>
<path fill="none" stroke="midnightblue" d="M783.642,-174.362C795.483,-165.777 812.354,-153.546 825.985,-143.664"/>
<polygon fill="midnightblue" stroke="midnightblue" points="828.347,-146.274 834.389,-137.571 824.238,-140.607 828.347,-146.274"/>
</g>
<!-- Node33&#45;&gt;Node3 -->
<g id="edge84" class="edge"><title>Node33&#45;&gt;Node3</title>
<path fill="none" stroke="midnightblue" d="M802.803,-117.704C805.555,-117.081 808.302,-116.502 810.969,-116 938.402,-92.0036 1090.96,-78.2148 1166.6,-72.3617"/>
<polygon fill="midnightblue" stroke="midnightblue" points="1167.05,-75.8378 1176.76,-71.5883 1166.52,-68.858 1167.05,-75.8378"/>
</g>
<!-- Node33&#45;&gt;Node17 -->
<g id="edge86" class="edge"><title>Node33&#45;&gt;Node17</title>
<path fill="none" stroke="midnightblue" d="M768.969,-116.295C768.969,-97.1314 768.969,-56.654 768.969,-31.8434"/>
<polygon fill="midnightblue" stroke="midnightblue" points="772.469,-31.6792 768.969,-21.6792 765.469,-31.6792 772.469,-31.6792"/>
</g>
<!-- Node35&#45;&gt;Node32 -->
<g id="edge92" class="edge"><title>Node35&#45;&gt;Node32</title>
<path fill="none" stroke="midnightblue" d="M565.061,-232.497C606.885,-222.755 669.228,-208.233 713.962,-197.813"/>
<polygon fill="midnightblue" stroke="midnightblue" points="714.847,-201.2 723.792,-195.523 713.259,-194.383 714.847,-201.2"/>
</g>
<!-- Node36&#45;&gt;Node3 -->
<g id="edge98" class="edge"><title>Node36&#45;&gt;Node3</title>
<path fill="none" stroke="midnightblue" d="M718.314,-117.101C721.238,-116.716 724.133,-116.347 726.969,-116 887.992,-96.2752 1079.81,-79.8223 1166.85,-72.7377"/>
<polygon fill="midnightblue" stroke="midnightblue" points="1167.25,-76.2168 1176.94,-71.9206 1166.69,-69.2396 1167.25,-76.2168"/>
</g>
<!-- Node36&#45;&gt;Node4 -->
<g id="edge96" class="edge"><title>Node36&#45;&gt;Node4</title>
<path fill="none" stroke="midnightblue" d="M653.615,-116.295C654.771,-97.1314 657.214,-56.654 658.711,-31.8434"/>
<polygon fill="midnightblue" stroke="midnightblue" points="662.216,-31.8719 659.325,-21.6792 655.229,-31.4502 662.216,-31.8719"/>
</g>
<!-- Node37&#45;&gt;Node32 -->
<g id="edge102" class="edge"><title>Node37&#45;&gt;Node32</title>
<path fill="none" stroke="midnightblue" d="M929.475,-232.497C897.245,-222.959 849.535,-208.841 814.505,-198.475"/>
<polygon fill="midnightblue" stroke="midnightblue" points="815.112,-195.005 804.53,-195.523 813.126,-201.717 815.112,-195.005"/>
</g>
<!-- Node38&#45;&gt;Node3 -->
<g id="edge106" class="edge"><title>Node38&#45;&gt;Node3</title>
<path fill="none" stroke="midnightblue" d="M1011.7,-116.497C1055.64,-106.178 1122.42,-90.497 1167.09,-80.0077"/>
<polygon fill="midnightblue" stroke="midnightblue" points="1167.89,-83.4148 1176.83,-77.7214 1166.29,-76.6002 1167.89,-83.4148"/>
</g>
<!-- Node38&#45;&gt;Node11 -->
<g id="edge108" class="edge"><title>Node38&#45;&gt;Node11</title>
<path fill="none" stroke="midnightblue" d="M954.695,-116.295C931.634,-96.1819 881.655,-52.5904 853.776,-28.2752"/>
<polygon fill="midnightblue" stroke="midnightblue" points="856.05,-25.6145 846.213,-21.6792 851.449,-30.89 856.05,-25.6145"/>
</g>
<!-- Node39&#45;&gt;Node3 -->
<g id="edge114" class="edge"><title>Node39&#45;&gt;Node3</title>
<path fill="none" stroke="midnightblue" d="M1625.49,-348.47C1628.29,-328.133 1633.97,-282.012 1633.97,-243 1633.97,-243 1633.97,-243 1633.97,-185 1633.97,-149.328 1622.83,-135.52 1592.97,-116 1539.32,-80.9265 1350.52,-72.0226 1261.32,-69.7651"/>
<polygon fill="midnightblue" stroke="midnightblue" points="1261.29,-66.2635 1251.21,-69.527 1261.13,-73.2615 1261.29,-66.2635"/>
</g>
<!-- Node40&#45;&gt;Node3 -->
<g id="edge118" class="edge"><title>Node40&#45;&gt;Node3</title>
<path fill="none" stroke="midnightblue" d="M1698.82,-290.089C1700.69,-257.715 1701.33,-161.618 1647.97,-116 1619.01,-91.2457 1367.85,-76.3841 1261.36,-71.1449"/>
<polygon fill="midnightblue" stroke="midnightblue" points="1261.38,-67.6416 1251.22,-70.6535 1261.04,-74.6334 1261.38,-67.6416"/>
</g>
</g>
</svg>
