<?xml version="1.0" encoding="UTF-8" standalone="no"?>
<!DOCTYPE svg PUBLIC "-//W3C//DTD SVG 1.1//EN"
 "http://www.w3.org/Graphics/SVG/1.1/DTD/svg11.dtd">
<!-- Generated by graphviz version 2.26.3 (20100126.1600)
 -->
<!-- Title: /home/sqeaky/Code/Mezzanine/Mezzanine/src/XML/xmlstring.cpp Pages: 1 -->
<svg width="1730pt" height="390pt"
 viewBox="0.00 0.00 1730.00 390.00" xmlns="http://www.w3.org/2000/svg" xmlns:xlink="http://www.w3.org/1999/xlink">
<g id="graph1" class="graph" transform="scale(1 1) rotate(0) translate(4 386)">
<title>/home/sqeaky/Code/Mezzanine/Mezzanine/src/XML/xmlstring.cpp</title>
<!-- Node1 -->
<g id="node1" class="node"><title>Node1</title>
<polygon fill="#bfbfbf" stroke="black" points="32,-349 32,-381 196,-381 196,-349 32,-349"/>
<text text-anchor="start" x="40" y="-368" font-family="FreeSans" font-size="10.00">/home/sqeaky/Code/Mezzanine</text>
<text text-anchor="middle" x="114" y="-356" font-family="FreeSans" font-size="10.00">/Mezzanine/src/XML/xmlstring.cpp</text>
</g>
<!-- Node2 -->
<g id="node3" class="node"><title>Node2</title>
<a xlink:href="document_8h.xhtml" target="_top" xlink:title="The definition of the XML::Document Class.">
<polygon fill="none" stroke="black" points="380,-291 380,-311 470,-311 470,-291 380,-291"/>
<text text-anchor="middle" x="425" y="-298" font-family="FreeSans" font-size="10.00">XML/document.h</text>
</a>
</g>
<!-- Node1&#45;&gt;Node2 -->
<g id="edge2" class="edge"><title>Node1&#45;&gt;Node2</title>
<path fill="none" stroke="midnightblue" d="M192.077,-348.933C247.459,-337.536 320.431,-322.519 369.83,-312.353"/>
<polygon fill="midnightblue" stroke="midnightblue" points="370.601,-315.768 379.69,-310.324 369.19,-308.912 370.601,-315.768"/>
</g>
<!-- Node35 -->
<g id="node83" class="node"><title>Node35</title>
<a xlink:href="xmlstring_8h.xhtml" target="_top" xlink:title="A few functions to help the XML system perform conversions between UTF8 and the native wide character...">
<polygon fill="none" stroke="black" points="0,-233 0,-253 86,-253 86,-233 0,-233"/>
<text text-anchor="middle" x="43" y="-240" font-family="FreeSans" font-size="10.00">XML/xmlstring.h</text>
</a>
</g>
<!-- Node1&#45;&gt;Node35 -->
<g id="edge96" class="edge"><title>Node1&#45;&gt;Node35</title>
<path fill="none" stroke="midnightblue" d="M99.5771,-348.58C91.1535,-338.48 80.701,-325.016 73,-312 63.6711,-296.233 55.5597,-277.032 50.1317,-262.892"/>
<polygon fill="midnightblue" stroke="midnightblue" points="53.2956,-261.359 46.5283,-253.207 46.7349,-263.8 53.2956,-261.359"/>
</g>
<!-- Node36 -->
<g id="node86" class="node"><title>Node36</title>
<a xlink:href="exception_8h_source.xhtml" target="_top" xlink:title="exception.h">
<polygon fill="none" stroke="black" points="81.5,-291 81.5,-311 146.5,-311 146.5,-291 81.5,-291"/>
<text text-anchor="middle" x="114" y="-298" font-family="FreeSans" font-size="10.00">exception.h</text>
</a>
</g>
<!-- Node1&#45;&gt;Node36 -->
<g id="edge100" class="edge"><title>Node1&#45;&gt;Node36</title>
<path fill="none" stroke="midnightblue" d="M114,-348.85C114,-340.518 114,-330.269 114,-321.396"/>
<polygon fill="midnightblue" stroke="midnightblue" points="117.5,-321.141 114,-311.141 110.5,-321.141 117.5,-321.141"/>
</g>
<!-- Node3 -->
<g id="node5" class="node"><title>Node3</title>
<a xlink:href="datatypes_8h.xhtml" target="_top" xlink:title="All the definitions for datatypes as well as some basic conversion functions are defined here...">
<polygon fill="none" stroke="black" points="505.5,-59 505.5,-79 570.5,-79 570.5,-59 505.5,-59"/>
<text text-anchor="middle" x="538" y="-66" font-family="FreeSans" font-size="10.00">datatypes.h</text>
</a>
</g>
<!-- Node2&#45;&gt;Node3 -->
<g id="edge4" class="edge"><title>Node2&#45;&gt;Node3</title>
<path fill="none" stroke="midnightblue" d="M386.47,-290.912C298.927,-266.25 98.1046,-198.826 171,-116 192.147,-91.9721 402.839,-76.8685 495.102,-71.3582"/>
<polygon fill="midnightblue" stroke="midnightblue" points="495.447,-74.8441 505.224,-70.7639 495.036,-67.8561 495.447,-74.8441"/>
</g>
<!-- Node20 -->
<g id="node39" class="node"><title>Node20</title>
<a xlink:href="xmlenumerations_8h.xhtml" target="_top" xlink:title="Enumerations and constant values used primarily in the XML system but useful for interacting with it ...">
<polygon fill="none" stroke="black" points="434,-117 434,-137 554,-137 554,-117 434,-117"/>
<text text-anchor="middle" x="494" y="-124" font-family="FreeSans" font-size="10.00">XML/xmlenumerations.h</text>
</a>
</g>
<!-- Node2&#45;&gt;Node20 -->
<g id="edge38" class="edge"><title>Node2&#45;&gt;Node20</title>
<path fill="none" stroke="midnightblue" d="M424.345,-290.761C423.354,-268.243 423.418,-213.302 444,-174 450.304,-161.962 460.917,-151.321 470.747,-143.221"/>
<polygon fill="midnightblue" stroke="midnightblue" points="472.955,-145.938 478.708,-137.041 468.663,-140.408 472.955,-145.938"/>
</g>
<!-- Node21 -->
<g id="node42" class="node"><title>Node21</title>
<a xlink:href="parseresult_8h.xhtml" target="_top" xlink:title="XML/parseresult.h">
<polygon fill="none" stroke="black" points="453,-175 453,-195 547,-195 547,-175 453,-175"/>
<text text-anchor="middle" x="500" y="-182" font-family="FreeSans" font-size="10.00">XML/parseresult.h</text>
</a>
</g>
<!-- Node2&#45;&gt;Node21 -->
<g id="edge42" class="edge"><title>Node2&#45;&gt;Node21</title>
<path fill="none" stroke="midnightblue" d="M431.656,-290.706C444.308,-271.137 471.989,-228.323 487.97,-203.606"/>
<polygon fill="midnightblue" stroke="midnightblue" points="490.976,-205.404 493.466,-195.106 485.098,-201.603 490.976,-205.404"/>
</g>
<!-- Node22 -->
<g id="node46" class="node"><title>Node22</title>
<a xlink:href="node_8h.xhtml" target="_top" xlink:title="This defines the Mezzanine::XML::Node one of the central XML classes.">
<polygon fill="none" stroke="black" points="329,-175 329,-195 397,-195 397,-175 329,-175"/>
<text text-anchor="middle" x="363" y="-182" font-family="FreeSans" font-size="10.00">XML/node.h</text>
</a>
</g>
<!-- Node2&#45;&gt;Node22 -->
<g id="edge48" class="edge"><title>Node2&#45;&gt;Node22</title>
<path fill="none" stroke="midnightblue" d="M419.498,-290.706C409.085,-271.223 386.357,-228.7 373.12,-203.934"/>
<polygon fill="midnightblue" stroke="midnightblue" points="376.202,-202.275 368.401,-195.106 370.028,-205.575 376.202,-202.275"/>
</g>
<!-- Node25 -->
<g id="node56" class="node"><title>Node25</title>
<a xlink:href="writer_8h.xhtml" target="_top" xlink:title="The definitions for all of the XML::Writer inheritance hierarchy.">
<polygon fill="none" stroke="black" points="602.5,-233 602.5,-253 673.5,-253 673.5,-233 602.5,-233"/>
<text text-anchor="middle" x="638" y="-240" font-family="FreeSans" font-size="10.00">XML/writer.h</text>
</a>
</g>
<!-- Node2&#45;&gt;Node25 -->
<g id="edge62" class="edge"><title>Node2&#45;&gt;Node25</title>
<path fill="none" stroke="midnightblue" d="M462.102,-290.897C498.318,-281.036 553.498,-266.01 592.378,-255.423"/>
<polygon fill="midnightblue" stroke="midnightblue" points="593.657,-258.702 602.386,-252.698 591.818,-251.948 593.657,-258.702"/>
</g>
<!-- Node32 -->
<g id="node71" class="node"><title>Node32</title>
<a xlink:href="datastream_8h.xhtml" target="_top" xlink:title="Declaration of DataStream, FileStreamDataStream, FileHandleDataStream, MemoryDataStream.">
<polygon fill="none" stroke="black" points="648,-117 648,-137 764,-137 764,-117 648,-117"/>
<text text-anchor="middle" x="706" y="-124" font-family="FreeSans" font-size="10.00">Resource/datastream.h</text>
</a>
</g>
<!-- Node2&#45;&gt;Node32 -->
<g id="edge94" class="edge"><title>Node2&#45;&gt;Node32</title>
<path fill="none" stroke="midnightblue" d="M441.322,-290.893C488.368,-261.762 624.478,-177.48 680.968,-142.501"/>
<polygon fill="midnightblue" stroke="midnightblue" points="682.973,-145.375 689.633,-137.135 679.288,-139.424 682.973,-145.375"/>
</g>
<!-- Node4 -->
<g id="node7" class="node"><title>Node4</title>
<a xlink:href="crossplatformexport_8h.xhtml" target="_top" xlink:title="This file is used on some platforms to determine what data should be read and written to and from a s...">
<polygon fill="none" stroke="black" points="1123,-1 1123,-21 1231,-21 1231,-1 1123,-1"/>
<text text-anchor="middle" x="1177" y="-8" font-family="FreeSans" font-size="10.00">crossplatformexport.h</text>
</a>
</g>
<!-- Node3&#45;&gt;Node4 -->
<g id="edge6" class="edge"><title>Node3&#45;&gt;Node4</title>
<path fill="none" stroke="midnightblue" d="M570.567,-66.044C671.078,-56.9209 977.738,-29.0863 1112.42,-16.862"/>
<polygon fill="midnightblue" stroke="midnightblue" points="1112.94,-20.3287 1122.59,-15.939 1112.31,-13.3574 1112.94,-20.3287"/>
</g>
<!-- Node5 -->
<g id="node9" class="node"><title>Node5</title>
<polygon fill="none" stroke="#bfbfbf" points="855.5,-1 855.5,-21 902.5,-21 902.5,-1 855.5,-1"/>
<text text-anchor="middle" x="879" y="-8" font-family="FreeSans" font-size="10.00">stdint.h</text>
</g>
<!-- Node3&#45;&gt;Node5 -->
<g id="edge8" class="edge"><title>Node3&#45;&gt;Node5</title>
<path fill="none" stroke="midnightblue" d="M570.855,-65.9674C626.004,-60.4555 740.714,-47.1863 845.585,-22.0416"/>
<polygon fill="midnightblue" stroke="midnightblue" points="846.491,-25.4233 855.376,-19.6519 844.832,-18.623 846.491,-25.4233"/>
</g>
<!-- Node6 -->
<g id="node11" class="node"><title>Node6</title>
<polygon fill="none" stroke="#bfbfbf" points="920,-1 920,-21 968,-21 968,-1 920,-1"/>
<text text-anchor="middle" x="944" y="-8" font-family="FreeSans" font-size="10.00">cstddef</text>
</g>
<!-- Node3&#45;&gt;Node6 -->
<g id="edge10" class="edge"><title>Node3&#45;&gt;Node6</title>
<path fill="none" stroke="midnightblue" d="M570.553,-67.0553C634.166,-62.7955 779.427,-50.8092 909.509,-21.9983"/>
<polygon fill="midnightblue" stroke="midnightblue" points="910.659,-25.3271 919.643,-19.7122 909.118,-18.4986 910.659,-25.3271"/>
</g>
<!-- Node7 -->
<g id="node13" class="node"><title>Node7</title>
<polygon fill="none" stroke="#bfbfbf" points="110,-1 110,-21 166,-21 166,-1 110,-1"/>
<text text-anchor="middle" x="138" y="-8" font-family="FreeSans" font-size="10.00">algorithm</text>
</g>
<!-- Node3&#45;&gt;Node7 -->
<g id="edge12" class="edge"><title>Node3&#45;&gt;Node7</title>
<path fill="none" stroke="midnightblue" d="M505.165,-66.5228C442.752,-61.4343 302.644,-48.1922 176.029,-21.956"/>
<polygon fill="midnightblue" stroke="midnightblue" points="176.669,-18.5141 166.162,-19.8789 175.227,-25.3639 176.669,-18.5141"/>
</g>
<!-- Node8 -->
<g id="node15" class="node"><title>Node8</title>
<polygon fill="none" stroke="#bfbfbf" points="184,-1 184,-21 242,-21 242,-1 184,-1"/>
<text text-anchor="middle" x="213" y="-8" font-family="FreeSans" font-size="10.00">exception</text>
</g>
<!-- Node3&#45;&gt;Node8 -->
<g id="edge14" class="edge"><title>Node3&#45;&gt;Node8</title>
<path fill="none" stroke="midnightblue" d="M505.476,-64.9627C453.786,-58.2682 349.579,-43.6404 252.358,-22.1189"/>
<polygon fill="midnightblue" stroke="midnightblue" points="252.892,-18.6518 242.368,-19.8772 251.359,-25.4819 252.892,-18.6518"/>
</g>
<!-- Node9 -->
<g id="node17" class="node"><title>Node9</title>
<polygon fill="none" stroke="#bfbfbf" points="260,-1 260,-21 308,-21 308,-1 260,-1"/>
<text text-anchor="middle" x="284" y="-8" font-family="FreeSans" font-size="10.00">istream</text>
</g>
<!-- Node3&#45;&gt;Node9 -->
<g id="edge16" class="edge"><title>Node3&#45;&gt;Node9</title>
<path fill="none" stroke="midnightblue" d="M505.148,-63.2064C463.604,-55.6205 389.746,-41.2725 317.74,-21.9918"/>
<polygon fill="midnightblue" stroke="midnightblue" points="318.623,-18.6049 308.055,-19.3651 316.79,-25.3608 318.623,-18.6049"/>
</g>
<!-- Node10 -->
<g id="node19" class="node"><title>Node10</title>
<polygon fill="none" stroke="#bfbfbf" points="325.5,-1 325.5,-21 354.5,-21 354.5,-1 325.5,-1"/>
<text text-anchor="middle" x="340" y="-8" font-family="FreeSans" font-size="10.00">list</text>
</g>
<!-- Node3&#45;&gt;Node10 -->
<g id="edge18" class="edge"><title>Node3&#45;&gt;Node10</title>
<path fill="none" stroke="midnightblue" d="M505.189,-62.0866C471.615,-54.6012 417.91,-41.4909 364.53,-22.1704"/>
<polygon fill="midnightblue" stroke="midnightblue" points="365.516,-18.8036 354.923,-18.623 363.091,-25.3703 365.516,-18.8036"/>
</g>
<!-- Node11 -->
<g id="node21" class="node"><title>Node11</title>
<polygon fill="none" stroke="#bfbfbf" points="1316.5,-1 1316.5,-21 1351.5,-21 1351.5,-1 1316.5,-1"/>
<text text-anchor="middle" x="1334" y="-8" font-family="FreeSans" font-size="10.00">map</text>
</g>
<!-- Node3&#45;&gt;Node11 -->
<g id="edge20" class="edge"><title>Node3&#45;&gt;Node11</title>
<path fill="none" stroke="midnightblue" d="M570.585,-67.395C670.669,-62.3416 982.438,-45.6775 1240,-22 1262.29,-19.9505 1287.49,-16.9665 1306.17,-14.6233"/>
<polygon fill="midnightblue" stroke="midnightblue" points="1306.88,-18.0623 1316.36,-13.3297 1305.99,-11.1182 1306.88,-18.0623"/>
</g>
<!-- Node12 -->
<g id="node23" class="node"><title>Node12</title>
<polygon fill="none" stroke="#bfbfbf" points="372,-1 372,-21 412,-21 412,-1 372,-1"/>
<text text-anchor="middle" x="392" y="-8" font-family="FreeSans" font-size="10.00">string</text>
</g>
<!-- Node3&#45;&gt;Node12 -->
<g id="edge22" class="edge"><title>Node3&#45;&gt;Node12</title>
<path fill="none" stroke="midnightblue" d="M512.569,-58.8972C487.358,-48.882 448.741,-33.5409 422.035,-22.9316"/>
<polygon fill="midnightblue" stroke="midnightblue" points="423.021,-19.5574 412.435,-19.1181 420.436,-26.0628 423.021,-19.5574"/>
</g>
<!-- Node13 -->
<g id="node25" class="node"><title>Node13</title>
<polygon fill="none" stroke="#bfbfbf" points="430,-1 430,-21 480,-21 480,-1 430,-1"/>
<text text-anchor="middle" x="455" y="-8" font-family="FreeSans" font-size="10.00">sstream</text>
</g>
<!-- Node3&#45;&gt;Node13 -->
<g id="edge24" class="edge"><title>Node3&#45;&gt;Node13</title>
<path fill="none" stroke="midnightblue" d="M523.543,-58.8972C511.004,-50.1351 492.631,-37.2965 478.063,-27.1164"/>
<polygon fill="midnightblue" stroke="midnightblue" points="479.772,-24.0408 469.57,-21.1817 475.762,-29.7786 479.772,-24.0408"/>
</g>
<!-- Node14 -->
<g id="node27" class="node"><title>Node14</title>
<polygon fill="none" stroke="#bfbfbf" points="497.5,-1 497.5,-21 526.5,-21 526.5,-1 497.5,-1"/>
<text text-anchor="middle" x="512" y="-8" font-family="FreeSans" font-size="10.00">set</text>
</g>
<!-- Node3&#45;&gt;Node14 -->
<g id="edge26" class="edge"><title>Node3&#45;&gt;Node14</title>
<path fill="none" stroke="midnightblue" d="M533.471,-58.8972C529.973,-51.0926 525.024,-40.0536 520.759,-30.5401"/>
<polygon fill="midnightblue" stroke="midnightblue" points="523.936,-29.071 516.652,-21.3776 517.549,-31.9344 523.936,-29.071"/>
</g>
<!-- Node15 -->
<g id="node29" class="node"><title>Node15</title>
<polygon fill="none" stroke="#bfbfbf" points="543.5,-1 543.5,-21 586.5,-21 586.5,-1 543.5,-1"/>
<text text-anchor="middle" x="565" y="-8" font-family="FreeSans" font-size="10.00">vector</text>
</g>
<!-- Node3&#45;&gt;Node15 -->
<g id="edge28" class="edge"><title>Node3&#45;&gt;Node15</title>
<path fill="none" stroke="midnightblue" d="M542.703,-58.8972C546.336,-51.0926 551.475,-40.0536 555.904,-30.5401"/>
<polygon fill="midnightblue" stroke="midnightblue" points="559.122,-31.9206 560.169,-21.3776 552.776,-28.9663 559.122,-31.9206"/>
</g>
<!-- Node16 -->
<g id="node31" class="node"><title>Node16</title>
<polygon fill="none" stroke="#bfbfbf" points="603.5,-1 603.5,-21 642.5,-21 642.5,-1 603.5,-1"/>
<text text-anchor="middle" x="623" y="-8" font-family="FreeSans" font-size="10.00">utility</text>
</g>
<!-- Node3&#45;&gt;Node16 -->
<g id="edge30" class="edge"><title>Node3&#45;&gt;Node16</title>
<path fill="none" stroke="midnightblue" d="M552.806,-58.8972C565.768,-50.0524 584.818,-37.0539 599.802,-26.829"/>
<polygon fill="midnightblue" stroke="midnightblue" points="601.791,-29.7092 608.079,-21.1817 597.846,-23.927 601.791,-29.7092"/>
</g>
<!-- Node17 -->
<g id="node33" class="node"><title>Node17</title>
<polygon fill="none" stroke="#bfbfbf" points="659.5,-1 659.5,-21 710.5,-21 710.5,-1 659.5,-1"/>
<text text-anchor="middle" x="685" y="-8" font-family="FreeSans" font-size="10.00">memory</text>
</g>
<!-- Node3&#45;&gt;Node17 -->
<g id="edge32" class="edge"><title>Node3&#45;&gt;Node17</title>
<path fill="none" stroke="midnightblue" d="M563.605,-58.8972C587.489,-49.4738 623.322,-35.3354 649.872,-24.8598"/>
<polygon fill="midnightblue" stroke="midnightblue" points="651.177,-28.1077 659.195,-21.1817 648.608,-21.5962 651.177,-28.1077"/>
</g>
<!-- Node18 -->
<g id="node35" class="node"><title>Node18</title>
<polygon fill="none" stroke="#bfbfbf" points="727.5,-1 727.5,-21 778.5,-21 778.5,-1 727.5,-1"/>
<text text-anchor="middle" x="753" y="-8" font-family="FreeSans" font-size="10.00">ostream</text>
</g>
<!-- Node3&#45;&gt;Node18 -->
<g id="edge34" class="edge"><title>Node3&#45;&gt;Node18</title>
<path fill="none" stroke="midnightblue" d="M570.527,-61.1661C604.891,-52.7554 660.865,-38.6763 717.583,-22.313"/>
<polygon fill="midnightblue" stroke="midnightblue" points="718.804,-25.6029 727.43,-19.4508 716.851,-18.8811 718.804,-25.6029"/>
</g>
<!-- Node19 -->
<g id="node37" class="node"><title>Node19</title>
<a xlink:href="swig_8h.xhtml" target="_top" xlink:title="Used to give commands specifically to the SWIG preprocessor.">
<polygon fill="none" stroke="black" points="795.5,-1 795.5,-21 838.5,-21 838.5,-1 795.5,-1"/>
<text text-anchor="middle" x="817" y="-8" font-family="FreeSans" font-size="10.00">swig.h</text>
</a>
</g>
<!-- Node3&#45;&gt;Node19 -->
<g id="edge36" class="edge"><title>Node3&#45;&gt;Node19</title>
<path fill="none" stroke="midnightblue" d="M570.622,-64.597C616.699,-58 703.534,-44.1808 785.244,-22.1948"/>
<polygon fill="midnightblue" stroke="midnightblue" points="786.461,-25.4907 795.181,-19.4731 784.611,-18.7394 786.461,-25.4907"/>
</g>
<!-- Node20&#45;&gt;Node3 -->
<g id="edge40" class="edge"><title>Node20&#45;&gt;Node3</title>
<path fill="none" stroke="midnightblue" d="M501.664,-116.897C507.834,-108.764 516.669,-97.1183 524.082,-87.3468"/>
<polygon fill="midnightblue" stroke="midnightblue" points="526.872,-89.4599 530.127,-79.3776 521.295,-85.2292 526.872,-89.4599"/>
</g>
<!-- Node21&#45;&gt;Node3 -->
<g id="edge44" class="edge"><title>Node21&#45;&gt;Node3</title>
<path fill="none" stroke="midnightblue" d="M522.435,-174.977C536.91,-167.175 554.557,-154.833 563,-138 571.247,-121.557 562.241,-101.715 552.819,-87.5372"/>
<polygon fill="midnightblue" stroke="midnightblue" points="555.438,-85.1862 546.744,-79.1311 549.764,-89.2862 555.438,-85.1862"/>
</g>
<!-- Node21&#45;&gt;Node20 -->
<g id="edge46" class="edge"><title>Node21&#45;&gt;Node20</title>
<path fill="none" stroke="midnightblue" d="M498.955,-174.897C498.173,-167.339 497.077,-156.748 496.115,-147.446"/>
<polygon fill="midnightblue" stroke="midnightblue" points="499.584,-146.964 495.074,-137.378 492.621,-147.685 499.584,-146.964"/>
</g>
<!-- Node22&#45;&gt;Node3 -->
<g id="edge50" class="edge"><title>Node22&#45;&gt;Node3</title>
<path fill="none" stroke="midnightblue" d="M369.895,-174.798C380.305,-160.064 401.348,-132.76 425,-116 446.444,-100.805 473.547,-89.3208 495.834,-81.5092"/>
<polygon fill="midnightblue" stroke="midnightblue" points="497.026,-84.801 505.378,-78.2824 494.783,-78.1698 497.026,-84.801"/>
</g>
<!-- Node22&#45;&gt;Node20 -->
<g id="edge52" class="edge"><title>Node22&#45;&gt;Node20</title>
<path fill="none" stroke="midnightblue" d="M385.818,-174.897C406.822,-165.598 438.197,-151.707 461.758,-141.275"/>
<polygon fill="midnightblue" stroke="midnightblue" points="463.277,-144.431 471.003,-137.182 460.443,-138.03 463.277,-144.431"/>
</g>
<!-- Node23 -->
<g id="node50" class="node"><title>Node23</title>
<a xlink:href="attribute_8h.xhtml" target="_top" xlink:title="Contains the definition for the XML::Attribute class.">
<polygon fill="none" stroke="black" points="179.5,-117 179.5,-137 262.5,-137 262.5,-117 179.5,-117"/>
<text text-anchor="middle" x="221" y="-124" font-family="FreeSans" font-size="10.00">XML/attribute.h</text>
</a>
</g>
<!-- Node22&#45;&gt;Node23 -->
<g id="edge54" class="edge"><title>Node22&#45;&gt;Node23</title>
<path fill="none" stroke="midnightblue" d="M338.265,-174.897C315.296,-165.515 280.883,-151.459 255.271,-140.998"/>
<polygon fill="midnightblue" stroke="midnightblue" points="256.509,-137.723 245.928,-137.182 253.862,-144.203 256.509,-137.723"/>
</g>
<!-- Node24 -->
<g id="node53" class="node"><title>Node24</title>
<a xlink:href="objectrange_8h.xhtml" target="_top" xlink:title="Contains the implementation of the ObjectRange class template.">
<polygon fill="none" stroke="black" points="280,-117 280,-137 378,-137 378,-117 280,-117"/>
<text text-anchor="middle" x="329" y="-124" font-family="FreeSans" font-size="10.00">XML/objectrange.h</text>
</a>
</g>
<!-- Node22&#45;&gt;Node24 -->
<g id="edge58" class="edge"><title>Node22&#45;&gt;Node24</title>
<path fill="none" stroke="midnightblue" d="M357.078,-174.897C352.454,-167.01 345.895,-155.821 340.279,-146.24"/>
<polygon fill="midnightblue" stroke="midnightblue" points="343.16,-144.235 335.083,-137.378 337.121,-147.775 343.16,-144.235"/>
</g>
<!-- Node23&#45;&gt;Node3 -->
<g id="edge56" class="edge"><title>Node23&#45;&gt;Node3</title>
<path fill="none" stroke="midnightblue" d="M262.714,-117.685C265.516,-117.102 268.297,-116.535 271,-116 349.996,-100.365 442.662,-84.6352 495.44,-75.9211"/>
<polygon fill="midnightblue" stroke="midnightblue" points="496.149,-79.3516 505.448,-74.2739 495.012,-72.4445 496.149,-79.3516"/>
</g>
<!-- Node24&#45;&gt;Node3 -->
<g id="edge60" class="edge"><title>Node24&#45;&gt;Node3</title>
<path fill="none" stroke="midnightblue" d="M365.405,-116.897C401.692,-106.827 457.383,-91.3722 495.634,-80.7571"/>
<polygon fill="midnightblue" stroke="midnightblue" points="496.744,-84.0813 505.444,-78.0346 494.872,-77.3362 496.744,-84.0813"/>
</g>
<!-- Node25&#45;&gt;Node3 -->
<g id="edge64" class="edge"><title>Node25&#45;&gt;Node3</title>
<path fill="none" stroke="midnightblue" d="M634.315,-232.979C625.976,-210.897 604.319,-156.77 578,-116 571.306,-105.631 562.538,-95.0774 554.917,-86.6049"/>
<polygon fill="midnightblue" stroke="midnightblue" points="557.425,-84.1618 548.068,-79.1933 552.284,-88.9129 557.425,-84.1618"/>
</g>
<!-- Node26 -->
<g id="node59" class="node"><title>Node26</title>
<a xlink:href="resource_8h_source.xhtml" target="_top" xlink:title="resource.h">
<polygon fill="none" stroke="black" points="1032.5,-175 1032.5,-195 1093.5,-195 1093.5,-175 1032.5,-175"/>
<text text-anchor="middle" x="1063" y="-182" font-family="FreeSans" font-size="10.00">resource.h</text>
</a>
</g>
<!-- Node25&#45;&gt;Node26 -->
<g id="edge66" class="edge"><title>Node25&#45;&gt;Node26</title>
<path fill="none" stroke="midnightblue" d="M673.504,-238.155C751.849,-227.463 939.149,-201.902 1022.18,-190.571"/>
<polygon fill="midnightblue" stroke="midnightblue" points="1022.81,-194.018 1032.24,-189.198 1021.86,-187.082 1022.81,-194.018"/>
</g>
<!-- Node27 -->
<g id="node61" class="node"><title>Node27</title>
<a xlink:href="resourceenumerations_8h_source.xhtml" target="_top" xlink:title="Resource/resourceenumerations.h">
<polygon fill="none" stroke="black" points="1278,-117 1278,-137 1440,-137 1440,-117 1278,-117"/>
<text text-anchor="middle" x="1359" y="-124" font-family="FreeSans" font-size="10.00">Resource/resourceenumerations.h</text>
</a>
</g>
<!-- Node26&#45;&gt;Node27 -->
<g id="edge68" class="edge"><title>Node26&#45;&gt;Node27</title>
<path fill="none" stroke="midnightblue" d="M1093.56,-179.011C1141.56,-169.607 1235.53,-151.193 1297.8,-138.992"/>
<polygon fill="midnightblue" stroke="midnightblue" points="1298.75,-142.372 1307.89,-137.014 1297.41,-135.503 1298.75,-142.372"/>
</g>
<!-- Node28 -->
<g id="node63" class="node"><title>Node28</title>
<a xlink:href="archive_8h_source.xhtml" target="_top" xlink:title="Resource/archive.h">
<polygon fill="none" stroke="black" points="782,-117 782,-137 880,-137 880,-117 782,-117"/>
<text text-anchor="middle" x="831" y="-124" font-family="FreeSans" font-size="10.00">Resource/archive.h</text>
</a>
</g>
<!-- Node26&#45;&gt;Node28 -->
<g id="edge70" class="edge"><title>Node26&#45;&gt;Node28</title>
<path fill="none" stroke="midnightblue" d="M1032.19,-177.298C993.608,-167.652 926.999,-151 881.056,-139.514"/>
<polygon fill="midnightblue" stroke="midnightblue" points="881.846,-136.104 871.295,-137.074 880.148,-142.895 881.846,-136.104"/>
</g>
<!-- Node29 -->
<g id="node65" class="node"><title>Node29</title>
<a xlink:href="asset_8h_source.xhtml" target="_top" xlink:title="Resource/asset.h">
<polygon fill="none" stroke="black" points="898,-117 898,-137 988,-137 988,-117 898,-117"/>
<text text-anchor="middle" x="943" y="-124" font-family="FreeSans" font-size="10.00">Resource/asset.h</text>
</a>
</g>
<!-- Node26&#45;&gt;Node29 -->
<g id="edge72" class="edge"><title>Node26&#45;&gt;Node29</title>
<path fill="none" stroke="midnightblue" d="M1042.1,-174.897C1023.03,-165.68 994.627,-151.953 973.112,-141.554"/>
<polygon fill="midnightblue" stroke="midnightblue" points="974.592,-138.382 964.066,-137.182 971.546,-144.685 974.592,-138.382"/>
</g>
<!-- Node30 -->
<g id="node67" class="node"><title>Node30</title>
<a xlink:href="assetgroup_8h_source.xhtml" target="_top" xlink:title="Resource/assetgroup.h">
<polygon fill="none" stroke="black" points="1006,-117 1006,-137 1120,-137 1120,-117 1006,-117"/>
<text text-anchor="middle" x="1063" y="-124" font-family="FreeSans" font-size="10.00">Resource/assetgroup.h</text>
</a>
</g>
<!-- Node26&#45;&gt;Node30 -->
<g id="edge74" class="edge"><title>Node26&#45;&gt;Node30</title>
<path fill="none" stroke="midnightblue" d="M1063,-174.897C1063,-167.339 1063,-156.748 1063,-147.446"/>
<polygon fill="midnightblue" stroke="midnightblue" points="1066.5,-147.378 1063,-137.378 1059.5,-147.378 1066.5,-147.378"/>
</g>
<!-- Node31 -->
<g id="node69" class="node"><title>Node31</title>
<a xlink:href="assethandler_8h_source.xhtml" target="_top" xlink:title="Resource/assethandler.h">
<polygon fill="none" stroke="black" points="1138,-117 1138,-137 1260,-137 1260,-117 1138,-117"/>
<text text-anchor="middle" x="1199" y="-124" font-family="FreeSans" font-size="10.00">Resource/assethandler.h</text>
</a>
</g>
<!-- Node26&#45;&gt;Node31 -->
<g id="edge76" class="edge"><title>Node26&#45;&gt;Node31</title>
<path fill="none" stroke="midnightblue" d="M1086.69,-174.897C1108.59,-165.556 1141.36,-151.583 1165.85,-141.136"/>
<polygon fill="midnightblue" stroke="midnightblue" points="1167.3,-144.324 1175.13,-137.182 1164.55,-137.885 1167.3,-144.324"/>
</g>
<!-- Node26&#45;&gt;Node32 -->
<g id="edge78" class="edge"><title>Node26&#45;&gt;Node32</title>
<path fill="none" stroke="midnightblue" d="M1032.09,-180.013C980.788,-171.728 874.523,-154.55 774.113,-138.179"/>
<polygon fill="midnightblue" stroke="midnightblue" points="774.536,-134.702 764.103,-136.547 773.41,-141.611 774.536,-134.702"/>
</g>
<!-- Node33 -->
<g id="node74" class="node"><title>Node33</title>
<a xlink:href="inputstream_8h_source.xhtml" target="_top" xlink:title="Resource/inputstream.h">
<polygon fill="none" stroke="black" points="1458,-117 1458,-137 1576,-137 1576,-117 1458,-117"/>
<text text-anchor="middle" x="1517" y="-124" font-family="FreeSans" font-size="10.00">Resource/inputstream.h</text>
</a>
</g>
<!-- Node26&#45;&gt;Node33 -->
<g id="edge82" class="edge"><title>Node26&#45;&gt;Node33</title>
<path fill="none" stroke="midnightblue" d="M1093.58,-181.689C1157.39,-174.691 1309.63,-157.536 1447.76,-138.136"/>
<polygon fill="midnightblue" stroke="midnightblue" points="1448.27,-141.6 1457.68,-136.736 1447.29,-134.668 1448.27,-141.6"/>
</g>
<!-- Node34 -->
<g id="node78" class="node"><title>Node34</title>
<a xlink:href="textsettingsfile_8h_source.xhtml" target="_top" xlink:title="Resource/textsettingsfile.h">
<polygon fill="none" stroke="black" points="1594,-117 1594,-137 1722,-137 1722,-117 1594,-117"/>
<text text-anchor="middle" x="1658" y="-124" font-family="FreeSans" font-size="10.00">Resource/textsettingsfile.h</text>
</a>
</g>
<!-- Node26&#45;&gt;Node34 -->
<g id="edge88" class="edge"><title>Node26&#45;&gt;Node34</title>
<path fill="none" stroke="midnightblue" d="M1093.66,-182.883C1172.92,-177.273 1391.26,-160.95 1583.91,-138.074"/>
<polygon fill="midnightblue" stroke="midnightblue" points="1584.42,-141.538 1593.94,-136.875 1583.59,-134.588 1584.42,-141.538"/>
</g>
<!-- Node32&#45;&gt;Node3 -->
<g id="edge80" class="edge"><title>Node32&#45;&gt;Node3</title>
<path fill="none" stroke="midnightblue" d="M676.737,-116.897C648.997,-107.321 607.153,-92.8742 576.674,-82.3516"/>
<polygon fill="midnightblue" stroke="midnightblue" points="577.804,-79.0392 567.209,-79.0842 575.52,-85.656 577.804,-79.0392"/>
</g>
<!-- Node33&#45;&gt;Node3 -->
<g id="edge86" class="edge"><title>Node33&#45;&gt;Node3</title>
<path fill="none" stroke="midnightblue" d="M1457.71,-117.02C1454.77,-116.647 1451.85,-116.304 1449,-116 1116.23,-80.6065 712.121,-71.62 581.172,-69.561"/>
<polygon fill="midnightblue" stroke="midnightblue" points="580.835,-66.0556 570.783,-69.4034 580.729,-73.0548 580.835,-66.0556"/>
</g>
<!-- Node33&#45;&gt;Node4 -->
<g id="edge84" class="edge"><title>Node33&#45;&gt;Node4</title>
<path fill="none" stroke="midnightblue" d="M1487.42,-116.909C1426.13,-95.9988 1285.26,-47.9358 1216.37,-24.4337"/>
<polygon fill="midnightblue" stroke="midnightblue" points="1217.35,-21.0671 1206.75,-21.1506 1215.09,-27.6922 1217.35,-21.0671"/>
</g>
<!-- Node34&#45;&gt;Node3 -->
<g id="edge90" class="edge"><title>Node34&#45;&gt;Node3</title>
<path fill="none" stroke="midnightblue" d="M1593.95,-116.961C1590.93,-116.61 1587.93,-116.286 1585,-116 1196.32,-78.0968 723.432,-70.7127 580.741,-69.316"/>
<polygon fill="midnightblue" stroke="midnightblue" points="580.687,-65.8154 570.655,-69.222 580.622,-72.8151 580.687,-65.8154"/>
</g>
<!-- Node34&#45;&gt;Node11 -->
<g id="edge92" class="edge"><title>Node34&#45;&gt;Node11</title>
<path fill="none" stroke="midnightblue" d="M1629.81,-116.909C1568.25,-94.8675 1422.42,-42.6556 1361.49,-20.843"/>
<polygon fill="midnightblue" stroke="midnightblue" points="1362.4,-17.4499 1351.8,-17.3743 1360.04,-24.0403 1362.4,-17.4499"/>
</g>
<!-- Node35&#45;&gt;Node3 -->
<g id="edge98" class="edge"><title>Node35&#45;&gt;Node3</title>
<path fill="none" stroke="midnightblue" d="M44.1615,-232.994C47.596,-208.412 60.1023,-144.963 100,-116 131.563,-93.0876 390.942,-76.847 495.024,-71.1941"/>
<polygon fill="midnightblue" stroke="midnightblue" points="495.385,-74.6799 505.183,-70.6494 495.01,-67.69 495.385,-74.6799"/>
</g>
<!-- Node36&#45;&gt;Node3 -->
<g id="edge102" class="edge"><title>Node36&#45;&gt;Node3</title>
<path fill="none" stroke="midnightblue" d="M112.579,-290.645C108.881,-259.015 102.547,-162.964 154,-116 178.863,-93.3055 400.295,-77.3314 495.165,-71.4704"/>
<polygon fill="midnightblue" stroke="midnightblue" points="495.514,-74.9557 505.283,-70.8541 495.089,-67.9687 495.514,-74.9557"/>
</g>
</g>
</svg>
