<?xml version="1.0" encoding="UTF-8" standalone="no"?>
<!DOCTYPE svg PUBLIC "-//W3C//DTD SVG 1.1//EN"
 "http://www.w3.org/Graphics/SVG/1.1/DTD/svg11.dtd">
<!-- Generated by graphviz version 2.26.3 (20100126.1600)
 -->
<!-- Title: /home/sqeaky/Code/Mezzanine/Mezzanine/src/XML/xmlstring.cpp Pages: 1 -->
<svg width="1517pt" height="506pt"
 viewBox="0.00 0.00 1517.00 506.00" xmlns="http://www.w3.org/2000/svg" xmlns:xlink="http://www.w3.org/1999/xlink">
<g id="graph1" class="graph" transform="scale(1 1) rotate(0) translate(4 502)">
<title>/home/sqeaky/Code/Mezzanine/Mezzanine/src/XML/xmlstring.cpp</title>
<polygon fill="white" stroke="white" points="-4,5 -4,-502 1514,-502 1514,5 -4,5"/>
<!-- Node1 -->
<g id="node1" class="node"><title>Node1</title>
<polygon fill="#bfbfbf" stroke="black" points="1295,-465 1295,-497 1459,-497 1459,-465 1295,-465"/>
<text text-anchor="start" x="1303" y="-484" font-family="FreeSans" font-size="10.00">/home/sqeaky/Code/Mezzanine</text>
<text text-anchor="middle" x="1377" y="-472" font-family="FreeSans" font-size="10.00">/Mezzanine/src/XML/xmlstring.cpp</text>
</g>
<!-- Node2 -->
<g id="node3" class="node"><title>Node2</title>
<a xlink:href="document_8h.html" target="_top" xlink:title="The definition of the XML::Document Class. ">
<polygon fill="white" stroke="black" points="1155,-407 1155,-427 1245,-427 1245,-407 1155,-407"/>
<text text-anchor="middle" x="1200" y="-414" font-family="FreeSans" font-size="10.00">XML/document.h</text>
</a>
</g>
<!-- Node1&#45;&gt;Node2 -->
<g id="edge2" class="edge"><title>Node1&#45;&gt;Node2</title>
<path fill="none" stroke="midnightblue" d="M1332.34,-464.85C1303.06,-454.264 1265.21,-440.58 1237.5,-430.56"/>
<polygon fill="midnightblue" stroke="midnightblue" points="1238.38,-427.155 1227.78,-427.046 1236,-433.738 1238.38,-427.155"/>
</g>
<!-- Node40 -->
<g id="node95" class="node"><title>Node40</title>
<a xlink:href="xmlstring_8h.html" target="_top" xlink:title="A few functions to help the XML system perform conversions between UTF8 and the native wide character...">
<polygon fill="white" stroke="black" points="1334,-349 1334,-369 1420,-369 1420,-349 1334,-349"/>
<text text-anchor="middle" x="1377" y="-356" font-family="FreeSans" font-size="10.00">XML/xmlstring.h</text>
</a>
</g>
<!-- Node1&#45;&gt;Node40 -->
<g id="edge110" class="edge"><title>Node1&#45;&gt;Node40</title>
<path fill="none" stroke="midnightblue" d="M1377,-464.799C1377,-442.753 1377,-403.307 1377,-379.308"/>
<polygon fill="midnightblue" stroke="midnightblue" points="1380.5,-379.199 1377,-369.199 1373.5,-379.199 1380.5,-379.199"/>
</g>
<!-- Node41 -->
<g id="node98" class="node"><title>Node41</title>
<a xlink:href="exception_8h_source.html" target="_top" xlink:title="exception.h">
<polygon fill="white" stroke="black" points="1415.5,-291 1415.5,-311 1480.5,-311 1480.5,-291 1415.5,-291"/>
<text text-anchor="middle" x="1448" y="-298" font-family="FreeSans" font-size="10.00">exception.h</text>
</a>
</g>
<!-- Node1&#45;&gt;Node41 -->
<g id="edge114" class="edge"><title>Node1&#45;&gt;Node41</title>
<path fill="none" stroke="midnightblue" d="M1385.64,-464.823C1396.77,-443.535 1416.18,-404.74 1429,-370 1434.9,-353.995 1439.94,-335.311 1443.34,-321.425"/>
<polygon fill="midnightblue" stroke="midnightblue" points="1446.8,-321.997 1445.7,-311.46 1439.99,-320.383 1446.8,-321.997"/>
</g>
<!-- Node3 -->
<g id="node5" class="node"><title>Node3</title>
<a xlink:href="datatypes_8h.html" target="_top" xlink:title="All the definitions for datatypes as well as some basic conversion functions are defined here...">
<polygon fill="white" stroke="black" points="964.5,-59 964.5,-79 1029.5,-79 1029.5,-59 964.5,-59"/>
<text text-anchor="middle" x="997" y="-66" font-family="FreeSans" font-size="10.00">datatypes.h</text>
</a>
</g>
<!-- Node2&#45;&gt;Node3 -->
<g id="edge4" class="edge"><title>Node2&#45;&gt;Node3</title>
<path fill="none" stroke="midnightblue" d="M1198.01,-406.862C1191.05,-372.239 1166.9,-259.313 1143,-232 1077.25,-156.879 992.829,-222.073 939,-138 926.3,-118.165 948.578,-97.8045 969.097,-84.3912"/>
<polygon fill="midnightblue" stroke="midnightblue" points="971.009,-87.3241 977.676,-79.0898 967.329,-81.3693 971.009,-87.3241"/>
</g>
<!-- Node21 -->
<g id="node41" class="node"><title>Node21</title>
<a xlink:href="xmlenumerations_8h.html" target="_top" xlink:title="Enumerations and constant values used primarily in the XML system but useful for interacting with it ...">
<polygon fill="white" stroke="black" points="1202,-117 1202,-137 1322,-137 1322,-117 1202,-117"/>
<text text-anchor="middle" x="1262" y="-124" font-family="FreeSans" font-size="10.00">XML/xmlenumerations.h</text>
</a>
</g>
<!-- Node2&#45;&gt;Node21 -->
<g id="edge40" class="edge"><title>Node2&#45;&gt;Node21</title>
<path fill="none" stroke="midnightblue" d="M1205.77,-406.813C1216.4,-387.062 1238,-341.9 1238,-301 1238,-301 1238,-301 1238,-243 1238,-208.558 1248.27,-169.534 1255.38,-146.664"/>
<polygon fill="midnightblue" stroke="midnightblue" points="1258.72,-147.687 1258.46,-137.096 1252.06,-145.54 1258.72,-147.687"/>
</g>
<!-- Node22 -->
<g id="node44" class="node"><title>Node22</title>
<a xlink:href="parseresult_8h.html" target="_top" xlink:title="XML/parseresult.h">
<polygon fill="white" stroke="black" points="1266,-175 1266,-195 1360,-195 1360,-175 1266,-175"/>
<text text-anchor="middle" x="1313" y="-182" font-family="FreeSans" font-size="10.00">XML/parseresult.h</text>
</a>
</g>
<!-- Node2&#45;&gt;Node22 -->
<g id="edge44" class="edge"><title>Node2&#45;&gt;Node22</title>
<path fill="none" stroke="midnightblue" d="M1215.18,-406.671C1226.76,-398.082 1242.31,-384.888 1252,-370 1286.97,-316.297 1303.59,-240.735 1309.87,-205.097"/>
<polygon fill="midnightblue" stroke="midnightblue" points="1313.36,-205.448 1311.55,-195.008 1306.45,-204.295 1313.36,-205.448"/>
</g>
<!-- Node23 -->
<g id="node48" class="node"><title>Node23</title>
<a xlink:href="node_8h.html" target="_top" xlink:title="This defines the Mezzanine::XML::Node one of the central XML classes. ">
<polygon fill="white" stroke="black" points="1109,-175 1109,-195 1177,-195 1177,-175 1109,-175"/>
<text text-anchor="middle" x="1143" y="-182" font-family="FreeSans" font-size="10.00">XML/node.h</text>
</a>
</g>
<!-- Node2&#45;&gt;Node23 -->
<g id="edge50" class="edge"><title>Node2&#45;&gt;Node23</title>
<path fill="none" stroke="midnightblue" d="M1200.35,-406.963C1201,-378.473 1200.51,-295.094 1176,-232 1171.98,-221.654 1165.22,-211.418 1158.85,-203.153"/>
<polygon fill="midnightblue" stroke="midnightblue" points="1161.52,-200.887 1152.5,-195.331 1156.09,-205.3 1161.52,-200.887"/>
</g>
<!-- Node26 -->
<g id="node58" class="node"><title>Node26</title>
<a xlink:href="writer_8h.html" target="_top" xlink:title="The definitions for all of the XML::Writer inheritance hierarchy. ">
<polygon fill="white" stroke="black" points="-0.5,-349 -0.5,-369 70.5,-369 70.5,-349 -0.5,-349"/>
<text text-anchor="middle" x="35" y="-356" font-family="FreeSans" font-size="10.00">XML/writer.h</text>
</a>
</g>
<!-- Node2&#45;&gt;Node26 -->
<g id="edge64" class="edge"><title>Node2&#45;&gt;Node26</title>
<path fill="none" stroke="midnightblue" d="M1154.73,-416.174C973.026,-412.691 296.314,-398.073 84,-370 82.9196,-369.857 81.8278,-369.702 80.7284,-369.536"/>
<polygon fill="midnightblue" stroke="midnightblue" points="81.1795,-366.062 70.7273,-367.795 79.9788,-372.958 81.1795,-366.062"/>
</g>
<!-- Node33 -->
<g id="node73" class="node"><title>Node33</title>
<a xlink:href="datastream_8h.html" target="_top" xlink:title="Declaration of DataStream. ">
<polygon fill="white" stroke="black" points="668,-175 668,-195 784,-195 784,-175 668,-175"/>
<text text-anchor="middle" x="726" y="-182" font-family="FreeSans" font-size="10.00">Resource/datastream.h</text>
</a>
</g>
<!-- Node2&#45;&gt;Node33 -->
<g id="edge108" class="edge"><title>Node2&#45;&gt;Node33</title>
<path fill="none" stroke="midnightblue" d="M1154.68,-413.419C962.313,-397.766 220.303,-332.608 155,-254 148.752,-246.479 148.376,-239.192 155,-232 171.812,-213.747 509.475,-195.388 657.482,-188.182"/>
<polygon fill="midnightblue" stroke="midnightblue" points="657.984,-191.662 667.803,-187.683 657.646,-184.67 657.984,-191.662"/>
</g>
<!-- Node4 -->
<g id="node7" class="node"><title>Node4</title>
<a xlink:href="crossplatformexport_8h.html" target="_top" xlink:title="This file is used on some platforms to determine what data should be read and written to and from a s...">
<polygon fill="white" stroke="black" points="407,-1 407,-21 515,-21 515,-1 407,-1"/>
<text text-anchor="middle" x="461" y="-8" font-family="FreeSans" font-size="10.00">crossplatformexport.h</text>
</a>
</g>
<!-- Node3&#45;&gt;Node4 -->
<g id="edge6" class="edge"><title>Node3&#45;&gt;Node4</title>
<path fill="none" stroke="midnightblue" d="M964.216,-66.5808C888.657,-60.8258 696.262,-45.1491 525.194,-22.0867"/>
<polygon fill="midnightblue" stroke="midnightblue" points="525.637,-18.6148 515.256,-20.7352 524.694,-25.5509 525.637,-18.6148"/>
</g>
<!-- Node5 -->
<g id="node9" class="node"><title>Node5</title>
<polygon fill="white" stroke="#bfbfbf" points="1396.5,-1 1396.5,-21 1443.5,-21 1443.5,-1 1396.5,-1"/>
<text text-anchor="middle" x="1420" y="-8" font-family="FreeSans" font-size="10.00">stdint.h</text>
</g>
<!-- Node3&#45;&gt;Node5 -->
<g id="edge8" class="edge"><title>Node3&#45;&gt;Node5</title>
<path fill="none" stroke="midnightblue" d="M1029.58,-67.4142C1095.58,-63.706 1249.76,-52.5244 1386.58,-21.9705"/>
<polygon fill="midnightblue" stroke="midnightblue" points="1387.42,-25.3678 1396.4,-19.7369 1385.87,-18.5422 1387.42,-25.3678"/>
</g>
<!-- Node6 -->
<g id="node11" class="node"><title>Node6</title>
<polygon fill="white" stroke="#bfbfbf" points="1461,-1 1461,-21 1509,-21 1509,-1 1461,-1"/>
<text text-anchor="middle" x="1485" y="-8" font-family="FreeSans" font-size="10.00">cstddef</text>
</g>
<!-- Node3&#45;&gt;Node6 -->
<g id="edge10" class="edge"><title>Node3&#45;&gt;Node6</title>
<path fill="none" stroke="midnightblue" d="M1029.66,-68.0722C1103.39,-65.4591 1288.36,-55.9973 1450.5,-21.9463"/>
<polygon fill="midnightblue" stroke="midnightblue" points="1451.61,-25.2889 1460.66,-19.775 1450.15,-18.4437 1451.61,-25.2889"/>
</g>
<!-- Node7 -->
<g id="node13" class="node"><title>Node7</title>
<polygon fill="white" stroke="#bfbfbf" points="533,-1 533,-21 589,-21 589,-1 533,-1"/>
<text text-anchor="middle" x="561" y="-8" font-family="FreeSans" font-size="10.00">algorithm</text>
</g>
<!-- Node3&#45;&gt;Node7 -->
<g id="edge12" class="edge"><title>Node3&#45;&gt;Node7</title>
<path fill="none" stroke="midnightblue" d="M964.374,-67.0611C897.503,-62.681 740.023,-50.2825 599.259,-21.9786"/>
<polygon fill="midnightblue" stroke="midnightblue" points="599.653,-18.4868 589.155,-19.9131 598.251,-25.345 599.653,-18.4868"/>
</g>
<!-- Node8 -->
<g id="node15" class="node"><title>Node8</title>
<polygon fill="white" stroke="#bfbfbf" points="607,-1 607,-21 665,-21 665,-1 607,-1"/>
<text text-anchor="middle" x="636" y="-8" font-family="FreeSans" font-size="10.00">exception</text>
</g>
<!-- Node3&#45;&gt;Node8 -->
<g id="edge14" class="edge"><title>Node3&#45;&gt;Node8</title>
<path fill="none" stroke="midnightblue" d="M964.183,-65.7314C907.233,-59.7353 786.311,-45.5764 675.372,-22.0825"/>
<polygon fill="midnightblue" stroke="midnightblue" points="675.869,-18.6094 665.357,-19.9298 674.398,-25.4531 675.869,-18.6094"/>
</g>
<!-- Node9 -->
<g id="node17" class="node"><title>Node9</title>
<polygon fill="white" stroke="#bfbfbf" points="683,-1 683,-21 731,-21 731,-1 683,-1"/>
<text text-anchor="middle" x="707" y="-8" font-family="FreeSans" font-size="10.00">istream</text>
</g>
<!-- Node3&#45;&gt;Node9 -->
<g id="edge16" class="edge"><title>Node3&#45;&gt;Node9</title>
<path fill="none" stroke="midnightblue" d="M964.225,-64.5185C916.89,-57.7195 826.547,-43.5214 740.911,-21.9708"/>
<polygon fill="midnightblue" stroke="midnightblue" points="741.589,-18.5316 731.034,-19.4464 739.856,-25.3136 741.589,-18.5316"/>
</g>
<!-- Node10 -->
<g id="node19" class="node"><title>Node10</title>
<polygon fill="white" stroke="#bfbfbf" points="748.5,-1 748.5,-21 777.5,-21 777.5,-1 748.5,-1"/>
<text text-anchor="middle" x="763" y="-8" font-family="FreeSans" font-size="10.00">list</text>
</g>
<!-- Node3&#45;&gt;Node10 -->
<g id="edge18" class="edge"><title>Node3&#45;&gt;Node10</title>
<path fill="none" stroke="midnightblue" d="M964.195,-64.0678C924.123,-57.5328 854.307,-44.4987 787.69,-22.0942"/>
<polygon fill="midnightblue" stroke="midnightblue" points="788.483,-18.6657 777.888,-18.7203 786.204,-25.2846 788.483,-18.6657"/>
</g>
<!-- Node11 -->
<g id="node21" class="node"><title>Node11</title>
<polygon fill="white" stroke="#bfbfbf" points="794.5,-1 794.5,-21 829.5,-21 829.5,-1 794.5,-1"/>
<text text-anchor="middle" x="812" y="-8" font-family="FreeSans" font-size="10.00">map</text>
</g>
<!-- Node3&#45;&gt;Node11 -->
<g id="edge20" class="edge"><title>Node3&#45;&gt;Node11</title>
<path fill="none" stroke="midnightblue" d="M964.375,-60.5152C934.013,-52.3655 887.379,-39.205 839.174,-22.1828"/>
<polygon fill="midnightblue" stroke="midnightblue" points="840.111,-18.8008 829.516,-18.7272 837.752,-25.3916 840.111,-18.8008"/>
</g>
<!-- Node12 -->
<g id="node23" class="node"><title>Node12</title>
<polygon fill="white" stroke="#bfbfbf" points="847,-1 847,-21 887,-21 887,-1 847,-1"/>
<text text-anchor="middle" x="867" y="-8" font-family="FreeSans" font-size="10.00">string</text>
</g>
<!-- Node3&#45;&gt;Node12 -->
<g id="edge22" class="edge"><title>Node3&#45;&gt;Node12</title>
<path fill="none" stroke="midnightblue" d="M974.356,-58.8972C952.745,-49.2555 920.071,-34.6777 896.447,-24.1378"/>
<polygon fill="midnightblue" stroke="midnightblue" points="897.808,-20.9128 887.25,-20.0346 894.956,-27.3054 897.808,-20.9128"/>
</g>
<!-- Node13 -->
<g id="node25" class="node"><title>Node13</title>
<polygon fill="white" stroke="#bfbfbf" points="905,-1 905,-21 955,-21 955,-1 905,-1"/>
<text text-anchor="middle" x="930" y="-8" font-family="FreeSans" font-size="10.00">sstream</text>
</g>
<!-- Node3&#45;&gt;Node13 -->
<g id="edge24" class="edge"><title>Node3&#45;&gt;Node13</title>
<path fill="none" stroke="midnightblue" d="M985.329,-58.8972C975.555,-50.4353 961.388,-38.1715 949.837,-28.1719"/>
<polygon fill="midnightblue" stroke="midnightblue" points="951.839,-25.2764 941.988,-21.3776 947.258,-30.5689 951.839,-25.2764"/>
</g>
<!-- Node14 -->
<g id="node27" class="node"><title>Node14</title>
<polygon fill="white" stroke="#bfbfbf" points="972.5,-1 972.5,-21 1021.5,-21 1021.5,-1 972.5,-1"/>
<text text-anchor="middle" x="997" y="-8" font-family="FreeSans" font-size="10.00">fstream</text>
</g>
<!-- Node3&#45;&gt;Node14 -->
<g id="edge26" class="edge"><title>Node3&#45;&gt;Node14</title>
<path fill="none" stroke="midnightblue" d="M997,-58.8972C997,-51.339 997,-40.7476 997,-31.4458"/>
<polygon fill="midnightblue" stroke="midnightblue" points="1000.5,-31.3776 997,-21.3776 993.5,-31.3776 1000.5,-31.3776"/>
</g>
<!-- Node15 -->
<g id="node29" class="node"><title>Node15</title>
<polygon fill="white" stroke="#bfbfbf" points="1038.5,-1 1038.5,-21 1067.5,-21 1067.5,-1 1038.5,-1"/>
<text text-anchor="middle" x="1053" y="-8" font-family="FreeSans" font-size="10.00">set</text>
</g>
<!-- Node3&#45;&gt;Node15 -->
<g id="edge28" class="edge"><title>Node3&#45;&gt;Node15</title>
<path fill="none" stroke="midnightblue" d="M1006.75,-58.8972C1014.77,-50.5996 1026.31,-38.6463 1035.86,-28.7569"/>
<polygon fill="midnightblue" stroke="midnightblue" points="1038.55,-31.0027 1042.98,-21.3776 1033.52,-26.1406 1038.55,-31.0027"/>
</g>
<!-- Node16 -->
<g id="node31" class="node"><title>Node16</title>
<polygon fill="white" stroke="#bfbfbf" points="1084.5,-1 1084.5,-21 1127.5,-21 1127.5,-1 1084.5,-1"/>
<text text-anchor="middle" x="1106" y="-8" font-family="FreeSans" font-size="10.00">vector</text>
</g>
<!-- Node3&#45;&gt;Node16 -->
<g id="edge30" class="edge"><title>Node3&#45;&gt;Node16</title>
<path fill="none" stroke="midnightblue" d="M1015.99,-58.8972C1033.07,-49.8045 1058.41,-36.3218 1077.86,-25.9757"/>
<polygon fill="midnightblue" stroke="midnightblue" points="1079.68,-28.969 1086.87,-21.1817 1076.39,-22.7894 1079.68,-28.969"/>
</g>
<!-- Node17 -->
<g id="node33" class="node"><title>Node17</title>
<polygon fill="white" stroke="#bfbfbf" points="1144.5,-1 1144.5,-21 1183.5,-21 1183.5,-1 1144.5,-1"/>
<text text-anchor="middle" x="1164" y="-8" font-family="FreeSans" font-size="10.00">utility</text>
</g>
<!-- Node3&#45;&gt;Node17 -->
<g id="edge32" class="edge"><title>Node3&#45;&gt;Node17</title>
<path fill="none" stroke="midnightblue" d="M1028.07,-58.9717C1054.35,-50.3831 1093.2,-37.4416 1134.95,-22.2889"/>
<polygon fill="midnightblue" stroke="midnightblue" points="1136.27,-25.5315 1144.46,-18.8138 1133.87,-18.9561 1136.27,-25.5315"/>
</g>
<!-- Node18 -->
<g id="node35" class="node"><title>Node18</title>
<polygon fill="white" stroke="#bfbfbf" points="1200.5,-1 1200.5,-21 1251.5,-21 1251.5,-1 1200.5,-1"/>
<text text-anchor="middle" x="1226" y="-8" font-family="FreeSans" font-size="10.00">memory</text>
</g>
<!-- Node3&#45;&gt;Node18 -->
<g id="edge34" class="edge"><title>Node3&#45;&gt;Node18</title>
<path fill="none" stroke="midnightblue" d="M1029.63,-61.9363C1066.54,-53.7706 1128.64,-39.508 1190.52,-22.288"/>
<polygon fill="midnightblue" stroke="midnightblue" points="1191.76,-25.5738 1200.44,-19.4993 1189.87,-18.8347 1191.76,-25.5738"/>
</g>
<!-- Node19 -->
<g id="node37" class="node"><title>Node19</title>
<polygon fill="white" stroke="#bfbfbf" points="1268.5,-1 1268.5,-21 1319.5,-21 1319.5,-1 1268.5,-1"/>
<text text-anchor="middle" x="1294" y="-8" font-family="FreeSans" font-size="10.00">ostream</text>
</g>
<!-- Node3&#45;&gt;Node19 -->
<g id="edge36" class="edge"><title>Node3&#45;&gt;Node19</title>
<path fill="none" stroke="midnightblue" d="M1029.69,-64.6189C1077.92,-57.8409 1171.05,-43.5476 1258.66,-22.1068"/>
<polygon fill="midnightblue" stroke="midnightblue" points="1259.63,-25.4735 1268.49,-19.6655 1257.94,-18.68 1259.63,-25.4735"/>
</g>
<!-- Node20 -->
<g id="node39" class="node"><title>Node20</title>
<a xlink:href="swig_8h.html" target="_top" xlink:title="Used to give commands specifically to the SWIG preprocessor. ">
<polygon fill="white" stroke="black" points="1336.5,-1 1336.5,-21 1379.5,-21 1379.5,-1 1336.5,-1"/>
<text text-anchor="middle" x="1358" y="-8" font-family="FreeSans" font-size="10.00">swig.h</text>
</a>
</g>
<!-- Node3&#45;&gt;Node20 -->
<g id="edge38" class="edge"><title>Node3&#45;&gt;Node20</title>
<path fill="none" stroke="midnightblue" d="M1029.86,-66.6374C1088.14,-61.9549 1213.41,-49.6754 1326.37,-22.0467"/>
<polygon fill="midnightblue" stroke="midnightblue" points="1327.36,-25.4076 1336.21,-19.5916 1325.66,-18.6157 1327.36,-25.4076"/>
</g>
<!-- Node21&#45;&gt;Node3 -->
<g id="edge42" class="edge"><title>Node21&#45;&gt;Node3</title>
<path fill="none" stroke="midnightblue" d="M1216.14,-116.963C1166.49,-106.097 1087.94,-88.9039 1039.6,-78.3238"/>
<polygon fill="midnightblue" stroke="midnightblue" points="1040.28,-74.8902 1029.76,-76.1711 1038.79,-81.7283 1040.28,-74.8902"/>
</g>
<!-- Node22&#45;&gt;Node3 -->
<g id="edge46" class="edge"><title>Node22&#45;&gt;Node3</title>
<path fill="none" stroke="midnightblue" d="M1320.68,-174.814C1330.78,-160.099 1345.62,-132.819 1331,-116 1312.15,-94.3089 1125.8,-78.2469 1039.93,-71.9361"/>
<polygon fill="midnightblue" stroke="midnightblue" points="1039.95,-68.4289 1029.73,-71.1976 1039.45,-75.4106 1039.95,-68.4289"/>
</g>
<!-- Node22&#45;&gt;Node21 -->
<g id="edge48" class="edge"><title>Node22&#45;&gt;Node21</title>
<path fill="none" stroke="midnightblue" d="M1304.12,-174.897C1296.89,-166.682 1286.52,-154.883 1277.87,-145.051"/>
<polygon fill="midnightblue" stroke="midnightblue" points="1280.36,-142.576 1271.13,-137.378 1275.1,-147.199 1280.36,-142.576"/>
</g>
<!-- Node23&#45;&gt;Node3 -->
<g id="edge52" class="edge"><title>Node23&#45;&gt;Node3</title>
<path fill="none" stroke="midnightblue" d="M1130.3,-174.909C1105.06,-154.856 1048.39,-109.83 1017.7,-85.4435"/>
<polygon fill="midnightblue" stroke="midnightblue" points="1019.78,-82.631 1009.78,-79.1506 1015.43,-88.1117 1019.78,-82.631"/>
</g>
<!-- Node23&#45;&gt;Node21 -->
<g id="edge54" class="edge"><title>Node23&#45;&gt;Node21</title>
<path fill="none" stroke="midnightblue" d="M1163.73,-174.897C1182.55,-165.722 1210.55,-152.076 1231.85,-141.694"/>
<polygon fill="midnightblue" stroke="midnightblue" points="1233.65,-144.709 1241.11,-137.182 1230.59,-138.417 1233.65,-144.709"/>
</g>
<!-- Node24 -->
<g id="node52" class="node"><title>Node24</title>
<a xlink:href="attribute_8h.html" target="_top" xlink:title="Contains the definition for the XML::Attribute class. ">
<polygon fill="white" stroke="black" points="1101.5,-117 1101.5,-137 1184.5,-137 1184.5,-117 1101.5,-117"/>
<text text-anchor="middle" x="1143" y="-124" font-family="FreeSans" font-size="10.00">XML/attribute.h</text>
</a>
</g>
<!-- Node23&#45;&gt;Node24 -->
<g id="edge56" class="edge"><title>Node23&#45;&gt;Node24</title>
<path fill="none" stroke="midnightblue" d="M1143,-174.897C1143,-167.339 1143,-156.748 1143,-147.446"/>
<polygon fill="midnightblue" stroke="midnightblue" points="1146.5,-147.378 1143,-137.378 1139.5,-147.378 1146.5,-147.378"/>
</g>
<!-- Node25 -->
<g id="node55" class="node"><title>Node25</title>
<a xlink:href="objectrange_8h.html" target="_top" xlink:title="Contains the implementation of the ObjectRange class template. ">
<polygon fill="white" stroke="black" points="948,-117 948,-137 1046,-137 1046,-117 948,-117"/>
<text text-anchor="middle" x="997" y="-124" font-family="FreeSans" font-size="10.00">XML/objectrange.h</text>
</a>
</g>
<!-- Node23&#45;&gt;Node25 -->
<g id="edge60" class="edge"><title>Node23&#45;&gt;Node25</title>
<path fill="none" stroke="midnightblue" d="M1117.57,-174.897C1093.95,-165.515 1058.57,-151.459 1032.24,-140.998"/>
<polygon fill="midnightblue" stroke="midnightblue" points="1033.22,-137.621 1022.63,-137.182 1030.63,-144.126 1033.22,-137.621"/>
</g>
<!-- Node24&#45;&gt;Node3 -->
<g id="edge58" class="edge"><title>Node24&#45;&gt;Node3</title>
<path fill="none" stroke="midnightblue" d="M1117.57,-116.897C1093.95,-107.515 1058.57,-93.4593 1032.24,-82.9979"/>
<polygon fill="midnightblue" stroke="midnightblue" points="1033.22,-79.6209 1022.63,-79.1817 1030.63,-86.1264 1033.22,-79.6209"/>
</g>
<!-- Node25&#45;&gt;Node3 -->
<g id="edge62" class="edge"><title>Node25&#45;&gt;Node3</title>
<path fill="none" stroke="midnightblue" d="M997,-116.897C997,-109.339 997,-98.7476 997,-89.4458"/>
<polygon fill="midnightblue" stroke="midnightblue" points="1000.5,-89.3776 997,-79.3776 993.5,-89.3776 1000.5,-89.3776"/>
</g>
<!-- Node26&#45;&gt;Node3 -->
<g id="edge66" class="edge"><title>Node26&#45;&gt;Node3</title>
<path fill="none" stroke="midnightblue" d="M33.0818,-348.802C29.4656,-328.659 22,-282.314 22,-243 22,-243 22,-243 22,-185 22,-89.6903 766.132,-72.3769 954.219,-69.5231"/>
<polygon fill="midnightblue" stroke="midnightblue" points="954.333,-73.0219 964.281,-69.3763 954.231,-66.0226 954.333,-73.0219"/>
</g>
<!-- Node27 -->
<g id="node61" class="node"><title>Node27</title>
<a xlink:href="resource_8h_source.html" target="_top" xlink:title="resource.h">
<polygon fill="white" stroke="black" points="474.5,-291 474.5,-311 535.5,-311 535.5,-291 474.5,-291"/>
<text text-anchor="middle" x="505" y="-298" font-family="FreeSans" font-size="10.00">resource.h</text>
</a>
</g>
<!-- Node26&#45;&gt;Node27 -->
<g id="edge68" class="edge"><title>Node26&#45;&gt;Node27</title>
<path fill="none" stroke="midnightblue" d="M70.7122,-354.593C156.434,-344.014 373.439,-317.235 464.155,-306.04"/>
<polygon fill="midnightblue" stroke="midnightblue" points="464.825,-309.484 474.321,-304.786 463.967,-302.537 464.825,-309.484"/>
</g>
<!-- Node28 -->
<g id="node63" class="node"><title>Node28</title>
<a xlink:href="resourceenumerations_8h_source.html" target="_top" xlink:title="Resource/resourceenumerations.h">
<polygon fill="white" stroke="black" points="164,-233 164,-253 326,-253 326,-233 164,-233"/>
<text text-anchor="middle" x="245" y="-240" font-family="FreeSans" font-size="10.00">Resource/resourceenumerations.h</text>
</a>
</g>
<!-- Node27&#45;&gt;Node28 -->
<g id="edge70" class="edge"><title>Node27&#45;&gt;Node28</title>
<path fill="none" stroke="midnightblue" d="M474.41,-294.176C431.659,-284.639 353.331,-267.166 300.226,-255.32"/>
<polygon fill="midnightblue" stroke="midnightblue" points="300.811,-251.864 290.289,-253.103 299.287,-258.696 300.811,-251.864"/>
</g>
<!-- Node29 -->
<g id="node65" class="node"><title>Node29</title>
<a xlink:href="archive_8h_source.html" target="_top" xlink:title="Resource/archive.h">
<polygon fill="white" stroke="black" points="344,-233 344,-253 442,-253 442,-233 344,-233"/>
<text text-anchor="middle" x="393" y="-240" font-family="FreeSans" font-size="10.00">Resource/archive.h</text>
</a>
</g>
<!-- Node27&#45;&gt;Node29 -->
<g id="edge72" class="edge"><title>Node27&#45;&gt;Node29</title>
<path fill="none" stroke="midnightblue" d="M485.491,-290.897C467.853,-281.763 441.66,-268.199 421.647,-257.835"/>
<polygon fill="midnightblue" stroke="midnightblue" points="423.151,-254.672 412.661,-253.182 419.932,-260.888 423.151,-254.672"/>
</g>
<!-- Node30 -->
<g id="node67" class="node"><title>Node30</title>
<a xlink:href="asset_8h_source.html" target="_top" xlink:title="Resource/asset.h">
<polygon fill="white" stroke="black" points="460,-233 460,-253 550,-253 550,-233 460,-233"/>
<text text-anchor="middle" x="505" y="-240" font-family="FreeSans" font-size="10.00">Resource/asset.h</text>
</a>
</g>
<!-- Node27&#45;&gt;Node30 -->
<g id="edge74" class="edge"><title>Node27&#45;&gt;Node30</title>
<path fill="none" stroke="midnightblue" d="M505,-290.897C505,-283.339 505,-272.748 505,-263.446"/>
<polygon fill="midnightblue" stroke="midnightblue" points="508.5,-263.378 505,-253.378 501.5,-263.378 508.5,-263.378"/>
</g>
<!-- Node31 -->
<g id="node69" class="node"><title>Node31</title>
<a xlink:href="assetgroup_8h_source.html" target="_top" xlink:title="Resource/assetgroup.h">
<polygon fill="white" stroke="black" points="880,-233 880,-253 994,-253 994,-233 880,-233"/>
<text text-anchor="middle" x="937" y="-240" font-family="FreeSans" font-size="10.00">Resource/assetgroup.h</text>
</a>
</g>
<!-- Node27&#45;&gt;Node31 -->
<g id="edge76" class="edge"><title>Node27&#45;&gt;Node31</title>
<path fill="none" stroke="midnightblue" d="M535.902,-297.428C597.385,-290.235 739.63,-273.17 869.648,-254.16"/>
<polygon fill="midnightblue" stroke="midnightblue" points="870.398,-257.588 879.783,-252.671 869.381,-250.662 870.398,-257.588"/>
</g>
<!-- Node32 -->
<g id="node71" class="node"><title>Node32</title>
<a xlink:href="assethandler_8h_source.html" target="_top" xlink:title="Resource/assethandler.h">
<polygon fill="white" stroke="black" points="1012,-233 1012,-253 1134,-253 1134,-233 1012,-233"/>
<text text-anchor="middle" x="1073" y="-240" font-family="FreeSans" font-size="10.00">Resource/assethandler.h</text>
</a>
</g>
<!-- Node27&#45;&gt;Node32 -->
<g id="edge78" class="edge"><title>Node27&#45;&gt;Node32</title>
<path fill="none" stroke="midnightblue" d="M535.673,-298.768C612.386,-293.045 818.933,-276.768 1001.88,-254.08"/>
<polygon fill="midnightblue" stroke="midnightblue" points="1002.46,-257.534 1011.95,-252.821 1001.59,-250.588 1002.46,-257.534"/>
</g>
<!-- Node27&#45;&gt;Node33 -->
<g id="edge80" class="edge"><title>Node27&#45;&gt;Node33</title>
<path fill="none" stroke="midnightblue" d="M535.822,-297.68C586.129,-291.651 682.722,-277.323 707,-254 720.122,-241.393 724.449,-220.629 725.749,-205.166"/>
<polygon fill="midnightblue" stroke="midnightblue" points="729.251,-205.195 726.243,-195.036 722.26,-204.854 729.251,-205.195"/>
</g>
<!-- Node36 -->
<g id="node81" class="node"><title>Node36</title>
<a xlink:href="filestream_8h.html" target="_top" xlink:title="Declaration of FileStream. ">
<polygon fill="white" stroke="black" points="753.5,-233 753.5,-253 862.5,-253 862.5,-233 753.5,-233"/>
<text text-anchor="middle" x="808" y="-240" font-family="FreeSans" font-size="10.00">Resource/filestream.h</text>
</a>
</g>
<!-- Node27&#45;&gt;Node36 -->
<g id="edge90" class="edge"><title>Node27&#45;&gt;Node36</title>
<path fill="none" stroke="midnightblue" d="M535.721,-295.119C584.777,-285.729 681.775,-267.162 745.759,-254.914"/>
<polygon fill="midnightblue" stroke="midnightblue" points="746.569,-258.323 755.733,-253.005 745.253,-251.448 746.569,-258.323"/>
</g>
<!-- Node37 -->
<g id="node84" class="node"><title>Node37</title>
<a xlink:href="inputstream_8h_source.html" target="_top" xlink:title="Resource/inputstream.h">
<polygon fill="white" stroke="black" points="402,-117 402,-137 520,-137 520,-117 402,-117"/>
<text text-anchor="middle" x="461" y="-124" font-family="FreeSans" font-size="10.00">Resource/inputstream.h</text>
</a>
</g>
<!-- Node27&#45;&gt;Node37 -->
<g id="edge94" class="edge"><title>Node27&#45;&gt;Node37</title>
<path fill="none" stroke="midnightblue" d="M474.229,-299.247C391.397,-294.216 168.497,-278.504 147,-254 73.8765,-170.649 278.824,-141.184 391.881,-131.444"/>
<polygon fill="midnightblue" stroke="midnightblue" points="392.181,-134.931 401.857,-130.615 391.601,-127.955 392.181,-134.931"/>
</g>
<!-- Node38 -->
<g id="node88" class="node"><title>Node38</title>
<a xlink:href="memorystream_8h.html" target="_top" xlink:title="Declaration of MemoryStream. ">
<polygon fill="white" stroke="black" points="567.5,-233 567.5,-253 698.5,-253 698.5,-233 567.5,-233"/>
<text text-anchor="middle" x="633" y="-240" font-family="FreeSans" font-size="10.00">Resource/memorystream.h</text>
</a>
</g>
<!-- Node27&#45;&gt;Node38 -->
<g id="edge100" class="edge"><title>Node27&#45;&gt;Node38</title>
<path fill="none" stroke="midnightblue" d="M527.296,-290.897C547.727,-281.639 578.203,-267.83 601.189,-257.415"/>
<polygon fill="midnightblue" stroke="midnightblue" points="602.866,-260.497 610.53,-253.182 599.977,-254.121 602.866,-260.497"/>
</g>
<!-- Node39 -->
<g id="node91" class="node"><title>Node39</title>
<a xlink:href="textsettingsfile_8h_source.html" target="_top" xlink:title="Resource/textsettingsfile.h">
<polygon fill="white" stroke="black" points="305,-175 305,-195 433,-195 433,-175 305,-175"/>
<text text-anchor="middle" x="369" y="-182" font-family="FreeSans" font-size="10.00">Resource/textsettingsfile.h</text>
</a>
</g>
<!-- Node27&#45;&gt;Node39 -->
<g id="edge104" class="edge"><title>Node27&#45;&gt;Node39</title>
<path fill="none" stroke="midnightblue" d="M474.328,-299.156C392.879,-293.949 175.939,-277.939 155,-254 148.563,-246.64 148.872,-239.619 155,-232 172.476,-210.269 240.135,-198.013 294.759,-191.507"/>
<polygon fill="midnightblue" stroke="midnightblue" points="295.254,-194.973 304.791,-190.358 294.458,-188.018 295.254,-194.973"/>
</g>
<!-- Node33&#45;&gt;Node3 -->
<g id="edge82" class="edge"><title>Node33&#45;&gt;Node3</title>
<path fill="none" stroke="midnightblue" d="M725.345,-174.899C724.964,-159.781 726.664,-131.405 743,-116 772.824,-87.8744 889.593,-75.9501 953.913,-71.4312"/>
<polygon fill="midnightblue" stroke="midnightblue" points="954.4,-74.9064 964.143,-70.7438 953.931,-67.9221 954.4,-74.9064"/>
</g>
<!-- Node34 -->
<g id="node76" class="node"><title>Node34</title>
<a xlink:href="countedptr_8h.html" target="_top" xlink:title="This file describes and implements a reference counted pointer that is NOT threadsafe. ">
<polygon fill="white" stroke="black" points="752,-117 752,-137 822,-137 822,-117 752,-117"/>
<text text-anchor="middle" x="787" y="-124" font-family="FreeSans" font-size="10.00">countedptr.h</text>
</a>
</g>
<!-- Node33&#45;&gt;Node34 -->
<g id="edge84" class="edge"><title>Node33&#45;&gt;Node34</title>
<path fill="none" stroke="midnightblue" d="M736.625,-174.897C745.439,-166.517 758.173,-154.409 768.633,-144.464"/>
<polygon fill="midnightblue" stroke="midnightblue" points="771.25,-146.805 776.086,-137.378 766.427,-141.732 771.25,-146.805"/>
</g>
<!-- Node35 -->
<g id="node79" class="node"><title>Node35</title>
<polygon fill="white" stroke="#bfbfbf" points="839.5,-117 839.5,-137 892.5,-137 892.5,-117 839.5,-117"/>
<text text-anchor="middle" x="866" y="-124" font-family="FreeSans" font-size="10.00">iostream</text>
</g>
<!-- Node33&#45;&gt;Node35 -->
<g id="edge88" class="edge"><title>Node33&#45;&gt;Node35</title>
<path fill="none" stroke="midnightblue" d="M750.386,-174.897C772.933,-165.556 806.662,-151.583 831.878,-141.136"/>
<polygon fill="midnightblue" stroke="midnightblue" points="833.525,-144.243 841.424,-137.182 830.845,-137.776 833.525,-144.243"/>
</g>
<!-- Node34&#45;&gt;Node3 -->
<g id="edge86" class="edge"><title>Node34&#45;&gt;Node3</title>
<path fill="none" stroke="midnightblue" d="M822.149,-117.292C858.484,-107.257 915.243,-91.5804 954.177,-80.8274"/>
<polygon fill="midnightblue" stroke="midnightblue" points="955.452,-84.1062 964.16,-78.0702 953.589,-77.3588 955.452,-84.1062"/>
</g>
<!-- Node36&#45;&gt;Node33 -->
<g id="edge92" class="edge"><title>Node36&#45;&gt;Node33</title>
<path fill="none" stroke="midnightblue" d="M793.717,-232.897C781.329,-224.135 763.178,-211.297 748.785,-201.116"/>
<polygon fill="midnightblue" stroke="midnightblue" points="750.58,-198.099 740.395,-195.182 746.538,-203.814 750.58,-198.099"/>
</g>
<!-- Node37&#45;&gt;Node3 -->
<g id="edge98" class="edge"><title>Node37&#45;&gt;Node3</title>
<path fill="none" stroke="midnightblue" d="M520.152,-120.599C629.057,-108.815 858.848,-83.9493 954.166,-73.635"/>
<polygon fill="midnightblue" stroke="midnightblue" points="954.74,-77.0934 964.305,-72.5378 953.987,-70.1341 954.74,-77.0934"/>
</g>
<!-- Node37&#45;&gt;Node4 -->
<g id="edge96" class="edge"><title>Node37&#45;&gt;Node4</title>
<path fill="none" stroke="midnightblue" d="M461,-116.706C461,-97.5683 461,-56.1978 461,-31.2654"/>
<polygon fill="midnightblue" stroke="midnightblue" points="464.5,-31.1055 461,-21.1055 457.5,-31.1056 464.5,-31.1055"/>
</g>
<!-- Node38&#45;&gt;Node33 -->
<g id="edge102" class="edge"><title>Node38&#45;&gt;Node33</title>
<path fill="none" stroke="midnightblue" d="M649.199,-232.897C663.514,-223.97 684.614,-210.811 701.077,-200.543"/>
<polygon fill="midnightblue" stroke="midnightblue" points="703.041,-203.443 709.674,-195.182 699.337,-197.504 703.041,-203.443"/>
</g>
<!-- Node39&#45;&gt;Node3 -->
<g id="edge106" class="edge"><title>Node39&#45;&gt;Node3</title>
<path fill="none" stroke="midnightblue" d="M419.635,-174.942C488.941,-161.244 617.27,-136.123 727,-116 807.071,-101.316 900.715,-85.2659 954.024,-76.2349"/>
<polygon fill="midnightblue" stroke="midnightblue" points="954.856,-79.644 964.132,-74.5248 953.688,-72.742 954.856,-79.644"/>
</g>
<!-- Node40&#45;&gt;Node3 -->
<g id="edge112" class="edge"><title>Node40&#45;&gt;Node3</title>
<path fill="none" stroke="midnightblue" d="M1378.62,-348.789C1381.68,-328.626 1388,-282.245 1388,-243 1388,-243 1388,-243 1388,-185 1388,-149.774 1378.18,-135.731 1349,-116 1299.35,-82.4272 1122.07,-72.7399 1039.67,-70.0223"/>
<polygon fill="midnightblue" stroke="midnightblue" points="1039.74,-66.5228 1029.63,-69.7105 1039.52,-73.5195 1039.74,-66.5228"/>
</g>
<!-- Node41&#45;&gt;Node3 -->
<g id="edge116" class="edge"><title>Node41&#45;&gt;Node3</title>
<path fill="none" stroke="midnightblue" d="M1449.06,-290.59C1451.66,-258.799 1454.69,-162.334 1402,-116 1375.17,-92.4068 1138.76,-76.7947 1040.03,-71.2493"/>
<polygon fill="midnightblue" stroke="midnightblue" points="1039.98,-67.7413 1029.8,-70.6833 1039.6,-74.7306 1039.98,-67.7413"/>
</g>
</g>
</svg>
