<?xml version="1.0" encoding="UTF-8" standalone="no"?>
<!DOCTYPE svg PUBLIC "-//W3C//DTD SVG 1.1//EN"
 "http://www.w3.org/Graphics/SVG/1.1/DTD/svg11.dtd">
<!-- Generated by graphviz version 2.26.3 (20100126.1600)
 -->
<!-- Title: /home/sqeaky/Code/Mezzanine/Mezzanine/src/XML/xpathnodeset.cpp Pages: 1 -->
<svg width="1130pt" height="392pt"
 viewBox="0.00 0.00 1130.00 392.00" xmlns="http://www.w3.org/2000/svg" xmlns:xlink="http://www.w3.org/1999/xlink">
<g id="graph1" class="graph" transform="scale(1 1) rotate(0) translate(4 388)">
<title>/home/sqeaky/Code/Mezzanine/Mezzanine/src/XML/xpathnodeset.cpp</title>
<polygon fill="white" stroke="white" points="-4,5 -4,-388 1127,-388 1127,5 -4,5"/>
<!-- Node1 -->
<g id="node1" class="node"><title>Node1</title>
<polygon fill="#bfbfbf" stroke="black" points="417.5,-349 417.5,-383 604.5,-383 604.5,-349 417.5,-349"/>
<text text-anchor="start" x="425.5" y="-370" font-family="Helvetica,sans-Serif" font-size="10.00">/home/sqeaky/Code/Mezzanine</text>
<text text-anchor="middle" x="511" y="-357" font-family="Helvetica,sans-Serif" font-size="10.00">/Mezzanine/src/XML/xpathnodeset.cpp</text>
</g>
<!-- Node2 -->
<g id="node3" class="node"><title>Node2</title>
<a xlink:href="xpathnodeset_8h.html" target="_top" xlink:title="This file contains the defintion of the Mezzanine::XML::XPathNodeSet. ">
<polygon fill="white" stroke="black" points="457.5,-290.5 457.5,-311.5 564.5,-311.5 564.5,-290.5 457.5,-290.5"/>
<text text-anchor="middle" x="511" y="-298.5" font-family="Helvetica,sans-Serif" font-size="10.00">XML/xpathnodeset.h</text>
</a>
</g>
<!-- Node1&#45;&gt;Node2 -->
<g id="edge2" class="edge"><title>Node1&#45;&gt;Node2</title>
<path fill="none" stroke="midnightblue" d="M511,-348.922C511,-340.67 511,-330.692 511,-321.982"/>
<polygon fill="midnightblue" stroke="midnightblue" points="514.5,-321.852 511,-311.852 507.5,-321.852 514.5,-321.852"/>
</g>
<!-- Node3 -->
<g id="node5" class="node"><title>Node3</title>
<a xlink:href="datatypes_8h.html" target="_top" xlink:title="All the definitions for datatypes as well as some basic conversion functions are defined here...">
<polygon fill="white" stroke="black" points="560,-58.5 560,-79.5 628,-79.5 628,-58.5 560,-58.5"/>
<text text-anchor="middle" x="594" y="-66.5" font-family="Helvetica,sans-Serif" font-size="10.00">datatypes.h</text>
</a>
</g>
<!-- Node2&#45;&gt;Node3 -->
<g id="edge4" class="edge"><title>Node2&#45;&gt;Node3</title>
<path fill="none" stroke="midnightblue" d="M504.855,-290.277C497.868,-276.737 488.037,-252.707 493,-232 506.483,-175.752 519.345,-163.742 552,-116 559.023,-105.733 568.09,-95.3169 576.001,-86.9086"/>
<polygon fill="midnightblue" stroke="midnightblue" points="578.696,-89.1562 583.127,-79.5325 573.662,-84.2924 578.696,-89.1562"/>
</g>
<!-- Node21 -->
<g id="node41" class="node"><title>Node21</title>
<a xlink:href="xpathnode_8h.html" target="_top" xlink:title="The definition of the Mezzanine::XML::XPathNode. ">
<polygon fill="white" stroke="black" points="501.5,-232.5 501.5,-253.5 594.5,-253.5 594.5,-232.5 501.5,-232.5"/>
<text text-anchor="middle" x="548" y="-240.5" font-family="Helvetica,sans-Serif" font-size="10.00">XML/xpathnode.h</text>
</a>
</g>
<!-- Node2&#45;&gt;Node21 -->
<g id="edge40" class="edge"><title>Node2&#45;&gt;Node21</title>
<path fill="none" stroke="midnightblue" d="M517.786,-290.362C522.793,-282.513 529.745,-271.616 535.718,-262.253"/>
<polygon fill="midnightblue" stroke="midnightblue" points="538.829,-263.884 541.257,-253.571 532.928,-260.119 538.829,-263.884"/>
</g>
<!-- Node4 -->
<g id="node7" class="node"><title>Node4</title>
<a xlink:href="crossplatformexport_8h.html" target="_top" xlink:title="This file is used on some platforms to determine what data should be read and written to and from a s...">
<polygon fill="white" stroke="black" points="-0.5,-0.5 -0.5,-21.5 110.5,-21.5 110.5,-0.5 -0.5,-0.5"/>
<text text-anchor="middle" x="55" y="-8.5" font-family="Helvetica,sans-Serif" font-size="10.00">crossplatformexport.h</text>
</a>
</g>
<!-- Node3&#45;&gt;Node4 -->
<g id="edge6" class="edge"><title>Node3&#45;&gt;Node4</title>
<path fill="none" stroke="midnightblue" d="M559.92,-66.4703C483.287,-60.6017 291.344,-44.8962 120.967,-22.1993"/>
<polygon fill="midnightblue" stroke="midnightblue" points="121.189,-18.6978 110.811,-20.8347 120.256,-25.6354 121.189,-18.6978"/>
</g>
<!-- Node5 -->
<g id="node9" class="node"><title>Node5</title>
<polygon fill="white" stroke="#bfbfbf" points="127.5,-0.5 127.5,-21.5 176.5,-21.5 176.5,-0.5 127.5,-0.5"/>
<text text-anchor="middle" x="152" y="-8.5" font-family="Helvetica,sans-Serif" font-size="10.00">stdint.h</text>
</g>
<!-- Node3&#45;&gt;Node5 -->
<g id="edge8" class="edge"><title>Node3&#45;&gt;Node5</title>
<path fill="none" stroke="midnightblue" d="M559.94,-67.4738C490.873,-63.87 329.414,-52.858 186.53,-22.007"/>
<polygon fill="midnightblue" stroke="midnightblue" points="187.23,-18.5773 176.711,-19.8488 185.727,-25.4141 187.23,-18.5773"/>
</g>
<!-- Node6 -->
<g id="node11" class="node"><title>Node6</title>
<polygon fill="white" stroke="#bfbfbf" points="193.5,-0.5 193.5,-21.5 242.5,-21.5 242.5,-0.5 193.5,-0.5"/>
<text text-anchor="middle" x="218" y="-8.5" font-family="Helvetica,sans-Serif" font-size="10.00">cstddef</text>
</g>
<!-- Node3&#45;&gt;Node6 -->
<g id="edge10" class="edge"><title>Node3&#45;&gt;Node6</title>
<path fill="none" stroke="midnightblue" d="M559.538,-66.4074C498.989,-61.3954 369.551,-48.6429 252.56,-22.0638"/>
<polygon fill="midnightblue" stroke="midnightblue" points="253.256,-18.6325 242.725,-19.7893 251.679,-25.4525 253.256,-18.6325"/>
</g>
<!-- Node7 -->
<g id="node13" class="node"><title>Node7</title>
<polygon fill="white" stroke="#bfbfbf" points="260,-0.5 260,-21.5 316,-21.5 316,-0.5 260,-0.5"/>
<text text-anchor="middle" x="288" y="-8.5" font-family="Helvetica,sans-Serif" font-size="10.00">algorithm</text>
</g>
<!-- Node3&#45;&gt;Node7 -->
<g id="edge12" class="edge"><title>Node3&#45;&gt;Node7</title>
<path fill="none" stroke="midnightblue" d="M559.772,-64.3198C510.221,-57.2624 415.494,-42.7144 325.956,-22.0331"/>
<polygon fill="midnightblue" stroke="midnightblue" points="326.726,-18.6188 316.191,-19.7481 325.131,-25.4347 326.726,-18.6188"/>
</g>
<!-- Node8 -->
<g id="node15" class="node"><title>Node8</title>
<polygon fill="white" stroke="#bfbfbf" points="333.5,-0.5 333.5,-21.5 392.5,-21.5 392.5,-0.5 333.5,-0.5"/>
<text text-anchor="middle" x="363" y="-8.5" font-family="Helvetica,sans-Serif" font-size="10.00">exception</text>
</g>
<!-- Node3&#45;&gt;Node8 -->
<g id="edge14" class="edge"><title>Node3&#45;&gt;Node8</title>
<path fill="none" stroke="midnightblue" d="M559.722,-61.121C523.011,-52.5796 462.825,-38.2813 402.514,-22.34"/>
<polygon fill="midnightblue" stroke="midnightblue" points="403.401,-18.9542 392.837,-19.768 401.602,-25.7193 403.401,-18.9542"/>
</g>
<!-- Node9 -->
<g id="node17" class="node"><title>Node9</title>
<polygon fill="white" stroke="#bfbfbf" points="409.5,-0.5 409.5,-21.5 458.5,-21.5 458.5,-0.5 409.5,-0.5"/>
<text text-anchor="middle" x="434" y="-8.5" font-family="Helvetica,sans-Serif" font-size="10.00">istream</text>
</g>
<!-- Node3&#45;&gt;Node9 -->
<g id="edge16" class="edge"><title>Node3&#45;&gt;Node9</title>
<path fill="none" stroke="midnightblue" d="M565.025,-58.4966C537.797,-48.6265 497.035,-33.8503 468.219,-23.4043"/>
<polygon fill="midnightblue" stroke="midnightblue" points="469.16,-20.0228 458.566,-19.9052 466.775,-26.6037 469.16,-20.0228"/>
</g>
<!-- Node10 -->
<g id="node19" class="node"><title>Node10</title>
<polygon fill="white" stroke="#bfbfbf" points="475.5,-0.5 475.5,-21.5 504.5,-21.5 504.5,-0.5 475.5,-0.5"/>
<text text-anchor="middle" x="490" y="-8.5" font-family="Helvetica,sans-Serif" font-size="10.00">list</text>
</g>
<!-- Node3&#45;&gt;Node10 -->
<g id="edge18" class="edge"><title>Node3&#45;&gt;Node10</title>
<path fill="none" stroke="midnightblue" d="M574.925,-58.3619C557.647,-48.7262 532.131,-34.496 513.58,-24.1502"/>
<polygon fill="midnightblue" stroke="midnightblue" points="515.033,-20.9531 504.594,-19.1391 511.623,-27.0666 515.033,-20.9531"/>
</g>
<!-- Node11 -->
<g id="node21" class="node"><title>Node11</title>
<polygon fill="white" stroke="#bfbfbf" points="521.5,-0.5 521.5,-21.5 556.5,-21.5 556.5,-0.5 521.5,-0.5"/>
<text text-anchor="middle" x="539" y="-8.5" font-family="Helvetica,sans-Serif" font-size="10.00">map</text>
</g>
<!-- Node3&#45;&gt;Node11 -->
<g id="edge20" class="edge"><title>Node3&#45;&gt;Node11</title>
<path fill="none" stroke="midnightblue" d="M583.912,-58.3619C576.159,-50.1861 565.27,-38.7025 556.155,-29.0907"/>
<polygon fill="midnightblue" stroke="midnightblue" points="558.445,-26.4186 549.024,-21.5707 553.365,-31.2352 558.445,-26.4186"/>
</g>
<!-- Node12 -->
<g id="node23" class="node"><title>Node12</title>
<polygon fill="white" stroke="#bfbfbf" points="573.5,-0.5 573.5,-21.5 614.5,-21.5 614.5,-0.5 573.5,-0.5"/>
<text text-anchor="middle" x="594" y="-8.5" font-family="Helvetica,sans-Serif" font-size="10.00">string</text>
</g>
<!-- Node3&#45;&gt;Node12 -->
<g id="edge22" class="edge"><title>Node3&#45;&gt;Node12</title>
<path fill="none" stroke="midnightblue" d="M594,-58.3619C594,-50.9219 594,-40.7427 594,-31.7276"/>
<polygon fill="midnightblue" stroke="midnightblue" points="597.5,-31.5706 594,-21.5707 590.5,-31.5707 597.5,-31.5706"/>
</g>
<!-- Node13 -->
<g id="node25" class="node"><title>Node13</title>
<polygon fill="white" stroke="#bfbfbf" points="632,-0.5 632,-21.5 684,-21.5 684,-0.5 632,-0.5"/>
<text text-anchor="middle" x="658" y="-8.5" font-family="Helvetica,sans-Serif" font-size="10.00">sstream</text>
</g>
<!-- Node3&#45;&gt;Node13 -->
<g id="edge24" class="edge"><title>Node3&#45;&gt;Node13</title>
<path fill="none" stroke="midnightblue" d="M605.739,-58.3619C614.941,-50.0226 627.94,-38.2418 638.672,-28.5162"/>
<polygon fill="midnightblue" stroke="midnightblue" points="641.276,-30.8793 646.336,-21.5707 636.576,-25.6924 641.276,-30.8793"/>
</g>
<!-- Node14 -->
<g id="node27" class="node"><title>Node14</title>
<polygon fill="white" stroke="#bfbfbf" points="702,-0.5 702,-21.5 752,-21.5 752,-0.5 702,-0.5"/>
<text text-anchor="middle" x="727" y="-8.5" font-family="Helvetica,sans-Serif" font-size="10.00">fstream</text>
</g>
<!-- Node3&#45;&gt;Node14 -->
<g id="edge26" class="edge"><title>Node3&#45;&gt;Node14</title>
<path fill="none" stroke="midnightblue" d="M618.085,-58.4966C639.139,-49.3154 669.927,-35.8889 693.402,-25.6516"/>
<polygon fill="midnightblue" stroke="midnightblue" points="694.877,-28.8268 702.644,-21.6212 692.079,-22.4104 694.877,-28.8268"/>
</g>
<!-- Node15 -->
<g id="node29" class="node"><title>Node15</title>
<polygon fill="white" stroke="#bfbfbf" points="770,-0.5 770,-21.5 800,-21.5 800,-0.5 770,-0.5"/>
<text text-anchor="middle" x="785" y="-8.5" font-family="Helvetica,sans-Serif" font-size="10.00">set</text>
</g>
<!-- Node3&#45;&gt;Node15 -->
<g id="edge28" class="edge"><title>Node3&#45;&gt;Node15</title>
<path fill="none" stroke="midnightblue" d="M628.076,-61.0612C660.178,-53.2216 709.677,-40.2058 760.427,-21.8372"/>
<polygon fill="midnightblue" stroke="midnightblue" points="761.738,-25.0841 769.914,-18.3451 759.32,-18.515 761.738,-25.0841"/>
</g>
<!-- Node16 -->
<g id="node31" class="node"><title>Node16</title>
<polygon fill="white" stroke="#bfbfbf" points="818,-0.5 818,-21.5 862,-21.5 862,-0.5 818,-0.5"/>
<text text-anchor="middle" x="840" y="-8.5" font-family="Helvetica,sans-Serif" font-size="10.00">vector</text>
</g>
<!-- Node3&#45;&gt;Node16 -->
<g id="edge30" class="edge"><title>Node3&#45;&gt;Node16</title>
<path fill="none" stroke="midnightblue" d="M628.215,-62.8981C668.995,-55.325 739.311,-41.3205 808.069,-22.0271"/>
<polygon fill="midnightblue" stroke="midnightblue" points="809.097,-25.3735 817.757,-19.2698 807.181,-18.6408 809.097,-25.3735"/>
</g>
<!-- Node17 -->
<g id="node33" class="node"><title>Node17</title>
<polygon fill="white" stroke="#bfbfbf" points="880,-0.5 880,-21.5 920,-21.5 920,-0.5 880,-0.5"/>
<text text-anchor="middle" x="900" y="-8.5" font-family="Helvetica,sans-Serif" font-size="10.00">utility</text>
</g>
<!-- Node3&#45;&gt;Node17 -->
<g id="edge32" class="edge"><title>Node3&#45;&gt;Node17</title>
<path fill="none" stroke="midnightblue" d="M628.146,-65.3741C679.094,-59.4971 778.033,-46.2858 870.134,-21.841"/>
<polygon fill="midnightblue" stroke="midnightblue" points="871.145,-25.1934 879.884,-19.2034 869.317,-18.4363 871.145,-25.1934"/>
</g>
<!-- Node18 -->
<g id="node35" class="node"><title>Node18</title>
<polygon fill="white" stroke="#bfbfbf" points="938,-0.5 938,-21.5 990,-21.5 990,-0.5 938,-0.5"/>
<text text-anchor="middle" x="964" y="-8.5" font-family="Helvetica,sans-Serif" font-size="10.00">memory</text>
</g>
<!-- Node3&#45;&gt;Node18 -->
<g id="edge34" class="edge"><title>Node3&#45;&gt;Node18</title>
<path fill="none" stroke="midnightblue" d="M628.095,-66.0927C687.31,-60.6404 813.052,-47.2842 927.755,-22.0013"/>
<polygon fill="midnightblue" stroke="midnightblue" points="928.761,-25.3625 937.754,-19.7601 927.23,-18.532 928.761,-25.3625"/>
</g>
<!-- Node19 -->
<g id="node37" class="node"><title>Node19</title>
<polygon fill="white" stroke="#bfbfbf" points="1008,-0.5 1008,-21.5 1060,-21.5 1060,-0.5 1008,-0.5"/>
<text text-anchor="middle" x="1034" y="-8.5" font-family="Helvetica,sans-Serif" font-size="10.00">ostream</text>
</g>
<!-- Node3&#45;&gt;Node19 -->
<g id="edge36" class="edge"><title>Node3&#45;&gt;Node19</title>
<path fill="none" stroke="midnightblue" d="M628.221,-67.2156C696.769,-63.1746 855.799,-51.4542 997.591,-21.9819"/>
<polygon fill="midnightblue" stroke="midnightblue" points="998.71,-25.3228 1007.77,-19.829 997.261,-18.4743 998.71,-25.3228"/>
</g>
<!-- Node20 -->
<g id="node39" class="node"><title>Node20</title>
<a xlink:href="swig_8h.html" target="_top" xlink:title="Used to give commands specifically to the SWIG preprocessor. ">
<polygon fill="white" stroke="black" points="1077.5,-0.5 1077.5,-21.5 1122.5,-21.5 1122.5,-0.5 1077.5,-0.5"/>
<text text-anchor="middle" x="1100" y="-8.5" font-family="Helvetica,sans-Serif" font-size="10.00">swig.h</text>
</a>
</g>
<!-- Node3&#45;&gt;Node20 -->
<g id="edge38" class="edge"><title>Node3&#45;&gt;Node20</title>
<path fill="none" stroke="midnightblue" d="M628.138,-68.4459C705.327,-66.5945 899.079,-58.5854 1067.71,-21.8667"/>
<polygon fill="midnightblue" stroke="midnightblue" points="1068.49,-25.2775 1077.5,-19.6957 1066.98,-18.4435 1068.49,-25.2775"/>
</g>
<!-- Node21&#45;&gt;Node3 -->
<g id="edge42" class="edge"><title>Node21&#45;&gt;Node3</title>
<path fill="none" stroke="midnightblue" d="M547.476,-232.404C546.731,-210.102 546.861,-156.993 562,-116 565.717,-105.935 572.046,-95.9451 578.099,-87.78"/>
<polygon fill="midnightblue" stroke="midnightblue" points="581.004,-89.7477 584.422,-79.7194 575.496,-85.4272 581.004,-89.7477"/>
</g>
<!-- Node22 -->
<g id="node44" class="node"><title>Node22</title>
<a xlink:href="node_8h.html" target="_top" xlink:title="This defines the Mezzanine::XML::Node one of the central XML classes. ">
<polygon fill="white" stroke="black" points="604.5,-174.5 604.5,-195.5 673.5,-195.5 673.5,-174.5 604.5,-174.5"/>
<text text-anchor="middle" x="639" y="-182.5" font-family="Helvetica,sans-Serif" font-size="10.00">XML/node.h</text>
</a>
</g>
<!-- Node21&#45;&gt;Node22 -->
<g id="edge44" class="edge"><title>Node21&#45;&gt;Node22</title>
<path fill="none" stroke="midnightblue" d="M564.691,-232.362C578.416,-223.614 598.084,-211.079 613.737,-201.101"/>
<polygon fill="midnightblue" stroke="midnightblue" points="615.863,-203.897 622.415,-195.571 612.101,-197.994 615.863,-203.897"/>
</g>
<!-- Node22&#45;&gt;Node3 -->
<g id="edge46" class="edge"><title>Node22&#45;&gt;Node3</title>
<path fill="none" stroke="midnightblue" d="M611.682,-174.429C596.139,-166.832 578.02,-154.922 569,-138 560.445,-121.952 569.202,-102.349 578.625,-88.1446"/>
<polygon fill="midnightblue" stroke="midnightblue" points="581.72,-89.8371 584.738,-79.6813 576.045,-85.7382 581.72,-89.8371"/>
</g>
<!-- Node23 -->
<g id="node47" class="node"><title>Node23</title>
<a xlink:href="xmlenumerations_8h.html" target="_top" xlink:title="Enumerations and constant values used primarily in the XML system but useful for interacting with it ...">
<polygon fill="white" stroke="black" points="578,-116.5 578,-137.5 700,-137.5 700,-116.5 578,-116.5"/>
<text text-anchor="middle" x="639" y="-124.5" font-family="Helvetica,sans-Serif" font-size="10.00">XML/xmlenumerations.h</text>
</a>
</g>
<!-- Node22&#45;&gt;Node23 -->
<g id="edge48" class="edge"><title>Node22&#45;&gt;Node23</title>
<path fill="none" stroke="midnightblue" d="M639,-174.362C639,-166.922 639,-156.743 639,-147.728"/>
<polygon fill="midnightblue" stroke="midnightblue" points="642.5,-147.571 639,-137.571 635.5,-147.571 642.5,-147.571"/>
</g>
<!-- Node24 -->
<g id="node50" class="node"><title>Node24</title>
<a xlink:href="attribute_8h.html" target="_top" xlink:title="Contains the definition for the XML::Attribute class. ">
<polygon fill="white" stroke="black" points="717.5,-116.5 717.5,-137.5 800.5,-137.5 800.5,-116.5 717.5,-116.5"/>
<text text-anchor="middle" x="759" y="-124.5" font-family="Helvetica,sans-Serif" font-size="10.00">XML/attribute.h</text>
</a>
</g>
<!-- Node22&#45;&gt;Node24 -->
<g id="edge52" class="edge"><title>Node22&#45;&gt;Node24</title>
<path fill="none" stroke="midnightblue" d="M660.731,-174.497C679.474,-165.438 706.767,-152.246 727.836,-142.063"/>
<polygon fill="midnightblue" stroke="midnightblue" points="729.545,-145.124 737.025,-137.621 726.498,-138.822 729.545,-145.124"/>
</g>
<!-- Node25 -->
<g id="node53" class="node"><title>Node25</title>
<a xlink:href="objectrange_8h.html" target="_top" xlink:title="Contains the implementation of the ObjectRange class template. ">
<polygon fill="white" stroke="black" points="818,-116.5 818,-137.5 916,-137.5 916,-116.5 818,-116.5"/>
<text text-anchor="middle" x="867" y="-124.5" font-family="Helvetica,sans-Serif" font-size="10.00">XML/objectrange.h</text>
</a>
</g>
<!-- Node22&#45;&gt;Node25 -->
<g id="edge56" class="edge"><title>Node22&#45;&gt;Node25</title>
<path fill="none" stroke="midnightblue" d="M673.628,-176.191C711.42,-166.577 772.316,-151.086 815.669,-140.058"/>
<polygon fill="midnightblue" stroke="midnightblue" points="816.632,-143.424 825.461,-137.567 814.907,-136.64 816.632,-143.424"/>
</g>
<!-- Node23&#45;&gt;Node3 -->
<g id="edge50" class="edge"><title>Node23&#45;&gt;Node3</title>
<path fill="none" stroke="midnightblue" d="M630.746,-116.362C624.53,-108.35 615.849,-97.1605 608.485,-87.6696"/>
<polygon fill="midnightblue" stroke="midnightblue" points="611.097,-85.326 602.201,-79.5707 605.566,-89.617 611.097,-85.326"/>
</g>
<!-- Node24&#45;&gt;Node3 -->
<g id="edge54" class="edge"><title>Node24&#45;&gt;Node3</title>
<path fill="none" stroke="midnightblue" d="M729.12,-116.497C702.337,-107.082 662.855,-93.2036 633.478,-82.8773"/>
<polygon fill="midnightblue" stroke="midnightblue" points="634.531,-79.5374 623.936,-79.5231 632.21,-86.1413 634.531,-79.5374"/>
</g>
<!-- Node25&#45;&gt;Node3 -->
<g id="edge58" class="edge"><title>Node25&#45;&gt;Node3</title>
<path fill="none" stroke="midnightblue" d="M817.878,-116.564C766.713,-105.694 687.292,-88.8203 638.084,-78.3658"/>
<polygon fill="midnightblue" stroke="midnightblue" points="638.572,-74.8915 628.063,-76.2368 637.117,-81.7386 638.572,-74.8915"/>
</g>
</g>
</svg>
